<?xml version="1.0" encoding="UTF-8" standalone="no"?>
<!DOCTYPE svg PUBLIC "-//W3C//DTD SVG 1.1//EN"
 "http://www.w3.org/Graphics/SVG/1.1/DTD/svg11.dtd">
<!-- Generated by graphviz version 2.38.0 (20140413.2041)
 -->
<!-- Title: Session.compute Pages: 1 -->
<svg width="451pt" height="302pt"
 viewBox="0.00 0.00 451.00 301.50" xmlns="http://www.w3.org/2000/svg" xmlns:xlink="http://www.w3.org/1999/xlink">
<g id="graph0" class="graph" transform="scale(1 1) rotate(0) translate(4 297.5)">
<title>Session.compute</title>
<polygon fill="white" stroke="none" points="-4,4 -4,-297.5 447,-297.5 447,4 -4,4"/>
<!-- Node1 -->
<g id="node1" class="node"><title>Node1</title>
<g id="a_node1"><a xlink:title=" ">
<polygon fill="#bfbfbf" stroke="black" points="0,-126.5 0,-145.5 92,-145.5 92,-126.5 0,-126.5"/>
<text text-anchor="middle" x="46" y="-133.5" font-family="Helvetica,sans-Serif" font-size="10.00">Session.compute</text>
</a>
</g>
</g>
<!-- Node2 -->
<g id="node2" class="node"><title>Node2</title>
<g id="a_node2"><a xlink:href="class_word_quizzle_server_service.html#ab25a00b519044ce4181c66fa3f412815" target="_top" xlink:title=" ">
<polygon fill="white" stroke="black" points="129.5,-263 129.5,-293 296.5,-293 296.5,-263 129.5,-263"/>
<text text-anchor="start" x="137.5" y="-281" font-family="Helvetica,sans-Serif" font-size="10.00">WordQuizzleServerService.accetta</text>
<text text-anchor="middle" x="213" y="-270" font-family="Helvetica,sans-Serif" font-size="10.00">Sfida</text>
</a>
</g>
</g>
<!-- Node1&#45;&gt;Node2 -->
<g id="edge1" class="edge"><title>Node1&#45;&gt;Node2</title>
<path fill="none" stroke="midnightblue" d="M50.8534,-145.623C60.3801,-168.162 87.2587,-224.682 128,-254 130.101,-255.512 132.294,-256.928 134.559,-258.256"/>
<polygon fill="midnightblue" stroke="midnightblue" points="133.116,-261.45 143.604,-262.949 136.339,-255.236 133.116,-261.45"/>
</g>
<!-- Node3 -->
<g id="node3" class="node"><title>Node3</title>
<g id="a_node3"><a xlink:href="class_word_quizzle_server_service.html#a378a2523ed3c3c05001a6a3f5216ca82" target="_top" xlink:title=" ">
<polygon fill="white" stroke="black" points="128,-214 128,-244 298,-244 298,-214 128,-214"/>
<text text-anchor="start" x="136" y="-232" font-family="Helvetica,sans-Serif" font-size="10.00">WordQuizzleServerService.aggiungi</text>
<text text-anchor="middle" x="213" y="-221" font-family="Helvetica,sans-Serif" font-size="10.00">_amico</text>
</a>
</g>
</g>
<!-- Node1&#45;&gt;Node3 -->
<g id="edge2" class="edge"><title>Node1&#45;&gt;Node3</title>
<path fill="none" stroke="midnightblue" d="M55.9631,-145.982C69.9277,-160.944 98.3658,-189.12 128,-205 131.436,-206.841 135.029,-208.555 138.713,-210.148"/>
<polygon fill="midnightblue" stroke="midnightblue" points="137.433,-213.405 148.018,-213.862 140.028,-206.904 137.433,-213.405"/>
</g>
<!-- Node6 -->
<g id="node6" class="node"><title>Node6</title>
<g id="a_node6"><a xlink:href="class_word_quizzle_server_service.html#a7d1e0c830ff9c94df196ed2d4e49e703" target="_top" xlink:title=" ">
<polygon fill="white" stroke="black" points="137,-165 137,-195 289,-195 289,-165 137,-165"/>
<text text-anchor="start" x="145" y="-183" font-family="Helvetica,sans-Serif" font-size="10.00">WordQuizzleServerService.lista</text>
<text text-anchor="middle" x="213" y="-172" font-family="Helvetica,sans-Serif" font-size="10.00">_amici</text>
</a>
</g>
</g>
<!-- Node1&#45;&gt;Node6 -->
<g id="edge5" class="edge"><title>Node1&#45;&gt;Node6</title>
<path fill="none" stroke="midnightblue" d="M82.8025,-145.547C101.214,-150.457 124.251,-156.6 145.755,-162.335"/>
<polygon fill="midnightblue" stroke="midnightblue" points="144.941,-165.74 155.505,-164.935 146.744,-158.976 144.941,-165.74"/>
</g>
<!-- Node9 -->
<g id="node9" class="node"><title>Node9</title>
<g id="a_node9"><a xlink:href="class_word_quizzle_server_service.html#a75f5865caa37a7f0d2c2f5c95940c7d9" target="_top" xlink:title=" ">
<polygon fill="white" stroke="black" points="135.5,-126.5 135.5,-145.5 290.5,-145.5 290.5,-126.5 135.5,-126.5"/>
<text text-anchor="middle" x="213" y="-133.5" font-family="Helvetica,sans-Serif" font-size="10.00">WordQuizzleServerService.login</text>
</a>
</g>
</g>
<!-- Node1&#45;&gt;Node9 -->
<g id="edge9" class="edge"><title>Node1&#45;&gt;Node9</title>
<path fill="none" stroke="midnightblue" d="M92.087,-136C102.419,-136 113.744,-136 125.18,-136"/>
<polygon fill="midnightblue" stroke="midnightblue" points="125.236,-139.5 135.236,-136 125.236,-132.5 125.236,-139.5"/>
</g>
<!-- Node11 -->
<g id="node11" class="node"><title>Node11</title>
<g id="a_node11"><a xlink:href="class_word_quizzle_server_service.html#a277b16eeb84a3171777351f482157c0b" target="_top" xlink:title=" ">
<polygon fill="white" stroke="black" points="132.5,-0.5 132.5,-19.5 293.5,-19.5 293.5,-0.5 132.5,-0.5"/>
<text text-anchor="middle" x="213" y="-7.5" font-family="Helvetica,sans-Serif" font-size="10.00">WordQuizzleServerService.logout</text>
</a>
</g>
</g>
<!-- Node1&#45;&gt;Node11 -->
<g id="edge13" class="edge"><title>Node1&#45;&gt;Node11</title>
<path fill="none" stroke="midnightblue" d="M51.463,-126.185C61.7016,-104.844 89.0316,-54.1227 128,-29 131.204,-26.9341 134.604,-25.0912 138.128,-23.4475"/>
<polygon fill="midnightblue" stroke="midnightblue" points="139.76,-26.5619 147.698,-19.545 137.117,-20.0801 139.76,-26.5619"/>
</g>
<!-- Node12 -->
<g id="node12" class="node"><title>Node12</title>
<g id="a_node12"><a xlink:href="class_word_quizzle_server_service.html#a8002d35c102aec827bb58c4f1ca7b295" target="_top" xlink:title=" ">
<polygon fill="white" stroke="black" points="131,-77 131,-107 295,-107 295,-77 131,-77"/>
<text text-anchor="start" x="139" y="-95" font-family="Helvetica,sans-Serif" font-size="10.00">WordQuizzleServerService.mostra</text>
<text text-anchor="middle" x="213" y="-84" font-family="Helvetica,sans-Serif" font-size="10.00">_punteggio</text>
</a>
</g>
</g>
<!-- Node1&#45;&gt;Node12 -->
<g id="edge14" class="edge"><title>Node1&#45;&gt;Node12</title>
<path fill="none" stroke="midnightblue" d="M82.8025,-126.453C101.214,-121.543 124.251,-115.4 145.755,-109.665"/>
<polygon fill="midnightblue" stroke="midnightblue" points="146.744,-113.024 155.505,-107.065 144.941,-106.26 146.744,-113.024"/>
</g>
<!-- Node14 -->
<g id="node14" class="node"><title>Node14</title>
<g id="a_node14"><a xlink:href="class_word_quizzle_server_service.html#afc47f0b66a46f079c4bed5e579e9a173" target="_top" xlink:title=" ">
<polygon fill="white" stroke="black" points="135.5,-38.5 135.5,-57.5 290.5,-57.5 290.5,-38.5 135.5,-38.5"/>
<text text-anchor="middle" x="213" y="-45.5" font-family="Helvetica,sans-Serif" font-size="10.00">WordQuizzleServerService.sfida</text>
</a>
</g>
</g>
<!-- Node1&#45;&gt;Node14 -->
<g id="edge18" class="edge"><title>Node1&#45;&gt;Node14</title>
<path fill="none" stroke="midnightblue" d="M55.4044,-126.306C69.0572,-111.202 97.6035,-82.2119 128,-67 132.847,-64.5744 138.005,-62.4547 143.29,-60.603"/>
<polygon fill="midnightblue" stroke="midnightblue" points="144.428,-63.9141 152.899,-57.5511 142.309,-57.2425 144.428,-63.9141"/>
</g>
<!-- Node4 -->
<g id="node4" class="node"><title>Node4</title>
<g id="a_node4"><a xlink:href="interface_data_base.html#a580f93c56dbbed8b2fb1fc2e856efe68" target="_top" xlink:title="Controlla che quel nome utente sia nel database.">
<polygon fill="white" stroke="black" points="334,-123.5 334,-142.5 443,-142.5 443,-123.5 334,-123.5"/>
<text text-anchor="middle" x="388.5" y="-130.5" font-family="Helvetica,sans-Serif" font-size="10.00">DataBase.checkUser</text>
</a>
</g>
</g>
<!-- Node3&#45;&gt;Node4 -->
<g id="edge3" class="edge"><title>Node3&#45;&gt;Node4</title>
<path fill="none" stroke="midnightblue" d="M282.414,-213.974C287.925,-211.434 293.207,-208.467 298,-205 321.072,-188.311 311.464,-169.407 334,-152 336.418,-150.132 339.035,-148.438 341.767,-146.903"/>
<polygon fill="midnightblue" stroke="midnightblue" points="343.318,-150.041 350.784,-142.524 340.26,-143.745 343.318,-150.041"/>
</g>
<!-- Node5 -->
<g id="node5" class="node"><title>Node5</title>
<g id="a_node5"><a xlink:href="interface_data_base.html#a4b079bd92d1ca63624e4f01398eb29db" target="_top" xlink:title="Crea un link (amicizia) non orientato tra due utenti.">
<polygon fill="white" stroke="black" points="350,-237.5 350,-256.5 427,-256.5 427,-237.5 350,-237.5"/>
<text text-anchor="middle" x="388.5" y="-244.5" font-family="Helvetica,sans-Serif" font-size="10.00">DataBase.link</text>
</a>
</g>
</g>
<!-- Node3&#45;&gt;Node5 -->
<g id="edge4" class="edge"><title>Node3&#45;&gt;Node5</title>
<path fill="none" stroke="midnightblue" d="M298.209,-237.736C312.515,-239.221 326.914,-240.714 339.847,-242.056"/>
<polygon fill="midnightblue" stroke="midnightblue" points="339.567,-245.546 349.875,-243.097 340.289,-238.583 339.567,-245.546"/>
</g>
<!-- Node6&#45;&gt;Node4 -->
<g id="edge6" class="edge"><title>Node6&#45;&gt;Node4</title>
<path fill="none" stroke="midnightblue" d="M269.374,-165C292.938,-158.616 320.071,-151.266 342.387,-145.221"/>
<polygon fill="midnightblue" stroke="midnightblue" points="343.534,-148.536 352.27,-142.543 341.703,-141.78 343.534,-148.536"/>
</g>
<!-- Node7 -->
<g id="node7" class="node"><title>Node7</title>
<g id="a_node7"><a xlink:href="class_user.html#ac5a53986b756ba9b81c5eb3a5e76f070" target="_top" xlink:title="Restituisce la lista di amici dell&#39;utente.">
<polygon fill="white" stroke="black" points="345.5,-199.5 345.5,-218.5 431.5,-218.5 431.5,-199.5 345.5,-199.5"/>
<text text-anchor="middle" x="388.5" y="-206.5" font-family="Helvetica,sans-Serif" font-size="10.00">User.getFriends</text>
</a>
</g>
</g>
<!-- Node6&#45;&gt;Node7 -->
<g id="edge7" class="edge"><title>Node6&#45;&gt;Node7</title>
<path fill="none" stroke="midnightblue" d="M289.091,-192.551C304.567,-195.138 320.547,-197.809 335.013,-200.227"/>
<polygon fill="midnightblue" stroke="midnightblue" points="334.809,-203.741 345.25,-201.938 335.963,-196.837 334.809,-203.741"/>
</g>
<!-- Node8 -->
<g id="node8" class="node"><title>Node8</title>
<g id="a_node8"><a xlink:href="interface_data_base.html#af660eaf16066006da658ac99fa3f6936" target="_top" xlink:title="Dato un nome utente ottiene l&#39;oggetto User corrispondente.">
<polygon fill="white" stroke="black" points="340.5,-85.5 340.5,-104.5 436.5,-104.5 436.5,-85.5 340.5,-85.5"/>
<text text-anchor="middle" x="388.5" y="-92.5" font-family="Helvetica,sans-Serif" font-size="10.00">DataBase.getUser</text>
</a>
</g>
</g>
<!-- Node6&#45;&gt;Node8 -->
<g id="edge8" class="edge"><title>Node6&#45;&gt;Node8</title>
<path fill="none" stroke="midnightblue" d="M278.505,-164.932C285.336,-162.141 291.978,-158.858 298,-155 318.419,-141.919 313.928,-127.607 334,-114 336.861,-112.061 339.941,-110.296 343.128,-108.695"/>
<polygon fill="midnightblue" stroke="midnightblue" points="344.588,-111.876 352.295,-104.606 341.737,-105.483 344.588,-111.876"/>
</g>
<!-- Node9&#45;&gt;Node4 -->
<g id="edge10" class="edge"><title>Node9&#45;&gt;Node4</title>
<path fill="none" stroke="midnightblue" d="M290.605,-134.675C301.68,-134.484 312.98,-134.289 323.767,-134.102"/>
<polygon fill="midnightblue" stroke="midnightblue" points="323.991,-137.599 333.929,-133.926 323.87,-130.6 323.991,-137.599"/>
</g>
<!-- Node9&#45;&gt;Node8 -->
<g id="edge12" class="edge"><title>Node9&#45;&gt;Node8</title>
<path fill="none" stroke="midnightblue" d="M254.24,-126.491C279.006,-120.638 310.951,-113.089 337.356,-106.85"/>
<polygon fill="midnightblue" stroke="midnightblue" points="338.251,-110.235 347.178,-104.529 336.641,-103.422 338.251,-110.235"/>
</g>
<!-- Node10 -->
<g id="node10" class="node"><title>Node10</title>
<g id="a_node10"><a xlink:href="class_user.html#a1612cd6eef2a6e09ab5e72033b2aad00" target="_top" xlink:title="Restituisce la password dell&#39;utente.">
<polygon fill="white" stroke="black" points="340.5,-161.5 340.5,-180.5 436.5,-180.5 436.5,-161.5 340.5,-161.5"/>
<text text-anchor="middle" x="388.5" y="-168.5" font-family="Helvetica,sans-Serif" font-size="10.00">User.getPassword</text>
</a>
</g>
</g>
<!-- Node9&#45;&gt;Node10 -->
<g id="edge11" class="edge"><title>Node9&#45;&gt;Node10</title>
<path fill="none" stroke="midnightblue" d="M261.41,-145.564C282.726,-149.864 308.064,-154.975 330.414,-159.484"/>
<polygon fill="midnightblue" stroke="midnightblue" points="329.954,-162.962 340.448,-161.508 331.338,-156.1 329.954,-162.962"/>
</g>
<!-- Node12&#45;&gt;Node4 -->
<g id="edge15" class="edge"><title>Node12&#45;&gt;Node4</title>
<path fill="none" stroke="midnightblue" d="M277.62,-107.034C297.295,-111.683 318.682,-116.738 337.315,-121.141"/>
<polygon fill="midnightblue" stroke="midnightblue" points="336.531,-124.552 347.068,-123.446 338.141,-117.739 336.531,-124.552"/>
</g>
<!-- Node12&#45;&gt;Node8 -->
<g id="edge17" class="edge"><title>Node12&#45;&gt;Node8</title>
<path fill="none" stroke="midnightblue" d="M295.162,-93.4034C307.046,-93.6089 319.071,-93.8168 330.339,-94.0116"/>
<polygon fill="midnightblue" stroke="midnightblue" points="330.389,-97.5129 340.448,-94.1864 330.51,-90.514 330.389,-97.5129"/>
</g>
<!-- Node13 -->
<g id="node13" class="node"><title>Node13</title>
<g id="a_node13"><a xlink:href="class_user.html#a81a02d4809c6da6252e322ea4229a4bb" target="_top" xlink:title="Restituisce il punteggio dell&#39;utente.">
<polygon fill="white" stroke="black" points="349,-47.5 349,-66.5 428,-66.5 428,-47.5 349,-47.5"/>
<text text-anchor="middle" x="388.5" y="-54.5" font-family="Helvetica,sans-Serif" font-size="10.00">User.getScore</text>
</a>
</g>
</g>
<!-- Node12&#45;&gt;Node13 -->
<g id="edge16" class="edge"><title>Node12&#45;&gt;Node13</title>
<path fill="none" stroke="midnightblue" d="M288.587,-76.9537C305.614,-73.5189 323.279,-69.9553 338.887,-66.8067"/>
<polygon fill="midnightblue" stroke="midnightblue" points="339.709,-70.2114 348.82,-64.803 338.325,-63.3496 339.709,-70.2114"/>
</g>
<!-- Node14&#45;&gt;Node4 -->
<g id="edge19" class="edge"><title>Node14&#45;&gt;Node4</title>
<path fill="none" stroke="midnightblue" d="M278.28,-57.5789C285.227,-60.0406 291.957,-63.1283 298,-67 320.155,-81.1947 312.726,-98.5151 334,-114 336.63,-115.914 339.471,-117.651 342.424,-119.223"/>
<polygon fill="midnightblue" stroke="midnightblue" points="340.983,-122.413 351.526,-123.464 343.94,-116.068 340.983,-122.413"/>
</g>
<!-- Node14&#45;&gt;Node8 -->
<g id="edge20" class="edge"><title>Node14&#45;&gt;Node8</title>
<path fill="none" stroke="midnightblue" d="M259.503,-57.5884C272.029,-60.4188 285.583,-63.6592 298,-67 314.895,-71.5455 333.376,-77.2087 349.135,-82.2502"/>
<polygon fill="midnightblue" stroke="midnightblue" points="348.462,-85.7109 359.054,-85.4555 350.615,-79.05 348.462,-85.7109"/>
</g>
<!-- Node15 -->
<g id="node15" class="node"><title>Node15</title>
<g id="a_node15"><a xlink:href="class_user.html#a60ab059fe0b20cb98d3a2315e820b318" target="_top" xlink:title="Verifica se un nome utente e&#39; amico dell&#39;utente.">
<polygon fill="white" stroke="black" points="351.5,-9.5 351.5,-28.5 425.5,-28.5 425.5,-9.5 351.5,-9.5"/>
<text text-anchor="middle" x="388.5" y="-16.5" font-family="Helvetica,sans-Serif" font-size="10.00">User.isFriend</text>
</a>
</g>
</g>
<!-- Node14&#45;&gt;Node15 -->
<g id="edge21" class="edge"><title>Node14&#45;&gt;Node15</title>
<path fill="none" stroke="midnightblue" d="M271.291,-38.4239C294.042,-34.6212 319.861,-30.3057 341.374,-26.7098"/>
<polygon fill="midnightblue" stroke="midnightblue" points="341.956,-30.1612 351.242,-25.0605 340.802,-23.257 341.956,-30.1612"/>
</g>
</g>
</svg>
