<?xml version="1.0" encoding="UTF-8" standalone="no"?>
<!DOCTYPE svg PUBLIC "-//W3C//DTD SVG 1.1//EN"
 "http://www.w3.org/Graphics/SVG/1.1/DTD/svg11.dtd">
<!-- Generated by graphviz version 2.38.0 (20140413.2041)
 -->
<!-- Title: WordQuizzle.Session.parse Pages: 1 -->
<svg width="1135pt" height="464pt"
 viewBox="0.00 0.00 1135.00 464.00" xmlns="http://www.w3.org/2000/svg" xmlns:xlink="http://www.w3.org/1999/xlink">
<g id="graph0" class="graph" transform="scale(1 1) rotate(0) translate(4 460)">
<title>WordQuizzle.Session.parse</title>
<polygon fill="white" stroke="none" points="-4,4 -4,-460 1131,-460 1131,4 -4,4"/>
<!-- Node1 -->
<g id="node1" class="node"><title>Node1</title>
<g id="a_node1"><a xlink:title=" ">
<polygon fill="#bfbfbf" stroke="black" points="0,-242.5 0,-261.5 138,-261.5 138,-242.5 0,-242.5"/>
<text text-anchor="middle" x="69" y="-249.5" font-family="Helvetica,sans-Serif" font-size="10.00">WordQuizzle.Session.parse</text>
</a>
</g>
</g>
<!-- Node2 -->
<g id="node2" class="node"><title>Node2</title>
<g id="a_node2"><a xlink:href="class_word_quizzle_1_1_session.html#a21992c338367b1a3c2e57fdb7cae3018" target="_top" xlink:title=" ">
<polygon fill="white" stroke="black" points="174,-242.5 174,-261.5 326,-261.5 326,-242.5 174,-242.5"/>
<text text-anchor="middle" x="250" y="-249.5" font-family="Helvetica,sans-Serif" font-size="10.00">WordQuizzle.Session.compute</text>
</a>
</g>
</g>
<!-- Node1&#45;&gt;Node2 -->
<g id="edge1" class="edge"><title>Node1&#45;&gt;Node2</title>
<path fill="none" stroke="midnightblue" d="M138.183,-252C146.562,-252 155.206,-252 163.798,-252"/>
<polygon fill="midnightblue" stroke="midnightblue" points="163.84,-255.5 173.84,-252 163.84,-248.5 163.84,-255.5"/>
</g>
<!-- Node3 -->
<g id="node3" class="node"><title>Node3</title>
<g id="a_node3"><a xlink:href="class_word_quizzle_1_1_word_quizzle_server_service.html#aebc8c566d10a0d24752a33f146f03a2a" target="_top" xlink:title=" ">
<polygon fill="white" stroke="black" points="362,-115 362,-145 521,-145 521,-115 362,-115"/>
<text text-anchor="start" x="370" y="-133" font-family="Helvetica,sans-Serif" font-size="10.00">WordQuizzle.WordQuizzleServer</text>
<text text-anchor="middle" x="441.5" y="-122" font-family="Helvetica,sans-Serif" font-size="10.00">Service.accettaSfida</text>
</a>
</g>
</g>
<!-- Node2&#45;&gt;Node3 -->
<g id="edge2" class="edge"><title>Node2&#45;&gt;Node3</title>
<path fill="none" stroke="midnightblue" d="M259.187,-242.427C276.321,-222.975 318.026,-178.597 362,-154 365.238,-152.189 368.629,-150.498 372.108,-148.922"/>
<polygon fill="midnightblue" stroke="midnightblue" points="373.599,-152.092 381.481,-145.012 370.904,-145.632 373.599,-152.092"/>
</g>
<!-- Node15 -->
<g id="node15" class="node"><title>Node15</title>
<g id="a_node15"><a xlink:href="class_word_quizzle_1_1_word_quizzle_server_service.html#a1f28542d2118fba0a19061d5acf603ec" target="_top" xlink:title=" ">
<polygon fill="white" stroke="black" points="362,-409 362,-439 521,-439 521,-409 362,-409"/>
<text text-anchor="start" x="370" y="-427" font-family="Helvetica,sans-Serif" font-size="10.00">WordQuizzle.WordQuizzleServer</text>
<text text-anchor="middle" x="441.5" y="-416" font-family="Helvetica,sans-Serif" font-size="10.00">Service.aggiungi_amico</text>
</a>
</g>
</g>
<!-- Node2&#45;&gt;Node15 -->
<g id="edge14" class="edge"><title>Node2&#45;&gt;Node15</title>
<path fill="none" stroke="midnightblue" d="M255.477,-261.61C268.218,-287.904 307.32,-361.62 362,-400 364.143,-401.504 366.383,-402.917 368.695,-404.242"/>
<polygon fill="midnightblue" stroke="midnightblue" points="367.416,-407.518 377.916,-408.935 370.591,-401.28 367.416,-407.518"/>
</g>
<!-- Node17 -->
<g id="node17" class="node"><title>Node17</title>
<g id="a_node17"><a xlink:href="class_word_quizzle_1_1_word_quizzle_server_service.html#a198417a123b189dd75e88d3e969cd11d" target="_top" xlink:title=" ">
<polygon fill="white" stroke="black" points="362,-311 362,-341 521,-341 521,-311 362,-311"/>
<text text-anchor="start" x="370" y="-329" font-family="Helvetica,sans-Serif" font-size="10.00">WordQuizzle.WordQuizzleServer</text>
<text text-anchor="middle" x="441.5" y="-318" font-family="Helvetica,sans-Serif" font-size="10.00">Service.lista_amici</text>
</a>
</g>
</g>
<!-- Node2&#45;&gt;Node17 -->
<g id="edge17" class="edge"><title>Node2&#45;&gt;Node17</title>
<path fill="none" stroke="midnightblue" d="M270.336,-261.612C292.239,-272.287 329.163,-289.641 362,-302 367.168,-303.945 372.571,-305.851 378.018,-307.686"/>
<polygon fill="midnightblue" stroke="midnightblue" points="377.237,-311.113 387.83,-310.903 379.418,-304.462 377.237,-311.113"/>
</g>
<!-- Node19 -->
<g id="node19" class="node"><title>Node19</title>
<g id="a_node19"><a xlink:href="class_word_quizzle_1_1_word_quizzle_server_service.html#a4f338d0b1c7bbf662fc0e40844cf5c33" target="_top" xlink:title=" ">
<polygon fill="white" stroke="black" points="362,-360 362,-390 521,-390 521,-360 362,-360"/>
<text text-anchor="start" x="370" y="-378" font-family="Helvetica,sans-Serif" font-size="10.00">WordQuizzle.WordQuizzleServer</text>
<text text-anchor="middle" x="441.5" y="-367" font-family="Helvetica,sans-Serif" font-size="10.00">Service.login</text>
</a>
</g>
</g>
<!-- Node2&#45;&gt;Node19 -->
<g id="edge21" class="edge"><title>Node2&#45;&gt;Node19</title>
<path fill="none" stroke="midnightblue" d="M259.165,-261.676C276.258,-281.335 317.892,-326.182 362,-351 365.074,-352.73 368.287,-354.349 371.584,-355.864"/>
<polygon fill="midnightblue" stroke="midnightblue" points="370.477,-359.195 381.051,-359.858 373.198,-352.746 370.477,-359.195"/>
</g>
<!-- Node22 -->
<g id="node22" class="node"><title>Node22</title>
<g id="a_node22"><a xlink:href="class_word_quizzle_1_1_word_quizzle_server_service.html#ac79f01637184c2916b5381056f5d36e7" target="_top" xlink:title=" ">
<polygon fill="white" stroke="black" points="362,-66 362,-96 521,-96 521,-66 362,-66"/>
<text text-anchor="start" x="370" y="-84" font-family="Helvetica,sans-Serif" font-size="10.00">WordQuizzle.WordQuizzleServer</text>
<text text-anchor="middle" x="441.5" y="-73" font-family="Helvetica,sans-Serif" font-size="10.00">Service.logout</text>
</a>
</g>
</g>
<!-- Node2&#45;&gt;Node22 -->
<g id="edge26" class="edge"><title>Node2&#45;&gt;Node22</title>
<path fill="none" stroke="midnightblue" d="M255.495,-242.455C268.283,-216.34 307.494,-143.126 362,-105 364.146,-103.499 366.388,-102.09 368.702,-100.767"/>
<polygon fill="midnightblue" stroke="midnightblue" points="370.596,-103.731 377.928,-96.0819 367.427,-97.4893 370.596,-103.731"/>
</g>
<!-- Node23 -->
<g id="node23" class="node"><title>Node23</title>
<g id="a_node23"><a xlink:href="class_word_quizzle_1_1_word_quizzle_server_service.html#ad212848f8436aaf885c017463458d2f4" target="_top" xlink:title=" ">
<polygon fill="white" stroke="black" points="362,-262 362,-292 521,-292 521,-262 362,-262"/>
<text text-anchor="start" x="370" y="-280" font-family="Helvetica,sans-Serif" font-size="10.00">WordQuizzle.WordQuizzleServer</text>
<text text-anchor="middle" x="441.5" y="-269" font-family="Helvetica,sans-Serif" font-size="10.00">Service.mostra_classifica</text>
</a>
</g>
</g>
<!-- Node2&#45;&gt;Node23 -->
<g id="edge27" class="edge"><title>Node2&#45;&gt;Node23</title>
<path fill="none" stroke="midnightblue" d="M323.182,-261.523C332.576,-262.762 342.283,-264.043 351.905,-265.312"/>
<polygon fill="midnightblue" stroke="midnightblue" points="351.513,-268.791 361.885,-266.629 352.429,-261.851 351.513,-268.791"/>
</g>
<!-- Node25 -->
<g id="node25" class="node"><title>Node25</title>
<g id="a_node25"><a xlink:href="class_word_quizzle_1_1_word_quizzle_server_service.html#a45a270251f3ca3e1595ceddf56fbe041" target="_top" xlink:title=" ">
<polygon fill="white" stroke="black" points="362,-213 362,-243 521,-243 521,-213 362,-213"/>
<text text-anchor="start" x="370" y="-231" font-family="Helvetica,sans-Serif" font-size="10.00">WordQuizzle.WordQuizzleServer</text>
<text text-anchor="middle" x="441.5" y="-220" font-family="Helvetica,sans-Serif" font-size="10.00">Service.mostra_punteggio</text>
</a>
</g>
</g>
<!-- Node2&#45;&gt;Node25 -->
<g id="edge32" class="edge"><title>Node2&#45;&gt;Node25</title>
<path fill="none" stroke="midnightblue" d="M326.168,-242.48C334.56,-241.417 343.167,-240.327 351.71,-239.245"/>
<polygon fill="midnightblue" stroke="midnightblue" points="352.21,-242.71 361.691,-237.981 351.33,-235.765 352.21,-242.71"/>
</g>
<!-- Node26 -->
<g id="node26" class="node"><title>Node26</title>
<g id="a_node26"><a xlink:href="class_word_quizzle_1_1_word_quizzle_server_service.html#aee4ec771e269748e727002f9fa02e8a0" target="_top" xlink:title=" ">
<polygon fill="white" stroke="black" points="362,-164 362,-194 521,-194 521,-164 362,-164"/>
<text text-anchor="start" x="370" y="-182" font-family="Helvetica,sans-Serif" font-size="10.00">WordQuizzle.WordQuizzleServer</text>
<text text-anchor="middle" x="441.5" y="-171" font-family="Helvetica,sans-Serif" font-size="10.00">Service.sfida</text>
</a>
</g>
</g>
<!-- Node2&#45;&gt;Node26 -->
<g id="edge36" class="edge"><title>Node2&#45;&gt;Node26</title>
<path fill="none" stroke="midnightblue" d="M271.614,-242.349C293.713,-232.178 329.95,-215.999 362,-204 367.977,-201.762 374.256,-199.545 380.55,-197.409"/>
<polygon fill="midnightblue" stroke="midnightblue" points="382.027,-200.606 390.411,-194.128 379.817,-193.964 382.027,-200.606"/>
</g>
<!-- Node4 -->
<g id="node4" class="node"><title>Node4</title>
<g id="a_node4"><a xlink:href="interface_word_quizzle_1_1_data_base.html#a256d6e7e3541d11a9ff219431066a7d5" target="_top" xlink:title="Controlla che quel nome utente sia nel database.">
<polygon fill="white" stroke="black" points="557,-284.5 557,-303.5 725,-303.5 725,-284.5 557,-284.5"/>
<text text-anchor="middle" x="641" y="-291.5" font-family="Helvetica,sans-Serif" font-size="10.00">WordQuizzle.DataBase.checkUser</text>
</a>
</g>
</g>
<!-- Node3&#45;&gt;Node4 -->
<g id="edge3" class="edge"><title>Node3&#45;&gt;Node4</title>
<path fill="none" stroke="midnightblue" d="M509.513,-145.084C513.695,-147.612 517.587,-150.561 521,-154 560.524,-193.823 516.074,-236.619 557,-275 558.665,-276.561 560.43,-278.003 562.279,-279.334"/>
<polygon fill="midnightblue" stroke="midnightblue" points="560.483,-282.339 570.857,-284.491 564.09,-276.339 560.483,-282.339"/>
</g>
<!-- Node5 -->
<g id="node5" class="node"><title>Node5</title>
<g id="a_node5"><a xlink:href="class_word_quizzle_1_1_challenge.html#a5c11b31b9fe597b760b5b4817d1c0dc0" target="_top" xlink:title=" ">
<polygon fill="white" stroke="black" points="573.5,-159 573.5,-189 708.5,-189 708.5,-159 573.5,-159"/>
<text text-anchor="start" x="581.5" y="-177" font-family="Helvetica,sans-Serif" font-size="10.00">WordQuizzle.Challenge.get</text>
<text text-anchor="middle" x="641" y="-166" font-family="Helvetica,sans-Serif" font-size="10.00">StartTime</text>
</a>
</g>
</g>
<!-- Node3&#45;&gt;Node5 -->
<g id="edge4" class="edge"><title>Node3&#45;&gt;Node5</title>
<path fill="none" stroke="midnightblue" d="M509.916,-145.019C527.011,-148.828 545.503,-152.947 563.031,-156.853"/>
<polygon fill="midnightblue" stroke="midnightblue" points="562.701,-160.365 573.223,-159.123 564.223,-153.532 562.701,-160.365"/>
</g>
<!-- Node6 -->
<g id="node6" class="node"><title>Node6</title>
<g id="a_node6"><a xlink:href="interface_word_quizzle_1_1_data_base.html#a987acacce768d19e4551b5b3a508ccf3" target="_top" xlink:title="Dato un nome utente ottiene l&#39;oggetto User corrispondente.">
<polygon fill="white" stroke="black" points="563.5,-246.5 563.5,-265.5 718.5,-265.5 718.5,-246.5 563.5,-246.5"/>
<text text-anchor="middle" x="641" y="-253.5" font-family="Helvetica,sans-Serif" font-size="10.00">WordQuizzle.DataBase.getUser</text>
</a>
</g>
</g>
<!-- Node3&#45;&gt;Node6 -->
<g id="edge5" class="edge"><title>Node3&#45;&gt;Node6</title>
<path fill="none" stroke="midnightblue" d="M508.303,-145.137C512.872,-147.651 517.174,-150.582 521,-154 550.986,-180.788 526.073,-211.303 557,-237 558.99,-238.653 561.095,-240.169 563.292,-241.559"/>
<polygon fill="midnightblue" stroke="midnightblue" points="561.693,-244.673 572.159,-246.317 565.002,-238.505 561.693,-244.673"/>
</g>
<!-- Node7 -->
<g id="node7" class="node"><title>Node7</title>
<g id="a_node7"><a xlink:href="class_word_quizzle_1_1_user.html#a3cb7161060a60e47d7d9437bed21b888" target="_top" xlink:title="Verifica se un nome utente e&#39; amico dell&#39;utente.">
<polygon fill="white" stroke="black" points="574,-120.5 574,-139.5 708,-139.5 708,-120.5 574,-120.5"/>
<text text-anchor="middle" x="641" y="-127.5" font-family="Helvetica,sans-Serif" font-size="10.00">WordQuizzle.User.isFriend</text>
</a>
</g>
</g>
<!-- Node3&#45;&gt;Node7 -->
<g id="edge6" class="edge"><title>Node3&#45;&gt;Node7</title>
<path fill="none" stroke="midnightblue" d="M521.125,-130C535.148,-130 549.736,-130 563.693,-130"/>
<polygon fill="midnightblue" stroke="midnightblue" points="563.727,-133.5 573.727,-130 563.727,-126.5 563.727,-133.5"/>
</g>
<!-- Node8 -->
<g id="node8" class="node"><title>Node8</title>
<g id="a_node8"><a xlink:href="class_word_quizzle_1_1_challenge.html#ad9edc220ce2d24274149ab8c6a564a0a" target="_top" xlink:title=" ">
<polygon fill="white" stroke="black" points="573.5,-71 573.5,-101 708.5,-101 708.5,-71 573.5,-71"/>
<text text-anchor="start" x="581.5" y="-89" font-family="Helvetica,sans-Serif" font-size="10.00">WordQuizzle.Challenge.set</text>
<text text-anchor="middle" x="641" y="-78" font-family="Helvetica,sans-Serif" font-size="10.00">Player2</text>
</a>
</g>
</g>
<!-- Node3&#45;&gt;Node8 -->
<g id="edge7" class="edge"><title>Node3&#45;&gt;Node8</title>
<path fill="none" stroke="midnightblue" d="M509.916,-114.981C527.011,-111.172 545.503,-107.053 563.031,-103.147"/>
<polygon fill="midnightblue" stroke="midnightblue" points="564.223,-106.468 573.223,-100.877 562.701,-99.6353 564.223,-106.468"/>
</g>
<!-- Node9 -->
<g id="node9" class="node"><title>Node9</title>
<g id="a_node9"><a xlink:href="class_word_quizzle_1_1_session.html#ac7d5ff28ffd9355eea98b9f66c3c19cd" target="_top" xlink:title=" ">
<polygon fill="white" stroke="black" points="770.5,-152.5 770.5,-171.5 922.5,-171.5 922.5,-152.5 770.5,-152.5"/>
<text text-anchor="middle" x="846.5" y="-159.5" font-family="Helvetica,sans-Serif" font-size="10.00">WordQuizzle.Session.getClient</text>
</a>
</g>
</g>
<!-- Node8&#45;&gt;Node9 -->
<g id="edge8" class="edge"><title>Node8&#45;&gt;Node9</title>
<path fill="none" stroke="midnightblue" d="M703.104,-101.052C710.688,-103.884 718.169,-107.182 725,-111 743.687,-121.443 741.952,-133.23 761,-143 765.647,-145.384 770.589,-147.47 775.66,-149.296"/>
<polygon fill="midnightblue" stroke="midnightblue" points="774.935,-152.74 785.527,-152.497 777.095,-146.082 774.935,-152.74"/>
</g>
<!-- Node10 -->
<g id="node10" class="node"><title>Node10</title>
<g id="a_node10"><a xlink:href="class_word_quizzle_1_1_player.html#a5df71a0f2196e8ee3bfff3bc232f4669" target="_top" xlink:title=" ">
<polygon fill="white" stroke="black" points="776.5,-114.5 776.5,-133.5 916.5,-133.5 916.5,-114.5 776.5,-114.5"/>
<text text-anchor="middle" x="846.5" y="-121.5" font-family="Helvetica,sans-Serif" font-size="10.00">WordQuizzle.Player.getNext</text>
</a>
</g>
</g>
<!-- Node8&#45;&gt;Node10 -->
<g id="edge9" class="edge"><title>Node8&#45;&gt;Node10</title>
<path fill="none" stroke="midnightblue" d="M708.634,-98.4426C733.077,-103.007 760.603,-108.147 784.526,-112.614"/>
<polygon fill="midnightblue" stroke="midnightblue" points="784.066,-116.089 794.538,-114.484 785.351,-109.208 784.066,-116.089"/>
</g>
<!-- Node12 -->
<g id="node12" class="node"><title>Node12</title>
<g id="a_node12"><a xlink:href="class_word_quizzle_1_1_player.html#a1f8fc44dbae0c22017e5d4e435fa5bc0" target="_top" xlink:title=" ">
<polygon fill="white" stroke="black" points="769,-76.5 769,-95.5 924,-95.5 924,-76.5 769,-76.5"/>
<text text-anchor="middle" x="846.5" y="-83.5" font-family="Helvetica,sans-Serif" font-size="10.00">WordQuizzle.Player.getSession</text>
</a>
</g>
</g>
<!-- Node8&#45;&gt;Node12 -->
<g id="edge11" class="edge"><title>Node8&#45;&gt;Node12</title>
<path fill="none" stroke="midnightblue" d="M708.634,-86C724.568,-86 741.813,-86 758.515,-86"/>
<polygon fill="midnightblue" stroke="midnightblue" points="758.828,-89.5001 768.828,-86 758.828,-82.5001 758.828,-89.5001"/>
</g>
<!-- Node13 -->
<g id="node13" class="node"><title>Node13</title>
<g id="a_node13"><a xlink:href="class_word_quizzle_1_1_session.html#a26ad2a090660e09b1416cd530fdf1e9a" target="_top" xlink:title=" ">
<polygon fill="white" stroke="black" points="761,-38.5 761,-57.5 932,-57.5 932,-38.5 761,-38.5"/>
<text text-anchor="middle" x="846.5" y="-45.5" font-family="Helvetica,sans-Serif" font-size="10.00">WordQuizzle.Session.setResponse</text>
</a>
</g>
</g>
<!-- Node8&#45;&gt;Node13 -->
<g id="edge12" class="edge"><title>Node8&#45;&gt;Node13</title>
<path fill="none" stroke="midnightblue" d="M708.634,-73.5574C733.077,-68.9929 760.603,-63.853 784.526,-59.3859"/>
<polygon fill="midnightblue" stroke="midnightblue" points="785.351,-62.7924 794.538,-57.5162 784.066,-55.9114 785.351,-62.7924"/>
</g>
<!-- Node14 -->
<g id="node14" class="node"><title>Node14</title>
<g id="a_node14"><a xlink:href="class_word_quizzle_1_1_translator.html#a9fcad4b807785c63c72bc85f672fb635" target="_top" xlink:title="Traduce una parola dall&#39;italiano all&#39;inglese.">
<polygon fill="white" stroke="black" points="767,-0.5 767,-19.5 926,-19.5 926,-0.5 767,-0.5"/>
<text text-anchor="middle" x="846.5" y="-7.5" font-family="Helvetica,sans-Serif" font-size="10.00">WordQuizzle.Translator.translate</text>
</a>
</g>
</g>
<!-- Node8&#45;&gt;Node14 -->
<g id="edge13" class="edge"><title>Node8&#45;&gt;Node14</title>
<path fill="none" stroke="midnightblue" d="M669.143,-70.8208C692.791,-58.1315 728.321,-40.3375 761,-29 768.575,-26.3722 776.66,-24.0147 784.714,-21.9291"/>
<polygon fill="midnightblue" stroke="midnightblue" points="785.615,-25.3118 794.487,-19.5199 783.939,-18.5153 785.615,-25.3118"/>
</g>
<!-- Node11 -->
<g id="node11" class="node"><title>Node11</title>
<g id="a_node11"><a xlink:href="class_word_quizzle_1_1_word_quizzle_server_service.html#a970fe0e2dd7457bab2c64ae722a912fc" target="_top" xlink:title=" ">
<polygon fill="white" stroke="black" points="968,-109 968,-139 1127,-139 1127,-109 968,-109"/>
<text text-anchor="start" x="976" y="-127" font-family="Helvetica,sans-Serif" font-size="10.00">WordQuizzle.WordQuizzleServer</text>
<text text-anchor="middle" x="1047.5" y="-116" font-family="Helvetica,sans-Serif" font-size="10.00">Service.getK</text>
</a>
</g>
</g>
<!-- Node10&#45;&gt;Node11 -->
<g id="edge10" class="edge"><title>Node10&#45;&gt;Node11</title>
<path fill="none" stroke="midnightblue" d="M916.542,-124C929.692,-124 943.627,-124 957.301,-124"/>
<polygon fill="midnightblue" stroke="midnightblue" points="957.688,-127.5 967.688,-124 957.688,-120.5 957.688,-127.5"/>
</g>
<!-- Node15&#45;&gt;Node4 -->
<g id="edge15" class="edge"><title>Node15&#45;&gt;Node4</title>
<path fill="none" stroke="midnightblue" d="M508.367,-408.935C512.922,-406.405 517.203,-403.45 521,-400 551.97,-371.858 525.041,-340.014 557,-313 558.976,-311.33 561.069,-309.8 563.255,-308.397"/>
<polygon fill="midnightblue" stroke="midnightblue" points="564.972,-311.448 572.091,-303.601 561.632,-305.296 564.972,-311.448"/>
</g>
<!-- Node16 -->
<g id="node16" class="node"><title>Node16</title>
<g id="a_node16"><a xlink:href="interface_word_quizzle_1_1_data_base.html#a2128ed726158cf0961972a99ac83b9a8" target="_top" xlink:title="Crea un link (amicizia) non orientato tra due utenti.">
<polygon fill="white" stroke="black" points="572.5,-436.5 572.5,-455.5 709.5,-455.5 709.5,-436.5 572.5,-436.5"/>
<text text-anchor="middle" x="641" y="-443.5" font-family="Helvetica,sans-Serif" font-size="10.00">WordQuizzle.DataBase.link</text>
</a>
</g>
</g>
<!-- Node15&#45;&gt;Node16 -->
<g id="edge16" class="edge"><title>Node15&#45;&gt;Node16</title>
<path fill="none" stroke="midnightblue" d="M521.125,-432.758C534.669,-434.267 548.74,-435.834 562.26,-437.34"/>
<polygon fill="midnightblue" stroke="midnightblue" points="562.148,-440.849 572.474,-438.478 562.923,-433.892 562.148,-440.849"/>
</g>
<!-- Node17&#45;&gt;Node4 -->
<g id="edge18" class="edge"><title>Node17&#45;&gt;Node4</title>
<path fill="none" stroke="midnightblue" d="M521.125,-313.261C537.694,-310.576 555.053,-307.764 571.226,-305.143"/>
<polygon fill="midnightblue" stroke="midnightblue" points="571.814,-308.594 581.126,-303.539 570.695,-301.684 571.814,-308.594"/>
</g>
<!-- Node17&#45;&gt;Node6 -->
<g id="edge20" class="edge"><title>Node17&#45;&gt;Node6</title>
<path fill="none" stroke="midnightblue" d="M500.013,-310.963C507.232,-308.34 514.393,-305.357 521,-302 538.83,-292.94 538.856,-283.415 557,-275 562.326,-272.53 567.998,-270.368 573.779,-268.48"/>
<polygon fill="midnightblue" stroke="midnightblue" points="574.993,-271.77 583.571,-265.553 572.988,-265.064 574.993,-271.77"/>
</g>
<!-- Node18 -->
<g id="node18" class="node"><title>Node18</title>
<g id="a_node18"><a xlink:href="class_word_quizzle_1_1_user.html#a8a3e0c4b349c4e6bf825bc84c179c36b" target="_top" xlink:title="Restituisce la lista di amici dell&#39;utente.">
<polygon fill="white" stroke="black" points="568.5,-322.5 568.5,-341.5 713.5,-341.5 713.5,-322.5 568.5,-322.5"/>
<text text-anchor="middle" x="641" y="-329.5" font-family="Helvetica,sans-Serif" font-size="10.00">WordQuizzle.User.getFriends</text>
</a>
</g>
</g>
<!-- Node17&#45;&gt;Node18 -->
<g id="edge19" class="edge"><title>Node17&#45;&gt;Node18</title>
<path fill="none" stroke="midnightblue" d="M521.125,-328.389C533.311,-328.759 545.923,-329.142 558.178,-329.514"/>
<polygon fill="midnightblue" stroke="midnightblue" points="558.268,-333.019 568.37,-329.824 558.481,-326.022 558.268,-333.019"/>
</g>
<!-- Node19&#45;&gt;Node4 -->
<g id="edge22" class="edge"><title>Node19&#45;&gt;Node4</title>
<path fill="none" stroke="midnightblue" d="M503.465,-359.846C509.587,-357.308 515.548,-354.377 521,-351 540.778,-338.75 536.796,-324.534 557,-313 560.934,-310.754 565.115,-308.774 569.427,-307.028"/>
<polygon fill="midnightblue" stroke="midnightblue" points="570.813,-310.249 579.035,-303.567 568.44,-303.663 570.813,-310.249"/>
</g>
<!-- Node19&#45;&gt;Node6 -->
<g id="edge24" class="edge"><title>Node19&#45;&gt;Node6</title>
<path fill="none" stroke="midnightblue" d="M507.795,-359.928C512.534,-357.4 517.01,-354.447 521,-351 549.282,-326.565 527.861,-298.406 557,-275 559.067,-273.339 561.252,-271.818 563.528,-270.425"/>
<polygon fill="midnightblue" stroke="midnightblue" points="565.44,-273.376 572.703,-265.663 562.215,-267.163 565.44,-273.376"/>
</g>
<!-- Node20 -->
<g id="node20" class="node"><title>Node20</title>
<g id="a_node20"><a xlink:href="class_word_quizzle_1_1_user.html#ab3df921fe5bcada15672f146592dbc3f" target="_top" xlink:title="Restituisce la password dell&#39;utente.">
<polygon fill="white" stroke="black" points="563.5,-398.5 563.5,-417.5 718.5,-417.5 718.5,-398.5 563.5,-398.5"/>
<text text-anchor="middle" x="641" y="-405.5" font-family="Helvetica,sans-Serif" font-size="10.00">WordQuizzle.User.getPassword</text>
</a>
</g>
</g>
<!-- Node19&#45;&gt;Node20 -->
<g id="edge23" class="edge"><title>Node19&#45;&gt;Node20</title>
<path fill="none" stroke="midnightblue" d="M521.125,-388.137C538.229,-390.995 556.174,-393.994 572.788,-396.77"/>
<polygon fill="midnightblue" stroke="midnightblue" points="572.501,-400.27 582.941,-398.466 573.655,-393.366 572.501,-400.27"/>
</g>
<!-- Node21 -->
<g id="node21" class="node"><title>Node21</title>
<g id="a_node21"><a xlink:href="class_word_quizzle_1_1_session.html#aebb0096afea4c87b3a80fc17fd019c2c" target="_top" xlink:title=" ">
<polygon fill="white" stroke="black" points="568.5,-360.5 568.5,-379.5 713.5,-379.5 713.5,-360.5 568.5,-360.5"/>
<text text-anchor="middle" x="641" y="-367.5" font-family="Helvetica,sans-Serif" font-size="10.00">WordQuizzle.Session.setUdp</text>
</a>
</g>
</g>
<!-- Node19&#45;&gt;Node21 -->
<g id="edge25" class="edge"><title>Node19&#45;&gt;Node21</title>
<path fill="none" stroke="midnightblue" d="M521.125,-373.01C533.311,-372.701 545.923,-372.382 558.178,-372.071"/>
<polygon fill="midnightblue" stroke="midnightblue" points="558.461,-375.565 568.37,-371.813 558.284,-368.568 558.461,-375.565"/>
</g>
<!-- Node23&#45;&gt;Node4 -->
<g id="edge28" class="edge"><title>Node23&#45;&gt;Node4</title>
<path fill="none" stroke="midnightblue" d="M521.125,-283.768C529.552,-284.493 538.184,-285.236 546.76,-285.974"/>
<polygon fill="midnightblue" stroke="midnightblue" points="546.523,-289.467 556.787,-286.837 547.124,-282.493 546.523,-289.467"/>
</g>
<!-- Node23&#45;&gt;Node6 -->
<g id="edge31" class="edge"><title>Node23&#45;&gt;Node6</title>
<path fill="none" stroke="midnightblue" d="M521.125,-268.64C531.641,-267.522 542.475,-266.37 553.122,-265.238"/>
<polygon fill="midnightblue" stroke="midnightblue" points="553.682,-268.698 563.256,-264.16 552.942,-261.737 553.682,-268.698"/>
</g>
<!-- Node23&#45;&gt;Node18 -->
<g id="edge29" class="edge"><title>Node23&#45;&gt;Node18</title>
<path fill="none" stroke="midnightblue" d="M489.882,-292.092C518.275,-301.101 550.162,-311.146 557,-313 566.212,-315.498 576.058,-317.945 585.631,-320.208"/>
<polygon fill="midnightblue" stroke="midnightblue" points="584.938,-323.64 595.471,-322.493 586.522,-316.821 584.938,-323.64"/>
</g>
<!-- Node24 -->
<g id="node24" class="node"><title>Node24</title>
<g id="a_node24"><a xlink:href="class_word_quizzle_1_1_user.html#ae4cc205520a878a71ce7c673e96f7e4f" target="_top" xlink:title="Restituisce il punteggio dell&#39;utente.">
<polygon fill="white" stroke="black" points="572,-208.5 572,-227.5 710,-227.5 710,-208.5 572,-208.5"/>
<text text-anchor="middle" x="641" y="-215.5" font-family="Helvetica,sans-Serif" font-size="10.00">WordQuizzle.User.getScore</text>
</a>
</g>
</g>
<!-- Node23&#45;&gt;Node24 -->
<g id="edge30" class="edge"><title>Node23&#45;&gt;Node24</title>
<path fill="none" stroke="midnightblue" d="M495.157,-261.868C503.85,-259.093 512.723,-256.092 521,-253 537.402,-246.874 540.389,-242.535 557,-237 564.677,-234.442 572.866,-232.109 580.998,-230.022"/>
<polygon fill="midnightblue" stroke="midnightblue" points="581.974,-233.386 590.849,-227.6 580.302,-226.589 581.974,-233.386"/>
</g>
<!-- Node25&#45;&gt;Node4 -->
<g id="edge33" class="edge"><title>Node25&#45;&gt;Node4</title>
<path fill="none" stroke="midnightblue" d="M495.939,-243.109C504.453,-246.059 513.064,-249.375 521,-253 538.056,-260.79 539.634,-267.927 557,-275 563.255,-277.548 569.921,-279.791 576.652,-281.758"/>
<polygon fill="midnightblue" stroke="midnightblue" points="575.951,-285.194 586.519,-284.444 577.79,-278.44 575.951,-285.194"/>
</g>
<!-- Node25&#45;&gt;Node6 -->
<g id="edge35" class="edge"><title>Node25&#45;&gt;Node6</title>
<path fill="none" stroke="midnightblue" d="M521.125,-239.147C534.754,-241.079 548.918,-243.087 562.517,-245.015"/>
<polygon fill="midnightblue" stroke="midnightblue" points="562.395,-248.533 572.788,-246.471 563.378,-241.602 562.395,-248.533"/>
</g>
<!-- Node25&#45;&gt;Node24 -->
<g id="edge34" class="edge"><title>Node25&#45;&gt;Node24</title>
<path fill="none" stroke="midnightblue" d="M521.125,-224.019C534.497,-223.342 548.384,-222.639 561.747,-221.962"/>
<polygon fill="midnightblue" stroke="midnightblue" points="562.036,-225.452 571.846,-221.451 561.682,-218.461 562.036,-225.452"/>
</g>
<!-- Node26&#45;&gt;Node4 -->
<g id="edge37" class="edge"><title>Node26&#45;&gt;Node4</title>
<path fill="none" stroke="midnightblue" d="M505.763,-194.042C511.237,-196.819 516.425,-200.107 521,-204 547.948,-226.925 529.121,-253.216 557,-275 559.293,-276.792 561.725,-278.421 564.259,-279.9"/>
<polygon fill="midnightblue" stroke="midnightblue" points="562.715,-283.041 573.225,-284.38 565.844,-276.78 562.715,-283.041"/>
</g>
<!-- Node26&#45;&gt;Node5 -->
<g id="edge38" class="edge"><title>Node26&#45;&gt;Node5</title>
<path fill="none" stroke="midnightblue" d="M521.125,-177.01C534.926,-176.66 549.274,-176.297 563.03,-175.949"/>
<polygon fill="midnightblue" stroke="midnightblue" points="563.506,-179.438 573.414,-175.686 563.329,-172.44 563.506,-179.438"/>
</g>
<!-- Node26&#45;&gt;Node6 -->
<g id="edge39" class="edge"><title>Node26&#45;&gt;Node6</title>
<path fill="none" stroke="midnightblue" d="M499.926,-194.06C507.233,-196.901 514.441,-200.2 521,-204 539.781,-214.881 537.783,-226.91 557,-237 561.466,-239.345 566.217,-241.403 571.096,-243.207"/>
<polygon fill="midnightblue" stroke="midnightblue" points="570.004,-246.533 580.598,-246.376 572.219,-239.892 570.004,-246.533"/>
</g>
<!-- Node26&#45;&gt;Node7 -->
<g id="edge40" class="edge"><title>Node26&#45;&gt;Node7</title>
<path fill="none" stroke="midnightblue" d="M498.611,-163.925C517.167,-159.04 537.941,-153.677 557,-149 566.798,-146.596 577.271,-144.123 587.363,-141.789"/>
<polygon fill="midnightblue" stroke="midnightblue" points="588.326,-145.159 597.289,-139.509 586.759,-138.336 588.326,-145.159"/>
</g>
</g>
</svg>
