<?xml version="1.0" encoding="UTF-8" standalone="no"?>
<!DOCTYPE svg PUBLIC "-//W3C//DTD SVG 1.1//EN"
 "http://www.w3.org/Graphics/SVG/1.1/DTD/svg11.dtd">
<!-- Generated by graphviz version 2.38.0 (20140413.2041)
 -->
<!-- Title: WordQuizzle.Challenge.calculate Pages: 1 -->
<svg width="364pt" height="127pt"
 viewBox="0.00 0.00 364.00 126.50" xmlns="http://www.w3.org/2000/svg" xmlns:xlink="http://www.w3.org/1999/xlink">
<g id="graph0" class="graph" transform="scale(1 1) rotate(0) translate(4 122.5)">
<title>WordQuizzle.Challenge.calculate</title>
<polygon fill="white" stroke="none" points="-4,4 -4,-122.5 360,-122.5 360,4 -4,4"/>
<!-- Node1 -->
<g id="node1" class="node"><title>Node1</title>
<g id="a_node1"><a xlink:title="Calcola le statistiche del giocatore al termine della sfida.">
<polygon fill="#bfbfbf" stroke="black" points="0,-55 0,-74 161,-74 161,-55 0,-55"/>
<text text-anchor="middle" x="80.5" y="-62" font-family="Helvetica,sans-Serif" font-size="10.00">WordQuizzle.Challenge.calculate</text>
</a>
</g>
</g>
<!-- Node2 -->
<g id="node2" class="node"><title>Node2</title>
<g id="a_node2"><a xlink:href="class_word_quizzle_1_1_player.html#a990d3fa733cc283004193dbbd7e1c229" target="_top" xlink:title="Restituisce la lista di risposte del giocatore.">
<polygon fill="white" stroke="black" points="197.5,-99 197.5,-118 355.5,-118 355.5,-99 197.5,-99"/>
<text text-anchor="middle" x="276.5" y="-106" font-family="Helvetica,sans-Serif" font-size="10.00">WordQuizzle.Player.getAnswers</text>
</a>
</g>
</g>
<!-- Node1&#45;&gt;Node2 -->
<g id="edge1" class="edge"><title>Node1&#45;&gt;Node2</title>
<path fill="none" stroke="midnightblue" d="M123.595,-74.0473C152.958,-80.7069 192.328,-89.6363 223.63,-96.7358"/>
<polygon fill="midnightblue" stroke="midnightblue" points="222.961,-100.173 233.487,-98.9713 224.509,-93.346 222.961,-100.173"/>
</g>
<!-- Node3 -->
<g id="node3" class="node"><title>Node3</title>
<g id="a_node3"><a xlink:href="class_word_quizzle_1_1_word_quizzle_server_service.html#aacb55e983eb8efadf3d6ec8bbc70c0b4" target="_top" xlink:title="Restituisce quanto vale una risposta corretta.">
<polygon fill="white" stroke="black" points="197,-49.5 197,-79.5 356,-79.5 356,-49.5 197,-49.5"/>
<text text-anchor="start" x="205" y="-67.5" font-family="Helvetica,sans-Serif" font-size="10.00">WordQuizzle.WordQuizzleServer</text>
<text text-anchor="middle" x="276.5" y="-56.5" font-family="Helvetica,sans-Serif" font-size="10.00">Service.getX</text>
</a>
</g>
</g>
<!-- Node1&#45;&gt;Node3 -->
<g id="edge2" class="edge"><title>Node1&#45;&gt;Node3</title>
<path fill="none" stroke="midnightblue" d="M161.247,-64.5C169.568,-64.5 178.065,-64.5 186.481,-64.5"/>
<polygon fill="midnightblue" stroke="midnightblue" points="186.689,-68.0001 196.689,-64.5 186.689,-61.0001 186.689,-68.0001"/>
</g>
<!-- Node4 -->
<g id="node4" class="node"><title>Node4</title>
<g id="a_node4"><a xlink:href="class_word_quizzle_1_1_word_quizzle_server_service.html#a0c3917de5aa1c3375e99f2e029afa1b7" target="_top" xlink:title="Restituisce quanto vale una risposta errata.">
<polygon fill="white" stroke="black" points="197,-0.5 197,-30.5 356,-30.5 356,-0.5 197,-0.5"/>
<text text-anchor="start" x="205" y="-18.5" font-family="Helvetica,sans-Serif" font-size="10.00">WordQuizzle.WordQuizzleServer</text>
<text text-anchor="middle" x="276.5" y="-7.5" font-family="Helvetica,sans-Serif" font-size="10.00">Service.getY</text>
</a>
</g>
</g>
<!-- Node1&#45;&gt;Node4 -->
<g id="edge3" class="edge"><title>Node1&#45;&gt;Node4</title>
<path fill="none" stroke="midnightblue" d="M119.366,-54.936C144.034,-48.7053 176.953,-40.3906 206.204,-33.0026"/>
<polygon fill="midnightblue" stroke="midnightblue" points="207.128,-36.3793 215.966,-30.537 205.413,-29.5925 207.128,-36.3793"/>
</g>
</g>
</svg>
