<?xml version="1.0" encoding="UTF-8" standalone="no"?>
<!DOCTYPE svg PUBLIC "-//W3C//DTD SVG 1.1//EN"
 "http://www.w3.org/Graphics/SVG/1.1/DTD/svg11.dtd">
<!-- Generated by graphviz version 2.38.0 (20140413.2041)
 -->
<!-- Title: WordQuizzle.WordQuizzleClient.sendTranslation Pages: 1 -->
<svg width="768pt" height="88pt"
 viewBox="0.00 0.00 768.00 88.00" xmlns="http://www.w3.org/2000/svg" xmlns:xlink="http://www.w3.org/1999/xlink">
<g id="graph0" class="graph" transform="scale(1 1) rotate(0) translate(4 84)">
<title>WordQuizzle.WordQuizzleClient.sendTranslation</title>
<polygon fill="white" stroke="none" points="-4,4 -4,-84 764,-84 764,4 -4,4"/>
<!-- Node1 -->
<g id="node1" class="node"><title>Node1</title>
<g id="a_node1"><a xlink:title=" ">
<polygon fill="#bfbfbf" stroke="black" points="0,-24.5 0,-54.5 181,-54.5 181,-24.5 0,-24.5"/>
<text text-anchor="start" x="8" y="-42.5" font-family="Helvetica,sans-Serif" font-size="10.00">WordQuizzle.WordQuizzleClient.send</text>
<text text-anchor="middle" x="90.5" y="-31.5" font-family="Helvetica,sans-Serif" font-size="10.00">Translation</text>
</a>
</g>
</g>
<!-- Node2 -->
<g id="node2" class="node"><title>Node2</title>
<g id="a_node2"><a xlink:href="class_word_quizzle_1_1_word_quizzle_client_service.html#a53ced7302f38c42dfed59b2a70674800" target="_top" xlink:title=" ">
<polygon fill="white" stroke="black" points="217,-24.5 217,-54.5 374,-54.5 374,-24.5 217,-24.5"/>
<text text-anchor="start" x="225" y="-42.5" font-family="Helvetica,sans-Serif" font-size="10.00">WordQuizzle.WordQuizzleClient</text>
<text text-anchor="middle" x="295.5" y="-31.5" font-family="Helvetica,sans-Serif" font-size="10.00">Service.sendTranslation</text>
</a>
</g>
</g>
<!-- Node1&#45;&gt;Node2 -->
<g id="edge1" class="edge"><title>Node1&#45;&gt;Node2</title>
<path fill="none" stroke="midnightblue" d="M181.13,-39.5C189.587,-39.5 198.155,-39.5 206.596,-39.5"/>
<polygon fill="midnightblue" stroke="midnightblue" points="206.813,-43.0001 216.813,-39.5 206.813,-36.0001 206.813,-43.0001"/>
</g>
<!-- Node3 -->
<g id="node3" class="node"><title>Node3</title>
<g id="a_node3"><a xlink:href="class_word_quizzle_1_1_word_quizzle_client_service.html#a0ed33ad0199840ae1847c4ecbc992ce2" target="_top" xlink:title=" ">
<polygon fill="white" stroke="black" points="410,-24.5 410,-54.5 567,-54.5 567,-24.5 410,-24.5"/>
<text text-anchor="start" x="418" y="-42.5" font-family="Helvetica,sans-Serif" font-size="10.00">WordQuizzle.WordQuizzleClient</text>
<text text-anchor="middle" x="488.5" y="-31.5" font-family="Helvetica,sans-Serif" font-size="10.00">Service.send</text>
</a>
</g>
</g>
<!-- Node2&#45;&gt;Node3 -->
<g id="edge2" class="edge"><title>Node2&#45;&gt;Node3</title>
<path fill="none" stroke="midnightblue" d="M374.187,-39.5C382.65,-39.5 391.306,-39.5 399.876,-39.5"/>
<polygon fill="midnightblue" stroke="midnightblue" points="399.882,-43.0001 409.882,-39.5 399.882,-36.0001 399.882,-43.0001"/>
</g>
<!-- Node4 -->
<g id="node4" class="node"><title>Node4</title>
<g id="a_node4"><a xlink:href="class_word_quizzle_1_1_word_quizzle_client_service.html#a59c8bdbde7768c2b478d51f4f13f7afb" target="_top" xlink:title=" ">
<polygon fill="white" stroke="black" points="603,-49.5 603,-79.5 760,-79.5 760,-49.5 603,-49.5"/>
<text text-anchor="start" x="611" y="-67.5" font-family="Helvetica,sans-Serif" font-size="10.00">WordQuizzle.WordQuizzleClient</text>
<text text-anchor="middle" x="681.5" y="-56.5" font-family="Helvetica,sans-Serif" font-size="10.00">Service.read</text>
</a>
</g>
</g>
<!-- Node3&#45;&gt;Node4 -->
<g id="edge3" class="edge"><title>Node3&#45;&gt;Node4</title>
<path fill="none" stroke="midnightblue" d="M567.187,-49.6685C575.65,-50.7761 584.306,-51.9091 592.876,-53.0309"/>
<polygon fill="midnightblue" stroke="midnightblue" points="592.512,-56.513 602.882,-54.3406 593.421,-49.5722 592.512,-56.513"/>
</g>
<!-- Node5 -->
<g id="node5" class="node"><title>Node5</title>
<g id="a_node5"><a xlink:href="class_word_quizzle_1_1_word_quizzle_client_service.html#a25566e1d25884c6c0dbb5aab0c1b52fd" target="_top" xlink:title=" ">
<polygon fill="white" stroke="black" points="603,-0.5 603,-30.5 760,-30.5 760,-0.5 603,-0.5"/>
<text text-anchor="start" x="611" y="-18.5" font-family="Helvetica,sans-Serif" font-size="10.00">WordQuizzle.WordQuizzleClient</text>
<text text-anchor="middle" x="681.5" y="-7.5" font-family="Helvetica,sans-Serif" font-size="10.00">Service.write</text>
</a>
</g>
</g>
<!-- Node3&#45;&gt;Node5 -->
<g id="edge4" class="edge"><title>Node3&#45;&gt;Node5</title>
<path fill="none" stroke="midnightblue" d="M567.187,-29.7383C575.65,-28.6749 584.306,-27.5873 592.876,-26.5103"/>
<polygon fill="midnightblue" stroke="midnightblue" points="593.396,-29.9726 602.882,-25.2531 592.523,-23.0272 593.396,-29.9726"/>
</g>
</g>
</svg>
