<?xml version="1.0" encoding="UTF-8" standalone="no"?>
<!DOCTYPE svg PUBLIC "-//W3C//DTD SVG 1.1//EN"
 "http://www.w3.org/Graphics/SVG/1.1/DTD/svg11.dtd">
<!-- Generated by graphviz version 2.38.0 (20140413.2041)
 -->
<!-- Title: Session Pages: 1 -->
<svg width="693pt" height="777pt"
 viewBox="0.00 0.00 693.00 777.00" xmlns="http://www.w3.org/2000/svg" xmlns:xlink="http://www.w3.org/1999/xlink">
<g id="graph0" class="graph" transform="scale(1 1) rotate(0) translate(4 773)">
<title>Session</title>
<polygon fill="white" stroke="none" points="-4,4 -4,-773 689,-773 689,4 -4,4"/>
<!-- Node1 -->
<g id="node1" class="node"><title>Node1</title>
<g id="a_node1"><a xlink:title="Rappresenta una sessione di un utente.">
<polygon fill="#bfbfbf" stroke="black" points="436,-0.5 436,-200.5 525,-200.5 525,-0.5 436,-0.5"/>
<text text-anchor="middle" x="480.5" y="-188.5" font-family="Helvetica,sans-Serif" font-size="10.00">Session</text>
<polyline fill="none" stroke="black" points="436,-181.5 525,-181.5 "/>
<text text-anchor="start" x="444" y="-169.5" font-family="Helvetica,sans-Serif" font-size="10.00">&#45; user</text>
<text text-anchor="start" x="444" y="-158.5" font-family="Helvetica,sans-Serif" font-size="10.00">&#45; response</text>
<text text-anchor="start" x="444" y="-147.5" font-family="Helvetica,sans-Serif" font-size="10.00">&#45; end</text>
<polyline fill="none" stroke="black" points="436,-140.5 525,-140.5 "/>
<text text-anchor="start" x="444" y="-128.5" font-family="Helvetica,sans-Serif" font-size="10.00">+ Session()</text>
<text text-anchor="start" x="444" y="-117.5" font-family="Helvetica,sans-Serif" font-size="10.00">+ getClient()</text>
<text text-anchor="start" x="444" y="-106.5" font-family="Helvetica,sans-Serif" font-size="10.00">+ getBfs()</text>
<text text-anchor="start" x="444" y="-95.5" font-family="Helvetica,sans-Serif" font-size="10.00">+ setUdp()</text>
<text text-anchor="start" x="444" y="-84.5" font-family="Helvetica,sans-Serif" font-size="10.00">+ getUdp()</text>
<text text-anchor="start" x="444" y="-73.5" font-family="Helvetica,sans-Serif" font-size="10.00">+ newBfs()</text>
<text text-anchor="start" x="444" y="-62.5" font-family="Helvetica,sans-Serif" font-size="10.00">+ getUser()</text>
<text text-anchor="start" x="444" y="-51.5" font-family="Helvetica,sans-Serif" font-size="10.00">+ getResponse()</text>
<text text-anchor="start" x="444" y="-40.5" font-family="Helvetica,sans-Serif" font-size="10.00">+ setResponse()</text>
<text text-anchor="start" x="444" y="-29.5" font-family="Helvetica,sans-Serif" font-size="10.00">+ isTerminated()</text>
<text text-anchor="start" x="444" y="-18.5" font-family="Helvetica,sans-Serif" font-size="10.00">+ parse()</text>
<text text-anchor="start" x="444" y="-7.5" font-family="Helvetica,sans-Serif" font-size="10.00">&#45; compute()</text>
</a>
</g>
</g>
<!-- Node2 -->
<g id="node2" class="node"><title>Node2</title>
<g id="a_node2"><a xlink:href="class_word_quizzle_server_service.html" target="_top" xlink:title="Implementa la Business Logic.">
<polygon fill="white" stroke="black" points="240.5,-248.5 240.5,-514.5 386.5,-514.5 386.5,-248.5 240.5,-248.5"/>
<text text-anchor="middle" x="313.5" y="-502.5" font-family="Helvetica,sans-Serif" font-size="10.00">WordQuizzleServerService</text>
<polyline fill="none" stroke="black" points="240.5,-495.5 386.5,-495.5 "/>
<text text-anchor="start" x="248.5" y="-483.5" font-family="Helvetica,sans-Serif" font-size="10.00">&#45; K</text>
<text text-anchor="start" x="248.5" y="-472.5" font-family="Helvetica,sans-Serif" font-size="10.00">&#45; T1</text>
<text text-anchor="start" x="248.5" y="-461.5" font-family="Helvetica,sans-Serif" font-size="10.00">&#45; T2</text>
<text text-anchor="start" x="248.5" y="-450.5" font-family="Helvetica,sans-Serif" font-size="10.00">&#45; X</text>
<text text-anchor="start" x="248.5" y="-439.5" font-family="Helvetica,sans-Serif" font-size="10.00">&#45; Y</text>
<text text-anchor="start" x="248.5" y="-428.5" font-family="Helvetica,sans-Serif" font-size="10.00">&#45; Z</text>
<polyline fill="none" stroke="black" points="240.5,-421.5 386.5,-421.5 "/>
<text text-anchor="start" x="248.5" y="-409.5" font-family="Helvetica,sans-Serif" font-size="10.00">+ WordQuizzleServerService()</text>
<text text-anchor="start" x="248.5" y="-398.5" font-family="Helvetica,sans-Serif" font-size="10.00">+ login()</text>
<text text-anchor="start" x="248.5" y="-387.5" font-family="Helvetica,sans-Serif" font-size="10.00">+ logout()</text>
<text text-anchor="start" x="248.5" y="-376.5" font-family="Helvetica,sans-Serif" font-size="10.00">+ aggiungi_amico()</text>
<text text-anchor="start" x="248.5" y="-365.5" font-family="Helvetica,sans-Serif" font-size="10.00">+ lista_amici()</text>
<text text-anchor="start" x="248.5" y="-354.5" font-family="Helvetica,sans-Serif" font-size="10.00">+ mostra_punteggio()</text>
<text text-anchor="start" x="248.5" y="-343.5" font-family="Helvetica,sans-Serif" font-size="10.00">+ mostra_classifica()</text>
<text text-anchor="start" x="248.5" y="-332.5" font-family="Helvetica,sans-Serif" font-size="10.00">+ sfida()</text>
<text text-anchor="start" x="248.5" y="-321.5" font-family="Helvetica,sans-Serif" font-size="10.00">+ accettaSfida()</text>
<text text-anchor="start" x="248.5" y="-310.5" font-family="Helvetica,sans-Serif" font-size="10.00">+ getK()</text>
<text text-anchor="start" x="248.5" y="-299.5" font-family="Helvetica,sans-Serif" font-size="10.00">+ getZ()</text>
<text text-anchor="start" x="248.5" y="-288.5" font-family="Helvetica,sans-Serif" font-size="10.00">+ getY()</text>
<text text-anchor="start" x="248.5" y="-277.5" font-family="Helvetica,sans-Serif" font-size="10.00">+ getX()</text>
<text text-anchor="start" x="248.5" y="-266.5" font-family="Helvetica,sans-Serif" font-size="10.00">+ getT1()</text>
<text text-anchor="start" x="248.5" y="-255.5" font-family="Helvetica,sans-Serif" font-size="10.00">+ getT2()</text>
</a>
</g>
</g>
<!-- Node2&#45;&gt;Node1 -->
<g id="edge1" class="edge"><title>Node2&#45;&gt;Node1</title>
<path fill="none" stroke="#404040" d="M386.506,-258.532C401.119,-234.118 416.168,-208.977 429.824,-186.162"/>
<polygon fill="none" stroke="#404040" points="429.831,-186.151 429.48,-178.948 435.994,-175.855 436.344,-183.057 429.831,-186.151"/>
<text text-anchor="middle" x="417" y="-222" font-family="Helvetica,sans-Serif" font-size="10.00"> &#45;wq</text>
</g>
<!-- Node3 -->
<g id="node3" class="node"><title>Node3</title>
<g id="a_node3"><a xlink:title=" ">
<polygon fill="white" stroke="#bfbfbf" points="0,-584.5 0,-641.5 89,-641.5 89,-584.5 0,-584.5"/>
<text text-anchor="middle" x="44.5" y="-629.5" font-family="Helvetica,sans-Serif" font-size="10.00">DatagramSocket</text>
<polyline fill="none" stroke="#bfbfbf" points="0,-622.5 89,-622.5 "/>
<text text-anchor="middle" x="44.5" y="-610.5" font-family="Helvetica,sans-Serif" font-size="10.00"> </text>
<polyline fill="none" stroke="#bfbfbf" points="0,-603.5 89,-603.5 "/>
<text text-anchor="middle" x="44.5" y="-591.5" font-family="Helvetica,sans-Serif" font-size="10.00"> </text>
</a>
</g>
</g>
<!-- Node3&#45;&gt;Node2 -->
<g id="edge2" class="edge"><title>Node3&#45;&gt;Node2</title>
<path fill="none" stroke="#404040" d="M73.6773,-584.476C81.6517,-577.093 90.3446,-569.172 98.5,-562 141.432,-524.247 190.279,-483.309 230.553,-450.076"/>
<polygon fill="none" stroke="#404040" points="230.805,-449.868 232.892,-442.965 240.066,-442.237 237.979,-449.139 230.805,-449.868"/>
<text text-anchor="middle" x="145.5" y="-536" font-family="Helvetica,sans-Serif" font-size="10.00"> &#45;socket</text>
</g>
<!-- Node4 -->
<g id="node4" class="node"><title>Node4</title>
<g id="a_node4"><a xlink:title=" ">
<polygon fill="white" stroke="#bfbfbf" points="107.5,-584.5 107.5,-641.5 235.5,-641.5 235.5,-584.5 107.5,-584.5"/>
<text text-anchor="middle" x="171.5" y="-629.5" font-family="Helvetica,sans-Serif" font-size="10.00">Map&lt; String, Challenge &gt;</text>
<polyline fill="none" stroke="#bfbfbf" points="107.5,-622.5 235.5,-622.5 "/>
<text text-anchor="middle" x="171.5" y="-610.5" font-family="Helvetica,sans-Serif" font-size="10.00"> </text>
<polyline fill="none" stroke="#bfbfbf" points="107.5,-603.5 235.5,-603.5 "/>
<text text-anchor="middle" x="171.5" y="-591.5" font-family="Helvetica,sans-Serif" font-size="10.00"> </text>
</a>
</g>
</g>
<!-- Node4&#45;&gt;Node2 -->
<g id="edge3" class="edge"><title>Node4&#45;&gt;Node2</title>
<path fill="none" stroke="#404040" d="M188.629,-584.317C200.355,-565.364 216.839,-538.723 233.994,-510.997"/>
<polygon fill="none" stroke="#404040" points="234.024,-510.949 233.779,-503.742 240.338,-500.745 240.582,-507.952 234.024,-510.949"/>
<text text-anchor="middle" x="244" y="-536" font-family="Helvetica,sans-Serif" font-size="10.00"> &#45;challenges</text>
</g>
<!-- Node5 -->
<g id="node5" class="node"><title>Node5</title>
<g id="a_node5"><a xlink:title=" ">
<polygon fill="white" stroke="#bfbfbf" points="227,-711.5 227,-768.5 262,-768.5 262,-711.5 227,-711.5"/>
<text text-anchor="middle" x="244.5" y="-756.5" font-family="Helvetica,sans-Serif" font-size="10.00">Map</text>
<polyline fill="none" stroke="#bfbfbf" points="227,-749.5 262,-749.5 "/>
<text text-anchor="middle" x="244.5" y="-737.5" font-family="Helvetica,sans-Serif" font-size="10.00"> </text>
<polyline fill="none" stroke="#bfbfbf" points="227,-730.5 262,-730.5 "/>
<text text-anchor="middle" x="244.5" y="-718.5" font-family="Helvetica,sans-Serif" font-size="10.00"> </text>
</a>
</g>
</g>
<!-- Node5&#45;&gt;Node4 -->
<g id="edge4" class="edge"><title>Node5&#45;&gt;Node4</title>
<path fill="none" stroke="orange" d="M218.023,-725.849C205.198,-718.08 190.809,-707.007 182.5,-693 173.386,-677.636 170.664,-657.697 170.207,-641.694"/>
<polygon fill="orange" stroke="orange" points="216.55,-729.037 226.977,-730.917 219.998,-722.945 216.55,-729.037"/>
<text text-anchor="middle" x="230.5" y="-685" font-family="Helvetica,sans-Serif" font-size="10.00"> &lt; String, Challenge &gt;</text>
</g>
<!-- Node6 -->
<g id="node6" class="node"><title>Node6</title>
<g id="a_node6"><a xlink:title=" ">
<polygon fill="white" stroke="#bfbfbf" points="253.5,-584.5 253.5,-641.5 373.5,-641.5 373.5,-584.5 253.5,-584.5"/>
<text text-anchor="middle" x="313.5" y="-629.5" font-family="Helvetica,sans-Serif" font-size="10.00">Map&lt; String, Session &gt;</text>
<polyline fill="none" stroke="#bfbfbf" points="253.5,-622.5 373.5,-622.5 "/>
<text text-anchor="middle" x="313.5" y="-610.5" font-family="Helvetica,sans-Serif" font-size="10.00"> </text>
<polyline fill="none" stroke="#bfbfbf" points="253.5,-603.5 373.5,-603.5 "/>
<text text-anchor="middle" x="313.5" y="-591.5" font-family="Helvetica,sans-Serif" font-size="10.00"> </text>
</a>
</g>
</g>
<!-- Node5&#45;&gt;Node6 -->
<g id="edge6" class="edge"><title>Node5&#45;&gt;Node6</title>
<path fill="none" stroke="orange" d="M268.863,-712.386C273.762,-706.28 278.597,-699.628 282.5,-693 291.995,-676.876 299.698,-657.308 305.051,-641.681"/>
<polygon fill="orange" stroke="orange" points="265.958,-710.404 262.225,-720.319 271.326,-714.896 265.958,-710.404"/>
<text text-anchor="middle" x="332.5" y="-685" font-family="Helvetica,sans-Serif" font-size="10.00"> &lt; String, Session &gt;</text>
</g>
<!-- Node6&#45;&gt;Node2 -->
<g id="edge5" class="edge"><title>Node6&#45;&gt;Node2</title>
<path fill="none" stroke="#404040" d="M313.5,-584.317C313.5,-569.027 313.5,-548.734 313.5,-526.904"/>
<polygon fill="none" stroke="#404040" points="313.5,-526.64 309.5,-520.64 313.5,-514.64 317.5,-520.64 313.5,-526.64"/>
<text text-anchor="middle" x="329" y="-536" font-family="Helvetica,sans-Serif" font-size="10.00"> &#45;users</text>
</g>
<!-- Node7 -->
<g id="node7" class="node"><title>Node7</title>
<g id="a_node7"><a xlink:href="interface_data_base.html" target="_top" xlink:title="Database che gestisce gli utenti.">
<polygon fill="white" stroke="black" points="391.5,-562.5 391.5,-663.5 477.5,-663.5 477.5,-562.5 391.5,-562.5"/>
<text text-anchor="middle" x="434.5" y="-651.5" font-family="Helvetica,sans-Serif" font-size="10.00">DataBase</text>
<polyline fill="none" stroke="black" points="391.5,-644.5 477.5,-644.5 "/>
<text text-anchor="middle" x="434.5" y="-632.5" font-family="Helvetica,sans-Serif" font-size="10.00"> </text>
<polyline fill="none" stroke="black" points="391.5,-625.5 477.5,-625.5 "/>
<text text-anchor="start" x="399.5" y="-613.5" font-family="Helvetica,sans-Serif" font-size="10.00">+ checkUser()</text>
<text text-anchor="start" x="399.5" y="-602.5" font-family="Helvetica,sans-Serif" font-size="10.00">+ getUser()</text>
<text text-anchor="start" x="399.5" y="-591.5" font-family="Helvetica,sans-Serif" font-size="10.00">+ newUser()</text>
<text text-anchor="start" x="399.5" y="-580.5" font-family="Helvetica,sans-Serif" font-size="10.00">+ modifyScore()</text>
<text text-anchor="start" x="399.5" y="-569.5" font-family="Helvetica,sans-Serif" font-size="10.00">+ link()</text>
</a>
</g>
</g>
<!-- Node7&#45;&gt;Node2 -->
<g id="edge7" class="edge"><title>Node7&#45;&gt;Node2</title>
<path fill="none" stroke="#404040" d="M408.394,-562.484C402.418,-551.151 395.773,-538.547 388.851,-525.418"/>
<polygon fill="none" stroke="#404040" points="388.844,-525.405 382.508,-521.963 383.248,-514.79 389.584,-518.232 388.844,-525.405"/>
<text text-anchor="middle" x="404" y="-536" font-family="Helvetica,sans-Serif" font-size="10.00"> &#45;db</text>
</g>
<!-- Node8 -->
<g id="node8" class="node"><title>Node8</title>
<g id="a_node8"><a xlink:title=" ">
<polygon fill="white" stroke="#bfbfbf" points="496,-584.5 496,-641.5 549,-641.5 549,-584.5 496,-584.5"/>
<text text-anchor="middle" x="522.5" y="-629.5" font-family="Helvetica,sans-Serif" font-size="10.00">Selector</text>
<polyline fill="none" stroke="#bfbfbf" points="496,-622.5 549,-622.5 "/>
<text text-anchor="middle" x="522.5" y="-610.5" font-family="Helvetica,sans-Serif" font-size="10.00"> </text>
<polyline fill="none" stroke="#bfbfbf" points="496,-603.5 549,-603.5 "/>
<text text-anchor="middle" x="522.5" y="-591.5" font-family="Helvetica,sans-Serif" font-size="10.00"> </text>
</a>
</g>
</g>
<!-- Node8&#45;&gt;Node2 -->
<g id="edge8" class="edge"><title>Node8&#45;&gt;Node2</title>
<path fill="none" stroke="#404040" d="M506.098,-584.386C500.55,-576.514 493.871,-568.358 486.5,-562 452.031,-532.268 428.909,-545.918 395.5,-515 395.407,-514.914 395.314,-514.828 395.221,-514.741"/>
<polygon fill="none" stroke="#404040" points="395.291,-514.81 388.214,-513.426 386.77,-506.361 393.847,-507.745 395.291,-514.81"/>
<text text-anchor="middle" x="477" y="-536" font-family="Helvetica,sans-Serif" font-size="10.00"> &#45;selector</text>
</g>
<!-- Node9 -->
<g id="node9" class="node"><title>Node9</title>
<g id="a_node9"><a xlink:title=" ">
<polygon fill="white" stroke="#bfbfbf" points="404.5,-353 404.5,-410 466.5,-410 466.5,-353 404.5,-353"/>
<text text-anchor="middle" x="435.5" y="-398" font-family="Helvetica,sans-Serif" font-size="10.00">ByteBuffer</text>
<polyline fill="none" stroke="#bfbfbf" points="404.5,-391 466.5,-391 "/>
<text text-anchor="middle" x="435.5" y="-379" font-family="Helvetica,sans-Serif" font-size="10.00"> </text>
<polyline fill="none" stroke="#bfbfbf" points="404.5,-372 466.5,-372 "/>
<text text-anchor="middle" x="435.5" y="-360" font-family="Helvetica,sans-Serif" font-size="10.00"> </text>
</a>
</g>
</g>
<!-- Node9&#45;&gt;Node1 -->
<g id="edge9" class="edge"><title>Node9&#45;&gt;Node1</title>
<path fill="none" stroke="#404040" d="M439.938,-352.985C445.214,-320.271 454.348,-263.642 462.614,-212.394"/>
<polygon fill="none" stroke="#404040" points="462.616,-212.377 459.623,-205.817 464.527,-200.53 467.521,-207.091 462.616,-212.377"/>
<text text-anchor="middle" x="471" y="-222" font-family="Helvetica,sans-Serif" font-size="10.00"> &#45;bfs</text>
</g>
<!-- Node10 -->
<g id="node10" class="node"><title>Node10</title>
<g id="a_node10"><a xlink:title=" ">
<polygon fill="white" stroke="#bfbfbf" points="485,-353 485,-410 568,-410 568,-353 485,-353"/>
<text text-anchor="middle" x="526.5" y="-398" font-family="Helvetica,sans-Serif" font-size="10.00">SocketChannel</text>
<polyline fill="none" stroke="#bfbfbf" points="485,-391 568,-391 "/>
<text text-anchor="middle" x="526.5" y="-379" font-family="Helvetica,sans-Serif" font-size="10.00"> </text>
<polyline fill="none" stroke="#bfbfbf" points="485,-372 568,-372 "/>
<text text-anchor="middle" x="526.5" y="-360" font-family="Helvetica,sans-Serif" font-size="10.00"> </text>
</a>
</g>
</g>
<!-- Node10&#45;&gt;Node1 -->
<g id="edge10" class="edge"><title>Node10&#45;&gt;Node1</title>
<path fill="none" stroke="#404040" d="M521.963,-352.985C516.57,-320.271 507.233,-263.642 498.784,-212.394"/>
<polygon fill="none" stroke="#404040" points="498.78,-212.371 493.857,-207.101 496.828,-200.53 501.75,-205.8 498.78,-212.371"/>
<text text-anchor="middle" x="516.5" y="-222" font-family="Helvetica,sans-Serif" font-size="10.00"> &#45;client</text>
</g>
<!-- Node11 -->
<g id="node11" class="node"><title>Node11</title>
<g id="a_node11"><a xlink:title=" ">
<polygon fill="white" stroke="#bfbfbf" points="586,-353 586,-410 685,-410 685,-353 586,-353"/>
<text text-anchor="middle" x="635.5" y="-398" font-family="Helvetica,sans-Serif" font-size="10.00">InetSocketAddress</text>
<polyline fill="none" stroke="#bfbfbf" points="586,-391 685,-391 "/>
<text text-anchor="middle" x="635.5" y="-379" font-family="Helvetica,sans-Serif" font-size="10.00"> </text>
<polyline fill="none" stroke="#bfbfbf" points="586,-372 685,-372 "/>
<text text-anchor="middle" x="635.5" y="-360" font-family="Helvetica,sans-Serif" font-size="10.00"> </text>
</a>
</g>
</g>
<!-- Node11&#45;&gt;Node1 -->
<g id="edge11" class="edge"><title>Node11&#45;&gt;Node1</title>
<path fill="none" stroke="#404040" d="M624.767,-352.985C613.793,-325.747 595.678,-283.146 576.5,-248 563.114,-223.469 546.968,-197.671 531.767,-174.677"/>
<polygon fill="none" stroke="#404040" points="531.75,-174.651 525.093,-171.877 525.093,-164.666 531.75,-167.44 531.75,-174.651"/>
<text text-anchor="middle" x="576.5" y="-222" font-family="Helvetica,sans-Serif" font-size="10.00"> &#45;udp</text>
</g>
</g>
</svg>
