<?xml version="1.0" encoding="UTF-8" standalone="no"?>
<!DOCTYPE svg PUBLIC "-//W3C//DTD SVG 1.1//EN"
 "http://www.w3.org/Graphics/SVG/1.1/DTD/svg11.dtd">
<!-- Generated by graphviz version 2.38.0 (20140413.2041)
 -->
<!-- Title: WQCli.help Pages: 1 -->
<svg width="235pt" height="332pt"
 viewBox="0.00 0.00 235.00 332.00" xmlns="http://www.w3.org/2000/svg" xmlns:xlink="http://www.w3.org/1999/xlink">
<g id="graph0" class="graph" transform="scale(1 1) rotate(0) translate(4 328)">
<title>WQCli.help</title>
<polygon fill="white" stroke="none" points="-4,4 -4,-328 231,-328 231,4 -4,4"/>
<!-- Node1 -->
<g id="node1" class="node"><title>Node1</title>
<g id="a_node1"><a xlink:title="Restistuisce una stringa contenente informazioni riguardo i comandi da utilizzare.">
<polygon fill="#bfbfbf" stroke="black" points="0,-152.5 0,-171.5 66,-171.5 66,-152.5 0,-152.5"/>
<text text-anchor="middle" x="33" y="-159.5" font-family="Helvetica,sans-Serif" font-size="10.00">WQCli.help</text>
</a>
</g>
</g>
<!-- Node2 -->
<g id="node2" class="node"><title>Node2</title>
<g id="a_node2"><a xlink:href="class_w_q_cli.html#a9ce93c9d50da5779eb8b1dfe27c63470" target="_top" xlink:title="Restistuisce una stringa contenente informazioni riguardo l&#39;aggiunta di un amico.">
<polygon fill="white" stroke="black" points="106.5,-304.5 106.5,-323.5 222.5,-323.5 222.5,-304.5 106.5,-304.5"/>
<text text-anchor="middle" x="164.5" y="-311.5" font-family="Helvetica,sans-Serif" font-size="10.00">WQCli.aggiungi_amico</text>
</a>
</g>
</g>
<!-- Node1&#45;&gt;Node2 -->
<g id="edge1" class="edge"><title>Node1&#45;&gt;Node2</title>
<path fill="none" stroke="midnightblue" d="M36.1753,-171.66C42.179,-196.086 61.3011,-260.796 102,-295 104.021,-296.699 106.193,-298.245 108.471,-299.654"/>
<polygon fill="midnightblue" stroke="midnightblue" points="107.195,-302.935 117.684,-304.431 110.417,-296.721 107.195,-302.935"/>
</g>
<!-- Node3 -->
<g id="node3" class="node"><title>Node3</title>
<g id="a_node3"><a xlink:href="class_w_q_cli.html#a025cbebffcc3fad5359e76b031349d86" target="_top" xlink:title="Restistuisce una stringa contenente informazioni riguardo la visualizzazione della lista amici.">
<polygon fill="white" stroke="black" points="117,-266.5 117,-285.5 212,-285.5 212,-266.5 117,-266.5"/>
<text text-anchor="middle" x="164.5" y="-273.5" font-family="Helvetica,sans-Serif" font-size="10.00">WQCli.lista_amici</text>
</a>
</g>
</g>
<!-- Node1&#45;&gt;Node3 -->
<g id="edge2" class="edge"><title>Node1&#45;&gt;Node3</title>
<path fill="none" stroke="midnightblue" d="M38.2777,-171.672C47.2553,-190.857 69.9159,-233.871 102,-257 104.674,-258.928 107.549,-260.664 110.542,-262.226"/>
<polygon fill="midnightblue" stroke="midnightblue" points="109.242,-265.479 119.796,-266.412 112.127,-259.102 109.242,-265.479"/>
</g>
<!-- Node4 -->
<g id="node4" class="node"><title>Node4</title>
<g id="a_node4"><a xlink:href="class_w_q_cli.html#a634b0cc22bd569d83562be0106fb695e" target="_top" xlink:title="Restistuisce una stringa contenente informazioni riguardo il login.">
<polygon fill="white" stroke="black" points="130.5,-228.5 130.5,-247.5 198.5,-247.5 198.5,-228.5 130.5,-228.5"/>
<text text-anchor="middle" x="164.5" y="-235.5" font-family="Helvetica,sans-Serif" font-size="10.00">WQCli.login</text>
</a>
</g>
</g>
<!-- Node1&#45;&gt;Node4 -->
<g id="edge3" class="edge"><title>Node1&#45;&gt;Node4</title>
<path fill="none" stroke="midnightblue" d="M43.2152,-171.853C55.5053,-184.456 78.4599,-206.182 102,-219 107.732,-222.121 114.05,-224.807 120.388,-227.094"/>
<polygon fill="midnightblue" stroke="midnightblue" points="119.689,-230.55 130.282,-230.365 121.886,-223.903 119.689,-230.55"/>
</g>
<!-- Node5 -->
<g id="node5" class="node"><title>Node5</title>
<g id="a_node5"><a xlink:href="class_w_q_cli.html#a086e67f85b13d6df039356bada52e867" target="_top" xlink:title="Restistuisce una stringa contenente informazioni riguardo il logout.">
<polygon fill="white" stroke="black" points="127.5,-190.5 127.5,-209.5 201.5,-209.5 201.5,-190.5 127.5,-190.5"/>
<text text-anchor="middle" x="164.5" y="-197.5" font-family="Helvetica,sans-Serif" font-size="10.00">WQCli.logout</text>
</a>
</g>
</g>
<!-- Node1&#45;&gt;Node5 -->
<g id="edge4" class="edge"><title>Node1&#45;&gt;Node5</title>
<path fill="none" stroke="midnightblue" d="M66.0112,-171.393C82.6952,-176.289 103.314,-182.339 121.287,-187.613"/>
<polygon fill="midnightblue" stroke="midnightblue" points="120.377,-190.994 130.958,-190.451 122.348,-184.277 120.377,-190.994"/>
</g>
<!-- Node6 -->
<g id="node6" class="node"><title>Node6</title>
<g id="a_node6"><a xlink:href="class_w_q_cli.html#abc1d3caffa86269b8250f63d67b92124" target="_top" xlink:title="Restistuisce una stringa contenente informazioni riguardo la visualizzazione della classifica.">
<polygon fill="white" stroke="black" points="102.5,-152.5 102.5,-171.5 226.5,-171.5 226.5,-152.5 102.5,-152.5"/>
<text text-anchor="middle" x="164.5" y="-159.5" font-family="Helvetica,sans-Serif" font-size="10.00">WQCli.mostra_classifica</text>
</a>
</g>
</g>
<!-- Node1&#45;&gt;Node6 -->
<g id="edge5" class="edge"><title>Node1&#45;&gt;Node6</title>
<path fill="none" stroke="midnightblue" d="M66.0112,-162C74.0969,-162 83.1069,-162 92.2919,-162"/>
<polygon fill="midnightblue" stroke="midnightblue" points="92.2919,-165.5 102.292,-162 92.2919,-158.5 92.2919,-165.5"/>
</g>
<!-- Node7 -->
<g id="node7" class="node"><title>Node7</title>
<g id="a_node7"><a xlink:href="class_w_q_cli.html#ad95f50efdef9b6f1b88ad183d1b66ad4" target="_top" xlink:title="Restistuisce una stringa contenente informazioni riguardo la visualizzazione del proprio punteggio.">
<polygon fill="white" stroke="black" points="102,-114.5 102,-133.5 227,-133.5 227,-114.5 102,-114.5"/>
<text text-anchor="middle" x="164.5" y="-121.5" font-family="Helvetica,sans-Serif" font-size="10.00">WQCli.mostra_punteggio</text>
</a>
</g>
</g>
<!-- Node1&#45;&gt;Node7 -->
<g id="edge6" class="edge"><title>Node1&#45;&gt;Node7</title>
<path fill="none" stroke="midnightblue" d="M66.0112,-152.607C82.6952,-147.711 103.314,-141.661 121.287,-136.387"/>
<polygon fill="midnightblue" stroke="midnightblue" points="122.348,-139.723 130.958,-133.549 120.377,-133.006 122.348,-139.723"/>
</g>
<!-- Node8 -->
<g id="node8" class="node"><title>Node8</title>
<g id="a_node8"><a xlink:href="class_w_q_cli.html#aa63c98f446f47fa785b7e84e75e63c6e" target="_top" xlink:title="Restistuisce una stringa contenente informazioni riguardo l&#39;uscita dal gioco.">
<polygon fill="white" stroke="black" points="132.5,-76.5 132.5,-95.5 196.5,-95.5 196.5,-76.5 132.5,-76.5"/>
<text text-anchor="middle" x="164.5" y="-83.5" font-family="Helvetica,sans-Serif" font-size="10.00">WQCli.quit</text>
</a>
</g>
</g>
<!-- Node1&#45;&gt;Node8 -->
<g id="edge7" class="edge"><title>Node1&#45;&gt;Node8</title>
<path fill="none" stroke="midnightblue" d="M43.2152,-152.147C55.5053,-139.544 78.4599,-117.818 102,-105 108.41,-101.51 115.552,-98.5635 122.636,-96.1111"/>
<polygon fill="midnightblue" stroke="midnightblue" points="123.72,-99.4392 132.185,-93.0683 121.594,-92.7697 123.72,-99.4392"/>
</g>
<!-- Node9 -->
<g id="node9" class="node"><title>Node9</title>
<g id="a_node9"><a xlink:href="class_w_q_cli.html#ace752b64fcaba97dbd9a8121d7c2d4e6" target="_top" xlink:title="Restistuisce una stringa contenente informazioni riguardo la registrazione di un utente.">
<polygon fill="white" stroke="black" points="108,-38.5 108,-57.5 221,-57.5 221,-38.5 108,-38.5"/>
<text text-anchor="middle" x="164.5" y="-45.5" font-family="Helvetica,sans-Serif" font-size="10.00">WQCli.registra_utente</text>
</a>
</g>
</g>
<!-- Node1&#45;&gt;Node9 -->
<g id="edge8" class="edge"><title>Node1&#45;&gt;Node9</title>
<path fill="none" stroke="midnightblue" d="M38.2777,-152.328C47.2553,-133.143 69.9159,-90.1285 102,-67 104.674,-65.0722 107.549,-63.3365 110.542,-61.774"/>
<polygon fill="midnightblue" stroke="midnightblue" points="112.127,-64.8985 119.796,-57.5881 109.242,-58.5206 112.127,-64.8985"/>
</g>
<!-- Node10 -->
<g id="node10" class="node"><title>Node10</title>
<g id="a_node10"><a xlink:href="class_w_q_cli.html#ab0795a558c5c98f6f86121157b4cef8c" target="_top" xlink:title="Restistuisce una stringa contenente informazioni riguardo l&#39;invio di una sfida.">
<polygon fill="white" stroke="black" points="130.5,-0.5 130.5,-19.5 198.5,-19.5 198.5,-0.5 130.5,-0.5"/>
<text text-anchor="middle" x="164.5" y="-7.5" font-family="Helvetica,sans-Serif" font-size="10.00">WQCli.sfida</text>
</a>
</g>
</g>
<!-- Node1&#45;&gt;Node10 -->
<g id="edge9" class="edge"><title>Node1&#45;&gt;Node10</title>
<path fill="none" stroke="midnightblue" d="M36.1753,-152.34C42.179,-127.914 61.3011,-63.204 102,-29 107.403,-24.4592 113.883,-21.0025 120.58,-18.3713"/>
<polygon fill="midnightblue" stroke="midnightblue" points="122.07,-21.5638 130.447,-15.0769 119.853,-14.9241 122.07,-21.5638"/>
</g>
</g>
</svg>
