<?xml version="1.0" encoding="UTF-8" standalone="no"?>
<!DOCTYPE svg PUBLIC "-//W3C//DTD SVG 1.1//EN"
 "http://www.w3.org/Graphics/SVG/1.1/DTD/svg11.dtd">
<!-- Generated by graphviz version 2.38.0 (20140413.2041)
 -->
<!-- Title: WordQuizzle.WQGui.main Pages: 1 -->
<svg width="762pt" height="28pt"
 viewBox="0.00 0.00 762.00 28.00" xmlns="http://www.w3.org/2000/svg" xmlns:xlink="http://www.w3.org/1999/xlink">
<g id="graph0" class="graph" transform="scale(1 1) rotate(0) translate(4 24)">
<title>WordQuizzle.WQGui.main</title>
<polygon fill="white" stroke="none" points="-4,4 -4,-24 758,-24 758,4 -4,4"/>
<!-- Node1 -->
<g id="node1" class="node"><title>Node1</title>
<g id="a_node1"><a xlink:title="Avvia l&#39;interfaccia.">
<polygon fill="#bfbfbf" stroke="black" points="0,-0.5 0,-19.5 132,-19.5 132,-0.5 0,-0.5"/>
<text text-anchor="middle" x="66" y="-7.5" font-family="Helvetica,sans-Serif" font-size="10.00">WordQuizzle.WQGui.main</text>
</a>
</g>
</g>
<!-- Node2 -->
<g id="node2" class="node"><title>Node2</title>
<g id="a_node2"><a xlink:href="class_word_quizzle_1_1_w_q_gui.html#a0e08347bf2107460ca41d63036fdc6ad" target="_top" xlink:title="Crea l&#39;interfaccia per la prima volta.">
<polygon fill="white" stroke="black" points="168,-0.5 168,-19.5 303,-19.5 303,-0.5 168,-0.5"/>
<text text-anchor="middle" x="235.5" y="-7.5" font-family="Helvetica,sans-Serif" font-size="10.00">WordQuizzle.WQGui.make</text>
</a>
</g>
</g>
<!-- Node1&#45;&gt;Node2 -->
<g id="edge1" class="edge"><title>Node1&#45;&gt;Node2</title>
<path fill="none" stroke="midnightblue" d="M132.239,-10C140.533,-10 149.082,-10 157.538,-10"/>
<polygon fill="midnightblue" stroke="midnightblue" points="157.783,-13.5001 167.783,-10 157.783,-6.5001 157.783,-13.5001"/>
</g>
<!-- Node3 -->
<g id="node3" class="node"><title>Node3</title>
<g id="a_node3"><a xlink:href="class_word_quizzle_1_1_word_quizzle_client.html#a50468f5e79e6bba9efc2e9fd19493345" target="_top" xlink:title="Effettua il logout di user.">
<polygon fill="white" stroke="black" points="339,-0.5 339,-19.5 525,-19.5 525,-0.5 339,-0.5"/>
<text text-anchor="middle" x="432" y="-7.5" font-family="Helvetica,sans-Serif" font-size="10.00">WordQuizzle.WordQuizzleClient.logout</text>
</a>
</g>
</g>
<!-- Node2&#45;&gt;Node3 -->
<g id="edge2" class="edge"><title>Node2&#45;&gt;Node3</title>
<path fill="none" stroke="midnightblue" d="M303.164,-10C311.463,-10 320.093,-10 328.776,-10"/>
<polygon fill="midnightblue" stroke="midnightblue" points="328.977,-13.5001 338.977,-10 328.977,-6.5001 328.977,-13.5001"/>
</g>
<!-- Node4 -->
<g id="node4" class="node"><title>Node4</title>
<g id="a_node4"><a xlink:href="interface_word_quizzle_1_1_word_quizzle_service.html#afad4dcc98ed2305c17a64146548c1100" target="_top" xlink:title="Effettua il logout.">
<polygon fill="white" stroke="black" points="561,-0.5 561,-19.5 754,-19.5 754,-0.5 561,-0.5"/>
<text text-anchor="middle" x="657.5" y="-7.5" font-family="Helvetica,sans-Serif" font-size="10.00">WordQuizzle.WordQuizzleService.logout</text>
</a>
</g>
</g>
<!-- Node3&#45;&gt;Node4 -->
<g id="edge3" class="edge"><title>Node3&#45;&gt;Node4</title>
<path fill="none" stroke="midnightblue" d="M525.196,-10C533.666,-10 542.291,-10 550.867,-10"/>
<polygon fill="midnightblue" stroke="midnightblue" points="550.9,-13.5001 560.9,-10 550.9,-6.5001 550.9,-13.5001"/>
</g>
</g>
</svg>
