<?xml version="1.0" encoding="UTF-8" standalone="no"?>
<!DOCTYPE svg PUBLIC "-//W3C//DTD SVG 1.1//EN"
 "http://www.w3.org/Graphics/SVG/1.1/DTD/svg11.dtd">
<!-- Generated by graphviz version 2.38.0 (20140413.2041)
 -->
<!-- Title: Session.getClient Pages: 1 -->
<svg width="844pt" height="182pt"
 viewBox="0.00 0.00 844.00 182.04" xmlns="http://www.w3.org/2000/svg" xmlns:xlink="http://www.w3.org/1999/xlink">
<g id="graph0" class="graph" transform="scale(1 1) rotate(0) translate(4 178.036)">
<title>Session.getClient</title>
<polygon fill="white" stroke="none" points="-4,4 -4,-178.036 840,-178.036 840,4 -4,4"/>
<!-- Node1 -->
<g id="node1" class="node"><title>Node1</title>
<g id="a_node1"><a xlink:title="Restituisce la socket del client.">
<polygon fill="#bfbfbf" stroke="black" points="743,-57.5364 743,-76.5364 836,-76.5364 836,-57.5364 743,-57.5364"/>
<text text-anchor="middle" x="789.5" y="-64.5364" font-family="Helvetica,sans-Serif" font-size="10.00">Session.getClient</text>
</a>
</g>
</g>
<!-- Node2 -->
<g id="node2" class="node"><title>Node2</title>
<g id="a_node2"><a xlink:href="class_challenge.html#acc51fa450378fcd049b7b6573fefa947" target="_top" xlink:title="Conclude la sfida inviando ad ogni giocatore un messaggio.">
<polygon fill="white" stroke="black" points="270,-116.536 270,-135.536 356,-135.536 356,-116.536 270,-116.536"/>
<text text-anchor="middle" x="313" y="-123.536" font-family="Helvetica,sans-Serif" font-size="10.00">Challenge.close</text>
</a>
</g>
</g>
<!-- Node1&#45;&gt;Node2 -->
<g id="edge1" class="edge"><title>Node1&#45;&gt;Node2</title>
<path fill="none" stroke="midnightblue" d="M761.961,-81.2023C746.402,-88.7934 726.106,-97.496 707,-102.036 582.138,-131.709 429.039,-130.767 356.281,-128.155"/>
<polygon fill="midnightblue" stroke="midnightblue" points="763.621,-84.2853 770.983,-76.6665 760.477,-78.0311 763.621,-84.2853"/>
</g>
<!-- Node4 -->
<g id="node4" class="node"><title>Node4</title>
<g id="a_node4"><a xlink:href="class_challenge.html#adfd88e7904c2d0954ca82e07890c5ca4" target="_top" xlink:title="Gestisce la sfida.">
<polygon fill="white" stroke="black" points="20,-97.5364 20,-116.536 96,-116.536 96,-97.5364 20,-97.5364"/>
<text text-anchor="middle" x="58" y="-104.536" font-family="Helvetica,sans-Serif" font-size="10.00">Challenge.run</text>
</a>
</g>
</g>
<!-- Node1&#45;&gt;Node4 -->
<g id="edge6" class="edge"><title>Node1&#45;&gt;Node4</title>
<path fill="none" stroke="midnightblue" d="M732.442,-73.142C670.591,-79.3421 568.07,-88.0364 479.5,-88.0364 479.5,-88.0364 479.5,-88.0364 312,-88.0364 235.137,-88.0364 145.508,-96.8645 96.2291,-102.485"/>
<polygon fill="midnightblue" stroke="midnightblue" points="733.162,-76.5869 742.757,-72.0932 732.454,-69.6228 733.162,-76.5869"/>
</g>
<!-- Node5 -->
<g id="node5" class="node"><title>Node5</title>
<g id="a_node5"><a xlink:href="class_word_quizzle_server.html#a1414f39eeaaf2dbe0885f4d77a12c466" target="_top" xlink:title="Gestisce le interazioni con i client.">
<polygon fill="white" stroke="black" points="0,-12.5364 0,-31.5364 116,-31.5364 116,-12.5364 0,-12.5364"/>
<text text-anchor="middle" x="58" y="-19.5364" font-family="Helvetica,sans-Serif" font-size="10.00">WordQuizzleServer.run</text>
</a>
</g>
</g>
<!-- Node1&#45;&gt;Node5 -->
<g id="edge5" class="edge"><title>Node1&#45;&gt;Node5</title>
<path fill="none" stroke="midnightblue" d="M763.53,-52.4757C747.816,-43.9826 726.824,-33.8314 707,-28.0364 609.218,0.546735 581.374,-0.036449 479.5,-0.036449 479.5,-0.036449 479.5,-0.036449 312,-0.036449 244.543,-0.036449 167.349,-7.89469 116.151,-14.2181"/>
<polygon fill="midnightblue" stroke="midnightblue" points="762.133,-55.703 772.575,-57.4959 765.53,-49.5826 762.133,-55.703"/>
</g>
<!-- Node6 -->
<g id="node6" class="node"><title>Node6</title>
<g id="a_node6"><a xlink:href="class_challenge.html#a650e2bfde93fe29ad14a4f7fdcb3c4b9" target="_top" xlink:title="Aggiunge l&#39;utente sfidato alla sfida e la avvia.">
<polygon fill="white" stroke="black" points="598,-37.5364 598,-56.5364 707,-56.5364 707,-37.5364 598,-37.5364"/>
<text text-anchor="middle" x="652.5" y="-44.5364" font-family="Helvetica,sans-Serif" font-size="10.00">Challenge.setPlayer2</text>
</a>
</g>
</g>
<!-- Node1&#45;&gt;Node6 -->
<g id="edge7" class="edge"><title>Node1&#45;&gt;Node6</title>
<path fill="none" stroke="midnightblue" d="M732.646,-58.7618C724.193,-57.5095 715.489,-56.22 707.086,-54.9751"/>
<polygon fill="midnightblue" stroke="midnightblue" points="732.39,-62.262 742.795,-60.2654 733.416,-55.3376 732.39,-62.262"/>
</g>
<!-- Node3 -->
<g id="node3" class="node"><title>Node3</title>
<g id="a_node3"><a xlink:href="class_challenge.html#ae1d74e295523725569c9e06b887e9a9e" target="_top" xlink:title="Conclude la sfida.">
<polygon fill="white" stroke="black" points="152.5,-154.536 152.5,-173.536 230.5,-173.536 230.5,-154.536 152.5,-154.536"/>
<text text-anchor="middle" x="191.5" y="-161.536" font-family="Helvetica,sans-Serif" font-size="10.00">Challenge.end</text>
</a>
</g>
</g>
<!-- Node2&#45;&gt;Node3 -->
<g id="edge2" class="edge"><title>Node2&#45;&gt;Node3</title>
<path fill="none" stroke="midnightblue" d="M272.123,-138.717C255.977,-143.851 237.646,-149.681 222.645,-154.451"/>
<polygon fill="midnightblue" stroke="midnightblue" points="273.376,-141.991 281.845,-135.625 271.255,-135.32 273.376,-141.991"/>
</g>
<!-- Node2&#45;&gt;Node4 -->
<g id="edge4" class="edge"><title>Node2&#45;&gt;Node4</title>
<path fill="none" stroke="midnightblue" d="M259.896,-122.124C211.124,-118.461 139.463,-113.079 96.2126,-109.831"/>
<polygon fill="midnightblue" stroke="midnightblue" points="259.704,-125.619 269.938,-122.878 260.228,-118.639 259.704,-125.619"/>
</g>
<!-- Node3&#45;&gt;Node4 -->
<g id="edge3" class="edge"><title>Node3&#45;&gt;Node4</title>
<path fill="none" stroke="midnightblue" d="M159.083,-150.418C135.024,-139.99 102.442,-125.867 81.082,-116.608"/>
<polygon fill="midnightblue" stroke="midnightblue" points="157.923,-153.73 168.49,-154.496 160.707,-147.308 157.923,-153.73"/>
</g>
<!-- Node7 -->
<g id="node7" class="node"><title>Node7</title>
<g id="a_node7"><a xlink:href="class_word_quizzle_server_service.html#a9b03b4a431c18e8d8385217e3fbd9a0a" target="_top" xlink:title="Accetta una richiesta di sfida inviata da nickAmico.">
<polygon fill="white" stroke="black" points="395,-29.0364 395,-59.0364 562,-59.0364 562,-29.0364 395,-29.0364"/>
<text text-anchor="start" x="403" y="-47.0364" font-family="Helvetica,sans-Serif" font-size="10.00">WordQuizzleServerService.accetta</text>
<text text-anchor="middle" x="478.5" y="-36.0364" font-family="Helvetica,sans-Serif" font-size="10.00">Sfida</text>
</a>
</g>
</g>
<!-- Node6&#45;&gt;Node7 -->
<g id="edge8" class="edge"><title>Node6&#45;&gt;Node7</title>
<path fill="none" stroke="midnightblue" d="M587.347,-45.9175C579.152,-45.7746 570.675,-45.6267 562.239,-45.4796"/>
<polygon fill="midnightblue" stroke="midnightblue" points="587.49,-49.4204 597.55,-46.0955 587.613,-42.4215 587.49,-49.4204"/>
</g>
<!-- Node8 -->
<g id="node8" class="node"><title>Node8</title>
<g id="a_node8"><a xlink:href="class_session.html#a56e3ffab046de2082083cfc54b5d8e72" target="_top" xlink:title="Gestisce effettivamente la richiesta del client.">
<polygon fill="white" stroke="black" points="267,-34.5364 267,-53.5364 359,-53.5364 359,-34.5364 267,-34.5364"/>
<text text-anchor="middle" x="313" y="-41.5364" font-family="Helvetica,sans-Serif" font-size="10.00">Session.compute</text>
</a>
</g>
</g>
<!-- Node7&#45;&gt;Node8 -->
<g id="edge9" class="edge"><title>Node7&#45;&gt;Node8</title>
<path fill="none" stroke="midnightblue" d="M384.531,-44.0364C375.837,-44.0364 367.316,-44.0364 359.371,-44.0364"/>
<polygon fill="midnightblue" stroke="midnightblue" points="384.792,-47.5365 394.792,-44.0364 384.792,-40.5365 384.792,-47.5365"/>
</g>
<!-- Node9 -->
<g id="node9" class="node"><title>Node9</title>
<g id="a_node9"><a xlink:href="class_session.html#a75364929cf1f8f9e75992a8a8c3b589f" target="_top" xlink:title="Riceve una stringa contenente uan richiesta da parte del client e la gestisce.">
<polygon fill="white" stroke="black" points="152,-34.5364 152,-53.5364 231,-53.5364 231,-34.5364 152,-34.5364"/>
<text text-anchor="middle" x="191.5" y="-41.5364" font-family="Helvetica,sans-Serif" font-size="10.00">Session.parse</text>
</a>
</g>
</g>
<!-- Node8&#45;&gt;Node9 -->
<g id="edge10" class="edge"><title>Node8&#45;&gt;Node9</title>
<path fill="none" stroke="midnightblue" d="M256.749,-44.0364C248.081,-44.0364 239.286,-44.0364 231.1,-44.0364"/>
<polygon fill="midnightblue" stroke="midnightblue" points="256.822,-47.5365 266.822,-44.0364 256.822,-40.5365 256.822,-47.5365"/>
</g>
<!-- Node9&#45;&gt;Node4 -->
<g id="edge12" class="edge"><title>Node9&#45;&gt;Node4</title>
<path fill="none" stroke="midnightblue" d="M161.188,-58.0795C136.238,-70.0329 101.056,-86.888 79.16,-97.3781"/>
<polygon fill="midnightblue" stroke="midnightblue" points="163.022,-61.0819 170.528,-53.6048 159.997,-54.769 163.022,-61.0819"/>
</g>
<!-- Node9&#45;&gt;Node5 -->
<g id="edge11" class="edge"><title>Node9&#45;&gt;Node5</title>
<path fill="none" stroke="midnightblue" d="M141.756,-35.8816C133.363,-34.4773 124.572,-33.0067 115.985,-31.57"/>
<polygon fill="midnightblue" stroke="midnightblue" points="141.316,-39.3566 151.757,-37.5547 142.472,-32.4525 141.316,-39.3566"/>
</g>
</g>
</svg>
