<?xml version="1.0" encoding="UTF-8" standalone="no"?>
<!DOCTYPE svg PUBLIC "-//W3C//DTD SVG 1.1//EN"
 "http://www.w3.org/Graphics/SVG/1.1/DTD/svg11.dtd">
<!-- Generated by graphviz version 2.38.0 (20140413.2041)
 -->
<!-- Title: Player.isTerminated Pages: 1 -->
<svg width="377pt" height="47pt"
 viewBox="0.00 0.00 377.00 47.00" xmlns="http://www.w3.org/2000/svg" xmlns:xlink="http://www.w3.org/1999/xlink">
<g id="graph0" class="graph" transform="scale(1 1) rotate(0) translate(4 43)">
<title>Player.isTerminated</title>
<polygon fill="white" stroke="none" points="-4,4 -4,-43 373,-43 373,4 -4,4"/>
<!-- Node1 -->
<g id="node1" class="node"><title>Node1</title>
<g id="a_node1"><a xlink:title="Verifica se l&#39;utente ha terminato la sfida.">
<polygon fill="#bfbfbf" stroke="black" points="266,-0.5 266,-19.5 369,-19.5 369,-0.5 266,-0.5"/>
<text text-anchor="middle" x="317.5" y="-7.5" font-family="Helvetica,sans-Serif" font-size="10.00">Player.isTerminated</text>
</a>
</g>
</g>
<!-- Node2 -->
<g id="node2" class="node"><title>Node2</title>
<g id="a_node2"><a xlink:href="class_challenge.html#ae140d268abab98e4b7abbf302596efa8" target="_top" xlink:title="Verifica se la sfida e&#39; terminata.">
<polygon fill="white" stroke="black" points="112,-19.5 112,-38.5 230,-38.5 230,-19.5 112,-19.5"/>
<text text-anchor="middle" x="171" y="-26.5" font-family="Helvetica,sans-Serif" font-size="10.00">Challenge.isTerminated</text>
</a>
</g>
</g>
<!-- Node1&#45;&gt;Node2 -->
<g id="edge1" class="edge"><title>Node1&#45;&gt;Node2</title>
<path fill="none" stroke="midnightblue" d="M256.046,-17.949C247.485,-19.0746 238.698,-20.23 230.182,-21.3498"/>
<polygon fill="midnightblue" stroke="midnightblue" points="256.503,-21.4192 265.961,-16.6453 255.59,-14.4789 256.503,-21.4192"/>
</g>
<!-- Node3 -->
<g id="node3" class="node"><title>Node3</title>
<g id="a_node3"><a xlink:href="class_challenge.html#adfd88e7904c2d0954ca82e07890c5ca4" target="_top" xlink:title="Gestisce la sfida.">
<polygon fill="white" stroke="black" points="0,-0.5 0,-19.5 76,-19.5 76,-0.5 0,-0.5"/>
<text text-anchor="middle" x="38" y="-7.5" font-family="Helvetica,sans-Serif" font-size="10.00">Challenge.run</text>
</a>
</g>
</g>
<!-- Node1&#45;&gt;Node3 -->
<g id="edge3" class="edge"><title>Node1&#45;&gt;Node3</title>
<path fill="none" stroke="midnightblue" d="M255.658,-10C200.937,-10 122.297,-10 76.3449,-10"/>
<polygon fill="midnightblue" stroke="midnightblue" points="255.925,-13.5001 265.925,-10 255.925,-6.5001 255.925,-13.5001"/>
</g>
<!-- Node2&#45;&gt;Node3 -->
<g id="edge2" class="edge"><title>Node2&#45;&gt;Node3</title>
<path fill="none" stroke="midnightblue" d="M101.872,-19.1189C93.092,-17.8454 84.3748,-16.5811 76.3531,-15.4176"/>
<polygon fill="midnightblue" stroke="midnightblue" points="101.38,-22.584 111.779,-20.5557 102.385,-15.6565 101.38,-22.584"/>
</g>
</g>
</svg>
