<?xml version="1.0" encoding="UTF-8" standalone="no"?>
<!DOCTYPE svg PUBLIC "-//W3C//DTD SVG 1.1//EN"
 "http://www.w3.org/Graphics/SVG/1.1/DTD/svg11.dtd">
<!-- Generated by graphviz version 2.38.0 (20140413.2041)
 -->
<!-- Title: Challenge.getStartTime Pages: 1 -->
<svg width="724pt" height="78pt"
 viewBox="0.00 0.00 724.00 77.50" xmlns="http://www.w3.org/2000/svg" xmlns:xlink="http://www.w3.org/1999/xlink">
<g id="graph0" class="graph" transform="scale(1 1) rotate(0) translate(4 73.5)">
<title>Challenge.getStartTime</title>
<polygon fill="white" stroke="none" points="-4,4 -4,-73.5 720,-73.5 720,4 -4,4"/>
<!-- Node1 -->
<g id="node1" class="node"><title>Node1</title>
<g id="a_node1"><a xlink:title="Restituisce il tempo di creazione della sfida.">
<polygon fill="#bfbfbf" stroke="black" points="598,-22.5 598,-41.5 716,-41.5 716,-22.5 598,-22.5"/>
<text text-anchor="middle" x="657" y="-29.5" font-family="Helvetica,sans-Serif" font-size="10.00">Challenge.getStartTime</text>
</a>
</g>
</g>
<!-- Node2 -->
<g id="node2" class="node"><title>Node2</title>
<g id="a_node2"><a xlink:href="class_word_quizzle_server_service.html#a9b03b4a431c18e8d8385217e3fbd9a0a" target="_top" xlink:title="Accetta una richiesta di sfida inviata da nickAmico.">
<polygon fill="white" stroke="black" points="395,-39 395,-69 562,-69 562,-39 395,-39"/>
<text text-anchor="start" x="403" y="-57" font-family="Helvetica,sans-Serif" font-size="10.00">WordQuizzleServerService.accetta</text>
<text text-anchor="middle" x="478.5" y="-46" font-family="Helvetica,sans-Serif" font-size="10.00">Sfida</text>
</a>
</g>
</g>
<!-- Node1&#45;&gt;Node2 -->
<g id="edge1" class="edge"><title>Node1&#45;&gt;Node2</title>
<path fill="none" stroke="midnightblue" d="M587.712,-40.5118C579.39,-41.5492 570.817,-42.6177 562.313,-43.6778"/>
<polygon fill="midnightblue" stroke="midnightblue" points="588.228,-43.9747 597.718,-39.2646 587.362,-37.0284 588.228,-43.9747"/>
</g>
<!-- Node7 -->
<g id="node7" class="node"><title>Node7</title>
<g id="a_node7"><a xlink:href="class_word_quizzle_server_service.html#afc47f0b66a46f079c4bed5e579e9a173" target="_top" xlink:title="Invia una richiesta di sfida ad un amico di nickUtente.">
<polygon fill="white" stroke="black" points="401,-0.5 401,-19.5 556,-19.5 556,-0.5 401,-0.5"/>
<text text-anchor="middle" x="478.5" y="-7.5" font-family="Helvetica,sans-Serif" font-size="10.00">WordQuizzleServerService.sfida</text>
</a>
</g>
</g>
<!-- Node1&#45;&gt;Node7 -->
<g id="edge6" class="edge"><title>Node1&#45;&gt;Node7</title>
<path fill="none" stroke="midnightblue" d="M587.53,-23.4655C577.192,-22.1769 566.472,-20.8407 555.978,-19.5327"/>
<polygon fill="midnightblue" stroke="midnightblue" points="587.362,-26.9716 597.718,-24.7354 588.228,-20.0253 587.362,-26.9716"/>
</g>
<!-- Node3 -->
<g id="node3" class="node"><title>Node3</title>
<g id="a_node3"><a xlink:href="class_session.html#a56e3ffab046de2082083cfc54b5d8e72" target="_top" xlink:title="Gestisce effettivamente la richiesta del client.">
<polygon fill="white" stroke="black" points="267,-22.5 267,-41.5 359,-41.5 359,-22.5 267,-22.5"/>
<text text-anchor="middle" x="313" y="-29.5" font-family="Helvetica,sans-Serif" font-size="10.00">Session.compute</text>
</a>
</g>
</g>
<!-- Node2&#45;&gt;Node3 -->
<g id="edge2" class="edge"><title>Node2&#45;&gt;Node3</title>
<path fill="none" stroke="midnightblue" d="M384.815,-41.5286C376.023,-40.3456 367.402,-39.1857 359.371,-38.1049"/>
<polygon fill="midnightblue" stroke="midnightblue" points="384.415,-45.0062 394.792,-42.8711 385.348,-38.0687 384.415,-45.0062"/>
</g>
<!-- Node4 -->
<g id="node4" class="node"><title>Node4</title>
<g id="a_node4"><a xlink:href="class_session.html#a75364929cf1f8f9e75992a8a8c3b589f" target="_top" xlink:title="Riceve una stringa contenente uan richiesta da parte del client e la gestisce.">
<polygon fill="white" stroke="black" points="152,-22.5 152,-41.5 231,-41.5 231,-22.5 152,-22.5"/>
<text text-anchor="middle" x="191.5" y="-29.5" font-family="Helvetica,sans-Serif" font-size="10.00">Session.parse</text>
</a>
</g>
</g>
<!-- Node3&#45;&gt;Node4 -->
<g id="edge3" class="edge"><title>Node3&#45;&gt;Node4</title>
<path fill="none" stroke="midnightblue" d="M256.749,-32C248.081,-32 239.286,-32 231.1,-32"/>
<polygon fill="midnightblue" stroke="midnightblue" points="256.822,-35.5001 266.822,-32 256.822,-28.5001 256.822,-35.5001"/>
</g>
<!-- Node5 -->
<g id="node5" class="node"><title>Node5</title>
<g id="a_node5"><a xlink:href="class_word_quizzle_server.html#a1414f39eeaaf2dbe0885f4d77a12c466" target="_top" xlink:title="Gestisce le interazioni con i client.">
<polygon fill="white" stroke="black" points="0,-41.5 0,-60.5 116,-60.5 116,-41.5 0,-41.5"/>
<text text-anchor="middle" x="58" y="-48.5" font-family="Helvetica,sans-Serif" font-size="10.00">WordQuizzleServer.run</text>
</a>
</g>
</g>
<!-- Node4&#45;&gt;Node5 -->
<g id="edge4" class="edge"><title>Node4&#45;&gt;Node5</title>
<path fill="none" stroke="midnightblue" d="M141.621,-39.0623C133.428,-40.2461 124.86,-41.4841 116.475,-42.6957"/>
<polygon fill="midnightblue" stroke="midnightblue" points="142.36,-42.492 151.757,-37.5979 141.359,-35.5639 142.36,-42.492"/>
</g>
<!-- Node6 -->
<g id="node6" class="node"><title>Node6</title>
<g id="a_node6"><a xlink:href="class_challenge.html#adfd88e7904c2d0954ca82e07890c5ca4" target="_top" xlink:title="Gestisce la sfida.">
<polygon fill="white" stroke="black" points="20,-3.5 20,-22.5 96,-22.5 96,-3.5 20,-3.5"/>
<text text-anchor="middle" x="58" y="-10.5" font-family="Helvetica,sans-Serif" font-size="10.00">Challenge.run</text>
</a>
</g>
</g>
<!-- Node4&#45;&gt;Node6 -->
<g id="edge5" class="edge"><title>Node4&#45;&gt;Node6</title>
<path fill="none" stroke="midnightblue" d="M141.584,-24.9323C126.537,-22.7582 110.23,-20.402 96.1115,-18.3621"/>
<polygon fill="midnightblue" stroke="midnightblue" points="141.359,-28.4361 151.757,-26.4021 142.36,-21.508 141.359,-28.4361"/>
</g>
<!-- Node7&#45;&gt;Node3 -->
<g id="edge7" class="edge"><title>Node7&#45;&gt;Node3</title>
<path fill="none" stroke="midnightblue" d="M396.526,-20.8956C383.757,-22.6137 370.963,-24.3353 359.389,-25.8925"/>
<polygon fill="midnightblue" stroke="midnightblue" points="397.294,-24.3239 406.737,-19.5216 396.36,-17.3865 397.294,-24.3239"/>
</g>
</g>
</svg>
