<?xml version="1.0" encoding="UTF-8" standalone="no"?>
<!DOCTYPE svg PUBLIC "-//W3C//DTD SVG 1.1//EN"
 "http://www.w3.org/Graphics/SVG/1.1/DTD/svg11.dtd">
<!-- Generated by graphviz version 2.38.0 (20140413.2041)
 -->
<!-- Title: WQGui.makeGame Pages: 1 -->
<svg width="462pt" height="264pt"
 viewBox="0.00 0.00 462.00 263.50" xmlns="http://www.w3.org/2000/svg" xmlns:xlink="http://www.w3.org/1999/xlink">
<g id="graph0" class="graph" transform="scale(1 1) rotate(0) translate(4 259.5)">
<title>WQGui.makeGame</title>
<polygon fill="white" stroke="none" points="-4,4 -4,-259.5 458,-259.5 458,4 -4,4"/>
<!-- Node1 -->
<g id="node1" class="node"><title>Node1</title>
<g id="a_node1"><a xlink:title="Crea il pannello principale.">
<polygon fill="#bfbfbf" stroke="black" points="0,-115.5 0,-134.5 102,-134.5 102,-115.5 0,-115.5"/>
<text text-anchor="middle" x="51" y="-122.5" font-family="Helvetica,sans-Serif" font-size="10.00">WQGui.makeGame</text>
</a>
</g>
</g>
<!-- Node2 -->
<g id="node2" class="node"><title>Node2</title>
<g id="a_node2"><a xlink:href="class_word_quizzle_client.html#a47e5d9e8bd41242505edcb76350df881" target="_top" xlink:title="Aggiunge un utente alla lista di amici di user.">
<polygon fill="white" stroke="black" points="138,-225 138,-255 275,-255 275,-225 138,-225"/>
<text text-anchor="start" x="146" y="-243" font-family="Helvetica,sans-Serif" font-size="10.00">WordQuizzleClient.aggiungi</text>
<text text-anchor="middle" x="206.5" y="-232" font-family="Helvetica,sans-Serif" font-size="10.00">_amico</text>
</a>
</g>
</g>
<!-- Node1&#45;&gt;Node2 -->
<g id="edge1" class="edge"><title>Node1&#45;&gt;Node2</title>
<path fill="none" stroke="midnightblue" d="M58.7285,-134.507C71.9637,-152.571 103.143,-192.092 138,-215 140.962,-216.946 144.095,-218.768 147.327,-220.47"/>
<polygon fill="midnightblue" stroke="midnightblue" points="146.102,-223.764 156.631,-224.947 149.138,-217.457 146.102,-223.764"/>
</g>
<!-- Node4 -->
<g id="node4" class="node"><title>Node4</title>
<g id="a_node4"><a xlink:href="class_word_quizzle_client.html#a5503bd747932abeb7a733b780d31dc19" target="_top" xlink:title="Richiede la lista degli amici di user.">
<polygon fill="white" stroke="black" points="147,-176 147,-206 266,-206 266,-176 147,-176"/>
<text text-anchor="start" x="155" y="-194" font-family="Helvetica,sans-Serif" font-size="10.00">WordQuizzleClient.lista</text>
<text text-anchor="middle" x="206.5" y="-183" font-family="Helvetica,sans-Serif" font-size="10.00">_amici</text>
</a>
</g>
</g>
<!-- Node1&#45;&gt;Node4 -->
<g id="edge3" class="edge"><title>Node1&#45;&gt;Node4</title>
<path fill="none" stroke="midnightblue" d="M70.9039,-134.618C88.1809,-143.262 114.536,-156.086 138,-166 143.036,-168.128 148.322,-170.259 153.626,-172.329"/>
<polygon fill="midnightblue" stroke="midnightblue" points="152.551,-175.666 163.142,-175.977 155.057,-169.13 152.551,-175.666"/>
</g>
<!-- Node6 -->
<g id="node6" class="node"><title>Node6</title>
<g id="a_node6"><a xlink:href="class_word_quizzle_client.html#ab3b513d94019a6b4350aaa6c92c59136" target="_top" xlink:title="Effettua il logout di user.">
<polygon fill="white" stroke="black" points="143,-137.5 143,-156.5 270,-156.5 270,-137.5 143,-137.5"/>
<text text-anchor="middle" x="206.5" y="-144.5" font-family="Helvetica,sans-Serif" font-size="10.00">WordQuizzleClient.logout</text>
</a>
</g>
</g>
<!-- Node1&#45;&gt;Node6 -->
<g id="edge5" class="edge"><title>Node1&#45;&gt;Node6</title>
<path fill="none" stroke="midnightblue" d="M102.262,-132.204C111.967,-133.595 122.316,-135.078 132.575,-136.548"/>
<polygon fill="midnightblue" stroke="midnightblue" points="132.38,-140.056 142.775,-138.01 133.373,-133.127 132.38,-140.056"/>
</g>
<!-- Node8 -->
<g id="node8" class="node"><title>Node8</title>
<g id="a_node8"><a xlink:href="class_word_quizzle_client.html#a01ec8b2d43325305d263b803834652cb" target="_top" xlink:title="Richiede la classifica dell&#39;user e dei suoi amici.">
<polygon fill="white" stroke="black" points="141,-88 141,-118 272,-118 272,-88 141,-88"/>
<text text-anchor="start" x="149" y="-106" font-family="Helvetica,sans-Serif" font-size="10.00">WordQuizzleClient.mostra</text>
<text text-anchor="middle" x="206.5" y="-95" font-family="Helvetica,sans-Serif" font-size="10.00">_classifica</text>
</a>
</g>
</g>
<!-- Node1&#45;&gt;Node8 -->
<g id="edge7" class="edge"><title>Node1&#45;&gt;Node8</title>
<path fill="none" stroke="midnightblue" d="M102.262,-117.796C111.412,-116.485 121.134,-115.092 130.813,-113.704"/>
<polygon fill="midnightblue" stroke="midnightblue" points="131.455,-117.148 140.857,-112.265 130.462,-110.219 131.455,-117.148"/>
</g>
<!-- Node10 -->
<g id="node10" class="node"><title>Node10</title>
<g id="a_node10"><a xlink:href="class_word_quizzle_client.html#ad88c5209ea7c672da454a7523834fce7" target="_top" xlink:title="Richiede il punteggio di user.">
<polygon fill="white" stroke="black" points="141,-39 141,-69 272,-69 272,-39 141,-39"/>
<text text-anchor="start" x="149" y="-57" font-family="Helvetica,sans-Serif" font-size="10.00">WordQuizzleClient.mostra</text>
<text text-anchor="middle" x="206.5" y="-46" font-family="Helvetica,sans-Serif" font-size="10.00">_punteggio</text>
</a>
</g>
</g>
<!-- Node1&#45;&gt;Node10 -->
<g id="edge9" class="edge"><title>Node1&#45;&gt;Node10</title>
<path fill="none" stroke="midnightblue" d="M67.7807,-115.385C84.7427,-105.287 112.686,-89.3314 138,-78 142.069,-76.1786 146.322,-74.3967 150.627,-72.679"/>
<polygon fill="midnightblue" stroke="midnightblue" points="152.015,-75.8951 160.086,-69.0308 149.496,-69.364 152.015,-75.8951"/>
</g>
<!-- Node12 -->
<g id="node12" class="node"><title>Node12</title>
<g id="a_node12"><a xlink:href="class_word_quizzle_client.html#a2532bb6f1399cae0692189e7b1b4fb60" target="_top" xlink:title="Invia una richiesta di sfida ad un amico.">
<polygon fill="white" stroke="black" points="146,-0.5 146,-19.5 267,-19.5 267,-0.5 146,-0.5"/>
<text text-anchor="middle" x="206.5" y="-7.5" font-family="Helvetica,sans-Serif" font-size="10.00">WordQuizzleClient.sfida</text>
</a>
</g>
</g>
<!-- Node1&#45;&gt;Node12 -->
<g id="edge11" class="edge"><title>Node1&#45;&gt;Node12</title>
<path fill="none" stroke="midnightblue" d="M57.8242,-115.474C70.1413,-96.1472 100.779,-52.1974 138,-29 141.39,-26.8871 145.02,-25.0037 148.773,-23.3257"/>
<polygon fill="midnightblue" stroke="midnightblue" points="150.274,-26.4957 158.287,-19.5639 147.701,-19.9861 150.274,-26.4957"/>
</g>
<!-- Node3 -->
<g id="node3" class="node"><title>Node3</title>
<g id="a_node3"><a xlink:href="interface_word_quizzle_service.html#a9b0441e9bbdbda3213f217f4fe5a97f3" target="_top" xlink:title="Aggiunge un utente alla lista di amici di nickUtente.">
<polygon fill="white" stroke="black" points="311,-225 311,-255 454,-255 454,-225 311,-225"/>
<text text-anchor="start" x="319" y="-243" font-family="Helvetica,sans-Serif" font-size="10.00">WordQuizzleService.aggiungi</text>
<text text-anchor="middle" x="382.5" y="-232" font-family="Helvetica,sans-Serif" font-size="10.00">_amico</text>
</a>
</g>
</g>
<!-- Node2&#45;&gt;Node3 -->
<g id="edge2" class="edge"><title>Node2&#45;&gt;Node3</title>
<path fill="none" stroke="midnightblue" d="M275.271,-240C283.548,-240 292.068,-240 300.513,-240"/>
<polygon fill="midnightblue" stroke="midnightblue" points="300.755,-243.5 310.755,-240 300.755,-236.5 300.755,-243.5"/>
</g>
<!-- Node5 -->
<g id="node5" class="node"><title>Node5</title>
<g id="a_node5"><a xlink:href="interface_word_quizzle_service.html#a0a06ecea2f7c95d4871bbb64cf67430e" target="_top" xlink:title="Richiede la lista degli amici di nickUtente.">
<polygon fill="white" stroke="black" points="320,-176 320,-206 445,-206 445,-176 320,-176"/>
<text text-anchor="start" x="328" y="-194" font-family="Helvetica,sans-Serif" font-size="10.00">WordQuizzleService.lista</text>
<text text-anchor="middle" x="382.5" y="-183" font-family="Helvetica,sans-Serif" font-size="10.00">_amici</text>
</a>
</g>
</g>
<!-- Node4&#45;&gt;Node5 -->
<g id="edge4" class="edge"><title>Node4&#45;&gt;Node5</title>
<path fill="none" stroke="midnightblue" d="M266.408,-191C280.292,-191 295.245,-191 309.629,-191"/>
<polygon fill="midnightblue" stroke="midnightblue" points="309.978,-194.5 319.978,-191 309.978,-187.5 309.978,-194.5"/>
</g>
<!-- Node7 -->
<g id="node7" class="node"><title>Node7</title>
<g id="a_node7"><a xlink:href="interface_word_quizzle_service.html#a4f3b6b3f8ee7f02e7560de7571de1e07" target="_top" xlink:title="Effettua il logout.">
<polygon fill="white" stroke="black" points="315.5,-137.5 315.5,-156.5 449.5,-156.5 449.5,-137.5 315.5,-137.5"/>
<text text-anchor="middle" x="382.5" y="-144.5" font-family="Helvetica,sans-Serif" font-size="10.00">WordQuizzleService.logout</text>
</a>
</g>
</g>
<!-- Node6&#45;&gt;Node7 -->
<g id="edge6" class="edge"><title>Node6&#45;&gt;Node7</title>
<path fill="none" stroke="midnightblue" d="M270.318,-147C281.611,-147 293.495,-147 305.122,-147"/>
<polygon fill="midnightblue" stroke="midnightblue" points="305.253,-150.5 315.253,-147 305.253,-143.5 305.253,-150.5"/>
</g>
<!-- Node9 -->
<g id="node9" class="node"><title>Node9</title>
<g id="a_node9"><a xlink:href="interface_word_quizzle_service.html#ae8ae423bdd8f6bc09ca0bb4fd6790967" target="_top" xlink:title="Richiede la classifica dell&#39;utente e dei suoi amici.">
<polygon fill="white" stroke="black" points="314,-88 314,-118 451,-118 451,-88 314,-88"/>
<text text-anchor="start" x="322" y="-106" font-family="Helvetica,sans-Serif" font-size="10.00">WordQuizzleService.mostra</text>
<text text-anchor="middle" x="382.5" y="-95" font-family="Helvetica,sans-Serif" font-size="10.00">_classifica</text>
</a>
</g>
</g>
<!-- Node8&#45;&gt;Node9 -->
<g id="edge8" class="edge"><title>Node8&#45;&gt;Node9</title>
<path fill="none" stroke="midnightblue" d="M272.291,-103C282.542,-103 293.234,-103 303.744,-103"/>
<polygon fill="midnightblue" stroke="midnightblue" points="303.744,-106.5 313.744,-103 303.744,-99.5001 303.744,-106.5"/>
</g>
<!-- Node11 -->
<g id="node11" class="node"><title>Node11</title>
<g id="a_node11"><a xlink:href="interface_word_quizzle_service.html#a7209a6349c060cad27604f6782e1dcaa" target="_top" xlink:title="Richiede il punteggio di nickUtente.">
<polygon fill="white" stroke="black" points="314,-39 314,-69 451,-69 451,-39 314,-39"/>
<text text-anchor="start" x="322" y="-57" font-family="Helvetica,sans-Serif" font-size="10.00">WordQuizzleService.mostra</text>
<text text-anchor="middle" x="382.5" y="-46" font-family="Helvetica,sans-Serif" font-size="10.00">_punteggio</text>
</a>
</g>
</g>
<!-- Node10&#45;&gt;Node11 -->
<g id="edge10" class="edge"><title>Node10&#45;&gt;Node11</title>
<path fill="none" stroke="midnightblue" d="M272.291,-54C282.542,-54 293.234,-54 303.744,-54"/>
<polygon fill="midnightblue" stroke="midnightblue" points="303.744,-57.5001 313.744,-54 303.744,-50.5001 303.744,-57.5001"/>
</g>
<!-- Node13 -->
<g id="node13" class="node"><title>Node13</title>
<g id="a_node13"><a xlink:href="interface_word_quizzle_service.html#ac0ac9c1650c4242fdbb66f5432417887" target="_top" xlink:title="Invia una richiesta di sfida ad un amico di nickUtente.">
<polygon fill="white" stroke="black" points="318.5,-0.5 318.5,-19.5 446.5,-19.5 446.5,-0.5 318.5,-0.5"/>
<text text-anchor="middle" x="382.5" y="-7.5" font-family="Helvetica,sans-Serif" font-size="10.00">WordQuizzleService.sfida</text>
</a>
</g>
</g>
<!-- Node12&#45;&gt;Node13 -->
<g id="edge12" class="edge"><title>Node12&#45;&gt;Node13</title>
<path fill="none" stroke="midnightblue" d="M267.381,-10C280.463,-10 294.454,-10 307.998,-10"/>
<polygon fill="midnightblue" stroke="midnightblue" points="308.246,-13.5001 318.246,-10 308.246,-6.5001 308.246,-13.5001"/>
</g>
</g>
</svg>
