<?xml version="1.0" encoding="UTF-8" standalone="no"?>
<!DOCTYPE svg PUBLIC "-//W3C//DTD SVG 1.1//EN"
 "http://www.w3.org/Graphics/SVG/1.1/DTD/svg11.dtd">
<!-- Generated by graphviz version 2.38.0 (20140413.2041)
 -->
<!-- Title: WQCli.game Pages: 1 -->
<svg width="497pt" height="104pt"
 viewBox="0.00 0.00 497.00 104.00" xmlns="http://www.w3.org/2000/svg" xmlns:xlink="http://www.w3.org/1999/xlink">
<g id="graph0" class="graph" transform="scale(1 1) rotate(0) translate(4 100)">
<title>WQCli.game</title>
<polygon fill="white" stroke="none" points="-4,4 -4,-100 493,-100 493,4 -4,4"/>
<!-- Node1 -->
<g id="node1" class="node"><title>Node1</title>
<g id="a_node1"><a xlink:title="Gestisce una sfida.">
<polygon fill="#bfbfbf" stroke="black" points="0,-38.5 0,-57.5 72,-57.5 72,-38.5 0,-38.5"/>
<text text-anchor="middle" x="36" y="-45.5" font-family="Helvetica,sans-Serif" font-size="10.00">WQCli.game</text>
</a>
</g>
</g>
<!-- Node2 -->
<g id="node2" class="node"><title>Node2</title>
<g id="a_node2"><a xlink:href="class_word_quizzle_server_service.html#a445af71c2bed6349e5239893b2e0ca8c" target="_top" xlink:title="Restituisce il numero di parole per sfida.">
<polygon fill="white" stroke="black" points="115,-76.5 115,-95.5 270,-95.5 270,-76.5 115,-76.5"/>
<text text-anchor="middle" x="192.5" y="-83.5" font-family="Helvetica,sans-Serif" font-size="10.00">WordQuizzleServerService.getK</text>
</a>
</g>
</g>
<!-- Node1&#45;&gt;Node2 -->
<g id="edge1" class="edge"><title>Node1&#45;&gt;Node2</title>
<path fill="none" stroke="midnightblue" d="M71.6004,-57.5397C83.1519,-60.6496 96.109,-64.0572 108,-67 117.741,-69.4108 128.151,-71.8712 138.199,-74.1875"/>
<polygon fill="midnightblue" stroke="midnightblue" points="137.56,-77.6316 148.088,-76.4485 139.12,-70.8077 137.56,-77.6316"/>
</g>
<!-- Node3 -->
<g id="node3" class="node"><title>Node3</title>
<g id="a_node3"><a xlink:href="class_word_quizzle_server_service.html#a5779a8f11e9348825e19ef83b74b43bc" target="_top" xlink:title="Restituisce la durata di una sfida, in millisecondi.">
<polygon fill="white" stroke="black" points="113.5,-38.5 113.5,-57.5 271.5,-57.5 271.5,-38.5 113.5,-38.5"/>
<text text-anchor="middle" x="192.5" y="-45.5" font-family="Helvetica,sans-Serif" font-size="10.00">WordQuizzleServerService.getT2</text>
</a>
</g>
</g>
<!-- Node1&#45;&gt;Node3 -->
<g id="edge2" class="edge"><title>Node1&#45;&gt;Node3</title>
<path fill="none" stroke="midnightblue" d="M72.0584,-48C81.5333,-48 92.2297,-48 103.23,-48"/>
<polygon fill="midnightblue" stroke="midnightblue" points="103.393,-51.5001 113.392,-48 103.392,-44.5001 103.393,-51.5001"/>
</g>
<!-- Node4 -->
<g id="node4" class="node"><title>Node4</title>
<g id="a_node4"><a xlink:href="class_word_quizzle_client.html#a8af265290384d3ce6dcb44c6e08f3b4a" target="_top" xlink:title="Invia la traduzione della parola precedentemente inviata dal server durante una sfida.">
<polygon fill="white" stroke="black" points="108,-0.5 108,-19.5 277,-19.5 277,-0.5 108,-0.5"/>
<text text-anchor="middle" x="192.5" y="-7.5" font-family="Helvetica,sans-Serif" font-size="10.00">WordQuizzleClient.sendTranslation</text>
</a>
</g>
</g>
<!-- Node1&#45;&gt;Node4 -->
<g id="edge3" class="edge"><title>Node1&#45;&gt;Node4</title>
<path fill="none" stroke="midnightblue" d="M71.6004,-38.4603C83.1519,-35.3504 96.109,-31.9428 108,-29 117.741,-26.5892 128.151,-24.1288 138.199,-21.8125"/>
<polygon fill="midnightblue" stroke="midnightblue" points="139.12,-25.1923 148.088,-19.5515 137.56,-18.3684 139.12,-25.1923"/>
</g>
<!-- Node5 -->
<g id="node5" class="node"><title>Node5</title>
<g id="a_node5"><a xlink:href="interface_word_quizzle_service.html#a02c046b12dcaedd35e92fd7878595f57" target="_top" xlink:title="Invia la traduzione della parola precedentemente inviata dal server durante una sfida.">
<polygon fill="white" stroke="black" points="313,-0.5 313,-19.5 489,-19.5 489,-0.5 313,-0.5"/>
<text text-anchor="middle" x="401" y="-7.5" font-family="Helvetica,sans-Serif" font-size="10.00">WordQuizzleService.sendTranslation</text>
</a>
</g>
</g>
<!-- Node4&#45;&gt;Node5 -->
<g id="edge4" class="edge"><title>Node4&#45;&gt;Node5</title>
<path fill="none" stroke="midnightblue" d="M277.194,-10C285.631,-10 294.249,-10 302.812,-10"/>
<polygon fill="midnightblue" stroke="midnightblue" points="302.824,-13.5001 312.823,-10 302.823,-6.5001 302.824,-13.5001"/>
</g>
</g>
</svg>
