<?xml version="1.0" encoding="UTF-8" standalone="no"?>
<!DOCTYPE svg PUBLIC "-//W3C//DTD SVG 1.1//EN"
 "http://www.w3.org/Graphics/SVG/1.1/DTD/svg11.dtd">
<!-- Generated by graphviz version 2.38.0 (20140413.2041)
 -->
<!-- Title: WordQuizzleServerService.getK Pages: 1 -->
<svg width="1103pt" height="359pt"
 viewBox="0.00 0.00 1103.00 358.89" xmlns="http://www.w3.org/2000/svg" xmlns:xlink="http://www.w3.org/1999/xlink">
<g id="graph0" class="graph" transform="scale(1 1) rotate(0) translate(4 354.89)">
<title>WordQuizzleServerService.getK</title>
<polygon fill="white" stroke="none" points="-4,4 -4,-354.89 1099,-354.89 1099,4 -4,4"/>
<!-- Node1 -->
<g id="node1" class="node"><title>Node1</title>
<g id="a_node1"><a xlink:title="Restituisce il numero di parole per sfida.">
<polygon fill="#bfbfbf" stroke="black" points="940,-198.39 940,-217.39 1095,-217.39 1095,-198.39 940,-198.39"/>
<text text-anchor="middle" x="1017.5" y="-205.39" font-family="Helvetica,sans-Serif" font-size="10.00">WordQuizzleServerService.getK</text>
</a>
</g>
</g>
<!-- Node2 -->
<g id="node2" class="node"><title>Node2</title>
<g id="a_node2"><a xlink:href="class_challenge.html#ac2c09ec141092a57447ee6c5afb5517f" target="_top" xlink:title="Crea una nuova sfida.">
<polygon fill="white" stroke="black" points="798,-331.39 798,-350.39 903,-350.39 903,-331.39 798,-331.39"/>
<text text-anchor="middle" x="850.5" y="-338.39" font-family="Helvetica,sans-Serif" font-size="10.00">Challenge.Challenge</text>
</a>
</g>
</g>
<!-- Node1&#45;&gt;Node2 -->
<g id="edge1" class="edge"><title>Node1&#45;&gt;Node2</title>
<path fill="none" stroke="midnightblue" d="M1003.18,-225.704C983.841,-250.446 945.709,-295.178 904,-321.89 898.123,-325.654 891.399,-328.804 884.769,-331.387"/>
<polygon fill="midnightblue" stroke="midnightblue" points="1006.12,-227.627 1009.43,-217.563 1000.56,-223.366 1006.12,-227.627"/>
</g>
<!-- Node3 -->
<g id="node3" class="node"><title>Node3</title>
<g id="a_node3"><a xlink:href="class_bot.html#acc83eda4c2ebd3c509c0e618ff69dba6" target="_top" xlink:title="Gestisce una sfida.">
<polygon fill="white" stroke="black" points="821,-293.39 821,-312.39 880,-312.39 880,-293.39 821,-293.39"/>
<text text-anchor="middle" x="850.5" y="-300.39" font-family="Helvetica,sans-Serif" font-size="10.00">Bot.game</text>
</a>
</g>
</g>
<!-- Node1&#45;&gt;Node3 -->
<g id="edge2" class="edge"><title>Node1&#45;&gt;Node3</title>
<path fill="none" stroke="midnightblue" d="M996.142,-223.918C974.309,-240.548 938.157,-266.51 904,-283.89 896.484,-287.714 888.013,-291.134 880.104,-293.982"/>
<polygon fill="midnightblue" stroke="midnightblue" points="998.525,-226.499 1004.31,-217.622 994.251,-220.956 998.525,-226.499"/>
</g>
<!-- Node6 -->
<g id="node6" class="node"><title>Node6</title>
<g id="a_node6"><a xlink:href="class_w_q_gui.html#aaa68ff750c4447d05588889a52259e37" target="_top" xlink:title="Crea la finestra di gioco durante una sfida.">
<polygon fill="white" stroke="black" points="812.5,-255.39 812.5,-274.39 888.5,-274.39 888.5,-255.39 812.5,-255.39"/>
<text text-anchor="middle" x="850.5" y="-262.39" font-family="Helvetica,sans-Serif" font-size="10.00">WQGui.game</text>
</a>
</g>
</g>
<!-- Node1&#45;&gt;Node6 -->
<g id="edge5" class="edge"><title>Node1&#45;&gt;Node6</title>
<path fill="none" stroke="midnightblue" d="M979.076,-220.819C948.716,-231.306 906.604,-245.854 879.207,-255.318"/>
<polygon fill="midnightblue" stroke="midnightblue" points="980.574,-224.004 988.883,-217.431 978.288,-217.388 980.574,-224.004"/>
</g>
<!-- Node8 -->
<g id="node8" class="node"><title>Node8</title>
<g id="a_node8"><a xlink:href="class_w_q_cli.html#a53002705ea7cea7d4ad300f9d9d5a120" target="_top" xlink:title="Gestisce una sfida.">
<polygon fill="white" stroke="black" points="814.5,-217.39 814.5,-236.39 886.5,-236.39 886.5,-217.39 814.5,-217.39"/>
<text text-anchor="middle" x="850.5" y="-224.39" font-family="Helvetica,sans-Serif" font-size="10.00">WQCli.game</text>
</a>
</g>
</g>
<!-- Node1&#45;&gt;Node8 -->
<g id="edge7" class="edge"><title>Node1&#45;&gt;Node8</title>
<path fill="none" stroke="midnightblue" d="M929.8,-217.874C914.596,-219.624 899.583,-221.353 886.833,-222.821"/>
<polygon fill="midnightblue" stroke="midnightblue" points="930.263,-221.344 939.797,-216.723 929.462,-214.39 930.263,-221.344"/>
</g>
<!-- Node12 -->
<g id="node12" class="node"><title>Node12</title>
<g id="a_node12"><a xlink:href="class_player.html#a675262b26b676f6b3e9e4bde04156050" target="_top" xlink:title="Restituisce l&#39;indice della prossima domanda da sottoporre al giocatore.">
<polygon fill="white" stroke="black" points="810,-179.39 810,-198.39 891,-198.39 891,-179.39 810,-179.39"/>
<text text-anchor="middle" x="850.5" y="-186.39" font-family="Helvetica,sans-Serif" font-size="10.00">Player.getNext</text>
</a>
</g>
</g>
<!-- Node1&#45;&gt;Node12 -->
<g id="edge12" class="edge"><title>Node1&#45;&gt;Node12</title>
<path fill="none" stroke="midnightblue" d="M929.523,-197.875C916.099,-196.329 902.833,-194.801 891.153,-193.456"/>
<polygon fill="midnightblue" stroke="midnightblue" points="929.462,-201.391 939.797,-199.058 930.263,-194.436 929.462,-201.391"/>
</g>
<!-- Node19 -->
<g id="node19" class="node"><title>Node19</title>
<g id="a_node19"><a xlink:href="class_player.html#a4307fcdd701655d15557922453a7ba8f" target="_top" xlink:title="Verifica se l&#39;utente ha terminato la sfida.">
<polygon fill="white" stroke="black" points="306,-27.3901 306,-46.3901 409,-46.3901 409,-27.3901 306,-27.3901"/>
<text text-anchor="middle" x="357.5" y="-34.3901" font-family="Helvetica,sans-Serif" font-size="10.00">Player.isTerminated</text>
</a>
</g>
</g>
<!-- Node1&#45;&gt;Node19 -->
<g id="edge20" class="edge"><title>Node1&#45;&gt;Node19</title>
<path fill="none" stroke="midnightblue" d="M1009,-188.748C994.552,-154.82 959.297,-84.9764 904,-55.8901 734.168,33.4414 491.693,-6.66391 397.763,-27.3282"/>
<polygon fill="midnightblue" stroke="midnightblue" points="1005.78,-190.119 1012.82,-198.039 1012.26,-187.46 1005.78,-190.119"/>
</g>
<!-- Node21 -->
<g id="node21" class="node"><title>Node21</title>
<g id="a_node21"><a xlink:href="class_word_translator.html#a27c3e05df1dbcf411ecaeb82902584f9" target="_top" xlink:title="Traduce una lista di parole dall&#39;italiano all&#39;inglese.">
<polygon fill="white" stroke="black" points="797,-65.3901 797,-84.3901 904,-84.3901 904,-65.3901 797,-65.3901"/>
<text text-anchor="middle" x="850.5" y="-72.3901" font-family="Helvetica,sans-Serif" font-size="10.00">WordTranslator.main</text>
</a>
</g>
</g>
<!-- Node1&#45;&gt;Node21 -->
<g id="edge24" class="edge"><title>Node1&#45;&gt;Node21</title>
<path fill="none" stroke="midnightblue" d="M1002.1,-190.654C982.027,-167.442 943.602,-125.936 904,-98.8901 895.724,-93.238 885.903,-88.3396 877.006,-84.4683"/>
<polygon fill="midnightblue" stroke="midnightblue" points="999.488,-192.979 1008.64,-198.317 1004.81,-188.437 999.488,-192.979"/>
</g>
<!-- Node22 -->
<g id="node22" class="node"><title>Node22</title>
<g id="a_node22"><a xlink:href="class_challenge.html#a67e0299b129d8fca6f04ebc11f530864" target="_top" xlink:title="Genera la stringa contenente le statistiche di un utente.">
<polygon fill="white" stroke="black" points="485.5,-103.39 485.5,-122.39 571.5,-122.39 571.5,-103.39 485.5,-103.39"/>
<text text-anchor="middle" x="528.5" y="-110.39" font-family="Helvetica,sans-Serif" font-size="10.00">Challenge.result</text>
</a>
</g>
</g>
<!-- Node1&#45;&gt;Node22 -->
<g id="edge25" class="edge"><title>Node1&#45;&gt;Node22</title>
<path fill="none" stroke="midnightblue" d="M980.783,-194.817C958.808,-187.026 929.971,-177.253 904,-169.89 841.248,-152.098 825.339,-147.607 761,-136.89 695.236,-125.936 618.076,-119.132 571.53,-115.679"/>
<polygon fill="midnightblue" stroke="midnightblue" points="979.768,-198.171 990.363,-198.241 982.124,-191.579 979.768,-198.171"/>
</g>
<!-- Node4 -->
<g id="node4" class="node"><title>Node4</title>
<g id="a_node4"><a xlink:href="class_bot.html#a39bedd8a99e6e57223c433c8197bcb49" target="_top" xlink:title="Avvia il bot.">
<polygon fill="white" stroke="black" points="680.5,-331.39 680.5,-350.39 728.5,-350.39 728.5,-331.39 680.5,-331.39"/>
<text text-anchor="middle" x="704.5" y="-338.39" font-family="Helvetica,sans-Serif" font-size="10.00">Bot.run</text>
</a>
</g>
</g>
<!-- Node3&#45;&gt;Node4 -->
<g id="edge3" class="edge"><title>Node3&#45;&gt;Node4</title>
<path fill="none" stroke="midnightblue" d="M810.695,-313.13C784.444,-320.057 750.657,-328.974 728.555,-334.806"/>
<polygon fill="midnightblue" stroke="midnightblue" points="811.93,-316.424 820.706,-310.489 810.143,-309.656 811.93,-316.424"/>
</g>
<!-- Node5 -->
<g id="node5" class="node"><title>Node5</title>
<g id="a_node5"><a xlink:href="class_bot.html#a698976f1ad72fc3c09eff6f887f11d45" target="_top" xlink:title="Esegue un bot.">
<polygon fill="white" stroke="black" points="500.5,-331.39 500.5,-350.39 556.5,-350.39 556.5,-331.39 500.5,-331.39"/>
<text text-anchor="middle" x="528.5" y="-338.39" font-family="Helvetica,sans-Serif" font-size="10.00">Bot.main</text>
</a>
</g>
</g>
<!-- Node4&#45;&gt;Node5 -->
<g id="edge4" class="edge"><title>Node4&#45;&gt;Node5</title>
<path fill="none" stroke="midnightblue" d="M670.335,-340.89C637.371,-340.89 587.42,-340.89 556.713,-340.89"/>
<polygon fill="midnightblue" stroke="midnightblue" points="670.394,-344.39 680.394,-340.89 670.394,-337.39 670.394,-344.39"/>
</g>
<!-- Node7 -->
<g id="node7" class="node"><title>Node7</title>
<g id="a_node7"><a xlink:href="class_notifier.html#a1e6abba853ca6fe241ce37a988ee818f" target="_top" xlink:title="Attende l&#39;arrivo di una richiesta e se il client non e&#39; impegnato in una sfida gli notifica la richie...">
<polygon fill="white" stroke="black" points="673,-293.39 673,-312.39 736,-312.39 736,-293.39 673,-293.39"/>
<text text-anchor="middle" x="704.5" y="-300.39" font-family="Helvetica,sans-Serif" font-size="10.00">Notifier.run</text>
</a>
</g>
</g>
<!-- Node6&#45;&gt;Node7 -->
<g id="edge6" class="edge"><title>Node6&#45;&gt;Node7</title>
<path fill="none" stroke="midnightblue" d="M803.406,-277.054C781.531,-282.826 755.974,-289.571 736.458,-294.721"/>
<polygon fill="midnightblue" stroke="midnightblue" points="804.387,-280.415 813.163,-274.479 802.601,-273.647 804.387,-280.415"/>
</g>
<!-- Node9 -->
<g id="node9" class="node"><title>Node9</title>
<g id="a_node9"><a xlink:href="class_w_q_cli.html#ac8782ba29a63a974f4e17365f8817edd" target="_top" xlink:title="Gestisce una richiesta di sfida.">
<polygon fill="white" stroke="black" points="648,-255.39 648,-274.39 761,-274.39 761,-255.39 648,-255.39"/>
<text text-anchor="middle" x="704.5" y="-262.39" font-family="Helvetica,sans-Serif" font-size="10.00">WQCli.nuovaRichiesta</text>
</a>
</g>
</g>
<!-- Node8&#45;&gt;Node9 -->
<g id="edge8" class="edge"><title>Node8&#45;&gt;Node9</title>
<path fill="none" stroke="midnightblue" d="M804.349,-238.805C784.138,-244.138 760.632,-250.341 741.614,-255.36"/>
<polygon fill="midnightblue" stroke="midnightblue" points="805.498,-242.122 814.274,-236.186 803.712,-235.353 805.498,-242.122"/>
</g>
<!-- Node11 -->
<g id="node11" class="node"><title>Node11</title>
<g id="a_node11"><a xlink:href="class_w_q_cli.html#a69d5ad39deabe879509740cc27efb3f3" target="_top" xlink:title="Gestisce le richieste dell&#39;utente.">
<polygon fill="white" stroke="black" points="668.5,-217.39 668.5,-236.39 740.5,-236.39 740.5,-217.39 668.5,-217.39"/>
<text text-anchor="middle" x="704.5" y="-224.39" font-family="Helvetica,sans-Serif" font-size="10.00">WQCli.parse</text>
</a>
</g>
</g>
<!-- Node8&#45;&gt;Node11 -->
<g id="edge10" class="edge"><title>Node8&#45;&gt;Node11</title>
<path fill="none" stroke="midnightblue" d="M804.233,-226.89C783.781,-226.89 759.974,-226.89 740.862,-226.89"/>
<polygon fill="midnightblue" stroke="midnightblue" points="804.274,-230.39 814.274,-226.89 804.274,-223.39 804.274,-230.39"/>
</g>
<!-- Node10 -->
<g id="node10" class="node"><title>Node10</title>
<g id="a_node10"><a xlink:href="class_w_q_cli.html#a13932f1ea4f257ce081aa524f090b6ee" target="_top" xlink:title="Gestisce l&#39;interazione con l&#39;utente.">
<polygon fill="white" stroke="black" points="494,-242.39 494,-261.39 563,-261.39 563,-242.39 494,-242.39"/>
<text text-anchor="middle" x="528.5" y="-249.39" font-family="Helvetica,sans-Serif" font-size="10.00">WQCli.main</text>
</a>
</g>
</g>
<!-- Node9&#45;&gt;Node10 -->
<g id="edge9" class="edge"><title>Node9&#45;&gt;Node10</title>
<path fill="none" stroke="midnightblue" d="M637.958,-259.993C612.418,-258.085 584.247,-255.98 563.018,-254.394"/>
<polygon fill="midnightblue" stroke="midnightblue" points="637.734,-263.486 647.967,-260.741 638.256,-256.506 637.734,-263.486"/>
</g>
<!-- Node11&#45;&gt;Node10 -->
<g id="edge11" class="edge"><title>Node11&#45;&gt;Node10</title>
<path fill="none" stroke="midnightblue" d="M658.161,-233.404C628.436,-237.675 590.218,-243.166 563.181,-247.051"/>
<polygon fill="midnightblue" stroke="midnightblue" points="658.888,-236.836 668.289,-231.949 657.892,-229.907 658.888,-236.836"/>
</g>
<!-- Node13 -->
<g id="node13" class="node"><title>Node13</title>
<g id="a_node13"><a xlink:href="class_challenge.html#adfd88e7904c2d0954ca82e07890c5ca4" target="_top" xlink:title="Gestisce la sfida.">
<polygon fill="white" stroke="black" points="20,-103.39 20,-122.39 96,-122.39 96,-103.39 20,-103.39"/>
<text text-anchor="middle" x="58" y="-110.39" font-family="Helvetica,sans-Serif" font-size="10.00">Challenge.run</text>
</a>
</g>
</g>
<!-- Node12&#45;&gt;Node13 -->
<g id="edge13" class="edge"><title>Node12&#45;&gt;Node13</title>
<path fill="none" stroke="midnightblue" d="M800.485,-177.184C787.693,-174.454 773.88,-171.793 761,-169.89 658.874,-154.801 632.735,-150.89 529.5,-150.89 529.5,-150.89 529.5,-150.89 356.5,-150.89 262.255,-150.89 152.56,-131.894 96.3749,-120.764"/>
<polygon fill="midnightblue" stroke="midnightblue" points="799.972,-180.654 810.489,-179.374 801.469,-173.816 799.972,-180.654"/>
</g>
<!-- Node14 -->
<g id="node14" class="node"><title>Node14</title>
<g id="a_node14"><a xlink:href="class_challenge.html#a650e2bfde93fe29ad14a4f7fdcb3c4b9" target="_top" xlink:title="Aggiunge l&#39;utente sfidato alla sfida e la avvia.">
<polygon fill="white" stroke="black" points="650,-179.39 650,-198.39 759,-198.39 759,-179.39 650,-179.39"/>
<text text-anchor="middle" x="704.5" y="-186.39" font-family="Helvetica,sans-Serif" font-size="10.00">Challenge.setPlayer2</text>
</a>
</g>
</g>
<!-- Node12&#45;&gt;Node14 -->
<g id="edge14" class="edge"><title>Node12&#45;&gt;Node14</title>
<path fill="none" stroke="midnightblue" d="M799.561,-188.89C786.498,-188.89 772.363,-188.89 759.117,-188.89"/>
<polygon fill="midnightblue" stroke="midnightblue" points="799.77,-192.39 809.77,-188.89 799.77,-185.39 799.77,-192.39"/>
</g>
<!-- Node15 -->
<g id="node15" class="node"><title>Node15</title>
<g id="a_node15"><a xlink:href="class_word_quizzle_server_service.html#a9b03b4a431c18e8d8385217e3fbd9a0a" target="_top" xlink:title="Accetta una richiesta di sfida inviata da nickAmico.">
<polygon fill="white" stroke="black" points="445,-179.89 445,-209.89 612,-209.89 612,-179.89 445,-179.89"/>
<text text-anchor="start" x="453" y="-197.89" font-family="Helvetica,sans-Serif" font-size="10.00">WordQuizzleServerService.accetta</text>
<text text-anchor="middle" x="528.5" y="-186.89" font-family="Helvetica,sans-Serif" font-size="10.00">Sfida</text>
</a>
</g>
</g>
<!-- Node14&#45;&gt;Node15 -->
<g id="edge15" class="edge"><title>Node14&#45;&gt;Node15</title>
<path fill="none" stroke="midnightblue" d="M639.845,-191.085C630.804,-191.397 621.401,-191.721 612.065,-192.043"/>
<polygon fill="midnightblue" stroke="midnightblue" points="640.001,-194.582 649.874,-190.739 639.76,-187.586 640.001,-194.582"/>
</g>
<!-- Node16 -->
<g id="node16" class="node"><title>Node16</title>
<g id="a_node16"><a xlink:href="class_session.html#a56e3ffab046de2082083cfc54b5d8e72" target="_top" xlink:title="Gestisce effettivamente la richiesta del client.">
<polygon fill="white" stroke="black" points="311.5,-183.39 311.5,-202.39 403.5,-202.39 403.5,-183.39 311.5,-183.39"/>
<text text-anchor="middle" x="357.5" y="-190.39" font-family="Helvetica,sans-Serif" font-size="10.00">Session.compute</text>
</a>
</g>
</g>
<!-- Node15&#45;&gt;Node16 -->
<g id="edge16" class="edge"><title>Node15&#45;&gt;Node16</title>
<path fill="none" stroke="midnightblue" d="M434.973,-193.795C424.109,-193.667 413.423,-193.54 403.643,-193.424"/>
<polygon fill="midnightblue" stroke="midnightblue" points="434.94,-197.295 444.98,-193.914 435.022,-190.295 434.94,-197.295"/>
</g>
<!-- Node17 -->
<g id="node17" class="node"><title>Node17</title>
<g id="a_node17"><a xlink:href="class_session.html#a75364929cf1f8f9e75992a8a8c3b589f" target="_top" xlink:title="Riceve una stringa contenente uan richiesta da parte del client e la gestisce.">
<polygon fill="white" stroke="black" points="171.5,-180.39 171.5,-199.39 250.5,-199.39 250.5,-180.39 171.5,-180.39"/>
<text text-anchor="middle" x="211" y="-187.39" font-family="Helvetica,sans-Serif" font-size="10.00">Session.parse</text>
</a>
</g>
</g>
<!-- Node16&#45;&gt;Node17 -->
<g id="edge17" class="edge"><title>Node16&#45;&gt;Node17</title>
<path fill="none" stroke="midnightblue" d="M300.957,-191.737C284.227,-191.39 266.232,-191.016 250.835,-190.696"/>
<polygon fill="midnightblue" stroke="midnightblue" points="301.105,-195.241 311.176,-191.949 301.251,-188.242 301.105,-195.241"/>
</g>
<!-- Node17&#45;&gt;Node13 -->
<g id="edge19" class="edge"><title>Node17&#45;&gt;Node13</title>
<path fill="none" stroke="midnightblue" d="M176.978,-176.353C168.743,-172.788 159.986,-168.831 152,-164.89 124.297,-151.22 93.1614,-133.256 74.8607,-122.418"/>
<polygon fill="midnightblue" stroke="midnightblue" points="175.755,-179.637 186.327,-180.335 178.498,-173.197 175.755,-179.637"/>
</g>
<!-- Node18 -->
<g id="node18" class="node"><title>Node18</title>
<g id="a_node18"><a xlink:href="class_word_quizzle_server.html#a1414f39eeaaf2dbe0885f4d77a12c466" target="_top" xlink:title="Gestisce le interazioni con i client.">
<polygon fill="white" stroke="black" points="0,-180.39 0,-199.39 116,-199.39 116,-180.39 0,-180.39"/>
<text text-anchor="middle" x="58" y="-187.39" font-family="Helvetica,sans-Serif" font-size="10.00">WordQuizzleServer.run</text>
</a>
</g>
</g>
<!-- Node17&#45;&gt;Node18 -->
<g id="edge18" class="edge"><title>Node17&#45;&gt;Node18</title>
<path fill="none" stroke="midnightblue" d="M161.009,-189.89C146.732,-189.89 131.006,-189.89 116.267,-189.89"/>
<polygon fill="midnightblue" stroke="midnightblue" points="161.114,-193.39 171.114,-189.89 161.114,-186.39 161.114,-193.39"/>
</g>
<!-- Node19&#45;&gt;Node13 -->
<g id="edge23" class="edge"><title>Node19&#45;&gt;Node13</title>
<path fill="none" stroke="midnightblue" d="M295.388,-35.3856C253.949,-36.0861 198.472,-40.4254 152,-55.8901 120.016,-66.5335 87.5482,-89.9331 70.7322,-103.204"/>
<polygon fill="midnightblue" stroke="midnightblue" points="295.643,-38.8833 305.607,-35.2814 295.572,-31.8837 295.643,-38.8833"/>
</g>
<!-- Node20 -->
<g id="node20" class="node"><title>Node20</title>
<g id="a_node20"><a xlink:href="class_challenge.html#ae140d268abab98e4b7abbf302596efa8" target="_top" xlink:title="Verifica se la sfida e&#39; terminata.">
<polygon fill="white" stroke="black" points="152,-65.3901 152,-84.3901 270,-84.3901 270,-65.3901 152,-65.3901"/>
<text text-anchor="middle" x="211" y="-72.3901" font-family="Helvetica,sans-Serif" font-size="10.00">Challenge.isTerminated</text>
</a>
</g>
</g>
<!-- Node19&#45;&gt;Node20 -->
<g id="edge21" class="edge"><title>Node19&#45;&gt;Node20</title>
<path fill="none" stroke="midnightblue" d="M310.167,-49.0744C290.106,-54.3501 266.971,-60.4339 248.201,-65.37"/>
<polygon fill="midnightblue" stroke="midnightblue" points="311.256,-52.4073 320.037,-46.4791 309.475,-45.6375 311.256,-52.4073"/>
</g>
<!-- Node20&#45;&gt;Node13 -->
<g id="edge22" class="edge"><title>Node20&#45;&gt;Node13</title>
<path fill="none" stroke="midnightblue" d="M162.042,-86.9588C140.694,-92.3313 115.941,-98.5604 96.0475,-103.567"/>
<polygon fill="midnightblue" stroke="midnightblue" points="163.053,-90.3138 171.896,-84.4791 161.344,-83.5254 163.053,-90.3138"/>
</g>
<!-- Node23 -->
<g id="node23" class="node"><title>Node23</title>
<g id="a_node23"><a xlink:href="class_challenge.html#ae1d74e295523725569c9e06b887e9a9e" target="_top" xlink:title="Conclude la sfida.">
<polygon fill="white" stroke="black" points="318.5,-103.39 318.5,-122.39 396.5,-122.39 396.5,-103.39 318.5,-103.39"/>
<text text-anchor="middle" x="357.5" y="-110.39" font-family="Helvetica,sans-Serif" font-size="10.00">Challenge.end</text>
</a>
</g>
</g>
<!-- Node22&#45;&gt;Node23 -->
<g id="edge26" class="edge"><title>Node22&#45;&gt;Node23</title>
<path fill="none" stroke="midnightblue" d="M475.1,-112.89C449.751,-112.89 419.876,-112.89 396.712,-112.89"/>
<polygon fill="midnightblue" stroke="midnightblue" points="475.29,-116.39 485.29,-112.89 475.29,-109.39 475.29,-116.39"/>
</g>
<!-- Node23&#45;&gt;Node13 -->
<g id="edge27" class="edge"><title>Node23&#45;&gt;Node13</title>
<path fill="none" stroke="midnightblue" d="M307.99,-112.89C248.733,-112.89 149.782,-112.89 96.2013,-112.89"/>
<polygon fill="midnightblue" stroke="midnightblue" points="308.216,-116.39 318.216,-112.89 308.216,-109.39 308.216,-116.39"/>
</g>
</g>
</svg>
