<?xml version="1.0" encoding="UTF-8" standalone="no"?>
<!DOCTYPE svg PUBLIC "-//W3C//DTD SVG 1.1//EN"
 "http://www.w3.org/Graphics/SVG/1.1/DTD/svg11.dtd">
<!-- Generated by graphviz version 2.38.0 (20140413.2041)
 -->
<!-- Title: WordQuizzle.Session.newBfs Pages: 1 -->
<svg width="366pt" height="66pt"
 viewBox="0.00 0.00 366.00 66.00" xmlns="http://www.w3.org/2000/svg" xmlns:xlink="http://www.w3.org/1999/xlink">
<g id="graph0" class="graph" transform="scale(1 1) rotate(0) translate(4 62)">
<title>WordQuizzle.Session.newBfs</title>
<polygon fill="white" stroke="none" points="-4,4 -4,-62 362,-62 362,4 -4,4"/>
<!-- Node1 -->
<g id="node1" class="node"><title>Node1</title>
<g id="a_node1"><a xlink:title="Crea un nuovo ByteBuffer Array.">
<polygon fill="#bfbfbf" stroke="black" points="212,-19.5 212,-38.5 358,-38.5 358,-19.5 212,-19.5"/>
<text text-anchor="middle" x="285" y="-26.5" font-family="Helvetica,sans-Serif" font-size="10.00">WordQuizzle.Session.newBfs</text>
</a>
</g>
</g>
<!-- Node2 -->
<g id="node2" class="node"><title>Node2</title>
<g id="a_node2"><a xlink:href="class_word_quizzle_1_1_word_quizzle_server.html#a4aa19bad373d06a790babba1e5b67644" target="_top" xlink:title="Gestisce le interazioni con i client.">
<polygon fill="white" stroke="black" points="0,-38.5 0,-57.5 176,-57.5 176,-38.5 0,-38.5"/>
<text text-anchor="middle" x="88" y="-45.5" font-family="Helvetica,sans-Serif" font-size="10.00">WordQuizzle.WordQuizzleServer.run</text>
</a>
</g>
</g>
<!-- Node1&#45;&gt;Node2 -->
<g id="edge1" class="edge"><title>Node1&#45;&gt;Node2</title>
<path fill="none" stroke="midnightblue" d="M201.764,-37.0127C193.341,-37.8334 184.763,-38.6693 176.288,-39.495"/>
<polygon fill="midnightblue" stroke="midnightblue" points="202.33,-40.4743 211.943,-36.0209 201.651,-33.5073 202.33,-40.4743"/>
</g>
<!-- Node3 -->
<g id="node3" class="node"><title>Node3</title>
<g id="a_node3"><a xlink:href="class_word_quizzle_1_1_challenge.html#aa7b93cfc7d1927c0b1c060cc387321b9" target="_top" xlink:title="Gestisce la sfida.">
<polygon fill="white" stroke="black" points="20.5,-0.5 20.5,-19.5 155.5,-19.5 155.5,-0.5 20.5,-0.5"/>
<text text-anchor="middle" x="88" y="-7.5" font-family="Helvetica,sans-Serif" font-size="10.00">WordQuizzle.Challenge.run</text>
</a>
</g>
</g>
<!-- Node1&#45;&gt;Node3 -->
<g id="edge2" class="edge"><title>Node1&#45;&gt;Node3</title>
<path fill="none" stroke="midnightblue" d="M201.891,-20.9997C186.453,-19.4955 170.487,-17.9398 155.594,-16.4887"/>
<polygon fill="midnightblue" stroke="midnightblue" points="201.651,-24.4927 211.943,-21.9791 202.33,-17.5257 201.651,-24.4927"/>
</g>
</g>
</svg>
