<?xml version="1.0" encoding="UTF-8" standalone="no"?>
<!DOCTYPE svg PUBLIC "-//W3C//DTD SVG 1.1//EN"
 "http://www.w3.org/Graphics/SVG/1.1/DTD/svg11.dtd">
<!-- Generated by graphviz version 2.38.0 (20140413.2041)
 -->
<!-- Title: WordQuizzle.WQGui Pages: 1 -->
<!--zoomable 898 -->
<svg id="main" version="1.1" xmlns="http://www.w3.org/2000/svg" xmlns:xlink="http://www.w3.org/1999/xlink" xml:space="preserve" onload="init(evt)">
<style type="text/css"><![CDATA[
.edge:hover path { stroke: red; }
.edge:hover polygon { stroke: red; fill: red; }
]]></style>
<script type="text/javascript"><![CDATA[
var edges = document.getElementsByTagName('g');
if (edges && edges.length) {
  for (var i=0;i<edges.length;i++) {
    if (edges[i].id.substr(0,4)=='edge') {
      edges[i].setAttribute('class','edge');
    }
  }
}
]]></script>
        <defs>
                <circle id="rim" cx="0" cy="0" r="7"/>
                <circle id="rim2" cx="0" cy="0" r="3.5"/>
                <g id="zoomPlus">
                        <use xlink:href="#rim" fill="#404040">
                                <set attributeName="fill" to="#808080" begin="zoomplus.mouseover" end="zoomplus.mouseout"/>
                        </use>
                        <path d="M-4,0h8M0,-4v8" fill="none" stroke="white" stroke-width="1.5" pointer-events="none"/>
                </g>
                <g id="zoomMin">
                        <use xlink:href="#rim" fill="#404040">
                                <set attributeName="fill" to="#808080" begin="zoomminus.mouseover" end="zoomminus.mouseout"/>
                        </use>
                        <path d="M-4,0h8" fill="none" stroke="white" stroke-width="1.5" pointer-events="none"/>
                </g>
                <g id="dirArrow">
                        <path fill="none" stroke="white" stroke-width="1.5" d="M0,-3.0v7 M-2.5,-0.5L0,-3.0L2.5,-0.5"/>
                </g>
               <g id="resetDef">
                       <use xlink:href="#rim2" fill="#404040">
                               <set attributeName="fill" to="#808080" begin="reset.mouseover" end="reset.mouseout"/>
                       </use>
               </g>
        </defs>

<script type="text/javascript">
var viewWidth = 386;
var viewHeight = 898;
var sectionId = 'dynsection-1';
</script>
<script xlink:href="svgpan.js"/>
<svg id="graph" class="graph">
<g id="viewport">
<title>WordQuizzle.WQGui</title>
<polygon fill="white" stroke="none" points="-4,4 -4,-894 382,-894 382,4 -4,4"/>
<!-- Node1 -->
<g id="node1" class="node"><title>Node1</title>
<g id="a_node1"><a xlink:title=" ">
<polygon fill="#bfbfbf" stroke="black" points="170,-0.5 170,-123.5 278,-123.5 278,-0.5 170,-0.5"/>
<text text-anchor="middle" x="224" y="-111.5" font-family="Helvetica,sans-Serif" font-size="10.00">WordQuizzle.WQGui</text>
<polyline fill="none" stroke="black" points="170,-104.5 278,-104.5 "/>
<text text-anchor="start" x="178" y="-92.5" font-family="Helvetica,sans-Serif" font-size="10.00">&#45; index</text>
<text text-anchor="start" x="178" y="-81.5" font-family="Helvetica,sans-Serif" font-size="10.00">&#45; isClicked</text>
<polyline fill="none" stroke="black" points="170,-74.5 278,-74.5 "/>
<text text-anchor="start" x="178" y="-62.5" font-family="Helvetica,sans-Serif" font-size="10.00">+ WQGui()</text>
<text text-anchor="start" x="178" y="-51.5" font-family="Helvetica,sans-Serif" font-size="10.00">+ game()</text>
<text text-anchor="start" x="178" y="-40.5" font-family="Helvetica,sans-Serif" font-size="10.00">+ main()</text>
<text text-anchor="start" x="178" y="-29.5" font-family="Helvetica,sans-Serif" font-size="10.00">&#45; makeLogin()</text>
<text text-anchor="start" x="178" y="-18.5" font-family="Helvetica,sans-Serif" font-size="10.00">&#45; makeGame()</text>
<text text-anchor="start" x="178" y="-7.5" font-family="Helvetica,sans-Serif" font-size="10.00">&#45; make()</text>
</a>
</g>
</g>
<!-- Node2 -->
<g id="node2" class="node"><title>Node2</title>
<g id="a_node2"><a xlink:title=" ">
<polygon fill="white" stroke="#bfbfbf" points="78.5,-265 78.5,-322 127.5,-322 127.5,-265 78.5,-265"/>
<text text-anchor="middle" x="103" y="-310" font-family="Helvetica,sans-Serif" font-size="10.00">JFrame</text>
<polyline fill="none" stroke="#bfbfbf" points="78.5,-303 127.5,-303 "/>
<text text-anchor="middle" x="103" y="-291" font-family="Helvetica,sans-Serif" font-size="10.00"> </text>
<polyline fill="none" stroke="#bfbfbf" points="78.5,-284 127.5,-284 "/>
<text text-anchor="middle" x="103" y="-272" font-family="Helvetica,sans-Serif" font-size="10.00"> </text>
</a>
</g>
</g>
<!-- Node2&#45;&gt;Node1 -->
<g id="edge1" class="edge"><title>Node2&#45;&gt;Node1</title>
<path fill="none" stroke="midnightblue" d="M112.823,-254.854C118.448,-235.821 126.321,-212.652 136,-193 147.681,-169.284 163.144,-144.876 177.846,-123.706"/>
<polygon fill="none" stroke="midnightblue" points="109.4,-254.095 110.011,-264.672 116.129,-256.023 109.4,-254.095"/>
</g>
<!-- Node3 -->
<g id="node3" class="node"><title>Node3</title>
<g id="a_node3"><a xlink:href="class_word_quizzle_1_1_word_quizzle_client.html" target="_top" xlink:title=" ">
<polygon fill="white" stroke="black" points="145.5,-193.5 145.5,-393.5 302.5,-393.5 302.5,-193.5 145.5,-193.5"/>
<text text-anchor="middle" x="224" y="-381.5" font-family="Helvetica,sans-Serif" font-size="10.00">WordQuizzle.WordQuizzleClient</text>
<polyline fill="none" stroke="black" points="145.5,-374.5 302.5,-374.5 "/>
<text text-anchor="start" x="153.5" y="-362.5" font-family="Helvetica,sans-Serif" font-size="10.00">&#45; user</text>
<polyline fill="none" stroke="black" points="145.5,-355.5 302.5,-355.5 "/>
<text text-anchor="start" x="153.5" y="-343.5" font-family="Helvetica,sans-Serif" font-size="10.00">+ WordQuizzleClient()</text>
<text text-anchor="start" x="153.5" y="-332.5" font-family="Helvetica,sans-Serif" font-size="10.00">+ getUser()</text>
<text text-anchor="start" x="153.5" y="-321.5" font-family="Helvetica,sans-Serif" font-size="10.00">+ registra_utente()</text>
<text text-anchor="start" x="153.5" y="-310.5" font-family="Helvetica,sans-Serif" font-size="10.00">+ login()</text>
<text text-anchor="start" x="153.5" y="-299.5" font-family="Helvetica,sans-Serif" font-size="10.00">+ logout()</text>
<text text-anchor="start" x="153.5" y="-288.5" font-family="Helvetica,sans-Serif" font-size="10.00">+ aggiungi_amico()</text>
<text text-anchor="start" x="153.5" y="-277.5" font-family="Helvetica,sans-Serif" font-size="10.00">+ sfida()</text>
<text text-anchor="start" x="153.5" y="-266.5" font-family="Helvetica,sans-Serif" font-size="10.00">+ lista_amici()</text>
<text text-anchor="start" x="153.5" y="-255.5" font-family="Helvetica,sans-Serif" font-size="10.00">+ mostra_punteggio()</text>
<text text-anchor="start" x="153.5" y="-244.5" font-family="Helvetica,sans-Serif" font-size="10.00">+ mostra_classifica()</text>
<text text-anchor="start" x="153.5" y="-233.5" font-family="Helvetica,sans-Serif" font-size="10.00">+ controllaRichieste()</text>
<text text-anchor="start" x="153.5" y="-222.5" font-family="Helvetica,sans-Serif" font-size="10.00">+ controllaRichieste()</text>
<text text-anchor="start" x="153.5" y="-211.5" font-family="Helvetica,sans-Serif" font-size="10.00">+ accettaSfida()</text>
<text text-anchor="start" x="153.5" y="-200.5" font-family="Helvetica,sans-Serif" font-size="10.00">+ sendTranslation()</text>
</a>
</g>
</g>
<!-- Node3&#45;&gt;Node1 -->
<g id="edge2" class="edge"><title>Node3&#45;&gt;Node1</title>
<path fill="none" stroke="#404040" d="M224,-193.173C224,-173.887 224,-154.009 224,-135.772"/>
<polygon fill="none" stroke="#404040" points="224,-135.743 220,-129.743 224,-123.743 228,-129.743 224,-135.743"/>
<text text-anchor="middle" x="233.5" y="-156" font-family="Helvetica,sans-Serif" font-size="10.00"> &#45;wq</text>
</g>
<!-- Node4 -->
<g id="node4" class="node"><title>Node4</title>
<g id="a_node4"><a xlink:href="class_word_quizzle_1_1_word_quizzle_client_service.html" target="_top" xlink:title=" ">
<polygon fill="white" stroke="black" points="145.5,-441.5 145.5,-674.5 302.5,-674.5 302.5,-441.5 145.5,-441.5"/>
<text text-anchor="start" x="153.5" y="-662.5" font-family="Helvetica,sans-Serif" font-size="10.00">WordQuizzle.WordQuizzleClient</text>
<text text-anchor="middle" x="224" y="-651.5" font-family="Helvetica,sans-Serif" font-size="10.00">Service</text>
<polyline fill="none" stroke="black" points="145.5,-644.5 302.5,-644.5 "/>
<text text-anchor="middle" x="224" y="-632.5" font-family="Helvetica,sans-Serif" font-size="10.00"> </text>
<polyline fill="none" stroke="black" points="145.5,-625.5 302.5,-625.5 "/>
<text text-anchor="start" x="153.5" y="-613.5" font-family="Helvetica,sans-Serif" font-size="10.00">+ WordQuizzleClientService()</text>
<text text-anchor="start" x="153.5" y="-602.5" font-family="Helvetica,sans-Serif" font-size="10.00">+ registra_utente()</text>
<text text-anchor="start" x="153.5" y="-591.5" font-family="Helvetica,sans-Serif" font-size="10.00">+ login()</text>
<text text-anchor="start" x="153.5" y="-580.5" font-family="Helvetica,sans-Serif" font-size="10.00">+ login()</text>
<text text-anchor="start" x="153.5" y="-569.5" font-family="Helvetica,sans-Serif" font-size="10.00">+ logout()</text>
<text text-anchor="start" x="153.5" y="-558.5" font-family="Helvetica,sans-Serif" font-size="10.00">+ aggiungi_amico()</text>
<text text-anchor="start" x="153.5" y="-547.5" font-family="Helvetica,sans-Serif" font-size="10.00">+ sfida()</text>
<text text-anchor="start" x="153.5" y="-536.5" font-family="Helvetica,sans-Serif" font-size="10.00">+ lista_amici()</text>
<text text-anchor="start" x="153.5" y="-525.5" font-family="Helvetica,sans-Serif" font-size="10.00">+ mostra_punteggio()</text>
<text text-anchor="start" x="153.5" y="-514.5" font-family="Helvetica,sans-Serif" font-size="10.00">+ mostra_classifica()</text>
<text text-anchor="start" x="153.5" y="-503.5" font-family="Helvetica,sans-Serif" font-size="10.00">+ controllaRichieste()</text>
<text text-anchor="start" x="153.5" y="-492.5" font-family="Helvetica,sans-Serif" font-size="10.00">+ accettaSfida()</text>
<text text-anchor="start" x="153.5" y="-481.5" font-family="Helvetica,sans-Serif" font-size="10.00">+ sendTranslation()</text>
<text text-anchor="start" x="153.5" y="-470.5" font-family="Helvetica,sans-Serif" font-size="10.00">&#45; write()</text>
<text text-anchor="start" x="153.5" y="-459.5" font-family="Helvetica,sans-Serif" font-size="10.00">&#45; read()</text>
<text text-anchor="start" x="153.5" y="-448.5" font-family="Helvetica,sans-Serif" font-size="10.00">&#45; send()</text>
</a>
</g>
</g>
<!-- Node4&#45;&gt;Node3 -->
<g id="edge3" class="edge"><title>Node4&#45;&gt;Node3</title>
<path fill="none" stroke="#404040" d="M224,-441.482C224,-429.639 224,-417.624 224,-405.828"/>
<polygon fill="none" stroke="#404040" points="224,-405.632 220,-399.632 224,-393.632 228,-399.632 224,-405.632"/>
<text text-anchor="middle" x="242.5" y="-415" font-family="Helvetica,sans-Serif" font-size="10.00"> &#45;service</text>
</g>
<!-- Node5 -->
<g id="node5" class="node"><title>Node5</title>
<g id="a_node5"><a xlink:href="interface_word_quizzle_1_1_word_quizzle_service.html" target="_top" xlink:title=" ">
<polygon fill="white" stroke="black" points="0,-722.5 0,-889.5 164,-889.5 164,-722.5 0,-722.5"/>
<text text-anchor="middle" x="82" y="-877.5" font-family="Helvetica,sans-Serif" font-size="10.00">WordQuizzle.WordQuizzleService</text>
<polyline fill="none" stroke="black" points="0,-870.5 164,-870.5 "/>
<text text-anchor="middle" x="82" y="-858.5" font-family="Helvetica,sans-Serif" font-size="10.00"> </text>
<polyline fill="none" stroke="black" points="0,-851.5 164,-851.5 "/>
<text text-anchor="start" x="8" y="-839.5" font-family="Helvetica,sans-Serif" font-size="10.00">+ registra_utente()</text>
<text text-anchor="start" x="8" y="-828.5" font-family="Helvetica,sans-Serif" font-size="10.00">+ login()</text>
<text text-anchor="start" x="8" y="-817.5" font-family="Helvetica,sans-Serif" font-size="10.00">+ logout()</text>
<text text-anchor="start" x="8" y="-806.5" font-family="Helvetica,sans-Serif" font-size="10.00">+ aggiungi_amico()</text>
<text text-anchor="start" x="8" y="-795.5" font-family="Helvetica,sans-Serif" font-size="10.00">+ sfida()</text>
<text text-anchor="start" x="8" y="-784.5" font-family="Helvetica,sans-Serif" font-size="10.00">+ lista_amici()</text>
<text text-anchor="start" x="8" y="-773.5" font-family="Helvetica,sans-Serif" font-size="10.00">+ mostra_punteggio()</text>
<text text-anchor="start" x="8" y="-762.5" font-family="Helvetica,sans-Serif" font-size="10.00">+ mostra_classifica()</text>
<text text-anchor="start" x="8" y="-751.5" font-family="Helvetica,sans-Serif" font-size="10.00">+ accettaSfida()</text>
<text text-anchor="start" x="8" y="-740.5" font-family="Helvetica,sans-Serif" font-size="10.00">+ login()</text>
<text text-anchor="start" x="8" y="-729.5" font-family="Helvetica,sans-Serif" font-size="10.00">+ sendTranslation()</text>
</a>
</g>
</g>
<!-- Node5&#45;&gt;Node4 -->
<g id="edge4" class="edge"><title>Node5&#45;&gt;Node4</title>
<path fill="none" stroke="midnightblue" d="M134.718,-713.672C142.066,-700.941 149.696,-687.724 157.26,-674.62"/>
<polygon fill="none" stroke="midnightblue" points="131.647,-711.991 129.679,-722.401 137.71,-715.49 131.647,-711.991"/>
</g>
<!-- Node6 -->
<g id="node6" class="node"><title>Node6</title>
<g id="a_node6"><a xlink:title=" ">
<polygon fill="white" stroke="#bfbfbf" points="182.5,-777.5 182.5,-834.5 265.5,-834.5 265.5,-777.5 182.5,-777.5"/>
<text text-anchor="middle" x="224" y="-822.5" font-family="Helvetica,sans-Serif" font-size="10.00">SocketChannel</text>
<polyline fill="none" stroke="#bfbfbf" points="182.5,-815.5 265.5,-815.5 "/>
<text text-anchor="middle" x="224" y="-803.5" font-family="Helvetica,sans-Serif" font-size="10.00"> </text>
<polyline fill="none" stroke="#bfbfbf" points="182.5,-796.5 265.5,-796.5 "/>
<text text-anchor="middle" x="224" y="-784.5" font-family="Helvetica,sans-Serif" font-size="10.00"> </text>
</a>
</g>
</g>
<!-- Node6&#45;&gt;Node4 -->
<g id="edge5" class="edge"><title>Node6&#45;&gt;Node4</title>
<path fill="none" stroke="#404040" d="M224,-777.259C224,-754.61 224,-720.857 224,-686.627"/>
<polygon fill="none" stroke="#404040" points="224,-686.516 220,-680.516 224,-674.516 228,-680.516 224,-686.516"/>
<text text-anchor="middle" x="242" y="-696" font-family="Helvetica,sans-Serif" font-size="10.00"> &#45;socket</text>
</g>
<!-- Node7 -->
<g id="node7" class="node"><title>Node7</title>
<g id="a_node7"><a xlink:title=" ">
<polygon fill="white" stroke="#bfbfbf" points="283.5,-777.5 283.5,-834.5 372.5,-834.5 372.5,-777.5 283.5,-777.5"/>
<text text-anchor="middle" x="328" y="-822.5" font-family="Helvetica,sans-Serif" font-size="10.00">DatagramSocket</text>
<polyline fill="none" stroke="#bfbfbf" points="283.5,-815.5 372.5,-815.5 "/>
<text text-anchor="middle" x="328" y="-803.5" font-family="Helvetica,sans-Serif" font-size="10.00"> </text>
<polyline fill="none" stroke="#bfbfbf" points="283.5,-796.5 372.5,-796.5 "/>
<text text-anchor="middle" x="328" y="-784.5" font-family="Helvetica,sans-Serif" font-size="10.00"> </text>
</a>
</g>
</g>
<!-- Node7&#45;&gt;Node4 -->
<g id="edge6" class="edge"><title>Node7&#45;&gt;Node4</title>
<path fill="none" stroke="#404040" d="M316.272,-777.259C306.613,-754.412 292.178,-720.267 277.577,-685.73"/>
<polygon fill="none" stroke="#404040" points="277.509,-685.569 271.488,-681.6 272.836,-674.516 278.857,-678.485 277.509,-685.569"/>
<text text-anchor="middle" x="294" y="-696" font-family="Helvetica,sans-Serif" font-size="10.00"> &#45;udp</text>
</g>
<!-- Node8 -->
<g id="node8" class="node"><title>Node8</title>
<g id="a_node8"><a xlink:title=" ">
<polygon fill="white" stroke="#bfbfbf" points="321,-265 321,-322 367,-322 367,-265 321,-265"/>
<text text-anchor="middle" x="344" y="-310" font-family="Helvetica,sans-Serif" font-size="10.00">JPanel</text>
<polyline fill="none" stroke="#bfbfbf" points="321,-303 367,-303 "/>
<text text-anchor="middle" x="344" y="-291" font-family="Helvetica,sans-Serif" font-size="10.00"> </text>
<polyline fill="none" stroke="#bfbfbf" points="321,-284 367,-284 "/>
<text text-anchor="middle" x="344" y="-272" font-family="Helvetica,sans-Serif" font-size="10.00"> </text>
</a>
</g>
</g>
<!-- Node8&#45;&gt;Node1 -->
<g id="edge7" class="edge"><title>Node8&#45;&gt;Node1</title>
<path fill="none" stroke="#404040" d="M336.953,-264.69C331.269,-244.289 322.357,-216.214 311,-193 301.232,-173.035 288.818,-152.548 276.447,-133.914"/>
<polygon fill="none" stroke="#404040" points="276.311,-133.713 269.639,-130.979 269.596,-123.768 276.269,-126.502 276.311,-133.713"/>
<text text-anchor="middle" x="340" y="-167" font-family="Helvetica,sans-Serif" font-size="10.00"> ~challengePanel</text>
<text text-anchor="middle" x="340" y="-156" font-family="Helvetica,sans-Serif" font-size="10.00">~gamePanel</text>
<text text-anchor="middle" x="340" y="-145" font-family="Helvetica,sans-Serif" font-size="10.00">&#45;loginPanel</text>
</g>
</g>
</svg>
        <g id="navigator" transform="translate(0 0)" fill="#404254">
                <rect fill="#f2f5e9" fill-opacity="0.5" stroke="#606060" stroke-width=".5" x="0" y="0" width="60" height="60"/>
                <use id="zoomplus" xlink:href="#zoomPlus" x="17" y="9" onmousedown="handleZoom(evt,'in')"/>
                <use id="zoomminus" xlink:href="#zoomMin" x="42" y="9" onmousedown="handleZoom(evt,'out')"/>
                <use id="reset" xlink:href="#resetDef" x="30" y="36" onmousedown="handleReset()"/>
                <g id="arrowUp" xlink:href="#dirArrow" transform="translate(30 24)" onmousedown="handlePan(0,-1)">
                  <use xlink:href="#rim" fill="#404040">
                        <set attributeName="fill" to="#808080" begin="arrowUp.mouseover" end="arrowUp.mouseout"/>
                  </use>
                  <path fill="none" stroke="white" stroke-width="1.5" d="M0,-3.0v7 M-2.5,-0.5L0,-3.0L2.5,-0.5"/>
                </g>
                <g id="arrowRight" xlink:href="#dirArrow" transform="rotate(90) translate(36 -43)" onmousedown="handlePan(1,0)">
                  <use xlink:href="#rim" fill="#404040">
                        <set attributeName="fill" to="#808080" begin="arrowRight.mouseover" end="arrowRight.mouseout"/>
                  </use>
                  <path fill="none" stroke="white" stroke-width="1.5" d="M0,-3.0v7 M-2.5,-0.5L0,-3.0L2.5,-0.5"/>
                </g>
                <g id="arrowDown" xlink:href="#dirArrow" transform="rotate(180) translate(-30 -48)" onmousedown="handlePan(0,1)">
                  <use xlink:href="#rim" fill="#404040">
                        <set attributeName="fill" to="#808080" begin="arrowDown.mouseover" end="arrowDown.mouseout"/>
                  </use>
                  <path fill="none" stroke="white" stroke-width="1.5" d="M0,-3.0v7 M-2.5,-0.5L0,-3.0L2.5,-0.5"/>
                </g>
                <g id="arrowLeft" xlink:href="#dirArrow" transform="rotate(270) translate(-36 17)" onmousedown="handlePan(-1,0)">
                  <use xlink:href="#rim" fill="#404040">
                        <set attributeName="fill" to="#808080" begin="arrowLeft.mouseover" end="arrowLeft.mouseout"/>
                  </use>
                  <path fill="none" stroke="white" stroke-width="1.5" d="M0,-3.0v7 M-2.5,-0.5L0,-3.0L2.5,-0.5"/>
                </g>
        </g>
        <svg viewBox="0 0 15 15" width="100%" height="30px" preserveAspectRatio="xMaxYMin meet">
         <g id="arrow_out" transform="scale(0.3 0.3)">
          <a xlink:href="class_word_quizzle_1_1_w_q_gui__coll__graph_org.svg" target="_base">
           <rect id="button" ry="5" rx="5" y="6" x="6" height="38" width="38"
                fill="#f2f5e9" fill-opacity="0.5" stroke="#606060" stroke-width="1.0"/>
           <path id="arrow"
             d="M 11.500037,31.436501 C 11.940474,20.09759 22.043105,11.32322 32.158766,21.979434 L 37.068811,17.246167 C 37.068811,17.246167 37.088388,32 37.088388,32 L 22.160133,31.978069 C 22.160133,31.978069 26.997745,27.140456 26.997745,27.140456 C 18.528582,18.264221 13.291696,25.230495 11.500037,31.436501 z"
             style="fill:#404040;"/>
          </a>
         </g>
        </svg>
</svg>
