<?xml version="1.0" encoding="UTF-8" standalone="no"?>
<!DOCTYPE svg PUBLIC "-//W3C//DTD SVG 1.1//EN"
 "http://www.w3.org/Graphics/SVG/1.1/DTD/svg11.dtd">
<!-- Generated by graphviz version 2.38.0 (20140413.2041)
 -->
<!-- Title: WordQuizzle.Session Pages: 1 -->
<svg width="717pt" height="711pt"
 viewBox="0.00 0.00 717.00 711.00" xmlns="http://www.w3.org/2000/svg" xmlns:xlink="http://www.w3.org/1999/xlink">
<g id="graph0" class="graph" transform="scale(1 1) rotate(0) translate(4 707)">
<title>WordQuizzle.Session</title>
<polygon fill="white" stroke="none" points="-4,4 -4,-707 713,-707 713,4 -4,4"/>
<!-- Node1 -->
<g id="node1" class="node"><title>Node1</title>
<g id="a_node1"><a xlink:title=" ">
<polygon fill="#bfbfbf" stroke="black" points="230.5,-0.5 230.5,-156.5 341.5,-156.5 341.5,-0.5 230.5,-0.5"/>
<text text-anchor="middle" x="286" y="-144.5" font-family="Helvetica,sans-Serif" font-size="10.00">WordQuizzle.Session</text>
<polyline fill="none" stroke="black" points="230.5,-137.5 341.5,-137.5 "/>
<text text-anchor="start" x="238.5" y="-125.5" font-family="Helvetica,sans-Serif" font-size="10.00">&#45; user</text>
<text text-anchor="start" x="238.5" y="-114.5" font-family="Helvetica,sans-Serif" font-size="10.00">&#45; response</text>
<text text-anchor="start" x="238.5" y="-103.5" font-family="Helvetica,sans-Serif" font-size="10.00">&#45; end</text>
<polyline fill="none" stroke="black" points="230.5,-96.5 341.5,-96.5 "/>
<text text-anchor="start" x="238.5" y="-84.5" font-family="Helvetica,sans-Serif" font-size="10.00">+ Session()</text>
<text text-anchor="start" x="238.5" y="-73.5" font-family="Helvetica,sans-Serif" font-size="10.00">+ getBfs()</text>
<text text-anchor="start" x="238.5" y="-62.5" font-family="Helvetica,sans-Serif" font-size="10.00">+ newBfs()</text>
<text text-anchor="start" x="238.5" y="-51.5" font-family="Helvetica,sans-Serif" font-size="10.00">+ getUser()</text>
<text text-anchor="start" x="238.5" y="-40.5" font-family="Helvetica,sans-Serif" font-size="10.00">+ getResponse()</text>
<text text-anchor="start" x="238.5" y="-29.5" font-family="Helvetica,sans-Serif" font-size="10.00">+ isTerminated()</text>
<text text-anchor="start" x="238.5" y="-18.5" font-family="Helvetica,sans-Serif" font-size="10.00">+ parse()</text>
<text text-anchor="start" x="238.5" y="-7.5" font-family="Helvetica,sans-Serif" font-size="10.00">&#45; compute()</text>
</a>
</g>
</g>
<!-- Node2 -->
<g id="node2" class="node"><title>Node2</title>
<g id="a_node2"><a xlink:title=" ">
<polygon fill="white" stroke="#bfbfbf" points="213,-281.5 213,-338.5 275,-338.5 275,-281.5 213,-281.5"/>
<text text-anchor="middle" x="244" y="-326.5" font-family="Helvetica,sans-Serif" font-size="10.00">ByteBuffer</text>
<polyline fill="none" stroke="#bfbfbf" points="213,-319.5 275,-319.5 "/>
<text text-anchor="middle" x="244" y="-307.5" font-family="Helvetica,sans-Serif" font-size="10.00"> </text>
<polyline fill="none" stroke="#bfbfbf" points="213,-300.5 275,-300.5 "/>
<text text-anchor="middle" x="244" y="-288.5" font-family="Helvetica,sans-Serif" font-size="10.00"> </text>
</a>
</g>
</g>
<!-- Node2&#45;&gt;Node1 -->
<g id="edge1" class="edge"><title>Node2&#45;&gt;Node1</title>
<path fill="none" stroke="#404040" d="M249.066,-281.317C254.178,-253.382 262.347,-208.747 269.704,-168.548"/>
<polygon fill="none" stroke="#404040" points="269.745,-168.32 266.891,-161.698 271.906,-156.516 274.76,-163.138 269.745,-168.32"/>
<text text-anchor="middle" x="277.5" y="-178" font-family="Helvetica,sans-Serif" font-size="10.00"> &#45;bfs</text>
</g>
<!-- Node3 -->
<g id="node3" class="node"><title>Node3</title>
<g id="a_node3"><a xlink:href="class_word_quizzle_1_1_word_quizzle_server_service.html" target="_top" xlink:title=" ">
<polygon fill="white" stroke="black" points="293.5,-204.5 293.5,-415.5 452.5,-415.5 452.5,-204.5 293.5,-204.5"/>
<text text-anchor="start" x="301.5" y="-403.5" font-family="Helvetica,sans-Serif" font-size="10.00">WordQuizzle.WordQuizzleServer</text>
<text text-anchor="middle" x="373" y="-392.5" font-family="Helvetica,sans-Serif" font-size="10.00">Service</text>
<polyline fill="none" stroke="black" points="293.5,-385.5 452.5,-385.5 "/>
<text text-anchor="start" x="301.5" y="-373.5" font-family="Helvetica,sans-Serif" font-size="10.00">&#45; K</text>
<text text-anchor="start" x="301.5" y="-362.5" font-family="Helvetica,sans-Serif" font-size="10.00">&#45; T1</text>
<text text-anchor="start" x="301.5" y="-351.5" font-family="Helvetica,sans-Serif" font-size="10.00">&#45; T2</text>
<text text-anchor="start" x="301.5" y="-340.5" font-family="Helvetica,sans-Serif" font-size="10.00">&#45; X</text>
<text text-anchor="start" x="301.5" y="-329.5" font-family="Helvetica,sans-Serif" font-size="10.00">&#45; Y</text>
<text text-anchor="start" x="301.5" y="-318.5" font-family="Helvetica,sans-Serif" font-size="10.00">&#45; Z</text>
<polyline fill="none" stroke="black" points="293.5,-311.5 452.5,-311.5 "/>
<text text-anchor="start" x="301.5" y="-299.5" font-family="Helvetica,sans-Serif" font-size="10.00">+ WordQuizzleServerService()</text>
<text text-anchor="start" x="301.5" y="-288.5" font-family="Helvetica,sans-Serif" font-size="10.00">+ login()</text>
<text text-anchor="start" x="301.5" y="-277.5" font-family="Helvetica,sans-Serif" font-size="10.00">+ logout()</text>
<text text-anchor="start" x="301.5" y="-266.5" font-family="Helvetica,sans-Serif" font-size="10.00">+ aggiungi_amico()</text>
<text text-anchor="start" x="301.5" y="-255.5" font-family="Helvetica,sans-Serif" font-size="10.00">+ lista_amici()</text>
<text text-anchor="start" x="301.5" y="-244.5" font-family="Helvetica,sans-Serif" font-size="10.00">+ mostra_punteggio()</text>
<text text-anchor="start" x="301.5" y="-233.5" font-family="Helvetica,sans-Serif" font-size="10.00">+ mostra_classifica()</text>
<text text-anchor="start" x="301.5" y="-222.5" font-family="Helvetica,sans-Serif" font-size="10.00">+ sfida()</text>
<text text-anchor="start" x="301.5" y="-211.5" font-family="Helvetica,sans-Serif" font-size="10.00">+ accettaSfida()</text>
</a>
</g>
</g>
<!-- Node3&#45;&gt;Node1 -->
<g id="edge2" class="edge"><title>Node3&#45;&gt;Node1</title>
<path fill="none" stroke="#404040" d="M333.319,-204.324C328.7,-192.14 324.023,-179.803 319.499,-167.869"/>
<polygon fill="none" stroke="#404040" points="319.469,-167.789 313.602,-163.597 315.216,-156.569 321.083,-160.761 319.469,-167.789"/>
<text text-anchor="middle" x="334.5" y="-178" font-family="Helvetica,sans-Serif" font-size="10.00"> &#45;wq</text>
</g>
<!-- Node4 -->
<g id="node4" class="node"><title>Node4</title>
<g id="a_node4"><a xlink:href="interface_word_quizzle_1_1_word_quizzle_service.html" target="_top" xlink:title=" ">
<polygon fill="white" stroke="black" points="0,-463.5 0,-597.5 164,-597.5 164,-463.5 0,-463.5"/>
<text text-anchor="middle" x="82" y="-585.5" font-family="Helvetica,sans-Serif" font-size="10.00">WordQuizzle.WordQuizzleService</text>
<polyline fill="none" stroke="black" points="0,-578.5 164,-578.5 "/>
<text text-anchor="middle" x="82" y="-566.5" font-family="Helvetica,sans-Serif" font-size="10.00"> </text>
<polyline fill="none" stroke="black" points="0,-559.5 164,-559.5 "/>
<text text-anchor="start" x="8" y="-547.5" font-family="Helvetica,sans-Serif" font-size="10.00">+ login()</text>
<text text-anchor="start" x="8" y="-536.5" font-family="Helvetica,sans-Serif" font-size="10.00">+ logout()</text>
<text text-anchor="start" x="8" y="-525.5" font-family="Helvetica,sans-Serif" font-size="10.00">+ aggiungi_amico()</text>
<text text-anchor="start" x="8" y="-514.5" font-family="Helvetica,sans-Serif" font-size="10.00">+ sfida()</text>
<text text-anchor="start" x="8" y="-503.5" font-family="Helvetica,sans-Serif" font-size="10.00">+ lista_amici()</text>
<text text-anchor="start" x="8" y="-492.5" font-family="Helvetica,sans-Serif" font-size="10.00">+ mostra_punteggio()</text>
<text text-anchor="start" x="8" y="-481.5" font-family="Helvetica,sans-Serif" font-size="10.00">+ mostra_classifica()</text>
<text text-anchor="start" x="8" y="-470.5" font-family="Helvetica,sans-Serif" font-size="10.00">+ accettaSfida()</text>
</a>
</g>
</g>
<!-- Node4&#45;&gt;Node3 -->
<g id="edge3" class="edge"><title>Node4&#45;&gt;Node3</title>
<path fill="none" stroke="midnightblue" d="M172.721,-463.159C172.814,-463.106 172.907,-463.053 173,-463 219.603,-436.576 240.841,-447.74 284,-416 287.176,-413.664 290.313,-411.193 293.402,-408.614"/>
<polygon fill="none" stroke="midnightblue" points="170.861,-460.192 164.026,-468.288 174.417,-466.221 170.861,-460.192"/>
</g>
<!-- Node5 -->
<g id="node5" class="node"><title>Node5</title>
<g id="a_node5"><a xlink:title=" ">
<polygon fill="white" stroke="#bfbfbf" points="182.5,-502 182.5,-559 271.5,-559 271.5,-502 182.5,-502"/>
<text text-anchor="middle" x="227" y="-547" font-family="Helvetica,sans-Serif" font-size="10.00">DatagramSocket</text>
<polyline fill="none" stroke="#bfbfbf" points="182.5,-540 271.5,-540 "/>
<text text-anchor="middle" x="227" y="-528" font-family="Helvetica,sans-Serif" font-size="10.00"> </text>
<polyline fill="none" stroke="#bfbfbf" points="182.5,-521 271.5,-521 "/>
<text text-anchor="middle" x="227" y="-509" font-family="Helvetica,sans-Serif" font-size="10.00"> </text>
</a>
</g>
</g>
<!-- Node5&#45;&gt;Node3 -->
<g id="edge4" class="edge"><title>Node5&#45;&gt;Node3</title>
<path fill="none" stroke="#404040" d="M245.491,-501.827C258.67,-482.104 277.355,-454.14 296.369,-425.684"/>
<polygon fill="none" stroke="#404040" points="296.433,-425.588 296.441,-418.377 303.1,-415.61 303.093,-422.821 296.433,-425.588"/>
<text text-anchor="middle" x="305" y="-437" font-family="Helvetica,sans-Serif" font-size="10.00"> &#45;socket</text>
</g>
<!-- Node6 -->
<g id="node6" class="node"><title>Node6</title>
<g id="a_node6"><a xlink:title=" ">
<polygon fill="white" stroke="#bfbfbf" points="289.5,-502 289.5,-559 456.5,-559 456.5,-502 289.5,-502"/>
<text text-anchor="middle" x="373" y="-547" font-family="Helvetica,sans-Serif" font-size="10.00">Map&lt; String, InetSocketAddress &gt;</text>
<polyline fill="none" stroke="#bfbfbf" points="289.5,-540 456.5,-540 "/>
<text text-anchor="middle" x="373" y="-528" font-family="Helvetica,sans-Serif" font-size="10.00"> </text>
<polyline fill="none" stroke="#bfbfbf" points="289.5,-521 456.5,-521 "/>
<text text-anchor="middle" x="373" y="-509" font-family="Helvetica,sans-Serif" font-size="10.00"> </text>
</a>
</g>
</g>
<!-- Node6&#45;&gt;Node3 -->
<g id="edge5" class="edge"><title>Node6&#45;&gt;Node3</title>
<path fill="none" stroke="#404040" d="M373,-501.827C373,-482.621 373,-455.6 373,-427.919"/>
<polygon fill="none" stroke="#404040" points="373,-427.61 369,-421.61 373,-415.61 377,-421.61 373,-427.61"/>
<text text-anchor="middle" x="388.5" y="-437" font-family="Helvetica,sans-Serif" font-size="10.00"> &#45;users</text>
</g>
<!-- Node7 -->
<g id="node7" class="node"><title>Node7</title>
<g id="a_node7"><a xlink:title=" ">
<polygon fill="white" stroke="#bfbfbf" points="355.5,-645.5 355.5,-702.5 390.5,-702.5 390.5,-645.5 355.5,-645.5"/>
<text text-anchor="middle" x="373" y="-690.5" font-family="Helvetica,sans-Serif" font-size="10.00">Map</text>
<polyline fill="none" stroke="#bfbfbf" points="355.5,-683.5 390.5,-683.5 "/>
<text text-anchor="middle" x="373" y="-671.5" font-family="Helvetica,sans-Serif" font-size="10.00"> </text>
<polyline fill="none" stroke="#bfbfbf" points="355.5,-664.5 390.5,-664.5 "/>
<text text-anchor="middle" x="373" y="-652.5" font-family="Helvetica,sans-Serif" font-size="10.00"> </text>
</a>
</g>
</g>
<!-- Node7&#45;&gt;Node6 -->
<g id="edge6" class="edge"><title>Node7&#45;&gt;Node6</title>
<path fill="none" stroke="orange" d="M373,-635.213C373,-611.234 373,-580.749 373,-559.049"/>
<polygon fill="orange" stroke="orange" points="369.5,-635.381 373,-645.381 376.5,-635.382 369.5,-635.381"/>
<text text-anchor="middle" x="441" y="-619" font-family="Helvetica,sans-Serif" font-size="10.00"> &lt; String, InetSocketAddress &gt;</text>
</g>
<!-- Node8 -->
<g id="node8" class="node"><title>Node8</title>
<g id="a_node8"><a xlink:href="interface_word_quizzle_1_1_data_base.html" target="_top" xlink:title="Database che gestisce gli utenti.">
<polygon fill="white" stroke="black" points="474.5,-480 474.5,-581 593.5,-581 593.5,-480 474.5,-480"/>
<text text-anchor="middle" x="534" y="-569" font-family="Helvetica,sans-Serif" font-size="10.00">WordQuizzle.DataBase</text>
<polyline fill="none" stroke="black" points="474.5,-562 593.5,-562 "/>
<text text-anchor="middle" x="534" y="-550" font-family="Helvetica,sans-Serif" font-size="10.00"> </text>
<polyline fill="none" stroke="black" points="474.5,-543 593.5,-543 "/>
<text text-anchor="start" x="482.5" y="-531" font-family="Helvetica,sans-Serif" font-size="10.00">+ checkUser()</text>
<text text-anchor="start" x="482.5" y="-520" font-family="Helvetica,sans-Serif" font-size="10.00">+ getUser()</text>
<text text-anchor="start" x="482.5" y="-509" font-family="Helvetica,sans-Serif" font-size="10.00">+ newUser()</text>
<text text-anchor="start" x="482.5" y="-498" font-family="Helvetica,sans-Serif" font-size="10.00">+ modifyScore()</text>
<text text-anchor="start" x="482.5" y="-487" font-family="Helvetica,sans-Serif" font-size="10.00">+ link()</text>
</a>
</g>
</g>
<!-- Node8&#45;&gt;Node3 -->
<g id="edge7" class="edge"><title>Node8&#45;&gt;Node3</title>
<path fill="none" stroke="#404040" d="M497.467,-479.919C485.403,-463.547 471.438,-444.595 457.317,-425.431"/>
<polygon fill="none" stroke="#404040" points="457.273,-425.371 450.494,-422.913 450.155,-415.71 456.934,-418.168 457.273,-425.371"/>
<text text-anchor="middle" x="475.5" y="-437" font-family="Helvetica,sans-Serif" font-size="10.00"> &#45;db</text>
</g>
<!-- Node9 -->
<g id="node9" class="node"><title>Node9</title>
<g id="a_node9"><a xlink:title=" ">
<polygon fill="white" stroke="#bfbfbf" points="612,-502 612,-559 704,-559 704,-502 612,-502"/>
<text text-anchor="middle" x="658" y="-547" font-family="Helvetica,sans-Serif" font-size="10.00">Vector&lt; Integer &gt;</text>
<polyline fill="none" stroke="#bfbfbf" points="612,-540 704,-540 "/>
<text text-anchor="middle" x="658" y="-528" font-family="Helvetica,sans-Serif" font-size="10.00"> </text>
<polyline fill="none" stroke="#bfbfbf" points="612,-521 704,-521 "/>
<text text-anchor="middle" x="658" y="-509" font-family="Helvetica,sans-Serif" font-size="10.00"> </text>
</a>
</g>
</g>
<!-- Node9&#45;&gt;Node3 -->
<g id="edge8" class="edge"><title>Node9&#45;&gt;Node3</title>
<path fill="none" stroke="#404040" d="M637.99,-501.681C628.218,-489.103 615.817,-474.514 603,-463 560.477,-424.802 507.574,-389.164 463.23,-362.01"/>
<polygon fill="none" stroke="#404040" points="462.999,-361.87 455.795,-362.178 452.74,-355.646 459.944,-355.338 462.999,-361.87"/>
<text text-anchor="middle" x="606.5" y="-437" font-family="Helvetica,sans-Serif" font-size="10.00"> &#45;challenges</text>
</g>
<!-- Node10 -->
<g id="node10" class="node"><title>Node10</title>
<g id="a_node10"><a xlink:title=" ">
<polygon fill="white" stroke="#bfbfbf" points="635.5,-645.5 635.5,-702.5 680.5,-702.5 680.5,-645.5 635.5,-645.5"/>
<text text-anchor="middle" x="658" y="-690.5" font-family="Helvetica,sans-Serif" font-size="10.00">Vector</text>
<polyline fill="none" stroke="#bfbfbf" points="635.5,-683.5 680.5,-683.5 "/>
<text text-anchor="middle" x="658" y="-671.5" font-family="Helvetica,sans-Serif" font-size="10.00"> </text>
<polyline fill="none" stroke="#bfbfbf" points="635.5,-664.5 680.5,-664.5 "/>
<text text-anchor="middle" x="658" y="-652.5" font-family="Helvetica,sans-Serif" font-size="10.00"> </text>
</a>
</g>
</g>
<!-- Node10&#45;&gt;Node9 -->
<g id="edge9" class="edge"><title>Node10&#45;&gt;Node9</title>
<path fill="none" stroke="orange" d="M658,-635.213C658,-611.234 658,-580.749 658,-559.049"/>
<polygon fill="orange" stroke="orange" points="654.5,-635.381 658,-645.381 661.5,-635.382 654.5,-635.381"/>
<text text-anchor="middle" x="683.5" y="-619" font-family="Helvetica,sans-Serif" font-size="10.00"> &lt; Integer &gt;</text>
</g>
</g>
</svg>
