<?xml version="1.0" encoding="UTF-8" standalone="no"?>
<!DOCTYPE svg PUBLIC "-//W3C//DTD SVG 1.1//EN"
 "http://www.w3.org/Graphics/SVG/1.1/DTD/svg11.dtd">
<!-- Generated by graphviz version 2.38.0 (20140413.2041)
 -->
<!-- Title: WordQuizzleClientService.send Pages: 1 -->
<svg width="349pt" height="66pt"
 viewBox="0.00 0.00 349.00 66.00" xmlns="http://www.w3.org/2000/svg" xmlns:xlink="http://www.w3.org/1999/xlink">
<g id="graph0" class="graph" transform="scale(1 1) rotate(0) translate(4 62)">
<title>WordQuizzleClientService.send</title>
<polygon fill="white" stroke="none" points="-4,4 -4,-62 345,-62 345,4 -4,4"/>
<!-- Node1 -->
<g id="node1" class="node"><title>Node1</title>
<g id="a_node1"><a xlink:title="Invia un messaggio al server e attende una sua risposta.">
<polygon fill="#bfbfbf" stroke="black" points="0,-19.5 0,-38.5 153,-38.5 153,-19.5 0,-19.5"/>
<text text-anchor="middle" x="76.5" y="-26.5" font-family="Helvetica,sans-Serif" font-size="10.00">WordQuizzleClientService.send</text>
</a>
</g>
</g>
<!-- Node2 -->
<g id="node2" class="node"><title>Node2</title>
<g id="a_node2"><a xlink:href="class_word_quizzle_client_service.html#a8aac188f30cdc3eefce8a82af8e17b64" target="_top" xlink:title="Ottiene un messaggio inviato dal server.">
<polygon fill="white" stroke="black" points="189.5,-38.5 189.5,-57.5 340.5,-57.5 340.5,-38.5 189.5,-38.5"/>
<text text-anchor="middle" x="265" y="-45.5" font-family="Helvetica,sans-Serif" font-size="10.00">WordQuizzleClientService.read</text>
</a>
</g>
</g>
<!-- Node1&#45;&gt;Node2 -->
<g id="edge1" class="edge"><title>Node1&#45;&gt;Node2</title>
<path fill="none" stroke="midnightblue" d="M153.088,-36.7006C161.651,-37.5731 170.421,-38.4665 179.094,-39.3501"/>
<polygon fill="midnightblue" stroke="midnightblue" points="178.909,-42.8493 189.213,-40.3809 179.619,-35.8853 178.909,-42.8493"/>
</g>
<!-- Node3 -->
<g id="node3" class="node"><title>Node3</title>
<g id="a_node3"><a xlink:href="class_word_quizzle_client_service.html#a7d2afa64e76c96cabcbcf48219517937" target="_top" xlink:title="Invia al server un messaggio.">
<polygon fill="white" stroke="black" points="189,-0.5 189,-19.5 341,-19.5 341,-0.5 189,-0.5"/>
<text text-anchor="middle" x="265" y="-7.5" font-family="Helvetica,sans-Serif" font-size="10.00">WordQuizzleClientService.write</text>
</a>
</g>
</g>
<!-- Node1&#45;&gt;Node3 -->
<g id="edge2" class="edge"><title>Node1&#45;&gt;Node3</title>
<path fill="none" stroke="midnightblue" d="M153.088,-21.2994C161.579,-20.4343 170.273,-19.5486 178.874,-18.6724"/>
<polygon fill="midnightblue" stroke="midnightblue" points="179.316,-22.1455 188.91,-17.6499 178.607,-15.1815 179.316,-22.1455"/>
</g>
</g>
</svg>
