<?xml version="1.0" encoding="UTF-8" standalone="no"?>
<!DOCTYPE svg PUBLIC "-//W3C//DTD SVG 1.1//EN"
 "http://www.w3.org/Graphics/SVG/1.1/DTD/svg11.dtd">
<!-- Generated by graphviz version 2.38.0 (20140413.2041)
 -->
<!-- Title: WordQuizzleServerService.mostra_punteggio Pages: 1 -->
<svg width="317pt" height="104pt"
 viewBox="0.00 0.00 317.00 104.00" xmlns="http://www.w3.org/2000/svg" xmlns:xlink="http://www.w3.org/1999/xlink">
<g id="graph0" class="graph" transform="scale(1 1) rotate(0) translate(4 100)">
<title>WordQuizzleServerService.mostra_punteggio</title>
<polygon fill="white" stroke="none" points="-4,4 -4,-100 313,-100 313,4 -4,4"/>
<!-- Node1 -->
<g id="node1" class="node"><title>Node1</title>
<g id="a_node1"><a xlink:title=" ">
<polygon fill="#bfbfbf" stroke="black" points="0,-33 0,-63 164,-63 164,-33 0,-33"/>
<text text-anchor="start" x="8" y="-51" font-family="Helvetica,sans-Serif" font-size="10.00">WordQuizzleServerService.mostra</text>
<text text-anchor="middle" x="82" y="-40" font-family="Helvetica,sans-Serif" font-size="10.00">_punteggio</text>
</a>
</g>
</g>
<!-- Node2 -->
<g id="node2" class="node"><title>Node2</title>
<g id="a_node2"><a xlink:href="interface_data_base.html#a580f93c56dbbed8b2fb1fc2e856efe68" target="_top" xlink:title="Controlla che quel nome utente sia nel database.">
<polygon fill="white" stroke="black" points="200,-76.5 200,-95.5 309,-95.5 309,-76.5 200,-76.5"/>
<text text-anchor="middle" x="254.5" y="-83.5" font-family="Helvetica,sans-Serif" font-size="10.00">DataBase.checkUser</text>
</a>
</g>
</g>
<!-- Node1&#45;&gt;Node2 -->
<g id="edge1" class="edge"><title>Node1&#45;&gt;Node2</title>
<path fill="none" stroke="midnightblue" d="M150.386,-63.0186C167.108,-66.7455 184.79,-70.6864 200.7,-74.2322"/>
<polygon fill="midnightblue" stroke="midnightblue" points="200.349,-77.7398 210.871,-76.4991 201.872,-70.9075 200.349,-77.7398"/>
</g>
<!-- Node3 -->
<g id="node3" class="node"><title>Node3</title>
<g id="a_node3"><a xlink:href="class_user.html#a81a02d4809c6da6252e322ea4229a4bb" target="_top" xlink:title="Restituisce il punteggio dell&#39;utente.">
<polygon fill="white" stroke="black" points="215,-38.5 215,-57.5 294,-57.5 294,-38.5 215,-38.5"/>
<text text-anchor="middle" x="254.5" y="-45.5" font-family="Helvetica,sans-Serif" font-size="10.00">User.getScore</text>
</a>
</g>
</g>
<!-- Node1&#45;&gt;Node3 -->
<g id="edge2" class="edge"><title>Node1&#45;&gt;Node3</title>
<path fill="none" stroke="midnightblue" d="M164.255,-48C178.059,-48 192.002,-48 204.634,-48"/>
<polygon fill="midnightblue" stroke="midnightblue" points="204.904,-51.5001 214.904,-48 204.904,-44.5001 204.904,-51.5001"/>
</g>
<!-- Node4 -->
<g id="node4" class="node"><title>Node4</title>
<g id="a_node4"><a xlink:href="interface_data_base.html#af660eaf16066006da658ac99fa3f6936" target="_top" xlink:title="Dato un nome utente ottiene l&#39;oggetto User corrispondente.">
<polygon fill="white" stroke="black" points="206.5,-0.5 206.5,-19.5 302.5,-19.5 302.5,-0.5 206.5,-0.5"/>
<text text-anchor="middle" x="254.5" y="-7.5" font-family="Helvetica,sans-Serif" font-size="10.00">DataBase.getUser</text>
</a>
</g>
</g>
<!-- Node1&#45;&gt;Node4 -->
<g id="edge3" class="edge"><title>Node1&#45;&gt;Node4</title>
<path fill="none" stroke="midnightblue" d="M150.386,-32.9814C167.108,-29.2545 184.79,-25.3136 200.7,-21.7678"/>
<polygon fill="midnightblue" stroke="midnightblue" points="201.872,-25.0925 210.871,-19.5009 200.349,-18.2602 201.872,-25.0925"/>
</g>
</g>
</svg>
