<?xml version="1.0" encoding="UTF-8" standalone="no"?>
<!DOCTYPE svg PUBLIC "-//W3C//DTD SVG 1.1//EN"
 "http://www.w3.org/Graphics/SVG/1.1/DTD/svg11.dtd">
<!-- Generated by graphviz version 2.38.0 (20140413.2041)
 -->
<!-- Title: Tester Pages: 1 -->
<svg width="67pt" height="215pt"
 viewBox="0.00 0.00 67.00 215.00" xmlns="http://www.w3.org/2000/svg" xmlns:xlink="http://www.w3.org/1999/xlink">
<g id="graph0" class="graph" transform="scale(1 1) rotate(0) translate(4 211)">
<title>Tester</title>
<polygon fill="white" stroke="none" points="-4,4 -4,-211 63,-211 63,4 -4,4"/>
<!-- Node1 -->
<g id="node1" class="node"><title>Node1</title>
<g id="a_node1"><a xlink:title="Classe che permette il testing delle funzionalita&#39; del server.">
<polygon fill="#bfbfbf" stroke="black" points="0,-0.5 0,-112.5 59,-112.5 59,-0.5 0,-0.5"/>
<text text-anchor="middle" x="29.5" y="-100.5" font-family="Helvetica,sans-Serif" font-size="10.00">Tester</text>
<polyline fill="none" stroke="black" points="0,-93.5 59,-93.5 "/>
<text text-anchor="start" x="8" y="-81.5" font-family="Helvetica,sans-Serif" font-size="10.00">&#45; user</text>
<text text-anchor="start" x="8" y="-70.5" font-family="Helvetica,sans-Serif" font-size="10.00">&#45; passw</text>
<text text-anchor="start" x="8" y="-59.5" font-family="Helvetica,sans-Serif" font-size="10.00">&#45; n</text>
<text text-anchor="start" x="8" y="-48.5" font-family="Helvetica,sans-Serif" font-size="10.00">&#45; id</text>
<text text-anchor="start" x="8" y="-37.5" font-family="Helvetica,sans-Serif" font-size="10.00">&#45; debug</text>
<polyline fill="none" stroke="black" points="0,-30.5 59,-30.5 "/>
<text text-anchor="start" x="8" y="-18.5" font-family="Helvetica,sans-Serif" font-size="10.00">+ Tester()</text>
<text text-anchor="start" x="8" y="-7.5" font-family="Helvetica,sans-Serif" font-size="10.00">+ run()</text>
</a>
</g>
</g>
<!-- Node2 -->
<g id="node2" class="node"><title>Node2</title>
<g id="a_node2"><a xlink:title=" ">
<polygon fill="white" stroke="#bfbfbf" points="1,-149.5 1,-206.5 58,-206.5 58,-149.5 1,-149.5"/>
<text text-anchor="middle" x="29.5" y="-194.5" font-family="Helvetica,sans-Serif" font-size="10.00">Runnable</text>
<polyline fill="none" stroke="#bfbfbf" points="1,-187.5 58,-187.5 "/>
<text text-anchor="middle" x="29.5" y="-175.5" font-family="Helvetica,sans-Serif" font-size="10.00"> </text>
<polyline fill="none" stroke="#bfbfbf" points="1,-168.5 58,-168.5 "/>
<text text-anchor="middle" x="29.5" y="-156.5" font-family="Helvetica,sans-Serif" font-size="10.00"> </text>
</a>
</g>
</g>
<!-- Node2&#45;&gt;Node1 -->
<g id="edge1" class="edge"><title>Node2&#45;&gt;Node1</title>
<path fill="none" stroke="midnightblue" d="M29.5,-139.108C29.5,-130.748 29.5,-121.725 29.5,-112.834"/>
<polygon fill="none" stroke="midnightblue" points="26.0001,-139.284 29.5,-149.284 33.0001,-139.284 26.0001,-139.284"/>
</g>
</g>
</svg>
