<?xml version="1.0" encoding="UTF-8" standalone="no"?>
<!DOCTYPE svg PUBLIC "-//W3C//DTD SVG 1.1//EN"
 "http://www.w3.org/Graphics/SVG/1.1/DTD/svg11.dtd">
<!-- Generated by graphviz version 2.38.0 (20140413.2041)
 -->
<!-- Title: WordQuizzle.Session.compute Pages: 1 -->
<!--zoomable 464 -->
<svg id="main" version="1.1" xmlns="http://www.w3.org/2000/svg" xmlns:xlink="http://www.w3.org/1999/xlink" xml:space="preserve" onload="init(evt)">
<style type="text/css"><![CDATA[
.edge:hover path { stroke: red; }
.edge:hover polygon { stroke: red; fill: red; }
]]></style>
<script type="text/javascript"><![CDATA[
var edges = document.getElementsByTagName('g');
if (edges && edges.length) {
  for (var i=0;i<edges.length;i++) {
    if (edges[i].id.substr(0,4)=='edge') {
      edges[i].setAttribute('class','edge');
    }
  }
}
]]></script>
        <defs>
                <circle id="rim" cx="0" cy="0" r="7"/>
                <circle id="rim2" cx="0" cy="0" r="3.5"/>
                <g id="zoomPlus">
                        <use xlink:href="#rim" fill="#404040">
                                <set attributeName="fill" to="#808080" begin="zoomplus.mouseover" end="zoomplus.mouseout"/>
                        </use>
                        <path d="M-4,0h8M0,-4v8" fill="none" stroke="white" stroke-width="1.5" pointer-events="none"/>
                </g>
                <g id="zoomMin">
                        <use xlink:href="#rim" fill="#404040">
                                <set attributeName="fill" to="#808080" begin="zoomminus.mouseover" end="zoomminus.mouseout"/>
                        </use>
                        <path d="M-4,0h8" fill="none" stroke="white" stroke-width="1.5" pointer-events="none"/>
                </g>
                <g id="dirArrow">
                        <path fill="none" stroke="white" stroke-width="1.5" d="M0,-3.0v7 M-2.5,-0.5L0,-3.0L2.5,-0.5"/>
                </g>
               <g id="resetDef">
                       <use xlink:href="#rim2" fill="#404040">
                               <set attributeName="fill" to="#808080" begin="reset.mouseover" end="reset.mouseout"/>
                       </use>
               </g>
        </defs>

<script type="text/javascript">
var viewWidth = 961;
var viewHeight = 464;
var sectionId = 'dynsection-1';
</script>
<script xlink:href="svgpan.js"/>
<svg id="graph" class="graph">
<g id="viewport">
<title>WordQuizzle.Session.compute</title>
<polygon fill="white" stroke="none" points="-4,4 -4,-460 957,-460 957,4 -4,4"/>
<!-- Node1 -->
<g id="node1" class="node"><title>Node1</title>
<g id="a_node1"><a xlink:title="Gestisce effettivamente la richiesta del client.">
<polygon fill="#bfbfbf" stroke="black" points="0,-242.5 0,-261.5 152,-261.5 152,-242.5 0,-242.5"/>
<text text-anchor="middle" x="76" y="-249.5" font-family="Helvetica,sans-Serif" font-size="10.00">WordQuizzle.Session.compute</text>
</a>
</g>
</g>
<!-- Node2 -->
<g id="node2" class="node"><title>Node2</title>
<g id="a_node2"><a xlink:href="class_word_quizzle_1_1_word_quizzle_server_service.html#aebc8c566d10a0d24752a33f146f03a2a" target="_top" xlink:title="Accetta una richiesta di sfida inviata da nickAmico.">
<polygon fill="white" stroke="black" points="188,-115 188,-145 347,-145 347,-115 188,-115"/>
<text text-anchor="start" x="196" y="-133" font-family="Helvetica,sans-Serif" font-size="10.00">WordQuizzle.WordQuizzleServer</text>
<text text-anchor="middle" x="267.5" y="-122" font-family="Helvetica,sans-Serif" font-size="10.00">Service.accettaSfida</text>
</a>
</g>
</g>
<!-- Node1&#45;&gt;Node2 -->
<g id="edge1" class="edge"><title>Node1&#45;&gt;Node2</title>
<path fill="none" stroke="midnightblue" d="M85.1874,-242.427C102.321,-222.975 144.026,-178.597 188,-154 191.238,-152.189 194.629,-150.498 198.108,-148.922"/>
<polygon fill="midnightblue" stroke="midnightblue" points="199.599,-152.092 207.481,-145.012 196.904,-145.632 199.599,-152.092"/>
</g>
<!-- Node14 -->
<g id="node14" class="node"><title>Node14</title>
<g id="a_node14"><a xlink:href="class_word_quizzle_1_1_word_quizzle_server_service.html#a1f28542d2118fba0a19061d5acf603ec" target="_top" xlink:title="Aggiunge un utente alla lista di amici di nickUtente.">
<polygon fill="white" stroke="black" points="188,-409 188,-439 347,-439 347,-409 188,-409"/>
<text text-anchor="start" x="196" y="-427" font-family="Helvetica,sans-Serif" font-size="10.00">WordQuizzle.WordQuizzleServer</text>
<text text-anchor="middle" x="267.5" y="-416" font-family="Helvetica,sans-Serif" font-size="10.00">Service.aggiungi_amico</text>
</a>
</g>
</g>
<!-- Node1&#45;&gt;Node14 -->
<g id="edge13" class="edge"><title>Node1&#45;&gt;Node14</title>
<path fill="none" stroke="midnightblue" d="M81.4766,-261.61C94.2175,-287.904 133.32,-361.62 188,-400 190.143,-401.504 192.383,-402.917 194.695,-404.242"/>
<polygon fill="midnightblue" stroke="midnightblue" points="193.416,-407.518 203.916,-408.935 196.591,-401.28 193.416,-407.518"/>
</g>
<!-- Node16 -->
<g id="node16" class="node"><title>Node16</title>
<g id="a_node16"><a xlink:href="class_word_quizzle_1_1_word_quizzle_server_service.html#a198417a123b189dd75e88d3e969cd11d" target="_top" xlink:title="Restituisce la lista degli amici di nickUtente.">
<polygon fill="white" stroke="black" points="188,-311 188,-341 347,-341 347,-311 188,-311"/>
<text text-anchor="start" x="196" y="-329" font-family="Helvetica,sans-Serif" font-size="10.00">WordQuizzle.WordQuizzleServer</text>
<text text-anchor="middle" x="267.5" y="-318" font-family="Helvetica,sans-Serif" font-size="10.00">Service.lista_amici</text>
</a>
</g>
</g>
<!-- Node1&#45;&gt;Node16 -->
<g id="edge16" class="edge"><title>Node1&#45;&gt;Node16</title>
<path fill="none" stroke="midnightblue" d="M96.3358,-261.612C118.239,-272.287 155.163,-289.641 188,-302 193.168,-303.945 198.571,-305.851 204.018,-307.686"/>
<polygon fill="midnightblue" stroke="midnightblue" points="203.237,-311.113 213.83,-310.903 205.418,-304.462 203.237,-311.113"/>
</g>
<!-- Node18 -->
<g id="node18" class="node"><title>Node18</title>
<g id="a_node18"><a xlink:href="class_word_quizzle_1_1_word_quizzle_server_service.html#a4f338d0b1c7bbf662fc0e40844cf5c33" target="_top" xlink:title="Effettua il login specificando l&#39;indirizzo per la connessione UDP.">
<polygon fill="white" stroke="black" points="188,-360 188,-390 347,-390 347,-360 188,-360"/>
<text text-anchor="start" x="196" y="-378" font-family="Helvetica,sans-Serif" font-size="10.00">WordQuizzle.WordQuizzleServer</text>
<text text-anchor="middle" x="267.5" y="-367" font-family="Helvetica,sans-Serif" font-size="10.00">Service.login</text>
</a>
</g>
</g>
<!-- Node1&#45;&gt;Node18 -->
<g id="edge20" class="edge"><title>Node1&#45;&gt;Node18</title>
<path fill="none" stroke="midnightblue" d="M85.1652,-261.676C102.258,-281.335 143.892,-326.182 188,-351 191.074,-352.73 194.287,-354.349 197.584,-355.864"/>
<polygon fill="midnightblue" stroke="midnightblue" points="196.477,-359.195 207.051,-359.858 199.198,-352.746 196.477,-359.195"/>
</g>
<!-- Node21 -->
<g id="node21" class="node"><title>Node21</title>
<g id="a_node21"><a xlink:href="class_word_quizzle_1_1_word_quizzle_server_service.html#ac79f01637184c2916b5381056f5d36e7" target="_top" xlink:title="Effettua il logout.">
<polygon fill="white" stroke="black" points="188,-66 188,-96 347,-96 347,-66 188,-66"/>
<text text-anchor="start" x="196" y="-84" font-family="Helvetica,sans-Serif" font-size="10.00">WordQuizzle.WordQuizzleServer</text>
<text text-anchor="middle" x="267.5" y="-73" font-family="Helvetica,sans-Serif" font-size="10.00">Service.logout</text>
</a>
</g>
</g>
<!-- Node1&#45;&gt;Node21 -->
<g id="edge25" class="edge"><title>Node1&#45;&gt;Node21</title>
<path fill="none" stroke="midnightblue" d="M81.4949,-242.455C94.2828,-216.34 133.494,-143.126 188,-105 190.146,-103.499 192.388,-102.09 194.702,-100.767"/>
<polygon fill="midnightblue" stroke="midnightblue" points="196.596,-103.731 203.928,-96.0819 193.427,-97.4893 196.596,-103.731"/>
</g>
<!-- Node22 -->
<g id="node22" class="node"><title>Node22</title>
<g id="a_node22"><a xlink:href="class_word_quizzle_1_1_word_quizzle_server_service.html#ad212848f8436aaf885c017463458d2f4" target="_top" xlink:title="Restituisce la classifica dell&#39;utente e dei suoi amici.">
<polygon fill="white" stroke="black" points="188,-262 188,-292 347,-292 347,-262 188,-262"/>
<text text-anchor="start" x="196" y="-280" font-family="Helvetica,sans-Serif" font-size="10.00">WordQuizzle.WordQuizzleServer</text>
<text text-anchor="middle" x="267.5" y="-269" font-family="Helvetica,sans-Serif" font-size="10.00">Service.mostra_classifica</text>
</a>
</g>
</g>
<!-- Node1&#45;&gt;Node22 -->
<g id="edge26" class="edge"><title>Node1&#45;&gt;Node22</title>
<path fill="none" stroke="midnightblue" d="M149.182,-261.523C158.576,-262.762 168.283,-264.043 177.905,-265.312"/>
<polygon fill="midnightblue" stroke="midnightblue" points="177.513,-268.791 187.885,-266.629 178.429,-261.851 177.513,-268.791"/>
</g>
<!-- Node24 -->
<g id="node24" class="node"><title>Node24</title>
<g id="a_node24"><a xlink:href="class_word_quizzle_1_1_word_quizzle_server_service.html#a45a270251f3ca3e1595ceddf56fbe041" target="_top" xlink:title="Restituisce il punteggio di nickUtente.">
<polygon fill="white" stroke="black" points="188,-213 188,-243 347,-243 347,-213 188,-213"/>
<text text-anchor="start" x="196" y="-231" font-family="Helvetica,sans-Serif" font-size="10.00">WordQuizzle.WordQuizzleServer</text>
<text text-anchor="middle" x="267.5" y="-220" font-family="Helvetica,sans-Serif" font-size="10.00">Service.mostra_punteggio</text>
</a>
</g>
</g>
<!-- Node1&#45;&gt;Node24 -->
<g id="edge31" class="edge"><title>Node1&#45;&gt;Node24</title>
<path fill="none" stroke="midnightblue" d="M152.168,-242.48C160.56,-241.417 169.167,-240.327 177.71,-239.245"/>
<polygon fill="midnightblue" stroke="midnightblue" points="178.21,-242.71 187.691,-237.981 177.33,-235.765 178.21,-242.71"/>
</g>
<!-- Node25 -->
<g id="node25" class="node"><title>Node25</title>
<g id="a_node25"><a xlink:href="class_word_quizzle_1_1_word_quizzle_server_service.html#aee4ec771e269748e727002f9fa02e8a0" target="_top" xlink:title="Invia una richiesta di sfida ad un amico di nickUtente.">
<polygon fill="white" stroke="black" points="188,-164 188,-194 347,-194 347,-164 188,-164"/>
<text text-anchor="start" x="196" y="-182" font-family="Helvetica,sans-Serif" font-size="10.00">WordQuizzle.WordQuizzleServer</text>
<text text-anchor="middle" x="267.5" y="-171" font-family="Helvetica,sans-Serif" font-size="10.00">Service.sfida</text>
</a>
</g>
</g>
<!-- Node1&#45;&gt;Node25 -->
<g id="edge35" class="edge"><title>Node1&#45;&gt;Node25</title>
<path fill="none" stroke="midnightblue" d="M97.6144,-242.349C119.713,-232.178 155.95,-215.999 188,-204 193.977,-201.762 200.256,-199.545 206.55,-197.409"/>
<polygon fill="midnightblue" stroke="midnightblue" points="208.027,-200.606 216.411,-194.128 205.817,-193.964 208.027,-200.606"/>
</g>
<!-- Node3 -->
<g id="node3" class="node"><title>Node3</title>
<g id="a_node3"><a xlink:href="interface_word_quizzle_1_1_data_base.html#a256d6e7e3541d11a9ff219431066a7d5" target="_top" xlink:title="Controlla che quel nome utente sia nel database.">
<polygon fill="white" stroke="black" points="383,-284.5 383,-303.5 551,-303.5 551,-284.5 383,-284.5"/>
<text text-anchor="middle" x="467" y="-291.5" font-family="Helvetica,sans-Serif" font-size="10.00">WordQuizzle.DataBase.checkUser</text>
</a>
</g>
</g>
<!-- Node2&#45;&gt;Node3 -->
<g id="edge2" class="edge"><title>Node2&#45;&gt;Node3</title>
<path fill="none" stroke="midnightblue" d="M335.513,-145.084C339.695,-147.612 343.587,-150.561 347,-154 386.524,-193.823 342.074,-236.619 383,-275 384.665,-276.561 386.43,-278.003 388.279,-279.334"/>
<polygon fill="midnightblue" stroke="midnightblue" points="386.483,-282.339 396.857,-284.491 390.09,-276.339 386.483,-282.339"/>
</g>
<!-- Node4 -->
<g id="node4" class="node"><title>Node4</title>
<g id="a_node4"><a xlink:href="class_word_quizzle_1_1_challenge.html#a5c11b31b9fe597b760b5b4817d1c0dc0" target="_top" xlink:title="Restituisce il tempo di creazione della sfida.">
<polygon fill="white" stroke="black" points="399.5,-159 399.5,-189 534.5,-189 534.5,-159 399.5,-159"/>
<text text-anchor="start" x="407.5" y="-177" font-family="Helvetica,sans-Serif" font-size="10.00">WordQuizzle.Challenge.get</text>
<text text-anchor="middle" x="467" y="-166" font-family="Helvetica,sans-Serif" font-size="10.00">StartTime</text>
</a>
</g>
</g>
<!-- Node2&#45;&gt;Node4 -->
<g id="edge3" class="edge"><title>Node2&#45;&gt;Node4</title>
<path fill="none" stroke="midnightblue" d="M335.916,-145.019C353.011,-148.828 371.503,-152.947 389.031,-156.853"/>
<polygon fill="midnightblue" stroke="midnightblue" points="388.701,-160.365 399.223,-159.123 390.223,-153.532 388.701,-160.365"/>
</g>
<!-- Node5 -->
<g id="node5" class="node"><title>Node5</title>
<g id="a_node5"><a xlink:href="interface_word_quizzle_1_1_data_base.html#a987acacce768d19e4551b5b3a508ccf3" target="_top" xlink:title="Dato un nome utente ottiene l&#39;oggetto User corrispondente.">
<polygon fill="white" stroke="black" points="389.5,-246.5 389.5,-265.5 544.5,-265.5 544.5,-246.5 389.5,-246.5"/>
<text text-anchor="middle" x="467" y="-253.5" font-family="Helvetica,sans-Serif" font-size="10.00">WordQuizzle.DataBase.getUser</text>
</a>
</g>
</g>
<!-- Node2&#45;&gt;Node5 -->
<g id="edge4" class="edge"><title>Node2&#45;&gt;Node5</title>
<path fill="none" stroke="midnightblue" d="M334.303,-145.137C338.872,-147.651 343.174,-150.582 347,-154 376.986,-180.788 352.073,-211.303 383,-237 384.99,-238.653 387.095,-240.169 389.292,-241.559"/>
<polygon fill="midnightblue" stroke="midnightblue" points="387.693,-244.673 398.159,-246.317 391.002,-238.505 387.693,-244.673"/>
</g>
<!-- Node6 -->
<g id="node6" class="node"><title>Node6</title>
<g id="a_node6"><a xlink:href="class_word_quizzle_1_1_user.html#a3cb7161060a60e47d7d9437bed21b888" target="_top" xlink:title="Verifica se un nome utente e&#39; amico dell&#39;utente.">
<polygon fill="white" stroke="black" points="400,-120.5 400,-139.5 534,-139.5 534,-120.5 400,-120.5"/>
<text text-anchor="middle" x="467" y="-127.5" font-family="Helvetica,sans-Serif" font-size="10.00">WordQuizzle.User.isFriend</text>
</a>
</g>
</g>
<!-- Node2&#45;&gt;Node6 -->
<g id="edge5" class="edge"><title>Node2&#45;&gt;Node6</title>
<path fill="none" stroke="midnightblue" d="M347.125,-130C361.148,-130 375.736,-130 389.693,-130"/>
<polygon fill="midnightblue" stroke="midnightblue" points="389.727,-133.5 399.727,-130 389.727,-126.5 389.727,-133.5"/>
</g>
<!-- Node7 -->
<g id="node7" class="node"><title>Node7</title>
<g id="a_node7"><a xlink:href="class_word_quizzle_1_1_challenge.html#ad9edc220ce2d24274149ab8c6a564a0a" target="_top" xlink:title="Aggiunge l&#39;utente sfidato alla sfida e la avvia.">
<polygon fill="white" stroke="black" points="399.5,-71 399.5,-101 534.5,-101 534.5,-71 399.5,-71"/>
<text text-anchor="start" x="407.5" y="-89" font-family="Helvetica,sans-Serif" font-size="10.00">WordQuizzle.Challenge.set</text>
<text text-anchor="middle" x="467" y="-78" font-family="Helvetica,sans-Serif" font-size="10.00">Player2</text>
</a>
</g>
</g>
<!-- Node2&#45;&gt;Node7 -->
<g id="edge6" class="edge"><title>Node2&#45;&gt;Node7</title>
<path fill="none" stroke="midnightblue" d="M335.916,-114.981C353.011,-111.172 371.503,-107.053 389.031,-103.147"/>
<polygon fill="midnightblue" stroke="midnightblue" points="390.223,-106.468 399.223,-100.877 388.701,-99.6353 390.223,-106.468"/>
</g>
<!-- Node8 -->
<g id="node8" class="node"><title>Node8</title>
<g id="a_node8"><a xlink:href="class_word_quizzle_1_1_session.html#ac7d5ff28ffd9355eea98b9f66c3c19cd" target="_top" xlink:title="Restituisce la socket del client.">
<polygon fill="white" stroke="black" points="596.5,-152.5 596.5,-171.5 748.5,-171.5 748.5,-152.5 596.5,-152.5"/>
<text text-anchor="middle" x="672.5" y="-159.5" font-family="Helvetica,sans-Serif" font-size="10.00">WordQuizzle.Session.getClient</text>
</a>
</g>
</g>
<!-- Node7&#45;&gt;Node8 -->
<g id="edge7" class="edge"><title>Node7&#45;&gt;Node8</title>
<path fill="none" stroke="midnightblue" d="M529.104,-101.052C536.688,-103.884 544.169,-107.182 551,-111 569.687,-121.443 567.952,-133.23 587,-143 591.647,-145.384 596.589,-147.47 601.66,-149.296"/>
<polygon fill="midnightblue" stroke="midnightblue" points="600.935,-152.74 611.527,-152.497 603.095,-146.082 600.935,-152.74"/>
</g>
<!-- Node9 -->
<g id="node9" class="node"><title>Node9</title>
<g id="a_node9"><a xlink:href="class_word_quizzle_1_1_player.html#a5df71a0f2196e8ee3bfff3bc232f4669" target="_top" xlink:title="Restituisce l&#39;indice della prossima domanda da sottoporre al giocatore.">
<polygon fill="white" stroke="black" points="602.5,-114.5 602.5,-133.5 742.5,-133.5 742.5,-114.5 602.5,-114.5"/>
<text text-anchor="middle" x="672.5" y="-121.5" font-family="Helvetica,sans-Serif" font-size="10.00">WordQuizzle.Player.getNext</text>
</a>
</g>
</g>
<!-- Node7&#45;&gt;Node9 -->
<g id="edge8" class="edge"><title>Node7&#45;&gt;Node9</title>
<path fill="none" stroke="midnightblue" d="M534.634,-98.4426C559.077,-103.007 586.603,-108.147 610.526,-112.614"/>
<polygon fill="midnightblue" stroke="midnightblue" points="610.066,-116.089 620.538,-114.484 611.351,-109.208 610.066,-116.089"/>
</g>
<!-- Node11 -->
<g id="node11" class="node"><title>Node11</title>
<g id="a_node11"><a xlink:href="class_word_quizzle_1_1_player.html#a1f8fc44dbae0c22017e5d4e435fa5bc0" target="_top" xlink:title="Restituisce la sessione del giocatore.">
<polygon fill="white" stroke="black" points="595,-76.5 595,-95.5 750,-95.5 750,-76.5 595,-76.5"/>
<text text-anchor="middle" x="672.5" y="-83.5" font-family="Helvetica,sans-Serif" font-size="10.00">WordQuizzle.Player.getSession</text>
</a>
</g>
</g>
<!-- Node7&#45;&gt;Node11 -->
<g id="edge10" class="edge"><title>Node7&#45;&gt;Node11</title>
<path fill="none" stroke="midnightblue" d="M534.634,-86C550.568,-86 567.813,-86 584.515,-86"/>
<polygon fill="midnightblue" stroke="midnightblue" points="584.828,-89.5001 594.828,-86 584.828,-82.5001 584.828,-89.5001"/>
</g>
<!-- Node12 -->
<g id="node12" class="node"><title>Node12</title>
<g id="a_node12"><a xlink:href="class_word_quizzle_1_1_session.html#a26ad2a090660e09b1416cd530fdf1e9a" target="_top" xlink:title="Imposta la risposta da inviare al client.">
<polygon fill="white" stroke="black" points="587,-38.5 587,-57.5 758,-57.5 758,-38.5 587,-38.5"/>
<text text-anchor="middle" x="672.5" y="-45.5" font-family="Helvetica,sans-Serif" font-size="10.00">WordQuizzle.Session.setResponse</text>
</a>
</g>
</g>
<!-- Node7&#45;&gt;Node12 -->
<g id="edge11" class="edge"><title>Node7&#45;&gt;Node12</title>
<path fill="none" stroke="midnightblue" d="M534.634,-73.5574C559.077,-68.9929 586.603,-63.853 610.526,-59.3859"/>
<polygon fill="midnightblue" stroke="midnightblue" points="611.351,-62.7924 620.538,-57.5162 610.066,-55.9114 611.351,-62.7924"/>
</g>
<!-- Node13 -->
<g id="node13" class="node"><title>Node13</title>
<g id="a_node13"><a xlink:href="class_word_quizzle_1_1_translator.html#a9fcad4b807785c63c72bc85f672fb635" target="_top" xlink:title="Traduce una parola dall&#39;italiano all&#39;inglese.">
<polygon fill="white" stroke="black" points="593,-0.5 593,-19.5 752,-19.5 752,-0.5 593,-0.5"/>
<text text-anchor="middle" x="672.5" y="-7.5" font-family="Helvetica,sans-Serif" font-size="10.00">WordQuizzle.Translator.translate</text>
</a>
</g>
</g>
<!-- Node7&#45;&gt;Node13 -->
<g id="edge12" class="edge"><title>Node7&#45;&gt;Node13</title>
<path fill="none" stroke="midnightblue" d="M495.143,-70.8208C518.791,-58.1315 554.321,-40.3375 587,-29 594.575,-26.3722 602.66,-24.0147 610.714,-21.9291"/>
<polygon fill="midnightblue" stroke="midnightblue" points="611.615,-25.3118 620.487,-19.5199 609.939,-18.5153 611.615,-25.3118"/>
</g>
<!-- Node10 -->
<g id="node10" class="node"><title>Node10</title>
<g id="a_node10"><a xlink:href="class_word_quizzle_1_1_word_quizzle_server_service.html#a970fe0e2dd7457bab2c64ae722a912fc" target="_top" xlink:title="Restituisce il numero di parole per sfida.">
<polygon fill="white" stroke="black" points="794,-109 794,-139 953,-139 953,-109 794,-109"/>
<text text-anchor="start" x="802" y="-127" font-family="Helvetica,sans-Serif" font-size="10.00">WordQuizzle.WordQuizzleServer</text>
<text text-anchor="middle" x="873.5" y="-116" font-family="Helvetica,sans-Serif" font-size="10.00">Service.getK</text>
</a>
</g>
</g>
<!-- Node9&#45;&gt;Node10 -->
<g id="edge9" class="edge"><title>Node9&#45;&gt;Node10</title>
<path fill="none" stroke="midnightblue" d="M742.542,-124C755.692,-124 769.627,-124 783.301,-124"/>
<polygon fill="midnightblue" stroke="midnightblue" points="783.688,-127.5 793.688,-124 783.688,-120.5 783.688,-127.5"/>
</g>
<!-- Node14&#45;&gt;Node3 -->
<g id="edge14" class="edge"><title>Node14&#45;&gt;Node3</title>
<path fill="none" stroke="midnightblue" d="M334.367,-408.935C338.922,-406.405 343.203,-403.45 347,-400 377.97,-371.858 351.041,-340.014 383,-313 384.976,-311.33 387.069,-309.8 389.255,-308.397"/>
<polygon fill="midnightblue" stroke="midnightblue" points="390.972,-311.448 398.091,-303.601 387.632,-305.296 390.972,-311.448"/>
</g>
<!-- Node15 -->
<g id="node15" class="node"><title>Node15</title>
<g id="a_node15"><a xlink:href="interface_word_quizzle_1_1_data_base.html#a2128ed726158cf0961972a99ac83b9a8" target="_top" xlink:title="Crea un link (amicizia) non orientato tra due utenti.">
<polygon fill="white" stroke="black" points="398.5,-436.5 398.5,-455.5 535.5,-455.5 535.5,-436.5 398.5,-436.5"/>
<text text-anchor="middle" x="467" y="-443.5" font-family="Helvetica,sans-Serif" font-size="10.00">WordQuizzle.DataBase.link</text>
</a>
</g>
</g>
<!-- Node14&#45;&gt;Node15 -->
<g id="edge15" class="edge"><title>Node14&#45;&gt;Node15</title>
<path fill="none" stroke="midnightblue" d="M347.125,-432.758C360.669,-434.267 374.74,-435.834 388.26,-437.34"/>
<polygon fill="midnightblue" stroke="midnightblue" points="388.148,-440.849 398.474,-438.478 388.923,-433.892 388.148,-440.849"/>
</g>
<!-- Node16&#45;&gt;Node3 -->
<g id="edge17" class="edge"><title>Node16&#45;&gt;Node3</title>
<path fill="none" stroke="midnightblue" d="M347.125,-313.261C363.694,-310.576 381.053,-307.764 397.226,-305.143"/>
<polygon fill="midnightblue" stroke="midnightblue" points="397.814,-308.594 407.126,-303.539 396.695,-301.684 397.814,-308.594"/>
</g>
<!-- Node16&#45;&gt;Node5 -->
<g id="edge19" class="edge"><title>Node16&#45;&gt;Node5</title>
<path fill="none" stroke="midnightblue" d="M326.013,-310.963C333.232,-308.34 340.393,-305.357 347,-302 364.83,-292.94 364.856,-283.415 383,-275 388.326,-272.53 393.998,-270.368 399.779,-268.48"/>
<polygon fill="midnightblue" stroke="midnightblue" points="400.993,-271.77 409.571,-265.553 398.988,-265.064 400.993,-271.77"/>
</g>
<!-- Node17 -->
<g id="node17" class="node"><title>Node17</title>
<g id="a_node17"><a xlink:href="class_word_quizzle_1_1_user.html#a8a3e0c4b349c4e6bf825bc84c179c36b" target="_top" xlink:title="Restituisce la lista di amici dell&#39;utente.">
<polygon fill="white" stroke="black" points="394.5,-322.5 394.5,-341.5 539.5,-341.5 539.5,-322.5 394.5,-322.5"/>
<text text-anchor="middle" x="467" y="-329.5" font-family="Helvetica,sans-Serif" font-size="10.00">WordQuizzle.User.getFriends</text>
</a>
</g>
</g>
<!-- Node16&#45;&gt;Node17 -->
<g id="edge18" class="edge"><title>Node16&#45;&gt;Node17</title>
<path fill="none" stroke="midnightblue" d="M347.125,-328.389C359.311,-328.759 371.923,-329.142 384.178,-329.514"/>
<polygon fill="midnightblue" stroke="midnightblue" points="384.268,-333.019 394.37,-329.824 384.481,-326.022 384.268,-333.019"/>
</g>
<!-- Node18&#45;&gt;Node3 -->
<g id="edge21" class="edge"><title>Node18&#45;&gt;Node3</title>
<path fill="none" stroke="midnightblue" d="M329.465,-359.846C335.587,-357.308 341.548,-354.377 347,-351 366.778,-338.75 362.796,-324.534 383,-313 386.934,-310.754 391.115,-308.774 395.427,-307.028"/>
<polygon fill="midnightblue" stroke="midnightblue" points="396.813,-310.249 405.035,-303.567 394.44,-303.663 396.813,-310.249"/>
</g>
<!-- Node18&#45;&gt;Node5 -->
<g id="edge23" class="edge"><title>Node18&#45;&gt;Node5</title>
<path fill="none" stroke="midnightblue" d="M333.795,-359.928C338.534,-357.4 343.01,-354.447 347,-351 375.282,-326.565 353.861,-298.406 383,-275 385.067,-273.339 387.252,-271.818 389.528,-270.425"/>
<polygon fill="midnightblue" stroke="midnightblue" points="391.44,-273.376 398.703,-265.663 388.215,-267.163 391.44,-273.376"/>
</g>
<!-- Node19 -->
<g id="node19" class="node"><title>Node19</title>
<g id="a_node19"><a xlink:href="class_word_quizzle_1_1_user.html#ab3df921fe5bcada15672f146592dbc3f" target="_top" xlink:title="Restituisce la password dell&#39;utente.">
<polygon fill="white" stroke="black" points="389.5,-398.5 389.5,-417.5 544.5,-417.5 544.5,-398.5 389.5,-398.5"/>
<text text-anchor="middle" x="467" y="-405.5" font-family="Helvetica,sans-Serif" font-size="10.00">WordQuizzle.User.getPassword</text>
</a>
</g>
</g>
<!-- Node18&#45;&gt;Node19 -->
<g id="edge22" class="edge"><title>Node18&#45;&gt;Node19</title>
<path fill="none" stroke="midnightblue" d="M347.125,-388.137C364.229,-390.995 382.174,-393.994 398.788,-396.77"/>
<polygon fill="midnightblue" stroke="midnightblue" points="398.501,-400.27 408.941,-398.466 399.655,-393.366 398.501,-400.27"/>
</g>
<!-- Node20 -->
<g id="node20" class="node"><title>Node20</title>
<g id="a_node20"><a xlink:href="class_word_quizzle_1_1_session.html#aebb0096afea4c87b3a80fc17fd019c2c" target="_top" xlink:title="Imposta l&#39;indirizzo UDP del client a cui inviare le richieste di sfida.">
<polygon fill="white" stroke="black" points="394.5,-360.5 394.5,-379.5 539.5,-379.5 539.5,-360.5 394.5,-360.5"/>
<text text-anchor="middle" x="467" y="-367.5" font-family="Helvetica,sans-Serif" font-size="10.00">WordQuizzle.Session.setUdp</text>
</a>
</g>
</g>
<!-- Node18&#45;&gt;Node20 -->
<g id="edge24" class="edge"><title>Node18&#45;&gt;Node20</title>
<path fill="none" stroke="midnightblue" d="M347.125,-373.01C359.311,-372.701 371.923,-372.382 384.178,-372.071"/>
<polygon fill="midnightblue" stroke="midnightblue" points="384.461,-375.565 394.37,-371.813 384.284,-368.568 384.461,-375.565"/>
</g>
<!-- Node22&#45;&gt;Node3 -->
<g id="edge27" class="edge"><title>Node22&#45;&gt;Node3</title>
<path fill="none" stroke="midnightblue" d="M347.125,-283.768C355.552,-284.493 364.184,-285.236 372.76,-285.974"/>
<polygon fill="midnightblue" stroke="midnightblue" points="372.523,-289.467 382.787,-286.837 373.124,-282.493 372.523,-289.467"/>
</g>
<!-- Node22&#45;&gt;Node5 -->
<g id="edge30" class="edge"><title>Node22&#45;&gt;Node5</title>
<path fill="none" stroke="midnightblue" d="M347.125,-268.64C357.641,-267.522 368.475,-266.37 379.122,-265.238"/>
<polygon fill="midnightblue" stroke="midnightblue" points="379.682,-268.698 389.256,-264.16 378.942,-261.737 379.682,-268.698"/>
</g>
<!-- Node22&#45;&gt;Node17 -->
<g id="edge28" class="edge"><title>Node22&#45;&gt;Node17</title>
<path fill="none" stroke="midnightblue" d="M315.882,-292.092C344.275,-301.101 376.162,-311.146 383,-313 392.212,-315.498 402.058,-317.945 411.631,-320.208"/>
<polygon fill="midnightblue" stroke="midnightblue" points="410.938,-323.64 421.471,-322.493 412.522,-316.821 410.938,-323.64"/>
</g>
<!-- Node23 -->
<g id="node23" class="node"><title>Node23</title>
<g id="a_node23"><a xlink:href="class_word_quizzle_1_1_user.html#ae4cc205520a878a71ce7c673e96f7e4f" target="_top" xlink:title="Restituisce il punteggio dell&#39;utente.">
<polygon fill="white" stroke="black" points="398,-208.5 398,-227.5 536,-227.5 536,-208.5 398,-208.5"/>
<text text-anchor="middle" x="467" y="-215.5" font-family="Helvetica,sans-Serif" font-size="10.00">WordQuizzle.User.getScore</text>
</a>
</g>
</g>
<!-- Node22&#45;&gt;Node23 -->
<g id="edge29" class="edge"><title>Node22&#45;&gt;Node23</title>
<path fill="none" stroke="midnightblue" d="M321.157,-261.868C329.85,-259.093 338.723,-256.092 347,-253 363.402,-246.874 366.389,-242.535 383,-237 390.677,-234.442 398.866,-232.109 406.998,-230.022"/>
<polygon fill="midnightblue" stroke="midnightblue" points="407.974,-233.386 416.849,-227.6 406.302,-226.589 407.974,-233.386"/>
</g>
<!-- Node24&#45;&gt;Node3 -->
<g id="edge32" class="edge"><title>Node24&#45;&gt;Node3</title>
<path fill="none" stroke="midnightblue" d="M321.939,-243.109C330.453,-246.059 339.064,-249.375 347,-253 364.056,-260.79 365.634,-267.927 383,-275 389.255,-277.548 395.921,-279.791 402.652,-281.758"/>
<polygon fill="midnightblue" stroke="midnightblue" points="401.951,-285.194 412.519,-284.444 403.79,-278.44 401.951,-285.194"/>
</g>
<!-- Node24&#45;&gt;Node5 -->
<g id="edge34" class="edge"><title>Node24&#45;&gt;Node5</title>
<path fill="none" stroke="midnightblue" d="M347.125,-239.147C360.754,-241.079 374.918,-243.087 388.517,-245.015"/>
<polygon fill="midnightblue" stroke="midnightblue" points="388.395,-248.533 398.788,-246.471 389.378,-241.602 388.395,-248.533"/>
</g>
<!-- Node24&#45;&gt;Node23 -->
<g id="edge33" class="edge"><title>Node24&#45;&gt;Node23</title>
<path fill="none" stroke="midnightblue" d="M347.125,-224.019C360.497,-223.342 374.384,-222.639 387.747,-221.962"/>
<polygon fill="midnightblue" stroke="midnightblue" points="388.036,-225.452 397.846,-221.451 387.682,-218.461 388.036,-225.452"/>
</g>
<!-- Node25&#45;&gt;Node3 -->
<g id="edge36" class="edge"><title>Node25&#45;&gt;Node3</title>
<path fill="none" stroke="midnightblue" d="M331.763,-194.042C337.237,-196.819 342.425,-200.107 347,-204 373.948,-226.925 355.121,-253.216 383,-275 385.293,-276.792 387.725,-278.421 390.259,-279.9"/>
<polygon fill="midnightblue" stroke="midnightblue" points="388.715,-283.041 399.225,-284.38 391.844,-276.78 388.715,-283.041"/>
</g>
<!-- Node25&#45;&gt;Node4 -->
<g id="edge37" class="edge"><title>Node25&#45;&gt;Node4</title>
<path fill="none" stroke="midnightblue" d="M347.125,-177.01C360.926,-176.66 375.274,-176.297 389.03,-175.949"/>
<polygon fill="midnightblue" stroke="midnightblue" points="389.506,-179.438 399.414,-175.686 389.329,-172.44 389.506,-179.438"/>
</g>
<!-- Node25&#45;&gt;Node5 -->
<g id="edge38" class="edge"><title>Node25&#45;&gt;Node5</title>
<path fill="none" stroke="midnightblue" d="M325.926,-194.06C333.233,-196.901 340.441,-200.2 347,-204 365.781,-214.881 363.783,-226.91 383,-237 387.466,-239.345 392.217,-241.403 397.096,-243.207"/>
<polygon fill="midnightblue" stroke="midnightblue" points="396.004,-246.533 406.598,-246.376 398.219,-239.892 396.004,-246.533"/>
</g>
<!-- Node25&#45;&gt;Node6 -->
<g id="edge39" class="edge"><title>Node25&#45;&gt;Node6</title>
<path fill="none" stroke="midnightblue" d="M324.611,-163.925C343.167,-159.04 363.941,-153.677 383,-149 392.798,-146.596 403.271,-144.123 413.363,-141.789"/>
<polygon fill="midnightblue" stroke="midnightblue" points="414.326,-145.159 423.289,-139.509 412.759,-138.336 414.326,-145.159"/>
</g>
</g>
</svg>
        <g id="navigator" transform="translate(0 0)" fill="#404254">
                <rect fill="#f2f5e9" fill-opacity="0.5" stroke="#606060" stroke-width=".5" x="0" y="0" width="60" height="60"/>
                <use id="zoomplus" xlink:href="#zoomPlus" x="17" y="9" onmousedown="handleZoom(evt,'in')"/>
                <use id="zoomminus" xlink:href="#zoomMin" x="42" y="9" onmousedown="handleZoom(evt,'out')"/>
                <use id="reset" xlink:href="#resetDef" x="30" y="36" onmousedown="handleReset()"/>
                <g id="arrowUp" xlink:href="#dirArrow" transform="translate(30 24)" onmousedown="handlePan(0,-1)">
                  <use xlink:href="#rim" fill="#404040">
                        <set attributeName="fill" to="#808080" begin="arrowUp.mouseover" end="arrowUp.mouseout"/>
                  </use>
                  <path fill="none" stroke="white" stroke-width="1.5" d="M0,-3.0v7 M-2.5,-0.5L0,-3.0L2.5,-0.5"/>
                </g>
                <g id="arrowRight" xlink:href="#dirArrow" transform="rotate(90) translate(36 -43)" onmousedown="handlePan(1,0)">
                  <use xlink:href="#rim" fill="#404040">
                        <set attributeName="fill" to="#808080" begin="arrowRight.mouseover" end="arrowRight.mouseout"/>
                  </use>
                  <path fill="none" stroke="white" stroke-width="1.5" d="M0,-3.0v7 M-2.5,-0.5L0,-3.0L2.5,-0.5"/>
                </g>
                <g id="arrowDown" xlink:href="#dirArrow" transform="rotate(180) translate(-30 -48)" onmousedown="handlePan(0,1)">
                  <use xlink:href="#rim" fill="#404040">
                        <set attributeName="fill" to="#808080" begin="arrowDown.mouseover" end="arrowDown.mouseout"/>
                  </use>
                  <path fill="none" stroke="white" stroke-width="1.5" d="M0,-3.0v7 M-2.5,-0.5L0,-3.0L2.5,-0.5"/>
                </g>
                <g id="arrowLeft" xlink:href="#dirArrow" transform="rotate(270) translate(-36 17)" onmousedown="handlePan(-1,0)">
                  <use xlink:href="#rim" fill="#404040">
                        <set attributeName="fill" to="#808080" begin="arrowLeft.mouseover" end="arrowLeft.mouseout"/>
                  </use>
                  <path fill="none" stroke="white" stroke-width="1.5" d="M0,-3.0v7 M-2.5,-0.5L0,-3.0L2.5,-0.5"/>
                </g>
        </g>
        <svg viewBox="0 0 15 15" width="100%" height="30px" preserveAspectRatio="xMaxYMin meet">
         <g id="arrow_out" transform="scale(0.3 0.3)">
          <a xlink:href="class_word_quizzle_1_1_session_a21992c338367b1a3c2e57fdb7cae3018_cgraph_org.svg" target="_base">
           <rect id="button" ry="5" rx="5" y="6" x="6" height="38" width="38"
                fill="#f2f5e9" fill-opacity="0.5" stroke="#606060" stroke-width="1.0"/>
           <path id="arrow"
             d="M 11.500037,31.436501 C 11.940474,20.09759 22.043105,11.32322 32.158766,21.979434 L 37.068811,17.246167 C 37.068811,17.246167 37.088388,32 37.088388,32 L 22.160133,31.978069 C 22.160133,31.978069 26.997745,27.140456 26.997745,27.140456 C 18.528582,18.264221 13.291696,25.230495 11.500037,31.436501 z"
             style="fill:#404040;"/>
          </a>
         </g>
        </svg>
</svg>
