<?xml version="1.0" encoding="UTF-8" standalone="no"?>
<!DOCTYPE svg PUBLIC "-//W3C//DTD SVG 1.1//EN"
 "http://www.w3.org/Graphics/SVG/1.1/DTD/svg11.dtd">
<!-- Generated by graphviz version 2.38.0 (20140413.2041)
 -->
<!-- Title: WordQuizzleClientService.read Pages: 1 -->
<svg width="552pt" height="400pt"
 viewBox="0.00 0.00 552.00 399.50" xmlns="http://www.w3.org/2000/svg" xmlns:xlink="http://www.w3.org/1999/xlink">
<g id="graph0" class="graph" transform="scale(1 1) rotate(0) translate(4 395.5)">
<title>WordQuizzleClientService.read</title>
<polygon fill="white" stroke="none" points="-4,4 -4,-395.5 548,-395.5 548,4 -4,4"/>
<!-- Node1 -->
<g id="node1" class="node"><title>Node1</title>
<g id="a_node1"><a xlink:title="Ottiene un messaggio inviato dal server.">
<polygon fill="#bfbfbf" stroke="black" points="393,-186.5 393,-205.5 544,-205.5 544,-186.5 393,-186.5"/>
<text text-anchor="middle" x="468.5" y="-193.5" font-family="Helvetica,sans-Serif" font-size="10.00">WordQuizzleClientService.read</text>
</a>
</g>
</g>
<!-- Node2 -->
<g id="node2" class="node"><title>Node2</title>
<g id="a_node2"><a xlink:href="class_word_quizzle_client_service.html#a6132feed91596156595e4f36713acade" target="_top" xlink:title="Invia un messaggio al server e attende una sua risposta.">
<polygon fill="white" stroke="black" points="204,-186.5 204,-205.5 357,-205.5 357,-186.5 204,-186.5"/>
<text text-anchor="middle" x="280.5" y="-193.5" font-family="Helvetica,sans-Serif" font-size="10.00">WordQuizzleClientService.send</text>
</a>
</g>
</g>
<!-- Node1&#45;&gt;Node2 -->
<g id="edge1" class="edge"><title>Node1&#45;&gt;Node2</title>
<path fill="none" stroke="midnightblue" d="M382.861,-196C374.24,-196 365.523,-196 357.009,-196"/>
<polygon fill="midnightblue" stroke="midnightblue" points="382.918,-199.5 392.918,-196 382.918,-192.5 382.918,-199.5"/>
</g>
<!-- Node3 -->
<g id="node3" class="node"><title>Node3</title>
<g id="a_node3"><a xlink:href="class_word_quizzle_client_service.html#a9291feb9c1117ce3493bef1149cacb08" target="_top" xlink:title="Accetta una richiesta di sfida inviata da nickAmico.">
<polygon fill="white" stroke="black" points="2,-361 2,-391 166,-391 166,-361 2,-361"/>
<text text-anchor="start" x="10" y="-379" font-family="Helvetica,sans-Serif" font-size="10.00">WordQuizzleClientService.accetta</text>
<text text-anchor="middle" x="84" y="-368" font-family="Helvetica,sans-Serif" font-size="10.00">Sfida</text>
</a>
</g>
</g>
<!-- Node2&#45;&gt;Node3 -->
<g id="edge2" class="edge"><title>Node2&#45;&gt;Node3</title>
<path fill="none" stroke="midnightblue" d="M271.038,-215.21C255.499,-248.24 219.247,-315.733 168,-352 163.102,-355.466 157.709,-358.435 152.094,-360.977"/>
<polygon fill="midnightblue" stroke="midnightblue" points="274.374,-216.33 275.348,-205.78 268.008,-213.42 274.374,-216.33"/>
</g>
<!-- Node4 -->
<g id="node4" class="node"><title>Node4</title>
<g id="a_node4"><a xlink:href="class_word_quizzle_client_service.html#af8aab1c9bac51180ba45a42d6347b1f7" target="_top" xlink:title="Aggiunge un utente alla lista di amici di nickUtente.">
<polygon fill="white" stroke="black" points="0,-312 0,-342 168,-342 168,-312 0,-312"/>
<text text-anchor="start" x="8" y="-330" font-family="Helvetica,sans-Serif" font-size="10.00">WordQuizzleClientService.aggiungi</text>
<text text-anchor="middle" x="84" y="-319" font-family="Helvetica,sans-Serif" font-size="10.00">_amico</text>
</a>
</g>
</g>
<!-- Node2&#45;&gt;Node4 -->
<g id="edge3" class="edge"><title>Node2&#45;&gt;Node4</title>
<path fill="none" stroke="midnightblue" d="M266.028,-213.408C246.79,-237.095 209.191,-279.244 168,-303 162.153,-306.372 155.797,-309.301 149.291,-311.837"/>
<polygon fill="midnightblue" stroke="midnightblue" points="268.766,-215.588 272.257,-205.584 263.29,-211.227 268.766,-215.588"/>
</g>
<!-- Node5 -->
<g id="node5" class="node"><title>Node5</title>
<g id="a_node5"><a xlink:href="class_word_quizzle_client_service.html#af0e53b0b09cbf74b95782fa6f838a729" target="_top" xlink:title="Richiede la lista degli amici di nickUtente.">
<polygon fill="white" stroke="black" points="9,-263 9,-293 159,-293 159,-263 9,-263"/>
<text text-anchor="start" x="17" y="-281" font-family="Helvetica,sans-Serif" font-size="10.00">WordQuizzleClientService.lista</text>
<text text-anchor="middle" x="84" y="-270" font-family="Helvetica,sans-Serif" font-size="10.00">_amici</text>
</a>
</g>
</g>
<!-- Node2&#45;&gt;Node5 -->
<g id="edge4" class="edge"><title>Node2&#45;&gt;Node5</title>
<path fill="none" stroke="midnightblue" d="M254.15,-210.624C231.941,-223.028 198.53,-240.715 168,-253 159.065,-256.595 149.41,-259.956 139.953,-262.974"/>
<polygon fill="midnightblue" stroke="midnightblue" points="255.953,-213.625 262.941,-205.662 252.512,-207.529 255.953,-213.625"/>
</g>
<!-- Node6 -->
<g id="node6" class="node"><title>Node6</title>
<g id="a_node6"><a xlink:href="class_word_quizzle_client_service.html#a3b4cd4b9507349b2ebd0a219bbf660e8" target="_top" xlink:title="Effettua il login specificando l&#39;indirizzo per la connessione UDP.">
<polygon fill="white" stroke="black" points="8,-224.5 8,-243.5 160,-243.5 160,-224.5 8,-224.5"/>
<text text-anchor="middle" x="84" y="-231.5" font-family="Helvetica,sans-Serif" font-size="10.00">WordQuizzleClientService.login</text>
</a>
</g>
</g>
<!-- Node2&#45;&gt;Node6 -->
<g id="edge5" class="edge"><title>Node2&#45;&gt;Node6</title>
<path fill="none" stroke="midnightblue" d="M220.692,-207.489C192.941,-212.911 160.211,-219.306 133.85,-224.456"/>
<polygon fill="midnightblue" stroke="midnightblue" points="221.527,-210.893 230.67,-205.54 220.185,-204.022 221.527,-210.893"/>
</g>
<!-- Node7 -->
<g id="node7" class="node"><title>Node7</title>
<g id="a_node7"><a xlink:href="class_word_quizzle_client_service.html#a1c8306a88e1f8755e6b495d8c65658b4" target="_top" xlink:title="Effettua il logout.">
<polygon fill="white" stroke="black" points="5,-186.5 5,-205.5 163,-205.5 163,-186.5 5,-186.5"/>
<text text-anchor="middle" x="84" y="-193.5" font-family="Helvetica,sans-Serif" font-size="10.00">WordQuizzleClientService.logout</text>
</a>
</g>
</g>
<!-- Node2&#45;&gt;Node7 -->
<g id="edge6" class="edge"><title>Node2&#45;&gt;Node7</title>
<path fill="none" stroke="midnightblue" d="M193.655,-196C183.492,-196 173.162,-196 163.115,-196"/>
<polygon fill="midnightblue" stroke="midnightblue" points="193.744,-199.5 203.744,-196 193.744,-192.5 193.744,-199.5"/>
</g>
<!-- Node8 -->
<g id="node8" class="node"><title>Node8</title>
<g id="a_node8"><a xlink:href="class_word_quizzle_client_service.html#a4f7f08d10b089539f4173202836cee10" target="_top" xlink:title="Richiede la classifica dell&#39;utente e dei suoi amici.">
<polygon fill="white" stroke="black" points="3,-137 3,-167 165,-167 165,-137 3,-137"/>
<text text-anchor="start" x="11" y="-155" font-family="Helvetica,sans-Serif" font-size="10.00">WordQuizzleClientService.mostra</text>
<text text-anchor="middle" x="84" y="-144" font-family="Helvetica,sans-Serif" font-size="10.00">_classifica</text>
</a>
</g>
</g>
<!-- Node2&#45;&gt;Node8 -->
<g id="edge7" class="edge"><title>Node2&#45;&gt;Node8</title>
<path fill="none" stroke="midnightblue" d="M227.28,-184.187C204.012,-178.923 176.331,-172.661 151.596,-167.065"/>
<polygon fill="midnightblue" stroke="midnightblue" points="226.771,-187.66 237.296,-186.453 228.315,-180.832 226.771,-187.66"/>
</g>
<!-- Node9 -->
<g id="node9" class="node"><title>Node9</title>
<g id="a_node9"><a xlink:href="class_word_quizzle_client_service.html#a46c0f1bdaafdb2431ca47ae00a0b4ffe" target="_top" xlink:title="Richiede il punteggio di nickUtente.">
<polygon fill="white" stroke="black" points="3,-88 3,-118 165,-118 165,-88 3,-88"/>
<text text-anchor="start" x="11" y="-106" font-family="Helvetica,sans-Serif" font-size="10.00">WordQuizzleClientService.mostra</text>
<text text-anchor="middle" x="84" y="-95" font-family="Helvetica,sans-Serif" font-size="10.00">_punteggio</text>
</a>
</g>
</g>
<!-- Node2&#45;&gt;Node9 -->
<g id="edge8" class="edge"><title>Node2&#45;&gt;Node9</title>
<path fill="none" stroke="midnightblue" d="M258.179,-180.715C236.38,-165.648 201.115,-142.792 168,-128 159.756,-124.317 150.816,-120.988 141.961,-118.048"/>
<polygon fill="midnightblue" stroke="midnightblue" points="256.182,-183.59 266.381,-186.458 260.197,-177.856 256.182,-183.59"/>
</g>
<!-- Node10 -->
<g id="node10" class="node"><title>Node10</title>
<g id="a_node10"><a xlink:href="class_word_quizzle_client_service.html#a310c70d5ffa63bda0f13d0404fdb79ce" target="_top" xlink:title="Invia la traduzione della parola precedentemente inviata dal server durante una sfida.">
<polygon fill="white" stroke="black" points="7.5,-39 7.5,-69 160.5,-69 160.5,-39 7.5,-39"/>
<text text-anchor="start" x="15.5" y="-57" font-family="Helvetica,sans-Serif" font-size="10.00">WordQuizzleClientService.send</text>
<text text-anchor="middle" x="84" y="-46" font-family="Helvetica,sans-Serif" font-size="10.00">Translation</text>
</a>
</g>
</g>
<!-- Node2&#45;&gt;Node10 -->
<g id="edge9" class="edge"><title>Node2&#45;&gt;Node10</title>
<path fill="none" stroke="midnightblue" d="M266.925,-177.756C248.262,-152.029 210.796,-105.298 168,-79 161.717,-75.1393 154.799,-71.8406 147.718,-69.0302"/>
<polygon fill="midnightblue" stroke="midnightblue" points="264.283,-180.08 272.926,-186.208 269.99,-176.028 264.283,-180.08"/>
</g>
<!-- Node11 -->
<g id="node11" class="node"><title>Node11</title>
<g id="a_node11"><a xlink:href="class_word_quizzle_client_service.html#a470ca573207d4e51fe7ec5d162333234" target="_top" xlink:title="Invia una richiesta di sfida ad un amico di nickUtente.">
<polygon fill="white" stroke="black" points="8,-0.5 8,-19.5 160,-19.5 160,-0.5 8,-0.5"/>
<text text-anchor="middle" x="84" y="-7.5" font-family="Helvetica,sans-Serif" font-size="10.00">WordQuizzleClientService.sfida</text>
</a>
</g>
</g>
<!-- Node2&#45;&gt;Node11 -->
<g id="edge10" class="edge"><title>Node2&#45;&gt;Node11</title>
<path fill="none" stroke="midnightblue" d="M272.162,-176.774C257.788,-141.806 222.493,-67.9153 168,-30 161.795,-25.6826 154.768,-22.2916 147.493,-19.6294"/>
<polygon fill="midnightblue" stroke="midnightblue" points="269.001,-178.296 275.949,-186.294 275.505,-175.708 269.001,-178.296"/>
</g>
</g>
</svg>
