<?xml version="1.0" encoding="UTF-8" standalone="no"?>
<!DOCTYPE svg PUBLIC "-//W3C//DTD SVG 1.1//EN"
 "http://www.w3.org/Graphics/SVG/1.1/DTD/svg11.dtd">
<!-- Generated by graphviz version 2.38.0 (20140413.2041)
 -->
<!-- Title: WQCli.sfida Pages: 1 -->
<svg width="391pt" height="66pt"
 viewBox="0.00 0.00 391.00 66.00" xmlns="http://www.w3.org/2000/svg" xmlns:xlink="http://www.w3.org/1999/xlink">
<g id="graph0" class="graph" transform="scale(1 1) rotate(0) translate(4 62)">
<title>WQCli.sfida</title>
<polygon fill="white" stroke="none" points="-4,4 -4,-62 387,-62 387,4 -4,4"/>
<!-- Node1 -->
<g id="node1" class="node"><title>Node1</title>
<g id="a_node1"><a xlink:title="Restistuisce una stringa contenente informazioni riguardo l&#39;invio di una sfida.">
<polygon fill="#bfbfbf" stroke="black" points="315,-19.5 315,-38.5 383,-38.5 383,-19.5 315,-19.5"/>
<text text-anchor="middle" x="349" y="-26.5" font-family="Helvetica,sans-Serif" font-size="10.00">WQCli.sfida</text>
</a>
</g>
</g>
<!-- Node2 -->
<g id="node2" class="node"><title>Node2</title>
<g id="a_node2"><a xlink:href="class_w_q_cli.html#a176225dbab1800ff2b4693ea7654b9b0" target="_top" xlink:title="Restistuisce una stringa contenente informazioni riguardo i comandi da utilizzare.">
<polygon fill="white" stroke="black" points="213,-38.5 213,-57.5 279,-57.5 279,-38.5 213,-38.5"/>
<text text-anchor="middle" x="246" y="-45.5" font-family="Helvetica,sans-Serif" font-size="10.00">WQCli.help</text>
</a>
</g>
</g>
<!-- Node1&#45;&gt;Node2 -->
<g id="edge1" class="edge"><title>Node1&#45;&gt;Node2</title>
<path fill="none" stroke="midnightblue" d="M304.957,-37.0972C296.292,-38.7273 287.327,-40.4138 279.113,-41.9589"/>
<polygon fill="midnightblue" stroke="midnightblue" points="305.748,-40.5098 314.929,-35.2213 304.454,-33.6305 305.748,-40.5098"/>
</g>
<!-- Node4 -->
<g id="node4" class="node"><title>Node4</title>
<g id="a_node4"><a xlink:href="class_w_q_cli.html#a69d5ad39deabe879509740cc27efb3f3" target="_top" xlink:title="Gestisce le richieste dell&#39;utente.">
<polygon fill="white" stroke="black" points="105,-0.5 105,-19.5 177,-19.5 177,-0.5 105,-0.5"/>
<text text-anchor="middle" x="141" y="-7.5" font-family="Helvetica,sans-Serif" font-size="10.00">WQCli.parse</text>
</a>
</g>
</g>
<!-- Node1&#45;&gt;Node4 -->
<g id="edge5" class="edge"><title>Node1&#45;&gt;Node4</title>
<path fill="none" stroke="midnightblue" d="M304.672,-25.0037C266.744,-21.5055 212.338,-16.4875 177.084,-13.2359"/>
<polygon fill="midnightblue" stroke="midnightblue" points="304.623,-28.514 314.903,-25.9473 305.266,-21.5436 304.623,-28.514"/>
</g>
<!-- Node3 -->
<g id="node3" class="node"><title>Node3</title>
<g id="a_node3"><a xlink:href="class_w_q_cli.html#a13932f1ea4f257ce081aa524f090b6ee" target="_top" xlink:title="Gestisce l&#39;interazione con l&#39;utente.">
<polygon fill="white" stroke="black" points="0,-19.5 0,-38.5 69,-38.5 69,-19.5 0,-19.5"/>
<text text-anchor="middle" x="34.5" y="-26.5" font-family="Helvetica,sans-Serif" font-size="10.00">WQCli.main</text>
</a>
</g>
</g>
<!-- Node2&#45;&gt;Node3 -->
<g id="edge2" class="edge"><title>Node2&#45;&gt;Node3</title>
<path fill="none" stroke="midnightblue" d="M202.65,-44.1591C163.31,-40.5914 105.494,-35.3479 69.2007,-32.0564"/>
<polygon fill="midnightblue" stroke="midnightblue" points="202.449,-47.6553 212.725,-45.0729 203.082,-40.6839 202.449,-47.6553"/>
</g>
<!-- Node2&#45;&gt;Node4 -->
<g id="edge3" class="edge"><title>Node2&#45;&gt;Node4</title>
<path fill="none" stroke="midnightblue" d="M209.443,-34.882C195.82,-29.8561 180.546,-24.2209 167.983,-19.5859"/>
<polygon fill="midnightblue" stroke="midnightblue" points="208.415,-38.2333 219.009,-38.411 210.838,-31.666 208.415,-38.2333"/>
</g>
<!-- Node4&#45;&gt;Node3 -->
<g id="edge4" class="edge"><title>Node4&#45;&gt;Node3</title>
<path fill="none" stroke="midnightblue" d="M94.9682,-18.1876C86.3434,-19.7557 77.4511,-21.3725 69.2557,-22.8626"/>
<polygon fill="midnightblue" stroke="midnightblue" points="95.6997,-21.6121 104.912,-16.3796 94.4475,-14.725 95.6997,-21.6121"/>
</g>
</g>
</svg>
