<?xml version="1.0" encoding="UTF-8" standalone="no"?>
<!DOCTYPE svg PUBLIC "-//W3C//DTD SVG 1.1//EN"
 "http://www.w3.org/Graphics/SVG/1.1/DTD/svg11.dtd">
<!-- Generated by graphviz version 2.38.0 (20140413.2041)
 -->
<!-- Title: WordQuizzle.Session.parse Pages: 1 -->
<!--zoomable 382 -->
<svg id="main" version="1.1" xmlns="http://www.w3.org/2000/svg" xmlns:xlink="http://www.w3.org/1999/xlink" xml:space="preserve" onload="init(evt)">
<style type="text/css"><![CDATA[
.edge:hover path { stroke: red; }
.edge:hover polygon { stroke: red; fill: red; }
]]></style>
<script type="text/javascript"><![CDATA[
var edges = document.getElementsByTagName('g');
if (edges && edges.length) {
  for (var i=0;i<edges.length;i++) {
    if (edges[i].id.substr(0,4)=='edge') {
      edges[i].setAttribute('class','edge');
    }
  }
}
]]></script>
        <defs>
                <circle id="rim" cx="0" cy="0" r="7"/>
                <circle id="rim2" cx="0" cy="0" r="3.5"/>
                <g id="zoomPlus">
                        <use xlink:href="#rim" fill="#404040">
                                <set attributeName="fill" to="#808080" begin="zoomplus.mouseover" end="zoomplus.mouseout"/>
                        </use>
                        <path d="M-4,0h8M0,-4v8" fill="none" stroke="white" stroke-width="1.5" pointer-events="none"/>
                </g>
                <g id="zoomMin">
                        <use xlink:href="#rim" fill="#404040">
                                <set attributeName="fill" to="#808080" begin="zoomminus.mouseover" end="zoomminus.mouseout"/>
                        </use>
                        <path d="M-4,0h8" fill="none" stroke="white" stroke-width="1.5" pointer-events="none"/>
                </g>
                <g id="dirArrow">
                        <path fill="none" stroke="white" stroke-width="1.5" d="M0,-3.0v7 M-2.5,-0.5L0,-3.0L2.5,-0.5"/>
                </g>
               <g id="resetDef">
                       <use xlink:href="#rim2" fill="#404040">
                               <set attributeName="fill" to="#808080" begin="reset.mouseover" end="reset.mouseout"/>
                       </use>
               </g>
        </defs>

<script type="text/javascript">
var viewWidth = 733;
var viewHeight = 382;
var sectionId = 'dynsection-7';
</script>
<script xlink:href="svgpan.js"/>
<svg id="graph" class="graph">
<g id="viewport">
<title>WordQuizzle.Session.parse</title>
<polygon fill="white" stroke="none" points="-4,4 -4,-378 729,-378 729,4 -4,4"/>
<!-- Node1 -->
<g id="node1" class="node"><title>Node1</title>
<g id="a_node1"><a xlink:title=" ">
<polygon fill="#bfbfbf" stroke="black" points="0,-177 0,-196 138,-196 138,-177 0,-177"/>
<text text-anchor="middle" x="69" y="-184" font-family="Helvetica,sans-Serif" font-size="10.00">WordQuizzle.Session.parse</text>
</a>
</g>
</g>
<!-- Node2 -->
<g id="node2" class="node"><title>Node2</title>
<g id="a_node2"><a xlink:href="class_word_quizzle_1_1_session.html#a21992c338367b1a3c2e57fdb7cae3018" target="_top" xlink:title=" ">
<polygon fill="white" stroke="black" points="174,-177 174,-196 326,-196 326,-177 174,-177"/>
<text text-anchor="middle" x="250" y="-184" font-family="Helvetica,sans-Serif" font-size="10.00">WordQuizzle.Session.compute</text>
</a>
</g>
</g>
<!-- Node1&#45;&gt;Node2 -->
<g id="edge1" class="edge"><title>Node1&#45;&gt;Node2</title>
<path fill="none" stroke="midnightblue" d="M138.183,-186.5C146.562,-186.5 155.206,-186.5 163.798,-186.5"/>
<polygon fill="midnightblue" stroke="midnightblue" points="163.84,-190 173.84,-186.5 163.84,-183 163.84,-190"/>
</g>
<!-- Node3 -->
<g id="node3" class="node"><title>Node3</title>
<g id="a_node3"><a xlink:href="class_word_quizzle_1_1_word_quizzle_server_service.html#ac4a4c99a303ffb813cae6cfed0e12817" target="_top" xlink:title=" ">
<polygon fill="white" stroke="black" points="362,-343.5 362,-373.5 521,-373.5 521,-343.5 362,-343.5"/>
<text text-anchor="start" x="370" y="-361.5" font-family="Helvetica,sans-Serif" font-size="10.00">WordQuizzle.WordQuizzleServer</text>
<text text-anchor="middle" x="441.5" y="-350.5" font-family="Helvetica,sans-Serif" font-size="10.00">Service.accettaSfida</text>
</a>
</g>
</g>
<!-- Node2&#45;&gt;Node3 -->
<g id="edge2" class="edge"><title>Node2&#45;&gt;Node3</title>
<path fill="none" stroke="midnightblue" d="M255.477,-196.11C268.218,-222.404 307.32,-296.12 362,-334.5 364.143,-336.004 366.383,-337.417 368.695,-338.742"/>
<polygon fill="midnightblue" stroke="midnightblue" points="367.416,-342.018 377.916,-343.435 370.591,-335.78 367.416,-342.018"/>
</g>
<!-- Node4 -->
<g id="node4" class="node"><title>Node4</title>
<g id="a_node4"><a xlink:href="class_word_quizzle_1_1_word_quizzle_server_service.html#a1f28542d2118fba0a19061d5acf603ec" target="_top" xlink:title=" ">
<polygon fill="white" stroke="black" points="362,-294.5 362,-324.5 521,-324.5 521,-294.5 362,-294.5"/>
<text text-anchor="start" x="370" y="-312.5" font-family="Helvetica,sans-Serif" font-size="10.00">WordQuizzle.WordQuizzleServer</text>
<text text-anchor="middle" x="441.5" y="-301.5" font-family="Helvetica,sans-Serif" font-size="10.00">Service.aggiungi_amico</text>
</a>
</g>
</g>
<!-- Node2&#45;&gt;Node4 -->
<g id="edge3" class="edge"><title>Node2&#45;&gt;Node4</title>
<path fill="none" stroke="midnightblue" d="M259.165,-196.176C276.258,-215.835 317.892,-260.682 362,-285.5 365.074,-287.23 368.287,-288.849 371.584,-290.364"/>
<polygon fill="midnightblue" stroke="midnightblue" points="370.477,-293.695 381.051,-294.358 373.198,-287.246 370.477,-293.695"/>
</g>
<!-- Node7 -->
<g id="node7" class="node"><title>Node7</title>
<g id="a_node7"><a xlink:href="class_word_quizzle_1_1_word_quizzle_server_service.html#a198417a123b189dd75e88d3e969cd11d" target="_top" xlink:title=" ">
<polygon fill="white" stroke="black" points="362,-196.5 362,-226.5 521,-226.5 521,-196.5 362,-196.5"/>
<text text-anchor="start" x="370" y="-214.5" font-family="Helvetica,sans-Serif" font-size="10.00">WordQuizzle.WordQuizzleServer</text>
<text text-anchor="middle" x="441.5" y="-203.5" font-family="Helvetica,sans-Serif" font-size="10.00">Service.lista_amici</text>
</a>
</g>
</g>
<!-- Node2&#45;&gt;Node7 -->
<g id="edge6" class="edge"><title>Node2&#45;&gt;Node7</title>
<path fill="none" stroke="midnightblue" d="M323.182,-196.023C332.576,-197.262 342.283,-198.543 351.905,-199.812"/>
<polygon fill="midnightblue" stroke="midnightblue" points="351.513,-203.291 361.885,-201.129 352.429,-196.351 351.513,-203.291"/>
</g>
<!-- Node10 -->
<g id="node10" class="node"><title>Node10</title>
<g id="a_node10"><a xlink:href="class_word_quizzle_1_1_word_quizzle_server_service.html#a5158b145fd600da151cb8206e41b4f1a" target="_top" xlink:title=" ">
<polygon fill="white" stroke="black" points="362,-98.5 362,-128.5 521,-128.5 521,-98.5 362,-98.5"/>
<text text-anchor="start" x="370" y="-116.5" font-family="Helvetica,sans-Serif" font-size="10.00">WordQuizzle.WordQuizzleServer</text>
<text text-anchor="middle" x="441.5" y="-105.5" font-family="Helvetica,sans-Serif" font-size="10.00">Service.login</text>
</a>
</g>
</g>
<!-- Node2&#45;&gt;Node10 -->
<g id="edge10" class="edge"><title>Node2&#45;&gt;Node10</title>
<path fill="none" stroke="midnightblue" d="M271.614,-176.849C293.713,-166.678 329.95,-150.499 362,-138.5 367.977,-136.262 374.256,-134.045 380.55,-131.909"/>
<polygon fill="midnightblue" stroke="midnightblue" points="382.027,-135.106 390.411,-128.628 379.817,-128.464 382.027,-135.106"/>
</g>
<!-- Node12 -->
<g id="node12" class="node"><title>Node12</title>
<g id="a_node12"><a xlink:href="class_word_quizzle_1_1_word_quizzle_server_service.html#ac79f01637184c2916b5381056f5d36e7" target="_top" xlink:title=" ">
<polygon fill="white" stroke="black" points="362,-0.5 362,-30.5 521,-30.5 521,-0.5 362,-0.5"/>
<text text-anchor="start" x="370" y="-18.5" font-family="Helvetica,sans-Serif" font-size="10.00">WordQuizzle.WordQuizzleServer</text>
<text text-anchor="middle" x="441.5" y="-7.5" font-family="Helvetica,sans-Serif" font-size="10.00">Service.logout</text>
</a>
</g>
</g>
<!-- Node2&#45;&gt;Node12 -->
<g id="edge14" class="edge"><title>Node2&#45;&gt;Node12</title>
<path fill="none" stroke="midnightblue" d="M255.495,-176.955C268.283,-150.84 307.494,-77.6258 362,-39.5 364.146,-37.9991 366.388,-36.5899 368.702,-35.2672"/>
<polygon fill="midnightblue" stroke="midnightblue" points="370.596,-38.2306 377.928,-30.5819 367.427,-31.9893 370.596,-38.2306"/>
</g>
<!-- Node13 -->
<g id="node13" class="node"><title>Node13</title>
<g id="a_node13"><a xlink:href="class_word_quizzle_1_1_word_quizzle_server_service.html#ad212848f8436aaf885c017463458d2f4" target="_top" xlink:title=" ">
<polygon fill="white" stroke="black" points="362,-245.5 362,-275.5 521,-275.5 521,-245.5 362,-245.5"/>
<text text-anchor="start" x="370" y="-263.5" font-family="Helvetica,sans-Serif" font-size="10.00">WordQuizzle.WordQuizzleServer</text>
<text text-anchor="middle" x="441.5" y="-252.5" font-family="Helvetica,sans-Serif" font-size="10.00">Service.mostra_classifica</text>
</a>
</g>
</g>
<!-- Node2&#45;&gt;Node13 -->
<g id="edge15" class="edge"><title>Node2&#45;&gt;Node13</title>
<path fill="none" stroke="midnightblue" d="M270.336,-196.112C292.239,-206.787 329.163,-224.141 362,-236.5 367.168,-238.445 372.571,-240.351 378.018,-242.186"/>
<polygon fill="midnightblue" stroke="midnightblue" points="377.237,-245.613 387.83,-245.403 379.418,-238.962 377.237,-245.613"/>
</g>
<!-- Node15 -->
<g id="node15" class="node"><title>Node15</title>
<g id="a_node15"><a xlink:href="class_word_quizzle_1_1_word_quizzle_server_service.html#a45a270251f3ca3e1595ceddf56fbe041" target="_top" xlink:title=" ">
<polygon fill="white" stroke="black" points="362,-147.5 362,-177.5 521,-177.5 521,-147.5 362,-147.5"/>
<text text-anchor="start" x="370" y="-165.5" font-family="Helvetica,sans-Serif" font-size="10.00">WordQuizzle.WordQuizzleServer</text>
<text text-anchor="middle" x="441.5" y="-154.5" font-family="Helvetica,sans-Serif" font-size="10.00">Service.mostra_punteggio</text>
</a>
</g>
</g>
<!-- Node2&#45;&gt;Node15 -->
<g id="edge20" class="edge"><title>Node2&#45;&gt;Node15</title>
<path fill="none" stroke="midnightblue" d="M326.168,-176.98C334.56,-175.917 343.167,-174.827 351.71,-173.745"/>
<polygon fill="midnightblue" stroke="midnightblue" points="352.21,-177.21 361.691,-172.481 351.33,-170.265 352.21,-177.21"/>
</g>
<!-- Node16 -->
<g id="node16" class="node"><title>Node16</title>
<g id="a_node16"><a xlink:href="class_word_quizzle_1_1_word_quizzle_server_service.html#aee4ec771e269748e727002f9fa02e8a0" target="_top" xlink:title=" ">
<polygon fill="white" stroke="black" points="362,-49.5 362,-79.5 521,-79.5 521,-49.5 362,-49.5"/>
<text text-anchor="start" x="370" y="-67.5" font-family="Helvetica,sans-Serif" font-size="10.00">WordQuizzle.WordQuizzleServer</text>
<text text-anchor="middle" x="441.5" y="-56.5" font-family="Helvetica,sans-Serif" font-size="10.00">Service.sfida</text>
</a>
</g>
</g>
<!-- Node2&#45;&gt;Node16 -->
<g id="edge24" class="edge"><title>Node2&#45;&gt;Node16</title>
<path fill="none" stroke="midnightblue" d="M259.498,-176.776C276.878,-157.459 318.525,-114.004 362,-89.5 365.89,-87.3075 369.998,-85.278 374.214,-83.4043"/>
<polygon fill="midnightblue" stroke="midnightblue" points="375.66,-86.5942 383.573,-79.5485 372.993,-80.122 375.66,-86.5942"/>
</g>
<!-- Node5 -->
<g id="node5" class="node"><title>Node5</title>
<g id="a_node5"><a xlink:href="interface_word_quizzle_1_1_data_base.html#a256d6e7e3541d11a9ff219431066a7d5" target="_top" xlink:title="Controlla che quel nome utente sia nel database.">
<polygon fill="white" stroke="black" points="557,-177 557,-196 725,-196 725,-177 557,-177"/>
<text text-anchor="middle" x="641" y="-184" font-family="Helvetica,sans-Serif" font-size="10.00">WordQuizzle.DataBase.checkUser</text>
</a>
</g>
</g>
<!-- Node4&#45;&gt;Node5 -->
<g id="edge4" class="edge"><title>Node4&#45;&gt;Node5</title>
<path fill="none" stroke="midnightblue" d="M508.251,-294.305C512.832,-291.804 517.151,-288.892 521,-285.5 550.253,-259.723 526.842,-230.213 557,-205.5 559.051,-203.819 561.222,-202.281 563.486,-200.873"/>
<polygon fill="midnightblue" stroke="midnightblue" points="565.404,-203.819 572.625,-196.065 562.145,-197.624 565.404,-203.819"/>
</g>
<!-- Node6 -->
<g id="node6" class="node"><title>Node6</title>
<g id="a_node6"><a xlink:href="interface_word_quizzle_1_1_data_base.html#a2128ed726158cf0961972a99ac83b9a8" target="_top" xlink:title="Crea un link (amicizia) non orientato tra due utenti.">
<polygon fill="white" stroke="black" points="572.5,-300 572.5,-319 709.5,-319 709.5,-300 572.5,-300"/>
<text text-anchor="middle" x="641" y="-307" font-family="Helvetica,sans-Serif" font-size="10.00">WordQuizzle.DataBase.link</text>
</a>
</g>
</g>
<!-- Node4&#45;&gt;Node6 -->
<g id="edge5" class="edge"><title>Node4&#45;&gt;Node6</title>
<path fill="none" stroke="midnightblue" d="M521.125,-309.5C534.669,-309.5 548.74,-309.5 562.26,-309.5"/>
<polygon fill="midnightblue" stroke="midnightblue" points="562.474,-313 572.474,-309.5 562.474,-306 562.474,-313"/>
</g>
<!-- Node7&#45;&gt;Node5 -->
<g id="edge7" class="edge"><title>Node7&#45;&gt;Node5</title>
<path fill="none" stroke="midnightblue" d="M521.125,-201.548C532.161,-200.151 543.547,-198.709 554.7,-197.297"/>
<polygon fill="midnightblue" stroke="midnightblue" points="555.379,-200.739 564.861,-196.011 554.5,-193.795 555.379,-200.739"/>
</g>
<!-- Node8 -->
<g id="node8" class="node"><title>Node8</title>
<g id="a_node8"><a xlink:href="class_word_quizzle_1_1_user.html#a8a3e0c4b349c4e6bf825bc84c179c36b" target="_top" xlink:title="Restituisce la lista di amici dell&#39;utente.">
<polygon fill="white" stroke="black" points="568.5,-253 568.5,-272 713.5,-272 713.5,-253 568.5,-253"/>
<text text-anchor="middle" x="641" y="-260" font-family="Helvetica,sans-Serif" font-size="10.00">WordQuizzle.User.getFriends</text>
</a>
</g>
</g>
<!-- Node7&#45;&gt;Node8 -->
<g id="edge8" class="edge"><title>Node7&#45;&gt;Node8</title>
<path fill="none" stroke="midnightblue" d="M494.229,-226.519C513.835,-232.063 536.395,-238.265 557,-243.5 566.464,-245.904 576.57,-248.333 586.356,-250.613"/>
<polygon fill="midnightblue" stroke="midnightblue" points="585.869,-254.092 596.399,-252.928 587.441,-247.271 585.869,-254.092"/>
</g>
<!-- Node9 -->
<g id="node9" class="node"><title>Node9</title>
<g id="a_node9"><a xlink:href="interface_word_quizzle_1_1_data_base.html#a987acacce768d19e4551b5b3a508ccf3" target="_top" xlink:title="Dato un nome utente ottiene l&#39;oggetto User corrispondente.">
<polygon fill="white" stroke="black" points="563.5,-139 563.5,-158 718.5,-158 718.5,-139 563.5,-139"/>
<text text-anchor="middle" x="641" y="-146" font-family="Helvetica,sans-Serif" font-size="10.00">WordQuizzle.DataBase.getUser</text>
</a>
</g>
</g>
<!-- Node7&#45;&gt;Node9 -->
<g id="edge9" class="edge"><title>Node7&#45;&gt;Node9</title>
<path fill="none" stroke="midnightblue" d="M497.086,-196.44C505.203,-193.733 513.393,-190.733 521,-187.5 537.845,-180.34 539.909,-174.052 557,-167.5 563.738,-164.917 570.923,-162.629 578.142,-160.616"/>
<polygon fill="midnightblue" stroke="midnightblue" points="579.18,-163.962 587.965,-158.04 577.405,-157.191 579.18,-163.962"/>
</g>
<!-- Node10&#45;&gt;Node5 -->
<g id="edge11" class="edge"><title>Node10&#45;&gt;Node5</title>
<path fill="none" stroke="midnightblue" d="M498.872,-128.646C506.496,-131.497 514.071,-134.775 521,-138.5 539.097,-148.228 538.514,-158.534 557,-167.5 561.988,-169.919 567.295,-172.037 572.722,-173.89"/>
<polygon fill="midnightblue" stroke="midnightblue" points="571.987,-177.327 582.575,-176.948 574.061,-170.641 571.987,-177.327"/>
</g>
<!-- Node10&#45;&gt;Node9 -->
<g id="edge13" class="edge"><title>Node10&#45;&gt;Node9</title>
<path fill="none" stroke="midnightblue" d="M521.125,-127.433C539.379,-130.668 558.591,-134.073 576.122,-137.18"/>
<polygon fill="midnightblue" stroke="midnightblue" points="575.772,-140.672 586.229,-138.971 576.993,-133.78 575.772,-140.672"/>
</g>
<!-- Node11 -->
<g id="node11" class="node"><title>Node11</title>
<g id="a_node11"><a xlink:href="class_word_quizzle_1_1_user.html#ab3df921fe5bcada15672f146592dbc3f" target="_top" xlink:title="Restituisce la password dell&#39;utente.">
<polygon fill="white" stroke="black" points="563.5,-101 563.5,-120 718.5,-120 718.5,-101 563.5,-101"/>
<text text-anchor="middle" x="641" y="-108" font-family="Helvetica,sans-Serif" font-size="10.00">WordQuizzle.User.getPassword</text>
</a>
</g>
</g>
<!-- Node10&#45;&gt;Node11 -->
<g id="edge12" class="edge"><title>Node10&#45;&gt;Node11</title>
<path fill="none" stroke="midnightblue" d="M521.125,-112.306C531.641,-112.146 542.475,-111.981 553.122,-111.82"/>
<polygon fill="midnightblue" stroke="midnightblue" points="553.31,-115.317 563.256,-111.666 553.204,-108.318 553.31,-115.317"/>
</g>
<!-- Node13&#45;&gt;Node5 -->
<g id="edge16" class="edge"><title>Node13&#45;&gt;Node5</title>
<path fill="none" stroke="midnightblue" d="M501.478,-245.414C508.234,-242.831 514.885,-239.871 521,-236.5 539.491,-226.307 538.156,-215.024 557,-205.5 561.663,-203.143 566.62,-201.075 571.702,-199.261"/>
<polygon fill="midnightblue" stroke="midnightblue" points="573.139,-202.475 581.583,-196.075 570.992,-195.813 573.139,-202.475"/>
</g>
<!-- Node13&#45;&gt;Node8 -->
<g id="edge17" class="edge"><title>Node13&#45;&gt;Node8</title>
<path fill="none" stroke="midnightblue" d="M521.125,-261.296C533.311,-261.42 545.923,-261.547 558.178,-261.671"/>
<polygon fill="midnightblue" stroke="midnightblue" points="558.335,-265.173 568.37,-261.775 558.406,-258.173 558.335,-265.173"/>
</g>
<!-- Node13&#45;&gt;Node9 -->
<g id="edge19" class="edge"><title>Node13&#45;&gt;Node9</title>
<path fill="none" stroke="midnightblue" d="M507.263,-245.459C512.176,-242.923 516.835,-239.961 521,-236.5 547.604,-214.394 529.621,-188.638 557,-167.5 559.358,-165.679 561.86,-164.027 564.468,-162.529"/>
<polygon fill="midnightblue" stroke="midnightblue" points="566.252,-165.552 573.688,-158.004 563.169,-159.268 566.252,-165.552"/>
</g>
<!-- Node14 -->
<g id="node14" class="node"><title>Node14</title>
<g id="a_node14"><a xlink:href="class_word_quizzle_1_1_user.html#ae4cc205520a878a71ce7c673e96f7e4f" target="_top" xlink:title="Restituisce il punteggio dell&#39;utente.">
<polygon fill="white" stroke="black" points="572,-215 572,-234 710,-234 710,-215 572,-215"/>
<text text-anchor="middle" x="641" y="-222" font-family="Helvetica,sans-Serif" font-size="10.00">WordQuizzle.User.getScore</text>
</a>
</g>
</g>
<!-- Node13&#45;&gt;Node14 -->
<g id="edge18" class="edge"><title>Node13&#45;&gt;Node14</title>
<path fill="none" stroke="midnightblue" d="M521.125,-246.168C539.916,-242.743 559.723,-239.133 577.664,-235.862"/>
<polygon fill="midnightblue" stroke="midnightblue" points="578.495,-239.269 587.705,-234.032 577.24,-232.382 578.495,-239.269"/>
</g>
<!-- Node15&#45;&gt;Node5 -->
<g id="edge21" class="edge"><title>Node15&#45;&gt;Node5</title>
<path fill="none" stroke="midnightblue" d="M521.125,-172.054C531.129,-173.27 541.421,-174.521 551.566,-175.754"/>
<polygon fill="midnightblue" stroke="midnightblue" points="551.297,-179.247 561.646,-176.978 552.141,-172.298 551.297,-179.247"/>
</g>
<!-- Node15&#45;&gt;Node9 -->
<g id="edge23" class="edge"><title>Node15&#45;&gt;Node9</title>
<path fill="none" stroke="midnightblue" d="M521.125,-156.927C531.641,-156.181 542.475,-155.413 553.122,-154.658"/>
<polygon fill="midnightblue" stroke="midnightblue" points="553.528,-158.139 563.256,-153.94 553.033,-151.156 553.528,-158.139"/>
</g>
<!-- Node15&#45;&gt;Node14 -->
<g id="edge22" class="edge"><title>Node15&#45;&gt;Node14</title>
<path fill="none" stroke="midnightblue" d="M494.004,-177.638C503.087,-180.666 512.387,-184 521,-187.5 537.572,-194.234 540.162,-199.461 557,-205.5 564.24,-208.096 571.966,-210.422 579.68,-212.48"/>
<polygon fill="midnightblue" stroke="midnightblue" points="578.856,-215.882 589.409,-214.944 580.575,-209.096 578.856,-215.882"/>
</g>
<!-- Node16&#45;&gt;Node5 -->
<g id="edge25" class="edge"><title>Node16&#45;&gt;Node5</title>
<path fill="none" stroke="midnightblue" d="M506.303,-79.5683C511.603,-82.339 516.604,-85.6185 521,-89.5 549.62,-114.772 527.353,-143.441 557,-167.5 559.059,-169.171 561.237,-170.701 563.507,-172.101"/>
<polygon fill="midnightblue" stroke="midnightblue" points="562.18,-175.357 572.663,-176.887 565.422,-169.153 562.18,-175.357"/>
</g>
<!-- Node16&#45;&gt;Node9 -->
<g id="edge26" class="edge"><title>Node16&#45;&gt;Node9</title>
<path fill="none" stroke="midnightblue" d="M501.923,-79.6483C508.601,-82.4379 515.112,-85.6995 521,-89.5 541.095,-102.47 536.382,-117.378 557,-129.5 560.831,-131.752 564.907,-133.738 569.117,-135.488"/>
<polygon fill="midnightblue" stroke="midnightblue" points="567.913,-138.774 578.506,-138.955 570.338,-132.208 567.913,-138.774"/>
</g>
<!-- Node17 -->
<g id="node17" class="node"><title>Node17</title>
<g id="a_node17"><a xlink:href="class_word_quizzle_1_1_user.html#a3cb7161060a60e47d7d9437bed21b888" target="_top" xlink:title="Verifica se un nome utente e&#39; amico dell&#39;utente.">
<polygon fill="white" stroke="black" points="574,-55 574,-74 708,-74 708,-55 574,-55"/>
<text text-anchor="middle" x="641" y="-62" font-family="Helvetica,sans-Serif" font-size="10.00">WordQuizzle.User.isFriend</text>
</a>
</g>
</g>
<!-- Node16&#45;&gt;Node17 -->
<g id="edge27" class="edge"><title>Node16&#45;&gt;Node17</title>
<path fill="none" stroke="midnightblue" d="M521.125,-64.5C535.148,-64.5 549.736,-64.5 563.693,-64.5"/>
<polygon fill="midnightblue" stroke="midnightblue" points="563.727,-68.0001 573.727,-64.5 563.727,-61.0001 563.727,-68.0001"/>
</g>
</g>
</svg>
        <g id="navigator" transform="translate(0 0)" fill="#404254">
                <rect fill="#f2f5e9" fill-opacity="0.5" stroke="#606060" stroke-width=".5" x="0" y="0" width="60" height="60"/>
                <use id="zoomplus" xlink:href="#zoomPlus" x="17" y="9" onmousedown="handleZoom(evt,'in')"/>
                <use id="zoomminus" xlink:href="#zoomMin" x="42" y="9" onmousedown="handleZoom(evt,'out')"/>
                <use id="reset" xlink:href="#resetDef" x="30" y="36" onmousedown="handleReset()"/>
                <g id="arrowUp" xlink:href="#dirArrow" transform="translate(30 24)" onmousedown="handlePan(0,-1)">
                  <use xlink:href="#rim" fill="#404040">
                        <set attributeName="fill" to="#808080" begin="arrowUp.mouseover" end="arrowUp.mouseout"/>
                  </use>
                  <path fill="none" stroke="white" stroke-width="1.5" d="M0,-3.0v7 M-2.5,-0.5L0,-3.0L2.5,-0.5"/>
                </g>
                <g id="arrowRight" xlink:href="#dirArrow" transform="rotate(90) translate(36 -43)" onmousedown="handlePan(1,0)">
                  <use xlink:href="#rim" fill="#404040">
                        <set attributeName="fill" to="#808080" begin="arrowRight.mouseover" end="arrowRight.mouseout"/>
                  </use>
                  <path fill="none" stroke="white" stroke-width="1.5" d="M0,-3.0v7 M-2.5,-0.5L0,-3.0L2.5,-0.5"/>
                </g>
                <g id="arrowDown" xlink:href="#dirArrow" transform="rotate(180) translate(-30 -48)" onmousedown="handlePan(0,1)">
                  <use xlink:href="#rim" fill="#404040">
                        <set attributeName="fill" to="#808080" begin="arrowDown.mouseover" end="arrowDown.mouseout"/>
                  </use>
                  <path fill="none" stroke="white" stroke-width="1.5" d="M0,-3.0v7 M-2.5,-0.5L0,-3.0L2.5,-0.5"/>
                </g>
                <g id="arrowLeft" xlink:href="#dirArrow" transform="rotate(270) translate(-36 17)" onmousedown="handlePan(-1,0)">
                  <use xlink:href="#rim" fill="#404040">
                        <set attributeName="fill" to="#808080" begin="arrowLeft.mouseover" end="arrowLeft.mouseout"/>
                  </use>
                  <path fill="none" stroke="white" stroke-width="1.5" d="M0,-3.0v7 M-2.5,-0.5L0,-3.0L2.5,-0.5"/>
                </g>
        </g>
        <svg viewBox="0 0 15 15" width="100%" height="30px" preserveAspectRatio="xMaxYMin meet">
         <g id="arrow_out" transform="scale(0.3 0.3)">
          <a xlink:href="class_word_quizzle_1_1_session_a6793f02ea7cab6fffe0361893cf40178_cgraph_org.svg" target="_base">
           <rect id="button" ry="5" rx="5" y="6" x="6" height="38" width="38"
                fill="#f2f5e9" fill-opacity="0.5" stroke="#606060" stroke-width="1.0"/>
           <path id="arrow"
             d="M 11.500037,31.436501 C 11.940474,20.09759 22.043105,11.32322 32.158766,21.979434 L 37.068811,17.246167 C 37.068811,17.246167 37.088388,32 37.088388,32 L 22.160133,31.978069 C 22.160133,31.978069 26.997745,27.140456 26.997745,27.140456 C 18.528582,18.264221 13.291696,25.230495 11.500037,31.436501 z"
             style="fill:#404040;"/>
          </a>
         </g>
        </svg>
</svg>
