<?xml version="1.0" encoding="UTF-8" standalone="no"?>
<!DOCTYPE svg PUBLIC "-//W3C//DTD SVG 1.1//EN"
 "http://www.w3.org/Graphics/SVG/1.1/DTD/svg11.dtd">
<!-- Generated by graphviz version 2.38.0 (20140413.2041)
 -->
<!-- Title: WordQuizzle.WordQuizzleClient.sendTranslation Pages: 1 -->
<svg width="413pt" height="39pt"
 viewBox="0.00 0.00 413.00 39.00" xmlns="http://www.w3.org/2000/svg" xmlns:xlink="http://www.w3.org/1999/xlink">
<g id="graph0" class="graph" transform="scale(1 1) rotate(0) translate(4 35)">
<title>WordQuizzle.WordQuizzleClient.sendTranslation</title>
<polygon fill="white" stroke="none" points="-4,4 -4,-35 409,-35 409,4 -4,4"/>
<!-- Node1 -->
<g id="node1" class="node"><title>Node1</title>
<g id="a_node1"><a xlink:title="Invia la traduzione della parola precedentemente inviata dal server durante una sfida.">
<polygon fill="#bfbfbf" stroke="black" points="0,-0.5 0,-30.5 181,-30.5 181,-0.5 0,-0.5"/>
<text text-anchor="start" x="8" y="-18.5" font-family="Helvetica,sans-Serif" font-size="10.00">WordQuizzle.WordQuizzleClient.send</text>
<text text-anchor="middle" x="90.5" y="-7.5" font-family="Helvetica,sans-Serif" font-size="10.00">Translation</text>
</a>
</g>
</g>
<!-- Node2 -->
<g id="node2" class="node"><title>Node2</title>
<g id="a_node2"><a xlink:href="interface_word_quizzle_1_1_word_quizzle_service.html#a40fcaf644a7b5e4e1c1e592052f55e0b" target="_top" xlink:title="Invia la traduzione della parola precedentemente inviata dal server durante una sfida.">
<polygon fill="white" stroke="black" points="217,-0.5 217,-30.5 405,-30.5 405,-0.5 217,-0.5"/>
<text text-anchor="start" x="225" y="-18.5" font-family="Helvetica,sans-Serif" font-size="10.00">WordQuizzle.WordQuizzleService.send</text>
<text text-anchor="middle" x="311" y="-7.5" font-family="Helvetica,sans-Serif" font-size="10.00">Translation</text>
</a>
</g>
</g>
<!-- Node1&#45;&gt;Node2 -->
<g id="edge1" class="edge"><title>Node1&#45;&gt;Node2</title>
<path fill="none" stroke="midnightblue" d="M181.003,-15.5C189.474,-15.5 198.108,-15.5 206.694,-15.5"/>
<polygon fill="midnightblue" stroke="midnightblue" points="206.737,-19.0001 216.737,-15.5 206.737,-12.0001 206.737,-19.0001"/>
</g>
</g>
</svg>
