<?xml version="1.0" encoding="UTF-8" standalone="no"?>
<!DOCTYPE svg PUBLIC "-//W3C//DTD SVG 1.1//EN"
 "http://www.w3.org/Graphics/SVG/1.1/DTD/svg11.dtd">
<!-- Generated by graphviz version 2.38.0 (20140413.2041)
 -->
<!-- Title: WordQuizzle.DataBaseJSON.link Pages: 1 -->
<svg width="400pt" height="66pt"
 viewBox="0.00 0.00 400.00 66.00" xmlns="http://www.w3.org/2000/svg" xmlns:xlink="http://www.w3.org/1999/xlink">
<g id="graph0" class="graph" transform="scale(1 1) rotate(0) translate(4 62)">
<title>WordQuizzle.DataBaseJSON.link</title>
<polygon fill="white" stroke="none" points="-4,4 -4,-62 396,-62 396,4 -4,4"/>
<!-- Node1 -->
<g id="node1" class="node"><title>Node1</title>
<g id="a_node1"><a xlink:title="Crea un link (amicizia) non orientato tra due utenti.">
<polygon fill="#bfbfbf" stroke="black" points="0,-19.5 0,-38.5 162,-38.5 162,-19.5 0,-19.5"/>
<text text-anchor="middle" x="81" y="-26.5" font-family="Helvetica,sans-Serif" font-size="10.00">WordQuizzle.DataBaseJSON.link</text>
</a>
</g>
</g>
<!-- Node2 -->
<g id="node2" class="node"><title>Node2</title>
<g id="a_node2"><a xlink:href="class_word_quizzle_1_1_data_base_j_s_o_n.html#a8cf7829d68264a1874636d2b3cb66a5c" target="_top" xlink:title="Controlla che quel nome utente sia nel database.">
<polygon fill="white" stroke="black" points="198,-38.5 198,-57.5 392,-57.5 392,-38.5 198,-38.5"/>
<text text-anchor="middle" x="295" y="-45.5" font-family="Helvetica,sans-Serif" font-size="10.00">WordQuizzle.DataBaseJSON.checkUser</text>
</a>
</g>
</g>
<!-- Node1&#45;&gt;Node2 -->
<g id="edge1" class="edge"><title>Node1&#45;&gt;Node2</title>
<path fill="none" stroke="midnightblue" d="M162.148,-36.1831C170.492,-36.9308 179.063,-37.699 187.637,-38.4674"/>
<polygon fill="midnightblue" stroke="midnightblue" points="187.418,-41.9617 197.69,-39.3685 188.043,-34.9897 187.418,-41.9617"/>
</g>
<!-- Node3 -->
<g id="node3" class="node"><title>Node3</title>
<g id="a_node3"><a xlink:href="class_word_quizzle_1_1_data_base_j_s_o_n.html#a04803859cfb2935ed77a512440d643da" target="_top" xlink:title="Fa il commit del database nel file json.">
<polygon fill="white" stroke="black" points="198.5,-0.5 198.5,-19.5 391.5,-19.5 391.5,-0.5 198.5,-0.5"/>
<text text-anchor="middle" x="295" y="-7.5" font-family="Helvetica,sans-Serif" font-size="10.00">WordQuizzle.DataBaseJSON.writeJSON</text>
</a>
</g>
</g>
<!-- Node1&#45;&gt;Node3 -->
<g id="edge2" class="edge"><title>Node1&#45;&gt;Node3</title>
<path fill="none" stroke="midnightblue" d="M162.148,-21.8169C170.753,-21.0458 179.599,-20.2529 188.442,-19.4604"/>
<polygon fill="midnightblue" stroke="midnightblue" points="188.763,-22.9458 198.41,-18.567 188.138,-15.9737 188.763,-22.9458"/>
</g>
</g>
</svg>
