<?xml version="1.0" encoding="UTF-8" standalone="no"?>
<!DOCTYPE svg PUBLIC "-//W3C//DTD SVG 1.1//EN"
 "http://www.w3.org/Graphics/SVG/1.1/DTD/svg11.dtd">
<!-- Generated by graphviz version 2.38.0 (20140413.2041)
 -->
<!-- Title: WordQuizzle.WordQuizzleServer Pages: 1 -->
<svg width="731pt" height="744pt"
 viewBox="0.00 0.00 730.50 744.00" xmlns="http://www.w3.org/2000/svg" xmlns:xlink="http://www.w3.org/1999/xlink">
<g id="graph0" class="graph" transform="scale(1 1) rotate(0) translate(4 740)">
<title>WordQuizzle.WordQuizzleServer</title>
<polygon fill="white" stroke="none" points="-4,4 -4,-740 726.5,-740 726.5,4 -4,4"/>
<!-- Node1 -->
<g id="node1" class="node"><title>Node1</title>
<g id="a_node1"><a xlink:title="Il server che gestisce le interazioni con i client.">
<polygon fill="#bfbfbf" stroke="black" points="66.5,-0.5 66.5,-79.5 225.5,-79.5 225.5,-0.5 66.5,-0.5"/>
<text text-anchor="middle" x="146" y="-67.5" font-family="Helvetica,sans-Serif" font-size="10.00">WordQuizzle.WordQuizzleServer</text>
<polyline fill="none" stroke="black" points="66.5,-60.5 225.5,-60.5 "/>
<text text-anchor="middle" x="146" y="-48.5" font-family="Helvetica,sans-Serif" font-size="10.00"> </text>
<polyline fill="none" stroke="black" points="66.5,-41.5 225.5,-41.5 "/>
<text text-anchor="start" x="74.5" y="-29.5" font-family="Helvetica,sans-Serif" font-size="10.00">+ WordQuizzleServer()</text>
<text text-anchor="start" x="74.5" y="-18.5" font-family="Helvetica,sans-Serif" font-size="10.00">+ run()</text>
<text text-anchor="start" x="74.5" y="-7.5" font-family="Helvetica,sans-Serif" font-size="10.00">+ main()</text>
</a>
</g>
</g>
<!-- Node2 -->
<g id="node2" class="node"><title>Node2</title>
<g id="a_node2"><a xlink:title=" ">
<polygon fill="white" stroke="#bfbfbf" points="0,-270.5 0,-327.5 110,-327.5 110,-270.5 0,-270.5"/>
<text text-anchor="middle" x="55" y="-315.5" font-family="Helvetica,sans-Serif" font-size="10.00">ServerSocketChannel</text>
<polyline fill="none" stroke="#bfbfbf" points="0,-308.5 110,-308.5 "/>
<text text-anchor="middle" x="55" y="-296.5" font-family="Helvetica,sans-Serif" font-size="10.00"> </text>
<polyline fill="none" stroke="#bfbfbf" points="0,-289.5 110,-289.5 "/>
<text text-anchor="middle" x="55" y="-277.5" font-family="Helvetica,sans-Serif" font-size="10.00"> </text>
</a>
</g>
</g>
<!-- Node2&#45;&gt;Node1 -->
<g id="edge1" class="edge"><title>Node2&#45;&gt;Node1</title>
<path fill="none" stroke="#404040" d="M57.2411,-270.171C61.3243,-230.287 72.2807,-155.36 100,-98 101.331,-95.245 102.819,-92.5042 104.421,-89.7995"/>
<polygon fill="none" stroke="#404040" points="104.526,-89.6397 104.456,-82.4289 111.085,-79.5913 111.155,-86.8021 104.526,-89.6397"/>
<text text-anchor="middle" x="116" y="-101" font-family="Helvetica,sans-Serif" font-size="10.00"> &#45;server</text>
</g>
<!-- Node3 -->
<g id="node3" class="node"><title>Node3</title>
<g id="a_node3"><a xlink:title=" ">
<polygon fill="white" stroke="#bfbfbf" points="119.5,-540.5 119.5,-597.5 172.5,-597.5 172.5,-540.5 119.5,-540.5"/>
<text text-anchor="middle" x="146" y="-585.5" font-family="Helvetica,sans-Serif" font-size="10.00">Selector</text>
<polyline fill="none" stroke="#bfbfbf" points="119.5,-578.5 172.5,-578.5 "/>
<text text-anchor="middle" x="146" y="-566.5" font-family="Helvetica,sans-Serif" font-size="10.00"> </text>
<polyline fill="none" stroke="#bfbfbf" points="119.5,-559.5 172.5,-559.5 "/>
<text text-anchor="middle" x="146" y="-547.5" font-family="Helvetica,sans-Serif" font-size="10.00"> </text>
</a>
</g>
</g>
<!-- Node3&#45;&gt;Node1 -->
<g id="edge2" class="edge"><title>Node3&#45;&gt;Node1</title>
<path fill="none" stroke="#404040" d="M146,-540.408C146,-456.17 146,-201.417 146,-91.9192"/>
<polygon fill="none" stroke="#404040" points="146,-91.6156 142,-85.6156 146,-79.6156 150,-85.6155 146,-91.6156"/>
<text text-anchor="middle" x="166.5" y="-296.5" font-family="Helvetica,sans-Serif" font-size="10.00"> &#45;selector</text>
</g>
<!-- Node4 -->
<g id="node4" class="node"><title>Node4</title>
<g id="a_node4"><a xlink:href="class_word_quizzle_1_1_word_quizzle_server_service.html" target="_top" xlink:title=" ">
<polygon fill="white" stroke="black" points="229.5,-127.5 229.5,-470.5 388.5,-470.5 388.5,-127.5 229.5,-127.5"/>
<text text-anchor="start" x="237.5" y="-458.5" font-family="Helvetica,sans-Serif" font-size="10.00">WordQuizzle.WordQuizzleServer</text>
<text text-anchor="middle" x="309" y="-447.5" font-family="Helvetica,sans-Serif" font-size="10.00">Service</text>
<polyline fill="none" stroke="black" points="229.5,-440.5 388.5,-440.5 "/>
<text text-anchor="start" x="237.5" y="-428.5" font-family="Helvetica,sans-Serif" font-size="10.00">&#45; K</text>
<text text-anchor="start" x="237.5" y="-417.5" font-family="Helvetica,sans-Serif" font-size="10.00">&#45; T1</text>
<text text-anchor="start" x="237.5" y="-406.5" font-family="Helvetica,sans-Serif" font-size="10.00">&#45; T2</text>
<text text-anchor="start" x="237.5" y="-395.5" font-family="Helvetica,sans-Serif" font-size="10.00">&#45; X</text>
<text text-anchor="start" x="237.5" y="-384.5" font-family="Helvetica,sans-Serif" font-size="10.00">&#45; Y</text>
<text text-anchor="start" x="237.5" y="-373.5" font-family="Helvetica,sans-Serif" font-size="10.00">&#45; Z</text>
<polyline fill="none" stroke="black" points="229.5,-366.5 388.5,-366.5 "/>
<text text-anchor="start" x="237.5" y="-354.5" font-family="Helvetica,sans-Serif" font-size="10.00">+ WordQuizzleServerService()</text>
<text text-anchor="start" x="237.5" y="-343.5" font-family="Helvetica,sans-Serif" font-size="10.00">+ login()</text>
<text text-anchor="start" x="237.5" y="-332.5" font-family="Helvetica,sans-Serif" font-size="10.00">+ logout()</text>
<text text-anchor="start" x="237.5" y="-321.5" font-family="Helvetica,sans-Serif" font-size="10.00">+ aggiungi_amico()</text>
<text text-anchor="start" x="237.5" y="-310.5" font-family="Helvetica,sans-Serif" font-size="10.00">+ lista_amici()</text>
<text text-anchor="start" x="237.5" y="-299.5" font-family="Helvetica,sans-Serif" font-size="10.00">+ mostra_punteggio()</text>
<text text-anchor="start" x="237.5" y="-288.5" font-family="Helvetica,sans-Serif" font-size="10.00">+ mostra_classifica()</text>
<text text-anchor="start" x="237.5" y="-277.5" font-family="Helvetica,sans-Serif" font-size="10.00">+ sfida()</text>
<text text-anchor="start" x="237.5" y="-266.5" font-family="Helvetica,sans-Serif" font-size="10.00">+ accettaSfida()</text>
<text text-anchor="start" x="237.5" y="-255.5" font-family="Helvetica,sans-Serif" font-size="10.00">+ getK()</text>
<text text-anchor="start" x="237.5" y="-244.5" font-family="Helvetica,sans-Serif" font-size="10.00">+ getZ()</text>
<text text-anchor="start" x="237.5" y="-233.5" font-family="Helvetica,sans-Serif" font-size="10.00">+ getY()</text>
<text text-anchor="start" x="237.5" y="-222.5" font-family="Helvetica,sans-Serif" font-size="10.00">+ getX()</text>
<text text-anchor="start" x="237.5" y="-211.5" font-family="Helvetica,sans-Serif" font-size="10.00">+ getT1()</text>
<text text-anchor="start" x="237.5" y="-200.5" font-family="Helvetica,sans-Serif" font-size="10.00">+ getT2()</text>
<text text-anchor="start" x="237.5" y="-189.5" font-family="Helvetica,sans-Serif" font-size="10.00">+ setK()</text>
<text text-anchor="start" x="237.5" y="-178.5" font-family="Helvetica,sans-Serif" font-size="10.00">+ setZ()</text>
<text text-anchor="start" x="237.5" y="-167.5" font-family="Helvetica,sans-Serif" font-size="10.00">+ setY()</text>
<text text-anchor="start" x="237.5" y="-156.5" font-family="Helvetica,sans-Serif" font-size="10.00">+ setX()</text>
<text text-anchor="start" x="237.5" y="-145.5" font-family="Helvetica,sans-Serif" font-size="10.00">+ setT2()</text>
<text text-anchor="start" x="237.5" y="-134.5" font-family="Helvetica,sans-Serif" font-size="10.00">+ setT1()</text>
</a>
</g>
</g>
<!-- Node3&#45;&gt;Node4 -->
<g id="edge7" class="edge"><title>Node3&#45;&gt;Node4</title>
<path fill="none" stroke="#404040" d="M162.83,-540.329C177.514,-516.185 200.015,-479.19 222.995,-441.406"/>
<polygon fill="none" stroke="#404040" points="223.248,-440.991 222.948,-433.786 229.484,-430.739 229.783,-437.943 223.248,-440.991"/>
<text text-anchor="middle" x="210.5" y="-492" font-family="Helvetica,sans-Serif" font-size="10.00"> &#45;selector</text>
</g>
<!-- Node4&#45;&gt;Node1 -->
<g id="edge3" class="edge"><title>Node4&#45;&gt;Node1</title>
<path fill="none" stroke="#404040" d="M229.41,-172.511C210.839,-143.23 192.135,-113.74 177.159,-90.128"/>
<polygon fill="none" stroke="#404040" points="176.982,-89.8483 170.39,-86.9238 170.554,-79.7146 177.146,-82.639 176.982,-89.8483"/>
<text text-anchor="middle" x="195.5" y="-101" font-family="Helvetica,sans-Serif" font-size="10.00"> &#45;wq</text>
</g>
<!-- Node5 -->
<g id="node5" class="node"><title>Node5</title>
<g id="a_node5"><a xlink:title=" ">
<polygon fill="white" stroke="#bfbfbf" points="190.5,-540.5 190.5,-597.5 279.5,-597.5 279.5,-540.5 190.5,-540.5"/>
<text text-anchor="middle" x="235" y="-585.5" font-family="Helvetica,sans-Serif" font-size="10.00">DatagramSocket</text>
<polyline fill="none" stroke="#bfbfbf" points="190.5,-578.5 279.5,-578.5 "/>
<text text-anchor="middle" x="235" y="-566.5" font-family="Helvetica,sans-Serif" font-size="10.00"> </text>
<polyline fill="none" stroke="#bfbfbf" points="190.5,-559.5 279.5,-559.5 "/>
<text text-anchor="middle" x="235" y="-547.5" font-family="Helvetica,sans-Serif" font-size="10.00"> </text>
</a>
</g>
</g>
<!-- Node5&#45;&gt;Node4 -->
<g id="edge4" class="edge"><title>Node5&#45;&gt;Node4</title>
<path fill="none" stroke="#404040" d="M242.641,-540.329C246.858,-525.055 252.495,-504.638 258.71,-482.132"/>
<polygon fill="none" stroke="#404040" points="258.711,-482.127 256.452,-475.279 261.905,-470.56 264.164,-477.409 258.711,-482.127"/>
<text text-anchor="middle" x="273" y="-492" font-family="Helvetica,sans-Serif" font-size="10.00"> &#45;socket</text>
</g>
<!-- Node6 -->
<g id="node6" class="node"><title>Node6</title>
<g id="a_node6"><a xlink:title=" ">
<polygon fill="white" stroke="#bfbfbf" points="297.5,-535 297.5,-603 432.5,-603 432.5,-535 297.5,-535"/>
<text text-anchor="start" x="305.5" y="-591" font-family="Helvetica,sans-Serif" font-size="10.00">Map&lt; String, WordQuizzle.</text>
<text text-anchor="middle" x="365" y="-580" font-family="Helvetica,sans-Serif" font-size="10.00">Session &gt;</text>
<polyline fill="none" stroke="#bfbfbf" points="297.5,-573 432.5,-573 "/>
<text text-anchor="middle" x="365" y="-561" font-family="Helvetica,sans-Serif" font-size="10.00"> </text>
<polyline fill="none" stroke="#bfbfbf" points="297.5,-554 432.5,-554 "/>
<text text-anchor="middle" x="365" y="-542" font-family="Helvetica,sans-Serif" font-size="10.00"> </text>
</a>
</g>
</g>
<!-- Node6&#45;&gt;Node4 -->
<g id="edge5" class="edge"><title>Node6&#45;&gt;Node4</title>
<path fill="none" stroke="#404040" d="M358.077,-534.869C355.056,-520.411 351.258,-502.234 347.119,-482.426"/>
<polygon fill="none" stroke="#404040" points="347.1,-482.337 341.958,-477.282 344.646,-470.591 349.789,-475.646 347.1,-482.337"/>
<text text-anchor="middle" x="365.5" y="-492" font-family="Helvetica,sans-Serif" font-size="10.00"> &#45;users</text>
</g>
<!-- Node7 -->
<g id="node7" class="node"><title>Node7</title>
<g id="a_node7"><a xlink:title=" ">
<polygon fill="white" stroke="#bfbfbf" points="427.5,-678.5 427.5,-735.5 462.5,-735.5 462.5,-678.5 427.5,-678.5"/>
<text text-anchor="middle" x="445" y="-723.5" font-family="Helvetica,sans-Serif" font-size="10.00">Map</text>
<polyline fill="none" stroke="#bfbfbf" points="427.5,-716.5 462.5,-716.5 "/>
<text text-anchor="middle" x="445" y="-704.5" font-family="Helvetica,sans-Serif" font-size="10.00"> </text>
<polyline fill="none" stroke="#bfbfbf" points="427.5,-697.5 462.5,-697.5 "/>
<text text-anchor="middle" x="445" y="-685.5" font-family="Helvetica,sans-Serif" font-size="10.00"> </text>
</a>
</g>
</g>
<!-- Node7&#45;&gt;Node6 -->
<g id="edge6" class="edge"><title>Node7&#45;&gt;Node6</title>
<path fill="none" stroke="orange" d="M418.343,-693.565C404.72,-685.827 389.129,-674.56 380,-660 369.482,-643.224 365.659,-621.373 364.501,-603.403"/>
<polygon fill="orange" stroke="orange" points="416.884,-696.753 427.357,-698.356 420.169,-690.572 416.884,-696.753"/>
<text text-anchor="start" x="380" y="-652" font-family="Helvetica,sans-Serif" font-size="10.00"> &lt; String, WordQuizzle</text>
<text text-anchor="middle" x="430" y="-641" font-family="Helvetica,sans-Serif" font-size="10.00">::Session &gt;</text>
</g>
<!-- Node9 -->
<g id="node9" class="node"><title>Node9</title>
<g id="a_node9"><a xlink:title=" ">
<polygon fill="white" stroke="#bfbfbf" points="450.5,-535 450.5,-603 585.5,-603 585.5,-535 450.5,-535"/>
<text text-anchor="start" x="458.5" y="-591" font-family="Helvetica,sans-Serif" font-size="10.00">Map&lt; String, WordQuizzle.</text>
<text text-anchor="middle" x="518" y="-580" font-family="Helvetica,sans-Serif" font-size="10.00">Challenge &gt;</text>
<polyline fill="none" stroke="#bfbfbf" points="450.5,-573 585.5,-573 "/>
<text text-anchor="middle" x="518" y="-561" font-family="Helvetica,sans-Serif" font-size="10.00"> </text>
<polyline fill="none" stroke="#bfbfbf" points="450.5,-554 585.5,-554 "/>
<text text-anchor="middle" x="518" y="-542" font-family="Helvetica,sans-Serif" font-size="10.00"> </text>
</a>
</g>
</g>
<!-- Node7&#45;&gt;Node9 -->
<g id="edge10" class="edge"><title>Node7&#45;&gt;Node9</title>
<path fill="none" stroke="orange" d="M469.467,-680.255C474.705,-673.938 479.891,-666.978 484,-660 494.425,-642.297 502.681,-620.829 508.446,-603.301"/>
<polygon fill="orange" stroke="orange" points="466.78,-678.012 462.884,-687.864 472.073,-682.592 466.78,-678.012"/>
<text text-anchor="start" x="495" y="-652" font-family="Helvetica,sans-Serif" font-size="10.00"> &lt; String, WordQuizzle</text>
<text text-anchor="middle" x="545" y="-641" font-family="Helvetica,sans-Serif" font-size="10.00">::Challenge &gt;</text>
</g>
<!-- Node8 -->
<g id="node8" class="node"><title>Node8</title>
<g id="a_node8"><a xlink:href="interface_word_quizzle_1_1_data_base.html" target="_top" xlink:title="Database che gestisce gli utenti.">
<polygon fill="white" stroke="black" points="603.5,-518.5 603.5,-619.5 722.5,-619.5 722.5,-518.5 603.5,-518.5"/>
<text text-anchor="middle" x="663" y="-607.5" font-family="Helvetica,sans-Serif" font-size="10.00">WordQuizzle.DataBase</text>
<polyline fill="none" stroke="black" points="603.5,-600.5 722.5,-600.5 "/>
<text text-anchor="middle" x="663" y="-588.5" font-family="Helvetica,sans-Serif" font-size="10.00"> </text>
<polyline fill="none" stroke="black" points="603.5,-581.5 722.5,-581.5 "/>
<text text-anchor="start" x="611.5" y="-569.5" font-family="Helvetica,sans-Serif" font-size="10.00">+ checkUser()</text>
<text text-anchor="start" x="611.5" y="-558.5" font-family="Helvetica,sans-Serif" font-size="10.00">+ getUser()</text>
<text text-anchor="start" x="611.5" y="-547.5" font-family="Helvetica,sans-Serif" font-size="10.00">+ newUser()</text>
<text text-anchor="start" x="611.5" y="-536.5" font-family="Helvetica,sans-Serif" font-size="10.00">+ modifyScore()</text>
<text text-anchor="start" x="611.5" y="-525.5" font-family="Helvetica,sans-Serif" font-size="10.00">+ link()</text>
</a>
</g>
</g>
<!-- Node8&#45;&gt;Node4 -->
<g id="edge8" class="edge"><title>Node8&#45;&gt;Node4</title>
<path fill="none" stroke="#404040" d="M603.349,-522.841C547.216,-480.344 462.423,-416.151 398.241,-367.561"/>
<polygon fill="none" stroke="#404040" points="398.093,-367.449 390.895,-367.017 388.526,-360.206 395.724,-360.639 398.093,-367.449"/>
<text text-anchor="middle" x="576.5" y="-492" font-family="Helvetica,sans-Serif" font-size="10.00"> &#45;db</text>
</g>
<!-- Node9&#45;&gt;Node4 -->
<g id="edge9" class="edge"><title>Node9&#45;&gt;Node4</title>
<path fill="none" stroke="#404040" d="M492.163,-534.869C468.099,-504.012 430.826,-456.218 396.17,-411.778"/>
<polygon fill="none" stroke="#404040" points="395.969,-411.52 389.125,-409.249 388.589,-402.057 395.433,-404.329 395.969,-411.52"/>
<text text-anchor="middle" x="488.5" y="-492" font-family="Helvetica,sans-Serif" font-size="10.00"> &#45;challenges</text>
</g>
</g>
</svg>
