<?xml version="1.0" encoding="UTF-8" standalone="no"?>
<!DOCTYPE svg PUBLIC "-//W3C//DTD SVG 1.1//EN"
 "http://www.w3.org/Graphics/SVG/1.1/DTD/svg11.dtd">
<!-- Generated by graphviz version 2.38.0 (20140413.2041)
 -->
<!-- Title: WordQuizzleServerService Pages: 1 -->
<svg width="721pt" height="496pt"
 viewBox="0.00 0.00 720.50 496.00" xmlns="http://www.w3.org/2000/svg" xmlns:xlink="http://www.w3.org/1999/xlink">
<g id="graph0" class="graph" transform="scale(1 1) rotate(0) translate(4 492)">
<title>WordQuizzleServerService</title>
<polygon fill="white" stroke="none" points="-4,4 -4,-492 716.5,-492 716.5,4 -4,4"/>
<!-- Node1 -->
<g id="node1" class="node"><title>Node1</title>
<g id="a_node1"><a xlink:title=" ">
<polygon fill="#bfbfbf" stroke="black" points="339.5,-0.5 339.5,-200.5 485.5,-200.5 485.5,-0.5 339.5,-0.5"/>
<text text-anchor="middle" x="412.5" y="-188.5" font-family="Helvetica,sans-Serif" font-size="10.00">WordQuizzleServerService</text>
<polyline fill="none" stroke="black" points="339.5,-181.5 485.5,-181.5 "/>
<text text-anchor="start" x="347.5" y="-169.5" font-family="Helvetica,sans-Serif" font-size="10.00">&#45; K</text>
<text text-anchor="start" x="347.5" y="-158.5" font-family="Helvetica,sans-Serif" font-size="10.00">&#45; T1</text>
<text text-anchor="start" x="347.5" y="-147.5" font-family="Helvetica,sans-Serif" font-size="10.00">&#45; T2</text>
<text text-anchor="start" x="347.5" y="-136.5" font-family="Helvetica,sans-Serif" font-size="10.00">&#45; X</text>
<text text-anchor="start" x="347.5" y="-125.5" font-family="Helvetica,sans-Serif" font-size="10.00">&#45; Y</text>
<text text-anchor="start" x="347.5" y="-114.5" font-family="Helvetica,sans-Serif" font-size="10.00">&#45; Z</text>
<polyline fill="none" stroke="black" points="339.5,-107.5 485.5,-107.5 "/>
<text text-anchor="start" x="347.5" y="-95.5" font-family="Helvetica,sans-Serif" font-size="10.00">+ WordQuizzleServerService()</text>
<text text-anchor="start" x="347.5" y="-84.5" font-family="Helvetica,sans-Serif" font-size="10.00">+ login()</text>
<text text-anchor="start" x="347.5" y="-73.5" font-family="Helvetica,sans-Serif" font-size="10.00">+ logout()</text>
<text text-anchor="start" x="347.5" y="-62.5" font-family="Helvetica,sans-Serif" font-size="10.00">+ aggiungi_amico()</text>
<text text-anchor="start" x="347.5" y="-51.5" font-family="Helvetica,sans-Serif" font-size="10.00">+ lista_amici()</text>
<text text-anchor="start" x="347.5" y="-40.5" font-family="Helvetica,sans-Serif" font-size="10.00">+ mostra_punteggio()</text>
<text text-anchor="start" x="347.5" y="-29.5" font-family="Helvetica,sans-Serif" font-size="10.00">+ mostra_classifica()</text>
<text text-anchor="start" x="347.5" y="-18.5" font-family="Helvetica,sans-Serif" font-size="10.00">+ sfida()</text>
<text text-anchor="start" x="347.5" y="-7.5" font-family="Helvetica,sans-Serif" font-size="10.00">+ accettaSfida()</text>
</a>
</g>
</g>
<!-- Node2 -->
<g id="node2" class="node"><title>Node2</title>
<g id="a_node2"><a xlink:href="interface_word_quizzle_service.html" target="_top" xlink:title=" ">
<polygon fill="white" stroke="black" points="0,-248.5 0,-382.5 109,-382.5 109,-248.5 0,-248.5"/>
<text text-anchor="middle" x="54.5" y="-370.5" font-family="Helvetica,sans-Serif" font-size="10.00">WordQuizzleService</text>
<polyline fill="none" stroke="black" points="0,-363.5 109,-363.5 "/>
<text text-anchor="middle" x="54.5" y="-351.5" font-family="Helvetica,sans-Serif" font-size="10.00"> </text>
<polyline fill="none" stroke="black" points="0,-344.5 109,-344.5 "/>
<text text-anchor="start" x="8" y="-332.5" font-family="Helvetica,sans-Serif" font-size="10.00">+ login()</text>
<text text-anchor="start" x="8" y="-321.5" font-family="Helvetica,sans-Serif" font-size="10.00">+ logout()</text>
<text text-anchor="start" x="8" y="-310.5" font-family="Helvetica,sans-Serif" font-size="10.00">+ aggiungi_amico()</text>
<text text-anchor="start" x="8" y="-299.5" font-family="Helvetica,sans-Serif" font-size="10.00">+ sfida()</text>
<text text-anchor="start" x="8" y="-288.5" font-family="Helvetica,sans-Serif" font-size="10.00">+ lista_amici()</text>
<text text-anchor="start" x="8" y="-277.5" font-family="Helvetica,sans-Serif" font-size="10.00">+ mostra_punteggio()</text>
<text text-anchor="start" x="8" y="-266.5" font-family="Helvetica,sans-Serif" font-size="10.00">+ mostra_classifica()</text>
<text text-anchor="start" x="8" y="-255.5" font-family="Helvetica,sans-Serif" font-size="10.00">+ accettaSfida()</text>
</a>
</g>
</g>
<!-- Node2&#45;&gt;Node1 -->
<g id="edge1" class="edge"><title>Node2&#45;&gt;Node1</title>
<path fill="none" stroke="midnightblue" d="M116.973,-248.392C117.148,-248.261 117.324,-248.13 117.5,-248 186.929,-196.665 277.089,-154.92 339.368,-129.311"/>
<polygon fill="none" stroke="midnightblue" points="114.798,-245.65 109.133,-254.603 119.144,-251.136 114.798,-245.65"/>
</g>
<!-- Node3 -->
<g id="node3" class="node"><title>Node3</title>
<g id="a_node3"><a xlink:title=" ">
<polygon fill="white" stroke="#bfbfbf" points="127,-287 127,-344 216,-344 216,-287 127,-287"/>
<text text-anchor="middle" x="171.5" y="-332" font-family="Helvetica,sans-Serif" font-size="10.00">DatagramSocket</text>
<polyline fill="none" stroke="#bfbfbf" points="127,-325 216,-325 "/>
<text text-anchor="middle" x="171.5" y="-313" font-family="Helvetica,sans-Serif" font-size="10.00"> </text>
<polyline fill="none" stroke="#bfbfbf" points="127,-306 216,-306 "/>
<text text-anchor="middle" x="171.5" y="-294" font-family="Helvetica,sans-Serif" font-size="10.00"> </text>
</a>
</g>
</g>
<!-- Node3&#45;&gt;Node1 -->
<g id="edge2" class="edge"><title>Node3&#45;&gt;Node1</title>
<path fill="none" stroke="#404040" d="M191.286,-286.741C200.716,-274.317 212.534,-259.835 224.5,-248 256.497,-216.351 295.24,-185.151 329.222,-159.731"/>
<polygon fill="none" stroke="#404040" points="329.497,-159.527 331.933,-152.74 339.135,-152.377 336.699,-159.165 329.497,-159.527"/>
<text text-anchor="middle" x="271.5" y="-222" font-family="Helvetica,sans-Serif" font-size="10.00"> &#45;socket</text>
</g>
<!-- Node4 -->
<g id="node4" class="node"><title>Node4</title>
<g id="a_node4"><a xlink:title=" ">
<polygon fill="white" stroke="#bfbfbf" points="234,-287 234,-344 401,-344 401,-287 234,-287"/>
<text text-anchor="middle" x="317.5" y="-332" font-family="Helvetica,sans-Serif" font-size="10.00">Map&lt; String, InetSocketAddress &gt;</text>
<polyline fill="none" stroke="#bfbfbf" points="234,-325 401,-325 "/>
<text text-anchor="middle" x="317.5" y="-313" font-family="Helvetica,sans-Serif" font-size="10.00"> </text>
<polyline fill="none" stroke="#bfbfbf" points="234,-306 401,-306 "/>
<text text-anchor="middle" x="317.5" y="-294" font-family="Helvetica,sans-Serif" font-size="10.00"> </text>
</a>
</g>
</g>
<!-- Node4&#45;&gt;Node1 -->
<g id="edge3" class="edge"><title>Node4&#45;&gt;Node1</title>
<path fill="none" stroke="#404040" d="M329.92,-286.654C338.622,-267.142 350.874,-239.671 363.283,-211.85"/>
<polygon fill="none" stroke="#404040" points="363.337,-211.73 362.127,-204.621 368.225,-200.77 369.434,-207.879 363.337,-211.73"/>
<text text-anchor="middle" x="375" y="-222" font-family="Helvetica,sans-Serif" font-size="10.00"> &#45;users</text>
</g>
<!-- Node5 -->
<g id="node5" class="node"><title>Node5</title>
<g id="a_node5"><a xlink:title=" ">
<polygon fill="white" stroke="#bfbfbf" points="300,-430.5 300,-487.5 335,-487.5 335,-430.5 300,-430.5"/>
<text text-anchor="middle" x="317.5" y="-475.5" font-family="Helvetica,sans-Serif" font-size="10.00">Map</text>
<polyline fill="none" stroke="#bfbfbf" points="300,-468.5 335,-468.5 "/>
<text text-anchor="middle" x="317.5" y="-456.5" font-family="Helvetica,sans-Serif" font-size="10.00"> </text>
<polyline fill="none" stroke="#bfbfbf" points="300,-449.5 335,-449.5 "/>
<text text-anchor="middle" x="317.5" y="-437.5" font-family="Helvetica,sans-Serif" font-size="10.00"> </text>
</a>
</g>
</g>
<!-- Node5&#45;&gt;Node4 -->
<g id="edge4" class="edge"><title>Node5&#45;&gt;Node4</title>
<path fill="none" stroke="orange" d="M317.5,-420.213C317.5,-396.234 317.5,-365.749 317.5,-344.049"/>
<polygon fill="orange" stroke="orange" points="314,-420.381 317.5,-430.381 321,-420.382 314,-420.381"/>
<text text-anchor="middle" x="385.5" y="-404" font-family="Helvetica,sans-Serif" font-size="10.00"> &lt; String, InetSocketAddress &gt;</text>
</g>
<!-- Node6 -->
<g id="node6" class="node"><title>Node6</title>
<g id="a_node6"><a xlink:href="interface_data_base.html" target="_top" xlink:title="Database che gestisce gli utenti.">
<polygon fill="white" stroke="black" points="419.5,-265 419.5,-366 505.5,-366 505.5,-265 419.5,-265"/>
<text text-anchor="middle" x="462.5" y="-354" font-family="Helvetica,sans-Serif" font-size="10.00">DataBase</text>
<polyline fill="none" stroke="black" points="419.5,-347 505.5,-347 "/>
<text text-anchor="middle" x="462.5" y="-335" font-family="Helvetica,sans-Serif" font-size="10.00"> </text>
<polyline fill="none" stroke="black" points="419.5,-328 505.5,-328 "/>
<text text-anchor="start" x="427.5" y="-316" font-family="Helvetica,sans-Serif" font-size="10.00">+ checkUser()</text>
<text text-anchor="start" x="427.5" y="-305" font-family="Helvetica,sans-Serif" font-size="10.00">+ getUser()</text>
<text text-anchor="start" x="427.5" y="-294" font-family="Helvetica,sans-Serif" font-size="10.00">+ newUser()</text>
<text text-anchor="start" x="427.5" y="-283" font-family="Helvetica,sans-Serif" font-size="10.00">+ modifyScore()</text>
<text text-anchor="start" x="427.5" y="-272" font-family="Helvetica,sans-Serif" font-size="10.00">+ link()</text>
</a>
</g>
</g>
<!-- Node6&#45;&gt;Node1 -->
<g id="edge5" class="edge"><title>Node6&#45;&gt;Node1</title>
<path fill="none" stroke="#404040" d="M450.84,-264.83C447.13,-249.024 442.865,-230.856 438.559,-212.509"/>
<polygon fill="none" stroke="#404040" points="438.545,-212.45 433.279,-207.523 435.802,-200.768 441.068,-205.695 438.545,-212.45"/>
<text text-anchor="middle" x="451" y="-222" font-family="Helvetica,sans-Serif" font-size="10.00"> &#45;db</text>
</g>
<!-- Node7 -->
<g id="node7" class="node"><title>Node7</title>
<g id="a_node7"><a xlink:href="interface_dictionary.html" target="_top" xlink:title="Interfaccia che definisce un dizionario.">
<polygon fill="white" stroke="black" points="523.5,-270.5 523.5,-360.5 597.5,-360.5 597.5,-270.5 523.5,-270.5"/>
<text text-anchor="middle" x="560.5" y="-348.5" font-family="Helvetica,sans-Serif" font-size="10.00">Dictionary</text>
<polyline fill="none" stroke="black" points="523.5,-341.5 597.5,-341.5 "/>
<text text-anchor="middle" x="560.5" y="-329.5" font-family="Helvetica,sans-Serif" font-size="10.00"> </text>
<polyline fill="none" stroke="black" points="523.5,-322.5 597.5,-322.5 "/>
<text text-anchor="start" x="531.5" y="-310.5" font-family="Helvetica,sans-Serif" font-size="10.00">+ getWord()</text>
<text text-anchor="start" x="531.5" y="-299.5" font-family="Helvetica,sans-Serif" font-size="10.00">+ getWord()</text>
<text text-anchor="start" x="531.5" y="-288.5" font-family="Helvetica,sans-Serif" font-size="10.00">+ getWords()</text>
<text text-anchor="start" x="531.5" y="-277.5" font-family="Helvetica,sans-Serif" font-size="10.00">+ getN()</text>
</a>
</g>
</g>
<!-- Node7&#45;&gt;Node1 -->
<g id="edge6" class="edge"><title>Node7&#45;&gt;Node1</title>
<path fill="none" stroke="#404040" d="M530.084,-270.489C524.889,-262.983 519.542,-255.266 514.5,-248 506.135,-235.946 497.375,-223.34 488.652,-210.798"/>
<polygon fill="none" stroke="#404040" points="488.526,-210.616 481.816,-207.975 481.674,-200.765 488.384,-203.407 488.526,-210.616"/>
<text text-anchor="middle" x="512.5" y="-222" font-family="Helvetica,sans-Serif" font-size="10.00"> &#45;dict</text>
</g>
<!-- Node8 -->
<g id="node8" class="node"><title>Node8</title>
<g id="a_node8"><a xlink:title=" ">
<polygon fill="white" stroke="#bfbfbf" points="615.5,-287 615.5,-344 707.5,-344 707.5,-287 615.5,-287"/>
<text text-anchor="middle" x="661.5" y="-332" font-family="Helvetica,sans-Serif" font-size="10.00">Vector&lt; Integer &gt;</text>
<polyline fill="none" stroke="#bfbfbf" points="615.5,-325 707.5,-325 "/>
<text text-anchor="middle" x="661.5" y="-313" font-family="Helvetica,sans-Serif" font-size="10.00"> </text>
<polyline fill="none" stroke="#bfbfbf" points="615.5,-306 707.5,-306 "/>
<text text-anchor="middle" x="661.5" y="-294" font-family="Helvetica,sans-Serif" font-size="10.00"> </text>
</a>
</g>
</g>
<!-- Node8&#45;&gt;Node1 -->
<g id="edge7" class="edge"><title>Node8&#45;&gt;Node1</title>
<path fill="none" stroke="#404040" d="M640.898,-286.715C631.098,-274.286 618.841,-259.807 606.5,-248 572.492,-215.464 531.3,-183.475 495.636,-157.73"/>
<polygon fill="none" stroke="#404040" points="495.49,-157.626 488.283,-157.385 485.734,-150.639 492.941,-150.88 495.49,-157.626"/>
<text text-anchor="middle" x="609" y="-222" font-family="Helvetica,sans-Serif" font-size="10.00"> &#45;challenges</text>
</g>
<!-- Node9 -->
<g id="node9" class="node"><title>Node9</title>
<g id="a_node9"><a xlink:title=" ">
<polygon fill="white" stroke="#bfbfbf" points="639,-430.5 639,-487.5 684,-487.5 684,-430.5 639,-430.5"/>
<text text-anchor="middle" x="661.5" y="-475.5" font-family="Helvetica,sans-Serif" font-size="10.00">Vector</text>
<polyline fill="none" stroke="#bfbfbf" points="639,-468.5 684,-468.5 "/>
<text text-anchor="middle" x="661.5" y="-456.5" font-family="Helvetica,sans-Serif" font-size="10.00"> </text>
<polyline fill="none" stroke="#bfbfbf" points="639,-449.5 684,-449.5 "/>
<text text-anchor="middle" x="661.5" y="-437.5" font-family="Helvetica,sans-Serif" font-size="10.00"> </text>
</a>
</g>
</g>
<!-- Node9&#45;&gt;Node8 -->
<g id="edge8" class="edge"><title>Node9&#45;&gt;Node8</title>
<path fill="none" stroke="orange" d="M661.5,-420.213C661.5,-396.234 661.5,-365.749 661.5,-344.049"/>
<polygon fill="orange" stroke="orange" points="658,-420.381 661.5,-430.381 665,-420.382 658,-420.381"/>
<text text-anchor="middle" x="687" y="-404" font-family="Helvetica,sans-Serif" font-size="10.00"> &lt; Integer &gt;</text>
</g>
</g>
</svg>
