<?xml version="1.0" encoding="UTF-8" standalone="no"?>
<!DOCTYPE svg PUBLIC "-//W3C//DTD SVG 1.1//EN"
 "http://www.w3.org/Graphics/SVG/1.1/DTD/svg11.dtd">
<!-- Generated by graphviz version 2.38.0 (20140413.2041)
 -->
<!-- Title: WordQuizzle.WordQuizzleServerService.accettaSfida Pages: 1 -->
<svg width="773pt" height="274pt"
 viewBox="0.00 0.00 773.00 274.00" xmlns="http://www.w3.org/2000/svg" xmlns:xlink="http://www.w3.org/1999/xlink">
<g id="graph0" class="graph" transform="scale(1 1) rotate(0) translate(4 270)">
<title>WordQuizzle.WordQuizzleServerService.accettaSfida</title>
<polygon fill="white" stroke="none" points="-4,4 -4,-270 769,-270 769,4 -4,4"/>
<!-- Node1 -->
<g id="node1" class="node"><title>Node1</title>
<g id="a_node1"><a xlink:title=" ">
<polygon fill="#bfbfbf" stroke="black" points="0,-153 0,-183 159,-183 159,-153 0,-153"/>
<text text-anchor="start" x="8" y="-171" font-family="Helvetica,sans-Serif" font-size="10.00">WordQuizzle.WordQuizzleServer</text>
<text text-anchor="middle" x="79.5" y="-160" font-family="Helvetica,sans-Serif" font-size="10.00">Service.accettaSfida</text>
</a>
</g>
</g>
<!-- Node2 -->
<g id="node2" class="node"><title>Node2</title>
<g id="a_node2"><a xlink:href="interface_word_quizzle_1_1_data_base.html#a256d6e7e3541d11a9ff219431066a7d5" target="_top" xlink:title="Controlla che quel nome utente sia nel database.">
<polygon fill="white" stroke="black" points="195,-246.5 195,-265.5 363,-265.5 363,-246.5 195,-246.5"/>
<text text-anchor="middle" x="279" y="-253.5" font-family="Helvetica,sans-Serif" font-size="10.00">WordQuizzle.DataBase.checkUser</text>
</a>
</g>
</g>
<!-- Node1&#45;&gt;Node2 -->
<g id="edge1" class="edge"><title>Node1&#45;&gt;Node2</title>
<path fill="none" stroke="midnightblue" d="M100.965,-183.095C123.093,-198.737 159.92,-222.838 195,-237 201.263,-239.528 207.934,-241.759 214.667,-243.719"/>
<polygon fill="midnightblue" stroke="midnightblue" points="213.971,-247.156 224.538,-246.398 215.804,-240.4 213.971,-247.156"/>
</g>
<!-- Node3 -->
<g id="node3" class="node"><title>Node3</title>
<g id="a_node3"><a xlink:href="class_word_quizzle_1_1_challenge.html#a5c11b31b9fe597b760b5b4817d1c0dc0" target="_top" xlink:title="Restituisce il tempo di creazione della sfida.">
<polygon fill="white" stroke="black" points="211.5,-197 211.5,-227 346.5,-227 346.5,-197 211.5,-197"/>
<text text-anchor="start" x="219.5" y="-215" font-family="Helvetica,sans-Serif" font-size="10.00">WordQuizzle.Challenge.get</text>
<text text-anchor="middle" x="279" y="-204" font-family="Helvetica,sans-Serif" font-size="10.00">StartTime</text>
</a>
</g>
</g>
<!-- Node1&#45;&gt;Node3 -->
<g id="edge2" class="edge"><title>Node1&#45;&gt;Node3</title>
<path fill="none" stroke="midnightblue" d="M147.916,-183.019C165.011,-186.828 183.503,-190.947 201.031,-194.853"/>
<polygon fill="midnightblue" stroke="midnightblue" points="200.701,-198.365 211.223,-197.123 202.223,-191.532 200.701,-198.365"/>
</g>
<!-- Node4 -->
<g id="node4" class="node"><title>Node4</title>
<g id="a_node4"><a xlink:href="interface_word_quizzle_1_1_data_base.html#a987acacce768d19e4551b5b3a508ccf3" target="_top" xlink:title="Dato un nome utente ottiene l&#39;oggetto User corrispondente.">
<polygon fill="white" stroke="black" points="201.5,-158.5 201.5,-177.5 356.5,-177.5 356.5,-158.5 201.5,-158.5"/>
<text text-anchor="middle" x="279" y="-165.5" font-family="Helvetica,sans-Serif" font-size="10.00">WordQuizzle.DataBase.getUser</text>
</a>
</g>
</g>
<!-- Node1&#45;&gt;Node4 -->
<g id="edge3" class="edge"><title>Node1&#45;&gt;Node4</title>
<path fill="none" stroke="midnightblue" d="M159.125,-168C169.641,-168 180.475,-168 191.122,-168"/>
<polygon fill="midnightblue" stroke="midnightblue" points="191.256,-171.5 201.256,-168 191.256,-164.5 191.256,-171.5"/>
</g>
<!-- Node5 -->
<g id="node5" class="node"><title>Node5</title>
<g id="a_node5"><a xlink:href="class_word_quizzle_1_1_user.html#a3cb7161060a60e47d7d9437bed21b888" target="_top" xlink:title="Verifica se un nome utente e&#39; amico dell&#39;utente.">
<polygon fill="white" stroke="black" points="212,-120.5 212,-139.5 346,-139.5 346,-120.5 212,-120.5"/>
<text text-anchor="middle" x="279" y="-127.5" font-family="Helvetica,sans-Serif" font-size="10.00">WordQuizzle.User.isFriend</text>
</a>
</g>
</g>
<!-- Node1&#45;&gt;Node5 -->
<g id="edge4" class="edge"><title>Node1&#45;&gt;Node5</title>
<path fill="none" stroke="midnightblue" d="M158.557,-152.981C178.573,-149.13 199.776,-145.051 218.674,-141.415"/>
<polygon fill="midnightblue" stroke="midnightblue" points="219.462,-144.827 228.62,-139.501 218.139,-137.953 219.462,-144.827"/>
</g>
<!-- Node6 -->
<g id="node6" class="node"><title>Node6</title>
<g id="a_node6"><a xlink:href="class_word_quizzle_1_1_challenge.html#ad9edc220ce2d24274149ab8c6a564a0a" target="_top" xlink:title="Aggiunge l&#39;utente sfidato alla sfida e la avvia.">
<polygon fill="white" stroke="black" points="211.5,-71 211.5,-101 346.5,-101 346.5,-71 211.5,-71"/>
<text text-anchor="start" x="219.5" y="-89" font-family="Helvetica,sans-Serif" font-size="10.00">WordQuizzle.Challenge.set</text>
<text text-anchor="middle" x="279" y="-78" font-family="Helvetica,sans-Serif" font-size="10.00">Player2</text>
</a>
</g>
</g>
<!-- Node1&#45;&gt;Node6 -->
<g id="edge5" class="edge"><title>Node1&#45;&gt;Node6</title>
<path fill="none" stroke="midnightblue" d="M107.667,-152.838C130.499,-140.497 164.24,-123.187 195,-111 200.876,-108.672 207.058,-106.435 213.288,-104.321"/>
<polygon fill="midnightblue" stroke="midnightblue" points="214.67,-107.552 223.079,-101.107 212.486,-100.901 214.67,-107.552"/>
</g>
<!-- Node7 -->
<g id="node7" class="node"><title>Node7</title>
<g id="a_node7"><a xlink:href="class_word_quizzle_1_1_session.html#ac7d5ff28ffd9355eea98b9f66c3c19cd" target="_top" xlink:title="Restituisce la socket del client.">
<polygon fill="white" stroke="black" points="408.5,-152.5 408.5,-171.5 560.5,-171.5 560.5,-152.5 408.5,-152.5"/>
<text text-anchor="middle" x="484.5" y="-159.5" font-family="Helvetica,sans-Serif" font-size="10.00">WordQuizzle.Session.getClient</text>
</a>
</g>
</g>
<!-- Node6&#45;&gt;Node7 -->
<g id="edge6" class="edge"><title>Node6&#45;&gt;Node7</title>
<path fill="none" stroke="midnightblue" d="M341.104,-101.052C348.688,-103.884 356.169,-107.182 363,-111 381.687,-121.443 379.952,-133.23 399,-143 403.647,-145.384 408.589,-147.47 413.66,-149.296"/>
<polygon fill="midnightblue" stroke="midnightblue" points="412.935,-152.74 423.527,-152.497 415.095,-146.082 412.935,-152.74"/>
</g>
<!-- Node8 -->
<g id="node8" class="node"><title>Node8</title>
<g id="a_node8"><a xlink:href="class_word_quizzle_1_1_player.html#a5df71a0f2196e8ee3bfff3bc232f4669" target="_top" xlink:title="Restituisce l&#39;indice della prossima domanda da sottoporre al giocatore.">
<polygon fill="white" stroke="black" points="414.5,-114.5 414.5,-133.5 554.5,-133.5 554.5,-114.5 414.5,-114.5"/>
<text text-anchor="middle" x="484.5" y="-121.5" font-family="Helvetica,sans-Serif" font-size="10.00">WordQuizzle.Player.getNext</text>
</a>
</g>
</g>
<!-- Node6&#45;&gt;Node8 -->
<g id="edge7" class="edge"><title>Node6&#45;&gt;Node8</title>
<path fill="none" stroke="midnightblue" d="M346.634,-98.4426C371.077,-103.007 398.603,-108.147 422.526,-112.614"/>
<polygon fill="midnightblue" stroke="midnightblue" points="422.066,-116.089 432.538,-114.484 423.351,-109.208 422.066,-116.089"/>
</g>
<!-- Node10 -->
<g id="node10" class="node"><title>Node10</title>
<g id="a_node10"><a xlink:href="class_word_quizzle_1_1_player.html#a1f8fc44dbae0c22017e5d4e435fa5bc0" target="_top" xlink:title="Restituisce la sessione del giocatore.">
<polygon fill="white" stroke="black" points="407,-76.5 407,-95.5 562,-95.5 562,-76.5 407,-76.5"/>
<text text-anchor="middle" x="484.5" y="-83.5" font-family="Helvetica,sans-Serif" font-size="10.00">WordQuizzle.Player.getSession</text>
</a>
</g>
</g>
<!-- Node6&#45;&gt;Node10 -->
<g id="edge9" class="edge"><title>Node6&#45;&gt;Node10</title>
<path fill="none" stroke="midnightblue" d="M346.634,-86C362.568,-86 379.813,-86 396.515,-86"/>
<polygon fill="midnightblue" stroke="midnightblue" points="396.828,-89.5001 406.828,-86 396.828,-82.5001 396.828,-89.5001"/>
</g>
<!-- Node11 -->
<g id="node11" class="node"><title>Node11</title>
<g id="a_node11"><a xlink:href="class_word_quizzle_1_1_session.html#a26ad2a090660e09b1416cd530fdf1e9a" target="_top" xlink:title="Imposta la risposta da inviare al client.">
<polygon fill="white" stroke="black" points="399,-38.5 399,-57.5 570,-57.5 570,-38.5 399,-38.5"/>
<text text-anchor="middle" x="484.5" y="-45.5" font-family="Helvetica,sans-Serif" font-size="10.00">WordQuizzle.Session.setResponse</text>
</a>
</g>
</g>
<!-- Node6&#45;&gt;Node11 -->
<g id="edge10" class="edge"><title>Node6&#45;&gt;Node11</title>
<path fill="none" stroke="midnightblue" d="M346.634,-73.5574C371.077,-68.9929 398.603,-63.853 422.526,-59.3859"/>
<polygon fill="midnightblue" stroke="midnightblue" points="423.351,-62.7924 432.538,-57.5162 422.066,-55.9114 423.351,-62.7924"/>
</g>
<!-- Node12 -->
<g id="node12" class="node"><title>Node12</title>
<g id="a_node12"><a xlink:href="class_word_quizzle_1_1_translator.html#a9fcad4b807785c63c72bc85f672fb635" target="_top" xlink:title="Traduce una parola dall&#39;italiano all&#39;inglese.">
<polygon fill="white" stroke="black" points="405,-0.5 405,-19.5 564,-19.5 564,-0.5 405,-0.5"/>
<text text-anchor="middle" x="484.5" y="-7.5" font-family="Helvetica,sans-Serif" font-size="10.00">WordQuizzle.Translator.translate</text>
</a>
</g>
</g>
<!-- Node6&#45;&gt;Node12 -->
<g id="edge11" class="edge"><title>Node6&#45;&gt;Node12</title>
<path fill="none" stroke="midnightblue" d="M307.143,-70.8208C330.791,-58.1315 366.321,-40.3375 399,-29 406.575,-26.3722 414.66,-24.0147 422.714,-21.9291"/>
<polygon fill="midnightblue" stroke="midnightblue" points="423.615,-25.3118 432.487,-19.5199 421.939,-18.5153 423.615,-25.3118"/>
</g>
<!-- Node9 -->
<g id="node9" class="node"><title>Node9</title>
<g id="a_node9"><a xlink:href="class_word_quizzle_1_1_word_quizzle_server_service.html#a970fe0e2dd7457bab2c64ae722a912fc" target="_top" xlink:title=" ">
<polygon fill="white" stroke="black" points="606,-109 606,-139 765,-139 765,-109 606,-109"/>
<text text-anchor="start" x="614" y="-127" font-family="Helvetica,sans-Serif" font-size="10.00">WordQuizzle.WordQuizzleServer</text>
<text text-anchor="middle" x="685.5" y="-116" font-family="Helvetica,sans-Serif" font-size="10.00">Service.getK</text>
</a>
</g>
</g>
<!-- Node8&#45;&gt;Node9 -->
<g id="edge8" class="edge"><title>Node8&#45;&gt;Node9</title>
<path fill="none" stroke="midnightblue" d="M554.542,-124C567.692,-124 581.627,-124 595.301,-124"/>
<polygon fill="midnightblue" stroke="midnightblue" points="595.688,-127.5 605.688,-124 595.688,-120.5 595.688,-127.5"/>
</g>
</g>
</svg>
