<?xml version="1.0" encoding="UTF-8" standalone="no"?>
<!DOCTYPE svg PUBLIC "-//W3C//DTD SVG 1.1//EN"
 "http://www.w3.org/Graphics/SVG/1.1/DTD/svg11.dtd">
<!-- Generated by graphviz version 2.38.0 (20140413.2041)
 -->
<!-- Title: WordQuizzle.Challenge Pages: 1 -->
<svg width="730pt" height="1287pt"
 viewBox="0.00 0.00 730.00 1287.00" xmlns="http://www.w3.org/2000/svg" xmlns:xlink="http://www.w3.org/1999/xlink">
<g id="graph0" class="graph" transform="scale(1 1) rotate(0) translate(4 1283)">
<title>WordQuizzle.Challenge</title>
<polygon fill="white" stroke="none" points="-4,4 -4,-1283 726,-1283 726,4 -4,4"/>
<!-- Node1 -->
<g id="node1" class="node"><title>Node1</title>
<g id="a_node1"><a xlink:title="Implementa la sfida tra due utenti.">
<polygon fill="#bfbfbf" stroke="black" points="324,-0.5 324,-200.5 443,-200.5 443,-0.5 324,-0.5"/>
<text text-anchor="middle" x="383.5" y="-188.5" font-family="Helvetica,sans-Serif" font-size="10.00">WordQuizzle.Challenge</text>
<polyline fill="none" stroke="black" points="324,-181.5 443,-181.5 "/>
<text text-anchor="start" x="332" y="-169.5" font-family="Helvetica,sans-Serif" font-size="10.00">&#45; questions</text>
<text text-anchor="start" x="332" y="-158.5" font-family="Helvetica,sans-Serif" font-size="10.00">&#45; id</text>
<text text-anchor="start" x="332" y="-147.5" font-family="Helvetica,sans-Serif" font-size="10.00">&#45; startTime</text>
<text text-anchor="start" x="332" y="-136.5" font-family="Helvetica,sans-Serif" font-size="10.00">&#45; startGameTime</text>
<text text-anchor="start" x="332" y="-125.5" font-family="Helvetica,sans-Serif" font-size="10.00">&#45; nextId</text>
<polyline fill="none" stroke="black" points="324,-118.5 443,-118.5 "/>
<text text-anchor="start" x="332" y="-106.5" font-family="Helvetica,sans-Serif" font-size="10.00">+ Challenge()</text>
<text text-anchor="start" x="332" y="-95.5" font-family="Helvetica,sans-Serif" font-size="10.00">+ setPlayer2()</text>
<text text-anchor="start" x="332" y="-84.5" font-family="Helvetica,sans-Serif" font-size="10.00">+ getStartTime()</text>
<text text-anchor="start" x="332" y="-73.5" font-family="Helvetica,sans-Serif" font-size="10.00">+ getId()</text>
<text text-anchor="start" x="332" y="-62.5" font-family="Helvetica,sans-Serif" font-size="10.00">+ run()</text>
<text text-anchor="start" x="332" y="-51.5" font-family="Helvetica,sans-Serif" font-size="10.00">&#45; calculate()</text>
<text text-anchor="start" x="332" y="-40.5" font-family="Helvetica,sans-Serif" font-size="10.00">&#45; end()</text>
<text text-anchor="start" x="332" y="-29.5" font-family="Helvetica,sans-Serif" font-size="10.00">&#45; result()</text>
<text text-anchor="start" x="332" y="-18.5" font-family="Helvetica,sans-Serif" font-size="10.00">&#45; close()</text>
<text text-anchor="start" x="332" y="-7.5" font-family="Helvetica,sans-Serif" font-size="10.00">&#45; isTerminated()</text>
</a>
</g>
</g>
<!-- Node2 -->
<g id="node2" class="node"><title>Node2</title>
<g id="a_node2"><a xlink:title=" ">
<polygon fill="white" stroke="#bfbfbf" points="0,-298 0,-355 57,-355 57,-298 0,-298"/>
<text text-anchor="middle" x="28.5" y="-343" font-family="Helvetica,sans-Serif" font-size="10.00">Runnable</text>
<polyline fill="none" stroke="#bfbfbf" points="0,-336 57,-336 "/>
<text text-anchor="middle" x="28.5" y="-324" font-family="Helvetica,sans-Serif" font-size="10.00"> </text>
<polyline fill="none" stroke="#bfbfbf" points="0,-317 57,-317 "/>
<text text-anchor="middle" x="28.5" y="-305" font-family="Helvetica,sans-Serif" font-size="10.00"> </text>
</a>
</g>
</g>
<!-- Node2&#45;&gt;Node1 -->
<g id="edge1" class="edge"><title>Node2&#45;&gt;Node1</title>
<path fill="none" stroke="midnightblue" d="M35.7653,-287.594C41.8575,-265.052 52.6973,-237.365 71.5,-219 141.375,-150.753 254.699,-121.424 323.829,-109.36"/>
<polygon fill="none" stroke="midnightblue" points="32.3095,-286.987 33.2887,-297.536 39.102,-288.679 32.3095,-286.987"/>
</g>
<!-- Node3 -->
<g id="node3" class="node"><title>Node3</title>
<g id="a_node3"><a xlink:title=" ">
<polygon fill="white" stroke="#bfbfbf" points="89,-1083.5 89,-1140.5 142,-1140.5 142,-1083.5 89,-1083.5"/>
<text text-anchor="middle" x="115.5" y="-1128.5" font-family="Helvetica,sans-Serif" font-size="10.00">Selector</text>
<polyline fill="none" stroke="#bfbfbf" points="89,-1121.5 142,-1121.5 "/>
<text text-anchor="middle" x="115.5" y="-1109.5" font-family="Helvetica,sans-Serif" font-size="10.00"> </text>
<polyline fill="none" stroke="#bfbfbf" points="89,-1102.5 142,-1102.5 "/>
<text text-anchor="middle" x="115.5" y="-1090.5" font-family="Helvetica,sans-Serif" font-size="10.00"> </text>
</a>
</g>
</g>
<!-- Node3&#45;&gt;Node1 -->
<g id="edge2" class="edge"><title>Node3&#45;&gt;Node1</title>
<path fill="none" stroke="#404040" d="M109.644,-1083.29C100.914,-1039.49 85.5,-951.473 85.5,-876 85.5,-876 85.5,-876 85.5,-325.5 85.5,-212.457 224.212,-149.396 312.361,-120.735"/>
<polygon fill="none" stroke="#404040" points="312.47,-120.701 316.984,-115.077 323.911,-117.081 319.397,-122.705 312.47,-120.701"/>
<text text-anchor="middle" x="104.5" y="-591.5" font-family="Helvetica,sans-Serif" font-size="10.00"> &#45;server</text>
<text text-anchor="middle" x="104.5" y="-580.5" font-family="Helvetica,sans-Serif" font-size="10.00">&#45;selector</text>
</g>
<!-- Node9 -->
<g id="node9" class="node"><title>Node9</title>
<g id="a_node9"><a xlink:href="class_word_quizzle_1_1_word_quizzle_server_service.html" target="_top" xlink:title="Implementa la Business Logic.">
<polygon fill="white" stroke="black" points="412,-736.5 412,-1013.5 571,-1013.5 571,-736.5 412,-736.5"/>
<text text-anchor="start" x="420" y="-1001.5" font-family="Helvetica,sans-Serif" font-size="10.00">WordQuizzle.WordQuizzleServer</text>
<text text-anchor="middle" x="491.5" y="-990.5" font-family="Helvetica,sans-Serif" font-size="10.00">Service</text>
<polyline fill="none" stroke="black" points="412,-983.5 571,-983.5 "/>
<text text-anchor="start" x="420" y="-971.5" font-family="Helvetica,sans-Serif" font-size="10.00">&#45; K</text>
<text text-anchor="start" x="420" y="-960.5" font-family="Helvetica,sans-Serif" font-size="10.00">&#45; T1</text>
<text text-anchor="start" x="420" y="-949.5" font-family="Helvetica,sans-Serif" font-size="10.00">&#45; T2</text>
<text text-anchor="start" x="420" y="-938.5" font-family="Helvetica,sans-Serif" font-size="10.00">&#45; X</text>
<text text-anchor="start" x="420" y="-927.5" font-family="Helvetica,sans-Serif" font-size="10.00">&#45; Y</text>
<text text-anchor="start" x="420" y="-916.5" font-family="Helvetica,sans-Serif" font-size="10.00">&#45; Z</text>
<polyline fill="none" stroke="black" points="412,-909.5 571,-909.5 "/>
<text text-anchor="start" x="420" y="-897.5" font-family="Helvetica,sans-Serif" font-size="10.00">+ WordQuizzleServerService()</text>
<text text-anchor="start" x="420" y="-886.5" font-family="Helvetica,sans-Serif" font-size="10.00">+ login()</text>
<text text-anchor="start" x="420" y="-875.5" font-family="Helvetica,sans-Serif" font-size="10.00">+ logout()</text>
<text text-anchor="start" x="420" y="-864.5" font-family="Helvetica,sans-Serif" font-size="10.00">+ aggiungi_amico()</text>
<text text-anchor="start" x="420" y="-853.5" font-family="Helvetica,sans-Serif" font-size="10.00">+ lista_amici()</text>
<text text-anchor="start" x="420" y="-842.5" font-family="Helvetica,sans-Serif" font-size="10.00">+ mostra_punteggio()</text>
<text text-anchor="start" x="420" y="-831.5" font-family="Helvetica,sans-Serif" font-size="10.00">+ mostra_classifica()</text>
<text text-anchor="start" x="420" y="-820.5" font-family="Helvetica,sans-Serif" font-size="10.00">+ sfida()</text>
<text text-anchor="start" x="420" y="-809.5" font-family="Helvetica,sans-Serif" font-size="10.00">+ accettaSfida()</text>
<text text-anchor="start" x="420" y="-798.5" font-family="Helvetica,sans-Serif" font-size="10.00">+ getK()</text>
<text text-anchor="start" x="420" y="-787.5" font-family="Helvetica,sans-Serif" font-size="10.00">+ getZ()</text>
<text text-anchor="start" x="420" y="-776.5" font-family="Helvetica,sans-Serif" font-size="10.00">+ getY()</text>
<text text-anchor="start" x="420" y="-765.5" font-family="Helvetica,sans-Serif" font-size="10.00">+ getX()</text>
<text text-anchor="start" x="420" y="-754.5" font-family="Helvetica,sans-Serif" font-size="10.00">+ getT1()</text>
<text text-anchor="start" x="420" y="-743.5" font-family="Helvetica,sans-Serif" font-size="10.00">+ getT2()</text>
</a>
</g>
</g>
<!-- Node3&#45;&gt;Node9 -->
<g id="edge12" class="edge"><title>Node3&#45;&gt;Node9</title>
<path fill="none" stroke="#404040" d="M142.182,-1086.13C153.297,-1076.98 166.796,-1067.32 180.5,-1061 180.5,-1061 352.753,-1024.53 400.118,-1011.07"/>
<polygon fill="none" stroke="#404040" points="400.417,-1010.96 404.765,-1005.21 411.748,-1007.01 407.399,-1012.76 400.417,-1010.96"/>
<text text-anchor="middle" x="332" y="-1035" font-family="Helvetica,sans-Serif" font-size="10.00"> &#45;selector</text>
</g>
<!-- Node4 -->
<g id="node4" class="node"><title>Node4</title>
<g id="a_node4"><a xlink:href="class_word_quizzle_1_1_player.html" target="_top" xlink:title="Rappresenta un giocatore impegnato un una sfida.">
<polygon fill="white" stroke="black" points="331.5,-259.5 331.5,-393.5 435.5,-393.5 435.5,-259.5 331.5,-259.5"/>
<text text-anchor="middle" x="383.5" y="-381.5" font-family="Helvetica,sans-Serif" font-size="10.00">WordQuizzle.Player</text>
<polyline fill="none" stroke="black" points="331.5,-374.5 435.5,-374.5 "/>
<text text-anchor="start" x="339.5" y="-362.5" font-family="Helvetica,sans-Serif" font-size="10.00">&#45; next</text>
<text text-anchor="start" x="339.5" y="-351.5" font-family="Helvetica,sans-Serif" font-size="10.00">&#45; close</text>
<polyline fill="none" stroke="black" points="331.5,-344.5 435.5,-344.5 "/>
<text text-anchor="start" x="339.5" y="-332.5" font-family="Helvetica,sans-Serif" font-size="10.00">+ Player()</text>
<text text-anchor="start" x="339.5" y="-321.5" font-family="Helvetica,sans-Serif" font-size="10.00">+ getSession()</text>
<text text-anchor="start" x="339.5" y="-310.5" font-family="Helvetica,sans-Serif" font-size="10.00">+ addAnswer()</text>
<text text-anchor="start" x="339.5" y="-299.5" font-family="Helvetica,sans-Serif" font-size="10.00">+ getAnswers()</text>
<text text-anchor="start" x="339.5" y="-288.5" font-family="Helvetica,sans-Serif" font-size="10.00">+ isTerminated()</text>
<text text-anchor="start" x="339.5" y="-277.5" font-family="Helvetica,sans-Serif" font-size="10.00">+ getNext()</text>
<text text-anchor="start" x="339.5" y="-266.5" font-family="Helvetica,sans-Serif" font-size="10.00">+ close()</text>
</a>
</g>
</g>
<!-- Node4&#45;&gt;Node1 -->
<g id="edge3" class="edge"><title>Node4&#45;&gt;Node1</title>
<path fill="none" stroke="#404040" d="M383.5,-259.202C383.5,-244.604 383.5,-228.755 383.5,-212.922"/>
<polygon fill="none" stroke="#404040" points="383.5,-212.839 379.5,-206.839 383.5,-200.839 387.5,-206.839 383.5,-212.839"/>
<text text-anchor="middle" x="402.5" y="-233" font-family="Helvetica,sans-Serif" font-size="10.00"> &#45;player1</text>
<text text-anchor="middle" x="402.5" y="-222" font-family="Helvetica,sans-Serif" font-size="10.00">&#45;player2</text>
</g>
<!-- Node5 -->
<g id="node5" class="node"><title>Node5</title>
<g id="a_node5"><a xlink:href="class_word_quizzle_1_1_session.html" target="_top" xlink:title="Rappresenta una sessione di un utente.">
<polygon fill="white" stroke="black" points="289,-488.5 289,-688.5 400,-688.5 400,-488.5 289,-488.5"/>
<text text-anchor="middle" x="344.5" y="-676.5" font-family="Helvetica,sans-Serif" font-size="10.00">WordQuizzle.Session</text>
<polyline fill="none" stroke="black" points="289,-669.5 400,-669.5 "/>
<text text-anchor="start" x="297" y="-657.5" font-family="Helvetica,sans-Serif" font-size="10.00">&#45; user</text>
<text text-anchor="start" x="297" y="-646.5" font-family="Helvetica,sans-Serif" font-size="10.00">&#45; response</text>
<text text-anchor="start" x="297" y="-635.5" font-family="Helvetica,sans-Serif" font-size="10.00">&#45; end</text>
<polyline fill="none" stroke="black" points="289,-628.5 400,-628.5 "/>
<text text-anchor="start" x="297" y="-616.5" font-family="Helvetica,sans-Serif" font-size="10.00">+ Session()</text>
<text text-anchor="start" x="297" y="-605.5" font-family="Helvetica,sans-Serif" font-size="10.00">+ getClient()</text>
<text text-anchor="start" x="297" y="-594.5" font-family="Helvetica,sans-Serif" font-size="10.00">+ getBfs()</text>
<text text-anchor="start" x="297" y="-583.5" font-family="Helvetica,sans-Serif" font-size="10.00">+ setUdp()</text>
<text text-anchor="start" x="297" y="-572.5" font-family="Helvetica,sans-Serif" font-size="10.00">+ getUdp()</text>
<text text-anchor="start" x="297" y="-561.5" font-family="Helvetica,sans-Serif" font-size="10.00">+ newBfs()</text>
<text text-anchor="start" x="297" y="-550.5" font-family="Helvetica,sans-Serif" font-size="10.00">+ getUser()</text>
<text text-anchor="start" x="297" y="-539.5" font-family="Helvetica,sans-Serif" font-size="10.00">+ getResponse()</text>
<text text-anchor="start" x="297" y="-528.5" font-family="Helvetica,sans-Serif" font-size="10.00">+ setResponse()</text>
<text text-anchor="start" x="297" y="-517.5" font-family="Helvetica,sans-Serif" font-size="10.00">+ isTerminated()</text>
<text text-anchor="start" x="297" y="-506.5" font-family="Helvetica,sans-Serif" font-size="10.00">+ parse()</text>
<text text-anchor="start" x="297" y="-495.5" font-family="Helvetica,sans-Serif" font-size="10.00">&#45; compute()</text>
</a>
</g>
</g>
<!-- Node5&#45;&gt;Node4 -->
<g id="edge4" class="edge"><title>Node5&#45;&gt;Node4</title>
<path fill="none" stroke="#404040" d="M359.355,-488.463C363.462,-461.084 367.861,-431.76 371.764,-405.741"/>
<polygon fill="none" stroke="#404040" points="371.798,-405.516 368.732,-398.989 373.578,-393.649 376.643,-400.176 371.798,-405.516"/>
<text text-anchor="middle" x="376.5" y="-438.5" font-family="Helvetica,sans-Serif" font-size="10.00"> &#45;s</text>
</g>
<!-- Node6 -->
<g id="node6" class="node"><title>Node6</title>
<g id="a_node6"><a xlink:title=" ">
<polygon fill="white" stroke="#bfbfbf" points="113.5,-846.5 113.5,-903.5 175.5,-903.5 175.5,-846.5 113.5,-846.5"/>
<text text-anchor="middle" x="144.5" y="-891.5" font-family="Helvetica,sans-Serif" font-size="10.00">ByteBuffer</text>
<polyline fill="none" stroke="#bfbfbf" points="113.5,-884.5 175.5,-884.5 "/>
<text text-anchor="middle" x="144.5" y="-872.5" font-family="Helvetica,sans-Serif" font-size="10.00"> </text>
<polyline fill="none" stroke="#bfbfbf" points="113.5,-865.5 175.5,-865.5 "/>
<text text-anchor="middle" x="144.5" y="-853.5" font-family="Helvetica,sans-Serif" font-size="10.00"> </text>
</a>
</g>
</g>
<!-- Node6&#45;&gt;Node5 -->
<g id="edge5" class="edge"><title>Node6&#45;&gt;Node5</title>
<path fill="none" stroke="#404040" d="M148.008,-846.271C152.697,-817.042 163.048,-770.54 184.5,-736 208.825,-696.834 246.472,-661.626 279.139,-635.547"/>
<polygon fill="none" stroke="#404040" points="279.203,-635.496 281.459,-628.647 288.649,-628.095 286.393,-634.945 279.203,-635.496"/>
<text text-anchor="middle" x="215" y="-710" font-family="Helvetica,sans-Serif" font-size="10.00"> &#45;bfs</text>
</g>
<!-- Node7 -->
<g id="node7" class="node"><title>Node7</title>
<g id="a_node7"><a xlink:title=" ">
<polygon fill="white" stroke="#bfbfbf" points="194,-846.5 194,-903.5 277,-903.5 277,-846.5 194,-846.5"/>
<text text-anchor="middle" x="235.5" y="-891.5" font-family="Helvetica,sans-Serif" font-size="10.00">SocketChannel</text>
<polyline fill="none" stroke="#bfbfbf" points="194,-884.5 277,-884.5 "/>
<text text-anchor="middle" x="235.5" y="-872.5" font-family="Helvetica,sans-Serif" font-size="10.00"> </text>
<polyline fill="none" stroke="#bfbfbf" points="194,-865.5 277,-865.5 "/>
<text text-anchor="middle" x="235.5" y="-853.5" font-family="Helvetica,sans-Serif" font-size="10.00"> </text>
</a>
</g>
</g>
<!-- Node7&#45;&gt;Node5 -->
<g id="edge6" class="edge"><title>Node7&#45;&gt;Node5</title>
<path fill="none" stroke="#404040" d="M245.177,-846.402C255.047,-818.468 270.938,-774.083 285.5,-736 289.999,-724.235 294.783,-711.975 299.605,-699.777"/>
<polygon fill="none" stroke="#404040" points="299.611,-699.761 298.106,-692.709 304.037,-688.607 305.542,-695.66 299.611,-699.761"/>
<text text-anchor="middle" x="311.5" y="-710" font-family="Helvetica,sans-Serif" font-size="10.00"> &#45;client</text>
</g>
<!-- Node8 -->
<g id="node8" class="node"><title>Node8</title>
<g id="a_node8"><a xlink:title=" ">
<polygon fill="white" stroke="#bfbfbf" points="295,-846.5 295,-903.5 394,-903.5 394,-846.5 295,-846.5"/>
<text text-anchor="middle" x="344.5" y="-891.5" font-family="Helvetica,sans-Serif" font-size="10.00">InetSocketAddress</text>
<polyline fill="none" stroke="#bfbfbf" points="295,-884.5 394,-884.5 "/>
<text text-anchor="middle" x="344.5" y="-872.5" font-family="Helvetica,sans-Serif" font-size="10.00"> </text>
<polyline fill="none" stroke="#bfbfbf" points="295,-865.5 394,-865.5 "/>
<text text-anchor="middle" x="344.5" y="-853.5" font-family="Helvetica,sans-Serif" font-size="10.00"> </text>
</a>
</g>
</g>
<!-- Node8&#45;&gt;Node5 -->
<g id="edge7" class="edge"><title>Node8&#45;&gt;Node5</title>
<path fill="none" stroke="#404040" d="M344.5,-846.462C344.5,-812.825 344.5,-753.85 344.5,-700.876"/>
<polygon fill="none" stroke="#404040" points="344.5,-700.621 340.5,-694.621 344.5,-688.621 348.5,-694.62 344.5,-700.621"/>
<text text-anchor="middle" x="355.5" y="-710" font-family="Helvetica,sans-Serif" font-size="10.00"> &#45;udp</text>
</g>
<!-- Node9&#45;&gt;Node5 -->
<g id="edge8" class="edge"><title>Node9&#45;&gt;Node5</title>
<path fill="none" stroke="#404040" d="M420.368,-736.334C414.028,-724.063 407.664,-711.746 401.466,-699.75"/>
<polygon fill="none" stroke="#404040" points="401.334,-699.494 395.026,-696 395.825,-688.833 402.133,-692.328 401.334,-699.494"/>
<text text-anchor="middle" x="419" y="-710" font-family="Helvetica,sans-Serif" font-size="10.00"> &#45;wq</text>
</g>
<!-- Node10 -->
<g id="node10" class="node"><title>Node10</title>
<g id="a_node10"><a xlink:title=" ">
<polygon fill="white" stroke="#bfbfbf" points="496,-1083.5 496,-1140.5 585,-1140.5 585,-1083.5 496,-1083.5"/>
<text text-anchor="middle" x="540.5" y="-1128.5" font-family="Helvetica,sans-Serif" font-size="10.00">DatagramSocket</text>
<polyline fill="none" stroke="#bfbfbf" points="496,-1121.5 585,-1121.5 "/>
<text text-anchor="middle" x="540.5" y="-1109.5" font-family="Helvetica,sans-Serif" font-size="10.00"> </text>
<polyline fill="none" stroke="#bfbfbf" points="496,-1102.5 585,-1102.5 "/>
<text text-anchor="middle" x="540.5" y="-1090.5" font-family="Helvetica,sans-Serif" font-size="10.00"> </text>
</a>
</g>
</g>
<!-- Node10&#45;&gt;Node9 -->
<g id="edge9" class="edge"><title>Node10&#45;&gt;Node9</title>
<path fill="none" stroke="#404040" d="M534.687,-1083.12C531.496,-1067.82 527.263,-1047.52 522.694,-1025.61"/>
<polygon fill="none" stroke="#404040" points="522.652,-1025.4 517.512,-1020.35 520.203,-1013.66 525.343,-1018.71 522.652,-1025.4"/>
<text text-anchor="middle" x="544.5" y="-1035" font-family="Helvetica,sans-Serif" font-size="10.00"> &#45;socket</text>
</g>
<!-- Node11 -->
<g id="node11" class="node"><title>Node11</title>
<g id="a_node11"><a xlink:title=" ">
<polygon fill="white" stroke="#bfbfbf" points="190,-1078 190,-1146 325,-1146 325,-1078 190,-1078"/>
<text text-anchor="start" x="198" y="-1134" font-family="Helvetica,sans-Serif" font-size="10.00">Map&lt; String, WordQuizzle.</text>
<text text-anchor="middle" x="257.5" y="-1123" font-family="Helvetica,sans-Serif" font-size="10.00">Session &gt;</text>
<polyline fill="none" stroke="#bfbfbf" points="190,-1116 325,-1116 "/>
<text text-anchor="middle" x="257.5" y="-1104" font-family="Helvetica,sans-Serif" font-size="10.00"> </text>
<polyline fill="none" stroke="#bfbfbf" points="190,-1097 325,-1097 "/>
<text text-anchor="middle" x="257.5" y="-1085" font-family="Helvetica,sans-Serif" font-size="10.00"> </text>
</a>
</g>
</g>
<!-- Node11&#45;&gt;Node9 -->
<g id="edge10" class="edge"><title>Node11&#45;&gt;Node9</title>
<path fill="none" stroke="#404040" d="M307.642,-1077.8C348.737,-1050.53 400.463,-1016.07 402.5,-1014 402.9,-1013.59 403.299,-1013.18 403.697,-1012.77"/>
<polygon fill="none" stroke="#404040" points="403.782,-1012.68 404.921,-1005.56 411.932,-1003.87 410.793,-1011 403.782,-1012.68"/>
<text text-anchor="middle" x="389" y="-1035" font-family="Helvetica,sans-Serif" font-size="10.00"> &#45;users</text>
</g>
<!-- Node12 -->
<g id="node12" class="node"><title>Node12</title>
<g id="a_node12"><a xlink:title=" ">
<polygon fill="white" stroke="#bfbfbf" points="320,-1221.5 320,-1278.5 355,-1278.5 355,-1221.5 320,-1221.5"/>
<text text-anchor="middle" x="337.5" y="-1266.5" font-family="Helvetica,sans-Serif" font-size="10.00">Map</text>
<polyline fill="none" stroke="#bfbfbf" points="320,-1259.5 355,-1259.5 "/>
<text text-anchor="middle" x="337.5" y="-1247.5" font-family="Helvetica,sans-Serif" font-size="10.00"> </text>
<polyline fill="none" stroke="#bfbfbf" points="320,-1240.5 355,-1240.5 "/>
<text text-anchor="middle" x="337.5" y="-1228.5" font-family="Helvetica,sans-Serif" font-size="10.00"> </text>
</a>
</g>
</g>
<!-- Node12&#45;&gt;Node11 -->
<g id="edge11" class="edge"><title>Node12&#45;&gt;Node11</title>
<path fill="none" stroke="orange" d="M310.843,-1236.56C297.22,-1228.83 281.629,-1217.56 272.5,-1203 261.982,-1186.22 258.159,-1164.37 257.001,-1146.4"/>
<polygon fill="orange" stroke="orange" points="309.384,-1239.75 319.857,-1241.36 312.669,-1233.57 309.384,-1239.75"/>
<text text-anchor="start" x="272.5" y="-1195" font-family="Helvetica,sans-Serif" font-size="10.00"> &lt; String, WordQuizzle</text>
<text text-anchor="middle" x="322.5" y="-1184" font-family="Helvetica,sans-Serif" font-size="10.00">::Session &gt;</text>
</g>
<!-- Node14 -->
<g id="node14" class="node"><title>Node14</title>
<g id="a_node14"><a xlink:title=" ">
<polygon fill="white" stroke="#bfbfbf" points="343,-1078 343,-1146 478,-1146 478,-1078 343,-1078"/>
<text text-anchor="start" x="351" y="-1134" font-family="Helvetica,sans-Serif" font-size="10.00">Map&lt; String, WordQuizzle.</text>
<text text-anchor="middle" x="410.5" y="-1123" font-family="Helvetica,sans-Serif" font-size="10.00">Challenge &gt;</text>
<polyline fill="none" stroke="#bfbfbf" points="343,-1116 478,-1116 "/>
<text text-anchor="middle" x="410.5" y="-1104" font-family="Helvetica,sans-Serif" font-size="10.00"> </text>
<polyline fill="none" stroke="#bfbfbf" points="343,-1097 478,-1097 "/>
<text text-anchor="middle" x="410.5" y="-1085" font-family="Helvetica,sans-Serif" font-size="10.00"> </text>
</a>
</g>
</g>
<!-- Node12&#45;&gt;Node14 -->
<g id="edge15" class="edge"><title>Node12&#45;&gt;Node14</title>
<path fill="none" stroke="orange" d="M361.967,-1223.25C367.205,-1216.94 372.391,-1209.98 376.5,-1203 386.925,-1185.3 395.181,-1163.83 400.946,-1146.3"/>
<polygon fill="orange" stroke="orange" points="359.28,-1221.01 355.384,-1230.86 364.573,-1225.59 359.28,-1221.01"/>
<text text-anchor="start" x="387.5" y="-1195" font-family="Helvetica,sans-Serif" font-size="10.00"> &lt; String, WordQuizzle</text>
<text text-anchor="middle" x="437.5" y="-1184" font-family="Helvetica,sans-Serif" font-size="10.00">::Challenge &gt;</text>
</g>
<!-- Node13 -->
<g id="node13" class="node"><title>Node13</title>
<g id="a_node13"><a xlink:href="interface_word_quizzle_1_1_data_base.html" target="_top" xlink:title="Database che gestisce gli utenti.">
<polygon fill="white" stroke="black" points="603,-1061.5 603,-1162.5 722,-1162.5 722,-1061.5 603,-1061.5"/>
<text text-anchor="middle" x="662.5" y="-1150.5" font-family="Helvetica,sans-Serif" font-size="10.00">WordQuizzle.DataBase</text>
<polyline fill="none" stroke="black" points="603,-1143.5 722,-1143.5 "/>
<text text-anchor="middle" x="662.5" y="-1131.5" font-family="Helvetica,sans-Serif" font-size="10.00"> </text>
<polyline fill="none" stroke="black" points="603,-1124.5 722,-1124.5 "/>
<text text-anchor="start" x="611" y="-1112.5" font-family="Helvetica,sans-Serif" font-size="10.00">+ checkUser()</text>
<text text-anchor="start" x="611" y="-1101.5" font-family="Helvetica,sans-Serif" font-size="10.00">+ getUser()</text>
<text text-anchor="start" x="611" y="-1090.5" font-family="Helvetica,sans-Serif" font-size="10.00">+ newUser()</text>
<text text-anchor="start" x="611" y="-1079.5" font-family="Helvetica,sans-Serif" font-size="10.00">+ modifyScore()</text>
<text text-anchor="start" x="611" y="-1068.5" font-family="Helvetica,sans-Serif" font-size="10.00">+ link()</text>
</a>
</g>
</g>
<!-- Node13&#45;&gt;Node1 -->
<g id="edge18" class="edge"><title>Node13&#45;&gt;Node1</title>
<path fill="none" stroke="#404040" d="M662.5,-1061.49C662.5,-1013.93 662.5,-940.054 662.5,-876 662.5,-876 662.5,-876 662.5,-325.5 662.5,-218.86 537.03,-154.511 454.372,-123.69"/>
<polygon fill="none" stroke="#404040" points="454.289,-123.66 447.284,-125.37 443.01,-119.562 450.016,-117.851 454.289,-123.66"/>
<text text-anchor="middle" x="671" y="-586" font-family="Helvetica,sans-Serif" font-size="10.00"> &#45;db</text>
</g>
<!-- Node13&#45;&gt;Node9 -->
<g id="edge13" class="edge"><title>Node13&#45;&gt;Node9</title>
<path fill="none" stroke="#404040" d="M617.613,-1061.25C604.854,-1046.4 591.244,-1029.85 579.5,-1014 579.064,-1013.41 578.628,-1012.82 578.191,-1012.23"/>
<polygon fill="none" stroke="#404040" points="578.159,-1012.18 571.4,-1009.67 571.121,-1002.46 577.88,-1004.98 578.159,-1012.18"/>
<text text-anchor="middle" x="610" y="-1035" font-family="Helvetica,sans-Serif" font-size="10.00"> &#45;db</text>
</g>
<!-- Node14&#45;&gt;Node9 -->
<g id="edge14" class="edge"><title>Node14&#45;&gt;Node9</title>
<path fill="none" stroke="#404040" d="M421.934,-1077.83C427.006,-1063.11 433.364,-1044.67 440.162,-1024.94"/>
<polygon fill="none" stroke="#404040" points="440.183,-1024.88 438.356,-1017.91 444.093,-1013.54 445.92,-1020.51 440.183,-1024.88"/>
<text text-anchor="middle" x="464" y="-1035" font-family="Helvetica,sans-Serif" font-size="10.00"> &#45;challenges</text>
</g>
<!-- Node15 -->
<g id="node15" class="node"><title>Node15</title>
<g id="a_node15"><a xlink:title=" ">
<polygon fill="white" stroke="#bfbfbf" points="427,-560 427,-617 516,-617 516,-560 427,-560"/>
<text text-anchor="middle" x="471.5" y="-605" font-family="Helvetica,sans-Serif" font-size="10.00">Vector&lt; String &gt;</text>
<polyline fill="none" stroke="#bfbfbf" points="427,-598 516,-598 "/>
<text text-anchor="middle" x="471.5" y="-586" font-family="Helvetica,sans-Serif" font-size="10.00"> </text>
<polyline fill="none" stroke="#bfbfbf" points="427,-579 516,-579 "/>
<text text-anchor="middle" x="471.5" y="-567" font-family="Helvetica,sans-Serif" font-size="10.00"> </text>
</a>
</g>
</g>
<!-- Node15&#45;&gt;Node4 -->
<g id="edge16" class="edge"><title>Node15&#45;&gt;Node4</title>
<path fill="none" stroke="#404040" d="M462.082,-559.675C449.716,-523.138 427.504,-457.512 409.842,-405.33"/>
<polygon fill="none" stroke="#404040" points="409.767,-405.106 404.054,-400.705 405.92,-393.74 411.632,-398.14 409.767,-405.106"/>
<text text-anchor="middle" x="441.5" y="-438.5" font-family="Helvetica,sans-Serif" font-size="10.00"> &#45;ans</text>
</g>
<!-- Node16 -->
<g id="node16" class="node"><title>Node16</title>
<g id="a_node16"><a xlink:title=" ">
<polygon fill="white" stroke="#bfbfbf" points="589,-846.5 589,-903.5 634,-903.5 634,-846.5 589,-846.5"/>
<text text-anchor="middle" x="611.5" y="-891.5" font-family="Helvetica,sans-Serif" font-size="10.00">Vector</text>
<polyline fill="none" stroke="#bfbfbf" points="589,-884.5 634,-884.5 "/>
<text text-anchor="middle" x="611.5" y="-872.5" font-family="Helvetica,sans-Serif" font-size="10.00"> </text>
<polyline fill="none" stroke="#bfbfbf" points="589,-865.5 634,-865.5 "/>
<text text-anchor="middle" x="611.5" y="-853.5" font-family="Helvetica,sans-Serif" font-size="10.00"> </text>
</a>
</g>
</g>
<!-- Node16&#45;&gt;Node15 -->
<g id="edge17" class="edge"><title>Node16&#45;&gt;Node15</title>
<path fill="none" stroke="orange" d="M613.344,-836.278C612.699,-804.975 606.394,-761.588 579.5,-736 546.783,-704.872 509.529,-751.728 479.5,-718 455.198,-690.705 458.675,-645.859 464.36,-617.015"/>
<polygon fill="orange" stroke="orange" points="609.844,-836.395 613.367,-846.387 616.844,-836.379 609.844,-836.395"/>
<text text-anchor="middle" x="503" y="-710" font-family="Helvetica,sans-Serif" font-size="10.00"> &lt; String &gt;</text>
</g>
<!-- Node17 -->
<g id="node17" class="node"><title>Node17</title>
<g id="a_node17"><a xlink:title=" ">
<polygon fill="white" stroke="#bfbfbf" points="468,-412.5 468,-469.5 603,-469.5 603,-412.5 468,-412.5"/>
<text text-anchor="middle" x="535.5" y="-457.5" font-family="Helvetica,sans-Serif" font-size="10.00">Vector&lt; Vector&lt; String &gt; &gt;</text>
<polyline fill="none" stroke="#bfbfbf" points="468,-450.5 603,-450.5 "/>
<text text-anchor="middle" x="535.5" y="-438.5" font-family="Helvetica,sans-Serif" font-size="10.00"> </text>
<polyline fill="none" stroke="#bfbfbf" points="468,-431.5 603,-431.5 "/>
<text text-anchor="middle" x="535.5" y="-419.5" font-family="Helvetica,sans-Serif" font-size="10.00"> </text>
</a>
</g>
</g>
<!-- Node16&#45;&gt;Node17 -->
<g id="edge20" class="edge"><title>Node16&#45;&gt;Node17</title>
<path fill="none" stroke="orange" d="M609.877,-836.053C607.014,-806.607 599.406,-765.903 579.5,-736 571.913,-724.603 561.157,-729.964 554.5,-718 531.147,-676.029 532.686,-531.181 534.477,-469.818"/>
<polygon fill="orange" stroke="orange" points="606.417,-836.674 610.732,-846.351 613.393,-836.096 606.417,-836.674"/>
<text text-anchor="middle" x="601.5" y="-710" font-family="Helvetica,sans-Serif" font-size="10.00"> &lt; Vector&lt; String &gt; &gt;</text>
</g>
<!-- Node17&#45;&gt;Node1 -->
<g id="edge19" class="edge"><title>Node17&#45;&gt;Node1</title>
<path fill="none" stroke="#404040" d="M523.061,-412.299C503.577,-368.909 464.805,-282.565 433.063,-211.874"/>
<polygon fill="none" stroke="#404040" points="432.948,-211.619 426.841,-207.785 428.032,-200.672 434.139,-204.507 432.948,-211.619"/>
<text text-anchor="middle" x="542" y="-324" font-family="Helvetica,sans-Serif" font-size="10.00"> &#45;translations</text>
</g>
</g>
</svg>
