<?xml version="1.0" encoding="UTF-8" standalone="no"?>
<!DOCTYPE svg PUBLIC "-//W3C//DTD SVG 1.1//EN"
 "http://www.w3.org/Graphics/SVG/1.1/DTD/svg11.dtd">
<!-- Generated by graphviz version 2.38.0 (20140413.2041)
 -->
<!-- Title: WQGui Pages: 1 -->
<svg width="263pt" height="628pt"
 viewBox="0.00 0.00 262.50 628.00" xmlns="http://www.w3.org/2000/svg" xmlns:xlink="http://www.w3.org/1999/xlink">
<g id="graph0" class="graph" transform="scale(1 1) rotate(0) translate(4 624)">
<title>WQGui</title>
<polygon fill="white" stroke="none" points="-4,4 -4,-624 258.5,-624 258.5,4 -4,4"/>
<!-- Node1 -->
<g id="node1" class="node"><title>Node1</title>
<g id="a_node1"><a xlink:title="Crea un client con interfaccia a grafica.">
<polygon fill="#bfbfbf" stroke="black" points="82.5,-0.5 82.5,-134.5 164.5,-134.5 164.5,-0.5 82.5,-0.5"/>
<text text-anchor="middle" x="123.5" y="-122.5" font-family="Helvetica,sans-Serif" font-size="10.00">WQGui</text>
<polyline fill="none" stroke="black" points="82.5,-115.5 164.5,-115.5 "/>
<text text-anchor="start" x="90.5" y="-103.5" font-family="Helvetica,sans-Serif" font-size="10.00">&#45; index</text>
<text text-anchor="start" x="90.5" y="-92.5" font-family="Helvetica,sans-Serif" font-size="10.00">&#45; challenge</text>
<polyline fill="none" stroke="black" points="82.5,-85.5 164.5,-85.5 "/>
<text text-anchor="start" x="90.5" y="-73.5" font-family="Helvetica,sans-Serif" font-size="10.00">+ WQGui()</text>
<text text-anchor="start" x="90.5" y="-62.5" font-family="Helvetica,sans-Serif" font-size="10.00">+ game()</text>
<text text-anchor="start" x="90.5" y="-51.5" font-family="Helvetica,sans-Serif" font-size="10.00">+ inChallenge()</text>
<text text-anchor="start" x="90.5" y="-40.5" font-family="Helvetica,sans-Serif" font-size="10.00">+ main()</text>
<text text-anchor="start" x="90.5" y="-29.5" font-family="Helvetica,sans-Serif" font-size="10.00">&#45; makeLogin()</text>
<text text-anchor="start" x="90.5" y="-18.5" font-family="Helvetica,sans-Serif" font-size="10.00">&#45; makeGame()</text>
<text text-anchor="start" x="90.5" y="-7.5" font-family="Helvetica,sans-Serif" font-size="10.00">&#45; make()</text>
</a>
</g>
</g>
<!-- Node2 -->
<g id="node2" class="node"><title>Node2</title>
<g id="a_node2"><a xlink:title=" ">
<polygon fill="white" stroke="#bfbfbf" points="0,-276 0,-333 49,-333 49,-276 0,-276"/>
<text text-anchor="middle" x="24.5" y="-321" font-family="Helvetica,sans-Serif" font-size="10.00">JFrame</text>
<polyline fill="none" stroke="#bfbfbf" points="0,-314 49,-314 "/>
<text text-anchor="middle" x="24.5" y="-302" font-family="Helvetica,sans-Serif" font-size="10.00"> </text>
<polyline fill="none" stroke="#bfbfbf" points="0,-295 49,-295 "/>
<text text-anchor="middle" x="24.5" y="-283" font-family="Helvetica,sans-Serif" font-size="10.00"> </text>
</a>
</g>
</g>
<!-- Node2&#45;&gt;Node1 -->
<g id="edge1" class="edge"><title>Node2&#45;&gt;Node1</title>
<path fill="none" stroke="midnightblue" d="M35.6416,-265.991C41.5589,-247.168 49.2955,-224.145 57.5,-204 66.8761,-180.978 78.3822,-156.383 89.1464,-134.552"/>
<polygon fill="none" stroke="midnightblue" points="32.2525,-265.103 32.6354,-275.691 38.9388,-267.175 32.2525,-265.103"/>
</g>
<!-- Node3 -->
<g id="node3" class="node"><title>Node3</title>
<g id="a_node3"><a xlink:href="class_word_quizzle_client.html" target="_top" xlink:title="Definisce un Client con memoria.">
<polygon fill="white" stroke="black" points="67,-204.5 67,-404.5 180,-404.5 180,-204.5 67,-204.5"/>
<text text-anchor="middle" x="123.5" y="-392.5" font-family="Helvetica,sans-Serif" font-size="10.00">WordQuizzleClient</text>
<polyline fill="none" stroke="black" points="67,-385.5 180,-385.5 "/>
<text text-anchor="start" x="75" y="-373.5" font-family="Helvetica,sans-Serif" font-size="10.00">&#45; user</text>
<polyline fill="none" stroke="black" points="67,-366.5 180,-366.5 "/>
<text text-anchor="start" x="75" y="-354.5" font-family="Helvetica,sans-Serif" font-size="10.00">+ WordQuizzleClient()</text>
<text text-anchor="start" x="75" y="-343.5" font-family="Helvetica,sans-Serif" font-size="10.00">+ getUser()</text>
<text text-anchor="start" x="75" y="-332.5" font-family="Helvetica,sans-Serif" font-size="10.00">+ registra_utente()</text>
<text text-anchor="start" x="75" y="-321.5" font-family="Helvetica,sans-Serif" font-size="10.00">+ login()</text>
<text text-anchor="start" x="75" y="-310.5" font-family="Helvetica,sans-Serif" font-size="10.00">+ logout()</text>
<text text-anchor="start" x="75" y="-299.5" font-family="Helvetica,sans-Serif" font-size="10.00">+ aggiungi_amico()</text>
<text text-anchor="start" x="75" y="-288.5" font-family="Helvetica,sans-Serif" font-size="10.00">+ sfida()</text>
<text text-anchor="start" x="75" y="-277.5" font-family="Helvetica,sans-Serif" font-size="10.00">+ lista_amici()</text>
<text text-anchor="start" x="75" y="-266.5" font-family="Helvetica,sans-Serif" font-size="10.00">+ mostra_punteggio()</text>
<text text-anchor="start" x="75" y="-255.5" font-family="Helvetica,sans-Serif" font-size="10.00">+ mostra_classifica()</text>
<text text-anchor="start" x="75" y="-244.5" font-family="Helvetica,sans-Serif" font-size="10.00">+ controllaRichieste()</text>
<text text-anchor="start" x="75" y="-233.5" font-family="Helvetica,sans-Serif" font-size="10.00">+ controllaRichieste()</text>
<text text-anchor="start" x="75" y="-222.5" font-family="Helvetica,sans-Serif" font-size="10.00">+ accettaSfida()</text>
<text text-anchor="start" x="75" y="-211.5" font-family="Helvetica,sans-Serif" font-size="10.00">+ sendTranslation()</text>
</a>
</g>
</g>
<!-- Node3&#45;&gt;Node1 -->
<g id="edge2" class="edge"><title>Node3&#45;&gt;Node1</title>
<path fill="none" stroke="#404040" d="M123.5,-204.179C123.5,-185.055 123.5,-165.272 123.5,-146.924"/>
<polygon fill="none" stroke="#404040" points="123.5,-146.787 119.5,-140.787 123.5,-134.787 127.5,-140.787 123.5,-146.787"/>
<text text-anchor="middle" x="133" y="-167" font-family="Helvetica,sans-Serif" font-size="10.00"> &#45;wq</text>
</g>
<!-- Node4 -->
<g id="node4" class="node"><title>Node4</title>
<g id="a_node4"><a xlink:href="interface_word_quizzle_service.html" target="_top" xlink:title="Interfaccia che definisce i servizi utilizzabili da un client.">
<polygon fill="white" stroke="black" points="69,-452.5 69,-619.5 178,-619.5 178,-452.5 69,-452.5"/>
<text text-anchor="middle" x="123.5" y="-607.5" font-family="Helvetica,sans-Serif" font-size="10.00">WordQuizzleService</text>
<polyline fill="none" stroke="black" points="69,-600.5 178,-600.5 "/>
<text text-anchor="middle" x="123.5" y="-588.5" font-family="Helvetica,sans-Serif" font-size="10.00"> </text>
<polyline fill="none" stroke="black" points="69,-581.5 178,-581.5 "/>
<text text-anchor="start" x="77" y="-569.5" font-family="Helvetica,sans-Serif" font-size="10.00">+ registra_utente()</text>
<text text-anchor="start" x="77" y="-558.5" font-family="Helvetica,sans-Serif" font-size="10.00">+ login()</text>
<text text-anchor="start" x="77" y="-547.5" font-family="Helvetica,sans-Serif" font-size="10.00">+ logout()</text>
<text text-anchor="start" x="77" y="-536.5" font-family="Helvetica,sans-Serif" font-size="10.00">+ aggiungi_amico()</text>
<text text-anchor="start" x="77" y="-525.5" font-family="Helvetica,sans-Serif" font-size="10.00">+ sfida()</text>
<text text-anchor="start" x="77" y="-514.5" font-family="Helvetica,sans-Serif" font-size="10.00">+ lista_amici()</text>
<text text-anchor="start" x="77" y="-503.5" font-family="Helvetica,sans-Serif" font-size="10.00">+ mostra_punteggio()</text>
<text text-anchor="start" x="77" y="-492.5" font-family="Helvetica,sans-Serif" font-size="10.00">+ mostra_classifica()</text>
<text text-anchor="start" x="77" y="-481.5" font-family="Helvetica,sans-Serif" font-size="10.00">+ accettaSfida()</text>
<text text-anchor="start" x="77" y="-470.5" font-family="Helvetica,sans-Serif" font-size="10.00">+ sendTranslation()</text>
<text text-anchor="start" x="77" y="-459.5" font-family="Helvetica,sans-Serif" font-size="10.00">+ controllaRichieste()</text>
</a>
</g>
</g>
<!-- Node4&#45;&gt;Node3 -->
<g id="edge3" class="edge"><title>Node4&#45;&gt;Node3</title>
<path fill="none" stroke="#404040" d="M123.5,-452.469C123.5,-440.807 123.5,-428.662 123.5,-416.572"/>
<polygon fill="none" stroke="#404040" points="123.5,-416.519 119.5,-410.519 123.5,-404.519 127.5,-410.519 123.5,-416.519"/>
<text text-anchor="middle" x="142" y="-426" font-family="Helvetica,sans-Serif" font-size="10.00"> &#45;service</text>
</g>
<!-- Node5 -->
<g id="node5" class="node"><title>Node5</title>
<g id="a_node5"><a xlink:title=" ">
<polygon fill="white" stroke="#bfbfbf" points="198.5,-276 198.5,-333 244.5,-333 244.5,-276 198.5,-276"/>
<text text-anchor="middle" x="221.5" y="-321" font-family="Helvetica,sans-Serif" font-size="10.00">JPanel</text>
<polyline fill="none" stroke="#bfbfbf" points="198.5,-314 244.5,-314 "/>
<text text-anchor="middle" x="221.5" y="-302" font-family="Helvetica,sans-Serif" font-size="10.00"> </text>
<polyline fill="none" stroke="#bfbfbf" points="198.5,-295 244.5,-295 "/>
<text text-anchor="middle" x="221.5" y="-283" font-family="Helvetica,sans-Serif" font-size="10.00"> </text>
</a>
</g>
</g>
<!-- Node5&#45;&gt;Node1 -->
<g id="edge4" class="edge"><title>Node5&#45;&gt;Node1</title>
<path fill="none" stroke="#404040" d="M213.322,-275.708C207.143,-255.563 198.108,-227.795 188.5,-204 180.742,-184.787 171.543,-164.455 162.542,-145.547"/>
<polygon fill="none" stroke="#404040" points="162.478,-145.413 156.273,-141.739 157.278,-134.598 163.483,-138.273 162.478,-145.413"/>
<text text-anchor="middle" x="218" y="-178" font-family="Helvetica,sans-Serif" font-size="10.00"> &#45;challengePanel</text>
<text text-anchor="middle" x="218" y="-167" font-family="Helvetica,sans-Serif" font-size="10.00">&#45;loginPanel</text>
<text text-anchor="middle" x="218" y="-156" font-family="Helvetica,sans-Serif" font-size="10.00">&#45;gamePanel</text>
</g>
</g>
</svg>
