<?xml version="1.0" encoding="UTF-8" standalone="no"?>
<!DOCTYPE svg PUBLIC "-//W3C//DTD SVG 1.1//EN"
 "http://www.w3.org/Graphics/SVG/1.1/DTD/svg11.dtd">
<!-- Generated by graphviz version 2.38.0 (20140413.2041)
 -->
<!-- Title: WordQuizzle.WordQuizzleServer.run Pages: 1 -->
<!--zoomable 382 -->
<svg id="main" version="1.1" xmlns="http://www.w3.org/2000/svg" xmlns:xlink="http://www.w3.org/1999/xlink" xml:space="preserve" onload="init(evt)">
<style type="text/css"><![CDATA[
.edge:hover path { stroke: red; }
.edge:hover polygon { stroke: red; fill: red; }
]]></style>
<script type="text/javascript"><![CDATA[
var edges = document.getElementsByTagName('g');
if (edges && edges.length) {
  for (var i=0;i<edges.length;i++) {
    if (edges[i].id.substr(0,4)=='edge') {
      edges[i].setAttribute('class','edge');
    }
  }
}
]]></script>
        <defs>
                <circle id="rim" cx="0" cy="0" r="7"/>
                <circle id="rim2" cx="0" cy="0" r="3.5"/>
                <g id="zoomPlus">
                        <use xlink:href="#rim" fill="#404040">
                                <set attributeName="fill" to="#808080" begin="zoomplus.mouseover" end="zoomplus.mouseout"/>
                        </use>
                        <path d="M-4,0h8M0,-4v8" fill="none" stroke="white" stroke-width="1.5" pointer-events="none"/>
                </g>
                <g id="zoomMin">
                        <use xlink:href="#rim" fill="#404040">
                                <set attributeName="fill" to="#808080" begin="zoomminus.mouseover" end="zoomminus.mouseout"/>
                        </use>
                        <path d="M-4,0h8" fill="none" stroke="white" stroke-width="1.5" pointer-events="none"/>
                </g>
                <g id="dirArrow">
                        <path fill="none" stroke="white" stroke-width="1.5" d="M0,-3.0v7 M-2.5,-0.5L0,-3.0L2.5,-0.5"/>
                </g>
               <g id="resetDef">
                       <use xlink:href="#rim2" fill="#404040">
                               <set attributeName="fill" to="#808080" begin="reset.mouseover" end="reset.mouseout"/>
                       </use>
               </g>
        </defs>

<script type="text/javascript">
var viewWidth = 978;
var viewHeight = 382;
var sectionId = 'dynsection-3';
</script>
<script xlink:href="svgpan.js"/>
<svg id="graph" class="graph">
<g id="viewport">
<title>WordQuizzle.WordQuizzleServer.run</title>
<polygon fill="white" stroke="none" points="-4,4 -4,-378 974,-378 974,4 -4,4"/>
<!-- Node1 -->
<g id="node1" class="node"><title>Node1</title>
<g id="a_node1"><a xlink:title=" ">
<polygon fill="#bfbfbf" stroke="black" points="0,-253 0,-272 176,-272 176,-253 0,-253"/>
<text text-anchor="middle" x="88" y="-260" font-family="Helvetica,sans-Serif" font-size="10.00">WordQuizzle.WordQuizzleServer.run</text>
</a>
</g>
</g>
<!-- Node2 -->
<g id="node2" class="node"><title>Node2</title>
<g id="a_node2"><a xlink:href="class_word_quizzle_1_1_session.html#a17292c458e9474dd97c4ea9566b84cd6" target="_top" xlink:title=" ">
<polygon fill="white" stroke="black" points="226.5,-329 226.5,-348 368.5,-348 368.5,-329 226.5,-329"/>
<text text-anchor="middle" x="297.5" y="-336" font-family="Helvetica,sans-Serif" font-size="10.00">WordQuizzle.Session.getBfs</text>
</a>
</g>
</g>
<!-- Node1&#45;&gt;Node2 -->
<g id="edge1" class="edge"><title>Node1&#45;&gt;Node2</title>
<path fill="none" stroke="midnightblue" d="M106.437,-272.028C129.844,-284.478 173.003,-306.248 212,-319.5 219.692,-322.114 227.902,-324.471 236.067,-326.563"/>
<polygon fill="midnightblue" stroke="midnightblue" points="235.423,-330.008 245.968,-328.983 237.085,-323.208 235.423,-330.008"/>
</g>
<!-- Node3 -->
<g id="node3" class="node"><title>Node3</title>
<g id="a_node3"><a xlink:href="class_word_quizzle_1_1_session.html#ac7b986c42486afe057019b848fa1025c" target="_top" xlink:title=" ">
<polygon fill="white" stroke="black" points="212,-291 212,-310 383,-310 383,-291 212,-291"/>
<text text-anchor="middle" x="297.5" y="-298" font-family="Helvetica,sans-Serif" font-size="10.00">WordQuizzle.Session.getResponse</text>
</a>
</g>
</g>
<!-- Node1&#45;&gt;Node3 -->
<g id="edge2" class="edge"><title>Node1&#45;&gt;Node3</title>
<path fill="none" stroke="midnightblue" d="M141.093,-272.04C169.46,-277.235 204.743,-283.696 234.517,-289.149"/>
<polygon fill="midnightblue" stroke="midnightblue" points="233.918,-292.597 244.385,-290.956 235.179,-285.712 233.918,-292.597"/>
</g>
<!-- Node4 -->
<g id="node4" class="node"><title>Node4</title>
<g id="a_node4"><a xlink:href="class_word_quizzle_1_1_session.html#aa1393315db65680fa9eac88d993d6938" target="_top" xlink:title=" ">
<polygon fill="white" stroke="black" points="212.5,-253 212.5,-272 382.5,-272 382.5,-253 212.5,-253"/>
<text text-anchor="middle" x="297.5" y="-260" font-family="Helvetica,sans-Serif" font-size="10.00">WordQuizzle.Session.isTerminated</text>
</a>
</g>
</g>
<!-- Node1&#45;&gt;Node4 -->
<g id="edge3" class="edge"><title>Node1&#45;&gt;Node4</title>
<path fill="none" stroke="midnightblue" d="M176.097,-262.5C184.706,-262.5 193.472,-262.5 202.15,-262.5"/>
<polygon fill="midnightblue" stroke="midnightblue" points="202.282,-266 212.282,-262.5 202.282,-259 202.282,-266"/>
</g>
<!-- Node5 -->
<g id="node5" class="node"><title>Node5</title>
<g id="a_node5"><a xlink:href="class_word_quizzle_1_1_session.html#a002484312c9f9178b1327f7dece00080" target="_top" xlink:title=" ">
<polygon fill="white" stroke="black" points="224.5,-215 224.5,-234 370.5,-234 370.5,-215 224.5,-215"/>
<text text-anchor="middle" x="297.5" y="-222" font-family="Helvetica,sans-Serif" font-size="10.00">WordQuizzle.Session.newBfs</text>
</a>
</g>
</g>
<!-- Node1&#45;&gt;Node5 -->
<g id="edge4" class="edge"><title>Node1&#45;&gt;Node5</title>
<path fill="none" stroke="midnightblue" d="M141.093,-252.96C169.46,-247.765 204.743,-241.304 234.517,-235.851"/>
<polygon fill="midnightblue" stroke="midnightblue" points="235.179,-239.288 244.385,-234.044 233.918,-232.403 235.179,-239.288"/>
</g>
<!-- Node6 -->
<g id="node6" class="node"><title>Node6</title>
<g id="a_node6"><a xlink:href="class_word_quizzle_1_1_session.html#a6793f02ea7cab6fffe0361893cf40178" target="_top" xlink:title=" ">
<polygon fill="white" stroke="black" points="228.5,-177 228.5,-196 366.5,-196 366.5,-177 228.5,-177"/>
<text text-anchor="middle" x="297.5" y="-184" font-family="Helvetica,sans-Serif" font-size="10.00">WordQuizzle.Session.parse</text>
</a>
</g>
</g>
<!-- Node1&#45;&gt;Node6 -->
<g id="edge5" class="edge"><title>Node1&#45;&gt;Node6</title>
<path fill="none" stroke="midnightblue" d="M106.437,-252.972C129.844,-240.522 173.003,-218.752 212,-205.5 219.692,-202.886 227.902,-200.529 236.067,-198.437"/>
<polygon fill="midnightblue" stroke="midnightblue" points="237.085,-201.792 245.968,-196.017 235.423,-194.992 237.085,-201.792"/>
</g>
<!-- Node7 -->
<g id="node7" class="node"><title>Node7</title>
<g id="a_node7"><a xlink:href="class_word_quizzle_1_1_session.html#a21992c338367b1a3c2e57fdb7cae3018" target="_top" xlink:title=" ">
<polygon fill="white" stroke="black" points="419,-177 419,-196 571,-196 571,-177 419,-177"/>
<text text-anchor="middle" x="495" y="-184" font-family="Helvetica,sans-Serif" font-size="10.00">WordQuizzle.Session.compute</text>
</a>
</g>
</g>
<!-- Node6&#45;&gt;Node7 -->
<g id="edge6" class="edge"><title>Node6&#45;&gt;Node7</title>
<path fill="none" stroke="midnightblue" d="M366.602,-186.5C380.169,-186.5 394.578,-186.5 408.639,-186.5"/>
<polygon fill="midnightblue" stroke="midnightblue" points="408.8,-190 418.8,-186.5 408.8,-183 408.8,-190"/>
</g>
<!-- Node8 -->
<g id="node8" class="node"><title>Node8</title>
<g id="a_node8"><a xlink:href="class_word_quizzle_1_1_word_quizzle_server_service.html#ac4a4c99a303ffb813cae6cfed0e12817" target="_top" xlink:title=" ">
<polygon fill="white" stroke="black" points="607,-343.5 607,-373.5 766,-373.5 766,-343.5 607,-343.5"/>
<text text-anchor="start" x="615" y="-361.5" font-family="Helvetica,sans-Serif" font-size="10.00">WordQuizzle.WordQuizzleServer</text>
<text text-anchor="middle" x="686.5" y="-350.5" font-family="Helvetica,sans-Serif" font-size="10.00">Service.accettaSfida</text>
</a>
</g>
</g>
<!-- Node7&#45;&gt;Node8 -->
<g id="edge7" class="edge"><title>Node7&#45;&gt;Node8</title>
<path fill="none" stroke="midnightblue" d="M500.477,-196.11C513.218,-222.404 552.32,-296.12 607,-334.5 609.143,-336.004 611.383,-337.417 613.695,-338.742"/>
<polygon fill="midnightblue" stroke="midnightblue" points="612.416,-342.018 622.916,-343.435 615.591,-335.78 612.416,-342.018"/>
</g>
<!-- Node9 -->
<g id="node9" class="node"><title>Node9</title>
<g id="a_node9"><a xlink:href="class_word_quizzle_1_1_word_quizzle_server_service.html#a1f28542d2118fba0a19061d5acf603ec" target="_top" xlink:title=" ">
<polygon fill="white" stroke="black" points="607,-294.5 607,-324.5 766,-324.5 766,-294.5 607,-294.5"/>
<text text-anchor="start" x="615" y="-312.5" font-family="Helvetica,sans-Serif" font-size="10.00">WordQuizzle.WordQuizzleServer</text>
<text text-anchor="middle" x="686.5" y="-301.5" font-family="Helvetica,sans-Serif" font-size="10.00">Service.aggiungi_amico</text>
</a>
</g>
</g>
<!-- Node7&#45;&gt;Node9 -->
<g id="edge8" class="edge"><title>Node7&#45;&gt;Node9</title>
<path fill="none" stroke="midnightblue" d="M504.165,-196.176C521.258,-215.835 562.892,-260.682 607,-285.5 610.074,-287.23 613.287,-288.849 616.584,-290.364"/>
<polygon fill="midnightblue" stroke="midnightblue" points="615.477,-293.695 626.051,-294.358 618.198,-287.246 615.477,-293.695"/>
</g>
<!-- Node12 -->
<g id="node12" class="node"><title>Node12</title>
<g id="a_node12"><a xlink:href="class_word_quizzle_1_1_word_quizzle_server_service.html#a198417a123b189dd75e88d3e969cd11d" target="_top" xlink:title=" ">
<polygon fill="white" stroke="black" points="607,-196.5 607,-226.5 766,-226.5 766,-196.5 607,-196.5"/>
<text text-anchor="start" x="615" y="-214.5" font-family="Helvetica,sans-Serif" font-size="10.00">WordQuizzle.WordQuizzleServer</text>
<text text-anchor="middle" x="686.5" y="-203.5" font-family="Helvetica,sans-Serif" font-size="10.00">Service.lista_amici</text>
</a>
</g>
</g>
<!-- Node7&#45;&gt;Node12 -->
<g id="edge11" class="edge"><title>Node7&#45;&gt;Node12</title>
<path fill="none" stroke="midnightblue" d="M568.182,-196.023C577.576,-197.262 587.283,-198.543 596.905,-199.812"/>
<polygon fill="midnightblue" stroke="midnightblue" points="596.513,-203.291 606.885,-201.129 597.429,-196.351 596.513,-203.291"/>
</g>
<!-- Node15 -->
<g id="node15" class="node"><title>Node15</title>
<g id="a_node15"><a xlink:href="class_word_quizzle_1_1_word_quizzle_server_service.html#a5158b145fd600da151cb8206e41b4f1a" target="_top" xlink:title=" ">
<polygon fill="white" stroke="black" points="607,-98.5 607,-128.5 766,-128.5 766,-98.5 607,-98.5"/>
<text text-anchor="start" x="615" y="-116.5" font-family="Helvetica,sans-Serif" font-size="10.00">WordQuizzle.WordQuizzleServer</text>
<text text-anchor="middle" x="686.5" y="-105.5" font-family="Helvetica,sans-Serif" font-size="10.00">Service.login</text>
</a>
</g>
</g>
<!-- Node7&#45;&gt;Node15 -->
<g id="edge15" class="edge"><title>Node7&#45;&gt;Node15</title>
<path fill="none" stroke="midnightblue" d="M516.614,-176.849C538.713,-166.678 574.95,-150.499 607,-138.5 612.977,-136.262 619.256,-134.045 625.55,-131.909"/>
<polygon fill="midnightblue" stroke="midnightblue" points="627.027,-135.106 635.411,-128.628 624.817,-128.464 627.027,-135.106"/>
</g>
<!-- Node17 -->
<g id="node17" class="node"><title>Node17</title>
<g id="a_node17"><a xlink:href="class_word_quizzle_1_1_word_quizzle_server_service.html#ac79f01637184c2916b5381056f5d36e7" target="_top" xlink:title=" ">
<polygon fill="white" stroke="black" points="607,-0.5 607,-30.5 766,-30.5 766,-0.5 607,-0.5"/>
<text text-anchor="start" x="615" y="-18.5" font-family="Helvetica,sans-Serif" font-size="10.00">WordQuizzle.WordQuizzleServer</text>
<text text-anchor="middle" x="686.5" y="-7.5" font-family="Helvetica,sans-Serif" font-size="10.00">Service.logout</text>
</a>
</g>
</g>
<!-- Node7&#45;&gt;Node17 -->
<g id="edge19" class="edge"><title>Node7&#45;&gt;Node17</title>
<path fill="none" stroke="midnightblue" d="M500.495,-176.955C513.283,-150.84 552.494,-77.6258 607,-39.5 609.146,-37.9991 611.388,-36.5899 613.702,-35.2672"/>
<polygon fill="midnightblue" stroke="midnightblue" points="615.596,-38.2306 622.928,-30.5819 612.427,-31.9893 615.596,-38.2306"/>
</g>
<!-- Node18 -->
<g id="node18" class="node"><title>Node18</title>
<g id="a_node18"><a xlink:href="class_word_quizzle_1_1_word_quizzle_server_service.html#ad212848f8436aaf885c017463458d2f4" target="_top" xlink:title=" ">
<polygon fill="white" stroke="black" points="607,-245.5 607,-275.5 766,-275.5 766,-245.5 607,-245.5"/>
<text text-anchor="start" x="615" y="-263.5" font-family="Helvetica,sans-Serif" font-size="10.00">WordQuizzle.WordQuizzleServer</text>
<text text-anchor="middle" x="686.5" y="-252.5" font-family="Helvetica,sans-Serif" font-size="10.00">Service.mostra_classifica</text>
</a>
</g>
</g>
<!-- Node7&#45;&gt;Node18 -->
<g id="edge20" class="edge"><title>Node7&#45;&gt;Node18</title>
<path fill="none" stroke="midnightblue" d="M515.336,-196.112C537.239,-206.787 574.163,-224.141 607,-236.5 612.168,-238.445 617.571,-240.351 623.018,-242.186"/>
<polygon fill="midnightblue" stroke="midnightblue" points="622.237,-245.613 632.83,-245.403 624.418,-238.962 622.237,-245.613"/>
</g>
<!-- Node20 -->
<g id="node20" class="node"><title>Node20</title>
<g id="a_node20"><a xlink:href="class_word_quizzle_1_1_word_quizzle_server_service.html#a45a270251f3ca3e1595ceddf56fbe041" target="_top" xlink:title=" ">
<polygon fill="white" stroke="black" points="607,-147.5 607,-177.5 766,-177.5 766,-147.5 607,-147.5"/>
<text text-anchor="start" x="615" y="-165.5" font-family="Helvetica,sans-Serif" font-size="10.00">WordQuizzle.WordQuizzleServer</text>
<text text-anchor="middle" x="686.5" y="-154.5" font-family="Helvetica,sans-Serif" font-size="10.00">Service.mostra_punteggio</text>
</a>
</g>
</g>
<!-- Node7&#45;&gt;Node20 -->
<g id="edge25" class="edge"><title>Node7&#45;&gt;Node20</title>
<path fill="none" stroke="midnightblue" d="M571.168,-176.98C579.56,-175.917 588.167,-174.827 596.71,-173.745"/>
<polygon fill="midnightblue" stroke="midnightblue" points="597.21,-177.21 606.691,-172.481 596.33,-170.265 597.21,-177.21"/>
</g>
<!-- Node21 -->
<g id="node21" class="node"><title>Node21</title>
<g id="a_node21"><a xlink:href="class_word_quizzle_1_1_word_quizzle_server_service.html#aee4ec771e269748e727002f9fa02e8a0" target="_top" xlink:title=" ">
<polygon fill="white" stroke="black" points="607,-49.5 607,-79.5 766,-79.5 766,-49.5 607,-49.5"/>
<text text-anchor="start" x="615" y="-67.5" font-family="Helvetica,sans-Serif" font-size="10.00">WordQuizzle.WordQuizzleServer</text>
<text text-anchor="middle" x="686.5" y="-56.5" font-family="Helvetica,sans-Serif" font-size="10.00">Service.sfida</text>
</a>
</g>
</g>
<!-- Node7&#45;&gt;Node21 -->
<g id="edge29" class="edge"><title>Node7&#45;&gt;Node21</title>
<path fill="none" stroke="midnightblue" d="M504.498,-176.776C521.878,-157.459 563.525,-114.004 607,-89.5 610.89,-87.3075 614.998,-85.278 619.214,-83.4043"/>
<polygon fill="midnightblue" stroke="midnightblue" points="620.66,-86.5942 628.573,-79.5485 617.993,-80.122 620.66,-86.5942"/>
</g>
<!-- Node10 -->
<g id="node10" class="node"><title>Node10</title>
<g id="a_node10"><a xlink:href="interface_word_quizzle_1_1_data_base.html#a256d6e7e3541d11a9ff219431066a7d5" target="_top" xlink:title="Controlla che quel nome utente sia nel database.">
<polygon fill="white" stroke="black" points="802,-177 802,-196 970,-196 970,-177 802,-177"/>
<text text-anchor="middle" x="886" y="-184" font-family="Helvetica,sans-Serif" font-size="10.00">WordQuizzle.DataBase.checkUser</text>
</a>
</g>
</g>
<!-- Node9&#45;&gt;Node10 -->
<g id="edge9" class="edge"><title>Node9&#45;&gt;Node10</title>
<path fill="none" stroke="midnightblue" d="M753.251,-294.305C757.832,-291.804 762.151,-288.892 766,-285.5 795.253,-259.723 771.842,-230.213 802,-205.5 804.051,-203.819 806.222,-202.281 808.486,-200.873"/>
<polygon fill="midnightblue" stroke="midnightblue" points="810.404,-203.819 817.625,-196.065 807.145,-197.624 810.404,-203.819"/>
</g>
<!-- Node11 -->
<g id="node11" class="node"><title>Node11</title>
<g id="a_node11"><a xlink:href="interface_word_quizzle_1_1_data_base.html#a2128ed726158cf0961972a99ac83b9a8" target="_top" xlink:title="Crea un link (amicizia) non orientato tra due utenti.">
<polygon fill="white" stroke="black" points="817.5,-300 817.5,-319 954.5,-319 954.5,-300 817.5,-300"/>
<text text-anchor="middle" x="886" y="-307" font-family="Helvetica,sans-Serif" font-size="10.00">WordQuizzle.DataBase.link</text>
</a>
</g>
</g>
<!-- Node9&#45;&gt;Node11 -->
<g id="edge10" class="edge"><title>Node9&#45;&gt;Node11</title>
<path fill="none" stroke="midnightblue" d="M766.125,-309.5C779.669,-309.5 793.74,-309.5 807.26,-309.5"/>
<polygon fill="midnightblue" stroke="midnightblue" points="807.474,-313 817.474,-309.5 807.474,-306 807.474,-313"/>
</g>
<!-- Node12&#45;&gt;Node10 -->
<g id="edge12" class="edge"><title>Node12&#45;&gt;Node10</title>
<path fill="none" stroke="midnightblue" d="M766.125,-201.548C777.161,-200.151 788.547,-198.709 799.7,-197.297"/>
<polygon fill="midnightblue" stroke="midnightblue" points="800.379,-200.739 809.861,-196.011 799.5,-193.795 800.379,-200.739"/>
</g>
<!-- Node13 -->
<g id="node13" class="node"><title>Node13</title>
<g id="a_node13"><a xlink:href="class_word_quizzle_1_1_user.html#a8a3e0c4b349c4e6bf825bc84c179c36b" target="_top" xlink:title="Restituisce la lista di amici dell&#39;utente.">
<polygon fill="white" stroke="black" points="813.5,-253 813.5,-272 958.5,-272 958.5,-253 813.5,-253"/>
<text text-anchor="middle" x="886" y="-260" font-family="Helvetica,sans-Serif" font-size="10.00">WordQuizzle.User.getFriends</text>
</a>
</g>
</g>
<!-- Node12&#45;&gt;Node13 -->
<g id="edge13" class="edge"><title>Node12&#45;&gt;Node13</title>
<path fill="none" stroke="midnightblue" d="M739.229,-226.519C758.835,-232.063 781.395,-238.265 802,-243.5 811.464,-245.904 821.57,-248.333 831.356,-250.613"/>
<polygon fill="midnightblue" stroke="midnightblue" points="830.869,-254.092 841.399,-252.928 832.441,-247.271 830.869,-254.092"/>
</g>
<!-- Node14 -->
<g id="node14" class="node"><title>Node14</title>
<g id="a_node14"><a xlink:href="interface_word_quizzle_1_1_data_base.html#a987acacce768d19e4551b5b3a508ccf3" target="_top" xlink:title="Dato un nome utente ottiene l&#39;oggetto User corrispondente.">
<polygon fill="white" stroke="black" points="808.5,-139 808.5,-158 963.5,-158 963.5,-139 808.5,-139"/>
<text text-anchor="middle" x="886" y="-146" font-family="Helvetica,sans-Serif" font-size="10.00">WordQuizzle.DataBase.getUser</text>
</a>
</g>
</g>
<!-- Node12&#45;&gt;Node14 -->
<g id="edge14" class="edge"><title>Node12&#45;&gt;Node14</title>
<path fill="none" stroke="midnightblue" d="M742.086,-196.44C750.203,-193.733 758.393,-190.733 766,-187.5 782.845,-180.34 784.909,-174.052 802,-167.5 808.738,-164.917 815.923,-162.629 823.142,-160.616"/>
<polygon fill="midnightblue" stroke="midnightblue" points="824.18,-163.962 832.965,-158.04 822.405,-157.191 824.18,-163.962"/>
</g>
<!-- Node15&#45;&gt;Node10 -->
<g id="edge16" class="edge"><title>Node15&#45;&gt;Node10</title>
<path fill="none" stroke="midnightblue" d="M743.872,-128.646C751.496,-131.497 759.071,-134.775 766,-138.5 784.097,-148.228 783.514,-158.534 802,-167.5 806.988,-169.919 812.295,-172.037 817.722,-173.89"/>
<polygon fill="midnightblue" stroke="midnightblue" points="816.987,-177.327 827.575,-176.948 819.061,-170.641 816.987,-177.327"/>
</g>
<!-- Node15&#45;&gt;Node14 -->
<g id="edge18" class="edge"><title>Node15&#45;&gt;Node14</title>
<path fill="none" stroke="midnightblue" d="M766.125,-127.433C784.379,-130.668 803.591,-134.073 821.122,-137.18"/>
<polygon fill="midnightblue" stroke="midnightblue" points="820.772,-140.672 831.229,-138.971 821.993,-133.78 820.772,-140.672"/>
</g>
<!-- Node16 -->
<g id="node16" class="node"><title>Node16</title>
<g id="a_node16"><a xlink:href="class_word_quizzle_1_1_user.html#ab3df921fe5bcada15672f146592dbc3f" target="_top" xlink:title="Restituisce la password dell&#39;utente.">
<polygon fill="white" stroke="black" points="808.5,-101 808.5,-120 963.5,-120 963.5,-101 808.5,-101"/>
<text text-anchor="middle" x="886" y="-108" font-family="Helvetica,sans-Serif" font-size="10.00">WordQuizzle.User.getPassword</text>
</a>
</g>
</g>
<!-- Node15&#45;&gt;Node16 -->
<g id="edge17" class="edge"><title>Node15&#45;&gt;Node16</title>
<path fill="none" stroke="midnightblue" d="M766.125,-112.306C776.641,-112.146 787.475,-111.981 798.122,-111.82"/>
<polygon fill="midnightblue" stroke="midnightblue" points="798.31,-115.317 808.256,-111.666 798.204,-108.318 798.31,-115.317"/>
</g>
<!-- Node18&#45;&gt;Node10 -->
<g id="edge21" class="edge"><title>Node18&#45;&gt;Node10</title>
<path fill="none" stroke="midnightblue" d="M746.478,-245.414C753.234,-242.831 759.885,-239.871 766,-236.5 784.491,-226.307 783.156,-215.024 802,-205.5 806.663,-203.143 811.62,-201.075 816.702,-199.261"/>
<polygon fill="midnightblue" stroke="midnightblue" points="818.139,-202.475 826.583,-196.075 815.992,-195.813 818.139,-202.475"/>
</g>
<!-- Node18&#45;&gt;Node13 -->
<g id="edge22" class="edge"><title>Node18&#45;&gt;Node13</title>
<path fill="none" stroke="midnightblue" d="M766.125,-261.296C778.311,-261.42 790.923,-261.547 803.178,-261.671"/>
<polygon fill="midnightblue" stroke="midnightblue" points="803.335,-265.173 813.37,-261.775 803.406,-258.173 803.335,-265.173"/>
</g>
<!-- Node18&#45;&gt;Node14 -->
<g id="edge24" class="edge"><title>Node18&#45;&gt;Node14</title>
<path fill="none" stroke="midnightblue" d="M752.263,-245.459C757.176,-242.923 761.835,-239.961 766,-236.5 792.604,-214.394 774.621,-188.638 802,-167.5 804.358,-165.679 806.86,-164.027 809.468,-162.529"/>
<polygon fill="midnightblue" stroke="midnightblue" points="811.252,-165.552 818.688,-158.004 808.169,-159.268 811.252,-165.552"/>
</g>
<!-- Node19 -->
<g id="node19" class="node"><title>Node19</title>
<g id="a_node19"><a xlink:href="class_word_quizzle_1_1_user.html#ae4cc205520a878a71ce7c673e96f7e4f" target="_top" xlink:title="Restituisce il punteggio dell&#39;utente.">
<polygon fill="white" stroke="black" points="817,-215 817,-234 955,-234 955,-215 817,-215"/>
<text text-anchor="middle" x="886" y="-222" font-family="Helvetica,sans-Serif" font-size="10.00">WordQuizzle.User.getScore</text>
</a>
</g>
</g>
<!-- Node18&#45;&gt;Node19 -->
<g id="edge23" class="edge"><title>Node18&#45;&gt;Node19</title>
<path fill="none" stroke="midnightblue" d="M766.125,-246.168C784.916,-242.743 804.723,-239.133 822.664,-235.862"/>
<polygon fill="midnightblue" stroke="midnightblue" points="823.495,-239.269 832.705,-234.032 822.24,-232.382 823.495,-239.269"/>
</g>
<!-- Node20&#45;&gt;Node10 -->
<g id="edge26" class="edge"><title>Node20&#45;&gt;Node10</title>
<path fill="none" stroke="midnightblue" d="M766.125,-172.054C776.129,-173.27 786.421,-174.521 796.566,-175.754"/>
<polygon fill="midnightblue" stroke="midnightblue" points="796.297,-179.247 806.646,-176.978 797.141,-172.298 796.297,-179.247"/>
</g>
<!-- Node20&#45;&gt;Node14 -->
<g id="edge28" class="edge"><title>Node20&#45;&gt;Node14</title>
<path fill="none" stroke="midnightblue" d="M766.125,-156.927C776.641,-156.181 787.475,-155.413 798.122,-154.658"/>
<polygon fill="midnightblue" stroke="midnightblue" points="798.528,-158.139 808.256,-153.94 798.033,-151.156 798.528,-158.139"/>
</g>
<!-- Node20&#45;&gt;Node19 -->
<g id="edge27" class="edge"><title>Node20&#45;&gt;Node19</title>
<path fill="none" stroke="midnightblue" d="M739.004,-177.638C748.087,-180.666 757.387,-184 766,-187.5 782.572,-194.234 785.162,-199.461 802,-205.5 809.24,-208.096 816.966,-210.422 824.68,-212.48"/>
<polygon fill="midnightblue" stroke="midnightblue" points="823.856,-215.882 834.409,-214.944 825.575,-209.096 823.856,-215.882"/>
</g>
<!-- Node21&#45;&gt;Node10 -->
<g id="edge30" class="edge"><title>Node21&#45;&gt;Node10</title>
<path fill="none" stroke="midnightblue" d="M751.303,-79.5683C756.603,-82.339 761.604,-85.6185 766,-89.5 794.62,-114.772 772.353,-143.441 802,-167.5 804.059,-169.171 806.237,-170.701 808.507,-172.101"/>
<polygon fill="midnightblue" stroke="midnightblue" points="807.18,-175.357 817.663,-176.887 810.422,-169.153 807.18,-175.357"/>
</g>
<!-- Node21&#45;&gt;Node14 -->
<g id="edge31" class="edge"><title>Node21&#45;&gt;Node14</title>
<path fill="none" stroke="midnightblue" d="M746.923,-79.6483C753.601,-82.4379 760.112,-85.6995 766,-89.5 786.095,-102.47 781.382,-117.378 802,-129.5 805.831,-131.752 809.907,-133.738 814.117,-135.488"/>
<polygon fill="midnightblue" stroke="midnightblue" points="812.913,-138.774 823.506,-138.955 815.338,-132.208 812.913,-138.774"/>
</g>
<!-- Node22 -->
<g id="node22" class="node"><title>Node22</title>
<g id="a_node22"><a xlink:href="class_word_quizzle_1_1_user.html#a3cb7161060a60e47d7d9437bed21b888" target="_top" xlink:title="Verifica se un nome utente e&#39; amico dell&#39;utente.">
<polygon fill="white" stroke="black" points="819,-55 819,-74 953,-74 953,-55 819,-55"/>
<text text-anchor="middle" x="886" y="-62" font-family="Helvetica,sans-Serif" font-size="10.00">WordQuizzle.User.isFriend</text>
</a>
</g>
</g>
<!-- Node21&#45;&gt;Node22 -->
<g id="edge32" class="edge"><title>Node21&#45;&gt;Node22</title>
<path fill="none" stroke="midnightblue" d="M766.125,-64.5C780.148,-64.5 794.736,-64.5 808.693,-64.5"/>
<polygon fill="midnightblue" stroke="midnightblue" points="808.727,-68.0001 818.727,-64.5 808.727,-61.0001 808.727,-68.0001"/>
</g>
</g>
</svg>
        <g id="navigator" transform="translate(0 0)" fill="#404254">
                <rect fill="#f2f5e9" fill-opacity="0.5" stroke="#606060" stroke-width=".5" x="0" y="0" width="60" height="60"/>
                <use id="zoomplus" xlink:href="#zoomPlus" x="17" y="9" onmousedown="handleZoom(evt,'in')"/>
                <use id="zoomminus" xlink:href="#zoomMin" x="42" y="9" onmousedown="handleZoom(evt,'out')"/>
                <use id="reset" xlink:href="#resetDef" x="30" y="36" onmousedown="handleReset()"/>
                <g id="arrowUp" xlink:href="#dirArrow" transform="translate(30 24)" onmousedown="handlePan(0,-1)">
                  <use xlink:href="#rim" fill="#404040">
                        <set attributeName="fill" to="#808080" begin="arrowUp.mouseover" end="arrowUp.mouseout"/>
                  </use>
                  <path fill="none" stroke="white" stroke-width="1.5" d="M0,-3.0v7 M-2.5,-0.5L0,-3.0L2.5,-0.5"/>
                </g>
                <g id="arrowRight" xlink:href="#dirArrow" transform="rotate(90) translate(36 -43)" onmousedown="handlePan(1,0)">
                  <use xlink:href="#rim" fill="#404040">
                        <set attributeName="fill" to="#808080" begin="arrowRight.mouseover" end="arrowRight.mouseout"/>
                  </use>
                  <path fill="none" stroke="white" stroke-width="1.5" d="M0,-3.0v7 M-2.5,-0.5L0,-3.0L2.5,-0.5"/>
                </g>
                <g id="arrowDown" xlink:href="#dirArrow" transform="rotate(180) translate(-30 -48)" onmousedown="handlePan(0,1)">
                  <use xlink:href="#rim" fill="#404040">
                        <set attributeName="fill" to="#808080" begin="arrowDown.mouseover" end="arrowDown.mouseout"/>
                  </use>
                  <path fill="none" stroke="white" stroke-width="1.5" d="M0,-3.0v7 M-2.5,-0.5L0,-3.0L2.5,-0.5"/>
                </g>
                <g id="arrowLeft" xlink:href="#dirArrow" transform="rotate(270) translate(-36 17)" onmousedown="handlePan(-1,0)">
                  <use xlink:href="#rim" fill="#404040">
                        <set attributeName="fill" to="#808080" begin="arrowLeft.mouseover" end="arrowLeft.mouseout"/>
                  </use>
                  <path fill="none" stroke="white" stroke-width="1.5" d="M0,-3.0v7 M-2.5,-0.5L0,-3.0L2.5,-0.5"/>
                </g>
        </g>
        <svg viewBox="0 0 15 15" width="100%" height="30px" preserveAspectRatio="xMaxYMin meet">
         <g id="arrow_out" transform="scale(0.3 0.3)">
          <a xlink:href="class_word_quizzle_1_1_word_quizzle_server_a4aa19bad373d06a790babba1e5b67644_cgraph_org.svg" target="_base">
           <rect id="button" ry="5" rx="5" y="6" x="6" height="38" width="38"
                fill="#f2f5e9" fill-opacity="0.5" stroke="#606060" stroke-width="1.0"/>
           <path id="arrow"
             d="M 11.500037,31.436501 C 11.940474,20.09759 22.043105,11.32322 32.158766,21.979434 L 37.068811,17.246167 C 37.068811,17.246167 37.088388,32 37.088388,32 L 22.160133,31.978069 C 22.160133,31.978069 26.997745,27.140456 26.997745,27.140456 C 18.528582,18.264221 13.291696,25.230495 11.500037,31.436501 z"
             style="fill:#404040;"/>
          </a>
         </g>
        </svg>
</svg>
