<?xml version="1.0" encoding="UTF-8" standalone="no"?>
<!DOCTYPE svg PUBLIC "-//W3C//DTD SVG 1.1//EN"
 "http://www.w3.org/Graphics/SVG/1.1/DTD/svg11.dtd">
<!-- Generated by graphviz version 2.38.0 (20140413.2041)
 -->
<!-- Title: Bot Pages: 1 -->
<svg width="196pt" height="584pt"
 viewBox="0.00 0.00 196.00 584.00" xmlns="http://www.w3.org/2000/svg" xmlns:xlink="http://www.w3.org/1999/xlink">
<g id="graph0" class="graph" transform="scale(1 1) rotate(0) translate(4 580)">
<title>Bot</title>
<polygon fill="white" stroke="none" points="-4,4 -4,-580 192,-580 192,4 -4,4"/>
<!-- Node1 -->
<g id="node1" class="node"><title>Node1</title>
<g id="a_node1"><a xlink:title="Implementa un bot automatico per giocare in singolo e/o per testing.">
<polygon fill="#bfbfbf" stroke="black" points="36,-0.5 36,-112.5 89,-112.5 89,-0.5 36,-0.5"/>
<text text-anchor="middle" x="62.5" y="-100.5" font-family="Helvetica,sans-Serif" font-size="10.00">Bot</text>
<polyline fill="none" stroke="black" points="36,-93.5 89,-93.5 "/>
<text text-anchor="start" x="44" y="-81.5" font-family="Helvetica,sans-Serif" font-size="10.00">&#45; user</text>
<text text-anchor="start" x="44" y="-70.5" font-family="Helvetica,sans-Serif" font-size="10.00">&#45; passw</text>
<text text-anchor="start" x="44" y="-59.5" font-family="Helvetica,sans-Serif" font-size="10.00">&#45; p</text>
<polyline fill="none" stroke="black" points="36,-52.5 89,-52.5 "/>
<text text-anchor="start" x="44" y="-40.5" font-family="Helvetica,sans-Serif" font-size="10.00">+ Bot()</text>
<text text-anchor="start" x="44" y="-29.5" font-family="Helvetica,sans-Serif" font-size="10.00">+ run()</text>
<text text-anchor="start" x="44" y="-18.5" font-family="Helvetica,sans-Serif" font-size="10.00">+ main()</text>
<text text-anchor="start" x="44" y="-7.5" font-family="Helvetica,sans-Serif" font-size="10.00">&#45; game()</text>
</a>
</g>
</g>
<!-- Node2 -->
<g id="node2" class="node"><title>Node2</title>
<g id="a_node2"><a xlink:title=" ">
<polygon fill="white" stroke="#bfbfbf" points="0,-232 0,-289 57,-289 57,-232 0,-232"/>
<text text-anchor="middle" x="28.5" y="-277" font-family="Helvetica,sans-Serif" font-size="10.00">Runnable</text>
<polyline fill="none" stroke="#bfbfbf" points="0,-270 57,-270 "/>
<text text-anchor="middle" x="28.5" y="-258" font-family="Helvetica,sans-Serif" font-size="10.00"> </text>
<polyline fill="none" stroke="#bfbfbf" points="0,-251 57,-251 "/>
<text text-anchor="middle" x="28.5" y="-239" font-family="Helvetica,sans-Serif" font-size="10.00"> </text>
</a>
</g>
</g>
<!-- Node2&#45;&gt;Node1 -->
<g id="edge1" class="edge"><title>Node2&#45;&gt;Node1</title>
<path fill="none" stroke="midnightblue" d="M34.8204,-221.95C39.9941,-191.211 47.3859,-147.296 53.2295,-112.577"/>
<polygon fill="none" stroke="midnightblue" points="31.3647,-221.394 33.1563,-231.836 38.2676,-222.556 31.3647,-221.394"/>
</g>
<!-- Node3 -->
<g id="node3" class="node"><title>Node3</title>
<g id="a_node3"><a xlink:href="class_word_quizzle_client.html" target="_top" xlink:title="Definisce un Client con memoria.">
<polygon fill="white" stroke="black" points="75,-160.5 75,-360.5 188,-360.5 188,-160.5 75,-160.5"/>
<text text-anchor="middle" x="131.5" y="-348.5" font-family="Helvetica,sans-Serif" font-size="10.00">WordQuizzleClient</text>
<polyline fill="none" stroke="black" points="75,-341.5 188,-341.5 "/>
<text text-anchor="start" x="83" y="-329.5" font-family="Helvetica,sans-Serif" font-size="10.00">&#45; user</text>
<polyline fill="none" stroke="black" points="75,-322.5 188,-322.5 "/>
<text text-anchor="start" x="83" y="-310.5" font-family="Helvetica,sans-Serif" font-size="10.00">+ WordQuizzleClient()</text>
<text text-anchor="start" x="83" y="-299.5" font-family="Helvetica,sans-Serif" font-size="10.00">+ getUser()</text>
<text text-anchor="start" x="83" y="-288.5" font-family="Helvetica,sans-Serif" font-size="10.00">+ registra_utente()</text>
<text text-anchor="start" x="83" y="-277.5" font-family="Helvetica,sans-Serif" font-size="10.00">+ login()</text>
<text text-anchor="start" x="83" y="-266.5" font-family="Helvetica,sans-Serif" font-size="10.00">+ logout()</text>
<text text-anchor="start" x="83" y="-255.5" font-family="Helvetica,sans-Serif" font-size="10.00">+ aggiungi_amico()</text>
<text text-anchor="start" x="83" y="-244.5" font-family="Helvetica,sans-Serif" font-size="10.00">+ sfida()</text>
<text text-anchor="start" x="83" y="-233.5" font-family="Helvetica,sans-Serif" font-size="10.00">+ lista_amici()</text>
<text text-anchor="start" x="83" y="-222.5" font-family="Helvetica,sans-Serif" font-size="10.00">+ mostra_punteggio()</text>
<text text-anchor="start" x="83" y="-211.5" font-family="Helvetica,sans-Serif" font-size="10.00">+ mostra_classifica()</text>
<text text-anchor="start" x="83" y="-200.5" font-family="Helvetica,sans-Serif" font-size="10.00">+ controllaRichieste()</text>
<text text-anchor="start" x="83" y="-189.5" font-family="Helvetica,sans-Serif" font-size="10.00">+ controllaRichieste()</text>
<text text-anchor="start" x="83" y="-178.5" font-family="Helvetica,sans-Serif" font-size="10.00">+ accettaSfida()</text>
<text text-anchor="start" x="83" y="-167.5" font-family="Helvetica,sans-Serif" font-size="10.00">+ sendTranslation()</text>
</a>
</g>
</g>
<!-- Node3&#45;&gt;Node1 -->
<g id="edge2" class="edge"><title>Node3&#45;&gt;Node1</title>
<path fill="none" stroke="#404040" d="M97.6064,-160.275C93.4144,-148.003 89.2104,-135.696 85.2422,-124.079"/>
<polygon fill="none" stroke="#404040" points="85.2407,-124.074 79.5159,-119.689 81.3617,-112.718 87.0865,-117.103 85.2407,-124.074"/>
<text text-anchor="middle" x="100" y="-134" font-family="Helvetica,sans-Serif" font-size="10.00"> &#45;wq</text>
</g>
<!-- Node4 -->
<g id="node4" class="node"><title>Node4</title>
<g id="a_node4"><a xlink:href="interface_word_quizzle_service.html" target="_top" xlink:title="Interfaccia che definisce i servizi utilizzabili da un client.">
<polygon fill="white" stroke="black" points="77,-408.5 77,-575.5 186,-575.5 186,-408.5 77,-408.5"/>
<text text-anchor="middle" x="131.5" y="-563.5" font-family="Helvetica,sans-Serif" font-size="10.00">WordQuizzleService</text>
<polyline fill="none" stroke="black" points="77,-556.5 186,-556.5 "/>
<text text-anchor="middle" x="131.5" y="-544.5" font-family="Helvetica,sans-Serif" font-size="10.00"> </text>
<polyline fill="none" stroke="black" points="77,-537.5 186,-537.5 "/>
<text text-anchor="start" x="85" y="-525.5" font-family="Helvetica,sans-Serif" font-size="10.00">+ registra_utente()</text>
<text text-anchor="start" x="85" y="-514.5" font-family="Helvetica,sans-Serif" font-size="10.00">+ login()</text>
<text text-anchor="start" x="85" y="-503.5" font-family="Helvetica,sans-Serif" font-size="10.00">+ logout()</text>
<text text-anchor="start" x="85" y="-492.5" font-family="Helvetica,sans-Serif" font-size="10.00">+ aggiungi_amico()</text>
<text text-anchor="start" x="85" y="-481.5" font-family="Helvetica,sans-Serif" font-size="10.00">+ sfida()</text>
<text text-anchor="start" x="85" y="-470.5" font-family="Helvetica,sans-Serif" font-size="10.00">+ lista_amici()</text>
<text text-anchor="start" x="85" y="-459.5" font-family="Helvetica,sans-Serif" font-size="10.00">+ mostra_punteggio()</text>
<text text-anchor="start" x="85" y="-448.5" font-family="Helvetica,sans-Serif" font-size="10.00">+ mostra_classifica()</text>
<text text-anchor="start" x="85" y="-437.5" font-family="Helvetica,sans-Serif" font-size="10.00">+ accettaSfida()</text>
<text text-anchor="start" x="85" y="-426.5" font-family="Helvetica,sans-Serif" font-size="10.00">+ sendTranslation()</text>
<text text-anchor="start" x="85" y="-415.5" font-family="Helvetica,sans-Serif" font-size="10.00">+ controllaRichieste()</text>
</a>
</g>
</g>
<!-- Node4&#45;&gt;Node3 -->
<g id="edge3" class="edge"><title>Node4&#45;&gt;Node3</title>
<path fill="none" stroke="#404040" d="M131.5,-408.469C131.5,-396.807 131.5,-384.662 131.5,-372.572"/>
<polygon fill="none" stroke="#404040" points="131.5,-372.519 127.5,-366.519 131.5,-360.519 135.5,-366.519 131.5,-372.519"/>
<text text-anchor="middle" x="150" y="-382" font-family="Helvetica,sans-Serif" font-size="10.00"> &#45;service</text>
</g>
</g>
</svg>
