<?xml version="1.0" encoding="UTF-8" standalone="no"?>
<!DOCTYPE svg PUBLIC "-//W3C//DTD SVG 1.1//EN"
 "http://www.w3.org/Graphics/SVG/1.1/DTD/svg11.dtd">
<!-- Generated by graphviz version 2.38.0 (20140413.2041)
 -->
<!-- Title: DataBaseJSON.link Pages: 1 -->
<svg width="281pt" height="66pt"
 viewBox="0.00 0.00 281.00 66.00" xmlns="http://www.w3.org/2000/svg" xmlns:xlink="http://www.w3.org/1999/xlink">
<g id="graph0" class="graph" transform="scale(1 1) rotate(0) translate(4 62)">
<title>DataBaseJSON.link</title>
<polygon fill="white" stroke="none" points="-4,4 -4,-62 277,-62 277,4 -4,4"/>
<!-- Node1 -->
<g id="node1" class="node"><title>Node1</title>
<g id="a_node1"><a xlink:title="Crea un link (amicizia) non orientato tra due utenti.">
<polygon fill="#bfbfbf" stroke="black" points="0,-19.5 0,-38.5 103,-38.5 103,-19.5 0,-19.5"/>
<text text-anchor="middle" x="51.5" y="-26.5" font-family="Helvetica,sans-Serif" font-size="10.00">DataBaseJSON.link</text>
</a>
</g>
</g>
<!-- Node2 -->
<g id="node2" class="node"><title>Node2</title>
<g id="a_node2"><a xlink:href="class_data_base_j_s_o_n.html#a0e2fb15fe514e5455e92b9617782bd7a" target="_top" xlink:title="Controlla che quel nome utente sia nel database.">
<polygon fill="white" stroke="black" points="139,-38.5 139,-57.5 273,-57.5 273,-38.5 139,-38.5"/>
<text text-anchor="middle" x="206" y="-45.5" font-family="Helvetica,sans-Serif" font-size="10.00">DataBaseJSON.checkUser</text>
</a>
</g>
</g>
<!-- Node1&#45;&gt;Node2 -->
<g id="edge1" class="edge"><title>Node1&#45;&gt;Node2</title>
<path fill="none" stroke="midnightblue" d="M103.28,-35.3267C111.501,-36.3509 120.167,-37.4307 128.833,-38.5103"/>
<polygon fill="midnightblue" stroke="midnightblue" points="128.621,-42.011 138.977,-39.7742 129.487,-35.0647 128.621,-42.011"/>
</g>
<!-- Node3 -->
<g id="node3" class="node"><title>Node3</title>
<g id="a_node3"><a xlink:href="class_data_base_j_s_o_n.html#a11523157e04fff10c538e226ed705a2e" target="_top" xlink:title="Fa il commit del database nel file json.">
<polygon fill="white" stroke="black" points="139,-0.5 139,-19.5 273,-19.5 273,-0.5 139,-0.5"/>
<text text-anchor="middle" x="206" y="-7.5" font-family="Helvetica,sans-Serif" font-size="10.00">DataBaseJSON.writeJSON</text>
</a>
</g>
</g>
<!-- Node1&#45;&gt;Node3 -->
<g id="edge2" class="edge"><title>Node1&#45;&gt;Node3</title>
<path fill="none" stroke="midnightblue" d="M103.28,-22.6733C111.501,-21.6491 120.167,-20.5693 128.833,-19.4897"/>
<polygon fill="midnightblue" stroke="midnightblue" points="129.487,-22.9353 138.977,-18.2258 128.621,-15.989 129.487,-22.9353"/>
</g>
</g>
</svg>
