<?xml version="1.0" encoding="UTF-8" standalone="no"?>
<!DOCTYPE svg PUBLIC "-//W3C//DTD SVG 1.1//EN"
 "http://www.w3.org/Graphics/SVG/1.1/DTD/svg11.dtd">
<!-- Generated by graphviz version 2.38.0 (20140413.2041)
 -->
<!-- Title: WordQuizzle.Player.getNext Pages: 1 -->
<svg width="1088pt" height="76pt"
 viewBox="0.00 0.00 1088.00 75.50" xmlns="http://www.w3.org/2000/svg" xmlns:xlink="http://www.w3.org/1999/xlink">
<g id="graph0" class="graph" transform="scale(1 1) rotate(0) translate(4 71.5)">
<title>WordQuizzle.Player.getNext</title>
<polygon fill="white" stroke="none" points="-4,4 -4,-71.5 1084,-71.5 1084,4 -4,4"/>
<!-- Node1 -->
<g id="node1" class="node"><title>Node1</title>
<g id="a_node1"><a xlink:title=" ">
<polygon fill="#bfbfbf" stroke="black" points="940,-28 940,-47 1080,-47 1080,-28 940,-28"/>
<text text-anchor="middle" x="1010" y="-35" font-family="Helvetica,sans-Serif" font-size="10.00">WordQuizzle.Player.getNext</text>
</a>
</g>
</g>
<!-- Node2 -->
<g id="node2" class="node"><title>Node2</title>
<g id="a_node2"><a xlink:href="class_word_quizzle_1_1_challenge.html#aa7b93cfc7d1927c0b1c060cc387321b9" target="_top" xlink:title=" ">
<polygon fill="white" stroke="black" points="20.5,-48 20.5,-67 155.5,-67 155.5,-48 20.5,-48"/>
<text text-anchor="middle" x="88" y="-55" font-family="Helvetica,sans-Serif" font-size="10.00">WordQuizzle.Challenge.run</text>
</a>
</g>
</g>
<!-- Node1&#45;&gt;Node2 -->
<g id="edge1" class="edge"><title>Node1&#45;&gt;Node2</title>
<path fill="none" stroke="midnightblue" d="M929.473,-45.2622C857.684,-51.5951 749.125,-59.5 654.5,-59.5 654.5,-59.5 654.5,-59.5 461,-59.5 354.113,-59.5 229.953,-58.6641 155.526,-58.0731"/>
<polygon fill="midnightblue" stroke="midnightblue" points="930.143,-48.7163 939.792,-44.3403 929.52,-41.7441 930.143,-48.7163"/>
</g>
<!-- Node3 -->
<g id="node3" class="node"><title>Node3</title>
<g id="a_node3"><a xlink:href="class_word_quizzle_1_1_challenge.html#ad9edc220ce2d24274149ab8c6a564a0a" target="_top" xlink:title=" ">
<polygon fill="white" stroke="black" points="769,-0.5 769,-30.5 904,-30.5 904,-0.5 769,-0.5"/>
<text text-anchor="start" x="777" y="-18.5" font-family="Helvetica,sans-Serif" font-size="10.00">WordQuizzle.Challenge.set</text>
<text text-anchor="middle" x="836.5" y="-7.5" font-family="Helvetica,sans-Serif" font-size="10.00">Player2</text>
</a>
</g>
</g>
<!-- Node1&#45;&gt;Node3 -->
<g id="edge2" class="edge"><title>Node1&#45;&gt;Node3</title>
<path fill="none" stroke="midnightblue" d="M929.775,-27.337C921.235,-26.2416 912.609,-25.135 904.238,-24.0611"/>
<polygon fill="midnightblue" stroke="midnightblue" points="929.375,-30.8143 939.739,-28.6152 930.265,-23.8712 929.375,-30.8143"/>
</g>
<!-- Node4 -->
<g id="node4" class="node"><title>Node4</title>
<g id="a_node4"><a xlink:href="class_word_quizzle_1_1_word_quizzle_server_service.html#aebc8c566d10a0d24752a33f146f03a2a" target="_top" xlink:title=" ">
<polygon fill="white" stroke="black" points="574,-0.5 574,-30.5 733,-30.5 733,-0.5 574,-0.5"/>
<text text-anchor="start" x="582" y="-18.5" font-family="Helvetica,sans-Serif" font-size="10.00">WordQuizzle.WordQuizzleServer</text>
<text text-anchor="middle" x="653.5" y="-7.5" font-family="Helvetica,sans-Serif" font-size="10.00">Service.accettaSfida</text>
</a>
</g>
</g>
<!-- Node3&#45;&gt;Node4 -->
<g id="edge3" class="edge"><title>Node3&#45;&gt;Node4</title>
<path fill="none" stroke="midnightblue" d="M758.7,-15.5C750.278,-15.5 741.693,-15.5 733.247,-15.5"/>
<polygon fill="midnightblue" stroke="midnightblue" points="758.873,-19.0001 768.873,-15.5 758.873,-12.0001 758.873,-19.0001"/>
</g>
<!-- Node5 -->
<g id="node5" class="node"><title>Node5</title>
<g id="a_node5"><a xlink:href="class_word_quizzle_1_1_session.html#a21992c338367b1a3c2e57fdb7cae3018" target="_top" xlink:title=" ">
<polygon fill="white" stroke="black" points="386,-8 386,-27 538,-27 538,-8 386,-8"/>
<text text-anchor="middle" x="462" y="-15" font-family="Helvetica,sans-Serif" font-size="10.00">WordQuizzle.Session.compute</text>
</a>
</g>
</g>
<!-- Node4&#45;&gt;Node5 -->
<g id="edge4" class="edge"><title>Node4&#45;&gt;Node5</title>
<path fill="none" stroke="midnightblue" d="M563.764,-16.4365C555.191,-16.527 546.552,-16.6182 538.129,-16.7071"/>
<polygon fill="midnightblue" stroke="midnightblue" points="563.819,-19.9362 573.781,-16.3308 563.745,-12.9366 563.819,-19.9362"/>
</g>
<!-- Node6 -->
<g id="node6" class="node"><title>Node6</title>
<g id="a_node6"><a xlink:href="class_word_quizzle_1_1_session.html#a6793f02ea7cab6fffe0361893cf40178" target="_top" xlink:title=" ">
<polygon fill="white" stroke="black" points="212,-9 212,-28 350,-28 350,-9 212,-9"/>
<text text-anchor="middle" x="281" y="-16" font-family="Helvetica,sans-Serif" font-size="10.00">WordQuizzle.Session.parse</text>
</a>
</g>
</g>
<!-- Node5&#45;&gt;Node6 -->
<g id="edge5" class="edge"><title>Node5&#45;&gt;Node6</title>
<path fill="none" stroke="midnightblue" d="M375.793,-17.976C367.175,-18.0242 358.505,-18.0726 350.101,-18.1195"/>
<polygon fill="midnightblue" stroke="midnightblue" points="375.886,-21.4757 385.866,-17.9197 375.846,-14.4758 375.886,-21.4757"/>
</g>
<!-- Node6&#45;&gt;Node2 -->
<g id="edge7" class="edge"><title>Node6&#45;&gt;Node2</title>
<path fill="none" stroke="midnightblue" d="M223.242,-30.0894C195.289,-35.7969 162.005,-42.5932 135.572,-47.9905"/>
<polygon fill="midnightblue" stroke="midnightblue" points="224.179,-33.4704 233.276,-28.0405 222.778,-26.6119 224.179,-33.4704"/>
</g>
<!-- Node7 -->
<g id="node7" class="node"><title>Node7</title>
<g id="a_node7"><a xlink:href="class_word_quizzle_1_1_word_quizzle_server.html#a4aa19bad373d06a790babba1e5b67644" target="_top" xlink:title=" ">
<polygon fill="white" stroke="black" points="0,-9 0,-28 176,-28 176,-9 0,-9"/>
<text text-anchor="middle" x="88" y="-16" font-family="Helvetica,sans-Serif" font-size="10.00">WordQuizzle.WordQuizzleServer.run</text>
</a>
</g>
</g>
<!-- Node6&#45;&gt;Node7 -->
<g id="edge6" class="edge"><title>Node6&#45;&gt;Node7</title>
<path fill="none" stroke="midnightblue" d="M201.692,-18.5C193.27,-18.5 184.665,-18.5 176.149,-18.5"/>
<polygon fill="midnightblue" stroke="midnightblue" points="201.854,-22.0001 211.854,-18.5 201.853,-15.0001 201.854,-22.0001"/>
</g>
</g>
</svg>
