<?xml version="1.0" encoding="UTF-8" standalone="no"?>
<!DOCTYPE svg PUBLIC "-//W3C//DTD SVG 1.1//EN"
 "http://www.w3.org/Graphics/SVG/1.1/DTD/svg11.dtd">
<!-- Generated by graphviz version 2.38.0 (20140413.2041)
 -->
<!-- Title: Translator.translate Pages: 1 -->
<svg width="244pt" height="66pt"
 viewBox="0.00 0.00 244.00 66.00" xmlns="http://www.w3.org/2000/svg" xmlns:xlink="http://www.w3.org/1999/xlink">
<g id="graph0" class="graph" transform="scale(1 1) rotate(0) translate(4 62)">
<title>Translator.translate</title>
<polygon fill="white" stroke="none" points="-4,4 -4,-62 240,-62 240,4 -4,4"/>
<!-- Node1 -->
<g id="node1" class="node"><title>Node1</title>
<g id="a_node1"><a xlink:title="Traduce una parola dall&#39;italiano all&#39;inglese.">
<polygon fill="#bfbfbf" stroke="black" points="136,-19.5 136,-38.5 236,-38.5 236,-19.5 136,-19.5"/>
<text text-anchor="middle" x="186" y="-26.5" font-family="Helvetica,sans-Serif" font-size="10.00">Translator.translate</text>
</a>
</g>
</g>
<!-- Node2 -->
<g id="node2" class="node"><title>Node2</title>
<g id="a_node2"><a xlink:href="class_tester.html#a3d7eded60a03b56faa1711bf13abafeb" target="_top" xlink:title=" ">
<polygon fill="white" stroke="black" points="16,-38.5 16,-57.5 84,-57.5 84,-38.5 16,-38.5"/>
<text text-anchor="middle" x="50" y="-45.5" font-family="Helvetica,sans-Serif" font-size="10.00">Tester.main</text>
</a>
</g>
</g>
<!-- Node1&#45;&gt;Node2 -->
<g id="edge1" class="edge"><title>Node1&#45;&gt;Node2</title>
<path fill="none" stroke="midnightblue" d="M125.642,-37.4165C111.439,-39.4303 96.7723,-41.5099 84.2392,-43.287"/>
<polygon fill="midnightblue" stroke="midnightblue" points="126.455,-40.8363 135.864,-35.967 125.472,-33.9056 126.455,-40.8363"/>
</g>
<!-- Node3 -->
<g id="node3" class="node"><title>Node3</title>
<g id="a_node3"><a xlink:href="class_translator.html#ab1b2597be1f7a0c61fa5dc7a68cd77c5" target="_top" xlink:title="Traduce una lista di parole dall&#39;italiano all&#39;inglese.">
<polygon fill="white" stroke="black" points="0,-0.5 0,-19.5 100,-19.5 100,-0.5 0,-0.5"/>
<text text-anchor="middle" x="50" y="-7.5" font-family="Helvetica,sans-Serif" font-size="10.00">Translator.translate</text>
</a>
</g>
</g>
<!-- Node1&#45;&gt;Node3 -->
<g id="edge2" class="edge"><title>Node1&#45;&gt;Node3</title>
<path fill="none" stroke="midnightblue" d="M125.883,-20.6177C117.282,-19.3981 108.505,-18.1537 100.13,-16.9662"/>
<polygon fill="midnightblue" stroke="midnightblue" points="125.472,-24.0944 135.864,-22.033 126.455,-17.1637 125.472,-24.0944"/>
</g>
</g>
</svg>
