<?xml version="1.0" encoding="UTF-8" standalone="no"?>
<!DOCTYPE svg PUBLIC "-//W3C//DTD SVG 1.1//EN"
 "http://www.w3.org/Graphics/SVG/1.1/DTD/svg11.dtd">
<!-- Generated by graphviz version 2.38.0 (20140413.2041)
 -->
<!-- Title: WordQuizzle.Challenge.close Pages: 1 -->
<svg width="497pt" height="47pt"
 viewBox="0.00 0.00 497.00 47.00" xmlns="http://www.w3.org/2000/svg" xmlns:xlink="http://www.w3.org/1999/xlink">
<g id="graph0" class="graph" transform="scale(1 1) rotate(0) translate(4 43)">
<title>WordQuizzle.Challenge.close</title>
<polygon fill="white" stroke="none" points="-4,4 -4,-43 493,-43 493,4 -4,4"/>
<!-- Node1 -->
<g id="node1" class="node"><title>Node1</title>
<g id="a_node1"><a xlink:title="Conclude la sfida inviando ad ogni giocatore un messaggio.">
<polygon fill="#bfbfbf" stroke="black" points="344,-0.5 344,-19.5 489,-19.5 489,-0.5 344,-0.5"/>
<text text-anchor="middle" x="416.5" y="-7.5" font-family="Helvetica,sans-Serif" font-size="10.00">WordQuizzle.Challenge.close</text>
</a>
</g>
</g>
<!-- Node2 -->
<g id="node2" class="node"><title>Node2</title>
<g id="a_node2"><a xlink:href="class_word_quizzle_1_1_challenge.html#a872c3c6f72016561647d84843cbbdc48" target="_top" xlink:title="Conclude la sfida.">
<polygon fill="white" stroke="black" points="171,-19.5 171,-38.5 308,-38.5 308,-19.5 171,-19.5"/>
<text text-anchor="middle" x="239.5" y="-26.5" font-family="Helvetica,sans-Serif" font-size="10.00">WordQuizzle.Challenge.end</text>
</a>
</g>
</g>
<!-- Node1&#45;&gt;Node2 -->
<g id="edge1" class="edge"><title>Node1&#45;&gt;Node2</title>
<path fill="none" stroke="midnightblue" d="M333.786,-18.8718C325.196,-19.8044 316.532,-20.7451 308.125,-21.6578"/>
<polygon fill="midnightblue" stroke="midnightblue" points="334.252,-22.3419 343.816,-17.7828 333.496,-15.3828 334.252,-22.3419"/>
</g>
<!-- Node3 -->
<g id="node3" class="node"><title>Node3</title>
<g id="a_node3"><a xlink:href="class_word_quizzle_1_1_challenge.html#aa7b93cfc7d1927c0b1c060cc387321b9" target="_top" xlink:title="Gestisce la sfida.">
<polygon fill="white" stroke="black" points="0,-0.5 0,-19.5 135,-19.5 135,-0.5 0,-0.5"/>
<text text-anchor="middle" x="67.5" y="-7.5" font-family="Helvetica,sans-Serif" font-size="10.00">WordQuizzle.Challenge.run</text>
</a>
</g>
</g>
<!-- Node1&#45;&gt;Node3 -->
<g id="edge3" class="edge"><title>Node1&#45;&gt;Node3</title>
<path fill="none" stroke="midnightblue" d="M333.312,-10C272.774,-10 191.493,-10 135.017,-10"/>
<polygon fill="midnightblue" stroke="midnightblue" points="333.601,-13.5001 343.601,-10 333.601,-6.5001 333.601,-13.5001"/>
</g>
<!-- Node2&#45;&gt;Node3 -->
<g id="edge2" class="edge"><title>Node2&#45;&gt;Node3</title>
<path fill="none" stroke="midnightblue" d="M160.813,-20.3173C152.228,-19.3578 143.543,-18.3872 135.112,-17.4449"/>
<polygon fill="midnightblue" stroke="midnightblue" points="160.496,-23.8036 170.823,-21.4361 161.274,-16.8469 160.496,-23.8036"/>
</g>
</g>
</svg>
