<?xml version="1.0" encoding="UTF-8" standalone="no"?>
<!DOCTYPE svg PUBLIC "-//W3C//DTD SVG 1.1//EN"
 "http://www.w3.org/Graphics/SVG/1.1/DTD/svg11.dtd">
<!-- Generated by graphviz version 2.38.0 (20140413.2041)
 -->
<!-- Title: WordQuizzle.Player.isTerminated Pages: 1 -->
<svg width="506pt" height="56pt"
 viewBox="0.00 0.00 506.00 55.50" xmlns="http://www.w3.org/2000/svg" xmlns:xlink="http://www.w3.org/1999/xlink">
<g id="graph0" class="graph" transform="scale(1 1) rotate(0) translate(4 51.5)">
<title>WordQuizzle.Player.isTerminated</title>
<polygon fill="white" stroke="none" points="-4,4 -4,-51.5 502,-51.5 502,4 -4,4"/>
<!-- Node1 -->
<g id="node1" class="node"><title>Node1</title>
<g id="a_node1"><a xlink:title=" ">
<polygon fill="#bfbfbf" stroke="black" points="336,-0.5 336,-19.5 498,-19.5 498,-0.5 336,-0.5"/>
<text text-anchor="middle" x="417" y="-7.5" font-family="Helvetica,sans-Serif" font-size="10.00">WordQuizzle.Player.isTerminated</text>
</a>
</g>
</g>
<!-- Node2 -->
<g id="node2" class="node"><title>Node2</title>
<g id="a_node2"><a xlink:href="class_word_quizzle_1_1_challenge.html#a4587e95b2628810f0c66278e90a9934c" target="_top" xlink:title=" ">
<polygon fill="white" stroke="black" points="171,-17 171,-47 300,-47 300,-17 171,-17"/>
<text text-anchor="start" x="179" y="-35" font-family="Helvetica,sans-Serif" font-size="10.00">WordQuizzle.Challenge.is</text>
<text text-anchor="middle" x="235.5" y="-24" font-family="Helvetica,sans-Serif" font-size="10.00">Terminated</text>
</a>
</g>
</g>
<!-- Node1&#45;&gt;Node2 -->
<g id="edge1" class="edge"><title>Node1&#45;&gt;Node2</title>
<path fill="none" stroke="midnightblue" d="M328.371,-20.74C318.803,-21.9127 309.202,-23.0894 300.005,-24.2167"/>
<polygon fill="midnightblue" stroke="midnightblue" points="328.813,-24.2122 338.313,-19.5216 327.961,-17.2642 328.813,-24.2122"/>
</g>
<!-- Node3 -->
<g id="node3" class="node"><title>Node3</title>
<g id="a_node3"><a xlink:href="class_word_quizzle_1_1_challenge.html#aa7b93cfc7d1927c0b1c060cc387321b9" target="_top" xlink:title=" ">
<polygon fill="white" stroke="black" points="0,-0.5 0,-19.5 135,-19.5 135,-0.5 0,-0.5"/>
<text text-anchor="middle" x="67.5" y="-7.5" font-family="Helvetica,sans-Serif" font-size="10.00">WordQuizzle.Challenge.run</text>
</a>
</g>
</g>
<!-- Node1&#45;&gt;Node3 -->
<g id="edge3" class="edge"><title>Node1&#45;&gt;Node3</title>
<path fill="none" stroke="midnightblue" d="M325.653,-8.29091C316.984,-8.17246 308.324,-8.07175 300,-8 242.669,-7.5058 228.331,-7.44073 171,-8 159.432,-8.11285 147.13,-8.29733 135.213,-8.50979"/>
<polygon fill="midnightblue" stroke="midnightblue" points="325.767,-11.7928 335.816,-8.43743 325.868,-4.79354 325.767,-11.7928"/>
</g>
<!-- Node2&#45;&gt;Node3 -->
<g id="edge2" class="edge"><title>Node2&#45;&gt;Node3</title>
<path fill="none" stroke="midnightblue" d="M160.814,-22.2344C152.24,-21.0981 143.532,-19.944 135.062,-18.8215"/>
<polygon fill="midnightblue" stroke="midnightblue" points="160.422,-25.7129 170.795,-23.5571 161.341,-18.7736 160.422,-25.7129"/>
</g>
</g>
</svg>
