<?xml version="1.0" encoding="UTF-8" standalone="no"?>
<!DOCTYPE svg PUBLIC "-//W3C//DTD SVG 1.1//EN"
 "http://www.w3.org/Graphics/SVG/1.1/DTD/svg11.dtd">
<!-- Generated by graphviz version 2.38.0 (20140413.2041)
 -->
<!-- Title: WordQuizzleServerService Pages: 1 -->
<svg width="557pt" height="529pt"
 viewBox="0.00 0.00 557.00 529.00" xmlns="http://www.w3.org/2000/svg" xmlns:xlink="http://www.w3.org/1999/xlink">
<g id="graph0" class="graph" transform="scale(1 1) rotate(0) translate(4 525)">
<title>WordQuizzleServerService</title>
<polygon fill="white" stroke="none" points="-4,4 -4,-525 553,-525 553,4 -4,4"/>
<!-- Node1 -->
<g id="node1" class="node"><title>Node1</title>
<g id="a_node1"><a xlink:title="Implementa la Business Logic.">
<polygon fill="#bfbfbf" stroke="black" points="240.5,-0.5 240.5,-266.5 386.5,-266.5 386.5,-0.5 240.5,-0.5"/>
<text text-anchor="middle" x="313.5" y="-254.5" font-family="Helvetica,sans-Serif" font-size="10.00">WordQuizzleServerService</text>
<polyline fill="none" stroke="black" points="240.5,-247.5 386.5,-247.5 "/>
<text text-anchor="start" x="248.5" y="-235.5" font-family="Helvetica,sans-Serif" font-size="10.00">&#45; K</text>
<text text-anchor="start" x="248.5" y="-224.5" font-family="Helvetica,sans-Serif" font-size="10.00">&#45; T1</text>
<text text-anchor="start" x="248.5" y="-213.5" font-family="Helvetica,sans-Serif" font-size="10.00">&#45; T2</text>
<text text-anchor="start" x="248.5" y="-202.5" font-family="Helvetica,sans-Serif" font-size="10.00">&#45; X</text>
<text text-anchor="start" x="248.5" y="-191.5" font-family="Helvetica,sans-Serif" font-size="10.00">&#45; Y</text>
<text text-anchor="start" x="248.5" y="-180.5" font-family="Helvetica,sans-Serif" font-size="10.00">&#45; Z</text>
<polyline fill="none" stroke="black" points="240.5,-173.5 386.5,-173.5 "/>
<text text-anchor="start" x="248.5" y="-161.5" font-family="Helvetica,sans-Serif" font-size="10.00">+ WordQuizzleServerService()</text>
<text text-anchor="start" x="248.5" y="-150.5" font-family="Helvetica,sans-Serif" font-size="10.00">+ login()</text>
<text text-anchor="start" x="248.5" y="-139.5" font-family="Helvetica,sans-Serif" font-size="10.00">+ logout()</text>
<text text-anchor="start" x="248.5" y="-128.5" font-family="Helvetica,sans-Serif" font-size="10.00">+ aggiungi_amico()</text>
<text text-anchor="start" x="248.5" y="-117.5" font-family="Helvetica,sans-Serif" font-size="10.00">+ lista_amici()</text>
<text text-anchor="start" x="248.5" y="-106.5" font-family="Helvetica,sans-Serif" font-size="10.00">+ mostra_punteggio()</text>
<text text-anchor="start" x="248.5" y="-95.5" font-family="Helvetica,sans-Serif" font-size="10.00">+ mostra_classifica()</text>
<text text-anchor="start" x="248.5" y="-84.5" font-family="Helvetica,sans-Serif" font-size="10.00">+ sfida()</text>
<text text-anchor="start" x="248.5" y="-73.5" font-family="Helvetica,sans-Serif" font-size="10.00">+ accettaSfida()</text>
<text text-anchor="start" x="248.5" y="-62.5" font-family="Helvetica,sans-Serif" font-size="10.00">+ getK()</text>
<text text-anchor="start" x="248.5" y="-51.5" font-family="Helvetica,sans-Serif" font-size="10.00">+ getZ()</text>
<text text-anchor="start" x="248.5" y="-40.5" font-family="Helvetica,sans-Serif" font-size="10.00">+ getY()</text>
<text text-anchor="start" x="248.5" y="-29.5" font-family="Helvetica,sans-Serif" font-size="10.00">+ getX()</text>
<text text-anchor="start" x="248.5" y="-18.5" font-family="Helvetica,sans-Serif" font-size="10.00">+ getT1()</text>
<text text-anchor="start" x="248.5" y="-7.5" font-family="Helvetica,sans-Serif" font-size="10.00">+ getT2()</text>
</a>
</g>
</g>
<!-- Node2 -->
<g id="node2" class="node"><title>Node2</title>
<g id="a_node2"><a xlink:title=" ">
<polygon fill="white" stroke="#bfbfbf" points="0,-336.5 0,-393.5 89,-393.5 89,-336.5 0,-336.5"/>
<text text-anchor="middle" x="44.5" y="-381.5" font-family="Helvetica,sans-Serif" font-size="10.00">DatagramSocket</text>
<polyline fill="none" stroke="#bfbfbf" points="0,-374.5 89,-374.5 "/>
<text text-anchor="middle" x="44.5" y="-362.5" font-family="Helvetica,sans-Serif" font-size="10.00"> </text>
<polyline fill="none" stroke="#bfbfbf" points="0,-355.5 89,-355.5 "/>
<text text-anchor="middle" x="44.5" y="-343.5" font-family="Helvetica,sans-Serif" font-size="10.00"> </text>
</a>
</g>
</g>
<!-- Node2&#45;&gt;Node1 -->
<g id="edge1" class="edge"><title>Node2&#45;&gt;Node1</title>
<path fill="none" stroke="#404040" d="M73.6773,-336.476C81.6517,-329.093 90.3446,-321.172 98.5,-314 141.432,-276.247 190.279,-235.309 230.553,-202.076"/>
<polygon fill="none" stroke="#404040" points="230.805,-201.868 232.892,-194.965 240.066,-194.237 237.979,-201.139 230.805,-201.868"/>
<text text-anchor="middle" x="145.5" y="-288" font-family="Helvetica,sans-Serif" font-size="10.00"> &#45;socket</text>
</g>
<!-- Node3 -->
<g id="node3" class="node"><title>Node3</title>
<g id="a_node3"><a xlink:title=" ">
<polygon fill="white" stroke="#bfbfbf" points="107.5,-336.5 107.5,-393.5 235.5,-393.5 235.5,-336.5 107.5,-336.5"/>
<text text-anchor="middle" x="171.5" y="-381.5" font-family="Helvetica,sans-Serif" font-size="10.00">Map&lt; String, Challenge &gt;</text>
<polyline fill="none" stroke="#bfbfbf" points="107.5,-374.5 235.5,-374.5 "/>
<text text-anchor="middle" x="171.5" y="-362.5" font-family="Helvetica,sans-Serif" font-size="10.00"> </text>
<polyline fill="none" stroke="#bfbfbf" points="107.5,-355.5 235.5,-355.5 "/>
<text text-anchor="middle" x="171.5" y="-343.5" font-family="Helvetica,sans-Serif" font-size="10.00"> </text>
</a>
</g>
</g>
<!-- Node3&#45;&gt;Node1 -->
<g id="edge2" class="edge"><title>Node3&#45;&gt;Node1</title>
<path fill="none" stroke="#404040" d="M188.629,-336.317C200.355,-317.364 216.839,-290.723 233.994,-262.997"/>
<polygon fill="none" stroke="#404040" points="234.024,-262.949 233.779,-255.742 240.338,-252.745 240.582,-259.952 234.024,-262.949"/>
<text text-anchor="middle" x="244" y="-288" font-family="Helvetica,sans-Serif" font-size="10.00"> &#45;challenges</text>
</g>
<!-- Node4 -->
<g id="node4" class="node"><title>Node4</title>
<g id="a_node4"><a xlink:title=" ">
<polygon fill="white" stroke="#bfbfbf" points="227,-463.5 227,-520.5 262,-520.5 262,-463.5 227,-463.5"/>
<text text-anchor="middle" x="244.5" y="-508.5" font-family="Helvetica,sans-Serif" font-size="10.00">Map</text>
<polyline fill="none" stroke="#bfbfbf" points="227,-501.5 262,-501.5 "/>
<text text-anchor="middle" x="244.5" y="-489.5" font-family="Helvetica,sans-Serif" font-size="10.00"> </text>
<polyline fill="none" stroke="#bfbfbf" points="227,-482.5 262,-482.5 "/>
<text text-anchor="middle" x="244.5" y="-470.5" font-family="Helvetica,sans-Serif" font-size="10.00"> </text>
</a>
</g>
</g>
<!-- Node4&#45;&gt;Node3 -->
<g id="edge3" class="edge"><title>Node4&#45;&gt;Node3</title>
<path fill="none" stroke="orange" d="M218.023,-477.849C205.198,-470.08 190.809,-459.007 182.5,-445 173.386,-429.636 170.664,-409.697 170.207,-393.694"/>
<polygon fill="orange" stroke="orange" points="216.55,-481.037 226.977,-482.917 219.998,-474.945 216.55,-481.037"/>
<text text-anchor="middle" x="230.5" y="-437" font-family="Helvetica,sans-Serif" font-size="10.00"> &lt; String, Challenge &gt;</text>
</g>
<!-- Node5 -->
<g id="node5" class="node"><title>Node5</title>
<g id="a_node5"><a xlink:title=" ">
<polygon fill="white" stroke="#bfbfbf" points="253.5,-336.5 253.5,-393.5 373.5,-393.5 373.5,-336.5 253.5,-336.5"/>
<text text-anchor="middle" x="313.5" y="-381.5" font-family="Helvetica,sans-Serif" font-size="10.00">Map&lt; String, Session &gt;</text>
<polyline fill="none" stroke="#bfbfbf" points="253.5,-374.5 373.5,-374.5 "/>
<text text-anchor="middle" x="313.5" y="-362.5" font-family="Helvetica,sans-Serif" font-size="10.00"> </text>
<polyline fill="none" stroke="#bfbfbf" points="253.5,-355.5 373.5,-355.5 "/>
<text text-anchor="middle" x="313.5" y="-343.5" font-family="Helvetica,sans-Serif" font-size="10.00"> </text>
</a>
</g>
</g>
<!-- Node4&#45;&gt;Node5 -->
<g id="edge5" class="edge"><title>Node4&#45;&gt;Node5</title>
<path fill="none" stroke="orange" d="M268.863,-464.386C273.762,-458.28 278.597,-451.628 282.5,-445 291.995,-428.876 299.698,-409.308 305.051,-393.681"/>
<polygon fill="orange" stroke="orange" points="265.958,-462.404 262.225,-472.319 271.326,-466.896 265.958,-462.404"/>
<text text-anchor="middle" x="332.5" y="-437" font-family="Helvetica,sans-Serif" font-size="10.00"> &lt; String, Session &gt;</text>
</g>
<!-- Node5&#45;&gt;Node1 -->
<g id="edge4" class="edge"><title>Node5&#45;&gt;Node1</title>
<path fill="none" stroke="#404040" d="M313.5,-336.317C313.5,-321.027 313.5,-300.734 313.5,-278.904"/>
<polygon fill="none" stroke="#404040" points="313.5,-278.64 309.5,-272.64 313.5,-266.64 317.5,-272.64 313.5,-278.64"/>
<text text-anchor="middle" x="329" y="-288" font-family="Helvetica,sans-Serif" font-size="10.00"> &#45;users</text>
</g>
<!-- Node6 -->
<g id="node6" class="node"><title>Node6</title>
<g id="a_node6"><a xlink:href="interface_data_base.html" target="_top" xlink:title="Database che gestisce gli utenti.">
<polygon fill="white" stroke="black" points="391.5,-314.5 391.5,-415.5 477.5,-415.5 477.5,-314.5 391.5,-314.5"/>
<text text-anchor="middle" x="434.5" y="-403.5" font-family="Helvetica,sans-Serif" font-size="10.00">DataBase</text>
<polyline fill="none" stroke="black" points="391.5,-396.5 477.5,-396.5 "/>
<text text-anchor="middle" x="434.5" y="-384.5" font-family="Helvetica,sans-Serif" font-size="10.00"> </text>
<polyline fill="none" stroke="black" points="391.5,-377.5 477.5,-377.5 "/>
<text text-anchor="start" x="399.5" y="-365.5" font-family="Helvetica,sans-Serif" font-size="10.00">+ checkUser()</text>
<text text-anchor="start" x="399.5" y="-354.5" font-family="Helvetica,sans-Serif" font-size="10.00">+ getUser()</text>
<text text-anchor="start" x="399.5" y="-343.5" font-family="Helvetica,sans-Serif" font-size="10.00">+ newUser()</text>
<text text-anchor="start" x="399.5" y="-332.5" font-family="Helvetica,sans-Serif" font-size="10.00">+ modifyScore()</text>
<text text-anchor="start" x="399.5" y="-321.5" font-family="Helvetica,sans-Serif" font-size="10.00">+ link()</text>
</a>
</g>
</g>
<!-- Node6&#45;&gt;Node1 -->
<g id="edge6" class="edge"><title>Node6&#45;&gt;Node1</title>
<path fill="none" stroke="#404040" d="M408.394,-314.484C402.418,-303.151 395.773,-290.547 388.851,-277.418"/>
<polygon fill="none" stroke="#404040" points="388.844,-277.405 382.508,-273.963 383.248,-266.79 389.584,-270.232 388.844,-277.405"/>
<text text-anchor="middle" x="404" y="-288" font-family="Helvetica,sans-Serif" font-size="10.00"> &#45;db</text>
</g>
<!-- Node7 -->
<g id="node7" class="node"><title>Node7</title>
<g id="a_node7"><a xlink:title=" ">
<polygon fill="white" stroke="#bfbfbf" points="496,-336.5 496,-393.5 549,-393.5 549,-336.5 496,-336.5"/>
<text text-anchor="middle" x="522.5" y="-381.5" font-family="Helvetica,sans-Serif" font-size="10.00">Selector</text>
<polyline fill="none" stroke="#bfbfbf" points="496,-374.5 549,-374.5 "/>
<text text-anchor="middle" x="522.5" y="-362.5" font-family="Helvetica,sans-Serif" font-size="10.00"> </text>
<polyline fill="none" stroke="#bfbfbf" points="496,-355.5 549,-355.5 "/>
<text text-anchor="middle" x="522.5" y="-343.5" font-family="Helvetica,sans-Serif" font-size="10.00"> </text>
</a>
</g>
</g>
<!-- Node7&#45;&gt;Node1 -->
<g id="edge7" class="edge"><title>Node7&#45;&gt;Node1</title>
<path fill="none" stroke="#404040" d="M503.756,-336.48C498.391,-329.022 492.394,-321.062 486.5,-314 458.23,-280.128 425.043,-244.77 395.338,-214.48"/>
<polygon fill="none" stroke="#404040" points="395.074,-214.212 388.013,-212.746 386.651,-205.665 393.711,-207.131 395.074,-214.212"/>
<text text-anchor="middle" x="490" y="-288" font-family="Helvetica,sans-Serif" font-size="10.00"> &#45;selector</text>
</g>
</g>
</svg>
