<?xml version="1.0" encoding="UTF-8" standalone="no"?>
<!DOCTYPE svg PUBLIC "-//W3C//DTD SVG 1.1//EN"
 "http://www.w3.org/Graphics/SVG/1.1/DTD/svg11.dtd">
<!-- Generated by graphviz version 2.38.0 (20140413.2041)
 -->
<!-- Title: WordQuizzle.WordQuizzleServerService.getT2 Pages: 1 -->
<svg width="711pt" height="154pt"
 viewBox="0.00 0.00 711.00 153.50" xmlns="http://www.w3.org/2000/svg" xmlns:xlink="http://www.w3.org/1999/xlink">
<g id="graph0" class="graph" transform="scale(1 1) rotate(0) translate(4 149.5)">
<title>WordQuizzle.WordQuizzleServerService.getT2</title>
<polygon fill="white" stroke="none" points="-4,4 -4,-149.5 707,-149.5 707,4 -4,4"/>
<!-- Node1 -->
<g id="node1" class="node"><title>Node1</title>
<g id="a_node1"><a xlink:title=" ">
<polygon fill="#bfbfbf" stroke="black" points="544,-44.5 544,-74.5 703,-74.5 703,-44.5 544,-44.5"/>
<text text-anchor="start" x="552" y="-62.5" font-family="Helvetica,sans-Serif" font-size="10.00">WordQuizzle.WordQuizzleServer</text>
<text text-anchor="middle" x="623.5" y="-51.5" font-family="Helvetica,sans-Serif" font-size="10.00">Service.getT2</text>
</a>
</g>
</g>
<!-- Node2 -->
<g id="node2" class="node"><title>Node2</title>
<g id="a_node2"><a xlink:href="class_word_quizzle_1_1_w_q_cli.html#ae5f342434ec80ce1ed3939fb446de436" target="_top" xlink:title=" ">
<polygon fill="white" stroke="black" points="375,-88 375,-107 506,-107 506,-88 375,-88"/>
<text text-anchor="middle" x="440.5" y="-95" font-family="Helvetica,sans-Serif" font-size="10.00">WordQuizzle.WQCli.game</text>
</a>
</g>
</g>
<!-- Node1&#45;&gt;Node2 -->
<g id="edge1" class="edge"><title>Node1&#45;&gt;Node2</title>
<path fill="none" stroke="midnightblue" d="M540.987,-76.6133C522.356,-80.5248 503.211,-84.544 486.754,-87.9991"/>
<polygon fill="midnightblue" stroke="midnightblue" points="541.897,-79.9987 550.964,-74.5186 540.458,-73.148 541.897,-79.9987"/>
</g>
<!-- Node6 -->
<g id="node6" class="node"><title>Node6</title>
<g id="a_node6"><a xlink:href="class_word_quizzle_1_1_w_q_gui.html#a0e3cb31624c4fdda7b58977fe75de341" target="_top" xlink:title=" ">
<polygon fill="white" stroke="black" points="373,-50 373,-69 508,-69 508,-50 373,-50"/>
<text text-anchor="middle" x="440.5" y="-57" font-family="Helvetica,sans-Serif" font-size="10.00">WordQuizzle.WQGui.game</text>
</a>
</g>
</g>
<!-- Node1&#45;&gt;Node6 -->
<g id="edge6" class="edge"><title>Node1&#45;&gt;Node6</title>
<path fill="none" stroke="midnightblue" d="M533.791,-59.5C525.154,-59.5 516.496,-59.5 508.13,-59.5"/>
<polygon fill="midnightblue" stroke="midnightblue" points="533.9,-63.0001 543.9,-59.5 533.9,-56.0001 533.9,-63.0001"/>
</g>
<!-- Node8 -->
<g id="node8" class="node"><title>Node8</title>
<g id="a_node8"><a xlink:href="class_word_quizzle_1_1_challenge.html#a4587e95b2628810f0c66278e90a9934c" target="_top" xlink:title=" ">
<polygon fill="white" stroke="black" points="376,-0.5 376,-30.5 505,-30.5 505,-0.5 376,-0.5"/>
<text text-anchor="start" x="384" y="-18.5" font-family="Helvetica,sans-Serif" font-size="10.00">WordQuizzle.Challenge.is</text>
<text text-anchor="middle" x="440.5" y="-7.5" font-family="Helvetica,sans-Serif" font-size="10.00">Terminated</text>
</a>
</g>
</g>
<!-- Node1&#45;&gt;Node8 -->
<g id="edge8" class="edge"><title>Node1&#45;&gt;Node8</title>
<path fill="none" stroke="midnightblue" d="M550.571,-42.0145C534.932,-38.2127 518.519,-34.223 503.312,-30.5262"/>
<polygon fill="midnightblue" stroke="midnightblue" points="550.173,-45.5195 560.716,-44.4808 551.826,-38.7176 550.173,-45.5195"/>
</g>
<!-- Node3 -->
<g id="node3" class="node"><title>Node3</title>
<g id="a_node3"><a xlink:href="class_word_quizzle_1_1_w_q_cli.html#a7b07b55738bdd5da89a2ef645afdc020" target="_top" xlink:title=" ">
<polygon fill="white" stroke="black" points="164,-126 164,-145 337,-145 337,-126 164,-126"/>
<text text-anchor="middle" x="250.5" y="-133" font-family="Helvetica,sans-Serif" font-size="10.00">WordQuizzle.WQCli.nuovaRichiesta</text>
</a>
</g>
</g>
<!-- Node2&#45;&gt;Node3 -->
<g id="edge2" class="edge"><title>Node2&#45;&gt;Node3</title>
<path fill="none" stroke="midnightblue" d="M382.063,-109.11C355.326,-114.514 323.912,-120.864 298.599,-125.98"/>
<polygon fill="midnightblue" stroke="midnightblue" points="382.951,-112.501 392.06,-107.089 381.564,-105.64 382.951,-112.501"/>
</g>
<!-- Node5 -->
<g id="node5" class="node"><title>Node5</title>
<g id="a_node5"><a xlink:href="class_word_quizzle_1_1_w_q_cli.html#a318ef86f91a825da4ff4684bd3332a6b" target="_top" xlink:title=" ">
<polygon fill="white" stroke="black" points="185,-88 185,-107 316,-107 316,-88 185,-88"/>
<text text-anchor="middle" x="250.5" y="-95" font-family="Helvetica,sans-Serif" font-size="10.00">WordQuizzle.WQCli.parse</text>
</a>
</g>
</g>
<!-- Node2&#45;&gt;Node5 -->
<g id="edge4" class="edge"><title>Node2&#45;&gt;Node5</title>
<path fill="none" stroke="midnightblue" d="M364.46,-97.5C348.526,-97.5 331.833,-97.5 316.318,-97.5"/>
<polygon fill="midnightblue" stroke="midnightblue" points="364.801,-101 374.801,-97.5 364.801,-94.0001 364.801,-101"/>
</g>
<!-- Node4 -->
<g id="node4" class="node"><title>Node4</title>
<g id="a_node4"><a xlink:href="class_word_quizzle_1_1_w_q_cli.html#a7c2d51051cc7f1b20c57c1424d3b7727" target="_top" xlink:title=" ">
<polygon fill="white" stroke="black" points="0,-107 0,-126 128,-126 128,-107 0,-107"/>
<text text-anchor="middle" x="64" y="-114" font-family="Helvetica,sans-Serif" font-size="10.00">WordQuizzle.WQCli.main</text>
</a>
</g>
</g>
<!-- Node3&#45;&gt;Node4 -->
<g id="edge3" class="edge"><title>Node3&#45;&gt;Node4</title>
<path fill="none" stroke="midnightblue" d="M153.631,-125.627C145.028,-124.741 136.467,-123.86 128.248,-123.013"/>
<polygon fill="midnightblue" stroke="midnightblue" points="153.426,-129.125 163.732,-126.667 154.143,-122.161 153.426,-129.125"/>
</g>
<!-- Node5&#45;&gt;Node4 -->
<g id="edge5" class="edge"><title>Node5&#45;&gt;Node4</title>
<path fill="none" stroke="midnightblue" d="M174.918,-105.181C159.44,-106.774 143.273,-108.439 128.248,-109.987"/>
<polygon fill="midnightblue" stroke="midnightblue" points="175.382,-108.651 184.971,-104.145 174.665,-101.688 175.382,-108.651"/>
</g>
<!-- Node7 -->
<g id="node7" class="node"><title>Node7</title>
<g id="a_node7"><a xlink:href="class_word_quizzle_1_1_notifier.html#ad051f74dab1ae47c4453f9d094b6d0c4" target="_top" xlink:title=" ">
<polygon fill="white" stroke="black" points="189.5,-50 189.5,-69 311.5,-69 311.5,-50 189.5,-50"/>
<text text-anchor="middle" x="250.5" y="-57" font-family="Helvetica,sans-Serif" font-size="10.00">WordQuizzle.Notifier.run</text>
</a>
</g>
</g>
<!-- Node6&#45;&gt;Node7 -->
<g id="edge7" class="edge"><title>Node6&#45;&gt;Node7</title>
<path fill="none" stroke="midnightblue" d="M362.52,-59.5C345.571,-59.5 327.859,-59.5 311.687,-59.5"/>
<polygon fill="midnightblue" stroke="midnightblue" points="362.954,-63.0001 372.954,-59.5 362.954,-56.0001 362.954,-63.0001"/>
</g>
<!-- Node9 -->
<g id="node9" class="node"><title>Node9</title>
<g id="a_node9"><a xlink:href="class_word_quizzle_1_1_challenge.html#aa7b93cfc7d1927c0b1c060cc387321b9" target="_top" xlink:title=" ">
<polygon fill="white" stroke="black" points="183,-6 183,-25 318,-25 318,-6 183,-6"/>
<text text-anchor="middle" x="250.5" y="-13" font-family="Helvetica,sans-Serif" font-size="10.00">WordQuizzle.Challenge.run</text>
</a>
</g>
</g>
<!-- Node8&#45;&gt;Node9 -->
<g id="edge9" class="edge"><title>Node8&#45;&gt;Node9</title>
<path fill="none" stroke="midnightblue" d="M365.709,-15.5C350.073,-15.5 333.653,-15.5 318.295,-15.5"/>
<polygon fill="midnightblue" stroke="midnightblue" points="365.852,-19.0001 375.852,-15.5 365.852,-12.0001 365.852,-19.0001"/>
</g>
</g>
</svg>
