<?xml version="1.0" encoding="UTF-8" standalone="no"?>
<!DOCTYPE svg PUBLIC "-//W3C//DTD SVG 1.1//EN"
 "http://www.w3.org/Graphics/SVG/1.1/DTD/svg11.dtd">
<!-- Generated by graphviz version 2.38.0 (20140413.2041)
 -->
<!-- Title: WordQuizzle.Challenge.Challenge Pages: 1 -->
<svg width="367pt" height="88pt"
 viewBox="0.00 0.00 367.00 88.00" xmlns="http://www.w3.org/2000/svg" xmlns:xlink="http://www.w3.org/1999/xlink">
<g id="graph0" class="graph" transform="scale(1 1) rotate(0) translate(4 84)">
<title>WordQuizzle.Challenge.Challenge</title>
<polygon fill="white" stroke="none" points="-4,4 -4,-84 363,-84 363,4 -4,4"/>
<!-- Node1 -->
<g id="node1" class="node"><title>Node1</title>
<g id="a_node1"><a xlink:title="Crea una nuova sfida.">
<polygon fill="#bfbfbf" stroke="black" points="0,-30 0,-49 164,-49 164,-30 0,-30"/>
<text text-anchor="middle" x="82" y="-37" font-family="Helvetica,sans-Serif" font-size="10.00">WordQuizzle.Challenge.Challenge</text>
</a>
</g>
</g>
<!-- Node2 -->
<g id="node2" class="node"><title>Node2</title>
<g id="a_node2"><a xlink:href="class_word_quizzle_1_1_word_quizzle_server_service.html#a970fe0e2dd7457bab2c64ae722a912fc" target="_top" xlink:title=" ">
<polygon fill="white" stroke="black" points="200,-49.5 200,-79.5 359,-79.5 359,-49.5 200,-49.5"/>
<text text-anchor="start" x="208" y="-67.5" font-family="Helvetica,sans-Serif" font-size="10.00">WordQuizzle.WordQuizzleServer</text>
<text text-anchor="middle" x="279.5" y="-56.5" font-family="Helvetica,sans-Serif" font-size="10.00">Service.getK</text>
</a>
</g>
</g>
<!-- Node1&#45;&gt;Node2 -->
<g id="edge1" class="edge"><title>Node1&#45;&gt;Node2</title>
<path fill="none" stroke="midnightblue" d="M157.468,-49.0227C167.935,-50.3612 178.78,-51.7481 189.484,-53.1169"/>
<polygon fill="midnightblue" stroke="midnightblue" points="189.324,-56.6248 199.687,-54.4216 190.212,-49.6814 189.324,-56.6248"/>
</g>
<!-- Node3 -->
<g id="node3" class="node"><title>Node3</title>
<g id="a_node3"><a xlink:href="class_word_quizzle_1_1_dictionary_txt.html#aadbe2c8d9416b2f9f57c7301abd1a9a0" target="_top" xlink:title="Restituisce una lista di k parole a caso dal dizionario.">
<polygon fill="white" stroke="black" points="205,-0.5 205,-30.5 354,-30.5 354,-0.5 205,-0.5"/>
<text text-anchor="start" x="213" y="-18.5" font-family="Helvetica,sans-Serif" font-size="10.00">WordQuizzle.DictionaryTxt.get</text>
<text text-anchor="middle" x="279.5" y="-7.5" font-family="Helvetica,sans-Serif" font-size="10.00">Words</text>
</a>
</g>
</g>
<!-- Node1&#45;&gt;Node3 -->
<g id="edge2" class="edge"><title>Node1&#45;&gt;Node3</title>
<path fill="none" stroke="midnightblue" d="M160.548,-29.9801C171.844,-28.5934 183.516,-27.1604 194.925,-25.7598"/>
<polygon fill="midnightblue" stroke="midnightblue" points="195.369,-29.2317 204.868,-24.5392 194.516,-22.2839 195.369,-29.2317"/>
</g>
</g>
</svg>
