<?xml version="1.0" encoding="UTF-8" standalone="no"?>
<!DOCTYPE svg PUBLIC "-//W3C//DTD SVG 1.1//EN"
 "http://www.w3.org/Graphics/SVG/1.1/DTD/svg11.dtd">
<!-- Generated by graphviz version 2.38.0 (20140413.2041)
 -->
<!-- Title: WordQuizzle.WordQuizzleClientService.mostra_punteggio Pages: 1 -->
<svg width="551pt" height="88pt"
 viewBox="0.00 0.00 551.00 88.00" xmlns="http://www.w3.org/2000/svg" xmlns:xlink="http://www.w3.org/1999/xlink">
<g id="graph0" class="graph" transform="scale(1 1) rotate(0) translate(4 84)">
<title>WordQuizzle.WordQuizzleClientService.mostra_punteggio</title>
<polygon fill="white" stroke="none" points="-4,4 -4,-84 547,-84 547,4 -4,4"/>
<!-- Node1 -->
<g id="node1" class="node"><title>Node1</title>
<g id="a_node1"><a xlink:title=" ">
<polygon fill="#bfbfbf" stroke="black" points="0,-24.5 0,-54.5 157,-54.5 157,-24.5 0,-24.5"/>
<text text-anchor="start" x="8" y="-42.5" font-family="Helvetica,sans-Serif" font-size="10.00">WordQuizzle.WordQuizzleClient</text>
<text text-anchor="middle" x="78.5" y="-31.5" font-family="Helvetica,sans-Serif" font-size="10.00">Service.mostra_punteggio</text>
</a>
</g>
</g>
<!-- Node2 -->
<g id="node2" class="node"><title>Node2</title>
<g id="a_node2"><a xlink:href="class_word_quizzle_1_1_word_quizzle_client_service.html#a0ed33ad0199840ae1847c4ecbc992ce2" target="_top" xlink:title=" ">
<polygon fill="white" stroke="black" points="193,-24.5 193,-54.5 350,-54.5 350,-24.5 193,-24.5"/>
<text text-anchor="start" x="201" y="-42.5" font-family="Helvetica,sans-Serif" font-size="10.00">WordQuizzle.WordQuizzleClient</text>
<text text-anchor="middle" x="271.5" y="-31.5" font-family="Helvetica,sans-Serif" font-size="10.00">Service.send</text>
</a>
</g>
</g>
<!-- Node1&#45;&gt;Node2 -->
<g id="edge1" class="edge"><title>Node1&#45;&gt;Node2</title>
<path fill="none" stroke="midnightblue" d="M157.187,-39.5C165.65,-39.5 174.306,-39.5 182.876,-39.5"/>
<polygon fill="midnightblue" stroke="midnightblue" points="182.882,-43.0001 192.882,-39.5 182.882,-36.0001 182.882,-43.0001"/>
</g>
<!-- Node3 -->
<g id="node3" class="node"><title>Node3</title>
<g id="a_node3"><a xlink:href="class_word_quizzle_1_1_word_quizzle_client_service.html#a59c8bdbde7768c2b478d51f4f13f7afb" target="_top" xlink:title=" ">
<polygon fill="white" stroke="black" points="386,-49.5 386,-79.5 543,-79.5 543,-49.5 386,-49.5"/>
<text text-anchor="start" x="394" y="-67.5" font-family="Helvetica,sans-Serif" font-size="10.00">WordQuizzle.WordQuizzleClient</text>
<text text-anchor="middle" x="464.5" y="-56.5" font-family="Helvetica,sans-Serif" font-size="10.00">Service.read</text>
</a>
</g>
</g>
<!-- Node2&#45;&gt;Node3 -->
<g id="edge2" class="edge"><title>Node2&#45;&gt;Node3</title>
<path fill="none" stroke="midnightblue" d="M350.187,-49.6685C358.65,-50.7761 367.306,-51.9091 375.876,-53.0309"/>
<polygon fill="midnightblue" stroke="midnightblue" points="375.512,-56.513 385.882,-54.3406 376.421,-49.5722 375.512,-56.513"/>
</g>
<!-- Node4 -->
<g id="node4" class="node"><title>Node4</title>
<g id="a_node4"><a xlink:href="class_word_quizzle_1_1_word_quizzle_client_service.html#a25566e1d25884c6c0dbb5aab0c1b52fd" target="_top" xlink:title=" ">
<polygon fill="white" stroke="black" points="386,-0.5 386,-30.5 543,-30.5 543,-0.5 386,-0.5"/>
<text text-anchor="start" x="394" y="-18.5" font-family="Helvetica,sans-Serif" font-size="10.00">WordQuizzle.WordQuizzleClient</text>
<text text-anchor="middle" x="464.5" y="-7.5" font-family="Helvetica,sans-Serif" font-size="10.00">Service.write</text>
</a>
</g>
</g>
<!-- Node2&#45;&gt;Node4 -->
<g id="edge3" class="edge"><title>Node2&#45;&gt;Node4</title>
<path fill="none" stroke="midnightblue" d="M350.187,-29.7383C358.65,-28.6749 367.306,-27.5873 375.876,-26.5103"/>
<polygon fill="midnightblue" stroke="midnightblue" points="376.396,-29.9726 385.882,-25.2531 375.523,-23.0272 376.396,-29.9726"/>
</g>
</g>
</svg>
