<?xml version="1.0" encoding="UTF-8" standalone="no"?>
<!DOCTYPE svg PUBLIC "-//W3C//DTD SVG 1.1//EN"
 "http://www.w3.org/Graphics/SVG/1.1/DTD/svg11.dtd">
<!-- Generated by graphviz version 2.38.0 (20140413.2041)
 -->
<!-- Title: Tester.main Pages: 1 -->
<svg width="231pt" height="66pt"
 viewBox="0.00 0.00 231.00 66.00" xmlns="http://www.w3.org/2000/svg" xmlns:xlink="http://www.w3.org/1999/xlink">
<g id="graph0" class="graph" transform="scale(1 1) rotate(0) translate(4 62)">
<title>Tester.main</title>
<polygon fill="white" stroke="none" points="-4,4 -4,-62 227,-62 227,4 -4,4"/>
<!-- Node1 -->
<g id="node1" class="node"><title>Node1</title>
<g id="a_node1"><a xlink:title=" ">
<polygon fill="#bfbfbf" stroke="black" points="0,-19.5 0,-38.5 68,-38.5 68,-19.5 0,-19.5"/>
<text text-anchor="middle" x="34" y="-26.5" font-family="Helvetica,sans-Serif" font-size="10.00">Tester.main</text>
</a>
</g>
</g>
<!-- Node2 -->
<g id="node2" class="node"><title>Node2</title>
<g id="a_node2"><a xlink:href="class_dictionary_txt.html#aa27ccdbfd57dd84c8f59bcf19c296da9" target="_top" xlink:title="Restituisce una lista di k parole a caso dal dizionario.">
<polygon fill="white" stroke="black" points="104,-38.5 104,-57.5 223,-57.5 223,-38.5 104,-38.5"/>
<text text-anchor="middle" x="163.5" y="-45.5" font-family="Helvetica,sans-Serif" font-size="10.00">DictionaryTxt.getWords</text>
</a>
</g>
</g>
<!-- Node1&#45;&gt;Node2 -->
<g id="edge1" class="edge"><title>Node1&#45;&gt;Node2</title>
<path fill="none" stroke="midnightblue" d="M68.1663,-33.9424C76.1004,-35.1248 84.8629,-36.4305 93.7557,-37.7558"/>
<polygon fill="midnightblue" stroke="midnightblue" points="93.4076,-41.2424 103.814,-39.2547 94.4394,-34.3189 93.4076,-41.2424"/>
</g>
<!-- Node3 -->
<g id="node3" class="node"><title>Node3</title>
<g id="a_node3"><a xlink:href="class_translator.html#a6cea5cd0c296abbbc46a7912ee8a61e3" target="_top" xlink:title="Traduce una parola dall&#39;italiano all&#39;inglese.">
<polygon fill="white" stroke="black" points="113.5,-0.5 113.5,-19.5 213.5,-19.5 213.5,-0.5 113.5,-0.5"/>
<text text-anchor="middle" x="163.5" y="-7.5" font-family="Helvetica,sans-Serif" font-size="10.00">Translator.translate</text>
</a>
</g>
</g>
<!-- Node1&#45;&gt;Node3 -->
<g id="edge2" class="edge"><title>Node1&#45;&gt;Node3</title>
<path fill="none" stroke="midnightblue" d="M68.1663,-24.0576C78.8881,-22.4598 91.1225,-20.6366 103.147,-18.8447"/>
<polygon fill="midnightblue" stroke="midnightblue" points="103.786,-22.2883 113.161,-17.3525 102.754,-15.3647 103.786,-22.2883"/>
</g>
</g>
</svg>
