<?xml version="1.0" encoding="UTF-8" standalone="no"?>
<!DOCTYPE svg PUBLIC "-//W3C//DTD SVG 1.1//EN"
 "http://www.w3.org/Graphics/SVG/1.1/DTD/svg11.dtd">
<!-- Generated by graphviz version 2.38.0 (20140413.2041)
 -->
<!-- Title: WordQuizzle.Session.getClient Pages: 1 -->
<!--zoomable 184 -->
<svg id="main" version="1.1" xmlns="http://www.w3.org/2000/svg" xmlns:xlink="http://www.w3.org/1999/xlink" xml:space="preserve" onload="init(evt)">
<style type="text/css"><![CDATA[
.edge:hover path { stroke: red; }
.edge:hover polygon { stroke: red; fill: red; }
]]></style>
<script type="text/javascript"><![CDATA[
var edges = document.getElementsByTagName('g');
if (edges && edges.length) {
  for (var i=0;i<edges.length;i++) {
    if (edges[i].id.substr(0,4)=='edge') {
      edges[i].setAttribute('class','edge');
    }
  }
}
]]></script>
        <defs>
                <circle id="rim" cx="0" cy="0" r="7"/>
                <circle id="rim2" cx="0" cy="0" r="3.5"/>
                <g id="zoomPlus">
                        <use xlink:href="#rim" fill="#404040">
                                <set attributeName="fill" to="#808080" begin="zoomplus.mouseover" end="zoomplus.mouseout"/>
                        </use>
                        <path d="M-4,0h8M0,-4v8" fill="none" stroke="white" stroke-width="1.5" pointer-events="none"/>
                </g>
                <g id="zoomMin">
                        <use xlink:href="#rim" fill="#404040">
                                <set attributeName="fill" to="#808080" begin="zoomminus.mouseover" end="zoomminus.mouseout"/>
                        </use>
                        <path d="M-4,0h8" fill="none" stroke="white" stroke-width="1.5" pointer-events="none"/>
                </g>
                <g id="dirArrow">
                        <path fill="none" stroke="white" stroke-width="1.5" d="M0,-3.0v7 M-2.5,-0.5L0,-3.0L2.5,-0.5"/>
                </g>
               <g id="resetDef">
                       <use xlink:href="#rim2" fill="#404040">
                               <set attributeName="fill" to="#808080" begin="reset.mouseover" end="reset.mouseout"/>
                       </use>
               </g>
        </defs>

<script type="text/javascript">
var viewWidth = 1100;
var viewHeight = 184;
var sectionId = 'dynsection-4';
</script>
<script xlink:href="svgpan.js"/>
<svg id="graph" class="graph">
<g id="viewport">
<title>WordQuizzle.Session.getClient</title>
<polygon fill="white" stroke="none" points="-4,4 -4,-179.812 1096,-179.812 1096,4 -4,4"/>
<!-- Node1 -->
<g id="node1" class="node"><title>Node1</title>
<g id="a_node1"><a xlink:title="Restituisce la socket del client.">
<polygon fill="#bfbfbf" stroke="black" points="940,-58.312 940,-77.312 1092,-77.312 1092,-58.312 940,-58.312"/>
<text text-anchor="middle" x="1016" y="-65.312" font-family="Helvetica,sans-Serif" font-size="10.00">WordQuizzle.Session.getClient</text>
</a>
</g>
</g>
<!-- Node2 -->
<g id="node2" class="node"><title>Node2</title>
<g id="a_node2"><a xlink:href="class_word_quizzle_1_1_challenge.html#a7337a23fcf011c4ea66eb6801d283d49" target="_top" xlink:title="Conclude la sfida inviando ad ogni giocatore un messaggio.">
<polygon fill="white" stroke="black" points="389.5,-118.312 389.5,-137.312 534.5,-137.312 534.5,-118.312 389.5,-118.312"/>
<text text-anchor="middle" x="462" y="-125.312" font-family="Helvetica,sans-Serif" font-size="10.00">WordQuizzle.Challenge.close</text>
</a>
</g>
</g>
<!-- Node1&#45;&gt;Node2 -->
<g id="edge1" class="edge"><title>Node1&#45;&gt;Node2</title>
<path fill="none" stroke="midnightblue" d="M982.205,-80.9328C960.408,-89.0299 930.944,-98.7977 904,-103.812 775.474,-127.731 622.532,-130.435 534.707,-129.573"/>
<polygon fill="midnightblue" stroke="midnightblue" points="983.535,-84.1718 991.643,-77.3531 981.052,-77.6267 983.535,-84.1718"/>
</g>
<!-- Node4 -->
<g id="node4" class="node"><title>Node4</title>
<g id="a_node4"><a xlink:href="class_word_quizzle_1_1_challenge.html#aa7b93cfc7d1927c0b1c060cc387321b9" target="_top" xlink:title="Gestisce la sfida.">
<polygon fill="white" stroke="black" points="20.5,-99.312 20.5,-118.312 155.5,-118.312 155.5,-99.312 20.5,-99.312"/>
<text text-anchor="middle" x="88" y="-106.312" font-family="Helvetica,sans-Serif" font-size="10.00">WordQuizzle.Challenge.run</text>
</a>
</g>
</g>
<!-- Node1&#45;&gt;Node4 -->
<g id="edge6" class="edge"><title>Node1&#45;&gt;Node4</title>
<path fill="none" stroke="midnightblue" d="M929.759,-75.9509C856.767,-82.2161 748.821,-89.812 654.5,-89.812 654.5,-89.812 654.5,-89.812 461,-89.812 354.137,-89.812 230.231,-97.7289 155.812,-103.342"/>
<polygon fill="midnightblue" stroke="midnightblue" points="930.162,-79.4291 939.821,-75.0766 929.556,-72.4554 930.162,-79.4291"/>
</g>
<!-- Node5 -->
<g id="node5" class="node"><title>Node5</title>
<g id="a_node5"><a xlink:href="class_word_quizzle_1_1_word_quizzle_server.html#a4aa19bad373d06a790babba1e5b67644" target="_top" xlink:title="Gestisce le interazioni con i client.">
<polygon fill="white" stroke="black" points="0,-14.312 0,-33.312 176,-33.312 176,-14.312 0,-14.312"/>
<text text-anchor="middle" x="88" y="-21.312" font-family="Helvetica,sans-Serif" font-size="10.00">WordQuizzle.WordQuizzleServer.run</text>
</a>
</g>
</g>
<!-- Node1&#45;&gt;Node5 -->
<g id="edge5" class="edge"><title>Node1&#45;&gt;Node5</title>
<path fill="none" stroke="midnightblue" d="M988.51,-53.6973C966.531,-42.7056 934.115,-28.1264 904,-20.812 795.932,5.43599 765.71,-1.812 654.5,-1.812 654.5,-1.812 654.5,-1.812 461,-1.812 363.309,-1.812 251.438,-9.46614 176.104,-15.7449"/>
<polygon fill="midnightblue" stroke="midnightblue" points="987.042,-56.8776 997.541,-58.3061 990.225,-50.6427 987.042,-56.8776"/>
</g>
<!-- Node6 -->
<g id="node6" class="node"><title>Node6</title>
<g id="a_node6"><a xlink:href="class_word_quizzle_1_1_challenge.html#ad9edc220ce2d24274149ab8c6a564a0a" target="_top" xlink:title="Aggiunge l&#39;utente sfidato alla sfida e la avvia.">
<polygon fill="white" stroke="black" points="769,-30.812 769,-60.812 904,-60.812 904,-30.812 769,-30.812"/>
<text text-anchor="start" x="777" y="-48.812" font-family="Helvetica,sans-Serif" font-size="10.00">WordQuizzle.Challenge.set</text>
<text text-anchor="middle" x="836.5" y="-37.812" font-family="Helvetica,sans-Serif" font-size="10.00">Player2</text>
</a>
</g>
</g>
<!-- Node1&#45;&gt;Node6 -->
<g id="edge7" class="edge"><title>Node1&#45;&gt;Node6</title>
<path fill="none" stroke="midnightblue" d="M929.862,-57.2596C921.207,-56.1869 912.506,-55.1085 904.089,-54.0652"/>
<polygon fill="midnightblue" stroke="midnightblue" points="929.627,-60.7572 939.981,-58.5139 930.488,-53.8104 929.627,-60.7572"/>
</g>
<!-- Node3 -->
<g id="node3" class="node"><title>Node3</title>
<g id="a_node3"><a xlink:href="class_word_quizzle_1_1_challenge.html#a872c3c6f72016561647d84843cbbdc48" target="_top" xlink:title="Conclude la sfida.">
<polygon fill="white" stroke="black" points="212.5,-156.312 212.5,-175.312 349.5,-175.312 349.5,-156.312 212.5,-156.312"/>
<text text-anchor="middle" x="281" y="-163.312" font-family="Helvetica,sans-Serif" font-size="10.00">WordQuizzle.Challenge.end</text>
</a>
</g>
</g>
<!-- Node2&#45;&gt;Node3 -->
<g id="edge2" class="edge"><title>Node2&#45;&gt;Node3</title>
<path fill="none" stroke="midnightblue" d="M405.976,-139.493C380.592,-144.882 350.839,-151.198 326.844,-156.292"/>
<polygon fill="midnightblue" stroke="midnightblue" points="406.776,-142.901 415.831,-137.401 405.322,-136.054 406.776,-142.901"/>
</g>
<!-- Node2&#45;&gt;Node4 -->
<g id="edge4" class="edge"><title>Node2&#45;&gt;Node4</title>
<path fill="none" stroke="midnightblue" d="M379.151,-123.632C311.99,-120.201 218.096,-115.406 155.506,-112.209"/>
<polygon fill="midnightblue" stroke="midnightblue" points="379.109,-127.134 389.275,-124.149 379.466,-120.143 379.109,-127.134"/>
</g>
<!-- Node3&#45;&gt;Node4 -->
<g id="edge3" class="edge"><title>Node3&#45;&gt;Node4</title>
<path fill="none" stroke="midnightblue" d="M238.047,-153.292C202.809,-142.776 153.201,-127.971 121.073,-118.384"/>
<polygon fill="midnightblue" stroke="midnightblue" points="237.448,-156.766 248.031,-156.271 239.449,-150.058 237.448,-156.766"/>
</g>
<!-- Node7 -->
<g id="node7" class="node"><title>Node7</title>
<g id="a_node7"><a xlink:href="class_word_quizzle_1_1_word_quizzle_server_service.html#aebc8c566d10a0d24752a33f146f03a2a" target="_top" xlink:title=" ">
<polygon fill="white" stroke="black" points="574,-30.812 574,-60.812 733,-60.812 733,-30.812 574,-30.812"/>
<text text-anchor="start" x="582" y="-48.812" font-family="Helvetica,sans-Serif" font-size="10.00">WordQuizzle.WordQuizzleServer</text>
<text text-anchor="middle" x="653.5" y="-37.812" font-family="Helvetica,sans-Serif" font-size="10.00">Service.accettaSfida</text>
</a>
</g>
</g>
<!-- Node6&#45;&gt;Node7 -->
<g id="edge8" class="edge"><title>Node6&#45;&gt;Node7</title>
<path fill="none" stroke="midnightblue" d="M758.7,-45.812C750.278,-45.812 741.693,-45.812 733.247,-45.812"/>
<polygon fill="midnightblue" stroke="midnightblue" points="758.873,-49.3121 768.873,-45.812 758.873,-42.3121 758.873,-49.3121"/>
</g>
<!-- Node8 -->
<g id="node8" class="node"><title>Node8</title>
<g id="a_node8"><a xlink:href="class_word_quizzle_1_1_session.html#a21992c338367b1a3c2e57fdb7cae3018" target="_top" xlink:title="Gestisce effettivamente la richiesta del client.">
<polygon fill="white" stroke="black" points="386,-36.312 386,-55.312 538,-55.312 538,-36.312 386,-36.312"/>
<text text-anchor="middle" x="462" y="-43.312" font-family="Helvetica,sans-Serif" font-size="10.00">WordQuizzle.Session.compute</text>
</a>
</g>
</g>
<!-- Node7&#45;&gt;Node8 -->
<g id="edge9" class="edge"><title>Node7&#45;&gt;Node8</title>
<path fill="none" stroke="midnightblue" d="M563.764,-45.812C555.191,-45.812 546.552,-45.812 538.129,-45.812"/>
<polygon fill="midnightblue" stroke="midnightblue" points="563.781,-49.3121 573.781,-45.812 563.781,-42.3121 563.781,-49.3121"/>
</g>
<!-- Node9 -->
<g id="node9" class="node"><title>Node9</title>
<g id="a_node9"><a xlink:href="class_word_quizzle_1_1_session.html#a6793f02ea7cab6fffe0361893cf40178" target="_top" xlink:title="Riceve una stringa contenente uan richiesta da parte del client e la gestisce.">
<polygon fill="white" stroke="black" points="212,-36.312 212,-55.312 350,-55.312 350,-36.312 212,-36.312"/>
<text text-anchor="middle" x="281" y="-43.312" font-family="Helvetica,sans-Serif" font-size="10.00">WordQuizzle.Session.parse</text>
</a>
</g>
</g>
<!-- Node8&#45;&gt;Node9 -->
<g id="edge10" class="edge"><title>Node8&#45;&gt;Node9</title>
<path fill="none" stroke="midnightblue" d="M375.793,-45.812C367.175,-45.812 358.505,-45.812 350.101,-45.812"/>
<polygon fill="midnightblue" stroke="midnightblue" points="375.866,-49.3121 385.866,-45.812 375.866,-42.3121 375.866,-49.3121"/>
</g>
<!-- Node9&#45;&gt;Node4 -->
<g id="edge12" class="edge"><title>Node9&#45;&gt;Node4</title>
<path fill="none" stroke="midnightblue" d="M241.186,-58.6145C204.682,-70.655 150.861,-88.4077 117.968,-99.257"/>
<polygon fill="midnightblue" stroke="midnightblue" points="242.591,-61.8367 250.991,-55.3803 240.398,-55.189 242.591,-61.8367"/>
</g>
<!-- Node9&#45;&gt;Node5 -->
<g id="edge11" class="edge"><title>Node9&#45;&gt;Node5</title>
<path fill="none" stroke="midnightblue" d="M201.614,-36.7833C191.682,-35.6393 181.495,-34.4658 171.501,-33.3147"/>
<polygon fill="midnightblue" stroke="midnightblue" points="201.519,-40.2953 211.854,-37.9627 202.32,-33.3413 201.519,-40.2953"/>
</g>
</g>
</svg>
        <g id="navigator" transform="translate(0 0)" fill="#404254">
                <rect fill="#f2f5e9" fill-opacity="0.5" stroke="#606060" stroke-width=".5" x="0" y="0" width="60" height="60"/>
                <use id="zoomplus" xlink:href="#zoomPlus" x="17" y="9" onmousedown="handleZoom(evt,'in')"/>
                <use id="zoomminus" xlink:href="#zoomMin" x="42" y="9" onmousedown="handleZoom(evt,'out')"/>
                <use id="reset" xlink:href="#resetDef" x="30" y="36" onmousedown="handleReset()"/>
                <g id="arrowUp" xlink:href="#dirArrow" transform="translate(30 24)" onmousedown="handlePan(0,-1)">
                  <use xlink:href="#rim" fill="#404040">
                        <set attributeName="fill" to="#808080" begin="arrowUp.mouseover" end="arrowUp.mouseout"/>
                  </use>
                  <path fill="none" stroke="white" stroke-width="1.5" d="M0,-3.0v7 M-2.5,-0.5L0,-3.0L2.5,-0.5"/>
                </g>
                <g id="arrowRight" xlink:href="#dirArrow" transform="rotate(90) translate(36 -43)" onmousedown="handlePan(1,0)">
                  <use xlink:href="#rim" fill="#404040">
                        <set attributeName="fill" to="#808080" begin="arrowRight.mouseover" end="arrowRight.mouseout"/>
                  </use>
                  <path fill="none" stroke="white" stroke-width="1.5" d="M0,-3.0v7 M-2.5,-0.5L0,-3.0L2.5,-0.5"/>
                </g>
                <g id="arrowDown" xlink:href="#dirArrow" transform="rotate(180) translate(-30 -48)" onmousedown="handlePan(0,1)">
                  <use xlink:href="#rim" fill="#404040">
                        <set attributeName="fill" to="#808080" begin="arrowDown.mouseover" end="arrowDown.mouseout"/>
                  </use>
                  <path fill="none" stroke="white" stroke-width="1.5" d="M0,-3.0v7 M-2.5,-0.5L0,-3.0L2.5,-0.5"/>
                </g>
                <g id="arrowLeft" xlink:href="#dirArrow" transform="rotate(270) translate(-36 17)" onmousedown="handlePan(-1,0)">
                  <use xlink:href="#rim" fill="#404040">
                        <set attributeName="fill" to="#808080" begin="arrowLeft.mouseover" end="arrowLeft.mouseout"/>
                  </use>
                  <path fill="none" stroke="white" stroke-width="1.5" d="M0,-3.0v7 M-2.5,-0.5L0,-3.0L2.5,-0.5"/>
                </g>
        </g>
        <svg viewBox="0 0 15 15" width="100%" height="30px" preserveAspectRatio="xMaxYMin meet">
         <g id="arrow_out" transform="scale(0.3 0.3)">
          <a xlink:href="class_word_quizzle_1_1_session_ac7d5ff28ffd9355eea98b9f66c3c19cd_icgraph_org.svg" target="_base">
           <rect id="button" ry="5" rx="5" y="6" x="6" height="38" width="38"
                fill="#f2f5e9" fill-opacity="0.5" stroke="#606060" stroke-width="1.0"/>
           <path id="arrow"
             d="M 11.500037,31.436501 C 11.940474,20.09759 22.043105,11.32322 32.158766,21.979434 L 37.068811,17.246167 C 37.068811,17.246167 37.088388,32 37.088388,32 L 22.160133,31.978069 C 22.160133,31.978069 26.997745,27.140456 26.997745,27.140456 C 18.528582,18.264221 13.291696,25.230495 11.500037,31.436501 z"
             style="fill:#404040;"/>
          </a>
         </g>
        </svg>
</svg>
