<?xml version="1.0" encoding="UTF-8" standalone="no"?>
<!DOCTYPE svg PUBLIC "-//W3C//DTD SVG 1.1//EN"
 "http://www.w3.org/Graphics/SVG/1.1/DTD/svg11.dtd">
<!-- Generated by graphviz version 2.38.0 (20140413.2041)
 -->
<!-- Title: WordQuizzle.WQCli.nuovaRichiesta Pages: 1 -->
<svg width="868pt" height="186pt"
 viewBox="0.00 0.00 868.00 186.00" xmlns="http://www.w3.org/2000/svg" xmlns:xlink="http://www.w3.org/1999/xlink">
<g id="graph0" class="graph" transform="scale(1 1) rotate(0) translate(4 182)">
<title>WordQuizzle.WQCli.nuovaRichiesta</title>
<polygon fill="white" stroke="none" points="-4,4 -4,-182 864,-182 864,4 -4,4"/>
<!-- Node1 -->
<g id="node1" class="node"><title>Node1</title>
<g id="a_node1"><a xlink:title="Gestisce una richiesta di sfida.">
<polygon fill="#bfbfbf" stroke="black" points="0,-68 0,-87 173,-87 173,-68 0,-68"/>
<text text-anchor="middle" x="86.5" y="-75" font-family="Helvetica,sans-Serif" font-size="10.00">WordQuizzle.WQCli.nuovaRichiesta</text>
</a>
</g>
</g>
<!-- Node2 -->
<g id="node2" class="node"><title>Node2</title>
<g id="a_node2"><a xlink:href="class_word_quizzle_1_1_word_quizzle_client.html#a540dfbf20ba0d5a8118e6d9284b79bc0" target="_top" xlink:title="Accetta una richiesta di sfida inviata da nickAmico.">
<polygon fill="white" stroke="black" points="209,-133.5 209,-163.5 401,-163.5 401,-133.5 209,-133.5"/>
<text text-anchor="start" x="217" y="-151.5" font-family="Helvetica,sans-Serif" font-size="10.00">WordQuizzle.WordQuizzleClient.accetta</text>
<text text-anchor="middle" x="305" y="-140.5" font-family="Helvetica,sans-Serif" font-size="10.00">Sfida</text>
</a>
</g>
</g>
<!-- Node1&#45;&gt;Node2 -->
<g id="edge1" class="edge"><title>Node1&#45;&gt;Node2</title>
<path fill="none" stroke="midnightblue" d="M116.698,-87.0754C150.321,-98.1018 206.317,-116.465 248.342,-130.247"/>
<polygon fill="midnightblue" stroke="midnightblue" points="247.299,-133.588 257.891,-133.379 249.48,-126.937 247.299,-133.588"/>
</g>
<!-- Node4 -->
<g id="node4" class="node"><title>Node4</title>
<g id="a_node4"><a xlink:href="class_word_quizzle_1_1_w_q_cli.html#ae5f342434ec80ce1ed3939fb446de436" target="_top" xlink:title="Gestisce una sfida.">
<polygon fill="white" stroke="black" points="239.5,-68 239.5,-87 370.5,-87 370.5,-68 239.5,-68"/>
<text text-anchor="middle" x="305" y="-75" font-family="Helvetica,sans-Serif" font-size="10.00">WordQuizzle.WQCli.game</text>
</a>
</g>
</g>
<!-- Node1&#45;&gt;Node4 -->
<g id="edge3" class="edge"><title>Node1&#45;&gt;Node4</title>
<path fill="none" stroke="midnightblue" d="M173.067,-77.5C191.629,-77.5 211.123,-77.5 229.231,-77.5"/>
<polygon fill="midnightblue" stroke="midnightblue" points="229.423,-81.0001 239.423,-77.5 229.423,-74.0001 229.423,-81.0001"/>
</g>
<!-- Node9 -->
<g id="node9" class="node"><title>Node9</title>
<g id="a_node9"><a xlink:href="class_word_quizzle_1_1_word_quizzle_server_service.html#ace8277bd092a7ac14bcfe5927ecc8c33" target="_top" xlink:title="Restituisce il tempo di attesa per l&#39;accettazione di una richiesta, in millisecondi.">
<polygon fill="white" stroke="black" points="225.5,-18.5 225.5,-48.5 384.5,-48.5 384.5,-18.5 225.5,-18.5"/>
<text text-anchor="start" x="233.5" y="-36.5" font-family="Helvetica,sans-Serif" font-size="10.00">WordQuizzle.WordQuizzleServer</text>
<text text-anchor="middle" x="305" y="-25.5" font-family="Helvetica,sans-Serif" font-size="10.00">Service.getT1</text>
</a>
</g>
</g>
<!-- Node1&#45;&gt;Node9 -->
<g id="edge8" class="edge"><title>Node1&#45;&gt;Node9</title>
<path fill="none" stroke="midnightblue" d="M134.477,-67.9527C159.397,-62.8882 190.776,-56.511 219.741,-50.6242"/>
<polygon fill="midnightblue" stroke="midnightblue" points="220.769,-53.9869 229.872,-48.5654 219.375,-47.1272 220.769,-53.9869"/>
</g>
<!-- Node3 -->
<g id="node3" class="node"><title>Node3</title>
<g id="a_node3"><a xlink:href="interface_word_quizzle_1_1_word_quizzle_service.html#a249b5976997c2e6d6d2ceb7e71cc7d75" target="_top" xlink:title="Accetta una richiesta di sfida inviata da nickAmico.">
<polygon fill="white" stroke="black" points="437,-147.5 437,-177.5 636,-177.5 636,-147.5 437,-147.5"/>
<text text-anchor="start" x="445" y="-165.5" font-family="Helvetica,sans-Serif" font-size="10.00">WordQuizzle.WordQuizzleService.accetta</text>
<text text-anchor="middle" x="536.5" y="-154.5" font-family="Helvetica,sans-Serif" font-size="10.00">Sfida</text>
</a>
</g>
</g>
<!-- Node2&#45;&gt;Node3 -->
<g id="edge2" class="edge"><title>Node2&#45;&gt;Node3</title>
<path fill="none" stroke="midnightblue" d="M401.003,-154.295C409.512,-154.814 418.17,-155.343 426.782,-155.868"/>
<polygon fill="midnightblue" stroke="midnightblue" points="426.666,-159.367 436.86,-156.483 427.092,-152.38 426.666,-159.367"/>
</g>
<!-- Node5 -->
<g id="node5" class="node"><title>Node5</title>
<g id="a_node5"><a xlink:href="class_word_quizzle_1_1_word_quizzle_server_service.html#a970fe0e2dd7457bab2c64ae722a912fc" target="_top" xlink:title="Restituisce il numero di parole per sfida.">
<polygon fill="white" stroke="black" points="457,-98.5 457,-128.5 616,-128.5 616,-98.5 457,-98.5"/>
<text text-anchor="start" x="465" y="-116.5" font-family="Helvetica,sans-Serif" font-size="10.00">WordQuizzle.WordQuizzleServer</text>
<text text-anchor="middle" x="536.5" y="-105.5" font-family="Helvetica,sans-Serif" font-size="10.00">Service.getK</text>
</a>
</g>
</g>
<!-- Node4&#45;&gt;Node5 -->
<g id="edge4" class="edge"><title>Node4&#45;&gt;Node5</title>
<path fill="none" stroke="midnightblue" d="M366.599,-87.0057C391.092,-90.8478 419.857,-95.3599 446.637,-99.5606"/>
<polygon fill="midnightblue" stroke="midnightblue" points="446.368,-103.061 456.79,-101.153 447.453,-96.1459 446.368,-103.061"/>
</g>
<!-- Node6 -->
<g id="node6" class="node"><title>Node6</title>
<g id="a_node6"><a xlink:href="class_word_quizzle_1_1_word_quizzle_server_service.html#ac78bda2a578b3baa0933ca28e4b72e0c" target="_top" xlink:title="Restituisce la durata di una sfida, in millisecondi.">
<polygon fill="white" stroke="black" points="457,-49.5 457,-79.5 616,-79.5 616,-49.5 457,-49.5"/>
<text text-anchor="start" x="465" y="-67.5" font-family="Helvetica,sans-Serif" font-size="10.00">WordQuizzle.WordQuizzleServer</text>
<text text-anchor="middle" x="536.5" y="-56.5" font-family="Helvetica,sans-Serif" font-size="10.00">Service.getT2</text>
</a>
</g>
</g>
<!-- Node4&#45;&gt;Node6 -->
<g id="edge5" class="edge"><title>Node4&#45;&gt;Node6</title>
<path fill="none" stroke="midnightblue" d="M370.539,-73.8442C394.182,-72.505 421.367,-70.9651 446.758,-69.5268"/>
<polygon fill="midnightblue" stroke="midnightblue" points="446.976,-73.0201 456.762,-68.9601 446.58,-66.0313 446.976,-73.0201"/>
</g>
<!-- Node7 -->
<g id="node7" class="node"><title>Node7</title>
<g id="a_node7"><a xlink:href="class_word_quizzle_1_1_word_quizzle_client.html#a828a5e7a358bd53296d88c97172db13b" target="_top" xlink:title="Invia la traduzione della parola precedentemente inviata dal server durante una sfida.">
<polygon fill="white" stroke="black" points="446,-0.5 446,-30.5 627,-30.5 627,-0.5 446,-0.5"/>
<text text-anchor="start" x="454" y="-18.5" font-family="Helvetica,sans-Serif" font-size="10.00">WordQuizzle.WordQuizzleClient.send</text>
<text text-anchor="middle" x="536.5" y="-7.5" font-family="Helvetica,sans-Serif" font-size="10.00">Translation</text>
</a>
</g>
</g>
<!-- Node4&#45;&gt;Node7 -->
<g id="edge6" class="edge"><title>Node4&#45;&gt;Node7</title>
<path fill="none" stroke="midnightblue" d="M362.914,-67.9979C375.619,-65.1947 388.905,-61.7183 401,-57.5 417.891,-51.6091 420.204,-45.6562 437,-39.5 442.911,-37.3336 449.092,-35.3041 455.354,-33.4155"/>
<polygon fill="midnightblue" stroke="midnightblue" points="456.595,-36.7003 465.232,-30.5643 454.653,-29.9748 456.595,-36.7003"/>
</g>
<!-- Node8 -->
<g id="node8" class="node"><title>Node8</title>
<g id="a_node8"><a xlink:href="interface_word_quizzle_1_1_word_quizzle_service.html#a40fcaf644a7b5e4e1c1e592052f55e0b" target="_top" xlink:title="Invia la traduzione della parola precedentemente inviata dal server durante una sfida.">
<polygon fill="white" stroke="black" points="672,-0.5 672,-30.5 860,-30.5 860,-0.5 672,-0.5"/>
<text text-anchor="start" x="680" y="-18.5" font-family="Helvetica,sans-Serif" font-size="10.00">WordQuizzle.WordQuizzleService.send</text>
<text text-anchor="middle" x="766" y="-7.5" font-family="Helvetica,sans-Serif" font-size="10.00">Translation</text>
</a>
</g>
</g>
<!-- Node7&#45;&gt;Node8 -->
<g id="edge7" class="edge"><title>Node7&#45;&gt;Node8</title>
<path fill="none" stroke="midnightblue" d="M627.087,-15.5C638.436,-15.5 650.12,-15.5 661.661,-15.5"/>
<polygon fill="midnightblue" stroke="midnightblue" points="661.753,-19.0001 671.753,-15.5 661.753,-12.0001 661.753,-19.0001"/>
</g>
</g>
</svg>
