<?xml version="1.0" encoding="UTF-8" standalone="no"?>
<!DOCTYPE svg PUBLIC "-//W3C//DTD SVG 1.1//EN"
 "http://www.w3.org/Graphics/SVG/1.1/DTD/svg11.dtd">
<!-- Generated by graphviz version 2.38.0 (20140413.2041)
 -->
<!-- Title: WordQuizzleClientService.logout Pages: 1 -->
<svg width="543pt" height="66pt"
 viewBox="0.00 0.00 543.00 66.00" xmlns="http://www.w3.org/2000/svg" xmlns:xlink="http://www.w3.org/1999/xlink">
<g id="graph0" class="graph" transform="scale(1 1) rotate(0) translate(4 62)">
<title>WordQuizzleClientService.logout</title>
<polygon fill="white" stroke="none" points="-4,4 -4,-62 539,-62 539,4 -4,4"/>
<!-- Node1 -->
<g id="node1" class="node"><title>Node1</title>
<g id="a_node1"><a xlink:title="Effettua il logout.">
<polygon fill="#bfbfbf" stroke="black" points="0,-19.5 0,-38.5 158,-38.5 158,-19.5 0,-19.5"/>
<text text-anchor="middle" x="79" y="-26.5" font-family="Helvetica,sans-Serif" font-size="10.00">WordQuizzleClientService.logout</text>
</a>
</g>
</g>
<!-- Node2 -->
<g id="node2" class="node"><title>Node2</title>
<g id="a_node2"><a xlink:href="class_word_quizzle_client_service.html#a6132feed91596156595e4f36713acade" target="_top" xlink:title="Invia un messaggio al server e attende una sua risposta.">
<polygon fill="white" stroke="black" points="194,-19.5 194,-38.5 347,-38.5 347,-19.5 194,-19.5"/>
<text text-anchor="middle" x="270.5" y="-26.5" font-family="Helvetica,sans-Serif" font-size="10.00">WordQuizzleClientService.send</text>
</a>
</g>
</g>
<!-- Node1&#45;&gt;Node2 -->
<g id="edge1" class="edge"><title>Node1&#45;&gt;Node2</title>
<path fill="none" stroke="midnightblue" d="M158.171,-29C166.671,-29 175.355,-29 183.938,-29"/>
<polygon fill="midnightblue" stroke="midnightblue" points="183.949,-32.5001 193.949,-29 183.949,-25.5001 183.949,-32.5001"/>
</g>
<!-- Node3 -->
<g id="node3" class="node"><title>Node3</title>
<g id="a_node3"><a xlink:href="class_word_quizzle_client_service.html#a8aac188f30cdc3eefce8a82af8e17b64" target="_top" xlink:title="Ottiene un messaggio inviato dal server.">
<polygon fill="white" stroke="black" points="383.5,-38.5 383.5,-57.5 534.5,-57.5 534.5,-38.5 383.5,-38.5"/>
<text text-anchor="middle" x="459" y="-45.5" font-family="Helvetica,sans-Serif" font-size="10.00">WordQuizzleClientService.read</text>
</a>
</g>
</g>
<!-- Node2&#45;&gt;Node3 -->
<g id="edge2" class="edge"><title>Node2&#45;&gt;Node3</title>
<path fill="none" stroke="midnightblue" d="M347.088,-36.7006C355.651,-37.5731 364.421,-38.4665 373.094,-39.3501"/>
<polygon fill="midnightblue" stroke="midnightblue" points="372.909,-42.8493 383.213,-40.3809 373.619,-35.8853 372.909,-42.8493"/>
</g>
<!-- Node4 -->
<g id="node4" class="node"><title>Node4</title>
<g id="a_node4"><a xlink:href="class_word_quizzle_client_service.html#a7d2afa64e76c96cabcbcf48219517937" target="_top" xlink:title="Invia al server un messaggio.">
<polygon fill="white" stroke="black" points="383,-0.5 383,-19.5 535,-19.5 535,-0.5 383,-0.5"/>
<text text-anchor="middle" x="459" y="-7.5" font-family="Helvetica,sans-Serif" font-size="10.00">WordQuizzleClientService.write</text>
</a>
</g>
</g>
<!-- Node2&#45;&gt;Node4 -->
<g id="edge3" class="edge"><title>Node2&#45;&gt;Node4</title>
<path fill="none" stroke="midnightblue" d="M347.088,-21.2994C355.579,-20.4343 364.273,-19.5486 372.874,-18.6724"/>
<polygon fill="midnightblue" stroke="midnightblue" points="373.316,-22.1455 382.91,-17.6499 372.607,-15.1815 373.316,-22.1455"/>
</g>
</g>
</svg>
