<?xml version="1.0" encoding="UTF-8" standalone="no"?>
<!DOCTYPE svg PUBLIC "-//W3C//DTD SVG 1.1//EN"
 "http://www.w3.org/Graphics/SVG/1.1/DTD/svg11.dtd">
<!-- Generated by graphviz version 2.38.0 (20140413.2041)
 -->
<!-- Title: WQCli.parse Pages: 1 -->
<!--zoomable 808 -->
<svg id="main" version="1.1" xmlns="http://www.w3.org/2000/svg" xmlns:xlink="http://www.w3.org/1999/xlink" xml:space="preserve" onload="init(evt)">
<style type="text/css"><![CDATA[
.edge:hover path { stroke: red; }
.edge:hover polygon { stroke: red; fill: red; }
]]></style>
<script type="text/javascript"><![CDATA[
var edges = document.getElementsByTagName('g');
if (edges && edges.length) {
  for (var i=0;i<edges.length;i++) {
    if (edges[i].id.substr(0,4)=='edge') {
      edges[i].setAttribute('class','edge');
    }
  }
}
]]></script>
        <defs>
                <circle id="rim" cx="0" cy="0" r="7"/>
                <circle id="rim2" cx="0" cy="0" r="3.5"/>
                <g id="zoomPlus">
                        <use xlink:href="#rim" fill="#404040">
                                <set attributeName="fill" to="#808080" begin="zoomplus.mouseover" end="zoomplus.mouseout"/>
                        </use>
                        <path d="M-4,0h8M0,-4v8" fill="none" stroke="white" stroke-width="1.5" pointer-events="none"/>
                </g>
                <g id="zoomMin">
                        <use xlink:href="#rim" fill="#404040">
                                <set attributeName="fill" to="#808080" begin="zoomminus.mouseover" end="zoomminus.mouseout"/>
                        </use>
                        <path d="M-4,0h8" fill="none" stroke="white" stroke-width="1.5" pointer-events="none"/>
                </g>
                <g id="dirArrow">
                        <path fill="none" stroke="white" stroke-width="1.5" d="M0,-3.0v7 M-2.5,-0.5L0,-3.0L2.5,-0.5"/>
                </g>
               <g id="resetDef">
                       <use xlink:href="#rim2" fill="#404040">
                               <set attributeName="fill" to="#808080" begin="reset.mouseover" end="reset.mouseout"/>
                       </use>
               </g>
        </defs>

<script type="text/javascript">
var viewWidth = 670;
var viewHeight = 808;
var sectionId = 'dynsection-16';
</script>
<script xlink:href="svgpan.js"/>
<svg id="graph" class="graph">
<g id="viewport">
<title>WQCli.parse</title>
<polygon fill="white" stroke="none" points="-4,4 -4,-803.5 666,-803.5 666,4 -4,4"/>
<!-- Node1 -->
<g id="node1" class="node"><title>Node1</title>
<g id="a_node1"><a xlink:title="Gestisce le richieste dell&#39;utente.">
<polygon fill="#bfbfbf" stroke="black" points="0,-268.5 0,-287.5 72,-287.5 72,-268.5 0,-268.5"/>
<text text-anchor="middle" x="36" y="-275.5" font-family="Helvetica,sans-Serif" font-size="10.00">WQCli.parse</text>
</a>
</g>
</g>
<!-- Node2 -->
<g id="node2" class="node"><title>Node2</title>
<g id="a_node2"><a xlink:href="class_word_quizzle_client.html#a47e5d9e8bd41242505edcb76350df881" target="_top" xlink:title="Aggiunge un utente alla lista di amici di user.">
<polygon fill="white" stroke="black" points="108,-761 108,-791 245,-791 245,-761 108,-761"/>
<text text-anchor="start" x="116" y="-779" font-family="Helvetica,sans-Serif" font-size="10.00">WordQuizzleClient.aggiungi</text>
<text text-anchor="middle" x="176.5" y="-768" font-family="Helvetica,sans-Serif" font-size="10.00">_amico</text>
</a>
</g>
</g>
<!-- Node1&#45;&gt;Node2 -->
<g id="edge1" class="edge"><title>Node1&#45;&gt;Node2</title>
<path fill="none" stroke="midnightblue" d="M37.4484,-287.548C40.3403,-345.899 57.8487,-654.463 108,-732 114.049,-741.353 122.866,-749.144 132.143,-755.44"/>
<polygon fill="midnightblue" stroke="midnightblue" points="130.39,-758.473 140.725,-760.804 134.1,-752.537 130.39,-758.473"/>
</g>
<!-- Node4 -->
<g id="node4" class="node"><title>Node4</title>
<g id="a_node4"><a xlink:href="class_w_q_cli.html#a9ce93c9d50da5779eb8b1dfe27c63470" target="_top" xlink:title="Restistuisce una stringa contenente informazioni riguardo l&#39;aggiunta di un amico.">
<polygon fill="white" stroke="black" points="307.5,-730.5 307.5,-749.5 423.5,-749.5 423.5,-730.5 307.5,-730.5"/>
<text text-anchor="middle" x="365.5" y="-737.5" font-family="Helvetica,sans-Serif" font-size="10.00">WQCli.aggiungi_amico</text>
</a>
</g>
</g>
<!-- Node1&#45;&gt;Node4 -->
<g id="edge3" class="edge"><title>Node1&#45;&gt;Node4</title>
<path fill="none" stroke="midnightblue" d="M37.7471,-287.548C41.9099,-338.638 63.667,-579.524 108,-637 153.368,-695.818 237.653,-721.165 297.204,-732.013"/>
<polygon fill="midnightblue" stroke="midnightblue" points="296.829,-735.499 307.279,-733.753 298.021,-728.602 296.829,-735.499"/>
</g>
<!-- Node5 -->
<g id="node5" class="node"><title>Node5</title>
<g id="a_node5"><a xlink:href="class_w_q_cli.html#a53002705ea7cea7d4ad300f9d9d5a120" target="_top" xlink:title="Gestisce una sfida.">
<polygon fill="white" stroke="black" points="140.5,-331.5 140.5,-350.5 212.5,-350.5 212.5,-331.5 140.5,-331.5"/>
<text text-anchor="middle" x="176.5" y="-338.5" font-family="Helvetica,sans-Serif" font-size="10.00">WQCli.game</text>
</a>
</g>
</g>
<!-- Node1&#45;&gt;Node5 -->
<g id="edge4" class="edge"><title>Node1&#45;&gt;Node5</title>
<path fill="none" stroke="midnightblue" d="M58.0352,-287.568C81.2197,-298.114 118.718,-315.171 145.098,-327.171"/>
<polygon fill="midnightblue" stroke="midnightblue" points="143.715,-330.387 154.267,-331.342 146.614,-324.015 143.715,-330.387"/>
</g>
<!-- Node10 -->
<g id="node10" class="node"><title>Node10</title>
<g id="a_node10"><a xlink:href="class_w_q_cli.html#a176225dbab1800ff2b4693ea7654b9b0" target="_top" xlink:title="Restistuisce una stringa contenente informazioni riguardo i comandi da utilizzare.">
<polygon fill="white" stroke="black" points="143.5,-547.5 143.5,-566.5 209.5,-566.5 209.5,-547.5 143.5,-547.5"/>
<text text-anchor="middle" x="176.5" y="-554.5" font-family="Helvetica,sans-Serif" font-size="10.00">WQCli.help</text>
</a>
</g>
</g>
<!-- Node1&#45;&gt;Node10 -->
<g id="edge9" class="edge"><title>Node1&#45;&gt;Node10</title>
<path fill="none" stroke="midnightblue" d="M41.2947,-287.758C52.0721,-312.132 81.3114,-377.555 108,-431 127.294,-469.636 151.548,-513.969 165.103,-538.4"/>
<polygon fill="midnightblue" stroke="midnightblue" points="162.134,-540.262 170.056,-547.297 168.251,-536.857 162.134,-540.262"/>
</g>
<!-- Node12 -->
<g id="node12" class="node"><title>Node12</title>
<g id="a_node12"><a xlink:href="class_w_q_cli.html#a634b0cc22bd569d83562be0106fb695e" target="_top" xlink:title="Restistuisce una stringa contenente informazioni riguardo il login.">
<polygon fill="white" stroke="black" points="331.5,-692.5 331.5,-711.5 399.5,-711.5 399.5,-692.5 331.5,-692.5"/>
<text text-anchor="middle" x="365.5" y="-699.5" font-family="Helvetica,sans-Serif" font-size="10.00">WQCli.login</text>
</a>
</g>
</g>
<!-- Node1&#45;&gt;Node12 -->
<g id="edge23" class="edge"><title>Node1&#45;&gt;Node12</title>
<path fill="none" stroke="midnightblue" d="M36.7634,-287.574C36.2594,-327.166 39.0364,-480.493 108,-576 159.511,-647.337 262.756,-680.306 321.332,-693.829"/>
<polygon fill="midnightblue" stroke="midnightblue" points="320.858,-697.309 331.379,-696.059 322.375,-690.476 320.858,-697.309"/>
</g>
<!-- Node18 -->
<g id="node18" class="node"><title>Node18</title>
<g id="a_node18"><a xlink:href="class_w_q_cli.html#ab0795a558c5c98f6f86121157b4cef8c" target="_top" xlink:title="Restistuisce una stringa contenente informazioni riguardo l&#39;invio di una sfida.">
<polygon fill="white" stroke="black" points="331.5,-426.5 331.5,-445.5 399.5,-445.5 399.5,-426.5 331.5,-426.5"/>
<text text-anchor="middle" x="365.5" y="-433.5" font-family="Helvetica,sans-Serif" font-size="10.00">WQCli.sfida</text>
</a>
</g>
</g>
<!-- Node1&#45;&gt;Node18 -->
<g id="edge34" class="edge"><title>Node1&#45;&gt;Node18</title>
<path fill="none" stroke="midnightblue" d="M42.7869,-287.585C53.5373,-304.602 78.2246,-340.162 108,-360 174.312,-404.181 266.944,-423.278 320.836,-431.069"/>
<polygon fill="midnightblue" stroke="midnightblue" points="320.694,-434.583 331.078,-432.481 321.65,-427.648 320.694,-434.583"/>
</g>
<!-- Node19 -->
<g id="node19" class="node"><title>Node19</title>
<g id="a_node19"><a xlink:href="class_word_quizzle_client.html#a5503bd747932abeb7a733b780d31dc19" target="_top" xlink:title="Richiede la lista degli amici di user.">
<polygon fill="white" stroke="black" points="117,-263 117,-293 236,-293 236,-263 117,-263"/>
<text text-anchor="start" x="125" y="-281" font-family="Helvetica,sans-Serif" font-size="10.00">WordQuizzleClient.lista</text>
<text text-anchor="middle" x="176.5" y="-270" font-family="Helvetica,sans-Serif" font-size="10.00">_amici</text>
</a>
</g>
</g>
<!-- Node1&#45;&gt;Node19 -->
<g id="edge19" class="edge"><title>Node1&#45;&gt;Node19</title>
<path fill="none" stroke="midnightblue" d="M72.3078,-278C82.8894,-278 94.8757,-278 106.839,-278"/>
<polygon fill="midnightblue" stroke="midnightblue" points="106.851,-281.5 116.851,-278 106.851,-274.5 106.851,-281.5"/>
</g>
<!-- Node21 -->
<g id="node21" class="node"><title>Node21</title>
<g id="a_node21"><a xlink:href="class_word_quizzle_client.html#ab3dfa5eb3dd327ca00e89b9920125e0e" target="_top" xlink:title="Effettua il login.">
<polygon fill="white" stroke="black" points="116,-224.5 116,-243.5 237,-243.5 237,-224.5 116,-224.5"/>
<text text-anchor="middle" x="176.5" y="-231.5" font-family="Helvetica,sans-Serif" font-size="10.00">WordQuizzleClient.login</text>
</a>
</g>
</g>
<!-- Node1&#45;&gt;Node21 -->
<g id="edge21" class="edge"><title>Node1&#45;&gt;Node21</title>
<path fill="none" stroke="midnightblue" d="M62.8319,-268.456C76.2381,-263.617 92.9243,-257.771 108,-253 115.183,-250.727 122.837,-248.443 130.315,-246.286"/>
<polygon fill="midnightblue" stroke="midnightblue" points="131.329,-249.636 139.991,-243.534 129.415,-242.903 131.329,-249.636"/>
</g>
<!-- Node23 -->
<g id="node23" class="node"><title>Node23</title>
<g id="a_node23"><a xlink:href="class_word_quizzle_client.html#ab3b513d94019a6b4350aaa6c92c59136" target="_top" xlink:title="Effettua il logout di user.">
<polygon fill="white" stroke="black" points="113,-186.5 113,-205.5 240,-205.5 240,-186.5 113,-186.5"/>
<text text-anchor="middle" x="176.5" y="-193.5" font-family="Helvetica,sans-Serif" font-size="10.00">WordQuizzleClient.logout</text>
</a>
</g>
</g>
<!-- Node1&#45;&gt;Node23 -->
<g id="edge24" class="edge"><title>Node1&#45;&gt;Node23</title>
<path fill="none" stroke="midnightblue" d="M45.1747,-268.4C57.4431,-254.591 81.9695,-229.223 108,-215 112.015,-212.806 116.305,-210.847 120.704,-209.101"/>
<polygon fill="midnightblue" stroke="midnightblue" points="122.209,-212.28 130.442,-205.611 119.847,-205.691 122.209,-212.28"/>
</g>
<!-- Node25 -->
<g id="node25" class="node"><title>Node25</title>
<g id="a_node25"><a xlink:href="class_word_quizzle_client.html#a01ec8b2d43325305d263b803834652cb" target="_top" xlink:title="Richiede la classifica dell&#39;user e dei suoi amici.">
<polygon fill="white" stroke="black" points="111,-137 111,-167 242,-167 242,-137 111,-137"/>
<text text-anchor="start" x="119" y="-155" font-family="Helvetica,sans-Serif" font-size="10.00">WordQuizzleClient.mostra</text>
<text text-anchor="middle" x="176.5" y="-144" font-family="Helvetica,sans-Serif" font-size="10.00">_classifica</text>
</a>
</g>
</g>
<!-- Node1&#45;&gt;Node25 -->
<g id="edge26" class="edge"><title>Node1&#45;&gt;Node25</title>
<path fill="none" stroke="midnightblue" d="M41.2452,-268.485C50.5369,-248.687 74.5498,-202.768 108,-177 110.32,-175.213 112.781,-173.543 115.338,-171.984"/>
<polygon fill="midnightblue" stroke="midnightblue" points="117.213,-174.949 124.334,-167.104 113.876,-168.796 117.213,-174.949"/>
</g>
<!-- Node27 -->
<g id="node27" class="node"><title>Node27</title>
<g id="a_node27"><a xlink:href="class_word_quizzle_client.html#ad88c5209ea7c672da454a7523834fce7" target="_top" xlink:title="Richiede il punteggio di user.">
<polygon fill="white" stroke="black" points="111,-88 111,-118 242,-118 242,-88 111,-88"/>
<text text-anchor="start" x="119" y="-106" font-family="Helvetica,sans-Serif" font-size="10.00">WordQuizzleClient.mostra</text>
<text text-anchor="middle" x="176.5" y="-95" font-family="Helvetica,sans-Serif" font-size="10.00">_punteggio</text>
</a>
</g>
</g>
<!-- Node1&#45;&gt;Node27 -->
<g id="edge28" class="edge"><title>Node1&#45;&gt;Node27</title>
<path fill="none" stroke="midnightblue" d="M38.8441,-268.333C44.3888,-241.86 63.3596,-167.471 108,-127 109.299,-125.823 110.659,-124.702 112.07,-123.636"/>
<polygon fill="midnightblue" stroke="midnightblue" points="114.134,-126.47 120.634,-118.103 110.335,-120.59 114.134,-126.47"/>
</g>
<!-- Node29 -->
<g id="node29" class="node"><title>Node29</title>
<g id="a_node29"><a xlink:href="class_word_quizzle_client.html#a516539e0da1d5d54431a7e41cf9339f8" target="_top" xlink:title="Registra un nuovo utente.">
<polygon fill="white" stroke="black" points="110,-39 110,-69 243,-69 243,-39 110,-39"/>
<text text-anchor="start" x="118" y="-57" font-family="Helvetica,sans-Serif" font-size="10.00">WordQuizzleClient.registra</text>
<text text-anchor="middle" x="176.5" y="-46" font-family="Helvetica,sans-Serif" font-size="10.00">_utente</text>
</a>
</g>
</g>
<!-- Node1&#45;&gt;Node29 -->
<g id="edge30" class="edge"><title>Node1&#45;&gt;Node29</title>
<path fill="none" stroke="midnightblue" d="M37.6051,-268.12C40.0959,-236.057 52.2592,-133.768 108,-78 109.072,-76.9279 110.194,-75.9035 111.36,-74.9246"/>
<polygon fill="midnightblue" stroke="midnightblue" points="113.459,-77.7273 119.614,-69.1035 109.425,-72.0069 113.459,-77.7273"/>
</g>
<!-- Node31 -->
<g id="node31" class="node"><title>Node31</title>
<g id="a_node31"><a xlink:href="class_word_quizzle_client.html#a2532bb6f1399cae0692189e7b1b4fb60" target="_top" xlink:title="Invia una richiesta di sfida ad un amico.">
<polygon fill="white" stroke="black" points="116,-0.5 116,-19.5 237,-19.5 237,-0.5 116,-0.5"/>
<text text-anchor="middle" x="176.5" y="-7.5" font-family="Helvetica,sans-Serif" font-size="10.00">WordQuizzleClient.sfida</text>
</a>
</g>
</g>
<!-- Node1&#45;&gt;Node31 -->
<g id="edge32" class="edge"><title>Node1&#45;&gt;Node31</title>
<path fill="none" stroke="midnightblue" d="M36.6509,-268.254C35.8842,-231.313 38.2708,-98.4934 108,-29 109.455,-27.5498 111.012,-26.2082 112.65,-24.9672"/>
<polygon fill="midnightblue" stroke="midnightblue" points="114.749,-27.7851 121.432,-19.5637 111.081,-21.8233 114.749,-27.7851"/>
</g>
<!-- Node3 -->
<g id="node3" class="node"><title>Node3</title>
<g id="a_node3"><a xlink:href="interface_word_quizzle_service.html#a9b0441e9bbdbda3213f217f4fe5a97f3" target="_top" xlink:title="Aggiunge un utente alla lista di amici di nickUtente.">
<polygon fill="white" stroke="black" points="294,-769 294,-799 437,-799 437,-769 294,-769"/>
<text text-anchor="start" x="302" y="-787" font-family="Helvetica,sans-Serif" font-size="10.00">WordQuizzleService.aggiungi</text>
<text text-anchor="middle" x="365.5" y="-776" font-family="Helvetica,sans-Serif" font-size="10.00">_amico</text>
</a>
</g>
</g>
<!-- Node2&#45;&gt;Node3 -->
<g id="edge2" class="edge"><title>Node2&#45;&gt;Node3</title>
<path fill="none" stroke="midnightblue" d="M245.011,-778.888C257.559,-779.425 270.785,-779.991 283.682,-780.543"/>
<polygon fill="midnightblue" stroke="midnightblue" points="283.796,-784.051 293.937,-780.981 284.095,-777.057 283.796,-784.051"/>
</g>
<!-- Node6 -->
<g id="node6" class="node"><title>Node6</title>
<g id="a_node6"><a xlink:href="class_word_quizzle_server_service.html#a445af71c2bed6349e5239893b2e0ca8c" target="_top" xlink:title="Restituisce il numero di parole per sfida.">
<polygon fill="white" stroke="black" points="288,-388.5 288,-407.5 443,-407.5 443,-388.5 288,-388.5"/>
<text text-anchor="middle" x="365.5" y="-395.5" font-family="Helvetica,sans-Serif" font-size="10.00">WordQuizzleServerService.getK</text>
</a>
</g>
</g>
<!-- Node5&#45;&gt;Node6 -->
<g id="edge5" class="edge"><title>Node5&#45;&gt;Node6</title>
<path fill="none" stroke="midnightblue" d="M201.053,-350.63C221.845,-358.893 253.102,-370.741 281,-379 289.689,-381.572 298.974,-383.997 308.079,-386.198"/>
<polygon fill="midnightblue" stroke="midnightblue" points="307.315,-389.614 317.851,-388.495 308.917,-382.799 307.315,-389.614"/>
</g>
<!-- Node7 -->
<g id="node7" class="node"><title>Node7</title>
<g id="a_node7"><a xlink:href="class_word_quizzle_server_service.html#a5779a8f11e9348825e19ef83b74b43bc" target="_top" xlink:title="Restituisce la durata di una sfida, in millisecondi.">
<polygon fill="white" stroke="black" points="286.5,-350.5 286.5,-369.5 444.5,-369.5 444.5,-350.5 286.5,-350.5"/>
<text text-anchor="middle" x="365.5" y="-357.5" font-family="Helvetica,sans-Serif" font-size="10.00">WordQuizzleServerService.getT2</text>
</a>
</g>
</g>
<!-- Node5&#45;&gt;Node7 -->
<g id="edge6" class="edge"><title>Node5&#45;&gt;Node7</title>
<path fill="none" stroke="midnightblue" d="M212.673,-344.574C230.829,-346.418 253.87,-348.76 276.482,-351.057"/>
<polygon fill="midnightblue" stroke="midnightblue" points="276.173,-354.544 286.475,-352.072 276.88,-347.579 276.173,-354.544"/>
</g>
<!-- Node8 -->
<g id="node8" class="node"><title>Node8</title>
<g id="a_node8"><a xlink:href="class_word_quizzle_client.html#a8af265290384d3ce6dcb44c6e08f3b4a" target="_top" xlink:title="Invia la traduzione della parola precedentemente inviata dal server durante una sfida.">
<polygon fill="white" stroke="black" points="281,-312.5 281,-331.5 450,-331.5 450,-312.5 281,-312.5"/>
<text text-anchor="middle" x="365.5" y="-319.5" font-family="Helvetica,sans-Serif" font-size="10.00">WordQuizzleClient.sendTranslation</text>
</a>
</g>
</g>
<!-- Node5&#45;&gt;Node8 -->
<g id="edge7" class="edge"><title>Node5&#45;&gt;Node8</title>
<path fill="none" stroke="midnightblue" d="M212.673,-337.426C229.312,-335.736 250.053,-333.628 270.808,-331.52"/>
<polygon fill="midnightblue" stroke="midnightblue" points="271.384,-334.979 280.979,-330.486 270.677,-328.015 271.384,-334.979"/>
</g>
<!-- Node9 -->
<g id="node9" class="node"><title>Node9</title>
<g id="a_node9"><a xlink:href="interface_word_quizzle_service.html#a02c046b12dcaedd35e92fd7878595f57" target="_top" xlink:title="Invia la traduzione della parola precedentemente inviata dal server durante una sfida.">
<polygon fill="white" stroke="black" points="486,-312.5 486,-331.5 662,-331.5 662,-312.5 486,-312.5"/>
<text text-anchor="middle" x="574" y="-319.5" font-family="Helvetica,sans-Serif" font-size="10.00">WordQuizzleService.sendTranslation</text>
</a>
</g>
</g>
<!-- Node8&#45;&gt;Node9 -->
<g id="edge8" class="edge"><title>Node8&#45;&gt;Node9</title>
<path fill="none" stroke="midnightblue" d="M450.194,-322C458.631,-322 467.249,-322 475.812,-322"/>
<polygon fill="midnightblue" stroke="midnightblue" points="475.824,-325.5 485.823,-322 475.823,-318.5 475.824,-325.5"/>
</g>
<!-- Node10&#45;&gt;Node4 -->
<g id="edge10" class="edge"><title>Node10&#45;&gt;Node4</title>
<path fill="none" stroke="midnightblue" d="M180.594,-566.617C190.301,-595.163 223.009,-679.968 281,-721 286.097,-724.607 291.77,-727.541 297.691,-729.927"/>
<polygon fill="midnightblue" stroke="midnightblue" points="296.559,-733.239 307.154,-733.243 298.874,-726.633 296.559,-733.239"/>
</g>
<!-- Node11 -->
<g id="node11" class="node"><title>Node11</title>
<g id="a_node11"><a xlink:href="class_w_q_cli.html#a025cbebffcc3fad5359e76b031349d86" target="_top" xlink:title="Restistuisce una stringa contenente informazioni riguardo la visualizzazione della lista amici.">
<polygon fill="white" stroke="black" points="318,-654.5 318,-673.5 413,-673.5 413,-654.5 318,-654.5"/>
<text text-anchor="middle" x="365.5" y="-661.5" font-family="Helvetica,sans-Serif" font-size="10.00">WQCli.lista_amici</text>
</a>
</g>
</g>
<!-- Node10&#45;&gt;Node11 -->
<g id="edge11" class="edge"><title>Node10&#45;&gt;Node11</title>
<path fill="none" stroke="midnightblue" d="M185.824,-566.663C202.139,-584.953 240.296,-624.621 281,-645 289.298,-649.155 298.514,-652.413 307.707,-654.965"/>
<polygon fill="midnightblue" stroke="midnightblue" points="307.077,-658.415 317.629,-657.466 308.788,-651.628 307.077,-658.415"/>
</g>
<!-- Node10&#45;&gt;Node12 -->
<g id="edge12" class="edge"><title>Node10&#45;&gt;Node12</title>
<path fill="none" stroke="midnightblue" d="M185.667,-566.673C198.424,-581.811 223.813,-612.052 245,-638 261.199,-657.839 259.298,-669.397 281,-683 292.946,-690.488 307.499,-695.035 321.088,-697.793"/>
<polygon fill="midnightblue" stroke="midnightblue" points="320.779,-701.292 331.233,-699.573 321.988,-694.398 320.779,-701.292"/>
</g>
<!-- Node13 -->
<g id="node13" class="node"><title>Node13</title>
<g id="a_node13"><a xlink:href="class_w_q_cli.html#a086e67f85b13d6df039356bada52e867" target="_top" xlink:title="Restistuisce una stringa contenente informazioni riguardo il logout.">
<polygon fill="white" stroke="black" points="328.5,-616.5 328.5,-635.5 402.5,-635.5 402.5,-616.5 328.5,-616.5"/>
<text text-anchor="middle" x="365.5" y="-623.5" font-family="Helvetica,sans-Serif" font-size="10.00">WQCli.logout</text>
</a>
</g>
</g>
<!-- Node10&#45;&gt;Node13 -->
<g id="edge13" class="edge"><title>Node10&#45;&gt;Node13</title>
<path fill="none" stroke="midnightblue" d="M194.208,-566.537C214.26,-577.633 249.171,-595.852 281,-607 292.839,-611.146 305.945,-614.624 318.196,-617.422"/>
<polygon fill="midnightblue" stroke="midnightblue" points="317.723,-620.901 328.239,-619.613 319.215,-614.062 317.723,-620.901"/>
</g>
<!-- Node14 -->
<g id="node14" class="node"><title>Node14</title>
<g id="a_node14"><a xlink:href="class_w_q_cli.html#abc1d3caffa86269b8250f63d67b92124" target="_top" xlink:title="Restistuisce una stringa contenente informazioni riguardo la visualizzazione della classifica.">
<polygon fill="white" stroke="black" points="303.5,-578.5 303.5,-597.5 427.5,-597.5 427.5,-578.5 303.5,-578.5"/>
<text text-anchor="middle" x="365.5" y="-585.5" font-family="Helvetica,sans-Serif" font-size="10.00">WQCli.mostra_classifica</text>
</a>
</g>
</g>
<!-- Node10&#45;&gt;Node14 -->
<g id="edge14" class="edge"><title>Node10&#45;&gt;Node14</title>
<path fill="none" stroke="midnightblue" d="M209.646,-562.329C233.664,-566.311 267.353,-571.895 297.177,-576.839"/>
<polygon fill="midnightblue" stroke="midnightblue" points="296.685,-580.306 307.123,-578.488 297.83,-573.4 296.685,-580.306"/>
</g>
<!-- Node15 -->
<g id="node15" class="node"><title>Node15</title>
<g id="a_node15"><a xlink:href="class_w_q_cli.html#ad95f50efdef9b6f1b88ad183d1b66ad4" target="_top" xlink:title="Restistuisce una stringa contenente informazioni riguardo la visualizzazione del proprio punteggio.">
<polygon fill="white" stroke="black" points="303,-540.5 303,-559.5 428,-559.5 428,-540.5 303,-540.5"/>
<text text-anchor="middle" x="365.5" y="-547.5" font-family="Helvetica,sans-Serif" font-size="10.00">WQCli.mostra_punteggio</text>
</a>
</g>
</g>
<!-- Node10&#45;&gt;Node15 -->
<g id="edge15" class="edge"><title>Node10&#45;&gt;Node15</title>
<path fill="none" stroke="midnightblue" d="M209.646,-555.797C232.532,-554.94 264.199,-553.755 292.935,-552.679"/>
<polygon fill="midnightblue" stroke="midnightblue" points="293.097,-556.175 302.959,-552.304 292.835,-549.18 293.097,-556.175"/>
</g>
<!-- Node16 -->
<g id="node16" class="node"><title>Node16</title>
<g id="a_node16"><a xlink:href="class_w_q_cli.html#aa63c98f446f47fa785b7e84e75e63c6e" target="_top" xlink:title="Restistuisce una stringa contenente informazioni riguardo l&#39;uscita dal gioco.">
<polygon fill="white" stroke="black" points="333.5,-502.5 333.5,-521.5 397.5,-521.5 397.5,-502.5 333.5,-502.5"/>
<text text-anchor="middle" x="365.5" y="-509.5" font-family="Helvetica,sans-Serif" font-size="10.00">WQCli.quit</text>
</a>
</g>
</g>
<!-- Node10&#45;&gt;Node16 -->
<g id="edge16" class="edge"><title>Node10&#45;&gt;Node16</title>
<path fill="none" stroke="midnightblue" d="M209.623,-548.734C230.036,-543.529 257.036,-536.736 281,-531 294.711,-527.718 309.721,-524.261 323.187,-521.208"/>
<polygon fill="midnightblue" stroke="midnightblue" points="324.153,-524.578 333.137,-518.962 322.612,-517.75 324.153,-524.578"/>
</g>
<!-- Node17 -->
<g id="node17" class="node"><title>Node17</title>
<g id="a_node17"><a xlink:href="class_w_q_cli.html#ace752b64fcaba97dbd9a8121d7c2d4e6" target="_top" xlink:title="Restistuisce una stringa contenente informazioni riguardo la registrazione di un utente.">
<polygon fill="white" stroke="black" points="309,-464.5 309,-483.5 422,-483.5 422,-464.5 309,-464.5"/>
<text text-anchor="middle" x="365.5" y="-471.5" font-family="Helvetica,sans-Serif" font-size="10.00">WQCli.registra_utente</text>
</a>
</g>
</g>
<!-- Node10&#45;&gt;Node17 -->
<g id="edge17" class="edge"><title>Node10&#45;&gt;Node17</title>
<path fill="none" stroke="midnightblue" d="M189.834,-547.471C208.527,-533.486 245.614,-507.495 281,-493 287.193,-490.463 293.79,-488.231 300.457,-486.275"/>
<polygon fill="midnightblue" stroke="midnightblue" points="301.513,-489.615 310.237,-483.603 299.668,-482.862 301.513,-489.615"/>
</g>
<!-- Node10&#45;&gt;Node18 -->
<g id="edge18" class="edge"><title>Node10&#45;&gt;Node18</title>
<path fill="none" stroke="midnightblue" d="M184.284,-547.359C199.232,-526.887 237.185,-478.988 281,-455 293.262,-448.287 307.782,-443.941 321.246,-441.131"/>
<polygon fill="midnightblue" stroke="midnightblue" points="322.089,-444.534 331.282,-439.267 320.811,-437.652 322.089,-444.534"/>
</g>
<!-- Node20 -->
<g id="node20" class="node"><title>Node20</title>
<g id="a_node20"><a xlink:href="interface_word_quizzle_service.html#a0a06ecea2f7c95d4871bbb64cf67430e" target="_top" xlink:title="Richiede la lista degli amici di nickUtente.">
<polygon fill="white" stroke="black" points="303,-263 303,-293 428,-293 428,-263 303,-263"/>
<text text-anchor="start" x="311" y="-281" font-family="Helvetica,sans-Serif" font-size="10.00">WordQuizzleService.lista</text>
<text text-anchor="middle" x="365.5" y="-270" font-family="Helvetica,sans-Serif" font-size="10.00">_amici</text>
</a>
</g>
</g>
<!-- Node19&#45;&gt;Node20 -->
<g id="edge20" class="edge"><title>Node19&#45;&gt;Node20</title>
<path fill="none" stroke="midnightblue" d="M236.155,-278C254.049,-278 273.93,-278 292.597,-278"/>
<polygon fill="midnightblue" stroke="midnightblue" points="292.822,-281.5 302.822,-278 292.822,-274.5 292.822,-281.5"/>
</g>
<!-- Node22 -->
<g id="node22" class="node"><title>Node22</title>
<g id="a_node22"><a xlink:href="interface_word_quizzle_service.html#a7d076a6d78b7108aa0d793ea398492f4" target="_top" xlink:title="Effettua il login.">
<polygon fill="white" stroke="black" points="301.5,-224.5 301.5,-243.5 429.5,-243.5 429.5,-224.5 301.5,-224.5"/>
<text text-anchor="middle" x="365.5" y="-231.5" font-family="Helvetica,sans-Serif" font-size="10.00">WordQuizzleService.login</text>
</a>
</g>
</g>
<!-- Node21&#45;&gt;Node22 -->
<g id="edge22" class="edge"><title>Node21&#45;&gt;Node22</title>
<path fill="none" stroke="midnightblue" d="M237.182,-234C254.248,-234 273.052,-234 290.849,-234"/>
<polygon fill="midnightblue" stroke="midnightblue" points="291.191,-237.5 301.191,-234 291.191,-230.5 291.191,-237.5"/>
</g>
<!-- Node24 -->
<g id="node24" class="node"><title>Node24</title>
<g id="a_node24"><a xlink:href="interface_word_quizzle_service.html#a4f3b6b3f8ee7f02e7560de7571de1e07" target="_top" xlink:title="Effettua il logout.">
<polygon fill="white" stroke="black" points="298.5,-186.5 298.5,-205.5 432.5,-205.5 432.5,-186.5 298.5,-186.5"/>
<text text-anchor="middle" x="365.5" y="-193.5" font-family="Helvetica,sans-Serif" font-size="10.00">WordQuizzleService.logout</text>
</a>
</g>
</g>
<!-- Node23&#45;&gt;Node24 -->
<g id="edge25" class="edge"><title>Node23&#45;&gt;Node24</title>
<path fill="none" stroke="midnightblue" d="M240.028,-196C255.357,-196 271.939,-196 287.847,-196"/>
<polygon fill="midnightblue" stroke="midnightblue" points="288.184,-199.5 298.184,-196 288.184,-192.5 288.184,-199.5"/>
</g>
<!-- Node26 -->
<g id="node26" class="node"><title>Node26</title>
<g id="a_node26"><a xlink:href="interface_word_quizzle_service.html#ae8ae423bdd8f6bc09ca0bb4fd6790967" target="_top" xlink:title="Richiede la classifica dell&#39;utente e dei suoi amici.">
<polygon fill="white" stroke="black" points="297,-137 297,-167 434,-167 434,-137 297,-137"/>
<text text-anchor="start" x="305" y="-155" font-family="Helvetica,sans-Serif" font-size="10.00">WordQuizzleService.mostra</text>
<text text-anchor="middle" x="365.5" y="-144" font-family="Helvetica,sans-Serif" font-size="10.00">_classifica</text>
</a>
</g>
</g>
<!-- Node25&#45;&gt;Node26 -->
<g id="edge27" class="edge"><title>Node25&#45;&gt;Node26</title>
<path fill="none" stroke="midnightblue" d="M242.117,-152C256.441,-152 271.768,-152 286.561,-152"/>
<polygon fill="midnightblue" stroke="midnightblue" points="286.698,-155.5 296.698,-152 286.698,-148.5 286.698,-155.5"/>
</g>
<!-- Node28 -->
<g id="node28" class="node"><title>Node28</title>
<g id="a_node28"><a xlink:href="interface_word_quizzle_service.html#a7209a6349c060cad27604f6782e1dcaa" target="_top" xlink:title="Richiede il punteggio di nickUtente.">
<polygon fill="white" stroke="black" points="297,-88 297,-118 434,-118 434,-88 297,-88"/>
<text text-anchor="start" x="305" y="-106" font-family="Helvetica,sans-Serif" font-size="10.00">WordQuizzleService.mostra</text>
<text text-anchor="middle" x="365.5" y="-95" font-family="Helvetica,sans-Serif" font-size="10.00">_punteggio</text>
</a>
</g>
</g>
<!-- Node27&#45;&gt;Node28 -->
<g id="edge29" class="edge"><title>Node27&#45;&gt;Node28</title>
<path fill="none" stroke="midnightblue" d="M242.117,-103C256.441,-103 271.768,-103 286.561,-103"/>
<polygon fill="midnightblue" stroke="midnightblue" points="286.698,-106.5 296.698,-103 286.698,-99.5001 286.698,-106.5"/>
</g>
<!-- Node30 -->
<g id="node30" class="node"><title>Node30</title>
<g id="a_node30"><a xlink:href="interface_word_quizzle_service.html#a11603d2e946c2df51d3fa9d1daa53791" target="_top" xlink:title="Registra un utente.">
<polygon fill="white" stroke="black" points="295.5,-39 295.5,-69 435.5,-69 435.5,-39 295.5,-39"/>
<text text-anchor="start" x="303.5" y="-57" font-family="Helvetica,sans-Serif" font-size="10.00">WordQuizzleService.registra</text>
<text text-anchor="middle" x="365.5" y="-46" font-family="Helvetica,sans-Serif" font-size="10.00">_utente</text>
</a>
</g>
</g>
<!-- Node29&#45;&gt;Node30 -->
<g id="edge31" class="edge"><title>Node29&#45;&gt;Node30</title>
<path fill="none" stroke="midnightblue" d="M243.166,-54C256.716,-54 271.123,-54 285.101,-54"/>
<polygon fill="midnightblue" stroke="midnightblue" points="285.184,-57.5001 295.184,-54 285.184,-50.5001 285.184,-57.5001"/>
</g>
<!-- Node32 -->
<g id="node32" class="node"><title>Node32</title>
<g id="a_node32"><a xlink:href="interface_word_quizzle_service.html#ac0ac9c1650c4242fdbb66f5432417887" target="_top" xlink:title="Invia una richiesta di sfida ad un amico di nickUtente.">
<polygon fill="white" stroke="black" points="301.5,-0.5 301.5,-19.5 429.5,-19.5 429.5,-0.5 301.5,-0.5"/>
<text text-anchor="middle" x="365.5" y="-7.5" font-family="Helvetica,sans-Serif" font-size="10.00">WordQuizzleService.sfida</text>
</a>
</g>
</g>
<!-- Node31&#45;&gt;Node32 -->
<g id="edge33" class="edge"><title>Node31&#45;&gt;Node32</title>
<path fill="none" stroke="midnightblue" d="M237.182,-10C254.248,-10 273.052,-10 290.849,-10"/>
<polygon fill="midnightblue" stroke="midnightblue" points="291.191,-13.5001 301.191,-10 291.191,-6.5001 291.191,-13.5001"/>
</g>
</g>
</svg>
        <g id="navigator" transform="translate(0 0)" fill="#404254">
                <rect fill="#f2f5e9" fill-opacity="0.5" stroke="#606060" stroke-width=".5" x="0" y="0" width="60" height="60"/>
                <use id="zoomplus" xlink:href="#zoomPlus" x="17" y="9" onmousedown="handleZoom(evt,'in')"/>
                <use id="zoomminus" xlink:href="#zoomMin" x="42" y="9" onmousedown="handleZoom(evt,'out')"/>
                <use id="reset" xlink:href="#resetDef" x="30" y="36" onmousedown="handleReset()"/>
                <g id="arrowUp" xlink:href="#dirArrow" transform="translate(30 24)" onmousedown="handlePan(0,-1)">
                  <use xlink:href="#rim" fill="#404040">
                        <set attributeName="fill" to="#808080" begin="arrowUp.mouseover" end="arrowUp.mouseout"/>
                  </use>
                  <path fill="none" stroke="white" stroke-width="1.5" d="M0,-3.0v7 M-2.5,-0.5L0,-3.0L2.5,-0.5"/>
                </g>
                <g id="arrowRight" xlink:href="#dirArrow" transform="rotate(90) translate(36 -43)" onmousedown="handlePan(1,0)">
                  <use xlink:href="#rim" fill="#404040">
                        <set attributeName="fill" to="#808080" begin="arrowRight.mouseover" end="arrowRight.mouseout"/>
                  </use>
                  <path fill="none" stroke="white" stroke-width="1.5" d="M0,-3.0v7 M-2.5,-0.5L0,-3.0L2.5,-0.5"/>
                </g>
                <g id="arrowDown" xlink:href="#dirArrow" transform="rotate(180) translate(-30 -48)" onmousedown="handlePan(0,1)">
                  <use xlink:href="#rim" fill="#404040">
                        <set attributeName="fill" to="#808080" begin="arrowDown.mouseover" end="arrowDown.mouseout"/>
                  </use>
                  <path fill="none" stroke="white" stroke-width="1.5" d="M0,-3.0v7 M-2.5,-0.5L0,-3.0L2.5,-0.5"/>
                </g>
                <g id="arrowLeft" xlink:href="#dirArrow" transform="rotate(270) translate(-36 17)" onmousedown="handlePan(-1,0)">
                  <use xlink:href="#rim" fill="#404040">
                        <set attributeName="fill" to="#808080" begin="arrowLeft.mouseover" end="arrowLeft.mouseout"/>
                  </use>
                  <path fill="none" stroke="white" stroke-width="1.5" d="M0,-3.0v7 M-2.5,-0.5L0,-3.0L2.5,-0.5"/>
                </g>
        </g>
        <svg viewBox="0 0 15 15" width="100%" height="30px" preserveAspectRatio="xMaxYMin meet">
         <g id="arrow_out" transform="scale(0.3 0.3)">
          <a xlink:href="class_w_q_cli_a69d5ad39deabe879509740cc27efb3f3_cgraph_org.svg" target="_base">
           <rect id="button" ry="5" rx="5" y="6" x="6" height="38" width="38"
                fill="#f2f5e9" fill-opacity="0.5" stroke="#606060" stroke-width="1.0"/>
           <path id="arrow"
             d="M 11.500037,31.436501 C 11.940474,20.09759 22.043105,11.32322 32.158766,21.979434 L 37.068811,17.246167 C 37.068811,17.246167 37.088388,32 37.088388,32 L 22.160133,31.978069 C 22.160133,31.978069 26.997745,27.140456 26.997745,27.140456 C 18.528582,18.264221 13.291696,25.230495 11.500037,31.436501 z"
             style="fill:#404040;"/>
          </a>
         </g>
        </svg>
</svg>
