<?xml version="1.0" encoding="UTF-8" standalone="no"?>
<!DOCTYPE svg PUBLIC "-//W3C//DTD SVG 1.1//EN"
 "http://www.w3.org/Graphics/SVG/1.1/DTD/svg11.dtd">
<!-- Generated by graphviz version 2.38.0 (20140413.2041)
 -->
<!-- Title: WordQuizzle.UserRegistryService Pages: 1 -->
<svg width="278pt" height="332pt"
 viewBox="0.00 0.00 277.50 332.00" xmlns="http://www.w3.org/2000/svg" xmlns:xlink="http://www.w3.org/1999/xlink">
<g id="graph0" class="graph" transform="scale(1 1) rotate(0) translate(4 328)">
<title>WordQuizzle.UserRegistryService</title>
<polygon fill="white" stroke="none" points="-4,4 -4,-328 273.5,-328 273.5,4 -4,4"/>
<!-- Node1 -->
<g id="node1" class="node"><title>Node1</title>
<g id="a_node1"><a xlink:title=" ">
<polygon fill="#bfbfbf" stroke="black" points="108,-0.5 108,-79.5 240,-79.5 240,-0.5 108,-0.5"/>
<text text-anchor="start" x="116" y="-67.5" font-family="Helvetica,sans-Serif" font-size="10.00">WordQuizzle.UserRegistry</text>
<text text-anchor="middle" x="174" y="-56.5" font-family="Helvetica,sans-Serif" font-size="10.00">Service</text>
<polyline fill="none" stroke="black" points="108,-49.5 240,-49.5 "/>
<text text-anchor="middle" x="174" y="-37.5" font-family="Helvetica,sans-Serif" font-size="10.00"> </text>
<polyline fill="none" stroke="black" points="108,-30.5 240,-30.5 "/>
<text text-anchor="start" x="116" y="-18.5" font-family="Helvetica,sans-Serif" font-size="10.00">+ UserRegistryService()</text>
<text text-anchor="start" x="116" y="-7.5" font-family="Helvetica,sans-Serif" font-size="10.00">+ registra_utente()</text>
</a>
</g>
</g>
<!-- Node2 -->
<g id="node2" class="node"><title>Node2</title>
<g id="a_node2"><a xlink:href="interface_word_quizzle_1_1_user_registry.html" target="_top" xlink:title=" ">
<polygon fill="white" stroke="black" points="0,-149.5 0,-206.5 132,-206.5 132,-149.5 0,-149.5"/>
<text text-anchor="middle" x="66" y="-194.5" font-family="Helvetica,sans-Serif" font-size="10.00">WordQuizzle.UserRegistry</text>
<polyline fill="none" stroke="black" points="0,-187.5 132,-187.5 "/>
<text text-anchor="middle" x="66" y="-175.5" font-family="Helvetica,sans-Serif" font-size="10.00"> </text>
<polyline fill="none" stroke="black" points="0,-168.5 132,-168.5 "/>
<text text-anchor="start" x="8" y="-156.5" font-family="Helvetica,sans-Serif" font-size="10.00">+ registra_utente()</text>
</a>
</g>
</g>
<!-- Node2&#45;&gt;Node1 -->
<g id="edge1" class="edge"><title>Node2&#45;&gt;Node1</title>
<path fill="none" stroke="midnightblue" d="M94.0985,-141.617C109.219,-122.577 127.889,-99.0658 143.379,-79.5601"/>
<polygon fill="none" stroke="midnightblue" points="91.3334,-139.471 87.8554,-149.478 96.8152,-143.824 91.3334,-139.471"/>
</g>
<!-- Node3 -->
<g id="node3" class="node"><title>Node3</title>
<g id="a_node3"><a xlink:title=" ">
<polygon fill="white" stroke="#bfbfbf" points="41,-266.5 41,-323.5 91,-323.5 91,-266.5 41,-266.5"/>
<text text-anchor="middle" x="66" y="-311.5" font-family="Helvetica,sans-Serif" font-size="10.00">Remote</text>
<polyline fill="none" stroke="#bfbfbf" points="41,-304.5 91,-304.5 "/>
<text text-anchor="middle" x="66" y="-292.5" font-family="Helvetica,sans-Serif" font-size="10.00"> </text>
<polyline fill="none" stroke="#bfbfbf" points="41,-285.5 91,-285.5 "/>
<text text-anchor="middle" x="66" y="-273.5" font-family="Helvetica,sans-Serif" font-size="10.00"> </text>
</a>
</g>
</g>
<!-- Node3&#45;&gt;Node2 -->
<g id="edge2" class="edge"><title>Node3&#45;&gt;Node2</title>
<path fill="none" stroke="midnightblue" d="M66,-256.244C66,-240.092 66,-221.574 66,-206.719"/>
<polygon fill="none" stroke="midnightblue" points="62.5001,-256.455 66,-266.455 69.5001,-256.455 62.5001,-256.455"/>
</g>
<!-- Node4 -->
<g id="node4" class="node"><title>Node4</title>
<g id="a_node4"><a xlink:href="interface_word_quizzle_1_1_data_base.html" target="_top" xlink:title="Database che gestisce gli utenti.">
<polygon fill="white" stroke="black" points="150.5,-127.5 150.5,-228.5 269.5,-228.5 269.5,-127.5 150.5,-127.5"/>
<text text-anchor="middle" x="210" y="-216.5" font-family="Helvetica,sans-Serif" font-size="10.00">WordQuizzle.DataBase</text>
<polyline fill="none" stroke="black" points="150.5,-209.5 269.5,-209.5 "/>
<text text-anchor="middle" x="210" y="-197.5" font-family="Helvetica,sans-Serif" font-size="10.00"> </text>
<polyline fill="none" stroke="black" points="150.5,-190.5 269.5,-190.5 "/>
<text text-anchor="start" x="158.5" y="-178.5" font-family="Helvetica,sans-Serif" font-size="10.00">+ checkUser()</text>
<text text-anchor="start" x="158.5" y="-167.5" font-family="Helvetica,sans-Serif" font-size="10.00">+ getUser()</text>
<text text-anchor="start" x="158.5" y="-156.5" font-family="Helvetica,sans-Serif" font-size="10.00">+ newUser()</text>
<text text-anchor="start" x="158.5" y="-145.5" font-family="Helvetica,sans-Serif" font-size="10.00">+ modifyScore()</text>
<text text-anchor="start" x="158.5" y="-134.5" font-family="Helvetica,sans-Serif" font-size="10.00">+ link()</text>
</a>
</g>
</g>
<!-- Node4&#45;&gt;Node1 -->
<g id="edge3" class="edge"><title>Node4&#45;&gt;Node1</title>
<path fill="none" stroke="#404040" d="M196.799,-127.131C193.731,-115.54 190.463,-103.192 187.386,-91.5712"/>
<polygon fill="none" stroke="#404040" points="187.338,-91.3878 181.936,-86.6111 184.267,-79.7873 189.669,-84.5639 187.338,-91.3878"/>
<text text-anchor="middle" x="200.5" y="-101" font-family="Helvetica,sans-Serif" font-size="10.00"> &#45;db</text>
</g>
</g>
</svg>
