<?xml version="1.0" encoding="UTF-8" standalone="no"?>
<!DOCTYPE svg PUBLIC "-//W3C//DTD SVG 1.1//EN"
 "http://www.w3.org/Graphics/SVG/1.1/DTD/svg11.dtd">
<!-- Generated by graphviz version 2.38.0 (20140413.2041)
 -->
<!-- Title: WordQuizzle.Tester.run Pages: 1 -->
<svg width="599pt" height="361pt"
 viewBox="0.00 0.00 599.00 361.00" xmlns="http://www.w3.org/2000/svg" xmlns:xlink="http://www.w3.org/1999/xlink">
<g id="graph0" class="graph" transform="scale(1 1) rotate(0) translate(4 357)">
<title>WordQuizzle.Tester.run</title>
<polygon fill="white" stroke="none" points="-4,4 -4,-357 595,-357 595,4 -4,4"/>
<!-- Node1 -->
<g id="node1" class="node"><title>Node1</title>
<g id="a_node1"><a xlink:title="Esegue un test sul server.">
<polygon fill="#bfbfbf" stroke="black" points="0,-167 0,-186 119,-186 119,-167 0,-167"/>
<text text-anchor="middle" x="59.5" y="-174" font-family="Helvetica,sans-Serif" font-size="10.00">WordQuizzle.Tester.run</text>
</a>
</g>
</g>
<!-- Node2 -->
<g id="node2" class="node"><title>Node2</title>
<g id="a_node2"><a xlink:href="class_word_quizzle_1_1_word_quizzle_client.html#a91d982387c02c9ccae681f4a7d500a75" target="_top" xlink:title="Aggiunge un utente alla lista di amici di user.">
<polygon fill="white" stroke="black" points="155.5,-322.5 155.5,-352.5 351.5,-352.5 351.5,-322.5 155.5,-322.5"/>
<text text-anchor="start" x="163.5" y="-340.5" font-family="Helvetica,sans-Serif" font-size="10.00">WordQuizzle.WordQuizzleClient.aggiungi</text>
<text text-anchor="middle" x="253.5" y="-329.5" font-family="Helvetica,sans-Serif" font-size="10.00">_amico</text>
</a>
</g>
</g>
<!-- Node1&#45;&gt;Node2 -->
<g id="edge1" class="edge"><title>Node1&#45;&gt;Node2</title>
<path fill="none" stroke="midnightblue" d="M64.3402,-186.17C74.8097,-211.235 106.361,-278.703 155,-312.5 157.886,-314.505 160.92,-316.35 164.061,-318.046"/>
<polygon fill="midnightblue" stroke="midnightblue" points="162.636,-321.245 173.163,-322.447 165.683,-314.943 162.636,-321.245"/>
</g>
<!-- Node4 -->
<g id="node4" class="node"><title>Node4</title>
<g id="a_node4"><a xlink:href="class_word_quizzle_1_1_word_quizzle_client.html#a808fea05e1dc44069f476eebd3a39ada" target="_top" xlink:title="Verifica se ci sono richieste di sfida per user.">
<polygon fill="white" stroke="black" points="155,-273.5 155,-303.5 352,-303.5 352,-273.5 155,-273.5"/>
<text text-anchor="start" x="163" y="-291.5" font-family="Helvetica,sans-Serif" font-size="10.00">WordQuizzle.WordQuizzleClient.controlla</text>
<text text-anchor="middle" x="253.5" y="-280.5" font-family="Helvetica,sans-Serif" font-size="10.00">Richieste</text>
</a>
</g>
</g>
<!-- Node1&#45;&gt;Node4 -->
<g id="edge3" class="edge"><title>Node1&#45;&gt;Node4</title>
<path fill="none" stroke="midnightblue" d="M68.2109,-186.262C83.0312,-204.345 117.375,-243.065 155,-263.5 159.24,-265.803 163.699,-267.899 168.281,-269.808"/>
<polygon fill="midnightblue" stroke="midnightblue" points="167.238,-273.156 177.828,-273.467 169.743,-266.62 167.238,-273.156"/>
</g>
<!-- Node6 -->
<g id="node6" class="node"><title>Node6</title>
<g id="a_node6"><a xlink:href="class_word_quizzle_1_1_word_quizzle_client.html#a601f27bc3078f4c7d43417481f4c1353" target="_top" xlink:title="Richiede la lista degli amici di user.">
<polygon fill="white" stroke="black" points="164.5,-224.5 164.5,-254.5 342.5,-254.5 342.5,-224.5 164.5,-224.5"/>
<text text-anchor="start" x="172.5" y="-242.5" font-family="Helvetica,sans-Serif" font-size="10.00">WordQuizzle.WordQuizzleClient.lista</text>
<text text-anchor="middle" x="253.5" y="-231.5" font-family="Helvetica,sans-Serif" font-size="10.00">_amici</text>
</a>
</g>
</g>
<!-- Node1&#45;&gt;Node6 -->
<g id="edge5" class="edge"><title>Node1&#45;&gt;Node6</title>
<path fill="none" stroke="midnightblue" d="M81.9705,-186.075C100.932,-194.303 129.458,-206.13 155,-214.5 162.818,-217.062 171.057,-219.527 179.3,-221.844"/>
<polygon fill="midnightblue" stroke="midnightblue" points="178.381,-225.221 188.951,-224.493 180.234,-218.471 178.381,-225.221"/>
</g>
<!-- Node8 -->
<g id="node8" class="node"><title>Node8</title>
<g id="a_node8"><a xlink:href="class_word_quizzle_1_1_word_quizzle_client.html#aa87c179f3a0a6ab57c2b74960c95a626" target="_top" xlink:title="Effettua il login.">
<polygon fill="white" stroke="black" points="163.5,-186 163.5,-205 343.5,-205 343.5,-186 163.5,-186"/>
<text text-anchor="middle" x="253.5" y="-193" font-family="Helvetica,sans-Serif" font-size="10.00">WordQuizzle.WordQuizzleClient.login</text>
</a>
</g>
</g>
<!-- Node1&#45;&gt;Node8 -->
<g id="edge7" class="edge"><title>Node1&#45;&gt;Node8</title>
<path fill="none" stroke="midnightblue" d="M119.15,-182.304C129.982,-183.376 141.566,-184.522 153.215,-185.675"/>
<polygon fill="midnightblue" stroke="midnightblue" points="153.155,-189.186 163.451,-186.688 153.844,-182.22 153.155,-189.186"/>
</g>
<!-- Node10 -->
<g id="node10" class="node"><title>Node10</title>
<g id="a_node10"><a xlink:href="class_word_quizzle_1_1_word_quizzle_client.html#a50468f5e79e6bba9efc2e9fd19493345" target="_top" xlink:title="Effettua il logout di user.">
<polygon fill="white" stroke="black" points="160.5,-148 160.5,-167 346.5,-167 346.5,-148 160.5,-148"/>
<text text-anchor="middle" x="253.5" y="-155" font-family="Helvetica,sans-Serif" font-size="10.00">WordQuizzle.WordQuizzleClient.logout</text>
</a>
</g>
</g>
<!-- Node1&#45;&gt;Node10 -->
<g id="edge9" class="edge"><title>Node1&#45;&gt;Node10</title>
<path fill="none" stroke="midnightblue" d="M119.15,-170.696C129.011,-169.72 139.496,-168.683 150.085,-167.635"/>
<polygon fill="midnightblue" stroke="midnightblue" points="150.645,-171.097 160.252,-166.629 149.956,-164.131 150.645,-171.097"/>
</g>
<!-- Node12 -->
<g id="node12" class="node"><title>Node12</title>
<g id="a_node12"><a xlink:href="class_word_quizzle_1_1_word_quizzle_client.html#a155c2dca547e63f1ba07589525ccfd75" target="_top" xlink:title="Richiede la classifica dell&#39;user e dei suoi amici.">
<polygon fill="white" stroke="black" points="158.5,-98.5 158.5,-128.5 348.5,-128.5 348.5,-98.5 158.5,-98.5"/>
<text text-anchor="start" x="166.5" y="-116.5" font-family="Helvetica,sans-Serif" font-size="10.00">WordQuizzle.WordQuizzleClient.mostra</text>
<text text-anchor="middle" x="253.5" y="-105.5" font-family="Helvetica,sans-Serif" font-size="10.00">_classifica</text>
</a>
</g>
</g>
<!-- Node1&#45;&gt;Node12 -->
<g id="edge11" class="edge"><title>Node1&#45;&gt;Node12</title>
<path fill="none" stroke="midnightblue" d="M81.9705,-166.925C100.932,-158.697 129.458,-146.87 155,-138.5 162.818,-135.938 171.057,-133.473 179.3,-131.156"/>
<polygon fill="midnightblue" stroke="midnightblue" points="180.234,-134.529 188.951,-128.507 178.381,-127.779 180.234,-134.529"/>
</g>
<!-- Node14 -->
<g id="node14" class="node"><title>Node14</title>
<g id="a_node14"><a xlink:href="class_word_quizzle_1_1_word_quizzle_client.html#a22e0d1e5461e49703357d34b50cf70b8" target="_top" xlink:title="Richiede il punteggio di user.">
<polygon fill="white" stroke="black" points="158.5,-49.5 158.5,-79.5 348.5,-79.5 348.5,-49.5 158.5,-49.5"/>
<text text-anchor="start" x="166.5" y="-67.5" font-family="Helvetica,sans-Serif" font-size="10.00">WordQuizzle.WordQuizzleClient.mostra</text>
<text text-anchor="middle" x="253.5" y="-56.5" font-family="Helvetica,sans-Serif" font-size="10.00">_punteggio</text>
</a>
</g>
</g>
<!-- Node1&#45;&gt;Node14 -->
<g id="edge13" class="edge"><title>Node1&#45;&gt;Node14</title>
<path fill="none" stroke="midnightblue" d="M67.9372,-166.873C82.555,-148.644 116.938,-109.075 155,-88.5 158.48,-86.6186 162.11,-84.8822 165.835,-83.2798"/>
<polygon fill="midnightblue" stroke="midnightblue" points="167.239,-86.4885 175.26,-79.5666 164.673,-79.9758 167.239,-86.4885"/>
</g>
<!-- Node16 -->
<g id="node16" class="node"><title>Node16</title>
<g id="a_node16"><a xlink:href="class_word_quizzle_1_1_word_quizzle_client.html#a98206956fc50ef3951d27f2a89fb21fa" target="_top" xlink:title="Registra un nuovo utente.">
<polygon fill="white" stroke="black" points="157.5,-0.5 157.5,-30.5 349.5,-30.5 349.5,-0.5 157.5,-0.5"/>
<text text-anchor="start" x="165.5" y="-18.5" font-family="Helvetica,sans-Serif" font-size="10.00">WordQuizzle.WordQuizzleClient.registra</text>
<text text-anchor="middle" x="253.5" y="-7.5" font-family="Helvetica,sans-Serif" font-size="10.00">_utente</text>
</a>
</g>
</g>
<!-- Node1&#45;&gt;Node16 -->
<g id="edge15" class="edge"><title>Node1&#45;&gt;Node16</title>
<path fill="none" stroke="midnightblue" d="M64.3006,-166.733C74.6742,-141.419 106.014,-73.3127 155,-39.5 157.275,-37.9295 159.643,-36.4614 162.082,-35.0892"/>
<polygon fill="midnightblue" stroke="midnightblue" points="163.82,-38.1336 171.195,-30.5277 160.686,-31.874 163.82,-38.1336"/>
</g>
<!-- Node3 -->
<g id="node3" class="node"><title>Node3</title>
<g id="a_node3"><a xlink:href="interface_word_quizzle_1_1_word_quizzle_service.html#a92f4e390ec5be3e56f73d2c98787a302" target="_top" xlink:title="Aggiunge un utente alla lista di amici di nickUtente.">
<polygon fill="white" stroke="black" points="388,-322.5 388,-352.5 591,-352.5 591,-322.5 388,-322.5"/>
<text text-anchor="start" x="396" y="-340.5" font-family="Helvetica,sans-Serif" font-size="10.00">WordQuizzle.WordQuizzleService.aggiungi</text>
<text text-anchor="middle" x="489.5" y="-329.5" font-family="Helvetica,sans-Serif" font-size="10.00">_amico</text>
</a>
</g>
</g>
<!-- Node2&#45;&gt;Node3 -->
<g id="edge2" class="edge"><title>Node2&#45;&gt;Node3</title>
<path fill="none" stroke="midnightblue" d="M351.704,-337.5C360.278,-337.5 368.998,-337.5 377.673,-337.5"/>
<polygon fill="midnightblue" stroke="midnightblue" points="377.824,-341 387.824,-337.5 377.824,-334 377.824,-341"/>
</g>
<!-- Node5 -->
<g id="node5" class="node"><title>Node5</title>
<g id="a_node5"><a xlink:href="interface_word_quizzle_1_1_word_quizzle_service.html#a12eccd4ef95e4ec5a7591b6038429eda" target="_top" xlink:title="Verifica se ci sono richieste di sfida per nickUtente.">
<polygon fill="white" stroke="black" points="388,-273.5 388,-303.5 591,-303.5 591,-273.5 388,-273.5"/>
<text text-anchor="start" x="396" y="-291.5" font-family="Helvetica,sans-Serif" font-size="10.00">WordQuizzle.WordQuizzleService.controlla</text>
<text text-anchor="middle" x="489.5" y="-280.5" font-family="Helvetica,sans-Serif" font-size="10.00">Richieste</text>
</a>
</g>
</g>
<!-- Node4&#45;&gt;Node5 -->
<g id="edge4" class="edge"><title>Node4&#45;&gt;Node5</title>
<path fill="none" stroke="midnightblue" d="M352.043,-288.5C360.515,-288.5 369.128,-288.5 377.696,-288.5"/>
<polygon fill="midnightblue" stroke="midnightblue" points="377.723,-292 387.723,-288.5 377.723,-285 377.723,-292"/>
</g>
<!-- Node7 -->
<g id="node7" class="node"><title>Node7</title>
<g id="a_node7"><a xlink:href="interface_word_quizzle_1_1_word_quizzle_service.html#a840ff7492e52f3917106fdea99c6e0f5" target="_top" xlink:title="Richiede la lista degli amici di nickUtente.">
<polygon fill="white" stroke="black" points="397,-224.5 397,-254.5 582,-254.5 582,-224.5 397,-224.5"/>
<text text-anchor="start" x="405" y="-242.5" font-family="Helvetica,sans-Serif" font-size="10.00">WordQuizzle.WordQuizzleService.lista</text>
<text text-anchor="middle" x="489.5" y="-231.5" font-family="Helvetica,sans-Serif" font-size="10.00">_amici</text>
</a>
</g>
</g>
<!-- Node6&#45;&gt;Node7 -->
<g id="edge6" class="edge"><title>Node6&#45;&gt;Node7</title>
<path fill="none" stroke="midnightblue" d="M342.632,-239.5C357.053,-239.5 372.098,-239.5 386.814,-239.5"/>
<polygon fill="midnightblue" stroke="midnightblue" points="386.938,-243 396.938,-239.5 386.938,-236 386.938,-243"/>
</g>
<!-- Node9 -->
<g id="node9" class="node"><title>Node9</title>
<g id="a_node9"><a xlink:href="interface_word_quizzle_1_1_word_quizzle_service.html#abae2cda062f36f0e54c9d13589c53027" target="_top" xlink:title="Effettua il login.">
<polygon fill="white" stroke="black" points="396,-186 396,-205 583,-205 583,-186 396,-186"/>
<text text-anchor="middle" x="489.5" y="-193" font-family="Helvetica,sans-Serif" font-size="10.00">WordQuizzle.WordQuizzleService.login</text>
</a>
</g>
</g>
<!-- Node8&#45;&gt;Node9 -->
<g id="edge8" class="edge"><title>Node8&#45;&gt;Node9</title>
<path fill="none" stroke="midnightblue" d="M343.633,-195.5C357.352,-195.5 371.613,-195.5 385.602,-195.5"/>
<polygon fill="midnightblue" stroke="midnightblue" points="385.728,-199 395.728,-195.5 385.728,-192 385.728,-199"/>
</g>
<!-- Node11 -->
<g id="node11" class="node"><title>Node11</title>
<g id="a_node11"><a xlink:href="interface_word_quizzle_1_1_word_quizzle_service.html#afad4dcc98ed2305c17a64146548c1100" target="_top" xlink:title="Effettua il logout.">
<polygon fill="white" stroke="black" points="393,-148 393,-167 586,-167 586,-148 393,-148"/>
<text text-anchor="middle" x="489.5" y="-155" font-family="Helvetica,sans-Serif" font-size="10.00">WordQuizzle.WordQuizzleService.logout</text>
</a>
</g>
</g>
<!-- Node10&#45;&gt;Node11 -->
<g id="edge10" class="edge"><title>Node10&#45;&gt;Node11</title>
<path fill="none" stroke="midnightblue" d="M346.647,-157.5C358.537,-157.5 370.787,-157.5 382.872,-157.5"/>
<polygon fill="midnightblue" stroke="midnightblue" points="382.975,-161 392.975,-157.5 382.974,-154 382.975,-161"/>
</g>
<!-- Node13 -->
<g id="node13" class="node"><title>Node13</title>
<g id="a_node13"><a xlink:href="interface_word_quizzle_1_1_word_quizzle_service.html#a51f8d07d06959a1719fd7e7f4bee1e75" target="_top" xlink:title="Richiede la classifica dell&#39;utente e dei suoi amici.">
<polygon fill="white" stroke="black" points="391,-98.5 391,-128.5 588,-128.5 588,-98.5 391,-98.5"/>
<text text-anchor="start" x="399" y="-116.5" font-family="Helvetica,sans-Serif" font-size="10.00">WordQuizzle.WordQuizzleService.mostra</text>
<text text-anchor="middle" x="489.5" y="-105.5" font-family="Helvetica,sans-Serif" font-size="10.00">_classifica</text>
</a>
</g>
</g>
<!-- Node12&#45;&gt;Node13 -->
<g id="edge12" class="edge"><title>Node12&#45;&gt;Node13</title>
<path fill="none" stroke="midnightblue" d="M348.665,-113.5C359.155,-113.5 369.9,-113.5 380.545,-113.5"/>
<polygon fill="midnightblue" stroke="midnightblue" points="380.708,-117 390.708,-113.5 380.708,-110 380.708,-117"/>
</g>
<!-- Node15 -->
<g id="node15" class="node"><title>Node15</title>
<g id="a_node15"><a xlink:href="interface_word_quizzle_1_1_word_quizzle_service.html#aa52c8d6d7cb293c01798f169eb4d51d3" target="_top" xlink:title="Richiede il punteggio di nickUtente.">
<polygon fill="white" stroke="black" points="391,-49.5 391,-79.5 588,-79.5 588,-49.5 391,-49.5"/>
<text text-anchor="start" x="399" y="-67.5" font-family="Helvetica,sans-Serif" font-size="10.00">WordQuizzle.WordQuizzleService.mostra</text>
<text text-anchor="middle" x="489.5" y="-56.5" font-family="Helvetica,sans-Serif" font-size="10.00">_punteggio</text>
</a>
</g>
</g>
<!-- Node14&#45;&gt;Node15 -->
<g id="edge14" class="edge"><title>Node14&#45;&gt;Node15</title>
<path fill="none" stroke="midnightblue" d="M348.665,-64.5C359.155,-64.5 369.9,-64.5 380.545,-64.5"/>
<polygon fill="midnightblue" stroke="midnightblue" points="380.708,-68.0001 390.708,-64.5 380.708,-61.0001 380.708,-68.0001"/>
</g>
<!-- Node17 -->
<g id="node17" class="node"><title>Node17</title>
<g id="a_node17"><a xlink:href="interface_word_quizzle_1_1_word_quizzle_service.html#a4abc4590c1b6009ec9afb7ba1a1022b1" target="_top" xlink:title="Registra un utente.">
<polygon fill="white" stroke="black" points="390,-0.5 390,-30.5 589,-30.5 589,-0.5 390,-0.5"/>
<text text-anchor="start" x="398" y="-18.5" font-family="Helvetica,sans-Serif" font-size="10.00">WordQuizzle.WordQuizzleService.registra</text>
<text text-anchor="middle" x="489.5" y="-7.5" font-family="Helvetica,sans-Serif" font-size="10.00">_utente</text>
</a>
</g>
</g>
<!-- Node16&#45;&gt;Node17 -->
<g id="edge16" class="edge"><title>Node16&#45;&gt;Node17</title>
<path fill="none" stroke="midnightblue" d="M349.677,-15.5C359.641,-15.5 369.824,-15.5 379.924,-15.5"/>
<polygon fill="midnightblue" stroke="midnightblue" points="379.984,-19.0001 389.984,-15.5 379.983,-12.0001 379.984,-19.0001"/>
</g>
</g>
</svg>
