<?xml version="1.0" encoding="UTF-8" standalone="no"?>
<!DOCTYPE svg PUBLIC "-//W3C//DTD SVG 1.1//EN"
 "http://www.w3.org/Graphics/SVG/1.1/DTD/svg11.dtd">
<!-- Generated by graphviz version 2.38.0 (20140413.2041)
 -->
<!-- Title: WQCli.main Pages: 1 -->
<!--zoomable 856 -->
<svg id="main" version="1.1" xmlns="http://www.w3.org/2000/svg" xmlns:xlink="http://www.w3.org/1999/xlink" xml:space="preserve" onload="init(evt)">
<style type="text/css"><![CDATA[
.edge:hover path { stroke: red; }
.edge:hover polygon { stroke: red; fill: red; }
]]></style>
<script type="text/javascript"><![CDATA[
var edges = document.getElementsByTagName('g');
if (edges && edges.length) {
  for (var i=0;i<edges.length;i++) {
    if (edges[i].id.substr(0,4)=='edge') {
      edges[i].setAttribute('class','edge');
    }
  }
}
]]></script>
        <defs>
                <circle id="rim" cx="0" cy="0" r="7"/>
                <circle id="rim2" cx="0" cy="0" r="3.5"/>
                <g id="zoomPlus">
                        <use xlink:href="#rim" fill="#404040">
                                <set attributeName="fill" to="#808080" begin="zoomplus.mouseover" end="zoomplus.mouseout"/>
                        </use>
                        <path d="M-4,0h8M0,-4v8" fill="none" stroke="white" stroke-width="1.5" pointer-events="none"/>
                </g>
                <g id="zoomMin">
                        <use xlink:href="#rim" fill="#404040">
                                <set attributeName="fill" to="#808080" begin="zoomminus.mouseover" end="zoomminus.mouseout"/>
                        </use>
                        <path d="M-4,0h8" fill="none" stroke="white" stroke-width="1.5" pointer-events="none"/>
                </g>
                <g id="dirArrow">
                        <path fill="none" stroke="white" stroke-width="1.5" d="M0,-3.0v7 M-2.5,-0.5L0,-3.0L2.5,-0.5"/>
                </g>
               <g id="resetDef">
                       <use xlink:href="#rim2" fill="#404040">
                               <set attributeName="fill" to="#808080" begin="reset.mouseover" end="reset.mouseout"/>
                       </use>
               </g>
        </defs>

<script type="text/javascript">
var viewWidth = 861;
var viewHeight = 856;
var sectionId = 'dynsection-11';
</script>
<script xlink:href="svgpan.js"/>
<svg id="graph" class="graph">
<g id="viewport">
<title>WQCli.main</title>
<polygon fill="white" stroke="none" points="-4,4 -4,-852 857,-852 857,4 -4,4"/>
<!-- Node1 -->
<g id="node1" class="node"><title>Node1</title>
<g id="a_node1"><a xlink:title="Gestisce l&#39;interazione con l&#39;utente.">
<polygon fill="#bfbfbf" stroke="black" points="0,-608 0,-627 69,-627 69,-608 0,-608"/>
<text text-anchor="middle" x="34.5" y="-615" font-family="Helvetica,sans-Serif" font-size="10.00">WQCli.main</text>
</a>
</g>
</g>
<!-- Node2 -->
<g id="node2" class="node"><title>Node2</title>
<g id="a_node2"><a xlink:href="class_word_quizzle_client.html#aff2ae6478070d04f0864cfffe73e6b27" target="_top" xlink:title="Verifica se ci sono richieste di sfida per user.">
<polygon fill="white" stroke="black" points="105,-765.5 105,-795.5 242,-795.5 242,-765.5 105,-765.5"/>
<text text-anchor="start" x="113" y="-783.5" font-family="Helvetica,sans-Serif" font-size="10.00">WordQuizzleClient.controlla</text>
<text text-anchor="middle" x="173.5" y="-772.5" font-family="Helvetica,sans-Serif" font-size="10.00">Richieste</text>
</a>
</g>
</g>
<!-- Node1&#45;&gt;Node2 -->
<g id="edge1" class="edge"><title>Node1&#45;&gt;Node2</title>
<path fill="none" stroke="midnightblue" d="M39.7933,-627.209C49.3225,-648.02 73.8778,-697.768 105,-731.5 114.703,-742.017 126.972,-751.715 138.381,-759.66"/>
<polygon fill="midnightblue" stroke="midnightblue" points="136.63,-762.7 146.88,-765.378 140.537,-756.892 136.63,-762.7"/>
</g>
<!-- Node4 -->
<g id="node4" class="node"><title>Node4</title>
<g id="a_node4"><a xlink:href="class_w_q_cli.html#a3133826549b91dd40c474dc01dd172ba" target="_top" xlink:title="Restituisce il client che gestisce le richieste.">
<polygon fill="white" stroke="black" points="127,-703 127,-722 220,-722 220,-703 127,-703"/>
<text text-anchor="middle" x="173.5" y="-710" font-family="Helvetica,sans-Serif" font-size="10.00">WQCli.getService</text>
</a>
</g>
</g>
<!-- Node1&#45;&gt;Node4 -->
<g id="edge3" class="edge"><title>Node1&#45;&gt;Node4</title>
<path fill="none" stroke="midnightblue" d="M41.5485,-627.006C52.3151,-643.145 76.3824,-675.867 105,-693.5 108.835,-695.863 112.971,-697.94 117.242,-699.764"/>
<polygon fill="midnightblue" stroke="midnightblue" points="116.149,-703.092 126.741,-703.366 118.632,-696.547 116.149,-703.092"/>
</g>
<!-- Node5 -->
<g id="node5" class="node"><title>Node5</title>
<g id="a_node5"><a xlink:href="class_w_q_cli.html#a176225dbab1800ff2b4693ea7654b9b0" target="_top" xlink:title="Restistuisce una stringa contenente informazioni riguardo i comandi da utilizzare.">
<polygon fill="white" stroke="black" points="324,-513 324,-532 390,-532 390,-513 324,-513"/>
<text text-anchor="middle" x="357" y="-520" font-family="Helvetica,sans-Serif" font-size="10.00">WQCli.help</text>
</a>
</g>
</g>
<!-- Node1&#45;&gt;Node5 -->
<g id="edge4" class="edge"><title>Node1&#45;&gt;Node5</title>
<path fill="none" stroke="midnightblue" d="M67.6982,-607.956C126.011,-590.672 249.057,-554.199 313.93,-534.97"/>
<polygon fill="midnightblue" stroke="midnightblue" points="315.23,-538.235 323.823,-532.038 313.241,-531.524 315.23,-538.235"/>
</g>
<!-- Node15 -->
<g id="node15" class="node"><title>Node15</title>
<g id="a_node15"><a xlink:href="class_w_q_cli.html#ac8782ba29a63a974f4e17365f8817edd" target="_top" xlink:title="Gestisce una richiesta di sfida.">
<polygon fill="white" stroke="black" points="117,-665 117,-684 230,-684 230,-665 117,-665"/>
<text text-anchor="middle" x="173.5" y="-672" font-family="Helvetica,sans-Serif" font-size="10.00">WQCli.nuovaRichiesta</text>
</a>
</g>
</g>
<!-- Node1&#45;&gt;Node15 -->
<g id="edge14" class="edge"><title>Node1&#45;&gt;Node15</title>
<path fill="none" stroke="midnightblue" d="M58.4307,-627.041C80.7565,-636.329 114.902,-650.536 140.018,-660.986"/>
<polygon fill="midnightblue" stroke="midnightblue" points="138.917,-664.318 149.494,-664.928 141.606,-657.855 138.917,-664.318"/>
</g>
<!-- Node24 -->
<g id="node24" class="node"><title>Node24</title>
<g id="a_node24"><a xlink:href="class_w_q_cli.html#a69d5ad39deabe879509740cc27efb3f3" target="_top" xlink:title="Gestisce le richieste dell&#39;utente.">
<polygon fill="white" stroke="black" points="137.5,-323 137.5,-342 209.5,-342 209.5,-323 137.5,-323"/>
<text text-anchor="middle" x="173.5" y="-330" font-family="Helvetica,sans-Serif" font-size="10.00">WQCli.parse</text>
</a>
</g>
</g>
<!-- Node1&#45;&gt;Node24 -->
<g id="edge23" class="edge"><title>Node1&#45;&gt;Node24</title>
<path fill="none" stroke="midnightblue" d="M40.2159,-607.69C60.0596,-566.409 136.971,-406.412 163.468,-351.289"/>
<polygon fill="midnightblue" stroke="midnightblue" points="166.626,-352.798 167.804,-342.269 160.317,-349.765 166.626,-352.798"/>
</g>
<!-- Node41 -->
<g id="node41" class="node"><title>Node41</title>
<g id="a_node41"><a xlink:href="class_w_q_cli.html#a62b09aea66fe24791cfb44d356a24a08" target="_top" xlink:title="Crea un client con interfaccia a linea di comando.">
<polygon fill="white" stroke="black" points="135,-285 135,-304 212,-304 212,-285 135,-285"/>
<text text-anchor="middle" x="173.5" y="-292" font-family="Helvetica,sans-Serif" font-size="10.00">WQCli.WQCli</text>
</a>
</g>
</g>
<!-- Node1&#45;&gt;Node41 -->
<g id="edge45" class="edge"><title>Node1&#45;&gt;Node41</title>
<path fill="none" stroke="midnightblue" d="M36.4022,-607.78C40.9504,-560.812 62.8275,-357.819 105,-313.5 110.488,-307.733 117.576,-303.672 125.089,-300.823"/>
<polygon fill="midnightblue" stroke="midnightblue" points="126.233,-304.133 134.745,-297.824 124.156,-297.448 126.233,-304.133"/>
</g>
<!-- Node3 -->
<g id="node3" class="node"><title>Node3</title>
<g id="a_node3"><a xlink:href="interface_word_quizzle_service.html#af3a47eb252f1b6e8a80e90568c87b98a" target="_top" xlink:title="Verifica se ci sono richieste di sfida per nickUtente.">
<polygon fill="white" stroke="black" points="285,-790.5 285,-820.5 429,-820.5 429,-790.5 285,-790.5"/>
<text text-anchor="start" x="293" y="-808.5" font-family="Helvetica,sans-Serif" font-size="10.00">WordQuizzleService.controlla</text>
<text text-anchor="middle" x="357" y="-797.5" font-family="Helvetica,sans-Serif" font-size="10.00">Richieste</text>
</a>
</g>
</g>
<!-- Node2&#45;&gt;Node3 -->
<g id="edge2" class="edge"><title>Node2&#45;&gt;Node3</title>
<path fill="none" stroke="midnightblue" d="M242.084,-789.809C252.733,-791.276 263.838,-792.805 274.757,-794.309"/>
<polygon fill="midnightblue" stroke="midnightblue" points="274.33,-797.784 284.714,-795.681 275.285,-790.849 274.33,-797.784"/>
</g>
<!-- Node6 -->
<g id="node6" class="node"><title>Node6</title>
<g id="a_node6"><a xlink:href="class_w_q_cli.html#a9ce93c9d50da5779eb8b1dfe27c63470" target="_top" xlink:title="Restistuisce una stringa contenente informazioni riguardo l&#39;aggiunta di un amico.">
<polygon fill="white" stroke="black" points="498.5,-437 498.5,-456 614.5,-456 614.5,-437 498.5,-437"/>
<text text-anchor="middle" x="556.5" y="-444" font-family="Helvetica,sans-Serif" font-size="10.00">WQCli.aggiungi_amico</text>
</a>
</g>
</g>
<!-- Node5&#45;&gt;Node6 -->
<g id="edge5" class="edge"><title>Node5&#45;&gt;Node6</title>
<path fill="none" stroke="midnightblue" d="M374.066,-512.911C395.656,-500.393 435.541,-478.548 472,-465.5 479.283,-462.893 487.055,-460.561 494.816,-458.5"/>
<polygon fill="midnightblue" stroke="midnightblue" points="495.762,-461.871 504.604,-456.034 494.051,-455.084 495.762,-461.871"/>
</g>
<!-- Node7 -->
<g id="node7" class="node"><title>Node7</title>
<g id="a_node7"><a xlink:href="class_w_q_cli.html#a025cbebffcc3fad5359e76b031349d86" target="_top" xlink:title="Restistuisce una stringa contenente informazioni riguardo la visualizzazione della lista amici.">
<polygon fill="white" stroke="black" points="509,-475 509,-494 604,-494 604,-475 509,-475"/>
<text text-anchor="middle" x="556.5" y="-482" font-family="Helvetica,sans-Serif" font-size="10.00">WQCli.lista_amici</text>
</a>
</g>
</g>
<!-- Node5&#45;&gt;Node7 -->
<g id="edge6" class="edge"><title>Node5&#45;&gt;Node7</title>
<path fill="none" stroke="midnightblue" d="M390.171,-516.31C419.519,-510.663 463.552,-502.191 498.798,-495.41"/>
<polygon fill="midnightblue" stroke="midnightblue" points="499.798,-498.782 508.956,-493.455 498.475,-491.908 499.798,-498.782"/>
</g>
<!-- Node8 -->
<g id="node8" class="node"><title>Node8</title>
<g id="a_node8"><a xlink:href="class_w_q_cli.html#a634b0cc22bd569d83562be0106fb695e" target="_top" xlink:title="Restistuisce una stringa contenente informazioni riguardo il login.">
<polygon fill="white" stroke="black" points="522.5,-399 522.5,-418 590.5,-418 590.5,-399 522.5,-399"/>
<text text-anchor="middle" x="556.5" y="-406" font-family="Helvetica,sans-Serif" font-size="10.00">WQCli.login</text>
</a>
</g>
</g>
<!-- Node5&#45;&gt;Node8 -->
<g id="edge7" class="edge"><title>Node5&#45;&gt;Node8</title>
<path fill="none" stroke="midnightblue" d="M366.392,-512.979C383.958,-493.679 426.736,-449.883 472,-427.5 484.425,-421.356 498.875,-417.167 512.227,-414.324"/>
<polygon fill="midnightblue" stroke="midnightblue" points="513.018,-417.736 522.172,-412.402 511.689,-410.863 513.018,-417.736"/>
</g>
<!-- Node9 -->
<g id="node9" class="node"><title>Node9</title>
<g id="a_node9"><a xlink:href="class_w_q_cli.html#a086e67f85b13d6df039356bada52e867" target="_top" xlink:title="Restistuisce una stringa contenente informazioni riguardo il logout.">
<polygon fill="white" stroke="black" points="519.5,-665 519.5,-684 593.5,-684 593.5,-665 519.5,-665"/>
<text text-anchor="middle" x="556.5" y="-672" font-family="Helvetica,sans-Serif" font-size="10.00">WQCli.logout</text>
</a>
</g>
</g>
<!-- Node5&#45;&gt;Node9 -->
<g id="edge8" class="edge"><title>Node5&#45;&gt;Node9</title>
<path fill="none" stroke="midnightblue" d="M363.209,-532.035C377.23,-556.736 418.362,-623.132 472,-655.5 483.249,-662.288 496.683,-666.654 509.452,-669.461"/>
<polygon fill="midnightblue" stroke="midnightblue" points="509.014,-672.941 519.495,-671.394 510.337,-666.067 509.014,-672.941"/>
</g>
<!-- Node10 -->
<g id="node10" class="node"><title>Node10</title>
<g id="a_node10"><a xlink:href="class_w_q_cli.html#abc1d3caffa86269b8250f63d67b92124" target="_top" xlink:title="Restistuisce una stringa contenente informazioni riguardo la visualizzazione della classifica.">
<polygon fill="white" stroke="black" points="494.5,-627 494.5,-646 618.5,-646 618.5,-627 494.5,-627"/>
<text text-anchor="middle" x="556.5" y="-634" font-family="Helvetica,sans-Serif" font-size="10.00">WQCli.mostra_classifica</text>
</a>
</g>
</g>
<!-- Node5&#45;&gt;Node10 -->
<g id="edge9" class="edge"><title>Node5&#45;&gt;Node10</title>
<path fill="none" stroke="midnightblue" d="M366.392,-532.021C383.958,-551.321 426.736,-595.117 472,-617.5 476.914,-619.93 482.145,-622.054 487.5,-623.91"/>
<polygon fill="midnightblue" stroke="midnightblue" points="486.64,-627.309 497.23,-626.97 488.74,-620.631 486.64,-627.309"/>
</g>
<!-- Node11 -->
<g id="node11" class="node"><title>Node11</title>
<g id="a_node11"><a xlink:href="class_w_q_cli.html#ad95f50efdef9b6f1b88ad183d1b66ad4" target="_top" xlink:title="Restistuisce una stringa contenente informazioni riguardo la visualizzazione del proprio punteggio.">
<polygon fill="white" stroke="black" points="494,-589 494,-608 619,-608 619,-589 494,-589"/>
<text text-anchor="middle" x="556.5" y="-596" font-family="Helvetica,sans-Serif" font-size="10.00">WQCli.mostra_punteggio</text>
</a>
</g>
</g>
<!-- Node5&#45;&gt;Node11 -->
<g id="edge10" class="edge"><title>Node5&#45;&gt;Node11</title>
<path fill="none" stroke="midnightblue" d="M374.066,-532.089C395.656,-544.607 435.541,-566.452 472,-579.5 479.283,-582.107 487.055,-584.439 494.816,-586.5"/>
<polygon fill="midnightblue" stroke="midnightblue" points="494.051,-589.916 504.604,-588.966 495.762,-583.129 494.051,-589.916"/>
</g>
<!-- Node12 -->
<g id="node12" class="node"><title>Node12</title>
<g id="a_node12"><a xlink:href="class_w_q_cli.html#aa63c98f446f47fa785b7e84e75e63c6e" target="_top" xlink:title="Restistuisce una stringa contenente informazioni riguardo l&#39;uscita dal gioco.">
<polygon fill="white" stroke="black" points="524.5,-551 524.5,-570 588.5,-570 588.5,-551 524.5,-551"/>
<text text-anchor="middle" x="556.5" y="-558" font-family="Helvetica,sans-Serif" font-size="10.00">WQCli.quit</text>
</a>
</g>
</g>
<!-- Node5&#45;&gt;Node12 -->
<g id="edge11" class="edge"><title>Node5&#45;&gt;Node12</title>
<path fill="none" stroke="midnightblue" d="M390.171,-528.69C424.041,-535.207 477.471,-545.487 514.379,-552.588"/>
<polygon fill="midnightblue" stroke="midnightblue" points="513.839,-556.048 524.32,-554.501 515.162,-549.174 513.839,-556.048"/>
</g>
<!-- Node13 -->
<g id="node13" class="node"><title>Node13</title>
<g id="a_node13"><a xlink:href="class_w_q_cli.html#ace752b64fcaba97dbd9a8121d7c2d4e6" target="_top" xlink:title="Restistuisce una stringa contenente informazioni riguardo la registrazione di un utente.">
<polygon fill="white" stroke="black" points="500,-513 500,-532 613,-532 613,-513 500,-513"/>
<text text-anchor="middle" x="556.5" y="-520" font-family="Helvetica,sans-Serif" font-size="10.00">WQCli.registra_utente</text>
</a>
</g>
</g>
<!-- Node5&#45;&gt;Node13 -->
<g id="edge12" class="edge"><title>Node5&#45;&gt;Node13</title>
<path fill="none" stroke="midnightblue" d="M390.171,-522.5C417.016,-522.5 456.147,-522.5 489.602,-522.5"/>
<polygon fill="midnightblue" stroke="midnightblue" points="489.782,-526 499.782,-522.5 489.782,-519 489.782,-526"/>
</g>
<!-- Node14 -->
<g id="node14" class="node"><title>Node14</title>
<g id="a_node14"><a xlink:href="class_w_q_cli.html#ab0795a558c5c98f6f86121157b4cef8c" target="_top" xlink:title="Restistuisce una stringa contenente informazioni riguardo l&#39;invio di una sfida.">
<polygon fill="white" stroke="black" points="522.5,-361 522.5,-380 590.5,-380 590.5,-361 522.5,-361"/>
<text text-anchor="middle" x="556.5" y="-368" font-family="Helvetica,sans-Serif" font-size="10.00">WQCli.sfida</text>
</a>
</g>
</g>
<!-- Node5&#45;&gt;Node14 -->
<g id="edge13" class="edge"><title>Node5&#45;&gt;Node14</title>
<path fill="none" stroke="midnightblue" d="M363.209,-512.965C377.23,-488.264 418.362,-421.868 472,-389.5 484.071,-382.216 498.656,-377.721 512.237,-374.949"/>
<polygon fill="midnightblue" stroke="midnightblue" points="513.136,-378.344 522.368,-373.147 511.91,-371.452 513.136,-378.344"/>
</g>
<!-- Node16 -->
<g id="node16" class="node"><title>Node16</title>
<g id="a_node16"><a xlink:href="class_word_quizzle_client.html#a7be01cd53d19ff448ee3fb95ace8d919" target="_top" xlink:title="Accetta una richiesta di sfida inviata da nickAmico.">
<polygon fill="white" stroke="black" points="290.5,-741.5 290.5,-771.5 423.5,-771.5 423.5,-741.5 290.5,-741.5"/>
<text text-anchor="start" x="298.5" y="-759.5" font-family="Helvetica,sans-Serif" font-size="10.00">WordQuizzleClient.accetta</text>
<text text-anchor="middle" x="357" y="-748.5" font-family="Helvetica,sans-Serif" font-size="10.00">Sfida</text>
</a>
</g>
</g>
<!-- Node15&#45;&gt;Node16 -->
<g id="edge15" class="edge"><title>Node15&#45;&gt;Node16</title>
<path fill="none" stroke="midnightblue" d="M221.264,-684.094C228.484,-686.572 235.643,-689.66 242,-693.5 261.913,-705.529 258.305,-719.117 278,-731.5 281.198,-733.511 284.572,-735.373 288.051,-737.097"/>
<polygon fill="midnightblue" stroke="midnightblue" points="286.902,-740.418 297.457,-741.34 289.781,-734.037 286.902,-740.418"/>
</g>
<!-- Node18 -->
<g id="node18" class="node"><title>Node18</title>
<g id="a_node18"><a xlink:href="class_w_q_cli.html#a53002705ea7cea7d4ad300f9d9d5a120" target="_top" xlink:title="Gestisce una sfida.">
<polygon fill="white" stroke="black" points="321,-665 321,-684 393,-684 393,-665 321,-665"/>
<text text-anchor="middle" x="357" y="-672" font-family="Helvetica,sans-Serif" font-size="10.00">WQCli.game</text>
</a>
</g>
</g>
<!-- Node15&#45;&gt;Node18 -->
<g id="edge17" class="edge"><title>Node15&#45;&gt;Node18</title>
<path fill="none" stroke="midnightblue" d="M230.437,-674.5C256.229,-674.5 286.443,-674.5 310.769,-674.5"/>
<polygon fill="midnightblue" stroke="midnightblue" points="310.804,-678 320.804,-674.5 310.804,-671 310.804,-678"/>
</g>
<!-- Node23 -->
<g id="node23" class="node"><title>Node23</title>
<g id="a_node23"><a xlink:href="class_word_quizzle_server_service.html#a67b0475525fabf1a456511c53fd74d95" target="_top" xlink:title="Restituisce il tempo di attesa per l&#39;accettazione di una richiesta, in millisecondi.">
<polygon fill="white" stroke="black" points="278,-703 278,-722 436,-722 436,-703 278,-703"/>
<text text-anchor="middle" x="357" y="-710" font-family="Helvetica,sans-Serif" font-size="10.00">WordQuizzleServerService.getT1</text>
</a>
</g>
</g>
<!-- Node15&#45;&gt;Node23 -->
<g id="edge22" class="edge"><title>Node15&#45;&gt;Node23</title>
<path fill="none" stroke="midnightblue" d="M220.3,-684.089C244.683,-689.194 274.857,-695.511 300.556,-700.892"/>
<polygon fill="midnightblue" stroke="midnightblue" points="300.024,-704.356 310.529,-702.98 301.459,-697.505 300.024,-704.356"/>
</g>
<!-- Node17 -->
<g id="node17" class="node"><title>Node17</title>
<g id="a_node17"><a xlink:href="interface_word_quizzle_service.html#ac0cddaf5d6b4f16f4802b52579fd97ae" target="_top" xlink:title="Accetta una richiesta di sfida inviata da nickAmico.">
<polygon fill="white" stroke="black" points="486.5,-817.5 486.5,-847.5 626.5,-847.5 626.5,-817.5 486.5,-817.5"/>
<text text-anchor="start" x="494.5" y="-835.5" font-family="Helvetica,sans-Serif" font-size="10.00">WordQuizzleService.accetta</text>
<text text-anchor="middle" x="556.5" y="-824.5" font-family="Helvetica,sans-Serif" font-size="10.00">Sfida</text>
</a>
</g>
</g>
<!-- Node16&#45;&gt;Node17 -->
<g id="edge16" class="edge"><title>Node16&#45;&gt;Node17</title>
<path fill="none" stroke="midnightblue" d="M412.592,-771.557C420.609,-774.463 428.638,-777.781 436,-781.5 453.616,-790.4 454.299,-798.77 472,-807.5 476.631,-809.784 481.512,-811.904 486.492,-813.862"/>
<polygon fill="midnightblue" stroke="midnightblue" points="485.561,-817.249 496.155,-817.429 487.986,-810.682 485.561,-817.249"/>
</g>
<!-- Node19 -->
<g id="node19" class="node"><title>Node19</title>
<g id="a_node19"><a xlink:href="class_word_quizzle_server_service.html#a445af71c2bed6349e5239893b2e0ca8c" target="_top" xlink:title="Restituisce il numero di parole per sfida.">
<polygon fill="white" stroke="black" points="479,-703 479,-722 634,-722 634,-703 479,-703"/>
<text text-anchor="middle" x="556.5" y="-710" font-family="Helvetica,sans-Serif" font-size="10.00">WordQuizzleServerService.getK</text>
</a>
</g>
</g>
<!-- Node18&#45;&gt;Node19 -->
<g id="edge18" class="edge"><title>Node18&#45;&gt;Node19</title>
<path fill="none" stroke="midnightblue" d="M393.309,-681.294C421.765,-686.769 462.409,-694.589 495.891,-701.031"/>
<polygon fill="midnightblue" stroke="midnightblue" points="495.55,-704.529 506.031,-702.982 496.872,-697.655 495.55,-704.529"/>
</g>
<!-- Node20 -->
<g id="node20" class="node"><title>Node20</title>
<g id="a_node20"><a xlink:href="class_word_quizzle_server_service.html#a5779a8f11e9348825e19ef83b74b43bc" target="_top" xlink:title="Restituisce la durata di una sfida, in millisecondi.">
<polygon fill="white" stroke="black" points="477.5,-779 477.5,-798 635.5,-798 635.5,-779 477.5,-779"/>
<text text-anchor="middle" x="556.5" y="-786" font-family="Helvetica,sans-Serif" font-size="10.00">WordQuizzleServerService.getT2</text>
</a>
</g>
</g>
<!-- Node18&#45;&gt;Node20 -->
<g id="edge19" class="edge"><title>Node18&#45;&gt;Node20</title>
<path fill="none" stroke="midnightblue" d="M393.18,-676.476C407.749,-678.858 424.006,-683.728 436,-693.5 464.976,-717.108 442.846,-746.113 472,-769.5 474.08,-771.169 476.279,-772.697 478.569,-774.096"/>
<polygon fill="midnightblue" stroke="midnightblue" points="477.311,-777.386 487.8,-778.877 480.53,-771.17 477.311,-777.386"/>
</g>
<!-- Node21 -->
<g id="node21" class="node"><title>Node21</title>
<g id="a_node21"><a xlink:href="class_word_quizzle_client.html#a8af265290384d3ce6dcb44c6e08f3b4a" target="_top" xlink:title="Invia la traduzione della parola precedentemente inviata dal server durante una sfida.">
<polygon fill="white" stroke="black" points="472,-741 472,-760 641,-760 641,-741 472,-741"/>
<text text-anchor="middle" x="556.5" y="-748" font-family="Helvetica,sans-Serif" font-size="10.00">WordQuizzleClient.sendTranslation</text>
</a>
</g>
</g>
<!-- Node18&#45;&gt;Node21 -->
<g id="edge20" class="edge"><title>Node18&#45;&gt;Node21</title>
<path fill="none" stroke="midnightblue" d="M393.011,-678.635C407.063,-681.385 422.98,-685.947 436,-693.5 456.123,-705.174 451.788,-719.979 472,-731.5 475.958,-733.756 480.164,-735.744 484.503,-737.496"/>
<polygon fill="midnightblue" stroke="midnightblue" points="483.574,-740.881 494.168,-740.967 485.94,-734.293 483.574,-740.881"/>
</g>
<!-- Node22 -->
<g id="node22" class="node"><title>Node22</title>
<g id="a_node22"><a xlink:href="interface_word_quizzle_service.html#a02c046b12dcaedd35e92fd7878595f57" target="_top" xlink:title="Invia la traduzione della parola precedentemente inviata dal server durante una sfida.">
<polygon fill="white" stroke="black" points="677,-741 677,-760 853,-760 853,-741 677,-741"/>
<text text-anchor="middle" x="765" y="-748" font-family="Helvetica,sans-Serif" font-size="10.00">WordQuizzleService.sendTranslation</text>
</a>
</g>
</g>
<!-- Node21&#45;&gt;Node22 -->
<g id="edge21" class="edge"><title>Node21&#45;&gt;Node22</title>
<path fill="none" stroke="midnightblue" d="M641.194,-750.5C649.631,-750.5 658.249,-750.5 666.812,-750.5"/>
<polygon fill="midnightblue" stroke="midnightblue" points="666.824,-754 676.823,-750.5 666.823,-747 666.824,-754"/>
</g>
<!-- Node24&#45;&gt;Node5 -->
<g id="edge28" class="edge"><title>Node24&#45;&gt;Node5</title>
<path fill="none" stroke="midnightblue" d="M181.131,-342.085C196.67,-364.212 237.213,-420.052 278,-460.5 295.411,-477.766 317.455,-494.92 333.663,-506.793"/>
<polygon fill="midnightblue" stroke="midnightblue" points="331.845,-509.797 342.001,-512.812 335.942,-504.121 331.845,-509.797"/>
</g>
<!-- Node24&#45;&gt;Node6 -->
<g id="edge26" class="edge"><title>Node24&#45;&gt;Node6</title>
<path fill="none" stroke="midnightblue" d="M185.713,-342.192C203.808,-357.267 241.157,-386.092 278,-400.5 346.647,-427.345 430.812,-438.526 488.333,-443.181"/>
<polygon fill="midnightblue" stroke="midnightblue" points="488.159,-446.678 498.397,-443.951 488.693,-439.698 488.159,-446.678"/>
</g>
<!-- Node24&#45;&gt;Node8 -->
<g id="edge33" class="edge"><title>Node24&#45;&gt;Node8</title>
<path fill="none" stroke="midnightblue" d="M195.032,-342.127C215.578,-351.352 248.314,-364.955 278,-372.5 359.167,-393.13 456.855,-402.301 512.007,-406.09"/>
<polygon fill="midnightblue" stroke="midnightblue" points="511.916,-409.591 522.125,-406.757 512.377,-402.607 511.916,-409.591"/>
</g>
<!-- Node24&#45;&gt;Node14 -->
<g id="edge44" class="edge"><title>Node24&#45;&gt;Node14</title>
<path fill="none" stroke="midnightblue" d="M209.794,-340.003C229.731,-343.984 255.161,-348.631 278,-351.5 360.598,-361.875 457.789,-366.893 512.465,-369.064"/>
<polygon fill="midnightblue" stroke="midnightblue" points="512.364,-372.562 522.491,-369.449 512.633,-365.568 512.364,-372.562"/>
</g>
<!-- Node24&#45;&gt;Node18 -->
<g id="edge27" class="edge"><title>Node24&#45;&gt;Node18</title>
<path fill="none" stroke="midnightblue" d="M179.007,-342.206C193.001,-372.206 237.215,-465.969 278,-541.5 300.555,-583.271 329.293,-630.995 344.822,-656.379"/>
<polygon fill="midnightblue" stroke="midnightblue" points="341.872,-658.263 350.087,-664.954 347.838,-654.601 341.872,-658.263"/>
</g>
<!-- Node25 -->
<g id="node25" class="node"><title>Node25</title>
<g id="a_node25"><a xlink:href="class_word_quizzle_client.html#a47e5d9e8bd41242505edcb76350df881" target="_top" xlink:title="Aggiunge un utente alla lista di amici di user.">
<polygon fill="white" stroke="black" points="288.5,-273.5 288.5,-303.5 425.5,-303.5 425.5,-273.5 288.5,-273.5"/>
<text text-anchor="start" x="296.5" y="-291.5" font-family="Helvetica,sans-Serif" font-size="10.00">WordQuizzleClient.aggiungi</text>
<text text-anchor="middle" x="357" y="-280.5" font-family="Helvetica,sans-Serif" font-size="10.00">_amico</text>
</a>
</g>
</g>
<!-- Node24&#45;&gt;Node25 -->
<g id="edge24" class="edge"><title>Node24&#45;&gt;Node25</title>
<path fill="none" stroke="midnightblue" d="M209.926,-323.912C230.964,-318.812 258.417,-312.157 283.837,-305.994"/>
<polygon fill="midnightblue" stroke="midnightblue" points="284.939,-309.328 293.833,-303.571 283.289,-302.525 284.939,-309.328"/>
</g>
<!-- Node27 -->
<g id="node27" class="node"><title>Node27</title>
<g id="a_node27"><a xlink:href="class_word_quizzle_client.html#a5503bd747932abeb7a733b780d31dc19" target="_top" xlink:title="Richiede la lista degli amici di user.">
<polygon fill="white" stroke="black" points="297.5,-224.5 297.5,-254.5 416.5,-254.5 416.5,-224.5 297.5,-224.5"/>
<text text-anchor="start" x="305.5" y="-242.5" font-family="Helvetica,sans-Serif" font-size="10.00">WordQuizzleClient.lista</text>
<text text-anchor="middle" x="357" y="-231.5" font-family="Helvetica,sans-Serif" font-size="10.00">_amici</text>
</a>
</g>
</g>
<!-- Node24&#45;&gt;Node27 -->
<g id="edge29" class="edge"><title>Node24&#45;&gt;Node27</title>
<path fill="none" stroke="midnightblue" d="M209.769,-327.276C220.786,-324.457 232.524,-320.131 242,-313.5 264.435,-297.8 255.756,-279.469 278,-263.5 281.21,-261.196 284.646,-259.108 288.222,-257.218"/>
<polygon fill="midnightblue" stroke="midnightblue" points="289.794,-260.347 297.346,-252.915 286.808,-254.015 289.794,-260.347"/>
</g>
<!-- Node29 -->
<g id="node29" class="node"><title>Node29</title>
<g id="a_node29"><a xlink:href="class_word_quizzle_client.html#ab3dfa5eb3dd327ca00e89b9920125e0e" target="_top" xlink:title="Effettua il login.">
<polygon fill="white" stroke="black" points="296.5,-186 296.5,-205 417.5,-205 417.5,-186 296.5,-186"/>
<text text-anchor="middle" x="357" y="-193" font-family="Helvetica,sans-Serif" font-size="10.00">WordQuizzleClient.login</text>
</a>
</g>
</g>
<!-- Node24&#45;&gt;Node29 -->
<g id="edge31" class="edge"><title>Node24&#45;&gt;Node29</title>
<path fill="none" stroke="midnightblue" d="M209.556,-329.079C221.071,-326.399 233.167,-321.7 242,-313.5 276.314,-281.648 243.127,-245.739 278,-214.5 280.813,-211.98 283.904,-209.781 287.183,-207.863"/>
<polygon fill="midnightblue" stroke="midnightblue" points="288.807,-210.965 296.239,-203.414 285.72,-204.682 288.807,-210.965"/>
</g>
<!-- Node31 -->
<g id="node31" class="node"><title>Node31</title>
<g id="a_node31"><a xlink:href="class_word_quizzle_client.html#ab3b513d94019a6b4350aaa6c92c59136" target="_top" xlink:title="Effettua il logout di user.">
<polygon fill="white" stroke="black" points="293.5,-148 293.5,-167 420.5,-167 420.5,-148 293.5,-148"/>
<text text-anchor="middle" x="357" y="-155" font-family="Helvetica,sans-Serif" font-size="10.00">WordQuizzleClient.logout</text>
</a>
</g>
</g>
<!-- Node24&#45;&gt;Node31 -->
<g id="edge34" class="edge"><title>Node24&#45;&gt;Node31</title>
<path fill="none" stroke="midnightblue" d="M209.642,-329.606C221.301,-326.982 233.467,-322.183 242,-313.5 286.127,-268.597 233.084,-220.614 278,-176.5 279.914,-174.62 281.982,-172.915 284.168,-171.37"/>
<polygon fill="midnightblue" stroke="midnightblue" points="286.234,-174.218 293.122,-166.168 282.717,-168.165 286.234,-174.218"/>
</g>
<!-- Node33 -->
<g id="node33" class="node"><title>Node33</title>
<g id="a_node33"><a xlink:href="class_word_quizzle_client.html#a01ec8b2d43325305d263b803834652cb" target="_top" xlink:title="Richiede la classifica dell&#39;user e dei suoi amici.">
<polygon fill="white" stroke="black" points="291.5,-98.5 291.5,-128.5 422.5,-128.5 422.5,-98.5 291.5,-98.5"/>
<text text-anchor="start" x="299.5" y="-116.5" font-family="Helvetica,sans-Serif" font-size="10.00">WordQuizzleClient.mostra</text>
<text text-anchor="middle" x="357" y="-105.5" font-family="Helvetica,sans-Serif" font-size="10.00">_classifica</text>
</a>
</g>
</g>
<!-- Node24&#45;&gt;Node33 -->
<g id="edge36" class="edge"><title>Node24&#45;&gt;Node33</title>
<path fill="none" stroke="midnightblue" d="M209.556,-329.936C221.348,-327.356 233.622,-322.5 242,-313.5 296.106,-255.38 224.942,-197.579 278,-138.5 279.544,-136.781 281.206,-135.179 282.966,-133.687"/>
<polygon fill="midnightblue" stroke="midnightblue" points="285.103,-136.462 291.235,-127.821 281.054,-130.752 285.103,-136.462"/>
</g>
<!-- Node35 -->
<g id="node35" class="node"><title>Node35</title>
<g id="a_node35"><a xlink:href="class_word_quizzle_client.html#ad88c5209ea7c672da454a7523834fce7" target="_top" xlink:title="Richiede il punteggio di user.">
<polygon fill="white" stroke="black" points="291.5,-49.5 291.5,-79.5 422.5,-79.5 422.5,-49.5 291.5,-49.5"/>
<text text-anchor="start" x="299.5" y="-67.5" font-family="Helvetica,sans-Serif" font-size="10.00">WordQuizzleClient.mostra</text>
<text text-anchor="middle" x="357" y="-56.5" font-family="Helvetica,sans-Serif" font-size="10.00">_punteggio</text>
</a>
</g>
</g>
<!-- Node24&#45;&gt;Node35 -->
<g id="edge38" class="edge"><title>Node24&#45;&gt;Node35</title>
<path fill="none" stroke="midnightblue" d="M209.777,-330.138C221.591,-327.577 233.823,-322.683 242,-313.5 309.349,-237.869 211.568,-164.938 278,-88.5 279.548,-86.7188 281.225,-85.0678 283.007,-83.5376"/>
<polygon fill="midnightblue" stroke="midnightblue" points="285.289,-86.2103 291.424,-77.5727 281.242,-80.4989 285.289,-86.2103"/>
</g>
<!-- Node37 -->
<g id="node37" class="node"><title>Node37</title>
<g id="a_node37"><a xlink:href="class_word_quizzle_client.html#a516539e0da1d5d54431a7e41cf9339f8" target="_top" xlink:title="Registra un nuovo utente.">
<polygon fill="white" stroke="black" points="290.5,-0.5 290.5,-30.5 423.5,-30.5 423.5,-0.5 290.5,-0.5"/>
<text text-anchor="start" x="298.5" y="-18.5" font-family="Helvetica,sans-Serif" font-size="10.00">WordQuizzleClient.registra</text>
<text text-anchor="middle" x="357" y="-7.5" font-family="Helvetica,sans-Serif" font-size="10.00">_utente</text>
</a>
</g>
</g>
<!-- Node24&#45;&gt;Node37 -->
<g id="edge40" class="edge"><title>Node24&#45;&gt;Node37</title>
<path fill="none" stroke="midnightblue" d="M209.568,-330.338C221.506,-327.812 233.873,-322.888 242,-313.5 322.389,-220.638 198.737,-133.325 278,-39.5 279.303,-37.9577 280.702,-36.5128 282.184,-35.1591"/>
<polygon fill="midnightblue" stroke="midnightblue" points="284.319,-37.933 290.204,-29.1234 280.109,-32.3398 284.319,-37.933"/>
</g>
<!-- Node39 -->
<g id="node39" class="node"><title>Node39</title>
<g id="a_node39"><a xlink:href="class_word_quizzle_client.html#a2532bb6f1399cae0692189e7b1b4fb60" target="_top" xlink:title="Invia una richiesta di sfida ad un amico.">
<polygon fill="white" stroke="black" points="296.5,-323 296.5,-342 417.5,-342 417.5,-323 296.5,-323"/>
<text text-anchor="middle" x="357" y="-330" font-family="Helvetica,sans-Serif" font-size="10.00">WordQuizzleClient.sfida</text>
</a>
</g>
</g>
<!-- Node24&#45;&gt;Node39 -->
<g id="edge42" class="edge"><title>Node24&#45;&gt;Node39</title>
<path fill="none" stroke="midnightblue" d="M209.926,-332.5C231.602,-332.5 260.087,-332.5 286.142,-332.5"/>
<polygon fill="midnightblue" stroke="midnightblue" points="286.368,-336 296.368,-332.5 286.368,-329 286.368,-336"/>
</g>
<!-- Node26 -->
<g id="node26" class="node"><title>Node26</title>
<g id="a_node26"><a xlink:href="interface_word_quizzle_service.html#a9b0441e9bbdbda3213f217f4fe5a97f3" target="_top" xlink:title="Aggiunge un utente alla lista di amici di nickUtente.">
<polygon fill="white" stroke="black" points="485,-273.5 485,-303.5 628,-303.5 628,-273.5 485,-273.5"/>
<text text-anchor="start" x="493" y="-291.5" font-family="Helvetica,sans-Serif" font-size="10.00">WordQuizzleService.aggiungi</text>
<text text-anchor="middle" x="556.5" y="-280.5" font-family="Helvetica,sans-Serif" font-size="10.00">_amico</text>
</a>
</g>
</g>
<!-- Node25&#45;&gt;Node26 -->
<g id="edge25" class="edge"><title>Node25&#45;&gt;Node26</title>
<path fill="none" stroke="midnightblue" d="M425.692,-288.5C441.505,-288.5 458.5,-288.5 474.815,-288.5"/>
<polygon fill="midnightblue" stroke="midnightblue" points="474.869,-292 484.868,-288.5 474.868,-285 474.869,-292"/>
</g>
<!-- Node28 -->
<g id="node28" class="node"><title>Node28</title>
<g id="a_node28"><a xlink:href="interface_word_quizzle_service.html#a0a06ecea2f7c95d4871bbb64cf67430e" target="_top" xlink:title="Richiede la lista degli amici di nickUtente.">
<polygon fill="white" stroke="black" points="494,-224.5 494,-254.5 619,-254.5 619,-224.5 494,-224.5"/>
<text text-anchor="start" x="502" y="-242.5" font-family="Helvetica,sans-Serif" font-size="10.00">WordQuizzleService.lista</text>
<text text-anchor="middle" x="556.5" y="-231.5" font-family="Helvetica,sans-Serif" font-size="10.00">_amici</text>
</a>
</g>
</g>
<!-- Node27&#45;&gt;Node28 -->
<g id="edge30" class="edge"><title>Node27&#45;&gt;Node28</title>
<path fill="none" stroke="midnightblue" d="M416.722,-239.5C437.728,-239.5 461.643,-239.5 483.633,-239.5"/>
<polygon fill="midnightblue" stroke="midnightblue" points="483.917,-243 493.917,-239.5 483.917,-236 483.917,-243"/>
</g>
<!-- Node30 -->
<g id="node30" class="node"><title>Node30</title>
<g id="a_node30"><a xlink:href="interface_word_quizzle_service.html#a7d076a6d78b7108aa0d793ea398492f4" target="_top" xlink:title="Effettua il login.">
<polygon fill="white" stroke="black" points="492.5,-186 492.5,-205 620.5,-205 620.5,-186 492.5,-186"/>
<text text-anchor="middle" x="556.5" y="-193" font-family="Helvetica,sans-Serif" font-size="10.00">WordQuizzleService.login</text>
</a>
</g>
</g>
<!-- Node29&#45;&gt;Node30 -->
<g id="edge32" class="edge"><title>Node29&#45;&gt;Node30</title>
<path fill="none" stroke="midnightblue" d="M417.524,-195.5C437.827,-195.5 460.77,-195.5 482.036,-195.5"/>
<polygon fill="midnightblue" stroke="midnightblue" points="482.322,-199 492.322,-195.5 482.322,-192 482.322,-199"/>
</g>
<!-- Node32 -->
<g id="node32" class="node"><title>Node32</title>
<g id="a_node32"><a xlink:href="interface_word_quizzle_service.html#a4f3b6b3f8ee7f02e7560de7571de1e07" target="_top" xlink:title="Effettua il logout.">
<polygon fill="white" stroke="black" points="489.5,-148 489.5,-167 623.5,-167 623.5,-148 489.5,-148"/>
<text text-anchor="middle" x="556.5" y="-155" font-family="Helvetica,sans-Serif" font-size="10.00">WordQuizzleService.logout</text>
</a>
</g>
</g>
<!-- Node31&#45;&gt;Node32 -->
<g id="edge35" class="edge"><title>Node31&#45;&gt;Node32</title>
<path fill="none" stroke="midnightblue" d="M420.762,-157.5C439.421,-157.5 460.067,-157.5 479.475,-157.5"/>
<polygon fill="midnightblue" stroke="midnightblue" points="479.494,-161 489.494,-157.5 479.494,-154 479.494,-161"/>
</g>
<!-- Node34 -->
<g id="node34" class="node"><title>Node34</title>
<g id="a_node34"><a xlink:href="interface_word_quizzle_service.html#ae8ae423bdd8f6bc09ca0bb4fd6790967" target="_top" xlink:title="Richiede la classifica dell&#39;utente e dei suoi amici.">
<polygon fill="white" stroke="black" points="488,-98.5 488,-128.5 625,-128.5 625,-98.5 488,-98.5"/>
<text text-anchor="start" x="496" y="-116.5" font-family="Helvetica,sans-Serif" font-size="10.00">WordQuizzleService.mostra</text>
<text text-anchor="middle" x="556.5" y="-105.5" font-family="Helvetica,sans-Serif" font-size="10.00">_classifica</text>
</a>
</g>
</g>
<!-- Node33&#45;&gt;Node34 -->
<g id="edge37" class="edge"><title>Node33&#45;&gt;Node34</title>
<path fill="none" stroke="midnightblue" d="M422.669,-113.5C440.324,-113.5 459.636,-113.5 477.93,-113.5"/>
<polygon fill="midnightblue" stroke="midnightblue" points="477.972,-117 487.972,-113.5 477.972,-110 477.972,-117"/>
</g>
<!-- Node36 -->
<g id="node36" class="node"><title>Node36</title>
<g id="a_node36"><a xlink:href="interface_word_quizzle_service.html#a7209a6349c060cad27604f6782e1dcaa" target="_top" xlink:title="Richiede il punteggio di nickUtente.">
<polygon fill="white" stroke="black" points="488,-49.5 488,-79.5 625,-79.5 625,-49.5 488,-49.5"/>
<text text-anchor="start" x="496" y="-67.5" font-family="Helvetica,sans-Serif" font-size="10.00">WordQuizzleService.mostra</text>
<text text-anchor="middle" x="556.5" y="-56.5" font-family="Helvetica,sans-Serif" font-size="10.00">_punteggio</text>
</a>
</g>
</g>
<!-- Node35&#45;&gt;Node36 -->
<g id="edge39" class="edge"><title>Node35&#45;&gt;Node36</title>
<path fill="none" stroke="midnightblue" d="M422.669,-64.5C440.324,-64.5 459.636,-64.5 477.93,-64.5"/>
<polygon fill="midnightblue" stroke="midnightblue" points="477.972,-68.0001 487.972,-64.5 477.972,-61.0001 477.972,-68.0001"/>
</g>
<!-- Node38 -->
<g id="node38" class="node"><title>Node38</title>
<g id="a_node38"><a xlink:href="interface_word_quizzle_service.html#a11603d2e946c2df51d3fa9d1daa53791" target="_top" xlink:title="Registra un utente.">
<polygon fill="white" stroke="black" points="486.5,-0.5 486.5,-30.5 626.5,-30.5 626.5,-0.5 486.5,-0.5"/>
<text text-anchor="start" x="494.5" y="-18.5" font-family="Helvetica,sans-Serif" font-size="10.00">WordQuizzleService.registra</text>
<text text-anchor="middle" x="556.5" y="-7.5" font-family="Helvetica,sans-Serif" font-size="10.00">_utente</text>
</a>
</g>
</g>
<!-- Node37&#45;&gt;Node38 -->
<g id="edge41" class="edge"><title>Node37&#45;&gt;Node38</title>
<path fill="none" stroke="midnightblue" d="M423.765,-15.5C440.555,-15.5 458.783,-15.5 476.175,-15.5"/>
<polygon fill="midnightblue" stroke="midnightblue" points="476.301,-19.0001 486.301,-15.5 476.301,-12.0001 476.301,-19.0001"/>
</g>
<!-- Node40 -->
<g id="node40" class="node"><title>Node40</title>
<g id="a_node40"><a xlink:href="interface_word_quizzle_service.html#ac0ac9c1650c4242fdbb66f5432417887" target="_top" xlink:title="Invia una richiesta di sfida ad un amico di nickUtente.">
<polygon fill="white" stroke="black" points="492.5,-323 492.5,-342 620.5,-342 620.5,-323 492.5,-323"/>
<text text-anchor="middle" x="556.5" y="-330" font-family="Helvetica,sans-Serif" font-size="10.00">WordQuizzleService.sfida</text>
</a>
</g>
</g>
<!-- Node39&#45;&gt;Node40 -->
<g id="edge43" class="edge"><title>Node39&#45;&gt;Node40</title>
<path fill="none" stroke="midnightblue" d="M417.524,-332.5C437.827,-332.5 460.77,-332.5 482.036,-332.5"/>
<polygon fill="midnightblue" stroke="midnightblue" points="482.322,-336 492.322,-332.5 482.322,-329 482.322,-336"/>
</g>
</g>
</svg>
        <g id="navigator" transform="translate(0 0)" fill="#404254">
                <rect fill="#f2f5e9" fill-opacity="0.5" stroke="#606060" stroke-width=".5" x="0" y="0" width="60" height="60"/>
                <use id="zoomplus" xlink:href="#zoomPlus" x="17" y="9" onmousedown="handleZoom(evt,'in')"/>
                <use id="zoomminus" xlink:href="#zoomMin" x="42" y="9" onmousedown="handleZoom(evt,'out')"/>
                <use id="reset" xlink:href="#resetDef" x="30" y="36" onmousedown="handleReset()"/>
                <g id="arrowUp" xlink:href="#dirArrow" transform="translate(30 24)" onmousedown="handlePan(0,-1)">
                  <use xlink:href="#rim" fill="#404040">
                        <set attributeName="fill" to="#808080" begin="arrowUp.mouseover" end="arrowUp.mouseout"/>
                  </use>
                  <path fill="none" stroke="white" stroke-width="1.5" d="M0,-3.0v7 M-2.5,-0.5L0,-3.0L2.5,-0.5"/>
                </g>
                <g id="arrowRight" xlink:href="#dirArrow" transform="rotate(90) translate(36 -43)" onmousedown="handlePan(1,0)">
                  <use xlink:href="#rim" fill="#404040">
                        <set attributeName="fill" to="#808080" begin="arrowRight.mouseover" end="arrowRight.mouseout"/>
                  </use>
                  <path fill="none" stroke="white" stroke-width="1.5" d="M0,-3.0v7 M-2.5,-0.5L0,-3.0L2.5,-0.5"/>
                </g>
                <g id="arrowDown" xlink:href="#dirArrow" transform="rotate(180) translate(-30 -48)" onmousedown="handlePan(0,1)">
                  <use xlink:href="#rim" fill="#404040">
                        <set attributeName="fill" to="#808080" begin="arrowDown.mouseover" end="arrowDown.mouseout"/>
                  </use>
                  <path fill="none" stroke="white" stroke-width="1.5" d="M0,-3.0v7 M-2.5,-0.5L0,-3.0L2.5,-0.5"/>
                </g>
                <g id="arrowLeft" xlink:href="#dirArrow" transform="rotate(270) translate(-36 17)" onmousedown="handlePan(-1,0)">
                  <use xlink:href="#rim" fill="#404040">
                        <set attributeName="fill" to="#808080" begin="arrowLeft.mouseover" end="arrowLeft.mouseout"/>
                  </use>
                  <path fill="none" stroke="white" stroke-width="1.5" d="M0,-3.0v7 M-2.5,-0.5L0,-3.0L2.5,-0.5"/>
                </g>
        </g>
        <svg viewBox="0 0 15 15" width="100%" height="30px" preserveAspectRatio="xMaxYMin meet">
         <g id="arrow_out" transform="scale(0.3 0.3)">
          <a xlink:href="class_w_q_cli_a13932f1ea4f257ce081aa524f090b6ee_cgraph_org.svg" target="_base">
           <rect id="button" ry="5" rx="5" y="6" x="6" height="38" width="38"
                fill="#f2f5e9" fill-opacity="0.5" stroke="#606060" stroke-width="1.0"/>
           <path id="arrow"
             d="M 11.500037,31.436501 C 11.940474,20.09759 22.043105,11.32322 32.158766,21.979434 L 37.068811,17.246167 C 37.068811,17.246167 37.088388,32 37.088388,32 L 22.160133,31.978069 C 22.160133,31.978069 26.997745,27.140456 26.997745,27.140456 C 18.528582,18.264221 13.291696,25.230495 11.500037,31.436501 z"
             style="fill:#404040;"/>
          </a>
         </g>
        </svg>
</svg>
