<?xml version="1.0" encoding="UTF-8" standalone="no"?>
<!DOCTYPE svg PUBLIC "-//W3C//DTD SVG 1.1//EN"
 "http://www.w3.org/Graphics/SVG/1.1/DTD/svg11.dtd">
<!-- Generated by graphviz version 2.38.0 (20140413.2041)
 -->
<!-- Title: WordQuizzle.WordQuizzleServerService Pages: 1 -->
<svg width="611pt" height="551pt"
 viewBox="0.00 0.00 611.00 551.00" xmlns="http://www.w3.org/2000/svg" xmlns:xlink="http://www.w3.org/1999/xlink">
<g id="graph0" class="graph" transform="scale(1 1) rotate(0) translate(4 547)">
<title>WordQuizzle.WordQuizzleServerService</title>
<polygon fill="white" stroke="none" points="-4,4 -4,-547 607,-547 607,4 -4,4"/>
<!-- Node1 -->
<g id="node1" class="node"><title>Node1</title>
<g id="a_node1"><a xlink:title="Implementa la Business Logic.">
<polygon fill="#bfbfbf" stroke="black" points="248,-0.5 248,-277.5 407,-277.5 407,-0.5 248,-0.5"/>
<text text-anchor="start" x="256" y="-265.5" font-family="Helvetica,sans-Serif" font-size="10.00">WordQuizzle.WordQuizzleServer</text>
<text text-anchor="middle" x="327.5" y="-254.5" font-family="Helvetica,sans-Serif" font-size="10.00">Service</text>
<polyline fill="none" stroke="black" points="248,-247.5 407,-247.5 "/>
<text text-anchor="start" x="256" y="-235.5" font-family="Helvetica,sans-Serif" font-size="10.00">&#45; K</text>
<text text-anchor="start" x="256" y="-224.5" font-family="Helvetica,sans-Serif" font-size="10.00">&#45; T1</text>
<text text-anchor="start" x="256" y="-213.5" font-family="Helvetica,sans-Serif" font-size="10.00">&#45; T2</text>
<text text-anchor="start" x="256" y="-202.5" font-family="Helvetica,sans-Serif" font-size="10.00">&#45; X</text>
<text text-anchor="start" x="256" y="-191.5" font-family="Helvetica,sans-Serif" font-size="10.00">&#45; Y</text>
<text text-anchor="start" x="256" y="-180.5" font-family="Helvetica,sans-Serif" font-size="10.00">&#45; Z</text>
<polyline fill="none" stroke="black" points="248,-173.5 407,-173.5 "/>
<text text-anchor="start" x="256" y="-161.5" font-family="Helvetica,sans-Serif" font-size="10.00">+ WordQuizzleServerService()</text>
<text text-anchor="start" x="256" y="-150.5" font-family="Helvetica,sans-Serif" font-size="10.00">+ login()</text>
<text text-anchor="start" x="256" y="-139.5" font-family="Helvetica,sans-Serif" font-size="10.00">+ logout()</text>
<text text-anchor="start" x="256" y="-128.5" font-family="Helvetica,sans-Serif" font-size="10.00">+ aggiungi_amico()</text>
<text text-anchor="start" x="256" y="-117.5" font-family="Helvetica,sans-Serif" font-size="10.00">+ lista_amici()</text>
<text text-anchor="start" x="256" y="-106.5" font-family="Helvetica,sans-Serif" font-size="10.00">+ mostra_punteggio()</text>
<text text-anchor="start" x="256" y="-95.5" font-family="Helvetica,sans-Serif" font-size="10.00">+ mostra_classifica()</text>
<text text-anchor="start" x="256" y="-84.5" font-family="Helvetica,sans-Serif" font-size="10.00">+ sfida()</text>
<text text-anchor="start" x="256" y="-73.5" font-family="Helvetica,sans-Serif" font-size="10.00">+ accettaSfida()</text>
<text text-anchor="start" x="256" y="-62.5" font-family="Helvetica,sans-Serif" font-size="10.00">+ getK()</text>
<text text-anchor="start" x="256" y="-51.5" font-family="Helvetica,sans-Serif" font-size="10.00">+ getZ()</text>
<text text-anchor="start" x="256" y="-40.5" font-family="Helvetica,sans-Serif" font-size="10.00">+ getY()</text>
<text text-anchor="start" x="256" y="-29.5" font-family="Helvetica,sans-Serif" font-size="10.00">+ getX()</text>
<text text-anchor="start" x="256" y="-18.5" font-family="Helvetica,sans-Serif" font-size="10.00">+ getT1()</text>
<text text-anchor="start" x="256" y="-7.5" font-family="Helvetica,sans-Serif" font-size="10.00">+ getT2()</text>
</a>
</g>
</g>
<!-- Node2 -->
<g id="node2" class="node"><title>Node2</title>
<g id="a_node2"><a xlink:title=" ">
<polygon fill="white" stroke="#bfbfbf" points="0,-347.5 0,-404.5 89,-404.5 89,-347.5 0,-347.5"/>
<text text-anchor="middle" x="44.5" y="-392.5" font-family="Helvetica,sans-Serif" font-size="10.00">DatagramSocket</text>
<polyline fill="none" stroke="#bfbfbf" points="0,-385.5 89,-385.5 "/>
<text text-anchor="middle" x="44.5" y="-373.5" font-family="Helvetica,sans-Serif" font-size="10.00"> </text>
<polyline fill="none" stroke="#bfbfbf" points="0,-366.5 89,-366.5 "/>
<text text-anchor="middle" x="44.5" y="-354.5" font-family="Helvetica,sans-Serif" font-size="10.00"> </text>
</a>
</g>
</g>
<!-- Node2&#45;&gt;Node1 -->
<g id="edge1" class="edge"><title>Node2&#45;&gt;Node1</title>
<path fill="none" stroke="#404040" d="M73.0008,-347.332C80.8278,-339.95 89.3939,-332.064 97.5,-325 142.934,-285.405 195.164,-243.146 238.357,-209.027"/>
<polygon fill="none" stroke="#404040" points="238.571,-208.859 240.807,-202.003 247.996,-201.431 245.76,-208.286 238.571,-208.859"/>
<text text-anchor="middle" x="146.5" y="-299" font-family="Helvetica,sans-Serif" font-size="10.00"> &#45;socket</text>
</g>
<!-- Node3 -->
<g id="node3" class="node"><title>Node3</title>
<g id="a_node3"><a xlink:title=" ">
<polygon fill="white" stroke="#bfbfbf" points="107,-342 107,-410 242,-410 242,-342 107,-342"/>
<text text-anchor="start" x="115" y="-398" font-family="Helvetica,sans-Serif" font-size="10.00">Map&lt; String, WordQuizzle.</text>
<text text-anchor="middle" x="174.5" y="-387" font-family="Helvetica,sans-Serif" font-size="10.00">Session &gt;</text>
<polyline fill="none" stroke="#bfbfbf" points="107,-380 242,-380 "/>
<text text-anchor="middle" x="174.5" y="-368" font-family="Helvetica,sans-Serif" font-size="10.00"> </text>
<polyline fill="none" stroke="#bfbfbf" points="107,-361 242,-361 "/>
<text text-anchor="middle" x="174.5" y="-349" font-family="Helvetica,sans-Serif" font-size="10.00"> </text>
</a>
</g>
</g>
<!-- Node3&#45;&gt;Node1 -->
<g id="edge2" class="edge"><title>Node3&#45;&gt;Node1</title>
<path fill="none" stroke="#404040" d="M196.097,-341.829C208.313,-323.064 224.479,-298.235 241.28,-272.43"/>
<polygon fill="none" stroke="#404040" points="241.449,-272.17 241.37,-264.96 247.996,-262.114 248.075,-269.325 241.449,-272.17"/>
<text text-anchor="middle" x="240" y="-299" font-family="Helvetica,sans-Serif" font-size="10.00"> &#45;users</text>
</g>
<!-- Node4 -->
<g id="node4" class="node"><title>Node4</title>
<g id="a_node4"><a xlink:title=" ">
<polygon fill="white" stroke="#bfbfbf" points="237,-485.5 237,-542.5 272,-542.5 272,-485.5 237,-485.5"/>
<text text-anchor="middle" x="254.5" y="-530.5" font-family="Helvetica,sans-Serif" font-size="10.00">Map</text>
<polyline fill="none" stroke="#bfbfbf" points="237,-523.5 272,-523.5 "/>
<text text-anchor="middle" x="254.5" y="-511.5" font-family="Helvetica,sans-Serif" font-size="10.00"> </text>
<polyline fill="none" stroke="#bfbfbf" points="237,-504.5 272,-504.5 "/>
<text text-anchor="middle" x="254.5" y="-492.5" font-family="Helvetica,sans-Serif" font-size="10.00"> </text>
</a>
</g>
</g>
<!-- Node4&#45;&gt;Node3 -->
<g id="edge3" class="edge"><title>Node4&#45;&gt;Node3</title>
<path fill="none" stroke="orange" d="M227.843,-500.565C214.22,-492.827 198.629,-481.56 189.5,-467 178.982,-450.224 175.159,-428.373 174.001,-410.403"/>
<polygon fill="orange" stroke="orange" points="226.384,-503.753 236.857,-505.356 229.669,-497.572 226.384,-503.753"/>
<text text-anchor="start" x="189.5" y="-459" font-family="Helvetica,sans-Serif" font-size="10.00"> &lt; String, WordQuizzle</text>
<text text-anchor="middle" x="239.5" y="-448" font-family="Helvetica,sans-Serif" font-size="10.00">::Session &gt;</text>
</g>
<!-- Node7 -->
<g id="node7" class="node"><title>Node7</title>
<g id="a_node7"><a xlink:title=" ">
<polygon fill="white" stroke="#bfbfbf" points="260,-342 260,-410 395,-410 395,-342 260,-342"/>
<text text-anchor="start" x="268" y="-398" font-family="Helvetica,sans-Serif" font-size="10.00">Map&lt; String, WordQuizzle.</text>
<text text-anchor="middle" x="327.5" y="-387" font-family="Helvetica,sans-Serif" font-size="10.00">Challenge &gt;</text>
<polyline fill="none" stroke="#bfbfbf" points="260,-380 395,-380 "/>
<text text-anchor="middle" x="327.5" y="-368" font-family="Helvetica,sans-Serif" font-size="10.00"> </text>
<polyline fill="none" stroke="#bfbfbf" points="260,-361 395,-361 "/>
<text text-anchor="middle" x="327.5" y="-349" font-family="Helvetica,sans-Serif" font-size="10.00"> </text>
</a>
</g>
</g>
<!-- Node4&#45;&gt;Node7 -->
<g id="edge7" class="edge"><title>Node4&#45;&gt;Node7</title>
<path fill="none" stroke="orange" d="M278.967,-487.255C284.205,-480.938 289.391,-473.978 293.5,-467 303.925,-449.297 312.181,-427.829 317.946,-410.301"/>
<polygon fill="orange" stroke="orange" points="276.28,-485.012 272.384,-494.864 281.573,-489.592 276.28,-485.012"/>
<text text-anchor="start" x="304.5" y="-459" font-family="Helvetica,sans-Serif" font-size="10.00"> &lt; String, WordQuizzle</text>
<text text-anchor="middle" x="354.5" y="-448" font-family="Helvetica,sans-Serif" font-size="10.00">::Challenge &gt;</text>
</g>
<!-- Node5 -->
<g id="node5" class="node"><title>Node5</title>
<g id="a_node5"><a xlink:title=" ">
<polygon fill="white" stroke="#bfbfbf" points="413,-347.5 413,-404.5 466,-404.5 466,-347.5 413,-347.5"/>
<text text-anchor="middle" x="439.5" y="-392.5" font-family="Helvetica,sans-Serif" font-size="10.00">Selector</text>
<polyline fill="none" stroke="#bfbfbf" points="413,-385.5 466,-385.5 "/>
<text text-anchor="middle" x="439.5" y="-373.5" font-family="Helvetica,sans-Serif" font-size="10.00"> </text>
<polyline fill="none" stroke="#bfbfbf" points="413,-366.5 466,-366.5 "/>
<text text-anchor="middle" x="439.5" y="-354.5" font-family="Helvetica,sans-Serif" font-size="10.00"> </text>
</a>
</g>
</g>
<!-- Node5&#45;&gt;Node1 -->
<g id="edge4" class="edge"><title>Node5&#45;&gt;Node1</title>
<path fill="none" stroke="#404040" d="M426.212,-347.12C418.818,-331.604 408.976,-310.955 398.368,-288.696"/>
<polygon fill="none" stroke="#404040" points="398.269,-288.488 392.076,-284.792 393.106,-277.655 399.298,-281.351 398.269,-288.488"/>
<text text-anchor="middle" x="427" y="-299" font-family="Helvetica,sans-Serif" font-size="10.00"> &#45;selector</text>
</g>
<!-- Node6 -->
<g id="node6" class="node"><title>Node6</title>
<g id="a_node6"><a xlink:href="interface_word_quizzle_1_1_data_base.html" target="_top" xlink:title="Database che gestisce gli utenti.">
<polygon fill="white" stroke="black" points="484,-325.5 484,-426.5 603,-426.5 603,-325.5 484,-325.5"/>
<text text-anchor="middle" x="543.5" y="-414.5" font-family="Helvetica,sans-Serif" font-size="10.00">WordQuizzle.DataBase</text>
<polyline fill="none" stroke="black" points="484,-407.5 603,-407.5 "/>
<text text-anchor="middle" x="543.5" y="-395.5" font-family="Helvetica,sans-Serif" font-size="10.00"> </text>
<polyline fill="none" stroke="black" points="484,-388.5 603,-388.5 "/>
<text text-anchor="start" x="492" y="-376.5" font-family="Helvetica,sans-Serif" font-size="10.00">+ checkUser()</text>
<text text-anchor="start" x="492" y="-365.5" font-family="Helvetica,sans-Serif" font-size="10.00">+ getUser()</text>
<text text-anchor="start" x="492" y="-354.5" font-family="Helvetica,sans-Serif" font-size="10.00">+ newUser()</text>
<text text-anchor="start" x="492" y="-343.5" font-family="Helvetica,sans-Serif" font-size="10.00">+ modifyScore()</text>
<text text-anchor="start" x="492" y="-332.5" font-family="Helvetica,sans-Serif" font-size="10.00">+ link()</text>
</a>
</g>
</g>
<!-- Node6&#45;&gt;Node1 -->
<g id="edge5" class="edge"><title>Node6&#45;&gt;Node1</title>
<path fill="none" stroke="#404040" d="M497.956,-325.45C473.961,-299.344 443.699,-266.42 415.356,-235.584"/>
<polygon fill="none" stroke="#404040" points="415.147,-235.357 408.142,-233.646 407.026,-226.522 414.032,-228.232 415.147,-235.357"/>
<text text-anchor="middle" x="488" y="-299" font-family="Helvetica,sans-Serif" font-size="10.00"> &#45;db</text>
</g>
<!-- Node7&#45;&gt;Node1 -->
<g id="edge6" class="edge"><title>Node7&#45;&gt;Node1</title>
<path fill="none" stroke="#404040" d="M327.5,-341.829C327.5,-327.317 327.5,-309.179 327.5,-289.768"/>
<polygon fill="none" stroke="#404040" points="327.5,-289.538 323.5,-283.538 327.5,-277.538 331.5,-283.538 327.5,-289.538"/>
<text text-anchor="middle" x="354" y="-299" font-family="Helvetica,sans-Serif" font-size="10.00"> &#45;challenges</text>
</g>
</g>
</svg>
