<?xml version="1.0" encoding="UTF-8" standalone="no"?>
<!DOCTYPE svg PUBLIC "-//W3C//DTD SVG 1.1//EN"
 "http://www.w3.org/Graphics/SVG/1.1/DTD/svg11.dtd">
<!-- Generated by graphviz version 2.38.0 (20140413.2041)
 -->
<!-- Title: WordQuizzle.Player Pages: 1 -->
<svg width="662pt" height="981pt"
 viewBox="0.00 0.00 661.50 981.00" xmlns="http://www.w3.org/2000/svg" xmlns:xlink="http://www.w3.org/1999/xlink">
<g id="graph0" class="graph" transform="scale(1 1) rotate(0) translate(4 977)">
<title>WordQuizzle.Player</title>
<polygon fill="white" stroke="none" points="-4,4 -4,-977 657.5,-977 657.5,4 -4,4"/>
<!-- Node1 -->
<g id="node1" class="node"><title>Node1</title>
<g id="a_node1"><a xlink:title="Rappresenta un giocatore impegnato un una sfida.">
<polygon fill="#bfbfbf" stroke="black" points="294,-0.5 294,-134.5 398,-134.5 398,-0.5 294,-0.5"/>
<text text-anchor="middle" x="346" y="-122.5" font-family="Helvetica,sans-Serif" font-size="10.00">WordQuizzle.Player</text>
<polyline fill="none" stroke="black" points="294,-115.5 398,-115.5 "/>
<text text-anchor="start" x="302" y="-103.5" font-family="Helvetica,sans-Serif" font-size="10.00">&#45; next</text>
<text text-anchor="start" x="302" y="-92.5" font-family="Helvetica,sans-Serif" font-size="10.00">&#45; close</text>
<polyline fill="none" stroke="black" points="294,-85.5 398,-85.5 "/>
<text text-anchor="start" x="302" y="-73.5" font-family="Helvetica,sans-Serif" font-size="10.00">+ Player()</text>
<text text-anchor="start" x="302" y="-62.5" font-family="Helvetica,sans-Serif" font-size="10.00">+ getSession()</text>
<text text-anchor="start" x="302" y="-51.5" font-family="Helvetica,sans-Serif" font-size="10.00">+ addAnswer()</text>
<text text-anchor="start" x="302" y="-40.5" font-family="Helvetica,sans-Serif" font-size="10.00">+ getAnswers()</text>
<text text-anchor="start" x="302" y="-29.5" font-family="Helvetica,sans-Serif" font-size="10.00">+ isTerminated()</text>
<text text-anchor="start" x="302" y="-18.5" font-family="Helvetica,sans-Serif" font-size="10.00">+ getNext()</text>
<text text-anchor="start" x="302" y="-7.5" font-family="Helvetica,sans-Serif" font-size="10.00">+ close()</text>
</a>
</g>
</g>
<!-- Node2 -->
<g id="node2" class="node"><title>Node2</title>
<g id="a_node2"><a xlink:href="class_word_quizzle_1_1_session.html" target="_top" xlink:title="Rappresenta una sessione di un utente.">
<polygon fill="white" stroke="black" points="175.5,-182.5 175.5,-382.5 286.5,-382.5 286.5,-182.5 175.5,-182.5"/>
<text text-anchor="middle" x="231" y="-370.5" font-family="Helvetica,sans-Serif" font-size="10.00">WordQuizzle.Session</text>
<polyline fill="none" stroke="black" points="175.5,-363.5 286.5,-363.5 "/>
<text text-anchor="start" x="183.5" y="-351.5" font-family="Helvetica,sans-Serif" font-size="10.00">&#45; user</text>
<text text-anchor="start" x="183.5" y="-340.5" font-family="Helvetica,sans-Serif" font-size="10.00">&#45; response</text>
<text text-anchor="start" x="183.5" y="-329.5" font-family="Helvetica,sans-Serif" font-size="10.00">&#45; end</text>
<polyline fill="none" stroke="black" points="175.5,-322.5 286.5,-322.5 "/>
<text text-anchor="start" x="183.5" y="-310.5" font-family="Helvetica,sans-Serif" font-size="10.00">+ Session()</text>
<text text-anchor="start" x="183.5" y="-299.5" font-family="Helvetica,sans-Serif" font-size="10.00">+ getClient()</text>
<text text-anchor="start" x="183.5" y="-288.5" font-family="Helvetica,sans-Serif" font-size="10.00">+ getBfs()</text>
<text text-anchor="start" x="183.5" y="-277.5" font-family="Helvetica,sans-Serif" font-size="10.00">+ setUdp()</text>
<text text-anchor="start" x="183.5" y="-266.5" font-family="Helvetica,sans-Serif" font-size="10.00">+ getUdp()</text>
<text text-anchor="start" x="183.5" y="-255.5" font-family="Helvetica,sans-Serif" font-size="10.00">+ newBfs()</text>
<text text-anchor="start" x="183.5" y="-244.5" font-family="Helvetica,sans-Serif" font-size="10.00">+ getUser()</text>
<text text-anchor="start" x="183.5" y="-233.5" font-family="Helvetica,sans-Serif" font-size="10.00">+ getResponse()</text>
<text text-anchor="start" x="183.5" y="-222.5" font-family="Helvetica,sans-Serif" font-size="10.00">+ setResponse()</text>
<text text-anchor="start" x="183.5" y="-211.5" font-family="Helvetica,sans-Serif" font-size="10.00">+ isTerminated()</text>
<text text-anchor="start" x="183.5" y="-200.5" font-family="Helvetica,sans-Serif" font-size="10.00">+ parse()</text>
<text text-anchor="start" x="183.5" y="-189.5" font-family="Helvetica,sans-Serif" font-size="10.00">&#45; compute()</text>
</a>
</g>
</g>
<!-- Node2&#45;&gt;Node1 -->
<g id="edge1" class="edge"><title>Node2&#45;&gt;Node1</title>
<path fill="none" stroke="#404040" d="M284.46,-182.483C291.151,-170.089 297.916,-157.56 304.389,-145.571"/>
<polygon fill="none" stroke="#404040" points="304.54,-145.291 303.871,-138.111 310.241,-134.732 310.91,-141.912 304.54,-145.291"/>
<text text-anchor="middle" x="305" y="-156" font-family="Helvetica,sans-Serif" font-size="10.00"> &#45;s</text>
</g>
<!-- Node3 -->
<g id="node3" class="node"><title>Node3</title>
<g id="a_node3"><a xlink:title=" ">
<polygon fill="white" stroke="#bfbfbf" points="0,-540.5 0,-597.5 62,-597.5 62,-540.5 0,-540.5"/>
<text text-anchor="middle" x="31" y="-585.5" font-family="Helvetica,sans-Serif" font-size="10.00">ByteBuffer</text>
<polyline fill="none" stroke="#bfbfbf" points="0,-578.5 62,-578.5 "/>
<text text-anchor="middle" x="31" y="-566.5" font-family="Helvetica,sans-Serif" font-size="10.00"> </text>
<polyline fill="none" stroke="#bfbfbf" points="0,-559.5 62,-559.5 "/>
<text text-anchor="middle" x="31" y="-547.5" font-family="Helvetica,sans-Serif" font-size="10.00"> </text>
</a>
</g>
</g>
<!-- Node3&#45;&gt;Node2 -->
<g id="edge2" class="edge"><title>Node3&#45;&gt;Node2</title>
<path fill="none" stroke="#404040" d="M34.5081,-540.271C39.1975,-511.042 49.5482,-464.54 71,-430 95.3251,-390.834 132.972,-355.626 165.639,-329.547"/>
<polygon fill="none" stroke="#404040" points="165.703,-329.496 167.959,-322.647 175.149,-322.095 172.893,-328.945 165.703,-329.496"/>
<text text-anchor="middle" x="101.5" y="-404" font-family="Helvetica,sans-Serif" font-size="10.00"> &#45;bfs</text>
</g>
<!-- Node4 -->
<g id="node4" class="node"><title>Node4</title>
<g id="a_node4"><a xlink:title=" ">
<polygon fill="white" stroke="#bfbfbf" points="80.5,-540.5 80.5,-597.5 163.5,-597.5 163.5,-540.5 80.5,-540.5"/>
<text text-anchor="middle" x="122" y="-585.5" font-family="Helvetica,sans-Serif" font-size="10.00">SocketChannel</text>
<polyline fill="none" stroke="#bfbfbf" points="80.5,-578.5 163.5,-578.5 "/>
<text text-anchor="middle" x="122" y="-566.5" font-family="Helvetica,sans-Serif" font-size="10.00"> </text>
<polyline fill="none" stroke="#bfbfbf" points="80.5,-559.5 163.5,-559.5 "/>
<text text-anchor="middle" x="122" y="-547.5" font-family="Helvetica,sans-Serif" font-size="10.00"> </text>
</a>
</g>
</g>
<!-- Node4&#45;&gt;Node2 -->
<g id="edge3" class="edge"><title>Node4&#45;&gt;Node2</title>
<path fill="none" stroke="#404040" d="M131.677,-540.402C141.547,-512.468 157.438,-468.083 172,-430 176.499,-418.235 181.283,-405.975 186.105,-393.777"/>
<polygon fill="none" stroke="#404040" points="186.111,-393.761 184.606,-386.709 190.537,-382.607 192.042,-389.66 186.111,-393.761"/>
<text text-anchor="middle" x="198" y="-404" font-family="Helvetica,sans-Serif" font-size="10.00"> &#45;client</text>
</g>
<!-- Node5 -->
<g id="node5" class="node"><title>Node5</title>
<g id="a_node5"><a xlink:title=" ">
<polygon fill="white" stroke="#bfbfbf" points="181.5,-540.5 181.5,-597.5 280.5,-597.5 280.5,-540.5 181.5,-540.5"/>
<text text-anchor="middle" x="231" y="-585.5" font-family="Helvetica,sans-Serif" font-size="10.00">InetSocketAddress</text>
<polyline fill="none" stroke="#bfbfbf" points="181.5,-578.5 280.5,-578.5 "/>
<text text-anchor="middle" x="231" y="-566.5" font-family="Helvetica,sans-Serif" font-size="10.00"> </text>
<polyline fill="none" stroke="#bfbfbf" points="181.5,-559.5 280.5,-559.5 "/>
<text text-anchor="middle" x="231" y="-547.5" font-family="Helvetica,sans-Serif" font-size="10.00"> </text>
</a>
</g>
</g>
<!-- Node5&#45;&gt;Node2 -->
<g id="edge4" class="edge"><title>Node5&#45;&gt;Node2</title>
<path fill="none" stroke="#404040" d="M231,-540.462C231,-506.825 231,-447.85 231,-394.876"/>
<polygon fill="none" stroke="#404040" points="231,-394.621 227,-388.621 231,-382.621 235,-388.62 231,-394.621"/>
<text text-anchor="middle" x="242" y="-404" font-family="Helvetica,sans-Serif" font-size="10.00"> &#45;udp</text>
</g>
<!-- Node6 -->
<g id="node6" class="node"><title>Node6</title>
<g id="a_node6"><a xlink:href="class_word_quizzle_1_1_word_quizzle_server_service.html" target="_top" xlink:title="Implementa la Business Logic.">
<polygon fill="white" stroke="black" points="298.5,-430.5 298.5,-707.5 457.5,-707.5 457.5,-430.5 298.5,-430.5"/>
<text text-anchor="start" x="306.5" y="-695.5" font-family="Helvetica,sans-Serif" font-size="10.00">WordQuizzle.WordQuizzleServer</text>
<text text-anchor="middle" x="378" y="-684.5" font-family="Helvetica,sans-Serif" font-size="10.00">Service</text>
<polyline fill="none" stroke="black" points="298.5,-677.5 457.5,-677.5 "/>
<text text-anchor="start" x="306.5" y="-665.5" font-family="Helvetica,sans-Serif" font-size="10.00">&#45; K</text>
<text text-anchor="start" x="306.5" y="-654.5" font-family="Helvetica,sans-Serif" font-size="10.00">&#45; T1</text>
<text text-anchor="start" x="306.5" y="-643.5" font-family="Helvetica,sans-Serif" font-size="10.00">&#45; T2</text>
<text text-anchor="start" x="306.5" y="-632.5" font-family="Helvetica,sans-Serif" font-size="10.00">&#45; X</text>
<text text-anchor="start" x="306.5" y="-621.5" font-family="Helvetica,sans-Serif" font-size="10.00">&#45; Y</text>
<text text-anchor="start" x="306.5" y="-610.5" font-family="Helvetica,sans-Serif" font-size="10.00">&#45; Z</text>
<polyline fill="none" stroke="black" points="298.5,-603.5 457.5,-603.5 "/>
<text text-anchor="start" x="306.5" y="-591.5" font-family="Helvetica,sans-Serif" font-size="10.00">+ WordQuizzleServerService()</text>
<text text-anchor="start" x="306.5" y="-580.5" font-family="Helvetica,sans-Serif" font-size="10.00">+ login()</text>
<text text-anchor="start" x="306.5" y="-569.5" font-family="Helvetica,sans-Serif" font-size="10.00">+ logout()</text>
<text text-anchor="start" x="306.5" y="-558.5" font-family="Helvetica,sans-Serif" font-size="10.00">+ aggiungi_amico()</text>
<text text-anchor="start" x="306.5" y="-547.5" font-family="Helvetica,sans-Serif" font-size="10.00">+ lista_amici()</text>
<text text-anchor="start" x="306.5" y="-536.5" font-family="Helvetica,sans-Serif" font-size="10.00">+ mostra_punteggio()</text>
<text text-anchor="start" x="306.5" y="-525.5" font-family="Helvetica,sans-Serif" font-size="10.00">+ mostra_classifica()</text>
<text text-anchor="start" x="306.5" y="-514.5" font-family="Helvetica,sans-Serif" font-size="10.00">+ sfida()</text>
<text text-anchor="start" x="306.5" y="-503.5" font-family="Helvetica,sans-Serif" font-size="10.00">+ accettaSfida()</text>
<text text-anchor="start" x="306.5" y="-492.5" font-family="Helvetica,sans-Serif" font-size="10.00">+ getK()</text>
<text text-anchor="start" x="306.5" y="-481.5" font-family="Helvetica,sans-Serif" font-size="10.00">+ getZ()</text>
<text text-anchor="start" x="306.5" y="-470.5" font-family="Helvetica,sans-Serif" font-size="10.00">+ getY()</text>
<text text-anchor="start" x="306.5" y="-459.5" font-family="Helvetica,sans-Serif" font-size="10.00">+ getX()</text>
<text text-anchor="start" x="306.5" y="-448.5" font-family="Helvetica,sans-Serif" font-size="10.00">+ getT1()</text>
<text text-anchor="start" x="306.5" y="-437.5" font-family="Helvetica,sans-Serif" font-size="10.00">+ getT2()</text>
</a>
</g>
</g>
<!-- Node6&#45;&gt;Node2 -->
<g id="edge5" class="edge"><title>Node6&#45;&gt;Node2</title>
<path fill="none" stroke="#404040" d="M306.868,-430.334C300.528,-418.063 294.164,-405.746 287.966,-393.75"/>
<polygon fill="none" stroke="#404040" points="287.834,-393.494 281.526,-390 282.325,-382.833 288.633,-386.328 287.834,-393.494"/>
<text text-anchor="middle" x="305.5" y="-404" font-family="Helvetica,sans-Serif" font-size="10.00"> &#45;wq</text>
</g>
<!-- Node7 -->
<g id="node7" class="node"><title>Node7</title>
<g id="a_node7"><a xlink:title=" ">
<polygon fill="white" stroke="#bfbfbf" points="50.5,-777.5 50.5,-834.5 139.5,-834.5 139.5,-777.5 50.5,-777.5"/>
<text text-anchor="middle" x="95" y="-822.5" font-family="Helvetica,sans-Serif" font-size="10.00">DatagramSocket</text>
<polyline fill="none" stroke="#bfbfbf" points="50.5,-815.5 139.5,-815.5 "/>
<text text-anchor="middle" x="95" y="-803.5" font-family="Helvetica,sans-Serif" font-size="10.00"> </text>
<polyline fill="none" stroke="#bfbfbf" points="50.5,-796.5 139.5,-796.5 "/>
<text text-anchor="middle" x="95" y="-784.5" font-family="Helvetica,sans-Serif" font-size="10.00"> </text>
</a>
</g>
</g>
<!-- Node7&#45;&gt;Node6 -->
<g id="edge6" class="edge"><title>Node7&#45;&gt;Node6</title>
<path fill="none" stroke="#404040" d="M119.858,-777.411C128.19,-769.357 137.936,-761.092 148,-755 181.787,-734.547 194.499,-738.392 232,-726 257.225,-717.664 267.882,-724.119 289,-708 289.099,-707.924 289.198,-707.849 289.297,-707.773"/>
<polygon fill="none" stroke="#404040" points="289.044,-707.983 291.104,-701.072 298.275,-700.315 296.215,-707.226 289.044,-707.983"/>
<text text-anchor="middle" x="250" y="-729" font-family="Helvetica,sans-Serif" font-size="10.00"> &#45;socket</text>
</g>
<!-- Node8 -->
<g id="node8" class="node"><title>Node8</title>
<g id="a_node8"><a xlink:title=" ">
<polygon fill="white" stroke="#bfbfbf" points="157.5,-772 157.5,-840 292.5,-840 292.5,-772 157.5,-772"/>
<text text-anchor="start" x="165.5" y="-828" font-family="Helvetica,sans-Serif" font-size="10.00">Map&lt; String, WordQuizzle.</text>
<text text-anchor="middle" x="225" y="-817" font-family="Helvetica,sans-Serif" font-size="10.00">Session &gt;</text>
<polyline fill="none" stroke="#bfbfbf" points="157.5,-810 292.5,-810 "/>
<text text-anchor="middle" x="225" y="-798" font-family="Helvetica,sans-Serif" font-size="10.00"> </text>
<polyline fill="none" stroke="#bfbfbf" points="157.5,-791 292.5,-791 "/>
<text text-anchor="middle" x="225" y="-779" font-family="Helvetica,sans-Serif" font-size="10.00"> </text>
</a>
</g>
</g>
<!-- Node8&#45;&gt;Node6 -->
<g id="edge7" class="edge"><title>Node8&#45;&gt;Node6</title>
<path fill="none" stroke="#404040" d="M247.005,-771.835C259.39,-753.122 275.111,-729.291 289,-708 289.974,-706.508 290.953,-705.006 291.936,-703.496"/>
<polygon fill="none" stroke="#404040" points="291.942,-703.487 291.862,-696.277 298.487,-693.429 298.567,-700.64 291.942,-703.487"/>
<text text-anchor="middle" x="292.5" y="-729" font-family="Helvetica,sans-Serif" font-size="10.00"> &#45;users</text>
</g>
<!-- Node9 -->
<g id="node9" class="node"><title>Node9</title>
<g id="a_node9"><a xlink:title=" ">
<polygon fill="white" stroke="#bfbfbf" points="287.5,-915.5 287.5,-972.5 322.5,-972.5 322.5,-915.5 287.5,-915.5"/>
<text text-anchor="middle" x="305" y="-960.5" font-family="Helvetica,sans-Serif" font-size="10.00">Map</text>
<polyline fill="none" stroke="#bfbfbf" points="287.5,-953.5 322.5,-953.5 "/>
<text text-anchor="middle" x="305" y="-941.5" font-family="Helvetica,sans-Serif" font-size="10.00"> </text>
<polyline fill="none" stroke="#bfbfbf" points="287.5,-934.5 322.5,-934.5 "/>
<text text-anchor="middle" x="305" y="-922.5" font-family="Helvetica,sans-Serif" font-size="10.00"> </text>
</a>
</g>
</g>
<!-- Node9&#45;&gt;Node8 -->
<g id="edge8" class="edge"><title>Node9&#45;&gt;Node8</title>
<path fill="none" stroke="orange" d="M278.343,-930.565C264.72,-922.827 249.129,-911.56 240,-897 229.482,-880.224 225.659,-858.373 224.501,-840.403"/>
<polygon fill="orange" stroke="orange" points="276.884,-933.753 287.357,-935.356 280.169,-927.572 276.884,-933.753"/>
<text text-anchor="start" x="240" y="-889" font-family="Helvetica,sans-Serif" font-size="10.00"> &lt; String, WordQuizzle</text>
<text text-anchor="middle" x="290" y="-878" font-family="Helvetica,sans-Serif" font-size="10.00">::Session &gt;</text>
</g>
<!-- Node12 -->
<g id="node12" class="node"><title>Node12</title>
<g id="a_node12"><a xlink:title=" ">
<polygon fill="white" stroke="#bfbfbf" points="310.5,-772 310.5,-840 445.5,-840 445.5,-772 310.5,-772"/>
<text text-anchor="start" x="318.5" y="-828" font-family="Helvetica,sans-Serif" font-size="10.00">Map&lt; String, WordQuizzle.</text>
<text text-anchor="middle" x="378" y="-817" font-family="Helvetica,sans-Serif" font-size="10.00">Challenge &gt;</text>
<polyline fill="none" stroke="#bfbfbf" points="310.5,-810 445.5,-810 "/>
<text text-anchor="middle" x="378" y="-798" font-family="Helvetica,sans-Serif" font-size="10.00"> </text>
<polyline fill="none" stroke="#bfbfbf" points="310.5,-791 445.5,-791 "/>
<text text-anchor="middle" x="378" y="-779" font-family="Helvetica,sans-Serif" font-size="10.00"> </text>
</a>
</g>
</g>
<!-- Node9&#45;&gt;Node12 -->
<g id="edge12" class="edge"><title>Node9&#45;&gt;Node12</title>
<path fill="none" stroke="orange" d="M329.467,-917.255C334.705,-910.938 339.891,-903.978 344,-897 354.425,-879.297 362.681,-857.829 368.446,-840.301"/>
<polygon fill="orange" stroke="orange" points="326.78,-915.012 322.884,-924.864 332.073,-919.592 326.78,-915.012"/>
<text text-anchor="start" x="355" y="-889" font-family="Helvetica,sans-Serif" font-size="10.00"> &lt; String, WordQuizzle</text>
<text text-anchor="middle" x="405" y="-878" font-family="Helvetica,sans-Serif" font-size="10.00">::Challenge &gt;</text>
</g>
<!-- Node10 -->
<g id="node10" class="node"><title>Node10</title>
<g id="a_node10"><a xlink:title=" ">
<polygon fill="white" stroke="#bfbfbf" points="463.5,-777.5 463.5,-834.5 516.5,-834.5 516.5,-777.5 463.5,-777.5"/>
<text text-anchor="middle" x="490" y="-822.5" font-family="Helvetica,sans-Serif" font-size="10.00">Selector</text>
<polyline fill="none" stroke="#bfbfbf" points="463.5,-815.5 516.5,-815.5 "/>
<text text-anchor="middle" x="490" y="-803.5" font-family="Helvetica,sans-Serif" font-size="10.00"> </text>
<polyline fill="none" stroke="#bfbfbf" points="463.5,-796.5 516.5,-796.5 "/>
<text text-anchor="middle" x="490" y="-784.5" font-family="Helvetica,sans-Serif" font-size="10.00"> </text>
</a>
</g>
</g>
<!-- Node10&#45;&gt;Node6 -->
<g id="edge9" class="edge"><title>Node10&#45;&gt;Node6</title>
<path fill="none" stroke="#404040" d="M476.712,-777.12C469.318,-761.604 459.476,-740.955 448.868,-718.696"/>
<polygon fill="none" stroke="#404040" points="448.769,-718.488 442.576,-714.792 443.606,-707.655 449.798,-711.351 448.769,-718.488"/>
<text text-anchor="middle" x="477.5" y="-729" font-family="Helvetica,sans-Serif" font-size="10.00"> &#45;selector</text>
</g>
<!-- Node11 -->
<g id="node11" class="node"><title>Node11</title>
<g id="a_node11"><a xlink:href="interface_word_quizzle_1_1_data_base.html" target="_top" xlink:title="Database che gestisce gli utenti.">
<polygon fill="white" stroke="black" points="534.5,-755.5 534.5,-856.5 653.5,-856.5 653.5,-755.5 534.5,-755.5"/>
<text text-anchor="middle" x="594" y="-844.5" font-family="Helvetica,sans-Serif" font-size="10.00">WordQuizzle.DataBase</text>
<polyline fill="none" stroke="black" points="534.5,-837.5 653.5,-837.5 "/>
<text text-anchor="middle" x="594" y="-825.5" font-family="Helvetica,sans-Serif" font-size="10.00"> </text>
<polyline fill="none" stroke="black" points="534.5,-818.5 653.5,-818.5 "/>
<text text-anchor="start" x="542.5" y="-806.5" font-family="Helvetica,sans-Serif" font-size="10.00">+ checkUser()</text>
<text text-anchor="start" x="542.5" y="-795.5" font-family="Helvetica,sans-Serif" font-size="10.00">+ getUser()</text>
<text text-anchor="start" x="542.5" y="-784.5" font-family="Helvetica,sans-Serif" font-size="10.00">+ newUser()</text>
<text text-anchor="start" x="542.5" y="-773.5" font-family="Helvetica,sans-Serif" font-size="10.00">+ modifyScore()</text>
<text text-anchor="start" x="542.5" y="-762.5" font-family="Helvetica,sans-Serif" font-size="10.00">+ link()</text>
</a>
</g>
</g>
<!-- Node11&#45;&gt;Node6 -->
<g id="edge10" class="edge"><title>Node11&#45;&gt;Node6</title>
<path fill="none" stroke="#404040" d="M540.783,-755.476C528.492,-745.139 515.15,-734.74 502,-726 489.43,-717.645 481.904,-719.1 466.843,-707.746"/>
<polygon fill="none" stroke="#404040" points="466.798,-707.708 459.632,-706.902 457.62,-699.977 464.786,-700.783 466.798,-707.708"/>
<text text-anchor="middle" x="524.5" y="-729" font-family="Helvetica,sans-Serif" font-size="10.00"> &#45;db</text>
</g>
<!-- Node12&#45;&gt;Node6 -->
<g id="edge11" class="edge"><title>Node12&#45;&gt;Node6</title>
<path fill="none" stroke="#404040" d="M378,-771.829C378,-757.317 378,-739.179 378,-719.768"/>
<polygon fill="none" stroke="#404040" points="378,-719.538 374,-713.538 378,-707.538 382,-713.538 378,-719.538"/>
<text text-anchor="middle" x="404.5" y="-729" font-family="Helvetica,sans-Serif" font-size="10.00"> &#45;challenges</text>
</g>
<!-- Node13 -->
<g id="node13" class="node"><title>Node13</title>
<g id="a_node13"><a xlink:title=" ">
<polygon fill="white" stroke="#bfbfbf" points="378.5,-254 378.5,-311 467.5,-311 467.5,-254 378.5,-254"/>
<text text-anchor="middle" x="423" y="-299" font-family="Helvetica,sans-Serif" font-size="10.00">Vector&lt; String &gt;</text>
<polyline fill="none" stroke="#bfbfbf" points="378.5,-292 467.5,-292 "/>
<text text-anchor="middle" x="423" y="-280" font-family="Helvetica,sans-Serif" font-size="10.00"> </text>
<polyline fill="none" stroke="#bfbfbf" points="378.5,-273 467.5,-273 "/>
<text text-anchor="middle" x="423" y="-261" font-family="Helvetica,sans-Serif" font-size="10.00"> </text>
</a>
</g>
</g>
<!-- Node13&#45;&gt;Node1 -->
<g id="edge13" class="edge"><title>Node13&#45;&gt;Node1</title>
<path fill="none" stroke="#404040" d="M412.934,-253.654C403.107,-226.47 387.696,-183.84 374.137,-146.334"/>
<polygon fill="none" stroke="#404040" points="374.077,-146.167 368.275,-141.884 369.997,-134.882 375.799,-139.164 374.077,-146.167"/>
<text text-anchor="middle" x="391" y="-156" font-family="Helvetica,sans-Serif" font-size="10.00"> &#45;ans</text>
</g>
<!-- Node14 -->
<g id="node14" class="node"><title>Node14</title>
<g id="a_node14"><a xlink:title=" ">
<polygon fill="white" stroke="#bfbfbf" points="475.5,-540.5 475.5,-597.5 520.5,-597.5 520.5,-540.5 475.5,-540.5"/>
<text text-anchor="middle" x="498" y="-585.5" font-family="Helvetica,sans-Serif" font-size="10.00">Vector</text>
<polyline fill="none" stroke="#bfbfbf" points="475.5,-578.5 520.5,-578.5 "/>
<text text-anchor="middle" x="498" y="-566.5" font-family="Helvetica,sans-Serif" font-size="10.00"> </text>
<polyline fill="none" stroke="#bfbfbf" points="475.5,-559.5 520.5,-559.5 "/>
<text text-anchor="middle" x="498" y="-547.5" font-family="Helvetica,sans-Serif" font-size="10.00"> </text>
</a>
</g>
</g>
<!-- Node14&#45;&gt;Node13 -->
<g id="edge14" class="edge"><title>Node14&#45;&gt;Node13</title>
<path fill="none" stroke="orange" d="M489.873,-530.297C483.726,-502.476 474.858,-463.75 466,-430 455.065,-388.337 440.686,-340.538 431.642,-311.179"/>
<polygon fill="orange" stroke="orange" points="486.526,-531.376 492.089,-540.393 493.363,-529.875 486.526,-531.376"/>
<text text-anchor="middle" x="484.5" y="-404" font-family="Helvetica,sans-Serif" font-size="10.00"> &lt; String &gt;</text>
</g>
</g>
</svg>
