<?xml version="1.0" encoding="UTF-8" standalone="no"?>
<!DOCTYPE svg PUBLIC "-//W3C//DTD SVG 1.1//EN"
 "http://www.w3.org/Graphics/SVG/1.1/DTD/svg11.dtd">
<!-- Generated by graphviz version 2.38.0 (20140413.2041)
 -->
<!-- Title: WordQuizzle.WQGui.makeGame Pages: 1 -->
<svg width="980pt" height="284pt"
 viewBox="0.00 0.00 980.00 284.00" xmlns="http://www.w3.org/2000/svg" xmlns:xlink="http://www.w3.org/1999/xlink">
<g id="graph0" class="graph" transform="scale(1 1) rotate(0) translate(4 280)">
<title>WordQuizzle.WQGui.makeGame</title>
<polygon fill="white" stroke="none" points="-4,4 -4,-280 976,-280 976,4 -4,4"/>
<!-- Node1 -->
<g id="node1" class="node"><title>Node1</title>
<g id="a_node1"><a xlink:title=" ">
<polygon fill="#bfbfbf" stroke="black" points="0,-129 0,-148 161,-148 161,-129 0,-129"/>
<text text-anchor="middle" x="80.5" y="-136" font-family="Helvetica,sans-Serif" font-size="10.00">WordQuizzle.WQGui.makeGame</text>
</a>
</g>
</g>
<!-- Node2 -->
<g id="node2" class="node"><title>Node2</title>
<g id="a_node2"><a xlink:href="class_word_quizzle_1_1_word_quizzle_client.html#a91d982387c02c9ccae681f4a7d500a75" target="_top" xlink:title=" ">
<polygon fill="white" stroke="black" points="197,-244.5 197,-274.5 393,-274.5 393,-244.5 197,-244.5"/>
<text text-anchor="start" x="205" y="-262.5" font-family="Helvetica,sans-Serif" font-size="10.00">WordQuizzle.WordQuizzleClient.aggiungi</text>
<text text-anchor="middle" x="295" y="-251.5" font-family="Helvetica,sans-Serif" font-size="10.00">_amico</text>
</a>
</g>
</g>
<!-- Node1&#45;&gt;Node2 -->
<g id="edge1" class="edge"><title>Node1&#45;&gt;Node2</title>
<path fill="none" stroke="midnightblue" d="M90.4208,-148.023C108.645,-166.923 152.22,-209.34 197,-232.5 203.103,-235.656 209.618,-238.48 216.275,-240.998"/>
<polygon fill="midnightblue" stroke="midnightblue" points="215.505,-244.438 226.099,-244.473 217.839,-237.839 215.505,-244.438"/>
</g>
<!-- Node7 -->
<g id="node7" class="node"><title>Node7</title>
<g id="a_node7"><a xlink:href="class_word_quizzle_1_1_word_quizzle_client.html#a601f27bc3078f4c7d43417481f4c1353" target="_top" xlink:title=" ">
<polygon fill="white" stroke="black" points="206,-193.5 206,-223.5 384,-223.5 384,-193.5 206,-193.5"/>
<text text-anchor="start" x="214" y="-211.5" font-family="Helvetica,sans-Serif" font-size="10.00">WordQuizzle.WordQuizzleClient.lista</text>
<text text-anchor="middle" x="295" y="-200.5" font-family="Helvetica,sans-Serif" font-size="10.00">_amici</text>
</a>
</g>
</g>
<!-- Node1&#45;&gt;Node7 -->
<g id="edge6" class="edge"><title>Node1&#45;&gt;Node7</title>
<path fill="none" stroke="midnightblue" d="M106.115,-148C129.385,-156.85 165.351,-170.191 197,-180.5 207.463,-183.908 218.628,-187.329 229.521,-190.551"/>
<polygon fill="midnightblue" stroke="midnightblue" points="228.841,-193.998 239.421,-193.447 230.807,-187.28 228.841,-193.998"/>
</g>
<!-- Node9 -->
<g id="node9" class="node"><title>Node9</title>
<g id="a_node9"><a xlink:href="class_word_quizzle_1_1_word_quizzle_client.html#a50468f5e79e6bba9efc2e9fd19493345" target="_top" xlink:title=" ">
<polygon fill="white" stroke="black" points="202,-152 202,-171 388,-171 388,-152 202,-152"/>
<text text-anchor="middle" x="295" y="-159" font-family="Helvetica,sans-Serif" font-size="10.00">WordQuizzle.WordQuizzleClient.logout</text>
</a>
</g>
</g>
<!-- Node1&#45;&gt;Node9 -->
<g id="edge9" class="edge"><title>Node1&#45;&gt;Node9</title>
<path fill="none" stroke="midnightblue" d="M161.232,-147.13C172.527,-148.352 184.248,-149.621 195.841,-150.876"/>
<polygon fill="midnightblue" stroke="midnightblue" points="195.663,-154.377 205.981,-151.973 196.416,-147.417 195.663,-154.377"/>
</g>
<!-- Node11 -->
<g id="node11" class="node"><title>Node11</title>
<g id="a_node11"><a xlink:href="class_word_quizzle_1_1_word_quizzle_client.html#a155c2dca547e63f1ba07589525ccfd75" target="_top" xlink:title=" ">
<polygon fill="white" stroke="black" points="200,-101.5 200,-131.5 390,-131.5 390,-101.5 200,-101.5"/>
<text text-anchor="start" x="208" y="-119.5" font-family="Helvetica,sans-Serif" font-size="10.00">WordQuizzle.WordQuizzleClient.mostra</text>
<text text-anchor="middle" x="295" y="-108.5" font-family="Helvetica,sans-Serif" font-size="10.00">_classifica</text>
</a>
</g>
</g>
<!-- Node1&#45;&gt;Node11 -->
<g id="edge12" class="edge"><title>Node1&#45;&gt;Node11</title>
<path fill="none" stroke="midnightblue" d="M161.232,-130.245C170.584,-129.277 180.23,-128.279 189.852,-127.282"/>
<polygon fill="midnightblue" stroke="midnightblue" points="190.272,-130.758 199.858,-126.246 189.551,-123.795 190.272,-130.758"/>
</g>
<!-- Node13 -->
<g id="node13" class="node"><title>Node13</title>
<g id="a_node13"><a xlink:href="class_word_quizzle_1_1_word_quizzle_client.html#a22e0d1e5461e49703357d34b50cf70b8" target="_top" xlink:title=" ">
<polygon fill="white" stroke="black" points="200,-50.5 200,-80.5 390,-80.5 390,-50.5 200,-50.5"/>
<text text-anchor="start" x="208" y="-68.5" font-family="Helvetica,sans-Serif" font-size="10.00">WordQuizzle.WordQuizzleClient.mostra</text>
<text text-anchor="middle" x="295" y="-57.5" font-family="Helvetica,sans-Serif" font-size="10.00">_punteggio</text>
</a>
</g>
</g>
<!-- Node1&#45;&gt;Node13 -->
<g id="edge15" class="edge"><title>Node1&#45;&gt;Node13</title>
<path fill="none" stroke="midnightblue" d="M102.911,-128.849C125.872,-118.721 163.551,-102.74 197,-91.5 205.556,-88.6248 214.619,-85.8491 223.634,-83.2503"/>
<polygon fill="midnightblue" stroke="midnightblue" points="224.696,-86.5873 233.37,-80.5035 222.796,-79.8502 224.696,-86.5873"/>
</g>
<!-- Node15 -->
<g id="node15" class="node"><title>Node15</title>
<g id="a_node15"><a xlink:href="class_word_quizzle_1_1_word_quizzle_client.html#a2f667c9d998bab28411f3fd0af90ec8c" target="_top" xlink:title=" ">
<polygon fill="white" stroke="black" points="205,-10 205,-29 385,-29 385,-10 205,-10"/>
<text text-anchor="middle" x="295" y="-17" font-family="Helvetica,sans-Serif" font-size="10.00">WordQuizzle.WordQuizzleClient.sfida</text>
</a>
</g>
</g>
<!-- Node1&#45;&gt;Node15 -->
<g id="edge18" class="edge"><title>Node1&#45;&gt;Node15</title>
<path fill="none" stroke="midnightblue" d="M89.674,-128.936C107.189,-109.101 150.543,-63.4253 197,-40.5 203.899,-37.0956 211.342,-34.24 218.929,-31.8452"/>
<polygon fill="midnightblue" stroke="midnightblue" points="219.954,-35.1925 228.587,-29.0517 218.009,-28.4681 219.954,-35.1925"/>
</g>
<!-- Node3 -->
<g id="node3" class="node"><title>Node3</title>
<g id="a_node3"><a xlink:href="class_word_quizzle_1_1_word_quizzle_client_service.html#adc41c272e3f60eaf3fb07f477887a7ff" target="_top" xlink:title=" ">
<polygon fill="white" stroke="black" points="429,-245.5 429,-275.5 586,-275.5 586,-245.5 429,-245.5"/>
<text text-anchor="start" x="437" y="-263.5" font-family="Helvetica,sans-Serif" font-size="10.00">WordQuizzle.WordQuizzleClient</text>
<text text-anchor="middle" x="507.5" y="-252.5" font-family="Helvetica,sans-Serif" font-size="10.00">Service.aggiungi_amico</text>
</a>
</g>
</g>
<!-- Node2&#45;&gt;Node3 -->
<g id="edge2" class="edge"><title>Node2&#45;&gt;Node3</title>
<path fill="none" stroke="midnightblue" d="M393.24,-259.962C401.741,-260.002 410.312,-260.043 418.729,-260.083"/>
<polygon fill="midnightblue" stroke="midnightblue" points="418.889,-263.584 428.906,-260.131 418.923,-256.584 418.889,-263.584"/>
</g>
<!-- Node4 -->
<g id="node4" class="node"><title>Node4</title>
<g id="a_node4"><a xlink:href="class_word_quizzle_1_1_word_quizzle_client_service.html#a0ed33ad0199840ae1847c4ecbc992ce2" target="_top" xlink:title=" ">
<polygon fill="white" stroke="black" points="622,-122.5 622,-152.5 779,-152.5 779,-122.5 622,-122.5"/>
<text text-anchor="start" x="630" y="-140.5" font-family="Helvetica,sans-Serif" font-size="10.00">WordQuizzle.WordQuizzleClient</text>
<text text-anchor="middle" x="700.5" y="-129.5" font-family="Helvetica,sans-Serif" font-size="10.00">Service.send</text>
</a>
</g>
</g>
<!-- Node3&#45;&gt;Node4 -->
<g id="edge3" class="edge"><title>Node3&#45;&gt;Node4</title>
<path fill="none" stroke="midnightblue" d="M564.68,-245.356C572.05,-242.516 579.345,-239.241 586,-235.5 622.337,-215.072 657.622,-181.859 678.954,-159.846"/>
<polygon fill="midnightblue" stroke="midnightblue" points="681.528,-162.219 685.897,-152.567 676.463,-157.388 681.528,-162.219"/>
</g>
<!-- Node5 -->
<g id="node5" class="node"><title>Node5</title>
<g id="a_node5"><a xlink:href="class_word_quizzle_1_1_word_quizzle_client_service.html#a59c8bdbde7768c2b478d51f4f13f7afb" target="_top" xlink:title=" ">
<polygon fill="white" stroke="black" points="815,-147.5 815,-177.5 972,-177.5 972,-147.5 815,-147.5"/>
<text text-anchor="start" x="823" y="-165.5" font-family="Helvetica,sans-Serif" font-size="10.00">WordQuizzle.WordQuizzleClient</text>
<text text-anchor="middle" x="893.5" y="-154.5" font-family="Helvetica,sans-Serif" font-size="10.00">Service.read</text>
</a>
</g>
</g>
<!-- Node4&#45;&gt;Node5 -->
<g id="edge4" class="edge"><title>Node4&#45;&gt;Node5</title>
<path fill="none" stroke="midnightblue" d="M779.187,-147.668C787.65,-148.776 796.306,-149.909 804.876,-151.031"/>
<polygon fill="midnightblue" stroke="midnightblue" points="804.512,-154.513 814.882,-152.341 805.421,-147.572 804.512,-154.513"/>
</g>
<!-- Node6 -->
<g id="node6" class="node"><title>Node6</title>
<g id="a_node6"><a xlink:href="class_word_quizzle_1_1_word_quizzle_client_service.html#a25566e1d25884c6c0dbb5aab0c1b52fd" target="_top" xlink:title=" ">
<polygon fill="white" stroke="black" points="815,-98.5 815,-128.5 972,-128.5 972,-98.5 815,-98.5"/>
<text text-anchor="start" x="823" y="-116.5" font-family="Helvetica,sans-Serif" font-size="10.00">WordQuizzle.WordQuizzleClient</text>
<text text-anchor="middle" x="893.5" y="-105.5" font-family="Helvetica,sans-Serif" font-size="10.00">Service.write</text>
</a>
</g>
</g>
<!-- Node4&#45;&gt;Node6 -->
<g id="edge5" class="edge"><title>Node4&#45;&gt;Node6</title>
<path fill="none" stroke="midnightblue" d="M779.187,-127.738C787.65,-126.675 796.306,-125.587 804.876,-124.51"/>
<polygon fill="midnightblue" stroke="midnightblue" points="805.396,-127.973 814.882,-123.253 804.523,-121.027 805.396,-127.973"/>
</g>
<!-- Node8 -->
<g id="node8" class="node"><title>Node8</title>
<g id="a_node8"><a xlink:href="class_word_quizzle_1_1_word_quizzle_client_service.html#ab8db9cd5ff3f755cf306b508741ce7b1" target="_top" xlink:title=" ">
<polygon fill="white" stroke="black" points="429,-196.5 429,-226.5 586,-226.5 586,-196.5 429,-196.5"/>
<text text-anchor="start" x="437" y="-214.5" font-family="Helvetica,sans-Serif" font-size="10.00">WordQuizzle.WordQuizzleClient</text>
<text text-anchor="middle" x="507.5" y="-203.5" font-family="Helvetica,sans-Serif" font-size="10.00">Service.lista_amici</text>
</a>
</g>
</g>
<!-- Node7&#45;&gt;Node8 -->
<g id="edge7" class="edge"><title>Node7&#45;&gt;Node8</title>
<path fill="none" stroke="midnightblue" d="M384.051,-209.755C395.553,-209.919 407.337,-210.087 418.833,-210.251"/>
<polygon fill="midnightblue" stroke="midnightblue" points="418.797,-213.75 428.846,-210.393 418.897,-206.751 418.797,-213.75"/>
</g>
<!-- Node8&#45;&gt;Node4 -->
<g id="edge8" class="edge"><title>Node8&#45;&gt;Node4</title>
<path fill="none" stroke="midnightblue" d="M557.529,-196.467C567.031,-193.334 576.87,-189.935 586,-186.5 609.866,-177.522 636.025,-166.324 657.209,-156.9"/>
<polygon fill="midnightblue" stroke="midnightblue" points="658.87,-159.991 666.566,-152.709 656.009,-153.603 658.87,-159.991"/>
</g>
<!-- Node10 -->
<g id="node10" class="node"><title>Node10</title>
<g id="a_node10"><a xlink:href="class_word_quizzle_1_1_word_quizzle_client_service.html#a584e77014fba5e13b26af26c6e240bd6" target="_top" xlink:title=" ">
<polygon fill="white" stroke="black" points="429,-147.5 429,-177.5 586,-177.5 586,-147.5 429,-147.5"/>
<text text-anchor="start" x="437" y="-165.5" font-family="Helvetica,sans-Serif" font-size="10.00">WordQuizzle.WordQuizzleClient</text>
<text text-anchor="middle" x="507.5" y="-154.5" font-family="Helvetica,sans-Serif" font-size="10.00">Service.logout</text>
</a>
</g>
</g>
<!-- Node9&#45;&gt;Node10 -->
<g id="edge10" class="edge"><title>Node9&#45;&gt;Node10</title>
<path fill="none" stroke="midnightblue" d="M388.022,-161.937C398.228,-161.986 408.602,-162.035 418.753,-162.083"/>
<polygon fill="midnightblue" stroke="midnightblue" points="418.798,-165.583 428.814,-162.131 418.831,-158.583 418.798,-165.583"/>
</g>
<!-- Node10&#45;&gt;Node4 -->
<g id="edge11" class="edge"><title>Node10&#45;&gt;Node4</title>
<path fill="none" stroke="midnightblue" d="M586.187,-152.332C594.65,-151.224 603.306,-150.091 611.876,-148.969"/>
<polygon fill="midnightblue" stroke="midnightblue" points="612.421,-152.428 621.882,-147.659 611.512,-145.487 612.421,-152.428"/>
</g>
<!-- Node12 -->
<g id="node12" class="node"><title>Node12</title>
<g id="a_node12"><a xlink:href="class_word_quizzle_1_1_word_quizzle_client_service.html#a972476e61ab3c927ba99af27bc7f58bb" target="_top" xlink:title=" ">
<polygon fill="white" stroke="black" points="429,-98.5 429,-128.5 586,-128.5 586,-98.5 429,-98.5"/>
<text text-anchor="start" x="437" y="-116.5" font-family="Helvetica,sans-Serif" font-size="10.00">WordQuizzle.WordQuizzleClient</text>
<text text-anchor="middle" x="507.5" y="-105.5" font-family="Helvetica,sans-Serif" font-size="10.00">Service.mostra_classifica</text>
</a>
</g>
</g>
<!-- Node11&#45;&gt;Node12 -->
<g id="edge13" class="edge"><title>Node11&#45;&gt;Node12</title>
<path fill="none" stroke="midnightblue" d="M390.168,-115.158C399.654,-115.023 409.261,-114.886 418.677,-114.752"/>
<polygon fill="midnightblue" stroke="midnightblue" points="418.855,-118.25 428.804,-114.607 418.755,-111.25 418.855,-118.25"/>
</g>
<!-- Node12&#45;&gt;Node4 -->
<g id="edge14" class="edge"><title>Node12&#45;&gt;Node4</title>
<path fill="none" stroke="midnightblue" d="M586.187,-123.262C594.65,-124.325 603.306,-125.413 611.876,-126.49"/>
<polygon fill="midnightblue" stroke="midnightblue" points="611.523,-129.973 621.882,-127.747 612.396,-123.027 611.523,-129.973"/>
</g>
<!-- Node14 -->
<g id="node14" class="node"><title>Node14</title>
<g id="a_node14"><a xlink:href="class_word_quizzle_1_1_word_quizzle_client_service.html#a50a062f91fbb470547bde8235f2930d1" target="_top" xlink:title=" ">
<polygon fill="white" stroke="black" points="429,-49.5 429,-79.5 586,-79.5 586,-49.5 429,-49.5"/>
<text text-anchor="start" x="437" y="-67.5" font-family="Helvetica,sans-Serif" font-size="10.00">WordQuizzle.WordQuizzleClient</text>
<text text-anchor="middle" x="507.5" y="-56.5" font-family="Helvetica,sans-Serif" font-size="10.00">Service.mostra_punteggio</text>
</a>
</g>
</g>
<!-- Node13&#45;&gt;Node14 -->
<g id="edge16" class="edge"><title>Node13&#45;&gt;Node14</title>
<path fill="none" stroke="midnightblue" d="M390.168,-65.0526C399.654,-65.0076 409.261,-64.9619 418.677,-64.9172"/>
<polygon fill="midnightblue" stroke="midnightblue" points="418.821,-68.4167 428.804,-64.8691 418.788,-61.4167 418.821,-68.4167"/>
</g>
<!-- Node14&#45;&gt;Node4 -->
<g id="edge17" class="edge"><title>Node14&#45;&gt;Node4</title>
<path fill="none" stroke="midnightblue" d="M560.036,-79.6108C568.756,-82.4092 577.676,-85.4245 586,-88.5 610.093,-97.402 636.463,-108.689 657.717,-118.186"/>
<polygon fill="midnightblue" stroke="midnightblue" points="656.54,-121.494 667.095,-122.408 659.414,-115.111 656.54,-121.494"/>
</g>
<!-- Node16 -->
<g id="node16" class="node"><title>Node16</title>
<g id="a_node16"><a xlink:href="class_word_quizzle_1_1_word_quizzle_client_service.html#a7eef869e03ee5f68139882d98de88c1f" target="_top" xlink:title=" ">
<polygon fill="white" stroke="black" points="429,-0.5 429,-30.5 586,-30.5 586,-0.5 429,-0.5"/>
<text text-anchor="start" x="437" y="-18.5" font-family="Helvetica,sans-Serif" font-size="10.00">WordQuizzle.WordQuizzleClient</text>
<text text-anchor="middle" x="507.5" y="-7.5" font-family="Helvetica,sans-Serif" font-size="10.00">Service.sfida</text>
</a>
</g>
</g>
<!-- Node15&#45;&gt;Node16 -->
<g id="edge19" class="edge"><title>Node15&#45;&gt;Node16</title>
<path fill="none" stroke="midnightblue" d="M385.271,-17.8036C396.338,-17.5933 407.646,-17.3785 418.691,-17.1686"/>
<polygon fill="midnightblue" stroke="midnightblue" points="418.814,-20.667 428.746,-16.9775 418.681,-13.6682 418.814,-20.667"/>
</g>
<!-- Node16&#45;&gt;Node4 -->
<g id="edge20" class="edge"><title>Node16&#45;&gt;Node4</title>
<path fill="none" stroke="midnightblue" d="M566.73,-30.634C573.399,-33.2083 579.964,-36.1532 586,-39.5 622.456,-59.7143 657.711,-92.9808 679.005,-115.064"/>
<polygon fill="midnightblue" stroke="midnightblue" points="676.512,-117.522 685.933,-122.369 681.591,-112.705 676.512,-117.522"/>
</g>
</g>
</svg>
