<?xml version="1.0" encoding="UTF-8" standalone="no"?>
<!DOCTYPE svg PUBLIC "-//W3C//DTD SVG 1.1//EN"
 "http://www.w3.org/Graphics/SVG/1.1/DTD/svg11.dtd">
<!-- Generated by graphviz version 2.38.0 (20140413.2041)
 -->
<!-- Title: User.getFriends Pages: 1 -->
<svg width="689pt" height="88pt"
 viewBox="0.00 0.00 689.00 88.00" xmlns="http://www.w3.org/2000/svg" xmlns:xlink="http://www.w3.org/1999/xlink">
<g id="graph0" class="graph" transform="scale(1 1) rotate(0) translate(4 84)">
<title>User.getFriends</title>
<polygon fill="white" stroke="none" points="-4,4 -4,-84 685,-84 685,4 -4,4"/>
<!-- Node1 -->
<g id="node1" class="node"><title>Node1</title>
<g id="a_node1"><a xlink:title="Restituisce la lista di amici dell&#39;utente.">
<polygon fill="#bfbfbf" stroke="black" points="595,-30 595,-49 681,-49 681,-30 595,-30"/>
<text text-anchor="middle" x="638" y="-37" font-family="Helvetica,sans-Serif" font-size="10.00">User.getFriends</text>
</a>
</g>
</g>
<!-- Node2 -->
<g id="node2" class="node"><title>Node2</title>
<g id="a_node2"><a xlink:href="class_word_quizzle_server_service.html#a7d1e0c830ff9c94df196ed2d4e49e703" target="_top" xlink:title=" ">
<polygon fill="white" stroke="black" points="401,-49.5 401,-79.5 553,-79.5 553,-49.5 401,-49.5"/>
<text text-anchor="start" x="409" y="-67.5" font-family="Helvetica,sans-Serif" font-size="10.00">WordQuizzleServerService.lista</text>
<text text-anchor="middle" x="477" y="-56.5" font-family="Helvetica,sans-Serif" font-size="10.00">_amici</text>
</a>
</g>
</g>
<!-- Node1&#45;&gt;Node2 -->
<g id="edge1" class="edge"><title>Node1&#45;&gt;Node2</title>
<path fill="none" stroke="midnightblue" d="M584.617,-47.7363C574.58,-49.3145 563.887,-50.9958 553.294,-52.6613"/>
<polygon fill="midnightblue" stroke="midnightblue" points="585.473,-51.1448 594.808,-46.1339 584.386,-44.2297 585.473,-51.1448"/>
</g>
<!-- Node6 -->
<g id="node6" class="node"><title>Node6</title>
<g id="a_node6"><a xlink:href="class_word_quizzle_server_service.html#ad8f2f775c4d322ac50c25dbc2b673505" target="_top" xlink:title=" ">
<polygon fill="white" stroke="black" points="395,-0.5 395,-30.5 559,-30.5 559,-0.5 395,-0.5"/>
<text text-anchor="start" x="403" y="-18.5" font-family="Helvetica,sans-Serif" font-size="10.00">WordQuizzleServerService.mostra</text>
<text text-anchor="middle" x="477" y="-7.5" font-family="Helvetica,sans-Serif" font-size="10.00">_classifica</text>
</a>
</g>
</g>
<!-- Node1&#45;&gt;Node6 -->
<g id="edge5" class="edge"><title>Node1&#45;&gt;Node6</title>
<path fill="none" stroke="midnightblue" d="M584.679,-31.6024C576.471,-30.3636 567.825,-29.0585 559.152,-27.7494"/>
<polygon fill="midnightblue" stroke="midnightblue" points="584.398,-35.0996 594.808,-33.1315 585.443,-28.178 584.398,-35.0996"/>
</g>
<!-- Node3 -->
<g id="node3" class="node"><title>Node3</title>
<g id="a_node3"><a xlink:href="class_session.html#a56e3ffab046de2082083cfc54b5d8e72" target="_top" xlink:title=" ">
<polygon fill="white" stroke="black" points="267,-55 267,-74 359,-74 359,-55 267,-55"/>
<text text-anchor="middle" x="313" y="-62" font-family="Helvetica,sans-Serif" font-size="10.00">Session.compute</text>
</a>
</g>
</g>
<!-- Node2&#45;&gt;Node3 -->
<g id="edge2" class="edge"><title>Node2&#45;&gt;Node3</title>
<path fill="none" stroke="midnightblue" d="M390.682,-64.5C379.791,-64.5 369.004,-64.5 359.113,-64.5"/>
<polygon fill="midnightblue" stroke="midnightblue" points="390.691,-68.0001 400.691,-64.5 390.691,-61.0001 390.691,-68.0001"/>
</g>
<!-- Node4 -->
<g id="node4" class="node"><title>Node4</title>
<g id="a_node4"><a xlink:href="class_session.html#a75364929cf1f8f9e75992a8a8c3b589f" target="_top" xlink:title=" ">
<polygon fill="white" stroke="black" points="152,-55 152,-74 231,-74 231,-55 152,-55"/>
<text text-anchor="middle" x="191.5" y="-62" font-family="Helvetica,sans-Serif" font-size="10.00">Session.parse</text>
</a>
</g>
</g>
<!-- Node3&#45;&gt;Node4 -->
<g id="edge3" class="edge"><title>Node3&#45;&gt;Node4</title>
<path fill="none" stroke="midnightblue" d="M256.749,-64.5C248.081,-64.5 239.286,-64.5 231.1,-64.5"/>
<polygon fill="midnightblue" stroke="midnightblue" points="256.822,-68.0001 266.822,-64.5 256.822,-61.0001 256.822,-68.0001"/>
</g>
<!-- Node5 -->
<g id="node5" class="node"><title>Node5</title>
<g id="a_node5"><a xlink:href="class_word_quizzle_server.html#a1414f39eeaaf2dbe0885f4d77a12c466" target="_top" xlink:title=" ">
<polygon fill="white" stroke="black" points="0,-55 0,-74 116,-74 116,-55 0,-55"/>
<text text-anchor="middle" x="58" y="-62" font-family="Helvetica,sans-Serif" font-size="10.00">WordQuizzleServer.run</text>
</a>
</g>
</g>
<!-- Node4&#45;&gt;Node5 -->
<g id="edge4" class="edge"><title>Node4&#45;&gt;Node5</title>
<path fill="none" stroke="midnightblue" d="M141.621,-64.5C133.428,-64.5 124.86,-64.5 116.475,-64.5"/>
<polygon fill="midnightblue" stroke="midnightblue" points="141.757,-68.0001 151.757,-64.5 141.757,-61.0001 141.757,-68.0001"/>
</g>
</g>
</svg>
