<?xml version="1.0" encoding="UTF-8" standalone="no"?>
<!DOCTYPE svg PUBLIC "-//W3C//DTD SVG 1.1//EN"
 "http://www.w3.org/Graphics/SVG/1.1/DTD/svg11.dtd">
<!-- Generated by graphviz version 2.38.0 (20140413.2041)
 -->
<!-- Title: WordQuizzle.Session.compute Pages: 1 -->
<svg width="559pt" height="382pt"
 viewBox="0.00 0.00 559.00 382.00" xmlns="http://www.w3.org/2000/svg" xmlns:xlink="http://www.w3.org/1999/xlink">
<g id="graph0" class="graph" transform="scale(1 1) rotate(0) translate(4 378)">
<title>WordQuizzle.Session.compute</title>
<polygon fill="white" stroke="none" points="-4,4 -4,-378 555,-378 555,4 -4,4"/>
<!-- Node1 -->
<g id="node1" class="node"><title>Node1</title>
<g id="a_node1"><a xlink:title=" ">
<polygon fill="#bfbfbf" stroke="black" points="0,-177 0,-196 152,-196 152,-177 0,-177"/>
<text text-anchor="middle" x="76" y="-184" font-family="Helvetica,sans-Serif" font-size="10.00">WordQuizzle.Session.compute</text>
</a>
</g>
</g>
<!-- Node2 -->
<g id="node2" class="node"><title>Node2</title>
<g id="a_node2"><a xlink:href="class_word_quizzle_1_1_word_quizzle_server_service.html#ac4a4c99a303ffb813cae6cfed0e12817" target="_top" xlink:title=" ">
<polygon fill="white" stroke="black" points="188,-343.5 188,-373.5 347,-373.5 347,-343.5 188,-343.5"/>
<text text-anchor="start" x="196" y="-361.5" font-family="Helvetica,sans-Serif" font-size="10.00">WordQuizzle.WordQuizzleServer</text>
<text text-anchor="middle" x="267.5" y="-350.5" font-family="Helvetica,sans-Serif" font-size="10.00">Service.accettaSfida</text>
</a>
</g>
</g>
<!-- Node1&#45;&gt;Node2 -->
<g id="edge1" class="edge"><title>Node1&#45;&gt;Node2</title>
<path fill="none" stroke="midnightblue" d="M81.4766,-196.11C94.2175,-222.404 133.32,-296.12 188,-334.5 190.143,-336.004 192.383,-337.417 194.695,-338.742"/>
<polygon fill="midnightblue" stroke="midnightblue" points="193.416,-342.018 203.916,-343.435 196.591,-335.78 193.416,-342.018"/>
</g>
<!-- Node3 -->
<g id="node3" class="node"><title>Node3</title>
<g id="a_node3"><a xlink:href="class_word_quizzle_1_1_word_quizzle_server_service.html#a1f28542d2118fba0a19061d5acf603ec" target="_top" xlink:title=" ">
<polygon fill="white" stroke="black" points="188,-294.5 188,-324.5 347,-324.5 347,-294.5 188,-294.5"/>
<text text-anchor="start" x="196" y="-312.5" font-family="Helvetica,sans-Serif" font-size="10.00">WordQuizzle.WordQuizzleServer</text>
<text text-anchor="middle" x="267.5" y="-301.5" font-family="Helvetica,sans-Serif" font-size="10.00">Service.aggiungi_amico</text>
</a>
</g>
</g>
<!-- Node1&#45;&gt;Node3 -->
<g id="edge2" class="edge"><title>Node1&#45;&gt;Node3</title>
<path fill="none" stroke="midnightblue" d="M85.1652,-196.176C102.258,-215.835 143.892,-260.682 188,-285.5 191.074,-287.23 194.287,-288.849 197.584,-290.364"/>
<polygon fill="midnightblue" stroke="midnightblue" points="196.477,-293.695 207.051,-294.358 199.198,-287.246 196.477,-293.695"/>
</g>
<!-- Node6 -->
<g id="node6" class="node"><title>Node6</title>
<g id="a_node6"><a xlink:href="class_word_quizzle_1_1_word_quizzle_server_service.html#a198417a123b189dd75e88d3e969cd11d" target="_top" xlink:title=" ">
<polygon fill="white" stroke="black" points="188,-196.5 188,-226.5 347,-226.5 347,-196.5 188,-196.5"/>
<text text-anchor="start" x="196" y="-214.5" font-family="Helvetica,sans-Serif" font-size="10.00">WordQuizzle.WordQuizzleServer</text>
<text text-anchor="middle" x="267.5" y="-203.5" font-family="Helvetica,sans-Serif" font-size="10.00">Service.lista_amici</text>
</a>
</g>
</g>
<!-- Node1&#45;&gt;Node6 -->
<g id="edge5" class="edge"><title>Node1&#45;&gt;Node6</title>
<path fill="none" stroke="midnightblue" d="M149.182,-196.023C158.576,-197.262 168.283,-198.543 177.905,-199.812"/>
<polygon fill="midnightblue" stroke="midnightblue" points="177.513,-203.291 187.885,-201.129 178.429,-196.351 177.513,-203.291"/>
</g>
<!-- Node9 -->
<g id="node9" class="node"><title>Node9</title>
<g id="a_node9"><a xlink:href="class_word_quizzle_1_1_word_quizzle_server_service.html#a5158b145fd600da151cb8206e41b4f1a" target="_top" xlink:title=" ">
<polygon fill="white" stroke="black" points="188,-98.5 188,-128.5 347,-128.5 347,-98.5 188,-98.5"/>
<text text-anchor="start" x="196" y="-116.5" font-family="Helvetica,sans-Serif" font-size="10.00">WordQuizzle.WordQuizzleServer</text>
<text text-anchor="middle" x="267.5" y="-105.5" font-family="Helvetica,sans-Serif" font-size="10.00">Service.login</text>
</a>
</g>
</g>
<!-- Node1&#45;&gt;Node9 -->
<g id="edge9" class="edge"><title>Node1&#45;&gt;Node9</title>
<path fill="none" stroke="midnightblue" d="M97.6144,-176.849C119.713,-166.678 155.95,-150.499 188,-138.5 193.977,-136.262 200.256,-134.045 206.55,-131.909"/>
<polygon fill="midnightblue" stroke="midnightblue" points="208.027,-135.106 216.411,-128.628 205.817,-128.464 208.027,-135.106"/>
</g>
<!-- Node11 -->
<g id="node11" class="node"><title>Node11</title>
<g id="a_node11"><a xlink:href="class_word_quizzle_1_1_word_quizzle_server_service.html#ac79f01637184c2916b5381056f5d36e7" target="_top" xlink:title=" ">
<polygon fill="white" stroke="black" points="188,-0.5 188,-30.5 347,-30.5 347,-0.5 188,-0.5"/>
<text text-anchor="start" x="196" y="-18.5" font-family="Helvetica,sans-Serif" font-size="10.00">WordQuizzle.WordQuizzleServer</text>
<text text-anchor="middle" x="267.5" y="-7.5" font-family="Helvetica,sans-Serif" font-size="10.00">Service.logout</text>
</a>
</g>
</g>
<!-- Node1&#45;&gt;Node11 -->
<g id="edge13" class="edge"><title>Node1&#45;&gt;Node11</title>
<path fill="none" stroke="midnightblue" d="M81.4949,-176.955C94.2828,-150.84 133.494,-77.6258 188,-39.5 190.146,-37.9991 192.388,-36.5899 194.702,-35.2672"/>
<polygon fill="midnightblue" stroke="midnightblue" points="196.596,-38.2306 203.928,-30.5819 193.427,-31.9893 196.596,-38.2306"/>
</g>
<!-- Node12 -->
<g id="node12" class="node"><title>Node12</title>
<g id="a_node12"><a xlink:href="class_word_quizzle_1_1_word_quizzle_server_service.html#ad212848f8436aaf885c017463458d2f4" target="_top" xlink:title=" ">
<polygon fill="white" stroke="black" points="188,-245.5 188,-275.5 347,-275.5 347,-245.5 188,-245.5"/>
<text text-anchor="start" x="196" y="-263.5" font-family="Helvetica,sans-Serif" font-size="10.00">WordQuizzle.WordQuizzleServer</text>
<text text-anchor="middle" x="267.5" y="-252.5" font-family="Helvetica,sans-Serif" font-size="10.00">Service.mostra_classifica</text>
</a>
</g>
</g>
<!-- Node1&#45;&gt;Node12 -->
<g id="edge14" class="edge"><title>Node1&#45;&gt;Node12</title>
<path fill="none" stroke="midnightblue" d="M96.3358,-196.112C118.239,-206.787 155.163,-224.141 188,-236.5 193.168,-238.445 198.571,-240.351 204.018,-242.186"/>
<polygon fill="midnightblue" stroke="midnightblue" points="203.237,-245.613 213.83,-245.403 205.418,-238.962 203.237,-245.613"/>
</g>
<!-- Node14 -->
<g id="node14" class="node"><title>Node14</title>
<g id="a_node14"><a xlink:href="class_word_quizzle_1_1_word_quizzle_server_service.html#a45a270251f3ca3e1595ceddf56fbe041" target="_top" xlink:title=" ">
<polygon fill="white" stroke="black" points="188,-147.5 188,-177.5 347,-177.5 347,-147.5 188,-147.5"/>
<text text-anchor="start" x="196" y="-165.5" font-family="Helvetica,sans-Serif" font-size="10.00">WordQuizzle.WordQuizzleServer</text>
<text text-anchor="middle" x="267.5" y="-154.5" font-family="Helvetica,sans-Serif" font-size="10.00">Service.mostra_punteggio</text>
</a>
</g>
</g>
<!-- Node1&#45;&gt;Node14 -->
<g id="edge19" class="edge"><title>Node1&#45;&gt;Node14</title>
<path fill="none" stroke="midnightblue" d="M152.168,-176.98C160.56,-175.917 169.167,-174.827 177.71,-173.745"/>
<polygon fill="midnightblue" stroke="midnightblue" points="178.21,-177.21 187.691,-172.481 177.33,-170.265 178.21,-177.21"/>
</g>
<!-- Node15 -->
<g id="node15" class="node"><title>Node15</title>
<g id="a_node15"><a xlink:href="class_word_quizzle_1_1_word_quizzle_server_service.html#aee4ec771e269748e727002f9fa02e8a0" target="_top" xlink:title=" ">
<polygon fill="white" stroke="black" points="188,-49.5 188,-79.5 347,-79.5 347,-49.5 188,-49.5"/>
<text text-anchor="start" x="196" y="-67.5" font-family="Helvetica,sans-Serif" font-size="10.00">WordQuizzle.WordQuizzleServer</text>
<text text-anchor="middle" x="267.5" y="-56.5" font-family="Helvetica,sans-Serif" font-size="10.00">Service.sfida</text>
</a>
</g>
</g>
<!-- Node1&#45;&gt;Node15 -->
<g id="edge23" class="edge"><title>Node1&#45;&gt;Node15</title>
<path fill="none" stroke="midnightblue" d="M85.4984,-176.776C102.878,-157.459 144.525,-114.004 188,-89.5 191.89,-87.3075 195.998,-85.278 200.214,-83.4043"/>
<polygon fill="midnightblue" stroke="midnightblue" points="201.66,-86.5942 209.573,-79.5485 198.993,-80.122 201.66,-86.5942"/>
</g>
<!-- Node4 -->
<g id="node4" class="node"><title>Node4</title>
<g id="a_node4"><a xlink:href="interface_word_quizzle_1_1_data_base.html#a256d6e7e3541d11a9ff219431066a7d5" target="_top" xlink:title="Controlla che quel nome utente sia nel database.">
<polygon fill="white" stroke="black" points="383,-177 383,-196 551,-196 551,-177 383,-177"/>
<text text-anchor="middle" x="467" y="-184" font-family="Helvetica,sans-Serif" font-size="10.00">WordQuizzle.DataBase.checkUser</text>
</a>
</g>
</g>
<!-- Node3&#45;&gt;Node4 -->
<g id="edge3" class="edge"><title>Node3&#45;&gt;Node4</title>
<path fill="none" stroke="midnightblue" d="M334.251,-294.305C338.832,-291.804 343.151,-288.892 347,-285.5 376.253,-259.723 352.842,-230.213 383,-205.5 385.051,-203.819 387.222,-202.281 389.486,-200.873"/>
<polygon fill="midnightblue" stroke="midnightblue" points="391.404,-203.819 398.625,-196.065 388.145,-197.624 391.404,-203.819"/>
</g>
<!-- Node5 -->
<g id="node5" class="node"><title>Node5</title>
<g id="a_node5"><a xlink:href="interface_word_quizzle_1_1_data_base.html#a2128ed726158cf0961972a99ac83b9a8" target="_top" xlink:title="Crea un link (amicizia) non orientato tra due utenti.">
<polygon fill="white" stroke="black" points="398.5,-300 398.5,-319 535.5,-319 535.5,-300 398.5,-300"/>
<text text-anchor="middle" x="467" y="-307" font-family="Helvetica,sans-Serif" font-size="10.00">WordQuizzle.DataBase.link</text>
</a>
</g>
</g>
<!-- Node3&#45;&gt;Node5 -->
<g id="edge4" class="edge"><title>Node3&#45;&gt;Node5</title>
<path fill="none" stroke="midnightblue" d="M347.125,-309.5C360.669,-309.5 374.74,-309.5 388.26,-309.5"/>
<polygon fill="midnightblue" stroke="midnightblue" points="388.474,-313 398.474,-309.5 388.474,-306 388.474,-313"/>
</g>
<!-- Node6&#45;&gt;Node4 -->
<g id="edge6" class="edge"><title>Node6&#45;&gt;Node4</title>
<path fill="none" stroke="midnightblue" d="M347.125,-201.548C358.161,-200.151 369.547,-198.709 380.7,-197.297"/>
<polygon fill="midnightblue" stroke="midnightblue" points="381.379,-200.739 390.861,-196.011 380.5,-193.795 381.379,-200.739"/>
</g>
<!-- Node7 -->
<g id="node7" class="node"><title>Node7</title>
<g id="a_node7"><a xlink:href="class_word_quizzle_1_1_user.html#a8a3e0c4b349c4e6bf825bc84c179c36b" target="_top" xlink:title="Restituisce la lista di amici dell&#39;utente.">
<polygon fill="white" stroke="black" points="394.5,-253 394.5,-272 539.5,-272 539.5,-253 394.5,-253"/>
<text text-anchor="middle" x="467" y="-260" font-family="Helvetica,sans-Serif" font-size="10.00">WordQuizzle.User.getFriends</text>
</a>
</g>
</g>
<!-- Node6&#45;&gt;Node7 -->
<g id="edge7" class="edge"><title>Node6&#45;&gt;Node7</title>
<path fill="none" stroke="midnightblue" d="M320.229,-226.519C339.835,-232.063 362.395,-238.265 383,-243.5 392.464,-245.904 402.57,-248.333 412.356,-250.613"/>
<polygon fill="midnightblue" stroke="midnightblue" points="411.869,-254.092 422.399,-252.928 413.441,-247.271 411.869,-254.092"/>
</g>
<!-- Node8 -->
<g id="node8" class="node"><title>Node8</title>
<g id="a_node8"><a xlink:href="interface_word_quizzle_1_1_data_base.html#a987acacce768d19e4551b5b3a508ccf3" target="_top" xlink:title="Dato un nome utente ottiene l&#39;oggetto User corrispondente.">
<polygon fill="white" stroke="black" points="389.5,-139 389.5,-158 544.5,-158 544.5,-139 389.5,-139"/>
<text text-anchor="middle" x="467" y="-146" font-family="Helvetica,sans-Serif" font-size="10.00">WordQuizzle.DataBase.getUser</text>
</a>
</g>
</g>
<!-- Node6&#45;&gt;Node8 -->
<g id="edge8" class="edge"><title>Node6&#45;&gt;Node8</title>
<path fill="none" stroke="midnightblue" d="M323.086,-196.44C331.203,-193.733 339.393,-190.733 347,-187.5 363.845,-180.34 365.909,-174.052 383,-167.5 389.738,-164.917 396.923,-162.629 404.142,-160.616"/>
<polygon fill="midnightblue" stroke="midnightblue" points="405.18,-163.962 413.965,-158.04 403.405,-157.191 405.18,-163.962"/>
</g>
<!-- Node9&#45;&gt;Node4 -->
<g id="edge10" class="edge"><title>Node9&#45;&gt;Node4</title>
<path fill="none" stroke="midnightblue" d="M324.872,-128.646C332.496,-131.497 340.071,-134.775 347,-138.5 365.097,-148.228 364.514,-158.534 383,-167.5 387.988,-169.919 393.295,-172.037 398.722,-173.89"/>
<polygon fill="midnightblue" stroke="midnightblue" points="397.987,-177.327 408.575,-176.948 400.061,-170.641 397.987,-177.327"/>
</g>
<!-- Node9&#45;&gt;Node8 -->
<g id="edge12" class="edge"><title>Node9&#45;&gt;Node8</title>
<path fill="none" stroke="midnightblue" d="M347.125,-127.433C365.379,-130.668 384.591,-134.073 402.122,-137.18"/>
<polygon fill="midnightblue" stroke="midnightblue" points="401.772,-140.672 412.229,-138.971 402.993,-133.78 401.772,-140.672"/>
</g>
<!-- Node10 -->
<g id="node10" class="node"><title>Node10</title>
<g id="a_node10"><a xlink:href="class_word_quizzle_1_1_user.html#ab3df921fe5bcada15672f146592dbc3f" target="_top" xlink:title="Restituisce la password dell&#39;utente.">
<polygon fill="white" stroke="black" points="389.5,-101 389.5,-120 544.5,-120 544.5,-101 389.5,-101"/>
<text text-anchor="middle" x="467" y="-108" font-family="Helvetica,sans-Serif" font-size="10.00">WordQuizzle.User.getPassword</text>
</a>
</g>
</g>
<!-- Node9&#45;&gt;Node10 -->
<g id="edge11" class="edge"><title>Node9&#45;&gt;Node10</title>
<path fill="none" stroke="midnightblue" d="M347.125,-112.306C357.641,-112.146 368.475,-111.981 379.122,-111.82"/>
<polygon fill="midnightblue" stroke="midnightblue" points="379.31,-115.317 389.256,-111.666 379.204,-108.318 379.31,-115.317"/>
</g>
<!-- Node12&#45;&gt;Node4 -->
<g id="edge15" class="edge"><title>Node12&#45;&gt;Node4</title>
<path fill="none" stroke="midnightblue" d="M327.478,-245.414C334.234,-242.831 340.885,-239.871 347,-236.5 365.491,-226.307 364.156,-215.024 383,-205.5 387.663,-203.143 392.62,-201.075 397.702,-199.261"/>
<polygon fill="midnightblue" stroke="midnightblue" points="399.139,-202.475 407.583,-196.075 396.992,-195.813 399.139,-202.475"/>
</g>
<!-- Node12&#45;&gt;Node7 -->
<g id="edge16" class="edge"><title>Node12&#45;&gt;Node7</title>
<path fill="none" stroke="midnightblue" d="M347.125,-261.296C359.311,-261.42 371.923,-261.547 384.178,-261.671"/>
<polygon fill="midnightblue" stroke="midnightblue" points="384.335,-265.173 394.37,-261.775 384.406,-258.173 384.335,-265.173"/>
</g>
<!-- Node12&#45;&gt;Node8 -->
<g id="edge18" class="edge"><title>Node12&#45;&gt;Node8</title>
<path fill="none" stroke="midnightblue" d="M333.263,-245.459C338.176,-242.923 342.835,-239.961 347,-236.5 373.604,-214.394 355.621,-188.638 383,-167.5 385.358,-165.679 387.86,-164.027 390.468,-162.529"/>
<polygon fill="midnightblue" stroke="midnightblue" points="392.252,-165.552 399.688,-158.004 389.169,-159.268 392.252,-165.552"/>
</g>
<!-- Node13 -->
<g id="node13" class="node"><title>Node13</title>
<g id="a_node13"><a xlink:href="class_word_quizzle_1_1_user.html#ae4cc205520a878a71ce7c673e96f7e4f" target="_top" xlink:title="Restituisce il punteggio dell&#39;utente.">
<polygon fill="white" stroke="black" points="398,-215 398,-234 536,-234 536,-215 398,-215"/>
<text text-anchor="middle" x="467" y="-222" font-family="Helvetica,sans-Serif" font-size="10.00">WordQuizzle.User.getScore</text>
</a>
</g>
</g>
<!-- Node12&#45;&gt;Node13 -->
<g id="edge17" class="edge"><title>Node12&#45;&gt;Node13</title>
<path fill="none" stroke="midnightblue" d="M347.125,-246.168C365.916,-242.743 385.723,-239.133 403.664,-235.862"/>
<polygon fill="midnightblue" stroke="midnightblue" points="404.495,-239.269 413.705,-234.032 403.24,-232.382 404.495,-239.269"/>
</g>
<!-- Node14&#45;&gt;Node4 -->
<g id="edge20" class="edge"><title>Node14&#45;&gt;Node4</title>
<path fill="none" stroke="midnightblue" d="M347.125,-172.054C357.129,-173.27 367.421,-174.521 377.566,-175.754"/>
<polygon fill="midnightblue" stroke="midnightblue" points="377.297,-179.247 387.646,-176.978 378.141,-172.298 377.297,-179.247"/>
</g>
<!-- Node14&#45;&gt;Node8 -->
<g id="edge22" class="edge"><title>Node14&#45;&gt;Node8</title>
<path fill="none" stroke="midnightblue" d="M347.125,-156.927C357.641,-156.181 368.475,-155.413 379.122,-154.658"/>
<polygon fill="midnightblue" stroke="midnightblue" points="379.528,-158.139 389.256,-153.94 379.033,-151.156 379.528,-158.139"/>
</g>
<!-- Node14&#45;&gt;Node13 -->
<g id="edge21" class="edge"><title>Node14&#45;&gt;Node13</title>
<path fill="none" stroke="midnightblue" d="M320.004,-177.638C329.087,-180.666 338.387,-184 347,-187.5 363.572,-194.234 366.162,-199.461 383,-205.5 390.24,-208.096 397.966,-210.422 405.68,-212.48"/>
<polygon fill="midnightblue" stroke="midnightblue" points="404.856,-215.882 415.409,-214.944 406.575,-209.096 404.856,-215.882"/>
</g>
<!-- Node15&#45;&gt;Node4 -->
<g id="edge24" class="edge"><title>Node15&#45;&gt;Node4</title>
<path fill="none" stroke="midnightblue" d="M332.303,-79.5683C337.603,-82.339 342.604,-85.6185 347,-89.5 375.62,-114.772 353.353,-143.441 383,-167.5 385.059,-169.171 387.237,-170.701 389.507,-172.101"/>
<polygon fill="midnightblue" stroke="midnightblue" points="388.18,-175.357 398.663,-176.887 391.422,-169.153 388.18,-175.357"/>
</g>
<!-- Node15&#45;&gt;Node8 -->
<g id="edge25" class="edge"><title>Node15&#45;&gt;Node8</title>
<path fill="none" stroke="midnightblue" d="M327.923,-79.6483C334.601,-82.4379 341.112,-85.6995 347,-89.5 367.095,-102.47 362.382,-117.378 383,-129.5 386.831,-131.752 390.907,-133.738 395.117,-135.488"/>
<polygon fill="midnightblue" stroke="midnightblue" points="393.913,-138.774 404.506,-138.955 396.338,-132.208 393.913,-138.774"/>
</g>
<!-- Node16 -->
<g id="node16" class="node"><title>Node16</title>
<g id="a_node16"><a xlink:href="class_word_quizzle_1_1_user.html#a3cb7161060a60e47d7d9437bed21b888" target="_top" xlink:title="Verifica se un nome utente e&#39; amico dell&#39;utente.">
<polygon fill="white" stroke="black" points="400,-55 400,-74 534,-74 534,-55 400,-55"/>
<text text-anchor="middle" x="467" y="-62" font-family="Helvetica,sans-Serif" font-size="10.00">WordQuizzle.User.isFriend</text>
</a>
</g>
</g>
<!-- Node15&#45;&gt;Node16 -->
<g id="edge26" class="edge"><title>Node15&#45;&gt;Node16</title>
<path fill="none" stroke="midnightblue" d="M347.125,-64.5C361.148,-64.5 375.736,-64.5 389.693,-64.5"/>
<polygon fill="midnightblue" stroke="midnightblue" points="389.727,-68.0001 399.727,-64.5 389.727,-61.0001 389.727,-68.0001"/>
</g>
</g>
</svg>
