<?xml version="1.0" encoding="UTF-8" standalone="no"?>
<!DOCTYPE svg PUBLIC "-//W3C//DTD SVG 1.1//EN"
 "http://www.w3.org/Graphics/SVG/1.1/DTD/svg11.dtd">
<!-- Generated by graphviz version 2.38.0 (20140413.2041)
 -->
<!-- Title: WordQuizzle.WordQuizzleServerService.getT2 Pages: 1 -->
<svg width="711pt" height="142pt"
 viewBox="0.00 0.00 711.00 142.00" xmlns="http://www.w3.org/2000/svg" xmlns:xlink="http://www.w3.org/1999/xlink">
<g id="graph0" class="graph" transform="scale(1 1) rotate(0) translate(4 138)">
<title>WordQuizzle.WordQuizzleServerService.getT2</title>
<polygon fill="white" stroke="none" points="-4,4 -4,-138 707,-138 707,4 -4,4"/>
<!-- Node1 -->
<g id="node1" class="node"><title>Node1</title>
<g id="a_node1"><a xlink:title="Restituisce la durata di una sfida, in millisecondi.">
<polygon fill="#bfbfbf" stroke="black" points="544,-63 544,-93 703,-93 703,-63 544,-63"/>
<text text-anchor="start" x="552" y="-81" font-family="Helvetica,sans-Serif" font-size="10.00">WordQuizzle.WordQuizzleServer</text>
<text text-anchor="middle" x="623.5" y="-70" font-family="Helvetica,sans-Serif" font-size="10.00">Service.getT2</text>
</a>
</g>
</g>
<!-- Node2 -->
<g id="node2" class="node"><title>Node2</title>
<g id="a_node2"><a xlink:href="class_word_quizzle_1_1_w_q_gui.html#a0e3cb31624c4fdda7b58977fe75de341" target="_top" xlink:title="Crea la finestra di gioco durante una sfida.">
<polygon fill="white" stroke="black" points="373,-110.5 373,-129.5 508,-129.5 508,-110.5 373,-110.5"/>
<text text-anchor="middle" x="440.5" y="-117.5" font-family="Helvetica,sans-Serif" font-size="10.00">WordQuizzle.WQGui.game</text>
</a>
</g>
</g>
<!-- Node1&#45;&gt;Node2 -->
<g id="edge1" class="edge"><title>Node1&#45;&gt;Node2</title>
<path fill="none" stroke="midnightblue" d="M547.853,-95.3215C525.509,-100.506 501.835,-106 482.509,-110.484"/>
<polygon fill="midnightblue" stroke="midnightblue" points="548.716,-98.7142 557.666,-93.0443 547.134,-91.8954 548.716,-98.7142"/>
</g>
<!-- Node4 -->
<g id="node4" class="node"><title>Node4</title>
<g id="a_node4"><a xlink:href="class_word_quizzle_1_1_w_q_cli.html#ae5f342434ec80ce1ed3939fb446de436" target="_top" xlink:title="Gestisce una sfida.">
<polygon fill="white" stroke="black" points="375,-68.5 375,-87.5 506,-87.5 506,-68.5 375,-68.5"/>
<text text-anchor="middle" x="440.5" y="-75.5" font-family="Helvetica,sans-Serif" font-size="10.00">WordQuizzle.WQCli.game</text>
</a>
</g>
</g>
<!-- Node1&#45;&gt;Node4 -->
<g id="edge3" class="edge"><title>Node1&#45;&gt;Node4</title>
<path fill="none" stroke="midnightblue" d="M533.818,-78C524.499,-78 515.155,-78 506.18,-78"/>
<polygon fill="midnightblue" stroke="midnightblue" points="533.9,-81.5001 543.9,-78 533.9,-74.5001 533.9,-81.5001"/>
</g>
<!-- Node8 -->
<g id="node8" class="node"><title>Node8</title>
<g id="a_node8"><a xlink:href="class_word_quizzle_1_1_challenge.html#a4587e95b2628810f0c66278e90a9934c" target="_top" xlink:title="Verifica se la sfida e&#39; terminata.">
<polygon fill="white" stroke="black" points="376,-11 376,-41 505,-41 505,-11 376,-11"/>
<text text-anchor="start" x="384" y="-29" font-family="Helvetica,sans-Serif" font-size="10.00">WordQuizzle.Challenge.is</text>
<text text-anchor="middle" x="440.5" y="-18" font-family="Helvetica,sans-Serif" font-size="10.00">Terminated</text>
</a>
</g>
</g>
<!-- Node1&#45;&gt;Node8 -->
<g id="edge8" class="edge"><title>Node1&#45;&gt;Node8</title>
<path fill="none" stroke="midnightblue" d="M560.368,-60.1499C538.668,-53.9156 514.547,-46.9858 493.735,-41.0068"/>
<polygon fill="midnightblue" stroke="midnightblue" points="559.57,-63.5621 570.147,-62.9594 561.503,-56.8342 559.57,-63.5621"/>
</g>
<!-- Node3 -->
<g id="node3" class="node"><title>Node3</title>
<g id="a_node3"><a xlink:href="class_word_quizzle_1_1_notifier.html#ad051f74dab1ae47c4453f9d094b6d0c4" target="_top" xlink:title="Attende l&#39;arrivo di una richiesta e se il client non e&#39; impegnato in una sfida gli notifica la richie...">
<polygon fill="white" stroke="black" points="189.5,-114.5 189.5,-133.5 311.5,-133.5 311.5,-114.5 189.5,-114.5"/>
<text text-anchor="middle" x="250.5" y="-121.5" font-family="Helvetica,sans-Serif" font-size="10.00">WordQuizzle.Notifier.run</text>
</a>
</g>
</g>
<!-- Node2&#45;&gt;Node3 -->
<g id="edge2" class="edge"><title>Node2&#45;&gt;Node3</title>
<path fill="none" stroke="midnightblue" d="M362.52,-121.638C345.571,-121.998 327.859,-122.375 311.687,-122.719"/>
<polygon fill="midnightblue" stroke="midnightblue" points="363.03,-125.128 372.954,-121.416 362.881,-118.129 363.03,-125.128"/>
</g>
<!-- Node5 -->
<g id="node5" class="node"><title>Node5</title>
<g id="a_node5"><a xlink:href="class_word_quizzle_1_1_w_q_cli.html#a7b07b55738bdd5da89a2ef645afdc020" target="_top" xlink:title="Gestisce una richiesta di sfida.">
<polygon fill="white" stroke="black" points="164,-76.5 164,-95.5 337,-95.5 337,-76.5 164,-76.5"/>
<text text-anchor="middle" x="250.5" y="-83.5" font-family="Helvetica,sans-Serif" font-size="10.00">WordQuizzle.WQCli.nuovaRichiesta</text>
</a>
</g>
</g>
<!-- Node4&#45;&gt;Node5 -->
<g id="edge4" class="edge"><title>Node4&#45;&gt;Node5</title>
<path fill="none" stroke="midnightblue" d="M364.726,-81.1819C355.692,-81.5663 346.41,-81.9613 337.235,-82.3517"/>
<polygon fill="midnightblue" stroke="midnightblue" points="364.959,-84.6752 374.801,-80.7531 364.661,-77.6816 364.959,-84.6752"/>
</g>
<!-- Node7 -->
<g id="node7" class="node"><title>Node7</title>
<g id="a_node7"><a xlink:href="class_word_quizzle_1_1_w_q_cli.html#a318ef86f91a825da4ff4684bd3332a6b" target="_top" xlink:title="Gestisce le richieste dell&#39;utente.">
<polygon fill="white" stroke="black" points="185,-38.5 185,-57.5 316,-57.5 316,-38.5 185,-38.5"/>
<text text-anchor="middle" x="250.5" y="-45.5" font-family="Helvetica,sans-Serif" font-size="10.00">WordQuizzle.WQCli.parse</text>
</a>
</g>
</g>
<!-- Node4&#45;&gt;Node7 -->
<g id="edge6" class="edge"><title>Node4&#45;&gt;Node7</title>
<path fill="none" stroke="midnightblue" d="M369.818,-66.8806C350.52,-63.8011 329.753,-60.4873 311.087,-57.5086"/>
<polygon fill="midnightblue" stroke="midnightblue" points="369.331,-70.347 379.757,-68.4666 370.434,-63.4344 369.331,-70.347"/>
</g>
<!-- Node6 -->
<g id="node6" class="node"><title>Node6</title>
<g id="a_node6"><a xlink:href="class_word_quizzle_1_1_w_q_cli.html#a7c2d51051cc7f1b20c57c1424d3b7727" target="_top" xlink:title="Gestisce l&#39;interazione con l&#39;utente.">
<polygon fill="white" stroke="black" points="0,-57.5 0,-76.5 128,-76.5 128,-57.5 0,-57.5"/>
<text text-anchor="middle" x="64" y="-64.5" font-family="Helvetica,sans-Serif" font-size="10.00">WordQuizzle.WQCli.main</text>
</a>
</g>
</g>
<!-- Node5&#45;&gt;Node6 -->
<g id="edge5" class="edge"><title>Node5&#45;&gt;Node6</title>
<path fill="none" stroke="midnightblue" d="M153.631,-76.1273C145.028,-75.2414 136.467,-74.3598 128.248,-73.5134"/>
<polygon fill="midnightblue" stroke="midnightblue" points="153.426,-79.6246 163.732,-77.1675 154.143,-72.6614 153.426,-79.6246"/>
</g>
<!-- Node7&#45;&gt;Node6 -->
<g id="edge7" class="edge"><title>Node7&#45;&gt;Node6</title>
<path fill="none" stroke="midnightblue" d="M174.918,-55.6805C159.44,-57.2744 143.273,-58.9394 128.248,-60.4866"/>
<polygon fill="midnightblue" stroke="midnightblue" points="175.382,-59.1513 184.971,-54.6453 174.665,-52.1882 175.382,-59.1513"/>
</g>
<!-- Node9 -->
<g id="node9" class="node"><title>Node9</title>
<g id="a_node9"><a xlink:href="class_word_quizzle_1_1_challenge.html#aa7b93cfc7d1927c0b1c060cc387321b9" target="_top" xlink:title="Gestisce la sfida.">
<polygon fill="white" stroke="black" points="183,-0.5 183,-19.5 318,-19.5 318,-0.5 183,-0.5"/>
<text text-anchor="middle" x="250.5" y="-7.5" font-family="Helvetica,sans-Serif" font-size="10.00">WordQuizzle.Challenge.run</text>
</a>
</g>
</g>
<!-- Node8&#45;&gt;Node9 -->
<g id="edge9" class="edge"><title>Node8&#45;&gt;Node9</title>
<path fill="none" stroke="midnightblue" d="M365.709,-19.7199C350.073,-18.3892 333.653,-16.9918 318.295,-15.6846"/>
<polygon fill="midnightblue" stroke="midnightblue" points="365.591,-23.2224 375.852,-20.5831 366.185,-16.2476 365.591,-23.2224"/>
</g>
</g>
</svg>
