<?xml version="1.0" encoding="UTF-8" standalone="no"?>
<!DOCTYPE svg PUBLIC "-//W3C//DTD SVG 1.1//EN"
 "http://www.w3.org/Graphics/SVG/1.1/DTD/svg11.dtd">
<!-- Generated by graphviz version 2.38.0 (20140413.2041)
 -->
<!-- Title: WordQuizzle.WQCli.game Pages: 1 -->
<!--zoomable 161 -->
<svg id="main" version="1.1" xmlns="http://www.w3.org/2000/svg" xmlns:xlink="http://www.w3.org/1999/xlink" xml:space="preserve" onload="init(evt)">
<style type="text/css"><![CDATA[
.edge:hover path { stroke: red; }
.edge:hover polygon { stroke: red; fill: red; }
]]></style>
<script type="text/javascript"><![CDATA[
var edges = document.getElementsByTagName('g');
if (edges && edges.length) {
  for (var i=0;i<edges.length;i++) {
    if (edges[i].id.substr(0,4)=='edge') {
      edges[i].setAttribute('class','edge');
    }
  }
}
]]></script>
        <defs>
                <circle id="rim" cx="0" cy="0" r="7"/>
                <circle id="rim2" cx="0" cy="0" r="3.5"/>
                <g id="zoomPlus">
                        <use xlink:href="#rim" fill="#404040">
                                <set attributeName="fill" to="#808080" begin="zoomplus.mouseover" end="zoomplus.mouseout"/>
                        </use>
                        <path d="M-4,0h8M0,-4v8" fill="none" stroke="white" stroke-width="1.5" pointer-events="none"/>
                </g>
                <g id="zoomMin">
                        <use xlink:href="#rim" fill="#404040">
                                <set attributeName="fill" to="#808080" begin="zoomminus.mouseover" end="zoomminus.mouseout"/>
                        </use>
                        <path d="M-4,0h8" fill="none" stroke="white" stroke-width="1.5" pointer-events="none"/>
                </g>
                <g id="dirArrow">
                        <path fill="none" stroke="white" stroke-width="1.5" d="M0,-3.0v7 M-2.5,-0.5L0,-3.0L2.5,-0.5"/>
                </g>
               <g id="resetDef">
                       <use xlink:href="#rim2" fill="#404040">
                               <set attributeName="fill" to="#808080" begin="reset.mouseover" end="reset.mouseout"/>
                       </use>
               </g>
        </defs>

<script type="text/javascript">
var viewWidth = 935;
var viewHeight = 161;
var sectionId = 'dynsection-3';
</script>
<script xlink:href="svgpan.js"/>
<svg id="graph" class="graph">
<g id="viewport">
<title>WordQuizzle.WQCli.game</title>
<polygon fill="white" stroke="none" points="-4,4 -4,-157 931,-157 931,4 -4,4"/>
<!-- Node1 -->
<g id="node1" class="node"><title>Node1</title>
<g id="a_node1"><a xlink:title=" ">
<polygon fill="#bfbfbf" stroke="black" points="0,-79 0,-98 131,-98 131,-79 0,-79"/>
<text text-anchor="middle" x="65.5" y="-86" font-family="Helvetica,sans-Serif" font-size="10.00">WordQuizzle.WQCli.game</text>
</a>
</g>
</g>
<!-- Node2 -->
<g id="node2" class="node"><title>Node2</title>
<g id="a_node2"><a xlink:href="class_word_quizzle_1_1_word_quizzle_server_service.html#a970fe0e2dd7457bab2c64ae722a912fc" target="_top" xlink:title=" ">
<polygon fill="white" stroke="black" points="178,-122.5 178,-152.5 337,-152.5 337,-122.5 178,-122.5"/>
<text text-anchor="start" x="186" y="-140.5" font-family="Helvetica,sans-Serif" font-size="10.00">WordQuizzle.WordQuizzleServer</text>
<text text-anchor="middle" x="257.5" y="-129.5" font-family="Helvetica,sans-Serif" font-size="10.00">Service.getK</text>
</a>
</g>
</g>
<!-- Node1&#45;&gt;Node2 -->
<g id="edge1" class="edge"><title>Node1&#45;&gt;Node2</title>
<path fill="none" stroke="midnightblue" d="M103.585,-98.064C127.64,-104.268 159.705,-112.537 188.259,-119.901"/>
<polygon fill="midnightblue" stroke="midnightblue" points="187.636,-123.355 198.193,-122.463 189.384,-116.577 187.636,-123.355"/>
</g>
<!-- Node3 -->
<g id="node3" class="node"><title>Node3</title>
<g id="a_node3"><a xlink:href="class_word_quizzle_1_1_word_quizzle_server_service.html#ac78bda2a578b3baa0933ca28e4b72e0c" target="_top" xlink:title=" ">
<polygon fill="white" stroke="black" points="178,-73.5 178,-103.5 337,-103.5 337,-73.5 178,-73.5"/>
<text text-anchor="start" x="186" y="-91.5" font-family="Helvetica,sans-Serif" font-size="10.00">WordQuizzle.WordQuizzleServer</text>
<text text-anchor="middle" x="257.5" y="-80.5" font-family="Helvetica,sans-Serif" font-size="10.00">Service.getT2</text>
</a>
</g>
</g>
<!-- Node1&#45;&gt;Node3 -->
<g id="edge2" class="edge"><title>Node1&#45;&gt;Node3</title>
<path fill="none" stroke="midnightblue" d="M131.09,-88.5C142.857,-88.5 155.32,-88.5 167.643,-88.5"/>
<polygon fill="midnightblue" stroke="midnightblue" points="167.945,-92.0001 177.945,-88.5 167.945,-85.0001 167.945,-92.0001"/>
</g>
<!-- Node4 -->
<g id="node4" class="node"><title>Node4</title>
<g id="a_node4"><a xlink:href="class_word_quizzle_1_1_word_quizzle_client.html#a828a5e7a358bd53296d88c97172db13b" target="_top" xlink:title=" ">
<polygon fill="white" stroke="black" points="167,-24.5 167,-54.5 348,-54.5 348,-24.5 167,-24.5"/>
<text text-anchor="start" x="175" y="-42.5" font-family="Helvetica,sans-Serif" font-size="10.00">WordQuizzle.WordQuizzleClient.send</text>
<text text-anchor="middle" x="257.5" y="-31.5" font-family="Helvetica,sans-Serif" font-size="10.00">Translation</text>
</a>
</g>
</g>
<!-- Node1&#45;&gt;Node4 -->
<g id="edge3" class="edge"><title>Node1&#45;&gt;Node4</title>
<path fill="none" stroke="midnightblue" d="M103.585,-78.936C127.64,-72.7324 159.705,-64.4629 188.259,-57.099"/>
<polygon fill="midnightblue" stroke="midnightblue" points="189.384,-60.4234 198.193,-54.537 187.636,-53.6452 189.384,-60.4234"/>
</g>
<!-- Node5 -->
<g id="node5" class="node"><title>Node5</title>
<g id="a_node5"><a xlink:href="class_word_quizzle_1_1_word_quizzle_client_service.html#a53ced7302f38c42dfed59b2a70674800" target="_top" xlink:title=" ">
<polygon fill="white" stroke="black" points="384,-24.5 384,-54.5 541,-54.5 541,-24.5 384,-24.5"/>
<text text-anchor="start" x="392" y="-42.5" font-family="Helvetica,sans-Serif" font-size="10.00">WordQuizzle.WordQuizzleClient</text>
<text text-anchor="middle" x="462.5" y="-31.5" font-family="Helvetica,sans-Serif" font-size="10.00">Service.sendTranslation</text>
</a>
</g>
</g>
<!-- Node4&#45;&gt;Node5 -->
<g id="edge4" class="edge"><title>Node4&#45;&gt;Node5</title>
<path fill="none" stroke="midnightblue" d="M348.13,-39.5C356.587,-39.5 365.155,-39.5 373.596,-39.5"/>
<polygon fill="midnightblue" stroke="midnightblue" points="373.813,-43.0001 383.813,-39.5 373.813,-36.0001 373.813,-43.0001"/>
</g>
<!-- Node6 -->
<g id="node6" class="node"><title>Node6</title>
<g id="a_node6"><a xlink:href="class_word_quizzle_1_1_word_quizzle_client_service.html#a0ed33ad0199840ae1847c4ecbc992ce2" target="_top" xlink:title=" ">
<polygon fill="white" stroke="black" points="577,-24.5 577,-54.5 734,-54.5 734,-24.5 577,-24.5"/>
<text text-anchor="start" x="585" y="-42.5" font-family="Helvetica,sans-Serif" font-size="10.00">WordQuizzle.WordQuizzleClient</text>
<text text-anchor="middle" x="655.5" y="-31.5" font-family="Helvetica,sans-Serif" font-size="10.00">Service.send</text>
</a>
</g>
</g>
<!-- Node5&#45;&gt;Node6 -->
<g id="edge5" class="edge"><title>Node5&#45;&gt;Node6</title>
<path fill="none" stroke="midnightblue" d="M541.187,-39.5C549.65,-39.5 558.306,-39.5 566.876,-39.5"/>
<polygon fill="midnightblue" stroke="midnightblue" points="566.882,-43.0001 576.882,-39.5 566.882,-36.0001 566.882,-43.0001"/>
</g>
<!-- Node7 -->
<g id="node7" class="node"><title>Node7</title>
<g id="a_node7"><a xlink:href="class_word_quizzle_1_1_word_quizzle_client_service.html#a59c8bdbde7768c2b478d51f4f13f7afb" target="_top" xlink:title=" ">
<polygon fill="white" stroke="black" points="770,-49.5 770,-79.5 927,-79.5 927,-49.5 770,-49.5"/>
<text text-anchor="start" x="778" y="-67.5" font-family="Helvetica,sans-Serif" font-size="10.00">WordQuizzle.WordQuizzleClient</text>
<text text-anchor="middle" x="848.5" y="-56.5" font-family="Helvetica,sans-Serif" font-size="10.00">Service.read</text>
</a>
</g>
</g>
<!-- Node6&#45;&gt;Node7 -->
<g id="edge6" class="edge"><title>Node6&#45;&gt;Node7</title>
<path fill="none" stroke="midnightblue" d="M734.187,-49.6685C742.65,-50.7761 751.306,-51.9091 759.876,-53.0309"/>
<polygon fill="midnightblue" stroke="midnightblue" points="759.512,-56.513 769.882,-54.3406 760.421,-49.5722 759.512,-56.513"/>
</g>
<!-- Node8 -->
<g id="node8" class="node"><title>Node8</title>
<g id="a_node8"><a xlink:href="class_word_quizzle_1_1_word_quizzle_client_service.html#a25566e1d25884c6c0dbb5aab0c1b52fd" target="_top" xlink:title=" ">
<polygon fill="white" stroke="black" points="770,-0.5 770,-30.5 927,-30.5 927,-0.5 770,-0.5"/>
<text text-anchor="start" x="778" y="-18.5" font-family="Helvetica,sans-Serif" font-size="10.00">WordQuizzle.WordQuizzleClient</text>
<text text-anchor="middle" x="848.5" y="-7.5" font-family="Helvetica,sans-Serif" font-size="10.00">Service.write</text>
</a>
</g>
</g>
<!-- Node6&#45;&gt;Node8 -->
<g id="edge7" class="edge"><title>Node6&#45;&gt;Node8</title>
<path fill="none" stroke="midnightblue" d="M734.187,-29.7383C742.65,-28.6749 751.306,-27.5873 759.876,-26.5103"/>
<polygon fill="midnightblue" stroke="midnightblue" points="760.396,-29.9726 769.882,-25.2531 759.523,-23.0272 760.396,-29.9726"/>
</g>
</g>
</svg>
        <g id="navigator" transform="translate(0 0)" fill="#404254">
                <rect fill="#f2f5e9" fill-opacity="0.5" stroke="#606060" stroke-width=".5" x="0" y="0" width="60" height="60"/>
                <use id="zoomplus" xlink:href="#zoomPlus" x="17" y="9" onmousedown="handleZoom(evt,'in')"/>
                <use id="zoomminus" xlink:href="#zoomMin" x="42" y="9" onmousedown="handleZoom(evt,'out')"/>
                <use id="reset" xlink:href="#resetDef" x="30" y="36" onmousedown="handleReset()"/>
                <g id="arrowUp" xlink:href="#dirArrow" transform="translate(30 24)" onmousedown="handlePan(0,-1)">
                  <use xlink:href="#rim" fill="#404040">
                        <set attributeName="fill" to="#808080" begin="arrowUp.mouseover" end="arrowUp.mouseout"/>
                  </use>
                  <path fill="none" stroke="white" stroke-width="1.5" d="M0,-3.0v7 M-2.5,-0.5L0,-3.0L2.5,-0.5"/>
                </g>
                <g id="arrowRight" xlink:href="#dirArrow" transform="rotate(90) translate(36 -43)" onmousedown="handlePan(1,0)">
                  <use xlink:href="#rim" fill="#404040">
                        <set attributeName="fill" to="#808080" begin="arrowRight.mouseover" end="arrowRight.mouseout"/>
                  </use>
                  <path fill="none" stroke="white" stroke-width="1.5" d="M0,-3.0v7 M-2.5,-0.5L0,-3.0L2.5,-0.5"/>
                </g>
                <g id="arrowDown" xlink:href="#dirArrow" transform="rotate(180) translate(-30 -48)" onmousedown="handlePan(0,1)">
                  <use xlink:href="#rim" fill="#404040">
                        <set attributeName="fill" to="#808080" begin="arrowDown.mouseover" end="arrowDown.mouseout"/>
                  </use>
                  <path fill="none" stroke="white" stroke-width="1.5" d="M0,-3.0v7 M-2.5,-0.5L0,-3.0L2.5,-0.5"/>
                </g>
                <g id="arrowLeft" xlink:href="#dirArrow" transform="rotate(270) translate(-36 17)" onmousedown="handlePan(-1,0)">
                  <use xlink:href="#rim" fill="#404040">
                        <set attributeName="fill" to="#808080" begin="arrowLeft.mouseover" end="arrowLeft.mouseout"/>
                  </use>
                  <path fill="none" stroke="white" stroke-width="1.5" d="M0,-3.0v7 M-2.5,-0.5L0,-3.0L2.5,-0.5"/>
                </g>
        </g>
        <svg viewBox="0 0 15 15" width="100%" height="30px" preserveAspectRatio="xMaxYMin meet">
         <g id="arrow_out" transform="scale(0.3 0.3)">
          <a xlink:href="class_word_quizzle_1_1_w_q_cli_ae5f342434ec80ce1ed3939fb446de436_cgraph_org.svg" target="_base">
           <rect id="button" ry="5" rx="5" y="6" x="6" height="38" width="38"
                fill="#f2f5e9" fill-opacity="0.5" stroke="#606060" stroke-width="1.0"/>
           <path id="arrow"
             d="M 11.500037,31.436501 C 11.940474,20.09759 22.043105,11.32322 32.158766,21.979434 L 37.068811,17.246167 C 37.068811,17.246167 37.088388,32 37.088388,32 L 22.160133,31.978069 C 22.160133,31.978069 26.997745,27.140456 26.997745,27.140456 C 18.528582,18.264221 13.291696,25.230495 11.500037,31.436501 z"
             style="fill:#404040;"/>
          </a>
         </g>
        </svg>
</svg>
