<?xml version="1.0" encoding="UTF-8" standalone="no"?>
<!DOCTYPE svg PUBLIC "-//W3C//DTD SVG 1.1//EN"
 "http://www.w3.org/Graphics/SVG/1.1/DTD/svg11.dtd">
<!-- Generated by graphviz version 2.38.0 (20140413.2041)
 -->
<!-- Title: WordQuizzle.Player Pages: 1 -->
<!--zoomable 1047 -->
<svg id="main" version="1.1" xmlns="http://www.w3.org/2000/svg" xmlns:xlink="http://www.w3.org/1999/xlink" xml:space="preserve" onload="init(evt)">
<style type="text/css"><![CDATA[
.edge:hover path { stroke: red; }
.edge:hover polygon { stroke: red; fill: red; }
]]></style>
<script type="text/javascript"><![CDATA[
var edges = document.getElementsByTagName('g');
if (edges && edges.length) {
  for (var i=0;i<edges.length;i++) {
    if (edges[i].id.substr(0,4)=='edge') {
      edges[i].setAttribute('class','edge');
    }
  }
}
]]></script>
        <defs>
                <circle id="rim" cx="0" cy="0" r="7"/>
                <circle id="rim2" cx="0" cy="0" r="3.5"/>
                <g id="zoomPlus">
                        <use xlink:href="#rim" fill="#404040">
                                <set attributeName="fill" to="#808080" begin="zoomplus.mouseover" end="zoomplus.mouseout"/>
                        </use>
                        <path d="M-4,0h8M0,-4v8" fill="none" stroke="white" stroke-width="1.5" pointer-events="none"/>
                </g>
                <g id="zoomMin">
                        <use xlink:href="#rim" fill="#404040">
                                <set attributeName="fill" to="#808080" begin="zoomminus.mouseover" end="zoomminus.mouseout"/>
                        </use>
                        <path d="M-4,0h8" fill="none" stroke="white" stroke-width="1.5" pointer-events="none"/>
                </g>
                <g id="dirArrow">
                        <path fill="none" stroke="white" stroke-width="1.5" d="M0,-3.0v7 M-2.5,-0.5L0,-3.0L2.5,-0.5"/>
                </g>
               <g id="resetDef">
                       <use xlink:href="#rim2" fill="#404040">
                               <set attributeName="fill" to="#808080" begin="reset.mouseover" end="reset.mouseout"/>
                       </use>
               </g>
        </defs>

<script type="text/javascript">
var viewWidth = 662;
var viewHeight = 1047;
var sectionId = 'dynsection-0';
</script>
<script xlink:href="svgpan.js"/>
<svg id="graph" class="graph">
<g id="viewport">
<title>WordQuizzle.Player</title>
<polygon fill="white" stroke="none" points="-4,4 -4,-1043 657.5,-1043 657.5,4 -4,4"/>
<!-- Node1 -->
<g id="node1" class="node"><title>Node1</title>
<g id="a_node1"><a xlink:title=" ">
<polygon fill="#bfbfbf" stroke="black" points="294,-0.5 294,-134.5 398,-134.5 398,-0.5 294,-0.5"/>
<text text-anchor="middle" x="346" y="-122.5" font-family="Helvetica,sans-Serif" font-size="10.00">WordQuizzle.Player</text>
<polyline fill="none" stroke="black" points="294,-115.5 398,-115.5 "/>
<text text-anchor="start" x="302" y="-103.5" font-family="Helvetica,sans-Serif" font-size="10.00">&#45; next</text>
<text text-anchor="start" x="302" y="-92.5" font-family="Helvetica,sans-Serif" font-size="10.00">&#45; close</text>
<polyline fill="none" stroke="black" points="294,-85.5 398,-85.5 "/>
<text text-anchor="start" x="302" y="-73.5" font-family="Helvetica,sans-Serif" font-size="10.00">+ Player()</text>
<text text-anchor="start" x="302" y="-62.5" font-family="Helvetica,sans-Serif" font-size="10.00">+ getSession()</text>
<text text-anchor="start" x="302" y="-51.5" font-family="Helvetica,sans-Serif" font-size="10.00">+ addAnswer()</text>
<text text-anchor="start" x="302" y="-40.5" font-family="Helvetica,sans-Serif" font-size="10.00">+ getAnswers()</text>
<text text-anchor="start" x="302" y="-29.5" font-family="Helvetica,sans-Serif" font-size="10.00">+ isTerminated()</text>
<text text-anchor="start" x="302" y="-18.5" font-family="Helvetica,sans-Serif" font-size="10.00">+ getNext()</text>
<text text-anchor="start" x="302" y="-7.5" font-family="Helvetica,sans-Serif" font-size="10.00">+ close()</text>
</a>
</g>
</g>
<!-- Node2 -->
<g id="node2" class="node"><title>Node2</title>
<g id="a_node2"><a xlink:href="class_word_quizzle_1_1_session.html" target="_top" xlink:title=" ">
<polygon fill="white" stroke="black" points="175.5,-182.5 175.5,-382.5 286.5,-382.5 286.5,-182.5 175.5,-182.5"/>
<text text-anchor="middle" x="231" y="-370.5" font-family="Helvetica,sans-Serif" font-size="10.00">WordQuizzle.Session</text>
<polyline fill="none" stroke="black" points="175.5,-363.5 286.5,-363.5 "/>
<text text-anchor="start" x="183.5" y="-351.5" font-family="Helvetica,sans-Serif" font-size="10.00">&#45; user</text>
<text text-anchor="start" x="183.5" y="-340.5" font-family="Helvetica,sans-Serif" font-size="10.00">&#45; response</text>
<text text-anchor="start" x="183.5" y="-329.5" font-family="Helvetica,sans-Serif" font-size="10.00">&#45; end</text>
<polyline fill="none" stroke="black" points="175.5,-322.5 286.5,-322.5 "/>
<text text-anchor="start" x="183.5" y="-310.5" font-family="Helvetica,sans-Serif" font-size="10.00">+ Session()</text>
<text text-anchor="start" x="183.5" y="-299.5" font-family="Helvetica,sans-Serif" font-size="10.00">+ getClient()</text>
<text text-anchor="start" x="183.5" y="-288.5" font-family="Helvetica,sans-Serif" font-size="10.00">+ getBfs()</text>
<text text-anchor="start" x="183.5" y="-277.5" font-family="Helvetica,sans-Serif" font-size="10.00">+ setUdp()</text>
<text text-anchor="start" x="183.5" y="-266.5" font-family="Helvetica,sans-Serif" font-size="10.00">+ getUdp()</text>
<text text-anchor="start" x="183.5" y="-255.5" font-family="Helvetica,sans-Serif" font-size="10.00">+ newBfs()</text>
<text text-anchor="start" x="183.5" y="-244.5" font-family="Helvetica,sans-Serif" font-size="10.00">+ getUser()</text>
<text text-anchor="start" x="183.5" y="-233.5" font-family="Helvetica,sans-Serif" font-size="10.00">+ getResponse()</text>
<text text-anchor="start" x="183.5" y="-222.5" font-family="Helvetica,sans-Serif" font-size="10.00">+ setResponse()</text>
<text text-anchor="start" x="183.5" y="-211.5" font-family="Helvetica,sans-Serif" font-size="10.00">+ isTerminated()</text>
<text text-anchor="start" x="183.5" y="-200.5" font-family="Helvetica,sans-Serif" font-size="10.00">+ parse()</text>
<text text-anchor="start" x="183.5" y="-189.5" font-family="Helvetica,sans-Serif" font-size="10.00">&#45; compute()</text>
</a>
</g>
</g>
<!-- Node2&#45;&gt;Node1 -->
<g id="edge1" class="edge"><title>Node2&#45;&gt;Node1</title>
<path fill="none" stroke="#404040" d="M284.46,-182.483C291.151,-170.089 297.916,-157.56 304.389,-145.571"/>
<polygon fill="none" stroke="#404040" points="304.54,-145.291 303.871,-138.111 310.241,-134.732 310.91,-141.912 304.54,-145.291"/>
<text text-anchor="middle" x="305" y="-156" font-family="Helvetica,sans-Serif" font-size="10.00"> &#45;s</text>
</g>
<!-- Node3 -->
<g id="node3" class="node"><title>Node3</title>
<g id="a_node3"><a xlink:title=" ">
<polygon fill="white" stroke="#bfbfbf" points="0,-573.5 0,-630.5 62,-630.5 62,-573.5 0,-573.5"/>
<text text-anchor="middle" x="31" y="-618.5" font-family="Helvetica,sans-Serif" font-size="10.00">ByteBuffer</text>
<polyline fill="none" stroke="#bfbfbf" points="0,-611.5 62,-611.5 "/>
<text text-anchor="middle" x="31" y="-599.5" font-family="Helvetica,sans-Serif" font-size="10.00"> </text>
<polyline fill="none" stroke="#bfbfbf" points="0,-592.5 62,-592.5 "/>
<text text-anchor="middle" x="31" y="-580.5" font-family="Helvetica,sans-Serif" font-size="10.00"> </text>
</a>
</g>
</g>
<!-- Node3&#45;&gt;Node2 -->
<g id="edge2" class="edge"><title>Node3&#45;&gt;Node2</title>
<path fill="none" stroke="#404040" d="M32.4589,-573.392C35.4028,-537.968 44.2764,-475.652 71,-430 94.4651,-389.915 132.454,-354.452 165.528,-328.461"/>
<polygon fill="none" stroke="#404040" points="165.651,-328.366 167.965,-321.536 175.16,-321.045 172.846,-327.875 165.651,-328.366"/>
<text text-anchor="middle" x="97.5" y="-404" font-family="Helvetica,sans-Serif" font-size="10.00"> &#45;bfs</text>
</g>
<!-- Node4 -->
<g id="node4" class="node"><title>Node4</title>
<g id="a_node4"><a xlink:title=" ">
<polygon fill="white" stroke="#bfbfbf" points="80.5,-573.5 80.5,-630.5 163.5,-630.5 163.5,-573.5 80.5,-573.5"/>
<text text-anchor="middle" x="122" y="-618.5" font-family="Helvetica,sans-Serif" font-size="10.00">SocketChannel</text>
<polyline fill="none" stroke="#bfbfbf" points="80.5,-611.5 163.5,-611.5 "/>
<text text-anchor="middle" x="122" y="-599.5" font-family="Helvetica,sans-Serif" font-size="10.00"> </text>
<polyline fill="none" stroke="#bfbfbf" points="80.5,-592.5 163.5,-592.5 "/>
<text text-anchor="middle" x="122" y="-580.5" font-family="Helvetica,sans-Serif" font-size="10.00"> </text>
</a>
</g>
</g>
<!-- Node4&#45;&gt;Node2 -->
<g id="edge3" class="edge"><title>Node4&#45;&gt;Node2</title>
<path fill="none" stroke="#404040" d="M129.147,-573.491C138.188,-539.483 154.678,-479.974 172,-430 176.049,-418.319 180.502,-406.207 185.091,-394.18"/>
<polygon fill="none" stroke="#404040" points="185.204,-393.887 183.632,-386.849 189.524,-382.691 191.096,-389.729 185.204,-393.887"/>
<text text-anchor="middle" x="198" y="-404" font-family="Helvetica,sans-Serif" font-size="10.00"> &#45;client</text>
</g>
<!-- Node5 -->
<g id="node5" class="node"><title>Node5</title>
<g id="a_node5"><a xlink:title=" ">
<polygon fill="white" stroke="#bfbfbf" points="181.5,-573.5 181.5,-630.5 280.5,-630.5 280.5,-573.5 181.5,-573.5"/>
<text text-anchor="middle" x="231" y="-618.5" font-family="Helvetica,sans-Serif" font-size="10.00">InetSocketAddress</text>
<polyline fill="none" stroke="#bfbfbf" points="181.5,-611.5 280.5,-611.5 "/>
<text text-anchor="middle" x="231" y="-599.5" font-family="Helvetica,sans-Serif" font-size="10.00"> </text>
<polyline fill="none" stroke="#bfbfbf" points="181.5,-592.5 280.5,-592.5 "/>
<text text-anchor="middle" x="231" y="-580.5" font-family="Helvetica,sans-Serif" font-size="10.00"> </text>
</a>
</g>
</g>
<!-- Node5&#45;&gt;Node2 -->
<g id="edge4" class="edge"><title>Node5&#45;&gt;Node2</title>
<path fill="none" stroke="#404040" d="M231,-573.379C231,-533.835 231,-458.81 231,-394.994"/>
<polygon fill="none" stroke="#404040" points="231,-394.808 227,-388.808 231,-382.808 235,-388.807 231,-394.808"/>
<text text-anchor="middle" x="242" y="-404" font-family="Helvetica,sans-Serif" font-size="10.00"> &#45;udp</text>
</g>
<!-- Node6 -->
<g id="node6" class="node"><title>Node6</title>
<g id="a_node6"><a xlink:href="class_word_quizzle_1_1_word_quizzle_server_service.html" target="_top" xlink:title=" ">
<polygon fill="white" stroke="black" points="298.5,-430.5 298.5,-773.5 457.5,-773.5 457.5,-430.5 298.5,-430.5"/>
<text text-anchor="start" x="306.5" y="-761.5" font-family="Helvetica,sans-Serif" font-size="10.00">WordQuizzle.WordQuizzleServer</text>
<text text-anchor="middle" x="378" y="-750.5" font-family="Helvetica,sans-Serif" font-size="10.00">Service</text>
<polyline fill="none" stroke="black" points="298.5,-743.5 457.5,-743.5 "/>
<text text-anchor="start" x="306.5" y="-731.5" font-family="Helvetica,sans-Serif" font-size="10.00">&#45; K</text>
<text text-anchor="start" x="306.5" y="-720.5" font-family="Helvetica,sans-Serif" font-size="10.00">&#45; T1</text>
<text text-anchor="start" x="306.5" y="-709.5" font-family="Helvetica,sans-Serif" font-size="10.00">&#45; T2</text>
<text text-anchor="start" x="306.5" y="-698.5" font-family="Helvetica,sans-Serif" font-size="10.00">&#45; X</text>
<text text-anchor="start" x="306.5" y="-687.5" font-family="Helvetica,sans-Serif" font-size="10.00">&#45; Y</text>
<text text-anchor="start" x="306.5" y="-676.5" font-family="Helvetica,sans-Serif" font-size="10.00">&#45; Z</text>
<polyline fill="none" stroke="black" points="298.5,-669.5 457.5,-669.5 "/>
<text text-anchor="start" x="306.5" y="-657.5" font-family="Helvetica,sans-Serif" font-size="10.00">+ WordQuizzleServerService()</text>
<text text-anchor="start" x="306.5" y="-646.5" font-family="Helvetica,sans-Serif" font-size="10.00">+ login()</text>
<text text-anchor="start" x="306.5" y="-635.5" font-family="Helvetica,sans-Serif" font-size="10.00">+ logout()</text>
<text text-anchor="start" x="306.5" y="-624.5" font-family="Helvetica,sans-Serif" font-size="10.00">+ aggiungi_amico()</text>
<text text-anchor="start" x="306.5" y="-613.5" font-family="Helvetica,sans-Serif" font-size="10.00">+ lista_amici()</text>
<text text-anchor="start" x="306.5" y="-602.5" font-family="Helvetica,sans-Serif" font-size="10.00">+ mostra_punteggio()</text>
<text text-anchor="start" x="306.5" y="-591.5" font-family="Helvetica,sans-Serif" font-size="10.00">+ mostra_classifica()</text>
<text text-anchor="start" x="306.5" y="-580.5" font-family="Helvetica,sans-Serif" font-size="10.00">+ sfida()</text>
<text text-anchor="start" x="306.5" y="-569.5" font-family="Helvetica,sans-Serif" font-size="10.00">+ accettaSfida()</text>
<text text-anchor="start" x="306.5" y="-558.5" font-family="Helvetica,sans-Serif" font-size="10.00">+ getK()</text>
<text text-anchor="start" x="306.5" y="-547.5" font-family="Helvetica,sans-Serif" font-size="10.00">+ getZ()</text>
<text text-anchor="start" x="306.5" y="-536.5" font-family="Helvetica,sans-Serif" font-size="10.00">+ getY()</text>
<text text-anchor="start" x="306.5" y="-525.5" font-family="Helvetica,sans-Serif" font-size="10.00">+ getX()</text>
<text text-anchor="start" x="306.5" y="-514.5" font-family="Helvetica,sans-Serif" font-size="10.00">+ getT1()</text>
<text text-anchor="start" x="306.5" y="-503.5" font-family="Helvetica,sans-Serif" font-size="10.00">+ getT2()</text>
<text text-anchor="start" x="306.5" y="-492.5" font-family="Helvetica,sans-Serif" font-size="10.00">+ setK()</text>
<text text-anchor="start" x="306.5" y="-481.5" font-family="Helvetica,sans-Serif" font-size="10.00">+ setZ()</text>
<text text-anchor="start" x="306.5" y="-470.5" font-family="Helvetica,sans-Serif" font-size="10.00">+ setY()</text>
<text text-anchor="start" x="306.5" y="-459.5" font-family="Helvetica,sans-Serif" font-size="10.00">+ setX()</text>
<text text-anchor="start" x="306.5" y="-448.5" font-family="Helvetica,sans-Serif" font-size="10.00">+ setT2()</text>
<text text-anchor="start" x="306.5" y="-437.5" font-family="Helvetica,sans-Serif" font-size="10.00">+ setT1()</text>
</a>
</g>
</g>
<!-- Node6&#45;&gt;Node2 -->
<g id="edge5" class="edge"><title>Node6&#45;&gt;Node2</title>
<path fill="none" stroke="#404040" d="M298.906,-430.168C293.241,-417.933 287.621,-405.794 282.181,-394.044"/>
<polygon fill="none" stroke="#404040" points="282.067,-393.797 275.916,-390.033 277.025,-382.908 283.176,-386.672 282.067,-393.797"/>
<text text-anchor="middle" x="297.5" y="-404" font-family="Helvetica,sans-Serif" font-size="10.00"> &#45;wq</text>
</g>
<!-- Node7 -->
<g id="node7" class="node"><title>Node7</title>
<g id="a_node7"><a xlink:title=" ">
<polygon fill="white" stroke="#bfbfbf" points="50.5,-843.5 50.5,-900.5 139.5,-900.5 139.5,-843.5 50.5,-843.5"/>
<text text-anchor="middle" x="95" y="-888.5" font-family="Helvetica,sans-Serif" font-size="10.00">DatagramSocket</text>
<polyline fill="none" stroke="#bfbfbf" points="50.5,-881.5 139.5,-881.5 "/>
<text text-anchor="middle" x="95" y="-869.5" font-family="Helvetica,sans-Serif" font-size="10.00"> </text>
<polyline fill="none" stroke="#bfbfbf" points="50.5,-862.5 139.5,-862.5 "/>
<text text-anchor="middle" x="95" y="-850.5" font-family="Helvetica,sans-Serif" font-size="10.00"> </text>
</a>
</g>
</g>
<!-- Node7&#45;&gt;Node6 -->
<g id="edge6" class="edge"><title>Node7&#45;&gt;Node6</title>
<path fill="none" stroke="#404040" d="M119.845,-843.389C128.176,-835.334 137.925,-827.074 148,-821 182.184,-800.391 195.109,-804.552 233,-792 257.817,-783.779 269.021,-790.861 289,-774 289.1,-773.916 289.2,-773.831 289.299,-773.747"/>
<polygon fill="none" stroke="#404040" points="289.452,-773.607 291.168,-766.603 298.293,-765.494 296.577,-772.497 289.452,-773.607"/>
<text text-anchor="middle" x="251" y="-795" font-family="Helvetica,sans-Serif" font-size="10.00"> &#45;socket</text>
</g>
<!-- Node8 -->
<g id="node8" class="node"><title>Node8</title>
<g id="a_node8"><a xlink:title=" ">
<polygon fill="white" stroke="#bfbfbf" points="157.5,-838 157.5,-906 292.5,-906 292.5,-838 157.5,-838"/>
<text text-anchor="start" x="165.5" y="-894" font-family="Helvetica,sans-Serif" font-size="10.00">Map&lt; String, WordQuizzle.</text>
<text text-anchor="middle" x="225" y="-883" font-family="Helvetica,sans-Serif" font-size="10.00">Session &gt;</text>
<polyline fill="none" stroke="#bfbfbf" points="157.5,-876 292.5,-876 "/>
<text text-anchor="middle" x="225" y="-864" font-family="Helvetica,sans-Serif" font-size="10.00"> </text>
<polyline fill="none" stroke="#bfbfbf" points="157.5,-857 292.5,-857 "/>
<text text-anchor="middle" x="225" y="-845" font-family="Helvetica,sans-Serif" font-size="10.00"> </text>
</a>
</g>
</g>
<!-- Node8&#45;&gt;Node6 -->
<g id="edge7" class="edge"><title>Node8&#45;&gt;Node6</title>
<path fill="none" stroke="#404040" d="M248.083,-837.873C260.658,-819.376 276.217,-795.74 289,-774 290.128,-772.082 291.257,-770.148 292.387,-768.201"/>
<polygon fill="none" stroke="#404040" points="292.458,-768.077 291.975,-760.882 298.431,-757.669 298.914,-764.864 292.458,-768.077"/>
<text text-anchor="middle" x="293.5" y="-795" font-family="Helvetica,sans-Serif" font-size="10.00"> &#45;users</text>
</g>
<!-- Node9 -->
<g id="node9" class="node"><title>Node9</title>
<g id="a_node9"><a xlink:title=" ">
<polygon fill="white" stroke="#bfbfbf" points="287.5,-981.5 287.5,-1038.5 322.5,-1038.5 322.5,-981.5 287.5,-981.5"/>
<text text-anchor="middle" x="305" y="-1026.5" font-family="Helvetica,sans-Serif" font-size="10.00">Map</text>
<polyline fill="none" stroke="#bfbfbf" points="287.5,-1019.5 322.5,-1019.5 "/>
<text text-anchor="middle" x="305" y="-1007.5" font-family="Helvetica,sans-Serif" font-size="10.00"> </text>
<polyline fill="none" stroke="#bfbfbf" points="287.5,-1000.5 322.5,-1000.5 "/>
<text text-anchor="middle" x="305" y="-988.5" font-family="Helvetica,sans-Serif" font-size="10.00"> </text>
</a>
</g>
</g>
<!-- Node9&#45;&gt;Node8 -->
<g id="edge8" class="edge"><title>Node9&#45;&gt;Node8</title>
<path fill="none" stroke="orange" d="M278.343,-996.565C264.72,-988.827 249.129,-977.56 240,-963 229.482,-946.224 225.659,-924.373 224.501,-906.403"/>
<polygon fill="orange" stroke="orange" points="276.884,-999.753 287.357,-1001.36 280.169,-993.572 276.884,-999.753"/>
<text text-anchor="start" x="240" y="-955" font-family="Helvetica,sans-Serif" font-size="10.00"> &lt; String, WordQuizzle</text>
<text text-anchor="middle" x="290" y="-944" font-family="Helvetica,sans-Serif" font-size="10.00">::Session &gt;</text>
</g>
<!-- Node12 -->
<g id="node12" class="node"><title>Node12</title>
<g id="a_node12"><a xlink:title=" ">
<polygon fill="white" stroke="#bfbfbf" points="310.5,-838 310.5,-906 445.5,-906 445.5,-838 310.5,-838"/>
<text text-anchor="start" x="318.5" y="-894" font-family="Helvetica,sans-Serif" font-size="10.00">Map&lt; String, WordQuizzle.</text>
<text text-anchor="middle" x="378" y="-883" font-family="Helvetica,sans-Serif" font-size="10.00">Challenge &gt;</text>
<polyline fill="none" stroke="#bfbfbf" points="310.5,-876 445.5,-876 "/>
<text text-anchor="middle" x="378" y="-864" font-family="Helvetica,sans-Serif" font-size="10.00"> </text>
<polyline fill="none" stroke="#bfbfbf" points="310.5,-857 445.5,-857 "/>
<text text-anchor="middle" x="378" y="-845" font-family="Helvetica,sans-Serif" font-size="10.00"> </text>
</a>
</g>
</g>
<!-- Node9&#45;&gt;Node12 -->
<g id="edge12" class="edge"><title>Node9&#45;&gt;Node12</title>
<path fill="none" stroke="orange" d="M329.467,-983.255C334.705,-976.938 339.891,-969.978 344,-963 354.425,-945.297 362.681,-923.829 368.446,-906.301"/>
<polygon fill="orange" stroke="orange" points="326.78,-981.012 322.884,-990.864 332.073,-985.592 326.78,-981.012"/>
<text text-anchor="start" x="355" y="-955" font-family="Helvetica,sans-Serif" font-size="10.00"> &lt; String, WordQuizzle</text>
<text text-anchor="middle" x="405" y="-944" font-family="Helvetica,sans-Serif" font-size="10.00">::Challenge &gt;</text>
</g>
<!-- Node10 -->
<g id="node10" class="node"><title>Node10</title>
<g id="a_node10"><a xlink:title=" ">
<polygon fill="white" stroke="#bfbfbf" points="463.5,-843.5 463.5,-900.5 516.5,-900.5 516.5,-843.5 463.5,-843.5"/>
<text text-anchor="middle" x="490" y="-888.5" font-family="Helvetica,sans-Serif" font-size="10.00">Selector</text>
<polyline fill="none" stroke="#bfbfbf" points="463.5,-881.5 516.5,-881.5 "/>
<text text-anchor="middle" x="490" y="-869.5" font-family="Helvetica,sans-Serif" font-size="10.00"> </text>
<polyline fill="none" stroke="#bfbfbf" points="463.5,-862.5 516.5,-862.5 "/>
<text text-anchor="middle" x="490" y="-850.5" font-family="Helvetica,sans-Serif" font-size="10.00"> </text>
</a>
</g>
</g>
<!-- Node10&#45;&gt;Node6 -->
<g id="edge9" class="edge"><title>Node10&#45;&gt;Node6</title>
<path fill="none" stroke="#404040" d="M478.436,-843.329C472.024,-827.985 463.442,-807.451 453.986,-784.823"/>
<polygon fill="none" stroke="#404040" points="453.906,-784.632 447.902,-780.639 449.279,-773.56 455.283,-777.554 453.906,-784.632"/>
<text text-anchor="middle" x="480.5" y="-795" font-family="Helvetica,sans-Serif" font-size="10.00"> &#45;selector</text>
</g>
<!-- Node11 -->
<g id="node11" class="node"><title>Node11</title>
<g id="a_node11"><a xlink:href="interface_word_quizzle_1_1_data_base.html" target="_top" xlink:title="Database che gestisce gli utenti.">
<polygon fill="white" stroke="black" points="534.5,-821.5 534.5,-922.5 653.5,-922.5 653.5,-821.5 534.5,-821.5"/>
<text text-anchor="middle" x="594" y="-910.5" font-family="Helvetica,sans-Serif" font-size="10.00">WordQuizzle.DataBase</text>
<polyline fill="none" stroke="black" points="534.5,-903.5 653.5,-903.5 "/>
<text text-anchor="middle" x="594" y="-891.5" font-family="Helvetica,sans-Serif" font-size="10.00"> </text>
<polyline fill="none" stroke="black" points="534.5,-884.5 653.5,-884.5 "/>
<text text-anchor="start" x="542.5" y="-872.5" font-family="Helvetica,sans-Serif" font-size="10.00">+ checkUser()</text>
<text text-anchor="start" x="542.5" y="-861.5" font-family="Helvetica,sans-Serif" font-size="10.00">+ getUser()</text>
<text text-anchor="start" x="542.5" y="-850.5" font-family="Helvetica,sans-Serif" font-size="10.00">+ newUser()</text>
<text text-anchor="start" x="542.5" y="-839.5" font-family="Helvetica,sans-Serif" font-size="10.00">+ modifyScore()</text>
<text text-anchor="start" x="542.5" y="-828.5" font-family="Helvetica,sans-Serif" font-size="10.00">+ link()</text>
</a>
</g>
</g>
<!-- Node11&#45;&gt;Node6 -->
<g id="edge10" class="edge"><title>Node11&#45;&gt;Node6</title>
<path fill="none" stroke="#404040" d="M542.889,-821.088C530.977,-810.773 517.968,-800.481 505,-792 489.023,-781.551 479.785,-787.207 466,-774 465.91,-773.913 465.819,-773.827 465.729,-773.74"/>
<polygon fill="none" stroke="#404040" points="465.93,-773.946 458.878,-772.443 457.553,-765.354 464.606,-766.858 465.93,-773.946"/>
<text text-anchor="middle" x="527.5" y="-795" font-family="Helvetica,sans-Serif" font-size="10.00"> &#45;db</text>
</g>
<!-- Node12&#45;&gt;Node6 -->
<g id="edge11" class="edge"><title>Node12&#45;&gt;Node6</title>
<path fill="none" stroke="#404040" d="M378,-837.869C378,-823.479 378,-805.404 378,-785.704"/>
<polygon fill="none" stroke="#404040" points="378,-785.591 374,-779.591 378,-773.591 382,-779.591 378,-785.591"/>
<text text-anchor="middle" x="404.5" y="-795" font-family="Helvetica,sans-Serif" font-size="10.00"> &#45;challenges</text>
</g>
<!-- Node13 -->
<g id="node13" class="node"><title>Node13</title>
<g id="a_node13"><a xlink:title=" ">
<polygon fill="white" stroke="#bfbfbf" points="378.5,-254 378.5,-311 467.5,-311 467.5,-254 378.5,-254"/>
<text text-anchor="middle" x="423" y="-299" font-family="Helvetica,sans-Serif" font-size="10.00">Vector&lt; String &gt;</text>
<polyline fill="none" stroke="#bfbfbf" points="378.5,-292 467.5,-292 "/>
<text text-anchor="middle" x="423" y="-280" font-family="Helvetica,sans-Serif" font-size="10.00"> </text>
<polyline fill="none" stroke="#bfbfbf" points="378.5,-273 467.5,-273 "/>
<text text-anchor="middle" x="423" y="-261" font-family="Helvetica,sans-Serif" font-size="10.00"> </text>
</a>
</g>
</g>
<!-- Node13&#45;&gt;Node1 -->
<g id="edge13" class="edge"><title>Node13&#45;&gt;Node1</title>
<path fill="none" stroke="#404040" d="M412.934,-253.654C403.107,-226.47 387.696,-183.84 374.137,-146.334"/>
<polygon fill="none" stroke="#404040" points="374.077,-146.167 368.275,-141.884 369.997,-134.882 375.799,-139.164 374.077,-146.167"/>
<text text-anchor="middle" x="391" y="-156" font-family="Helvetica,sans-Serif" font-size="10.00"> &#45;ans</text>
</g>
<!-- Node14 -->
<g id="node14" class="node"><title>Node14</title>
<g id="a_node14"><a xlink:title=" ">
<polygon fill="white" stroke="#bfbfbf" points="475.5,-573.5 475.5,-630.5 520.5,-630.5 520.5,-573.5 475.5,-573.5"/>
<text text-anchor="middle" x="498" y="-618.5" font-family="Helvetica,sans-Serif" font-size="10.00">Vector</text>
<polyline fill="none" stroke="#bfbfbf" points="475.5,-611.5 520.5,-611.5 "/>
<text text-anchor="middle" x="498" y="-599.5" font-family="Helvetica,sans-Serif" font-size="10.00"> </text>
<polyline fill="none" stroke="#bfbfbf" points="475.5,-592.5 520.5,-592.5 "/>
<text text-anchor="middle" x="498" y="-580.5" font-family="Helvetica,sans-Serif" font-size="10.00"> </text>
</a>
</g>
</g>
<!-- Node14&#45;&gt;Node13 -->
<g id="edge14" class="edge"><title>Node14&#45;&gt;Node13</title>
<path fill="none" stroke="orange" d="M492.029,-563.083C486.282,-528.278 476.878,-475.383 466,-430 455.96,-388.113 441.34,-340.374 432,-311.09"/>
<polygon fill="orange" stroke="orange" points="488.627,-563.97 493.692,-573.276 495.536,-562.843 488.627,-563.97"/>
<text text-anchor="middle" x="484.5" y="-404" font-family="Helvetica,sans-Serif" font-size="10.00"> &lt; String &gt;</text>
</g>
</g>
</svg>
        <g id="navigator" transform="translate(0 0)" fill="#404254">
                <rect fill="#f2f5e9" fill-opacity="0.5" stroke="#606060" stroke-width=".5" x="0" y="0" width="60" height="60"/>
                <use id="zoomplus" xlink:href="#zoomPlus" x="17" y="9" onmousedown="handleZoom(evt,'in')"/>
                <use id="zoomminus" xlink:href="#zoomMin" x="42" y="9" onmousedown="handleZoom(evt,'out')"/>
                <use id="reset" xlink:href="#resetDef" x="30" y="36" onmousedown="handleReset()"/>
                <g id="arrowUp" xlink:href="#dirArrow" transform="translate(30 24)" onmousedown="handlePan(0,-1)">
                  <use xlink:href="#rim" fill="#404040">
                        <set attributeName="fill" to="#808080" begin="arrowUp.mouseover" end="arrowUp.mouseout"/>
                  </use>
                  <path fill="none" stroke="white" stroke-width="1.5" d="M0,-3.0v7 M-2.5,-0.5L0,-3.0L2.5,-0.5"/>
                </g>
                <g id="arrowRight" xlink:href="#dirArrow" transform="rotate(90) translate(36 -43)" onmousedown="handlePan(1,0)">
                  <use xlink:href="#rim" fill="#404040">
                        <set attributeName="fill" to="#808080" begin="arrowRight.mouseover" end="arrowRight.mouseout"/>
                  </use>
                  <path fill="none" stroke="white" stroke-width="1.5" d="M0,-3.0v7 M-2.5,-0.5L0,-3.0L2.5,-0.5"/>
                </g>
                <g id="arrowDown" xlink:href="#dirArrow" transform="rotate(180) translate(-30 -48)" onmousedown="handlePan(0,1)">
                  <use xlink:href="#rim" fill="#404040">
                        <set attributeName="fill" to="#808080" begin="arrowDown.mouseover" end="arrowDown.mouseout"/>
                  </use>
                  <path fill="none" stroke="white" stroke-width="1.5" d="M0,-3.0v7 M-2.5,-0.5L0,-3.0L2.5,-0.5"/>
                </g>
                <g id="arrowLeft" xlink:href="#dirArrow" transform="rotate(270) translate(-36 17)" onmousedown="handlePan(-1,0)">
                  <use xlink:href="#rim" fill="#404040">
                        <set attributeName="fill" to="#808080" begin="arrowLeft.mouseover" end="arrowLeft.mouseout"/>
                  </use>
                  <path fill="none" stroke="white" stroke-width="1.5" d="M0,-3.0v7 M-2.5,-0.5L0,-3.0L2.5,-0.5"/>
                </g>
        </g>
        <svg viewBox="0 0 15 15" width="100%" height="30px" preserveAspectRatio="xMaxYMin meet">
         <g id="arrow_out" transform="scale(0.3 0.3)">
          <a xlink:href="class_word_quizzle_1_1_player__coll__graph_org.svg" target="_base">
           <rect id="button" ry="5" rx="5" y="6" x="6" height="38" width="38"
                fill="#f2f5e9" fill-opacity="0.5" stroke="#606060" stroke-width="1.0"/>
           <path id="arrow"
             d="M 11.500037,31.436501 C 11.940474,20.09759 22.043105,11.32322 32.158766,21.979434 L 37.068811,17.246167 C 37.068811,17.246167 37.088388,32 37.088388,32 L 22.160133,31.978069 C 22.160133,31.978069 26.997745,27.140456 26.997745,27.140456 C 18.528582,18.264221 13.291696,25.230495 11.500037,31.436501 z"
             style="fill:#404040;"/>
          </a>
         </g>
        </svg>
</svg>
