<?xml version="1.0" encoding="UTF-8" standalone="no"?>
<!DOCTYPE svg PUBLIC "-//W3C//DTD SVG 1.1//EN"
 "http://www.w3.org/Graphics/SVG/1.1/DTD/svg11.dtd">
<!-- Generated by graphviz version 2.38.0 (20140413.2041)
 -->
<!-- Title: WordQuizzleServerService.login Pages: 1 -->
<svg width="558pt" height="66pt"
 viewBox="0.00 0.00 558.00 66.00" xmlns="http://www.w3.org/2000/svg" xmlns:xlink="http://www.w3.org/1999/xlink">
<g id="graph0" class="graph" transform="scale(1 1) rotate(0) translate(4 62)">
<title>WordQuizzleServerService.login</title>
<polygon fill="white" stroke="none" points="-4,4 -4,-62 554,-62 554,4 -4,4"/>
<!-- Node1 -->
<g id="node1" class="node"><title>Node1</title>
<g id="a_node1"><a xlink:title="Effettua il login specificando l&#39;indirizzo per la connessione UDP.">
<polygon fill="#bfbfbf" stroke="black" points="395,-19.5 395,-38.5 550,-38.5 550,-19.5 395,-19.5"/>
<text text-anchor="middle" x="472.5" y="-26.5" font-family="Helvetica,sans-Serif" font-size="10.00">WordQuizzleServerService.login</text>
</a>
</g>
</g>
<!-- Node2 -->
<g id="node2" class="node"><title>Node2</title>
<g id="a_node2"><a xlink:href="class_session.html#a56e3ffab046de2082083cfc54b5d8e72" target="_top" xlink:title="Gestisce effettivamente la richiesta del client.">
<polygon fill="white" stroke="black" points="267,-19.5 267,-38.5 359,-38.5 359,-19.5 267,-19.5"/>
<text text-anchor="middle" x="313" y="-26.5" font-family="Helvetica,sans-Serif" font-size="10.00">Session.compute</text>
</a>
</g>
</g>
<!-- Node1&#45;&gt;Node2 -->
<g id="edge1" class="edge"><title>Node1&#45;&gt;Node2</title>
<path fill="none" stroke="midnightblue" d="M384.329,-29C375.616,-29 367.042,-29 359.041,-29"/>
<polygon fill="midnightblue" stroke="midnightblue" points="384.596,-32.5001 394.596,-29 384.596,-25.5001 384.596,-32.5001"/>
</g>
<!-- Node3 -->
<g id="node3" class="node"><title>Node3</title>
<g id="a_node3"><a xlink:href="class_session.html#a75364929cf1f8f9e75992a8a8c3b589f" target="_top" xlink:title="Riceve una stringa contenente uan richiesta da parte del client e la gestisce.">
<polygon fill="white" stroke="black" points="152,-19.5 152,-38.5 231,-38.5 231,-19.5 152,-19.5"/>
<text text-anchor="middle" x="191.5" y="-26.5" font-family="Helvetica,sans-Serif" font-size="10.00">Session.parse</text>
</a>
</g>
</g>
<!-- Node2&#45;&gt;Node3 -->
<g id="edge2" class="edge"><title>Node2&#45;&gt;Node3</title>
<path fill="none" stroke="midnightblue" d="M256.749,-29C248.081,-29 239.286,-29 231.1,-29"/>
<polygon fill="midnightblue" stroke="midnightblue" points="256.822,-32.5001 266.822,-29 256.822,-25.5001 256.822,-32.5001"/>
</g>
<!-- Node4 -->
<g id="node4" class="node"><title>Node4</title>
<g id="a_node4"><a xlink:href="class_word_quizzle_server.html#a1414f39eeaaf2dbe0885f4d77a12c466" target="_top" xlink:title="Gestisce le interazioni con i client.">
<polygon fill="white" stroke="black" points="0,-38.5 0,-57.5 116,-57.5 116,-38.5 0,-38.5"/>
<text text-anchor="middle" x="58" y="-45.5" font-family="Helvetica,sans-Serif" font-size="10.00">WordQuizzleServer.run</text>
</a>
</g>
</g>
<!-- Node3&#45;&gt;Node4 -->
<g id="edge3" class="edge"><title>Node3&#45;&gt;Node4</title>
<path fill="none" stroke="midnightblue" d="M141.621,-36.0623C133.428,-37.2461 124.86,-38.4841 116.475,-39.6957"/>
<polygon fill="midnightblue" stroke="midnightblue" points="142.36,-39.492 151.757,-34.5979 141.359,-32.5639 142.36,-39.492"/>
</g>
<!-- Node5 -->
<g id="node5" class="node"><title>Node5</title>
<g id="a_node5"><a xlink:href="class_challenge.html#adfd88e7904c2d0954ca82e07890c5ca4" target="_top" xlink:title="Gestisce la sfida.">
<polygon fill="white" stroke="black" points="20,-0.5 20,-19.5 96,-19.5 96,-0.5 20,-0.5"/>
<text text-anchor="middle" x="58" y="-7.5" font-family="Helvetica,sans-Serif" font-size="10.00">Challenge.run</text>
</a>
</g>
</g>
<!-- Node3&#45;&gt;Node5 -->
<g id="edge4" class="edge"><title>Node3&#45;&gt;Node5</title>
<path fill="none" stroke="midnightblue" d="M141.584,-21.9323C126.537,-19.7582 110.23,-17.402 96.1115,-15.3621"/>
<polygon fill="midnightblue" stroke="midnightblue" points="141.359,-25.4361 151.757,-23.4021 142.36,-18.508 141.359,-25.4361"/>
</g>
</g>
</svg>
