<?xml version="1.0" encoding="UTF-8" standalone="no"?>
<!DOCTYPE svg PUBLIC "-//W3C//DTD SVG 1.1//EN"
 "http://www.w3.org/Graphics/SVG/1.1/DTD/svg11.dtd">
<!-- Generated by graphviz version 2.38.0 (20140413.2041)
 -->
<!-- Title: WordQuizzle.DataBaseJSON.newUser Pages: 1 -->
<svg width="423pt" height="66pt"
 viewBox="0.00 0.00 423.00 66.00" xmlns="http://www.w3.org/2000/svg" xmlns:xlink="http://www.w3.org/1999/xlink">
<g id="graph0" class="graph" transform="scale(1 1) rotate(0) translate(4 62)">
<title>WordQuizzle.DataBaseJSON.newUser</title>
<polygon fill="white" stroke="none" points="-4,4 -4,-62 419,-62 419,4 -4,4"/>
<!-- Node1 -->
<g id="node1" class="node"><title>Node1</title>
<g id="a_node1"><a xlink:title="Aggiunge un nuovo utente nel database.">
<polygon fill="#bfbfbf" stroke="black" points="0,-19.5 0,-38.5 185,-38.5 185,-19.5 0,-19.5"/>
<text text-anchor="middle" x="92.5" y="-26.5" font-family="Helvetica,sans-Serif" font-size="10.00">WordQuizzle.DataBaseJSON.newUser</text>
</a>
</g>
</g>
<!-- Node2 -->
<g id="node2" class="node"><title>Node2</title>
<g id="a_node2"><a xlink:href="class_word_quizzle_1_1_data_base_j_s_o_n.html#a8cf7829d68264a1874636d2b3cb66a5c" target="_top" xlink:title="Controlla che quel nome utente sia nel database.">
<polygon fill="white" stroke="black" points="221,-38.5 221,-57.5 415,-57.5 415,-38.5 221,-38.5"/>
<text text-anchor="middle" x="318" y="-45.5" font-family="Helvetica,sans-Serif" font-size="10.00">WordQuizzle.DataBaseJSON.checkUser</text>
</a>
</g>
</g>
<!-- Node1&#45;&gt;Node2 -->
<g id="edge1" class="edge"><title>Node1&#45;&gt;Node2</title>
<path fill="none" stroke="midnightblue" d="M185.051,-36.7828C193.542,-37.5047 202.195,-38.2403 210.803,-38.9721"/>
<polygon fill="midnightblue" stroke="midnightblue" points="210.615,-42.4686 220.876,-39.8284 211.208,-35.4938 210.615,-42.4686"/>
</g>
<!-- Node3 -->
<g id="node3" class="node"><title>Node3</title>
<g id="a_node3"><a xlink:href="class_word_quizzle_1_1_data_base_j_s_o_n.html#a5ae7156660a70a1a8103da3539a93914" target="_top" xlink:title="Fa il commit del database nel file json.">
<polygon fill="white" stroke="black" points="221.5,-0.5 221.5,-19.5 414.5,-19.5 414.5,-0.5 221.5,-0.5"/>
<text text-anchor="middle" x="318" y="-7.5" font-family="Helvetica,sans-Serif" font-size="10.00">WordQuizzle.DataBaseJSON.writeJSON</text>
</a>
</g>
</g>
<!-- Node1&#45;&gt;Node3 -->
<g id="edge2" class="edge"><title>Node1&#45;&gt;Node3</title>
<path fill="none" stroke="midnightblue" d="M185.051,-21.2172C193.629,-20.4879 202.371,-19.7447 211.066,-19.0055"/>
<polygon fill="midnightblue" stroke="midnightblue" points="211.572,-22.4753 221.239,-18.1407 210.979,-15.5004 211.572,-22.4753"/>
</g>
</g>
</svg>
