<?xml version="1.0" encoding="UTF-8" standalone="no"?>
<!DOCTYPE svg PUBLIC "-//W3C//DTD SVG 1.1//EN"
 "http://www.w3.org/Graphics/SVG/1.1/DTD/svg11.dtd">
<!-- Generated by graphviz version 2.38.0 (20140413.2041)
 -->
<!-- Title: WordQuizzleClient.sfida Pages: 1 -->
<svg width="372pt" height="66pt"
 viewBox="0.00 0.00 372.00 66.00" xmlns="http://www.w3.org/2000/svg" xmlns:xlink="http://www.w3.org/1999/xlink">
<g id="graph0" class="graph" transform="scale(1 1) rotate(0) translate(4 62)">
<title>WordQuizzleClient.sfida</title>
<polygon fill="white" stroke="none" points="-4,4 -4,-62 368,-62 368,4 -4,4"/>
<!-- Node1 -->
<g id="node1" class="node"><title>Node1</title>
<g id="a_node1"><a xlink:title="Invia una richiesta di sfida ad un amico.">
<polygon fill="#bfbfbf" stroke="black" points="243,-19.5 243,-38.5 364,-38.5 364,-19.5 243,-19.5"/>
<text text-anchor="middle" x="303.5" y="-26.5" font-family="Helvetica,sans-Serif" font-size="10.00">WordQuizzleClient.sfida</text>
</a>
</g>
</g>
<!-- Node2 -->
<g id="node2" class="node"><title>Node2</title>
<g id="a_node2"><a xlink:href="class_w_q_gui.html#a7627c0d130d7b9a1084bf3c7afb0a055" target="_top" xlink:title="Crea il pannello principale.">
<polygon fill="white" stroke="black" points="105,-38.5 105,-57.5 207,-57.5 207,-38.5 105,-38.5"/>
<text text-anchor="middle" x="156" y="-45.5" font-family="Helvetica,sans-Serif" font-size="10.00">WQGui.makeGame</text>
</a>
</g>
</g>
<!-- Node1&#45;&gt;Node2 -->
<g id="edge1" class="edge"><title>Node1&#45;&gt;Node2</title>
<path fill="none" stroke="midnightblue" d="M232.883,-38.0909C224.303,-39.2113 215.665,-40.3393 207.447,-41.4124"/>
<polygon fill="midnightblue" stroke="midnightblue" points="233.437,-41.5483 242.9,-36.7828 232.531,-34.6072 233.437,-41.5483"/>
</g>
<!-- Node3 -->
<g id="node3" class="node"><title>Node3</title>
<g id="a_node3"><a xlink:href="class_w_q_cli.html#a69d5ad39deabe879509740cc27efb3f3" target="_top" xlink:title="Gestisce le richieste dell&#39;utente.">
<polygon fill="white" stroke="black" points="120,-0.5 120,-19.5 192,-19.5 192,-0.5 120,-0.5"/>
<text text-anchor="middle" x="156" y="-7.5" font-family="Helvetica,sans-Serif" font-size="10.00">WQCli.parse</text>
</a>
</g>
</g>
<!-- Node1&#45;&gt;Node3 -->
<g id="edge2" class="edge"><title>Node1&#45;&gt;Node3</title>
<path fill="none" stroke="midnightblue" d="M232.697,-19.8848C218.607,-18.0448 204.369,-16.1857 192.103,-14.5839"/>
<polygon fill="midnightblue" stroke="midnightblue" points="232.531,-23.3928 242.9,-21.2172 233.437,-16.4517 232.531,-23.3928"/>
</g>
<!-- Node4 -->
<g id="node4" class="node"><title>Node4</title>
<g id="a_node4"><a xlink:href="class_w_q_cli.html#a13932f1ea4f257ce081aa524f090b6ee" target="_top" xlink:title="Gestisce l&#39;interazione con l&#39;utente.">
<polygon fill="white" stroke="black" points="0,-0.5 0,-19.5 69,-19.5 69,-0.5 0,-0.5"/>
<text text-anchor="middle" x="34.5" y="-7.5" font-family="Helvetica,sans-Serif" font-size="10.00">WQCli.main</text>
</a>
</g>
</g>
<!-- Node3&#45;&gt;Node4 -->
<g id="edge3" class="edge"><title>Node3&#45;&gt;Node4</title>
<path fill="none" stroke="midnightblue" d="M109.758,-10C96.305,-10 81.808,-10 69.2249,-10"/>
<polygon fill="midnightblue" stroke="midnightblue" points="109.792,-13.5001 119.792,-10 109.792,-6.5001 109.792,-13.5001"/>
</g>
</g>
</svg>
