<?xml version="1.0" encoding="UTF-8" standalone="no"?>
<!DOCTYPE svg PUBLIC "-//W3C//DTD SVG 1.1//EN"
 "http://www.w3.org/Graphics/SVG/1.1/DTD/svg11.dtd">
<!-- Generated by graphviz version 2.38.0 (20140413.2041)
 -->
<!-- Title: WordQuizzle.WordQuizzleClient.mostra_classifica Pages: 1 -->
<svg width="559pt" height="104pt"
 viewBox="0.00 0.00 559.00 104.00" xmlns="http://www.w3.org/2000/svg" xmlns:xlink="http://www.w3.org/1999/xlink">
<g id="graph0" class="graph" transform="scale(1 1) rotate(0) translate(4 100)">
<title>WordQuizzle.WordQuizzleClient.mostra_classifica</title>
<polygon fill="white" stroke="none" points="-4,4 -4,-100 555,-100 555,4 -4,4"/>
<!-- Node1 -->
<g id="node1" class="node"><title>Node1</title>
<g id="a_node1"><a xlink:title="Richiede la classifica dell&#39;user e dei suoi amici.">
<polygon fill="#bfbfbf" stroke="black" points="361,-33 361,-63 551,-63 551,-33 361,-33"/>
<text text-anchor="start" x="369" y="-51" font-family="Helvetica,sans-Serif" font-size="10.00">WordQuizzle.WordQuizzleClient.mostra</text>
<text text-anchor="middle" x="456" y="-40" font-family="Helvetica,sans-Serif" font-size="10.00">_classifica</text>
</a>
</g>
</g>
<!-- Node2 -->
<g id="node2" class="node"><title>Node2</title>
<g id="a_node2"><a xlink:href="class_word_quizzle_1_1_w_q_gui.html#a5c987293ccc62020ac32b8c4f8415adf" target="_top" xlink:title="Crea il pannello principale.">
<polygon fill="white" stroke="black" points="164,-76.5 164,-95.5 325,-95.5 325,-76.5 164,-76.5"/>
<text text-anchor="middle" x="244.5" y="-83.5" font-family="Helvetica,sans-Serif" font-size="10.00">WordQuizzle.WQGui.makeGame</text>
</a>
</g>
</g>
<!-- Node1&#45;&gt;Node2 -->
<g id="edge1" class="edge"><title>Node1&#45;&gt;Node2</title>
<path fill="none" stroke="midnightblue" d="M362.142,-64.843C340.11,-68.8393 317.367,-72.9644 297.88,-76.4991"/>
<polygon fill="midnightblue" stroke="midnightblue" points="362.985,-68.2472 372.2,-63.0186 361.736,-61.3596 362.985,-68.2472"/>
</g>
<!-- Node3 -->
<g id="node3" class="node"><title>Node3</title>
<g id="a_node3"><a xlink:href="class_word_quizzle_1_1_w_q_cli.html#a318ef86f91a825da4ff4684bd3332a6b" target="_top" xlink:title="Gestisce le richieste dell&#39;utente.">
<polygon fill="white" stroke="black" points="179,-38.5 179,-57.5 310,-57.5 310,-38.5 179,-38.5"/>
<text text-anchor="middle" x="244.5" y="-45.5" font-family="Helvetica,sans-Serif" font-size="10.00">WordQuizzle.WQCli.parse</text>
</a>
</g>
</g>
<!-- Node1&#45;&gt;Node3 -->
<g id="edge2" class="edge"><title>Node1&#45;&gt;Node3</title>
<path fill="none" stroke="midnightblue" d="M350.873,-48C336.979,-48 323.069,-48 310.123,-48"/>
<polygon fill="midnightblue" stroke="midnightblue" points="350.974,-51.5001 360.974,-48 350.974,-44.5001 350.974,-51.5001"/>
</g>
<!-- Node5 -->
<g id="node5" class="node"><title>Node5</title>
<g id="a_node5"><a xlink:href="class_word_quizzle_1_1_tester.html#a374746c9801c5a79f264bac163f0a3ea" target="_top" xlink:title="Esegue un test sul server.">
<polygon fill="white" stroke="black" points="185,-0.5 185,-19.5 304,-19.5 304,-0.5 185,-0.5"/>
<text text-anchor="middle" x="244.5" y="-7.5" font-family="Helvetica,sans-Serif" font-size="10.00">WordQuizzle.Tester.run</text>
</a>
</g>
</g>
<!-- Node1&#45;&gt;Node5 -->
<g id="edge4" class="edge"><title>Node1&#45;&gt;Node5</title>
<path fill="none" stroke="midnightblue" d="M362.142,-31.157C340.11,-27.1607 317.367,-23.0356 297.88,-19.5009"/>
<polygon fill="midnightblue" stroke="midnightblue" points="361.736,-34.6404 372.2,-32.9814 362.985,-27.7528 361.736,-34.6404"/>
</g>
<!-- Node4 -->
<g id="node4" class="node"><title>Node4</title>
<g id="a_node4"><a xlink:href="class_word_quizzle_1_1_w_q_cli.html#a7c2d51051cc7f1b20c57c1424d3b7727" target="_top" xlink:title="Gestisce l&#39;interazione con l&#39;utente.">
<polygon fill="white" stroke="black" points="0,-38.5 0,-57.5 128,-57.5 128,-38.5 0,-38.5"/>
<text text-anchor="middle" x="64" y="-45.5" font-family="Helvetica,sans-Serif" font-size="10.00">WordQuizzle.WQCli.main</text>
</a>
</g>
</g>
<!-- Node3&#45;&gt;Node4 -->
<g id="edge3" class="edge"><title>Node3&#45;&gt;Node4</title>
<path fill="none" stroke="midnightblue" d="M168.644,-48C155.216,-48 141.342,-48 128.28,-48"/>
<polygon fill="midnightblue" stroke="midnightblue" points="168.805,-51.5001 178.805,-48 168.805,-44.5001 168.805,-51.5001"/>
</g>
</g>
</svg>
