<?xml version="1.0" encoding="UTF-8" standalone="no"?>
<!DOCTYPE svg PUBLIC "-//W3C//DTD SVG 1.1//EN"
 "http://www.w3.org/Graphics/SVG/1.1/DTD/svg11.dtd">
<!-- Generated by graphviz version 2.38.0 (20140413.2041)
 -->
<!-- Title: WordQuizzle.WQCli.parse Pages: 1 -->
<!--zoomable 868 -->
<svg id="main" version="1.1" xmlns="http://www.w3.org/2000/svg" xmlns:xlink="http://www.w3.org/1999/xlink" xml:space="preserve" onload="init(evt)">
<style type="text/css"><![CDATA[
.edge:hover path { stroke: red; }
.edge:hover polygon { stroke: red; fill: red; }
]]></style>
<script type="text/javascript"><![CDATA[
var edges = document.getElementsByTagName('g');
if (edges && edges.length) {
  for (var i=0;i<edges.length;i++) {
    if (edges[i].id.substr(0,4)=='edge') {
      edges[i].setAttribute('class','edge');
    }
  }
}
]]></script>
        <defs>
                <circle id="rim" cx="0" cy="0" r="7"/>
                <circle id="rim2" cx="0" cy="0" r="3.5"/>
                <g id="zoomPlus">
                        <use xlink:href="#rim" fill="#404040">
                                <set attributeName="fill" to="#808080" begin="zoomplus.mouseover" end="zoomplus.mouseout"/>
                        </use>
                        <path d="M-4,0h8M0,-4v8" fill="none" stroke="white" stroke-width="1.5" pointer-events="none"/>
                </g>
                <g id="zoomMin">
                        <use xlink:href="#rim" fill="#404040">
                                <set attributeName="fill" to="#808080" begin="zoomminus.mouseover" end="zoomminus.mouseout"/>
                        </use>
                        <path d="M-4,0h8" fill="none" stroke="white" stroke-width="1.5" pointer-events="none"/>
                </g>
                <g id="dirArrow">
                        <path fill="none" stroke="white" stroke-width="1.5" d="M0,-3.0v7 M-2.5,-0.5L0,-3.0L2.5,-0.5"/>
                </g>
               <g id="resetDef">
                       <use xlink:href="#rim2" fill="#404040">
                               <set attributeName="fill" to="#808080" begin="reset.mouseover" end="reset.mouseout"/>
                       </use>
               </g>
        </defs>

<script type="text/javascript">
var viewWidth = 1177;
var viewHeight = 868;
var sectionId = 'dynsection-16';
</script>
<script xlink:href="svgpan.js"/>
<svg id="graph" class="graph">
<g id="viewport">
<title>WordQuizzle.WQCli.parse</title>
<polygon fill="white" stroke="none" points="-4,4 -4,-864 1173,-864 1173,4 -4,4"/>
<!-- Node1 -->
<g id="node1" class="node"><title>Node1</title>
<g id="a_node1"><a xlink:title=" ">
<polygon fill="#bfbfbf" stroke="black" points="0,-489 0,-508 131,-508 131,-489 0,-489"/>
<text text-anchor="middle" x="65.5" y="-496" font-family="Helvetica,sans-Serif" font-size="10.00">WordQuizzle.WQCli.parse</text>
</a>
</g>
</g>
<!-- Node2 -->
<g id="node2" class="node"><title>Node2</title>
<g id="a_node2"><a xlink:href="class_word_quizzle_1_1_word_quizzle_client.html#a91d982387c02c9ccae681f4a7d500a75" target="_top" xlink:title=" ">
<polygon fill="white" stroke="black" points="167,-672.5 167,-702.5 363,-702.5 363,-672.5 167,-672.5"/>
<text text-anchor="start" x="175" y="-690.5" font-family="Helvetica,sans-Serif" font-size="10.00">WordQuizzle.WordQuizzleClient.aggiungi</text>
<text text-anchor="middle" x="265" y="-679.5" font-family="Helvetica,sans-Serif" font-size="10.00">_amico</text>
</a>
</g>
</g>
<!-- Node1&#45;&gt;Node2 -->
<g id="edge1" class="edge"><title>Node1&#45;&gt;Node2</title>
<path fill="none" stroke="midnightblue" d="M70.6735,-508.209C82.2636,-534.123 117.297,-605.721 167,-646.5 177.862,-655.412 190.944,-662.668 203.933,-668.459"/>
<polygon fill="midnightblue" stroke="midnightblue" points="202.768,-671.766 213.343,-672.42 205.484,-665.314 202.768,-671.766"/>
</g>
<!-- Node7 -->
<g id="node7" class="node"><title>Node7</title>
<g id="a_node7"><a xlink:href="class_word_quizzle_1_1_w_q_cli.html#a423482396d62407941b62b92f4a25732" target="_top" xlink:title=" ">
<polygon fill="white" stroke="black" points="418,-401.5 418,-431.5 561,-431.5 561,-401.5 418,-401.5"/>
<text text-anchor="start" x="426" y="-419.5" font-family="Helvetica,sans-Serif" font-size="10.00">WordQuizzle.WQCli.aggiungi</text>
<text text-anchor="middle" x="489.5" y="-408.5" font-family="Helvetica,sans-Serif" font-size="10.00">_amico</text>
</a>
</g>
</g>
<!-- Node1&#45;&gt;Node7 -->
<g id="edge6" class="edge"><title>Node1&#45;&gt;Node7</title>
<path fill="none" stroke="midnightblue" d="M78.988,-488.982C97.2097,-475.684 132.664,-452 167,-441.5 246.277,-417.257 341.409,-412.696 407.53,-413.158"/>
<polygon fill="midnightblue" stroke="midnightblue" points="407.848,-416.661 417.886,-413.273 407.926,-409.662 407.848,-416.661"/>
</g>
<!-- Node8 -->
<g id="node8" class="node"><title>Node8</title>
<g id="a_node8"><a xlink:href="class_word_quizzle_1_1_w_q_cli.html#ae5f342434ec80ce1ed3939fb446de436" target="_top" xlink:title=" ">
<polygon fill="white" stroke="black" points="199.5,-534 199.5,-553 330.5,-553 330.5,-534 199.5,-534"/>
<text text-anchor="middle" x="265" y="-541" font-family="Helvetica,sans-Serif" font-size="10.00">WordQuizzle.WQCli.game</text>
</a>
</g>
</g>
<!-- Node1&#45;&gt;Node8 -->
<g id="edge7" class="edge"><title>Node1&#45;&gt;Node8</title>
<path fill="none" stroke="midnightblue" d="M108.385,-508.043C138.759,-514.964 180.022,-524.366 212.426,-531.749"/>
<polygon fill="midnightblue" stroke="midnightblue" points="211.648,-535.161 222.176,-533.97 213.203,-528.336 211.648,-535.161"/>
</g>
<!-- Node13 -->
<g id="node13" class="node"><title>Node13</title>
<g id="a_node13"><a xlink:href="class_word_quizzle_1_1_w_q_cli.html#af99dd07b4f0c4e029f872de8ea3ae9f3" target="_top" xlink:title=" ">
<polygon fill="white" stroke="black" points="202.5,-253 202.5,-272 327.5,-272 327.5,-253 202.5,-253"/>
<text text-anchor="middle" x="265" y="-260" font-family="Helvetica,sans-Serif" font-size="10.00">WordQuizzle.WQCli.help</text>
</a>
</g>
</g>
<!-- Node1&#45;&gt;Node13 -->
<g id="edge13" class="edge"><title>Node1&#45;&gt;Node13</title>
<path fill="none" stroke="midnightblue" d="M72.88,-488.847C88.1546,-465.96 128.429,-406.918 167,-361.5 192.874,-331.033 226.011,-298.421 246.091,-279.276"/>
<polygon fill="midnightblue" stroke="midnightblue" points="248.74,-281.588 253.595,-272.171 243.927,-276.506 248.74,-281.588"/>
</g>
<!-- Node15 -->
<g id="node15" class="node"><title>Node15</title>
<g id="a_node15"><a xlink:href="class_word_quizzle_1_1_w_q_cli.html#a5be21ae4cfdcdae806ff4a935f0799fd" target="_top" xlink:title=" ">
<polygon fill="white" stroke="black" points="425.5,-363 425.5,-382 553.5,-382 553.5,-363 425.5,-363"/>
<text text-anchor="middle" x="489.5" y="-370" font-family="Helvetica,sans-Serif" font-size="10.00">WordQuizzle.WQCli.login</text>
</a>
</g>
</g>
<!-- Node1&#45;&gt;Node15 -->
<g id="edge29" class="edge"><title>Node1&#45;&gt;Node15</title>
<path fill="none" stroke="midnightblue" d="M74.0952,-488.732C89.3722,-469.891 125.89,-428.781 167,-410.5 246.745,-375.04 348.034,-368.616 415.392,-369.051"/>
<polygon fill="midnightblue" stroke="midnightblue" points="415.45,-372.551 425.49,-369.169 415.532,-365.552 415.45,-372.551"/>
</g>
<!-- Node21 -->
<g id="node21" class="node"><title>Node21</title>
<g id="a_node21"><a xlink:href="class_word_quizzle_1_1_w_q_cli.html#abf6a8e25f47e24745e96260127cf9b71" target="_top" xlink:title=" ">
<polygon fill="white" stroke="black" points="425.5,-50 425.5,-69 553.5,-69 553.5,-50 425.5,-50"/>
<text text-anchor="middle" x="489.5" y="-57" font-family="Helvetica,sans-Serif" font-size="10.00">WordQuizzle.WQCli.sfida</text>
</a>
</g>
</g>
<!-- Node1&#45;&gt;Node21 -->
<g id="edge45" class="edge"><title>Node1&#45;&gt;Node21</title>
<path fill="none" stroke="midnightblue" d="M68.2599,-488.712C75.1424,-452.669 103.07,-325.195 167,-243.5 244.977,-143.854 283.145,-129.364 399,-78.5 404.727,-75.9857 410.809,-73.7954 417.003,-71.8888"/>
<polygon fill="midnightblue" stroke="midnightblue" points="418.121,-75.21 426.791,-69.1206 416.216,-68.4741 418.121,-75.21"/>
</g>
<!-- Node22 -->
<g id="node22" class="node"><title>Node22</title>
<g id="a_node22"><a xlink:href="class_word_quizzle_1_1_word_quizzle_client.html#a601f27bc3078f4c7d43417481f4c1353" target="_top" xlink:title=" ">
<polygon fill="white" stroke="black" points="176,-606.5 176,-636.5 354,-636.5 354,-606.5 176,-606.5"/>
<text text-anchor="start" x="184" y="-624.5" font-family="Helvetica,sans-Serif" font-size="10.00">WordQuizzle.WordQuizzleClient.lista</text>
<text text-anchor="middle" x="265" y="-613.5" font-family="Helvetica,sans-Serif" font-size="10.00">_amici</text>
</a>
</g>
</g>
<!-- Node1&#45;&gt;Node22 -->
<g id="edge23" class="edge"><title>Node1&#45;&gt;Node22</title>
<path fill="none" stroke="midnightblue" d="M81.4229,-508.138C100.996,-520.749 136.443,-543.48 167,-562.5 187.852,-575.479 211.387,-589.802 230.052,-601.085"/>
<polygon fill="midnightblue" stroke="midnightblue" points="228.421,-604.189 238.791,-606.361 232.039,-598.196 228.421,-604.189"/>
</g>
<!-- Node24 -->
<g id="node24" class="node"><title>Node24</title>
<g id="a_node24"><a xlink:href="class_word_quizzle_1_1_word_quizzle_client.html#aa87c179f3a0a6ab57c2b74960c95a626" target="_top" xlink:title=" ">
<polygon fill="white" stroke="black" points="175,-489 175,-508 355,-508 355,-489 175,-489"/>
<text text-anchor="middle" x="265" y="-496" font-family="Helvetica,sans-Serif" font-size="10.00">WordQuizzle.WordQuizzleClient.login</text>
</a>
</g>
</g>
<!-- Node1&#45;&gt;Node24 -->
<g id="edge26" class="edge"><title>Node1&#45;&gt;Node24</title>
<path fill="none" stroke="midnightblue" d="M131.169,-498.5C141.958,-498.5 153.366,-498.5 164.783,-498.5"/>
<polygon fill="midnightblue" stroke="midnightblue" points="164.802,-502 174.802,-498.5 164.802,-495 164.802,-502"/>
</g>
<!-- Node26 -->
<g id="node26" class="node"><title>Node26</title>
<g id="a_node26"><a xlink:href="class_word_quizzle_1_1_word_quizzle_client.html#a50468f5e79e6bba9efc2e9fd19493345" target="_top" xlink:title=" ">
<polygon fill="white" stroke="black" points="172,-451 172,-470 358,-470 358,-451 172,-451"/>
<text text-anchor="middle" x="265" y="-458" font-family="Helvetica,sans-Serif" font-size="10.00">WordQuizzle.WordQuizzleClient.logout</text>
</a>
</g>
</g>
<!-- Node1&#45;&gt;Node26 -->
<g id="edge30" class="edge"><title>Node1&#45;&gt;Node26</title>
<path fill="none" stroke="midnightblue" d="M116.083,-488.96C142.847,-483.81 176.081,-477.416 204.264,-471.994"/>
<polygon fill="midnightblue" stroke="midnightblue" points="205.238,-475.37 214.397,-470.044 203.916,-468.496 205.238,-475.37"/>
</g>
<!-- Node28 -->
<g id="node28" class="node"><title>Node28</title>
<g id="a_node28"><a xlink:href="class_word_quizzle_1_1_word_quizzle_client.html#a155c2dca547e63f1ba07589525ccfd75" target="_top" xlink:title=" ">
<polygon fill="white" stroke="black" points="170,-824.5 170,-854.5 360,-854.5 360,-824.5 170,-824.5"/>
<text text-anchor="start" x="178" y="-842.5" font-family="Helvetica,sans-Serif" font-size="10.00">WordQuizzle.WordQuizzleClient.mostra</text>
<text text-anchor="middle" x="265" y="-831.5" font-family="Helvetica,sans-Serif" font-size="10.00">_classifica</text>
</a>
</g>
</g>
<!-- Node1&#45;&gt;Node28 -->
<g id="edge33" class="edge"><title>Node1&#45;&gt;Node28</title>
<path fill="none" stroke="midnightblue" d="M66.4599,-508.159C66.8292,-550.916 74.176,-724.935 167,-813.5 169.129,-815.531 171.398,-817.407 173.781,-819.14"/>
<polygon fill="midnightblue" stroke="midnightblue" points="171.951,-822.124 182.276,-824.497 175.685,-816.203 171.951,-822.124"/>
</g>
<!-- Node30 -->
<g id="node30" class="node"><title>Node30</title>
<g id="a_node30"><a xlink:href="class_word_quizzle_1_1_word_quizzle_client.html#a22e0d1e5461e49703357d34b50cf70b8" target="_top" xlink:title=" ">
<polygon fill="white" stroke="black" points="170,-773.5 170,-803.5 360,-803.5 360,-773.5 170,-773.5"/>
<text text-anchor="start" x="178" y="-791.5" font-family="Helvetica,sans-Serif" font-size="10.00">WordQuizzle.WordQuizzleClient.mostra</text>
<text text-anchor="middle" x="265" y="-780.5" font-family="Helvetica,sans-Serif" font-size="10.00">_punteggio</text>
</a>
</g>
</g>
<!-- Node1&#45;&gt;Node30 -->
<g id="edge36" class="edge"><title>Node1&#45;&gt;Node30</title>
<path fill="none" stroke="midnightblue" d="M67.2529,-508.227C70.7316,-546.335 88.612,-686.93 167,-759.5 170.599,-762.832 174.567,-765.783 178.779,-768.395"/>
<polygon fill="midnightblue" stroke="midnightblue" points="177.277,-771.563 187.73,-773.295 180.639,-765.423 177.277,-771.563"/>
</g>
<!-- Node32 -->
<g id="node32" class="node"><title>Node32</title>
<g id="a_node32"><a xlink:href="class_word_quizzle_1_1_word_quizzle_client.html#a98206956fc50ef3951d27f2a89fb21fa" target="_top" xlink:title=" ">
<polygon fill="white" stroke="black" points="169,-36.5 169,-66.5 361,-66.5 361,-36.5 169,-36.5"/>
<text text-anchor="start" x="177" y="-54.5" font-family="Helvetica,sans-Serif" font-size="10.00">WordQuizzle.WordQuizzleClient.registra</text>
<text text-anchor="middle" x="265" y="-43.5" font-family="Helvetica,sans-Serif" font-size="10.00">_utente</text>
</a>
</g>
</g>
<!-- Node1&#45;&gt;Node32 -->
<g id="edge39" class="edge"><title>Node1&#45;&gt;Node32</title>
<path fill="none" stroke="midnightblue" d="M66.6464,-488.927C67.7945,-443.132 77.9196,-243.441 167,-117.5 180.81,-97.976 202.355,-82.4784 221.635,-71.4204"/>
<polygon fill="midnightblue" stroke="midnightblue" points="223.507,-74.3855 230.586,-66.5023 220.136,-68.2506 223.507,-74.3855"/>
</g>
<!-- Node35 -->
<g id="node35" class="node"><title>Node35</title>
<g id="a_node35"><a xlink:href="class_word_quizzle_1_1_word_quizzle_client.html#a2f667c9d998bab28411f3fd0af90ec8c" target="_top" xlink:title=" ">
<polygon fill="white" stroke="black" points="175,-731 175,-750 355,-750 355,-731 175,-731"/>
<text text-anchor="middle" x="265" y="-738" font-family="Helvetica,sans-Serif" font-size="10.00">WordQuizzle.WordQuizzleClient.sfida</text>
</a>
</g>
</g>
<!-- Node1&#45;&gt;Node35 -->
<g id="edge42" class="edge"><title>Node1&#45;&gt;Node35</title>
<path fill="none" stroke="midnightblue" d="M68.1543,-508.326C74.3763,-542.167 99.5557,-654.953 167,-712.5 174.323,-718.748 182.969,-723.605 192.032,-727.378"/>
<polygon fill="midnightblue" stroke="midnightblue" points="190.998,-730.728 201.591,-730.932 193.437,-724.167 190.998,-730.728"/>
</g>
<!-- Node3 -->
<g id="node3" class="node"><title>Node3</title>
<g id="a_node3"><a xlink:href="class_word_quizzle_1_1_word_quizzle_client_service.html#adc41c272e3f60eaf3fb07f477887a7ff" target="_top" xlink:title=" ">
<polygon fill="white" stroke="black" points="621,-682.5 621,-712.5 778,-712.5 778,-682.5 621,-682.5"/>
<text text-anchor="start" x="629" y="-700.5" font-family="Helvetica,sans-Serif" font-size="10.00">WordQuizzle.WordQuizzleClient</text>
<text text-anchor="middle" x="699.5" y="-689.5" font-family="Helvetica,sans-Serif" font-size="10.00">Service.aggiungi_amico</text>
</a>
</g>
</g>
<!-- Node2&#45;&gt;Node3 -->
<g id="edge2" class="edge"><title>Node2&#45;&gt;Node3</title>
<path fill="none" stroke="midnightblue" d="M363.277,-696.477C375.298,-697.311 387.425,-698.022 399,-698.5 479.376,-701.818 499.556,-698.839 580,-698.5 589.875,-698.458 600.213,-698.397 610.493,-698.325"/>
<polygon fill="midnightblue" stroke="midnightblue" points="610.761,-701.823 620.735,-698.25 610.71,-694.824 610.761,-701.823"/>
</g>
<!-- Node4 -->
<g id="node4" class="node"><title>Node4</title>
<g id="a_node4"><a xlink:href="class_word_quizzle_1_1_word_quizzle_client_service.html#a0ed33ad0199840ae1847c4ecbc992ce2" target="_top" xlink:title=" ">
<polygon fill="white" stroke="black" points="819,-657.5 819,-687.5 976,-687.5 976,-657.5 819,-657.5"/>
<text text-anchor="start" x="827" y="-675.5" font-family="Helvetica,sans-Serif" font-size="10.00">WordQuizzle.WordQuizzleClient</text>
<text text-anchor="middle" x="897.5" y="-664.5" font-family="Helvetica,sans-Serif" font-size="10.00">Service.send</text>
</a>
</g>
</g>
<!-- Node3&#45;&gt;Node4 -->
<g id="edge3" class="edge"><title>Node3&#45;&gt;Node4</title>
<path fill="none" stroke="midnightblue" d="M778.246,-687.583C788.266,-686.305 798.581,-684.99 808.748,-683.693"/>
<polygon fill="midnightblue" stroke="midnightblue" points="809.371,-687.142 818.848,-682.405 808.486,-680.198 809.371,-687.142"/>
</g>
<!-- Node5 -->
<g id="node5" class="node"><title>Node5</title>
<g id="a_node5"><a xlink:href="class_word_quizzle_1_1_word_quizzle_client_service.html#a59c8bdbde7768c2b478d51f4f13f7afb" target="_top" xlink:title=" ">
<polygon fill="white" stroke="black" points="1012,-682.5 1012,-712.5 1169,-712.5 1169,-682.5 1012,-682.5"/>
<text text-anchor="start" x="1020" y="-700.5" font-family="Helvetica,sans-Serif" font-size="10.00">WordQuizzle.WordQuizzleClient</text>
<text text-anchor="middle" x="1090.5" y="-689.5" font-family="Helvetica,sans-Serif" font-size="10.00">Service.read</text>
</a>
</g>
</g>
<!-- Node4&#45;&gt;Node5 -->
<g id="edge4" class="edge"><title>Node4&#45;&gt;Node5</title>
<path fill="none" stroke="midnightblue" d="M976.187,-682.668C984.65,-683.776 993.306,-684.909 1001.88,-686.031"/>
<polygon fill="midnightblue" stroke="midnightblue" points="1001.51,-689.513 1011.88,-687.341 1002.42,-682.572 1001.51,-689.513"/>
</g>
<!-- Node6 -->
<g id="node6" class="node"><title>Node6</title>
<g id="a_node6"><a xlink:href="class_word_quizzle_1_1_word_quizzle_client_service.html#a25566e1d25884c6c0dbb5aab0c1b52fd" target="_top" xlink:title=" ">
<polygon fill="white" stroke="black" points="1012,-633.5 1012,-663.5 1169,-663.5 1169,-633.5 1012,-633.5"/>
<text text-anchor="start" x="1020" y="-651.5" font-family="Helvetica,sans-Serif" font-size="10.00">WordQuizzle.WordQuizzleClient</text>
<text text-anchor="middle" x="1090.5" y="-640.5" font-family="Helvetica,sans-Serif" font-size="10.00">Service.write</text>
</a>
</g>
</g>
<!-- Node4&#45;&gt;Node6 -->
<g id="edge5" class="edge"><title>Node4&#45;&gt;Node6</title>
<path fill="none" stroke="midnightblue" d="M976.187,-662.738C984.65,-661.675 993.306,-660.587 1001.88,-659.51"/>
<polygon fill="midnightblue" stroke="midnightblue" points="1002.4,-662.973 1011.88,-658.253 1001.52,-656.027 1002.4,-662.973"/>
</g>
<!-- Node9 -->
<g id="node9" class="node"><title>Node9</title>
<g id="a_node9"><a xlink:href="class_word_quizzle_1_1_word_quizzle_server_service.html#a970fe0e2dd7457bab2c64ae722a912fc" target="_top" xlink:title=" ">
<polygon fill="white" stroke="black" points="410,-625.5 410,-655.5 569,-655.5 569,-625.5 410,-625.5"/>
<text text-anchor="start" x="418" y="-643.5" font-family="Helvetica,sans-Serif" font-size="10.00">WordQuizzle.WordQuizzleServer</text>
<text text-anchor="middle" x="489.5" y="-632.5" font-family="Helvetica,sans-Serif" font-size="10.00">Service.getK</text>
</a>
</g>
</g>
<!-- Node8&#45;&gt;Node9 -->
<g id="edge8" class="edge"><title>Node8&#45;&gt;Node9</title>
<path fill="none" stroke="midnightblue" d="M283.241,-553.106C317.849,-572.369 392.997,-614.088 399,-616.5 404.131,-618.561 409.498,-620.502 414.945,-622.317"/>
<polygon fill="midnightblue" stroke="midnightblue" points="414.212,-625.756 424.802,-625.447 416.331,-619.084 414.212,-625.756"/>
</g>
<!-- Node10 -->
<g id="node10" class="node"><title>Node10</title>
<g id="a_node10"><a xlink:href="class_word_quizzle_1_1_word_quizzle_server_service.html#ac78bda2a578b3baa0933ca28e4b72e0c" target="_top" xlink:title=" ">
<polygon fill="white" stroke="black" points="410,-576.5 410,-606.5 569,-606.5 569,-576.5 410,-576.5"/>
<text text-anchor="start" x="418" y="-594.5" font-family="Helvetica,sans-Serif" font-size="10.00">WordQuizzle.WordQuizzleServer</text>
<text text-anchor="middle" x="489.5" y="-583.5" font-family="Helvetica,sans-Serif" font-size="10.00">Service.getT2</text>
</a>
</g>
</g>
<!-- Node8&#45;&gt;Node10 -->
<g id="edge9" class="edge"><title>Node8&#45;&gt;Node10</title>
<path fill="none" stroke="midnightblue" d="M310.225,-553.041C338.364,-559.111 375.623,-567.149 408.801,-574.307"/>
<polygon fill="midnightblue" stroke="midnightblue" points="408.439,-577.809 418.952,-576.496 409.915,-570.966 408.439,-577.809"/>
</g>
<!-- Node11 -->
<g id="node11" class="node"><title>Node11</title>
<g id="a_node11"><a xlink:href="class_word_quizzle_1_1_word_quizzle_client.html#a828a5e7a358bd53296d88c97172db13b" target="_top" xlink:title=" ">
<polygon fill="white" stroke="black" points="399,-527.5 399,-557.5 580,-557.5 580,-527.5 399,-527.5"/>
<text text-anchor="start" x="407" y="-545.5" font-family="Helvetica,sans-Serif" font-size="10.00">WordQuizzle.WordQuizzleClient.send</text>
<text text-anchor="middle" x="489.5" y="-534.5" font-family="Helvetica,sans-Serif" font-size="10.00">Translation</text>
</a>
</g>
</g>
<!-- Node8&#45;&gt;Node11 -->
<g id="edge10" class="edge"><title>Node8&#45;&gt;Node11</title>
<path fill="none" stroke="midnightblue" d="M330.655,-543.209C348.793,-543.128 368.947,-543.037 388.622,-542.949"/>
<polygon fill="midnightblue" stroke="midnightblue" points="388.869,-546.448 398.854,-542.903 388.838,-539.448 388.869,-546.448"/>
</g>
<!-- Node12 -->
<g id="node12" class="node"><title>Node12</title>
<g id="a_node12"><a xlink:href="class_word_quizzle_1_1_word_quizzle_client_service.html#a53ced7302f38c42dfed59b2a70674800" target="_top" xlink:title=" ">
<polygon fill="white" stroke="black" points="621,-575.5 621,-605.5 778,-605.5 778,-575.5 621,-575.5"/>
<text text-anchor="start" x="629" y="-593.5" font-family="Helvetica,sans-Serif" font-size="10.00">WordQuizzle.WordQuizzleClient</text>
<text text-anchor="middle" x="699.5" y="-582.5" font-family="Helvetica,sans-Serif" font-size="10.00">Service.sendTranslation</text>
</a>
</g>
</g>
<!-- Node11&#45;&gt;Node12 -->
<g id="edge11" class="edge"><title>Node11&#45;&gt;Node12</title>
<path fill="none" stroke="midnightblue" d="M555.742,-557.556C577.232,-562.515 601.298,-568.069 623.458,-573.183"/>
<polygon fill="midnightblue" stroke="midnightblue" points="622.959,-576.659 633.49,-575.498 624.533,-569.839 622.959,-576.659"/>
</g>
<!-- Node12&#45;&gt;Node4 -->
<g id="edge12" class="edge"><title>Node12&#45;&gt;Node4</title>
<path fill="none" stroke="midnightblue" d="M737.492,-605.66C751.729,-611.518 768.133,-618.293 783,-624.5 805.771,-634.007 831.062,-644.69 851.98,-653.561"/>
<polygon fill="midnightblue" stroke="midnightblue" points="850.686,-656.814 861.259,-657.498 853.42,-650.37 850.686,-656.814"/>
</g>
<!-- Node13&#45;&gt;Node7 -->
<g id="edge14" class="edge"><title>Node13&#45;&gt;Node7</title>
<path fill="none" stroke="midnightblue" d="M273.19,-272.26C291.426,-296.308 342.094,-358.822 399,-391.5 402.882,-393.729 406.975,-395.769 411.186,-397.634"/>
<polygon fill="midnightblue" stroke="midnightblue" points="409.977,-400.921 420.559,-401.444 412.613,-394.436 409.977,-400.921"/>
</g>
<!-- Node14 -->
<g id="node14" class="node"><title>Node14</title>
<g id="a_node14"><a xlink:href="class_word_quizzle_1_1_w_q_cli.html#a0637563fc8b57e7e5d7bc623be3047e9" target="_top" xlink:title=" ">
<polygon fill="white" stroke="black" points="427,-313.5 427,-343.5 552,-343.5 552,-313.5 427,-313.5"/>
<text text-anchor="start" x="435" y="-331.5" font-family="Helvetica,sans-Serif" font-size="10.00">WordQuizzle.WQCli.lista</text>
<text text-anchor="middle" x="489.5" y="-320.5" font-family="Helvetica,sans-Serif" font-size="10.00">_amici</text>
</a>
</g>
</g>
<!-- Node13&#45;&gt;Node14 -->
<g id="edge15" class="edge"><title>Node13&#45;&gt;Node14</title>
<path fill="none" stroke="midnightblue" d="M296.04,-272.011C322.951,-280.471 363.53,-293.081 399,-303.5 407.01,-305.853 415.44,-308.276 423.791,-310.645"/>
<polygon fill="midnightblue" stroke="midnightblue" points="422.954,-314.046 433.529,-313.394 424.856,-307.309 422.954,-314.046"/>
</g>
<!-- Node13&#45;&gt;Node15 -->
<g id="edge16" class="edge"><title>Node13&#45;&gt;Node15</title>
<path fill="none" stroke="midnightblue" d="M276.886,-272.009C298.566,-290.435 349.339,-331.07 399,-352.5 405.912,-355.483 413.323,-358.046 420.814,-360.242"/>
<polygon fill="midnightblue" stroke="midnightblue" points="420.105,-363.676 430.673,-362.924 421.942,-356.922 420.105,-363.676"/>
</g>
<!-- Node16 -->
<g id="node16" class="node"><title>Node16</title>
<g id="a_node16"><a xlink:href="class_word_quizzle_1_1_w_q_cli.html#a09b72dba431b9d164cc07cdbd58053df" target="_top" xlink:title=" ">
<polygon fill="white" stroke="black" points="422.5,-275 422.5,-294 556.5,-294 556.5,-275 422.5,-275"/>
<text text-anchor="middle" x="489.5" y="-282" font-family="Helvetica,sans-Serif" font-size="10.00">WordQuizzle.WQCli.logout</text>
</a>
</g>
</g>
<!-- Node13&#45;&gt;Node16 -->
<g id="edge17" class="edge"><title>Node13&#45;&gt;Node16</title>
<path fill="none" stroke="midnightblue" d="M327.683,-268.599C353.913,-271.193 384.764,-274.243 412.393,-276.975"/>
<polygon fill="midnightblue" stroke="midnightblue" points="412.116,-280.464 422.411,-277.965 412.804,-273.498 412.116,-280.464"/>
</g>
<!-- Node17 -->
<g id="node17" class="node"><title>Node17</title>
<g id="a_node17"><a xlink:href="class_word_quizzle_1_1_w_q_cli.html#a147c086aad7a54c6162cea04f4a5cea8" target="_top" xlink:title=" ">
<polygon fill="white" stroke="black" points="421,-225.5 421,-255.5 558,-255.5 558,-225.5 421,-225.5"/>
<text text-anchor="start" x="429" y="-243.5" font-family="Helvetica,sans-Serif" font-size="10.00">WordQuizzle.WQCli.mostra</text>
<text text-anchor="middle" x="489.5" y="-232.5" font-family="Helvetica,sans-Serif" font-size="10.00">_classifica</text>
</a>
</g>
</g>
<!-- Node13&#45;&gt;Node17 -->
<g id="edge18" class="edge"><title>Node13&#45;&gt;Node17</title>
<path fill="none" stroke="midnightblue" d="M327.683,-256.401C353.342,-253.864 383.423,-250.89 410.583,-248.204"/>
<polygon fill="midnightblue" stroke="midnightblue" points="411.228,-251.658 420.835,-247.191 410.539,-244.692 411.228,-251.658"/>
</g>
<!-- Node18 -->
<g id="node18" class="node"><title>Node18</title>
<g id="a_node18"><a xlink:href="class_word_quizzle_1_1_w_q_cli.html#a10b2156f5c561a889f7feec6cb7bbacc" target="_top" xlink:title=" ">
<polygon fill="white" stroke="black" points="421,-176.5 421,-206.5 558,-206.5 558,-176.5 421,-176.5"/>
<text text-anchor="start" x="429" y="-194.5" font-family="Helvetica,sans-Serif" font-size="10.00">WordQuizzle.WQCli.mostra</text>
<text text-anchor="middle" x="489.5" y="-183.5" font-family="Helvetica,sans-Serif" font-size="10.00">_punteggio</text>
</a>
</g>
</g>
<!-- Node13&#45;&gt;Node18 -->
<g id="edge19" class="edge"><title>Node13&#45;&gt;Node18</title>
<path fill="none" stroke="midnightblue" d="M291.301,-252.898C317.913,-242.955 361.109,-227.256 399,-215.5 405.76,-213.403 412.841,-211.317 419.932,-209.301"/>
<polygon fill="midnightblue" stroke="midnightblue" points="420.892,-212.667 429.578,-206.602 419.005,-205.926 420.892,-212.667"/>
</g>
<!-- Node19 -->
<g id="node19" class="node"><title>Node19</title>
<g id="a_node19"><a xlink:href="class_word_quizzle_1_1_w_q_cli.html#a07609480f2f51587119199d616ce5ee2" target="_top" xlink:title=" ">
<polygon fill="white" stroke="black" points="428,-138 428,-157 551,-157 551,-138 428,-138"/>
<text text-anchor="middle" x="489.5" y="-145" font-family="Helvetica,sans-Serif" font-size="10.00">WordQuizzle.WQCli.quit</text>
</a>
</g>
</g>
<!-- Node13&#45;&gt;Node19 -->
<g id="edge20" class="edge"><title>Node13&#45;&gt;Node19</title>
<path fill="none" stroke="midnightblue" d="M276.084,-252.879C297.119,-233.375 347.972,-189.116 399,-166.5 405.049,-163.819 411.5,-161.507 418.06,-159.516"/>
<polygon fill="midnightblue" stroke="midnightblue" points="419.026,-162.88 427.718,-156.821 417.145,-156.137 419.026,-162.88"/>
</g>
<!-- Node20 -->
<g id="node20" class="node"><title>Node20</title>
<g id="a_node20"><a xlink:href="class_word_quizzle_1_1_w_q_cli.html#a65cec1c9b0f47f1996351f0fd40f9c4c" target="_top" xlink:title=" ">
<polygon fill="white" stroke="black" points="419.5,-88.5 419.5,-118.5 559.5,-118.5 559.5,-88.5 419.5,-88.5"/>
<text text-anchor="start" x="427.5" y="-106.5" font-family="Helvetica,sans-Serif" font-size="10.00">WordQuizzle.WQCli.registra</text>
<text text-anchor="middle" x="489.5" y="-95.5" font-family="Helvetica,sans-Serif" font-size="10.00">_utente</text>
</a>
</g>
</g>
<!-- Node13&#45;&gt;Node20 -->
<g id="edge21" class="edge"><title>Node13&#45;&gt;Node20</title>
<path fill="none" stroke="midnightblue" d="M272.833,-252.714C290.624,-227.98 341.051,-162.513 399,-128.5 402.678,-126.341 406.551,-124.361 410.54,-122.547"/>
<polygon fill="midnightblue" stroke="midnightblue" points="412.128,-125.677 420.018,-118.607 409.441,-119.214 412.128,-125.677"/>
</g>
<!-- Node13&#45;&gt;Node21 -->
<g id="edge22" class="edge"><title>Node13&#45;&gt;Node21</title>
<path fill="none" stroke="midnightblue" d="M275.282,-252.708C293.446,-233.257 334.409,-187.959 363,-145.5 381.881,-117.46 371.956,-98.7815 399,-78.5 404.087,-74.6849 409.772,-71.5984 415.743,-69.1059"/>
<polygon fill="midnightblue" stroke="midnightblue" points="417.093,-72.3395 425.316,-65.6586 414.722,-65.7535 417.093,-72.3395"/>
</g>
<!-- Node23 -->
<g id="node23" class="node"><title>Node23</title>
<g id="a_node23"><a xlink:href="class_word_quizzle_1_1_word_quizzle_client_service.html#ab8db9cd5ff3f755cf306b508741ce7b1" target="_top" xlink:title=" ">
<polygon fill="white" stroke="black" points="621,-633.5 621,-663.5 778,-663.5 778,-633.5 621,-633.5"/>
<text text-anchor="start" x="629" y="-651.5" font-family="Helvetica,sans-Serif" font-size="10.00">WordQuizzle.WordQuizzleClient</text>
<text text-anchor="middle" x="699.5" y="-640.5" font-family="Helvetica,sans-Serif" font-size="10.00">Service.lista_amici</text>
</a>
</g>
</g>
<!-- Node22&#45;&gt;Node23 -->
<g id="edge24" class="edge"><title>Node22&#45;&gt;Node23</title>
<path fill="none" stroke="midnightblue" d="M301.071,-636.527C327.45,-646.978 364.784,-659.987 399,-665.5 469.599,-676.875 550.625,-671.157 610.583,-663.41"/>
<polygon fill="midnightblue" stroke="midnightblue" points="611.323,-666.843 620.771,-662.048 610.396,-659.904 611.323,-666.843"/>
</g>
<!-- Node23&#45;&gt;Node4 -->
<g id="edge25" class="edge"><title>Node23&#45;&gt;Node4</title>
<path fill="none" stroke="midnightblue" d="M778.246,-658.02C788.266,-659.247 798.581,-660.51 808.748,-661.755"/>
<polygon fill="midnightblue" stroke="midnightblue" points="808.497,-665.25 818.848,-662.992 809.348,-658.302 808.497,-665.25"/>
</g>
<!-- Node25 -->
<g id="node25" class="node"><title>Node25</title>
<g id="a_node25"><a xlink:href="class_word_quizzle_1_1_word_quizzle_client_service.html#aa02afd3fa03a290940b6c958e3c57199" target="_top" xlink:title=" ">
<polygon fill="white" stroke="black" points="621,-507.5 621,-537.5 778,-537.5 778,-507.5 621,-507.5"/>
<text text-anchor="start" x="629" y="-525.5" font-family="Helvetica,sans-Serif" font-size="10.00">WordQuizzle.WordQuizzleClient</text>
<text text-anchor="middle" x="699.5" y="-514.5" font-family="Helvetica,sans-Serif" font-size="10.00">Service.login</text>
</a>
</g>
</g>
<!-- Node24&#45;&gt;Node25 -->
<g id="edge27" class="edge"><title>Node24&#45;&gt;Node25</title>
<path fill="none" stroke="midnightblue" d="M355.09,-503.444C429.839,-507.592 536.026,-513.484 610.475,-517.615"/>
<polygon fill="midnightblue" stroke="midnightblue" points="610.584,-521.127 620.763,-518.186 610.972,-514.137 610.584,-521.127"/>
</g>
<!-- Node25&#45;&gt;Node4 -->
<g id="edge28" class="edge"><title>Node25&#45;&gt;Node4</title>
<path fill="none" stroke="midnightblue" d="M733.389,-537.561C748.989,-545.316 767.549,-555.456 783,-566.5 818.318,-591.746 854.109,-627.167 875.806,-649.977"/>
<polygon fill="midnightblue" stroke="midnightblue" points="873.466,-652.599 882.869,-657.482 878.564,-647.801 873.466,-652.599"/>
</g>
<!-- Node27 -->
<g id="node27" class="node"><title>Node27</title>
<g id="a_node27"><a xlink:href="class_word_quizzle_1_1_word_quizzle_client_service.html#a584e77014fba5e13b26af26c6e240bd6" target="_top" xlink:title=" ">
<polygon fill="white" stroke="black" points="621,-451.5 621,-481.5 778,-481.5 778,-451.5 621,-451.5"/>
<text text-anchor="start" x="629" y="-469.5" font-family="Helvetica,sans-Serif" font-size="10.00">WordQuizzle.WordQuizzleClient</text>
<text text-anchor="middle" x="699.5" y="-458.5" font-family="Helvetica,sans-Serif" font-size="10.00">Service.logout</text>
</a>
</g>
</g>
<!-- Node26&#45;&gt;Node27 -->
<g id="edge31" class="edge"><title>Node26&#45;&gt;Node27</title>
<path fill="none" stroke="midnightblue" d="M358.252,-461.78C432.888,-462.815 537.29,-464.264 610.707,-465.282"/>
<polygon fill="midnightblue" stroke="midnightblue" points="610.807,-468.784 620.855,-465.423 610.904,-461.784 610.807,-468.784"/>
</g>
<!-- Node27&#45;&gt;Node4 -->
<g id="edge32" class="edge"><title>Node27&#45;&gt;Node4</title>
<path fill="none" stroke="midnightblue" d="M755.513,-481.549C765.272,-485.734 774.893,-490.979 783,-497.5 834.454,-538.891 870.195,-610.11 886.5,-647.661"/>
<polygon fill="midnightblue" stroke="midnightblue" points="883.461,-649.461 890.58,-657.307 889.908,-646.734 883.461,-649.461"/>
</g>
<!-- Node29 -->
<g id="node29" class="node"><title>Node29</title>
<g id="a_node29"><a xlink:href="class_word_quizzle_1_1_word_quizzle_client_service.html#a972476e61ab3c927ba99af27bc7f58bb" target="_top" xlink:title=" ">
<polygon fill="white" stroke="black" points="621,-829.5 621,-859.5 778,-859.5 778,-829.5 621,-829.5"/>
<text text-anchor="start" x="629" y="-847.5" font-family="Helvetica,sans-Serif" font-size="10.00">WordQuizzle.WordQuizzleClient</text>
<text text-anchor="middle" x="699.5" y="-836.5" font-family="Helvetica,sans-Serif" font-size="10.00">Service.mostra_classifica</text>
</a>
</g>
</g>
<!-- Node28&#45;&gt;Node29 -->
<g id="edge34" class="edge"><title>Node28&#45;&gt;Node29</title>
<path fill="none" stroke="midnightblue" d="M360.113,-840.588C434.635,-841.45 537.952,-842.644 610.764,-843.486"/>
<polygon fill="midnightblue" stroke="midnightblue" points="610.79,-846.986 620.829,-843.602 610.871,-839.987 610.79,-846.986"/>
</g>
<!-- Node29&#45;&gt;Node4 -->
<g id="edge35" class="edge"><title>Node29&#45;&gt;Node4</title>
<path fill="none" stroke="midnightblue" d="M766.647,-829.455C772.404,-826.915 777.952,-823.952 783,-820.5 830.436,-788.059 866.652,-729.464 884.405,-696.573"/>
<polygon fill="midnightblue" stroke="midnightblue" points="887.55,-698.112 889.116,-687.633 881.357,-694.849 887.55,-698.112"/>
</g>
<!-- Node31 -->
<g id="node31" class="node"><title>Node31</title>
<g id="a_node31"><a xlink:href="class_word_quizzle_1_1_word_quizzle_client_service.html#a50a062f91fbb470547bde8235f2930d1" target="_top" xlink:title=" ">
<polygon fill="white" stroke="black" points="621,-780.5 621,-810.5 778,-810.5 778,-780.5 621,-780.5"/>
<text text-anchor="start" x="629" y="-798.5" font-family="Helvetica,sans-Serif" font-size="10.00">WordQuizzle.WordQuizzleClient</text>
<text text-anchor="middle" x="699.5" y="-787.5" font-family="Helvetica,sans-Serif" font-size="10.00">Service.mostra_punteggio</text>
</a>
</g>
</g>
<!-- Node30&#45;&gt;Node31 -->
<g id="edge37" class="edge"><title>Node30&#45;&gt;Node31</title>
<path fill="none" stroke="midnightblue" d="M360.113,-790.023C434.635,-791.229 537.952,-792.902 610.764,-794.08"/>
<polygon fill="midnightblue" stroke="midnightblue" points="610.774,-797.581 620.829,-794.243 610.887,-790.581 610.774,-797.581"/>
</g>
<!-- Node31&#45;&gt;Node4 -->
<g id="edge38" class="edge"><title>Node31&#45;&gt;Node4</title>
<path fill="none" stroke="midnightblue" d="M763.377,-780.353C770.174,-777.799 776.848,-774.862 783,-771.5 819.944,-751.309 855.315,-717.352 876.477,-694.934"/>
<polygon fill="midnightblue" stroke="midnightblue" points="879.114,-697.239 883.349,-687.527 873.982,-692.478 879.114,-697.239"/>
</g>
<!-- Node33 -->
<g id="node33" class="node"><title>Node33</title>
<g id="a_node33"><a xlink:href="class_word_quizzle_1_1_word_quizzle_client_service.html#a613b0b49460f9d115fc6ba4dae066d3a" target="_top" xlink:title=" ">
<polygon fill="white" stroke="black" points="411,-0.5 411,-30.5 568,-30.5 568,-0.5 411,-0.5"/>
<text text-anchor="start" x="419" y="-18.5" font-family="Helvetica,sans-Serif" font-size="10.00">WordQuizzle.WordQuizzleClient</text>
<text text-anchor="middle" x="489.5" y="-7.5" font-family="Helvetica,sans-Serif" font-size="10.00">Service.registra_utente</text>
</a>
</g>
</g>
<!-- Node32&#45;&gt;Node33 -->
<g id="edge40" class="edge"><title>Node32&#45;&gt;Node33</title>
<path fill="none" stroke="midnightblue" d="M358.749,-36.4934C372.662,-34.2423 386.972,-31.927 400.776,-29.6936"/>
<polygon fill="midnightblue" stroke="midnightblue" points="401.412,-33.1362 410.725,-28.0838 400.294,-26.2261 401.412,-33.1362"/>
</g>
<!-- Node34 -->
<g id="node34" class="node"><title>Node34</title>
<g id="a_node34"><a xlink:href="interface_word_quizzle_1_1_user_registry.html#ac029b14906c71f2843e0da7f53dc3fb6" target="_top" xlink:title=" ">
<polygon fill="white" stroke="black" points="616,-0.5 616,-30.5 783,-30.5 783,-0.5 616,-0.5"/>
<text text-anchor="start" x="624" y="-18.5" font-family="Helvetica,sans-Serif" font-size="10.00">WordQuizzle.UserRegistry.registra</text>
<text text-anchor="middle" x="699.5" y="-7.5" font-family="Helvetica,sans-Serif" font-size="10.00">_utente</text>
</a>
</g>
</g>
<!-- Node33&#45;&gt;Node34 -->
<g id="edge41" class="edge"><title>Node33&#45;&gt;Node34</title>
<path fill="none" stroke="midnightblue" d="M568.247,-15.5C580.539,-15.5 593.354,-15.5 605.943,-15.5"/>
<polygon fill="midnightblue" stroke="midnightblue" points="605.976,-19.0001 615.976,-15.5 605.976,-12.0001 605.976,-19.0001"/>
</g>
<!-- Node36 -->
<g id="node36" class="node"><title>Node36</title>
<g id="a_node36"><a xlink:href="class_word_quizzle_1_1_word_quizzle_client_service.html#a7eef869e03ee5f68139882d98de88c1f" target="_top" xlink:title=" ">
<polygon fill="white" stroke="black" points="621,-731.5 621,-761.5 778,-761.5 778,-731.5 621,-731.5"/>
<text text-anchor="start" x="629" y="-749.5" font-family="Helvetica,sans-Serif" font-size="10.00">WordQuizzle.WordQuizzleClient</text>
<text text-anchor="middle" x="699.5" y="-738.5" font-family="Helvetica,sans-Serif" font-size="10.00">Service.sfida</text>
</a>
</g>
</g>
<!-- Node35&#45;&gt;Node36 -->
<g id="edge43" class="edge"><title>Node35&#45;&gt;Node36</title>
<path fill="none" stroke="midnightblue" d="M355.09,-741.736C429.839,-742.773 536.026,-744.246 610.475,-745.279"/>
<polygon fill="midnightblue" stroke="midnightblue" points="610.715,-748.782 620.763,-745.422 610.812,-741.783 610.715,-748.782"/>
</g>
<!-- Node36&#45;&gt;Node4 -->
<g id="edge44" class="edge"><title>Node36&#45;&gt;Node4</title>
<path fill="none" stroke="midnightblue" d="M755.854,-731.49C764.989,-728.701 774.309,-725.663 783,-722.5 807.676,-713.52 834.599,-701.749 856.028,-691.884"/>
<polygon fill="midnightblue" stroke="midnightblue" points="857.561,-695.031 865.156,-687.645 854.612,-688.683 857.561,-695.031"/>
</g>
</g>
</svg>
        <g id="navigator" transform="translate(0 0)" fill="#404254">
                <rect fill="#f2f5e9" fill-opacity="0.5" stroke="#606060" stroke-width=".5" x="0" y="0" width="60" height="60"/>
                <use id="zoomplus" xlink:href="#zoomPlus" x="17" y="9" onmousedown="handleZoom(evt,'in')"/>
                <use id="zoomminus" xlink:href="#zoomMin" x="42" y="9" onmousedown="handleZoom(evt,'out')"/>
                <use id="reset" xlink:href="#resetDef" x="30" y="36" onmousedown="handleReset()"/>
                <g id="arrowUp" xlink:href="#dirArrow" transform="translate(30 24)" onmousedown="handlePan(0,-1)">
                  <use xlink:href="#rim" fill="#404040">
                        <set attributeName="fill" to="#808080" begin="arrowUp.mouseover" end="arrowUp.mouseout"/>
                  </use>
                  <path fill="none" stroke="white" stroke-width="1.5" d="M0,-3.0v7 M-2.5,-0.5L0,-3.0L2.5,-0.5"/>
                </g>
                <g id="arrowRight" xlink:href="#dirArrow" transform="rotate(90) translate(36 -43)" onmousedown="handlePan(1,0)">
                  <use xlink:href="#rim" fill="#404040">
                        <set attributeName="fill" to="#808080" begin="arrowRight.mouseover" end="arrowRight.mouseout"/>
                  </use>
                  <path fill="none" stroke="white" stroke-width="1.5" d="M0,-3.0v7 M-2.5,-0.5L0,-3.0L2.5,-0.5"/>
                </g>
                <g id="arrowDown" xlink:href="#dirArrow" transform="rotate(180) translate(-30 -48)" onmousedown="handlePan(0,1)">
                  <use xlink:href="#rim" fill="#404040">
                        <set attributeName="fill" to="#808080" begin="arrowDown.mouseover" end="arrowDown.mouseout"/>
                  </use>
                  <path fill="none" stroke="white" stroke-width="1.5" d="M0,-3.0v7 M-2.5,-0.5L0,-3.0L2.5,-0.5"/>
                </g>
                <g id="arrowLeft" xlink:href="#dirArrow" transform="rotate(270) translate(-36 17)" onmousedown="handlePan(-1,0)">
                  <use xlink:href="#rim" fill="#404040">
                        <set attributeName="fill" to="#808080" begin="arrowLeft.mouseover" end="arrowLeft.mouseout"/>
                  </use>
                  <path fill="none" stroke="white" stroke-width="1.5" d="M0,-3.0v7 M-2.5,-0.5L0,-3.0L2.5,-0.5"/>
                </g>
        </g>
        <svg viewBox="0 0 15 15" width="100%" height="30px" preserveAspectRatio="xMaxYMin meet">
         <g id="arrow_out" transform="scale(0.3 0.3)">
          <a xlink:href="class_word_quizzle_1_1_w_q_cli_a318ef86f91a825da4ff4684bd3332a6b_cgraph_org.svg" target="_base">
           <rect id="button" ry="5" rx="5" y="6" x="6" height="38" width="38"
                fill="#f2f5e9" fill-opacity="0.5" stroke="#606060" stroke-width="1.0"/>
           <path id="arrow"
             d="M 11.500037,31.436501 C 11.940474,20.09759 22.043105,11.32322 32.158766,21.979434 L 37.068811,17.246167 C 37.068811,17.246167 37.088388,32 37.088388,32 L 22.160133,31.978069 C 22.160133,31.978069 26.997745,27.140456 26.997745,27.140456 C 18.528582,18.264221 13.291696,25.230495 11.500037,31.436501 z"
             style="fill:#404040;"/>
          </a>
         </g>
        </svg>
</svg>
