<?xml version="1.0" encoding="UTF-8" standalone="no"?>
<!DOCTYPE svg PUBLIC "-//W3C//DTD SVG 1.1//EN"
 "http://www.w3.org/Graphics/SVG/1.1/DTD/svg11.dtd">
<!-- Generated by graphviz version 2.38.0 (20140413.2041)
 -->
<!-- Title: Challenge.result Pages: 1 -->
<svg width="285pt" height="66pt"
 viewBox="0.00 0.00 285.00 66.00" xmlns="http://www.w3.org/2000/svg" xmlns:xlink="http://www.w3.org/1999/xlink">
<g id="graph0" class="graph" transform="scale(1 1) rotate(0) translate(4 62)">
<title>Challenge.result</title>
<polygon fill="white" stroke="none" points="-4,4 -4,-62 281,-62 281,4 -4,4"/>
<!-- Node1 -->
<g id="node1" class="node"><title>Node1</title>
<g id="a_node1"><a xlink:title="Genera la stringa contenente le statistiche di un utente.">
<polygon fill="#bfbfbf" stroke="black" points="0,-19.5 0,-38.5 86,-38.5 86,-19.5 0,-19.5"/>
<text text-anchor="middle" x="43" y="-26.5" font-family="Helvetica,sans-Serif" font-size="10.00">Challenge.result</text>
</a>
</g>
</g>
<!-- Node2 -->
<g id="node2" class="node"><title>Node2</title>
<g id="a_node2"><a xlink:href="class_word_quizzle_server_service.html#a445af71c2bed6349e5239893b2e0ca8c" target="_top" xlink:title="Restituisce il numero di parole per sfida.">
<polygon fill="white" stroke="black" points="122,-38.5 122,-57.5 277,-57.5 277,-38.5 122,-38.5"/>
<text text-anchor="middle" x="199.5" y="-45.5" font-family="Helvetica,sans-Serif" font-size="10.00">WordQuizzleServerService.getK</text>
</a>
</g>
</g>
<!-- Node1&#45;&gt;Node2 -->
<g id="edge1" class="edge"><title>Node1&#45;&gt;Node2</title>
<path fill="none" stroke="midnightblue" d="M86.2178,-34.1918C94.2672,-35.1817 102.96,-36.2508 111.822,-37.3405"/>
<polygon fill="midnightblue" stroke="midnightblue" points="111.52,-40.8297 121.872,-38.5765 112.374,-33.882 111.52,-40.8297"/>
</g>
<!-- Node3 -->
<g id="node3" class="node"><title>Node3</title>
<g id="a_node3"><a xlink:href="class_word_quizzle_server_service.html#a2630ba2c894c53eba3344fe02c4b818f" target="_top" xlink:title="Restituisce il numero di punti aggiuntivi dati al vincitore di una sfida.">
<polygon fill="white" stroke="black" points="123,-0.5 123,-19.5 276,-19.5 276,-0.5 123,-0.5"/>
<text text-anchor="middle" x="199.5" y="-7.5" font-family="Helvetica,sans-Serif" font-size="10.00">WordQuizzleServerService.getZ</text>
</a>
</g>
</g>
<!-- Node1&#45;&gt;Node3 -->
<g id="edge2" class="edge"><title>Node1&#45;&gt;Node3</title>
<path fill="none" stroke="midnightblue" d="M86.2178,-23.8082C94.5506,-22.7834 103.573,-21.6738 112.758,-20.5443"/>
<polygon fill="midnightblue" stroke="midnightblue" points="113.265,-24.0084 122.763,-19.3139 112.411,-17.0607 113.265,-24.0084"/>
</g>
</g>
</svg>
