<?xml version="1.0" encoding="UTF-8" standalone="no"?>
<!DOCTYPE svg PUBLIC "-//W3C//DTD SVG 1.1//EN"
 "http://www.w3.org/Graphics/SVG/1.1/DTD/svg11.dtd">
<!-- Generated by graphviz version 2.38.0 (20140413.2041)
 -->
<!-- Title: WordTranslator.main Pages: 1 -->
<svg width="306pt" height="104pt"
 viewBox="0.00 0.00 306.00 104.00" xmlns="http://www.w3.org/2000/svg" xmlns:xlink="http://www.w3.org/1999/xlink">
<g id="graph0" class="graph" transform="scale(1 1) rotate(0) translate(4 100)">
<title>WordTranslator.main</title>
<polygon fill="white" stroke="none" points="-4,4 -4,-100 302,-100 302,4 -4,4"/>
<!-- Node1 -->
<g id="node1" class="node"><title>Node1</title>
<g id="a_node1"><a xlink:title="Traduce una lista di parole dall&#39;italiano all&#39;inglese.">
<polygon fill="#bfbfbf" stroke="black" points="0,-38.5 0,-57.5 107,-57.5 107,-38.5 0,-38.5"/>
<text text-anchor="middle" x="53.5" y="-45.5" font-family="Helvetica,sans-Serif" font-size="10.00">WordTranslator.main</text>
</a>
</g>
</g>
<!-- Node2 -->
<g id="node2" class="node"><title>Node2</title>
<g id="a_node2"><a xlink:href="class_word_quizzle_server_service.html#a445af71c2bed6349e5239893b2e0ca8c" target="_top" xlink:title="Restituisce il numero di parole per sfida.">
<polygon fill="white" stroke="black" points="143,-76.5 143,-95.5 298,-95.5 298,-76.5 143,-76.5"/>
<text text-anchor="middle" x="220.5" y="-83.5" font-family="Helvetica,sans-Serif" font-size="10.00">WordQuizzleServerService.getK</text>
</a>
</g>
</g>
<!-- Node1&#45;&gt;Node2 -->
<g id="edge1" class="edge"><title>Node1&#45;&gt;Node2</title>
<path fill="none" stroke="midnightblue" d="M96.1365,-57.589C118.008,-62.6261 145.006,-68.8438 168.164,-74.1771"/>
<polygon fill="midnightblue" stroke="midnightblue" points="167.633,-77.6463 178.163,-76.4799 169.204,-70.8249 167.633,-77.6463"/>
</g>
<!-- Node3 -->
<g id="node3" class="node"><title>Node3</title>
<g id="a_node3"><a xlink:href="interface_dictionary.html#a5ccfb9bdbd47081fd3dd52a010591649" target="_top" xlink:title="Restituisce una lista di k parole a caso dal dizionario senza ripetizioni.">
<polygon fill="white" stroke="black" points="168,-38.5 168,-57.5 273,-57.5 273,-38.5 168,-38.5"/>
<text text-anchor="middle" x="220.5" y="-45.5" font-family="Helvetica,sans-Serif" font-size="10.00">Dictionary.getWords</text>
</a>
</g>
</g>
<!-- Node1&#45;&gt;Node3 -->
<g id="edge2" class="edge"><title>Node1&#45;&gt;Node3</title>
<path fill="none" stroke="midnightblue" d="M107.161,-48C123.25,-48 141.089,-48 157.726,-48"/>
<polygon fill="midnightblue" stroke="midnightblue" points="157.903,-51.5001 167.903,-48 157.903,-44.5001 157.903,-51.5001"/>
</g>
<!-- Node4 -->
<g id="node4" class="node"><title>Node4</title>
<g id="a_node4"><a xlink:href="class_translator.html#ad52c8ccdf35d16a095786e5e052b333a" target="_top" xlink:title="Traduce una parola dall&#39;italiano all&#39;inglese.">
<polygon fill="white" stroke="black" points="170.5,-0.5 170.5,-19.5 270.5,-19.5 270.5,-0.5 170.5,-0.5"/>
<text text-anchor="middle" x="220.5" y="-7.5" font-family="Helvetica,sans-Serif" font-size="10.00">Translator.translate</text>
</a>
</g>
</g>
<!-- Node1&#45;&gt;Node4 -->
<g id="edge3" class="edge"><title>Node1&#45;&gt;Node4</title>
<path fill="none" stroke="midnightblue" d="M96.1365,-38.411C118.008,-33.3739 145.006,-27.1562 168.164,-21.8229"/>
<polygon fill="midnightblue" stroke="midnightblue" points="169.204,-25.1751 178.163,-19.5201 167.633,-18.3537 169.204,-25.1751"/>
</g>
</g>
</svg>
