<?xml version="1.0" encoding="UTF-8" standalone="no"?>
<!DOCTYPE svg PUBLIC "-//W3C//DTD SVG 1.1//EN"
 "http://www.w3.org/Graphics/SVG/1.1/DTD/svg11.dtd">
<!-- Generated by graphviz version 2.38.0 (20140413.2041)
 -->
<!-- Title: WordQuizzle.Player.getSession Pages: 1 -->
<!--zoomable 154 -->
<svg id="main" version="1.1" xmlns="http://www.w3.org/2000/svg" xmlns:xlink="http://www.w3.org/1999/xlink" xml:space="preserve" onload="init(evt)">
<style type="text/css"><![CDATA[
.edge:hover path { stroke: red; }
.edge:hover polygon { stroke: red; fill: red; }
]]></style>
<script type="text/javascript"><![CDATA[
var edges = document.getElementsByTagName('g');
if (edges && edges.length) {
  for (var i=0;i<edges.length;i++) {
    if (edges[i].id.substr(0,4)=='edge') {
      edges[i].setAttribute('class','edge');
    }
  }
}
]]></script>
        <defs>
                <circle id="rim" cx="0" cy="0" r="7"/>
                <circle id="rim2" cx="0" cy="0" r="3.5"/>
                <g id="zoomPlus">
                        <use xlink:href="#rim" fill="#404040">
                                <set attributeName="fill" to="#808080" begin="zoomplus.mouseover" end="zoomplus.mouseout"/>
                        </use>
                        <path d="M-4,0h8M0,-4v8" fill="none" stroke="white" stroke-width="1.5" pointer-events="none"/>
                </g>
                <g id="zoomMin">
                        <use xlink:href="#rim" fill="#404040">
                                <set attributeName="fill" to="#808080" begin="zoomminus.mouseover" end="zoomminus.mouseout"/>
                        </use>
                        <path d="M-4,0h8" fill="none" stroke="white" stroke-width="1.5" pointer-events="none"/>
                </g>
                <g id="dirArrow">
                        <path fill="none" stroke="white" stroke-width="1.5" d="M0,-3.0v7 M-2.5,-0.5L0,-3.0L2.5,-0.5"/>
                </g>
               <g id="resetDef">
                       <use xlink:href="#rim2" fill="#404040">
                               <set attributeName="fill" to="#808080" begin="reset.mouseover" end="reset.mouseout"/>
                       </use>
               </g>
        </defs>

<script type="text/javascript">
var viewWidth = 1113;
var viewHeight = 154;
var sectionId = 'dynsection-5';
</script>
<script xlink:href="svgpan.js"/>
<svg id="graph" class="graph">
<g id="viewport">
<title>WordQuizzle.Player.getSession</title>
<polygon fill="white" stroke="none" points="-4,4 -4,-149.5 1109,-149.5 1109,4 -4,4"/>
<!-- Node1 -->
<g id="node1" class="node"><title>Node1</title>
<g id="a_node1"><a xlink:title=" ">
<polygon fill="#bfbfbf" stroke="black" points="950,-69 950,-88 1105,-88 1105,-69 950,-69"/>
<text text-anchor="middle" x="1027.5" y="-76" font-family="Helvetica,sans-Serif" font-size="10.00">WordQuizzle.Player.getSession</text>
</a>
</g>
</g>
<!-- Node2 -->
<g id="node2" class="node"><title>Node2</title>
<g id="a_node2"><a xlink:href="class_word_quizzle_1_1_challenge.html#a7337a23fcf011c4ea66eb6801d283d49" target="_top" xlink:title=" ">
<polygon fill="white" stroke="black" points="769,-88 769,-107 914,-107 914,-88 769,-88"/>
<text text-anchor="middle" x="841.5" y="-95" font-family="Helvetica,sans-Serif" font-size="10.00">WordQuizzle.Challenge.close</text>
</a>
</g>
</g>
<!-- Node1&#45;&gt;Node2 -->
<g id="edge1" class="edge"><title>Node1&#45;&gt;Node2</title>
<path fill="none" stroke="midnightblue" d="M939.751,-87.4577C931.152,-88.3457 922.492,-89.24 914.071,-90.1095"/>
<polygon fill="midnightblue" stroke="midnightblue" points="940.212,-90.9289 949.8,-86.4201 939.493,-83.9659 940.212,-90.9289"/>
</g>
<!-- Node3 -->
<g id="node3" class="node"><title>Node3</title>
<g id="a_node3"><a xlink:href="class_word_quizzle_1_1_challenge.html#a872c3c6f72016561647d84843cbbdc48" target="_top" xlink:title=" ">
<polygon fill="white" stroke="black" points="585,-126 585,-145 722,-145 722,-126 585,-126"/>
<text text-anchor="middle" x="653.5" y="-133" font-family="Helvetica,sans-Serif" font-size="10.00">WordQuizzle.Challenge.end</text>
</a>
</g>
</g>
<!-- Node1&#45;&gt;Node3 -->
<g id="edge5" class="edge"><title>Node1&#45;&gt;Node3</title>
<path fill="none" stroke="midnightblue" d="M994.126,-91.8697C971.963,-100.413 941.686,-110.904 914,-116.5 849.687,-129.498 774.815,-133.863 722.07,-135.207"/>
<polygon fill="midnightblue" stroke="midnightblue" points="995.673,-95.0221 1003.7,-88.1059 993.112,-88.5074 995.673,-95.0221"/>
</g>
<!-- Node4 -->
<g id="node4" class="node"><title>Node4</title>
<g id="a_node4"><a xlink:href="class_word_quizzle_1_1_challenge.html#aa7b93cfc7d1927c0b1c060cc387321b9" target="_top" xlink:title=" ">
<polygon fill="white" stroke="black" points="20.5,-69 20.5,-88 155.5,-88 155.5,-69 20.5,-69"/>
<text text-anchor="middle" x="88" y="-76" font-family="Helvetica,sans-Serif" font-size="10.00">WordQuizzle.Challenge.run</text>
</a>
</g>
</g>
<!-- Node1&#45;&gt;Node4 -->
<g id="edge6" class="edge"><title>Node1&#45;&gt;Node4</title>
<path fill="none" stroke="midnightblue" d="M939.586,-71.5482C864.236,-66.1228 752.239,-59.5 654.5,-59.5 654.5,-59.5 654.5,-59.5 461,-59.5 354.137,-59.5 230.231,-67.4169 155.812,-73.0299"/>
<polygon fill="midnightblue" stroke="midnightblue" points="939.742,-75.0687 949.97,-72.305 940.25,-68.0873 939.742,-75.0687"/>
</g>
<!-- Node5 -->
<g id="node5" class="node"><title>Node5</title>
<g id="a_node5"><a xlink:href="class_word_quizzle_1_1_challenge.html#ad9edc220ce2d24274149ab8c6a564a0a" target="_top" xlink:title=" ">
<polygon fill="white" stroke="black" points="774,-0.5 774,-30.5 909,-30.5 909,-0.5 774,-0.5"/>
<text text-anchor="start" x="782" y="-18.5" font-family="Helvetica,sans-Serif" font-size="10.00">WordQuizzle.Challenge.set</text>
<text text-anchor="middle" x="841.5" y="-7.5" font-family="Helvetica,sans-Serif" font-size="10.00">Player2</text>
</a>
</g>
</g>
<!-- Node1&#45;&gt;Node5 -->
<g id="edge7" class="edge"><title>Node1&#45;&gt;Node5</title>
<path fill="none" stroke="midnightblue" d="M988.97,-65.6501C959.277,-55.4836 917.755,-41.2666 886.499,-30.565"/>
<polygon fill="midnightblue" stroke="midnightblue" points="987.96,-69.0036 998.554,-68.9317 990.227,-62.381 987.96,-69.0036"/>
</g>
<!-- Node2&#45;&gt;Node3 -->
<g id="edge2" class="edge"><title>Node2&#45;&gt;Node3</title>
<path fill="none" stroke="midnightblue" d="M783.675,-109.11C757.221,-114.514 726.142,-120.864 701.098,-125.98"/>
<polygon fill="midnightblue" stroke="midnightblue" points="784.467,-112.52 793.564,-107.089 783.066,-105.662 784.467,-112.52"/>
</g>
<!-- Node2&#45;&gt;Node4 -->
<g id="edge4" class="edge"><title>Node2&#45;&gt;Node4</title>
<path fill="none" stroke="midnightblue" d="M758.729,-95.4326C609.002,-91.6471 293.549,-83.6716 155.764,-80.188"/>
<polygon fill="midnightblue" stroke="midnightblue" points="758.698,-98.9328 768.783,-95.6868 758.875,-91.9351 758.698,-98.9328"/>
</g>
<!-- Node3&#45;&gt;Node4 -->
<g id="edge3" class="edge"><title>Node3&#45;&gt;Node4</title>
<path fill="none" stroke="midnightblue" d="M574.657,-136.12C486.227,-135.702 337.86,-131.588 212,-111.5 179.25,-106.273 142.651,-95.8416 117.956,-88.0994"/>
<polygon fill="midnightblue" stroke="midnightblue" points="574.863,-139.621 584.874,-136.153 574.886,-132.621 574.863,-139.621"/>
</g>
<!-- Node6 -->
<g id="node6" class="node"><title>Node6</title>
<g id="a_node6"><a xlink:href="class_word_quizzle_1_1_word_quizzle_server_service.html#aebc8c566d10a0d24752a33f146f03a2a" target="_top" xlink:title=" ">
<polygon fill="white" stroke="black" points="574,-0.5 574,-30.5 733,-30.5 733,-0.5 574,-0.5"/>
<text text-anchor="start" x="582" y="-18.5" font-family="Helvetica,sans-Serif" font-size="10.00">WordQuizzle.WordQuizzleServer</text>
<text text-anchor="middle" x="653.5" y="-7.5" font-family="Helvetica,sans-Serif" font-size="10.00">Service.accettaSfida</text>
</a>
</g>
</g>
<!-- Node5&#45;&gt;Node6 -->
<g id="edge8" class="edge"><title>Node5&#45;&gt;Node6</title>
<path fill="none" stroke="midnightblue" d="M763.819,-15.5C753.655,-15.5 743.223,-15.5 733.028,-15.5"/>
<polygon fill="midnightblue" stroke="midnightblue" points="763.875,-19.0001 773.875,-15.5 763.875,-12.0001 763.875,-19.0001"/>
</g>
<!-- Node7 -->
<g id="node7" class="node"><title>Node7</title>
<g id="a_node7"><a xlink:href="class_word_quizzle_1_1_session.html#a21992c338367b1a3c2e57fdb7cae3018" target="_top" xlink:title=" ">
<polygon fill="white" stroke="black" points="386,-9 386,-28 538,-28 538,-9 386,-9"/>
<text text-anchor="middle" x="462" y="-16" font-family="Helvetica,sans-Serif" font-size="10.00">WordQuizzle.Session.compute</text>
</a>
</g>
</g>
<!-- Node6&#45;&gt;Node7 -->
<g id="edge9" class="edge"><title>Node6&#45;&gt;Node7</title>
<path fill="none" stroke="midnightblue" d="M563.764,-16.9048C555.191,-17.0405 546.552,-17.1773 538.129,-17.3106"/>
<polygon fill="midnightblue" stroke="midnightblue" points="563.838,-20.4042 573.781,-16.7462 563.727,-13.405 563.838,-20.4042"/>
</g>
<!-- Node8 -->
<g id="node8" class="node"><title>Node8</title>
<g id="a_node8"><a xlink:href="class_word_quizzle_1_1_session.html#a6793f02ea7cab6fffe0361893cf40178" target="_top" xlink:title=" ">
<polygon fill="white" stroke="black" points="212,-11 212,-30 350,-30 350,-11 212,-11"/>
<text text-anchor="middle" x="281" y="-18" font-family="Helvetica,sans-Serif" font-size="10.00">WordQuizzle.Session.parse</text>
</a>
</g>
</g>
<!-- Node7&#45;&gt;Node8 -->
<g id="edge10" class="edge"><title>Node7&#45;&gt;Node8</title>
<path fill="none" stroke="midnightblue" d="M375.793,-19.452C367.175,-19.5483 358.505,-19.6452 350.101,-19.7391"/>
<polygon fill="midnightblue" stroke="midnightblue" points="375.906,-22.9511 385.866,-19.3395 375.827,-15.9515 375.906,-22.9511"/>
</g>
<!-- Node8&#45;&gt;Node4 -->
<g id="edge12" class="edge"><title>Node8&#45;&gt;Node4</title>
<path fill="none" stroke="midnightblue" d="M238.883,-32.9856C203.421,-43.7543 152.952,-59.08 120.587,-68.9083"/>
<polygon fill="midnightblue" stroke="midnightblue" points="239.909,-36.3322 248.46,-30.0775 237.875,-29.6342 239.909,-36.3322"/>
</g>
<!-- Node9 -->
<g id="node9" class="node"><title>Node9</title>
<g id="a_node9"><a xlink:href="class_word_quizzle_1_1_word_quizzle_server.html#a4aa19bad373d06a790babba1e5b67644" target="_top" xlink:title=" ">
<polygon fill="white" stroke="black" points="0,-11 0,-30 176,-30 176,-11 0,-11"/>
<text text-anchor="middle" x="88" y="-18" font-family="Helvetica,sans-Serif" font-size="10.00">WordQuizzle.WordQuizzleServer.run</text>
</a>
</g>
</g>
<!-- Node8&#45;&gt;Node9 -->
<g id="edge11" class="edge"><title>Node8&#45;&gt;Node9</title>
<path fill="none" stroke="midnightblue" d="M201.692,-20.5C193.27,-20.5 184.665,-20.5 176.149,-20.5"/>
<polygon fill="midnightblue" stroke="midnightblue" points="201.854,-24.0001 211.854,-20.5 201.853,-17.0001 201.854,-24.0001"/>
</g>
</g>
</svg>
        <g id="navigator" transform="translate(0 0)" fill="#404254">
                <rect fill="#f2f5e9" fill-opacity="0.5" stroke="#606060" stroke-width=".5" x="0" y="0" width="60" height="60"/>
                <use id="zoomplus" xlink:href="#zoomPlus" x="17" y="9" onmousedown="handleZoom(evt,'in')"/>
                <use id="zoomminus" xlink:href="#zoomMin" x="42" y="9" onmousedown="handleZoom(evt,'out')"/>
                <use id="reset" xlink:href="#resetDef" x="30" y="36" onmousedown="handleReset()"/>
                <g id="arrowUp" xlink:href="#dirArrow" transform="translate(30 24)" onmousedown="handlePan(0,-1)">
                  <use xlink:href="#rim" fill="#404040">
                        <set attributeName="fill" to="#808080" begin="arrowUp.mouseover" end="arrowUp.mouseout"/>
                  </use>
                  <path fill="none" stroke="white" stroke-width="1.5" d="M0,-3.0v7 M-2.5,-0.5L0,-3.0L2.5,-0.5"/>
                </g>
                <g id="arrowRight" xlink:href="#dirArrow" transform="rotate(90) translate(36 -43)" onmousedown="handlePan(1,0)">
                  <use xlink:href="#rim" fill="#404040">
                        <set attributeName="fill" to="#808080" begin="arrowRight.mouseover" end="arrowRight.mouseout"/>
                  </use>
                  <path fill="none" stroke="white" stroke-width="1.5" d="M0,-3.0v7 M-2.5,-0.5L0,-3.0L2.5,-0.5"/>
                </g>
                <g id="arrowDown" xlink:href="#dirArrow" transform="rotate(180) translate(-30 -48)" onmousedown="handlePan(0,1)">
                  <use xlink:href="#rim" fill="#404040">
                        <set attributeName="fill" to="#808080" begin="arrowDown.mouseover" end="arrowDown.mouseout"/>
                  </use>
                  <path fill="none" stroke="white" stroke-width="1.5" d="M0,-3.0v7 M-2.5,-0.5L0,-3.0L2.5,-0.5"/>
                </g>
                <g id="arrowLeft" xlink:href="#dirArrow" transform="rotate(270) translate(-36 17)" onmousedown="handlePan(-1,0)">
                  <use xlink:href="#rim" fill="#404040">
                        <set attributeName="fill" to="#808080" begin="arrowLeft.mouseover" end="arrowLeft.mouseout"/>
                  </use>
                  <path fill="none" stroke="white" stroke-width="1.5" d="M0,-3.0v7 M-2.5,-0.5L0,-3.0L2.5,-0.5"/>
                </g>
        </g>
        <svg viewBox="0 0 15 15" width="100%" height="30px" preserveAspectRatio="xMaxYMin meet">
         <g id="arrow_out" transform="scale(0.3 0.3)">
          <a xlink:href="class_word_quizzle_1_1_player_a1f8fc44dbae0c22017e5d4e435fa5bc0_icgraph_org.svg" target="_base">
           <rect id="button" ry="5" rx="5" y="6" x="6" height="38" width="38"
                fill="#f2f5e9" fill-opacity="0.5" stroke="#606060" stroke-width="1.0"/>
           <path id="arrow"
             d="M 11.500037,31.436501 C 11.940474,20.09759 22.043105,11.32322 32.158766,21.979434 L 37.068811,17.246167 C 37.068811,17.246167 37.088388,32 37.088388,32 L 22.160133,31.978069 C 22.160133,31.978069 26.997745,27.140456 26.997745,27.140456 C 18.528582,18.264221 13.291696,25.230495 11.500037,31.436501 z"
             style="fill:#404040;"/>
          </a>
         </g>
        </svg>
</svg>
