<?xml version="1.0" encoding="UTF-8" standalone="no"?>
<!DOCTYPE svg PUBLIC "-//W3C//DTD SVG 1.1//EN"
 "http://www.w3.org/Graphics/SVG/1.1/DTD/svg11.dtd">
<!-- Generated by graphviz version 2.38.0 (20140413.2041)
 -->
<!-- Title: WordQuizzle.Tester.main Pages: 1 -->
<svg width="330pt" height="78pt"
 viewBox="0.00 0.00 330.00 77.50" xmlns="http://www.w3.org/2000/svg" xmlns:xlink="http://www.w3.org/1999/xlink">
<g id="graph0" class="graph" transform="scale(1 1) rotate(0) translate(4 73.5)">
<title>WordQuizzle.Tester.main</title>
<polygon fill="white" stroke="none" points="-4,4 -4,-73.5 326,-73.5 326,4 -4,4"/>
<!-- Node1 -->
<g id="node1" class="node"><title>Node1</title>
<g id="a_node1"><a xlink:title=" ">
<polygon fill="#bfbfbf" stroke="black" points="0,-22.5 0,-41.5 127,-41.5 127,-22.5 0,-22.5"/>
<text text-anchor="middle" x="63.5" y="-29.5" font-family="Helvetica,sans-Serif" font-size="10.00">WordQuizzle.Tester.main</text>
</a>
</g>
</g>
<!-- Node2 -->
<g id="node2" class="node"><title>Node2</title>
<g id="a_node2"><a xlink:href="class_word_quizzle_1_1_dictionary_txt.html#aadbe2c8d9416b2f9f57c7301abd1a9a0" target="_top" xlink:title="Restituisce una lista di k parole a caso dal dizionario.">
<polygon fill="white" stroke="black" points="168,-39 168,-69 317,-69 317,-39 168,-39"/>
<text text-anchor="start" x="176" y="-57" font-family="Helvetica,sans-Serif" font-size="10.00">WordQuizzle.DictionaryTxt.get</text>
<text text-anchor="middle" x="242.5" y="-46" font-family="Helvetica,sans-Serif" font-size="10.00">Words</text>
</a>
</g>
</g>
<!-- Node1&#45;&gt;Node2 -->
<g id="edge1" class="edge"><title>Node1&#45;&gt;Node2</title>
<path fill="none" stroke="midnightblue" d="M127.402,-39.8183C137.239,-41.041 147.538,-42.3211 157.752,-43.5907"/>
<polygon fill="midnightblue" stroke="midnightblue" points="157.562,-47.0939 167.918,-44.8542 158.426,-40.1474 157.562,-47.0939"/>
</g>
<!-- Node3 -->
<g id="node3" class="node"><title>Node3</title>
<g id="a_node3"><a xlink:href="class_word_quizzle_1_1_translator.html#a9fcad4b807785c63c72bc85f672fb635" target="_top" xlink:title="Traduce una parola dall&#39;italiano all&#39;inglese.">
<polygon fill="white" stroke="black" points="163,-0.5 163,-19.5 322,-19.5 322,-0.5 163,-0.5"/>
<text text-anchor="middle" x="242.5" y="-7.5" font-family="Helvetica,sans-Serif" font-size="10.00">WordQuizzle.Translator.translate</text>
</a>
</g>
</g>
<!-- Node1&#45;&gt;Node3 -->
<g id="edge2" class="edge"><title>Node1&#45;&gt;Node3</title>
<path fill="none" stroke="midnightblue" d="M127.402,-24.1817C136.304,-23.0752 145.585,-21.9216 154.839,-20.7714"/>
<polygon fill="midnightblue" stroke="midnightblue" points="155.359,-24.2339 164.85,-19.5271 154.495,-17.2873 155.359,-24.2339"/>
</g>
</g>
</svg>
