<?xml version="1.0" encoding="UTF-8" standalone="no"?>
<!DOCTYPE svg PUBLIC "-//W3C//DTD SVG 1.1//EN"
 "http://www.w3.org/Graphics/SVG/1.1/DTD/svg11.dtd">
<!-- Generated by graphviz version 2.38.0 (20140413.2041)
 -->
<!-- Title: WordQuizzle.WordQuizzleServerService.mostra_classifica Pages: 1 -->
<svg width="371pt" height="142pt"
 viewBox="0.00 0.00 371.00 142.00" xmlns="http://www.w3.org/2000/svg" xmlns:xlink="http://www.w3.org/1999/xlink">
<g id="graph0" class="graph" transform="scale(1 1) rotate(0) translate(4 138)">
<title>WordQuizzle.WordQuizzleServerService.mostra_classifica</title>
<polygon fill="white" stroke="none" points="-4,4 -4,-138 367,-138 367,4 -4,4"/>
<!-- Node1 -->
<g id="node1" class="node"><title>Node1</title>
<g id="a_node1"><a xlink:title="Restituisce la classifica dell&#39;utente e dei suoi amici.">
<polygon fill="#bfbfbf" stroke="black" points="0,-52 0,-82 159,-82 159,-52 0,-52"/>
<text text-anchor="start" x="8" y="-70" font-family="Helvetica,sans-Serif" font-size="10.00">WordQuizzle.WordQuizzleServer</text>
<text text-anchor="middle" x="79.5" y="-59" font-family="Helvetica,sans-Serif" font-size="10.00">Service.mostra_classifica</text>
</a>
</g>
</g>
<!-- Node2 -->
<g id="node2" class="node"><title>Node2</title>
<g id="a_node2"><a xlink:href="interface_word_quizzle_1_1_data_base.html#a256d6e7e3541d11a9ff219431066a7d5" target="_top" xlink:title="Controlla che quel nome utente sia nel database.">
<polygon fill="white" stroke="black" points="195,-114.5 195,-133.5 363,-133.5 363,-114.5 195,-114.5"/>
<text text-anchor="middle" x="279" y="-121.5" font-family="Helvetica,sans-Serif" font-size="10.00">WordQuizzle.DataBase.checkUser</text>
</a>
</g>
</g>
<!-- Node1&#45;&gt;Node2 -->
<g id="edge1" class="edge"><title>Node1&#45;&gt;Node2</title>
<path fill="none" stroke="midnightblue" d="M122.617,-82.0467C144.124,-89.457 170.795,-98.2298 195,-105 203.886,-107.486 213.374,-109.889 222.641,-112.102"/>
<polygon fill="midnightblue" stroke="midnightblue" points="222.038,-115.555 232.572,-114.423 223.631,-108.739 222.038,-115.555"/>
</g>
<!-- Node3 -->
<g id="node3" class="node"><title>Node3</title>
<g id="a_node3"><a xlink:href="class_word_quizzle_1_1_user.html#a8a3e0c4b349c4e6bf825bc84c179c36b" target="_top" xlink:title="Restituisce la lista di amici dell&#39;utente.">
<polygon fill="white" stroke="black" points="206.5,-76.5 206.5,-95.5 351.5,-95.5 351.5,-76.5 206.5,-76.5"/>
<text text-anchor="middle" x="279" y="-83.5" font-family="Helvetica,sans-Serif" font-size="10.00">WordQuizzle.User.getFriends</text>
</a>
</g>
</g>
<!-- Node1&#45;&gt;Node3 -->
<g id="edge2" class="edge"><title>Node1&#45;&gt;Node3</title>
<path fill="none" stroke="midnightblue" d="M159.125,-74.5639C171.311,-75.7362 183.923,-76.9496 196.178,-78.1285"/>
<polygon fill="midnightblue" stroke="midnightblue" points="196.08,-81.6352 206.37,-79.109 196.751,-74.6674 196.08,-81.6352"/>
</g>
<!-- Node4 -->
<g id="node4" class="node"><title>Node4</title>
<g id="a_node4"><a xlink:href="class_word_quizzle_1_1_user.html#ae4cc205520a878a71ce7c673e96f7e4f" target="_top" xlink:title="Restituisce il punteggio dell&#39;utente.">
<polygon fill="white" stroke="black" points="210,-38.5 210,-57.5 348,-57.5 348,-38.5 210,-38.5"/>
<text text-anchor="middle" x="279" y="-45.5" font-family="Helvetica,sans-Serif" font-size="10.00">WordQuizzle.User.getScore</text>
</a>
</g>
</g>
<!-- Node1&#45;&gt;Node4 -->
<g id="edge3" class="edge"><title>Node1&#45;&gt;Node4</title>
<path fill="none" stroke="midnightblue" d="M159.125,-59.4361C172.497,-58.1496 186.384,-56.8137 199.747,-55.5282"/>
<polygon fill="midnightblue" stroke="midnightblue" points="200.227,-58.9982 209.846,-54.5566 199.557,-52.0304 200.227,-58.9982"/>
</g>
<!-- Node5 -->
<g id="node5" class="node"><title>Node5</title>
<g id="a_node5"><a xlink:href="interface_word_quizzle_1_1_data_base.html#a987acacce768d19e4551b5b3a508ccf3" target="_top" xlink:title="Dato un nome utente ottiene l&#39;oggetto User corrispondente.">
<polygon fill="white" stroke="black" points="201.5,-0.5 201.5,-19.5 356.5,-19.5 356.5,-0.5 201.5,-0.5"/>
<text text-anchor="middle" x="279" y="-7.5" font-family="Helvetica,sans-Serif" font-size="10.00">WordQuizzle.DataBase.getUser</text>
</a>
</g>
</g>
<!-- Node1&#45;&gt;Node5 -->
<g id="edge4" class="edge"><title>Node1&#45;&gt;Node5</title>
<path fill="none" stroke="midnightblue" d="M122.617,-51.9533C144.124,-44.543 170.795,-35.7702 195,-29 203.886,-26.5144 213.374,-24.1113 222.641,-21.8982"/>
<polygon fill="midnightblue" stroke="midnightblue" points="223.631,-25.2612 232.572,-19.5765 222.038,-18.445 223.631,-25.2612"/>
</g>
</g>
</svg>
