<?xml version="1.0" encoding="UTF-8" standalone="no"?>
<!DOCTYPE svg PUBLIC "-//W3C//DTD SVG 1.1//EN"
 "http://www.w3.org/Graphics/SVG/1.1/DTD/svg11.dtd">
<!-- Generated by graphviz version 2.38.0 (20140413.2041)
 -->
<!-- Title: WQCli.lista_amici Pages: 1 -->
<svg width="418pt" height="47pt"
 viewBox="0.00 0.00 418.00 47.00" xmlns="http://www.w3.org/2000/svg" xmlns:xlink="http://www.w3.org/1999/xlink">
<g id="graph0" class="graph" transform="scale(1 1) rotate(0) translate(4 43)">
<title>WQCli.lista_amici</title>
<polygon fill="white" stroke="none" points="-4,4 -4,-43 414,-43 414,4 -4,4"/>
<!-- Node1 -->
<g id="node1" class="node"><title>Node1</title>
<g id="a_node1"><a xlink:title="Restistuisce una stringa contenente informazioni riguardo la visualizzazione della lista amici.">
<polygon fill="#bfbfbf" stroke="black" points="315,-19.5 315,-38.5 410,-38.5 410,-19.5 315,-19.5"/>
<text text-anchor="middle" x="362.5" y="-26.5" font-family="Helvetica,sans-Serif" font-size="10.00">WQCli.lista_amici</text>
</a>
</g>
</g>
<!-- Node2 -->
<g id="node2" class="node"><title>Node2</title>
<g id="a_node2"><a xlink:href="class_w_q_cli.html#a176225dbab1800ff2b4693ea7654b9b0" target="_top" xlink:title="Restistuisce una stringa contenente informazioni riguardo i comandi da utilizzare.">
<polygon fill="white" stroke="black" points="213,-19.5 213,-38.5 279,-38.5 279,-19.5 213,-19.5"/>
<text text-anchor="middle" x="246" y="-26.5" font-family="Helvetica,sans-Serif" font-size="10.00">WQCli.help</text>
</a>
</g>
</g>
<!-- Node1&#45;&gt;Node2 -->
<g id="edge1" class="edge"><title>Node1&#45;&gt;Node2</title>
<path fill="none" stroke="midnightblue" d="M304.689,-29C295.919,-29 287.135,-29 279.161,-29"/>
<polygon fill="midnightblue" stroke="midnightblue" points="304.929,-32.5001 314.928,-29 304.928,-25.5001 304.929,-32.5001"/>
</g>
<!-- Node3 -->
<g id="node3" class="node"><title>Node3</title>
<g id="a_node3"><a xlink:href="class_w_q_cli.html#a13932f1ea4f257ce081aa524f090b6ee" target="_top" xlink:title="Gestisce l&#39;interazione con l&#39;utente.">
<polygon fill="white" stroke="black" points="0,-19.5 0,-38.5 69,-38.5 69,-19.5 0,-19.5"/>
<text text-anchor="middle" x="34.5" y="-26.5" font-family="Helvetica,sans-Serif" font-size="10.00">WQCli.main</text>
</a>
</g>
</g>
<!-- Node2&#45;&gt;Node3 -->
<g id="edge2" class="edge"><title>Node2&#45;&gt;Node3</title>
<path fill="none" stroke="midnightblue" d="M202.65,-29C163.31,-29 105.494,-29 69.2007,-29"/>
<polygon fill="midnightblue" stroke="midnightblue" points="202.725,-32.5001 212.725,-29 202.725,-25.5001 202.725,-32.5001"/>
</g>
<!-- Node4 -->
<g id="node4" class="node"><title>Node4</title>
<g id="a_node4"><a xlink:href="class_w_q_cli.html#a69d5ad39deabe879509740cc27efb3f3" target="_top" xlink:title="Gestisce le richieste dell&#39;utente.">
<polygon fill="white" stroke="black" points="105,-0.5 105,-19.5 177,-19.5 177,-0.5 105,-0.5"/>
<text text-anchor="middle" x="141" y="-7.5" font-family="Helvetica,sans-Serif" font-size="10.00">WQCli.parse</text>
</a>
</g>
</g>
<!-- Node2&#45;&gt;Node4 -->
<g id="edge3" class="edge"><title>Node2&#45;&gt;Node4</title>
<path fill="none" stroke="midnightblue" d="M203.118,-21.2741C194.525,-19.689 185.561,-18.0355 177.231,-16.4989"/>
<polygon fill="midnightblue" stroke="midnightblue" points="202.506,-24.7202 212.975,-23.0924 203.776,-17.8364 202.506,-24.7202"/>
</g>
<!-- Node4&#45;&gt;Node3 -->
<g id="edge4" class="edge"><title>Node4&#45;&gt;Node3</title>
<path fill="none" stroke="midnightblue" d="M94.9682,-18.1876C86.3434,-19.7557 77.4511,-21.3725 69.2557,-22.8626"/>
<polygon fill="midnightblue" stroke="midnightblue" points="95.6997,-21.6121 104.912,-16.3796 94.4475,-14.725 95.6997,-21.6121"/>
</g>
</g>
</svg>
