<?xml version="1.0" encoding="UTF-8" standalone="no"?>
<!DOCTYPE svg PUBLIC "-//W3C//DTD SVG 1.1//EN"
 "http://www.w3.org/Graphics/SVG/1.1/DTD/svg11.dtd">
<!-- Generated by graphviz version 2.38.0 (20140413.2041)
 -->
<!-- Title: WordQuizzle.User.getFriends Pages: 1 -->
<svg width="922pt" height="88pt"
 viewBox="0.00 0.00 922.00 88.00" xmlns="http://www.w3.org/2000/svg" xmlns:xlink="http://www.w3.org/1999/xlink">
<g id="graph0" class="graph" transform="scale(1 1) rotate(0) translate(4 84)">
<title>WordQuizzle.User.getFriends</title>
<polygon fill="white" stroke="none" points="-4,4 -4,-84 918,-84 918,4 -4,4"/>
<!-- Node1 -->
<g id="node1" class="node"><title>Node1</title>
<g id="a_node1"><a xlink:title="Restituisce la lista di amici dell&#39;utente.">
<polygon fill="#bfbfbf" stroke="black" points="769,-30 769,-49 914,-49 914,-30 769,-30"/>
<text text-anchor="middle" x="841.5" y="-37" font-family="Helvetica,sans-Serif" font-size="10.00">WordQuizzle.User.getFriends</text>
</a>
</g>
</g>
<!-- Node2 -->
<g id="node2" class="node"><title>Node2</title>
<g id="a_node2"><a xlink:href="class_word_quizzle_1_1_word_quizzle_server_service.html#a198417a123b189dd75e88d3e969cd11d" target="_top" xlink:title=" ">
<polygon fill="white" stroke="black" points="574,-49.5 574,-79.5 733,-79.5 733,-49.5 574,-49.5"/>
<text text-anchor="start" x="582" y="-67.5" font-family="Helvetica,sans-Serif" font-size="10.00">WordQuizzle.WordQuizzleServer</text>
<text text-anchor="middle" x="653.5" y="-56.5" font-family="Helvetica,sans-Serif" font-size="10.00">Service.lista_amici</text>
</a>
</g>
</g>
<!-- Node1&#45;&gt;Node2 -->
<g id="edge1" class="edge"><title>Node1&#45;&gt;Node2</title>
<path fill="none" stroke="midnightblue" d="M759.499,-50.3872C750.78,-51.5592 741.917,-52.7504 733.225,-53.9187"/>
<polygon fill="midnightblue" stroke="midnightblue" points="760.206,-53.8237 769.651,-49.0227 759.274,-46.8861 760.206,-53.8237"/>
</g>
<!-- Node7 -->
<g id="node7" class="node"><title>Node7</title>
<g id="a_node7"><a xlink:href="class_word_quizzle_1_1_word_quizzle_server_service.html#ad212848f8436aaf885c017463458d2f4" target="_top" xlink:title=" ">
<polygon fill="white" stroke="black" points="574,-0.5 574,-30.5 733,-30.5 733,-0.5 574,-0.5"/>
<text text-anchor="start" x="582" y="-18.5" font-family="Helvetica,sans-Serif" font-size="10.00">WordQuizzle.WordQuizzleServer</text>
<text text-anchor="middle" x="653.5" y="-7.5" font-family="Helvetica,sans-Serif" font-size="10.00">Service.mostra_classifica</text>
</a>
</g>
</g>
<!-- Node1&#45;&gt;Node7 -->
<g id="edge6" class="edge"><title>Node1&#45;&gt;Node7</title>
<path fill="none" stroke="midnightblue" d="M758.915,-28.9729C750.383,-27.872 741.721,-26.7543 733.222,-25.6576"/>
<polygon fill="midnightblue" stroke="midnightblue" points="758.488,-32.4467 768.854,-30.2553 759.384,-25.5043 758.488,-32.4467"/>
</g>
<!-- Node3 -->
<g id="node3" class="node"><title>Node3</title>
<g id="a_node3"><a xlink:href="class_word_quizzle_1_1_session.html#a21992c338367b1a3c2e57fdb7cae3018" target="_top" xlink:title="Gestisce effettivamente la richiesta del client.">
<polygon fill="white" stroke="black" points="386,-30 386,-49 538,-49 538,-30 386,-30"/>
<text text-anchor="middle" x="462" y="-37" font-family="Helvetica,sans-Serif" font-size="10.00">WordQuizzle.Session.compute</text>
</a>
</g>
</g>
<!-- Node2&#45;&gt;Node3 -->
<g id="edge2" class="edge"><title>Node2&#45;&gt;Node3</title>
<path fill="none" stroke="midnightblue" d="M563.808,-52.7992C554.192,-51.5306 544.493,-50.251 535.108,-49.013"/>
<polygon fill="midnightblue" stroke="midnightblue" points="563.409,-56.2769 573.781,-54.1149 564.325,-49.337 563.409,-56.2769"/>
</g>
<!-- Node4 -->
<g id="node4" class="node"><title>Node4</title>
<g id="a_node4"><a xlink:href="class_word_quizzle_1_1_session.html#a6793f02ea7cab6fffe0361893cf40178" target="_top" xlink:title="Riceve una stringa contenente uan richiesta da parte del client e la gestisce.">
<polygon fill="white" stroke="black" points="212,-30 212,-49 350,-49 350,-30 212,-30"/>
<text text-anchor="middle" x="281" y="-37" font-family="Helvetica,sans-Serif" font-size="10.00">WordQuizzle.Session.parse</text>
</a>
</g>
</g>
<!-- Node3&#45;&gt;Node4 -->
<g id="edge3" class="edge"><title>Node3&#45;&gt;Node4</title>
<path fill="none" stroke="midnightblue" d="M375.793,-39.5C367.175,-39.5 358.505,-39.5 350.101,-39.5"/>
<polygon fill="midnightblue" stroke="midnightblue" points="375.866,-43.0001 385.866,-39.5 375.866,-36.0001 375.866,-43.0001"/>
</g>
<!-- Node5 -->
<g id="node5" class="node"><title>Node5</title>
<g id="a_node5"><a xlink:href="class_word_quizzle_1_1_word_quizzle_server.html#a4aa19bad373d06a790babba1e5b67644" target="_top" xlink:title="Gestisce le interazioni con i client.">
<polygon fill="white" stroke="black" points="0,-49 0,-68 176,-68 176,-49 0,-49"/>
<text text-anchor="middle" x="88" y="-56" font-family="Helvetica,sans-Serif" font-size="10.00">WordQuizzle.WordQuizzleServer.run</text>
</a>
</g>
</g>
<!-- Node4&#45;&gt;Node5 -->
<g id="edge4" class="edge"><title>Node4&#45;&gt;Node5</title>
<path fill="none" stroke="midnightblue" d="M201.692,-47.2898C193.27,-48.1275 184.665,-48.9836 176.149,-49.8308"/>
<polygon fill="midnightblue" stroke="midnightblue" points="202.249,-50.7517 211.854,-46.279 201.556,-43.7861 202.249,-50.7517"/>
</g>
<!-- Node6 -->
<g id="node6" class="node"><title>Node6</title>
<g id="a_node6"><a xlink:href="class_word_quizzle_1_1_challenge.html#aa7b93cfc7d1927c0b1c060cc387321b9" target="_top" xlink:title="Gestisce la sfida.">
<polygon fill="white" stroke="black" points="20.5,-11 20.5,-30 155.5,-30 155.5,-11 20.5,-11"/>
<text text-anchor="middle" x="88" y="-18" font-family="Helvetica,sans-Serif" font-size="10.00">WordQuizzle.Challenge.run</text>
</a>
</g>
</g>
<!-- Node4&#45;&gt;Node6 -->
<g id="edge5" class="edge"><title>Node4&#45;&gt;Node6</title>
<path fill="none" stroke="midnightblue" d="M201.853,-31.7263C186.473,-30.1963 170.471,-28.6045 155.517,-27.1169"/>
<polygon fill="midnightblue" stroke="midnightblue" points="201.556,-35.2139 211.854,-32.721 202.249,-28.2483 201.556,-35.2139"/>
</g>
<!-- Node7&#45;&gt;Node3 -->
<g id="edge7" class="edge"><title>Node7&#45;&gt;Node3</title>
<path fill="none" stroke="midnightblue" d="M563.764,-26.7383C555.191,-27.8241 546.552,-28.9182 538.129,-29.9849"/>
<polygon fill="midnightblue" stroke="midnightblue" points="564.3,-30.1985 573.781,-25.4697 563.421,-23.2539 564.3,-30.1985"/>
</g>
</g>
</svg>
