<?xml version="1.0" encoding="UTF-8" standalone="no"?>
<!DOCTYPE svg PUBLIC "-//W3C//DTD SVG 1.1//EN"
 "http://www.w3.org/Graphics/SVG/1.1/DTD/svg11.dtd">
<!-- Generated by graphviz version 2.38.0 (20140413.2041)
 -->
<!-- Title: WordQuizzle.WordQuizzleServerService.getK Pages: 1 -->
<svg width="1355pt" height="307pt"
 viewBox="0.00 0.00 1355.00 307.00" xmlns="http://www.w3.org/2000/svg" xmlns:xlink="http://www.w3.org/1999/xlink">
<g id="graph0" class="graph" transform="scale(1 1) rotate(0) translate(4 303)">
<title>WordQuizzle.WordQuizzleServerService.getK</title>
<polygon fill="white" stroke="none" points="-4,4 -4,-303 1351,-303 1351,4 -4,4"/>
<!-- Node1 -->
<g id="node1" class="node"><title>Node1</title>
<g id="a_node1"><a xlink:title="Restituisce il numero di parole per sfida.">
<polygon fill="#bfbfbf" stroke="black" points="1188,-174 1188,-204 1347,-204 1347,-174 1188,-174"/>
<text text-anchor="start" x="1196" y="-192" font-family="Helvetica,sans-Serif" font-size="10.00">WordQuizzle.WordQuizzleServer</text>
<text text-anchor="middle" x="1267.5" y="-181" font-family="Helvetica,sans-Serif" font-size="10.00">Service.getK</text>
</a>
</g>
</g>
<!-- Node2 -->
<g id="node2" class="node"><title>Node2</title>
<g id="a_node2"><a xlink:href="class_word_quizzle_1_1_challenge.html#a148a02d33e785a577c9d0ff4c032de68" target="_top" xlink:title="Crea una nuova sfida.">
<polygon fill="white" stroke="black" points="988,-276.5 988,-295.5 1152,-295.5 1152,-276.5 988,-276.5"/>
<text text-anchor="middle" x="1070" y="-283.5" font-family="Helvetica,sans-Serif" font-size="10.00">WordQuizzle.Challenge.Challenge</text>
</a>
</g>
</g>
<!-- Node1&#45;&gt;Node2 -->
<g id="edge1" class="edge"><title>Node1&#45;&gt;Node2</title>
<path fill="none" stroke="midnightblue" d="M1240.79,-210.627C1218.6,-228.243 1185,-252.493 1152,-267 1143.27,-270.837 1133.66,-273.958 1124.2,-276.478"/>
<polygon fill="midnightblue" stroke="midnightblue" points="1243.13,-213.238 1248.71,-204.234 1238.73,-207.791 1243.13,-213.238"/>
</g>
<!-- Node3 -->
<g id="node3" class="node"><title>Node3</title>
<g id="a_node3"><a xlink:href="class_word_quizzle_1_1_w_q_gui.html#a0e3cb31624c4fdda7b58977fe75de341" target="_top" xlink:title="Crea la finestra di gioco durante una sfida.">
<polygon fill="white" stroke="black" points="1002.5,-238.5 1002.5,-257.5 1137.5,-257.5 1137.5,-238.5 1002.5,-238.5"/>
<text text-anchor="middle" x="1070" y="-245.5" font-family="Helvetica,sans-Serif" font-size="10.00">WordQuizzle.WQGui.game</text>
</a>
</g>
</g>
<!-- Node1&#45;&gt;Node3 -->
<g id="edge2" class="edge"><title>Node1&#45;&gt;Node3</title>
<path fill="none" stroke="midnightblue" d="M1217.27,-207.48C1197.18,-214.683 1173.63,-222.704 1152,-229 1140.21,-232.431 1127.32,-235.679 1115.36,-238.486"/>
<polygon fill="midnightblue" stroke="midnightblue" points="1218.62,-210.715 1226.83,-204.021 1216.23,-204.133 1218.62,-210.715"/>
</g>
<!-- Node5 -->
<g id="node5" class="node"><title>Node5</title>
<g id="a_node5"><a xlink:href="class_word_quizzle_1_1_w_q_cli.html#ae5f342434ec80ce1ed3939fb446de436" target="_top" xlink:title="Gestisce una sfida.">
<polygon fill="white" stroke="black" points="1004.5,-200.5 1004.5,-219.5 1135.5,-219.5 1135.5,-200.5 1004.5,-200.5"/>
<text text-anchor="middle" x="1070" y="-207.5" font-family="Helvetica,sans-Serif" font-size="10.00">WordQuizzle.WQCli.game</text>
</a>
</g>
</g>
<!-- Node1&#45;&gt;Node5 -->
<g id="edge4" class="edge"><title>Node1&#45;&gt;Node5</title>
<path fill="none" stroke="midnightblue" d="M1177.62,-198.548C1163.51,-200.063 1149.15,-201.605 1135.74,-203.046"/>
<polygon fill="midnightblue" stroke="midnightblue" points="1178.26,-201.999 1187.83,-197.451 1177.51,-195.039 1178.26,-201.999"/>
</g>
<!-- Node9 -->
<g id="node9" class="node"><title>Node9</title>
<g id="a_node9"><a xlink:href="class_word_quizzle_1_1_player.html#a5df71a0f2196e8ee3bfff3bc232f4669" target="_top" xlink:title="Restituisce l&#39;indice della prossima domanda da sottoporre al giocatore.">
<polygon fill="white" stroke="black" points="1000,-159.5 1000,-178.5 1140,-178.5 1140,-159.5 1000,-159.5"/>
<text text-anchor="middle" x="1070" y="-166.5" font-family="Helvetica,sans-Serif" font-size="10.00">WordQuizzle.Player.getNext</text>
</a>
</g>
</g>
<!-- Node1&#45;&gt;Node9 -->
<g id="edge9" class="edge"><title>Node1&#45;&gt;Node9</title>
<path fill="none" stroke="midnightblue" d="M1177.75,-179.92C1165.1,-178.627 1152.26,-177.313 1140.06,-176.065"/>
<polygon fill="midnightblue" stroke="midnightblue" points="1177.52,-183.416 1187.83,-180.952 1178.24,-176.452 1177.52,-183.416"/>
</g>
<!-- Node16 -->
<g id="node16" class="node"><title>Node16</title>
<g id="a_node16"><a xlink:href="class_word_quizzle_1_1_player.html#ad49b0929ec96521b65f67f861654bbe6" target="_top" xlink:title="Verifica se l&#39;utente ha terminato la sfida.">
<polygon fill="white" stroke="black" points="386,-71.5 386,-90.5 548,-90.5 548,-71.5 386,-71.5"/>
<text text-anchor="middle" x="467" y="-78.5" font-family="Helvetica,sans-Serif" font-size="10.00">WordQuizzle.Player.isTerminated</text>
</a>
</g>
</g>
<!-- Node1&#45;&gt;Node16 -->
<g id="edge17" class="edge"><title>Node1&#45;&gt;Node16</title>
<path fill="none" stroke="midnightblue" d="M1217.11,-170.538C1197.08,-163.485 1173.62,-155.762 1152,-150 939.076,-93.2584 677.51,-82.4719 548.208,-80.8678"/>
<polygon fill="midnightblue" stroke="midnightblue" points="1216.04,-173.874 1226.64,-173.934 1218.39,-167.28 1216.04,-173.874"/>
</g>
<!-- Node18 -->
<g id="node18" class="node"><title>Node18</title>
<g id="a_node18"><a xlink:href="class_word_quizzle_1_1_challenge.html#a88b843bf595b590ca87dcc196861a364" target="_top" xlink:title="Genera la stringa contenente le statistiche di un utente.">
<polygon fill="white" stroke="black" points="792.5,-5.5 792.5,-24.5 938.5,-24.5 938.5,-5.5 792.5,-5.5"/>
<text text-anchor="middle" x="865.5" y="-12.5" font-family="Helvetica,sans-Serif" font-size="10.00">WordQuizzle.Challenge.result</text>
</a>
</g>
</g>
<!-- Node1&#45;&gt;Node18 -->
<g id="edge21" class="edge"><title>Node1&#45;&gt;Node18</title>
<path fill="none" stroke="midnightblue" d="M1250.79,-165.434C1231.12,-137.914 1194.74,-93.2103 1152,-70 1085.46,-33.8667 998.88,-21.1943 938.586,-16.895"/>
<polygon fill="midnightblue" stroke="midnightblue" points="1247.98,-167.525 1256.58,-173.716 1253.72,-163.515 1247.98,-167.525"/>
</g>
<!-- Node4 -->
<g id="node4" class="node"><title>Node4</title>
<g id="a_node4"><a xlink:href="class_word_quizzle_1_1_notifier.html#ad051f74dab1ae47c4453f9d094b6d0c4" target="_top" xlink:title="Attende l&#39;arrivo di una richiesta e se il client non e&#39; impegnato in una sfida gli notifica la richie...">
<polygon fill="white" stroke="black" points="804.5,-279.5 804.5,-298.5 926.5,-298.5 926.5,-279.5 804.5,-279.5"/>
<text text-anchor="middle" x="865.5" y="-286.5" font-family="Helvetica,sans-Serif" font-size="10.00">WordQuizzle.Notifier.run</text>
</a>
</g>
</g>
<!-- Node3&#45;&gt;Node4 -->
<g id="edge3" class="edge"><title>Node3&#45;&gt;Node4</title>
<path fill="none" stroke="midnightblue" d="M1012.2,-259.501C981.089,-265.799 942.995,-273.512 913.562,-279.471"/>
<polygon fill="midnightblue" stroke="midnightblue" points="1012.93,-262.924 1022.03,-257.509 1011.54,-256.063 1012.93,-262.924"/>
</g>
<!-- Node6 -->
<g id="node6" class="node"><title>Node6</title>
<g id="a_node6"><a xlink:href="class_word_quizzle_1_1_w_q_cli.html#a7b07b55738bdd5da89a2ef645afdc020" target="_top" xlink:title="Gestisce una richiesta di sfida.">
<polygon fill="white" stroke="black" points="779,-203.5 779,-222.5 952,-222.5 952,-203.5 779,-203.5"/>
<text text-anchor="middle" x="865.5" y="-210.5" font-family="Helvetica,sans-Serif" font-size="10.00">WordQuizzle.WQCli.nuovaRichiesta</text>
</a>
</g>
</g>
<!-- Node5&#45;&gt;Node6 -->
<g id="edge5" class="edge"><title>Node5&#45;&gt;Node6</title>
<path fill="none" stroke="midnightblue" d="M994.116,-211.109C980.508,-211.311 966.216,-211.523 952.322,-211.729"/>
<polygon fill="midnightblue" stroke="midnightblue" points="994.424,-214.605 1004.37,-210.957 994.32,-207.606 994.424,-214.605"/>
</g>
<!-- Node8 -->
<g id="node8" class="node"><title>Node8</title>
<g id="a_node8"><a xlink:href="class_word_quizzle_1_1_w_q_cli.html#a318ef86f91a825da4ff4684bd3332a6b" target="_top" xlink:title="Gestisce le richieste dell&#39;utente.">
<polygon fill="white" stroke="black" points="800,-241.5 800,-260.5 931,-260.5 931,-241.5 800,-241.5"/>
<text text-anchor="middle" x="865.5" y="-248.5" font-family="Helvetica,sans-Serif" font-size="10.00">WordQuizzle.WQCli.parse</text>
</a>
</g>
</g>
<!-- Node5&#45;&gt;Node8 -->
<g id="edge7" class="edge"><title>Node5&#45;&gt;Node8</title>
<path fill="none" stroke="midnightblue" d="M1012.2,-221.501C981.089,-227.799 942.995,-235.512 913.562,-241.471"/>
<polygon fill="midnightblue" stroke="midnightblue" points="1012.93,-224.924 1022.03,-219.509 1011.54,-218.063 1012.93,-224.924"/>
</g>
<!-- Node7 -->
<g id="node7" class="node"><title>Node7</title>
<g id="a_node7"><a xlink:href="class_word_quizzle_1_1_w_q_cli.html#a7c2d51051cc7f1b20c57c1424d3b7727" target="_top" xlink:title="Gestisce l&#39;interazione con l&#39;utente.">
<polygon fill="white" stroke="black" points="599.5,-222.5 599.5,-241.5 727.5,-241.5 727.5,-222.5 599.5,-222.5"/>
<text text-anchor="middle" x="663.5" y="-229.5" font-family="Helvetica,sans-Serif" font-size="10.00">WordQuizzle.WQCli.main</text>
</a>
</g>
</g>
<!-- Node6&#45;&gt;Node7 -->
<g id="edge6" class="edge"><title>Node6&#45;&gt;Node7</title>
<path fill="none" stroke="midnightblue" d="M768.698,-222.101C754.76,-223.425 740.713,-224.76 727.643,-226.001"/>
<polygon fill="midnightblue" stroke="midnightblue" points="769.188,-225.571 778.812,-221.14 768.525,-218.602 769.188,-225.571"/>
</g>
<!-- Node8&#45;&gt;Node7 -->
<g id="edge8" class="edge"><title>Node8&#45;&gt;Node7</title>
<path fill="none" stroke="midnightblue" d="M789.632,-243.888C769.201,-241.947 747.273,-239.863 727.571,-237.992"/>
<polygon fill="midnightblue" stroke="midnightblue" points="789.556,-247.396 799.842,-244.857 790.218,-240.427 789.556,-247.396"/>
</g>
<!-- Node10 -->
<g id="node10" class="node"><title>Node10</title>
<g id="a_node10"><a xlink:href="class_word_quizzle_1_1_challenge.html#aa7b93cfc7d1927c0b1c060cc387321b9" target="_top" xlink:title="Gestisce la sfida.">
<polygon fill="white" stroke="black" points="20.5,-71.5 20.5,-90.5 155.5,-90.5 155.5,-71.5 20.5,-71.5"/>
<text text-anchor="middle" x="88" y="-78.5" font-family="Helvetica,sans-Serif" font-size="10.00">WordQuizzle.Challenge.run</text>
</a>
</g>
</g>
<!-- Node9&#45;&gt;Node10 -->
<g id="edge10" class="edge"><title>Node9&#45;&gt;Node10</title>
<path fill="none" stroke="midnightblue" d="M1021.3,-157.175C1000.19,-152.366 974.984,-147.198 952,-144 825.165,-126.352 792.557,-125 664.5,-125 664.5,-125 664.5,-125 466,-125 352.762,-125 324.198,-120.313 212,-105 185.054,-101.322 155.097,-95.5142 131.494,-90.5328"/>
<polygon fill="midnightblue" stroke="midnightblue" points="1020.78,-160.646 1031.31,-159.497 1022.36,-153.827 1020.78,-160.646"/>
</g>
<!-- Node11 -->
<g id="node11" class="node"><title>Node11</title>
<g id="a_node11"><a xlink:href="class_word_quizzle_1_1_challenge.html#ad9edc220ce2d24274149ab8c6a564a0a" target="_top" xlink:title="Aggiunge l&#39;utente sfidato alla sfida e la avvia.">
<polygon fill="white" stroke="black" points="798,-154 798,-184 933,-184 933,-154 798,-154"/>
<text text-anchor="start" x="806" y="-172" font-family="Helvetica,sans-Serif" font-size="10.00">WordQuizzle.Challenge.set</text>
<text text-anchor="middle" x="865.5" y="-161" font-family="Helvetica,sans-Serif" font-size="10.00">Player2</text>
</a>
</g>
</g>
<!-- Node9&#45;&gt;Node11 -->
<g id="edge11" class="edge"><title>Node9&#45;&gt;Node11</title>
<path fill="none" stroke="midnightblue" d="M989.639,-169C970.986,-169 951.293,-169 933.258,-169"/>
<polygon fill="midnightblue" stroke="midnightblue" points="989.877,-172.5 999.877,-169 989.877,-165.5 989.877,-172.5"/>
</g>
<!-- Node12 -->
<g id="node12" class="node"><title>Node12</title>
<g id="a_node12"><a xlink:href="class_word_quizzle_1_1_word_quizzle_server_service.html#aebc8c566d10a0d24752a33f146f03a2a" target="_top" xlink:title="Accetta una richiesta di sfida inviata da nickAmico.">
<polygon fill="white" stroke="black" points="584,-154 584,-184 743,-184 743,-154 584,-154"/>
<text text-anchor="start" x="592" y="-172" font-family="Helvetica,sans-Serif" font-size="10.00">WordQuizzle.WordQuizzleServer</text>
<text text-anchor="middle" x="663.5" y="-161" font-family="Helvetica,sans-Serif" font-size="10.00">Service.accettaSfida</text>
</a>
</g>
</g>
<!-- Node11&#45;&gt;Node12 -->
<g id="edge12" class="edge"><title>Node11&#45;&gt;Node12</title>
<path fill="none" stroke="midnightblue" d="M787.492,-169C773.002,-169 757.832,-169 743.29,-169"/>
<polygon fill="midnightblue" stroke="midnightblue" points="787.903,-172.5 797.903,-169 787.903,-165.5 787.903,-172.5"/>
</g>
<!-- Node13 -->
<g id="node13" class="node"><title>Node13</title>
<g id="a_node13"><a xlink:href="class_word_quizzle_1_1_session.html#a21992c338367b1a3c2e57fdb7cae3018" target="_top" xlink:title="Gestisce effettivamente la richiesta del client.">
<polygon fill="white" stroke="black" points="391,-156.5 391,-175.5 543,-175.5 543,-156.5 391,-156.5"/>
<text text-anchor="middle" x="467" y="-163.5" font-family="Helvetica,sans-Serif" font-size="10.00">WordQuizzle.Session.compute</text>
</a>
</g>
</g>
<!-- Node12&#45;&gt;Node13 -->
<g id="edge13" class="edge"><title>Node12&#45;&gt;Node13</title>
<path fill="none" stroke="midnightblue" d="M573.752,-167.631C563.495,-167.473 553.11,-167.313 543.06,-167.158"/>
<polygon fill="midnightblue" stroke="midnightblue" points="573.897,-171.134 583.95,-167.788 574.005,-164.135 573.897,-171.134"/>
</g>
<!-- Node14 -->
<g id="node14" class="node"><title>Node14</title>
<g id="a_node14"><a xlink:href="class_word_quizzle_1_1_session.html#a6793f02ea7cab6fffe0361893cf40178" target="_top" xlink:title="Riceve una stringa contenente uan richiesta da parte del client e la gestisce.">
<polygon fill="white" stroke="black" points="212,-154.5 212,-173.5 350,-173.5 350,-154.5 212,-154.5"/>
<text text-anchor="middle" x="281" y="-161.5" font-family="Helvetica,sans-Serif" font-size="10.00">WordQuizzle.Session.parse</text>
</a>
</g>
</g>
<!-- Node13&#45;&gt;Node14 -->
<g id="edge14" class="edge"><title>Node13&#45;&gt;Node14</title>
<path fill="none" stroke="midnightblue" d="M380.684,-165.073C370.416,-164.961 360.037,-164.848 350.061,-164.74"/>
<polygon fill="midnightblue" stroke="midnightblue" points="380.857,-168.575 390.895,-165.184 380.933,-161.575 380.857,-168.575"/>
</g>
<!-- Node14&#45;&gt;Node10 -->
<g id="edge16" class="edge"><title>Node14&#45;&gt;Node10</title>
<path fill="none" stroke="midnightblue" d="M242.624,-150.932C232.608,-147.247 221.833,-143.116 212,-139 174.542,-123.319 131.894,-102.527 107.939,-90.5709"/>
<polygon fill="midnightblue" stroke="midnightblue" points="241.729,-154.33 252.324,-154.451 244.117,-147.75 241.729,-154.33"/>
</g>
<!-- Node15 -->
<g id="node15" class="node"><title>Node15</title>
<g id="a_node15"><a xlink:href="class_word_quizzle_1_1_word_quizzle_server.html#a4aa19bad373d06a790babba1e5b67644" target="_top" xlink:title="Gestisce le interazioni con i client.">
<polygon fill="white" stroke="black" points="0,-154.5 0,-173.5 176,-173.5 176,-154.5 0,-154.5"/>
<text text-anchor="middle" x="88" y="-161.5" font-family="Helvetica,sans-Serif" font-size="10.00">WordQuizzle.WordQuizzleServer.run</text>
</a>
</g>
</g>
<!-- Node14&#45;&gt;Node15 -->
<g id="edge15" class="edge"><title>Node14&#45;&gt;Node15</title>
<path fill="none" stroke="midnightblue" d="M201.692,-164C193.27,-164 184.665,-164 176.149,-164"/>
<polygon fill="midnightblue" stroke="midnightblue" points="201.854,-167.5 211.854,-164 201.853,-160.5 201.854,-167.5"/>
</g>
<!-- Node16&#45;&gt;Node10 -->
<g id="edge20" class="edge"><title>Node16&#45;&gt;Node10</title>
<path fill="none" stroke="midnightblue" d="M421.488,-69.0906C400.052,-63.9523 373.874,-58.5435 350,-56 289.012,-49.5026 273.025,-49.861 212,-56 182.73,-58.9445 150.126,-65.7357 125.843,-71.4978"/>
<polygon fill="midnightblue" stroke="midnightblue" points="420.742,-72.5112 431.288,-71.499 422.412,-65.7134 420.742,-72.5112"/>
</g>
<!-- Node17 -->
<g id="node17" class="node"><title>Node17</title>
<g id="a_node17"><a xlink:href="class_word_quizzle_1_1_challenge.html#a4587e95b2628810f0c66278e90a9934c" target="_top" xlink:title="Verifica se la sfida e&#39; terminata.">
<polygon fill="white" stroke="black" points="216.5,-66 216.5,-96 345.5,-96 345.5,-66 216.5,-66"/>
<text text-anchor="start" x="224.5" y="-84" font-family="Helvetica,sans-Serif" font-size="10.00">WordQuizzle.Challenge.is</text>
<text text-anchor="middle" x="281" y="-73" font-family="Helvetica,sans-Serif" font-size="10.00">Terminated</text>
</a>
</g>
</g>
<!-- Node16&#45;&gt;Node17 -->
<g id="edge18" class="edge"><title>Node16&#45;&gt;Node17</title>
<path fill="none" stroke="midnightblue" d="M375.688,-81C365.519,-81 355.321,-81 345.594,-81"/>
<polygon fill="midnightblue" stroke="midnightblue" points="375.83,-84.5001 385.83,-81 375.83,-77.5001 375.83,-84.5001"/>
</g>
<!-- Node17&#45;&gt;Node10 -->
<g id="edge19" class="edge"><title>Node17&#45;&gt;Node10</title>
<path fill="none" stroke="midnightblue" d="M206.169,-81C189.514,-81 171.93,-81 155.593,-81"/>
<polygon fill="midnightblue" stroke="midnightblue" points="206.4,-84.5001 216.4,-81 206.4,-77.5001 206.4,-84.5001"/>
</g>
<!-- Node19 -->
<g id="node19" class="node"><title>Node19</title>
<g id="a_node19"><a xlink:href="class_word_quizzle_1_1_challenge.html#a872c3c6f72016561647d84843cbbdc48" target="_top" xlink:title="Conclude la sfida.">
<polygon fill="white" stroke="black" points="595,-0.5 595,-19.5 732,-19.5 732,-0.5 595,-0.5"/>
<text text-anchor="middle" x="663.5" y="-7.5" font-family="Helvetica,sans-Serif" font-size="10.00">WordQuizzle.Challenge.end</text>
</a>
</g>
</g>
<!-- Node18&#45;&gt;Node19 -->
<g id="edge22" class="edge"><title>Node18&#45;&gt;Node19</title>
<path fill="none" stroke="midnightblue" d="M782.079,-12.9395C765.506,-12.5252 748.268,-12.0942 732.263,-11.6941"/>
<polygon fill="midnightblue" stroke="midnightblue" points="782.211,-16.4438 792.295,-13.1949 782.386,-9.44596 782.211,-16.4438"/>
</g>
<!-- Node19&#45;&gt;Node10 -->
<g id="edge23" class="edge"><title>Node19&#45;&gt;Node10</title>
<path fill="none" stroke="midnightblue" d="M584.707,-12.3612C494.48,-16.0679 341.538,-25.3456 212,-48 179.55,-53.6751 143.206,-63.9232 118.494,-71.4984"/>
<polygon fill="midnightblue" stroke="midnightblue" points="585.002,-15.8523 594.855,-11.957 584.723,-8.85783 585.002,-15.8523"/>
</g>
</g>
</svg>
