<?xml version="1.0" encoding="UTF-8" standalone="no"?>
<!DOCTYPE svg PUBLIC "-//W3C//DTD SVG 1.1//EN"
 "http://www.w3.org/Graphics/SVG/1.1/DTD/svg11.dtd">
<!-- Generated by graphviz version 2.38.0 (20140413.2041)
 -->
<!-- Title: Session.setResponse Pages: 1 -->
<!--zoomable 154 -->
<svg id="main" version="1.1" xmlns="http://www.w3.org/2000/svg" xmlns:xlink="http://www.w3.org/1999/xlink" xml:space="preserve" onload="init(evt)">
<style type="text/css"><![CDATA[
.edge:hover path { stroke: red; }
.edge:hover polygon { stroke: red; fill: red; }
]]></style>
<script type="text/javascript"><![CDATA[
var edges = document.getElementsByTagName('g');
if (edges && edges.length) {
  for (var i=0;i<edges.length;i++) {
    if (edges[i].id.substr(0,4)=='edge') {
      edges[i].setAttribute('class','edge');
    }
  }
}
]]></script>
        <defs>
                <circle id="rim" cx="0" cy="0" r="7"/>
                <circle id="rim2" cx="0" cy="0" r="3.5"/>
                <g id="zoomPlus">
                        <use xlink:href="#rim" fill="#404040">
                                <set attributeName="fill" to="#808080" begin="zoomplus.mouseover" end="zoomplus.mouseout"/>
                        </use>
                        <path d="M-4,0h8M0,-4v8" fill="none" stroke="white" stroke-width="1.5" pointer-events="none"/>
                </g>
                <g id="zoomMin">
                        <use xlink:href="#rim" fill="#404040">
                                <set attributeName="fill" to="#808080" begin="zoomminus.mouseover" end="zoomminus.mouseout"/>
                        </use>
                        <path d="M-4,0h8" fill="none" stroke="white" stroke-width="1.5" pointer-events="none"/>
                </g>
                <g id="dirArrow">
                        <path fill="none" stroke="white" stroke-width="1.5" d="M0,-3.0v7 M-2.5,-0.5L0,-3.0L2.5,-0.5"/>
                </g>
               <g id="resetDef">
                       <use xlink:href="#rim2" fill="#404040">
                               <set attributeName="fill" to="#808080" begin="reset.mouseover" end="reset.mouseout"/>
                       </use>
               </g>
        </defs>

<script type="text/javascript">
var viewWidth = 863;
var viewHeight = 154;
var sectionId = 'dynsection-11';
</script>
<script xlink:href="svgpan.js"/>
<svg id="graph" class="graph">
<g id="viewport">
<title>Session.setResponse</title>
<polygon fill="white" stroke="none" points="-4,4 -4,-149.5 859,-149.5 859,4 -4,4"/>
<!-- Node1 -->
<g id="node1" class="node"><title>Node1</title>
<g id="a_node1"><a xlink:title="Imposta la risposta da inviare al client.">
<polygon fill="#bfbfbf" stroke="black" points="743,-50 743,-69 855,-69 855,-50 743,-50"/>
<text text-anchor="middle" x="799" y="-57" font-family="Helvetica,sans-Serif" font-size="10.00">Session.setResponse</text>
</a>
</g>
</g>
<!-- Node2 -->
<g id="node2" class="node"><title>Node2</title>
<g id="a_node2"><a xlink:href="class_challenge.html#acc51fa450378fcd049b7b6573fefa947" target="_top" xlink:title="Conclude la sfida inviando ad ogni giocatore un messaggio.">
<polygon fill="white" stroke="black" points="270,-88 270,-107 356,-107 356,-88 270,-88"/>
<text text-anchor="middle" x="313" y="-95" font-family="Helvetica,sans-Serif" font-size="10.00">Challenge.close</text>
</a>
</g>
</g>
<!-- Node1&#45;&gt;Node2 -->
<g id="edge1" class="edge"><title>Node1&#45;&gt;Node2</title>
<path fill="none" stroke="midnightblue" d="M732.714,-70.2811C724.082,-71.4901 715.339,-72.6058 707,-73.5 579.732,-87.1468 428.384,-93.6701 356.271,-96.1896"/>
<polygon fill="midnightblue" stroke="midnightblue" points="733.369,-73.7229 742.765,-68.8269 732.367,-66.795 733.369,-73.7229"/>
</g>
<!-- Node4 -->
<g id="node4" class="node"><title>Node4</title>
<g id="a_node4"><a xlink:href="class_challenge.html#adfd88e7904c2d0954ca82e07890c5ca4" target="_top" xlink:title="Gestisce la sfida.">
<polygon fill="white" stroke="black" points="20,-69 20,-88 96,-88 96,-69 20,-69"/>
<text text-anchor="middle" x="58" y="-76" font-family="Helvetica,sans-Serif" font-size="10.00">Challenge.run</text>
</a>
</g>
</g>
<!-- Node1&#45;&gt;Node4 -->
<g id="edge5" class="edge"><title>Node1&#45;&gt;Node4</title>
<path fill="none" stroke="midnightblue" d="M732.755,-59.5C668.376,-59.5 567.154,-59.5 479.5,-59.5 479.5,-59.5 479.5,-59.5 312,-59.5 235.137,-59.5 145.508,-68.328 96.2291,-73.949"/>
<polygon fill="midnightblue" stroke="midnightblue" points="732.763,-63.0001 742.763,-59.5 732.763,-56.0001 732.763,-63.0001"/>
</g>
<!-- Node5 -->
<g id="node5" class="node"><title>Node5</title>
<g id="a_node5"><a xlink:href="class_challenge.html#a650e2bfde93fe29ad14a4f7fdcb3c4b9" target="_top" xlink:title="Aggiunge l&#39;utente sfidato alla sfida e la avvia.">
<polygon fill="white" stroke="black" points="598,-9 598,-28 707,-28 707,-9 598,-9"/>
<text text-anchor="middle" x="652.5" y="-16" font-family="Helvetica,sans-Serif" font-size="10.00">Challenge.setPlayer2</text>
</a>
</g>
</g>
<!-- Node1&#45;&gt;Node5 -->
<g id="edge6" class="edge"><title>Node1&#45;&gt;Node5</title>
<path fill="none" stroke="midnightblue" d="M754.851,-47.2569C733.16,-41.1024 707.267,-33.7557 687.083,-28.0286"/>
<polygon fill="midnightblue" stroke="midnightblue" points="753.91,-50.6281 764.486,-49.9907 755.821,-43.8939 753.91,-50.6281"/>
</g>
<!-- Node3 -->
<g id="node3" class="node"><title>Node3</title>
<g id="a_node3"><a xlink:href="class_challenge.html#ae1d74e295523725569c9e06b887e9a9e" target="_top" xlink:title="Conclude la sfida.">
<polygon fill="white" stroke="black" points="152.5,-126 152.5,-145 230.5,-145 230.5,-126 152.5,-126"/>
<text text-anchor="middle" x="191.5" y="-133" font-family="Helvetica,sans-Serif" font-size="10.00">Challenge.end</text>
</a>
</g>
</g>
<!-- Node2&#45;&gt;Node3 -->
<g id="edge2" class="edge"><title>Node2&#45;&gt;Node3</title>
<path fill="none" stroke="midnightblue" d="M272.123,-110.18C255.977,-115.315 237.646,-121.144 222.645,-125.914"/>
<polygon fill="midnightblue" stroke="midnightblue" points="273.376,-113.455 281.845,-107.089 271.255,-106.784 273.376,-113.455"/>
</g>
<!-- Node2&#45;&gt;Node4 -->
<g id="edge4" class="edge"><title>Node2&#45;&gt;Node4</title>
<path fill="none" stroke="midnightblue" d="M259.896,-93.5871C211.124,-89.9243 139.463,-84.5427 96.2126,-81.2946"/>
<polygon fill="midnightblue" stroke="midnightblue" points="259.704,-97.0824 269.938,-94.3412 260.228,-90.1021 259.704,-97.0824"/>
</g>
<!-- Node3&#45;&gt;Node4 -->
<g id="edge3" class="edge"><title>Node3&#45;&gt;Node4</title>
<path fill="none" stroke="midnightblue" d="M159.083,-121.882C135.024,-111.454 102.442,-97.3303 81.082,-88.0716"/>
<polygon fill="midnightblue" stroke="midnightblue" points="157.923,-125.194 168.49,-125.959 160.707,-118.771 157.923,-125.194"/>
</g>
<!-- Node6 -->
<g id="node6" class="node"><title>Node6</title>
<g id="a_node6"><a xlink:href="class_word_quizzle_server_service.html#a9b03b4a431c18e8d8385217e3fbd9a0a" target="_top" xlink:title="Accetta una richiesta di sfida inviata da nickAmico.">
<polygon fill="white" stroke="black" points="395,-0.5 395,-30.5 562,-30.5 562,-0.5 395,-0.5"/>
<text text-anchor="start" x="403" y="-18.5" font-family="Helvetica,sans-Serif" font-size="10.00">WordQuizzleServerService.accetta</text>
<text text-anchor="middle" x="478.5" y="-7.5" font-family="Helvetica,sans-Serif" font-size="10.00">Sfida</text>
</a>
</g>
</g>
<!-- Node5&#45;&gt;Node6 -->
<g id="edge7" class="edge"><title>Node5&#45;&gt;Node6</title>
<path fill="none" stroke="midnightblue" d="M587.347,-17.381C579.152,-17.2381 570.675,-17.0903 562.239,-16.9431"/>
<polygon fill="midnightblue" stroke="midnightblue" points="587.49,-20.884 597.55,-17.559 587.613,-13.8851 587.49,-20.884"/>
</g>
<!-- Node7 -->
<g id="node7" class="node"><title>Node7</title>
<g id="a_node7"><a xlink:href="class_session.html#a56e3ffab046de2082083cfc54b5d8e72" target="_top" xlink:title="Gestisce effettivamente la richiesta del client.">
<polygon fill="white" stroke="black" points="267,-9 267,-28 359,-28 359,-9 267,-9"/>
<text text-anchor="middle" x="313" y="-16" font-family="Helvetica,sans-Serif" font-size="10.00">Session.compute</text>
</a>
</g>
</g>
<!-- Node6&#45;&gt;Node7 -->
<g id="edge8" class="edge"><title>Node6&#45;&gt;Node7</title>
<path fill="none" stroke="midnightblue" d="M384.531,-17.2059C375.837,-17.3654 367.316,-17.5217 359.371,-17.6675"/>
<polygon fill="midnightblue" stroke="midnightblue" points="384.858,-20.7005 394.792,-17.0176 384.729,-13.7017 384.858,-20.7005"/>
</g>
<!-- Node8 -->
<g id="node8" class="node"><title>Node8</title>
<g id="a_node8"><a xlink:href="class_session.html#a75364929cf1f8f9e75992a8a8c3b589f" target="_top" xlink:title="Riceve una stringa contenente uan richiesta da parte del client e la gestisce.">
<polygon fill="white" stroke="black" points="152,-10 152,-29 231,-29 231,-10 152,-10"/>
<text text-anchor="middle" x="191.5" y="-17" font-family="Helvetica,sans-Serif" font-size="10.00">Session.parse</text>
</a>
</g>
</g>
<!-- Node7&#45;&gt;Node8 -->
<g id="edge9" class="edge"><title>Node7&#45;&gt;Node8</title>
<path fill="none" stroke="midnightblue" d="M256.749,-18.9623C248.081,-19.0349 239.286,-19.1085 231.1,-19.177"/>
<polygon fill="midnightblue" stroke="midnightblue" points="256.852,-22.4617 266.822,-18.8781 256.793,-15.462 256.852,-22.4617"/>
</g>
<!-- Node8&#45;&gt;Node4 -->
<g id="edge11" class="edge"><title>Node8&#45;&gt;Node4</title>
<path fill="none" stroke="midnightblue" d="M159.901,-33.2287C135.517,-44.1694 101.995,-59.2092 80.4112,-68.8934"/>
<polygon fill="midnightblue" stroke="midnightblue" points="161.389,-36.3976 169.08,-29.1107 158.523,-30.011 161.389,-36.3976"/>
</g>
<!-- Node9 -->
<g id="node9" class="node"><title>Node9</title>
<g id="a_node9"><a xlink:href="class_word_quizzle_server.html#a1414f39eeaaf2dbe0885f4d77a12c466" target="_top" xlink:title="Gestisce le interazioni con i client.">
<polygon fill="white" stroke="black" points="0,-10 0,-29 116,-29 116,-10 0,-10"/>
<text text-anchor="middle" x="58" y="-17" font-family="Helvetica,sans-Serif" font-size="10.00">WordQuizzleServer.run</text>
</a>
</g>
</g>
<!-- Node8&#45;&gt;Node9 -->
<g id="edge10" class="edge"><title>Node8&#45;&gt;Node9</title>
<path fill="none" stroke="midnightblue" d="M141.621,-19.5C133.428,-19.5 124.86,-19.5 116.475,-19.5"/>
<polygon fill="midnightblue" stroke="midnightblue" points="141.757,-23.0001 151.757,-19.5 141.757,-16.0001 141.757,-23.0001"/>
</g>
</g>
</svg>
        <g id="navigator" transform="translate(0 0)" fill="#404254">
                <rect fill="#f2f5e9" fill-opacity="0.5" stroke="#606060" stroke-width=".5" x="0" y="0" width="60" height="60"/>
                <use id="zoomplus" xlink:href="#zoomPlus" x="17" y="9" onmousedown="handleZoom(evt,'in')"/>
                <use id="zoomminus" xlink:href="#zoomMin" x="42" y="9" onmousedown="handleZoom(evt,'out')"/>
                <use id="reset" xlink:href="#resetDef" x="30" y="36" onmousedown="handleReset()"/>
                <g id="arrowUp" xlink:href="#dirArrow" transform="translate(30 24)" onmousedown="handlePan(0,-1)">
                  <use xlink:href="#rim" fill="#404040">
                        <set attributeName="fill" to="#808080" begin="arrowUp.mouseover" end="arrowUp.mouseout"/>
                  </use>
                  <path fill="none" stroke="white" stroke-width="1.5" d="M0,-3.0v7 M-2.5,-0.5L0,-3.0L2.5,-0.5"/>
                </g>
                <g id="arrowRight" xlink:href="#dirArrow" transform="rotate(90) translate(36 -43)" onmousedown="handlePan(1,0)">
                  <use xlink:href="#rim" fill="#404040">
                        <set attributeName="fill" to="#808080" begin="arrowRight.mouseover" end="arrowRight.mouseout"/>
                  </use>
                  <path fill="none" stroke="white" stroke-width="1.5" d="M0,-3.0v7 M-2.5,-0.5L0,-3.0L2.5,-0.5"/>
                </g>
                <g id="arrowDown" xlink:href="#dirArrow" transform="rotate(180) translate(-30 -48)" onmousedown="handlePan(0,1)">
                  <use xlink:href="#rim" fill="#404040">
                        <set attributeName="fill" to="#808080" begin="arrowDown.mouseover" end="arrowDown.mouseout"/>
                  </use>
                  <path fill="none" stroke="white" stroke-width="1.5" d="M0,-3.0v7 M-2.5,-0.5L0,-3.0L2.5,-0.5"/>
                </g>
                <g id="arrowLeft" xlink:href="#dirArrow" transform="rotate(270) translate(-36 17)" onmousedown="handlePan(-1,0)">
                  <use xlink:href="#rim" fill="#404040">
                        <set attributeName="fill" to="#808080" begin="arrowLeft.mouseover" end="arrowLeft.mouseout"/>
                  </use>
                  <path fill="none" stroke="white" stroke-width="1.5" d="M0,-3.0v7 M-2.5,-0.5L0,-3.0L2.5,-0.5"/>
                </g>
        </g>
        <svg viewBox="0 0 15 15" width="100%" height="30px" preserveAspectRatio="xMaxYMin meet">
         <g id="arrow_out" transform="scale(0.3 0.3)">
          <a xlink:href="class_session_a8ab972666e7c0d311d4731d9eee566d2_icgraph_org.svg" target="_base">
           <rect id="button" ry="5" rx="5" y="6" x="6" height="38" width="38"
                fill="#f2f5e9" fill-opacity="0.5" stroke="#606060" stroke-width="1.0"/>
           <path id="arrow"
             d="M 11.500037,31.436501 C 11.940474,20.09759 22.043105,11.32322 32.158766,21.979434 L 37.068811,17.246167 C 37.068811,17.246167 37.088388,32 37.088388,32 L 22.160133,31.978069 C 22.160133,31.978069 26.997745,27.140456 26.997745,27.140456 C 18.528582,18.264221 13.291696,25.230495 11.500037,31.436501 z"
             style="fill:#404040;"/>
          </a>
         </g>
        </svg>
</svg>
