<?xml version="1.0" encoding="UTF-8" standalone="no"?>
<!DOCTYPE svg PUBLIC "-//W3C//DTD SVG 1.1//EN"
 "http://www.w3.org/Graphics/SVG/1.1/DTD/svg11.dtd">
<!-- Generated by graphviz version 2.38.0 (20140413.2041)
 -->
<!-- Title: WordQuizzleServer.run Pages: 1 -->
<svg width="1099pt" height="511pt"
 viewBox="0.00 0.00 1099.00 511.00" xmlns="http://www.w3.org/2000/svg" xmlns:xlink="http://www.w3.org/1999/xlink">
<g id="graph0" class="graph" transform="scale(1 1) rotate(0) translate(4 507)">
<title>WordQuizzleServer.run</title>
<polygon fill="white" stroke="none" points="-4,4 -4,-507 1095,-507 1095,4 -4,4"/>
<!-- Node1 -->
<g id="node1" class="node"><title>Node1</title>
<g id="a_node1"><a xlink:title="Gestisce le interazioni con i client.">
<polygon fill="#bfbfbf" stroke="black" points="0,-369.5 0,-388.5 116,-388.5 116,-369.5 0,-369.5"/>
<text text-anchor="middle" x="58" y="-376.5" font-family="Helvetica,sans-Serif" font-size="10.00">WordQuizzleServer.run</text>
</a>
</g>
</g>
<!-- Node2 -->
<g id="node2" class="node"><title>Node2</title>
<g id="a_node2"><a xlink:href="class_session.html#af23241261df6cb881720a65db842ff96" target="_top" xlink:title="Restituisce il ByteBuffer Array della sessione.">
<polygon fill="white" stroke="black" points="166.5,-483.5 166.5,-502.5 249.5,-502.5 249.5,-483.5 166.5,-483.5"/>
<text text-anchor="middle" x="208" y="-490.5" font-family="Helvetica,sans-Serif" font-size="10.00">Session.getBfs</text>
</a>
</g>
</g>
<!-- Node1&#45;&gt;Node2 -->
<g id="edge1" class="edge"><title>Node1&#45;&gt;Node2</title>
<path fill="none" stroke="midnightblue" d="M66.8111,-388.561C81.7672,-406.37 116.159,-444.991 152,-469 157.757,-472.857 164.236,-476.33 170.672,-479.358"/>
<polygon fill="midnightblue" stroke="midnightblue" points="169.421,-482.631 179.983,-483.469 172.249,-476.228 169.421,-482.631"/>
</g>
<!-- Node3 -->
<g id="node3" class="node"><title>Node3</title>
<g id="a_node3"><a xlink:href="class_session.html#a80b5cf0f5ea47877e261766c51f1e351" target="_top" xlink:title="Restituisce la socket del client.">
<polygon fill="white" stroke="black" points="797.5,-289.5 797.5,-308.5 890.5,-308.5 890.5,-289.5 797.5,-289.5"/>
<text text-anchor="middle" x="844" y="-296.5" font-family="Helvetica,sans-Serif" font-size="10.00">Session.getClient</text>
</a>
</g>
</g>
<!-- Node1&#45;&gt;Node3 -->
<g id="edge2" class="edge"><title>Node1&#45;&gt;Node3</title>
<path fill="none" stroke="midnightblue" d="M70.7403,-388.662C87.5661,-401.904 120.046,-425.269 152,-436 233.708,-463.44 258.808,-455 345,-455 345,-455 345,-455 514,-455 620.36,-455 660.457,-484.15 752,-430 795.729,-404.134 823.518,-348.058 835.755,-318.359"/>
<polygon fill="midnightblue" stroke="midnightblue" points="839.146,-319.303 839.561,-308.716 832.634,-316.733 839.146,-319.303"/>
</g>
<!-- Node4 -->
<g id="node4" class="node"><title>Node4</title>
<g id="a_node4"><a xlink:href="class_session.html#a88138ee90b7766aebcf76b8bdc6d06bc" target="_top" xlink:title="Restituisce la risposta da inviare al client.">
<polygon fill="white" stroke="black" points="152,-369.5 152,-388.5 264,-388.5 264,-369.5 152,-369.5"/>
<text text-anchor="middle" x="208" y="-376.5" font-family="Helvetica,sans-Serif" font-size="10.00">Session.getResponse</text>
</a>
</g>
</g>
<!-- Node1&#45;&gt;Node4 -->
<g id="edge3" class="edge"><title>Node1&#45;&gt;Node4</title>
<path fill="none" stroke="midnightblue" d="M116.221,-379C124.548,-379 133.175,-379 141.648,-379"/>
<polygon fill="midnightblue" stroke="midnightblue" points="141.877,-382.5 151.877,-379 141.877,-375.5 141.877,-382.5"/>
</g>
<!-- Node5 -->
<g id="node5" class="node"><title>Node5</title>
<g id="a_node5"><a xlink:href="class_session.html#a87a68261df83e9c32888673cfe909e2b" target="_top" xlink:title="Restituisce il nome utente corrente della sessione.">
<polygon fill="white" stroke="black" points="163.5,-331.5 163.5,-350.5 252.5,-350.5 252.5,-331.5 163.5,-331.5"/>
<text text-anchor="middle" x="208" y="-338.5" font-family="Helvetica,sans-Serif" font-size="10.00">Session.getUser</text>
</a>
</g>
</g>
<!-- Node1&#45;&gt;Node5 -->
<g id="edge4" class="edge"><title>Node1&#45;&gt;Node5</title>
<path fill="none" stroke="midnightblue" d="M96.3466,-369.411C115.701,-364.442 139.53,-358.323 160.113,-353.039"/>
<polygon fill="midnightblue" stroke="midnightblue" points="161.107,-356.397 169.922,-350.52 159.366,-349.617 161.107,-356.397"/>
</g>
<!-- Node6 -->
<g id="node6" class="node"><title>Node6</title>
<g id="a_node6"><a xlink:href="class_session.html#aaede3db35a6f25322a0f4ca3d2b0def7" target="_top" xlink:title="Verifica se la sessione e&#39; terminata.">
<polygon fill="white" stroke="black" points="153,-293.5 153,-312.5 263,-312.5 263,-293.5 153,-293.5"/>
<text text-anchor="middle" x="208" y="-300.5" font-family="Helvetica,sans-Serif" font-size="10.00">Session.isTerminated</text>
</a>
</g>
</g>
<!-- Node1&#45;&gt;Node6 -->
<g id="edge5" class="edge"><title>Node1&#45;&gt;Node6</title>
<path fill="none" stroke="midnightblue" d="M72.6469,-369.322C90.3197,-357.103 122.376,-335.991 152,-322 156.393,-319.925 161.077,-317.959 165.787,-316.135"/>
<polygon fill="midnightblue" stroke="midnightblue" points="167.229,-319.334 175.407,-312.598 164.814,-312.764 167.229,-319.334"/>
</g>
<!-- Node7 -->
<g id="node7" class="node"><title>Node7</title>
<g id="a_node7"><a xlink:href="class_session.html#aec1809a5616ff0dfa7244ded2fdd8a13" target="_top" xlink:title="Crea un nuovo ByteBuffer Array.">
<polygon fill="white" stroke="black" points="165,-255.5 165,-274.5 251,-274.5 251,-255.5 165,-255.5"/>
<text text-anchor="middle" x="208" y="-262.5" font-family="Helvetica,sans-Serif" font-size="10.00">Session.newBfs</text>
</a>
</g>
</g>
<!-- Node1&#45;&gt;Node7 -->
<g id="edge6" class="edge"><title>Node1&#45;&gt;Node7</title>
<path fill="none" stroke="midnightblue" d="M65.8471,-369.489C79.917,-350.592 113.971,-308.072 152,-284 155.174,-281.991 158.587,-280.164 162.102,-278.51"/>
<polygon fill="midnightblue" stroke="midnightblue" points="163.696,-281.636 171.551,-274.525 160.976,-275.186 163.696,-281.636"/>
</g>
<!-- Node8 -->
<g id="node8" class="node"><title>Node8</title>
<g id="a_node8"><a xlink:href="class_session.html#a75364929cf1f8f9e75992a8a8c3b589f" target="_top" xlink:title="Riceve una stringa contenente uan richiesta da parte del client e la gestisce.">
<polygon fill="white" stroke="black" points="168.5,-407.5 168.5,-426.5 247.5,-426.5 247.5,-407.5 168.5,-407.5"/>
<text text-anchor="middle" x="208" y="-414.5" font-family="Helvetica,sans-Serif" font-size="10.00">Session.parse</text>
</a>
</g>
</g>
<!-- Node1&#45;&gt;Node8 -->
<g id="edge7" class="edge"><title>Node1&#45;&gt;Node8</title>
<path fill="none" stroke="midnightblue" d="M96.3466,-388.589C115.701,-393.558 139.53,-399.677 160.113,-404.961"/>
<polygon fill="midnightblue" stroke="midnightblue" points="159.366,-408.383 169.922,-407.48 161.107,-401.603 159.366,-408.383"/>
</g>
<!-- Node9 -->
<g id="node9" class="node"><title>Node9</title>
<g id="a_node9"><a xlink:href="class_session.html#a56e3ffab046de2082083cfc54b5d8e72" target="_top" xlink:title="Gestisce effettivamente la richiesta del client.">
<polygon fill="white" stroke="black" points="300,-275.5 300,-294.5 392,-294.5 392,-275.5 300,-275.5"/>
<text text-anchor="middle" x="346" y="-282.5" font-family="Helvetica,sans-Serif" font-size="10.00">Session.compute</text>
</a>
</g>
</g>
<!-- Node8&#45;&gt;Node9 -->
<g id="edge8" class="edge"><title>Node8&#45;&gt;Node9</title>
<path fill="none" stroke="midnightblue" d="M246.66,-407.491C252.788,-404.985 258.817,-401.865 264,-398 298.013,-372.636 323.507,-328.827 336.144,-303.862"/>
<polygon fill="midnightblue" stroke="midnightblue" points="339.369,-305.234 340.623,-294.713 333.082,-302.155 339.369,-305.234"/>
</g>
<!-- Node10 -->
<g id="node10" class="node"><title>Node10</title>
<g id="a_node10"><a xlink:href="class_word_quizzle_server_service.html#a9b03b4a431c18e8d8385217e3fbd9a0a" target="_top" xlink:title="Accetta una richiesta di sfida inviata da nickAmico.">
<polygon fill="white" stroke="black" points="429.5,-84 429.5,-114 596.5,-114 596.5,-84 429.5,-84"/>
<text text-anchor="start" x="437.5" y="-102" font-family="Helvetica,sans-Serif" font-size="10.00">WordQuizzleServerService.accetta</text>
<text text-anchor="middle" x="513" y="-91" font-family="Helvetica,sans-Serif" font-size="10.00">Sfida</text>
</a>
</g>
</g>
<!-- Node9&#45;&gt;Node10 -->
<g id="edge9" class="edge"><title>Node9&#45;&gt;Node10</title>
<path fill="none" stroke="midnightblue" d="M349.026,-275.359C355.387,-247.497 377.616,-166.178 428,-124 430.042,-122.291 432.197,-120.698 434.44,-119.215"/>
<polygon fill="midnightblue" stroke="midnightblue" points="436.556,-122.036 443.479,-114.016 433.065,-115.968 436.556,-122.036"/>
</g>
<!-- Node21 -->
<g id="node21" class="node"><title>Node21</title>
<g id="a_node21"><a xlink:href="class_word_quizzle_server_service.html#a378a2523ed3c3c05001a6a3f5216ca82" target="_top" xlink:title="Aggiunge un utente alla lista di amici di nickUtente.">
<polygon fill="white" stroke="black" points="428,-396 428,-426 598,-426 598,-396 428,-396"/>
<text text-anchor="start" x="436" y="-414" font-family="Helvetica,sans-Serif" font-size="10.00">WordQuizzleServerService.aggiungi</text>
<text text-anchor="middle" x="513" y="-403" font-family="Helvetica,sans-Serif" font-size="10.00">_amico</text>
</a>
</g>
</g>
<!-- Node9&#45;&gt;Node21 -->
<g id="edge21" class="edge"><title>Node9&#45;&gt;Node21</title>
<path fill="none" stroke="midnightblue" d="M352.069,-294.684C363.097,-314.8 391.257,-361.289 428,-386 430.93,-387.97 434.018,-389.789 437.213,-391.467"/>
<polygon fill="midnightblue" stroke="midnightblue" points="435.916,-394.725 446.453,-395.833 438.907,-388.396 435.916,-394.725"/>
</g>
<!-- Node23 -->
<g id="node23" class="node"><title>Node23</title>
<g id="a_node23"><a xlink:href="class_word_quizzle_server_service.html#a7d1e0c830ff9c94df196ed2d4e49e703" target="_top" xlink:title="Restituisce la lista degli amici di nickUtente.">
<polygon fill="white" stroke="black" points="437,-270 437,-300 589,-300 589,-270 437,-270"/>
<text text-anchor="start" x="445" y="-288" font-family="Helvetica,sans-Serif" font-size="10.00">WordQuizzleServerService.lista</text>
<text text-anchor="middle" x="513" y="-277" font-family="Helvetica,sans-Serif" font-size="10.00">_amici</text>
</a>
</g>
</g>
<!-- Node9&#45;&gt;Node23 -->
<g id="edge24" class="edge"><title>Node9&#45;&gt;Node23</title>
<path fill="none" stroke="midnightblue" d="M392.087,-285C402.896,-285 414.792,-285 426.765,-285"/>
<polygon fill="midnightblue" stroke="midnightblue" points="426.818,-288.5 436.818,-285 426.818,-281.5 426.818,-288.5"/>
</g>
<!-- Node25 -->
<g id="node25" class="node"><title>Node25</title>
<g id="a_node25"><a xlink:href="class_word_quizzle_server_service.html#afa50bcf7855d98e8198b2021a91326dd" target="_top" xlink:title="Effettua il login specificando l&#39;indirizzo per la connessione UDP.">
<polygon fill="white" stroke="black" points="435.5,-357.5 435.5,-376.5 590.5,-376.5 590.5,-357.5 435.5,-357.5"/>
<text text-anchor="middle" x="513" y="-364.5" font-family="Helvetica,sans-Serif" font-size="10.00">WordQuizzleServerService.login</text>
</a>
</g>
</g>
<!-- Node9&#45;&gt;Node25 -->
<g id="edge28" class="edge"><title>Node9&#45;&gt;Node25</title>
<path fill="none" stroke="midnightblue" d="M356.513,-294.736C370.743,-308.714 399.011,-334.291 428,-348 433.195,-350.457 438.724,-352.604 444.37,-354.48"/>
<polygon fill="midnightblue" stroke="midnightblue" points="443.356,-357.83 453.941,-357.386 445.39,-351.132 443.356,-357.83"/>
</g>
<!-- Node28 -->
<g id="node28" class="node"><title>Node28</title>
<g id="a_node28"><a xlink:href="class_word_quizzle_server_service.html#a277b16eeb84a3171777351f482157c0b" target="_top" xlink:title="Effettua il logout.">
<polygon fill="white" stroke="black" points="432.5,-319.5 432.5,-338.5 593.5,-338.5 593.5,-319.5 432.5,-319.5"/>
<text text-anchor="middle" x="513" y="-326.5" font-family="Helvetica,sans-Serif" font-size="10.00">WordQuizzleServerService.logout</text>
</a>
</g>
</g>
<!-- Node9&#45;&gt;Node28 -->
<g id="edge33" class="edge"><title>Node9&#45;&gt;Node28</title>
<path fill="none" stroke="midnightblue" d="M376.087,-294.571C391.444,-299.474 410.653,-305.368 428,-310 437.328,-312.49 447.294,-314.933 456.983,-317.194"/>
<polygon fill="midnightblue" stroke="midnightblue" points="456.412,-320.654 466.942,-319.479 457.978,-313.831 456.412,-320.654"/>
</g>
<!-- Node29 -->
<g id="node29" class="node"><title>Node29</title>
<g id="a_node29"><a xlink:href="class_word_quizzle_server_service.html#ad8f2f775c4d322ac50c25dbc2b673505" target="_top" xlink:title="Restituisce la classifica dell&#39;utente e dei suoi amici.">
<polygon fill="white" stroke="black" points="431,-221 431,-251 595,-251 595,-221 431,-221"/>
<text text-anchor="start" x="439" y="-239" font-family="Helvetica,sans-Serif" font-size="10.00">WordQuizzleServerService.mostra</text>
<text text-anchor="middle" x="513" y="-228" font-family="Helvetica,sans-Serif" font-size="10.00">_classifica</text>
</a>
</g>
</g>
<!-- Node9&#45;&gt;Node29 -->
<g id="edge34" class="edge"><title>Node9&#45;&gt;Node29</title>
<path fill="none" stroke="midnightblue" d="M379.205,-275.436C399.821,-269.314 427.213,-261.179 451.762,-253.889"/>
<polygon fill="midnightblue" stroke="midnightblue" points="452.776,-257.239 461.365,-251.037 450.783,-250.529 452.776,-257.239"/>
</g>
<!-- Node31 -->
<g id="node31" class="node"><title>Node31</title>
<g id="a_node31"><a xlink:href="class_word_quizzle_server_service.html#a8002d35c102aec827bb58c4f1ca7b295" target="_top" xlink:title="Restituisce il punteggio di nickUtente.">
<polygon fill="white" stroke="black" points="431,-172 431,-202 595,-202 595,-172 431,-172"/>
<text text-anchor="start" x="439" y="-190" font-family="Helvetica,sans-Serif" font-size="10.00">WordQuizzleServerService.mostra</text>
<text text-anchor="middle" x="513" y="-179" font-family="Helvetica,sans-Serif" font-size="10.00">_punteggio</text>
</a>
</g>
</g>
<!-- Node9&#45;&gt;Node31 -->
<g id="edge39" class="edge"><title>Node9&#45;&gt;Node31</title>
<path fill="none" stroke="midnightblue" d="M354.969,-275.476C368.448,-259.96 397.293,-229.232 428,-212 431.912,-209.805 436.038,-207.783 440.275,-205.925"/>
<polygon fill="midnightblue" stroke="midnightblue" points="441.735,-209.11 449.691,-202.113 439.109,-202.621 441.735,-209.11"/>
</g>
<!-- Node32 -->
<g id="node32" class="node"><title>Node32</title>
<g id="a_node32"><a xlink:href="class_word_quizzle_server_service.html#afc47f0b66a46f079c4bed5e579e9a173" target="_top" xlink:title="Invia una richiesta di sfida ad un amico di nickUtente.">
<polygon fill="white" stroke="black" points="435.5,-133.5 435.5,-152.5 590.5,-152.5 590.5,-133.5 435.5,-133.5"/>
<text text-anchor="middle" x="513" y="-140.5" font-family="Helvetica,sans-Serif" font-size="10.00">WordQuizzleServerService.sfida</text>
</a>
</g>
</g>
<!-- Node9&#45;&gt;Node32 -->
<g id="edge43" class="edge"><title>Node9&#45;&gt;Node32</title>
<path fill="none" stroke="midnightblue" d="M350.535,-275.275C359.542,-251.942 385.675,-192.533 428,-163 431.527,-160.539 435.318,-158.379 439.27,-156.482"/>
<polygon fill="midnightblue" stroke="midnightblue" points="440.863,-159.61 448.735,-152.519 438.159,-153.153 440.863,-159.61"/>
</g>
<!-- Node11 -->
<g id="node11" class="node"><title>Node11</title>
<g id="a_node11"><a xlink:href="interface_data_base.html#a580f93c56dbbed8b2fb1fc2e856efe68" target="_top" xlink:title="Controlla che quel nome utente sia nel database.">
<polygon fill="white" stroke="black" points="638.5,-247.5 638.5,-266.5 747.5,-266.5 747.5,-247.5 638.5,-247.5"/>
<text text-anchor="middle" x="693" y="-254.5" font-family="Helvetica,sans-Serif" font-size="10.00">DataBase.checkUser</text>
</a>
</g>
</g>
<!-- Node10&#45;&gt;Node11 -->
<g id="edge10" class="edge"><title>Node10&#45;&gt;Node11</title>
<path fill="none" stroke="midnightblue" d="M584.831,-114.146C589.627,-116.904 594.095,-120.159 598,-124 635.881,-161.257 596.631,-200.229 634,-238 635.453,-239.469 637.022,-240.824 638.679,-242.075"/>
<polygon fill="midnightblue" stroke="midnightblue" points="637.227,-245.288 647.589,-247.495 640.865,-239.308 637.227,-245.288"/>
</g>
<!-- Node12 -->
<g id="node12" class="node"><title>Node12</title>
<g id="a_node12"><a xlink:href="class_challenge.html#ae2de3ea233827168e5869b9ac429af6a" target="_top" xlink:title="Restituisce il tempo di creazione della sfida.">
<polygon fill="white" stroke="black" points="634,-95.5 634,-114.5 752,-114.5 752,-95.5 634,-95.5"/>
<text text-anchor="middle" x="693" y="-102.5" font-family="Helvetica,sans-Serif" font-size="10.00">Challenge.getStartTime</text>
</a>
</g>
</g>
<!-- Node10&#45;&gt;Node12 -->
<g id="edge11" class="edge"><title>Node10&#45;&gt;Node12</title>
<path fill="none" stroke="midnightblue" d="M596.747,-101.789C605.752,-102.093 614.843,-102.399 623.648,-102.696"/>
<polygon fill="midnightblue" stroke="midnightblue" points="623.719,-106.2 633.832,-103.039 623.955,-99.2043 623.719,-106.2"/>
</g>
<!-- Node13 -->
<g id="node13" class="node"><title>Node13</title>
<g id="a_node13"><a xlink:href="interface_data_base.html#af660eaf16066006da658ac99fa3f6936" target="_top" xlink:title="Dato un nome utente ottiene l&#39;oggetto User corrispondente.">
<polygon fill="white" stroke="black" points="645,-209.5 645,-228.5 741,-228.5 741,-209.5 645,-209.5"/>
<text text-anchor="middle" x="693" y="-216.5" font-family="Helvetica,sans-Serif" font-size="10.00">DataBase.getUser</text>
</a>
</g>
</g>
<!-- Node10&#45;&gt;Node13 -->
<g id="edge12" class="edge"><title>Node10&#45;&gt;Node13</title>
<path fill="none" stroke="midnightblue" d="M583.035,-114.11C588.414,-116.871 593.495,-120.137 598,-124 626.372,-148.33 605.962,-175.285 634,-200 635.913,-201.686 637.978,-203.223 640.151,-204.624"/>
<polygon fill="midnightblue" stroke="midnightblue" points="638.504,-207.712 648.966,-209.381 641.828,-201.552 638.504,-207.712"/>
</g>
<!-- Node14 -->
<g id="node14" class="node"><title>Node14</title>
<g id="a_node14"><a xlink:href="class_user.html#acc6836fc440a040d322d2e1eb31d92fe" target="_top" xlink:title="Verifica se un nome utente e&#39; amico dell&#39;utente.">
<polygon fill="white" stroke="black" points="656,-133.5 656,-152.5 730,-152.5 730,-133.5 656,-133.5"/>
<text text-anchor="middle" x="693" y="-140.5" font-family="Helvetica,sans-Serif" font-size="10.00">User.isFriend</text>
</a>
</g>
</g>
<!-- Node10&#45;&gt;Node14 -->
<g id="edge13" class="edge"><title>Node10&#45;&gt;Node14</title>
<path fill="none" stroke="midnightblue" d="M574.76,-114.019C598.061,-119.779 624.243,-126.251 645.944,-131.615"/>
<polygon fill="midnightblue" stroke="midnightblue" points="645.341,-135.072 655.889,-134.074 647.021,-128.276 645.341,-135.072"/>
</g>
<!-- Node15 -->
<g id="node15" class="node"><title>Node15</title>
<g id="a_node15"><a xlink:href="class_challenge.html#a650e2bfde93fe29ad14a4f7fdcb3c4b9" target="_top" xlink:title="Aggiunge l&#39;utente sfidato alla sfida e la avvia.">
<polygon fill="white" stroke="black" points="638.5,-57.5 638.5,-76.5 747.5,-76.5 747.5,-57.5 638.5,-57.5"/>
<text text-anchor="middle" x="693" y="-64.5" font-family="Helvetica,sans-Serif" font-size="10.00">Challenge.setPlayer2</text>
</a>
</g>
</g>
<!-- Node10&#45;&gt;Node15 -->
<g id="edge14" class="edge"><title>Node10&#45;&gt;Node15</title>
<path fill="none" stroke="midnightblue" d="M596.747,-84.1242C607.617,-82.1699 618.613,-80.1932 629.08,-78.3114"/>
<polygon fill="midnightblue" stroke="midnightblue" points="629.71,-81.7544 638.933,-76.5401 628.472,-74.8648 629.71,-81.7544"/>
</g>
<!-- Node15&#45;&gt;Node3 -->
<g id="edge15" class="edge"><title>Node15&#45;&gt;Node3</title>
<path fill="none" stroke="midnightblue" d="M737.467,-76.5997C742.762,-79.0539 747.782,-82.1342 752,-86 782.255,-113.726 822.11,-232.633 837.027,-279.706"/>
<polygon fill="midnightblue" stroke="midnightblue" points="833.71,-280.827 840.042,-289.321 840.389,-278.732 833.71,-280.827"/>
</g>
<!-- Node16 -->
<g id="node16" class="node"><title>Node16</title>
<g id="a_node16"><a xlink:href="class_player.html#a675262b26b676f6b3e9e4bde04156050" target="_top" xlink:title="Restituisce l&#39;indice della prossima domanda da sottoporre al giocatore.">
<polygon fill="white" stroke="black" points="803.5,-0.5 803.5,-19.5 884.5,-19.5 884.5,-0.5 803.5,-0.5"/>
<text text-anchor="middle" x="844" y="-7.5" font-family="Helvetica,sans-Serif" font-size="10.00">Player.getNext</text>
</a>
</g>
</g>
<!-- Node15&#45;&gt;Node16 -->
<g id="edge16" class="edge"><title>Node15&#45;&gt;Node16</title>
<path fill="none" stroke="midnightblue" d="M716.665,-57.4555C735.625,-49.5635 763.439,-38.1999 788,-29 793.321,-27.0067 798.96,-24.9721 804.519,-23.0105"/>
<polygon fill="midnightblue" stroke="midnightblue" points="806.063,-26.179 814.354,-19.5832 803.759,-19.5689 806.063,-26.179"/>
</g>
<!-- Node18 -->
<g id="node18" class="node"><title>Node18</title>
<g id="a_node18"><a xlink:href="class_player.html#aee96b4ebaa44ec51fd653c4079723bb8" target="_top" xlink:title="Restituisce la sessione del giocatore.">
<polygon fill="white" stroke="black" points="796,-114.5 796,-133.5 892,-133.5 892,-114.5 796,-114.5"/>
<text text-anchor="middle" x="844" y="-121.5" font-family="Helvetica,sans-Serif" font-size="10.00">Player.getSession</text>
</a>
</g>
</g>
<!-- Node15&#45;&gt;Node18 -->
<g id="edge18" class="edge"><title>Node15&#45;&gt;Node18</title>
<path fill="none" stroke="midnightblue" d="M726.57,-76.5991C734.96,-79.3619 743.903,-82.5663 752,-86 768.656,-93.0635 771.401,-97.8031 788,-105 792.801,-107.082 797.911,-109.099 803.008,-110.992"/>
<polygon fill="midnightblue" stroke="midnightblue" points="802.115,-114.39 812.709,-114.465 804.474,-107.8 802.115,-114.39"/>
</g>
<!-- Node19 -->
<g id="node19" class="node"><title>Node19</title>
<g id="a_node19"><a xlink:href="class_session.html#a8ab972666e7c0d311d4731d9eee566d2" target="_top" xlink:title="Imposta la risposta da inviare al client.">
<polygon fill="white" stroke="black" points="788,-76.5 788,-95.5 900,-95.5 900,-76.5 788,-76.5"/>
<text text-anchor="middle" x="844" y="-83.5" font-family="Helvetica,sans-Serif" font-size="10.00">Session.setResponse</text>
</a>
</g>
</g>
<!-- Node15&#45;&gt;Node19 -->
<g id="edge19" class="edge"><title>Node15&#45;&gt;Node19</title>
<path fill="none" stroke="midnightblue" d="M747.792,-73.8594C757.545,-75.1031 767.812,-76.4123 777.85,-77.6922"/>
<polygon fill="midnightblue" stroke="midnightblue" points="777.42,-81.1657 787.783,-78.9588 778.306,-74.2219 777.42,-81.1657"/>
</g>
<!-- Node20 -->
<g id="node20" class="node"><title>Node20</title>
<g id="a_node20"><a xlink:href="class_translator.html#ad52c8ccdf35d16a095786e5e052b333a" target="_top" xlink:title="Traduce una parola dall&#39;italiano all&#39;inglese.">
<polygon fill="white" stroke="black" points="794,-38.5 794,-57.5 894,-57.5 894,-38.5 794,-38.5"/>
<text text-anchor="middle" x="844" y="-45.5" font-family="Helvetica,sans-Serif" font-size="10.00">Translator.translate</text>
</a>
</g>
</g>
<!-- Node15&#45;&gt;Node20 -->
<g id="edge20" class="edge"><title>Node15&#45;&gt;Node20</title>
<path fill="none" stroke="midnightblue" d="M747.792,-60.1406C759.397,-58.6607 771.731,-57.088 783.538,-55.5824"/>
<polygon fill="midnightblue" stroke="midnightblue" points="784.27,-59.0175 793.747,-54.2806 783.385,-52.0737 784.27,-59.0175"/>
</g>
<!-- Node17 -->
<g id="node17" class="node"><title>Node17</title>
<g id="a_node17"><a xlink:href="class_word_quizzle_server_service.html#a445af71c2bed6349e5239893b2e0ca8c" target="_top" xlink:title="Restituisce il numero di parole per sfida.">
<polygon fill="white" stroke="black" points="936,-0.5 936,-19.5 1091,-19.5 1091,-0.5 936,-0.5"/>
<text text-anchor="middle" x="1013.5" y="-7.5" font-family="Helvetica,sans-Serif" font-size="10.00">WordQuizzleServerService.getK</text>
</a>
</g>
</g>
<!-- Node16&#45;&gt;Node17 -->
<g id="edge17" class="edge"><title>Node16&#45;&gt;Node17</title>
<path fill="none" stroke="midnightblue" d="M884.695,-10C897.073,-10 911.245,-10 925.543,-10"/>
<polygon fill="midnightblue" stroke="midnightblue" points="925.952,-13.5001 935.951,-10 925.951,-6.5001 925.952,-13.5001"/>
</g>
<!-- Node21&#45;&gt;Node11 -->
<g id="edge22" class="edge"><title>Node21&#45;&gt;Node11</title>
<path fill="none" stroke="midnightblue" d="M584.787,-395.809C589.592,-393.061 594.075,-389.821 598,-386 634.862,-350.121 597.631,-312.379 634,-276 635.461,-274.539 637.036,-273.19 638.699,-271.945"/>
<polygon fill="midnightblue" stroke="midnightblue" points="640.883,-274.714 647.628,-266.543 637.26,-268.724 640.883,-274.714"/>
</g>
<!-- Node22 -->
<g id="node22" class="node"><title>Node22</title>
<g id="a_node22"><a xlink:href="interface_data_base.html#a4b079bd92d1ca63624e4f01398eb29db" target="_top" xlink:title="Crea un link (amicizia) non orientato tra due utenti.">
<polygon fill="white" stroke="black" points="654.5,-401.5 654.5,-420.5 731.5,-420.5 731.5,-401.5 654.5,-401.5"/>
<text text-anchor="middle" x="693" y="-408.5" font-family="Helvetica,sans-Serif" font-size="10.00">DataBase.link</text>
</a>
</g>
</g>
<!-- Node21&#45;&gt;Node22 -->
<g id="edge23" class="edge"><title>Node21&#45;&gt;Node22</title>
<path fill="none" stroke="midnightblue" d="M598.048,-411C613.839,-411 629.838,-411 644.049,-411"/>
<polygon fill="midnightblue" stroke="midnightblue" points="644.052,-414.5 654.052,-411 644.052,-407.5 644.052,-414.5"/>
</g>
<!-- Node23&#45;&gt;Node11 -->
<g id="edge25" class="edge"><title>Node23&#45;&gt;Node11</title>
<path fill="none" stroke="midnightblue" d="M589.23,-273.166C602.257,-271.117 615.688,-269.004 628.369,-267.009"/>
<polygon fill="midnightblue" stroke="midnightblue" points="629.021,-270.45 638.356,-265.438 627.933,-263.535 629.021,-270.45"/>
</g>
<!-- Node23&#45;&gt;Node13 -->
<g id="edge27" class="edge"><title>Node23&#45;&gt;Node13</title>
<path fill="none" stroke="midnightblue" d="M574.865,-269.89C582.777,-267.267 590.671,-264.303 598,-261 615.31,-253.199 616.842,-246.131 634,-238 638.61,-235.816 643.536,-233.781 648.498,-231.917"/>
<polygon fill="midnightblue" stroke="midnightblue" points="649.752,-235.186 658.009,-228.548 647.415,-228.588 649.752,-235.186"/>
</g>
<!-- Node24 -->
<g id="node24" class="node"><title>Node24</title>
<g id="a_node24"><a xlink:href="class_user.html#acd2375afad399d1deb32cb9667b8a1cd" target="_top" xlink:title="Restituisce la lista di amici dell&#39;utente.">
<polygon fill="white" stroke="black" points="650,-285.5 650,-304.5 736,-304.5 736,-285.5 650,-285.5"/>
<text text-anchor="middle" x="693" y="-292.5" font-family="Helvetica,sans-Serif" font-size="10.00">User.getFriends</text>
</a>
</g>
</g>
<!-- Node23&#45;&gt;Node24 -->
<g id="edge26" class="edge"><title>Node23&#45;&gt;Node24</title>
<path fill="none" stroke="midnightblue" d="M589.23,-289.226C606.198,-290.18 623.85,-291.171 639.638,-292.058"/>
<polygon fill="midnightblue" stroke="midnightblue" points="639.538,-295.558 649.719,-292.625 639.931,-288.569 639.538,-295.558"/>
</g>
<!-- Node25&#45;&gt;Node11 -->
<g id="edge29" class="edge"><title>Node25&#45;&gt;Node11</title>
<path fill="none" stroke="midnightblue" d="M581.598,-357.488C587.476,-354.988 593.058,-351.874 598,-348 626.158,-325.929 606.911,-299.371 634,-276 635.966,-274.304 638.086,-272.759 640.314,-271.351"/>
<polygon fill="midnightblue" stroke="midnightblue" points="642.139,-274.345 649.338,-266.573 638.863,-268.159 642.139,-274.345"/>
</g>
<!-- Node25&#45;&gt;Node13 -->
<g id="edge31" class="edge"><title>Node25&#45;&gt;Node13</title>
<path fill="none" stroke="midnightblue" d="M583.857,-357.452C588.993,-354.933 593.798,-351.825 598,-348 636.04,-313.372 597.631,-274.379 634,-238 635.461,-236.539 637.036,-235.19 638.699,-233.945"/>
<polygon fill="midnightblue" stroke="midnightblue" points="640.883,-236.714 647.628,-228.543 637.26,-230.724 640.883,-236.714"/>
</g>
<!-- Node26 -->
<g id="node26" class="node"><title>Node26</title>
<g id="a_node26"><a xlink:href="class_user.html#a1612cd6eef2a6e09ab5e72033b2aad00" target="_top" xlink:title="Restituisce la password dell&#39;utente.">
<polygon fill="white" stroke="black" points="645,-362.5 645,-381.5 741,-381.5 741,-362.5 645,-362.5"/>
<text text-anchor="middle" x="693" y="-369.5" font-family="Helvetica,sans-Serif" font-size="10.00">User.getPassword</text>
</a>
</g>
</g>
<!-- Node25&#45;&gt;Node26 -->
<g id="edge30" class="edge"><title>Node25&#45;&gt;Node26</title>
<path fill="none" stroke="midnightblue" d="M590.521,-369.149C605.382,-369.567 620.717,-369.998 634.824,-370.394"/>
<polygon fill="midnightblue" stroke="midnightblue" points="634.76,-373.893 644.854,-370.676 634.956,-366.896 634.76,-373.893"/>
</g>
<!-- Node27 -->
<g id="node27" class="node"><title>Node27</title>
<g id="a_node27"><a xlink:href="class_session.html#aeb6b2a4acab3e9a3f866e9295999b1b6" target="_top" xlink:title="Imposta l&#39;indirizzo UDP del client a cui inviare le richieste di sfida.">
<polygon fill="white" stroke="black" points="650,-324.5 650,-343.5 736,-343.5 736,-324.5 650,-324.5"/>
<text text-anchor="middle" x="693" y="-331.5" font-family="Helvetica,sans-Serif" font-size="10.00">Session.setUdp</text>
</a>
</g>
</g>
<!-- Node25&#45;&gt;Node27 -->
<g id="edge32" class="edge"><title>Node25&#45;&gt;Node27</title>
<path fill="none" stroke="midnightblue" d="M565.485,-357.455C588.829,-353.127 616.388,-348.018 639.815,-343.675"/>
<polygon fill="midnightblue" stroke="midnightblue" points="640.722,-347.066 649.917,-341.802 639.446,-340.184 640.722,-347.066"/>
</g>
<!-- Node29&#45;&gt;Node11 -->
<g id="edge35" class="edge"><title>Node29&#45;&gt;Node11</title>
<path fill="none" stroke="midnightblue" d="M595.187,-245.578C606.304,-246.89 617.586,-248.221 628.33,-249.488"/>
<polygon fill="midnightblue" stroke="midnightblue" points="628.102,-252.986 638.443,-250.682 628.922,-246.034 628.102,-252.986"/>
</g>
<!-- Node29&#45;&gt;Node13 -->
<g id="edge38" class="edge"><title>Node29&#45;&gt;Node13</title>
<path fill="none" stroke="midnightblue" d="M595.187,-228.246C608.511,-226.974 622.07,-225.679 634.657,-224.477"/>
<polygon fill="midnightblue" stroke="midnightblue" points="635.354,-227.926 644.976,-223.491 634.689,-220.958 635.354,-227.926"/>
</g>
<!-- Node29&#45;&gt;Node24 -->
<g id="edge36" class="edge"><title>Node29&#45;&gt;Node24</title>
<path fill="none" stroke="midnightblue" d="M567.598,-251.031C577.757,-254.139 588.253,-257.53 598,-261 614.329,-266.814 617.752,-269.964 634,-276 639.663,-278.104 645.681,-280.213 651.614,-282.221"/>
<polygon fill="midnightblue" stroke="midnightblue" points="650.849,-285.654 661.442,-285.485 653.055,-279.011 650.849,-285.654"/>
</g>
<!-- Node30 -->
<g id="node30" class="node"><title>Node30</title>
<g id="a_node30"><a xlink:href="class_user.html#a6c657437f72c2867ca353762cfbcf400" target="_top" xlink:title="Restituisce il punteggio dell&#39;utente.">
<polygon fill="white" stroke="black" points="653.5,-171.5 653.5,-190.5 732.5,-190.5 732.5,-171.5 653.5,-171.5"/>
<text text-anchor="middle" x="693" y="-178.5" font-family="Helvetica,sans-Serif" font-size="10.00">User.getScore</text>
</a>
</g>
</g>
<!-- Node29&#45;&gt;Node30 -->
<g id="edge37" class="edge"><title>Node29&#45;&gt;Node30</title>
<path fill="none" stroke="midnightblue" d="M567.876,-220.982C577.912,-218.078 588.292,-215.003 598,-212 614.112,-207.016 617.986,-205.292 634,-200 640.14,-197.971 646.649,-195.829 653.002,-193.744"/>
<polygon fill="midnightblue" stroke="midnightblue" points="654.369,-196.98 662.782,-190.539 652.189,-190.328 654.369,-196.98"/>
</g>
<!-- Node31&#45;&gt;Node11 -->
<g id="edge40" class="edge"><title>Node31&#45;&gt;Node11</title>
<path fill="none" stroke="midnightblue" d="M573.702,-202.045C582.035,-204.924 590.355,-208.237 598,-212 615.708,-220.716 616.413,-229.044 634,-238 638.261,-240.17 642.822,-242.165 647.444,-243.98"/>
<polygon fill="midnightblue" stroke="midnightblue" points="646.35,-247.306 656.943,-247.45 648.751,-240.731 646.35,-247.306"/>
</g>
<!-- Node31&#45;&gt;Node13 -->
<g id="edge42" class="edge"><title>Node31&#45;&gt;Node13</title>
<path fill="none" stroke="midnightblue" d="M595.187,-201.595C608.644,-204.015 622.341,-206.477 635.035,-208.759"/>
<polygon fill="midnightblue" stroke="midnightblue" points="634.515,-212.222 644.976,-210.546 635.753,-205.332 634.515,-212.222"/>
</g>
<!-- Node31&#45;&gt;Node30 -->
<g id="edge41" class="edge"><title>Node31&#45;&gt;Node30</title>
<path fill="none" stroke="midnightblue" d="M595.187,-184.263C611.419,-183.716 628,-183.157 642.749,-182.66"/>
<polygon fill="midnightblue" stroke="midnightblue" points="643.257,-186.145 653.133,-182.31 643.021,-179.149 643.257,-186.145"/>
</g>
<!-- Node32&#45;&gt;Node11 -->
<g id="edge44" class="edge"><title>Node32&#45;&gt;Node11</title>
<path fill="none" stroke="midnightblue" d="M580.001,-152.558C586.48,-155.254 592.632,-158.672 598,-163 626.785,-186.206 606.201,-213.622 634,-238 635.952,-239.712 638.061,-241.27 640.28,-242.688"/>
<polygon fill="midnightblue" stroke="midnightblue" points="638.811,-245.871 649.281,-247.493 642.108,-239.696 638.811,-245.871"/>
</g>
<!-- Node32&#45;&gt;Node12 -->
<g id="edge45" class="edge"><title>Node32&#45;&gt;Node12</title>
<path fill="none" stroke="midnightblue" d="M558.917,-133.411C582.829,-128.306 612.421,-121.989 637.625,-116.608"/>
<polygon fill="midnightblue" stroke="midnightblue" points="638.357,-120.031 647.406,-114.52 636.896,-113.185 638.357,-120.031"/>
</g>
<!-- Node32&#45;&gt;Node13 -->
<g id="edge46" class="edge"><title>Node32&#45;&gt;Node13</title>
<path fill="none" stroke="midnightblue" d="M573.008,-152.544C581.701,-155.216 590.309,-158.633 598,-163 617.952,-174.329 614.534,-187.855 634,-200 637.343,-202.086 640.939,-203.967 644.643,-205.658"/>
<polygon fill="midnightblue" stroke="midnightblue" points="643.412,-208.936 653.993,-209.48 646.061,-202.456 643.412,-208.936"/>
</g>
<!-- Node32&#45;&gt;Node14 -->
<g id="edge47" class="edge"><title>Node32&#45;&gt;Node14</title>
<path fill="none" stroke="midnightblue" d="M590.521,-143C609.249,-143 628.728,-143 645.554,-143"/>
<polygon fill="midnightblue" stroke="midnightblue" points="645.657,-146.5 655.657,-143 645.657,-139.5 645.657,-146.5"/>
</g>
</g>
</svg>
