<?xml version="1.0" encoding="UTF-8" standalone="no"?>
<!DOCTYPE svg PUBLIC "-//W3C//DTD SVG 1.1//EN"
 "http://www.w3.org/Graphics/SVG/1.1/DTD/svg11.dtd">
<!-- Generated by graphviz version 2.38.0 (20140413.2041)
 -->
<!-- Title: WordQuizzle.WQGui.makeLogin Pages: 1 -->
<svg width="631pt" height="116pt"
 viewBox="0.00 0.00 631.00 115.50" xmlns="http://www.w3.org/2000/svg" xmlns:xlink="http://www.w3.org/1999/xlink">
<g id="graph0" class="graph" transform="scale(1 1) rotate(0) translate(4 111.5)">
<title>WordQuizzle.WQGui.makeLogin</title>
<polygon fill="white" stroke="none" points="-4,4 -4,-111.5 627,-111.5 627,4 -4,4"/>
<!-- Node1 -->
<g id="node1" class="node"><title>Node1</title>
<g id="a_node1"><a xlink:title="Crea la finestra di login e registrazione.">
<polygon fill="#bfbfbf" stroke="black" points="0,-50 0,-69 158,-69 158,-50 0,-50"/>
<text text-anchor="middle" x="79" y="-57" font-family="Helvetica,sans-Serif" font-size="10.00">WordQuizzle.WQGui.makeLogin</text>
</a>
</g>
</g>
<!-- Node2 -->
<g id="node2" class="node"><title>Node2</title>
<g id="a_node2"><a xlink:href="class_word_quizzle_1_1_word_quizzle_client.html#ac3bc8ed188b4ea2e614d90b280349857" target="_top" xlink:title="Restituisce il nome utente corrente.">
<polygon fill="white" stroke="black" points="194,-88 194,-107 388,-107 388,-88 194,-88"/>
<text text-anchor="middle" x="291" y="-95" font-family="Helvetica,sans-Serif" font-size="10.00">WordQuizzle.WordQuizzleClient.getUser</text>
</a>
</g>
</g>
<!-- Node1&#45;&gt;Node2 -->
<g id="edge1" class="edge"><title>Node1&#45;&gt;Node2</title>
<path fill="none" stroke="midnightblue" d="M132.721,-69.04C161.429,-74.2348 197.137,-80.6963 227.27,-86.1489"/>
<polygon fill="midnightblue" stroke="midnightblue" points="226.794,-89.6195 237.258,-87.9561 228.041,-82.7314 226.794,-89.6195"/>
</g>
<!-- Node3 -->
<g id="node3" class="node"><title>Node3</title>
<g id="a_node3"><a xlink:href="class_word_quizzle_1_1_word_quizzle_client.html#aa87c179f3a0a6ab57c2b74960c95a626" target="_top" xlink:title="Effettua il login.">
<polygon fill="white" stroke="black" points="201,-50 201,-69 381,-69 381,-50 201,-50"/>
<text text-anchor="middle" x="291" y="-57" font-family="Helvetica,sans-Serif" font-size="10.00">WordQuizzle.WordQuizzleClient.login</text>
</a>
</g>
</g>
<!-- Node1&#45;&gt;Node3 -->
<g id="edge2" class="edge"><title>Node1&#45;&gt;Node3</title>
<path fill="none" stroke="midnightblue" d="M158.196,-59.5C168.821,-59.5 179.838,-59.5 190.771,-59.5"/>
<polygon fill="midnightblue" stroke="midnightblue" points="190.775,-63.0001 200.775,-59.5 190.775,-56.0001 190.775,-63.0001"/>
</g>
<!-- Node5 -->
<g id="node5" class="node"><title>Node5</title>
<g id="a_node5"><a xlink:href="class_word_quizzle_1_1_word_quizzle_client.html#a98206956fc50ef3951d27f2a89fb21fa" target="_top" xlink:title="Registra un nuovo utente.">
<polygon fill="white" stroke="black" points="195,-0.5 195,-30.5 387,-30.5 387,-0.5 195,-0.5"/>
<text text-anchor="start" x="203" y="-18.5" font-family="Helvetica,sans-Serif" font-size="10.00">WordQuizzle.WordQuizzleClient.registra</text>
<text text-anchor="middle" x="291" y="-7.5" font-family="Helvetica,sans-Serif" font-size="10.00">_utente</text>
</a>
</g>
</g>
<!-- Node1&#45;&gt;Node5 -->
<g id="edge4" class="edge"><title>Node1&#45;&gt;Node5</title>
<path fill="none" stroke="midnightblue" d="M125.567,-49.9527C149.738,-44.8882 180.175,-38.511 208.271,-32.6242"/>
<polygon fill="midnightblue" stroke="midnightblue" points="209.027,-36.0418 218.097,-30.5654 207.592,-29.1905 209.027,-36.0418"/>
</g>
<!-- Node4 -->
<g id="node4" class="node"><title>Node4</title>
<g id="a_node4"><a xlink:href="interface_word_quizzle_1_1_word_quizzle_service.html#abae2cda062f36f0e54c9d13589c53027" target="_top" xlink:title="Effettua il login.">
<polygon fill="white" stroke="black" points="430,-50 430,-69 617,-69 617,-50 430,-50"/>
<text text-anchor="middle" x="523.5" y="-57" font-family="Helvetica,sans-Serif" font-size="10.00">WordQuizzle.WordQuizzleService.login</text>
</a>
</g>
</g>
<!-- Node3&#45;&gt;Node4 -->
<g id="edge3" class="edge"><title>Node3&#45;&gt;Node4</title>
<path fill="none" stroke="midnightblue" d="M381.117,-59.5C393.713,-59.5 406.747,-59.5 419.576,-59.5"/>
<polygon fill="midnightblue" stroke="midnightblue" points="419.808,-63.0001 429.808,-59.5 419.808,-56.0001 419.808,-63.0001"/>
</g>
<!-- Node6 -->
<g id="node6" class="node"><title>Node6</title>
<g id="a_node6"><a xlink:href="interface_word_quizzle_1_1_word_quizzle_service.html#a4abc4590c1b6009ec9afb7ba1a1022b1" target="_top" xlink:title="Registra un utente.">
<polygon fill="white" stroke="black" points="424,-0.5 424,-30.5 623,-30.5 623,-0.5 424,-0.5"/>
<text text-anchor="start" x="432" y="-18.5" font-family="Helvetica,sans-Serif" font-size="10.00">WordQuizzle.WordQuizzleService.registra</text>
<text text-anchor="middle" x="523.5" y="-7.5" font-family="Helvetica,sans-Serif" font-size="10.00">_utente</text>
</a>
</g>
</g>
<!-- Node5&#45;&gt;Node6 -->
<g id="edge5" class="edge"><title>Node5&#45;&gt;Node6</title>
<path fill="none" stroke="midnightblue" d="M387.084,-15.5C395.914,-15.5 404.907,-15.5 413.847,-15.5"/>
<polygon fill="midnightblue" stroke="midnightblue" points="413.906,-19.0001 423.906,-15.5 413.906,-12.0001 413.906,-19.0001"/>
</g>
</g>
</svg>
