<?xml version="1.0" encoding="UTF-8" standalone="no"?>
<!DOCTYPE svg PUBLIC "-//W3C//DTD SVG 1.1//EN"
 "http://www.w3.org/Graphics/SVG/1.1/DTD/svg11.dtd">
<!-- Generated by graphviz version 2.38.0 (20140413.2041)
 -->
<!-- Title: DataBaseJSON Pages: 1 -->
<svg width="388pt" height="419pt"
 viewBox="0.00 0.00 388.00 419.00" xmlns="http://www.w3.org/2000/svg" xmlns:xlink="http://www.w3.org/1999/xlink">
<g id="graph0" class="graph" transform="scale(1 1) rotate(0) translate(4 415)">
<title>DataBaseJSON</title>
<polygon fill="white" stroke="none" points="-4,4 -4,-415 384,-415 384,4 -4,4"/>
<!-- Node1 -->
<g id="node1" class="node"><title>Node1</title>
<g id="a_node1"><a xlink:title="Database che gestisce gli utenti tramite un file JSON.">
<polygon fill="#bfbfbf" stroke="black" points="197,-0.5 197,-145.5 297,-145.5 297,-0.5 197,-0.5"/>
<text text-anchor="middle" x="247" y="-133.5" font-family="Helvetica,sans-Serif" font-size="10.00">DataBaseJSON</text>
<polyline fill="none" stroke="black" points="197,-126.5 297,-126.5 "/>
<text text-anchor="start" x="205" y="-114.5" font-family="Helvetica,sans-Serif" font-size="10.00">&#45; path</text>
<polyline fill="none" stroke="black" points="197,-107.5 297,-107.5 "/>
<text text-anchor="start" x="205" y="-95.5" font-family="Helvetica,sans-Serif" font-size="10.00">+ DataBaseJSON()</text>
<text text-anchor="start" x="205" y="-84.5" font-family="Helvetica,sans-Serif" font-size="10.00">+ checkUser()</text>
<text text-anchor="start" x="205" y="-73.5" font-family="Helvetica,sans-Serif" font-size="10.00">+ getUser()</text>
<text text-anchor="start" x="205" y="-62.5" font-family="Helvetica,sans-Serif" font-size="10.00">+ newUser()</text>
<text text-anchor="start" x="205" y="-51.5" font-family="Helvetica,sans-Serif" font-size="10.00">+ modifyScore()</text>
<text text-anchor="start" x="205" y="-40.5" font-family="Helvetica,sans-Serif" font-size="10.00">+ link()</text>
<text text-anchor="start" x="205" y="-29.5" font-family="Helvetica,sans-Serif" font-size="10.00">+ toString()</text>
<text text-anchor="start" x="205" y="-18.5" font-family="Helvetica,sans-Serif" font-size="10.00">&#45; writeJSON()</text>
<text text-anchor="start" x="205" y="-7.5" font-family="Helvetica,sans-Serif" font-size="10.00">&#45; readJSON()</text>
</a>
</g>
</g>
<!-- Node2 -->
<g id="node2" class="node"><title>Node2</title>
<g id="a_node2"><a xlink:href="interface_data_base.html" target="_top" xlink:title="Database che gestisce gli utenti.">
<polygon fill="white" stroke="black" points="0,-204.5 0,-305.5 86,-305.5 86,-204.5 0,-204.5"/>
<text text-anchor="middle" x="43" y="-293.5" font-family="Helvetica,sans-Serif" font-size="10.00">DataBase</text>
<polyline fill="none" stroke="black" points="0,-286.5 86,-286.5 "/>
<text text-anchor="middle" x="43" y="-274.5" font-family="Helvetica,sans-Serif" font-size="10.00"> </text>
<polyline fill="none" stroke="black" points="0,-267.5 86,-267.5 "/>
<text text-anchor="start" x="8" y="-255.5" font-family="Helvetica,sans-Serif" font-size="10.00">+ checkUser()</text>
<text text-anchor="start" x="8" y="-244.5" font-family="Helvetica,sans-Serif" font-size="10.00">+ getUser()</text>
<text text-anchor="start" x="8" y="-233.5" font-family="Helvetica,sans-Serif" font-size="10.00">+ newUser()</text>
<text text-anchor="start" x="8" y="-222.5" font-family="Helvetica,sans-Serif" font-size="10.00">+ modifyScore()</text>
<text text-anchor="start" x="8" y="-211.5" font-family="Helvetica,sans-Serif" font-size="10.00">+ link()</text>
</a>
</g>
</g>
<!-- Node2&#45;&gt;Node1 -->
<g id="edge1" class="edge"><title>Node2&#45;&gt;Node1</title>
<path fill="none" stroke="midnightblue" d="M93.6474,-205.23C94.0997,-204.818 94.5507,-204.408 95,-204 128.308,-173.79 166.813,-140.878 196.735,-115.728"/>
<polygon fill="none" stroke="midnightblue" points="91.2119,-202.715 86.2327,-212.067 95.9571,-207.861 91.2119,-202.715"/>
</g>
<!-- Node3 -->
<g id="node3" class="node"><title>Node3</title>
<g id="a_node3"><a xlink:title=" ">
<polygon fill="white" stroke="#bfbfbf" points="104.5,-226.5 104.5,-283.5 209.5,-283.5 209.5,-226.5 104.5,-226.5"/>
<text text-anchor="middle" x="157" y="-271.5" font-family="Helvetica,sans-Serif" font-size="10.00">Map&lt; String, User &gt;</text>
<polyline fill="none" stroke="#bfbfbf" points="104.5,-264.5 209.5,-264.5 "/>
<text text-anchor="middle" x="157" y="-252.5" font-family="Helvetica,sans-Serif" font-size="10.00"> </text>
<polyline fill="none" stroke="#bfbfbf" points="104.5,-245.5 209.5,-245.5 "/>
<text text-anchor="middle" x="157" y="-233.5" font-family="Helvetica,sans-Serif" font-size="10.00"> </text>
</a>
</g>
</g>
<!-- Node3&#45;&gt;Node1 -->
<g id="edge2" class="edge"><title>Node3&#45;&gt;Node1</title>
<path fill="none" stroke="#404040" d="M170.865,-226.269C180.229,-207.542 193.12,-181.76 205.634,-156.732"/>
<polygon fill="none" stroke="#404040" points="205.785,-156.43 204.891,-149.274 211.152,-145.696 212.046,-152.852 205.785,-156.43"/>
<text text-anchor="middle" x="217.5" y="-172.5" font-family="Helvetica,sans-Serif" font-size="10.00"> &#45;users</text>
</g>
<!-- Node4 -->
<g id="node4" class="node"><title>Node4</title>
<g id="a_node4"><a xlink:title=" ">
<polygon fill="white" stroke="#bfbfbf" points="139.5,-353.5 139.5,-410.5 174.5,-410.5 174.5,-353.5 139.5,-353.5"/>
<text text-anchor="middle" x="157" y="-398.5" font-family="Helvetica,sans-Serif" font-size="10.00">Map</text>
<polyline fill="none" stroke="#bfbfbf" points="139.5,-391.5 174.5,-391.5 "/>
<text text-anchor="middle" x="157" y="-379.5" font-family="Helvetica,sans-Serif" font-size="10.00"> </text>
<polyline fill="none" stroke="#bfbfbf" points="139.5,-372.5 174.5,-372.5 "/>
<text text-anchor="middle" x="157" y="-360.5" font-family="Helvetica,sans-Serif" font-size="10.00"> </text>
</a>
</g>
</g>
<!-- Node4&#45;&gt;Node3 -->
<g id="edge3" class="edge"><title>Node4&#45;&gt;Node3</title>
<path fill="none" stroke="orange" d="M157,-343.058C157,-323.919 157,-301.126 157,-283.664"/>
<polygon fill="orange" stroke="orange" points="153.5,-343.258 157,-353.258 160.5,-343.258 153.5,-343.258"/>
<text text-anchor="middle" x="193.5" y="-327" font-family="Helvetica,sans-Serif" font-size="10.00"> &lt; String, User &gt;</text>
</g>
<!-- Node5 -->
<g id="node5" class="node"><title>Node5</title>
<g id="a_node5"><a xlink:title=" ">
<polygon fill="white" stroke="#bfbfbf" points="228,-226.5 228,-283.5 266,-283.5 266,-226.5 228,-226.5"/>
<text text-anchor="middle" x="247" y="-271.5" font-family="Helvetica,sans-Serif" font-size="10.00">Type</text>
<polyline fill="none" stroke="#bfbfbf" points="228,-264.5 266,-264.5 "/>
<text text-anchor="middle" x="247" y="-252.5" font-family="Helvetica,sans-Serif" font-size="10.00"> </text>
<polyline fill="none" stroke="#bfbfbf" points="228,-245.5 266,-245.5 "/>
<text text-anchor="middle" x="247" y="-233.5" font-family="Helvetica,sans-Serif" font-size="10.00"> </text>
</a>
</g>
</g>
<!-- Node5&#45;&gt;Node1 -->
<g id="edge4" class="edge"><title>Node5&#45;&gt;Node1</title>
<path fill="none" stroke="#404040" d="M247,-226.269C247,-207.794 247,-182.453 247,-157.743"/>
<polygon fill="none" stroke="#404040" points="247,-157.696 243,-151.696 247,-145.696 251,-151.696 247,-157.696"/>
<text text-anchor="middle" x="259.5" y="-172.5" font-family="Helvetica,sans-Serif" font-size="10.00"> &#45;type</text>
</g>
<!-- Node6 -->
<g id="node6" class="node"><title>Node6</title>
<g id="a_node6"><a xlink:title=" ">
<polygon fill="white" stroke="#bfbfbf" points="284,-226.5 284,-283.5 324,-283.5 324,-226.5 284,-226.5"/>
<text text-anchor="middle" x="304" y="-271.5" font-family="Helvetica,sans-Serif" font-size="10.00">Gson</text>
<polyline fill="none" stroke="#bfbfbf" points="284,-264.5 324,-264.5 "/>
<text text-anchor="middle" x="304" y="-252.5" font-family="Helvetica,sans-Serif" font-size="10.00"> </text>
<polyline fill="none" stroke="#bfbfbf" points="284,-245.5 324,-245.5 "/>
<text text-anchor="middle" x="304" y="-233.5" font-family="Helvetica,sans-Serif" font-size="10.00"> </text>
</a>
</g>
</g>
<!-- Node6&#45;&gt;Node1 -->
<g id="edge5" class="edge"><title>Node6&#45;&gt;Node1</title>
<path fill="none" stroke="#404040" d="M295.494,-226.405C289.981,-208.583 282.62,-184.904 276,-164 275.294,-161.77 274.576,-159.509 273.851,-157.228"/>
<polygon fill="none" stroke="#404040" points="273.821,-157.135 268.188,-152.633 270.176,-145.702 275.81,-150.203 273.821,-157.135"/>
<text text-anchor="middle" x="297" y="-172.5" font-family="Helvetica,sans-Serif" font-size="10.00"> &#45;gson</text>
</g>
<!-- Node7 -->
<g id="node7" class="node"><title>Node7</title>
<g id="a_node7"><a xlink:title=" ">
<polygon fill="white" stroke="#bfbfbf" points="342,-226.5 342,-283.5 380,-283.5 380,-226.5 342,-226.5"/>
<text text-anchor="middle" x="361" y="-271.5" font-family="Helvetica,sans-Serif" font-size="10.00">Lock</text>
<polyline fill="none" stroke="#bfbfbf" points="342,-264.5 380,-264.5 "/>
<text text-anchor="middle" x="361" y="-252.5" font-family="Helvetica,sans-Serif" font-size="10.00"> </text>
<polyline fill="none" stroke="#bfbfbf" points="342,-245.5 380,-245.5 "/>
<text text-anchor="middle" x="361" y="-233.5" font-family="Helvetica,sans-Serif" font-size="10.00"> </text>
</a>
</g>
</g>
<!-- Node7&#45;&gt;Node1 -->
<g id="edge6" class="edge"><title>Node7&#45;&gt;Node1</title>
<path fill="none" stroke="#404040" d="M348.315,-226.141C339.683,-208.004 327.579,-184.074 315,-164 311.555,-158.503 307.864,-152.922 304.047,-147.37"/>
<polygon fill="none" stroke="#404040" points="303.964,-147.253 297.242,-144.642 297.066,-137.433 303.789,-140.044 303.964,-147.253"/>
<text text-anchor="middle" x="340.5" y="-178" font-family="Helvetica,sans-Serif" font-size="10.00"> &#45;read</text>
<text text-anchor="middle" x="340.5" y="-167" font-family="Helvetica,sans-Serif" font-size="10.00">&#45;write</text>
</g>
</g>
</svg>
