<?xml version="1.0" encoding="UTF-8" standalone="no"?>
<!DOCTYPE svg PUBLIC "-//W3C//DTD SVG 1.1//EN"
 "http://www.w3.org/Graphics/SVG/1.1/DTD/svg11.dtd">
<!-- Generated by graphviz version 2.38.0 (20140413.2041)
 -->
<!-- Title: WordQuizzle.WordQuizzleClient.controllaRichieste Pages: 1 -->
<svg width="398pt" height="39pt"
 viewBox="0.00 0.00 398.00 39.00" xmlns="http://www.w3.org/2000/svg" xmlns:xlink="http://www.w3.org/1999/xlink">
<g id="graph0" class="graph" transform="scale(1 1) rotate(0) translate(4 35)">
<title>WordQuizzle.WordQuizzleClient.controllaRichieste</title>
<polygon fill="white" stroke="none" points="-4,4 -4,-35 394,-35 394,4 -4,4"/>
<!-- Node1 -->
<g id="node1" class="node"><title>Node1</title>
<g id="a_node1"><a xlink:title=" ">
<polygon fill="#bfbfbf" stroke="black" points="0,-0.5 0,-30.5 197,-30.5 197,-0.5 0,-0.5"/>
<text text-anchor="start" x="8" y="-18.5" font-family="Helvetica,sans-Serif" font-size="10.00">WordQuizzle.WordQuizzleClient.controlla</text>
<text text-anchor="middle" x="98.5" y="-7.5" font-family="Helvetica,sans-Serif" font-size="10.00">Richieste</text>
</a>
</g>
</g>
<!-- Node2 -->
<g id="node2" class="node"><title>Node2</title>
<g id="a_node2"><a xlink:href="class_word_quizzle_1_1_word_quizzle_client_service.html#a25da445402c9c6b89f89d12ac350004c" target="_top" xlink:title=" ">
<polygon fill="white" stroke="black" points="233,-0.5 233,-30.5 390,-30.5 390,-0.5 233,-0.5"/>
<text text-anchor="start" x="241" y="-18.5" font-family="Helvetica,sans-Serif" font-size="10.00">WordQuizzle.WordQuizzleClient</text>
<text text-anchor="middle" x="311.5" y="-7.5" font-family="Helvetica,sans-Serif" font-size="10.00">Service.controllaRichieste</text>
</a>
</g>
</g>
<!-- Node1&#45;&gt;Node2 -->
<g id="edge1" class="edge"><title>Node1&#45;&gt;Node2</title>
<path fill="none" stroke="midnightblue" d="M197.279,-15.5C205.786,-15.5 214.36,-15.5 222.779,-15.5"/>
<polygon fill="midnightblue" stroke="midnightblue" points="222.956,-19.0001 232.956,-15.5 222.956,-12.0001 222.956,-19.0001"/>
</g>
</g>
</svg>
