<?xml version="1.0" encoding="UTF-8" standalone="no"?>
<!DOCTYPE svg PUBLIC "-//W3C//DTD SVG 1.1//EN"
 "http://www.w3.org/Graphics/SVG/1.1/DTD/svg11.dtd">
<!-- Generated by graphviz version 2.38.0 (20140413.2041)
 -->
<!-- Title: WordQuizzle.WordQuizzleServerService.login Pages: 1 -->
<svg width="371pt" height="142pt"
 viewBox="0.00 0.00 371.00 142.00" xmlns="http://www.w3.org/2000/svg" xmlns:xlink="http://www.w3.org/1999/xlink">
<g id="graph0" class="graph" transform="scale(1 1) rotate(0) translate(4 138)">
<title>WordQuizzle.WordQuizzleServerService.login</title>
<polygon fill="white" stroke="none" points="-4,4 -4,-138 367,-138 367,4 -4,4"/>
<!-- Node1 -->
<g id="node1" class="node"><title>Node1</title>
<g id="a_node1"><a xlink:title=" ">
<polygon fill="#bfbfbf" stroke="black" points="0,-52 0,-82 159,-82 159,-52 0,-52"/>
<text text-anchor="start" x="8" y="-70" font-family="Helvetica,sans-Serif" font-size="10.00">WordQuizzle.WordQuizzleServer</text>
<text text-anchor="middle" x="79.5" y="-59" font-family="Helvetica,sans-Serif" font-size="10.00">Service.login</text>
</a>
</g>
</g>
<!-- Node2 -->
<g id="node2" class="node"><title>Node2</title>
<g id="a_node2"><a xlink:href="interface_word_quizzle_1_1_data_base.html#a256d6e7e3541d11a9ff219431066a7d5" target="_top" xlink:title="Controlla che quel nome utente sia nel database.">
<polygon fill="white" stroke="black" points="195,-114.5 195,-133.5 363,-133.5 363,-114.5 195,-114.5"/>
<text text-anchor="middle" x="279" y="-121.5" font-family="Helvetica,sans-Serif" font-size="10.00">WordQuizzle.DataBase.checkUser</text>
</a>
</g>
</g>
<!-- Node1&#45;&gt;Node2 -->
<g id="edge1" class="edge"><title>Node1&#45;&gt;Node2</title>
<path fill="none" stroke="midnightblue" d="M122.617,-82.0467C144.124,-89.457 170.795,-98.2298 195,-105 203.886,-107.486 213.374,-109.889 222.641,-112.102"/>
<polygon fill="midnightblue" stroke="midnightblue" points="222.038,-115.555 232.572,-114.423 223.631,-108.739 222.038,-115.555"/>
</g>
<!-- Node3 -->
<g id="node3" class="node"><title>Node3</title>
<g id="a_node3"><a xlink:href="class_word_quizzle_1_1_user.html#ab3df921fe5bcada15672f146592dbc3f" target="_top" xlink:title="Restituisce la password dell&#39;utente.">
<polygon fill="white" stroke="black" points="201.5,-76.5 201.5,-95.5 356.5,-95.5 356.5,-76.5 201.5,-76.5"/>
<text text-anchor="middle" x="279" y="-83.5" font-family="Helvetica,sans-Serif" font-size="10.00">WordQuizzle.User.getPassword</text>
</a>
</g>
</g>
<!-- Node1&#45;&gt;Node3 -->
<g id="edge2" class="edge"><title>Node1&#45;&gt;Node3</title>
<path fill="none" stroke="midnightblue" d="M159.125,-74.5639C169.641,-75.5756 180.475,-76.6178 191.122,-77.6421"/>
<polygon fill="midnightblue" stroke="midnightblue" points="190.967,-81.1432 201.256,-78.617 191.637,-74.1754 190.967,-81.1432"/>
</g>
<!-- Node4 -->
<g id="node4" class="node"><title>Node4</title>
<g id="a_node4"><a xlink:href="interface_word_quizzle_1_1_data_base.html#a987acacce768d19e4551b5b3a508ccf3" target="_top" xlink:title="Dato un nome utente ottiene l&#39;oggetto User corrispondente.">
<polygon fill="white" stroke="black" points="201.5,-38.5 201.5,-57.5 356.5,-57.5 356.5,-38.5 201.5,-38.5"/>
<text text-anchor="middle" x="279" y="-45.5" font-family="Helvetica,sans-Serif" font-size="10.00">WordQuizzle.DataBase.getUser</text>
</a>
</g>
</g>
<!-- Node1&#45;&gt;Node4 -->
<g id="edge3" class="edge"><title>Node1&#45;&gt;Node4</title>
<path fill="none" stroke="midnightblue" d="M159.125,-59.4361C169.641,-58.4244 180.475,-57.3822 191.122,-56.3579"/>
<polygon fill="midnightblue" stroke="midnightblue" points="191.637,-59.8246 201.256,-55.383 190.967,-52.8568 191.637,-59.8246"/>
</g>
<!-- Node5 -->
<g id="node5" class="node"><title>Node5</title>
<g id="a_node5"><a xlink:href="class_word_quizzle_1_1_session.html#aebb0096afea4c87b3a80fc17fd019c2c" target="_top" xlink:title="Imposta l&#39;indirizzo UDP del client a cui inviare le richieste di sfida.">
<polygon fill="white" stroke="black" points="206.5,-0.5 206.5,-19.5 351.5,-19.5 351.5,-0.5 206.5,-0.5"/>
<text text-anchor="middle" x="279" y="-7.5" font-family="Helvetica,sans-Serif" font-size="10.00">WordQuizzle.Session.setUdp</text>
</a>
</g>
</g>
<!-- Node1&#45;&gt;Node5 -->
<g id="edge4" class="edge"><title>Node1&#45;&gt;Node5</title>
<path fill="none" stroke="midnightblue" d="M122.617,-51.9533C144.124,-44.543 170.795,-35.7702 195,-29 203.886,-26.5144 213.374,-24.1113 222.641,-21.8982"/>
<polygon fill="midnightblue" stroke="midnightblue" points="223.631,-25.2612 232.572,-19.5765 222.038,-18.445 223.631,-25.2612"/>
</g>
</g>
</svg>
