<?xml version="1.0" encoding="UTF-8" standalone="no"?>
<!DOCTYPE svg PUBLIC "-//W3C//DTD SVG 1.1//EN"
 "http://www.w3.org/Graphics/SVG/1.1/DTD/svg11.dtd">
<!-- Generated by graphviz version 2.38.0 (20140413.2041)
 -->
<!-- Title: WordQuizzle.Notifier.run Pages: 1 -->
<svg width="1159pt" height="230pt"
 viewBox="0.00 0.00 1159.00 230.00" xmlns="http://www.w3.org/2000/svg" xmlns:xlink="http://www.w3.org/1999/xlink">
<g id="graph0" class="graph" transform="scale(1 1) rotate(0) translate(4 226)">
<title>WordQuizzle.Notifier.run</title>
<polygon fill="white" stroke="none" points="-4,4 -4,-226 1155,-226 1155,4 -4,4"/>
<!-- Node1 -->
<g id="node1" class="node"><title>Node1</title>
<g id="a_node1"><a xlink:title=" ">
<polygon fill="#bfbfbf" stroke="black" points="0,-126 0,-145 122,-145 122,-126 0,-126"/>
<text text-anchor="middle" x="61" y="-133" font-family="Helvetica,sans-Serif" font-size="10.00">WordQuizzle.Notifier.run</text>
</a>
</g>
</g>
<!-- Node2 -->
<g id="node2" class="node"><title>Node2</title>
<g id="a_node2"><a xlink:href="class_word_quizzle_1_1_word_quizzle_client.html#a540dfbf20ba0d5a8118e6d9284b79bc0" target="_top" xlink:title=" ">
<polygon fill="white" stroke="black" points="160.5,-191.5 160.5,-221.5 352.5,-221.5 352.5,-191.5 160.5,-191.5"/>
<text text-anchor="start" x="168.5" y="-209.5" font-family="Helvetica,sans-Serif" font-size="10.00">WordQuizzle.WordQuizzleClient.accetta</text>
<text text-anchor="middle" x="256.5" y="-198.5" font-family="Helvetica,sans-Serif" font-size="10.00">Sfida</text>
</a>
</g>
</g>
<!-- Node1&#45;&gt;Node2 -->
<g id="edge1" class="edge"><title>Node1&#45;&gt;Node2</title>
<path fill="none" stroke="midnightblue" d="M79.2482,-145.038C98.1295,-155.174 129.517,-171.138 158,-181.5 165.022,-184.055 172.419,-186.454 179.869,-188.677"/>
<polygon fill="midnightblue" stroke="midnightblue" points="179.089,-192.095 189.667,-191.498 181.025,-185.368 179.089,-192.095"/>
</g>
<!-- Node7 -->
<g id="node7" class="node"><title>Node7</title>
<g id="a_node7"><a xlink:href="class_word_quizzle_1_1_word_quizzle_client.html#a808fea05e1dc44069f476eebd3a39ada" target="_top" xlink:title=" ">
<polygon fill="white" stroke="black" points="158,-142.5 158,-172.5 355,-172.5 355,-142.5 158,-142.5"/>
<text text-anchor="start" x="166" y="-160.5" font-family="Helvetica,sans-Serif" font-size="10.00">WordQuizzle.WordQuizzleClient.controlla</text>
<text text-anchor="middle" x="256.5" y="-149.5" font-family="Helvetica,sans-Serif" font-size="10.00">Richieste</text>
</a>
</g>
</g>
<!-- Node1&#45;&gt;Node7 -->
<g id="edge6" class="edge"><title>Node1&#45;&gt;Node7</title>
<path fill="none" stroke="midnightblue" d="M122.164,-142.34C130.297,-143.265 138.835,-144.236 147.495,-145.22"/>
<polygon fill="midnightblue" stroke="midnightblue" points="147.369,-148.728 157.7,-146.381 148.16,-141.773 147.369,-148.728"/>
</g>
<!-- Node9 -->
<g id="node9" class="node"><title>Node9</title>
<g id="a_node9"><a xlink:href="class_word_quizzle_1_1_w_q_gui.html#a0e3cb31624c4fdda7b58977fe75de341" target="_top" xlink:title=" ">
<polygon fill="white" stroke="black" points="189,-104 189,-123 324,-123 324,-104 189,-104"/>
<text text-anchor="middle" x="256.5" y="-111" font-family="Helvetica,sans-Serif" font-size="10.00">WordQuizzle.WQGui.game</text>
</a>
</g>
</g>
<!-- Node1&#45;&gt;Node9 -->
<g id="edge8" class="edge"><title>Node1&#45;&gt;Node9</title>
<path fill="none" stroke="midnightblue" d="M122.164,-128.66C140.126,-126.617 160.06,-124.351 178.924,-122.206"/>
<polygon fill="midnightblue" stroke="midnightblue" points="179.433,-125.671 188.974,-121.064 178.642,-118.716 179.433,-125.671"/>
</g>
<!-- Node14 -->
<g id="node14" class="node"><title>Node14</title>
<g id="a_node14"><a xlink:href="class_word_quizzle_1_1_word_quizzle_server_service.html#ace8277bd092a7ac14bcfe5927ecc8c33" target="_top" xlink:title=" ">
<polygon fill="white" stroke="black" points="177,-54.5 177,-84.5 336,-84.5 336,-54.5 177,-54.5"/>
<text text-anchor="start" x="185" y="-72.5" font-family="Helvetica,sans-Serif" font-size="10.00">WordQuizzle.WordQuizzleServer</text>
<text text-anchor="middle" x="256.5" y="-61.5" font-family="Helvetica,sans-Serif" font-size="10.00">Service.getT1</text>
</a>
</g>
</g>
<!-- Node1&#45;&gt;Node14 -->
<g id="edge14" class="edge"><title>Node1&#45;&gt;Node14</title>
<path fill="none" stroke="midnightblue" d="M81.8787,-125.952C101.055,-116.996 131.057,-103.648 158,-94.5 165.529,-91.9437 173.461,-89.5064 181.416,-87.2265"/>
<polygon fill="midnightblue" stroke="midnightblue" points="182.412,-90.5825 191.105,-84.5261 180.532,-83.8395 182.412,-90.5825"/>
</g>
<!-- Node3 -->
<g id="node3" class="node"><title>Node3</title>
<g id="a_node3"><a xlink:href="class_word_quizzle_1_1_word_quizzle_client_service.html#a547ba20a2963597abe34d58e643ea2db" target="_top" xlink:title=" ">
<polygon fill="white" stroke="black" points="608,-155.5 608,-185.5 765,-185.5 765,-155.5 608,-155.5"/>
<text text-anchor="start" x="616" y="-173.5" font-family="Helvetica,sans-Serif" font-size="10.00">WordQuizzle.WordQuizzleClient</text>
<text text-anchor="middle" x="686.5" y="-162.5" font-family="Helvetica,sans-Serif" font-size="10.00">Service.accettaSfida</text>
</a>
</g>
</g>
<!-- Node2&#45;&gt;Node3 -->
<g id="edge2" class="edge"><title>Node2&#45;&gt;Node3</title>
<path fill="none" stroke="midnightblue" d="M352.618,-202.349C415.081,-199.156 498.522,-194.004 572,-186.5 580.324,-185.65 588.975,-184.647 597.622,-183.566"/>
<polygon fill="midnightblue" stroke="midnightblue" points="598.279,-187.01 607.751,-182.263 597.386,-180.067 598.279,-187.01"/>
</g>
<!-- Node4 -->
<g id="node4" class="node"><title>Node4</title>
<g id="a_node4"><a xlink:href="class_word_quizzle_1_1_word_quizzle_client_service.html#a0ed33ad0199840ae1847c4ecbc992ce2" target="_top" xlink:title=" ">
<polygon fill="white" stroke="black" points="801,-113.5 801,-143.5 958,-143.5 958,-113.5 801,-113.5"/>
<text text-anchor="start" x="809" y="-131.5" font-family="Helvetica,sans-Serif" font-size="10.00">WordQuizzle.WordQuizzleClient</text>
<text text-anchor="middle" x="879.5" y="-120.5" font-family="Helvetica,sans-Serif" font-size="10.00">Service.send</text>
</a>
</g>
</g>
<!-- Node3&#45;&gt;Node4 -->
<g id="edge3" class="edge"><title>Node3&#45;&gt;Node4</title>
<path fill="none" stroke="midnightblue" d="M755.916,-155.456C770.266,-152.3 785.506,-148.949 800.185,-145.721"/>
<polygon fill="midnightblue" stroke="midnightblue" points="801.226,-149.076 810.241,-143.51 799.723,-142.239 801.226,-149.076"/>
</g>
<!-- Node5 -->
<g id="node5" class="node"><title>Node5</title>
<g id="a_node5"><a xlink:href="class_word_quizzle_1_1_word_quizzle_client_service.html#a59c8bdbde7768c2b478d51f4f13f7afb" target="_top" xlink:title=" ">
<polygon fill="white" stroke="black" points="994,-138.5 994,-168.5 1151,-168.5 1151,-138.5 994,-138.5"/>
<text text-anchor="start" x="1002" y="-156.5" font-family="Helvetica,sans-Serif" font-size="10.00">WordQuizzle.WordQuizzleClient</text>
<text text-anchor="middle" x="1072.5" y="-145.5" font-family="Helvetica,sans-Serif" font-size="10.00">Service.read</text>
</a>
</g>
</g>
<!-- Node4&#45;&gt;Node5 -->
<g id="edge4" class="edge"><title>Node4&#45;&gt;Node5</title>
<path fill="none" stroke="midnightblue" d="M958.187,-138.668C966.65,-139.776 975.306,-140.909 983.876,-142.031"/>
<polygon fill="midnightblue" stroke="midnightblue" points="983.512,-145.513 993.882,-143.341 984.421,-138.572 983.512,-145.513"/>
</g>
<!-- Node6 -->
<g id="node6" class="node"><title>Node6</title>
<g id="a_node6"><a xlink:href="class_word_quizzle_1_1_word_quizzle_client_service.html#a25566e1d25884c6c0dbb5aab0c1b52fd" target="_top" xlink:title=" ">
<polygon fill="white" stroke="black" points="994,-89.5 994,-119.5 1151,-119.5 1151,-89.5 994,-89.5"/>
<text text-anchor="start" x="1002" y="-107.5" font-family="Helvetica,sans-Serif" font-size="10.00">WordQuizzle.WordQuizzleClient</text>
<text text-anchor="middle" x="1072.5" y="-96.5" font-family="Helvetica,sans-Serif" font-size="10.00">Service.write</text>
</a>
</g>
</g>
<!-- Node4&#45;&gt;Node6 -->
<g id="edge5" class="edge"><title>Node4&#45;&gt;Node6</title>
<path fill="none" stroke="midnightblue" d="M958.187,-118.738C966.65,-117.675 975.306,-116.587 983.876,-115.51"/>
<polygon fill="midnightblue" stroke="midnightblue" points="984.396,-118.973 993.882,-114.253 983.523,-112.027 984.396,-118.973"/>
</g>
<!-- Node8 -->
<g id="node8" class="node"><title>Node8</title>
<g id="a_node8"><a xlink:href="class_word_quizzle_1_1_word_quizzle_client_service.html#a25da445402c9c6b89f89d12ac350004c" target="_top" xlink:title=" ">
<polygon fill="white" stroke="black" points="403,-147.5 403,-177.5 560,-177.5 560,-147.5 403,-147.5"/>
<text text-anchor="start" x="411" y="-165.5" font-family="Helvetica,sans-Serif" font-size="10.00">WordQuizzle.WordQuizzleClient</text>
<text text-anchor="middle" x="481.5" y="-154.5" font-family="Helvetica,sans-Serif" font-size="10.00">Service.controllaRichieste</text>
</a>
</g>
</g>
<!-- Node7&#45;&gt;Node8 -->
<g id="edge7" class="edge"><title>Node7&#45;&gt;Node8</title>
<path fill="none" stroke="midnightblue" d="M355.311,-159.693C367.745,-159.972 380.41,-160.256 392.674,-160.531"/>
<polygon fill="midnightblue" stroke="midnightblue" points="392.791,-164.034 402.867,-160.759 392.948,-157.036 392.791,-164.034"/>
</g>
<!-- Node10 -->
<g id="node10" class="node"><title>Node10</title>
<g id="a_node10"><a xlink:href="class_word_quizzle_1_1_word_quizzle_server_service.html#a970fe0e2dd7457bab2c64ae722a912fc" target="_top" xlink:title=" ">
<polygon fill="white" stroke="black" points="402,-98.5 402,-128.5 561,-128.5 561,-98.5 402,-98.5"/>
<text text-anchor="start" x="410" y="-116.5" font-family="Helvetica,sans-Serif" font-size="10.00">WordQuizzle.WordQuizzleServer</text>
<text text-anchor="middle" x="481.5" y="-105.5" font-family="Helvetica,sans-Serif" font-size="10.00">Service.getK</text>
</a>
</g>
</g>
<!-- Node9&#45;&gt;Node10 -->
<g id="edge9" class="edge"><title>Node9&#45;&gt;Node10</title>
<path fill="none" stroke="midnightblue" d="M324.105,-113.5C345.251,-113.5 368.984,-113.5 391.448,-113.5"/>
<polygon fill="midnightblue" stroke="midnightblue" points="391.667,-117 401.666,-113.5 391.666,-110 391.667,-117"/>
</g>
<!-- Node11 -->
<g id="node11" class="node"><title>Node11</title>
<g id="a_node11"><a xlink:href="class_word_quizzle_1_1_word_quizzle_server_service.html#ac78bda2a578b3baa0933ca28e4b72e0c" target="_top" xlink:title=" ">
<polygon fill="white" stroke="black" points="402,-49.5 402,-79.5 561,-79.5 561,-49.5 402,-49.5"/>
<text text-anchor="start" x="410" y="-67.5" font-family="Helvetica,sans-Serif" font-size="10.00">WordQuizzle.WordQuizzleServer</text>
<text text-anchor="middle" x="481.5" y="-56.5" font-family="Helvetica,sans-Serif" font-size="10.00">Service.getT2</text>
</a>
</g>
</g>
<!-- Node9&#45;&gt;Node11 -->
<g id="edge10" class="edge"><title>Node9&#45;&gt;Node11</title>
<path fill="none" stroke="midnightblue" d="M305.157,-103.97C321.03,-100.73 338.793,-97.0343 355,-93.5 371.803,-89.8358 389.837,-85.7559 406.845,-81.8408"/>
<polygon fill="midnightblue" stroke="midnightblue" points="407.768,-85.2199 416.724,-79.5591 406.193,-78.3995 407.768,-85.2199"/>
</g>
<!-- Node12 -->
<g id="node12" class="node"><title>Node12</title>
<g id="a_node12"><a xlink:href="class_word_quizzle_1_1_word_quizzle_client.html#a828a5e7a358bd53296d88c97172db13b" target="_top" xlink:title=" ">
<polygon fill="white" stroke="black" points="391,-0.5 391,-30.5 572,-30.5 572,-0.5 391,-0.5"/>
<text text-anchor="start" x="399" y="-18.5" font-family="Helvetica,sans-Serif" font-size="10.00">WordQuizzle.WordQuizzleClient.send</text>
<text text-anchor="middle" x="481.5" y="-7.5" font-family="Helvetica,sans-Serif" font-size="10.00">Translation</text>
</a>
</g>
</g>
<!-- Node9&#45;&gt;Node12 -->
<g id="edge11" class="edge"><title>Node9&#45;&gt;Node12</title>
<path fill="none" stroke="midnightblue" d="M324.031,-107.118C334.979,-104.082 345.755,-99.7245 355,-93.5 378.927,-77.3908 367.564,-56.3158 391,-39.5 393.116,-37.9819 395.322,-36.5597 397.598,-35.2276"/>
<polygon fill="midnightblue" stroke="midnightblue" points="399.415,-38.2284 406.686,-30.5225 396.196,-32.0122 399.415,-38.2284"/>
</g>
<!-- Node13 -->
<g id="node13" class="node"><title>Node13</title>
<g id="a_node13"><a xlink:href="class_word_quizzle_1_1_word_quizzle_client_service.html#a53ced7302f38c42dfed59b2a70674800" target="_top" xlink:title=" ">
<polygon fill="white" stroke="black" points="608,-71.5 608,-101.5 765,-101.5 765,-71.5 608,-71.5"/>
<text text-anchor="start" x="616" y="-89.5" font-family="Helvetica,sans-Serif" font-size="10.00">WordQuizzle.WordQuizzleClient</text>
<text text-anchor="middle" x="686.5" y="-78.5" font-family="Helvetica,sans-Serif" font-size="10.00">Service.sendTranslation</text>
</a>
</g>
</g>
<!-- Node12&#45;&gt;Node13 -->
<g id="edge12" class="edge"><title>Node12&#45;&gt;Node13</title>
<path fill="none" stroke="midnightblue" d="M543.002,-30.57C552.762,-33.3312 562.708,-36.3452 572,-39.5 595.818,-47.5863 621.779,-58.1972 642.854,-67.2904"/>
<polygon fill="midnightblue" stroke="midnightblue" points="641.602,-70.5627 652.168,-71.347 644.398,-64.1449 641.602,-70.5627"/>
</g>
<!-- Node13&#45;&gt;Node4 -->
<g id="edge13" class="edge"><title>Node13&#45;&gt;Node4</title>
<path fill="none" stroke="midnightblue" d="M755.916,-101.544C770.266,-104.7 785.506,-108.051 800.185,-111.279"/>
<polygon fill="midnightblue" stroke="midnightblue" points="799.723,-114.761 810.241,-113.49 801.226,-107.924 799.723,-114.761"/>
</g>
</g>
</svg>
