<?xml version="1.0" encoding="UTF-8" standalone="no"?>
<!DOCTYPE svg PUBLIC "-//W3C//DTD SVG 1.1//EN"
 "http://www.w3.org/Graphics/SVG/1.1/DTD/svg11.dtd">
<!-- Generated by graphviz version 2.38.0 (20140413.2041)
 -->
<!-- Title: Bot.game Pages: 1 -->
<svg width="484pt" height="142pt"
 viewBox="0.00 0.00 484.00 142.00" xmlns="http://www.w3.org/2000/svg" xmlns:xlink="http://www.w3.org/1999/xlink">
<g id="graph0" class="graph" transform="scale(1 1) rotate(0) translate(4 138)">
<title>Bot.game</title>
<polygon fill="white" stroke="none" points="-4,4 -4,-138 480,-138 480,4 -4,4"/>
<!-- Node1 -->
<g id="node1" class="node"><title>Node1</title>
<g id="a_node1"><a xlink:title="Gestisce una sfida.">
<polygon fill="#bfbfbf" stroke="black" points="0,-57.5 0,-76.5 59,-76.5 59,-57.5 0,-57.5"/>
<text text-anchor="middle" x="29.5" y="-64.5" font-family="Helvetica,sans-Serif" font-size="10.00">Bot.game</text>
</a>
</g>
</g>
<!-- Node2 -->
<g id="node2" class="node"><title>Node2</title>
<g id="a_node2"><a xlink:href="class_word_quizzle_server_service.html#a445af71c2bed6349e5239893b2e0ca8c" target="_top" xlink:title="Restituisce il numero di parole per sfida.">
<polygon fill="white" stroke="black" points="102,-114.5 102,-133.5 257,-133.5 257,-114.5 102,-114.5"/>
<text text-anchor="middle" x="179.5" y="-121.5" font-family="Helvetica,sans-Serif" font-size="10.00">WordQuizzleServerService.getK</text>
</a>
</g>
</g>
<!-- Node1&#45;&gt;Node2 -->
<g id="edge1" class="edge"><title>Node1&#45;&gt;Node2</title>
<path fill="none" stroke="midnightblue" d="M44.1998,-76.7719C56.8358,-85.3613 76.3984,-97.6119 95,-105 101.406,-107.544 108.229,-109.79 115.11,-111.762"/>
<polygon fill="midnightblue" stroke="midnightblue" points="114.625,-115.255 125.189,-114.458 116.434,-108.493 114.625,-115.255"/>
</g>
<!-- Node3 -->
<g id="node3" class="node"><title>Node3</title>
<g id="a_node3"><a xlink:href="class_word_quizzle_server_service.html#a5779a8f11e9348825e19ef83b74b43bc" target="_top" xlink:title="Restituisce la durata di una sfida, in millisecondi.">
<polygon fill="white" stroke="black" points="100.5,-76.5 100.5,-95.5 258.5,-95.5 258.5,-76.5 100.5,-76.5"/>
<text text-anchor="middle" x="179.5" y="-83.5" font-family="Helvetica,sans-Serif" font-size="10.00">WordQuizzleServerService.getT2</text>
</a>
</g>
</g>
<!-- Node1&#45;&gt;Node3 -->
<g id="edge2" class="edge"><title>Node1&#45;&gt;Node3</title>
<path fill="none" stroke="midnightblue" d="M59.0359,-70.6634C69.3093,-71.9823 81.4914,-73.5462 94.0841,-75.1628"/>
<polygon fill="midnightblue" stroke="midnightblue" points="93.8783,-78.665 104.243,-76.4669 94.7697,-71.722 93.8783,-78.665"/>
</g>
<!-- Node4 -->
<g id="node4" class="node"><title>Node4</title>
<g id="a_node4"><a xlink:href="class_word_quizzle_client.html#a8af265290384d3ce6dcb44c6e08f3b4a" target="_top" xlink:title="Invia la traduzione della parola precedentemente inviata dal server durante una sfida.">
<polygon fill="white" stroke="black" points="95,-38.5 95,-57.5 264,-57.5 264,-38.5 95,-38.5"/>
<text text-anchor="middle" x="179.5" y="-45.5" font-family="Helvetica,sans-Serif" font-size="10.00">WordQuizzleClient.sendTranslation</text>
</a>
</g>
</g>
<!-- Node1&#45;&gt;Node4 -->
<g id="edge3" class="edge"><title>Node1&#45;&gt;Node4</title>
<path fill="none" stroke="midnightblue" d="M59.0359,-63.3366C69.3093,-62.0177 81.4914,-60.4538 94.0841,-58.8372"/>
<polygon fill="midnightblue" stroke="midnightblue" points="94.7697,-62.278 104.243,-57.5331 93.8783,-55.335 94.7697,-62.278"/>
</g>
<!-- Node6 -->
<g id="node6" class="node"><title>Node6</title>
<g id="a_node6"><a xlink:href="class_translator.html#ad52c8ccdf35d16a095786e5e052b333a" target="_top" xlink:title="Traduce una parola dall&#39;italiano all&#39;inglese.">
<polygon fill="white" stroke="black" points="129.5,-0.5 129.5,-19.5 229.5,-19.5 229.5,-0.5 129.5,-0.5"/>
<text text-anchor="middle" x="179.5" y="-7.5" font-family="Helvetica,sans-Serif" font-size="10.00">Translator.translate</text>
</a>
</g>
</g>
<!-- Node1&#45;&gt;Node6 -->
<g id="edge5" class="edge"><title>Node1&#45;&gt;Node6</title>
<path fill="none" stroke="midnightblue" d="M44.1998,-57.2281C56.8358,-48.6387 76.3984,-36.3881 95,-29 102.746,-25.9234 111.104,-23.2831 119.435,-21.0355"/>
<polygon fill="midnightblue" stroke="midnightblue" points="120.326,-24.4203 129.163,-18.5749 118.61,-17.634 120.326,-24.4203"/>
</g>
<!-- Node5 -->
<g id="node5" class="node"><title>Node5</title>
<g id="a_node5"><a xlink:href="interface_word_quizzle_service.html#a02c046b12dcaedd35e92fd7878595f57" target="_top" xlink:title="Invia la traduzione della parola precedentemente inviata dal server durante una sfida.">
<polygon fill="white" stroke="black" points="300,-38.5 300,-57.5 476,-57.5 476,-38.5 300,-38.5"/>
<text text-anchor="middle" x="388" y="-45.5" font-family="Helvetica,sans-Serif" font-size="10.00">WordQuizzleService.sendTranslation</text>
</a>
</g>
</g>
<!-- Node4&#45;&gt;Node5 -->
<g id="edge4" class="edge"><title>Node4&#45;&gt;Node5</title>
<path fill="none" stroke="midnightblue" d="M264.194,-48C272.631,-48 281.249,-48 289.812,-48"/>
<polygon fill="midnightblue" stroke="midnightblue" points="289.824,-51.5001 299.823,-48 289.823,-44.5001 289.824,-51.5001"/>
</g>
</g>
</svg>
