<?xml version="1.0" encoding="UTF-8" standalone="no"?>
<!DOCTYPE svg PUBLIC "-//W3C//DTD SVG 1.1//EN"
 "http://www.w3.org/Graphics/SVG/1.1/DTD/svg11.dtd">
<!-- Generated by graphviz version 2.38.0 (20140413.2041)
 -->
<!-- Title: WordQuizzleServerService.accettaSfida Pages: 1 -->
<!--zoomable 256 -->
<svg id="main" version="1.1" xmlns="http://www.w3.org/2000/svg" xmlns:xlink="http://www.w3.org/1999/xlink" xml:space="preserve" onload="init(evt)">
<style type="text/css"><![CDATA[
.edge:hover path { stroke: red; }
.edge:hover polygon { stroke: red; fill: red; }
]]></style>
<script type="text/javascript"><![CDATA[
var edges = document.getElementsByTagName('g');
if (edges && edges.length) {
  for (var i=0;i<edges.length;i++) {
    if (edges[i].id.substr(0,4)=='edge') {
      edges[i].setAttribute('class','edge');
    }
  }
}
]]></script>
        <defs>
                <circle id="rim" cx="0" cy="0" r="7"/>
                <circle id="rim2" cx="0" cy="0" r="3.5"/>
                <g id="zoomPlus">
                        <use xlink:href="#rim" fill="#404040">
                                <set attributeName="fill" to="#808080" begin="zoomplus.mouseover" end="zoomplus.mouseout"/>
                        </use>
                        <path d="M-4,0h8M0,-4v8" fill="none" stroke="white" stroke-width="1.5" pointer-events="none"/>
                </g>
                <g id="zoomMin">
                        <use xlink:href="#rim" fill="#404040">
                                <set attributeName="fill" to="#808080" begin="zoomminus.mouseover" end="zoomminus.mouseout"/>
                        </use>
                        <path d="M-4,0h8" fill="none" stroke="white" stroke-width="1.5" pointer-events="none"/>
                </g>
                <g id="dirArrow">
                        <path fill="none" stroke="white" stroke-width="1.5" d="M0,-3.0v7 M-2.5,-0.5L0,-3.0L2.5,-0.5"/>
                </g>
               <g id="resetDef">
                       <use xlink:href="#rim2" fill="#404040">
                               <set attributeName="fill" to="#808080" begin="reset.mouseover" end="reset.mouseout"/>
                       </use>
               </g>
        </defs>

<script type="text/javascript">
var viewWidth = 668;
var viewHeight = 256;
var sectionId = 'dynsection-1';
</script>
<script xlink:href="svgpan.js"/>
<svg id="graph" class="graph">
<g id="viewport">
<title>WordQuizzleServerService.accettaSfida</title>
<polygon fill="white" stroke="none" points="-4,4 -4,-252 664,-252 664,4 -4,4"/>
<!-- Node1 -->
<g id="node1" class="node"><title>Node1</title>
<g id="a_node1"><a xlink:title="Accetta una richiesta di sfida inviata da nickAmico.">
<polygon fill="#bfbfbf" stroke="black" points="0,-147 0,-177 167,-177 167,-147 0,-147"/>
<text text-anchor="start" x="8" y="-165" font-family="Helvetica,sans-Serif" font-size="10.00">WordQuizzleServerService.accetta</text>
<text text-anchor="middle" x="83.5" y="-154" font-family="Helvetica,sans-Serif" font-size="10.00">Sfida</text>
</a>
</g>
</g>
<!-- Node2 -->
<g id="node2" class="node"><title>Node2</title>
<g id="a_node2"><a xlink:href="interface_data_base.html#a580f93c56dbbed8b2fb1fc2e856efe68" target="_top" xlink:title="Controlla che quel nome utente sia nel database.">
<polygon fill="white" stroke="black" points="207.5,-228.5 207.5,-247.5 316.5,-247.5 316.5,-228.5 207.5,-228.5"/>
<text text-anchor="middle" x="262" y="-235.5" font-family="Helvetica,sans-Serif" font-size="10.00">DataBase.checkUser</text>
</a>
</g>
</g>
<!-- Node1&#45;&gt;Node2 -->
<g id="edge1" class="edge"><title>Node1&#45;&gt;Node2</title>
<path fill="none" stroke="midnightblue" d="M113.239,-177.142C136.946,-189.31 171.654,-206.391 203,-219 208.416,-221.179 214.187,-223.3 219.91,-225.287"/>
<polygon fill="midnightblue" stroke="midnightblue" points="218.829,-228.616 229.423,-228.491 221.064,-221.982 218.829,-228.616"/>
</g>
<!-- Node3 -->
<g id="node3" class="node"><title>Node3</title>
<g id="a_node3"><a xlink:href="class_challenge.html#ae2de3ea233827168e5869b9ac429af6a" target="_top" xlink:title="Restituisce il tempo di creazione della sfida.">
<polygon fill="white" stroke="black" points="203,-190.5 203,-209.5 321,-209.5 321,-190.5 203,-190.5"/>
<text text-anchor="middle" x="262" y="-197.5" font-family="Helvetica,sans-Serif" font-size="10.00">Challenge.getStartTime</text>
</a>
</g>
</g>
<!-- Node1&#45;&gt;Node3 -->
<g id="edge2" class="edge"><title>Node1&#45;&gt;Node3</title>
<path fill="none" stroke="midnightblue" d="M154.257,-177.019C171.733,-180.781 190.221,-184.761 206.812,-188.333"/>
<polygon fill="midnightblue" stroke="midnightblue" points="206.358,-191.816 216.871,-190.499 207.831,-184.973 206.358,-191.816"/>
</g>
<!-- Node4 -->
<g id="node4" class="node"><title>Node4</title>
<g id="a_node4"><a xlink:href="interface_data_base.html#af660eaf16066006da658ac99fa3f6936" target="_top" xlink:title="Dato un nome utente ottiene l&#39;oggetto User corrispondente.">
<polygon fill="white" stroke="black" points="214,-152.5 214,-171.5 310,-171.5 310,-152.5 214,-152.5"/>
<text text-anchor="middle" x="262" y="-159.5" font-family="Helvetica,sans-Serif" font-size="10.00">DataBase.getUser</text>
</a>
</g>
</g>
<!-- Node1&#45;&gt;Node4 -->
<g id="edge3" class="edge"><title>Node1&#45;&gt;Node4</title>
<path fill="none" stroke="midnightblue" d="M167.066,-162C179.417,-162 191.918,-162 203.595,-162"/>
<polygon fill="midnightblue" stroke="midnightblue" points="203.62,-165.5 213.62,-162 203.62,-158.5 203.62,-165.5"/>
</g>
<!-- Node5 -->
<g id="node5" class="node"><title>Node5</title>
<g id="a_node5"><a xlink:href="class_user.html#acc6836fc440a040d322d2e1eb31d92fe" target="_top" xlink:title="Verifica se un nome utente e&#39; amico dell&#39;utente.">
<polygon fill="white" stroke="black" points="225,-114.5 225,-133.5 299,-133.5 299,-114.5 225,-114.5"/>
<text text-anchor="middle" x="262" y="-121.5" font-family="Helvetica,sans-Serif" font-size="10.00">User.isFriend</text>
</a>
</g>
</g>
<!-- Node1&#45;&gt;Node5 -->
<g id="edge4" class="edge"><title>Node1&#45;&gt;Node5</title>
<path fill="none" stroke="midnightblue" d="M154.257,-146.981C174.583,-142.605 196.278,-137.934 214.765,-133.954"/>
<polygon fill="midnightblue" stroke="midnightblue" points="215.637,-137.347 224.676,-131.82 214.164,-130.504 215.637,-137.347"/>
</g>
<!-- Node6 -->
<g id="node6" class="node"><title>Node6</title>
<g id="a_node6"><a xlink:href="class_challenge.html#a650e2bfde93fe29ad14a4f7fdcb3c4b9" target="_top" xlink:title="Aggiunge l&#39;utente sfidato alla sfida e la avvia.">
<polygon fill="white" stroke="black" points="207.5,-76.5 207.5,-95.5 316.5,-95.5 316.5,-76.5 207.5,-76.5"/>
<text text-anchor="middle" x="262" y="-83.5" font-family="Helvetica,sans-Serif" font-size="10.00">Challenge.setPlayer2</text>
</a>
</g>
</g>
<!-- Node1&#45;&gt;Node6 -->
<g id="edge5" class="edge"><title>Node1&#45;&gt;Node6</title>
<path fill="none" stroke="midnightblue" d="M113.239,-146.858C136.946,-134.69 171.654,-117.609 203,-105 208.416,-102.821 214.187,-100.7 219.91,-98.7134"/>
<polygon fill="midnightblue" stroke="midnightblue" points="221.064,-102.018 229.423,-95.5089 218.829,-95.3842 221.064,-102.018"/>
</g>
<!-- Node7 -->
<g id="node7" class="node"><title>Node7</title>
<g id="a_node7"><a xlink:href="class_session.html#a80b5cf0f5ea47877e261766c51f1e351" target="_top" xlink:title="Restituisce la socket del client.">
<polygon fill="white" stroke="black" points="366.5,-152.5 366.5,-171.5 459.5,-171.5 459.5,-152.5 366.5,-152.5"/>
<text text-anchor="middle" x="413" y="-159.5" font-family="Helvetica,sans-Serif" font-size="10.00">Session.getClient</text>
</a>
</g>
</g>
<!-- Node6&#45;&gt;Node7 -->
<g id="edge6" class="edge"><title>Node6&#45;&gt;Node7</title>
<path fill="none" stroke="midnightblue" d="M301.353,-95.5664C308.171,-98.0905 315.002,-101.202 321,-105 340.655,-117.446 337.445,-130.396 357,-143 360.113,-145.006 363.462,-146.827 366.915,-148.475"/>
<polygon fill="midnightblue" stroke="midnightblue" points="365.64,-151.737 376.212,-152.442 368.387,-145.298 365.64,-151.737"/>
</g>
<!-- Node8 -->
<g id="node8" class="node"><title>Node8</title>
<g id="a_node8"><a xlink:href="class_player.html#a675262b26b676f6b3e9e4bde04156050" target="_top" xlink:title="Restituisce l&#39;indice della prossima domanda da sottoporre al giocatore.">
<polygon fill="white" stroke="black" points="372.5,-114.5 372.5,-133.5 453.5,-133.5 453.5,-114.5 372.5,-114.5"/>
<text text-anchor="middle" x="413" y="-121.5" font-family="Helvetica,sans-Serif" font-size="10.00">Player.getNext</text>
</a>
</g>
</g>
<!-- Node6&#45;&gt;Node8 -->
<g id="edge7" class="edge"><title>Node6&#45;&gt;Node8</title>
<path fill="none" stroke="midnightblue" d="M300.599,-95.589C320.084,-100.558 344.075,-106.677 364.796,-111.961"/>
<polygon fill="midnightblue" stroke="midnightblue" points="364.117,-115.4 374.671,-114.48 365.846,-108.617 364.117,-115.4"/>
</g>
<!-- Node10 -->
<g id="node10" class="node"><title>Node10</title>
<g id="a_node10"><a xlink:href="class_player.html#aee96b4ebaa44ec51fd653c4079723bb8" target="_top" xlink:title="Restituisce la sessione del giocatore.">
<polygon fill="white" stroke="black" points="365,-76.5 365,-95.5 461,-95.5 461,-76.5 365,-76.5"/>
<text text-anchor="middle" x="413" y="-83.5" font-family="Helvetica,sans-Serif" font-size="10.00">Player.getSession</text>
</a>
</g>
</g>
<!-- Node6&#45;&gt;Node10 -->
<g id="edge9" class="edge"><title>Node6&#45;&gt;Node10</title>
<path fill="none" stroke="midnightblue" d="M316.792,-86C329.036,-86 342.089,-86 354.481,-86"/>
<polygon fill="midnightblue" stroke="midnightblue" points="354.702,-89.5001 364.702,-86 354.702,-82.5001 354.702,-89.5001"/>
</g>
<!-- Node11 -->
<g id="node11" class="node"><title>Node11</title>
<g id="a_node11"><a xlink:href="class_session.html#a8ab972666e7c0d311d4731d9eee566d2" target="_top" xlink:title="Imposta la risposta da inviare al client.">
<polygon fill="white" stroke="black" points="357,-38.5 357,-57.5 469,-57.5 469,-38.5 357,-38.5"/>
<text text-anchor="middle" x="413" y="-45.5" font-family="Helvetica,sans-Serif" font-size="10.00">Session.setResponse</text>
</a>
</g>
</g>
<!-- Node6&#45;&gt;Node11 -->
<g id="edge10" class="edge"><title>Node6&#45;&gt;Node11</title>
<path fill="none" stroke="midnightblue" d="M300.599,-76.411C320.084,-71.4417 344.075,-65.3233 364.796,-60.0387"/>
<polygon fill="midnightblue" stroke="midnightblue" points="365.846,-63.3828 374.671,-57.5201 364.117,-56.5999 365.846,-63.3828"/>
</g>
<!-- Node12 -->
<g id="node12" class="node"><title>Node12</title>
<g id="a_node12"><a xlink:href="class_translator.html#ad52c8ccdf35d16a095786e5e052b333a" target="_top" xlink:title="Traduce una parola dall&#39;italiano all&#39;inglese.">
<polygon fill="white" stroke="black" points="363,-0.5 363,-19.5 463,-19.5 463,-0.5 363,-0.5"/>
<text text-anchor="middle" x="413" y="-7.5" font-family="Helvetica,sans-Serif" font-size="10.00">Translator.translate</text>
</a>
</g>
</g>
<!-- Node6&#45;&gt;Node12 -->
<g id="edge11" class="edge"><title>Node6&#45;&gt;Node12</title>
<path fill="none" stroke="midnightblue" d="M276.81,-76.3344C294.691,-64.128 327.111,-43.0295 357,-29 361.452,-26.9101 366.201,-24.9278 370.971,-23.088"/>
<polygon fill="midnightblue" stroke="midnightblue" points="372.521,-26.248 380.707,-19.5223 370.113,-19.6749 372.521,-26.248"/>
</g>
<!-- Node9 -->
<g id="node9" class="node"><title>Node9</title>
<g id="a_node9"><a xlink:href="class_word_quizzle_server_service.html#a445af71c2bed6349e5239893b2e0ca8c" target="_top" xlink:title="Restituisce il numero di parole per sfida.">
<polygon fill="white" stroke="black" points="505,-114.5 505,-133.5 660,-133.5 660,-114.5 505,-114.5"/>
<text text-anchor="middle" x="582.5" y="-121.5" font-family="Helvetica,sans-Serif" font-size="10.00">WordQuizzleServerService.getK</text>
</a>
</g>
</g>
<!-- Node8&#45;&gt;Node9 -->
<g id="edge8" class="edge"><title>Node8&#45;&gt;Node9</title>
<path fill="none" stroke="midnightblue" d="M453.695,-124C466.073,-124 480.245,-124 494.543,-124"/>
<polygon fill="midnightblue" stroke="midnightblue" points="494.952,-127.5 504.951,-124 494.951,-120.5 494.952,-127.5"/>
</g>
</g>
</svg>
        <g id="navigator" transform="translate(0 0)" fill="#404254">
                <rect fill="#f2f5e9" fill-opacity="0.5" stroke="#606060" stroke-width=".5" x="0" y="0" width="60" height="60"/>
                <use id="zoomplus" xlink:href="#zoomPlus" x="17" y="9" onmousedown="handleZoom(evt,'in')"/>
                <use id="zoomminus" xlink:href="#zoomMin" x="42" y="9" onmousedown="handleZoom(evt,'out')"/>
                <use id="reset" xlink:href="#resetDef" x="30" y="36" onmousedown="handleReset()"/>
                <g id="arrowUp" xlink:href="#dirArrow" transform="translate(30 24)" onmousedown="handlePan(0,-1)">
                  <use xlink:href="#rim" fill="#404040">
                        <set attributeName="fill" to="#808080" begin="arrowUp.mouseover" end="arrowUp.mouseout"/>
                  </use>
                  <path fill="none" stroke="white" stroke-width="1.5" d="M0,-3.0v7 M-2.5,-0.5L0,-3.0L2.5,-0.5"/>
                </g>
                <g id="arrowRight" xlink:href="#dirArrow" transform="rotate(90) translate(36 -43)" onmousedown="handlePan(1,0)">
                  <use xlink:href="#rim" fill="#404040">
                        <set attributeName="fill" to="#808080" begin="arrowRight.mouseover" end="arrowRight.mouseout"/>
                  </use>
                  <path fill="none" stroke="white" stroke-width="1.5" d="M0,-3.0v7 M-2.5,-0.5L0,-3.0L2.5,-0.5"/>
                </g>
                <g id="arrowDown" xlink:href="#dirArrow" transform="rotate(180) translate(-30 -48)" onmousedown="handlePan(0,1)">
                  <use xlink:href="#rim" fill="#404040">
                        <set attributeName="fill" to="#808080" begin="arrowDown.mouseover" end="arrowDown.mouseout"/>
                  </use>
                  <path fill="none" stroke="white" stroke-width="1.5" d="M0,-3.0v7 M-2.5,-0.5L0,-3.0L2.5,-0.5"/>
                </g>
                <g id="arrowLeft" xlink:href="#dirArrow" transform="rotate(270) translate(-36 17)" onmousedown="handlePan(-1,0)">
                  <use xlink:href="#rim" fill="#404040">
                        <set attributeName="fill" to="#808080" begin="arrowLeft.mouseover" end="arrowLeft.mouseout"/>
                  </use>
                  <path fill="none" stroke="white" stroke-width="1.5" d="M0,-3.0v7 M-2.5,-0.5L0,-3.0L2.5,-0.5"/>
                </g>
        </g>
        <svg viewBox="0 0 15 15" width="100%" height="30px" preserveAspectRatio="xMaxYMin meet">
         <g id="arrow_out" transform="scale(0.3 0.3)">
          <a xlink:href="class_word_quizzle_server_service_a9b03b4a431c18e8d8385217e3fbd9a0a_cgraph_org.svg" target="_base">
           <rect id="button" ry="5" rx="5" y="6" x="6" height="38" width="38"
                fill="#f2f5e9" fill-opacity="0.5" stroke="#606060" stroke-width="1.0"/>
           <path id="arrow"
             d="M 11.500037,31.436501 C 11.940474,20.09759 22.043105,11.32322 32.158766,21.979434 L 37.068811,17.246167 C 37.068811,17.246167 37.088388,32 37.088388,32 L 22.160133,31.978069 C 22.160133,31.978069 26.997745,27.140456 26.997745,27.140456 C 18.528582,18.264221 13.291696,25.230495 11.500037,31.436501 z"
             style="fill:#404040;"/>
          </a>
         </g>
        </svg>
</svg>
