<?xml version="1.0" encoding="UTF-8" standalone="no"?>
<!DOCTYPE svg PUBLIC "-//W3C//DTD SVG 1.1//EN"
 "http://www.w3.org/Graphics/SVG/1.1/DTD/svg11.dtd">
<!-- Generated by graphviz version 2.38.0 (20140413.2041)
 -->
<!-- Title: WordQuizzleClient.mostra_classifica Pages: 1 -->
<svg width="526pt" height="39pt"
 viewBox="0.00 0.00 526.00 39.00" xmlns="http://www.w3.org/2000/svg" xmlns:xlink="http://www.w3.org/1999/xlink">
<g id="graph0" class="graph" transform="scale(1 1) rotate(0) translate(4 35)">
<title>WordQuizzleClient.mostra_classifica</title>
<polygon fill="white" stroke="none" points="-4,4 -4,-35 522,-35 522,4 -4,4"/>
<!-- Node1 -->
<g id="node1" class="node"><title>Node1</title>
<g id="a_node1"><a xlink:title=" ">
<polygon fill="#bfbfbf" stroke="black" points="0,-0.5 0,-30.5 131,-30.5 131,-0.5 0,-0.5"/>
<text text-anchor="start" x="8" y="-18.5" font-family="Helvetica,sans-Serif" font-size="10.00">WordQuizzleClient.mostra</text>
<text text-anchor="middle" x="65.5" y="-7.5" font-family="Helvetica,sans-Serif" font-size="10.00">_classifica</text>
</a>
</g>
</g>
<!-- Node2 -->
<g id="node2" class="node"><title>Node2</title>
<g id="a_node2"><a xlink:href="class_word_quizzle_client_service.html#a4f7f08d10b089539f4173202836cee10" target="_top" xlink:title=" ">
<polygon fill="white" stroke="black" points="167,-0.5 167,-30.5 329,-30.5 329,-0.5 167,-0.5"/>
<text text-anchor="start" x="175" y="-18.5" font-family="Helvetica,sans-Serif" font-size="10.00">WordQuizzleClientService.mostra</text>
<text text-anchor="middle" x="248" y="-7.5" font-family="Helvetica,sans-Serif" font-size="10.00">_classifica</text>
</a>
</g>
</g>
<!-- Node1&#45;&gt;Node2 -->
<g id="edge1" class="edge"><title>Node1&#45;&gt;Node2</title>
<path fill="none" stroke="midnightblue" d="M131.155,-15.5C139.443,-15.5 148.046,-15.5 156.65,-15.5"/>
<polygon fill="midnightblue" stroke="midnightblue" points="156.732,-19.0001 166.732,-15.5 156.732,-12.0001 156.732,-19.0001"/>
</g>
<!-- Node3 -->
<g id="node3" class="node"><title>Node3</title>
<g id="a_node3"><a xlink:href="class_word_quizzle_client_service.html#a6132feed91596156595e4f36713acade" target="_top" xlink:title=" ">
<polygon fill="white" stroke="black" points="365,-6 365,-25 518,-25 518,-6 365,-6"/>
<text text-anchor="middle" x="441.5" y="-13" font-family="Helvetica,sans-Serif" font-size="10.00">WordQuizzleClientService.send</text>
</a>
</g>
</g>
<!-- Node2&#45;&gt;Node3 -->
<g id="edge2" class="edge"><title>Node2&#45;&gt;Node3</title>
<path fill="none" stroke="midnightblue" d="M329.104,-15.5C337.483,-15.5 346.027,-15.5 354.469,-15.5"/>
<polygon fill="midnightblue" stroke="midnightblue" points="354.698,-19.0001 364.698,-15.5 354.698,-12.0001 354.698,-19.0001"/>
</g>
</g>
</svg>
