<?xml version="1.0" encoding="UTF-8" standalone="no"?>
<!DOCTYPE svg PUBLIC "-//W3C//DTD SVG 1.1//EN"
 "http://www.w3.org/Graphics/SVG/1.1/DTD/svg11.dtd">
<!-- Generated by graphviz version 2.38.0 (20140413.2041)
 -->
<!-- Title: WordQuizzleServerService.getT1 Pages: 1 -->
<svg width="420pt" height="104pt"
 viewBox="0.00 0.00 420.00 104.00" xmlns="http://www.w3.org/2000/svg" xmlns:xlink="http://www.w3.org/1999/xlink">
<g id="graph0" class="graph" transform="scale(1 1) rotate(0) translate(4 100)">
<title>WordQuizzleServerService.getT1</title>
<polygon fill="white" stroke="none" points="-4,4 -4,-100 416,-100 416,4 -4,4"/>
<!-- Node1 -->
<g id="node1" class="node"><title>Node1</title>
<g id="a_node1"><a xlink:title="Restituisce il tempo di attesa per l&#39;accettazione di una richiesta, in millisecondi.">
<polygon fill="#bfbfbf" stroke="black" points="254,-38.5 254,-57.5 412,-57.5 412,-38.5 254,-38.5"/>
<text text-anchor="middle" x="333" y="-45.5" font-family="Helvetica,sans-Serif" font-size="10.00">WordQuizzleServerService.getT1</text>
</a>
</g>
</g>
<!-- Node2 -->
<g id="node2" class="node"><title>Node2</title>
<g id="a_node2"><a xlink:href="class_w_q_cli.html#ac8782ba29a63a974f4e17365f8817edd" target="_top" xlink:title="Gestisce una richiesta di sfida.">
<polygon fill="white" stroke="black" points="105,-76.5 105,-95.5 218,-95.5 218,-76.5 105,-76.5"/>
<text text-anchor="middle" x="161.5" y="-83.5" font-family="Helvetica,sans-Serif" font-size="10.00">WQCli.nuovaRichiesta</text>
</a>
</g>
</g>
<!-- Node1&#45;&gt;Node2 -->
<g id="edge1" class="edge"><title>Node1&#45;&gt;Node2</title>
<path fill="none" stroke="midnightblue" d="M279.258,-59.8243C255.361,-65.1816 227.485,-71.4311 204.964,-76.4799"/>
<polygon fill="midnightblue" stroke="midnightblue" points="280.236,-63.1919 289.228,-57.589 278.705,-56.3614 280.236,-63.1919"/>
</g>
<!-- Node4 -->
<g id="node4" class="node"><title>Node4</title>
<g id="a_node4"><a xlink:href="class_notifier.html#a1e6abba853ca6fe241ce37a988ee818f" target="_top" xlink:title="Attende l&#39;arrivo di una richiesta e se il client non e&#39; impegnato in una sfida gli notifica la richie...">
<polygon fill="white" stroke="black" points="130,-38.5 130,-57.5 193,-57.5 193,-38.5 130,-38.5"/>
<text text-anchor="middle" x="161.5" y="-45.5" font-family="Helvetica,sans-Serif" font-size="10.00">Notifier.run</text>
</a>
</g>
</g>
<!-- Node1&#45;&gt;Node4 -->
<g id="edge3" class="edge"><title>Node1&#45;&gt;Node4</title>
<path fill="none" stroke="midnightblue" d="M243.597,-48C225.414,-48 207.456,-48 193.079,-48"/>
<polygon fill="midnightblue" stroke="midnightblue" points="243.7,-51.5001 253.7,-48 243.7,-44.5001 243.7,-51.5001"/>
</g>
<!-- Node5 -->
<g id="node5" class="node"><title>Node5</title>
<g id="a_node5"><a xlink:href="class_challenge.html#adfd88e7904c2d0954ca82e07890c5ca4" target="_top" xlink:title="Gestisce la sfida.">
<polygon fill="white" stroke="black" points="123.5,-0.5 123.5,-19.5 199.5,-19.5 199.5,-0.5 123.5,-0.5"/>
<text text-anchor="middle" x="161.5" y="-7.5" font-family="Helvetica,sans-Serif" font-size="10.00">Challenge.run</text>
</a>
</g>
</g>
<!-- Node1&#45;&gt;Node5 -->
<g id="edge4" class="edge"><title>Node1&#45;&gt;Node5</title>
<path fill="none" stroke="midnightblue" d="M279.204,-36.1637C253.346,-30.3666 222.838,-23.5272 199.501,-18.2952"/>
<polygon fill="midnightblue" stroke="midnightblue" points="278.705,-39.6386 289.228,-38.411 280.236,-32.8081 278.705,-39.6386"/>
</g>
<!-- Node3 -->
<g id="node3" class="node"><title>Node3</title>
<g id="a_node3"><a xlink:href="class_w_q_cli.html#a13932f1ea4f257ce081aa524f090b6ee" target="_top" xlink:title="Gestisce l&#39;interazione con l&#39;utente.">
<polygon fill="white" stroke="black" points="0,-76.5 0,-95.5 69,-95.5 69,-76.5 0,-76.5"/>
<text text-anchor="middle" x="34.5" y="-83.5" font-family="Helvetica,sans-Serif" font-size="10.00">WQCli.main</text>
</a>
</g>
</g>
<!-- Node2&#45;&gt;Node3 -->
<g id="edge2" class="edge"><title>Node2&#45;&gt;Node3</title>
<path fill="none" stroke="midnightblue" d="M94.8478,-86C85.9022,-86 77.0429,-86 69.0054,-86"/>
<polygon fill="midnightblue" stroke="midnightblue" points="94.9453,-89.5001 104.945,-86 94.9452,-82.5001 94.9453,-89.5001"/>
</g>
</g>
</svg>
