<?xml version="1.0" encoding="UTF-8" standalone="no"?>
<!DOCTYPE svg PUBLIC "-//W3C//DTD SVG 1.1//EN"
 "http://www.w3.org/Graphics/SVG/1.1/DTD/svg11.dtd">
<!-- Generated by graphviz version 2.38.0 (20140413.2041)
 -->
<!-- Title: WordQuizzleClientService Pages: 1 -->
<svg width="325pt" height="446pt"
 viewBox="0.00 0.00 325.00 446.00" xmlns="http://www.w3.org/2000/svg" xmlns:xlink="http://www.w3.org/1999/xlink">
<g id="graph0" class="graph" transform="scale(1 1) rotate(0) translate(4 442)">
<title>WordQuizzleClientService</title>
<polygon fill="white" stroke="none" points="-4,4 -4,-442 321,-442 321,4 -4,4"/>
<!-- Node1 -->
<g id="node1" class="node"><title>Node1</title>
<g id="a_node1"><a xlink:title="Implementa i servizi offerti ai client per l&#39;interazione con il server.">
<polygon fill="#bfbfbf" stroke="black" points="96.5,-0.5 96.5,-222.5 240.5,-222.5 240.5,-0.5 96.5,-0.5"/>
<text text-anchor="middle" x="168.5" y="-210.5" font-family="Helvetica,sans-Serif" font-size="10.00">WordQuizzleClientService</text>
<polyline fill="none" stroke="black" points="96.5,-203.5 240.5,-203.5 "/>
<text text-anchor="middle" x="168.5" y="-191.5" font-family="Helvetica,sans-Serif" font-size="10.00"> </text>
<polyline fill="none" stroke="black" points="96.5,-184.5 240.5,-184.5 "/>
<text text-anchor="start" x="104.5" y="-172.5" font-family="Helvetica,sans-Serif" font-size="10.00">+ WordQuizzleClientService()</text>
<text text-anchor="start" x="104.5" y="-161.5" font-family="Helvetica,sans-Serif" font-size="10.00">+ registra_utente()</text>
<text text-anchor="start" x="104.5" y="-150.5" font-family="Helvetica,sans-Serif" font-size="10.00">+ login()</text>
<text text-anchor="start" x="104.5" y="-139.5" font-family="Helvetica,sans-Serif" font-size="10.00">+ login()</text>
<text text-anchor="start" x="104.5" y="-128.5" font-family="Helvetica,sans-Serif" font-size="10.00">+ logout()</text>
<text text-anchor="start" x="104.5" y="-117.5" font-family="Helvetica,sans-Serif" font-size="10.00">+ aggiungi_amico()</text>
<text text-anchor="start" x="104.5" y="-106.5" font-family="Helvetica,sans-Serif" font-size="10.00">+ sfida()</text>
<text text-anchor="start" x="104.5" y="-95.5" font-family="Helvetica,sans-Serif" font-size="10.00">+ lista_amici()</text>
<text text-anchor="start" x="104.5" y="-84.5" font-family="Helvetica,sans-Serif" font-size="10.00">+ mostra_punteggio()</text>
<text text-anchor="start" x="104.5" y="-73.5" font-family="Helvetica,sans-Serif" font-size="10.00">+ mostra_classifica()</text>
<text text-anchor="start" x="104.5" y="-62.5" font-family="Helvetica,sans-Serif" font-size="10.00">+ controllaRichieste()</text>
<text text-anchor="start" x="104.5" y="-51.5" font-family="Helvetica,sans-Serif" font-size="10.00">+ accettaSfida()</text>
<text text-anchor="start" x="104.5" y="-40.5" font-family="Helvetica,sans-Serif" font-size="10.00">+ sendTranslation()</text>
<text text-anchor="start" x="104.5" y="-29.5" font-family="Helvetica,sans-Serif" font-size="10.00">&#45; write()</text>
<text text-anchor="start" x="104.5" y="-18.5" font-family="Helvetica,sans-Serif" font-size="10.00">&#45; read()</text>
<text text-anchor="start" x="104.5" y="-7.5" font-family="Helvetica,sans-Serif" font-size="10.00">&#45; send()</text>
</a>
</g>
</g>
<!-- Node2 -->
<g id="node2" class="node"><title>Node2</title>
<g id="a_node2"><a xlink:href="interface_word_quizzle_service.html" target="_top" xlink:title="Interfaccia che definisce i servizi utilizzabili da un client.">
<polygon fill="white" stroke="black" points="0,-270.5 0,-437.5 109,-437.5 109,-270.5 0,-270.5"/>
<text text-anchor="middle" x="54.5" y="-425.5" font-family="Helvetica,sans-Serif" font-size="10.00">WordQuizzleService</text>
<polyline fill="none" stroke="black" points="0,-418.5 109,-418.5 "/>
<text text-anchor="middle" x="54.5" y="-406.5" font-family="Helvetica,sans-Serif" font-size="10.00"> </text>
<polyline fill="none" stroke="black" points="0,-399.5 109,-399.5 "/>
<text text-anchor="start" x="8" y="-387.5" font-family="Helvetica,sans-Serif" font-size="10.00">+ registra_utente()</text>
<text text-anchor="start" x="8" y="-376.5" font-family="Helvetica,sans-Serif" font-size="10.00">+ login()</text>
<text text-anchor="start" x="8" y="-365.5" font-family="Helvetica,sans-Serif" font-size="10.00">+ logout()</text>
<text text-anchor="start" x="8" y="-354.5" font-family="Helvetica,sans-Serif" font-size="10.00">+ aggiungi_amico()</text>
<text text-anchor="start" x="8" y="-343.5" font-family="Helvetica,sans-Serif" font-size="10.00">+ sfida()</text>
<text text-anchor="start" x="8" y="-332.5" font-family="Helvetica,sans-Serif" font-size="10.00">+ lista_amici()</text>
<text text-anchor="start" x="8" y="-321.5" font-family="Helvetica,sans-Serif" font-size="10.00">+ mostra_punteggio()</text>
<text text-anchor="start" x="8" y="-310.5" font-family="Helvetica,sans-Serif" font-size="10.00">+ mostra_classifica()</text>
<text text-anchor="start" x="8" y="-299.5" font-family="Helvetica,sans-Serif" font-size="10.00">+ accettaSfida()</text>
<text text-anchor="start" x="8" y="-288.5" font-family="Helvetica,sans-Serif" font-size="10.00">+ sendTranslation()</text>
<text text-anchor="start" x="8" y="-277.5" font-family="Helvetica,sans-Serif" font-size="10.00">+ controllaRichieste()</text>
</a>
</g>
</g>
<!-- Node2&#45;&gt;Node1 -->
<g id="edge1" class="edge"><title>Node2&#45;&gt;Node1</title>
<path fill="none" stroke="midnightblue" d="M98.0418,-261.142C104.017,-248.537 110.201,-235.491 116.31,-222.602"/>
<polygon fill="none" stroke="midnightblue" points="94.853,-259.698 93.7323,-270.234 101.178,-262.696 94.853,-259.698"/>
</g>
<!-- Node3 -->
<g id="node3" class="node"><title>Node3</title>
<g id="a_node3"><a xlink:title=" ">
<polygon fill="white" stroke="#bfbfbf" points="127,-325.5 127,-382.5 210,-382.5 210,-325.5 127,-325.5"/>
<text text-anchor="middle" x="168.5" y="-370.5" font-family="Helvetica,sans-Serif" font-size="10.00">SocketChannel</text>
<polyline fill="none" stroke="#bfbfbf" points="127,-363.5 210,-363.5 "/>
<text text-anchor="middle" x="168.5" y="-351.5" font-family="Helvetica,sans-Serif" font-size="10.00"> </text>
<polyline fill="none" stroke="#bfbfbf" points="127,-344.5 210,-344.5 "/>
<text text-anchor="middle" x="168.5" y="-332.5" font-family="Helvetica,sans-Serif" font-size="10.00"> </text>
</a>
</g>
</g>
<!-- Node3&#45;&gt;Node1 -->
<g id="edge2" class="edge"><title>Node3&#45;&gt;Node1</title>
<path fill="none" stroke="#404040" d="M168.5,-325.412C168.5,-302.676 168.5,-268.726 168.5,-234.58"/>
<polygon fill="none" stroke="#404040" points="168.5,-234.511 164.5,-228.511 168.5,-222.511 172.5,-228.511 168.5,-234.511"/>
<text text-anchor="middle" x="186.5" y="-244" font-family="Helvetica,sans-Serif" font-size="10.00"> &#45;socket</text>
</g>
<!-- Node4 -->
<g id="node4" class="node"><title>Node4</title>
<g id="a_node4"><a xlink:title=" ">
<polygon fill="white" stroke="#bfbfbf" points="228,-325.5 228,-382.5 317,-382.5 317,-325.5 228,-325.5"/>
<text text-anchor="middle" x="272.5" y="-370.5" font-family="Helvetica,sans-Serif" font-size="10.00">DatagramSocket</text>
<polyline fill="none" stroke="#bfbfbf" points="228,-363.5 317,-363.5 "/>
<text text-anchor="middle" x="272.5" y="-351.5" font-family="Helvetica,sans-Serif" font-size="10.00"> </text>
<polyline fill="none" stroke="#bfbfbf" points="228,-344.5 317,-344.5 "/>
<text text-anchor="middle" x="272.5" y="-332.5" font-family="Helvetica,sans-Serif" font-size="10.00"> </text>
</a>
</g>
</g>
<!-- Node4&#45;&gt;Node1 -->
<g id="edge3" class="edge"><title>Node4&#45;&gt;Node1</title>
<path fill="none" stroke="#404040" d="M260.57,-325.412C250.652,-302.477 235.8,-268.132 220.904,-233.685"/>
<polygon fill="none" stroke="#404040" points="220.836,-233.526 214.783,-229.606 216.073,-222.511 222.125,-226.431 220.836,-233.526"/>
<text text-anchor="middle" x="237.5" y="-244" font-family="Helvetica,sans-Serif" font-size="10.00"> &#45;udp</text>
</g>
</g>
</svg>
