<?xml version="1.0" encoding="UTF-8" standalone="no"?>
<!DOCTYPE svg PUBLIC "-//W3C//DTD SVG 1.1//EN"
 "http://www.w3.org/Graphics/SVG/1.1/DTD/svg11.dtd">
<!-- Generated by graphviz version 2.38.0 (20140413.2041)
 -->
<!-- Title: WordQuizzle.Challenge.getStartTime Pages: 1 -->
<!--zoomable 88 -->
<svg id="main" version="1.1" xmlns="http://www.w3.org/2000/svg" xmlns:xlink="http://www.w3.org/1999/xlink" xml:space="preserve" onload="init(evt)">
<style type="text/css"><![CDATA[
.edge:hover path { stroke: red; }
.edge:hover polygon { stroke: red; fill: red; }
]]></style>
<script type="text/javascript"><![CDATA[
var edges = document.getElementsByTagName('g');
if (edges && edges.length) {
  for (var i=0;i<edges.length;i++) {
    if (edges[i].id.substr(0,4)=='edge') {
      edges[i].setAttribute('class','edge');
    }
  }
}
]]></script>
        <defs>
                <circle id="rim" cx="0" cy="0" r="7"/>
                <circle id="rim2" cx="0" cy="0" r="3.5"/>
                <g id="zoomPlus">
                        <use xlink:href="#rim" fill="#404040">
                                <set attributeName="fill" to="#808080" begin="zoomplus.mouseover" end="zoomplus.mouseout"/>
                        </use>
                        <path d="M-4,0h8M0,-4v8" fill="none" stroke="white" stroke-width="1.5" pointer-events="none"/>
                </g>
                <g id="zoomMin">
                        <use xlink:href="#rim" fill="#404040">
                                <set attributeName="fill" to="#808080" begin="zoomminus.mouseover" end="zoomminus.mouseout"/>
                        </use>
                        <path d="M-4,0h8" fill="none" stroke="white" stroke-width="1.5" pointer-events="none"/>
                </g>
                <g id="dirArrow">
                        <path fill="none" stroke="white" stroke-width="1.5" d="M0,-3.0v7 M-2.5,-0.5L0,-3.0L2.5,-0.5"/>
                </g>
               <g id="resetDef">
                       <use xlink:href="#rim2" fill="#404040">
                               <set attributeName="fill" to="#808080" begin="reset.mouseover" end="reset.mouseout"/>
                       </use>
               </g>
        </defs>

<script type="text/javascript">
var viewWidth = 912;
var viewHeight = 88;
var sectionId = 'dynsection-9';
</script>
<script xlink:href="svgpan.js"/>
<svg id="graph" class="graph">
<g id="viewport">
<title>WordQuizzle.Challenge.getStartTime</title>
<polygon fill="white" stroke="none" points="-4,4 -4,-84 908,-84 908,4 -4,4"/>
<!-- Node1 -->
<g id="node1" class="node"><title>Node1</title>
<g id="a_node1"><a xlink:title="Restituisce il tempo di creazione della sfida.">
<polygon fill="#bfbfbf" stroke="black" points="769,-24.5 769,-54.5 904,-54.5 904,-24.5 769,-24.5"/>
<text text-anchor="start" x="777" y="-42.5" font-family="Helvetica,sans-Serif" font-size="10.00">WordQuizzle.Challenge.get</text>
<text text-anchor="middle" x="836.5" y="-31.5" font-family="Helvetica,sans-Serif" font-size="10.00">StartTime</text>
</a>
</g>
</g>
<!-- Node2 -->
<g id="node2" class="node"><title>Node2</title>
<g id="a_node2"><a xlink:href="class_word_quizzle_1_1_word_quizzle_server_service.html#aebc8c566d10a0d24752a33f146f03a2a" target="_top" xlink:title=" ">
<polygon fill="white" stroke="black" points="574,-49.5 574,-79.5 733,-79.5 733,-49.5 574,-49.5"/>
<text text-anchor="start" x="582" y="-67.5" font-family="Helvetica,sans-Serif" font-size="10.00">WordQuizzle.WordQuizzleServer</text>
<text text-anchor="middle" x="653.5" y="-56.5" font-family="Helvetica,sans-Serif" font-size="10.00">Service.accettaSfida</text>
</a>
</g>
</g>
<!-- Node1&#45;&gt;Node2 -->
<g id="edge1" class="edge"><title>Node1&#45;&gt;Node2</title>
<path fill="none" stroke="midnightblue" d="M758.7,-50.1077C750.278,-51.2711 741.693,-52.4568 733.247,-53.6233"/>
<polygon fill="midnightblue" stroke="midnightblue" points="759.446,-53.538 768.873,-48.7026 758.489,-46.6038 759.446,-53.538"/>
</g>
<!-- Node7 -->
<g id="node7" class="node"><title>Node7</title>
<g id="a_node7"><a xlink:href="class_word_quizzle_1_1_word_quizzle_server_service.html#aee4ec771e269748e727002f9fa02e8a0" target="_top" xlink:title=" ">
<polygon fill="white" stroke="black" points="574,-0.5 574,-30.5 733,-30.5 733,-0.5 574,-0.5"/>
<text text-anchor="start" x="582" y="-18.5" font-family="Helvetica,sans-Serif" font-size="10.00">WordQuizzle.WordQuizzleServer</text>
<text text-anchor="middle" x="653.5" y="-7.5" font-family="Helvetica,sans-Serif" font-size="10.00">Service.sfida</text>
</a>
</g>
</g>
<!-- Node1&#45;&gt;Node7 -->
<g id="edge6" class="edge"><title>Node1&#45;&gt;Node7</title>
<path fill="none" stroke="midnightblue" d="M758.7,-29.3166C750.278,-28.1998 741.693,-27.0615 733.247,-25.9416"/>
<polygon fill="midnightblue" stroke="midnightblue" points="758.5,-32.8206 768.873,-30.6655 759.42,-25.8814 758.5,-32.8206"/>
</g>
<!-- Node3 -->
<g id="node3" class="node"><title>Node3</title>
<g id="a_node3"><a xlink:href="class_word_quizzle_1_1_session.html#a21992c338367b1a3c2e57fdb7cae3018" target="_top" xlink:title="Gestisce effettivamente la richiesta del client.">
<polygon fill="white" stroke="black" points="386,-30 386,-49 538,-49 538,-30 386,-30"/>
<text text-anchor="middle" x="462" y="-37" font-family="Helvetica,sans-Serif" font-size="10.00">WordQuizzle.Session.compute</text>
</a>
</g>
</g>
<!-- Node2&#45;&gt;Node3 -->
<g id="edge2" class="edge"><title>Node2&#45;&gt;Node3</title>
<path fill="none" stroke="midnightblue" d="M563.808,-52.7992C554.192,-51.5306 544.493,-50.251 535.108,-49.013"/>
<polygon fill="midnightblue" stroke="midnightblue" points="563.409,-56.2769 573.781,-54.1149 564.325,-49.337 563.409,-56.2769"/>
</g>
<!-- Node4 -->
<g id="node4" class="node"><title>Node4</title>
<g id="a_node4"><a xlink:href="class_word_quizzle_1_1_session.html#a6793f02ea7cab6fffe0361893cf40178" target="_top" xlink:title="Riceve una stringa contenente uan richiesta da parte del client e la gestisce.">
<polygon fill="white" stroke="black" points="212,-30 212,-49 350,-49 350,-30 212,-30"/>
<text text-anchor="middle" x="281" y="-37" font-family="Helvetica,sans-Serif" font-size="10.00">WordQuizzle.Session.parse</text>
</a>
</g>
</g>
<!-- Node3&#45;&gt;Node4 -->
<g id="edge3" class="edge"><title>Node3&#45;&gt;Node4</title>
<path fill="none" stroke="midnightblue" d="M375.793,-39.5C367.175,-39.5 358.505,-39.5 350.101,-39.5"/>
<polygon fill="midnightblue" stroke="midnightblue" points="375.866,-43.0001 385.866,-39.5 375.866,-36.0001 375.866,-43.0001"/>
</g>
<!-- Node5 -->
<g id="node5" class="node"><title>Node5</title>
<g id="a_node5"><a xlink:href="class_word_quizzle_1_1_word_quizzle_server.html#a4aa19bad373d06a790babba1e5b67644" target="_top" xlink:title="Gestisce le interazioni con i client.">
<polygon fill="white" stroke="black" points="0,-49 0,-68 176,-68 176,-49 0,-49"/>
<text text-anchor="middle" x="88" y="-56" font-family="Helvetica,sans-Serif" font-size="10.00">WordQuizzle.WordQuizzleServer.run</text>
</a>
</g>
</g>
<!-- Node4&#45;&gt;Node5 -->
<g id="edge4" class="edge"><title>Node4&#45;&gt;Node5</title>
<path fill="none" stroke="midnightblue" d="M201.692,-47.2898C193.27,-48.1275 184.665,-48.9836 176.149,-49.8308"/>
<polygon fill="midnightblue" stroke="midnightblue" points="202.249,-50.7517 211.854,-46.279 201.556,-43.7861 202.249,-50.7517"/>
</g>
<!-- Node6 -->
<g id="node6" class="node"><title>Node6</title>
<g id="a_node6"><a xlink:href="class_word_quizzle_1_1_challenge.html#aa7b93cfc7d1927c0b1c060cc387321b9" target="_top" xlink:title="Gestisce la sfida.">
<polygon fill="white" stroke="black" points="20.5,-11 20.5,-30 155.5,-30 155.5,-11 20.5,-11"/>
<text text-anchor="middle" x="88" y="-18" font-family="Helvetica,sans-Serif" font-size="10.00">WordQuizzle.Challenge.run</text>
</a>
</g>
</g>
<!-- Node4&#45;&gt;Node6 -->
<g id="edge5" class="edge"><title>Node4&#45;&gt;Node6</title>
<path fill="none" stroke="midnightblue" d="M201.853,-31.7263C186.473,-30.1963 170.471,-28.6045 155.517,-27.1169"/>
<polygon fill="midnightblue" stroke="midnightblue" points="201.556,-35.2139 211.854,-32.721 202.249,-28.2483 201.556,-35.2139"/>
</g>
<!-- Node7&#45;&gt;Node3 -->
<g id="edge7" class="edge"><title>Node7&#45;&gt;Node3</title>
<path fill="none" stroke="midnightblue" d="M563.764,-26.7383C555.191,-27.8241 546.552,-28.9182 538.129,-29.9849"/>
<polygon fill="midnightblue" stroke="midnightblue" points="564.3,-30.1985 573.781,-25.4697 563.421,-23.2539 564.3,-30.1985"/>
</g>
</g>
</svg>
        <g id="navigator" transform="translate(0 0)" fill="#404254">
                <rect fill="#f2f5e9" fill-opacity="0.5" stroke="#606060" stroke-width=".5" x="0" y="0" width="60" height="60"/>
                <use id="zoomplus" xlink:href="#zoomPlus" x="17" y="9" onmousedown="handleZoom(evt,'in')"/>
                <use id="zoomminus" xlink:href="#zoomMin" x="42" y="9" onmousedown="handleZoom(evt,'out')"/>
                <use id="reset" xlink:href="#resetDef" x="30" y="36" onmousedown="handleReset()"/>
                <g id="arrowUp" xlink:href="#dirArrow" transform="translate(30 24)" onmousedown="handlePan(0,-1)">
                  <use xlink:href="#rim" fill="#404040">
                        <set attributeName="fill" to="#808080" begin="arrowUp.mouseover" end="arrowUp.mouseout"/>
                  </use>
                  <path fill="none" stroke="white" stroke-width="1.5" d="M0,-3.0v7 M-2.5,-0.5L0,-3.0L2.5,-0.5"/>
                </g>
                <g id="arrowRight" xlink:href="#dirArrow" transform="rotate(90) translate(36 -43)" onmousedown="handlePan(1,0)">
                  <use xlink:href="#rim" fill="#404040">
                        <set attributeName="fill" to="#808080" begin="arrowRight.mouseover" end="arrowRight.mouseout"/>
                  </use>
                  <path fill="none" stroke="white" stroke-width="1.5" d="M0,-3.0v7 M-2.5,-0.5L0,-3.0L2.5,-0.5"/>
                </g>
                <g id="arrowDown" xlink:href="#dirArrow" transform="rotate(180) translate(-30 -48)" onmousedown="handlePan(0,1)">
                  <use xlink:href="#rim" fill="#404040">
                        <set attributeName="fill" to="#808080" begin="arrowDown.mouseover" end="arrowDown.mouseout"/>
                  </use>
                  <path fill="none" stroke="white" stroke-width="1.5" d="M0,-3.0v7 M-2.5,-0.5L0,-3.0L2.5,-0.5"/>
                </g>
                <g id="arrowLeft" xlink:href="#dirArrow" transform="rotate(270) translate(-36 17)" onmousedown="handlePan(-1,0)">
                  <use xlink:href="#rim" fill="#404040">
                        <set attributeName="fill" to="#808080" begin="arrowLeft.mouseover" end="arrowLeft.mouseout"/>
                  </use>
                  <path fill="none" stroke="white" stroke-width="1.5" d="M0,-3.0v7 M-2.5,-0.5L0,-3.0L2.5,-0.5"/>
                </g>
        </g>
        <svg viewBox="0 0 15 15" width="100%" height="30px" preserveAspectRatio="xMaxYMin meet">
         <g id="arrow_out" transform="scale(0.3 0.3)">
          <a xlink:href="class_word_quizzle_1_1_challenge_a5c11b31b9fe597b760b5b4817d1c0dc0_icgraph_org.svg" target="_base">
           <rect id="button" ry="5" rx="5" y="6" x="6" height="38" width="38"
                fill="#f2f5e9" fill-opacity="0.5" stroke="#606060" stroke-width="1.0"/>
           <path id="arrow"
             d="M 11.500037,31.436501 C 11.940474,20.09759 22.043105,11.32322 32.158766,21.979434 L 37.068811,17.246167 C 37.068811,17.246167 37.088388,32 37.088388,32 L 22.160133,31.978069 C 22.160133,31.978069 26.997745,27.140456 26.997745,27.140456 C 18.528582,18.264221 13.291696,25.230495 11.500037,31.436501 z"
             style="fill:#404040;"/>
          </a>
         </g>
        </svg>
</svg>
