<?xml version="1.0" encoding="UTF-8" standalone="no"?>
<!DOCTYPE svg PUBLIC "-//W3C//DTD SVG 1.1//EN"
 "http://www.w3.org/Graphics/SVG/1.1/DTD/svg11.dtd">
<!-- Generated by graphviz version 2.38.0 (20140413.2041)
 -->
<!-- Title: WordQuizzleServer Pages: 1 -->
<svg width="123pt" height="204pt"
 viewBox="0.00 0.00 123.00 204.00" xmlns="http://www.w3.org/2000/svg" xmlns:xlink="http://www.w3.org/1999/xlink">
<g id="graph0" class="graph" transform="scale(1 1) rotate(0) translate(4 200)">
<title>WordQuizzleServer</title>
<polygon fill="white" stroke="none" points="-4,4 -4,-200 119,-200 119,4 -4,4"/>
<!-- Node1 -->
<g id="node1" class="node"><title>Node1</title>
<g id="a_node1"><a xlink:title="Il server che gestisce le interazioni con i client.">
<polygon fill="#bfbfbf" stroke="black" points="0,-0.5 0,-101.5 115,-101.5 115,-0.5 0,-0.5"/>
<text text-anchor="middle" x="57.5" y="-89.5" font-family="Helvetica,sans-Serif" font-size="10.00">WordQuizzleServer</text>
<polyline fill="none" stroke="black" points="0,-82.5 115,-82.5 "/>
<text text-anchor="start" x="8" y="-70.5" font-family="Helvetica,sans-Serif" font-size="10.00">&#45; server</text>
<text text-anchor="start" x="8" y="-59.5" font-family="Helvetica,sans-Serif" font-size="10.00">&#45; selector</text>
<text text-anchor="start" x="8" y="-48.5" font-family="Helvetica,sans-Serif" font-size="10.00">&#45; wq</text>
<polyline fill="none" stroke="black" points="0,-41.5 115,-41.5 "/>
<text text-anchor="start" x="8" y="-29.5" font-family="Helvetica,sans-Serif" font-size="10.00">+ WordQuizzleServer()</text>
<text text-anchor="start" x="8" y="-18.5" font-family="Helvetica,sans-Serif" font-size="10.00">+ run()</text>
<text text-anchor="start" x="8" y="-7.5" font-family="Helvetica,sans-Serif" font-size="10.00">+ main()</text>
</a>
</g>
</g>
<!-- Node2 -->
<g id="node2" class="node"><title>Node2</title>
<g id="a_node2"><a xlink:title=" ">
<polygon fill="white" stroke="#bfbfbf" points="29,-138.5 29,-195.5 86,-195.5 86,-138.5 29,-138.5"/>
<text text-anchor="middle" x="57.5" y="-183.5" font-family="Helvetica,sans-Serif" font-size="10.00">Runnable</text>
<polyline fill="none" stroke="#bfbfbf" points="29,-176.5 86,-176.5 "/>
<text text-anchor="middle" x="57.5" y="-164.5" font-family="Helvetica,sans-Serif" font-size="10.00"> </text>
<polyline fill="none" stroke="#bfbfbf" points="29,-157.5 86,-157.5 "/>
<text text-anchor="middle" x="57.5" y="-145.5" font-family="Helvetica,sans-Serif" font-size="10.00"> </text>
</a>
</g>
</g>
<!-- Node2&#45;&gt;Node1 -->
<g id="edge1" class="edge"><title>Node2&#45;&gt;Node1</title>
<path fill="none" stroke="midnightblue" d="M57.5,-128.354C57.5,-119.796 57.5,-110.578 57.5,-101.608"/>
<polygon fill="none" stroke="midnightblue" points="54.0001,-128.404 57.5,-138.404 61.0001,-128.404 54.0001,-128.404"/>
</g>
</g>
</svg>
