<?xml version="1.0" encoding="UTF-8" standalone="no"?>
<!DOCTYPE svg PUBLIC "-//W3C//DTD SVG 1.1//EN"
 "http://www.w3.org/Graphics/SVG/1.1/DTD/svg11.dtd">
<!-- Generated by graphviz version 2.38.0 (20140413.2041)
 -->
<!-- Title: Challenge Pages: 1 -->
<!--zoomable 1265 -->
<svg id="main" version="1.1" xmlns="http://www.w3.org/2000/svg" xmlns:xlink="http://www.w3.org/1999/xlink" xml:space="preserve" onload="init(evt)">
<style type="text/css"><![CDATA[
.edge:hover path { stroke: red; }
.edge:hover polygon { stroke: red; fill: red; }
]]></style>
<script type="text/javascript"><![CDATA[
var edges = document.getElementsByTagName('g');
if (edges && edges.length) {
  for (var i=0;i<edges.length;i++) {
    if (edges[i].id.substr(0,4)=='edge') {
      edges[i].setAttribute('class','edge');
    }
  }
}
]]></script>
        <defs>
                <circle id="rim" cx="0" cy="0" r="7"/>
                <circle id="rim2" cx="0" cy="0" r="3.5"/>
                <g id="zoomPlus">
                        <use xlink:href="#rim" fill="#404040">
                                <set attributeName="fill" to="#808080" begin="zoomplus.mouseover" end="zoomplus.mouseout"/>
                        </use>
                        <path d="M-4,0h8M0,-4v8" fill="none" stroke="white" stroke-width="1.5" pointer-events="none"/>
                </g>
                <g id="zoomMin">
                        <use xlink:href="#rim" fill="#404040">
                                <set attributeName="fill" to="#808080" begin="zoomminus.mouseover" end="zoomminus.mouseout"/>
                        </use>
                        <path d="M-4,0h8" fill="none" stroke="white" stroke-width="1.5" pointer-events="none"/>
                </g>
                <g id="dirArrow">
                        <path fill="none" stroke="white" stroke-width="1.5" d="M0,-3.0v7 M-2.5,-0.5L0,-3.0L2.5,-0.5"/>
                </g>
               <g id="resetDef">
                       <use xlink:href="#rim2" fill="#404040">
                               <set attributeName="fill" to="#808080" begin="reset.mouseover" end="reset.mouseout"/>
                       </use>
               </g>
        </defs>

<script type="text/javascript">
var viewWidth = 754;
var viewHeight = 1265;
var sectionId = 'dynsection-1';
</script>
<script xlink:href="svgpan.js"/>
<svg id="graph" class="graph">
<g id="viewport">
<title>Challenge</title>
<polygon fill="white" stroke="none" points="-4,4 -4,-1261 749.5,-1261 749.5,4 -4,4"/>
<!-- Node1 -->
<g id="node1" class="node"><title>Node1</title>
<g id="a_node1"><a xlink:title="Implementa la sfida tra due utenti.">
<polygon fill="#bfbfbf" stroke="black" points="106,-0.5 106,-200.5 195,-200.5 195,-0.5 106,-0.5"/>
<text text-anchor="middle" x="150.5" y="-188.5" font-family="Helvetica,sans-Serif" font-size="10.00">Challenge</text>
<polyline fill="none" stroke="black" points="106,-181.5 195,-181.5 "/>
<text text-anchor="start" x="114" y="-169.5" font-family="Helvetica,sans-Serif" font-size="10.00">&#45; questions</text>
<text text-anchor="start" x="114" y="-158.5" font-family="Helvetica,sans-Serif" font-size="10.00">&#45; id</text>
<text text-anchor="start" x="114" y="-147.5" font-family="Helvetica,sans-Serif" font-size="10.00">&#45; startTime</text>
<text text-anchor="start" x="114" y="-136.5" font-family="Helvetica,sans-Serif" font-size="10.00">&#45; startGameTime</text>
<text text-anchor="start" x="114" y="-125.5" font-family="Helvetica,sans-Serif" font-size="10.00">&#45; nextId</text>
<polyline fill="none" stroke="black" points="106,-118.5 195,-118.5 "/>
<text text-anchor="start" x="114" y="-106.5" font-family="Helvetica,sans-Serif" font-size="10.00">+ Challenge()</text>
<text text-anchor="start" x="114" y="-95.5" font-family="Helvetica,sans-Serif" font-size="10.00">+ setPlayer2()</text>
<text text-anchor="start" x="114" y="-84.5" font-family="Helvetica,sans-Serif" font-size="10.00">+ getStartTime()</text>
<text text-anchor="start" x="114" y="-73.5" font-family="Helvetica,sans-Serif" font-size="10.00">+ getId()</text>
<text text-anchor="start" x="114" y="-62.5" font-family="Helvetica,sans-Serif" font-size="10.00">+ run()</text>
<text text-anchor="start" x="114" y="-51.5" font-family="Helvetica,sans-Serif" font-size="10.00">&#45; calculate()</text>
<text text-anchor="start" x="114" y="-40.5" font-family="Helvetica,sans-Serif" font-size="10.00">&#45; end()</text>
<text text-anchor="start" x="114" y="-29.5" font-family="Helvetica,sans-Serif" font-size="10.00">&#45; result()</text>
<text text-anchor="start" x="114" y="-18.5" font-family="Helvetica,sans-Serif" font-size="10.00">&#45; close()</text>
<text text-anchor="start" x="114" y="-7.5" font-family="Helvetica,sans-Serif" font-size="10.00">&#45; isTerminated()</text>
</a>
</g>
</g>
<!-- Node2 -->
<g id="node2" class="node"><title>Node2</title>
<g id="a_node2"><a xlink:title=" ">
<polygon fill="white" stroke="#bfbfbf" points="0,-298 0,-355 57,-355 57,-298 0,-298"/>
<text text-anchor="middle" x="28.5" y="-343" font-family="Helvetica,sans-Serif" font-size="10.00">Runnable</text>
<polyline fill="none" stroke="#bfbfbf" points="0,-336 57,-336 "/>
<text text-anchor="middle" x="28.5" y="-324" font-family="Helvetica,sans-Serif" font-size="10.00"> </text>
<polyline fill="none" stroke="#bfbfbf" points="0,-317 57,-317 "/>
<text text-anchor="middle" x="28.5" y="-305" font-family="Helvetica,sans-Serif" font-size="10.00"> </text>
</a>
</g>
</g>
<!-- Node2&#45;&gt;Node1 -->
<g id="edge1" class="edge"><title>Node2&#45;&gt;Node1</title>
<path fill="none" stroke="midnightblue" d="M41.3866,-288.191C49.1168,-267.356 59.7204,-241.2 71.5,-219 81.5813,-200 94.0003,-180.262 105.981,-162.509"/>
<polygon fill="none" stroke="midnightblue" points="38.0741,-287.058 37.9368,-297.652 44.6506,-289.456 38.0741,-287.058"/>
</g>
<!-- Node3 -->
<g id="node3" class="node"><title>Node3</title>
<g id="a_node3"><a xlink:href="interface_data_base.html" target="_top" xlink:title="Database che gestisce gli utenti.">
<polygon fill="white" stroke="black" points="31.5,-1050.5 31.5,-1151.5 117.5,-1151.5 117.5,-1050.5 31.5,-1050.5"/>
<text text-anchor="middle" x="74.5" y="-1139.5" font-family="Helvetica,sans-Serif" font-size="10.00">DataBase</text>
<polyline fill="none" stroke="black" points="31.5,-1132.5 117.5,-1132.5 "/>
<text text-anchor="middle" x="74.5" y="-1120.5" font-family="Helvetica,sans-Serif" font-size="10.00"> </text>
<polyline fill="none" stroke="black" points="31.5,-1113.5 117.5,-1113.5 "/>
<text text-anchor="start" x="39.5" y="-1101.5" font-family="Helvetica,sans-Serif" font-size="10.00">+ checkUser()</text>
<text text-anchor="start" x="39.5" y="-1090.5" font-family="Helvetica,sans-Serif" font-size="10.00">+ getUser()</text>
<text text-anchor="start" x="39.5" y="-1079.5" font-family="Helvetica,sans-Serif" font-size="10.00">+ newUser()</text>
<text text-anchor="start" x="39.5" y="-1068.5" font-family="Helvetica,sans-Serif" font-size="10.00">+ modifyScore()</text>
<text text-anchor="start" x="39.5" y="-1057.5" font-family="Helvetica,sans-Serif" font-size="10.00">+ link()</text>
</a>
</g>
</g>
<!-- Node3&#45;&gt;Node1 -->
<g id="edge2" class="edge"><title>Node3&#45;&gt;Node1</title>
<path fill="none" stroke="#404040" d="M78.2548,-1050.34C81.4414,-1003.88 85.5,-932.528 85.5,-870.5 85.5,-870.5 85.5,-870.5 85.5,-325.5 85.5,-287.846 94.0761,-247.992 104.998,-212.504"/>
<polygon fill="none" stroke="#404040" points="105.134,-212.078 103.148,-205.146 108.783,-200.646 110.769,-207.579 105.134,-212.078"/>
<text text-anchor="middle" x="94" y="-586" font-family="Helvetica,sans-Serif" font-size="10.00"> &#45;db</text>
</g>
<!-- Node7 -->
<g id="node7" class="node"><title>Node7</title>
<g id="a_node7"><a xlink:href="class_word_quizzle_server_service.html" target="_top" xlink:title="Implementa la Business Logic.">
<polygon fill="white" stroke="black" points="178.5,-736.5 178.5,-1002.5 324.5,-1002.5 324.5,-736.5 178.5,-736.5"/>
<text text-anchor="middle" x="251.5" y="-990.5" font-family="Helvetica,sans-Serif" font-size="10.00">WordQuizzleServerService</text>
<polyline fill="none" stroke="black" points="178.5,-983.5 324.5,-983.5 "/>
<text text-anchor="start" x="186.5" y="-971.5" font-family="Helvetica,sans-Serif" font-size="10.00">&#45; K</text>
<text text-anchor="start" x="186.5" y="-960.5" font-family="Helvetica,sans-Serif" font-size="10.00">&#45; T1</text>
<text text-anchor="start" x="186.5" y="-949.5" font-family="Helvetica,sans-Serif" font-size="10.00">&#45; T2</text>
<text text-anchor="start" x="186.5" y="-938.5" font-family="Helvetica,sans-Serif" font-size="10.00">&#45; X</text>
<text text-anchor="start" x="186.5" y="-927.5" font-family="Helvetica,sans-Serif" font-size="10.00">&#45; Y</text>
<text text-anchor="start" x="186.5" y="-916.5" font-family="Helvetica,sans-Serif" font-size="10.00">&#45; Z</text>
<polyline fill="none" stroke="black" points="178.5,-909.5 324.5,-909.5 "/>
<text text-anchor="start" x="186.5" y="-897.5" font-family="Helvetica,sans-Serif" font-size="10.00">+ WordQuizzleServerService()</text>
<text text-anchor="start" x="186.5" y="-886.5" font-family="Helvetica,sans-Serif" font-size="10.00">+ login()</text>
<text text-anchor="start" x="186.5" y="-875.5" font-family="Helvetica,sans-Serif" font-size="10.00">+ logout()</text>
<text text-anchor="start" x="186.5" y="-864.5" font-family="Helvetica,sans-Serif" font-size="10.00">+ aggiungi_amico()</text>
<text text-anchor="start" x="186.5" y="-853.5" font-family="Helvetica,sans-Serif" font-size="10.00">+ lista_amici()</text>
<text text-anchor="start" x="186.5" y="-842.5" font-family="Helvetica,sans-Serif" font-size="10.00">+ mostra_punteggio()</text>
<text text-anchor="start" x="186.5" y="-831.5" font-family="Helvetica,sans-Serif" font-size="10.00">+ mostra_classifica()</text>
<text text-anchor="start" x="186.5" y="-820.5" font-family="Helvetica,sans-Serif" font-size="10.00">+ sfida()</text>
<text text-anchor="start" x="186.5" y="-809.5" font-family="Helvetica,sans-Serif" font-size="10.00">+ accettaSfida()</text>
<text text-anchor="start" x="186.5" y="-798.5" font-family="Helvetica,sans-Serif" font-size="10.00">+ getK()</text>
<text text-anchor="start" x="186.5" y="-787.5" font-family="Helvetica,sans-Serif" font-size="10.00">+ getZ()</text>
<text text-anchor="start" x="186.5" y="-776.5" font-family="Helvetica,sans-Serif" font-size="10.00">+ getY()</text>
<text text-anchor="start" x="186.5" y="-765.5" font-family="Helvetica,sans-Serif" font-size="10.00">+ getX()</text>
<text text-anchor="start" x="186.5" y="-754.5" font-family="Helvetica,sans-Serif" font-size="10.00">+ getT1()</text>
<text text-anchor="start" x="186.5" y="-743.5" font-family="Helvetica,sans-Serif" font-size="10.00">+ getT2()</text>
</a>
</g>
</g>
<!-- Node3&#45;&gt;Node7 -->
<g id="edge12" class="edge"><title>Node3&#45;&gt;Node7</title>
<path fill="none" stroke="#404040" d="M112.688,-1050.48C129.795,-1028.3 150.657,-1001.25 170.957,-974.933"/>
<polygon fill="none" stroke="#404040" points="171.073,-974.782 171.57,-967.588 178.402,-965.28 177.905,-972.474 171.073,-974.782"/>
<text text-anchor="middle" x="141" y="-1024" font-family="Helvetica,sans-Serif" font-size="10.00"> &#45;db</text>
</g>
<!-- Node4 -->
<g id="node4" class="node"><title>Node4</title>
<g id="a_node4"><a xlink:title=" ">
<polygon fill="white" stroke="#bfbfbf" points="136,-1072.5 136,-1129.5 189,-1129.5 189,-1072.5 136,-1072.5"/>
<text text-anchor="middle" x="162.5" y="-1117.5" font-family="Helvetica,sans-Serif" font-size="10.00">Selector</text>
<polyline fill="none" stroke="#bfbfbf" points="136,-1110.5 189,-1110.5 "/>
<text text-anchor="middle" x="162.5" y="-1098.5" font-family="Helvetica,sans-Serif" font-size="10.00"> </text>
<polyline fill="none" stroke="#bfbfbf" points="136,-1091.5 189,-1091.5 "/>
<text text-anchor="middle" x="162.5" y="-1079.5" font-family="Helvetica,sans-Serif" font-size="10.00"> </text>
</a>
</g>
</g>
<!-- Node4&#45;&gt;Node1 -->
<g id="edge3" class="edge"><title>Node4&#45;&gt;Node1</title>
<path fill="none" stroke="#404040" d="M160.129,-1072.47C156.632,-1029.42 150.5,-943.514 150.5,-870.5 150.5,-870.5 150.5,-870.5 150.5,-325.5 150.5,-288.814 150.5,-248.748 150.5,-212.775"/>
<polygon fill="none" stroke="#404040" points="150.5,-212.743 146.5,-206.743 150.5,-200.743 154.5,-206.743 150.5,-212.743"/>
<text text-anchor="middle" x="169.5" y="-591.5" font-family="Helvetica,sans-Serif" font-size="10.00"> &#45;server</text>
<text text-anchor="middle" x="169.5" y="-580.5" font-family="Helvetica,sans-Serif" font-size="10.00">&#45;selector</text>
</g>
<!-- Node4&#45;&gt;Node7 -->
<g id="edge13" class="edge"><title>Node4&#45;&gt;Node7</title>
<path fill="none" stroke="#404040" d="M173.235,-1072.32C179.247,-1056.81 187.253,-1036.17 195.853,-1013.99"/>
<polygon fill="none" stroke="#404040" points="195.917,-1013.83 194.357,-1006.79 200.256,-1002.64 201.816,-1009.68 195.917,-1013.83"/>
<text text-anchor="middle" x="211" y="-1024" font-family="Helvetica,sans-Serif" font-size="10.00"> &#45;selector</text>
</g>
<!-- Node5 -->
<g id="node5" class="node"><title>Node5</title>
<g id="a_node5"><a xlink:href="class_player.html" target="_top" xlink:title="Rappresenta un giocatore impegnato un una sfida.">
<polygon fill="white" stroke="black" points="375,-259.5 375,-393.5 462,-393.5 462,-259.5 375,-259.5"/>
<text text-anchor="middle" x="418.5" y="-381.5" font-family="Helvetica,sans-Serif" font-size="10.00">Player</text>
<polyline fill="none" stroke="black" points="375,-374.5 462,-374.5 "/>
<text text-anchor="start" x="383" y="-362.5" font-family="Helvetica,sans-Serif" font-size="10.00">&#45; next</text>
<text text-anchor="start" x="383" y="-351.5" font-family="Helvetica,sans-Serif" font-size="10.00">&#45; close</text>
<polyline fill="none" stroke="black" points="375,-344.5 462,-344.5 "/>
<text text-anchor="start" x="383" y="-332.5" font-family="Helvetica,sans-Serif" font-size="10.00">+ Player()</text>
<text text-anchor="start" x="383" y="-321.5" font-family="Helvetica,sans-Serif" font-size="10.00">+ getSession()</text>
<text text-anchor="start" x="383" y="-310.5" font-family="Helvetica,sans-Serif" font-size="10.00">+ addAnswer()</text>
<text text-anchor="start" x="383" y="-299.5" font-family="Helvetica,sans-Serif" font-size="10.00">+ getAnswers()</text>
<text text-anchor="start" x="383" y="-288.5" font-family="Helvetica,sans-Serif" font-size="10.00">+ isTerminated()</text>
<text text-anchor="start" x="383" y="-277.5" font-family="Helvetica,sans-Serif" font-size="10.00">+ getNext()</text>
<text text-anchor="start" x="383" y="-266.5" font-family="Helvetica,sans-Serif" font-size="10.00">+ close()</text>
</a>
</g>
</g>
<!-- Node5&#45;&gt;Node1 -->
<g id="edge4" class="edge"><title>Node5&#45;&gt;Node1</title>
<path fill="none" stroke="#404040" d="M374.845,-289.012C328.305,-250.113 254.549,-188.466 204.415,-146.563"/>
<polygon fill="none" stroke="#404040" points="204.237,-146.415 197.068,-145.636 195.03,-138.719 202.199,-139.498 204.237,-146.415"/>
<text text-anchor="middle" x="334.5" y="-233" font-family="Helvetica,sans-Serif" font-size="10.00"> &#45;player1</text>
<text text-anchor="middle" x="334.5" y="-222" font-family="Helvetica,sans-Serif" font-size="10.00">&#45;player2</text>
</g>
<!-- Node6 -->
<g id="node6" class="node"><title>Node6</title>
<g id="a_node6"><a xlink:href="class_session.html" target="_top" xlink:title="Rappresenta una sessione di un utente.">
<polygon fill="white" stroke="black" points="374,-488.5 374,-688.5 463,-688.5 463,-488.5 374,-488.5"/>
<text text-anchor="middle" x="418.5" y="-676.5" font-family="Helvetica,sans-Serif" font-size="10.00">Session</text>
<polyline fill="none" stroke="black" points="374,-669.5 463,-669.5 "/>
<text text-anchor="start" x="382" y="-657.5" font-family="Helvetica,sans-Serif" font-size="10.00">&#45; user</text>
<text text-anchor="start" x="382" y="-646.5" font-family="Helvetica,sans-Serif" font-size="10.00">&#45; response</text>
<text text-anchor="start" x="382" y="-635.5" font-family="Helvetica,sans-Serif" font-size="10.00">&#45; end</text>
<polyline fill="none" stroke="black" points="374,-628.5 463,-628.5 "/>
<text text-anchor="start" x="382" y="-616.5" font-family="Helvetica,sans-Serif" font-size="10.00">+ Session()</text>
<text text-anchor="start" x="382" y="-605.5" font-family="Helvetica,sans-Serif" font-size="10.00">+ getClient()</text>
<text text-anchor="start" x="382" y="-594.5" font-family="Helvetica,sans-Serif" font-size="10.00">+ getBfs()</text>
<text text-anchor="start" x="382" y="-583.5" font-family="Helvetica,sans-Serif" font-size="10.00">+ setUdp()</text>
<text text-anchor="start" x="382" y="-572.5" font-family="Helvetica,sans-Serif" font-size="10.00">+ getUdp()</text>
<text text-anchor="start" x="382" y="-561.5" font-family="Helvetica,sans-Serif" font-size="10.00">+ newBfs()</text>
<text text-anchor="start" x="382" y="-550.5" font-family="Helvetica,sans-Serif" font-size="10.00">+ getUser()</text>
<text text-anchor="start" x="382" y="-539.5" font-family="Helvetica,sans-Serif" font-size="10.00">+ getResponse()</text>
<text text-anchor="start" x="382" y="-528.5" font-family="Helvetica,sans-Serif" font-size="10.00">+ setResponse()</text>
<text text-anchor="start" x="382" y="-517.5" font-family="Helvetica,sans-Serif" font-size="10.00">+ isTerminated()</text>
<text text-anchor="start" x="382" y="-506.5" font-family="Helvetica,sans-Serif" font-size="10.00">+ parse()</text>
<text text-anchor="start" x="382" y="-495.5" font-family="Helvetica,sans-Serif" font-size="10.00">&#45; compute()</text>
</a>
</g>
</g>
<!-- Node6&#45;&gt;Node5 -->
<g id="edge5" class="edge"><title>Node6&#45;&gt;Node5</title>
<path fill="none" stroke="#404040" d="M418.5,-488.463C418.5,-461.084 418.5,-431.76 418.5,-405.741"/>
<polygon fill="none" stroke="#404040" points="418.5,-405.649 414.5,-399.649 418.5,-393.649 422.5,-399.649 418.5,-405.649"/>
<text text-anchor="middle" x="424.5" y="-438.5" font-family="Helvetica,sans-Serif" font-size="10.00"> &#45;s</text>
</g>
<!-- Node7&#45;&gt;Node6 -->
<g id="edge6" class="edge"><title>Node7&#45;&gt;Node6</title>
<path fill="none" stroke="#404040" d="M324.506,-746.532C339.119,-722.118 354.168,-696.977 367.824,-674.162"/>
<polygon fill="none" stroke="#404040" points="367.831,-674.151 367.48,-666.948 373.994,-663.855 374.344,-671.057 367.831,-674.151"/>
<text text-anchor="middle" x="354" y="-710" font-family="Helvetica,sans-Serif" font-size="10.00"> &#45;wq</text>
</g>
<!-- Node8 -->
<g id="node8" class="node"><title>Node8</title>
<g id="a_node8"><a xlink:title=" ">
<polygon fill="white" stroke="#bfbfbf" points="207,-1072.5 207,-1129.5 296,-1129.5 296,-1072.5 207,-1072.5"/>
<text text-anchor="middle" x="251.5" y="-1117.5" font-family="Helvetica,sans-Serif" font-size="10.00">DatagramSocket</text>
<polyline fill="none" stroke="#bfbfbf" points="207,-1110.5 296,-1110.5 "/>
<text text-anchor="middle" x="251.5" y="-1098.5" font-family="Helvetica,sans-Serif" font-size="10.00"> </text>
<polyline fill="none" stroke="#bfbfbf" points="207,-1091.5 296,-1091.5 "/>
<text text-anchor="middle" x="251.5" y="-1079.5" font-family="Helvetica,sans-Serif" font-size="10.00"> </text>
</a>
</g>
</g>
<!-- Node8&#45;&gt;Node7 -->
<g id="edge7" class="edge"><title>Node8&#45;&gt;Node7</title>
<path fill="none" stroke="#404040" d="M251.5,-1072.32C251.5,-1057.03 251.5,-1036.73 251.5,-1014.9"/>
<polygon fill="none" stroke="#404040" points="251.5,-1014.64 247.5,-1008.64 251.5,-1002.64 255.5,-1008.64 251.5,-1014.64"/>
<text text-anchor="middle" x="269.5" y="-1024" font-family="Helvetica,sans-Serif" font-size="10.00"> &#45;socket</text>
</g>
<!-- Node9 -->
<g id="node9" class="node"><title>Node9</title>
<g id="a_node9"><a xlink:title=" ">
<polygon fill="white" stroke="#bfbfbf" points="314.5,-1072.5 314.5,-1129.5 442.5,-1129.5 442.5,-1072.5 314.5,-1072.5"/>
<text text-anchor="middle" x="378.5" y="-1117.5" font-family="Helvetica,sans-Serif" font-size="10.00">Map&lt; String, Challenge &gt;</text>
<polyline fill="none" stroke="#bfbfbf" points="314.5,-1110.5 442.5,-1110.5 "/>
<text text-anchor="middle" x="378.5" y="-1098.5" font-family="Helvetica,sans-Serif" font-size="10.00"> </text>
<polyline fill="none" stroke="#bfbfbf" points="314.5,-1091.5 442.5,-1091.5 "/>
<text text-anchor="middle" x="378.5" y="-1079.5" font-family="Helvetica,sans-Serif" font-size="10.00"> </text>
</a>
</g>
</g>
<!-- Node9&#45;&gt;Node7 -->
<g id="edge8" class="edge"><title>Node9&#45;&gt;Node7</title>
<path fill="none" stroke="#404040" d="M363.181,-1072.32C354.524,-1056.67 342.969,-1035.79 330.57,-1013.39"/>
<polygon fill="none" stroke="#404040" points="330.434,-1013.14 324.029,-1009.83 324.623,-1002.64 331.028,-1005.95 330.434,-1013.14"/>
<text text-anchor="middle" x="363" y="-1024" font-family="Helvetica,sans-Serif" font-size="10.00"> &#45;challenges</text>
</g>
<!-- Node10 -->
<g id="node10" class="node"><title>Node10</title>
<g id="a_node10"><a xlink:title=" ">
<polygon fill="white" stroke="#bfbfbf" points="434,-1199.5 434,-1256.5 469,-1256.5 469,-1199.5 434,-1199.5"/>
<text text-anchor="middle" x="451.5" y="-1244.5" font-family="Helvetica,sans-Serif" font-size="10.00">Map</text>
<polyline fill="none" stroke="#bfbfbf" points="434,-1237.5 469,-1237.5 "/>
<text text-anchor="middle" x="451.5" y="-1225.5" font-family="Helvetica,sans-Serif" font-size="10.00"> </text>
<polyline fill="none" stroke="#bfbfbf" points="434,-1218.5 469,-1218.5 "/>
<text text-anchor="middle" x="451.5" y="-1206.5" font-family="Helvetica,sans-Serif" font-size="10.00"> </text>
</a>
</g>
</g>
<!-- Node10&#45;&gt;Node9 -->
<g id="edge9" class="edge"><title>Node10&#45;&gt;Node9</title>
<path fill="none" stroke="orange" d="M425.023,-1213.85C412.198,-1206.08 397.809,-1195.01 389.5,-1181 380.386,-1165.64 377.664,-1145.7 377.207,-1129.69"/>
<polygon fill="orange" stroke="orange" points="423.55,-1217.04 433.977,-1218.92 426.998,-1210.95 423.55,-1217.04"/>
<text text-anchor="middle" x="437.5" y="-1173" font-family="Helvetica,sans-Serif" font-size="10.00"> &lt; String, Challenge &gt;</text>
</g>
<!-- Node11 -->
<g id="node11" class="node"><title>Node11</title>
<g id="a_node11"><a xlink:title=" ">
<polygon fill="white" stroke="#bfbfbf" points="460.5,-1072.5 460.5,-1129.5 580.5,-1129.5 580.5,-1072.5 460.5,-1072.5"/>
<text text-anchor="middle" x="520.5" y="-1117.5" font-family="Helvetica,sans-Serif" font-size="10.00">Map&lt; String, Session &gt;</text>
<polyline fill="none" stroke="#bfbfbf" points="460.5,-1110.5 580.5,-1110.5 "/>
<text text-anchor="middle" x="520.5" y="-1098.5" font-family="Helvetica,sans-Serif" font-size="10.00"> </text>
<polyline fill="none" stroke="#bfbfbf" points="460.5,-1091.5 580.5,-1091.5 "/>
<text text-anchor="middle" x="520.5" y="-1079.5" font-family="Helvetica,sans-Serif" font-size="10.00"> </text>
</a>
</g>
</g>
<!-- Node10&#45;&gt;Node11 -->
<g id="edge11" class="edge"><title>Node10&#45;&gt;Node11</title>
<path fill="none" stroke="orange" d="M475.863,-1200.39C480.762,-1194.28 485.597,-1187.63 489.5,-1181 498.995,-1164.88 506.698,-1145.31 512.051,-1129.68"/>
<polygon fill="orange" stroke="orange" points="472.958,-1198.4 469.225,-1208.32 478.326,-1202.9 472.958,-1198.4"/>
<text text-anchor="middle" x="538.5" y="-1173" font-family="Helvetica,sans-Serif" font-size="10.00"> &lt; String, Session &gt;</text>
</g>
<!-- Node11&#45;&gt;Node7 -->
<g id="edge10" class="edge"><title>Node11&#45;&gt;Node7</title>
<path fill="none" stroke="#404040" d="M484.734,-1072.39C474.261,-1064.77 462.63,-1056.75 451.5,-1050 426.86,-1035.05 420.291,-1031.62 393.5,-1021 370.552,-1011.9 358.498,-1018.1 334.544,-1002.71"/>
<polygon fill="none" stroke="#404040" points="334.486,-1002.67 327.279,-1002.42 324.733,-995.677 331.94,-995.922 334.486,-1002.67"/>
<text text-anchor="middle" x="434" y="-1024" font-family="Helvetica,sans-Serif" font-size="10.00"> &#45;users</text>
</g>
<!-- Node12 -->
<g id="node12" class="node"><title>Node12</title>
<g id="a_node12"><a xlink:title=" ">
<polygon fill="white" stroke="#bfbfbf" points="342.5,-841 342.5,-898 404.5,-898 404.5,-841 342.5,-841"/>
<text text-anchor="middle" x="373.5" y="-886" font-family="Helvetica,sans-Serif" font-size="10.00">ByteBuffer</text>
<polyline fill="none" stroke="#bfbfbf" points="342.5,-879 404.5,-879 "/>
<text text-anchor="middle" x="373.5" y="-867" font-family="Helvetica,sans-Serif" font-size="10.00"> </text>
<polyline fill="none" stroke="#bfbfbf" points="342.5,-860 404.5,-860 "/>
<text text-anchor="middle" x="373.5" y="-848" font-family="Helvetica,sans-Serif" font-size="10.00"> </text>
</a>
</g>
</g>
<!-- Node12&#45;&gt;Node6 -->
<g id="edge14" class="edge"><title>Node12&#45;&gt;Node6</title>
<path fill="none" stroke="#404040" d="M377.938,-840.985C383.214,-808.271 392.348,-751.642 400.614,-700.394"/>
<polygon fill="none" stroke="#404040" points="400.616,-700.377 397.623,-693.817 402.527,-688.53 405.521,-695.091 400.616,-700.377"/>
<text text-anchor="middle" x="408" y="-710" font-family="Helvetica,sans-Serif" font-size="10.00"> &#45;bfs</text>
</g>
<!-- Node13 -->
<g id="node13" class="node"><title>Node13</title>
<g id="a_node13"><a xlink:title=" ">
<polygon fill="white" stroke="#bfbfbf" points="423,-841 423,-898 506,-898 506,-841 423,-841"/>
<text text-anchor="middle" x="464.5" y="-886" font-family="Helvetica,sans-Serif" font-size="10.00">SocketChannel</text>
<polyline fill="none" stroke="#bfbfbf" points="423,-879 506,-879 "/>
<text text-anchor="middle" x="464.5" y="-867" font-family="Helvetica,sans-Serif" font-size="10.00"> </text>
<polyline fill="none" stroke="#bfbfbf" points="423,-860 506,-860 "/>
<text text-anchor="middle" x="464.5" y="-848" font-family="Helvetica,sans-Serif" font-size="10.00"> </text>
</a>
</g>
</g>
<!-- Node13&#45;&gt;Node6 -->
<g id="edge15" class="edge"><title>Node13&#45;&gt;Node6</title>
<path fill="none" stroke="#404040" d="M459.963,-840.985C454.57,-808.271 445.233,-751.642 436.784,-700.394"/>
<polygon fill="none" stroke="#404040" points="436.78,-700.371 431.857,-695.101 434.828,-688.53 439.75,-693.8 436.78,-700.371"/>
<text text-anchor="middle" x="453.5" y="-710" font-family="Helvetica,sans-Serif" font-size="10.00"> &#45;client</text>
</g>
<!-- Node14 -->
<g id="node14" class="node"><title>Node14</title>
<g id="a_node14"><a xlink:title=" ">
<polygon fill="white" stroke="#bfbfbf" points="524,-841 524,-898 623,-898 623,-841 524,-841"/>
<text text-anchor="middle" x="573.5" y="-886" font-family="Helvetica,sans-Serif" font-size="10.00">InetSocketAddress</text>
<polyline fill="none" stroke="#bfbfbf" points="524,-879 623,-879 "/>
<text text-anchor="middle" x="573.5" y="-867" font-family="Helvetica,sans-Serif" font-size="10.00"> </text>
<polyline fill="none" stroke="#bfbfbf" points="524,-860 623,-860 "/>
<text text-anchor="middle" x="573.5" y="-848" font-family="Helvetica,sans-Serif" font-size="10.00"> </text>
</a>
</g>
</g>
<!-- Node14&#45;&gt;Node6 -->
<g id="edge16" class="edge"><title>Node14&#45;&gt;Node6</title>
<path fill="none" stroke="#404040" d="M563.054,-840.949C552.346,-813.684 534.597,-771.063 515.5,-736 501.964,-711.148 485.501,-685.069 470.008,-661.916"/>
<polygon fill="none" stroke="#404040" points="469.922,-661.788 463.249,-659.054 463.207,-651.843 469.88,-654.577 469.922,-661.788"/>
<text text-anchor="middle" x="514.5" y="-710" font-family="Helvetica,sans-Serif" font-size="10.00"> &#45;udp</text>
</g>
<!-- Node15 -->
<g id="node15" class="node"><title>Node15</title>
<g id="a_node15"><a xlink:title=" ">
<polygon fill="white" stroke="#bfbfbf" points="514,-560 514,-617 603,-617 603,-560 514,-560"/>
<text text-anchor="middle" x="558.5" y="-605" font-family="Helvetica,sans-Serif" font-size="10.00">Vector&lt; String &gt;</text>
<polyline fill="none" stroke="#bfbfbf" points="514,-598 603,-598 "/>
<text text-anchor="middle" x="558.5" y="-586" font-family="Helvetica,sans-Serif" font-size="10.00"> </text>
<polyline fill="none" stroke="#bfbfbf" points="514,-579 603,-579 "/>
<text text-anchor="middle" x="558.5" y="-567" font-family="Helvetica,sans-Serif" font-size="10.00"> </text>
</a>
</g>
</g>
<!-- Node15&#45;&gt;Node5 -->
<g id="edge17" class="edge"><title>Node15&#45;&gt;Node5</title>
<path fill="none" stroke="#404040" d="M543.518,-559.675C523.72,-522.908 488.06,-456.683 459.878,-404.345"/>
<polygon fill="none" stroke="#404040" points="459.857,-404.305 453.49,-400.919 454.167,-393.74 460.534,-397.126 459.857,-404.305"/>
<text text-anchor="middle" x="503.5" y="-438.5" font-family="Helvetica,sans-Serif" font-size="10.00"> &#45;ans</text>
</g>
<!-- Node16 -->
<g id="node16" class="node"><title>Node16</title>
<g id="a_node16"><a xlink:title=" ">
<polygon fill="white" stroke="#bfbfbf" points="641,-841 641,-898 686,-898 686,-841 641,-841"/>
<text text-anchor="middle" x="663.5" y="-886" font-family="Helvetica,sans-Serif" font-size="10.00">Vector</text>
<polyline fill="none" stroke="#bfbfbf" points="641,-879 686,-879 "/>
<text text-anchor="middle" x="663.5" y="-867" font-family="Helvetica,sans-Serif" font-size="10.00"> </text>
<polyline fill="none" stroke="#bfbfbf" points="641,-860 686,-860 "/>
<text text-anchor="middle" x="663.5" y="-848" font-family="Helvetica,sans-Serif" font-size="10.00"> </text>
</a>
</g>
</g>
<!-- Node16&#45;&gt;Node15 -->
<g id="edge18" class="edge"><title>Node16&#45;&gt;Node15</title>
<path fill="none" stroke="orange" d="M663.232,-830.771C661.164,-801.955 654.108,-762.769 632.5,-736 620.762,-721.459 606.55,-732.284 594.5,-718 570.299,-689.313 562.311,-645.475 559.708,-617.149"/>
<polygon fill="orange" stroke="orange" points="659.744,-831.083 663.786,-840.877 666.733,-830.7 659.744,-831.083"/>
<text text-anchor="middle" x="618" y="-710" font-family="Helvetica,sans-Serif" font-size="10.00"> &lt; String &gt;</text>
</g>
<!-- Node17 -->
<g id="node17" class="node"><title>Node17</title>
<g id="a_node17"><a xlink:title=" ">
<polygon fill="white" stroke="#bfbfbf" points="564,-412.5 564,-469.5 699,-469.5 699,-412.5 564,-412.5"/>
<text text-anchor="middle" x="631.5" y="-457.5" font-family="Helvetica,sans-Serif" font-size="10.00">Vector&lt; Vector&lt; String &gt; &gt;</text>
<polyline fill="none" stroke="#bfbfbf" points="564,-450.5 699,-450.5 "/>
<text text-anchor="middle" x="631.5" y="-438.5" font-family="Helvetica,sans-Serif" font-size="10.00"> </text>
<polyline fill="none" stroke="#bfbfbf" points="564,-431.5 699,-431.5 "/>
<text text-anchor="middle" x="631.5" y="-419.5" font-family="Helvetica,sans-Serif" font-size="10.00"> </text>
</a>
</g>
</g>
<!-- Node16&#45;&gt;Node17 -->
<g id="edge20" class="edge"><title>Node16&#45;&gt;Node17</title>
<path fill="none" stroke="orange" d="M660.661,-830.664C654.318,-746.12 639.117,-543.514 633.57,-469.593"/>
<polygon fill="orange" stroke="orange" points="657.187,-831.135 661.425,-840.845 664.167,-830.611 657.187,-831.135"/>
<text text-anchor="middle" x="698.5" y="-710" font-family="Helvetica,sans-Serif" font-size="10.00"> &lt; Vector&lt; String &gt; &gt;</text>
</g>
<!-- Node17&#45;&gt;Node1 -->
<g id="edge19" class="edge"><title>Node17&#45;&gt;Node1</title>
<path fill="none" stroke="#404040" d="M612.524,-412.438C585.028,-374.093 530.863,-304.271 471.5,-259 387.684,-195.081 273.829,-146.662 206.661,-121.303"/>
<polygon fill="none" stroke="#404040" points="206.328,-121.179 199.308,-122.831 195.084,-116.986 202.103,-115.335 206.328,-121.179"/>
<text text-anchor="middle" x="626" y="-324" font-family="Helvetica,sans-Serif" font-size="10.00"> &#45;translations</text>
</g>
</g>
</svg>
        <g id="navigator" transform="translate(0 0)" fill="#404254">
                <rect fill="#f2f5e9" fill-opacity="0.5" stroke="#606060" stroke-width=".5" x="0" y="0" width="60" height="60"/>
                <use id="zoomplus" xlink:href="#zoomPlus" x="17" y="9" onmousedown="handleZoom(evt,'in')"/>
                <use id="zoomminus" xlink:href="#zoomMin" x="42" y="9" onmousedown="handleZoom(evt,'out')"/>
                <use id="reset" xlink:href="#resetDef" x="30" y="36" onmousedown="handleReset()"/>
                <g id="arrowUp" xlink:href="#dirArrow" transform="translate(30 24)" onmousedown="handlePan(0,-1)">
                  <use xlink:href="#rim" fill="#404040">
                        <set attributeName="fill" to="#808080" begin="arrowUp.mouseover" end="arrowUp.mouseout"/>
                  </use>
                  <path fill="none" stroke="white" stroke-width="1.5" d="M0,-3.0v7 M-2.5,-0.5L0,-3.0L2.5,-0.5"/>
                </g>
                <g id="arrowRight" xlink:href="#dirArrow" transform="rotate(90) translate(36 -43)" onmousedown="handlePan(1,0)">
                  <use xlink:href="#rim" fill="#404040">
                        <set attributeName="fill" to="#808080" begin="arrowRight.mouseover" end="arrowRight.mouseout"/>
                  </use>
                  <path fill="none" stroke="white" stroke-width="1.5" d="M0,-3.0v7 M-2.5,-0.5L0,-3.0L2.5,-0.5"/>
                </g>
                <g id="arrowDown" xlink:href="#dirArrow" transform="rotate(180) translate(-30 -48)" onmousedown="handlePan(0,1)">
                  <use xlink:href="#rim" fill="#404040">
                        <set attributeName="fill" to="#808080" begin="arrowDown.mouseover" end="arrowDown.mouseout"/>
                  </use>
                  <path fill="none" stroke="white" stroke-width="1.5" d="M0,-3.0v7 M-2.5,-0.5L0,-3.0L2.5,-0.5"/>
                </g>
                <g id="arrowLeft" xlink:href="#dirArrow" transform="rotate(270) translate(-36 17)" onmousedown="handlePan(-1,0)">
                  <use xlink:href="#rim" fill="#404040">
                        <set attributeName="fill" to="#808080" begin="arrowLeft.mouseover" end="arrowLeft.mouseout"/>
                  </use>
                  <path fill="none" stroke="white" stroke-width="1.5" d="M0,-3.0v7 M-2.5,-0.5L0,-3.0L2.5,-0.5"/>
                </g>
        </g>
        <svg viewBox="0 0 15 15" width="100%" height="30px" preserveAspectRatio="xMaxYMin meet">
         <g id="arrow_out" transform="scale(0.3 0.3)">
          <a xlink:href="class_challenge__coll__graph_org.svg" target="_base">
           <rect id="button" ry="5" rx="5" y="6" x="6" height="38" width="38"
                fill="#f2f5e9" fill-opacity="0.5" stroke="#606060" stroke-width="1.0"/>
           <path id="arrow"
             d="M 11.500037,31.436501 C 11.940474,20.09759 22.043105,11.32322 32.158766,21.979434 L 37.068811,17.246167 C 37.068811,17.246167 37.088388,32 37.088388,32 L 22.160133,31.978069 C 22.160133,31.978069 26.997745,27.140456 26.997745,27.140456 C 18.528582,18.264221 13.291696,25.230495 11.500037,31.436501 z"
             style="fill:#404040;"/>
          </a>
         </g>
        </svg>
</svg>
