<?xml version="1.0" encoding="UTF-8" standalone="no"?>
<!DOCTYPE svg PUBLIC "-//W3C//DTD SVG 1.1//EN"
 "http://www.w3.org/Graphics/SVG/1.1/DTD/svg11.dtd">
<!-- Generated by graphviz version 2.38.0 (20140413.2041)
 -->
<!-- Title: WordQuizzleClient.registra_utente Pages: 1 -->
<svg width="381pt" height="142pt"
 viewBox="0.00 0.00 381.00 142.00" xmlns="http://www.w3.org/2000/svg" xmlns:xlink="http://www.w3.org/1999/xlink">
<g id="graph0" class="graph" transform="scale(1 1) rotate(0) translate(4 138)">
<title>WordQuizzleClient.registra_utente</title>
<polygon fill="white" stroke="none" points="-4,4 -4,-138 377,-138 377,4 -4,4"/>
<!-- Node1 -->
<g id="node1" class="node"><title>Node1</title>
<g id="a_node1"><a xlink:title="Registra un nuovo utente.">
<polygon fill="#bfbfbf" stroke="black" points="240,-52 240,-82 373,-82 373,-52 240,-52"/>
<text text-anchor="start" x="248" y="-70" font-family="Helvetica,sans-Serif" font-size="10.00">WordQuizzleClient.registra</text>
<text text-anchor="middle" x="306.5" y="-59" font-family="Helvetica,sans-Serif" font-size="10.00">_utente</text>
</a>
</g>
</g>
<!-- Node2 -->
<g id="node2" class="node"><title>Node2</title>
<g id="a_node2"><a xlink:href="class_w_q_gui.html#a7899aa3dee6ed38cba2a6a3f683b4186" target="_top" xlink:title="Crea la finestra di login e registrazione.">
<polygon fill="white" stroke="black" points="105,-114.5 105,-133.5 204,-133.5 204,-114.5 105,-114.5"/>
<text text-anchor="middle" x="154.5" y="-121.5" font-family="Helvetica,sans-Serif" font-size="10.00">WQGui.makeLogin</text>
</a>
</g>
</g>
<!-- Node1&#45;&gt;Node2 -->
<g id="edge1" class="edge"><title>Node1&#45;&gt;Node2</title>
<path fill="none" stroke="midnightblue" d="M256.28,-85.7036C231.072,-95.2828 201.44,-106.543 180.859,-114.363"/>
<polygon fill="midnightblue" stroke="midnightblue" points="257.592,-88.9493 265.697,-82.1253 255.105,-82.4058 257.592,-88.9493"/>
</g>
<!-- Node3 -->
<g id="node3" class="node"><title>Node3</title>
<g id="a_node3"><a xlink:href="class_w_q_cli.html#a69d5ad39deabe879509740cc27efb3f3" target="_top" xlink:title="Gestisce le richieste dell&#39;utente.">
<polygon fill="white" stroke="black" points="118.5,-76.5 118.5,-95.5 190.5,-95.5 190.5,-76.5 118.5,-76.5"/>
<text text-anchor="middle" x="154.5" y="-83.5" font-family="Helvetica,sans-Serif" font-size="10.00">WQCli.parse</text>
</a>
</g>
</g>
<!-- Node1&#45;&gt;Node3 -->
<g id="edge2" class="edge"><title>Node1&#45;&gt;Node3</title>
<path fill="none" stroke="midnightblue" d="M229.394,-76.6401C215.88,-78.3518 202.415,-80.0574 190.753,-81.5347"/>
<polygon fill="midnightblue" stroke="midnightblue" points="230.227,-80.0626 239.708,-75.3337 229.347,-73.1181 230.227,-80.0626"/>
</g>
<!-- Node5 -->
<g id="node5" class="node"><title>Node5</title>
<g id="a_node5"><a xlink:href="class_bot.html#a39bedd8a99e6e57223c433c8197bcb49" target="_top" xlink:title="Avvia il bot.">
<polygon fill="white" stroke="black" points="130.5,-38.5 130.5,-57.5 178.5,-57.5 178.5,-38.5 130.5,-38.5"/>
<text text-anchor="middle" x="154.5" y="-45.5" font-family="Helvetica,sans-Serif" font-size="10.00">Bot.run</text>
</a>
</g>
</g>
<!-- Node1&#45;&gt;Node5 -->
<g id="edge4" class="edge"><title>Node1&#45;&gt;Node5</title>
<path fill="none" stroke="midnightblue" d="M229.732,-57.4027C211.192,-55.0543 192.714,-52.7138 178.832,-50.9554"/>
<polygon fill="midnightblue" stroke="midnightblue" points="229.347,-60.8819 239.708,-58.6663 230.227,-53.9374 229.347,-60.8819"/>
</g>
<!-- Node7 -->
<g id="node7" class="node"><title>Node7</title>
<g id="a_node7"><a xlink:href="class_tester.html#a17bc4081690cf0fa7a13873d06501f6a" target="_top" xlink:title="Esegue un test sul server.">
<polygon fill="white" stroke="black" points="124.5,-0.5 124.5,-19.5 184.5,-19.5 184.5,-0.5 124.5,-0.5"/>
<text text-anchor="middle" x="154.5" y="-7.5" font-family="Helvetica,sans-Serif" font-size="10.00">Tester.run</text>
</a>
</g>
</g>
<!-- Node1&#45;&gt;Node7 -->
<g id="edge6" class="edge"><title>Node1&#45;&gt;Node7</title>
<path fill="none" stroke="midnightblue" d="M256.28,-48.2964C231.072,-38.7172 201.44,-27.4571 180.859,-19.6365"/>
<polygon fill="midnightblue" stroke="midnightblue" points="255.105,-51.5942 265.697,-51.8747 257.592,-45.0507 255.105,-51.5942"/>
</g>
<!-- Node4 -->
<g id="node4" class="node"><title>Node4</title>
<g id="a_node4"><a xlink:href="class_w_q_cli.html#a13932f1ea4f257ce081aa524f090b6ee" target="_top" xlink:title="Gestisce l&#39;interazione con l&#39;utente.">
<polygon fill="white" stroke="black" points="0,-76.5 0,-95.5 69,-95.5 69,-76.5 0,-76.5"/>
<text text-anchor="middle" x="34.5" y="-83.5" font-family="Helvetica,sans-Serif" font-size="10.00">WQCli.main</text>
</a>
</g>
</g>
<!-- Node3&#45;&gt;Node4 -->
<g id="edge3" class="edge"><title>Node3&#45;&gt;Node4</title>
<path fill="none" stroke="midnightblue" d="M108.22,-86C95.1901,-86 81.2145,-86 69.0317,-86"/>
<polygon fill="midnightblue" stroke="midnightblue" points="108.416,-89.5001 118.416,-86 108.416,-82.5001 108.416,-89.5001"/>
</g>
<!-- Node6 -->
<g id="node6" class="node"><title>Node6</title>
<g id="a_node6"><a xlink:href="class_bot.html#a698976f1ad72fc3c09eff6f887f11d45" target="_top" xlink:title="Esegue un bot.">
<polygon fill="white" stroke="black" points="6.5,-38.5 6.5,-57.5 62.5,-57.5 62.5,-38.5 6.5,-38.5"/>
<text text-anchor="middle" x="34.5" y="-45.5" font-family="Helvetica,sans-Serif" font-size="10.00">Bot.main</text>
</a>
</g>
</g>
<!-- Node5&#45;&gt;Node6 -->
<g id="edge5" class="edge"><title>Node5&#45;&gt;Node6</title>
<path fill="none" stroke="midnightblue" d="M120.284,-48C102.066,-48 79.7665,-48 62.6098,-48"/>
<polygon fill="midnightblue" stroke="midnightblue" points="120.468,-51.5001 130.468,-48 120.468,-44.5001 120.468,-51.5001"/>
</g>
</g>
</svg>
