<?xml version="1.0" encoding="UTF-8" standalone="no"?>
<!DOCTYPE svg PUBLIC "-//W3C//DTD SVG 1.1//EN"
 "http://www.w3.org/Graphics/SVG/1.1/DTD/svg11.dtd">
<!-- Generated by graphviz version 2.38.0 (20140413.2041)
 -->
<!-- Title: WordQuizzle.DataBaseJSON.writeJSON Pages: 1 -->
<svg width="422pt" height="116pt"
 viewBox="0.00 0.00 422.00 116.00" xmlns="http://www.w3.org/2000/svg" xmlns:xlink="http://www.w3.org/1999/xlink">
<g id="graph0" class="graph" transform="scale(1 1) rotate(0) translate(4 112)">
<title>WordQuizzle.DataBaseJSON.writeJSON</title>
<polygon fill="white" stroke="none" points="-4,4 -4,-112 418,-112 418,4 -4,4"/>
<!-- Node1 -->
<g id="node1" class="node"><title>Node1</title>
<g id="a_node1"><a xlink:title="Fa il commit del database nel file json.">
<polygon fill="#bfbfbf" stroke="black" points="221,-44.5 221,-63.5 414,-63.5 414,-44.5 221,-44.5"/>
<text text-anchor="middle" x="317.5" y="-51.5" font-family="Helvetica,sans-Serif" font-size="10.00">WordQuizzle.DataBaseJSON.writeJSON</text>
</a>
</g>
</g>
<!-- Node2 -->
<g id="node2" class="node"><title>Node2</title>
<g id="a_node2"><a xlink:href="class_word_quizzle_1_1_data_base_j_s_o_n.html#ae3657f1b399c6bb2292085f5b267a5c4" target="_top" xlink:title="Crea un link (amicizia) non orientato tra due utenti.">
<polygon fill="white" stroke="black" points="11.5,-88.5 11.5,-107.5 173.5,-107.5 173.5,-88.5 11.5,-88.5"/>
<text text-anchor="middle" x="92.5" y="-95.5" font-family="Helvetica,sans-Serif" font-size="10.00">WordQuizzle.DataBaseJSON.link</text>
</a>
</g>
</g>
<!-- Node1&#45;&gt;Node2 -->
<g id="edge1" class="edge"><title>Node1&#45;&gt;Node2</title>
<path fill="none" stroke="midnightblue" d="M258.174,-65.5083C221.955,-72.6546 175.962,-81.7296 141.793,-88.4713"/>
<polygon fill="midnightblue" stroke="midnightblue" points="258.979,-68.917 268.112,-63.5473 257.624,-62.0494 258.979,-68.917"/>
</g>
<!-- Node3 -->
<g id="node3" class="node"><title>Node3</title>
<g id="a_node3"><a xlink:href="class_word_quizzle_1_1_data_base_j_s_o_n.html#a502f41cf68fd6337a482e01d283e675d" target="_top" xlink:title="Modifica il punteggio (User.score) di un utente.">
<polygon fill="white" stroke="black" points="4.5,-39 4.5,-69 180.5,-69 180.5,-39 4.5,-39"/>
<text text-anchor="start" x="12.5" y="-57" font-family="Helvetica,sans-Serif" font-size="10.00">WordQuizzle.DataBaseJSON.modify</text>
<text text-anchor="middle" x="92.5" y="-46" font-family="Helvetica,sans-Serif" font-size="10.00">Score</text>
</a>
</g>
</g>
<!-- Node1&#45;&gt;Node3 -->
<g id="edge2" class="edge"><title>Node1&#45;&gt;Node3</title>
<path fill="none" stroke="midnightblue" d="M210.893,-54C200.794,-54 190.63,-54 180.735,-54"/>
<polygon fill="midnightblue" stroke="midnightblue" points="210.958,-57.5001 220.957,-54 210.957,-50.5001 210.958,-57.5001"/>
</g>
<!-- Node4 -->
<g id="node4" class="node"><title>Node4</title>
<g id="a_node4"><a xlink:href="class_word_quizzle_1_1_data_base_j_s_o_n.html#af4e5efb5f084f394fbca0ae77e7f5368" target="_top" xlink:title="Aggiunge un nuovo utente nel database.">
<polygon fill="white" stroke="black" points="0,-0.5 0,-19.5 185,-19.5 185,-0.5 0,-0.5"/>
<text text-anchor="middle" x="92.5" y="-7.5" font-family="Helvetica,sans-Serif" font-size="10.00">WordQuizzle.DataBaseJSON.newUser</text>
</a>
</g>
</g>
<!-- Node1&#45;&gt;Node4 -->
<g id="edge3" class="edge"><title>Node1&#45;&gt;Node4</title>
<path fill="none" stroke="midnightblue" d="M258.174,-42.4917C221.955,-35.3454 175.962,-26.2704 141.793,-19.5287"/>
<polygon fill="midnightblue" stroke="midnightblue" points="257.624,-45.9506 268.112,-44.4527 258.979,-39.083 257.624,-45.9506"/>
</g>
</g>
</svg>
