<?xml version="1.0" encoding="UTF-8" standalone="no"?>
<!DOCTYPE svg PUBLIC "-//W3C//DTD SVG 1.1//EN"
 "http://www.w3.org/Graphics/SVG/1.1/DTD/svg11.dtd">
<!-- Generated by graphviz version 2.38.0 (20140413.2041)
 -->
<!-- Title: WordQuizzleServerService.sfida Pages: 1 -->
<svg width="317pt" height="142pt"
 viewBox="0.00 0.00 317.00 142.00" xmlns="http://www.w3.org/2000/svg" xmlns:xlink="http://www.w3.org/1999/xlink">
<g id="graph0" class="graph" transform="scale(1 1) rotate(0) translate(4 138)">
<title>WordQuizzleServerService.sfida</title>
<polygon fill="white" stroke="none" points="-4,4 -4,-138 313,-138 313,4 -4,4"/>
<!-- Node1 -->
<g id="node1" class="node"><title>Node1</title>
<g id="a_node1"><a xlink:title="Invia una richiesta di sfida ad un amico di nickUtente.">
<polygon fill="#bfbfbf" stroke="black" points="0,-57.5 0,-76.5 155,-76.5 155,-57.5 0,-57.5"/>
<text text-anchor="middle" x="77.5" y="-64.5" font-family="Helvetica,sans-Serif" font-size="10.00">WordQuizzleServerService.sfida</text>
</a>
</g>
</g>
<!-- Node2 -->
<g id="node2" class="node"><title>Node2</title>
<g id="a_node2"><a xlink:href="interface_data_base.html#a580f93c56dbbed8b2fb1fc2e856efe68" target="_top" xlink:title="Controlla che quel nome utente sia nel database.">
<polygon fill="white" stroke="black" points="195.5,-114.5 195.5,-133.5 304.5,-133.5 304.5,-114.5 195.5,-114.5"/>
<text text-anchor="middle" x="250" y="-121.5" font-family="Helvetica,sans-Serif" font-size="10.00">DataBase.checkUser</text>
</a>
</g>
</g>
<!-- Node1&#45;&gt;Node2 -->
<g id="edge1" class="edge"><title>Node1&#45;&gt;Node2</title>
<path fill="none" stroke="midnightblue" d="M106.679,-76.5979C129.419,-84.3242 162.245,-95.4339 191,-105 197.136,-107.041 203.643,-109.189 209.995,-111.277"/>
<polygon fill="midnightblue" stroke="midnightblue" points="209.181,-114.693 219.774,-114.484 211.363,-108.042 209.181,-114.693"/>
</g>
<!-- Node3 -->
<g id="node3" class="node"><title>Node3</title>
<g id="a_node3"><a xlink:href="class_challenge.html#ae2de3ea233827168e5869b9ac429af6a" target="_top" xlink:title="Restituisce il tempo di creazione della sfida.">
<polygon fill="white" stroke="black" points="191,-76.5 191,-95.5 309,-95.5 309,-76.5 191,-76.5"/>
<text text-anchor="middle" x="250" y="-83.5" font-family="Helvetica,sans-Serif" font-size="10.00">Challenge.getStartTime</text>
</a>
</g>
</g>
<!-- Node1&#45;&gt;Node3 -->
<g id="edge2" class="edge"><title>Node1&#45;&gt;Node3</title>
<path fill="none" stroke="midnightblue" d="M155.271,-75.5551C163.754,-76.5005 172.35,-77.4584 180.719,-78.391"/>
<polygon fill="midnightblue" stroke="midnightblue" points="180.466,-81.8844 190.792,-79.5135 181.241,-74.9274 180.466,-81.8844"/>
</g>
<!-- Node4 -->
<g id="node4" class="node"><title>Node4</title>
<g id="a_node4"><a xlink:href="interface_data_base.html#af660eaf16066006da658ac99fa3f6936" target="_top" xlink:title="Dato un nome utente ottiene l&#39;oggetto User corrispondente.">
<polygon fill="white" stroke="black" points="202,-38.5 202,-57.5 298,-57.5 298,-38.5 202,-38.5"/>
<text text-anchor="middle" x="250" y="-45.5" font-family="Helvetica,sans-Serif" font-size="10.00">DataBase.getUser</text>
</a>
</g>
</g>
<!-- Node1&#45;&gt;Node4 -->
<g id="edge3" class="edge"><title>Node1&#45;&gt;Node4</title>
<path fill="none" stroke="midnightblue" d="M155.271,-58.4449C167.576,-57.0736 180.12,-55.6758 191.862,-54.3673"/>
<polygon fill="midnightblue" stroke="midnightblue" points="192.397,-57.8294 201.948,-53.2433 191.622,-50.8724 192.397,-57.8294"/>
</g>
<!-- Node5 -->
<g id="node5" class="node"><title>Node5</title>
<g id="a_node5"><a xlink:href="class_user.html#acc6836fc440a040d322d2e1eb31d92fe" target="_top" xlink:title="Verifica se un nome utente e&#39; amico dell&#39;utente.">
<polygon fill="white" stroke="black" points="213,-0.5 213,-19.5 287,-19.5 287,-0.5 213,-0.5"/>
<text text-anchor="middle" x="250" y="-7.5" font-family="Helvetica,sans-Serif" font-size="10.00">User.isFriend</text>
</a>
</g>
</g>
<!-- Node1&#45;&gt;Node5 -->
<g id="edge4" class="edge"><title>Node1&#45;&gt;Node5</title>
<path fill="none" stroke="midnightblue" d="M106.679,-57.4021C129.419,-49.6758 162.245,-38.5661 191,-29 197.136,-26.9586 203.643,-24.8107 209.995,-22.7231"/>
<polygon fill="midnightblue" stroke="midnightblue" points="211.363,-25.9581 219.774,-19.5161 209.181,-19.3066 211.363,-25.9581"/>
</g>
</g>
</svg>
