<?xml version="1.0" encoding="UTF-8" standalone="no"?>
<!DOCTYPE svg PUBLIC "-//W3C//DTD SVG 1.1//EN"
 "http://www.w3.org/Graphics/SVG/1.1/DTD/svg11.dtd">
<!-- Generated by graphviz version 2.38.0 (20140413.2041)
 -->
<!-- Title: WordQuizzle.WordQuizzleServerService.aggiungi_amico Pages: 1 -->
<svg width="741pt" height="39pt"
 viewBox="0.00 0.00 741.00 39.00" xmlns="http://www.w3.org/2000/svg" xmlns:xlink="http://www.w3.org/1999/xlink">
<g id="graph0" class="graph" transform="scale(1 1) rotate(0) translate(4 35)">
<title>WordQuizzle.WordQuizzleServerService.aggiungi_amico</title>
<polygon fill="white" stroke="none" points="-4,4 -4,-35 737,-35 737,4 -4,4"/>
<!-- Node1 -->
<g id="node1" class="node"><title>Node1</title>
<g id="a_node1"><a xlink:title=" ">
<polygon fill="#bfbfbf" stroke="black" points="574,-0.5 574,-30.5 733,-30.5 733,-0.5 574,-0.5"/>
<text text-anchor="start" x="582" y="-18.5" font-family="Helvetica,sans-Serif" font-size="10.00">WordQuizzle.WordQuizzleServer</text>
<text text-anchor="middle" x="653.5" y="-7.5" font-family="Helvetica,sans-Serif" font-size="10.00">Service.aggiungi_amico</text>
</a>
</g>
</g>
<!-- Node2 -->
<g id="node2" class="node"><title>Node2</title>
<g id="a_node2"><a xlink:href="class_word_quizzle_1_1_session.html#a21992c338367b1a3c2e57fdb7cae3018" target="_top" xlink:title=" ">
<polygon fill="white" stroke="black" points="386,-6 386,-25 538,-25 538,-6 386,-6"/>
<text text-anchor="middle" x="462" y="-13" font-family="Helvetica,sans-Serif" font-size="10.00">WordQuizzle.Session.compute</text>
</a>
</g>
</g>
<!-- Node1&#45;&gt;Node2 -->
<g id="edge1" class="edge"><title>Node1&#45;&gt;Node2</title>
<path fill="none" stroke="midnightblue" d="M563.764,-15.5C555.191,-15.5 546.552,-15.5 538.129,-15.5"/>
<polygon fill="midnightblue" stroke="midnightblue" points="563.781,-19.0001 573.781,-15.5 563.781,-12.0001 563.781,-19.0001"/>
</g>
<!-- Node3 -->
<g id="node3" class="node"><title>Node3</title>
<g id="a_node3"><a xlink:href="class_word_quizzle_1_1_session.html#a6793f02ea7cab6fffe0361893cf40178" target="_top" xlink:title=" ">
<polygon fill="white" stroke="black" points="212,-6 212,-25 350,-25 350,-6 212,-6"/>
<text text-anchor="middle" x="281" y="-13" font-family="Helvetica,sans-Serif" font-size="10.00">WordQuizzle.Session.parse</text>
</a>
</g>
</g>
<!-- Node2&#45;&gt;Node3 -->
<g id="edge2" class="edge"><title>Node2&#45;&gt;Node3</title>
<path fill="none" stroke="midnightblue" d="M375.793,-15.5C367.175,-15.5 358.505,-15.5 350.101,-15.5"/>
<polygon fill="midnightblue" stroke="midnightblue" points="375.866,-19.0001 385.866,-15.5 375.866,-12.0001 375.866,-19.0001"/>
</g>
<!-- Node4 -->
<g id="node4" class="node"><title>Node4</title>
<g id="a_node4"><a xlink:href="class_word_quizzle_1_1_word_quizzle_server.html#a4aa19bad373d06a790babba1e5b67644" target="_top" xlink:title=" ">
<polygon fill="white" stroke="black" points="0,-6 0,-25 176,-25 176,-6 0,-6"/>
<text text-anchor="middle" x="88" y="-13" font-family="Helvetica,sans-Serif" font-size="10.00">WordQuizzle.WordQuizzleServer.run</text>
</a>
</g>
</g>
<!-- Node3&#45;&gt;Node4 -->
<g id="edge3" class="edge"><title>Node3&#45;&gt;Node4</title>
<path fill="none" stroke="midnightblue" d="M201.692,-15.5C193.27,-15.5 184.665,-15.5 176.149,-15.5"/>
<polygon fill="midnightblue" stroke="midnightblue" points="201.854,-19.0001 211.854,-15.5 201.853,-12.0001 201.854,-19.0001"/>
</g>
</g>
</svg>
