<?xml version="1.0" encoding="UTF-8" standalone="no"?>
<!DOCTYPE svg PUBLIC "-//W3C//DTD SVG 1.1//EN"
 "http://www.w3.org/Graphics/SVG/1.1/DTD/svg11.dtd">
<!-- Generated by graphviz version 2.38.0 (20140413.2041)
 -->
<!-- Title: WordQuizzle.User Pages: 1 -->
<svg width="104pt" height="408pt"
 viewBox="0.00 0.00 104.00 408.00" xmlns="http://www.w3.org/2000/svg" xmlns:xlink="http://www.w3.org/1999/xlink">
<g id="graph0" class="graph" transform="scale(1 1) rotate(0) translate(4 404)">
<title>WordQuizzle.User</title>
<polygon fill="white" stroke="none" points="-4,4 -4,-404 100,-404 100,4 -4,4"/>
<!-- Node1 -->
<g id="node1" class="node"><title>Node1</title>
<g id="a_node1"><a xlink:title="Rappresenta un utente.">
<polygon fill="#bfbfbf" stroke="black" points="0,-0.5 0,-189.5 96,-189.5 96,-0.5 0,-0.5"/>
<text text-anchor="middle" x="48" y="-177.5" font-family="Helvetica,sans-Serif" font-size="10.00">WordQuizzle.User</text>
<polyline fill="none" stroke="black" points="0,-170.5 96,-170.5 "/>
<text text-anchor="start" x="8" y="-158.5" font-family="Helvetica,sans-Serif" font-size="10.00">&#45; name</text>
<text text-anchor="start" x="8" y="-147.5" font-family="Helvetica,sans-Serif" font-size="10.00">&#45; password</text>
<text text-anchor="start" x="8" y="-136.5" font-family="Helvetica,sans-Serif" font-size="10.00">&#45; score</text>
<polyline fill="none" stroke="black" points="0,-129.5 96,-129.5 "/>
<text text-anchor="start" x="8" y="-117.5" font-family="Helvetica,sans-Serif" font-size="10.00">+ User()</text>
<text text-anchor="start" x="8" y="-106.5" font-family="Helvetica,sans-Serif" font-size="10.00">+ User()</text>
<text text-anchor="start" x="8" y="-95.5" font-family="Helvetica,sans-Serif" font-size="10.00">+ getName()</text>
<text text-anchor="start" x="8" y="-84.5" font-family="Helvetica,sans-Serif" font-size="10.00">+ getPassword()</text>
<text text-anchor="start" x="8" y="-73.5" font-family="Helvetica,sans-Serif" font-size="10.00">+ getScore()</text>
<text text-anchor="start" x="8" y="-62.5" font-family="Helvetica,sans-Serif" font-size="10.00">+ getFriends()</text>
<text text-anchor="start" x="8" y="-51.5" font-family="Helvetica,sans-Serif" font-size="10.00">+ isFriend()</text>
<text text-anchor="start" x="8" y="-40.5" font-family="Helvetica,sans-Serif" font-size="10.00">+ setScore()</text>
<text text-anchor="start" x="8" y="-29.5" font-family="Helvetica,sans-Serif" font-size="10.00">+ modifyScore()</text>
<text text-anchor="start" x="8" y="-18.5" font-family="Helvetica,sans-Serif" font-size="10.00">+ link()</text>
<text text-anchor="start" x="8" y="-7.5" font-family="Helvetica,sans-Serif" font-size="10.00">+ toString()</text>
</a>
</g>
</g>
<!-- Node2 -->
<g id="node2" class="node"><title>Node2</title>
<g id="a_node2"><a xlink:title=" ">
<polygon fill="white" stroke="#bfbfbf" points="3.5,-237.5 3.5,-294.5 92.5,-294.5 92.5,-237.5 3.5,-237.5"/>
<text text-anchor="middle" x="48" y="-282.5" font-family="Helvetica,sans-Serif" font-size="10.00">Vector&lt; String &gt;</text>
<polyline fill="none" stroke="#bfbfbf" points="3.5,-275.5 92.5,-275.5 "/>
<text text-anchor="middle" x="48" y="-263.5" font-family="Helvetica,sans-Serif" font-size="10.00"> </text>
<polyline fill="none" stroke="#bfbfbf" points="3.5,-256.5 92.5,-256.5 "/>
<text text-anchor="middle" x="48" y="-244.5" font-family="Helvetica,sans-Serif" font-size="10.00"> </text>
</a>
</g>
</g>
<!-- Node2&#45;&gt;Node1 -->
<g id="edge1" class="edge"><title>Node2&#45;&gt;Node1</title>
<path fill="none" stroke="#404040" d="M48,-237.471C48,-227.231 48,-214.901 48,-201.844"/>
<polygon fill="none" stroke="#404040" points="48.0001,-201.687 44,-195.687 48,-189.687 52,-195.687 48.0001,-201.687"/>
<text text-anchor="middle" x="65.5" y="-211" font-family="Helvetica,sans-Serif" font-size="10.00"> &#45;friends</text>
</g>
<!-- Node3 -->
<g id="node3" class="node"><title>Node3</title>
<g id="a_node3"><a xlink:title=" ">
<polygon fill="white" stroke="#bfbfbf" points="25.5,-342.5 25.5,-399.5 70.5,-399.5 70.5,-342.5 25.5,-342.5"/>
<text text-anchor="middle" x="48" y="-387.5" font-family="Helvetica,sans-Serif" font-size="10.00">Vector</text>
<polyline fill="none" stroke="#bfbfbf" points="25.5,-380.5 70.5,-380.5 "/>
<text text-anchor="middle" x="48" y="-368.5" font-family="Helvetica,sans-Serif" font-size="10.00"> </text>
<polyline fill="none" stroke="#bfbfbf" points="25.5,-361.5 70.5,-361.5 "/>
<text text-anchor="middle" x="48" y="-349.5" font-family="Helvetica,sans-Serif" font-size="10.00"> </text>
</a>
</g>
</g>
<!-- Node3&#45;&gt;Node2 -->
<g id="edge2" class="edge"><title>Node3&#45;&gt;Node2</title>
<path fill="none" stroke="orange" d="M48,-332.286C48,-319.839 48,-306.233 48,-294.678"/>
<polygon fill="orange" stroke="orange" points="44.5001,-332.398 48,-342.398 51.5001,-332.398 44.5001,-332.398"/>
<text text-anchor="middle" x="71.5" y="-316" font-family="Helvetica,sans-Serif" font-size="10.00"> &lt; String &gt;</text>
</g>
</g>
</svg>
