<?xml version="1.0" encoding="UTF-8" standalone="no"?>
<!DOCTYPE svg PUBLIC "-//W3C//DTD SVG 1.1//EN"
 "http://www.w3.org/Graphics/SVG/1.1/DTD/svg11.dtd">
<!-- Generated by graphviz version 2.38.0 (20140413.2041)
 -->
<!-- Title: WordQuizzle.WordQuizzleClient.registra_utente Pages: 1 -->
<svg width="558pt" height="104pt"
 viewBox="0.00 0.00 558.00 104.00" xmlns="http://www.w3.org/2000/svg" xmlns:xlink="http://www.w3.org/1999/xlink">
<g id="graph0" class="graph" transform="scale(1 1) rotate(0) translate(4 100)">
<title>WordQuizzle.WordQuizzleClient.registra_utente</title>
<polygon fill="white" stroke="none" points="-4,4 -4,-100 554,-100 554,4 -4,4"/>
<!-- Node1 -->
<g id="node1" class="node"><title>Node1</title>
<g id="a_node1"><a xlink:title="Registra un nuovo utente.">
<polygon fill="#bfbfbf" stroke="black" points="358,-33 358,-63 550,-63 550,-33 358,-33"/>
<text text-anchor="start" x="366" y="-51" font-family="Helvetica,sans-Serif" font-size="10.00">WordQuizzle.WordQuizzleClient.registra</text>
<text text-anchor="middle" x="454" y="-40" font-family="Helvetica,sans-Serif" font-size="10.00">_utente</text>
</a>
</g>
</g>
<!-- Node2 -->
<g id="node2" class="node"><title>Node2</title>
<g id="a_node2"><a xlink:href="class_word_quizzle_1_1_w_q_gui.html#aad977af8a8393382e53bc94a76605a3b" target="_top" xlink:title="Crea la finestra di login e registrazione.">
<polygon fill="white" stroke="black" points="164,-76.5 164,-95.5 322,-95.5 322,-76.5 164,-76.5"/>
<text text-anchor="middle" x="243" y="-83.5" font-family="Helvetica,sans-Serif" font-size="10.00">WordQuizzle.WQGui.makeLogin</text>
</a>
</g>
</g>
<!-- Node1&#45;&gt;Node2 -->
<g id="edge1" class="edge"><title>Node1&#45;&gt;Node2</title>
<path fill="none" stroke="midnightblue" d="M360.363,-64.843C338.384,-68.8393 315.696,-72.9644 296.255,-76.4991"/>
<polygon fill="midnightblue" stroke="midnightblue" points="361.185,-68.2511 370.398,-63.0186 359.933,-61.364 361.185,-68.2511"/>
</g>
<!-- Node3 -->
<g id="node3" class="node"><title>Node3</title>
<g id="a_node3"><a xlink:href="class_word_quizzle_1_1_w_q_cli.html#a318ef86f91a825da4ff4684bd3332a6b" target="_top" xlink:title="Gestisce le richieste dell&#39;utente.">
<polygon fill="white" stroke="black" points="177.5,-38.5 177.5,-57.5 308.5,-57.5 308.5,-38.5 177.5,-38.5"/>
<text text-anchor="middle" x="243" y="-45.5" font-family="Helvetica,sans-Serif" font-size="10.00">WordQuizzle.WQCli.parse</text>
</a>
</g>
</g>
<!-- Node1&#45;&gt;Node3 -->
<g id="edge2" class="edge"><title>Node1&#45;&gt;Node3</title>
<path fill="none" stroke="midnightblue" d="M347.768,-48C334.4,-48 321.049,-48 308.588,-48"/>
<polygon fill="midnightblue" stroke="midnightblue" points="347.979,-51.5001 357.979,-48 347.979,-44.5001 347.979,-51.5001"/>
</g>
<!-- Node5 -->
<g id="node5" class="node"><title>Node5</title>
<g id="a_node5"><a xlink:href="class_word_quizzle_1_1_bot.html#aa088d2cccb4552d9277db7908b7cc706" target="_top" xlink:title="Avvia il bot.">
<polygon fill="white" stroke="black" points="189.5,-0.5 189.5,-19.5 296.5,-19.5 296.5,-0.5 189.5,-0.5"/>
<text text-anchor="middle" x="243" y="-7.5" font-family="Helvetica,sans-Serif" font-size="10.00">WordQuizzle.Bot.run</text>
</a>
</g>
</g>
<!-- Node1&#45;&gt;Node5 -->
<g id="edge4" class="edge"><title>Node1&#45;&gt;Node5</title>
<path fill="none" stroke="midnightblue" d="M360.363,-31.157C338.384,-27.1607 315.696,-23.0356 296.255,-19.5009"/>
<polygon fill="midnightblue" stroke="midnightblue" points="359.933,-34.636 370.398,-32.9814 361.185,-27.7489 359.933,-34.636"/>
</g>
<!-- Node4 -->
<g id="node4" class="node"><title>Node4</title>
<g id="a_node4"><a xlink:href="class_word_quizzle_1_1_w_q_cli.html#a7c2d51051cc7f1b20c57c1424d3b7727" target="_top" xlink:title="Gestisce l&#39;interazione con l&#39;utente.">
<polygon fill="white" stroke="black" points="0,-38.5 0,-57.5 128,-57.5 128,-38.5 0,-38.5"/>
<text text-anchor="middle" x="64" y="-45.5" font-family="Helvetica,sans-Serif" font-size="10.00">WordQuizzle.WQCli.main</text>
</a>
</g>
</g>
<!-- Node3&#45;&gt;Node4 -->
<g id="edge3" class="edge"><title>Node3&#45;&gt;Node4</title>
<path fill="none" stroke="midnightblue" d="M167.095,-48C154.179,-48 140.867,-48 128.295,-48"/>
<polygon fill="midnightblue" stroke="midnightblue" points="167.348,-51.5001 177.348,-48 167.348,-44.5001 167.348,-51.5001"/>
</g>
<!-- Node6 -->
<g id="node6" class="node"><title>Node6</title>
<g id="a_node6"><a xlink:href="class_word_quizzle_1_1_bot.html#a1092df275f21d17d0b0a7edf7bbb59f2" target="_top" xlink:title="Esegue un bot.">
<polygon fill="white" stroke="black" points="6.5,-0.5 6.5,-19.5 121.5,-19.5 121.5,-0.5 6.5,-0.5"/>
<text text-anchor="middle" x="64" y="-7.5" font-family="Helvetica,sans-Serif" font-size="10.00">WordQuizzle.Bot.main</text>
</a>
</g>
</g>
<!-- Node5&#45;&gt;Node6 -->
<g id="edge5" class="edge"><title>Node5&#45;&gt;Node6</title>
<path fill="none" stroke="midnightblue" d="M179.17,-10C160.449,-10 140.051,-10 121.743,-10"/>
<polygon fill="midnightblue" stroke="midnightblue" points="179.373,-13.5001 189.373,-10 179.373,-6.5001 179.373,-13.5001"/>
</g>
</g>
</svg>
