<?xml version="1.0" encoding="UTF-8" standalone="no"?>
<!DOCTYPE svg PUBLIC "-//W3C//DTD SVG 1.1//EN"
 "http://www.w3.org/Graphics/SVG/1.1/DTD/svg11.dtd">
<!-- Generated by graphviz version 2.38.0 (20140413.2041)
 -->
<!-- Title: Session Pages: 1 -->
<svg width="721pt" height="700pt"
 viewBox="0.00 0.00 720.50 700.00" xmlns="http://www.w3.org/2000/svg" xmlns:xlink="http://www.w3.org/1999/xlink">
<g id="graph0" class="graph" transform="scale(1 1) rotate(0) translate(4 696)">
<title>Session</title>
<polygon fill="white" stroke="none" points="-4,4 -4,-696 716.5,-696 716.5,4 -4,4"/>
<!-- Node1 -->
<g id="node1" class="node"><title>Node1</title>
<g id="a_node1"><a xlink:title=" ">
<polygon fill="#bfbfbf" stroke="black" points="459,-0.5 459,-156.5 548,-156.5 548,-0.5 459,-0.5"/>
<text text-anchor="middle" x="503.5" y="-144.5" font-family="Helvetica,sans-Serif" font-size="10.00">Session</text>
<polyline fill="none" stroke="black" points="459,-137.5 548,-137.5 "/>
<text text-anchor="start" x="467" y="-125.5" font-family="Helvetica,sans-Serif" font-size="10.00">&#45; user</text>
<text text-anchor="start" x="467" y="-114.5" font-family="Helvetica,sans-Serif" font-size="10.00">&#45; response</text>
<text text-anchor="start" x="467" y="-103.5" font-family="Helvetica,sans-Serif" font-size="10.00">&#45; end</text>
<polyline fill="none" stroke="black" points="459,-96.5 548,-96.5 "/>
<text text-anchor="start" x="467" y="-84.5" font-family="Helvetica,sans-Serif" font-size="10.00">+ Session()</text>
<text text-anchor="start" x="467" y="-73.5" font-family="Helvetica,sans-Serif" font-size="10.00">+ getBfs()</text>
<text text-anchor="start" x="467" y="-62.5" font-family="Helvetica,sans-Serif" font-size="10.00">+ newBfs()</text>
<text text-anchor="start" x="467" y="-51.5" font-family="Helvetica,sans-Serif" font-size="10.00">+ getUser()</text>
<text text-anchor="start" x="467" y="-40.5" font-family="Helvetica,sans-Serif" font-size="10.00">+ getResponse()</text>
<text text-anchor="start" x="467" y="-29.5" font-family="Helvetica,sans-Serif" font-size="10.00">+ isTerminated()</text>
<text text-anchor="start" x="467" y="-18.5" font-family="Helvetica,sans-Serif" font-size="10.00">+ parse()</text>
<text text-anchor="start" x="467" y="-7.5" font-family="Helvetica,sans-Serif" font-size="10.00">&#45; compute()</text>
</a>
</g>
</g>
<!-- Node2 -->
<g id="node2" class="node"><title>Node2</title>
<g id="a_node2"><a xlink:href="class_word_quizzle_server_service.html" target="_top" xlink:title=" ">
<polygon fill="white" stroke="black" points="339.5,-204.5 339.5,-404.5 485.5,-404.5 485.5,-204.5 339.5,-204.5"/>
<text text-anchor="middle" x="412.5" y="-392.5" font-family="Helvetica,sans-Serif" font-size="10.00">WordQuizzleServerService</text>
<polyline fill="none" stroke="black" points="339.5,-385.5 485.5,-385.5 "/>
<text text-anchor="start" x="347.5" y="-373.5" font-family="Helvetica,sans-Serif" font-size="10.00">&#45; K</text>
<text text-anchor="start" x="347.5" y="-362.5" font-family="Helvetica,sans-Serif" font-size="10.00">&#45; T1</text>
<text text-anchor="start" x="347.5" y="-351.5" font-family="Helvetica,sans-Serif" font-size="10.00">&#45; T2</text>
<text text-anchor="start" x="347.5" y="-340.5" font-family="Helvetica,sans-Serif" font-size="10.00">&#45; X</text>
<text text-anchor="start" x="347.5" y="-329.5" font-family="Helvetica,sans-Serif" font-size="10.00">&#45; Y</text>
<text text-anchor="start" x="347.5" y="-318.5" font-family="Helvetica,sans-Serif" font-size="10.00">&#45; Z</text>
<polyline fill="none" stroke="black" points="339.5,-311.5 485.5,-311.5 "/>
<text text-anchor="start" x="347.5" y="-299.5" font-family="Helvetica,sans-Serif" font-size="10.00">+ WordQuizzleServerService()</text>
<text text-anchor="start" x="347.5" y="-288.5" font-family="Helvetica,sans-Serif" font-size="10.00">+ login()</text>
<text text-anchor="start" x="347.5" y="-277.5" font-family="Helvetica,sans-Serif" font-size="10.00">+ logout()</text>
<text text-anchor="start" x="347.5" y="-266.5" font-family="Helvetica,sans-Serif" font-size="10.00">+ aggiungi_amico()</text>
<text text-anchor="start" x="347.5" y="-255.5" font-family="Helvetica,sans-Serif" font-size="10.00">+ lista_amici()</text>
<text text-anchor="start" x="347.5" y="-244.5" font-family="Helvetica,sans-Serif" font-size="10.00">+ mostra_punteggio()</text>
<text text-anchor="start" x="347.5" y="-233.5" font-family="Helvetica,sans-Serif" font-size="10.00">+ mostra_classifica()</text>
<text text-anchor="start" x="347.5" y="-222.5" font-family="Helvetica,sans-Serif" font-size="10.00">+ sfida()</text>
<text text-anchor="start" x="347.5" y="-211.5" font-family="Helvetica,sans-Serif" font-size="10.00">+ accettaSfida()</text>
</a>
</g>
</g>
<!-- Node2&#45;&gt;Node1 -->
<g id="edge1" class="edge"><title>Node2&#45;&gt;Node1</title>
<path fill="none" stroke="#404040" d="M452.811,-204.272C457.711,-192.211 462.692,-179.951 467.523,-168.059"/>
<polygon fill="none" stroke="#404040" points="467.585,-167.907 466.137,-160.842 472.101,-156.789 473.549,-163.853 467.585,-167.907"/>
<text text-anchor="middle" x="473" y="-178" font-family="Helvetica,sans-Serif" font-size="10.00"> &#45;wq</text>
</g>
<!-- Node3 -->
<g id="node3" class="node"><title>Node3</title>
<g id="a_node3"><a xlink:href="interface_word_quizzle_service.html" target="_top" xlink:title=" ">
<polygon fill="white" stroke="black" points="0,-452.5 0,-586.5 109,-586.5 109,-452.5 0,-452.5"/>
<text text-anchor="middle" x="54.5" y="-574.5" font-family="Helvetica,sans-Serif" font-size="10.00">WordQuizzleService</text>
<polyline fill="none" stroke="black" points="0,-567.5 109,-567.5 "/>
<text text-anchor="middle" x="54.5" y="-555.5" font-family="Helvetica,sans-Serif" font-size="10.00"> </text>
<polyline fill="none" stroke="black" points="0,-548.5 109,-548.5 "/>
<text text-anchor="start" x="8" y="-536.5" font-family="Helvetica,sans-Serif" font-size="10.00">+ login()</text>
<text text-anchor="start" x="8" y="-525.5" font-family="Helvetica,sans-Serif" font-size="10.00">+ logout()</text>
<text text-anchor="start" x="8" y="-514.5" font-family="Helvetica,sans-Serif" font-size="10.00">+ aggiungi_amico()</text>
<text text-anchor="start" x="8" y="-503.5" font-family="Helvetica,sans-Serif" font-size="10.00">+ sfida()</text>
<text text-anchor="start" x="8" y="-492.5" font-family="Helvetica,sans-Serif" font-size="10.00">+ lista_amici()</text>
<text text-anchor="start" x="8" y="-481.5" font-family="Helvetica,sans-Serif" font-size="10.00">+ mostra_punteggio()</text>
<text text-anchor="start" x="8" y="-470.5" font-family="Helvetica,sans-Serif" font-size="10.00">+ mostra_classifica()</text>
<text text-anchor="start" x="8" y="-459.5" font-family="Helvetica,sans-Serif" font-size="10.00">+ accettaSfida()</text>
</a>
</g>
</g>
<!-- Node3&#45;&gt;Node2 -->
<g id="edge2" class="edge"><title>Node3&#45;&gt;Node2</title>
<path fill="none" stroke="midnightblue" d="M116.973,-452.392C117.148,-452.261 117.324,-452.13 117.5,-452 186.929,-400.665 277.089,-358.92 339.368,-333.311"/>
<polygon fill="none" stroke="midnightblue" points="114.798,-449.65 109.133,-458.603 119.144,-455.136 114.798,-449.65"/>
</g>
<!-- Node4 -->
<g id="node4" class="node"><title>Node4</title>
<g id="a_node4"><a xlink:title=" ">
<polygon fill="white" stroke="#bfbfbf" points="127,-491 127,-548 216,-548 216,-491 127,-491"/>
<text text-anchor="middle" x="171.5" y="-536" font-family="Helvetica,sans-Serif" font-size="10.00">DatagramSocket</text>
<polyline fill="none" stroke="#bfbfbf" points="127,-529 216,-529 "/>
<text text-anchor="middle" x="171.5" y="-517" font-family="Helvetica,sans-Serif" font-size="10.00"> </text>
<polyline fill="none" stroke="#bfbfbf" points="127,-510 216,-510 "/>
<text text-anchor="middle" x="171.5" y="-498" font-family="Helvetica,sans-Serif" font-size="10.00"> </text>
</a>
</g>
</g>
<!-- Node4&#45;&gt;Node2 -->
<g id="edge3" class="edge"><title>Node4&#45;&gt;Node2</title>
<path fill="none" stroke="#404040" d="M191.286,-490.741C200.716,-478.317 212.534,-463.835 224.5,-452 256.497,-420.351 295.24,-389.151 329.222,-363.731"/>
<polygon fill="none" stroke="#404040" points="329.497,-363.527 331.933,-356.74 339.135,-356.377 336.699,-363.165 329.497,-363.527"/>
<text text-anchor="middle" x="271.5" y="-426" font-family="Helvetica,sans-Serif" font-size="10.00"> &#45;socket</text>
</g>
<!-- Node5 -->
<g id="node5" class="node"><title>Node5</title>
<g id="a_node5"><a xlink:title=" ">
<polygon fill="white" stroke="#bfbfbf" points="234,-491 234,-548 401,-548 401,-491 234,-491"/>
<text text-anchor="middle" x="317.5" y="-536" font-family="Helvetica,sans-Serif" font-size="10.00">Map&lt; String, InetSocketAddress &gt;</text>
<polyline fill="none" stroke="#bfbfbf" points="234,-529 401,-529 "/>
<text text-anchor="middle" x="317.5" y="-517" font-family="Helvetica,sans-Serif" font-size="10.00"> </text>
<polyline fill="none" stroke="#bfbfbf" points="234,-510 401,-510 "/>
<text text-anchor="middle" x="317.5" y="-498" font-family="Helvetica,sans-Serif" font-size="10.00"> </text>
</a>
</g>
</g>
<!-- Node5&#45;&gt;Node2 -->
<g id="edge4" class="edge"><title>Node5&#45;&gt;Node2</title>
<path fill="none" stroke="#404040" d="M329.92,-490.654C338.622,-471.142 350.874,-443.671 363.283,-415.85"/>
<polygon fill="none" stroke="#404040" points="363.337,-415.73 362.127,-408.621 368.225,-404.77 369.434,-411.879 363.337,-415.73"/>
<text text-anchor="middle" x="375" y="-426" font-family="Helvetica,sans-Serif" font-size="10.00"> &#45;users</text>
</g>
<!-- Node6 -->
<g id="node6" class="node"><title>Node6</title>
<g id="a_node6"><a xlink:title=" ">
<polygon fill="white" stroke="#bfbfbf" points="300,-634.5 300,-691.5 335,-691.5 335,-634.5 300,-634.5"/>
<text text-anchor="middle" x="317.5" y="-679.5" font-family="Helvetica,sans-Serif" font-size="10.00">Map</text>
<polyline fill="none" stroke="#bfbfbf" points="300,-672.5 335,-672.5 "/>
<text text-anchor="middle" x="317.5" y="-660.5" font-family="Helvetica,sans-Serif" font-size="10.00"> </text>
<polyline fill="none" stroke="#bfbfbf" points="300,-653.5 335,-653.5 "/>
<text text-anchor="middle" x="317.5" y="-641.5" font-family="Helvetica,sans-Serif" font-size="10.00"> </text>
</a>
</g>
</g>
<!-- Node6&#45;&gt;Node5 -->
<g id="edge5" class="edge"><title>Node6&#45;&gt;Node5</title>
<path fill="none" stroke="orange" d="M317.5,-624.213C317.5,-600.234 317.5,-569.749 317.5,-548.049"/>
<polygon fill="orange" stroke="orange" points="314,-624.381 317.5,-634.381 321,-624.382 314,-624.381"/>
<text text-anchor="middle" x="385.5" y="-608" font-family="Helvetica,sans-Serif" font-size="10.00"> &lt; String, InetSocketAddress &gt;</text>
</g>
<!-- Node7 -->
<g id="node7" class="node"><title>Node7</title>
<g id="a_node7"><a xlink:href="interface_data_base.html" target="_top" xlink:title="Database che gestisce gli utenti.">
<polygon fill="white" stroke="black" points="419.5,-469 419.5,-570 505.5,-570 505.5,-469 419.5,-469"/>
<text text-anchor="middle" x="462.5" y="-558" font-family="Helvetica,sans-Serif" font-size="10.00">DataBase</text>
<polyline fill="none" stroke="black" points="419.5,-551 505.5,-551 "/>
<text text-anchor="middle" x="462.5" y="-539" font-family="Helvetica,sans-Serif" font-size="10.00"> </text>
<polyline fill="none" stroke="black" points="419.5,-532 505.5,-532 "/>
<text text-anchor="start" x="427.5" y="-520" font-family="Helvetica,sans-Serif" font-size="10.00">+ checkUser()</text>
<text text-anchor="start" x="427.5" y="-509" font-family="Helvetica,sans-Serif" font-size="10.00">+ getUser()</text>
<text text-anchor="start" x="427.5" y="-498" font-family="Helvetica,sans-Serif" font-size="10.00">+ newUser()</text>
<text text-anchor="start" x="427.5" y="-487" font-family="Helvetica,sans-Serif" font-size="10.00">+ modifyScore()</text>
<text text-anchor="start" x="427.5" y="-476" font-family="Helvetica,sans-Serif" font-size="10.00">+ link()</text>
</a>
</g>
</g>
<!-- Node7&#45;&gt;Node2 -->
<g id="edge6" class="edge"><title>Node7&#45;&gt;Node2</title>
<path fill="none" stroke="#404040" d="M450.84,-468.83C447.13,-453.024 442.865,-434.856 438.559,-416.509"/>
<polygon fill="none" stroke="#404040" points="438.545,-416.45 433.279,-411.523 435.802,-404.768 441.068,-409.695 438.545,-416.45"/>
<text text-anchor="middle" x="451" y="-426" font-family="Helvetica,sans-Serif" font-size="10.00"> &#45;db</text>
</g>
<!-- Node8 -->
<g id="node8" class="node"><title>Node8</title>
<g id="a_node8"><a xlink:href="interface_dictionary.html" target="_top" xlink:title="Interfaccia che definisce un dizionario.">
<polygon fill="white" stroke="black" points="523.5,-474.5 523.5,-564.5 597.5,-564.5 597.5,-474.5 523.5,-474.5"/>
<text text-anchor="middle" x="560.5" y="-552.5" font-family="Helvetica,sans-Serif" font-size="10.00">Dictionary</text>
<polyline fill="none" stroke="black" points="523.5,-545.5 597.5,-545.5 "/>
<text text-anchor="middle" x="560.5" y="-533.5" font-family="Helvetica,sans-Serif" font-size="10.00"> </text>
<polyline fill="none" stroke="black" points="523.5,-526.5 597.5,-526.5 "/>
<text text-anchor="start" x="531.5" y="-514.5" font-family="Helvetica,sans-Serif" font-size="10.00">+ getWord()</text>
<text text-anchor="start" x="531.5" y="-503.5" font-family="Helvetica,sans-Serif" font-size="10.00">+ getWord()</text>
<text text-anchor="start" x="531.5" y="-492.5" font-family="Helvetica,sans-Serif" font-size="10.00">+ getWords()</text>
<text text-anchor="start" x="531.5" y="-481.5" font-family="Helvetica,sans-Serif" font-size="10.00">+ getN()</text>
</a>
</g>
</g>
<!-- Node8&#45;&gt;Node2 -->
<g id="edge7" class="edge"><title>Node8&#45;&gt;Node2</title>
<path fill="none" stroke="#404040" d="M530.084,-474.489C524.889,-466.983 519.542,-459.266 514.5,-452 506.135,-439.946 497.375,-427.34 488.652,-414.798"/>
<polygon fill="none" stroke="#404040" points="488.526,-414.616 481.816,-411.975 481.674,-404.765 488.384,-407.407 488.526,-414.616"/>
<text text-anchor="middle" x="512.5" y="-426" font-family="Helvetica,sans-Serif" font-size="10.00"> &#45;dict</text>
</g>
<!-- Node9 -->
<g id="node9" class="node"><title>Node9</title>
<g id="a_node9"><a xlink:title=" ">
<polygon fill="white" stroke="#bfbfbf" points="615.5,-491 615.5,-548 707.5,-548 707.5,-491 615.5,-491"/>
<text text-anchor="middle" x="661.5" y="-536" font-family="Helvetica,sans-Serif" font-size="10.00">Vector&lt; Integer &gt;</text>
<polyline fill="none" stroke="#bfbfbf" points="615.5,-529 707.5,-529 "/>
<text text-anchor="middle" x="661.5" y="-517" font-family="Helvetica,sans-Serif" font-size="10.00"> </text>
<polyline fill="none" stroke="#bfbfbf" points="615.5,-510 707.5,-510 "/>
<text text-anchor="middle" x="661.5" y="-498" font-family="Helvetica,sans-Serif" font-size="10.00"> </text>
</a>
</g>
</g>
<!-- Node9&#45;&gt;Node2 -->
<g id="edge8" class="edge"><title>Node9&#45;&gt;Node2</title>
<path fill="none" stroke="#404040" d="M643.404,-490.879C633.707,-477.743 620.816,-462.626 606.5,-452 566.032,-421.961 541.262,-435.123 495.774,-405.116"/>
<polygon fill="none" stroke="#404040" points="495.541,-404.951 488.332,-404.755 485.74,-398.026 492.948,-398.221 495.541,-404.951"/>
<text text-anchor="middle" x="598" y="-426" font-family="Helvetica,sans-Serif" font-size="10.00"> &#45;challenges</text>
</g>
<!-- Node10 -->
<g id="node10" class="node"><title>Node10</title>
<g id="a_node10"><a xlink:title=" ">
<polygon fill="white" stroke="#bfbfbf" points="639,-634.5 639,-691.5 684,-691.5 684,-634.5 639,-634.5"/>
<text text-anchor="middle" x="661.5" y="-679.5" font-family="Helvetica,sans-Serif" font-size="10.00">Vector</text>
<polyline fill="none" stroke="#bfbfbf" points="639,-672.5 684,-672.5 "/>
<text text-anchor="middle" x="661.5" y="-660.5" font-family="Helvetica,sans-Serif" font-size="10.00"> </text>
<polyline fill="none" stroke="#bfbfbf" points="639,-653.5 684,-653.5 "/>
<text text-anchor="middle" x="661.5" y="-641.5" font-family="Helvetica,sans-Serif" font-size="10.00"> </text>
</a>
</g>
</g>
<!-- Node10&#45;&gt;Node9 -->
<g id="edge9" class="edge"><title>Node10&#45;&gt;Node9</title>
<path fill="none" stroke="orange" d="M661.5,-624.213C661.5,-600.234 661.5,-569.749 661.5,-548.049"/>
<polygon fill="orange" stroke="orange" points="658,-624.381 661.5,-634.381 665,-624.382 658,-624.381"/>
<text text-anchor="middle" x="687" y="-608" font-family="Helvetica,sans-Serif" font-size="10.00"> &lt; Integer &gt;</text>
</g>
<!-- Node11 -->
<g id="node11" class="node"><title>Node11</title>
<g id="a_node11"><a xlink:title=" ">
<polygon fill="white" stroke="#bfbfbf" points="503.5,-276 503.5,-333 565.5,-333 565.5,-276 503.5,-276"/>
<text text-anchor="middle" x="534.5" y="-321" font-family="Helvetica,sans-Serif" font-size="10.00">ByteBuffer</text>
<polyline fill="none" stroke="#bfbfbf" points="503.5,-314 565.5,-314 "/>
<text text-anchor="middle" x="534.5" y="-302" font-family="Helvetica,sans-Serif" font-size="10.00"> </text>
<polyline fill="none" stroke="#bfbfbf" points="503.5,-295 565.5,-295 "/>
<text text-anchor="middle" x="534.5" y="-283" font-family="Helvetica,sans-Serif" font-size="10.00"> </text>
</a>
</g>
</g>
<!-- Node11&#45;&gt;Node1 -->
<g id="edge10" class="edge"><title>Node11&#45;&gt;Node1</title>
<path fill="none" stroke="#404040" d="M530.637,-275.583C526.946,-248.915 521.181,-207.258 515.912,-169.187"/>
<polygon fill="none" stroke="#404040" points="515.867,-168.862 511.082,-163.467 514.222,-156.975 519.007,-162.37 515.867,-168.862"/>
<text text-anchor="middle" x="528" y="-178" font-family="Helvetica,sans-Serif" font-size="10.00"> &#45;bfs</text>
</g>
</g>
</svg>
