<?xml version="1.0" encoding="UTF-8" standalone="no"?>
<!DOCTYPE svg PUBLIC "-//W3C//DTD SVG 1.1//EN"
 "http://www.w3.org/Graphics/SVG/1.1/DTD/svg11.dtd">
<!-- Generated by graphviz version 2.38.0 (20140413.2041)
 -->
<!-- Title: WQGui.make Pages: 1 -->
<svg width="417pt" height="28pt"
 viewBox="0.00 0.00 417.00 28.00" xmlns="http://www.w3.org/2000/svg" xmlns:xlink="http://www.w3.org/1999/xlink">
<g id="graph0" class="graph" transform="scale(1 1) rotate(0) translate(4 24)">
<title>WQGui.make</title>
<polygon fill="white" stroke="none" points="-4,4 -4,-24 413,-24 413,4 -4,4"/>
<!-- Node1 -->
<g id="node1" class="node"><title>Node1</title>
<g id="a_node1"><a xlink:title="Crea l&#39;interfaccia per la prima volta.">
<polygon fill="#bfbfbf" stroke="black" points="0,-0.5 0,-19.5 76,-19.5 76,-0.5 0,-0.5"/>
<text text-anchor="middle" x="38" y="-7.5" font-family="Helvetica,sans-Serif" font-size="10.00">WQGui.make</text>
</a>
</g>
</g>
<!-- Node2 -->
<g id="node2" class="node"><title>Node2</title>
<g id="a_node2"><a xlink:href="class_word_quizzle_client.html#ab3b513d94019a6b4350aaa6c92c59136" target="_top" xlink:title="Effettua il logout di user.">
<polygon fill="white" stroke="black" points="112,-0.5 112,-19.5 239,-19.5 239,-0.5 112,-0.5"/>
<text text-anchor="middle" x="175.5" y="-7.5" font-family="Helvetica,sans-Serif" font-size="10.00">WordQuizzleClient.logout</text>
</a>
</g>
</g>
<!-- Node1&#45;&gt;Node2 -->
<g id="edge1" class="edge"><title>Node1&#45;&gt;Node2</title>
<path fill="none" stroke="midnightblue" d="M76.026,-10C84.1103,-10 92.935,-10 101.874,-10"/>
<polygon fill="midnightblue" stroke="midnightblue" points="101.98,-13.5001 111.98,-10 101.98,-6.5001 101.98,-13.5001"/>
</g>
<!-- Node3 -->
<g id="node3" class="node"><title>Node3</title>
<g id="a_node3"><a xlink:href="interface_word_quizzle_service.html#a4f3b6b3f8ee7f02e7560de7571de1e07" target="_top" xlink:title="Effettua il logout.">
<polygon fill="white" stroke="black" points="275,-0.5 275,-19.5 409,-19.5 409,-0.5 275,-0.5"/>
<text text-anchor="middle" x="342" y="-7.5" font-family="Helvetica,sans-Serif" font-size="10.00">WordQuizzleService.logout</text>
</a>
</g>
</g>
<!-- Node2&#45;&gt;Node3 -->
<g id="edge2" class="edge"><title>Node2&#45;&gt;Node3</title>
<path fill="none" stroke="midnightblue" d="M239.16,-10C247.578,-10 256.287,-10 264.906,-10"/>
<polygon fill="midnightblue" stroke="midnightblue" points="264.959,-13.5001 274.959,-10 264.959,-6.5001 264.959,-13.5001"/>
</g>
</g>
</svg>
