<?xml version="1.0" encoding="UTF-8" standalone="no"?>
<!DOCTYPE svg PUBLIC "-//W3C//DTD SVG 1.1//EN"
 "http://www.w3.org/Graphics/SVG/1.1/DTD/svg11.dtd">
<!-- Generated by graphviz version 2.38.0 (20140413.2041)
 -->
<!-- Title: WordQuizzle.Challenge.isTerminated Pages: 1 -->
<svg width="530pt" height="83pt"
 viewBox="0.00 0.00 530.00 83.00" xmlns="http://www.w3.org/2000/svg" xmlns:xlink="http://www.w3.org/1999/xlink">
<g id="graph0" class="graph" transform="scale(1 1) rotate(0) translate(4 79)">
<title>WordQuizzle.Challenge.isTerminated</title>
<polygon fill="white" stroke="none" points="-4,4 -4,-79 526,-79 526,4 -4,4"/>
<!-- Node1 -->
<g id="node1" class="node"><title>Node1</title>
<g id="a_node1"><a xlink:title="Verifica se la sfida e&#39; terminata.">
<polygon fill="#bfbfbf" stroke="black" points="0,-22.5 0,-52.5 129,-52.5 129,-22.5 0,-22.5"/>
<text text-anchor="start" x="8" y="-40.5" font-family="Helvetica,sans-Serif" font-size="10.00">WordQuizzle.Challenge.is</text>
<text text-anchor="middle" x="64.5" y="-29.5" font-family="Helvetica,sans-Serif" font-size="10.00">Terminated</text>
</a>
</g>
</g>
<!-- Node2 -->
<g id="node2" class="node"><title>Node2</title>
<g id="a_node2"><a xlink:href="class_word_quizzle_1_1_word_quizzle_server_service.html#ac78bda2a578b3baa0933ca28e4b72e0c" target="_top" xlink:title="Restituisce la durata di una sfida, in millisecondi.">
<polygon fill="white" stroke="black" points="166.5,-44.5 166.5,-74.5 325.5,-74.5 325.5,-44.5 166.5,-44.5"/>
<text text-anchor="start" x="174.5" y="-62.5" font-family="Helvetica,sans-Serif" font-size="10.00">WordQuizzle.WordQuizzleServer</text>
<text text-anchor="middle" x="246" y="-51.5" font-family="Helvetica,sans-Serif" font-size="10.00">Service.getT2</text>
</a>
</g>
</g>
<!-- Node1&#45;&gt;Node2 -->
<g id="edge1" class="edge"><title>Node1&#45;&gt;Node2</title>
<path fill="none" stroke="midnightblue" d="M129.038,-45.2873C137.925,-46.3766 147.189,-47.512 156.436,-48.6453"/>
<polygon fill="midnightblue" stroke="midnightblue" points="156.093,-52.1294 166.444,-49.872 156.944,-45.1814 156.093,-52.1294"/>
</g>
<!-- Node3 -->
<g id="node3" class="node"><title>Node3</title>
<g id="a_node3"><a xlink:href="class_word_quizzle_1_1_player.html#ad49b0929ec96521b65f67f861654bbe6" target="_top" xlink:title="Verifica se l&#39;utente ha terminato la sfida.">
<polygon fill="white" stroke="black" points="165,-6 165,-25 327,-25 327,-6 165,-6"/>
<text text-anchor="middle" x="246" y="-13" font-family="Helvetica,sans-Serif" font-size="10.00">WordQuizzle.Player.isTerminated</text>
</a>
</g>
</g>
<!-- Node1&#45;&gt;Node3 -->
<g id="edge2" class="edge"><title>Node1&#45;&gt;Node3</title>
<path fill="none" stroke="midnightblue" d="M129.038,-29.7127C138.244,-28.5843 147.854,-27.4064 157.431,-26.2326"/>
<polygon fill="midnightblue" stroke="midnightblue" points="157.882,-29.7038 167.381,-25.0131 157.03,-22.7557 157.882,-29.7038"/>
</g>
<!-- Node4 -->
<g id="node4" class="node"><title>Node4</title>
<g id="a_node4"><a xlink:href="class_word_quizzle_1_1_word_quizzle_server_service.html#a970fe0e2dd7457bab2c64ae722a912fc" target="_top" xlink:title="Restituisce il numero di parole per sfida.">
<polygon fill="white" stroke="black" points="363,-0.5 363,-30.5 522,-30.5 522,-0.5 363,-0.5"/>
<text text-anchor="start" x="371" y="-18.5" font-family="Helvetica,sans-Serif" font-size="10.00">WordQuizzle.WordQuizzleServer</text>
<text text-anchor="middle" x="442.5" y="-7.5" font-family="Helvetica,sans-Serif" font-size="10.00">Service.getK</text>
</a>
</g>
</g>
<!-- Node3&#45;&gt;Node4 -->
<g id="edge3" class="edge"><title>Node3&#45;&gt;Node4</title>
<path fill="none" stroke="midnightblue" d="M327.234,-15.5C335.566,-15.5 344.07,-15.5 352.491,-15.5"/>
<polygon fill="midnightblue" stroke="midnightblue" points="352.705,-19.0001 362.705,-15.5 352.705,-12.0001 352.705,-19.0001"/>
</g>
</g>
</svg>
