<?xml version="1.0" encoding="UTF-8" standalone="no"?>
<!DOCTYPE svg PUBLIC "-//W3C//DTD SVG 1.1//EN"
 "http://www.w3.org/Graphics/SVG/1.1/DTD/svg11.dtd">
<!-- Generated by graphviz version 2.38.0 (20140413.2041)
 -->
<!-- Title: Client.run Pages: 1 -->
<svg width="624pt" height="204pt"
 viewBox="0.00 0.00 624.00 203.50" xmlns="http://www.w3.org/2000/svg" xmlns:xlink="http://www.w3.org/1999/xlink">
<g id="graph0" class="graph" transform="scale(1 1) rotate(0) translate(4 199.5)">
<title>Client.run</title>
<polygon fill="white" stroke="none" points="-4,4 -4,-199.5 620,-199.5 620,4 -4,4"/>
<!-- Node1 -->
<g id="node1" class="node"><title>Node1</title>
<g id="a_node1"><a xlink:title=" ">
<polygon fill="#bfbfbf" stroke="black" points="0,-88 0,-107 58,-107 58,-88 0,-88"/>
<text text-anchor="middle" x="29" y="-95" font-family="Helvetica,sans-Serif" font-size="10.00">Client.run</text>
</a>
</g>
</g>
<!-- Node2 -->
<g id="node2" class="node"><title>Node2</title>
<g id="a_node2"><a xlink:href="class_word_quizzle_client.html#a4add1e2c096474b518dea763af7a6573" target="_top" xlink:title=" ">
<polygon fill="white" stroke="black" points="94,-126.5 94,-156.5 227,-156.5 227,-126.5 94,-126.5"/>
<text text-anchor="start" x="102" y="-144.5" font-family="Helvetica,sans-Serif" font-size="10.00">WordQuizzleClient.accetta</text>
<text text-anchor="middle" x="160.5" y="-133.5" font-family="Helvetica,sans-Serif" font-size="10.00">Sfida</text>
</a>
</g>
</g>
<!-- Node1&#45;&gt;Node2 -->
<g id="edge1" class="edge"><title>Node1&#45;&gt;Node2</title>
<path fill="none" stroke="midnightblue" d="M58.0996,-107.047C72.0288,-111.78 89.3322,-117.659 105.679,-123.213"/>
<polygon fill="midnightblue" stroke="midnightblue" points="104.565,-126.531 115.16,-126.435 106.817,-119.904 104.565,-126.531"/>
</g>
<!-- Node5 -->
<g id="node5" class="node"><title>Node5</title>
<g id="a_node5"><a xlink:href="class_word_quizzle_client.html#ab3dfa5eb3dd327ca00e89b9920125e0e" target="_top" xlink:title=" ">
<polygon fill="white" stroke="black" points="100,-88 100,-107 221,-107 221,-88 100,-88"/>
<text text-anchor="middle" x="160.5" y="-95" font-family="Helvetica,sans-Serif" font-size="10.00">WordQuizzleClient.login</text>
</a>
</g>
</g>
<!-- Node1&#45;&gt;Node5 -->
<g id="edge4" class="edge"><title>Node1&#45;&gt;Node5</title>
<path fill="none" stroke="midnightblue" d="M58.0996,-97.5C67.497,-97.5 78.4301,-97.5 89.569,-97.5"/>
<polygon fill="midnightblue" stroke="midnightblue" points="89.8183,-101 99.8183,-97.5 89.8183,-94.0001 89.8183,-101"/>
</g>
<!-- Node7 -->
<g id="node7" class="node"><title>Node7</title>
<g id="a_node7"><a xlink:href="class_word_quizzle_client.html#ab3b513d94019a6b4350aaa6c92c59136" target="_top" xlink:title=" ">
<polygon fill="white" stroke="black" points="97,-50 97,-69 224,-69 224,-50 97,-50"/>
<text text-anchor="middle" x="160.5" y="-57" font-family="Helvetica,sans-Serif" font-size="10.00">WordQuizzleClient.logout</text>
</a>
</g>
</g>
<!-- Node1&#45;&gt;Node7 -->
<g id="edge7" class="edge"><title>Node1&#45;&gt;Node7</title>
<path fill="none" stroke="midnightblue" d="M58.0268,-89.1382C69.2125,-85.8118 82.2113,-81.9596 94,-78.5 101.347,-76.344 109.161,-74.0649 116.738,-71.8625"/>
<polygon fill="midnightblue" stroke="midnightblue" points="117.875,-75.177 126.503,-69.0281 115.923,-68.4545 117.875,-75.177"/>
</g>
<!-- Node9 -->
<g id="node9" class="node"><title>Node9</title>
<g id="a_node9"><a xlink:href="class_word_quizzle_client.html#a516539e0da1d5d54431a7e41cf9339f8" target="_top" xlink:title=" ">
<polygon fill="white" stroke="black" points="94,-0.5 94,-30.5 227,-30.5 227,-0.5 94,-0.5"/>
<text text-anchor="start" x="102" y="-18.5" font-family="Helvetica,sans-Serif" font-size="10.00">WordQuizzleClient.registra</text>
<text text-anchor="middle" x="160.5" y="-7.5" font-family="Helvetica,sans-Serif" font-size="10.00">_utente</text>
</a>
</g>
</g>
<!-- Node1&#45;&gt;Node9 -->
<g id="edge10" class="edge"><title>Node1&#45;&gt;Node9</title>
<path fill="none" stroke="midnightblue" d="M38.6829,-87.8406C50.2605,-75.4465 71.8762,-53.9462 94,-40.5 97.356,-38.4603 100.907,-36.5376 104.549,-34.7349"/>
<polygon fill="midnightblue" stroke="midnightblue" points="106.118,-37.8658 113.736,-30.5024 103.189,-31.5081 106.118,-37.8658"/>
</g>
<!-- Node12 -->
<g id="node12" class="node"><title>Node12</title>
<g id="a_node12"><a xlink:href="class_word_quizzle_client.html#a2532bb6f1399cae0692189e7b1b4fb60" target="_top" xlink:title=" ">
<polygon fill="white" stroke="black" points="100,-176 100,-195 221,-195 221,-176 100,-176"/>
<text text-anchor="middle" x="160.5" y="-183" font-family="Helvetica,sans-Serif" font-size="10.00">WordQuizzleClient.sfida</text>
</a>
</g>
</g>
<!-- Node1&#45;&gt;Node12 -->
<g id="edge13" class="edge"><title>Node1&#45;&gt;Node12</title>
<path fill="none" stroke="midnightblue" d="M36.6693,-107.357C47.1639,-122.127 68.9389,-149.927 94,-165.5 98.0774,-168.034 102.498,-170.266 107.052,-172.228"/>
<polygon fill="midnightblue" stroke="midnightblue" points="105.93,-175.547 116.52,-175.888 108.454,-169.018 105.93,-175.547"/>
</g>
<!-- Node3 -->
<g id="node3" class="node"><title>Node3</title>
<g id="a_node3"><a xlink:href="class_word_quizzle_client_service.html#a4c88f130316580205d2f4f808a78a66c" target="_top" xlink:title=" ">
<polygon fill="white" stroke="black" points="263,-126.5 263,-156.5 427,-156.5 427,-126.5 263,-126.5"/>
<text text-anchor="start" x="271" y="-144.5" font-family="Helvetica,sans-Serif" font-size="10.00">WordQuizzleClientService.accetta</text>
<text text-anchor="middle" x="345" y="-133.5" font-family="Helvetica,sans-Serif" font-size="10.00">Sfida</text>
</a>
</g>
</g>
<!-- Node2&#45;&gt;Node3 -->
<g id="edge2" class="edge"><title>Node2&#45;&gt;Node3</title>
<path fill="none" stroke="midnightblue" d="M227.129,-141.5C235.429,-141.5 244.036,-141.5 252.645,-141.5"/>
<polygon fill="midnightblue" stroke="midnightblue" points="252.733,-145 262.733,-141.5 252.733,-138 252.733,-145"/>
</g>
<!-- Node4 -->
<g id="node4" class="node"><title>Node4</title>
<g id="a_node4"><a xlink:href="class_word_quizzle_client_service.html#a6132feed91596156595e4f36713acade" target="_top" xlink:title=" ">
<polygon fill="white" stroke="black" points="463,-110 463,-129 616,-129 616,-110 463,-110"/>
<text text-anchor="middle" x="539.5" y="-117" font-family="Helvetica,sans-Serif" font-size="10.00">WordQuizzleClientService.send</text>
</a>
</g>
</g>
<!-- Node3&#45;&gt;Node4 -->
<g id="edge3" class="edge"><title>Node3&#45;&gt;Node4</title>
<path fill="none" stroke="midnightblue" d="M427.079,-132.234C435.572,-131.263 444.227,-130.274 452.77,-129.298"/>
<polygon fill="midnightblue" stroke="midnightblue" points="453.193,-132.772 462.731,-128.159 452.398,-125.818 453.193,-132.772"/>
</g>
<!-- Node6 -->
<g id="node6" class="node"><title>Node6</title>
<g id="a_node6"><a xlink:href="class_word_quizzle_client_service.html#a3b4cd4b9507349b2ebd0a219bbf660e8" target="_top" xlink:title=" ">
<polygon fill="white" stroke="black" points="269,-88 269,-107 421,-107 421,-88 269,-88"/>
<text text-anchor="middle" x="345" y="-95" font-family="Helvetica,sans-Serif" font-size="10.00">WordQuizzleClientService.login</text>
</a>
</g>
</g>
<!-- Node5&#45;&gt;Node6 -->
<g id="edge5" class="edge"><title>Node5&#45;&gt;Node6</title>
<path fill="none" stroke="midnightblue" d="M221.005,-97.5C233.07,-97.5 245.981,-97.5 258.736,-97.5"/>
<polygon fill="midnightblue" stroke="midnightblue" points="258.912,-101 268.912,-97.5 258.912,-94.0001 258.912,-101"/>
</g>
<!-- Node6&#45;&gt;Node4 -->
<g id="edge6" class="edge"><title>Node6&#45;&gt;Node4</title>
<path fill="none" stroke="midnightblue" d="M421.253,-106.1C431.641,-107.288 442.373,-108.514 452.931,-109.721"/>
<polygon fill="midnightblue" stroke="midnightblue" points="452.65,-113.211 462.983,-110.87 453.445,-106.257 452.65,-113.211"/>
</g>
<!-- Node8 -->
<g id="node8" class="node"><title>Node8</title>
<g id="a_node8"><a xlink:href="class_word_quizzle_client_service.html#a1c8306a88e1f8755e6b495d8c65658b4" target="_top" xlink:title=" ">
<polygon fill="white" stroke="black" points="266,-50 266,-69 424,-69 424,-50 266,-50"/>
<text text-anchor="middle" x="345" y="-57" font-family="Helvetica,sans-Serif" font-size="10.00">WordQuizzleClientService.logout</text>
</a>
</g>
</g>
<!-- Node7&#45;&gt;Node8 -->
<g id="edge8" class="edge"><title>Node7&#45;&gt;Node8</title>
<path fill="none" stroke="midnightblue" d="M224.051,-59.5C234.216,-59.5 244.91,-59.5 255.554,-59.5"/>
<polygon fill="midnightblue" stroke="midnightblue" points="255.724,-63.0001 265.723,-59.5 255.723,-56.0001 255.724,-63.0001"/>
</g>
<!-- Node8&#45;&gt;Node4 -->
<g id="edge9" class="edge"><title>Node8&#45;&gt;Node4</title>
<path fill="none" stroke="midnightblue" d="M391.245,-69.0848C402.965,-71.8479 415.517,-75.0559 427,-78.5 453.725,-86.5155 483.342,-97.5089 505.33,-106.094"/>
<polygon fill="midnightblue" stroke="midnightblue" points="504.272,-109.439 514.859,-109.85 506.839,-102.927 504.272,-109.439"/>
</g>
<!-- Node10 -->
<g id="node10" class="node"><title>Node10</title>
<g id="a_node10"><a xlink:href="class_word_quizzle_client_service.html#aec5784511e9d3e5e63e500e20a00f57f" target="_top" xlink:title=" ">
<polygon fill="white" stroke="black" points="263,-0.5 263,-30.5 427,-30.5 427,-0.5 263,-0.5"/>
<text text-anchor="start" x="271" y="-18.5" font-family="Helvetica,sans-Serif" font-size="10.00">WordQuizzleClientService.registra</text>
<text text-anchor="middle" x="345" y="-7.5" font-family="Helvetica,sans-Serif" font-size="10.00">_utente</text>
</a>
</g>
</g>
<!-- Node9&#45;&gt;Node10 -->
<g id="edge11" class="edge"><title>Node9&#45;&gt;Node10</title>
<path fill="none" stroke="midnightblue" d="M227.129,-15.5C235.429,-15.5 244.036,-15.5 252.645,-15.5"/>
<polygon fill="midnightblue" stroke="midnightblue" points="252.733,-19.0001 262.733,-15.5 252.733,-12.0001 252.733,-19.0001"/>
</g>
<!-- Node11 -->
<g id="node11" class="node"><title>Node11</title>
<g id="a_node11"><a xlink:href="interface_user_registry.html#a2c7c78d07dd2a2bd50c2b5e3f0ebb185" target="_top" xlink:title=" ">
<polygon fill="white" stroke="black" points="485.5,-0.5 485.5,-30.5 593.5,-30.5 593.5,-0.5 485.5,-0.5"/>
<text text-anchor="start" x="493.5" y="-18.5" font-family="Helvetica,sans-Serif" font-size="10.00">UserRegistry.registra</text>
<text text-anchor="middle" x="539.5" y="-7.5" font-family="Helvetica,sans-Serif" font-size="10.00">_utente</text>
</a>
</g>
</g>
<!-- Node10&#45;&gt;Node11 -->
<g id="edge12" class="edge"><title>Node10&#45;&gt;Node11</title>
<path fill="none" stroke="midnightblue" d="M427.079,-15.5C443.109,-15.5 459.714,-15.5 475.056,-15.5"/>
<polygon fill="midnightblue" stroke="midnightblue" points="475.453,-19.0001 485.453,-15.5 475.453,-12.0001 475.453,-19.0001"/>
</g>
<!-- Node13 -->
<g id="node13" class="node"><title>Node13</title>
<g id="a_node13"><a xlink:href="class_word_quizzle_client_service.html#a470ca573207d4e51fe7ec5d162333234" target="_top" xlink:title=" ">
<polygon fill="white" stroke="black" points="269,-176 269,-195 421,-195 421,-176 269,-176"/>
<text text-anchor="middle" x="345" y="-183" font-family="Helvetica,sans-Serif" font-size="10.00">WordQuizzleClientService.sfida</text>
</a>
</g>
</g>
<!-- Node12&#45;&gt;Node13 -->
<g id="edge14" class="edge"><title>Node12&#45;&gt;Node13</title>
<path fill="none" stroke="midnightblue" d="M221.005,-185.5C233.07,-185.5 245.981,-185.5 258.736,-185.5"/>
<polygon fill="midnightblue" stroke="midnightblue" points="258.912,-189 268.912,-185.5 258.912,-182 258.912,-189"/>
</g>
<!-- Node13&#45;&gt;Node4 -->
<g id="edge15" class="edge"><title>Node13&#45;&gt;Node4</title>
<path fill="none" stroke="midnightblue" d="M389.637,-175.99C401.834,-172.991 415.025,-169.424 427,-165.5 455.254,-156.241 486.467,-143.102 508.665,-133.235"/>
<polygon fill="midnightblue" stroke="midnightblue" points="510.2,-136.383 517.888,-129.093 507.332,-129.997 510.2,-136.383"/>
</g>
</g>
</svg>
