<?xml version="1.0" encoding="UTF-8" standalone="no"?>
<!DOCTYPE svg PUBLIC "-//W3C//DTD SVG 1.1//EN"
 "http://www.w3.org/Graphics/SVG/1.1/DTD/svg11.dtd">
<!-- Generated by graphviz version 2.38.0 (20140413.2041)
 -->
<!-- Title: Challenge.calculate Pages: 1 -->
<svg width="300pt" height="104pt"
 viewBox="0.00 0.00 300.00 104.00" xmlns="http://www.w3.org/2000/svg" xmlns:xlink="http://www.w3.org/1999/xlink">
<g id="graph0" class="graph" transform="scale(1 1) rotate(0) translate(4 100)">
<title>Challenge.calculate</title>
<polygon fill="white" stroke="none" points="-4,4 -4,-100 296,-100 296,4 -4,4"/>
<!-- Node1 -->
<g id="node1" class="node"><title>Node1</title>
<g id="a_node1"><a xlink:title="Calcola le statistiche del giocatore al termine della sfida.">
<polygon fill="#bfbfbf" stroke="black" points="0,-38.5 0,-57.5 101,-57.5 101,-38.5 0,-38.5"/>
<text text-anchor="middle" x="50.5" y="-45.5" font-family="Helvetica,sans-Serif" font-size="10.00">Challenge.calculate</text>
</a>
</g>
</g>
<!-- Node2 -->
<g id="node2" class="node"><title>Node2</title>
<g id="a_node2"><a xlink:href="class_player.html#a70d0d8d7afe9e8bbb1cf095ad482969e" target="_top" xlink:title="Restituisce la lista di risposte del giocatore.">
<polygon fill="white" stroke="black" points="165.5,-76.5 165.5,-95.5 263.5,-95.5 263.5,-76.5 165.5,-76.5"/>
<text text-anchor="middle" x="214.5" y="-83.5" font-family="Helvetica,sans-Serif" font-size="10.00">Player.getAnswers</text>
</a>
</g>
</g>
<!-- Node1&#45;&gt;Node2 -->
<g id="edge1" class="edge"><title>Node1&#45;&gt;Node2</title>
<path fill="none" stroke="midnightblue" d="M92.3794,-57.589C113.853,-62.6261 140.36,-68.8438 163.097,-74.1771"/>
<polygon fill="midnightblue" stroke="midnightblue" points="162.379,-77.6037 172.915,-76.4799 163.978,-70.7887 162.379,-77.6037"/>
</g>
<!-- Node3 -->
<g id="node3" class="node"><title>Node3</title>
<g id="a_node3"><a xlink:href="class_word_quizzle_server_service.html#afda48ba7f7729d1479840b56505ab993" target="_top" xlink:title="Restituisce quanto vale una risposta corretta.">
<polygon fill="white" stroke="black" points="138,-38.5 138,-57.5 291,-57.5 291,-38.5 138,-38.5"/>
<text text-anchor="middle" x="214.5" y="-45.5" font-family="Helvetica,sans-Serif" font-size="10.00">WordQuizzleServerService.getX</text>
</a>
</g>
</g>
<!-- Node1&#45;&gt;Node3 -->
<g id="edge2" class="edge"><title>Node1&#45;&gt;Node3</title>
<path fill="none" stroke="midnightblue" d="M101.427,-48C109.803,-48 118.701,-48 127.679,-48"/>
<polygon fill="midnightblue" stroke="midnightblue" points="127.825,-51.5001 137.825,-48 127.825,-44.5001 127.825,-51.5001"/>
</g>
<!-- Node4 -->
<g id="node4" class="node"><title>Node4</title>
<g id="a_node4"><a xlink:href="class_word_quizzle_server_service.html#af41b281a730f7289188fa385032d80ae" target="_top" xlink:title="Restituisce quanto vale una risposta errata.">
<polygon fill="white" stroke="black" points="137,-0.5 137,-19.5 292,-19.5 292,-0.5 137,-0.5"/>
<text text-anchor="middle" x="214.5" y="-7.5" font-family="Helvetica,sans-Serif" font-size="10.00">WordQuizzleServerService.getY</text>
</a>
</g>
</g>
<!-- Node1&#45;&gt;Node4 -->
<g id="edge3" class="edge"><title>Node1&#45;&gt;Node4</title>
<path fill="none" stroke="midnightblue" d="M92.3794,-38.411C113.853,-33.3739 140.36,-27.1562 163.097,-21.8229"/>
<polygon fill="midnightblue" stroke="midnightblue" points="163.978,-25.2113 172.915,-19.5201 162.379,-18.3963 163.978,-25.2113"/>
</g>
</g>
</svg>
