<?xml version="1.0" encoding="UTF-8" standalone="no"?>
<!DOCTYPE svg PUBLIC "-//W3C//DTD SVG 1.1//EN"
 "http://www.w3.org/Graphics/SVG/1.1/DTD/svg11.dtd">
<!-- Generated by graphviz version 2.38.0 (20140413.2041)
 -->
<!-- Title: UserRegistryService Pages: 1 -->
<svg width="208pt" height="321pt"
 viewBox="0.00 0.00 208.00 321.00" xmlns="http://www.w3.org/2000/svg" xmlns:xlink="http://www.w3.org/1999/xlink">
<g id="graph0" class="graph" transform="scale(1 1) rotate(0) translate(4 317)">
<title>UserRegistryService</title>
<polygon fill="white" stroke="none" points="-4,4 -4,-317 204,-317 204,4 -4,4"/>
<!-- Node1 -->
<g id="node1" class="node"><title>Node1</title>
<g id="a_node1"><a xlink:title=" ">
<polygon fill="#bfbfbf" stroke="black" points="69.5,-0.5 69.5,-68.5 188.5,-68.5 188.5,-0.5 69.5,-0.5"/>
<text text-anchor="middle" x="129" y="-56.5" font-family="Helvetica,sans-Serif" font-size="10.00">UserRegistryService</text>
<polyline fill="none" stroke="black" points="69.5,-49.5 188.5,-49.5 "/>
<text text-anchor="middle" x="129" y="-37.5" font-family="Helvetica,sans-Serif" font-size="10.00"> </text>
<polyline fill="none" stroke="black" points="69.5,-30.5 188.5,-30.5 "/>
<text text-anchor="start" x="77.5" y="-18.5" font-family="Helvetica,sans-Serif" font-size="10.00">+ UserRegistryService()</text>
<text text-anchor="start" x="77.5" y="-7.5" font-family="Helvetica,sans-Serif" font-size="10.00">+ registra_utente()</text>
</a>
</g>
</g>
<!-- Node2 -->
<g id="node2" class="node"><title>Node2</title>
<g id="a_node2"><a xlink:href="interface_user_registry.html" target="_top" xlink:title=" ">
<polygon fill="white" stroke="black" points="0,-138.5 0,-195.5 96,-195.5 96,-138.5 0,-138.5"/>
<text text-anchor="middle" x="48" y="-183.5" font-family="Helvetica,sans-Serif" font-size="10.00">UserRegistry</text>
<polyline fill="none" stroke="black" points="0,-176.5 96,-176.5 "/>
<text text-anchor="middle" x="48" y="-164.5" font-family="Helvetica,sans-Serif" font-size="10.00"> </text>
<polyline fill="none" stroke="black" points="0,-157.5 96,-157.5 "/>
<text text-anchor="start" x="8" y="-145.5" font-family="Helvetica,sans-Serif" font-size="10.00">+ registra_utente()</text>
</a>
</g>
</g>
<!-- Node2&#45;&gt;Node1 -->
<g id="edge1" class="edge"><title>Node2&#45;&gt;Node1</title>
<path fill="none" stroke="midnightblue" d="M70.5948,-129.597C82.4468,-110.502 96.8603,-87.2806 108.403,-68.6838"/>
<polygon fill="none" stroke="midnightblue" points="67.4779,-127.982 65.178,-138.324 73.4254,-131.674 67.4779,-127.982"/>
</g>
<!-- Node3 -->
<g id="node3" class="node"><title>Node3</title>
<g id="a_node3"><a xlink:title=" ">
<polygon fill="white" stroke="#bfbfbf" points="23,-255.5 23,-312.5 73,-312.5 73,-255.5 23,-255.5"/>
<text text-anchor="middle" x="48" y="-300.5" font-family="Helvetica,sans-Serif" font-size="10.00">Remote</text>
<polyline fill="none" stroke="#bfbfbf" points="23,-293.5 73,-293.5 "/>
<text text-anchor="middle" x="48" y="-281.5" font-family="Helvetica,sans-Serif" font-size="10.00"> </text>
<polyline fill="none" stroke="#bfbfbf" points="23,-274.5 73,-274.5 "/>
<text text-anchor="middle" x="48" y="-262.5" font-family="Helvetica,sans-Serif" font-size="10.00"> </text>
</a>
</g>
</g>
<!-- Node3&#45;&gt;Node2 -->
<g id="edge2" class="edge"><title>Node3&#45;&gt;Node2</title>
<path fill="none" stroke="midnightblue" d="M48,-245.244C48,-229.092 48,-210.574 48,-195.719"/>
<polygon fill="none" stroke="midnightblue" points="44.5001,-245.455 48,-255.455 51.5001,-245.455 44.5001,-245.455"/>
</g>
<!-- Node4 -->
<g id="node4" class="node"><title>Node4</title>
<g id="a_node4"><a xlink:href="interface_data_base.html" target="_top" xlink:title="Database che gestisce gli utenti.">
<polygon fill="white" stroke="black" points="114,-116.5 114,-217.5 200,-217.5 200,-116.5 114,-116.5"/>
<text text-anchor="middle" x="157" y="-205.5" font-family="Helvetica,sans-Serif" font-size="10.00">DataBase</text>
<polyline fill="none" stroke="black" points="114,-198.5 200,-198.5 "/>
<text text-anchor="middle" x="157" y="-186.5" font-family="Helvetica,sans-Serif" font-size="10.00"> </text>
<polyline fill="none" stroke="black" points="114,-179.5 200,-179.5 "/>
<text text-anchor="start" x="122" y="-167.5" font-family="Helvetica,sans-Serif" font-size="10.00">+ checkUser()</text>
<text text-anchor="start" x="122" y="-156.5" font-family="Helvetica,sans-Serif" font-size="10.00">+ getUser()</text>
<text text-anchor="start" x="122" y="-145.5" font-family="Helvetica,sans-Serif" font-size="10.00">+ newUser()</text>
<text text-anchor="start" x="122" y="-134.5" font-family="Helvetica,sans-Serif" font-size="10.00">+ modifyScore()</text>
<text text-anchor="start" x="122" y="-123.5" font-family="Helvetica,sans-Serif" font-size="10.00">+ link()</text>
</a>
</g>
</g>
<!-- Node4&#45;&gt;Node1 -->
<g id="edge3" class="edge"><title>Node4&#45;&gt;Node1</title>
<path fill="none" stroke="#404040" d="M146.335,-116.291C143.815,-104.548 141.142,-92.092 138.67,-80.5675"/>
<polygon fill="none" stroke="#404040" points="138.599,-80.2387 133.429,-75.2114 136.082,-68.5058 141.251,-73.5331 138.599,-80.2387"/>
<text text-anchor="middle" x="150.5" y="-90" font-family="Helvetica,sans-Serif" font-size="10.00"> &#45;db</text>
</g>
</g>
</svg>
