<?xml version="1.0" encoding="UTF-8" standalone="no"?>
<!DOCTYPE svg PUBLIC "-//W3C//DTD SVG 1.1//EN"
 "http://www.w3.org/Graphics/SVG/1.1/DTD/svg11.dtd">
<!-- Generated by graphviz version 2.38.0 (20140413.2041)
 -->
<!-- Title: WordQuizzle.Challenge.end Pages: 1 -->
<svg width="549pt" height="411pt"
 viewBox="0.00 0.00 549.00 410.50" xmlns="http://www.w3.org/2000/svg" xmlns:xlink="http://www.w3.org/1999/xlink">
<g id="graph0" class="graph" transform="scale(1 1) rotate(0) translate(4 406.5)">
<title>WordQuizzle.Challenge.end</title>
<polygon fill="white" stroke="none" points="-4,4 -4,-406.5 545,-406.5 545,4 -4,4"/>
<!-- Node1 -->
<g id="node1" class="node"><title>Node1</title>
<g id="a_node1"><a xlink:title="Conclude la sfida.">
<polygon fill="#bfbfbf" stroke="black" points="0,-132 0,-151 137,-151 137,-132 0,-132"/>
<text text-anchor="middle" x="68.5" y="-139" font-family="Helvetica,sans-Serif" font-size="10.00">WordQuizzle.Challenge.end</text>
</a>
</g>
</g>
<!-- Node2 -->
<g id="node2" class="node"><title>Node2</title>
<g id="a_node2"><a xlink:href="class_word_quizzle_1_1_challenge.html#a9ce404012d347dc5a45558eb279e5ba6" target="_top" xlink:title="Calcola le statistiche del giocatore al termine della sfida.">
<polygon fill="white" stroke="black" points="173,-314 173,-333 334,-333 334,-314 173,-314"/>
<text text-anchor="middle" x="253.5" y="-321" font-family="Helvetica,sans-Serif" font-size="10.00">WordQuizzle.Challenge.calculate</text>
</a>
</g>
</g>
<!-- Node1&#45;&gt;Node2 -->
<g id="edge1" class="edge"><title>Node1&#45;&gt;Node2</title>
<path fill="none" stroke="midnightblue" d="M79.0812,-151.029C108.467,-180.254 197.609,-268.909 235.339,-306.433"/>
<polygon fill="midnightblue" stroke="midnightblue" points="233.011,-309.054 242.57,-313.624 237.947,-304.091 233.011,-309.054"/>
</g>
<!-- Node6 -->
<g id="node6" class="node"><title>Node6</title>
<g id="a_node6"><a xlink:href="class_word_quizzle_1_1_challenge.html#a7337a23fcf011c4ea66eb6801d283d49" target="_top" xlink:title="Conclude la sfida inviando ad ogni giocatore un messaggio.">
<polygon fill="white" stroke="black" points="181,-208 181,-227 326,-227 326,-208 181,-208"/>
<text text-anchor="middle" x="253.5" y="-215" font-family="Helvetica,sans-Serif" font-size="10.00">WordQuizzle.Challenge.close</text>
</a>
</g>
</g>
<!-- Node1&#45;&gt;Node6 -->
<g id="edge5" class="edge"><title>Node1&#45;&gt;Node6</title>
<path fill="none" stroke="midnightblue" d="M86.2984,-151.074C106.438,-162.284 141.432,-180.914 173,-193.5 183.561,-197.711 195.159,-201.605 206.154,-204.977"/>
<polygon fill="midnightblue" stroke="midnightblue" points="205.451,-208.42 216.034,-207.922 207.45,-201.712 205.451,-208.42"/>
</g>
<!-- Node8 -->
<g id="node8" class="node"><title>Node8</title>
<g id="a_node8"><a xlink:href="class_word_quizzle_1_1_player.html#a1f8fc44dbae0c22017e5d4e435fa5bc0" target="_top" xlink:title="Restituisce la sessione del giocatore.">
<polygon fill="white" stroke="black" points="378,-170 378,-189 533,-189 533,-170 378,-170"/>
<text text-anchor="middle" x="455.5" y="-177" font-family="Helvetica,sans-Serif" font-size="10.00">WordQuizzle.Player.getSession</text>
</a>
</g>
</g>
<!-- Node1&#45;&gt;Node8 -->
<g id="edge9" class="edge"><title>Node1&#45;&gt;Node8</title>
<path fill="none" stroke="midnightblue" d="M115.181,-151.047C133.134,-154.494 153.966,-158.118 173,-160.5 237.973,-168.629 311.849,-173.45 367.613,-176.2"/>
<polygon fill="midnightblue" stroke="midnightblue" points="367.652,-179.706 377.809,-176.69 367.988,-172.714 367.652,-179.706"/>
</g>
<!-- Node10 -->
<g id="node10" class="node"><title>Node10</title>
<g id="a_node10"><a xlink:href="class_word_quizzle_1_1_session.html#a9674071120402a73f173cd874d740613" target="_top" xlink:title="Restituisce il nome utente corrente della sessione.">
<polygon fill="white" stroke="black" points="179.5,-132 179.5,-151 327.5,-151 327.5,-132 179.5,-132"/>
<text text-anchor="middle" x="253.5" y="-139" font-family="Helvetica,sans-Serif" font-size="10.00">WordQuizzle.Session.getUser</text>
</a>
</g>
</g>
<!-- Node1&#45;&gt;Node10 -->
<g id="edge10" class="edge"><title>Node1&#45;&gt;Node10</title>
<path fill="none" stroke="midnightblue" d="M137.123,-141.5C147.539,-141.5 158.399,-141.5 169.11,-141.5"/>
<polygon fill="midnightblue" stroke="midnightblue" points="169.314,-145 179.314,-141.5 169.314,-138 169.314,-145"/>
</g>
<!-- Node11 -->
<g id="node11" class="node"><title>Node11</title>
<g id="a_node11"><a xlink:href="class_word_quizzle_1_1_word_quizzle_server_service.html#a9aea4ed501ce0cd40cda35021357ad07" target="_top" xlink:title=" ">
<polygon fill="white" stroke="black" points="376,-69.5 376,-99.5 535,-99.5 535,-69.5 376,-69.5"/>
<text text-anchor="start" x="384" y="-87.5" font-family="Helvetica,sans-Serif" font-size="10.00">WordQuizzle.WordQuizzleServer</text>
<text text-anchor="middle" x="455.5" y="-76.5" font-family="Helvetica,sans-Serif" font-size="10.00">Service.getZ</text>
</a>
</g>
</g>
<!-- Node1&#45;&gt;Node11 -->
<g id="edge11" class="edge"><title>Node1&#45;&gt;Node11</title>
<path fill="none" stroke="midnightblue" d="M118.643,-131.986C135.81,-128.794 155.229,-125.329 173,-122.5 237.302,-112.264 310.155,-102.478 365.634,-95.4014"/>
<polygon fill="midnightblue" stroke="midnightblue" points="366.306,-98.8442 375.785,-94.112 365.424,-91.9 366.306,-98.8442"/>
</g>
<!-- Node12 -->
<g id="node12" class="node"><title>Node12</title>
<g id="a_node12"><a xlink:href="interface_word_quizzle_1_1_data_base.html#a9afe6348f6ce2d2abb43a2399da493f7" target="_top" xlink:title="Modifica il punteggio (User.score) di un utente.">
<polygon fill="white" stroke="black" points="178.5,-44.5 178.5,-74.5 328.5,-74.5 328.5,-44.5 178.5,-44.5"/>
<text text-anchor="start" x="186.5" y="-62.5" font-family="Helvetica,sans-Serif" font-size="10.00">WordQuizzle.DataBase.modify</text>
<text text-anchor="middle" x="253.5" y="-51.5" font-family="Helvetica,sans-Serif" font-size="10.00">Score</text>
</a>
</g>
</g>
<!-- Node1&#45;&gt;Node12 -->
<g id="edge12" class="edge"><title>Node1&#45;&gt;Node12</title>
<path fill="none" stroke="midnightblue" d="M87.1786,-131.905C107.57,-121.005 142.244,-102.985 173,-89.5 181.824,-85.6311 191.32,-81.7836 200.571,-78.1985"/>
<polygon fill="midnightblue" stroke="midnightblue" points="201.99,-81.4033 210.085,-74.5674 199.494,-74.8635 201.99,-81.4033"/>
</g>
<!-- Node13 -->
<g id="node13" class="node"><title>Node13</title>
<g id="a_node13"><a xlink:href="class_word_quizzle_1_1_challenge.html#a88b843bf595b590ca87dcc196861a364" target="_top" xlink:title="Genera la stringa contenente le statistiche di un utente.">
<polygon fill="white" stroke="black" points="180.5,-6 180.5,-25 326.5,-25 326.5,-6 180.5,-6"/>
<text text-anchor="middle" x="253.5" y="-13" font-family="Helvetica,sans-Serif" font-size="10.00">WordQuizzle.Challenge.result</text>
</a>
</g>
</g>
<!-- Node1&#45;&gt;Node13 -->
<g id="edge13" class="edge"><title>Node1&#45;&gt;Node13</title>
<path fill="none" stroke="midnightblue" d="M75.9638,-131.738C90.5639,-110.503 128.324,-59.9797 173,-34.5 176.92,-32.2646 181.092,-30.2914 185.394,-28.5497"/>
<polygon fill="midnightblue" stroke="midnightblue" points="186.752,-31.7807 194.971,-25.0948 184.376,-25.1961 186.752,-31.7807"/>
</g>
<!-- Node3 -->
<g id="node3" class="node"><title>Node3</title>
<g id="a_node3"><a xlink:href="class_word_quizzle_1_1_player.html#a990d3fa733cc283004193dbbd7e1c229" target="_top" xlink:title="Restituisce la lista di risposte del giocatore.">
<polygon fill="white" stroke="black" points="376.5,-383 376.5,-402 534.5,-402 534.5,-383 376.5,-383"/>
<text text-anchor="middle" x="455.5" y="-390" font-family="Helvetica,sans-Serif" font-size="10.00">WordQuizzle.Player.getAnswers</text>
</a>
</g>
</g>
<!-- Node2&#45;&gt;Node3 -->
<g id="edge2" class="edge"><title>Node2&#45;&gt;Node3</title>
<path fill="none" stroke="midnightblue" d="M273.688,-333.133C296.262,-344.151 335.096,-362.132 370,-373.5 378.015,-376.111 386.573,-378.489 395.05,-380.612"/>
<polygon fill="midnightblue" stroke="midnightblue" points="394.387,-384.052 404.928,-382.985 396.022,-377.245 394.387,-384.052"/>
</g>
<!-- Node4 -->
<g id="node4" class="node"><title>Node4</title>
<g id="a_node4"><a xlink:href="class_word_quizzle_1_1_word_quizzle_server_service.html#aacb55e983eb8efadf3d6ec8bbc70c0b4" target="_top" xlink:title=" ">
<polygon fill="white" stroke="black" points="376,-333.5 376,-363.5 535,-363.5 535,-333.5 376,-333.5"/>
<text text-anchor="start" x="384" y="-351.5" font-family="Helvetica,sans-Serif" font-size="10.00">WordQuizzle.WordQuizzleServer</text>
<text text-anchor="middle" x="455.5" y="-340.5" font-family="Helvetica,sans-Serif" font-size="10.00">Service.getX</text>
</a>
</g>
</g>
<!-- Node2&#45;&gt;Node4 -->
<g id="edge3" class="edge"><title>Node2&#45;&gt;Node4</title>
<path fill="none" stroke="midnightblue" d="M330.682,-333.023C342.123,-334.453 354.005,-335.938 365.682,-337.398"/>
<polygon fill="midnightblue" stroke="midnightblue" points="365.517,-340.904 375.874,-338.672 366.385,-333.958 365.517,-340.904"/>
</g>
<!-- Node5 -->
<g id="node5" class="node"><title>Node5</title>
<g id="a_node5"><a xlink:href="class_word_quizzle_1_1_word_quizzle_server_service.html#a0c3917de5aa1c3375e99f2e029afa1b7" target="_top" xlink:title=" ">
<polygon fill="white" stroke="black" points="376,-284.5 376,-314.5 535,-314.5 535,-284.5 376,-284.5"/>
<text text-anchor="start" x="384" y="-302.5" font-family="Helvetica,sans-Serif" font-size="10.00">WordQuizzle.WordQuizzleServer</text>
<text text-anchor="middle" x="455.5" y="-291.5" font-family="Helvetica,sans-Serif" font-size="10.00">Service.getY</text>
</a>
</g>
</g>
<!-- Node2&#45;&gt;Node5 -->
<g id="edge4" class="edge"><title>Node2&#45;&gt;Node5</title>
<path fill="none" stroke="midnightblue" d="M333.833,-313.98C344.329,-312.721 355.143,-311.423 365.784,-310.146"/>
<polygon fill="midnightblue" stroke="midnightblue" points="366.405,-313.597 375.917,-308.93 365.571,-306.646 366.405,-313.597"/>
</g>
<!-- Node7 -->
<g id="node7" class="node"><title>Node7</title>
<g id="a_node7"><a xlink:href="class_word_quizzle_1_1_session.html#ac7d5ff28ffd9355eea98b9f66c3c19cd" target="_top" xlink:title="Restituisce la socket del client.">
<polygon fill="white" stroke="black" points="379.5,-246 379.5,-265 531.5,-265 531.5,-246 379.5,-246"/>
<text text-anchor="middle" x="455.5" y="-253" font-family="Helvetica,sans-Serif" font-size="10.00">WordQuizzle.Session.getClient</text>
</a>
</g>
</g>
<!-- Node6&#45;&gt;Node7 -->
<g id="edge6" class="edge"><title>Node6&#45;&gt;Node7</title>
<path fill="none" stroke="midnightblue" d="M304.71,-227.04C331.933,-232.212 365.764,-238.64 394.383,-244.078"/>
<polygon fill="midnightblue" stroke="midnightblue" points="393.791,-247.528 404.269,-245.956 395.098,-240.651 393.791,-247.528"/>
</g>
<!-- Node6&#45;&gt;Node8 -->
<g id="edge7" class="edge"><title>Node6&#45;&gt;Node8</title>
<path fill="none" stroke="midnightblue" d="M304.71,-207.96C331.933,-202.788 365.764,-196.36 394.383,-190.922"/>
<polygon fill="midnightblue" stroke="midnightblue" points="395.098,-194.349 404.269,-189.044 393.791,-187.472 395.098,-194.349"/>
</g>
<!-- Node9 -->
<g id="node9" class="node"><title>Node9</title>
<g id="a_node9"><a xlink:href="class_word_quizzle_1_1_session.html#a26ad2a090660e09b1416cd530fdf1e9a" target="_top" xlink:title="Imposta la risposta da inviare al client.">
<polygon fill="white" stroke="black" points="370,-208 370,-227 541,-227 541,-208 370,-208"/>
<text text-anchor="middle" x="455.5" y="-215" font-family="Helvetica,sans-Serif" font-size="10.00">WordQuizzle.Session.setResponse</text>
</a>
</g>
</g>
<!-- Node6&#45;&gt;Node9 -->
<g id="edge8" class="edge"><title>Node6&#45;&gt;Node9</title>
<path fill="none" stroke="midnightblue" d="M326.14,-217.5C336.952,-217.5 348.247,-217.5 359.459,-217.5"/>
<polygon fill="midnightblue" stroke="midnightblue" points="359.716,-221 369.716,-217.5 359.716,-214 359.716,-221"/>
</g>
<!-- Node13&#45;&gt;Node11 -->
<g id="edge15" class="edge"><title>Node13&#45;&gt;Node11</title>
<path fill="none" stroke="midnightblue" d="M299.833,-25.0208C311.094,-27.7446 323.067,-30.9502 334,-34.5 360.767,-43.1909 389.936,-55.2239 412.871,-65.3074"/>
<polygon fill="midnightblue" stroke="midnightblue" points="411.734,-68.632 422.294,-69.4941 414.577,-62.235 411.734,-68.632"/>
</g>
<!-- Node14 -->
<g id="node14" class="node"><title>Node14</title>
<g id="a_node14"><a xlink:href="class_word_quizzle_1_1_word_quizzle_server_service.html#a970fe0e2dd7457bab2c64ae722a912fc" target="_top" xlink:title=" ">
<polygon fill="white" stroke="black" points="376,-0.5 376,-30.5 535,-30.5 535,-0.5 376,-0.5"/>
<text text-anchor="start" x="384" y="-18.5" font-family="Helvetica,sans-Serif" font-size="10.00">WordQuizzle.WordQuizzleServer</text>
<text text-anchor="middle" x="455.5" y="-7.5" font-family="Helvetica,sans-Serif" font-size="10.00">Service.getK</text>
</a>
</g>
</g>
<!-- Node13&#45;&gt;Node14 -->
<g id="edge14" class="edge"><title>Node13&#45;&gt;Node14</title>
<path fill="none" stroke="midnightblue" d="M326.705,-15.5C339.33,-15.5 352.597,-15.5 365.61,-15.5"/>
<polygon fill="midnightblue" stroke="midnightblue" points="365.975,-19.0001 375.975,-15.5 365.975,-12.0001 365.975,-19.0001"/>
</g>
</g>
</svg>
