<?xml version="1.0" encoding="UTF-8" standalone="no"?>
<!DOCTYPE svg PUBLIC "-//W3C//DTD SVG 1.1//EN"
 "http://www.w3.org/Graphics/SVG/1.1/DTD/svg11.dtd">
<!-- Generated by graphviz version 2.38.0 (20140413.2041)
 -->
<!-- Title: WQCli.aggiungi_amico Pages: 1 -->
<svg width="439pt" height="66pt"
 viewBox="0.00 0.00 439.00 66.00" xmlns="http://www.w3.org/2000/svg" xmlns:xlink="http://www.w3.org/1999/xlink">
<g id="graph0" class="graph" transform="scale(1 1) rotate(0) translate(4 62)">
<title>WQCli.aggiungi_amico</title>
<polygon fill="white" stroke="none" points="-4,4 -4,-62 435,-62 435,4 -4,4"/>
<!-- Node1 -->
<g id="node1" class="node"><title>Node1</title>
<g id="a_node1"><a xlink:title="Restistuisce una stringa contenente informazioni riguardo l&#39;aggiunta di un amico.">
<polygon fill="#bfbfbf" stroke="black" points="315,-19.5 315,-38.5 431,-38.5 431,-19.5 315,-19.5"/>
<text text-anchor="middle" x="373" y="-26.5" font-family="Helvetica,sans-Serif" font-size="10.00">WQCli.aggiungi_amico</text>
</a>
</g>
</g>
<!-- Node2 -->
<g id="node2" class="node"><title>Node2</title>
<g id="a_node2"><a xlink:href="class_w_q_cli.html#a176225dbab1800ff2b4693ea7654b9b0" target="_top" xlink:title="Restistuisce una stringa contenente informazioni riguardo i comandi da utilizzare.">
<polygon fill="white" stroke="black" points="213,-38.5 213,-57.5 279,-57.5 279,-38.5 213,-38.5"/>
<text text-anchor="middle" x="246" y="-45.5" font-family="Helvetica,sans-Serif" font-size="10.00">WQCli.help</text>
</a>
</g>
</g>
<!-- Node1&#45;&gt;Node2 -->
<g id="edge1" class="edge"><title>Node1&#45;&gt;Node2</title>
<path fill="none" stroke="midnightblue" d="M304.927,-39.1952C296.028,-40.5477 287.255,-41.8813 279.332,-43.0856"/>
<polygon fill="midnightblue" stroke="midnightblue" points="305.626,-42.6291 314.987,-37.666 304.574,-35.7086 305.626,-42.6291"/>
</g>
<!-- Node4 -->
<g id="node4" class="node"><title>Node4</title>
<g id="a_node4"><a xlink:href="class_w_q_cli.html#a69d5ad39deabe879509740cc27efb3f3" target="_top" xlink:title="Gestisce le richieste dell&#39;utente.">
<polygon fill="white" stroke="black" points="105,-0.5 105,-19.5 177,-19.5 177,-0.5 105,-0.5"/>
<text text-anchor="middle" x="141" y="-7.5" font-family="Helvetica,sans-Serif" font-size="10.00">WQCli.parse</text>
</a>
</g>
</g>
<!-- Node1&#45;&gt;Node4 -->
<g id="edge5" class="edge"><title>Node1&#45;&gt;Node4</title>
<path fill="none" stroke="midnightblue" d="M304.729,-23.4428C262.901,-19.9875 210.832,-15.6862 177.026,-12.8935"/>
<polygon fill="midnightblue" stroke="midnightblue" points="304.596,-26.9437 314.851,-24.279 305.173,-19.9675 304.596,-26.9437"/>
</g>
<!-- Node3 -->
<g id="node3" class="node"><title>Node3</title>
<g id="a_node3"><a xlink:href="class_w_q_cli.html#a13932f1ea4f257ce081aa524f090b6ee" target="_top" xlink:title="Gestisce l&#39;interazione con l&#39;utente.">
<polygon fill="white" stroke="black" points="0,-19.5 0,-38.5 69,-38.5 69,-19.5 0,-19.5"/>
<text text-anchor="middle" x="34.5" y="-26.5" font-family="Helvetica,sans-Serif" font-size="10.00">WQCli.main</text>
</a>
</g>
</g>
<!-- Node2&#45;&gt;Node3 -->
<g id="edge2" class="edge"><title>Node2&#45;&gt;Node3</title>
<path fill="none" stroke="midnightblue" d="M202.65,-44.1591C163.31,-40.5914 105.494,-35.3479 69.2007,-32.0564"/>
<polygon fill="midnightblue" stroke="midnightblue" points="202.449,-47.6553 212.725,-45.0729 203.082,-40.6839 202.449,-47.6553"/>
</g>
<!-- Node2&#45;&gt;Node4 -->
<g id="edge3" class="edge"><title>Node2&#45;&gt;Node4</title>
<path fill="none" stroke="midnightblue" d="M209.443,-34.882C195.82,-29.8561 180.546,-24.2209 167.983,-19.5859"/>
<polygon fill="midnightblue" stroke="midnightblue" points="208.415,-38.2333 219.009,-38.411 210.838,-31.666 208.415,-38.2333"/>
</g>
<!-- Node4&#45;&gt;Node3 -->
<g id="edge4" class="edge"><title>Node4&#45;&gt;Node3</title>
<path fill="none" stroke="midnightblue" d="M94.9682,-18.1876C86.3434,-19.7557 77.4511,-21.3725 69.2557,-22.8626"/>
<polygon fill="midnightblue" stroke="midnightblue" points="95.6997,-21.6121 104.912,-16.3796 94.4475,-14.725 95.6997,-21.6121"/>
</g>
</g>
</svg>
