<?xml version="1.0" encoding="UTF-8" standalone="no"?>
<!DOCTYPE svg PUBLIC "-//W3C//DTD SVG 1.1//EN"
 "http://www.w3.org/Graphics/SVG/1.1/DTD/svg11.dtd">
<!-- Generated by graphviz version 2.38.0 (20140413.2041)
 -->
<!-- Title: WordQuizzle.Notifier Pages: 1 -->
<!--zoomable 1014 -->
<svg id="main" version="1.1" xmlns="http://www.w3.org/2000/svg" xmlns:xlink="http://www.w3.org/1999/xlink" xml:space="preserve" onload="init(evt)">
<style type="text/css"><![CDATA[
.edge:hover path { stroke: red; }
.edge:hover polygon { stroke: red; fill: red; }
]]></style>
<script type="text/javascript"><![CDATA[
var edges = document.getElementsByTagName('g');
if (edges && edges.length) {
  for (var i=0;i<edges.length;i++) {
    if (edges[i].id.substr(0,4)=='edge') {
      edges[i].setAttribute('class','edge');
    }
  }
}
]]></script>
        <defs>
                <circle id="rim" cx="0" cy="0" r="7"/>
                <circle id="rim2" cx="0" cy="0" r="3.5"/>
                <g id="zoomPlus">
                        <use xlink:href="#rim" fill="#404040">
                                <set attributeName="fill" to="#808080" begin="zoomplus.mouseover" end="zoomplus.mouseout"/>
                        </use>
                        <path d="M-4,0h8M0,-4v8" fill="none" stroke="white" stroke-width="1.5" pointer-events="none"/>
                </g>
                <g id="zoomMin">
                        <use xlink:href="#rim" fill="#404040">
                                <set attributeName="fill" to="#808080" begin="zoomminus.mouseover" end="zoomminus.mouseout"/>
                        </use>
                        <path d="M-4,0h8" fill="none" stroke="white" stroke-width="1.5" pointer-events="none"/>
                </g>
                <g id="dirArrow">
                        <path fill="none" stroke="white" stroke-width="1.5" d="M0,-3.0v7 M-2.5,-0.5L0,-3.0L2.5,-0.5"/>
                </g>
               <g id="resetDef">
                       <use xlink:href="#rim2" fill="#404040">
                               <set attributeName="fill" to="#808080" begin="reset.mouseover" end="reset.mouseout"/>
                       </use>
               </g>
        </defs>

<script type="text/javascript">
var viewWidth = 469;
var viewHeight = 1014;
var sectionId = 'dynsection-1';
</script>
<script xlink:href="svgpan.js"/>
<svg id="graph" class="graph">
<g id="viewport">
<title>WordQuizzle.Notifier</title>
<polygon fill="white" stroke="none" points="-4,4 -4,-1010 465,-1010 465,4 -4,4"/>
<!-- Node1 -->
<g id="node1" class="node"><title>Node1</title>
<g id="a_node1"><a xlink:title=" ">
<polygon fill="#bfbfbf" stroke="black" points="95.5,-0.5 95.5,-68.5 201.5,-68.5 201.5,-0.5 95.5,-0.5"/>
<text text-anchor="middle" x="148.5" y="-56.5" font-family="Helvetica,sans-Serif" font-size="10.00">WordQuizzle.Notifier</text>
<polyline fill="none" stroke="black" points="95.5,-49.5 201.5,-49.5 "/>
<text text-anchor="middle" x="148.5" y="-37.5" font-family="Helvetica,sans-Serif" font-size="10.00"> </text>
<polyline fill="none" stroke="black" points="95.5,-30.5 201.5,-30.5 "/>
<text text-anchor="start" x="103.5" y="-18.5" font-family="Helvetica,sans-Serif" font-size="10.00">+ Notifier()</text>
<text text-anchor="start" x="103.5" y="-7.5" font-family="Helvetica,sans-Serif" font-size="10.00">+ run()</text>
</a>
</g>
</g>
<!-- Node2 -->
<g id="node2" class="node"><title>Node2</title>
<g id="a_node2"><a xlink:title=" ">
<polygon fill="white" stroke="#bfbfbf" points="0,-149.5 0,-206.5 57,-206.5 57,-149.5 0,-149.5"/>
<text text-anchor="middle" x="28.5" y="-194.5" font-family="Helvetica,sans-Serif" font-size="10.00">Runnable</text>
<polyline fill="none" stroke="#bfbfbf" points="0,-187.5 57,-187.5 "/>
<text text-anchor="middle" x="28.5" y="-175.5" font-family="Helvetica,sans-Serif" font-size="10.00"> </text>
<polyline fill="none" stroke="#bfbfbf" points="0,-168.5 57,-168.5 "/>
<text text-anchor="middle" x="28.5" y="-156.5" font-family="Helvetica,sans-Serif" font-size="10.00"> </text>
</a>
</g>
</g>
<!-- Node2&#45;&gt;Node1 -->
<g id="edge1" class="edge"><title>Node2&#45;&gt;Node1</title>
<path fill="none" stroke="midnightblue" d="M49.1003,-140.765C54.4041,-132.37 60.3593,-123.658 66.5,-116 79.8537,-99.3467 96.3698,-82.5513 111.072,-68.6419"/>
<polygon fill="none" stroke="midnightblue" points="46.0835,-138.989 43.8285,-149.342 52.047,-142.655 46.0835,-138.989"/>
</g>
<!-- Node3 -->
<g id="node3" class="node"><title>Node3</title>
<g id="a_node3"><a xlink:title=" ">
<polygon fill="white" stroke="#bfbfbf" points="75.5,-149.5 75.5,-206.5 135.5,-206.5 135.5,-149.5 75.5,-149.5"/>
<text text-anchor="middle" x="105.5" y="-194.5" font-family="Helvetica,sans-Serif" font-size="10.00">JTextArea</text>
<polyline fill="none" stroke="#bfbfbf" points="75.5,-187.5 135.5,-187.5 "/>
<text text-anchor="middle" x="105.5" y="-175.5" font-family="Helvetica,sans-Serif" font-size="10.00"> </text>
<polyline fill="none" stroke="#bfbfbf" points="75.5,-168.5 135.5,-168.5 "/>
<text text-anchor="middle" x="105.5" y="-156.5" font-family="Helvetica,sans-Serif" font-size="10.00"> </text>
</a>
</g>
</g>
<!-- Node3&#45;&gt;Node1 -->
<g id="edge2" class="edge"><title>Node3&#45;&gt;Node1</title>
<path fill="none" stroke="#404040" d="M109.164,-149.352C112.008,-131.301 116.638,-107.388 123.5,-87 124.305,-84.6083 125.196,-82.1845 126.149,-79.7583"/>
<polygon fill="none" stroke="#404040" points="126.244,-79.5361 124.922,-72.447 130.958,-68.5009 132.279,-75.59 126.244,-79.5361"/>
<text text-anchor="middle" x="146.5" y="-90" font-family="Helvetica,sans-Serif" font-size="10.00"> &#45;message</text>
</g>
<!-- Node4 -->
<g id="node4" class="node"><title>Node4</title>
<g id="a_node4"><a xlink:href="class_word_quizzle_1_1_word_quizzle_client.html" target="_top" xlink:title=" ">
<polygon fill="white" stroke="black" points="234,-309.5 234,-509.5 391,-509.5 391,-309.5 234,-309.5"/>
<text text-anchor="middle" x="312.5" y="-497.5" font-family="Helvetica,sans-Serif" font-size="10.00">WordQuizzle.WordQuizzleClient</text>
<polyline fill="none" stroke="black" points="234,-490.5 391,-490.5 "/>
<text text-anchor="start" x="242" y="-478.5" font-family="Helvetica,sans-Serif" font-size="10.00">&#45; user</text>
<polyline fill="none" stroke="black" points="234,-471.5 391,-471.5 "/>
<text text-anchor="start" x="242" y="-459.5" font-family="Helvetica,sans-Serif" font-size="10.00">+ WordQuizzleClient()</text>
<text text-anchor="start" x="242" y="-448.5" font-family="Helvetica,sans-Serif" font-size="10.00">+ getUser()</text>
<text text-anchor="start" x="242" y="-437.5" font-family="Helvetica,sans-Serif" font-size="10.00">+ registra_utente()</text>
<text text-anchor="start" x="242" y="-426.5" font-family="Helvetica,sans-Serif" font-size="10.00">+ login()</text>
<text text-anchor="start" x="242" y="-415.5" font-family="Helvetica,sans-Serif" font-size="10.00">+ logout()</text>
<text text-anchor="start" x="242" y="-404.5" font-family="Helvetica,sans-Serif" font-size="10.00">+ aggiungi_amico()</text>
<text text-anchor="start" x="242" y="-393.5" font-family="Helvetica,sans-Serif" font-size="10.00">+ sfida()</text>
<text text-anchor="start" x="242" y="-382.5" font-family="Helvetica,sans-Serif" font-size="10.00">+ lista_amici()</text>
<text text-anchor="start" x="242" y="-371.5" font-family="Helvetica,sans-Serif" font-size="10.00">+ mostra_punteggio()</text>
<text text-anchor="start" x="242" y="-360.5" font-family="Helvetica,sans-Serif" font-size="10.00">+ mostra_classifica()</text>
<text text-anchor="start" x="242" y="-349.5" font-family="Helvetica,sans-Serif" font-size="10.00">+ controllaRichieste()</text>
<text text-anchor="start" x="242" y="-338.5" font-family="Helvetica,sans-Serif" font-size="10.00">+ controllaRichieste()</text>
<text text-anchor="start" x="242" y="-327.5" font-family="Helvetica,sans-Serif" font-size="10.00">+ accettaSfida()</text>
<text text-anchor="start" x="242" y="-316.5" font-family="Helvetica,sans-Serif" font-size="10.00">+ sendTranslation()</text>
</a>
</g>
</g>
<!-- Node4&#45;&gt;Node1 -->
<g id="edge3" class="edge"><title>Node4&#45;&gt;Node1</title>
<path fill="none" stroke="#404040" d="M319.189,-309.276C318.485,-248.69 308.572,-172.313 270.5,-116 256.026,-94.5919 233.762,-77.4774 212.196,-64.6283"/>
<polygon fill="none" stroke="#404040" points="212.135,-64.5934 204.942,-65.1056 201.702,-58.663 208.895,-58.1508 212.135,-64.5934"/>
<text text-anchor="middle" x="322" y="-175.5" font-family="Helvetica,sans-Serif" font-size="10.00"> &#45;wq</text>
</g>
<!-- Node9 -->
<g id="node9" class="node"><title>Node9</title>
<g id="a_node9"><a xlink:href="class_word_quizzle_1_1_w_q_gui.html" target="_top" xlink:title=" ">
<polygon fill="white" stroke="black" points="153.5,-116.5 153.5,-239.5 261.5,-239.5 261.5,-116.5 153.5,-116.5"/>
<text text-anchor="middle" x="207.5" y="-227.5" font-family="Helvetica,sans-Serif" font-size="10.00">WordQuizzle.WQGui</text>
<polyline fill="none" stroke="black" points="153.5,-220.5 261.5,-220.5 "/>
<text text-anchor="start" x="161.5" y="-208.5" font-family="Helvetica,sans-Serif" font-size="10.00">&#45; index</text>
<text text-anchor="start" x="161.5" y="-197.5" font-family="Helvetica,sans-Serif" font-size="10.00">&#45; isClicked</text>
<polyline fill="none" stroke="black" points="153.5,-190.5 261.5,-190.5 "/>
<text text-anchor="start" x="161.5" y="-178.5" font-family="Helvetica,sans-Serif" font-size="10.00">+ WQGui()</text>
<text text-anchor="start" x="161.5" y="-167.5" font-family="Helvetica,sans-Serif" font-size="10.00">+ game()</text>
<text text-anchor="start" x="161.5" y="-156.5" font-family="Helvetica,sans-Serif" font-size="10.00">+ main()</text>
<text text-anchor="start" x="161.5" y="-145.5" font-family="Helvetica,sans-Serif" font-size="10.00">&#45; makeLogin()</text>
<text text-anchor="start" x="161.5" y="-134.5" font-family="Helvetica,sans-Serif" font-size="10.00">&#45; makeGame()</text>
<text text-anchor="start" x="161.5" y="-123.5" font-family="Helvetica,sans-Serif" font-size="10.00">&#45; make()</text>
</a>
</g>
</g>
<!-- Node4&#45;&gt;Node9 -->
<g id="edge10" class="edge"><title>Node4&#45;&gt;Node9</title>
<path fill="none" stroke="#404040" d="M284.064,-309.3C277.796,-291.849 270.578,-274.123 262.5,-258 261.205,-255.416 259.834,-252.82 258.403,-250.226"/>
<polygon fill="none" stroke="#404040" points="258.26,-249.979 251.785,-246.805 252.225,-239.607 258.7,-242.782 258.26,-249.979"/>
<text text-anchor="middle" x="286" y="-272" font-family="Helvetica,sans-Serif" font-size="10.00"> &#45;wq</text>
</g>
<!-- Node5 -->
<g id="node5" class="node"><title>Node5</title>
<g id="a_node5"><a xlink:href="class_word_quizzle_1_1_word_quizzle_client_service.html" target="_top" xlink:title=" ">
<polygon fill="white" stroke="black" points="234,-557.5 234,-790.5 391,-790.5 391,-557.5 234,-557.5"/>
<text text-anchor="start" x="242" y="-778.5" font-family="Helvetica,sans-Serif" font-size="10.00">WordQuizzle.WordQuizzleClient</text>
<text text-anchor="middle" x="312.5" y="-767.5" font-family="Helvetica,sans-Serif" font-size="10.00">Service</text>
<polyline fill="none" stroke="black" points="234,-760.5 391,-760.5 "/>
<text text-anchor="middle" x="312.5" y="-748.5" font-family="Helvetica,sans-Serif" font-size="10.00"> </text>
<polyline fill="none" stroke="black" points="234,-741.5 391,-741.5 "/>
<text text-anchor="start" x="242" y="-729.5" font-family="Helvetica,sans-Serif" font-size="10.00">+ WordQuizzleClientService()</text>
<text text-anchor="start" x="242" y="-718.5" font-family="Helvetica,sans-Serif" font-size="10.00">+ registra_utente()</text>
<text text-anchor="start" x="242" y="-707.5" font-family="Helvetica,sans-Serif" font-size="10.00">+ login()</text>
<text text-anchor="start" x="242" y="-696.5" font-family="Helvetica,sans-Serif" font-size="10.00">+ login()</text>
<text text-anchor="start" x="242" y="-685.5" font-family="Helvetica,sans-Serif" font-size="10.00">+ logout()</text>
<text text-anchor="start" x="242" y="-674.5" font-family="Helvetica,sans-Serif" font-size="10.00">+ aggiungi_amico()</text>
<text text-anchor="start" x="242" y="-663.5" font-family="Helvetica,sans-Serif" font-size="10.00">+ sfida()</text>
<text text-anchor="start" x="242" y="-652.5" font-family="Helvetica,sans-Serif" font-size="10.00">+ lista_amici()</text>
<text text-anchor="start" x="242" y="-641.5" font-family="Helvetica,sans-Serif" font-size="10.00">+ mostra_punteggio()</text>
<text text-anchor="start" x="242" y="-630.5" font-family="Helvetica,sans-Serif" font-size="10.00">+ mostra_classifica()</text>
<text text-anchor="start" x="242" y="-619.5" font-family="Helvetica,sans-Serif" font-size="10.00">+ controllaRichieste()</text>
<text text-anchor="start" x="242" y="-608.5" font-family="Helvetica,sans-Serif" font-size="10.00">+ accettaSfida()</text>
<text text-anchor="start" x="242" y="-597.5" font-family="Helvetica,sans-Serif" font-size="10.00">+ sendTranslation()</text>
<text text-anchor="start" x="242" y="-586.5" font-family="Helvetica,sans-Serif" font-size="10.00">&#45; write()</text>
<text text-anchor="start" x="242" y="-575.5" font-family="Helvetica,sans-Serif" font-size="10.00">&#45; read()</text>
<text text-anchor="start" x="242" y="-564.5" font-family="Helvetica,sans-Serif" font-size="10.00">&#45; send()</text>
</a>
</g>
</g>
<!-- Node5&#45;&gt;Node4 -->
<g id="edge4" class="edge"><title>Node5&#45;&gt;Node4</title>
<path fill="none" stroke="#404040" d="M312.5,-557.482C312.5,-545.639 312.5,-533.624 312.5,-521.828"/>
<polygon fill="none" stroke="#404040" points="312.5,-521.632 308.5,-515.632 312.5,-509.632 316.5,-515.632 312.5,-521.632"/>
<text text-anchor="middle" x="331" y="-531" font-family="Helvetica,sans-Serif" font-size="10.00"> &#45;service</text>
</g>
<!-- Node6 -->
<g id="node6" class="node"><title>Node6</title>
<g id="a_node6"><a xlink:href="interface_word_quizzle_1_1_word_quizzle_service.html" target="_top" xlink:title=" ">
<polygon fill="white" stroke="black" points="88.5,-838.5 88.5,-1005.5 252.5,-1005.5 252.5,-838.5 88.5,-838.5"/>
<text text-anchor="middle" x="170.5" y="-993.5" font-family="Helvetica,sans-Serif" font-size="10.00">WordQuizzle.WordQuizzleService</text>
<polyline fill="none" stroke="black" points="88.5,-986.5 252.5,-986.5 "/>
<text text-anchor="middle" x="170.5" y="-974.5" font-family="Helvetica,sans-Serif" font-size="10.00"> </text>
<polyline fill="none" stroke="black" points="88.5,-967.5 252.5,-967.5 "/>
<text text-anchor="start" x="96.5" y="-955.5" font-family="Helvetica,sans-Serif" font-size="10.00">+ registra_utente()</text>
<text text-anchor="start" x="96.5" y="-944.5" font-family="Helvetica,sans-Serif" font-size="10.00">+ login()</text>
<text text-anchor="start" x="96.5" y="-933.5" font-family="Helvetica,sans-Serif" font-size="10.00">+ logout()</text>
<text text-anchor="start" x="96.5" y="-922.5" font-family="Helvetica,sans-Serif" font-size="10.00">+ aggiungi_amico()</text>
<text text-anchor="start" x="96.5" y="-911.5" font-family="Helvetica,sans-Serif" font-size="10.00">+ sfida()</text>
<text text-anchor="start" x="96.5" y="-900.5" font-family="Helvetica,sans-Serif" font-size="10.00">+ lista_amici()</text>
<text text-anchor="start" x="96.5" y="-889.5" font-family="Helvetica,sans-Serif" font-size="10.00">+ mostra_punteggio()</text>
<text text-anchor="start" x="96.5" y="-878.5" font-family="Helvetica,sans-Serif" font-size="10.00">+ mostra_classifica()</text>
<text text-anchor="start" x="96.5" y="-867.5" font-family="Helvetica,sans-Serif" font-size="10.00">+ accettaSfida()</text>
<text text-anchor="start" x="96.5" y="-856.5" font-family="Helvetica,sans-Serif" font-size="10.00">+ login()</text>
<text text-anchor="start" x="96.5" y="-845.5" font-family="Helvetica,sans-Serif" font-size="10.00">+ sendTranslation()</text>
</a>
</g>
</g>
<!-- Node6&#45;&gt;Node5 -->
<g id="edge5" class="edge"><title>Node6&#45;&gt;Node5</title>
<path fill="none" stroke="midnightblue" d="M223.218,-829.672C230.566,-816.941 238.196,-803.724 245.76,-790.62"/>
<polygon fill="none" stroke="midnightblue" points="220.147,-827.991 218.179,-838.401 226.21,-831.49 220.147,-827.991"/>
</g>
<!-- Node7 -->
<g id="node7" class="node"><title>Node7</title>
<g id="a_node7"><a xlink:title=" ">
<polygon fill="white" stroke="#bfbfbf" points="271,-893.5 271,-950.5 354,-950.5 354,-893.5 271,-893.5"/>
<text text-anchor="middle" x="312.5" y="-938.5" font-family="Helvetica,sans-Serif" font-size="10.00">SocketChannel</text>
<polyline fill="none" stroke="#bfbfbf" points="271,-931.5 354,-931.5 "/>
<text text-anchor="middle" x="312.5" y="-919.5" font-family="Helvetica,sans-Serif" font-size="10.00"> </text>
<polyline fill="none" stroke="#bfbfbf" points="271,-912.5 354,-912.5 "/>
<text text-anchor="middle" x="312.5" y="-900.5" font-family="Helvetica,sans-Serif" font-size="10.00"> </text>
</a>
</g>
</g>
<!-- Node7&#45;&gt;Node5 -->
<g id="edge6" class="edge"><title>Node7&#45;&gt;Node5</title>
<path fill="none" stroke="#404040" d="M312.5,-893.259C312.5,-870.61 312.5,-836.857 312.5,-802.627"/>
<polygon fill="none" stroke="#404040" points="312.5,-802.516 308.5,-796.516 312.5,-790.516 316.5,-796.516 312.5,-802.516"/>
<text text-anchor="middle" x="330.5" y="-812" font-family="Helvetica,sans-Serif" font-size="10.00"> &#45;socket</text>
</g>
<!-- Node8 -->
<g id="node8" class="node"><title>Node8</title>
<g id="a_node8"><a xlink:title=" ">
<polygon fill="white" stroke="#bfbfbf" points="372,-893.5 372,-950.5 461,-950.5 461,-893.5 372,-893.5"/>
<text text-anchor="middle" x="416.5" y="-938.5" font-family="Helvetica,sans-Serif" font-size="10.00">DatagramSocket</text>
<polyline fill="none" stroke="#bfbfbf" points="372,-931.5 461,-931.5 "/>
<text text-anchor="middle" x="416.5" y="-919.5" font-family="Helvetica,sans-Serif" font-size="10.00"> </text>
<polyline fill="none" stroke="#bfbfbf" points="372,-912.5 461,-912.5 "/>
<text text-anchor="middle" x="416.5" y="-900.5" font-family="Helvetica,sans-Serif" font-size="10.00"> </text>
</a>
</g>
</g>
<!-- Node8&#45;&gt;Node5 -->
<g id="edge7" class="edge"><title>Node8&#45;&gt;Node5</title>
<path fill="none" stroke="#404040" d="M404.772,-893.259C395.113,-870.412 380.678,-836.267 366.077,-801.73"/>
<polygon fill="none" stroke="#404040" points="366.009,-801.569 359.988,-797.6 361.336,-790.516 367.357,-794.485 366.009,-801.569"/>
<text text-anchor="middle" x="381.5" y="-812" font-family="Helvetica,sans-Serif" font-size="10.00"> &#45;udp</text>
</g>
<!-- Node9&#45;&gt;Node1 -->
<g id="edge8" class="edge"><title>Node9&#45;&gt;Node1</title>
<path fill="none" stroke="#404040" d="M182.136,-116.17C177.03,-103.923 171.755,-91.2716 166.939,-79.7227"/>
<polygon fill="none" stroke="#404040" points="166.919,-79.6731 160.917,-75.6746 162.3,-68.5973 168.301,-72.5958 166.919,-79.6731"/>
<text text-anchor="middle" x="184" y="-90" font-family="Helvetica,sans-Serif" font-size="10.00"> &#45;gui</text>
</g>
<!-- Node10 -->
<g id="node10" class="node"><title>Node10</title>
<g id="a_node10"><a xlink:title=" ">
<polygon fill="white" stroke="#bfbfbf" points="95,-381 95,-438 144,-438 144,-381 95,-381"/>
<text text-anchor="middle" x="119.5" y="-426" font-family="Helvetica,sans-Serif" font-size="10.00">JFrame</text>
<polyline fill="none" stroke="#bfbfbf" points="95,-419 144,-419 "/>
<text text-anchor="middle" x="119.5" y="-407" font-family="Helvetica,sans-Serif" font-size="10.00"> </text>
<polyline fill="none" stroke="#bfbfbf" points="95,-400 144,-400 "/>
<text text-anchor="middle" x="119.5" y="-388" font-family="Helvetica,sans-Serif" font-size="10.00"> </text>
</a>
</g>
</g>
<!-- Node10&#45;&gt;Node9 -->
<g id="edge9" class="edge"><title>Node10&#45;&gt;Node9</title>
<path fill="none" stroke="midnightblue" d="M131.608,-371.215C137.861,-352.448 145.784,-329.408 153.5,-309 162.143,-286.14 172.274,-261.303 181.411,-239.522"/>
<polygon fill="none" stroke="midnightblue" points="128.228,-370.285 128.408,-380.879 134.874,-372.485 128.228,-370.285"/>
</g>
<!-- Node11 -->
<g id="node11" class="node"><title>Node11</title>
<g id="a_node11"><a xlink:title=" ">
<polygon fill="white" stroke="#bfbfbf" points="162.5,-381 162.5,-438 208.5,-438 208.5,-381 162.5,-381"/>
<text text-anchor="middle" x="185.5" y="-426" font-family="Helvetica,sans-Serif" font-size="10.00">JPanel</text>
<polyline fill="none" stroke="#bfbfbf" points="162.5,-419 208.5,-419 "/>
<text text-anchor="middle" x="185.5" y="-407" font-family="Helvetica,sans-Serif" font-size="10.00"> </text>
<polyline fill="none" stroke="#bfbfbf" points="162.5,-400 208.5,-400 "/>
<text text-anchor="middle" x="185.5" y="-388" font-family="Helvetica,sans-Serif" font-size="10.00"> </text>
</a>
</g>
</g>
<!-- Node11&#45;&gt;Node9 -->
<g id="edge11" class="edge"><title>Node11&#45;&gt;Node9</title>
<path fill="none" stroke="#404040" d="M183.604,-380.892C182.006,-350.596 180.79,-300.601 186.5,-258 186.791,-255.826 187.124,-253.627 187.492,-251.414"/>
<polygon fill="none" stroke="#404040" points="187.516,-251.289 184.709,-244.646 189.762,-239.501 192.568,-246.144 187.516,-251.289"/>
<text text-anchor="middle" x="224.5" y="-283" font-family="Helvetica,sans-Serif" font-size="10.00"> ~challengePanel</text>
<text text-anchor="middle" x="224.5" y="-272" font-family="Helvetica,sans-Serif" font-size="10.00">~gamePanel</text>
<text text-anchor="middle" x="224.5" y="-261" font-family="Helvetica,sans-Serif" font-size="10.00">&#45;loginPanel</text>
</g>
</g>
</svg>
        <g id="navigator" transform="translate(0 0)" fill="#404254">
                <rect fill="#f2f5e9" fill-opacity="0.5" stroke="#606060" stroke-width=".5" x="0" y="0" width="60" height="60"/>
                <use id="zoomplus" xlink:href="#zoomPlus" x="17" y="9" onmousedown="handleZoom(evt,'in')"/>
                <use id="zoomminus" xlink:href="#zoomMin" x="42" y="9" onmousedown="handleZoom(evt,'out')"/>
                <use id="reset" xlink:href="#resetDef" x="30" y="36" onmousedown="handleReset()"/>
                <g id="arrowUp" xlink:href="#dirArrow" transform="translate(30 24)" onmousedown="handlePan(0,-1)">
                  <use xlink:href="#rim" fill="#404040">
                        <set attributeName="fill" to="#808080" begin="arrowUp.mouseover" end="arrowUp.mouseout"/>
                  </use>
                  <path fill="none" stroke="white" stroke-width="1.5" d="M0,-3.0v7 M-2.5,-0.5L0,-3.0L2.5,-0.5"/>
                </g>
                <g id="arrowRight" xlink:href="#dirArrow" transform="rotate(90) translate(36 -43)" onmousedown="handlePan(1,0)">
                  <use xlink:href="#rim" fill="#404040">
                        <set attributeName="fill" to="#808080" begin="arrowRight.mouseover" end="arrowRight.mouseout"/>
                  </use>
                  <path fill="none" stroke="white" stroke-width="1.5" d="M0,-3.0v7 M-2.5,-0.5L0,-3.0L2.5,-0.5"/>
                </g>
                <g id="arrowDown" xlink:href="#dirArrow" transform="rotate(180) translate(-30 -48)" onmousedown="handlePan(0,1)">
                  <use xlink:href="#rim" fill="#404040">
                        <set attributeName="fill" to="#808080" begin="arrowDown.mouseover" end="arrowDown.mouseout"/>
                  </use>
                  <path fill="none" stroke="white" stroke-width="1.5" d="M0,-3.0v7 M-2.5,-0.5L0,-3.0L2.5,-0.5"/>
                </g>
                <g id="arrowLeft" xlink:href="#dirArrow" transform="rotate(270) translate(-36 17)" onmousedown="handlePan(-1,0)">
                  <use xlink:href="#rim" fill="#404040">
                        <set attributeName="fill" to="#808080" begin="arrowLeft.mouseover" end="arrowLeft.mouseout"/>
                  </use>
                  <path fill="none" stroke="white" stroke-width="1.5" d="M0,-3.0v7 M-2.5,-0.5L0,-3.0L2.5,-0.5"/>
                </g>
        </g>
        <svg viewBox="0 0 15 15" width="100%" height="30px" preserveAspectRatio="xMaxYMin meet">
         <g id="arrow_out" transform="scale(0.3 0.3)">
          <a xlink:href="class_word_quizzle_1_1_notifier__coll__graph_org.svg" target="_base">
           <rect id="button" ry="5" rx="5" y="6" x="6" height="38" width="38"
                fill="#f2f5e9" fill-opacity="0.5" stroke="#606060" stroke-width="1.0"/>
           <path id="arrow"
             d="M 11.500037,31.436501 C 11.940474,20.09759 22.043105,11.32322 32.158766,21.979434 L 37.068811,17.246167 C 37.068811,17.246167 37.088388,32 37.088388,32 L 22.160133,31.978069 C 22.160133,31.978069 26.997745,27.140456 26.997745,27.140456 C 18.528582,18.264221 13.291696,25.230495 11.500037,31.436501 z"
             style="fill:#404040;"/>
          </a>
         </g>
        </svg>
</svg>
