<?xml version="1.0" encoding="UTF-8" standalone="no"?>
<!DOCTYPE svg PUBLIC "-//W3C//DTD SVG 1.1//EN"
 "http://www.w3.org/Graphics/SVG/1.1/DTD/svg11.dtd">
<!-- Generated by graphviz version 2.38.0 (20140413.2041)
 -->
<!-- Title: Client.main Pages: 1 -->
<svg width="725pt" height="204pt"
 viewBox="0.00 0.00 725.00 203.50" xmlns="http://www.w3.org/2000/svg" xmlns:xlink="http://www.w3.org/1999/xlink">
<g id="graph0" class="graph" transform="scale(1 1) rotate(0) translate(4 199.5)">
<title>Client.main</title>
<polygon fill="white" stroke="none" points="-4,4 -4,-199.5 721,-199.5 721,4 -4,4"/>
<!-- Node1 -->
<g id="node1" class="node"><title>Node1</title>
<g id="a_node1"><a xlink:title=" ">
<polygon fill="#bfbfbf" stroke="black" points="0,-88 0,-107 65,-107 65,-88 0,-88"/>
<text text-anchor="middle" x="32.5" y="-95" font-family="Helvetica,sans-Serif" font-size="10.00">Client.main</text>
</a>
</g>
</g>
<!-- Node2 -->
<g id="node2" class="node"><title>Node2</title>
<g id="a_node2"><a xlink:href="class_client.html#a64336c3153afaaf5f45493e9ed206430" target="_top" xlink:title=" ">
<polygon fill="white" stroke="black" points="101,-88 101,-107 159,-107 159,-88 101,-88"/>
<text text-anchor="middle" x="130" y="-95" font-family="Helvetica,sans-Serif" font-size="10.00">Client.run</text>
</a>
</g>
</g>
<!-- Node1&#45;&gt;Node2 -->
<g id="edge1" class="edge"><title>Node1&#45;&gt;Node2</title>
<path fill="none" stroke="midnightblue" d="M65.0349,-97.5C73.2235,-97.5 82.134,-97.5 90.6318,-97.5"/>
<polygon fill="midnightblue" stroke="midnightblue" points="90.7164,-101 100.716,-97.5 90.7163,-94.0001 90.7164,-101"/>
</g>
<!-- Node3 -->
<g id="node3" class="node"><title>Node3</title>
<g id="a_node3"><a xlink:href="class_word_quizzle_client.html#a4add1e2c096474b518dea763af7a6573" target="_top" xlink:title=" ">
<polygon fill="white" stroke="black" points="195,-126.5 195,-156.5 328,-156.5 328,-126.5 195,-126.5"/>
<text text-anchor="start" x="203" y="-144.5" font-family="Helvetica,sans-Serif" font-size="10.00">WordQuizzleClient.accetta</text>
<text text-anchor="middle" x="261.5" y="-133.5" font-family="Helvetica,sans-Serif" font-size="10.00">Sfida</text>
</a>
</g>
</g>
<!-- Node2&#45;&gt;Node3 -->
<g id="edge2" class="edge"><title>Node2&#45;&gt;Node3</title>
<path fill="none" stroke="midnightblue" d="M159.1,-107.047C173.029,-111.78 190.332,-117.659 206.679,-123.213"/>
<polygon fill="midnightblue" stroke="midnightblue" points="205.565,-126.531 216.16,-126.435 207.817,-119.904 205.565,-126.531"/>
</g>
<!-- Node6 -->
<g id="node6" class="node"><title>Node6</title>
<g id="a_node6"><a xlink:href="class_word_quizzle_client.html#ab3dfa5eb3dd327ca00e89b9920125e0e" target="_top" xlink:title=" ">
<polygon fill="white" stroke="black" points="201,-88 201,-107 322,-107 322,-88 201,-88"/>
<text text-anchor="middle" x="261.5" y="-95" font-family="Helvetica,sans-Serif" font-size="10.00">WordQuizzleClient.login</text>
</a>
</g>
</g>
<!-- Node2&#45;&gt;Node6 -->
<g id="edge5" class="edge"><title>Node2&#45;&gt;Node6</title>
<path fill="none" stroke="midnightblue" d="M159.1,-97.5C168.497,-97.5 179.43,-97.5 190.569,-97.5"/>
<polygon fill="midnightblue" stroke="midnightblue" points="190.818,-101 200.818,-97.5 190.818,-94.0001 190.818,-101"/>
</g>
<!-- Node8 -->
<g id="node8" class="node"><title>Node8</title>
<g id="a_node8"><a xlink:href="class_word_quizzle_client.html#ab3b513d94019a6b4350aaa6c92c59136" target="_top" xlink:title=" ">
<polygon fill="white" stroke="black" points="198,-50 198,-69 325,-69 325,-50 198,-50"/>
<text text-anchor="middle" x="261.5" y="-57" font-family="Helvetica,sans-Serif" font-size="10.00">WordQuizzleClient.logout</text>
</a>
</g>
</g>
<!-- Node2&#45;&gt;Node8 -->
<g id="edge8" class="edge"><title>Node2&#45;&gt;Node8</title>
<path fill="none" stroke="midnightblue" d="M159.027,-89.1382C170.213,-85.8118 183.211,-81.9596 195,-78.5 202.347,-76.344 210.161,-74.0649 217.738,-71.8625"/>
<polygon fill="midnightblue" stroke="midnightblue" points="218.875,-75.177 227.503,-69.0281 216.923,-68.4545 218.875,-75.177"/>
</g>
<!-- Node10 -->
<g id="node10" class="node"><title>Node10</title>
<g id="a_node10"><a xlink:href="class_word_quizzle_client.html#a516539e0da1d5d54431a7e41cf9339f8" target="_top" xlink:title=" ">
<polygon fill="white" stroke="black" points="195,-0.5 195,-30.5 328,-30.5 328,-0.5 195,-0.5"/>
<text text-anchor="start" x="203" y="-18.5" font-family="Helvetica,sans-Serif" font-size="10.00">WordQuizzleClient.registra</text>
<text text-anchor="middle" x="261.5" y="-7.5" font-family="Helvetica,sans-Serif" font-size="10.00">_utente</text>
</a>
</g>
</g>
<!-- Node2&#45;&gt;Node10 -->
<g id="edge11" class="edge"><title>Node2&#45;&gt;Node10</title>
<path fill="none" stroke="midnightblue" d="M139.683,-87.8406C151.261,-75.4465 172.876,-53.9462 195,-40.5 198.356,-38.4603 201.907,-36.5376 205.549,-34.7349"/>
<polygon fill="midnightblue" stroke="midnightblue" points="207.118,-37.8658 214.736,-30.5024 204.189,-31.5081 207.118,-37.8658"/>
</g>
<!-- Node13 -->
<g id="node13" class="node"><title>Node13</title>
<g id="a_node13"><a xlink:href="class_word_quizzle_client.html#a2532bb6f1399cae0692189e7b1b4fb60" target="_top" xlink:title=" ">
<polygon fill="white" stroke="black" points="201,-176 201,-195 322,-195 322,-176 201,-176"/>
<text text-anchor="middle" x="261.5" y="-183" font-family="Helvetica,sans-Serif" font-size="10.00">WordQuizzleClient.sfida</text>
</a>
</g>
</g>
<!-- Node2&#45;&gt;Node13 -->
<g id="edge14" class="edge"><title>Node2&#45;&gt;Node13</title>
<path fill="none" stroke="midnightblue" d="M137.669,-107.357C148.164,-122.127 169.939,-149.927 195,-165.5 199.077,-168.034 203.498,-170.266 208.052,-172.228"/>
<polygon fill="midnightblue" stroke="midnightblue" points="206.93,-175.547 217.52,-175.888 209.454,-169.018 206.93,-175.547"/>
</g>
<!-- Node4 -->
<g id="node4" class="node"><title>Node4</title>
<g id="a_node4"><a xlink:href="class_word_quizzle_client_service.html#a4c88f130316580205d2f4f808a78a66c" target="_top" xlink:title=" ">
<polygon fill="white" stroke="black" points="364,-126.5 364,-156.5 528,-156.5 528,-126.5 364,-126.5"/>
<text text-anchor="start" x="372" y="-144.5" font-family="Helvetica,sans-Serif" font-size="10.00">WordQuizzleClientService.accetta</text>
<text text-anchor="middle" x="446" y="-133.5" font-family="Helvetica,sans-Serif" font-size="10.00">Sfida</text>
</a>
</g>
</g>
<!-- Node3&#45;&gt;Node4 -->
<g id="edge3" class="edge"><title>Node3&#45;&gt;Node4</title>
<path fill="none" stroke="midnightblue" d="M328.129,-141.5C336.429,-141.5 345.036,-141.5 353.645,-141.5"/>
<polygon fill="midnightblue" stroke="midnightblue" points="353.733,-145 363.733,-141.5 353.733,-138 353.733,-145"/>
</g>
<!-- Node5 -->
<g id="node5" class="node"><title>Node5</title>
<g id="a_node5"><a xlink:href="class_word_quizzle_client_service.html#a6132feed91596156595e4f36713acade" target="_top" xlink:title=" ">
<polygon fill="white" stroke="black" points="564,-110 564,-129 717,-129 717,-110 564,-110"/>
<text text-anchor="middle" x="640.5" y="-117" font-family="Helvetica,sans-Serif" font-size="10.00">WordQuizzleClientService.send</text>
</a>
</g>
</g>
<!-- Node4&#45;&gt;Node5 -->
<g id="edge4" class="edge"><title>Node4&#45;&gt;Node5</title>
<path fill="none" stroke="midnightblue" d="M528.079,-132.234C536.572,-131.263 545.227,-130.274 553.77,-129.298"/>
<polygon fill="midnightblue" stroke="midnightblue" points="554.193,-132.772 563.731,-128.159 553.398,-125.818 554.193,-132.772"/>
</g>
<!-- Node7 -->
<g id="node7" class="node"><title>Node7</title>
<g id="a_node7"><a xlink:href="class_word_quizzle_client_service.html#a3b4cd4b9507349b2ebd0a219bbf660e8" target="_top" xlink:title=" ">
<polygon fill="white" stroke="black" points="370,-88 370,-107 522,-107 522,-88 370,-88"/>
<text text-anchor="middle" x="446" y="-95" font-family="Helvetica,sans-Serif" font-size="10.00">WordQuizzleClientService.login</text>
</a>
</g>
</g>
<!-- Node6&#45;&gt;Node7 -->
<g id="edge6" class="edge"><title>Node6&#45;&gt;Node7</title>
<path fill="none" stroke="midnightblue" d="M322.005,-97.5C334.07,-97.5 346.981,-97.5 359.736,-97.5"/>
<polygon fill="midnightblue" stroke="midnightblue" points="359.912,-101 369.912,-97.5 359.912,-94.0001 359.912,-101"/>
</g>
<!-- Node7&#45;&gt;Node5 -->
<g id="edge7" class="edge"><title>Node7&#45;&gt;Node5</title>
<path fill="none" stroke="midnightblue" d="M522.253,-106.1C532.641,-107.288 543.373,-108.514 553.931,-109.721"/>
<polygon fill="midnightblue" stroke="midnightblue" points="553.65,-113.211 563.983,-110.87 554.445,-106.257 553.65,-113.211"/>
</g>
<!-- Node9 -->
<g id="node9" class="node"><title>Node9</title>
<g id="a_node9"><a xlink:href="class_word_quizzle_client_service.html#a1c8306a88e1f8755e6b495d8c65658b4" target="_top" xlink:title=" ">
<polygon fill="white" stroke="black" points="367,-50 367,-69 525,-69 525,-50 367,-50"/>
<text text-anchor="middle" x="446" y="-57" font-family="Helvetica,sans-Serif" font-size="10.00">WordQuizzleClientService.logout</text>
</a>
</g>
</g>
<!-- Node8&#45;&gt;Node9 -->
<g id="edge9" class="edge"><title>Node8&#45;&gt;Node9</title>
<path fill="none" stroke="midnightblue" d="M325.051,-59.5C335.216,-59.5 345.91,-59.5 356.554,-59.5"/>
<polygon fill="midnightblue" stroke="midnightblue" points="356.724,-63.0001 366.723,-59.5 356.723,-56.0001 356.724,-63.0001"/>
</g>
<!-- Node9&#45;&gt;Node5 -->
<g id="edge10" class="edge"><title>Node9&#45;&gt;Node5</title>
<path fill="none" stroke="midnightblue" d="M492.245,-69.0848C503.965,-71.8479 516.517,-75.0559 528,-78.5 554.725,-86.5155 584.342,-97.5089 606.33,-106.094"/>
<polygon fill="midnightblue" stroke="midnightblue" points="605.272,-109.439 615.859,-109.85 607.839,-102.927 605.272,-109.439"/>
</g>
<!-- Node11 -->
<g id="node11" class="node"><title>Node11</title>
<g id="a_node11"><a xlink:href="class_word_quizzle_client_service.html#aec5784511e9d3e5e63e500e20a00f57f" target="_top" xlink:title=" ">
<polygon fill="white" stroke="black" points="364,-0.5 364,-30.5 528,-30.5 528,-0.5 364,-0.5"/>
<text text-anchor="start" x="372" y="-18.5" font-family="Helvetica,sans-Serif" font-size="10.00">WordQuizzleClientService.registra</text>
<text text-anchor="middle" x="446" y="-7.5" font-family="Helvetica,sans-Serif" font-size="10.00">_utente</text>
</a>
</g>
</g>
<!-- Node10&#45;&gt;Node11 -->
<g id="edge12" class="edge"><title>Node10&#45;&gt;Node11</title>
<path fill="none" stroke="midnightblue" d="M328.129,-15.5C336.429,-15.5 345.036,-15.5 353.645,-15.5"/>
<polygon fill="midnightblue" stroke="midnightblue" points="353.733,-19.0001 363.733,-15.5 353.733,-12.0001 353.733,-19.0001"/>
</g>
<!-- Node12 -->
<g id="node12" class="node"><title>Node12</title>
<g id="a_node12"><a xlink:href="interface_user_registry.html#a2c7c78d07dd2a2bd50c2b5e3f0ebb185" target="_top" xlink:title=" ">
<polygon fill="white" stroke="black" points="586.5,-0.5 586.5,-30.5 694.5,-30.5 694.5,-0.5 586.5,-0.5"/>
<text text-anchor="start" x="594.5" y="-18.5" font-family="Helvetica,sans-Serif" font-size="10.00">UserRegistry.registra</text>
<text text-anchor="middle" x="640.5" y="-7.5" font-family="Helvetica,sans-Serif" font-size="10.00">_utente</text>
</a>
</g>
</g>
<!-- Node11&#45;&gt;Node12 -->
<g id="edge13" class="edge"><title>Node11&#45;&gt;Node12</title>
<path fill="none" stroke="midnightblue" d="M528.079,-15.5C544.109,-15.5 560.714,-15.5 576.056,-15.5"/>
<polygon fill="midnightblue" stroke="midnightblue" points="576.453,-19.0001 586.453,-15.5 576.453,-12.0001 576.453,-19.0001"/>
</g>
<!-- Node14 -->
<g id="node14" class="node"><title>Node14</title>
<g id="a_node14"><a xlink:href="class_word_quizzle_client_service.html#a470ca573207d4e51fe7ec5d162333234" target="_top" xlink:title=" ">
<polygon fill="white" stroke="black" points="370,-176 370,-195 522,-195 522,-176 370,-176"/>
<text text-anchor="middle" x="446" y="-183" font-family="Helvetica,sans-Serif" font-size="10.00">WordQuizzleClientService.sfida</text>
</a>
</g>
</g>
<!-- Node13&#45;&gt;Node14 -->
<g id="edge15" class="edge"><title>Node13&#45;&gt;Node14</title>
<path fill="none" stroke="midnightblue" d="M322.005,-185.5C334.07,-185.5 346.981,-185.5 359.736,-185.5"/>
<polygon fill="midnightblue" stroke="midnightblue" points="359.912,-189 369.912,-185.5 359.912,-182 359.912,-189"/>
</g>
<!-- Node14&#45;&gt;Node5 -->
<g id="edge16" class="edge"><title>Node14&#45;&gt;Node5</title>
<path fill="none" stroke="midnightblue" d="M490.637,-175.99C502.834,-172.991 516.025,-169.424 528,-165.5 556.254,-156.241 587.467,-143.102 609.665,-133.235"/>
<polygon fill="midnightblue" stroke="midnightblue" points="611.2,-136.383 618.888,-129.093 608.332,-129.997 611.2,-136.383"/>
</g>
</g>
</svg>
