<?xml version="1.0" encoding="UTF-8" standalone="no"?>
<!DOCTYPE svg PUBLIC "-//W3C//DTD SVG 1.1//EN"
 "http://www.w3.org/Graphics/SVG/1.1/DTD/svg11.dtd">
<!-- Generated by graphviz version 2.38.0 (20140413.2041)
 -->
<!-- Title: DataBaseJSON Pages: 1 -->
<svg width="346pt" height="408pt"
 viewBox="0.00 0.00 346.00 408.00" xmlns="http://www.w3.org/2000/svg" xmlns:xlink="http://www.w3.org/1999/xlink">
<g id="graph0" class="graph" transform="scale(1 1) rotate(0) translate(4 404)">
<title>DataBaseJSON</title>
<polygon fill="white" stroke="none" points="-4,4 -4,-404 342,-404 342,4 -4,4"/>
<!-- Node1 -->
<g id="node1" class="node"><title>Node1</title>
<g id="a_node1"><a xlink:title="Database che gestisce gli utenti tramite un file JSON.">
<polygon fill="#bfbfbf" stroke="black" points="183,-0.5 183,-145.5 283,-145.5 283,-0.5 183,-0.5"/>
<text text-anchor="middle" x="233" y="-133.5" font-family="Helvetica,sans-Serif" font-size="10.00">DataBaseJSON</text>
<polyline fill="none" stroke="black" points="183,-126.5 283,-126.5 "/>
<text text-anchor="start" x="191" y="-114.5" font-family="Helvetica,sans-Serif" font-size="10.00">&#45; path</text>
<polyline fill="none" stroke="black" points="183,-107.5 283,-107.5 "/>
<text text-anchor="start" x="191" y="-95.5" font-family="Helvetica,sans-Serif" font-size="10.00">+ DataBaseJSON()</text>
<text text-anchor="start" x="191" y="-84.5" font-family="Helvetica,sans-Serif" font-size="10.00">+ checkUser()</text>
<text text-anchor="start" x="191" y="-73.5" font-family="Helvetica,sans-Serif" font-size="10.00">+ getUser()</text>
<text text-anchor="start" x="191" y="-62.5" font-family="Helvetica,sans-Serif" font-size="10.00">+ newUser()</text>
<text text-anchor="start" x="191" y="-51.5" font-family="Helvetica,sans-Serif" font-size="10.00">+ modifyScore()</text>
<text text-anchor="start" x="191" y="-40.5" font-family="Helvetica,sans-Serif" font-size="10.00">+ link()</text>
<text text-anchor="start" x="191" y="-29.5" font-family="Helvetica,sans-Serif" font-size="10.00">+ toString()</text>
<text text-anchor="start" x="191" y="-18.5" font-family="Helvetica,sans-Serif" font-size="10.00">&#45; writeJSON()</text>
<text text-anchor="start" x="191" y="-7.5" font-family="Helvetica,sans-Serif" font-size="10.00">&#45; readJSON()</text>
</a>
</g>
</g>
<!-- Node2 -->
<g id="node2" class="node"><title>Node2</title>
<g id="a_node2"><a xlink:href="interface_data_base.html" target="_top" xlink:title="Database che gestisce gli utenti.">
<polygon fill="white" stroke="black" points="0,-193.5 0,-294.5 86,-294.5 86,-193.5 0,-193.5"/>
<text text-anchor="middle" x="43" y="-282.5" font-family="Helvetica,sans-Serif" font-size="10.00">DataBase</text>
<polyline fill="none" stroke="black" points="0,-275.5 86,-275.5 "/>
<text text-anchor="middle" x="43" y="-263.5" font-family="Helvetica,sans-Serif" font-size="10.00"> </text>
<polyline fill="none" stroke="black" points="0,-256.5 86,-256.5 "/>
<text text-anchor="start" x="8" y="-244.5" font-family="Helvetica,sans-Serif" font-size="10.00">+ checkUser()</text>
<text text-anchor="start" x="8" y="-233.5" font-family="Helvetica,sans-Serif" font-size="10.00">+ getUser()</text>
<text text-anchor="start" x="8" y="-222.5" font-family="Helvetica,sans-Serif" font-size="10.00">+ newUser()</text>
<text text-anchor="start" x="8" y="-211.5" font-family="Helvetica,sans-Serif" font-size="10.00">+ modifyScore()</text>
<text text-anchor="start" x="8" y="-200.5" font-family="Helvetica,sans-Serif" font-size="10.00">+ link()</text>
</a>
</g>
</g>
<!-- Node2&#45;&gt;Node1 -->
<g id="edge1" class="edge"><title>Node2&#45;&gt;Node1</title>
<path fill="none" stroke="midnightblue" d="M93.6498,-194.232C94.1013,-193.819 94.5515,-193.408 95,-193 123.653,-166.906 156.483,-138.536 182.931,-116.044"/>
<polygon fill="none" stroke="midnightblue" points="91.2105,-191.721 86.245,-201.08 95.9632,-196.86 91.2105,-191.721"/>
</g>
<!-- Node3 -->
<g id="node3" class="node"><title>Node3</title>
<g id="a_node3"><a xlink:title=" ">
<polygon fill="white" stroke="#bfbfbf" points="104,-210 104,-278 224,-278 224,-210 104,-210"/>
<text text-anchor="start" x="112" y="-266" font-family="Helvetica,sans-Serif" font-size="10.00">ConcurrentMap&lt; String,</text>
<text text-anchor="middle" x="164" y="-255" font-family="Helvetica,sans-Serif" font-size="10.00"> User &gt;</text>
<polyline fill="none" stroke="#bfbfbf" points="104,-248 224,-248 "/>
<text text-anchor="middle" x="164" y="-236" font-family="Helvetica,sans-Serif" font-size="10.00"> </text>
<polyline fill="none" stroke="#bfbfbf" points="104,-229 224,-229 "/>
<text text-anchor="middle" x="164" y="-217" font-family="Helvetica,sans-Serif" font-size="10.00"> </text>
</a>
</g>
</g>
<!-- Node3&#45;&gt;Node1 -->
<g id="edge2" class="edge"><title>Node3&#45;&gt;Node1</title>
<path fill="none" stroke="#404040" d="M177.632,-209.611C183.841,-194.404 191.494,-175.659 199.108,-157.011"/>
<polygon fill="none" stroke="#404040" points="199.166,-156.869 197.731,-149.802 203.702,-145.759 205.137,-152.826 199.166,-156.869"/>
<text text-anchor="middle" x="210.5" y="-167" font-family="Helvetica,sans-Serif" font-size="10.00"> &#45;users</text>
</g>
<!-- Node4 -->
<g id="node4" class="node"><title>Node4</title>
<g id="a_node4"><a xlink:title=" ">
<polygon fill="white" stroke="#bfbfbf" points="122.5,-342.5 122.5,-399.5 205.5,-399.5 205.5,-342.5 122.5,-342.5"/>
<text text-anchor="middle" x="164" y="-387.5" font-family="Helvetica,sans-Serif" font-size="10.00">ConcurrentMap</text>
<polyline fill="none" stroke="#bfbfbf" points="122.5,-380.5 205.5,-380.5 "/>
<text text-anchor="middle" x="164" y="-368.5" font-family="Helvetica,sans-Serif" font-size="10.00"> </text>
<polyline fill="none" stroke="#bfbfbf" points="122.5,-361.5 205.5,-361.5 "/>
<text text-anchor="middle" x="164" y="-349.5" font-family="Helvetica,sans-Serif" font-size="10.00"> </text>
</a>
</g>
</g>
<!-- Node4&#45;&gt;Node3 -->
<g id="edge3" class="edge"><title>Node4&#45;&gt;Node3</title>
<path fill="none" stroke="orange" d="M164,-332.051C164,-314.961 164,-294.96 164,-278.441"/>
<polygon fill="orange" stroke="orange" points="160.5,-332.258 164,-342.258 167.5,-332.258 160.5,-332.258"/>
<text text-anchor="middle" x="200.5" y="-316" font-family="Helvetica,sans-Serif" font-size="10.00"> &lt; String, User &gt;</text>
</g>
<!-- Node5 -->
<g id="node5" class="node"><title>Node5</title>
<g id="a_node5"><a xlink:title=" ">
<polygon fill="white" stroke="#bfbfbf" points="242,-215.5 242,-272.5 280,-272.5 280,-215.5 242,-215.5"/>
<text text-anchor="middle" x="261" y="-260.5" font-family="Helvetica,sans-Serif" font-size="10.00">Type</text>
<polyline fill="none" stroke="#bfbfbf" points="242,-253.5 280,-253.5 "/>
<text text-anchor="middle" x="261" y="-241.5" font-family="Helvetica,sans-Serif" font-size="10.00"> </text>
<polyline fill="none" stroke="#bfbfbf" points="242,-234.5 280,-234.5 "/>
<text text-anchor="middle" x="261" y="-222.5" font-family="Helvetica,sans-Serif" font-size="10.00"> </text>
</a>
</g>
</g>
<!-- Node5&#45;&gt;Node1 -->
<g id="edge4" class="edge"><title>Node5&#45;&gt;Node1</title>
<path fill="none" stroke="#404040" d="M256.439,-215.471C253.797,-199.525 250.316,-178.512 246.847,-157.576"/>
<polygon fill="none" stroke="#404040" points="246.831,-157.48 241.904,-152.215 244.87,-145.642 249.797,-150.907 246.831,-157.48"/>
<text text-anchor="middle" x="262.5" y="-167" font-family="Helvetica,sans-Serif" font-size="10.00"> &#45;type</text>
</g>
<!-- Node6 -->
<g id="node6" class="node"><title>Node6</title>
<g id="a_node6"><a xlink:title=" ">
<polygon fill="white" stroke="#bfbfbf" points="298,-215.5 298,-272.5 338,-272.5 338,-215.5 298,-215.5"/>
<text text-anchor="middle" x="318" y="-260.5" font-family="Helvetica,sans-Serif" font-size="10.00">Gson</text>
<polyline fill="none" stroke="#bfbfbf" points="298,-253.5 338,-253.5 "/>
<text text-anchor="middle" x="318" y="-241.5" font-family="Helvetica,sans-Serif" font-size="10.00"> </text>
<polyline fill="none" stroke="#bfbfbf" points="298,-234.5 338,-234.5 "/>
<text text-anchor="middle" x="318" y="-222.5" font-family="Helvetica,sans-Serif" font-size="10.00"> </text>
</a>
</g>
</g>
<!-- Node6&#45;&gt;Node1 -->
<g id="edge5" class="edge"><title>Node6&#45;&gt;Node1</title>
<path fill="none" stroke="#404040" d="M304.377,-215.167C296.93,-200.013 287.514,-180.948 279,-164 277.784,-161.579 276.547,-159.123 275.297,-156.645"/>
<polygon fill="none" stroke="#404040" points="275.165,-156.385 268.888,-152.837 269.748,-145.677 276.026,-149.225 275.165,-156.385"/>
<text text-anchor="middle" x="299" y="-167" font-family="Helvetica,sans-Serif" font-size="10.00"> &#45;gson</text>
</g>
</g>
</svg>
