<?xml version="1.0" encoding="UTF-8" standalone="no"?>
<!DOCTYPE svg PUBLIC "-//W3C//DTD SVG 1.1//EN"
 "http://www.w3.org/Graphics/SVG/1.1/DTD/svg11.dtd">
<!-- Generated by graphviz version 2.38.0 (20140413.2041)
 -->
<!-- Title: WordQuizzle.WordQuizzleServerService.getZ Pages: 1 -->
<svg width="693pt" height="53pt"
 viewBox="0.00 0.00 693.00 52.50" xmlns="http://www.w3.org/2000/svg" xmlns:xlink="http://www.w3.org/1999/xlink">
<g id="graph0" class="graph" transform="scale(1 1) rotate(0) translate(4 48.5)">
<title>WordQuizzle.WordQuizzleServerService.getZ</title>
<polygon fill="white" stroke="none" points="-4,4 -4,-48.5 689,-48.5 689,4 -4,4"/>
<!-- Node1 -->
<g id="node1" class="node"><title>Node1</title>
<g id="a_node1"><a xlink:title="Restituisce il numero di punti aggiuntivi dati al vincitore di una sfida.">
<polygon fill="#bfbfbf" stroke="black" points="526,-14 526,-44 685,-44 685,-14 526,-14"/>
<text text-anchor="start" x="534" y="-32" font-family="Helvetica,sans-Serif" font-size="10.00">WordQuizzle.WordQuizzleServer</text>
<text text-anchor="middle" x="605.5" y="-21" font-family="Helvetica,sans-Serif" font-size="10.00">Service.getZ</text>
</a>
</g>
</g>
<!-- Node2 -->
<g id="node2" class="node"><title>Node2</title>
<g id="a_node2"><a xlink:href="class_word_quizzle_1_1_challenge.html#a872c3c6f72016561647d84843cbbdc48" target="_top" xlink:title="Conclude la sfida.">
<polygon fill="white" stroke="black" points="171,-19.5 171,-38.5 308,-38.5 308,-19.5 171,-19.5"/>
<text text-anchor="middle" x="239.5" y="-26.5" font-family="Helvetica,sans-Serif" font-size="10.00">WordQuizzle.Challenge.end</text>
</a>
</g>
</g>
<!-- Node1&#45;&gt;Node2 -->
<g id="edge1" class="edge"><title>Node1&#45;&gt;Node2</title>
<path fill="none" stroke="midnightblue" d="M515.883,-29C451.889,-29 366.766,-29 308.189,-29"/>
<polygon fill="midnightblue" stroke="midnightblue" points="515.966,-32.5001 525.966,-29 515.966,-25.5001 515.966,-32.5001"/>
</g>
<!-- Node4 -->
<g id="node4" class="node"><title>Node4</title>
<g id="a_node4"><a xlink:href="class_word_quizzle_1_1_challenge.html#a88b843bf595b590ca87dcc196861a364" target="_top" xlink:title="Genera la stringa contenente le statistiche di un utente.">
<polygon fill="white" stroke="black" points="344,-0.5 344,-19.5 490,-19.5 490,-0.5 344,-0.5"/>
<text text-anchor="middle" x="417" y="-7.5" font-family="Helvetica,sans-Serif" font-size="10.00">WordQuizzle.Challenge.result</text>
</a>
</g>
</g>
<!-- Node1&#45;&gt;Node4 -->
<g id="edge3" class="edge"><title>Node1&#45;&gt;Node4</title>
<path fill="none" stroke="midnightblue" d="M515.893,-19.973C507.292,-19.0968 498.638,-18.2152 490.226,-17.3581"/>
<polygon fill="midnightblue" stroke="midnightblue" points="515.644,-23.4657 525.948,-20.9974 516.354,-16.5018 515.644,-23.4657"/>
</g>
<!-- Node3 -->
<g id="node3" class="node"><title>Node3</title>
<g id="a_node3"><a xlink:href="class_word_quizzle_1_1_challenge.html#aa7b93cfc7d1927c0b1c060cc387321b9" target="_top" xlink:title="Gestisce la sfida.">
<polygon fill="white" stroke="black" points="0,-19.5 0,-38.5 135,-38.5 135,-19.5 0,-19.5"/>
<text text-anchor="middle" x="67.5" y="-26.5" font-family="Helvetica,sans-Serif" font-size="10.00">WordQuizzle.Challenge.run</text>
</a>
</g>
</g>
<!-- Node2&#45;&gt;Node3 -->
<g id="edge2" class="edge"><title>Node2&#45;&gt;Node3</title>
<path fill="none" stroke="midnightblue" d="M160.813,-29C152.228,-29 143.543,-29 135.112,-29"/>
<polygon fill="midnightblue" stroke="midnightblue" points="160.823,-32.5001 170.823,-29 160.823,-25.5001 160.823,-32.5001"/>
</g>
<!-- Node4&#45;&gt;Node2 -->
<g id="edge4" class="edge"><title>Node4&#45;&gt;Node2</title>
<path fill="none" stroke="midnightblue" d="M333.814,-18.8977C325.213,-19.8288 316.541,-20.7677 308.129,-21.6784"/>
<polygon fill="midnightblue" stroke="midnightblue" points="334.293,-22.3664 343.858,-17.8103 333.539,-15.407 334.293,-22.3664"/>
</g>
</g>
</svg>
