<?xml version="1.0" encoding="UTF-8" standalone="no"?>
<!DOCTYPE svg PUBLIC "-//W3C//DTD SVG 1.1//EN"
 "http://www.w3.org/Graphics/SVG/1.1/DTD/svg11.dtd">
<!-- Generated by graphviz version 2.38.0 (20140413.2041)
 -->
<!-- Title: WordQuizzle.WordQuizzleServer.run Pages: 1 -->
<svg width="1380pt" height="560pt"
 viewBox="0.00 0.00 1380.00 559.50" xmlns="http://www.w3.org/2000/svg" xmlns:xlink="http://www.w3.org/1999/xlink">
<g id="graph0" class="graph" transform="scale(1 1) rotate(0) translate(4 555.5)">
<title>WordQuizzle.WordQuizzleServer.run</title>
<polygon fill="white" stroke="none" points="-4,4 -4,-555.5 1376,-555.5 1376,4 -4,4"/>
<!-- Node1 -->
<g id="node1" class="node"><title>Node1</title>
<g id="a_node1"><a xlink:title="Gestisce le interazioni con i client.">
<polygon fill="#bfbfbf" stroke="black" points="0,-418 0,-437 176,-437 176,-418 0,-418"/>
<text text-anchor="middle" x="88" y="-425" font-family="Helvetica,sans-Serif" font-size="10.00">WordQuizzle.WordQuizzleServer.run</text>
</a>
</g>
</g>
<!-- Node2 -->
<g id="node2" class="node"><title>Node2</title>
<g id="a_node2"><a xlink:href="class_word_quizzle_1_1_session.html#a17292c458e9474dd97c4ea9566b84cd6" target="_top" xlink:title="Restituisce il ByteBuffer Array della sessione.">
<polygon fill="white" stroke="black" points="226.5,-532 226.5,-551 368.5,-551 368.5,-532 226.5,-532"/>
<text text-anchor="middle" x="297.5" y="-539" font-family="Helvetica,sans-Serif" font-size="10.00">WordQuizzle.Session.getBfs</text>
</a>
</g>
</g>
<!-- Node1&#45;&gt;Node2 -->
<g id="edge1" class="edge"><title>Node1&#45;&gt;Node2</title>
<path fill="none" stroke="midnightblue" d="M99.3434,-437.098C119.503,-455.318 166.11,-495.094 212,-517.5 221.347,-522.064 231.711,-525.899 241.887,-529.07"/>
<polygon fill="midnightblue" stroke="midnightblue" points="240.965,-532.447 251.546,-531.91 242.939,-525.732 240.965,-532.447"/>
</g>
<!-- Node3 -->
<g id="node3" class="node"><title>Node3</title>
<g id="a_node3"><a xlink:href="class_word_quizzle_1_1_session.html#ac7d5ff28ffd9355eea98b9f66c3c19cd" target="_top" xlink:title="Restituisce la socket del client.">
<polygon fill="white" stroke="black" points="1015.5,-316 1015.5,-335 1167.5,-335 1167.5,-316 1015.5,-316"/>
<text text-anchor="middle" x="1091.5" y="-323" font-family="Helvetica,sans-Serif" font-size="10.00">WordQuizzle.Session.getClient</text>
</a>
</g>
</g>
<!-- Node1&#45;&gt;Node3 -->
<g id="edge2" class="edge"><title>Node1&#45;&gt;Node3</title>
<path fill="none" stroke="midnightblue" d="M104.612,-437.033C127.313,-450.347 171.187,-474.052 212,-484.5 333.693,-515.653 368.383,-503.5 494,-503.5 494,-503.5 494,-503.5 687.5,-503.5 813.546,-503.5 859.141,-538.483 970,-478.5 1026.59,-447.878 1065.64,-378.229 1081.95,-344.502"/>
<polygon fill="midnightblue" stroke="midnightblue" points="1085.2,-345.812 1086.28,-335.272 1078.86,-342.841 1085.2,-345.812"/>
</g>
<!-- Node4 -->
<g id="node4" class="node"><title>Node4</title>
<g id="a_node4"><a xlink:href="class_word_quizzle_1_1_session.html#ac7b986c42486afe057019b848fa1025c" target="_top" xlink:title="Restituisce la risposta da inviare al client.">
<polygon fill="white" stroke="black" points="212,-418 212,-437 383,-437 383,-418 212,-418"/>
<text text-anchor="middle" x="297.5" y="-425" font-family="Helvetica,sans-Serif" font-size="10.00">WordQuizzle.Session.getResponse</text>
</a>
</g>
</g>
<!-- Node1&#45;&gt;Node4 -->
<g id="edge3" class="edge"><title>Node1&#45;&gt;Node4</title>
<path fill="none" stroke="midnightblue" d="M176.097,-427.5C184.626,-427.5 193.31,-427.5 201.909,-427.5"/>
<polygon fill="midnightblue" stroke="midnightblue" points="201.95,-431 211.95,-427.5 201.95,-424 201.95,-431"/>
</g>
<!-- Node5 -->
<g id="node5" class="node"><title>Node5</title>
<g id="a_node5"><a xlink:href="class_word_quizzle_1_1_session.html#a9674071120402a73f173cd874d740613" target="_top" xlink:title="Restituisce il nome utente corrente della sessione.">
<polygon fill="white" stroke="black" points="223.5,-380 223.5,-399 371.5,-399 371.5,-380 223.5,-380"/>
<text text-anchor="middle" x="297.5" y="-387" font-family="Helvetica,sans-Serif" font-size="10.00">WordQuizzle.Session.getUser</text>
</a>
</g>
</g>
<!-- Node1&#45;&gt;Node5 -->
<g id="edge4" class="edge"><title>Node1&#45;&gt;Node5</title>
<path fill="none" stroke="midnightblue" d="M141.093,-417.96C169.46,-412.765 204.743,-406.304 234.517,-400.851"/>
<polygon fill="midnightblue" stroke="midnightblue" points="235.179,-404.288 244.385,-399.044 233.918,-397.403 235.179,-404.288"/>
</g>
<!-- Node6 -->
<g id="node6" class="node"><title>Node6</title>
<g id="a_node6"><a xlink:href="class_word_quizzle_1_1_session.html#aa1393315db65680fa9eac88d993d6938" target="_top" xlink:title="Verifica se la sessione e&#39; terminata.">
<polygon fill="white" stroke="black" points="212.5,-342 212.5,-361 382.5,-361 382.5,-342 212.5,-342"/>
<text text-anchor="middle" x="297.5" y="-349" font-family="Helvetica,sans-Serif" font-size="10.00">WordQuizzle.Session.isTerminated</text>
</a>
</g>
</g>
<!-- Node1&#45;&gt;Node6 -->
<g id="edge5" class="edge"><title>Node1&#45;&gt;Node6</title>
<path fill="none" stroke="midnightblue" d="M106.437,-417.972C129.844,-405.522 173.003,-383.752 212,-370.5 219.692,-367.886 227.902,-365.529 236.067,-363.437"/>
<polygon fill="midnightblue" stroke="midnightblue" points="237.085,-366.792 245.968,-361.017 235.423,-359.992 237.085,-366.792"/>
</g>
<!-- Node7 -->
<g id="node7" class="node"><title>Node7</title>
<g id="a_node7"><a xlink:href="class_word_quizzle_1_1_session.html#a002484312c9f9178b1327f7dece00080" target="_top" xlink:title="Crea un nuovo ByteBuffer Array.">
<polygon fill="white" stroke="black" points="224.5,-304 224.5,-323 370.5,-323 370.5,-304 224.5,-304"/>
<text text-anchor="middle" x="297.5" y="-311" font-family="Helvetica,sans-Serif" font-size="10.00">WordQuizzle.Session.newBfs</text>
</a>
</g>
</g>
<!-- Node1&#45;&gt;Node7 -->
<g id="edge6" class="edge"><title>Node1&#45;&gt;Node7</title>
<path fill="none" stroke="midnightblue" d="M98.2155,-417.998C117.465,-398.733 164.14,-354.998 212,-332.5 217.231,-330.041 222.795,-327.893 228.476,-326.016"/>
<polygon fill="midnightblue" stroke="midnightblue" points="229.546,-329.349 238.107,-323.109 227.523,-322.648 229.546,-329.349"/>
</g>
<!-- Node8 -->
<g id="node8" class="node"><title>Node8</title>
<g id="a_node8"><a xlink:href="class_word_quizzle_1_1_session.html#a6793f02ea7cab6fffe0361893cf40178" target="_top" xlink:title="Riceve una stringa contenente uan richiesta da parte del client e la gestisce.">
<polygon fill="white" stroke="black" points="228.5,-456 228.5,-475 366.5,-475 366.5,-456 228.5,-456"/>
<text text-anchor="middle" x="297.5" y="-463" font-family="Helvetica,sans-Serif" font-size="10.00">WordQuizzle.Session.parse</text>
</a>
</g>
</g>
<!-- Node1&#45;&gt;Node8 -->
<g id="edge7" class="edge"><title>Node1&#45;&gt;Node8</title>
<path fill="none" stroke="midnightblue" d="M141.093,-437.04C169.46,-442.235 204.743,-448.696 234.517,-454.149"/>
<polygon fill="midnightblue" stroke="midnightblue" points="233.918,-457.597 244.385,-455.956 235.179,-450.712 233.918,-457.597"/>
</g>
<!-- Node9 -->
<g id="node9" class="node"><title>Node9</title>
<g id="a_node9"><a xlink:href="class_word_quizzle_1_1_session.html#a21992c338367b1a3c2e57fdb7cae3018" target="_top" xlink:title="Gestisce effettivamente la richiesta del client.">
<polygon fill="white" stroke="black" points="419,-303 419,-322 571,-322 571,-303 419,-303"/>
<text text-anchor="middle" x="495" y="-310" font-family="Helvetica,sans-Serif" font-size="10.00">WordQuizzle.Session.compute</text>
</a>
</g>
</g>
<!-- Node8&#45;&gt;Node9 -->
<g id="edge8" class="edge"><title>Node8&#45;&gt;Node9</title>
<path fill="none" stroke="midnightblue" d="M362.578,-455.877C369.747,-453.425 376.719,-450.352 383,-446.5 430.662,-417.272 467.425,-360.267 484.137,-330.926"/>
<polygon fill="midnightblue" stroke="midnightblue" points="487.233,-332.558 489.022,-322.115 481.112,-329.163 487.233,-332.558"/>
</g>
<!-- Node10 -->
<g id="node10" class="node"><title>Node10</title>
<g id="a_node10"><a xlink:href="class_word_quizzle_1_1_word_quizzle_server_service.html#aebc8c566d10a0d24752a33f146f03a2a" target="_top" xlink:title=" ">
<polygon fill="white" stroke="black" points="607,-101.5 607,-131.5 766,-131.5 766,-101.5 607,-101.5"/>
<text text-anchor="start" x="615" y="-119.5" font-family="Helvetica,sans-Serif" font-size="10.00">WordQuizzle.WordQuizzleServer</text>
<text text-anchor="middle" x="686.5" y="-108.5" font-family="Helvetica,sans-Serif" font-size="10.00">Service.accettaSfida</text>
</a>
</g>
</g>
<!-- Node9&#45;&gt;Node10 -->
<g id="edge9" class="edge"><title>Node9&#45;&gt;Node10</title>
<path fill="none" stroke="midnightblue" d="M499.538,-302.616C510.562,-273.242 547.176,-185.715 607,-140.5 608.847,-139.104 610.777,-137.788 612.77,-136.548"/>
<polygon fill="midnightblue" stroke="midnightblue" points="614.763,-139.448 621.863,-131.584 611.409,-133.304 614.763,-139.448"/>
</g>
<!-- Node21 -->
<g id="node21" class="node"><title>Node21</title>
<g id="a_node21"><a xlink:href="class_word_quizzle_1_1_word_quizzle_server_service.html#a1f28542d2118fba0a19061d5acf603ec" target="_top" xlink:title=" ">
<polygon fill="white" stroke="black" points="607,-444.5 607,-474.5 766,-474.5 766,-444.5 607,-444.5"/>
<text text-anchor="start" x="615" y="-462.5" font-family="Helvetica,sans-Serif" font-size="10.00">WordQuizzle.WordQuizzleServer</text>
<text text-anchor="middle" x="686.5" y="-451.5" font-family="Helvetica,sans-Serif" font-size="10.00">Service.aggiungi_amico</text>
</a>
</g>
</g>
<!-- Node9&#45;&gt;Node21 -->
<g id="edge21" class="edge"><title>Node9&#45;&gt;Node21</title>
<path fill="none" stroke="midnightblue" d="M501.968,-322.102C516.805,-345.179 557.736,-404.154 607,-435.5 609.621,-437.168 612.364,-438.725 615.191,-440.179"/>
<polygon fill="midnightblue" stroke="midnightblue" points="613.907,-443.442 624.451,-444.48 616.856,-437.093 613.907,-443.442"/>
</g>
<!-- Node23 -->
<g id="node23" class="node"><title>Node23</title>
<g id="a_node23"><a xlink:href="class_word_quizzle_1_1_word_quizzle_server_service.html#a198417a123b189dd75e88d3e969cd11d" target="_top" xlink:title=" ">
<polygon fill="white" stroke="black" points="607,-297.5 607,-327.5 766,-327.5 766,-297.5 607,-297.5"/>
<text text-anchor="start" x="615" y="-315.5" font-family="Helvetica,sans-Serif" font-size="10.00">WordQuizzle.WordQuizzleServer</text>
<text text-anchor="middle" x="686.5" y="-304.5" font-family="Helvetica,sans-Serif" font-size="10.00">Service.lista_amici</text>
</a>
</g>
</g>
<!-- Node9&#45;&gt;Node23 -->
<g id="edge24" class="edge"><title>Node9&#45;&gt;Node23</title>
<path fill="none" stroke="midnightblue" d="M571.168,-312.5C579.469,-312.5 587.98,-312.5 596.431,-312.5"/>
<polygon fill="midnightblue" stroke="midnightblue" points="596.691,-316 606.691,-312.5 596.691,-309 596.691,-316"/>
</g>
<!-- Node25 -->
<g id="node25" class="node"><title>Node25</title>
<g id="a_node25"><a xlink:href="class_word_quizzle_1_1_word_quizzle_server_service.html#a4f338d0b1c7bbf662fc0e40844cf5c33" target="_top" xlink:title=" ">
<polygon fill="white" stroke="black" points="607,-395.5 607,-425.5 766,-425.5 766,-395.5 607,-395.5"/>
<text text-anchor="start" x="615" y="-413.5" font-family="Helvetica,sans-Serif" font-size="10.00">WordQuizzle.WordQuizzleServer</text>
<text text-anchor="middle" x="686.5" y="-402.5" font-family="Helvetica,sans-Serif" font-size="10.00">Service.login</text>
</a>
</g>
</g>
<!-- Node9&#45;&gt;Node25 -->
<g id="edge28" class="edge"><title>Node9&#45;&gt;Node25</title>
<path fill="none" stroke="midnightblue" d="M507.943,-322.186C527.553,-337.681 568.277,-368.158 607,-386.5 611.021,-388.404 615.228,-390.201 619.517,-391.889"/>
<polygon fill="midnightblue" stroke="midnightblue" points="618.403,-395.208 628.996,-395.406 620.838,-388.646 618.403,-395.208"/>
</g>
<!-- Node28 -->
<g id="node28" class="node"><title>Node28</title>
<g id="a_node28"><a xlink:href="class_word_quizzle_1_1_word_quizzle_server_service.html#ac79f01637184c2916b5381056f5d36e7" target="_top" xlink:title=" ">
<polygon fill="white" stroke="black" points="607,-346.5 607,-376.5 766,-376.5 766,-346.5 607,-346.5"/>
<text text-anchor="start" x="615" y="-364.5" font-family="Helvetica,sans-Serif" font-size="10.00">WordQuizzle.WordQuizzleServer</text>
<text text-anchor="middle" x="686.5" y="-353.5" font-family="Helvetica,sans-Serif" font-size="10.00">Service.logout</text>
</a>
</g>
</g>
<!-- Node9&#45;&gt;Node28 -->
<g id="edge33" class="edge"><title>Node9&#45;&gt;Node28</title>
<path fill="none" stroke="midnightblue" d="M532.987,-322.064C556.979,-328.268 588.96,-336.537 617.438,-343.901"/>
<polygon fill="midnightblue" stroke="midnightblue" points="616.789,-347.348 627.347,-346.463 618.541,-340.571 616.789,-347.348"/>
</g>
<!-- Node29 -->
<g id="node29" class="node"><title>Node29</title>
<g id="a_node29"><a xlink:href="class_word_quizzle_1_1_word_quizzle_server_service.html#ad212848f8436aaf885c017463458d2f4" target="_top" xlink:title=" ">
<polygon fill="white" stroke="black" points="607,-248.5 607,-278.5 766,-278.5 766,-248.5 607,-248.5"/>
<text text-anchor="start" x="615" y="-266.5" font-family="Helvetica,sans-Serif" font-size="10.00">WordQuizzle.WordQuizzleServer</text>
<text text-anchor="middle" x="686.5" y="-255.5" font-family="Helvetica,sans-Serif" font-size="10.00">Service.mostra_classifica</text>
</a>
</g>
</g>
<!-- Node9&#45;&gt;Node29 -->
<g id="edge34" class="edge"><title>Node9&#45;&gt;Node29</title>
<path fill="none" stroke="midnightblue" d="M532.987,-302.936C556.979,-296.732 588.96,-288.463 617.438,-281.099"/>
<polygon fill="midnightblue" stroke="midnightblue" points="618.541,-284.429 627.347,-278.537 616.789,-277.652 618.541,-284.429"/>
</g>
<!-- Node31 -->
<g id="node31" class="node"><title>Node31</title>
<g id="a_node31"><a xlink:href="class_word_quizzle_1_1_word_quizzle_server_service.html#a45a270251f3ca3e1595ceddf56fbe041" target="_top" xlink:title=" ">
<polygon fill="white" stroke="black" points="607,-199.5 607,-229.5 766,-229.5 766,-199.5 607,-199.5"/>
<text text-anchor="start" x="615" y="-217.5" font-family="Helvetica,sans-Serif" font-size="10.00">WordQuizzle.WordQuizzleServer</text>
<text text-anchor="middle" x="686.5" y="-206.5" font-family="Helvetica,sans-Serif" font-size="10.00">Service.mostra_punteggio</text>
</a>
</g>
</g>
<!-- Node9&#45;&gt;Node31 -->
<g id="edge39" class="edge"><title>Node9&#45;&gt;Node31</title>
<path fill="none" stroke="midnightblue" d="M508.312,-302.76C528.11,-287.488 568.694,-257.769 607,-239.5 611.841,-237.191 616.948,-235.022 622.14,-233.002"/>
<polygon fill="midnightblue" stroke="midnightblue" points="623.371,-236.278 631.537,-229.527 620.943,-229.713 623.371,-236.278"/>
</g>
<!-- Node32 -->
<g id="node32" class="node"><title>Node32</title>
<g id="a_node32"><a xlink:href="class_word_quizzle_1_1_word_quizzle_server_service.html#aee4ec771e269748e727002f9fa02e8a0" target="_top" xlink:title=" ">
<polygon fill="white" stroke="black" points="607,-150.5 607,-180.5 766,-180.5 766,-150.5 607,-150.5"/>
<text text-anchor="start" x="615" y="-168.5" font-family="Helvetica,sans-Serif" font-size="10.00">WordQuizzle.WordQuizzleServer</text>
<text text-anchor="middle" x="686.5" y="-157.5" font-family="Helvetica,sans-Serif" font-size="10.00">Service.sfida</text>
</a>
</g>
</g>
<!-- Node9&#45;&gt;Node32 -->
<g id="edge43" class="edge"><title>Node9&#45;&gt;Node32</title>
<path fill="none" stroke="midnightblue" d="M502.235,-302.675C517.35,-279.637 558.316,-221.736 607,-190.5 610.292,-188.388 613.776,-186.442 617.374,-184.651"/>
<polygon fill="midnightblue" stroke="midnightblue" points="618.844,-187.827 626.506,-180.51 615.953,-181.452 618.844,-187.827"/>
</g>
<!-- Node11 -->
<g id="node11" class="node"><title>Node11</title>
<g id="a_node11"><a xlink:href="interface_word_quizzle_1_1_data_base.html#a256d6e7e3541d11a9ff219431066a7d5" target="_top" xlink:title="Controlla che quel nome utente sia nel database.">
<polygon fill="white" stroke="black" points="802,-270 802,-289 970,-289 970,-270 802,-270"/>
<text text-anchor="middle" x="886" y="-277" font-family="Helvetica,sans-Serif" font-size="10.00">WordQuizzle.DataBase.checkUser</text>
</a>
</g>
</g>
<!-- Node10&#45;&gt;Node11 -->
<g id="edge10" class="edge"><title>Node10&#45;&gt;Node11</title>
<path fill="none" stroke="midnightblue" d="M754.504,-131.592C758.689,-134.119 762.583,-137.065 766,-140.5 805.269,-179.976 761.342,-222.456 802,-260.5 803.666,-262.059 805.434,-263.499 807.283,-264.829"/>
<polygon fill="midnightblue" stroke="midnightblue" points="805.491,-267.836 815.867,-269.981 809.094,-261.834 805.491,-267.836"/>
</g>
<!-- Node12 -->
<g id="node12" class="node"><title>Node12</title>
<g id="a_node12"><a xlink:href="class_word_quizzle_1_1_challenge.html#a5c11b31b9fe597b760b5b4817d1c0dc0" target="_top" xlink:title="Restituisce il tempo di creazione della sfida.">
<polygon fill="white" stroke="black" points="818.5,-106.5 818.5,-136.5 953.5,-136.5 953.5,-106.5 818.5,-106.5"/>
<text text-anchor="start" x="826.5" y="-124.5" font-family="Helvetica,sans-Serif" font-size="10.00">WordQuizzle.Challenge.get</text>
<text text-anchor="middle" x="886" y="-113.5" font-family="Helvetica,sans-Serif" font-size="10.00">StartTime</text>
</a>
</g>
</g>
<!-- Node10&#45;&gt;Node12 -->
<g id="edge11" class="edge"><title>Node10&#45;&gt;Node12</title>
<path fill="none" stroke="midnightblue" d="M766.125,-118.49C779.926,-118.84 794.274,-119.203 808.03,-119.551"/>
<polygon fill="midnightblue" stroke="midnightblue" points="808.329,-123.06 818.414,-119.814 808.506,-116.062 808.329,-123.06"/>
</g>
<!-- Node13 -->
<g id="node13" class="node"><title>Node13</title>
<g id="a_node13"><a xlink:href="interface_word_quizzle_1_1_data_base.html#a987acacce768d19e4551b5b3a508ccf3" target="_top" xlink:title="Dato un nome utente ottiene l&#39;oggetto User corrispondente.">
<polygon fill="white" stroke="black" points="808.5,-232 808.5,-251 963.5,-251 963.5,-232 808.5,-232"/>
<text text-anchor="middle" x="886" y="-239" font-family="Helvetica,sans-Serif" font-size="10.00">WordQuizzle.DataBase.getUser</text>
</a>
</g>
</g>
<!-- Node10&#45;&gt;Node13 -->
<g id="edge12" class="edge"><title>Node10&#45;&gt;Node13</title>
<path fill="none" stroke="midnightblue" d="M753.286,-131.656C757.859,-134.165 762.166,-137.091 766,-140.5 795.741,-166.951 771.33,-197.132 802,-222.5 804.043,-224.19 806.208,-225.737 808.466,-227.151"/>
<polygon fill="midnightblue" stroke="midnightblue" points="807.112,-230.394 817.587,-231.98 810.387,-224.208 807.112,-230.394"/>
</g>
<!-- Node14 -->
<g id="node14" class="node"><title>Node14</title>
<g id="a_node14"><a xlink:href="class_word_quizzle_1_1_user.html#a3cb7161060a60e47d7d9437bed21b888" target="_top" xlink:title="Verifica se un nome utente e&#39; amico dell&#39;utente.">
<polygon fill="white" stroke="black" points="819,-156 819,-175 953,-175 953,-156 819,-156"/>
<text text-anchor="middle" x="886" y="-163" font-family="Helvetica,sans-Serif" font-size="10.00">WordQuizzle.User.isFriend</text>
</a>
</g>
</g>
<!-- Node10&#45;&gt;Node14 -->
<g id="edge13" class="edge"><title>Node10&#45;&gt;Node14</title>
<path fill="none" stroke="midnightblue" d="M746.305,-131.533C764.18,-136.065 783.884,-141.023 802,-145.5 812.686,-148.141 824.158,-150.932 835.059,-153.565"/>
<polygon fill="midnightblue" stroke="midnightblue" points="834.33,-156.99 844.871,-155.93 835.97,-150.184 834.33,-156.99"/>
</g>
<!-- Node15 -->
<g id="node15" class="node"><title>Node15</title>
<g id="a_node15"><a xlink:href="class_word_quizzle_1_1_challenge.html#ad9edc220ce2d24274149ab8c6a564a0a" target="_top" xlink:title="Aggiunge l&#39;utente sfidato alla sfida e la avvia.">
<polygon fill="white" stroke="black" points="818.5,-57.5 818.5,-87.5 953.5,-87.5 953.5,-57.5 818.5,-57.5"/>
<text text-anchor="start" x="826.5" y="-75.5" font-family="Helvetica,sans-Serif" font-size="10.00">WordQuizzle.Challenge.set</text>
<text text-anchor="middle" x="886" y="-64.5" font-family="Helvetica,sans-Serif" font-size="10.00">Player2</text>
</a>
</g>
</g>
<!-- Node10&#45;&gt;Node15 -->
<g id="edge14" class="edge"><title>Node10&#45;&gt;Node15</title>
<path fill="none" stroke="midnightblue" d="M754.916,-101.481C772.011,-97.6723 790.503,-93.5526 808.031,-89.6475"/>
<polygon fill="midnightblue" stroke="midnightblue" points="809.223,-92.9678 818.223,-87.377 807.701,-86.1353 809.223,-92.9678"/>
</g>
<!-- Node15&#45;&gt;Node3 -->
<g id="edge15" class="edge"><title>Node15&#45;&gt;Node3</title>
<path fill="none" stroke="midnightblue" d="M953.794,-86.429C959.602,-89.1988 965.117,-92.5193 970,-96.5 988.199,-111.336 1057.04,-254.665 1081.67,-306.724"/>
<polygon fill="midnightblue" stroke="midnightblue" points="1078.54,-308.304 1085.98,-315.854 1084.87,-305.317 1078.54,-308.304"/>
</g>
<!-- Node16 -->
<g id="node16" class="node"><title>Node16</title>
<g id="a_node16"><a xlink:href="class_word_quizzle_1_1_player.html#a5df71a0f2196e8ee3bfff3bc232f4669" target="_top" xlink:title="Restituisce l&#39;indice della prossima domanda da sottoporre al giocatore.">
<polygon fill="white" stroke="black" points="1021.5,-6 1021.5,-25 1161.5,-25 1161.5,-6 1021.5,-6"/>
<text text-anchor="middle" x="1091.5" y="-13" font-family="Helvetica,sans-Serif" font-size="10.00">WordQuizzle.Player.getNext</text>
</a>
</g>
</g>
<!-- Node15&#45;&gt;Node16 -->
<g id="edge16" class="edge"><title>Node15&#45;&gt;Node16</title>
<path fill="none" stroke="midnightblue" d="M930.806,-57.495C953.167,-50.0954 980.884,-41.3195 1006,-34.5 1015.26,-31.9851 1025.16,-29.5431 1034.8,-27.2941"/>
<polygon fill="midnightblue" stroke="midnightblue" points="1035.74,-30.668 1044.71,-25.0252 1034.18,-23.8444 1035.74,-30.668"/>
</g>
<!-- Node18 -->
<g id="node18" class="node"><title>Node18</title>
<g id="a_node18"><a xlink:href="class_word_quizzle_1_1_player.html#a1f8fc44dbae0c22017e5d4e435fa5bc0" target="_top" xlink:title="Restituisce la sessione del giocatore.">
<polygon fill="white" stroke="black" points="1014,-120 1014,-139 1169,-139 1169,-120 1014,-120"/>
<text text-anchor="middle" x="1091.5" y="-127" font-family="Helvetica,sans-Serif" font-size="10.00">WordQuizzle.Player.getSession</text>
</a>
</g>
</g>
<!-- Node15&#45;&gt;Node18 -->
<g id="edge18" class="edge"><title>Node15&#45;&gt;Node18</title>
<path fill="none" stroke="midnightblue" d="M941.685,-87.559C951.172,-90.3858 960.906,-93.4238 970,-96.5 986.262,-102.001 989.579,-105.492 1006,-110.5 1014.46,-113.082 1023.5,-115.48 1032.4,-117.644"/>
<polygon fill="midnightblue" stroke="midnightblue" points="1031.82,-121.102 1042.36,-119.984 1033.42,-114.288 1031.82,-121.102"/>
</g>
<!-- Node19 -->
<g id="node19" class="node"><title>Node19</title>
<g id="a_node19"><a xlink:href="class_word_quizzle_1_1_session.html#a26ad2a090660e09b1416cd530fdf1e9a" target="_top" xlink:title="Imposta la risposta da inviare al client.">
<polygon fill="white" stroke="black" points="1006,-82 1006,-101 1177,-101 1177,-82 1006,-82"/>
<text text-anchor="middle" x="1091.5" y="-89" font-family="Helvetica,sans-Serif" font-size="10.00">WordQuizzle.Session.setResponse</text>
</a>
</g>
</g>
<!-- Node15&#45;&gt;Node19 -->
<g id="edge19" class="edge"><title>Node15&#45;&gt;Node19</title>
<path fill="none" stroke="midnightblue" d="M953.634,-78.7213C967.065,-79.9754 981.428,-81.3163 995.611,-82.6406"/>
<polygon fill="midnightblue" stroke="midnightblue" points="995.61,-86.1556 1005.89,-83.6005 996.261,-79.1859 995.61,-86.1556"/>
</g>
<!-- Node20 -->
<g id="node20" class="node"><title>Node20</title>
<g id="a_node20"><a xlink:href="class_word_quizzle_1_1_translator.html#a9fcad4b807785c63c72bc85f672fb635" target="_top" xlink:title="Traduce una parola dall&#39;italiano all&#39;inglese.">
<polygon fill="white" stroke="black" points="1012,-44 1012,-63 1171,-63 1171,-44 1012,-44"/>
<text text-anchor="middle" x="1091.5" y="-51" font-family="Helvetica,sans-Serif" font-size="10.00">WordQuizzle.Translator.translate</text>
</a>
</g>
</g>
<!-- Node15&#45;&gt;Node20 -->
<g id="edge20" class="edge"><title>Node15&#45;&gt;Node20</title>
<path fill="none" stroke="midnightblue" d="M953.634,-66.2787C968.992,-64.8447 985.568,-63.2971 1001.7,-61.7907"/>
<polygon fill="midnightblue" stroke="midnightblue" points="1002.04,-65.274 1011.68,-60.8595 1001.39,-58.3044 1002.04,-65.274"/>
</g>
<!-- Node17 -->
<g id="node17" class="node"><title>Node17</title>
<g id="a_node17"><a xlink:href="class_word_quizzle_1_1_word_quizzle_server_service.html#a970fe0e2dd7457bab2c64ae722a912fc" target="_top" xlink:title=" ">
<polygon fill="white" stroke="black" points="1213,-0.5 1213,-30.5 1372,-30.5 1372,-0.5 1213,-0.5"/>
<text text-anchor="start" x="1221" y="-18.5" font-family="Helvetica,sans-Serif" font-size="10.00">WordQuizzle.WordQuizzleServer</text>
<text text-anchor="middle" x="1292.5" y="-7.5" font-family="Helvetica,sans-Serif" font-size="10.00">Service.getK</text>
</a>
</g>
</g>
<!-- Node16&#45;&gt;Node17 -->
<g id="edge17" class="edge"><title>Node16&#45;&gt;Node17</title>
<path fill="none" stroke="midnightblue" d="M1161.54,-15.5C1174.69,-15.5 1188.63,-15.5 1202.3,-15.5"/>
<polygon fill="midnightblue" stroke="midnightblue" points="1202.69,-19.0001 1212.69,-15.5 1202.69,-12.0001 1202.69,-19.0001"/>
</g>
<!-- Node21&#45;&gt;Node11 -->
<g id="edge22" class="edge"><title>Node21&#45;&gt;Node11</title>
<path fill="none" stroke="midnightblue" d="M755.005,-444.313C759.018,-441.806 762.741,-438.891 766,-435.5 809.623,-390.108 756.778,-342.3 802,-298.5 803.473,-297.073 805.031,-295.745 806.659,-294.509"/>
<polygon fill="midnightblue" stroke="midnightblue" points="808.716,-297.35 815.326,-289.07 804.995,-291.421 808.716,-297.35"/>
</g>
<!-- Node22 -->
<g id="node22" class="node"><title>Node22</title>
<g id="a_node22"><a xlink:href="interface_word_quizzle_1_1_data_base.html#a2128ed726158cf0961972a99ac83b9a8" target="_top" xlink:title="Crea un link (amicizia) non orientato tra due utenti.">
<polygon fill="white" stroke="black" points="817.5,-450 817.5,-469 954.5,-469 954.5,-450 817.5,-450"/>
<text text-anchor="middle" x="886" y="-457" font-family="Helvetica,sans-Serif" font-size="10.00">WordQuizzle.DataBase.link</text>
</a>
</g>
</g>
<!-- Node21&#45;&gt;Node22 -->
<g id="edge23" class="edge"><title>Node21&#45;&gt;Node22</title>
<path fill="none" stroke="midnightblue" d="M766.125,-459.5C779.669,-459.5 793.74,-459.5 807.26,-459.5"/>
<polygon fill="midnightblue" stroke="midnightblue" points="807.474,-463 817.474,-459.5 807.474,-456 807.474,-463"/>
</g>
<!-- Node23&#45;&gt;Node11 -->
<g id="edge25" class="edge"><title>Node23&#45;&gt;Node11</title>
<path fill="none" stroke="midnightblue" d="M766.125,-299.363C783.229,-296.505 801.174,-293.506 817.788,-290.73"/>
<polygon fill="midnightblue" stroke="midnightblue" points="818.655,-294.134 827.941,-289.034 817.501,-287.23 818.655,-294.134"/>
</g>
<!-- Node23&#45;&gt;Node13 -->
<g id="edge27" class="edge"><title>Node23&#45;&gt;Node13</title>
<path fill="none" stroke="midnightblue" d="M745.486,-297.421C752.554,-294.816 759.549,-291.849 766,-288.5 783.99,-279.16 783.687,-269.189 802,-260.5 807.219,-258.024 812.779,-255.86 818.453,-253.973"/>
<polygon fill="midnightblue" stroke="midnightblue" points="819.522,-257.306 828.072,-251.049 817.487,-250.609 819.522,-257.306"/>
</g>
<!-- Node24 -->
<g id="node24" class="node"><title>Node24</title>
<g id="a_node24"><a xlink:href="class_word_quizzle_1_1_user.html#a8a3e0c4b349c4e6bf825bc84c179c36b" target="_top" xlink:title="Restituisce la lista di amici dell&#39;utente.">
<polygon fill="white" stroke="black" points="813.5,-308 813.5,-327 958.5,-327 958.5,-308 813.5,-308"/>
<text text-anchor="middle" x="886" y="-315" font-family="Helvetica,sans-Serif" font-size="10.00">WordQuizzle.User.getFriends</text>
</a>
</g>
</g>
<!-- Node23&#45;&gt;Node24 -->
<g id="edge26" class="edge"><title>Node23&#45;&gt;Node24</title>
<path fill="none" stroke="midnightblue" d="M766.125,-314.49C778.311,-314.799 790.923,-315.118 803.178,-315.429"/>
<polygon fill="midnightblue" stroke="midnightblue" points="803.284,-318.932 813.37,-315.687 803.461,-311.935 803.284,-318.932"/>
</g>
<!-- Node25&#45;&gt;Node11 -->
<g id="edge29" class="edge"><title>Node25&#45;&gt;Node11</title>
<path fill="none" stroke="midnightblue" d="M753.382,-395.451C757.933,-392.918 762.21,-389.958 766,-386.5 797.217,-358.019 769.782,-325.844 802,-298.5 803.972,-296.826 806.063,-295.292 808.246,-293.887"/>
<polygon fill="midnightblue" stroke="midnightblue" points="809.964,-296.937 817.074,-289.082 806.618,-290.789 809.964,-296.937"/>
</g>
<!-- Node25&#45;&gt;Node13 -->
<g id="edge31" class="edge"><title>Node25&#45;&gt;Node13</title>
<path fill="none" stroke="midnightblue" d="M754.556,-395.458C758.728,-392.92 762.605,-389.958 766,-386.5 806.802,-344.94 759.735,-300.571 802,-260.5 803.488,-259.089 805.059,-257.775 806.699,-256.552"/>
<polygon fill="midnightblue" stroke="midnightblue" points="808.75,-259.399 815.414,-251.162 805.068,-253.445 808.75,-259.399"/>
</g>
<!-- Node26 -->
<g id="node26" class="node"><title>Node26</title>
<g id="a_node26"><a xlink:href="class_word_quizzle_1_1_user.html#ab3df921fe5bcada15672f146592dbc3f" target="_top" xlink:title="Restituisce la password dell&#39;utente.">
<polygon fill="white" stroke="black" points="808.5,-407 808.5,-426 963.5,-426 963.5,-407 808.5,-407"/>
<text text-anchor="middle" x="886" y="-414" font-family="Helvetica,sans-Serif" font-size="10.00">WordQuizzle.User.getPassword</text>
</a>
</g>
</g>
<!-- Node25&#45;&gt;Node26 -->
<g id="edge30" class="edge"><title>Node25&#45;&gt;Node26</title>
<path fill="none" stroke="midnightblue" d="M766.125,-412.889C776.641,-413.208 787.475,-413.537 798.122,-413.861"/>
<polygon fill="midnightblue" stroke="midnightblue" points="798.154,-417.363 808.256,-414.169 798.367,-410.366 798.154,-417.363"/>
</g>
<!-- Node27 -->
<g id="node27" class="node"><title>Node27</title>
<g id="a_node27"><a xlink:href="class_word_quizzle_1_1_session.html#aebb0096afea4c87b3a80fc17fd019c2c" target="_top" xlink:title="Imposta l&#39;indirizzo UDP del client a cui inviare le richieste di sfida.">
<polygon fill="white" stroke="black" points="813.5,-369 813.5,-388 958.5,-388 958.5,-369 813.5,-369"/>
<text text-anchor="middle" x="886" y="-376" font-family="Helvetica,sans-Serif" font-size="10.00">WordQuizzle.Session.setUdp</text>
</a>
</g>
</g>
<!-- Node25&#45;&gt;Node27 -->
<g id="edge32" class="edge"><title>Node25&#45;&gt;Node27</title>
<path fill="none" stroke="midnightblue" d="M766.125,-397.761C782.694,-395.076 800.053,-392.264 816.226,-389.643"/>
<polygon fill="midnightblue" stroke="midnightblue" points="816.814,-393.094 826.126,-388.039 815.695,-386.184 816.814,-393.094"/>
</g>
<!-- Node29&#45;&gt;Node11 -->
<g id="edge35" class="edge"><title>Node29&#45;&gt;Node11</title>
<path fill="none" stroke="midnightblue" d="M766.125,-269.87C774.552,-270.552 783.184,-271.252 791.76,-271.946"/>
<polygon fill="midnightblue" stroke="midnightblue" points="791.537,-275.44 801.787,-272.759 792.102,-268.463 791.537,-275.44"/>
</g>
<!-- Node29&#45;&gt;Node13 -->
<g id="edge38" class="edge"><title>Node29&#45;&gt;Node13</title>
<path fill="none" stroke="midnightblue" d="M766.125,-254.742C776.641,-253.57 787.475,-252.364 798.122,-251.178"/>
<polygon fill="midnightblue" stroke="midnightblue" points="798.705,-254.634 808.256,-250.049 797.93,-247.677 798.705,-254.634"/>
</g>
<!-- Node29&#45;&gt;Node24 -->
<g id="edge36" class="edge"><title>Node29&#45;&gt;Node24</title>
<path fill="none" stroke="midnightblue" d="M734.077,-278.565C754.779,-285.046 779.507,-292.496 802,-298.5 811.222,-300.962 821.073,-303.39 830.648,-305.646"/>
<polygon fill="midnightblue" stroke="midnightblue" points="829.956,-309.078 840.488,-307.928 831.537,-302.259 829.956,-309.078"/>
</g>
<!-- Node30 -->
<g id="node30" class="node"><title>Node30</title>
<g id="a_node30"><a xlink:href="class_word_quizzle_1_1_user.html#ae4cc205520a878a71ce7c673e96f7e4f" target="_top" xlink:title="Restituisce il punteggio dell&#39;utente.">
<polygon fill="white" stroke="black" points="817,-194 817,-213 955,-213 955,-194 817,-194"/>
<text text-anchor="middle" x="886" y="-201" font-family="Helvetica,sans-Serif" font-size="10.00">WordQuizzle.User.getScore</text>
</a>
</g>
</g>
<!-- Node29&#45;&gt;Node30 -->
<g id="edge37" class="edge"><title>Node29&#45;&gt;Node30</title>
<path fill="none" stroke="midnightblue" d="M740.639,-248.396C749.191,-245.639 757.892,-242.635 766,-239.5 782.504,-233.119 785.278,-228.286 802,-222.5 809.548,-219.888 817.607,-217.533 825.626,-215.441"/>
<polygon fill="midnightblue" stroke="midnightblue" points="826.49,-218.833 835.349,-213.022 824.8,-212.04 826.49,-218.833"/>
</g>
<!-- Node31&#45;&gt;Node11 -->
<g id="edge40" class="edge"><title>Node31&#45;&gt;Node11</title>
<path fill="none" stroke="midnightblue" d="M740.456,-229.607C749.114,-232.575 757.896,-235.899 766,-239.5 782.927,-247.023 784.775,-253.689 802,-260.5 808.373,-263.02 815.16,-265.25 822.001,-267.213"/>
<polygon fill="midnightblue" stroke="midnightblue" points="821.457,-270.691 832.022,-269.901 823.27,-263.93 821.457,-270.691"/>
</g>
<!-- Node31&#45;&gt;Node13 -->
<g id="edge42" class="edge"><title>Node31&#45;&gt;Node13</title>
<path fill="none" stroke="midnightblue" d="M766.125,-225.249C778.942,-227.001 792.231,-228.818 805.079,-230.574"/>
<polygon fill="midnightblue" stroke="midnightblue" points="804.888,-234.08 815.27,-231.967 805.836,-227.145 804.888,-234.08"/>
</g>
<!-- Node31&#45;&gt;Node30 -->
<g id="edge41" class="edge"><title>Node31&#45;&gt;Node30</title>
<path fill="none" stroke="midnightblue" d="M766.125,-210.121C779.497,-209.376 793.384,-208.603 806.747,-207.858"/>
<polygon fill="midnightblue" stroke="midnightblue" points="807.056,-211.347 816.846,-207.296 806.667,-204.358 807.056,-211.347"/>
</g>
<!-- Node32&#45;&gt;Node11 -->
<g id="edge44" class="edge"><title>Node32&#45;&gt;Node11</title>
<path fill="none" stroke="midnightblue" d="M750.739,-180.569C756.219,-183.341 761.413,-186.621 766,-190.5 792.711,-213.092 774.372,-239.039 802,-260.5 804.298,-262.285 806.734,-263.908 809.273,-265.384"/>
<polygon fill="midnightblue" stroke="midnightblue" points="807.736,-268.528 818.248,-269.851 810.855,-262.262 807.736,-268.528"/>
</g>
<!-- Node32&#45;&gt;Node12 -->
<g id="edge45" class="edge"><title>Node32&#45;&gt;Node12</title>
<path fill="none" stroke="midnightblue" d="M754.916,-150.481C772.011,-146.672 790.503,-142.553 808.031,-138.647"/>
<polygon fill="midnightblue" stroke="midnightblue" points="809.223,-141.968 818.223,-136.377 807.701,-135.135 809.223,-141.968"/>
</g>
<!-- Node32&#45;&gt;Node13 -->
<g id="edge46" class="edge"><title>Node32&#45;&gt;Node13</title>
<path fill="none" stroke="midnightblue" d="M744.872,-180.655C752.187,-183.481 759.412,-186.75 766,-190.5 784.604,-201.09 782.971,-212.694 802,-222.5 806.564,-224.852 811.418,-226.916 816.398,-228.726"/>
<polygon fill="midnightblue" stroke="midnightblue" points="815.497,-232.114 826.09,-231.903 817.678,-225.462 815.497,-232.114"/>
</g>
<!-- Node32&#45;&gt;Node14 -->
<g id="edge47" class="edge"><title>Node32&#45;&gt;Node14</title>
<path fill="none" stroke="midnightblue" d="M766.125,-165.5C780.148,-165.5 794.736,-165.5 808.693,-165.5"/>
<polygon fill="midnightblue" stroke="midnightblue" points="808.727,-169 818.727,-165.5 808.727,-162 808.727,-169"/>
</g>
</g>
</svg>
