<?xml version="1.0" encoding="UTF-8" standalone="no"?>
<!DOCTYPE svg PUBLIC "-//W3C//DTD SVG 1.1//EN"
 "http://www.w3.org/Graphics/SVG/1.1/DTD/svg11.dtd">
<!-- Generated by graphviz version 2.38.0 (20140413.2041)
 -->
<!-- Title: WordQuizzle.Challenge.setPlayer2 Pages: 1 -->
<svg width="545pt" height="180pt"
 viewBox="0.00 0.00 545.00 180.00" xmlns="http://www.w3.org/2000/svg" xmlns:xlink="http://www.w3.org/1999/xlink">
<g id="graph0" class="graph" transform="scale(1 1) rotate(0) translate(4 176)">
<title>WordQuizzle.Challenge.setPlayer2</title>
<polygon fill="white" stroke="none" points="-4,4 -4,-176 541,-176 541,4 -4,4"/>
<!-- Node1 -->
<g id="node1" class="node"><title>Node1</title>
<g id="a_node1"><a xlink:title="Aggiunge l&#39;utente sfidato alla sfida e la avvia.">
<polygon fill="#bfbfbf" stroke="black" points="0,-71 0,-101 135,-101 135,-71 0,-71"/>
<text text-anchor="start" x="8" y="-89" font-family="Helvetica,sans-Serif" font-size="10.00">WordQuizzle.Challenge.set</text>
<text text-anchor="middle" x="67.5" y="-78" font-family="Helvetica,sans-Serif" font-size="10.00">Player2</text>
</a>
</g>
</g>
<!-- Node2 -->
<g id="node2" class="node"><title>Node2</title>
<g id="a_node2"><a xlink:href="class_word_quizzle_1_1_session.html#ac7d5ff28ffd9355eea98b9f66c3c19cd" target="_top" xlink:title="Restituisce la socket del client.">
<polygon fill="white" stroke="black" points="180.5,-152.5 180.5,-171.5 332.5,-171.5 332.5,-152.5 180.5,-152.5"/>
<text text-anchor="middle" x="256.5" y="-159.5" font-family="Helvetica,sans-Serif" font-size="10.00">WordQuizzle.Session.getClient</text>
</a>
</g>
</g>
<!-- Node1&#45;&gt;Node2 -->
<g id="edge1" class="edge"><title>Node1&#45;&gt;Node2</title>
<path fill="none" stroke="midnightblue" d="M91.187,-101.118C111.369,-113.945 142.082,-131.972 171,-143 177.761,-145.579 184.967,-147.859 192.21,-149.862"/>
<polygon fill="midnightblue" stroke="midnightblue" points="191.515,-153.298 202.073,-152.425 193.275,-146.523 191.515,-153.298"/>
</g>
<!-- Node3 -->
<g id="node3" class="node"><title>Node3</title>
<g id="a_node3"><a xlink:href="class_word_quizzle_1_1_player.html#a5df71a0f2196e8ee3bfff3bc232f4669" target="_top" xlink:title="Restituisce l&#39;indice della prossima domanda da sottoporre al giocatore.">
<polygon fill="white" stroke="black" points="186.5,-114.5 186.5,-133.5 326.5,-133.5 326.5,-114.5 186.5,-114.5"/>
<text text-anchor="middle" x="256.5" y="-121.5" font-family="Helvetica,sans-Serif" font-size="10.00">WordQuizzle.Player.getNext</text>
</a>
</g>
</g>
<!-- Node1&#45;&gt;Node3 -->
<g id="edge2" class="edge"><title>Node1&#45;&gt;Node3</title>
<path fill="none" stroke="midnightblue" d="M135.219,-99.5579C155.947,-103.77 178.592,-108.372 198.587,-112.435"/>
<polygon fill="midnightblue" stroke="midnightblue" points="197.976,-115.882 208.473,-114.444 199.37,-109.022 197.976,-115.882"/>
</g>
<!-- Node5 -->
<g id="node5" class="node"><title>Node5</title>
<g id="a_node5"><a xlink:href="class_word_quizzle_1_1_player.html#a1f8fc44dbae0c22017e5d4e435fa5bc0" target="_top" xlink:title="Restituisce la sessione del giocatore.">
<polygon fill="white" stroke="black" points="179,-76.5 179,-95.5 334,-95.5 334,-76.5 179,-76.5"/>
<text text-anchor="middle" x="256.5" y="-83.5" font-family="Helvetica,sans-Serif" font-size="10.00">WordQuizzle.Player.getSession</text>
</a>
</g>
</g>
<!-- Node1&#45;&gt;Node5 -->
<g id="edge4" class="edge"><title>Node1&#45;&gt;Node5</title>
<path fill="none" stroke="midnightblue" d="M135.219,-86C146.061,-86 157.427,-86 168.664,-86"/>
<polygon fill="midnightblue" stroke="midnightblue" points="168.928,-89.5001 178.928,-86 168.928,-82.5001 168.928,-89.5001"/>
</g>
<!-- Node6 -->
<g id="node6" class="node"><title>Node6</title>
<g id="a_node6"><a xlink:href="class_word_quizzle_1_1_session.html#a26ad2a090660e09b1416cd530fdf1e9a" target="_top" xlink:title="Imposta la risposta da inviare al client.">
<polygon fill="white" stroke="black" points="171,-38.5 171,-57.5 342,-57.5 342,-38.5 171,-38.5"/>
<text text-anchor="middle" x="256.5" y="-45.5" font-family="Helvetica,sans-Serif" font-size="10.00">WordQuizzle.Session.setResponse</text>
</a>
</g>
</g>
<!-- Node1&#45;&gt;Node6 -->
<g id="edge5" class="edge"><title>Node1&#45;&gt;Node6</title>
<path fill="none" stroke="midnightblue" d="M135.219,-72.4421C155.947,-68.23 178.592,-63.6283 198.587,-59.5651"/>
<polygon fill="midnightblue" stroke="midnightblue" points="199.37,-62.9777 208.473,-57.5563 197.976,-56.1179 199.37,-62.9777"/>
</g>
<!-- Node7 -->
<g id="node7" class="node"><title>Node7</title>
<g id="a_node7"><a xlink:href="class_word_quizzle_1_1_translator.html#a9fcad4b807785c63c72bc85f672fb635" target="_top" xlink:title="Traduce una parola dall&#39;italiano all&#39;inglese.">
<polygon fill="white" stroke="black" points="177,-0.5 177,-19.5 336,-19.5 336,-0.5 177,-0.5"/>
<text text-anchor="middle" x="256.5" y="-7.5" font-family="Helvetica,sans-Serif" font-size="10.00">WordQuizzle.Translator.translate</text>
</a>
</g>
</g>
<!-- Node1&#45;&gt;Node7 -->
<g id="edge6" class="edge"><title>Node1&#45;&gt;Node7</title>
<path fill="none" stroke="midnightblue" d="M91.187,-70.8821C111.369,-58.0553 142.082,-40.0285 171,-29 177.761,-26.4215 184.967,-24.1409 192.21,-22.1375"/>
<polygon fill="midnightblue" stroke="midnightblue" points="193.275,-25.4772 202.073,-19.5753 191.515,-18.7021 193.275,-25.4772"/>
</g>
<!-- Node4 -->
<g id="node4" class="node"><title>Node4</title>
<g id="a_node4"><a xlink:href="class_word_quizzle_1_1_word_quizzle_server_service.html#a970fe0e2dd7457bab2c64ae722a912fc" target="_top" xlink:title="Restituisce il numero di parole per sfida.">
<polygon fill="white" stroke="black" points="378,-109 378,-139 537,-139 537,-109 378,-109"/>
<text text-anchor="start" x="386" y="-127" font-family="Helvetica,sans-Serif" font-size="10.00">WordQuizzle.WordQuizzleServer</text>
<text text-anchor="middle" x="457.5" y="-116" font-family="Helvetica,sans-Serif" font-size="10.00">Service.getK</text>
</a>
</g>
</g>
<!-- Node3&#45;&gt;Node4 -->
<g id="edge3" class="edge"><title>Node3&#45;&gt;Node4</title>
<path fill="none" stroke="midnightblue" d="M326.542,-124C339.692,-124 353.627,-124 367.301,-124"/>
<polygon fill="midnightblue" stroke="midnightblue" points="367.688,-127.5 377.688,-124 367.688,-120.5 367.688,-127.5"/>
</g>
</g>
</svg>
