<?xml version="1.0" encoding="UTF-8" standalone="no"?>
<!DOCTYPE svg PUBLIC "-//W3C//DTD SVG 1.1//EN"
 "http://www.w3.org/Graphics/SVG/1.1/DTD/svg11.dtd">
<!-- Generated by graphviz version 2.38.0 (20140413.2041)
 -->
<!-- Title: Player Pages: 1 -->
<svg width="756pt" height="959pt"
 viewBox="0.00 0.00 756.00 959.00" xmlns="http://www.w3.org/2000/svg" xmlns:xlink="http://www.w3.org/1999/xlink">
<g id="graph0" class="graph" transform="scale(1 1) rotate(0) translate(4 955)">
<title>Player</title>
<polygon fill="white" stroke="none" points="-4,4 -4,-955 752,-955 752,4 -4,4"/>
<!-- Node1 -->
<g id="node1" class="node"><title>Node1</title>
<g id="a_node1"><a xlink:title="Rappresenta un giocatore impegnato un una sfida.">
<polygon fill="#bfbfbf" stroke="black" points="574,-0.5 574,-134.5 661,-134.5 661,-0.5 574,-0.5"/>
<text text-anchor="middle" x="617.5" y="-122.5" font-family="Helvetica,sans-Serif" font-size="10.00">Player</text>
<polyline fill="none" stroke="black" points="574,-115.5 661,-115.5 "/>
<text text-anchor="start" x="582" y="-103.5" font-family="Helvetica,sans-Serif" font-size="10.00">&#45; next</text>
<text text-anchor="start" x="582" y="-92.5" font-family="Helvetica,sans-Serif" font-size="10.00">&#45; close</text>
<polyline fill="none" stroke="black" points="574,-85.5 661,-85.5 "/>
<text text-anchor="start" x="582" y="-73.5" font-family="Helvetica,sans-Serif" font-size="10.00">+ Player()</text>
<text text-anchor="start" x="582" y="-62.5" font-family="Helvetica,sans-Serif" font-size="10.00">+ getSession()</text>
<text text-anchor="start" x="582" y="-51.5" font-family="Helvetica,sans-Serif" font-size="10.00">+ addAnswer()</text>
<text text-anchor="start" x="582" y="-40.5" font-family="Helvetica,sans-Serif" font-size="10.00">+ getAnswers()</text>
<text text-anchor="start" x="582" y="-29.5" font-family="Helvetica,sans-Serif" font-size="10.00">+ isTerminated()</text>
<text text-anchor="start" x="582" y="-18.5" font-family="Helvetica,sans-Serif" font-size="10.00">+ getNext()</text>
<text text-anchor="start" x="582" y="-7.5" font-family="Helvetica,sans-Serif" font-size="10.00">+ close()</text>
</a>
</g>
</g>
<!-- Node2 -->
<g id="node2" class="node"><title>Node2</title>
<g id="a_node2"><a xlink:href="class_session.html" target="_top" xlink:title="Rappresenta una sessione di un utente.">
<polygon fill="white" stroke="black" points="482,-182.5 482,-382.5 571,-382.5 571,-182.5 482,-182.5"/>
<text text-anchor="middle" x="526.5" y="-370.5" font-family="Helvetica,sans-Serif" font-size="10.00">Session</text>
<polyline fill="none" stroke="black" points="482,-363.5 571,-363.5 "/>
<text text-anchor="start" x="490" y="-351.5" font-family="Helvetica,sans-Serif" font-size="10.00">&#45; user</text>
<text text-anchor="start" x="490" y="-340.5" font-family="Helvetica,sans-Serif" font-size="10.00">&#45; response</text>
<text text-anchor="start" x="490" y="-329.5" font-family="Helvetica,sans-Serif" font-size="10.00">&#45; end</text>
<polyline fill="none" stroke="black" points="482,-322.5 571,-322.5 "/>
<text text-anchor="start" x="490" y="-310.5" font-family="Helvetica,sans-Serif" font-size="10.00">+ Session()</text>
<text text-anchor="start" x="490" y="-299.5" font-family="Helvetica,sans-Serif" font-size="10.00">+ getClient()</text>
<text text-anchor="start" x="490" y="-288.5" font-family="Helvetica,sans-Serif" font-size="10.00">+ getBfs()</text>
<text text-anchor="start" x="490" y="-277.5" font-family="Helvetica,sans-Serif" font-size="10.00">+ setUdp()</text>
<text text-anchor="start" x="490" y="-266.5" font-family="Helvetica,sans-Serif" font-size="10.00">+ getUdp()</text>
<text text-anchor="start" x="490" y="-255.5" font-family="Helvetica,sans-Serif" font-size="10.00">+ newBfs()</text>
<text text-anchor="start" x="490" y="-244.5" font-family="Helvetica,sans-Serif" font-size="10.00">+ getUser()</text>
<text text-anchor="start" x="490" y="-233.5" font-family="Helvetica,sans-Serif" font-size="10.00">+ getResponse()</text>
<text text-anchor="start" x="490" y="-222.5" font-family="Helvetica,sans-Serif" font-size="10.00">+ setResponse()</text>
<text text-anchor="start" x="490" y="-211.5" font-family="Helvetica,sans-Serif" font-size="10.00">+ isTerminated()</text>
<text text-anchor="start" x="490" y="-200.5" font-family="Helvetica,sans-Serif" font-size="10.00">+ parse()</text>
<text text-anchor="start" x="490" y="-189.5" font-family="Helvetica,sans-Serif" font-size="10.00">&#45; compute()</text>
</a>
</g>
</g>
<!-- Node2&#45;&gt;Node1 -->
<g id="edge1" class="edge"><title>Node2&#45;&gt;Node1</title>
<path fill="none" stroke="#404040" d="M568.803,-182.483C574.044,-170.216 579.342,-157.816 584.416,-145.938"/>
<polygon fill="none" stroke="#404040" points="584.489,-145.767 583.168,-138.678 589.204,-134.732 590.525,-141.821 584.489,-145.767"/>
<text text-anchor="middle" x="586.5" y="-156" font-family="Helvetica,sans-Serif" font-size="10.00"> &#45;s</text>
</g>
<!-- Node3 -->
<g id="node3" class="node"><title>Node3</title>
<g id="a_node3"><a xlink:href="class_word_quizzle_server_service.html" target="_top" xlink:title="Implementa la Business Logic.">
<polygon fill="white" stroke="black" points="240.5,-430.5 240.5,-696.5 386.5,-696.5 386.5,-430.5 240.5,-430.5"/>
<text text-anchor="middle" x="313.5" y="-684.5" font-family="Helvetica,sans-Serif" font-size="10.00">WordQuizzleServerService</text>
<polyline fill="none" stroke="black" points="240.5,-677.5 386.5,-677.5 "/>
<text text-anchor="start" x="248.5" y="-665.5" font-family="Helvetica,sans-Serif" font-size="10.00">&#45; K</text>
<text text-anchor="start" x="248.5" y="-654.5" font-family="Helvetica,sans-Serif" font-size="10.00">&#45; T1</text>
<text text-anchor="start" x="248.5" y="-643.5" font-family="Helvetica,sans-Serif" font-size="10.00">&#45; T2</text>
<text text-anchor="start" x="248.5" y="-632.5" font-family="Helvetica,sans-Serif" font-size="10.00">&#45; X</text>
<text text-anchor="start" x="248.5" y="-621.5" font-family="Helvetica,sans-Serif" font-size="10.00">&#45; Y</text>
<text text-anchor="start" x="248.5" y="-610.5" font-family="Helvetica,sans-Serif" font-size="10.00">&#45; Z</text>
<polyline fill="none" stroke="black" points="240.5,-603.5 386.5,-603.5 "/>
<text text-anchor="start" x="248.5" y="-591.5" font-family="Helvetica,sans-Serif" font-size="10.00">+ WordQuizzleServerService()</text>
<text text-anchor="start" x="248.5" y="-580.5" font-family="Helvetica,sans-Serif" font-size="10.00">+ login()</text>
<text text-anchor="start" x="248.5" y="-569.5" font-family="Helvetica,sans-Serif" font-size="10.00">+ logout()</text>
<text text-anchor="start" x="248.5" y="-558.5" font-family="Helvetica,sans-Serif" font-size="10.00">+ aggiungi_amico()</text>
<text text-anchor="start" x="248.5" y="-547.5" font-family="Helvetica,sans-Serif" font-size="10.00">+ lista_amici()</text>
<text text-anchor="start" x="248.5" y="-536.5" font-family="Helvetica,sans-Serif" font-size="10.00">+ mostra_punteggio()</text>
<text text-anchor="start" x="248.5" y="-525.5" font-family="Helvetica,sans-Serif" font-size="10.00">+ mostra_classifica()</text>
<text text-anchor="start" x="248.5" y="-514.5" font-family="Helvetica,sans-Serif" font-size="10.00">+ sfida()</text>
<text text-anchor="start" x="248.5" y="-503.5" font-family="Helvetica,sans-Serif" font-size="10.00">+ accettaSfida()</text>
<text text-anchor="start" x="248.5" y="-492.5" font-family="Helvetica,sans-Serif" font-size="10.00">+ getK()</text>
<text text-anchor="start" x="248.5" y="-481.5" font-family="Helvetica,sans-Serif" font-size="10.00">+ getZ()</text>
<text text-anchor="start" x="248.5" y="-470.5" font-family="Helvetica,sans-Serif" font-size="10.00">+ getY()</text>
<text text-anchor="start" x="248.5" y="-459.5" font-family="Helvetica,sans-Serif" font-size="10.00">+ getX()</text>
<text text-anchor="start" x="248.5" y="-448.5" font-family="Helvetica,sans-Serif" font-size="10.00">+ getT1()</text>
<text text-anchor="start" x="248.5" y="-437.5" font-family="Helvetica,sans-Serif" font-size="10.00">+ getT2()</text>
</a>
</g>
</g>
<!-- Node3&#45;&gt;Node2 -->
<g id="edge2" class="edge"><title>Node3&#45;&gt;Node2</title>
<path fill="none" stroke="#404040" d="M386.54,-442.326C389.512,-438.13 392.504,-434.009 395.5,-430 419.359,-398.081 448.715,-364.793 473.586,-338.029"/>
<polygon fill="none" stroke="#404040" points="473.635,-337.977 474.814,-330.862 481.834,-329.214 480.656,-336.328 473.635,-337.977"/>
<text text-anchor="middle" x="425" y="-404" font-family="Helvetica,sans-Serif" font-size="10.00"> &#45;wq</text>
</g>
<!-- Node4 -->
<g id="node4" class="node"><title>Node4</title>
<g id="a_node4"><a xlink:title=" ">
<polygon fill="white" stroke="#bfbfbf" points="0,-766.5 0,-823.5 89,-823.5 89,-766.5 0,-766.5"/>
<text text-anchor="middle" x="44.5" y="-811.5" font-family="Helvetica,sans-Serif" font-size="10.00">DatagramSocket</text>
<polyline fill="none" stroke="#bfbfbf" points="0,-804.5 89,-804.5 "/>
<text text-anchor="middle" x="44.5" y="-792.5" font-family="Helvetica,sans-Serif" font-size="10.00"> </text>
<polyline fill="none" stroke="#bfbfbf" points="0,-785.5 89,-785.5 "/>
<text text-anchor="middle" x="44.5" y="-773.5" font-family="Helvetica,sans-Serif" font-size="10.00"> </text>
</a>
</g>
</g>
<!-- Node4&#45;&gt;Node3 -->
<g id="edge3" class="edge"><title>Node4&#45;&gt;Node3</title>
<path fill="none" stroke="#404040" d="M73.6773,-766.476C81.6517,-759.093 90.3446,-751.172 98.5,-744 141.432,-706.247 190.279,-665.309 230.553,-632.076"/>
<polygon fill="none" stroke="#404040" points="230.805,-631.868 232.892,-624.965 240.066,-624.237 237.979,-631.139 230.805,-631.868"/>
<text text-anchor="middle" x="145.5" y="-718" font-family="Helvetica,sans-Serif" font-size="10.00"> &#45;socket</text>
</g>
<!-- Node5 -->
<g id="node5" class="node"><title>Node5</title>
<g id="a_node5"><a xlink:title=" ">
<polygon fill="white" stroke="#bfbfbf" points="107.5,-766.5 107.5,-823.5 235.5,-823.5 235.5,-766.5 107.5,-766.5"/>
<text text-anchor="middle" x="171.5" y="-811.5" font-family="Helvetica,sans-Serif" font-size="10.00">Map&lt; String, Challenge &gt;</text>
<polyline fill="none" stroke="#bfbfbf" points="107.5,-804.5 235.5,-804.5 "/>
<text text-anchor="middle" x="171.5" y="-792.5" font-family="Helvetica,sans-Serif" font-size="10.00"> </text>
<polyline fill="none" stroke="#bfbfbf" points="107.5,-785.5 235.5,-785.5 "/>
<text text-anchor="middle" x="171.5" y="-773.5" font-family="Helvetica,sans-Serif" font-size="10.00"> </text>
</a>
</g>
</g>
<!-- Node5&#45;&gt;Node3 -->
<g id="edge4" class="edge"><title>Node5&#45;&gt;Node3</title>
<path fill="none" stroke="#404040" d="M188.629,-766.317C200.355,-747.364 216.839,-720.723 233.994,-692.997"/>
<polygon fill="none" stroke="#404040" points="234.024,-692.949 233.779,-685.742 240.338,-682.745 240.582,-689.952 234.024,-692.949"/>
<text text-anchor="middle" x="244" y="-718" font-family="Helvetica,sans-Serif" font-size="10.00"> &#45;challenges</text>
</g>
<!-- Node6 -->
<g id="node6" class="node"><title>Node6</title>
<g id="a_node6"><a xlink:title=" ">
<polygon fill="white" stroke="#bfbfbf" points="227,-893.5 227,-950.5 262,-950.5 262,-893.5 227,-893.5"/>
<text text-anchor="middle" x="244.5" y="-938.5" font-family="Helvetica,sans-Serif" font-size="10.00">Map</text>
<polyline fill="none" stroke="#bfbfbf" points="227,-931.5 262,-931.5 "/>
<text text-anchor="middle" x="244.5" y="-919.5" font-family="Helvetica,sans-Serif" font-size="10.00"> </text>
<polyline fill="none" stroke="#bfbfbf" points="227,-912.5 262,-912.5 "/>
<text text-anchor="middle" x="244.5" y="-900.5" font-family="Helvetica,sans-Serif" font-size="10.00"> </text>
</a>
</g>
</g>
<!-- Node6&#45;&gt;Node5 -->
<g id="edge5" class="edge"><title>Node6&#45;&gt;Node5</title>
<path fill="none" stroke="orange" d="M218.023,-907.849C205.198,-900.08 190.809,-889.007 182.5,-875 173.386,-859.636 170.664,-839.697 170.207,-823.694"/>
<polygon fill="orange" stroke="orange" points="216.55,-911.037 226.977,-912.917 219.998,-904.945 216.55,-911.037"/>
<text text-anchor="middle" x="230.5" y="-867" font-family="Helvetica,sans-Serif" font-size="10.00"> &lt; String, Challenge &gt;</text>
</g>
<!-- Node7 -->
<g id="node7" class="node"><title>Node7</title>
<g id="a_node7"><a xlink:title=" ">
<polygon fill="white" stroke="#bfbfbf" points="253.5,-766.5 253.5,-823.5 373.5,-823.5 373.5,-766.5 253.5,-766.5"/>
<text text-anchor="middle" x="313.5" y="-811.5" font-family="Helvetica,sans-Serif" font-size="10.00">Map&lt; String, Session &gt;</text>
<polyline fill="none" stroke="#bfbfbf" points="253.5,-804.5 373.5,-804.5 "/>
<text text-anchor="middle" x="313.5" y="-792.5" font-family="Helvetica,sans-Serif" font-size="10.00"> </text>
<polyline fill="none" stroke="#bfbfbf" points="253.5,-785.5 373.5,-785.5 "/>
<text text-anchor="middle" x="313.5" y="-773.5" font-family="Helvetica,sans-Serif" font-size="10.00"> </text>
</a>
</g>
</g>
<!-- Node6&#45;&gt;Node7 -->
<g id="edge7" class="edge"><title>Node6&#45;&gt;Node7</title>
<path fill="none" stroke="orange" d="M268.863,-894.386C273.762,-888.28 278.597,-881.628 282.5,-875 291.995,-858.876 299.698,-839.308 305.051,-823.681"/>
<polygon fill="orange" stroke="orange" points="265.958,-892.404 262.225,-902.319 271.326,-896.896 265.958,-892.404"/>
<text text-anchor="middle" x="332.5" y="-867" font-family="Helvetica,sans-Serif" font-size="10.00"> &lt; String, Session &gt;</text>
</g>
<!-- Node7&#45;&gt;Node3 -->
<g id="edge6" class="edge"><title>Node7&#45;&gt;Node3</title>
<path fill="none" stroke="#404040" d="M313.5,-766.317C313.5,-751.027 313.5,-730.734 313.5,-708.904"/>
<polygon fill="none" stroke="#404040" points="313.5,-708.64 309.5,-702.64 313.5,-696.64 317.5,-702.64 313.5,-708.64"/>
<text text-anchor="middle" x="329" y="-718" font-family="Helvetica,sans-Serif" font-size="10.00"> &#45;users</text>
</g>
<!-- Node8 -->
<g id="node8" class="node"><title>Node8</title>
<g id="a_node8"><a xlink:href="interface_data_base.html" target="_top" xlink:title="Database che gestisce gli utenti.">
<polygon fill="white" stroke="black" points="391.5,-744.5 391.5,-845.5 477.5,-845.5 477.5,-744.5 391.5,-744.5"/>
<text text-anchor="middle" x="434.5" y="-833.5" font-family="Helvetica,sans-Serif" font-size="10.00">DataBase</text>
<polyline fill="none" stroke="black" points="391.5,-826.5 477.5,-826.5 "/>
<text text-anchor="middle" x="434.5" y="-814.5" font-family="Helvetica,sans-Serif" font-size="10.00"> </text>
<polyline fill="none" stroke="black" points="391.5,-807.5 477.5,-807.5 "/>
<text text-anchor="start" x="399.5" y="-795.5" font-family="Helvetica,sans-Serif" font-size="10.00">+ checkUser()</text>
<text text-anchor="start" x="399.5" y="-784.5" font-family="Helvetica,sans-Serif" font-size="10.00">+ getUser()</text>
<text text-anchor="start" x="399.5" y="-773.5" font-family="Helvetica,sans-Serif" font-size="10.00">+ newUser()</text>
<text text-anchor="start" x="399.5" y="-762.5" font-family="Helvetica,sans-Serif" font-size="10.00">+ modifyScore()</text>
<text text-anchor="start" x="399.5" y="-751.5" font-family="Helvetica,sans-Serif" font-size="10.00">+ link()</text>
</a>
</g>
</g>
<!-- Node8&#45;&gt;Node3 -->
<g id="edge8" class="edge"><title>Node8&#45;&gt;Node3</title>
<path fill="none" stroke="#404040" d="M408.394,-744.484C402.418,-733.151 395.773,-720.547 388.851,-707.418"/>
<polygon fill="none" stroke="#404040" points="388.844,-707.405 382.508,-703.963 383.248,-696.79 389.584,-700.232 388.844,-707.405"/>
<text text-anchor="middle" x="404" y="-718" font-family="Helvetica,sans-Serif" font-size="10.00"> &#45;db</text>
</g>
<!-- Node9 -->
<g id="node9" class="node"><title>Node9</title>
<g id="a_node9"><a xlink:title=" ">
<polygon fill="white" stroke="#bfbfbf" points="496,-766.5 496,-823.5 549,-823.5 549,-766.5 496,-766.5"/>
<text text-anchor="middle" x="522.5" y="-811.5" font-family="Helvetica,sans-Serif" font-size="10.00">Selector</text>
<polyline fill="none" stroke="#bfbfbf" points="496,-804.5 549,-804.5 "/>
<text text-anchor="middle" x="522.5" y="-792.5" font-family="Helvetica,sans-Serif" font-size="10.00"> </text>
<polyline fill="none" stroke="#bfbfbf" points="496,-785.5 549,-785.5 "/>
<text text-anchor="middle" x="522.5" y="-773.5" font-family="Helvetica,sans-Serif" font-size="10.00"> </text>
</a>
</g>
</g>
<!-- Node9&#45;&gt;Node3 -->
<g id="edge9" class="edge"><title>Node9&#45;&gt;Node3</title>
<path fill="none" stroke="#404040" d="M506.098,-766.386C500.55,-758.514 493.871,-750.358 486.5,-744 452.031,-714.268 428.909,-727.918 395.5,-697 395.407,-696.914 395.314,-696.828 395.221,-696.741"/>
<polygon fill="none" stroke="#404040" points="395.291,-696.81 388.214,-695.426 386.77,-688.361 393.847,-689.745 395.291,-696.81"/>
<text text-anchor="middle" x="477" y="-718" font-family="Helvetica,sans-Serif" font-size="10.00"> &#45;selector</text>
</g>
<!-- Node10 -->
<g id="node10" class="node"><title>Node10</title>
<g id="a_node10"><a xlink:title=" ">
<polygon fill="white" stroke="#bfbfbf" points="404.5,-535 404.5,-592 466.5,-592 466.5,-535 404.5,-535"/>
<text text-anchor="middle" x="435.5" y="-580" font-family="Helvetica,sans-Serif" font-size="10.00">ByteBuffer</text>
<polyline fill="none" stroke="#bfbfbf" points="404.5,-573 466.5,-573 "/>
<text text-anchor="middle" x="435.5" y="-561" font-family="Helvetica,sans-Serif" font-size="10.00"> </text>
<polyline fill="none" stroke="#bfbfbf" points="404.5,-554 466.5,-554 "/>
<text text-anchor="middle" x="435.5" y="-542" font-family="Helvetica,sans-Serif" font-size="10.00"> </text>
</a>
</g>
</g>
<!-- Node10&#45;&gt;Node2 -->
<g id="edge10" class="edge"><title>Node10&#45;&gt;Node2</title>
<path fill="none" stroke="#404040" d="M443.441,-534.989C451.283,-508.117 463.77,-466.108 475.5,-430 479.283,-418.354 483.331,-406.223 487.431,-394.147"/>
<polygon fill="none" stroke="#404040" points="487.495,-393.961 485.647,-386.991 491.371,-382.604 493.218,-389.575 487.495,-393.961"/>
<text text-anchor="middle" x="495" y="-404" font-family="Helvetica,sans-Serif" font-size="10.00"> &#45;bfs</text>
</g>
<!-- Node11 -->
<g id="node11" class="node"><title>Node11</title>
<g id="a_node11"><a xlink:title=" ">
<polygon fill="white" stroke="#bfbfbf" points="485,-535 485,-592 568,-592 568,-535 485,-535"/>
<text text-anchor="middle" x="526.5" y="-580" font-family="Helvetica,sans-Serif" font-size="10.00">SocketChannel</text>
<polyline fill="none" stroke="#bfbfbf" points="485,-573 568,-573 "/>
<text text-anchor="middle" x="526.5" y="-561" font-family="Helvetica,sans-Serif" font-size="10.00"> </text>
<polyline fill="none" stroke="#bfbfbf" points="485,-554 568,-554 "/>
<text text-anchor="middle" x="526.5" y="-542" font-family="Helvetica,sans-Serif" font-size="10.00"> </text>
</a>
</g>
</g>
<!-- Node11&#45;&gt;Node2 -->
<g id="edge11" class="edge"><title>Node11&#45;&gt;Node2</title>
<path fill="none" stroke="#404040" d="M526.5,-534.985C526.5,-502.34 526.5,-445.88 526.5,-394.718"/>
<polygon fill="none" stroke="#404040" points="526.5,-394.53 522.5,-388.53 526.5,-382.53 530.5,-388.53 526.5,-394.53"/>
<text text-anchor="middle" x="541.5" y="-404" font-family="Helvetica,sans-Serif" font-size="10.00"> &#45;client</text>
</g>
<!-- Node12 -->
<g id="node12" class="node"><title>Node12</title>
<g id="a_node12"><a xlink:title=" ">
<polygon fill="white" stroke="#bfbfbf" points="586,-535 586,-592 685,-592 685,-535 586,-535"/>
<text text-anchor="middle" x="635.5" y="-580" font-family="Helvetica,sans-Serif" font-size="10.00">InetSocketAddress</text>
<polyline fill="none" stroke="#bfbfbf" points="586,-573 685,-573 "/>
<text text-anchor="middle" x="635.5" y="-561" font-family="Helvetica,sans-Serif" font-size="10.00"> </text>
<polyline fill="none" stroke="#bfbfbf" points="586,-554 685,-554 "/>
<text text-anchor="middle" x="635.5" y="-542" font-family="Helvetica,sans-Serif" font-size="10.00"> </text>
</a>
</g>
</g>
<!-- Node12&#45;&gt;Node2 -->
<g id="edge12" class="edge"><title>Node12&#45;&gt;Node2</title>
<path fill="none" stroke="#404040" d="M624.75,-534.985C611.916,-502.133 589.659,-445.164 569.571,-393.747"/>
<polygon fill="none" stroke="#404040" points="569.556,-393.708 563.647,-389.575 565.189,-382.53 571.098,-386.663 569.556,-393.708"/>
<text text-anchor="middle" x="585.5" y="-404" font-family="Helvetica,sans-Serif" font-size="10.00"> &#45;udp</text>
</g>
<!-- Node13 -->
<g id="node13" class="node"><title>Node13</title>
<g id="a_node13"><a xlink:title=" ">
<polygon fill="white" stroke="#bfbfbf" points="635,-254 635,-311 724,-311 724,-254 635,-254"/>
<text text-anchor="middle" x="679.5" y="-299" font-family="Helvetica,sans-Serif" font-size="10.00">Vector&lt; String &gt;</text>
<polyline fill="none" stroke="#bfbfbf" points="635,-292 724,-292 "/>
<text text-anchor="middle" x="679.5" y="-280" font-family="Helvetica,sans-Serif" font-size="10.00"> </text>
<polyline fill="none" stroke="#bfbfbf" points="635,-273 724,-273 "/>
<text text-anchor="middle" x="679.5" y="-261" font-family="Helvetica,sans-Serif" font-size="10.00"> </text>
</a>
</g>
</g>
<!-- Node13&#45;&gt;Node1 -->
<g id="edge13" class="edge"><title>Node13&#45;&gt;Node1</title>
<path fill="none" stroke="#404040" d="M671.395,-253.654C663.516,-226.587 651.18,-184.207 640.297,-146.819"/>
<polygon fill="none" stroke="#404040" points="640.176,-146.404 634.659,-141.761 636.822,-134.882 642.34,-139.525 640.176,-146.404"/>
<text text-anchor="middle" x="656.5" y="-156" font-family="Helvetica,sans-Serif" font-size="10.00"> &#45;ans</text>
</g>
<!-- Node14 -->
<g id="node14" class="node"><title>Node14</title>
<g id="a_node14"><a xlink:title=" ">
<polygon fill="white" stroke="#bfbfbf" points="703,-535 703,-592 748,-592 748,-535 703,-535"/>
<text text-anchor="middle" x="725.5" y="-580" font-family="Helvetica,sans-Serif" font-size="10.00">Vector</text>
<polyline fill="none" stroke="#bfbfbf" points="703,-573 748,-573 "/>
<text text-anchor="middle" x="725.5" y="-561" font-family="Helvetica,sans-Serif" font-size="10.00"> </text>
<polyline fill="none" stroke="#bfbfbf" points="703,-554 748,-554 "/>
<text text-anchor="middle" x="725.5" y="-542" font-family="Helvetica,sans-Serif" font-size="10.00"> </text>
</a>
</g>
</g>
<!-- Node14&#45;&gt;Node13 -->
<g id="edge14" class="edge"><title>Node14&#45;&gt;Node13</title>
<path fill="none" stroke="orange" d="M719.314,-524.979C709.946,-468.161 692.375,-361.59 684.071,-311.221"/>
<polygon fill="orange" stroke="orange" points="715.883,-525.687 720.963,-534.985 722.79,-524.549 715.883,-525.687"/>
<text text-anchor="middle" x="724" y="-404" font-family="Helvetica,sans-Serif" font-size="10.00"> &lt; String &gt;</text>
</g>
</g>
</svg>
