<?xml version="1.0" encoding="UTF-8" standalone="no"?>
<!DOCTYPE svg PUBLIC "-//W3C//DTD SVG 1.1//EN"
 "http://www.w3.org/Graphics/SVG/1.1/DTD/svg11.dtd">
<!-- Generated by graphviz version 2.38.0 (20140413.2041)
 -->
<!-- Title: WordQuizzle.WQCli.help Pages: 1 -->
<svg width="312pt" height="390pt"
 viewBox="0.00 0.00 312.00 389.50" xmlns="http://www.w3.org/2000/svg" xmlns:xlink="http://www.w3.org/1999/xlink">
<g id="graph0" class="graph" transform="scale(1 1) rotate(0) translate(4 385.5)">
<title>WordQuizzle.WQCli.help</title>
<polygon fill="white" stroke="none" points="-4,4 -4,-385.5 308,-385.5 308,4 -4,4"/>
<!-- Node1 -->
<g id="node1" class="node"><title>Node1</title>
<g id="a_node1"><a xlink:title=" ">
<polygon fill="#bfbfbf" stroke="black" points="0,-181.5 0,-200.5 125,-200.5 125,-181.5 0,-181.5"/>
<text text-anchor="middle" x="62.5" y="-188.5" font-family="Helvetica,sans-Serif" font-size="10.00">WordQuizzle.WQCli.help</text>
</a>
</g>
</g>
<!-- Node2 -->
<g id="node2" class="node"><title>Node2</title>
<g id="a_node2"><a xlink:href="class_word_quizzle_1_1_w_q_cli.html#a423482396d62407941b62b92f4a25732" target="_top" xlink:title=" ">
<polygon fill="white" stroke="black" points="161,-351 161,-381 304,-381 304,-351 161,-351"/>
<text text-anchor="start" x="169" y="-369" font-family="Helvetica,sans-Serif" font-size="10.00">WordQuizzle.WQCli.aggiungi</text>
<text text-anchor="middle" x="232.5" y="-358" font-family="Helvetica,sans-Serif" font-size="10.00">_amico</text>
</a>
</g>
</g>
<!-- Node1&#45;&gt;Node2 -->
<g id="edge1" class="edge"><title>Node1&#45;&gt;Node2</title>
<path fill="none" stroke="midnightblue" d="M67.1015,-200.723C77.4479,-227.34 109.835,-302.062 161,-342 162.78,-343.39 164.646,-344.702 166.577,-345.94"/>
<polygon fill="midnightblue" stroke="midnightblue" points="164.97,-349.051 175.401,-350.909 168.405,-342.952 164.97,-349.051"/>
</g>
<!-- Node3 -->
<g id="node3" class="node"><title>Node3</title>
<g id="a_node3"><a xlink:href="class_word_quizzle_1_1_w_q_cli.html#a0637563fc8b57e7e5d7bc623be3047e9" target="_top" xlink:title=" ">
<polygon fill="white" stroke="black" points="170,-302 170,-332 295,-332 295,-302 170,-302"/>
<text text-anchor="start" x="178" y="-320" font-family="Helvetica,sans-Serif" font-size="10.00">WordQuizzle.WQCli.lista</text>
<text text-anchor="middle" x="232.5" y="-309" font-family="Helvetica,sans-Serif" font-size="10.00">_amici</text>
</a>
</g>
</g>
<!-- Node1&#45;&gt;Node3 -->
<g id="edge2" class="edge"><title>Node1&#45;&gt;Node3</title>
<path fill="none" stroke="midnightblue" d="M70.4375,-200.783C85.0187,-220.677 120.832,-266.146 161,-292 164.133,-294.016 167.448,-295.895 170.867,-297.641"/>
<polygon fill="midnightblue" stroke="midnightblue" points="169.56,-300.893 180.102,-301.957 172.524,-294.552 169.56,-300.893"/>
</g>
<!-- Node4 -->
<g id="node4" class="node"><title>Node4</title>
<g id="a_node4"><a xlink:href="class_word_quizzle_1_1_w_q_cli.html#a5be21ae4cfdcdae806ff4a935f0799fd" target="_top" xlink:title=" ">
<polygon fill="white" stroke="black" points="168.5,-263.5 168.5,-282.5 296.5,-282.5 296.5,-263.5 168.5,-263.5"/>
<text text-anchor="middle" x="232.5" y="-270.5" font-family="Helvetica,sans-Serif" font-size="10.00">WordQuizzle.WQCli.login</text>
</a>
</g>
</g>
<!-- Node1&#45;&gt;Node4 -->
<g id="edge3" class="edge"><title>Node1&#45;&gt;Node4</title>
<path fill="none" stroke="midnightblue" d="M75.71,-200.692C93.503,-214.381 128.038,-239.341 161,-254 166.342,-256.376 172.048,-258.512 177.813,-260.419"/>
<polygon fill="midnightblue" stroke="midnightblue" points="176.93,-263.809 187.518,-263.411 178.993,-257.12 176.93,-263.809"/>
</g>
<!-- Node5 -->
<g id="node5" class="node"><title>Node5</title>
<g id="a_node5"><a xlink:href="class_word_quizzle_1_1_w_q_cli.html#a09b72dba431b9d164cc07cdbd58053df" target="_top" xlink:title=" ">
<polygon fill="white" stroke="black" points="165.5,-225.5 165.5,-244.5 299.5,-244.5 299.5,-225.5 165.5,-225.5"/>
<text text-anchor="middle" x="232.5" y="-232.5" font-family="Helvetica,sans-Serif" font-size="10.00">WordQuizzle.WQCli.logout</text>
</a>
</g>
</g>
<!-- Node1&#45;&gt;Node5 -->
<g id="edge4" class="edge"><title>Node1&#45;&gt;Node5</title>
<path fill="none" stroke="midnightblue" d="M99.9535,-200.547C124.941,-207.092 158.297,-215.828 185.168,-222.865"/>
<polygon fill="midnightblue" stroke="midnightblue" points="184.557,-226.323 195.118,-225.471 186.331,-219.552 184.557,-226.323"/>
</g>
<!-- Node6 -->
<g id="node6" class="node"><title>Node6</title>
<g id="a_node6"><a xlink:href="class_word_quizzle_1_1_w_q_cli.html#a147c086aad7a54c6162cea04f4a5cea8" target="_top" xlink:title=" ">
<polygon fill="white" stroke="black" points="164,-176 164,-206 301,-206 301,-176 164,-176"/>
<text text-anchor="start" x="172" y="-194" font-family="Helvetica,sans-Serif" font-size="10.00">WordQuizzle.WQCli.mostra</text>
<text text-anchor="middle" x="232.5" y="-183" font-family="Helvetica,sans-Serif" font-size="10.00">_classifica</text>
</a>
</g>
</g>
<!-- Node1&#45;&gt;Node6 -->
<g id="edge5" class="edge"><title>Node1&#45;&gt;Node6</title>
<path fill="none" stroke="midnightblue" d="M125.103,-191C134.486,-191 144.271,-191 153.942,-191"/>
<polygon fill="midnightblue" stroke="midnightblue" points="153.957,-194.5 163.957,-191 153.956,-187.5 153.957,-194.5"/>
</g>
<!-- Node7 -->
<g id="node7" class="node"><title>Node7</title>
<g id="a_node7"><a xlink:href="class_word_quizzle_1_1_w_q_cli.html#a10b2156f5c561a889f7feec6cb7bbacc" target="_top" xlink:title=" ">
<polygon fill="white" stroke="black" points="164,-127 164,-157 301,-157 301,-127 164,-127"/>
<text text-anchor="start" x="172" y="-145" font-family="Helvetica,sans-Serif" font-size="10.00">WordQuizzle.WQCli.mostra</text>
<text text-anchor="middle" x="232.5" y="-134" font-family="Helvetica,sans-Serif" font-size="10.00">_punteggio</text>
</a>
</g>
</g>
<!-- Node1&#45;&gt;Node7 -->
<g id="edge6" class="edge"><title>Node1&#45;&gt;Node7</title>
<path fill="none" stroke="midnightblue" d="M96.2909,-181.436C117.282,-175.314 145.171,-167.179 170.167,-159.889"/>
<polygon fill="midnightblue" stroke="midnightblue" points="171.325,-163.197 179.945,-157.037 169.365,-156.477 171.325,-163.197"/>
</g>
<!-- Node8 -->
<g id="node8" class="node"><title>Node8</title>
<g id="a_node8"><a xlink:href="class_word_quizzle_1_1_w_q_cli.html#a07609480f2f51587119199d616ce5ee2" target="_top" xlink:title=" ">
<polygon fill="white" stroke="black" points="171,-88.5 171,-107.5 294,-107.5 294,-88.5 171,-88.5"/>
<text text-anchor="middle" x="232.5" y="-95.5" font-family="Helvetica,sans-Serif" font-size="10.00">WordQuizzle.WQCli.quit</text>
</a>
</g>
</g>
<!-- Node1&#45;&gt;Node8 -->
<g id="edge7" class="edge"><title>Node1&#45;&gt;Node8</title>
<path fill="none" stroke="midnightblue" d="M73.7483,-181.273C90.6344,-165.748 125.939,-135.351 161,-118 166.612,-115.223 172.672,-112.774 178.801,-110.63"/>
<polygon fill="midnightblue" stroke="midnightblue" points="179.999,-113.921 188.433,-107.509 177.841,-107.262 179.999,-113.921"/>
</g>
<!-- Node9 -->
<g id="node9" class="node"><title>Node9</title>
<g id="a_node9"><a xlink:href="class_word_quizzle_1_1_w_q_cli.html#a65cec1c9b0f47f1996351f0fd40f9c4c" target="_top" xlink:title=" ">
<polygon fill="white" stroke="black" points="162.5,-39 162.5,-69 302.5,-69 302.5,-39 162.5,-39"/>
<text text-anchor="start" x="170.5" y="-57" font-family="Helvetica,sans-Serif" font-size="10.00">WordQuizzle.WQCli.registra</text>
<text text-anchor="middle" x="232.5" y="-46" font-family="Helvetica,sans-Serif" font-size="10.00">_utente</text>
</a>
</g>
</g>
<!-- Node1&#45;&gt;Node9 -->
<g id="edge8" class="edge"><title>Node1&#45;&gt;Node9</title>
<path fill="none" stroke="midnightblue" d="M69.3367,-181.431C82.8431,-160.052 118.377,-108.012 161,-79 163.878,-77.0407 166.927,-75.2176 170.079,-73.5237"/>
<polygon fill="midnightblue" stroke="midnightblue" points="171.725,-76.615 179.179,-69.0858 168.657,-70.3233 171.725,-76.615"/>
</g>
<!-- Node10 -->
<g id="node10" class="node"><title>Node10</title>
<g id="a_node10"><a xlink:href="class_word_quizzle_1_1_w_q_cli.html#abf6a8e25f47e24745e96260127cf9b71" target="_top" xlink:title=" ">
<polygon fill="white" stroke="black" points="168.5,-0.5 168.5,-19.5 296.5,-19.5 296.5,-0.5 168.5,-0.5"/>
<text text-anchor="middle" x="232.5" y="-7.5" font-family="Helvetica,sans-Serif" font-size="10.00">WordQuizzle.WQCli.sfida</text>
</a>
</g>
</g>
<!-- Node1&#45;&gt;Node10 -->
<g id="edge9" class="edge"><title>Node1&#45;&gt;Node10</title>
<path fill="none" stroke="midnightblue" d="M66.5267,-181.303C75.7789,-153.29 106.427,-71.6031 161,-30 164.01,-27.7053 167.273,-25.6739 170.688,-23.8755"/>
<polygon fill="midnightblue" stroke="midnightblue" points="172.361,-26.9599 180.019,-19.6386 169.467,-20.5862 172.361,-26.9599"/>
</g>
</g>
</svg>
