<?xml version="1.0" encoding="UTF-8" standalone="no"?>
<!DOCTYPE svg PUBLIC "-//W3C//DTD SVG 1.1//EN"
 "http://www.w3.org/Graphics/SVG/1.1/DTD/svg11.dtd">
<!-- Generated by graphviz version 2.38.0 (20140413.2041)
 -->
<!-- Title: WordQuizzle.WordQuizzleServer Pages: 1 -->
<svg width="717pt" height="634pt"
 viewBox="0.00 0.00 717.00 634.00" xmlns="http://www.w3.org/2000/svg" xmlns:xlink="http://www.w3.org/1999/xlink">
<g id="graph0" class="graph" transform="scale(1 1) rotate(0) translate(4 630)">
<title>WordQuizzle.WordQuizzleServer</title>
<polygon fill="white" stroke="none" points="-4,4 -4,-630 713,-630 713,4 -4,4"/>
<!-- Node1 -->
<g id="node1" class="node"><title>Node1</title>
<g id="a_node1"><a xlink:title=" ">
<polygon fill="#bfbfbf" stroke="black" points="169.5,-0.5 169.5,-79.5 328.5,-79.5 328.5,-0.5 169.5,-0.5"/>
<text text-anchor="middle" x="249" y="-67.5" font-family="Helvetica,sans-Serif" font-size="10.00">WordQuizzle.WordQuizzleServer</text>
<polyline fill="none" stroke="black" points="169.5,-60.5 328.5,-60.5 "/>
<text text-anchor="middle" x="249" y="-48.5" font-family="Helvetica,sans-Serif" font-size="10.00"> </text>
<polyline fill="none" stroke="black" points="169.5,-41.5 328.5,-41.5 "/>
<text text-anchor="start" x="177.5" y="-29.5" font-family="Helvetica,sans-Serif" font-size="10.00">+ WordQuizzleServer()</text>
<text text-anchor="start" x="177.5" y="-18.5" font-family="Helvetica,sans-Serif" font-size="10.00">+ run()</text>
<text text-anchor="start" x="177.5" y="-7.5" font-family="Helvetica,sans-Serif" font-size="10.00">+ main()</text>
</a>
</g>
</g>
<!-- Node2 -->
<g id="node2" class="node"><title>Node2</title>
<g id="a_node2"><a xlink:title=" ">
<polygon fill="white" stroke="#bfbfbf" points="94,-204.5 94,-261.5 204,-261.5 204,-204.5 94,-204.5"/>
<text text-anchor="middle" x="149" y="-249.5" font-family="Helvetica,sans-Serif" font-size="10.00">ServerSocketChannel</text>
<polyline fill="none" stroke="#bfbfbf" points="94,-242.5 204,-242.5 "/>
<text text-anchor="middle" x="149" y="-230.5" font-family="Helvetica,sans-Serif" font-size="10.00"> </text>
<polyline fill="none" stroke="#bfbfbf" points="94,-223.5 204,-223.5 "/>
<text text-anchor="middle" x="149" y="-211.5" font-family="Helvetica,sans-Serif" font-size="10.00"> </text>
</a>
</g>
</g>
<!-- Node2&#45;&gt;Node1 -->
<g id="edge1" class="edge"><title>Node2&#45;&gt;Node1</title>
<path fill="none" stroke="#404040" d="M161.069,-204.32C173.297,-176.886 193.188,-133.886 213,-98 214.46,-95.3551 215.992,-92.6641 217.566,-89.9632"/>
<polygon fill="none" stroke="#404040" points="217.622,-89.8697 217.271,-82.6671 223.784,-79.5729 224.135,-86.7755 217.622,-89.8697"/>
<text text-anchor="middle" x="229" y="-101" font-family="Helvetica,sans-Serif" font-size="10.00"> &#45;server</text>
</g>
<!-- Node3 -->
<g id="node3" class="node"><title>Node3</title>
<g id="a_node3"><a xlink:title=" ">
<polygon fill="white" stroke="#bfbfbf" points="222.5,-204.5 222.5,-261.5 275.5,-261.5 275.5,-204.5 222.5,-204.5"/>
<text text-anchor="middle" x="249" y="-249.5" font-family="Helvetica,sans-Serif" font-size="10.00">Selector</text>
<polyline fill="none" stroke="#bfbfbf" points="222.5,-242.5 275.5,-242.5 "/>
<text text-anchor="middle" x="249" y="-230.5" font-family="Helvetica,sans-Serif" font-size="10.00"> </text>
<polyline fill="none" stroke="#bfbfbf" points="222.5,-223.5 275.5,-223.5 "/>
<text text-anchor="middle" x="249" y="-211.5" font-family="Helvetica,sans-Serif" font-size="10.00"> </text>
</a>
</g>
</g>
<!-- Node3&#45;&gt;Node1 -->
<g id="edge2" class="edge"><title>Node3&#45;&gt;Node1</title>
<path fill="none" stroke="#404040" d="M249,-204.227C249,-174.888 249,-127.979 249,-91.9617"/>
<polygon fill="none" stroke="#404040" points="249,-91.7227 245,-85.7227 249,-79.7227 253,-85.7227 249,-91.7227"/>
<text text-anchor="middle" x="269.5" y="-101" font-family="Helvetica,sans-Serif" font-size="10.00"> &#45;selector</text>
</g>
<!-- Node4 -->
<g id="node4" class="node"><title>Node4</title>
<g id="a_node4"><a xlink:href="class_word_quizzle_1_1_word_quizzle_server_service.html" target="_top" xlink:title=" ">
<polygon fill="white" stroke="black" points="293.5,-127.5 293.5,-338.5 452.5,-338.5 452.5,-127.5 293.5,-127.5"/>
<text text-anchor="start" x="301.5" y="-326.5" font-family="Helvetica,sans-Serif" font-size="10.00">WordQuizzle.WordQuizzleServer</text>
<text text-anchor="middle" x="373" y="-315.5" font-family="Helvetica,sans-Serif" font-size="10.00">Service</text>
<polyline fill="none" stroke="black" points="293.5,-308.5 452.5,-308.5 "/>
<text text-anchor="start" x="301.5" y="-296.5" font-family="Helvetica,sans-Serif" font-size="10.00">&#45; K</text>
<text text-anchor="start" x="301.5" y="-285.5" font-family="Helvetica,sans-Serif" font-size="10.00">&#45; T1</text>
<text text-anchor="start" x="301.5" y="-274.5" font-family="Helvetica,sans-Serif" font-size="10.00">&#45; T2</text>
<text text-anchor="start" x="301.5" y="-263.5" font-family="Helvetica,sans-Serif" font-size="10.00">&#45; X</text>
<text text-anchor="start" x="301.5" y="-252.5" font-family="Helvetica,sans-Serif" font-size="10.00">&#45; Y</text>
<text text-anchor="start" x="301.5" y="-241.5" font-family="Helvetica,sans-Serif" font-size="10.00">&#45; Z</text>
<polyline fill="none" stroke="black" points="293.5,-234.5 452.5,-234.5 "/>
<text text-anchor="start" x="301.5" y="-222.5" font-family="Helvetica,sans-Serif" font-size="10.00">+ WordQuizzleServerService()</text>
<text text-anchor="start" x="301.5" y="-211.5" font-family="Helvetica,sans-Serif" font-size="10.00">+ login()</text>
<text text-anchor="start" x="301.5" y="-200.5" font-family="Helvetica,sans-Serif" font-size="10.00">+ logout()</text>
<text text-anchor="start" x="301.5" y="-189.5" font-family="Helvetica,sans-Serif" font-size="10.00">+ aggiungi_amico()</text>
<text text-anchor="start" x="301.5" y="-178.5" font-family="Helvetica,sans-Serif" font-size="10.00">+ lista_amici()</text>
<text text-anchor="start" x="301.5" y="-167.5" font-family="Helvetica,sans-Serif" font-size="10.00">+ mostra_punteggio()</text>
<text text-anchor="start" x="301.5" y="-156.5" font-family="Helvetica,sans-Serif" font-size="10.00">+ mostra_classifica()</text>
<text text-anchor="start" x="301.5" y="-145.5" font-family="Helvetica,sans-Serif" font-size="10.00">+ sfida()</text>
<text text-anchor="start" x="301.5" y="-134.5" font-family="Helvetica,sans-Serif" font-size="10.00">+ accettaSfida()</text>
</a>
</g>
</g>
<!-- Node4&#45;&gt;Node1 -->
<g id="edge3" class="edge"><title>Node4&#45;&gt;Node1</title>
<path fill="none" stroke="#404040" d="M313.117,-127.255C306.842,-117.252 300.409,-107.358 294,-98 292.063,-95.1719 290.03,-92.3015 287.943,-89.4299"/>
<polygon fill="none" stroke="#404040" points="287.876,-89.3399 281.082,-86.9218 280.702,-79.7207 287.495,-82.1388 287.876,-89.3399"/>
<text text-anchor="middle" x="311.5" y="-101" font-family="Helvetica,sans-Serif" font-size="10.00"> &#45;wq</text>
</g>
<!-- Node5 -->
<g id="node5" class="node"><title>Node5</title>
<g id="a_node5"><a xlink:href="interface_word_quizzle_1_1_word_quizzle_service.html" target="_top" xlink:title=" ">
<polygon fill="white" stroke="black" points="0,-386.5 0,-520.5 164,-520.5 164,-386.5 0,-386.5"/>
<text text-anchor="middle" x="82" y="-508.5" font-family="Helvetica,sans-Serif" font-size="10.00">WordQuizzle.WordQuizzleService</text>
<polyline fill="none" stroke="black" points="0,-501.5 164,-501.5 "/>
<text text-anchor="middle" x="82" y="-489.5" font-family="Helvetica,sans-Serif" font-size="10.00"> </text>
<polyline fill="none" stroke="black" points="0,-482.5 164,-482.5 "/>
<text text-anchor="start" x="8" y="-470.5" font-family="Helvetica,sans-Serif" font-size="10.00">+ login()</text>
<text text-anchor="start" x="8" y="-459.5" font-family="Helvetica,sans-Serif" font-size="10.00">+ logout()</text>
<text text-anchor="start" x="8" y="-448.5" font-family="Helvetica,sans-Serif" font-size="10.00">+ aggiungi_amico()</text>
<text text-anchor="start" x="8" y="-437.5" font-family="Helvetica,sans-Serif" font-size="10.00">+ sfida()</text>
<text text-anchor="start" x="8" y="-426.5" font-family="Helvetica,sans-Serif" font-size="10.00">+ lista_amici()</text>
<text text-anchor="start" x="8" y="-415.5" font-family="Helvetica,sans-Serif" font-size="10.00">+ mostra_punteggio()</text>
<text text-anchor="start" x="8" y="-404.5" font-family="Helvetica,sans-Serif" font-size="10.00">+ mostra_classifica()</text>
<text text-anchor="start" x="8" y="-393.5" font-family="Helvetica,sans-Serif" font-size="10.00">+ accettaSfida()</text>
</a>
</g>
</g>
<!-- Node5&#45;&gt;Node4 -->
<g id="edge4" class="edge"><title>Node5&#45;&gt;Node4</title>
<path fill="none" stroke="midnightblue" d="M172.721,-386.159C172.814,-386.106 172.907,-386.053 173,-386 219.603,-359.576 240.841,-370.74 284,-339 287.176,-336.664 290.313,-334.193 293.402,-331.614"/>
<polygon fill="none" stroke="midnightblue" points="170.861,-383.192 164.026,-391.288 174.417,-389.221 170.861,-383.192"/>
</g>
<!-- Node6 -->
<g id="node6" class="node"><title>Node6</title>
<g id="a_node6"><a xlink:title=" ">
<polygon fill="white" stroke="#bfbfbf" points="182.5,-425 182.5,-482 271.5,-482 271.5,-425 182.5,-425"/>
<text text-anchor="middle" x="227" y="-470" font-family="Helvetica,sans-Serif" font-size="10.00">DatagramSocket</text>
<polyline fill="none" stroke="#bfbfbf" points="182.5,-463 271.5,-463 "/>
<text text-anchor="middle" x="227" y="-451" font-family="Helvetica,sans-Serif" font-size="10.00"> </text>
<polyline fill="none" stroke="#bfbfbf" points="182.5,-444 271.5,-444 "/>
<text text-anchor="middle" x="227" y="-432" font-family="Helvetica,sans-Serif" font-size="10.00"> </text>
</a>
</g>
</g>
<!-- Node6&#45;&gt;Node4 -->
<g id="edge5" class="edge"><title>Node6&#45;&gt;Node4</title>
<path fill="none" stroke="#404040" d="M245.491,-424.827C258.67,-405.104 277.355,-377.14 296.369,-348.684"/>
<polygon fill="none" stroke="#404040" points="296.433,-348.588 296.441,-341.377 303.1,-338.61 303.093,-345.821 296.433,-348.588"/>
<text text-anchor="middle" x="305" y="-360" font-family="Helvetica,sans-Serif" font-size="10.00"> &#45;socket</text>
</g>
<!-- Node7 -->
<g id="node7" class="node"><title>Node7</title>
<g id="a_node7"><a xlink:title=" ">
<polygon fill="white" stroke="#bfbfbf" points="289.5,-425 289.5,-482 456.5,-482 456.5,-425 289.5,-425"/>
<text text-anchor="middle" x="373" y="-470" font-family="Helvetica,sans-Serif" font-size="10.00">Map&lt; String, InetSocketAddress &gt;</text>
<polyline fill="none" stroke="#bfbfbf" points="289.5,-463 456.5,-463 "/>
<text text-anchor="middle" x="373" y="-451" font-family="Helvetica,sans-Serif" font-size="10.00"> </text>
<polyline fill="none" stroke="#bfbfbf" points="289.5,-444 456.5,-444 "/>
<text text-anchor="middle" x="373" y="-432" font-family="Helvetica,sans-Serif" font-size="10.00"> </text>
</a>
</g>
</g>
<!-- Node7&#45;&gt;Node4 -->
<g id="edge6" class="edge"><title>Node7&#45;&gt;Node4</title>
<path fill="none" stroke="#404040" d="M373,-424.827C373,-405.621 373,-378.6 373,-350.919"/>
<polygon fill="none" stroke="#404040" points="373,-350.61 369,-344.61 373,-338.61 377,-344.61 373,-350.61"/>
<text text-anchor="middle" x="388.5" y="-360" font-family="Helvetica,sans-Serif" font-size="10.00"> &#45;users</text>
</g>
<!-- Node8 -->
<g id="node8" class="node"><title>Node8</title>
<g id="a_node8"><a xlink:title=" ">
<polygon fill="white" stroke="#bfbfbf" points="355.5,-568.5 355.5,-625.5 390.5,-625.5 390.5,-568.5 355.5,-568.5"/>
<text text-anchor="middle" x="373" y="-613.5" font-family="Helvetica,sans-Serif" font-size="10.00">Map</text>
<polyline fill="none" stroke="#bfbfbf" points="355.5,-606.5 390.5,-606.5 "/>
<text text-anchor="middle" x="373" y="-594.5" font-family="Helvetica,sans-Serif" font-size="10.00"> </text>
<polyline fill="none" stroke="#bfbfbf" points="355.5,-587.5 390.5,-587.5 "/>
<text text-anchor="middle" x="373" y="-575.5" font-family="Helvetica,sans-Serif" font-size="10.00"> </text>
</a>
</g>
</g>
<!-- Node8&#45;&gt;Node7 -->
<g id="edge7" class="edge"><title>Node8&#45;&gt;Node7</title>
<path fill="none" stroke="orange" d="M373,-558.213C373,-534.234 373,-503.749 373,-482.049"/>
<polygon fill="orange" stroke="orange" points="369.5,-558.381 373,-568.381 376.5,-558.382 369.5,-558.381"/>
<text text-anchor="middle" x="441" y="-542" font-family="Helvetica,sans-Serif" font-size="10.00"> &lt; String, InetSocketAddress &gt;</text>
</g>
<!-- Node9 -->
<g id="node9" class="node"><title>Node9</title>
<g id="a_node9"><a xlink:href="interface_word_quizzle_1_1_data_base.html" target="_top" xlink:title="Database che gestisce gli utenti.">
<polygon fill="white" stroke="black" points="474.5,-403 474.5,-504 593.5,-504 593.5,-403 474.5,-403"/>
<text text-anchor="middle" x="534" y="-492" font-family="Helvetica,sans-Serif" font-size="10.00">WordQuizzle.DataBase</text>
<polyline fill="none" stroke="black" points="474.5,-485 593.5,-485 "/>
<text text-anchor="middle" x="534" y="-473" font-family="Helvetica,sans-Serif" font-size="10.00"> </text>
<polyline fill="none" stroke="black" points="474.5,-466 593.5,-466 "/>
<text text-anchor="start" x="482.5" y="-454" font-family="Helvetica,sans-Serif" font-size="10.00">+ checkUser()</text>
<text text-anchor="start" x="482.5" y="-443" font-family="Helvetica,sans-Serif" font-size="10.00">+ getUser()</text>
<text text-anchor="start" x="482.5" y="-432" font-family="Helvetica,sans-Serif" font-size="10.00">+ newUser()</text>
<text text-anchor="start" x="482.5" y="-421" font-family="Helvetica,sans-Serif" font-size="10.00">+ modifyScore()</text>
<text text-anchor="start" x="482.5" y="-410" font-family="Helvetica,sans-Serif" font-size="10.00">+ link()</text>
</a>
</g>
</g>
<!-- Node9&#45;&gt;Node4 -->
<g id="edge8" class="edge"><title>Node9&#45;&gt;Node4</title>
<path fill="none" stroke="#404040" d="M497.467,-402.919C485.403,-386.547 471.438,-367.595 457.317,-348.431"/>
<polygon fill="none" stroke="#404040" points="457.273,-348.371 450.494,-345.913 450.155,-338.71 456.934,-341.168 457.273,-348.371"/>
<text text-anchor="middle" x="475.5" y="-360" font-family="Helvetica,sans-Serif" font-size="10.00"> &#45;db</text>
</g>
<!-- Node10 -->
<g id="node10" class="node"><title>Node10</title>
<g id="a_node10"><a xlink:title=" ">
<polygon fill="white" stroke="#bfbfbf" points="612,-425 612,-482 704,-482 704,-425 612,-425"/>
<text text-anchor="middle" x="658" y="-470" font-family="Helvetica,sans-Serif" font-size="10.00">Vector&lt; Integer &gt;</text>
<polyline fill="none" stroke="#bfbfbf" points="612,-463 704,-463 "/>
<text text-anchor="middle" x="658" y="-451" font-family="Helvetica,sans-Serif" font-size="10.00"> </text>
<polyline fill="none" stroke="#bfbfbf" points="612,-444 704,-444 "/>
<text text-anchor="middle" x="658" y="-432" font-family="Helvetica,sans-Serif" font-size="10.00"> </text>
</a>
</g>
</g>
<!-- Node10&#45;&gt;Node4 -->
<g id="edge9" class="edge"><title>Node10&#45;&gt;Node4</title>
<path fill="none" stroke="#404040" d="M637.99,-424.681C628.218,-412.103 615.817,-397.514 603,-386 560.477,-347.802 507.574,-312.164 463.23,-285.01"/>
<polygon fill="none" stroke="#404040" points="462.999,-284.87 455.795,-285.178 452.74,-278.646 459.944,-278.338 462.999,-284.87"/>
<text text-anchor="middle" x="606.5" y="-360" font-family="Helvetica,sans-Serif" font-size="10.00"> &#45;challenges</text>
</g>
<!-- Node11 -->
<g id="node11" class="node"><title>Node11</title>
<g id="a_node11"><a xlink:title=" ">
<polygon fill="white" stroke="#bfbfbf" points="635.5,-568.5 635.5,-625.5 680.5,-625.5 680.5,-568.5 635.5,-568.5"/>
<text text-anchor="middle" x="658" y="-613.5" font-family="Helvetica,sans-Serif" font-size="10.00">Vector</text>
<polyline fill="none" stroke="#bfbfbf" points="635.5,-606.5 680.5,-606.5 "/>
<text text-anchor="middle" x="658" y="-594.5" font-family="Helvetica,sans-Serif" font-size="10.00"> </text>
<polyline fill="none" stroke="#bfbfbf" points="635.5,-587.5 680.5,-587.5 "/>
<text text-anchor="middle" x="658" y="-575.5" font-family="Helvetica,sans-Serif" font-size="10.00"> </text>
</a>
</g>
</g>
<!-- Node11&#45;&gt;Node10 -->
<g id="edge10" class="edge"><title>Node11&#45;&gt;Node10</title>
<path fill="none" stroke="orange" d="M658,-558.213C658,-534.234 658,-503.749 658,-482.049"/>
<polygon fill="orange" stroke="orange" points="654.5,-558.381 658,-568.381 661.5,-558.382 654.5,-558.381"/>
<text text-anchor="middle" x="683.5" y="-542" font-family="Helvetica,sans-Serif" font-size="10.00"> &lt; Integer &gt;</text>
</g>
</g>
</svg>
