<?xml version="1.0" encoding="UTF-8" standalone="no"?>
<!DOCTYPE svg PUBLIC "-//W3C//DTD SVG 1.1//EN"
 "http://www.w3.org/Graphics/SVG/1.1/DTD/svg11.dtd">
<!-- Generated by graphviz version 2.38.0 (20140413.2041)
 -->
<!-- Title: WordQuizzle.Challenge Pages: 1 -->
<!--zoomable 1353 -->
<svg id="main" version="1.1" xmlns="http://www.w3.org/2000/svg" xmlns:xlink="http://www.w3.org/1999/xlink" xml:space="preserve" onload="init(evt)">
<style type="text/css"><![CDATA[
.edge:hover path { stroke: red; }
.edge:hover polygon { stroke: red; fill: red; }
]]></style>
<script type="text/javascript"><![CDATA[
var edges = document.getElementsByTagName('g');
if (edges && edges.length) {
  for (var i=0;i<edges.length;i++) {
    if (edges[i].id.substr(0,4)=='edge') {
      edges[i].setAttribute('class','edge');
    }
  }
}
]]></script>
        <defs>
                <circle id="rim" cx="0" cy="0" r="7"/>
                <circle id="rim2" cx="0" cy="0" r="3.5"/>
                <g id="zoomPlus">
                        <use xlink:href="#rim" fill="#404040">
                                <set attributeName="fill" to="#808080" begin="zoomplus.mouseover" end="zoomplus.mouseout"/>
                        </use>
                        <path d="M-4,0h8M0,-4v8" fill="none" stroke="white" stroke-width="1.5" pointer-events="none"/>
                </g>
                <g id="zoomMin">
                        <use xlink:href="#rim" fill="#404040">
                                <set attributeName="fill" to="#808080" begin="zoomminus.mouseover" end="zoomminus.mouseout"/>
                        </use>
                        <path d="M-4,0h8" fill="none" stroke="white" stroke-width="1.5" pointer-events="none"/>
                </g>
                <g id="dirArrow">
                        <path fill="none" stroke="white" stroke-width="1.5" d="M0,-3.0v7 M-2.5,-0.5L0,-3.0L2.5,-0.5"/>
                </g>
               <g id="resetDef">
                       <use xlink:href="#rim2" fill="#404040">
                               <set attributeName="fill" to="#808080" begin="reset.mouseover" end="reset.mouseout"/>
                       </use>
               </g>
        </defs>

<script type="text/javascript">
var viewWidth = 730;
var viewHeight = 1353;
var sectionId = 'dynsection-1';
</script>
<script xlink:href="svgpan.js"/>
<svg id="graph" class="graph">
<g id="viewport">
<title>WordQuizzle.Challenge</title>
<polygon fill="white" stroke="none" points="-4,4 -4,-1349 726,-1349 726,4 -4,4"/>
<!-- Node1 -->
<g id="node1" class="node"><title>Node1</title>
<g id="a_node1"><a xlink:title=" ">
<polygon fill="#bfbfbf" stroke="black" points="324,-0.5 324,-200.5 443,-200.5 443,-0.5 324,-0.5"/>
<text text-anchor="middle" x="383.5" y="-188.5" font-family="Helvetica,sans-Serif" font-size="10.00">WordQuizzle.Challenge</text>
<polyline fill="none" stroke="black" points="324,-181.5 443,-181.5 "/>
<text text-anchor="start" x="332" y="-169.5" font-family="Helvetica,sans-Serif" font-size="10.00">&#45; questions</text>
<text text-anchor="start" x="332" y="-158.5" font-family="Helvetica,sans-Serif" font-size="10.00">&#45; id</text>
<text text-anchor="start" x="332" y="-147.5" font-family="Helvetica,sans-Serif" font-size="10.00">&#45; startTime</text>
<text text-anchor="start" x="332" y="-136.5" font-family="Helvetica,sans-Serif" font-size="10.00">&#45; startGameTime</text>
<text text-anchor="start" x="332" y="-125.5" font-family="Helvetica,sans-Serif" font-size="10.00">&#45; nextId</text>
<polyline fill="none" stroke="black" points="324,-118.5 443,-118.5 "/>
<text text-anchor="start" x="332" y="-106.5" font-family="Helvetica,sans-Serif" font-size="10.00">+ Challenge()</text>
<text text-anchor="start" x="332" y="-95.5" font-family="Helvetica,sans-Serif" font-size="10.00">+ setPlayer2()</text>
<text text-anchor="start" x="332" y="-84.5" font-family="Helvetica,sans-Serif" font-size="10.00">+ getStartTime()</text>
<text text-anchor="start" x="332" y="-73.5" font-family="Helvetica,sans-Serif" font-size="10.00">+ getId()</text>
<text text-anchor="start" x="332" y="-62.5" font-family="Helvetica,sans-Serif" font-size="10.00">+ run()</text>
<text text-anchor="start" x="332" y="-51.5" font-family="Helvetica,sans-Serif" font-size="10.00">&#45; calculate()</text>
<text text-anchor="start" x="332" y="-40.5" font-family="Helvetica,sans-Serif" font-size="10.00">&#45; end()</text>
<text text-anchor="start" x="332" y="-29.5" font-family="Helvetica,sans-Serif" font-size="10.00">&#45; result()</text>
<text text-anchor="start" x="332" y="-18.5" font-family="Helvetica,sans-Serif" font-size="10.00">&#45; close()</text>
<text text-anchor="start" x="332" y="-7.5" font-family="Helvetica,sans-Serif" font-size="10.00">&#45; isTerminated()</text>
</a>
</g>
</g>
<!-- Node2 -->
<g id="node2" class="node"><title>Node2</title>
<g id="a_node2"><a xlink:title=" ">
<polygon fill="white" stroke="#bfbfbf" points="0,-298 0,-355 57,-355 57,-298 0,-298"/>
<text text-anchor="middle" x="28.5" y="-343" font-family="Helvetica,sans-Serif" font-size="10.00">Runnable</text>
<polyline fill="none" stroke="#bfbfbf" points="0,-336 57,-336 "/>
<text text-anchor="middle" x="28.5" y="-324" font-family="Helvetica,sans-Serif" font-size="10.00"> </text>
<polyline fill="none" stroke="#bfbfbf" points="0,-317 57,-317 "/>
<text text-anchor="middle" x="28.5" y="-305" font-family="Helvetica,sans-Serif" font-size="10.00"> </text>
</a>
</g>
</g>
<!-- Node2&#45;&gt;Node1 -->
<g id="edge1" class="edge"><title>Node2&#45;&gt;Node1</title>
<path fill="none" stroke="midnightblue" d="M35.7653,-287.594C41.8575,-265.052 52.6973,-237.365 71.5,-219 141.375,-150.753 254.699,-121.424 323.829,-109.36"/>
<polygon fill="none" stroke="midnightblue" points="32.3095,-286.987 33.2887,-297.536 39.102,-288.679 32.3095,-286.987"/>
</g>
<!-- Node3 -->
<g id="node3" class="node"><title>Node3</title>
<g id="a_node3"><a xlink:title=" ">
<polygon fill="white" stroke="#bfbfbf" points="89,-1149.5 89,-1206.5 142,-1206.5 142,-1149.5 89,-1149.5"/>
<text text-anchor="middle" x="115.5" y="-1194.5" font-family="Helvetica,sans-Serif" font-size="10.00">Selector</text>
<polyline fill="none" stroke="#bfbfbf" points="89,-1187.5 142,-1187.5 "/>
<text text-anchor="middle" x="115.5" y="-1175.5" font-family="Helvetica,sans-Serif" font-size="10.00"> </text>
<polyline fill="none" stroke="#bfbfbf" points="89,-1168.5 142,-1168.5 "/>
<text text-anchor="middle" x="115.5" y="-1156.5" font-family="Helvetica,sans-Serif" font-size="10.00"> </text>
</a>
</g>
</g>
<!-- Node3&#45;&gt;Node1 -->
<g id="edge2" class="edge"><title>Node3&#45;&gt;Node1</title>
<path fill="none" stroke="#404040" d="M110.343,-1149.34C101.765,-1100.84 85.5,-997.253 85.5,-909 85.5,-909 85.5,-909 85.5,-325.5 85.5,-212.457 224.212,-149.396 312.361,-120.735"/>
<polygon fill="none" stroke="#404040" points="312.47,-120.701 316.984,-115.077 323.911,-117.081 319.397,-122.705 312.47,-120.701"/>
<text text-anchor="middle" x="104.5" y="-591.5" font-family="Helvetica,sans-Serif" font-size="10.00"> &#45;server</text>
<text text-anchor="middle" x="104.5" y="-580.5" font-family="Helvetica,sans-Serif" font-size="10.00">&#45;selector</text>
</g>
<!-- Node9 -->
<g id="node9" class="node"><title>Node9</title>
<g id="a_node9"><a xlink:href="class_word_quizzle_1_1_word_quizzle_server_service.html" target="_top" xlink:title=" ">
<polygon fill="white" stroke="black" points="412,-736.5 412,-1079.5 571,-1079.5 571,-736.5 412,-736.5"/>
<text text-anchor="start" x="420" y="-1067.5" font-family="Helvetica,sans-Serif" font-size="10.00">WordQuizzle.WordQuizzleServer</text>
<text text-anchor="middle" x="491.5" y="-1056.5" font-family="Helvetica,sans-Serif" font-size="10.00">Service</text>
<polyline fill="none" stroke="black" points="412,-1049.5 571,-1049.5 "/>
<text text-anchor="start" x="420" y="-1037.5" font-family="Helvetica,sans-Serif" font-size="10.00">&#45; K</text>
<text text-anchor="start" x="420" y="-1026.5" font-family="Helvetica,sans-Serif" font-size="10.00">&#45; T1</text>
<text text-anchor="start" x="420" y="-1015.5" font-family="Helvetica,sans-Serif" font-size="10.00">&#45; T2</text>
<text text-anchor="start" x="420" y="-1004.5" font-family="Helvetica,sans-Serif" font-size="10.00">&#45; X</text>
<text text-anchor="start" x="420" y="-993.5" font-family="Helvetica,sans-Serif" font-size="10.00">&#45; Y</text>
<text text-anchor="start" x="420" y="-982.5" font-family="Helvetica,sans-Serif" font-size="10.00">&#45; Z</text>
<polyline fill="none" stroke="black" points="412,-975.5 571,-975.5 "/>
<text text-anchor="start" x="420" y="-963.5" font-family="Helvetica,sans-Serif" font-size="10.00">+ WordQuizzleServerService()</text>
<text text-anchor="start" x="420" y="-952.5" font-family="Helvetica,sans-Serif" font-size="10.00">+ login()</text>
<text text-anchor="start" x="420" y="-941.5" font-family="Helvetica,sans-Serif" font-size="10.00">+ logout()</text>
<text text-anchor="start" x="420" y="-930.5" font-family="Helvetica,sans-Serif" font-size="10.00">+ aggiungi_amico()</text>
<text text-anchor="start" x="420" y="-919.5" font-family="Helvetica,sans-Serif" font-size="10.00">+ lista_amici()</text>
<text text-anchor="start" x="420" y="-908.5" font-family="Helvetica,sans-Serif" font-size="10.00">+ mostra_punteggio()</text>
<text text-anchor="start" x="420" y="-897.5" font-family="Helvetica,sans-Serif" font-size="10.00">+ mostra_classifica()</text>
<text text-anchor="start" x="420" y="-886.5" font-family="Helvetica,sans-Serif" font-size="10.00">+ sfida()</text>
<text text-anchor="start" x="420" y="-875.5" font-family="Helvetica,sans-Serif" font-size="10.00">+ accettaSfida()</text>
<text text-anchor="start" x="420" y="-864.5" font-family="Helvetica,sans-Serif" font-size="10.00">+ getK()</text>
<text text-anchor="start" x="420" y="-853.5" font-family="Helvetica,sans-Serif" font-size="10.00">+ getZ()</text>
<text text-anchor="start" x="420" y="-842.5" font-family="Helvetica,sans-Serif" font-size="10.00">+ getY()</text>
<text text-anchor="start" x="420" y="-831.5" font-family="Helvetica,sans-Serif" font-size="10.00">+ getX()</text>
<text text-anchor="start" x="420" y="-820.5" font-family="Helvetica,sans-Serif" font-size="10.00">+ getT1()</text>
<text text-anchor="start" x="420" y="-809.5" font-family="Helvetica,sans-Serif" font-size="10.00">+ getT2()</text>
<text text-anchor="start" x="420" y="-798.5" font-family="Helvetica,sans-Serif" font-size="10.00">+ setK()</text>
<text text-anchor="start" x="420" y="-787.5" font-family="Helvetica,sans-Serif" font-size="10.00">+ setZ()</text>
<text text-anchor="start" x="420" y="-776.5" font-family="Helvetica,sans-Serif" font-size="10.00">+ setY()</text>
<text text-anchor="start" x="420" y="-765.5" font-family="Helvetica,sans-Serif" font-size="10.00">+ setX()</text>
<text text-anchor="start" x="420" y="-754.5" font-family="Helvetica,sans-Serif" font-size="10.00">+ setT2()</text>
<text text-anchor="start" x="420" y="-743.5" font-family="Helvetica,sans-Serif" font-size="10.00">+ setT1()</text>
</a>
</g>
</g>
<!-- Node3&#45;&gt;Node9 -->
<g id="edge12" class="edge"><title>Node3&#45;&gt;Node9</title>
<path fill="none" stroke="#404040" d="M142.182,-1152.13C153.297,-1142.98 166.796,-1133.32 180.5,-1127 180.5,-1127 402.5,-1080 402.5,-1080 402.6,-1079.92 402.7,-1079.85 402.799,-1079.77"/>
<polygon fill="none" stroke="#404040" points="402.564,-1079.97 404.613,-1073.05 411.783,-1072.29 409.734,-1079.2 402.564,-1079.97"/>
<text text-anchor="middle" x="332" y="-1101" font-family="Helvetica,sans-Serif" font-size="10.00"> &#45;selector</text>
</g>
<!-- Node4 -->
<g id="node4" class="node"><title>Node4</title>
<g id="a_node4"><a xlink:href="class_word_quizzle_1_1_player.html" target="_top" xlink:title=" ">
<polygon fill="white" stroke="black" points="331.5,-259.5 331.5,-393.5 435.5,-393.5 435.5,-259.5 331.5,-259.5"/>
<text text-anchor="middle" x="383.5" y="-381.5" font-family="Helvetica,sans-Serif" font-size="10.00">WordQuizzle.Player</text>
<polyline fill="none" stroke="black" points="331.5,-374.5 435.5,-374.5 "/>
<text text-anchor="start" x="339.5" y="-362.5" font-family="Helvetica,sans-Serif" font-size="10.00">&#45; next</text>
<text text-anchor="start" x="339.5" y="-351.5" font-family="Helvetica,sans-Serif" font-size="10.00">&#45; close</text>
<polyline fill="none" stroke="black" points="331.5,-344.5 435.5,-344.5 "/>
<text text-anchor="start" x="339.5" y="-332.5" font-family="Helvetica,sans-Serif" font-size="10.00">+ Player()</text>
<text text-anchor="start" x="339.5" y="-321.5" font-family="Helvetica,sans-Serif" font-size="10.00">+ getSession()</text>
<text text-anchor="start" x="339.5" y="-310.5" font-family="Helvetica,sans-Serif" font-size="10.00">+ addAnswer()</text>
<text text-anchor="start" x="339.5" y="-299.5" font-family="Helvetica,sans-Serif" font-size="10.00">+ getAnswers()</text>
<text text-anchor="start" x="339.5" y="-288.5" font-family="Helvetica,sans-Serif" font-size="10.00">+ isTerminated()</text>
<text text-anchor="start" x="339.5" y="-277.5" font-family="Helvetica,sans-Serif" font-size="10.00">+ getNext()</text>
<text text-anchor="start" x="339.5" y="-266.5" font-family="Helvetica,sans-Serif" font-size="10.00">+ close()</text>
</a>
</g>
</g>
<!-- Node4&#45;&gt;Node1 -->
<g id="edge3" class="edge"><title>Node4&#45;&gt;Node1</title>
<path fill="none" stroke="#404040" d="M383.5,-259.202C383.5,-244.604 383.5,-228.755 383.5,-212.922"/>
<polygon fill="none" stroke="#404040" points="383.5,-212.839 379.5,-206.839 383.5,-200.839 387.5,-206.839 383.5,-212.839"/>
<text text-anchor="middle" x="402.5" y="-233" font-family="Helvetica,sans-Serif" font-size="10.00"> &#45;player1</text>
<text text-anchor="middle" x="402.5" y="-222" font-family="Helvetica,sans-Serif" font-size="10.00">&#45;player2</text>
</g>
<!-- Node5 -->
<g id="node5" class="node"><title>Node5</title>
<g id="a_node5"><a xlink:href="class_word_quizzle_1_1_session.html" target="_top" xlink:title=" ">
<polygon fill="white" stroke="black" points="289,-488.5 289,-688.5 400,-688.5 400,-488.5 289,-488.5"/>
<text text-anchor="middle" x="344.5" y="-676.5" font-family="Helvetica,sans-Serif" font-size="10.00">WordQuizzle.Session</text>
<polyline fill="none" stroke="black" points="289,-669.5 400,-669.5 "/>
<text text-anchor="start" x="297" y="-657.5" font-family="Helvetica,sans-Serif" font-size="10.00">&#45; user</text>
<text text-anchor="start" x="297" y="-646.5" font-family="Helvetica,sans-Serif" font-size="10.00">&#45; response</text>
<text text-anchor="start" x="297" y="-635.5" font-family="Helvetica,sans-Serif" font-size="10.00">&#45; end</text>
<polyline fill="none" stroke="black" points="289,-628.5 400,-628.5 "/>
<text text-anchor="start" x="297" y="-616.5" font-family="Helvetica,sans-Serif" font-size="10.00">+ Session()</text>
<text text-anchor="start" x="297" y="-605.5" font-family="Helvetica,sans-Serif" font-size="10.00">+ getClient()</text>
<text text-anchor="start" x="297" y="-594.5" font-family="Helvetica,sans-Serif" font-size="10.00">+ getBfs()</text>
<text text-anchor="start" x="297" y="-583.5" font-family="Helvetica,sans-Serif" font-size="10.00">+ setUdp()</text>
<text text-anchor="start" x="297" y="-572.5" font-family="Helvetica,sans-Serif" font-size="10.00">+ getUdp()</text>
<text text-anchor="start" x="297" y="-561.5" font-family="Helvetica,sans-Serif" font-size="10.00">+ newBfs()</text>
<text text-anchor="start" x="297" y="-550.5" font-family="Helvetica,sans-Serif" font-size="10.00">+ getUser()</text>
<text text-anchor="start" x="297" y="-539.5" font-family="Helvetica,sans-Serif" font-size="10.00">+ getResponse()</text>
<text text-anchor="start" x="297" y="-528.5" font-family="Helvetica,sans-Serif" font-size="10.00">+ setResponse()</text>
<text text-anchor="start" x="297" y="-517.5" font-family="Helvetica,sans-Serif" font-size="10.00">+ isTerminated()</text>
<text text-anchor="start" x="297" y="-506.5" font-family="Helvetica,sans-Serif" font-size="10.00">+ parse()</text>
<text text-anchor="start" x="297" y="-495.5" font-family="Helvetica,sans-Serif" font-size="10.00">&#45; compute()</text>
</a>
</g>
</g>
<!-- Node5&#45;&gt;Node4 -->
<g id="edge4" class="edge"><title>Node5&#45;&gt;Node4</title>
<path fill="none" stroke="#404040" d="M359.355,-488.463C363.462,-461.084 367.861,-431.76 371.764,-405.741"/>
<polygon fill="none" stroke="#404040" points="371.798,-405.516 368.732,-398.989 373.578,-393.649 376.643,-400.176 371.798,-405.516"/>
<text text-anchor="middle" x="376.5" y="-438.5" font-family="Helvetica,sans-Serif" font-size="10.00"> &#45;s</text>
</g>
<!-- Node6 -->
<g id="node6" class="node"><title>Node6</title>
<g id="a_node6"><a xlink:title=" ">
<polygon fill="white" stroke="#bfbfbf" points="113.5,-879.5 113.5,-936.5 175.5,-936.5 175.5,-879.5 113.5,-879.5"/>
<text text-anchor="middle" x="144.5" y="-924.5" font-family="Helvetica,sans-Serif" font-size="10.00">ByteBuffer</text>
<polyline fill="none" stroke="#bfbfbf" points="113.5,-917.5 175.5,-917.5 "/>
<text text-anchor="middle" x="144.5" y="-905.5" font-family="Helvetica,sans-Serif" font-size="10.00"> </text>
<polyline fill="none" stroke="#bfbfbf" points="113.5,-898.5 175.5,-898.5 "/>
<text text-anchor="middle" x="144.5" y="-886.5" font-family="Helvetica,sans-Serif" font-size="10.00"> </text>
</a>
</g>
</g>
<!-- Node6&#45;&gt;Node5 -->
<g id="edge5" class="edge"><title>Node6&#45;&gt;Node5</title>
<path fill="none" stroke="#404040" d="M145.959,-879.392C148.903,-843.968 157.776,-781.652 184.5,-736 207.965,-695.915 245.954,-660.452 279.028,-634.461"/>
<polygon fill="none" stroke="#404040" points="279.151,-634.366 281.465,-627.536 288.66,-627.045 286.346,-633.875 279.151,-634.366"/>
<text text-anchor="middle" x="211" y="-710" font-family="Helvetica,sans-Serif" font-size="10.00"> &#45;bfs</text>
</g>
<!-- Node7 -->
<g id="node7" class="node"><title>Node7</title>
<g id="a_node7"><a xlink:title=" ">
<polygon fill="white" stroke="#bfbfbf" points="194,-879.5 194,-936.5 277,-936.5 277,-879.5 194,-879.5"/>
<text text-anchor="middle" x="235.5" y="-924.5" font-family="Helvetica,sans-Serif" font-size="10.00">SocketChannel</text>
<polyline fill="none" stroke="#bfbfbf" points="194,-917.5 277,-917.5 "/>
<text text-anchor="middle" x="235.5" y="-905.5" font-family="Helvetica,sans-Serif" font-size="10.00"> </text>
<polyline fill="none" stroke="#bfbfbf" points="194,-898.5 277,-898.5 "/>
<text text-anchor="middle" x="235.5" y="-886.5" font-family="Helvetica,sans-Serif" font-size="10.00"> </text>
</a>
</g>
</g>
<!-- Node7&#45;&gt;Node5 -->
<g id="edge6" class="edge"><title>Node7&#45;&gt;Node5</title>
<path fill="none" stroke="#404040" d="M242.647,-879.491C251.688,-845.483 268.178,-785.974 285.5,-736 289.549,-724.319 294.002,-712.207 298.591,-700.18"/>
<polygon fill="none" stroke="#404040" points="298.704,-699.887 297.132,-692.849 303.024,-688.691 304.596,-695.729 298.704,-699.887"/>
<text text-anchor="middle" x="311.5" y="-710" font-family="Helvetica,sans-Serif" font-size="10.00"> &#45;client</text>
</g>
<!-- Node8 -->
<g id="node8" class="node"><title>Node8</title>
<g id="a_node8"><a xlink:title=" ">
<polygon fill="white" stroke="#bfbfbf" points="295,-879.5 295,-936.5 394,-936.5 394,-879.5 295,-879.5"/>
<text text-anchor="middle" x="344.5" y="-924.5" font-family="Helvetica,sans-Serif" font-size="10.00">InetSocketAddress</text>
<polyline fill="none" stroke="#bfbfbf" points="295,-917.5 394,-917.5 "/>
<text text-anchor="middle" x="344.5" y="-905.5" font-family="Helvetica,sans-Serif" font-size="10.00"> </text>
<polyline fill="none" stroke="#bfbfbf" points="295,-898.5 394,-898.5 "/>
<text text-anchor="middle" x="344.5" y="-886.5" font-family="Helvetica,sans-Serif" font-size="10.00"> </text>
</a>
</g>
</g>
<!-- Node8&#45;&gt;Node5 -->
<g id="edge7" class="edge"><title>Node8&#45;&gt;Node5</title>
<path fill="none" stroke="#404040" d="M344.5,-879.379C344.5,-839.835 344.5,-764.81 344.5,-700.994"/>
<polygon fill="none" stroke="#404040" points="344.5,-700.808 340.5,-694.808 344.5,-688.808 348.5,-694.807 344.5,-700.808"/>
<text text-anchor="middle" x="355.5" y="-710" font-family="Helvetica,sans-Serif" font-size="10.00"> &#45;udp</text>
</g>
<!-- Node9&#45;&gt;Node5 -->
<g id="edge8" class="edge"><title>Node9&#45;&gt;Node5</title>
<path fill="none" stroke="#404040" d="M412.406,-736.168C406.741,-723.933 401.121,-711.794 395.681,-700.044"/>
<polygon fill="none" stroke="#404040" points="395.567,-699.797 389.416,-696.033 390.525,-688.908 396.676,-692.672 395.567,-699.797"/>
<text text-anchor="middle" x="411" y="-710" font-family="Helvetica,sans-Serif" font-size="10.00"> &#45;wq</text>
</g>
<!-- Node10 -->
<g id="node10" class="node"><title>Node10</title>
<g id="a_node10"><a xlink:title=" ">
<polygon fill="white" stroke="#bfbfbf" points="496,-1149.5 496,-1206.5 585,-1206.5 585,-1149.5 496,-1149.5"/>
<text text-anchor="middle" x="540.5" y="-1194.5" font-family="Helvetica,sans-Serif" font-size="10.00">DatagramSocket</text>
<polyline fill="none" stroke="#bfbfbf" points="496,-1187.5 585,-1187.5 "/>
<text text-anchor="middle" x="540.5" y="-1175.5" font-family="Helvetica,sans-Serif" font-size="10.00"> </text>
<polyline fill="none" stroke="#bfbfbf" points="496,-1168.5 585,-1168.5 "/>
<text text-anchor="middle" x="540.5" y="-1156.5" font-family="Helvetica,sans-Serif" font-size="10.00"> </text>
</a>
</g>
</g>
<!-- Node10&#45;&gt;Node9 -->
<g id="edge9" class="edge"><title>Node10&#45;&gt;Node9</title>
<path fill="none" stroke="#404040" d="M535.441,-1149.33C532.661,-1134.12 528.949,-1113.82 524.857,-1091.44"/>
<polygon fill="none" stroke="#404040" points="524.843,-1091.36 519.829,-1086.18 522.685,-1079.56 527.698,-1084.74 524.843,-1091.36"/>
<text text-anchor="middle" x="545.5" y="-1101" font-family="Helvetica,sans-Serif" font-size="10.00"> &#45;socket</text>
</g>
<!-- Node11 -->
<g id="node11" class="node"><title>Node11</title>
<g id="a_node11"><a xlink:title=" ">
<polygon fill="white" stroke="#bfbfbf" points="190,-1144 190,-1212 325,-1212 325,-1144 190,-1144"/>
<text text-anchor="start" x="198" y="-1200" font-family="Helvetica,sans-Serif" font-size="10.00">Map&lt; String, WordQuizzle.</text>
<text text-anchor="middle" x="257.5" y="-1189" font-family="Helvetica,sans-Serif" font-size="10.00">Session &gt;</text>
<polyline fill="none" stroke="#bfbfbf" points="190,-1182 325,-1182 "/>
<text text-anchor="middle" x="257.5" y="-1170" font-family="Helvetica,sans-Serif" font-size="10.00"> </text>
<polyline fill="none" stroke="#bfbfbf" points="190,-1163 325,-1163 "/>
<text text-anchor="middle" x="257.5" y="-1151" font-family="Helvetica,sans-Serif" font-size="10.00"> </text>
</a>
</g>
</g>
<!-- Node11&#45;&gt;Node9 -->
<g id="edge10" class="edge"><title>Node11&#45;&gt;Node9</title>
<path fill="none" stroke="#404040" d="M307.689,-1143.84C348.815,-1116.61 400.561,-1082.16 402.5,-1080 403.006,-1079.44 403.51,-1078.87 404.012,-1078.3"/>
<polygon fill="none" stroke="#404040" points="404.278,-1077.98 405.053,-1070.81 411.969,-1068.77 411.194,-1075.94 404.278,-1077.98"/>
<text text-anchor="middle" x="389" y="-1101" font-family="Helvetica,sans-Serif" font-size="10.00"> &#45;users</text>
</g>
<!-- Node12 -->
<g id="node12" class="node"><title>Node12</title>
<g id="a_node12"><a xlink:title=" ">
<polygon fill="white" stroke="#bfbfbf" points="320,-1287.5 320,-1344.5 355,-1344.5 355,-1287.5 320,-1287.5"/>
<text text-anchor="middle" x="337.5" y="-1332.5" font-family="Helvetica,sans-Serif" font-size="10.00">Map</text>
<polyline fill="none" stroke="#bfbfbf" points="320,-1325.5 355,-1325.5 "/>
<text text-anchor="middle" x="337.5" y="-1313.5" font-family="Helvetica,sans-Serif" font-size="10.00"> </text>
<polyline fill="none" stroke="#bfbfbf" points="320,-1306.5 355,-1306.5 "/>
<text text-anchor="middle" x="337.5" y="-1294.5" font-family="Helvetica,sans-Serif" font-size="10.00"> </text>
</a>
</g>
</g>
<!-- Node12&#45;&gt;Node11 -->
<g id="edge11" class="edge"><title>Node12&#45;&gt;Node11</title>
<path fill="none" stroke="orange" d="M310.843,-1302.56C297.22,-1294.83 281.629,-1283.56 272.5,-1269 261.982,-1252.22 258.159,-1230.37 257.001,-1212.4"/>
<polygon fill="orange" stroke="orange" points="309.384,-1305.75 319.857,-1307.36 312.669,-1299.57 309.384,-1305.75"/>
<text text-anchor="start" x="272.5" y="-1261" font-family="Helvetica,sans-Serif" font-size="10.00"> &lt; String, WordQuizzle</text>
<text text-anchor="middle" x="322.5" y="-1250" font-family="Helvetica,sans-Serif" font-size="10.00">::Session &gt;</text>
</g>
<!-- Node14 -->
<g id="node14" class="node"><title>Node14</title>
<g id="a_node14"><a xlink:title=" ">
<polygon fill="white" stroke="#bfbfbf" points="343,-1144 343,-1212 478,-1212 478,-1144 343,-1144"/>
<text text-anchor="start" x="351" y="-1200" font-family="Helvetica,sans-Serif" font-size="10.00">Map&lt; String, WordQuizzle.</text>
<text text-anchor="middle" x="410.5" y="-1189" font-family="Helvetica,sans-Serif" font-size="10.00">Challenge &gt;</text>
<polyline fill="none" stroke="#bfbfbf" points="343,-1182 478,-1182 "/>
<text text-anchor="middle" x="410.5" y="-1170" font-family="Helvetica,sans-Serif" font-size="10.00"> </text>
<polyline fill="none" stroke="#bfbfbf" points="343,-1163 478,-1163 "/>
<text text-anchor="middle" x="410.5" y="-1151" font-family="Helvetica,sans-Serif" font-size="10.00"> </text>
</a>
</g>
</g>
<!-- Node12&#45;&gt;Node14 -->
<g id="edge15" class="edge"><title>Node12&#45;&gt;Node14</title>
<path fill="none" stroke="orange" d="M361.967,-1289.25C367.205,-1282.94 372.391,-1275.98 376.5,-1269 386.925,-1251.3 395.181,-1229.83 400.946,-1212.3"/>
<polygon fill="orange" stroke="orange" points="359.28,-1287.01 355.384,-1296.86 364.573,-1291.59 359.28,-1287.01"/>
<text text-anchor="start" x="387.5" y="-1261" font-family="Helvetica,sans-Serif" font-size="10.00"> &lt; String, WordQuizzle</text>
<text text-anchor="middle" x="437.5" y="-1250" font-family="Helvetica,sans-Serif" font-size="10.00">::Challenge &gt;</text>
</g>
<!-- Node13 -->
<g id="node13" class="node"><title>Node13</title>
<g id="a_node13"><a xlink:href="interface_word_quizzle_1_1_data_base.html" target="_top" xlink:title="Database che gestisce gli utenti.">
<polygon fill="white" stroke="black" points="603,-1127.5 603,-1228.5 722,-1228.5 722,-1127.5 603,-1127.5"/>
<text text-anchor="middle" x="662.5" y="-1216.5" font-family="Helvetica,sans-Serif" font-size="10.00">WordQuizzle.DataBase</text>
<polyline fill="none" stroke="black" points="603,-1209.5 722,-1209.5 "/>
<text text-anchor="middle" x="662.5" y="-1197.5" font-family="Helvetica,sans-Serif" font-size="10.00"> </text>
<polyline fill="none" stroke="black" points="603,-1190.5 722,-1190.5 "/>
<text text-anchor="start" x="611" y="-1178.5" font-family="Helvetica,sans-Serif" font-size="10.00">+ checkUser()</text>
<text text-anchor="start" x="611" y="-1167.5" font-family="Helvetica,sans-Serif" font-size="10.00">+ getUser()</text>
<text text-anchor="start" x="611" y="-1156.5" font-family="Helvetica,sans-Serif" font-size="10.00">+ newUser()</text>
<text text-anchor="start" x="611" y="-1145.5" font-family="Helvetica,sans-Serif" font-size="10.00">+ modifyScore()</text>
<text text-anchor="start" x="611" y="-1134.5" font-family="Helvetica,sans-Serif" font-size="10.00">+ link()</text>
</a>
</g>
</g>
<!-- Node13&#45;&gt;Node1 -->
<g id="edge18" class="edge"><title>Node13&#45;&gt;Node1</title>
<path fill="none" stroke="#404040" d="M662.5,-1127.11C662.5,-1073.29 662.5,-985.073 662.5,-909 662.5,-909 662.5,-909 662.5,-325.5 662.5,-218.86 537.03,-154.511 454.372,-123.69"/>
<polygon fill="none" stroke="#404040" points="454.289,-123.66 447.284,-125.37 443.01,-119.562 450.016,-117.851 454.289,-123.66"/>
<text text-anchor="middle" x="671" y="-586" font-family="Helvetica,sans-Serif" font-size="10.00"> &#45;db</text>
</g>
<!-- Node13&#45;&gt;Node9 -->
<g id="edge13" class="edge"><title>Node13&#45;&gt;Node9</title>
<path fill="none" stroke="#404040" d="M616.232,-1127.42C603.582,-1112.71 590.376,-1096.19 579.5,-1080 578.976,-1079.22 578.454,-1078.44 577.932,-1077.65"/>
<polygon fill="none" stroke="#404040" points="577.723,-1077.33 571.105,-1074.46 571.204,-1067.25 577.822,-1070.12 577.723,-1077.33"/>
<text text-anchor="middle" x="609" y="-1101" font-family="Helvetica,sans-Serif" font-size="10.00"> &#45;db</text>
</g>
<!-- Node14&#45;&gt;Node9 -->
<g id="edge14" class="edge"><title>Node14&#45;&gt;Node9</title>
<path fill="none" stroke="#404040" d="M420.513,-1143.87C424.904,-1129.34 430.428,-1111.06 436.448,-1091.15"/>
<polygon fill="none" stroke="#404040" points="436.469,-1091.08 434.376,-1084.18 439.941,-1079.59 442.034,-1086.49 436.469,-1091.08"/>
<text text-anchor="middle" x="459" y="-1101" font-family="Helvetica,sans-Serif" font-size="10.00"> &#45;challenges</text>
</g>
<!-- Node15 -->
<g id="node15" class="node"><title>Node15</title>
<g id="a_node15"><a xlink:title=" ">
<polygon fill="white" stroke="#bfbfbf" points="427,-560 427,-617 516,-617 516,-560 427,-560"/>
<text text-anchor="middle" x="471.5" y="-605" font-family="Helvetica,sans-Serif" font-size="10.00">Vector&lt; String &gt;</text>
<polyline fill="none" stroke="#bfbfbf" points="427,-598 516,-598 "/>
<text text-anchor="middle" x="471.5" y="-586" font-family="Helvetica,sans-Serif" font-size="10.00"> </text>
<polyline fill="none" stroke="#bfbfbf" points="427,-579 516,-579 "/>
<text text-anchor="middle" x="471.5" y="-567" font-family="Helvetica,sans-Serif" font-size="10.00"> </text>
</a>
</g>
</g>
<!-- Node15&#45;&gt;Node4 -->
<g id="edge16" class="edge"><title>Node15&#45;&gt;Node4</title>
<path fill="none" stroke="#404040" d="M462.082,-559.675C449.716,-523.138 427.504,-457.512 409.842,-405.33"/>
<polygon fill="none" stroke="#404040" points="409.767,-405.106 404.054,-400.705 405.92,-393.74 411.632,-398.14 409.767,-405.106"/>
<text text-anchor="middle" x="441.5" y="-438.5" font-family="Helvetica,sans-Serif" font-size="10.00"> &#45;ans</text>
</g>
<!-- Node16 -->
<g id="node16" class="node"><title>Node16</title>
<g id="a_node16"><a xlink:title=" ">
<polygon fill="white" stroke="#bfbfbf" points="589,-879.5 589,-936.5 634,-936.5 634,-879.5 589,-879.5"/>
<text text-anchor="middle" x="611.5" y="-924.5" font-family="Helvetica,sans-Serif" font-size="10.00">Vector</text>
<polyline fill="none" stroke="#bfbfbf" points="589,-917.5 634,-917.5 "/>
<text text-anchor="middle" x="611.5" y="-905.5" font-family="Helvetica,sans-Serif" font-size="10.00"> </text>
<polyline fill="none" stroke="#bfbfbf" points="589,-898.5 634,-898.5 "/>
<text text-anchor="middle" x="611.5" y="-886.5" font-family="Helvetica,sans-Serif" font-size="10.00"> </text>
</a>
</g>
</g>
<!-- Node16&#45;&gt;Node15 -->
<g id="edge17" class="edge"><title>Node16&#45;&gt;Node15</title>
<path fill="none" stroke="orange" d="M615.758,-868.888C617.821,-829.977 614.27,-770.531 579.5,-736 547.458,-704.178 509.529,-751.728 479.5,-718 455.198,-690.705 458.675,-645.859 464.36,-617.015"/>
<polygon fill="orange" stroke="orange" points="612.238,-869.065 615.049,-879.281 619.222,-869.542 612.238,-869.065"/>
<text text-anchor="middle" x="503" y="-710" font-family="Helvetica,sans-Serif" font-size="10.00"> &lt; String &gt;</text>
</g>
<!-- Node17 -->
<g id="node17" class="node"><title>Node17</title>
<g id="a_node17"><a xlink:title=" ">
<polygon fill="white" stroke="#bfbfbf" points="468,-412.5 468,-469.5 603,-469.5 603,-412.5 468,-412.5"/>
<text text-anchor="middle" x="535.5" y="-457.5" font-family="Helvetica,sans-Serif" font-size="10.00">Vector&lt; Vector&lt; String &gt; &gt;</text>
<polyline fill="none" stroke="#bfbfbf" points="468,-450.5 603,-450.5 "/>
<text text-anchor="middle" x="535.5" y="-438.5" font-family="Helvetica,sans-Serif" font-size="10.00"> </text>
<polyline fill="none" stroke="#bfbfbf" points="468,-431.5 603,-431.5 "/>
<text text-anchor="middle" x="535.5" y="-419.5" font-family="Helvetica,sans-Serif" font-size="10.00"> </text>
</a>
</g>
</g>
<!-- Node16&#45;&gt;Node17 -->
<g id="edge20" class="edge"><title>Node16&#45;&gt;Node17</title>
<path fill="none" stroke="orange" d="M612.277,-868.973C611.307,-832.237 605.145,-776.375 579.5,-736 572.159,-724.443 561.157,-729.964 554.5,-718 531.147,-676.029 532.686,-531.181 534.477,-469.818"/>
<polygon fill="orange" stroke="orange" points="608.782,-869.312 612.427,-879.26 615.781,-869.21 608.782,-869.312"/>
<text text-anchor="middle" x="601.5" y="-710" font-family="Helvetica,sans-Serif" font-size="10.00"> &lt; Vector&lt; String &gt; &gt;</text>
</g>
<!-- Node17&#45;&gt;Node1 -->
<g id="edge19" class="edge"><title>Node17&#45;&gt;Node1</title>
<path fill="none" stroke="#404040" d="M523.061,-412.299C503.577,-368.909 464.805,-282.565 433.063,-211.874"/>
<polygon fill="none" stroke="#404040" points="432.948,-211.619 426.841,-207.785 428.032,-200.672 434.139,-204.507 432.948,-211.619"/>
<text text-anchor="middle" x="542" y="-324" font-family="Helvetica,sans-Serif" font-size="10.00"> &#45;translations</text>
</g>
</g>
</svg>
        <g id="navigator" transform="translate(0 0)" fill="#404254">
                <rect fill="#f2f5e9" fill-opacity="0.5" stroke="#606060" stroke-width=".5" x="0" y="0" width="60" height="60"/>
                <use id="zoomplus" xlink:href="#zoomPlus" x="17" y="9" onmousedown="handleZoom(evt,'in')"/>
                <use id="zoomminus" xlink:href="#zoomMin" x="42" y="9" onmousedown="handleZoom(evt,'out')"/>
                <use id="reset" xlink:href="#resetDef" x="30" y="36" onmousedown="handleReset()"/>
                <g id="arrowUp" xlink:href="#dirArrow" transform="translate(30 24)" onmousedown="handlePan(0,-1)">
                  <use xlink:href="#rim" fill="#404040">
                        <set attributeName="fill" to="#808080" begin="arrowUp.mouseover" end="arrowUp.mouseout"/>
                  </use>
                  <path fill="none" stroke="white" stroke-width="1.5" d="M0,-3.0v7 M-2.5,-0.5L0,-3.0L2.5,-0.5"/>
                </g>
                <g id="arrowRight" xlink:href="#dirArrow" transform="rotate(90) translate(36 -43)" onmousedown="handlePan(1,0)">
                  <use xlink:href="#rim" fill="#404040">
                        <set attributeName="fill" to="#808080" begin="arrowRight.mouseover" end="arrowRight.mouseout"/>
                  </use>
                  <path fill="none" stroke="white" stroke-width="1.5" d="M0,-3.0v7 M-2.5,-0.5L0,-3.0L2.5,-0.5"/>
                </g>
                <g id="arrowDown" xlink:href="#dirArrow" transform="rotate(180) translate(-30 -48)" onmousedown="handlePan(0,1)">
                  <use xlink:href="#rim" fill="#404040">
                        <set attributeName="fill" to="#808080" begin="arrowDown.mouseover" end="arrowDown.mouseout"/>
                  </use>
                  <path fill="none" stroke="white" stroke-width="1.5" d="M0,-3.0v7 M-2.5,-0.5L0,-3.0L2.5,-0.5"/>
                </g>
                <g id="arrowLeft" xlink:href="#dirArrow" transform="rotate(270) translate(-36 17)" onmousedown="handlePan(-1,0)">
                  <use xlink:href="#rim" fill="#404040">
                        <set attributeName="fill" to="#808080" begin="arrowLeft.mouseover" end="arrowLeft.mouseout"/>
                  </use>
                  <path fill="none" stroke="white" stroke-width="1.5" d="M0,-3.0v7 M-2.5,-0.5L0,-3.0L2.5,-0.5"/>
                </g>
        </g>
        <svg viewBox="0 0 15 15" width="100%" height="30px" preserveAspectRatio="xMaxYMin meet">
         <g id="arrow_out" transform="scale(0.3 0.3)">
          <a xlink:href="class_word_quizzle_1_1_challenge__coll__graph_org.svg" target="_base">
           <rect id="button" ry="5" rx="5" y="6" x="6" height="38" width="38"
                fill="#f2f5e9" fill-opacity="0.5" stroke="#606060" stroke-width="1.0"/>
           <path id="arrow"
             d="M 11.500037,31.436501 C 11.940474,20.09759 22.043105,11.32322 32.158766,21.979434 L 37.068811,17.246167 C 37.068811,17.246167 37.088388,32 37.088388,32 L 22.160133,31.978069 C 22.160133,31.978069 26.997745,27.140456 26.997745,27.140456 C 18.528582,18.264221 13.291696,25.230495 11.500037,31.436501 z"
             style="fill:#404040;"/>
          </a>
         </g>
        </svg>
</svg>
