<?xml version="1.0" encoding="UTF-8" standalone="no"?>
<!DOCTYPE svg PUBLIC "-//W3C//DTD SVG 1.1//EN"
 "http://www.w3.org/Graphics/SVG/1.1/DTD/svg11.dtd">
<!-- Generated by graphviz version 2.38.0 (20140413.2041)
 -->
<!-- Title: WordQuizzle.WQCli.parse Pages: 1 -->
<!--zoomable 899 -->
<svg id="main" version="1.1" xmlns="http://www.w3.org/2000/svg" xmlns:xlink="http://www.w3.org/1999/xlink" xml:space="preserve" onload="init(evt)">
<style type="text/css"><![CDATA[
.edge:hover path { stroke: red; }
.edge:hover polygon { stroke: red; fill: red; }
]]></style>
<script type="text/javascript"><![CDATA[
var edges = document.getElementsByTagName('g');
if (edges && edges.length) {
  for (var i=0;i<edges.length;i++) {
    if (edges[i].id.substr(0,4)=='edge') {
      edges[i].setAttribute('class','edge');
    }
  }
}
]]></script>
        <defs>
                <circle id="rim" cx="0" cy="0" r="7"/>
                <circle id="rim2" cx="0" cy="0" r="3.5"/>
                <g id="zoomPlus">
                        <use xlink:href="#rim" fill="#404040">
                                <set attributeName="fill" to="#808080" begin="zoomplus.mouseover" end="zoomplus.mouseout"/>
                        </use>
                        <path d="M-4,0h8M0,-4v8" fill="none" stroke="white" stroke-width="1.5" pointer-events="none"/>
                </g>
                <g id="zoomMin">
                        <use xlink:href="#rim" fill="#404040">
                                <set attributeName="fill" to="#808080" begin="zoomminus.mouseover" end="zoomminus.mouseout"/>
                        </use>
                        <path d="M-4,0h8" fill="none" stroke="white" stroke-width="1.5" pointer-events="none"/>
                </g>
                <g id="dirArrow">
                        <path fill="none" stroke="white" stroke-width="1.5" d="M0,-3.0v7 M-2.5,-0.5L0,-3.0L2.5,-0.5"/>
                </g>
               <g id="resetDef">
                       <use xlink:href="#rim2" fill="#404040">
                               <set attributeName="fill" to="#808080" begin="reset.mouseover" end="reset.mouseout"/>
                       </use>
               </g>
        </defs>

<script type="text/javascript">
var viewWidth = 834;
var viewHeight = 899;
var sectionId = 'dynsection-16';
</script>
<script xlink:href="svgpan.js"/>
<svg id="graph" class="graph">
<g id="viewport">
<title>WordQuizzle.WQCli.parse</title>
<polygon fill="white" stroke="none" points="-4,4 -4,-894.5 830,-894.5 830,4 -4,4"/>
<!-- Node1 -->
<g id="node1" class="node"><title>Node1</title>
<g id="a_node1"><a xlink:title="Gestisce le richieste dell&#39;utente.">
<polygon fill="#bfbfbf" stroke="black" points="0,-268.5 0,-287.5 131,-287.5 131,-268.5 0,-268.5"/>
<text text-anchor="middle" x="65.5" y="-275.5" font-family="Helvetica,sans-Serif" font-size="10.00">WordQuizzle.WQCli.parse</text>
</a>
</g>
</g>
<!-- Node2 -->
<g id="node2" class="node"><title>Node2</title>
<g id="a_node2"><a xlink:href="class_word_quizzle_1_1_word_quizzle_client.html#a91d982387c02c9ccae681f4a7d500a75" target="_top" xlink:title="Aggiunge un utente alla lista di amici di user.">
<polygon fill="white" stroke="black" points="167,-849 167,-879 363,-879 363,-849 167,-849"/>
<text text-anchor="start" x="175" y="-867" font-family="Helvetica,sans-Serif" font-size="10.00">WordQuizzle.WordQuizzleClient.aggiungi</text>
<text text-anchor="middle" x="265" y="-856" font-family="Helvetica,sans-Serif" font-size="10.00">_amico</text>
</a>
</g>
</g>
<!-- Node1&#45;&gt;Node2 -->
<g id="edge1" class="edge"><title>Node1&#45;&gt;Node2</title>
<path fill="none" stroke="midnightblue" d="M67.184,-287.591C71.9469,-352.126 101.903,-723.16 167,-812 177.338,-826.108 192.684,-836.775 208.135,-844.659"/>
<polygon fill="midnightblue" stroke="midnightblue" points="206.675,-847.84 217.208,-848.983 209.687,-841.521 206.675,-847.84"/>
</g>
<!-- Node4 -->
<g id="node4" class="node"><title>Node4</title>
<g id="a_node4"><a xlink:href="class_word_quizzle_1_1_w_q_cli.html#a423482396d62407941b62b92f4a25732" target="_top" xlink:title="Restistuisce una stringa contenente informazioni riguardo l&#39;aggiunta di un amico.">
<polygon fill="white" stroke="black" points="429,-811 429,-841 572,-841 572,-811 429,-811"/>
<text text-anchor="start" x="437" y="-829" font-family="Helvetica,sans-Serif" font-size="10.00">WordQuizzle.WQCli.aggiungi</text>
<text text-anchor="middle" x="500.5" y="-818" font-family="Helvetica,sans-Serif" font-size="10.00">_amico</text>
</a>
</g>
</g>
<!-- Node1&#45;&gt;Node4 -->
<g id="edge3" class="edge"><title>Node1&#45;&gt;Node4</title>
<path fill="none" stroke="midnightblue" d="M67.607,-287.85C74.2416,-345.333 110.365,-637.2 167,-704 229.981,-778.286 342.309,-807.351 418.812,-818.715"/>
<polygon fill="midnightblue" stroke="midnightblue" points="418.5,-822.206 428.892,-820.141 419.481,-815.275 418.5,-822.206"/>
</g>
<!-- Node5 -->
<g id="node5" class="node"><title>Node5</title>
<g id="a_node5"><a xlink:href="class_word_quizzle_1_1_w_q_cli.html#ae5f342434ec80ce1ed3939fb446de436" target="_top" xlink:title="Gestisce una sfida.">
<polygon fill="white" stroke="black" points="199.5,-341.5 199.5,-360.5 330.5,-360.5 330.5,-341.5 199.5,-341.5"/>
<text text-anchor="middle" x="265" y="-348.5" font-family="Helvetica,sans-Serif" font-size="10.00">WordQuizzle.WQCli.game</text>
</a>
</g>
</g>
<!-- Node1&#45;&gt;Node5 -->
<g id="edge4" class="edge"><title>Node1&#45;&gt;Node5</title>
<path fill="none" stroke="midnightblue" d="M92.3197,-287.543C127.213,-300.441 189.556,-323.484 228.741,-337.968"/>
<polygon fill="midnightblue" stroke="midnightblue" points="227.581,-341.27 238.174,-341.454 230.008,-334.704 227.581,-341.27"/>
</g>
<!-- Node10 -->
<g id="node10" class="node"><title>Node10</title>
<g id="a_node10"><a xlink:href="class_word_quizzle_1_1_w_q_cli.html#af99dd07b4f0c4e029f872de8ea3ae9f3" target="_top" xlink:title="Restistuisce una stringa contenente informazioni riguardo i comandi da utilizzare.">
<polygon fill="white" stroke="black" points="202.5,-602.5 202.5,-621.5 327.5,-621.5 327.5,-602.5 202.5,-602.5"/>
<text text-anchor="middle" x="265" y="-609.5" font-family="Helvetica,sans-Serif" font-size="10.00">WordQuizzle.WQCli.help</text>
</a>
</g>
</g>
<!-- Node1&#45;&gt;Node10 -->
<g id="edge9" class="edge"><title>Node1&#45;&gt;Node10</title>
<path fill="none" stroke="midnightblue" d="M72.1978,-287.636C99.4536,-333.729 216.708,-532.023 253.15,-593.652"/>
<polygon fill="midnightblue" stroke="midnightblue" points="250.176,-595.499 258.279,-602.325 256.202,-591.936 250.176,-595.499"/>
</g>
<!-- Node12 -->
<g id="node12" class="node"><title>Node12</title>
<g id="a_node12"><a xlink:href="class_word_quizzle_1_1_w_q_cli.html#a5be21ae4cfdcdae806ff4a935f0799fd" target="_top" xlink:title="Restistuisce una stringa contenente informazioni riguardo il login.">
<polygon fill="white" stroke="black" points="436.5,-772.5 436.5,-791.5 564.5,-791.5 564.5,-772.5 436.5,-772.5"/>
<text text-anchor="middle" x="500.5" y="-779.5" font-family="Helvetica,sans-Serif" font-size="10.00">WordQuizzle.WQCli.login</text>
</a>
</g>
</g>
<!-- Node1&#45;&gt;Node12 -->
<g id="edge23" class="edge"><title>Node1&#45;&gt;Node12</title>
<path fill="none" stroke="midnightblue" d="M66.6788,-287.607C67.9757,-331.833 78.6796,-518.469 167,-631 240.244,-724.322 287.644,-722.091 399,-763 407.783,-766.227 417.209,-768.93 426.64,-771.189"/>
<polygon fill="midnightblue" stroke="midnightblue" points="425.921,-774.614 436.444,-773.385 427.451,-767.784 425.921,-774.614"/>
</g>
<!-- Node18 -->
<g id="node18" class="node"><title>Node18</title>
<g id="a_node18"><a xlink:href="class_word_quizzle_1_1_w_q_cli.html#abf6a8e25f47e24745e96260127cf9b71" target="_top" xlink:title="Restistuisce una stringa contenente informazioni riguardo l&#39;invio di una sfida.">
<polygon fill="white" stroke="black" points="436.5,-459.5 436.5,-478.5 564.5,-478.5 564.5,-459.5 436.5,-459.5"/>
<text text-anchor="middle" x="500.5" y="-466.5" font-family="Helvetica,sans-Serif" font-size="10.00">WordQuizzle.WQCli.sfida</text>
</a>
</g>
</g>
<!-- Node1&#45;&gt;Node18 -->
<g id="edge34" class="edge"><title>Node1&#45;&gt;Node18</title>
<path fill="none" stroke="midnightblue" d="M74.6271,-287.746C90.545,-306.258 127.72,-346.734 167,-370 248.745,-418.418 355.994,-444.755 426.28,-457.841"/>
<polygon fill="midnightblue" stroke="midnightblue" points="425.909,-461.331 436.374,-459.676 427.162,-454.443 425.909,-461.331"/>
</g>
<!-- Node19 -->
<g id="node19" class="node"><title>Node19</title>
<g id="a_node19"><a xlink:href="class_word_quizzle_1_1_word_quizzle_client.html#a601f27bc3078f4c7d43417481f4c1353" target="_top" xlink:title="Richiede la lista degli amici di user.">
<polygon fill="white" stroke="black" points="176,-263 176,-293 354,-293 354,-263 176,-263"/>
<text text-anchor="start" x="184" y="-281" font-family="Helvetica,sans-Serif" font-size="10.00">WordQuizzle.WordQuizzleClient.lista</text>
<text text-anchor="middle" x="265" y="-270" font-family="Helvetica,sans-Serif" font-size="10.00">_amici</text>
</a>
</g>
</g>
<!-- Node1&#45;&gt;Node19 -->
<g id="edge19" class="edge"><title>Node1&#45;&gt;Node19</title>
<path fill="none" stroke="midnightblue" d="M131.169,-278C142.219,-278 153.919,-278 165.611,-278"/>
<polygon fill="midnightblue" stroke="midnightblue" points="165.868,-281.5 175.868,-278 165.868,-274.5 165.868,-281.5"/>
</g>
<!-- Node21 -->
<g id="node21" class="node"><title>Node21</title>
<g id="a_node21"><a xlink:href="class_word_quizzle_1_1_word_quizzle_client.html#aa87c179f3a0a6ab57c2b74960c95a626" target="_top" xlink:title="Effettua il login.">
<polygon fill="white" stroke="black" points="175,-224.5 175,-243.5 355,-243.5 355,-224.5 175,-224.5"/>
<text text-anchor="middle" x="265" y="-231.5" font-family="Helvetica,sans-Serif" font-size="10.00">WordQuizzle.WordQuizzleClient.login</text>
</a>
</g>
</g>
<!-- Node1&#45;&gt;Node21 -->
<g id="edge21" class="edge"><title>Node1&#45;&gt;Node21</title>
<path fill="none" stroke="midnightblue" d="M103.15,-268.412C122.149,-263.561 145.762,-257.718 167,-253 178.582,-250.427 190.984,-247.858 202.917,-245.478"/>
<polygon fill="midnightblue" stroke="midnightblue" points="203.669,-248.897 212.803,-243.528 202.315,-242.029 203.669,-248.897"/>
</g>
<!-- Node23 -->
<g id="node23" class="node"><title>Node23</title>
<g id="a_node23"><a xlink:href="class_word_quizzle_1_1_word_quizzle_client.html#a50468f5e79e6bba9efc2e9fd19493345" target="_top" xlink:title="Effettua il logout di user.">
<polygon fill="white" stroke="black" points="172,-186.5 172,-205.5 358,-205.5 358,-186.5 172,-186.5"/>
<text text-anchor="middle" x="265" y="-193.5" font-family="Helvetica,sans-Serif" font-size="10.00">WordQuizzle.WordQuizzleClient.logout</text>
</a>
</g>
</g>
<!-- Node1&#45;&gt;Node23 -->
<g id="edge24" class="edge"><title>Node1&#45;&gt;Node23</title>
<path fill="none" stroke="midnightblue" d="M78.3991,-268.477C96.4524,-254.527 132.34,-228.71 167,-215 173.747,-212.331 180.911,-210.026 188.171,-208.036"/>
<polygon fill="midnightblue" stroke="midnightblue" points="189.268,-211.368 198.099,-205.515 187.545,-204.584 189.268,-211.368"/>
</g>
<!-- Node25 -->
<g id="node25" class="node"><title>Node25</title>
<g id="a_node25"><a xlink:href="class_word_quizzle_1_1_word_quizzle_client.html#a155c2dca547e63f1ba07589525ccfd75" target="_top" xlink:title="Richiede la classifica dell&#39;user e dei suoi amici.">
<polygon fill="white" stroke="black" points="170,-137 170,-167 360,-167 360,-137 170,-137"/>
<text text-anchor="start" x="178" y="-155" font-family="Helvetica,sans-Serif" font-size="10.00">WordQuizzle.WordQuizzleClient.mostra</text>
<text text-anchor="middle" x="265" y="-144" font-family="Helvetica,sans-Serif" font-size="10.00">_classifica</text>
</a>
</g>
</g>
<!-- Node1&#45;&gt;Node25 -->
<g id="edge26" class="edge"><title>Node1&#45;&gt;Node25</title>
<path fill="none" stroke="midnightblue" d="M73.3154,-268.237C87.9939,-247.972 124.712,-201.216 167,-177 170.926,-174.752 175.056,-172.702 179.308,-170.834"/>
<polygon fill="midnightblue" stroke="midnightblue" points="180.805,-174.005 188.778,-167.029 178.194,-167.51 180.805,-174.005"/>
</g>
<!-- Node27 -->
<g id="node27" class="node"><title>Node27</title>
<g id="a_node27"><a xlink:href="class_word_quizzle_1_1_word_quizzle_client.html#a22e0d1e5461e49703357d34b50cf70b8" target="_top" xlink:title="Richiede il punteggio di user.">
<polygon fill="white" stroke="black" points="170,-88 170,-118 360,-118 360,-88 170,-88"/>
<text text-anchor="start" x="178" y="-106" font-family="Helvetica,sans-Serif" font-size="10.00">WordQuizzle.WordQuizzleClient.mostra</text>
<text text-anchor="middle" x="265" y="-95" font-family="Helvetica,sans-Serif" font-size="10.00">_punteggio</text>
</a>
</g>
</g>
<!-- Node1&#45;&gt;Node27 -->
<g id="edge28" class="edge"><title>Node1&#45;&gt;Node27</title>
<path fill="none" stroke="midnightblue" d="M69.9754,-268.429C80.249,-241.549 113.17,-164.868 167,-127 169.111,-125.515 171.303,-124.122 173.562,-122.815"/>
<polygon fill="midnightblue" stroke="midnightblue" points="175.27,-125.872 182.562,-118.186 172.069,-119.647 175.27,-125.872"/>
</g>
<!-- Node29 -->
<g id="node29" class="node"><title>Node29</title>
<g id="a_node29"><a xlink:href="class_word_quizzle_1_1_word_quizzle_client.html#a98206956fc50ef3951d27f2a89fb21fa" target="_top" xlink:title="Registra un nuovo utente.">
<polygon fill="white" stroke="black" points="169,-39 169,-69 361,-69 361,-39 169,-39"/>
<text text-anchor="start" x="177" y="-57" font-family="Helvetica,sans-Serif" font-size="10.00">WordQuizzle.WordQuizzleClient.registra</text>
<text text-anchor="middle" x="265" y="-46" font-family="Helvetica,sans-Serif" font-size="10.00">_utente</text>
</a>
</g>
</g>
<!-- Node1&#45;&gt;Node29 -->
<g id="edge30" class="edge"><title>Node1&#45;&gt;Node29</title>
<path fill="none" stroke="midnightblue" d="M68.384,-268.265C75.2015,-235.767 101.714,-130.134 167,-78 168.627,-76.701 170.314,-75.471 172.053,-74.3065"/>
<polygon fill="midnightblue" stroke="midnightblue" points="174.256,-77.0732 181.132,-69.0122 170.73,-71.0262 174.256,-77.0732"/>
</g>
<!-- Node31 -->
<g id="node31" class="node"><title>Node31</title>
<g id="a_node31"><a xlink:href="class_word_quizzle_1_1_word_quizzle_client.html#a2f667c9d998bab28411f3fd0af90ec8c" target="_top" xlink:title="Invia una richiesta di sfida ad un amico.">
<polygon fill="white" stroke="black" points="175,-0.5 175,-19.5 355,-19.5 355,-0.5 175,-0.5"/>
<text text-anchor="middle" x="265" y="-7.5" font-family="Helvetica,sans-Serif" font-size="10.00">WordQuizzle.WordQuizzleClient.sfida</text>
</a>
</g>
</g>
<!-- Node1&#45;&gt;Node31 -->
<g id="edge32" class="edge"><title>Node1&#45;&gt;Node31</title>
<path fill="none" stroke="midnightblue" d="M67.2119,-268.487C70.5375,-231.26 87.9219,-94.3062 167,-29 168.828,-27.4907 170.74,-26.0889 172.724,-24.7875"/>
<polygon fill="midnightblue" stroke="midnightblue" points="174.804,-27.6343 181.828,-19.7019 171.391,-21.5232 174.804,-27.6343"/>
</g>
<!-- Node3 -->
<g id="node3" class="node"><title>Node3</title>
<g id="a_node3"><a xlink:href="interface_word_quizzle_1_1_word_quizzle_service.html#a92f4e390ec5be3e56f73d2c98787a302" target="_top" xlink:title="Aggiunge un utente alla lista di amici di nickUtente.">
<polygon fill="white" stroke="black" points="399,-860 399,-890 602,-890 602,-860 399,-860"/>
<text text-anchor="start" x="407" y="-878" font-family="Helvetica,sans-Serif" font-size="10.00">WordQuizzle.WordQuizzleService.aggiungi</text>
<text text-anchor="middle" x="500.5" y="-867" font-family="Helvetica,sans-Serif" font-size="10.00">_amico</text>
</a>
</g>
</g>
<!-- Node2&#45;&gt;Node3 -->
<g id="edge2" class="edge"><title>Node2&#45;&gt;Node3</title>
<path fill="none" stroke="midnightblue" d="M363.334,-868.585C371.789,-868.984 380.383,-869.388 388.933,-869.791"/>
<polygon fill="midnightblue" stroke="midnightblue" points="388.785,-873.288 398.938,-870.263 389.114,-866.296 388.785,-873.288"/>
</g>
<!-- Node6 -->
<g id="node6" class="node"><title>Node6</title>
<g id="a_node6"><a xlink:href="class_word_quizzle_1_1_word_quizzle_server_service.html#a970fe0e2dd7457bab2c64ae722a912fc" target="_top" xlink:title="Restituisce il numero di parole per sfida.">
<polygon fill="white" stroke="black" points="421,-410 421,-440 580,-440 580,-410 421,-410"/>
<text text-anchor="start" x="429" y="-428" font-family="Helvetica,sans-Serif" font-size="10.00">WordQuizzle.WordQuizzleServer</text>
<text text-anchor="middle" x="500.5" y="-417" font-family="Helvetica,sans-Serif" font-size="10.00">Service.getK</text>
</a>
</g>
</g>
<!-- Node5&#45;&gt;Node6 -->
<g id="edge5" class="edge"><title>Node5&#45;&gt;Node6</title>
<path fill="none" stroke="midnightblue" d="M289.758,-360.648C316.159,-371.158 360.192,-388.063 399,-400 407.303,-402.554 416.052,-405.034 424.783,-407.378"/>
<polygon fill="midnightblue" stroke="midnightblue" points="424.046,-410.803 434.607,-409.963 425.827,-404.034 424.046,-410.803"/>
</g>
<!-- Node7 -->
<g id="node7" class="node"><title>Node7</title>
<g id="a_node7"><a xlink:href="class_word_quizzle_1_1_word_quizzle_server_service.html#ac78bda2a578b3baa0933ca28e4b72e0c" target="_top" xlink:title="Restituisce la durata di una sfida, in millisecondi.">
<polygon fill="white" stroke="black" points="421,-361 421,-391 580,-391 580,-361 421,-361"/>
<text text-anchor="start" x="429" y="-379" font-family="Helvetica,sans-Serif" font-size="10.00">WordQuizzle.WordQuizzleServer</text>
<text text-anchor="middle" x="500.5" y="-368" font-family="Helvetica,sans-Serif" font-size="10.00">Service.getT2</text>
</a>
</g>
</g>
<!-- Node5&#45;&gt;Node7 -->
<g id="edge6" class="edge"><title>Node5&#45;&gt;Node7</title>
<path fill="none" stroke="midnightblue" d="M330.733,-357.931C355.506,-360.583 384.207,-363.656 410.836,-366.507"/>
<polygon fill="midnightblue" stroke="midnightblue" points="410.612,-370.003 420.927,-367.588 411.357,-363.043 410.612,-370.003"/>
</g>
<!-- Node8 -->
<g id="node8" class="node"><title>Node8</title>
<g id="a_node8"><a xlink:href="class_word_quizzle_1_1_word_quizzle_client.html#a828a5e7a358bd53296d88c97172db13b" target="_top" xlink:title="Invia la traduzione della parola precedentemente inviata dal server durante una sfida.">
<polygon fill="white" stroke="black" points="410,-312 410,-342 591,-342 591,-312 410,-312"/>
<text text-anchor="start" x="418" y="-330" font-family="Helvetica,sans-Serif" font-size="10.00">WordQuizzle.WordQuizzleClient.send</text>
<text text-anchor="middle" x="500.5" y="-319" font-family="Helvetica,sans-Serif" font-size="10.00">Translation</text>
</a>
</g>
</g>
<!-- Node5&#45;&gt;Node8 -->
<g id="edge7" class="edge"><title>Node5&#45;&gt;Node8</title>
<path fill="none" stroke="midnightblue" d="M330.733,-344.347C352.013,-342.159 376.191,-339.674 399.464,-337.282"/>
<polygon fill="midnightblue" stroke="midnightblue" points="400.135,-340.732 409.724,-336.227 399.419,-333.768 400.135,-340.732"/>
</g>
<!-- Node9 -->
<g id="node9" class="node"><title>Node9</title>
<g id="a_node9"><a xlink:href="interface_word_quizzle_1_1_word_quizzle_service.html#a40fcaf644a7b5e4e1c1e592052f55e0b" target="_top" xlink:title="Invia la traduzione della parola precedentemente inviata dal server durante una sfida.">
<polygon fill="white" stroke="black" points="638,-312 638,-342 826,-342 826,-312 638,-312"/>
<text text-anchor="start" x="646" y="-330" font-family="Helvetica,sans-Serif" font-size="10.00">WordQuizzle.WordQuizzleService.send</text>
<text text-anchor="middle" x="732" y="-319" font-family="Helvetica,sans-Serif" font-size="10.00">Translation</text>
</a>
</g>
</g>
<!-- Node8&#45;&gt;Node9 -->
<g id="edge8" class="edge"><title>Node8&#45;&gt;Node9</title>
<path fill="none" stroke="midnightblue" d="M591.217,-327C603.199,-327 615.565,-327 627.755,-327"/>
<polygon fill="midnightblue" stroke="midnightblue" points="627.942,-330.5 637.942,-327 627.942,-323.5 627.942,-330.5"/>
</g>
<!-- Node10&#45;&gt;Node4 -->
<g id="edge10" class="edge"><title>Node10&#45;&gt;Node4</title>
<path fill="none" stroke="midnightblue" d="M269.845,-621.674C282.819,-653.004 328.169,-752.469 399,-801 405.169,-805.227 411.987,-808.74 419.079,-811.66"/>
<polygon fill="midnightblue" stroke="midnightblue" points="418.293,-815.101 428.886,-815.286 420.72,-808.535 418.293,-815.101"/>
</g>
<!-- Node11 -->
<g id="node11" class="node"><title>Node11</title>
<g id="a_node11"><a xlink:href="class_word_quizzle_1_1_w_q_cli.html#a0637563fc8b57e7e5d7bc623be3047e9" target="_top" xlink:title="Restistuisce una stringa contenente informazioni riguardo la visualizzazione della lista amici.">
<polygon fill="white" stroke="black" points="438,-723 438,-753 563,-753 563,-723 438,-723"/>
<text text-anchor="start" x="446" y="-741" font-family="Helvetica,sans-Serif" font-size="10.00">WordQuizzle.WQCli.lista</text>
<text text-anchor="middle" x="500.5" y="-730" font-family="Helvetica,sans-Serif" font-size="10.00">_amici</text>
</a>
</g>
</g>
<!-- Node10&#45;&gt;Node11 -->
<g id="edge11" class="edge"><title>Node10&#45;&gt;Node11</title>
<path fill="none" stroke="midnightblue" d="M275.728,-621.69C296.495,-641.818 347.486,-688.328 399,-713 408.061,-717.339 417.954,-720.975 427.884,-724.009"/>
<polygon fill="midnightblue" stroke="midnightblue" points="427.221,-727.459 437.798,-726.844 429.146,-720.729 427.221,-727.459"/>
</g>
<!-- Node10&#45;&gt;Node12 -->
<g id="edge12" class="edge"><title>Node10&#45;&gt;Node12</title>
<path fill="none" stroke="midnightblue" d="M277.274,-621.536C296.235,-637.887 335.161,-672.825 363,-707 381.687,-729.94 374.466,-746.461 399,-763 407.282,-768.583 416.777,-772.63 426.551,-775.547"/>
<polygon fill="midnightblue" stroke="midnightblue" points="425.826,-778.974 436.384,-778.101 427.586,-772.199 425.826,-778.974"/>
</g>
<!-- Node13 -->
<g id="node13" class="node"><title>Node13</title>
<g id="a_node13"><a xlink:href="class_word_quizzle_1_1_w_q_cli.html#a09b72dba431b9d164cc07cdbd58053df" target="_top" xlink:title="Restistuisce una stringa contenente informazioni riguardo il logout.">
<polygon fill="white" stroke="black" points="433.5,-684.5 433.5,-703.5 567.5,-703.5 567.5,-684.5 433.5,-684.5"/>
<text text-anchor="middle" x="500.5" y="-691.5" font-family="Helvetica,sans-Serif" font-size="10.00">WordQuizzle.WQCli.logout</text>
</a>
</g>
</g>
<!-- Node10&#45;&gt;Node13 -->
<g id="edge13" class="edge"><title>Node10&#45;&gt;Node13</title>
<path fill="none" stroke="midnightblue" d="M282.643,-621.598C307.281,-635.404 355.268,-660.769 399,-675 407.556,-677.784 416.663,-680.211 425.766,-682.312"/>
<polygon fill="midnightblue" stroke="midnightblue" points="425.101,-685.749 435.618,-684.466 426.596,-678.911 425.101,-685.749"/>
</g>
<!-- Node14 -->
<g id="node14" class="node"><title>Node14</title>
<g id="a_node14"><a xlink:href="class_word_quizzle_1_1_w_q_cli.html#a147c086aad7a54c6162cea04f4a5cea8" target="_top" xlink:title="Restistuisce una stringa contenente informazioni riguardo la visualizzazione della classifica.">
<polygon fill="white" stroke="black" points="432,-635 432,-665 569,-665 569,-635 432,-635"/>
<text text-anchor="start" x="440" y="-653" font-family="Helvetica,sans-Serif" font-size="10.00">WordQuizzle.WQCli.mostra</text>
<text text-anchor="middle" x="500.5" y="-642" font-family="Helvetica,sans-Serif" font-size="10.00">_classifica</text>
</a>
</g>
</g>
<!-- Node10&#45;&gt;Node14 -->
<g id="edge14" class="edge"><title>Node10&#45;&gt;Node14</title>
<path fill="none" stroke="midnightblue" d="M324.621,-621.54C353.998,-626.321 389.969,-632.175 421.632,-637.328"/>
<polygon fill="midnightblue" stroke="midnightblue" points="421.315,-640.822 431.747,-638.974 422.439,-633.913 421.315,-640.822"/>
</g>
<!-- Node15 -->
<g id="node15" class="node"><title>Node15</title>
<g id="a_node15"><a xlink:href="class_word_quizzle_1_1_w_q_cli.html#a10b2156f5c561a889f7feec6cb7bbacc" target="_top" xlink:title="Restistuisce una stringa contenente informazioni riguardo la visualizzazione del proprio punteggio.">
<polygon fill="white" stroke="black" points="432,-586 432,-616 569,-616 569,-586 432,-586"/>
<text text-anchor="start" x="440" y="-604" font-family="Helvetica,sans-Serif" font-size="10.00">WordQuizzle.WQCli.mostra</text>
<text text-anchor="middle" x="500.5" y="-593" font-family="Helvetica,sans-Serif" font-size="10.00">_punteggio</text>
</a>
</g>
</g>
<!-- Node10&#45;&gt;Node15 -->
<g id="edge15" class="edge"><title>Node10&#45;&gt;Node15</title>
<path fill="none" stroke="midnightblue" d="M327.655,-609.095C356.425,-607.74 390.987,-606.112 421.547,-604.672"/>
<polygon fill="midnightblue" stroke="midnightblue" points="421.919,-608.159 431.743,-604.192 421.59,-601.166 421.919,-608.159"/>
</g>
<!-- Node16 -->
<g id="node16" class="node"><title>Node16</title>
<g id="a_node16"><a xlink:href="class_word_quizzle_1_1_w_q_cli.html#a07609480f2f51587119199d616ce5ee2" target="_top" xlink:title="Restistuisce una stringa contenente informazioni riguardo l&#39;uscita dal gioco.">
<polygon fill="white" stroke="black" points="439,-547.5 439,-566.5 562,-566.5 562,-547.5 439,-547.5"/>
<text text-anchor="middle" x="500.5" y="-554.5" font-family="Helvetica,sans-Serif" font-size="10.00">WordQuizzle.WQCli.quit</text>
</a>
</g>
</g>
<!-- Node10&#45;&gt;Node16 -->
<g id="edge16" class="edge"><title>Node10&#45;&gt;Node16</title>
<path fill="none" stroke="midnightblue" d="M300.027,-602.434C326.815,-595.052 365.15,-584.814 399,-577 411.777,-574.05 425.528,-571.141 438.633,-568.494"/>
<polygon fill="midnightblue" stroke="midnightblue" points="439.381,-571.914 448.502,-566.524 438.011,-565.049 439.381,-571.914"/>
</g>
<!-- Node17 -->
<g id="node17" class="node"><title>Node17</title>
<g id="a_node17"><a xlink:href="class_word_quizzle_1_1_w_q_cli.html#a65cec1c9b0f47f1996351f0fd40f9c4c" target="_top" xlink:title="Restistuisce una stringa contenente informazioni riguardo la registrazione di un utente.">
<polygon fill="white" stroke="black" points="430.5,-498 430.5,-528 570.5,-528 570.5,-498 430.5,-498"/>
<text text-anchor="start" x="438.5" y="-516" font-family="Helvetica,sans-Serif" font-size="10.00">WordQuizzle.WQCli.registra</text>
<text text-anchor="middle" x="500.5" y="-505" font-family="Helvetica,sans-Serif" font-size="10.00">_utente</text>
</a>
</g>
</g>
<!-- Node10&#45;&gt;Node17 -->
<g id="edge17" class="edge"><title>Node10&#45;&gt;Node17</title>
<path fill="none" stroke="midnightblue" d="M280.139,-602.473C303.788,-586.928 353.281,-556.037 399,-538 405.842,-535.301 413.063,-532.826 420.368,-530.573"/>
<polygon fill="midnightblue" stroke="midnightblue" points="421.746,-533.816 430.353,-527.637 419.772,-527.1 421.746,-533.816"/>
</g>
<!-- Node10&#45;&gt;Node18 -->
<g id="edge18" class="edge"><title>Node10&#45;&gt;Node18</title>
<path fill="none" stroke="midnightblue" d="M273.121,-602.33C291.201,-578.558 341.542,-517.087 399,-488 407.525,-483.685 416.906,-480.344 426.407,-477.759"/>
<polygon fill="midnightblue" stroke="midnightblue" points="427.441,-481.109 436.32,-475.329 425.775,-474.31 427.441,-481.109"/>
</g>
<!-- Node20 -->
<g id="node20" class="node"><title>Node20</title>
<g id="a_node20"><a xlink:href="interface_word_quizzle_1_1_word_quizzle_service.html#a840ff7492e52f3917106fdea99c6e0f5" target="_top" xlink:title="Richiede la lista degli amici di nickUtente.">
<polygon fill="white" stroke="black" points="408,-263 408,-293 593,-293 593,-263 408,-263"/>
<text text-anchor="start" x="416" y="-281" font-family="Helvetica,sans-Serif" font-size="10.00">WordQuizzle.WordQuizzleService.lista</text>
<text text-anchor="middle" x="500.5" y="-270" font-family="Helvetica,sans-Serif" font-size="10.00">_amici</text>
</a>
</g>
</g>
<!-- Node19&#45;&gt;Node20 -->
<g id="edge20" class="edge"><title>Node19&#45;&gt;Node20</title>
<path fill="none" stroke="midnightblue" d="M354.276,-278C368.547,-278 383.422,-278 397.976,-278"/>
<polygon fill="midnightblue" stroke="midnightblue" points="397.989,-281.5 407.989,-278 397.989,-274.5 397.989,-281.5"/>
</g>
<!-- Node22 -->
<g id="node22" class="node"><title>Node22</title>
<g id="a_node22"><a xlink:href="interface_word_quizzle_1_1_word_quizzle_service.html#abae2cda062f36f0e54c9d13589c53027" target="_top" xlink:title="Effettua il login.">
<polygon fill="white" stroke="black" points="407,-224.5 407,-243.5 594,-243.5 594,-224.5 407,-224.5"/>
<text text-anchor="middle" x="500.5" y="-231.5" font-family="Helvetica,sans-Serif" font-size="10.00">WordQuizzle.WordQuizzleService.login</text>
</a>
</g>
</g>
<!-- Node21&#45;&gt;Node22 -->
<g id="edge22" class="edge"><title>Node21&#45;&gt;Node22</title>
<path fill="none" stroke="midnightblue" d="M355.276,-234C368.847,-234 382.944,-234 396.775,-234"/>
<polygon fill="midnightblue" stroke="midnightblue" points="396.787,-237.5 406.787,-234 396.787,-230.5 396.787,-237.5"/>
</g>
<!-- Node24 -->
<g id="node24" class="node"><title>Node24</title>
<g id="a_node24"><a xlink:href="interface_word_quizzle_1_1_word_quizzle_service.html#afad4dcc98ed2305c17a64146548c1100" target="_top" xlink:title="Effettua il logout.">
<polygon fill="white" stroke="black" points="404,-186.5 404,-205.5 597,-205.5 597,-186.5 404,-186.5"/>
<text text-anchor="middle" x="500.5" y="-193.5" font-family="Helvetica,sans-Serif" font-size="10.00">WordQuizzle.WordQuizzleService.logout</text>
</a>
</g>
</g>
<!-- Node23&#45;&gt;Node24 -->
<g id="edge25" class="edge"><title>Node23&#45;&gt;Node24</title>
<path fill="none" stroke="midnightblue" d="M358.285,-196C369.821,-196 381.69,-196 393.414,-196"/>
<polygon fill="midnightblue" stroke="midnightblue" points="393.669,-199.5 403.669,-196 393.669,-192.5 393.669,-199.5"/>
</g>
<!-- Node26 -->
<g id="node26" class="node"><title>Node26</title>
<g id="a_node26"><a xlink:href="interface_word_quizzle_1_1_word_quizzle_service.html#a51f8d07d06959a1719fd7e7f4bee1e75" target="_top" xlink:title="Richiede la classifica dell&#39;utente e dei suoi amici.">
<polygon fill="white" stroke="black" points="402,-137 402,-167 599,-167 599,-137 402,-137"/>
<text text-anchor="start" x="410" y="-155" font-family="Helvetica,sans-Serif" font-size="10.00">WordQuizzle.WordQuizzleService.mostra</text>
<text text-anchor="middle" x="500.5" y="-144" font-family="Helvetica,sans-Serif" font-size="10.00">_classifica</text>
</a>
</g>
</g>
<!-- Node25&#45;&gt;Node26 -->
<g id="edge27" class="edge"><title>Node25&#45;&gt;Node26</title>
<path fill="none" stroke="midnightblue" d="M360.3,-152C370.659,-152 381.264,-152 391.77,-152"/>
<polygon fill="midnightblue" stroke="midnightblue" points="391.802,-155.5 401.802,-152 391.801,-148.5 391.802,-155.5"/>
</g>
<!-- Node28 -->
<g id="node28" class="node"><title>Node28</title>
<g id="a_node28"><a xlink:href="interface_word_quizzle_1_1_word_quizzle_service.html#aa52c8d6d7cb293c01798f169eb4d51d3" target="_top" xlink:title="Richiede il punteggio di nickUtente.">
<polygon fill="white" stroke="black" points="402,-88 402,-118 599,-118 599,-88 402,-88"/>
<text text-anchor="start" x="410" y="-106" font-family="Helvetica,sans-Serif" font-size="10.00">WordQuizzle.WordQuizzleService.mostra</text>
<text text-anchor="middle" x="500.5" y="-95" font-family="Helvetica,sans-Serif" font-size="10.00">_punteggio</text>
</a>
</g>
</g>
<!-- Node27&#45;&gt;Node28 -->
<g id="edge29" class="edge"><title>Node27&#45;&gt;Node28</title>
<path fill="none" stroke="midnightblue" d="M360.3,-103C370.659,-103 381.264,-103 391.77,-103"/>
<polygon fill="midnightblue" stroke="midnightblue" points="391.802,-106.5 401.802,-103 391.801,-99.5001 391.802,-106.5"/>
</g>
<!-- Node30 -->
<g id="node30" class="node"><title>Node30</title>
<g id="a_node30"><a xlink:href="interface_word_quizzle_1_1_word_quizzle_service.html#a4abc4590c1b6009ec9afb7ba1a1022b1" target="_top" xlink:title="Registra un utente.">
<polygon fill="white" stroke="black" points="401,-39 401,-69 600,-69 600,-39 401,-39"/>
<text text-anchor="start" x="409" y="-57" font-family="Helvetica,sans-Serif" font-size="10.00">WordQuizzle.WordQuizzleService.registra</text>
<text text-anchor="middle" x="500.5" y="-46" font-family="Helvetica,sans-Serif" font-size="10.00">_utente</text>
</a>
</g>
</g>
<!-- Node29&#45;&gt;Node30 -->
<g id="edge31" class="edge"><title>Node29&#45;&gt;Node30</title>
<path fill="none" stroke="midnightblue" d="M361.31,-54C370.95,-54 380.792,-54 390.561,-54"/>
<polygon fill="midnightblue" stroke="midnightblue" points="390.703,-57.5001 400.703,-54 390.703,-50.5001 390.703,-57.5001"/>
</g>
<!-- Node32 -->
<g id="node32" class="node"><title>Node32</title>
<g id="a_node32"><a xlink:href="interface_word_quizzle_1_1_word_quizzle_service.html#a03b9a7a322f06b3c95a028faf5eb32d4" target="_top" xlink:title="Invia una richiesta di sfida ad un amico di nickUtente.">
<polygon fill="white" stroke="black" points="407,-0.5 407,-19.5 594,-19.5 594,-0.5 407,-0.5"/>
<text text-anchor="middle" x="500.5" y="-7.5" font-family="Helvetica,sans-Serif" font-size="10.00">WordQuizzle.WordQuizzleService.sfida</text>
</a>
</g>
</g>
<!-- Node31&#45;&gt;Node32 -->
<g id="edge33" class="edge"><title>Node31&#45;&gt;Node32</title>
<path fill="none" stroke="midnightblue" d="M355.276,-10C368.847,-10 382.944,-10 396.775,-10"/>
<polygon fill="midnightblue" stroke="midnightblue" points="396.787,-13.5001 406.787,-10 396.787,-6.5001 396.787,-13.5001"/>
</g>
</g>
</svg>
        <g id="navigator" transform="translate(0 0)" fill="#404254">
                <rect fill="#f2f5e9" fill-opacity="0.5" stroke="#606060" stroke-width=".5" x="0" y="0" width="60" height="60"/>
                <use id="zoomplus" xlink:href="#zoomPlus" x="17" y="9" onmousedown="handleZoom(evt,'in')"/>
                <use id="zoomminus" xlink:href="#zoomMin" x="42" y="9" onmousedown="handleZoom(evt,'out')"/>
                <use id="reset" xlink:href="#resetDef" x="30" y="36" onmousedown="handleReset()"/>
                <g id="arrowUp" xlink:href="#dirArrow" transform="translate(30 24)" onmousedown="handlePan(0,-1)">
                  <use xlink:href="#rim" fill="#404040">
                        <set attributeName="fill" to="#808080" begin="arrowUp.mouseover" end="arrowUp.mouseout"/>
                  </use>
                  <path fill="none" stroke="white" stroke-width="1.5" d="M0,-3.0v7 M-2.5,-0.5L0,-3.0L2.5,-0.5"/>
                </g>
                <g id="arrowRight" xlink:href="#dirArrow" transform="rotate(90) translate(36 -43)" onmousedown="handlePan(1,0)">
                  <use xlink:href="#rim" fill="#404040">
                        <set attributeName="fill" to="#808080" begin="arrowRight.mouseover" end="arrowRight.mouseout"/>
                  </use>
                  <path fill="none" stroke="white" stroke-width="1.5" d="M0,-3.0v7 M-2.5,-0.5L0,-3.0L2.5,-0.5"/>
                </g>
                <g id="arrowDown" xlink:href="#dirArrow" transform="rotate(180) translate(-30 -48)" onmousedown="handlePan(0,1)">
                  <use xlink:href="#rim" fill="#404040">
                        <set attributeName="fill" to="#808080" begin="arrowDown.mouseover" end="arrowDown.mouseout"/>
                  </use>
                  <path fill="none" stroke="white" stroke-width="1.5" d="M0,-3.0v7 M-2.5,-0.5L0,-3.0L2.5,-0.5"/>
                </g>
                <g id="arrowLeft" xlink:href="#dirArrow" transform="rotate(270) translate(-36 17)" onmousedown="handlePan(-1,0)">
                  <use xlink:href="#rim" fill="#404040">
                        <set attributeName="fill" to="#808080" begin="arrowLeft.mouseover" end="arrowLeft.mouseout"/>
                  </use>
                  <path fill="none" stroke="white" stroke-width="1.5" d="M0,-3.0v7 M-2.5,-0.5L0,-3.0L2.5,-0.5"/>
                </g>
        </g>
        <svg viewBox="0 0 15 15" width="100%" height="30px" preserveAspectRatio="xMaxYMin meet">
         <g id="arrow_out" transform="scale(0.3 0.3)">
          <a xlink:href="class_word_quizzle_1_1_w_q_cli_a318ef86f91a825da4ff4684bd3332a6b_cgraph_org.svg" target="_base">
           <rect id="button" ry="5" rx="5" y="6" x="6" height="38" width="38"
                fill="#f2f5e9" fill-opacity="0.5" stroke="#606060" stroke-width="1.0"/>
           <path id="arrow"
             d="M 11.500037,31.436501 C 11.940474,20.09759 22.043105,11.32322 32.158766,21.979434 L 37.068811,17.246167 C 37.068811,17.246167 37.088388,32 37.088388,32 L 22.160133,31.978069 C 22.160133,31.978069 26.997745,27.140456 26.997745,27.140456 C 18.528582,18.264221 13.291696,25.230495 11.500037,31.436501 z"
             style="fill:#404040;"/>
          </a>
         </g>
        </svg>
</svg>
