<?xml version="1.0" encoding="UTF-8" standalone="no"?>
<!DOCTYPE svg PUBLIC "-//W3C//DTD SVG 1.1//EN"
 "http://www.w3.org/Graphics/SVG/1.1/DTD/svg11.dtd">
<!-- Generated by graphviz version 2.38.0 (20140413.2041)
 -->
<!-- Title: WordQuizzleServer.run Pages: 1 -->
<svg width="751pt" height="306pt"
 viewBox="0.00 0.00 751.00 306.00" xmlns="http://www.w3.org/2000/svg" xmlns:xlink="http://www.w3.org/1999/xlink">
<g id="graph0" class="graph" transform="scale(1 1) rotate(0) translate(4 302)">
<title>WordQuizzleServer.run</title>
<polygon fill="white" stroke="none" points="-4,4 -4,-302 747,-302 747,4 -4,4"/>
<!-- Node1 -->
<g id="node1" class="node"><title>Node1</title>
<g id="a_node1"><a xlink:title=" ">
<polygon fill="#bfbfbf" stroke="black" points="0,-202.5 0,-221.5 116,-221.5 116,-202.5 0,-202.5"/>
<text text-anchor="middle" x="58" y="-209.5" font-family="Helvetica,sans-Serif" font-size="10.00">WordQuizzleServer.run</text>
</a>
</g>
</g>
<!-- Node2 -->
<g id="node2" class="node"><title>Node2</title>
<g id="a_node2"><a xlink:href="class_session.html#af23241261df6cb881720a65db842ff96" target="_top" xlink:title=" ">
<polygon fill="white" stroke="black" points="166.5,-278.5 166.5,-297.5 249.5,-297.5 249.5,-278.5 166.5,-278.5"/>
<text text-anchor="middle" x="208" y="-285.5" font-family="Helvetica,sans-Serif" font-size="10.00">Session.getBfs</text>
</a>
</g>
</g>
<!-- Node1&#45;&gt;Node2 -->
<g id="edge1" class="edge"><title>Node1&#45;&gt;Node2</title>
<path fill="none" stroke="midnightblue" d="M72.6469,-221.678C90.3197,-233.897 122.376,-255.009 152,-269 156.393,-271.075 161.077,-273.041 165.787,-274.865"/>
<polygon fill="midnightblue" stroke="midnightblue" points="164.814,-278.236 175.407,-278.402 167.229,-271.666 164.814,-278.236"/>
</g>
<!-- Node3 -->
<g id="node3" class="node"><title>Node3</title>
<g id="a_node3"><a xlink:href="class_session.html#a88138ee90b7766aebcf76b8bdc6d06bc" target="_top" xlink:title=" ">
<polygon fill="white" stroke="black" points="152,-240.5 152,-259.5 264,-259.5 264,-240.5 152,-240.5"/>
<text text-anchor="middle" x="208" y="-247.5" font-family="Helvetica,sans-Serif" font-size="10.00">Session.getResponse</text>
</a>
</g>
</g>
<!-- Node1&#45;&gt;Node3 -->
<g id="edge2" class="edge"><title>Node1&#45;&gt;Node3</title>
<path fill="none" stroke="midnightblue" d="M96.3466,-221.589C115.701,-226.558 139.53,-232.677 160.113,-237.961"/>
<polygon fill="midnightblue" stroke="midnightblue" points="159.366,-241.383 169.922,-240.48 161.107,-234.603 159.366,-241.383"/>
</g>
<!-- Node4 -->
<g id="node4" class="node"><title>Node4</title>
<g id="a_node4"><a xlink:href="class_session.html#aaede3db35a6f25322a0f4ca3d2b0def7" target="_top" xlink:title=" ">
<polygon fill="white" stroke="black" points="153,-202.5 153,-221.5 263,-221.5 263,-202.5 153,-202.5"/>
<text text-anchor="middle" x="208" y="-209.5" font-family="Helvetica,sans-Serif" font-size="10.00">Session.isTerminated</text>
</a>
</g>
</g>
<!-- Node1&#45;&gt;Node4 -->
<g id="edge3" class="edge"><title>Node1&#45;&gt;Node4</title>
<path fill="none" stroke="midnightblue" d="M116.221,-212C124.873,-212 133.849,-212 142.641,-212"/>
<polygon fill="midnightblue" stroke="midnightblue" points="142.845,-215.5 152.845,-212 142.845,-208.5 142.845,-215.5"/>
</g>
<!-- Node5 -->
<g id="node5" class="node"><title>Node5</title>
<g id="a_node5"><a xlink:href="class_session.html#aec1809a5616ff0dfa7244ded2fdd8a13" target="_top" xlink:title=" ">
<polygon fill="white" stroke="black" points="165,-164.5 165,-183.5 251,-183.5 251,-164.5 165,-164.5"/>
<text text-anchor="middle" x="208" y="-171.5" font-family="Helvetica,sans-Serif" font-size="10.00">Session.newBfs</text>
</a>
</g>
</g>
<!-- Node1&#45;&gt;Node5 -->
<g id="edge4" class="edge"><title>Node1&#45;&gt;Node5</title>
<path fill="none" stroke="midnightblue" d="M96.3466,-202.411C115.701,-197.442 139.53,-191.323 160.113,-186.039"/>
<polygon fill="midnightblue" stroke="midnightblue" points="161.107,-189.397 169.922,-183.52 159.366,-182.617 161.107,-189.397"/>
</g>
<!-- Node6 -->
<g id="node6" class="node"><title>Node6</title>
<g id="a_node6"><a xlink:href="class_session.html#a75364929cf1f8f9e75992a8a8c3b589f" target="_top" xlink:title=" ">
<polygon fill="white" stroke="black" points="168.5,-126.5 168.5,-145.5 247.5,-145.5 247.5,-126.5 168.5,-126.5"/>
<text text-anchor="middle" x="208" y="-133.5" font-family="Helvetica,sans-Serif" font-size="10.00">Session.parse</text>
</a>
</g>
</g>
<!-- Node1&#45;&gt;Node6 -->
<g id="edge5" class="edge"><title>Node1&#45;&gt;Node6</title>
<path fill="none" stroke="midnightblue" d="M72.6469,-202.322C90.3197,-190.103 122.376,-168.991 152,-155 156.393,-152.925 161.077,-150.959 165.787,-149.135"/>
<polygon fill="midnightblue" stroke="midnightblue" points="167.229,-152.334 175.407,-145.598 164.814,-145.764 167.229,-152.334"/>
</g>
<!-- Node7 -->
<g id="node7" class="node"><title>Node7</title>
<g id="a_node7"><a xlink:href="class_session.html#a56e3ffab046de2082083cfc54b5d8e72" target="_top" xlink:title=" ">
<polygon fill="white" stroke="black" points="300,-126.5 300,-145.5 392,-145.5 392,-126.5 300,-126.5"/>
<text text-anchor="middle" x="346" y="-133.5" font-family="Helvetica,sans-Serif" font-size="10.00">Session.compute</text>
</a>
</g>
</g>
<!-- Node6&#45;&gt;Node7 -->
<g id="edge6" class="edge"><title>Node6&#45;&gt;Node7</title>
<path fill="none" stroke="midnightblue" d="M247.608,-136C260.626,-136 275.423,-136 289.483,-136"/>
<polygon fill="midnightblue" stroke="midnightblue" points="289.554,-139.5 299.554,-136 289.554,-132.5 289.554,-139.5"/>
</g>
<!-- Node8 -->
<g id="node8" class="node"><title>Node8</title>
<g id="a_node8"><a xlink:href="class_word_quizzle_server_service.html#ab25a00b519044ce4181c66fa3f412815" target="_top" xlink:title=" ">
<polygon fill="white" stroke="black" points="429.5,-263 429.5,-293 596.5,-293 596.5,-263 429.5,-263"/>
<text text-anchor="start" x="437.5" y="-281" font-family="Helvetica,sans-Serif" font-size="10.00">WordQuizzleServerService.accetta</text>
<text text-anchor="middle" x="513" y="-270" font-family="Helvetica,sans-Serif" font-size="10.00">Sfida</text>
</a>
</g>
</g>
<!-- Node7&#45;&gt;Node8 -->
<g id="edge7" class="edge"><title>Node7&#45;&gt;Node8</title>
<path fill="none" stroke="midnightblue" d="M350.853,-145.623C360.38,-168.162 387.259,-224.682 428,-254 430.101,-255.512 432.294,-256.928 434.559,-258.256"/>
<polygon fill="midnightblue" stroke="midnightblue" points="433.116,-261.45 443.604,-262.949 436.339,-255.236 433.116,-261.45"/>
</g>
<!-- Node9 -->
<g id="node9" class="node"><title>Node9</title>
<g id="a_node9"><a xlink:href="class_word_quizzle_server_service.html#a378a2523ed3c3c05001a6a3f5216ca82" target="_top" xlink:title=" ">
<polygon fill="white" stroke="black" points="428,-214 428,-244 598,-244 598,-214 428,-214"/>
<text text-anchor="start" x="436" y="-232" font-family="Helvetica,sans-Serif" font-size="10.00">WordQuizzleServerService.aggiungi</text>
<text text-anchor="middle" x="513" y="-221" font-family="Helvetica,sans-Serif" font-size="10.00">_amico</text>
</a>
</g>
</g>
<!-- Node7&#45;&gt;Node9 -->
<g id="edge8" class="edge"><title>Node7&#45;&gt;Node9</title>
<path fill="none" stroke="midnightblue" d="M355.963,-145.982C369.928,-160.944 398.366,-189.12 428,-205 431.436,-206.841 435.029,-208.555 438.713,-210.148"/>
<polygon fill="midnightblue" stroke="midnightblue" points="437.433,-213.405 448.018,-213.862 440.028,-206.904 437.433,-213.405"/>
</g>
<!-- Node12 -->
<g id="node12" class="node"><title>Node12</title>
<g id="a_node12"><a xlink:href="class_word_quizzle_server_service.html#a7d1e0c830ff9c94df196ed2d4e49e703" target="_top" xlink:title=" ">
<polygon fill="white" stroke="black" points="437,-165 437,-195 589,-195 589,-165 437,-165"/>
<text text-anchor="start" x="445" y="-183" font-family="Helvetica,sans-Serif" font-size="10.00">WordQuizzleServerService.lista</text>
<text text-anchor="middle" x="513" y="-172" font-family="Helvetica,sans-Serif" font-size="10.00">_amici</text>
</a>
</g>
</g>
<!-- Node7&#45;&gt;Node12 -->
<g id="edge11" class="edge"><title>Node7&#45;&gt;Node12</title>
<path fill="none" stroke="midnightblue" d="M382.803,-145.547C401.214,-150.457 424.251,-156.6 445.755,-162.335"/>
<polygon fill="midnightblue" stroke="midnightblue" points="444.941,-165.74 455.505,-164.935 446.744,-158.976 444.941,-165.74"/>
</g>
<!-- Node15 -->
<g id="node15" class="node"><title>Node15</title>
<g id="a_node15"><a xlink:href="class_word_quizzle_server_service.html#a75f5865caa37a7f0d2c2f5c95940c7d9" target="_top" xlink:title=" ">
<polygon fill="white" stroke="black" points="435.5,-126.5 435.5,-145.5 590.5,-145.5 590.5,-126.5 435.5,-126.5"/>
<text text-anchor="middle" x="513" y="-133.5" font-family="Helvetica,sans-Serif" font-size="10.00">WordQuizzleServerService.login</text>
</a>
</g>
</g>
<!-- Node7&#45;&gt;Node15 -->
<g id="edge15" class="edge"><title>Node7&#45;&gt;Node15</title>
<path fill="none" stroke="midnightblue" d="M392.087,-136C402.419,-136 413.744,-136 425.18,-136"/>
<polygon fill="midnightblue" stroke="midnightblue" points="425.236,-139.5 435.236,-136 425.236,-132.5 425.236,-139.5"/>
</g>
<!-- Node17 -->
<g id="node17" class="node"><title>Node17</title>
<g id="a_node17"><a xlink:href="class_word_quizzle_server_service.html#a277b16eeb84a3171777351f482157c0b" target="_top" xlink:title=" ">
<polygon fill="white" stroke="black" points="432.5,-0.5 432.5,-19.5 593.5,-19.5 593.5,-0.5 432.5,-0.5"/>
<text text-anchor="middle" x="513" y="-7.5" font-family="Helvetica,sans-Serif" font-size="10.00">WordQuizzleServerService.logout</text>
</a>
</g>
</g>
<!-- Node7&#45;&gt;Node17 -->
<g id="edge19" class="edge"><title>Node7&#45;&gt;Node17</title>
<path fill="none" stroke="midnightblue" d="M351.463,-126.185C361.702,-104.844 389.032,-54.1227 428,-29 431.204,-26.9341 434.604,-25.0912 438.128,-23.4475"/>
<polygon fill="midnightblue" stroke="midnightblue" points="439.76,-26.5619 447.698,-19.545 437.117,-20.0801 439.76,-26.5619"/>
</g>
<!-- Node18 -->
<g id="node18" class="node"><title>Node18</title>
<g id="a_node18"><a xlink:href="class_word_quizzle_server_service.html#a8002d35c102aec827bb58c4f1ca7b295" target="_top" xlink:title=" ">
<polygon fill="white" stroke="black" points="431,-77 431,-107 595,-107 595,-77 431,-77"/>
<text text-anchor="start" x="439" y="-95" font-family="Helvetica,sans-Serif" font-size="10.00">WordQuizzleServerService.mostra</text>
<text text-anchor="middle" x="513" y="-84" font-family="Helvetica,sans-Serif" font-size="10.00">_punteggio</text>
</a>
</g>
</g>
<!-- Node7&#45;&gt;Node18 -->
<g id="edge20" class="edge"><title>Node7&#45;&gt;Node18</title>
<path fill="none" stroke="midnightblue" d="M382.803,-126.453C401.214,-121.543 424.251,-115.4 445.755,-109.665"/>
<polygon fill="midnightblue" stroke="midnightblue" points="446.744,-113.024 455.505,-107.065 444.941,-106.26 446.744,-113.024"/>
</g>
<!-- Node20 -->
<g id="node20" class="node"><title>Node20</title>
<g id="a_node20"><a xlink:href="class_word_quizzle_server_service.html#afc47f0b66a46f079c4bed5e579e9a173" target="_top" xlink:title=" ">
<polygon fill="white" stroke="black" points="435.5,-38.5 435.5,-57.5 590.5,-57.5 590.5,-38.5 435.5,-38.5"/>
<text text-anchor="middle" x="513" y="-45.5" font-family="Helvetica,sans-Serif" font-size="10.00">WordQuizzleServerService.sfida</text>
</a>
</g>
</g>
<!-- Node7&#45;&gt;Node20 -->
<g id="edge24" class="edge"><title>Node7&#45;&gt;Node20</title>
<path fill="none" stroke="midnightblue" d="M355.404,-126.306C369.057,-111.202 397.603,-82.2119 428,-67 432.847,-64.5744 438.005,-62.4547 443.29,-60.603"/>
<polygon fill="midnightblue" stroke="midnightblue" points="444.428,-63.9141 452.899,-57.5511 442.309,-57.2425 444.428,-63.9141"/>
</g>
<!-- Node10 -->
<g id="node10" class="node"><title>Node10</title>
<g id="a_node10"><a xlink:href="interface_data_base.html#a580f93c56dbbed8b2fb1fc2e856efe68" target="_top" xlink:title="Controlla che quel nome utente sia nel database.">
<polygon fill="white" stroke="black" points="634,-123.5 634,-142.5 743,-142.5 743,-123.5 634,-123.5"/>
<text text-anchor="middle" x="688.5" y="-130.5" font-family="Helvetica,sans-Serif" font-size="10.00">DataBase.checkUser</text>
</a>
</g>
</g>
<!-- Node9&#45;&gt;Node10 -->
<g id="edge9" class="edge"><title>Node9&#45;&gt;Node10</title>
<path fill="none" stroke="midnightblue" d="M582.414,-213.974C587.925,-211.434 593.207,-208.467 598,-205 621.072,-188.311 611.464,-169.407 634,-152 636.418,-150.132 639.035,-148.438 641.767,-146.903"/>
<polygon fill="midnightblue" stroke="midnightblue" points="643.318,-150.041 650.784,-142.524 640.26,-143.745 643.318,-150.041"/>
</g>
<!-- Node11 -->
<g id="node11" class="node"><title>Node11</title>
<g id="a_node11"><a xlink:href="interface_data_base.html#a4b079bd92d1ca63624e4f01398eb29db" target="_top" xlink:title="Crea un link (amicizia) non orientato tra due utenti.">
<polygon fill="white" stroke="black" points="650,-237.5 650,-256.5 727,-256.5 727,-237.5 650,-237.5"/>
<text text-anchor="middle" x="688.5" y="-244.5" font-family="Helvetica,sans-Serif" font-size="10.00">DataBase.link</text>
</a>
</g>
</g>
<!-- Node9&#45;&gt;Node11 -->
<g id="edge10" class="edge"><title>Node9&#45;&gt;Node11</title>
<path fill="none" stroke="midnightblue" d="M598.209,-237.736C612.515,-239.221 626.914,-240.714 639.847,-242.056"/>
<polygon fill="midnightblue" stroke="midnightblue" points="639.567,-245.546 649.875,-243.097 640.289,-238.583 639.567,-245.546"/>
</g>
<!-- Node12&#45;&gt;Node10 -->
<g id="edge12" class="edge"><title>Node12&#45;&gt;Node10</title>
<path fill="none" stroke="midnightblue" d="M569.374,-165C592.938,-158.616 620.071,-151.266 642.387,-145.221"/>
<polygon fill="midnightblue" stroke="midnightblue" points="643.534,-148.536 652.27,-142.543 641.703,-141.78 643.534,-148.536"/>
</g>
<!-- Node13 -->
<g id="node13" class="node"><title>Node13</title>
<g id="a_node13"><a xlink:href="class_user.html#ac5a53986b756ba9b81c5eb3a5e76f070" target="_top" xlink:title="Restituisce la lista di amici dell&#39;utente.">
<polygon fill="white" stroke="black" points="645.5,-199.5 645.5,-218.5 731.5,-218.5 731.5,-199.5 645.5,-199.5"/>
<text text-anchor="middle" x="688.5" y="-206.5" font-family="Helvetica,sans-Serif" font-size="10.00">User.getFriends</text>
</a>
</g>
</g>
<!-- Node12&#45;&gt;Node13 -->
<g id="edge13" class="edge"><title>Node12&#45;&gt;Node13</title>
<path fill="none" stroke="midnightblue" d="M589.091,-192.551C604.567,-195.138 620.547,-197.809 635.013,-200.227"/>
<polygon fill="midnightblue" stroke="midnightblue" points="634.809,-203.741 645.25,-201.938 635.963,-196.837 634.809,-203.741"/>
</g>
<!-- Node14 -->
<g id="node14" class="node"><title>Node14</title>
<g id="a_node14"><a xlink:href="interface_data_base.html#af660eaf16066006da658ac99fa3f6936" target="_top" xlink:title="Dato un nome utente ottiene l&#39;oggetto User corrispondente.">
<polygon fill="white" stroke="black" points="640.5,-85.5 640.5,-104.5 736.5,-104.5 736.5,-85.5 640.5,-85.5"/>
<text text-anchor="middle" x="688.5" y="-92.5" font-family="Helvetica,sans-Serif" font-size="10.00">DataBase.getUser</text>
</a>
</g>
</g>
<!-- Node12&#45;&gt;Node14 -->
<g id="edge14" class="edge"><title>Node12&#45;&gt;Node14</title>
<path fill="none" stroke="midnightblue" d="M578.505,-164.932C585.336,-162.141 591.978,-158.858 598,-155 618.419,-141.919 613.928,-127.607 634,-114 636.861,-112.061 639.941,-110.296 643.128,-108.695"/>
<polygon fill="midnightblue" stroke="midnightblue" points="644.588,-111.876 652.295,-104.606 641.737,-105.483 644.588,-111.876"/>
</g>
<!-- Node15&#45;&gt;Node10 -->
<g id="edge16" class="edge"><title>Node15&#45;&gt;Node10</title>
<path fill="none" stroke="midnightblue" d="M590.605,-134.675C601.68,-134.484 612.98,-134.289 623.767,-134.102"/>
<polygon fill="midnightblue" stroke="midnightblue" points="623.991,-137.599 633.929,-133.926 623.87,-130.6 623.991,-137.599"/>
</g>
<!-- Node15&#45;&gt;Node14 -->
<g id="edge18" class="edge"><title>Node15&#45;&gt;Node14</title>
<path fill="none" stroke="midnightblue" d="M554.24,-126.491C579.006,-120.638 610.951,-113.089 637.356,-106.85"/>
<polygon fill="midnightblue" stroke="midnightblue" points="638.251,-110.235 647.178,-104.529 636.641,-103.422 638.251,-110.235"/>
</g>
<!-- Node16 -->
<g id="node16" class="node"><title>Node16</title>
<g id="a_node16"><a xlink:href="class_user.html#a1612cd6eef2a6e09ab5e72033b2aad00" target="_top" xlink:title="Restituisce la password dell&#39;utente.">
<polygon fill="white" stroke="black" points="640.5,-161.5 640.5,-180.5 736.5,-180.5 736.5,-161.5 640.5,-161.5"/>
<text text-anchor="middle" x="688.5" y="-168.5" font-family="Helvetica,sans-Serif" font-size="10.00">User.getPassword</text>
</a>
</g>
</g>
<!-- Node15&#45;&gt;Node16 -->
<g id="edge17" class="edge"><title>Node15&#45;&gt;Node16</title>
<path fill="none" stroke="midnightblue" d="M561.41,-145.564C582.726,-149.864 608.064,-154.975 630.414,-159.484"/>
<polygon fill="midnightblue" stroke="midnightblue" points="629.954,-162.962 640.448,-161.508 631.338,-156.1 629.954,-162.962"/>
</g>
<!-- Node18&#45;&gt;Node10 -->
<g id="edge21" class="edge"><title>Node18&#45;&gt;Node10</title>
<path fill="none" stroke="midnightblue" d="M577.62,-107.034C597.295,-111.683 618.682,-116.738 637.315,-121.141"/>
<polygon fill="midnightblue" stroke="midnightblue" points="636.531,-124.552 647.068,-123.446 638.141,-117.739 636.531,-124.552"/>
</g>
<!-- Node18&#45;&gt;Node14 -->
<g id="edge23" class="edge"><title>Node18&#45;&gt;Node14</title>
<path fill="none" stroke="midnightblue" d="M595.162,-93.4034C607.046,-93.6089 619.071,-93.8168 630.339,-94.0116"/>
<polygon fill="midnightblue" stroke="midnightblue" points="630.389,-97.5129 640.448,-94.1864 630.51,-90.514 630.389,-97.5129"/>
</g>
<!-- Node19 -->
<g id="node19" class="node"><title>Node19</title>
<g id="a_node19"><a xlink:href="class_user.html#a81a02d4809c6da6252e322ea4229a4bb" target="_top" xlink:title="Restituisce il punteggio dell&#39;utente.">
<polygon fill="white" stroke="black" points="649,-47.5 649,-66.5 728,-66.5 728,-47.5 649,-47.5"/>
<text text-anchor="middle" x="688.5" y="-54.5" font-family="Helvetica,sans-Serif" font-size="10.00">User.getScore</text>
</a>
</g>
</g>
<!-- Node18&#45;&gt;Node19 -->
<g id="edge22" class="edge"><title>Node18&#45;&gt;Node19</title>
<path fill="none" stroke="midnightblue" d="M588.587,-76.9537C605.614,-73.5189 623.279,-69.9553 638.887,-66.8067"/>
<polygon fill="midnightblue" stroke="midnightblue" points="639.709,-70.2114 648.82,-64.803 638.325,-63.3496 639.709,-70.2114"/>
</g>
<!-- Node20&#45;&gt;Node10 -->
<g id="edge25" class="edge"><title>Node20&#45;&gt;Node10</title>
<path fill="none" stroke="midnightblue" d="M578.28,-57.5789C585.227,-60.0406 591.957,-63.1283 598,-67 620.155,-81.1947 612.726,-98.5151 634,-114 636.63,-115.914 639.471,-117.651 642.424,-119.223"/>
<polygon fill="midnightblue" stroke="midnightblue" points="640.983,-122.413 651.526,-123.464 643.94,-116.068 640.983,-122.413"/>
</g>
<!-- Node20&#45;&gt;Node14 -->
<g id="edge26" class="edge"><title>Node20&#45;&gt;Node14</title>
<path fill="none" stroke="midnightblue" d="M559.503,-57.5884C572.029,-60.4188 585.583,-63.6592 598,-67 614.895,-71.5455 633.376,-77.2087 649.135,-82.2502"/>
<polygon fill="midnightblue" stroke="midnightblue" points="648.462,-85.7109 659.054,-85.4555 650.615,-79.05 648.462,-85.7109"/>
</g>
<!-- Node21 -->
<g id="node21" class="node"><title>Node21</title>
<g id="a_node21"><a xlink:href="class_user.html#a60ab059fe0b20cb98d3a2315e820b318" target="_top" xlink:title="Verifica se un nome utente e&#39; amico dell&#39;utente.">
<polygon fill="white" stroke="black" points="651.5,-9.5 651.5,-28.5 725.5,-28.5 725.5,-9.5 651.5,-9.5"/>
<text text-anchor="middle" x="688.5" y="-16.5" font-family="Helvetica,sans-Serif" font-size="10.00">User.isFriend</text>
</a>
</g>
</g>
<!-- Node20&#45;&gt;Node21 -->
<g id="edge27" class="edge"><title>Node20&#45;&gt;Node21</title>
<path fill="none" stroke="midnightblue" d="M571.291,-38.4239C594.042,-34.6212 619.861,-30.3057 641.374,-26.7098"/>
<polygon fill="midnightblue" stroke="midnightblue" points="641.956,-30.1612 651.242,-25.0605 640.802,-23.257 641.956,-30.1612"/>
</g>
</g>
</svg>
