<?xml version="1.0" encoding="UTF-8" standalone="no"?>
<!DOCTYPE svg PUBLIC "-//W3C//DTD SVG 1.1//EN"
 "http://www.w3.org/Graphics/SVG/1.1/DTD/svg11.dtd">
<!-- Generated by graphviz version 2.38.0 (20140413.2041)
 -->
<!-- Title: Session.parse Pages: 1 -->
<svg width="914pt" height="446pt"
 viewBox="0.00 0.00 914.00 446.00" xmlns="http://www.w3.org/2000/svg" xmlns:xlink="http://www.w3.org/1999/xlink">
<g id="graph0" class="graph" transform="scale(1 1) rotate(0) translate(4 442)">
<title>Session.parse</title>
<polygon fill="white" stroke="none" points="-4,4 -4,-442 910,-442 910,4 -4,4"/>
<!-- Node1 -->
<g id="node1" class="node"><title>Node1</title>
<g id="a_node1"><a xlink:title="Riceve una stringa contenente uan richiesta da parte del client e la gestisce.">
<polygon fill="#bfbfbf" stroke="black" points="0,-226.5 0,-245.5 79,-245.5 79,-226.5 0,-226.5"/>
<text text-anchor="middle" x="39.5" y="-233.5" font-family="Helvetica,sans-Serif" font-size="10.00">Session.parse</text>
</a>
</g>
</g>
<!-- Node2 -->
<g id="node2" class="node"><title>Node2</title>
<g id="a_node2"><a xlink:href="class_session.html#a56e3ffab046de2082083cfc54b5d8e72" target="_top" xlink:title="Gestisce effettivamente la richiesta del client.">
<polygon fill="white" stroke="black" points="115,-226.5 115,-245.5 207,-245.5 207,-226.5 115,-226.5"/>
<text text-anchor="middle" x="161" y="-233.5" font-family="Helvetica,sans-Serif" font-size="10.00">Session.compute</text>
</a>
</g>
</g>
<!-- Node1&#45;&gt;Node2 -->
<g id="edge1" class="edge"><title>Node1&#45;&gt;Node2</title>
<path fill="none" stroke="midnightblue" d="M79.2982,-236C87.3411,-236 95.9639,-236 104.472,-236"/>
<polygon fill="midnightblue" stroke="midnightblue" points="104.746,-239.5 114.746,-236 104.746,-232.5 104.746,-239.5"/>
</g>
<!-- Node3 -->
<g id="node3" class="node"><title>Node3</title>
<g id="a_node3"><a xlink:href="class_word_quizzle_server_service.html#a9b03b4a431c18e8d8385217e3fbd9a0a" target="_top" xlink:title="Accetta una richiesta di sfida inviata da nickAmico.">
<polygon fill="white" stroke="black" points="244.5,-109 244.5,-139 411.5,-139 411.5,-109 244.5,-109"/>
<text text-anchor="start" x="252.5" y="-127" font-family="Helvetica,sans-Serif" font-size="10.00">WordQuizzleServerService.accetta</text>
<text text-anchor="middle" x="328" y="-116" font-family="Helvetica,sans-Serif" font-size="10.00">Sfida</text>
</a>
</g>
</g>
<!-- Node2&#45;&gt;Node3 -->
<g id="edge2" class="edge"><title>Node2&#45;&gt;Node3</title>
<path fill="none" stroke="midnightblue" d="M168.343,-226.322C180.602,-208.38 209.328,-169.885 243,-149 246.394,-146.895 249.975,-144.958 253.67,-143.178"/>
<polygon fill="midnightblue" stroke="midnightblue" points="255.291,-146.289 263.044,-139.069 252.48,-139.879 255.291,-146.289"/>
</g>
<!-- Node15 -->
<g id="node15" class="node"><title>Node15</title>
<g id="a_node15"><a xlink:href="class_word_quizzle_server_service.html#a378a2523ed3c3c05001a6a3f5216ca82" target="_top" xlink:title="Aggiunge un utente alla lista di amici di nickUtente.">
<polygon fill="white" stroke="black" points="243,-383 243,-413 413,-413 413,-383 243,-383"/>
<text text-anchor="start" x="251" y="-401" font-family="Helvetica,sans-Serif" font-size="10.00">WordQuizzleServerService.aggiungi</text>
<text text-anchor="middle" x="328" y="-390" font-family="Helvetica,sans-Serif" font-size="10.00">_amico</text>
</a>
</g>
</g>
<!-- Node2&#45;&gt;Node15 -->
<g id="edge14" class="edge"><title>Node2&#45;&gt;Node15</title>
<path fill="none" stroke="midnightblue" d="M164.929,-245.627C173.028,-270.604 198.141,-337.964 243,-373 245.305,-374.8 247.737,-376.471 250.264,-378.021"/>
<polygon fill="midnightblue" stroke="midnightblue" points="248.716,-381.163 259.177,-382.844 252.048,-375.007 248.716,-381.163"/>
</g>
<!-- Node17 -->
<g id="node17" class="node"><title>Node17</title>
<g id="a_node17"><a xlink:href="class_word_quizzle_server_service.html#a7d1e0c830ff9c94df196ed2d4e49e703" target="_top" xlink:title="Restituisce la lista degli amici di nickUtente.">
<polygon fill="white" stroke="black" points="252,-295 252,-325 404,-325 404,-295 252,-295"/>
<text text-anchor="start" x="260" y="-313" font-family="Helvetica,sans-Serif" font-size="10.00">WordQuizzleServerService.lista</text>
<text text-anchor="middle" x="328" y="-302" font-family="Helvetica,sans-Serif" font-size="10.00">_amici</text>
</a>
</g>
</g>
<!-- Node2&#45;&gt;Node17 -->
<g id="edge17" class="edge"><title>Node2&#45;&gt;Node17</title>
<path fill="none" stroke="midnightblue" d="M175.13,-245.689C190.654,-256.759 217.601,-274.789 243,-286 247.449,-287.964 252.101,-289.812 256.835,-291.543"/>
<polygon fill="midnightblue" stroke="midnightblue" points="256.036,-294.97 266.631,-294.93 258.324,-288.354 256.036,-294.97"/>
</g>
<!-- Node19 -->
<g id="node19" class="node"><title>Node19</title>
<g id="a_node19"><a xlink:href="class_word_quizzle_server_service.html#afa50bcf7855d98e8198b2021a91326dd" target="_top" xlink:title="Effettua il login specificando l&#39;indirizzo per la connessione UDP.">
<polygon fill="white" stroke="black" points="250.5,-344.5 250.5,-363.5 405.5,-363.5 405.5,-344.5 250.5,-344.5"/>
<text text-anchor="middle" x="328" y="-351.5" font-family="Helvetica,sans-Serif" font-size="10.00">WordQuizzleServerService.login</text>
</a>
</g>
</g>
<!-- Node2&#45;&gt;Node19 -->
<g id="edge21" class="edge"><title>Node2&#45;&gt;Node19</title>
<path fill="none" stroke="midnightblue" d="M166.995,-245.686C177.882,-265.77 205.79,-311.993 243,-335 246.408,-337.107 250.023,-338.981 253.764,-340.648"/>
<polygon fill="midnightblue" stroke="midnightblue" points="252.69,-343.986 263.277,-344.379 255.245,-337.469 252.69,-343.986"/>
</g>
<!-- Node22 -->
<g id="node22" class="node"><title>Node22</title>
<g id="a_node22"><a xlink:href="class_word_quizzle_server_service.html#a277b16eeb84a3171777351f482157c0b" target="_top" xlink:title="Effettua il logout.">
<polygon fill="white" stroke="black" points="247.5,-70.5 247.5,-89.5 408.5,-89.5 408.5,-70.5 247.5,-70.5"/>
<text text-anchor="middle" x="328" y="-77.5" font-family="Helvetica,sans-Serif" font-size="10.00">WordQuizzleServerService.logout</text>
</a>
</g>
</g>
<!-- Node2&#45;&gt;Node22 -->
<g id="edge26" class="edge"><title>Node2&#45;&gt;Node22</title>
<path fill="none" stroke="midnightblue" d="M164.798,-226.199C172.58,-200.803 196.995,-132.518 243,-99 245.659,-97.063 248.481,-95.3186 251.418,-93.7481"/>
<polygon fill="midnightblue" stroke="midnightblue" points="252.92,-96.9098 260.531,-89.5389 249.985,-90.5549 252.92,-96.9098"/>
</g>
<!-- Node23 -->
<g id="node23" class="node"><title>Node23</title>
<g id="a_node23"><a xlink:href="class_word_quizzle_server_service.html#ad8f2f775c4d322ac50c25dbc2b673505" target="_top" xlink:title="Restituisce la classifica dell&#39;utente e dei suoi amici.">
<polygon fill="white" stroke="black" points="246,-246 246,-276 410,-276 410,-246 246,-246"/>
<text text-anchor="start" x="254" y="-264" font-family="Helvetica,sans-Serif" font-size="10.00">WordQuizzleServerService.mostra</text>
<text text-anchor="middle" x="328" y="-253" font-family="Helvetica,sans-Serif" font-size="10.00">_classifica</text>
</a>
</g>
</g>
<!-- Node2&#45;&gt;Node23 -->
<g id="edge27" class="edge"><title>Node2&#45;&gt;Node23</title>
<path fill="none" stroke="midnightblue" d="M207.087,-242.831C216.104,-244.198 225.877,-245.678 235.821,-247.185"/>
<polygon fill="midnightblue" stroke="midnightblue" points="235.388,-250.659 245.799,-248.697 236.436,-243.738 235.388,-250.659"/>
</g>
<!-- Node25 -->
<g id="node25" class="node"><title>Node25</title>
<g id="a_node25"><a xlink:href="class_word_quizzle_server_service.html#a8002d35c102aec827bb58c4f1ca7b295" target="_top" xlink:title="Restituisce il punteggio di nickUtente.">
<polygon fill="white" stroke="black" points="246,-197 246,-227 410,-227 410,-197 246,-197"/>
<text text-anchor="start" x="254" y="-215" font-family="Helvetica,sans-Serif" font-size="10.00">WordQuizzleServerService.mostra</text>
<text text-anchor="middle" x="328" y="-204" font-family="Helvetica,sans-Serif" font-size="10.00">_punteggio</text>
</a>
</g>
</g>
<!-- Node2&#45;&gt;Node25 -->
<g id="edge32" class="edge"><title>Node2&#45;&gt;Node25</title>
<path fill="none" stroke="midnightblue" d="M207.087,-229.442C216.104,-228.13 225.877,-226.709 235.821,-225.262"/>
<polygon fill="midnightblue" stroke="midnightblue" points="236.407,-228.714 245.799,-223.811 235.399,-221.787 236.407,-228.714"/>
</g>
<!-- Node26 -->
<g id="node26" class="node"><title>Node26</title>
<g id="a_node26"><a xlink:href="class_word_quizzle_server_service.html#afc47f0b66a46f079c4bed5e579e9a173" target="_top" xlink:title="Invia una richiesta di sfida ad un amico di nickUtente.">
<polygon fill="white" stroke="black" points="250.5,-158.5 250.5,-177.5 405.5,-177.5 405.5,-158.5 250.5,-158.5"/>
<text text-anchor="middle" x="328" y="-165.5" font-family="Helvetica,sans-Serif" font-size="10.00">WordQuizzleServerService.sfida</text>
</a>
</g>
</g>
<!-- Node2&#45;&gt;Node26 -->
<g id="edge36" class="edge"><title>Node2&#45;&gt;Node26</title>
<path fill="none" stroke="midnightblue" d="M175.387,-226.341C190.934,-215.543 217.693,-198.236 243,-188 250.41,-185.003 258.377,-182.387 266.348,-180.123"/>
<polygon fill="midnightblue" stroke="midnightblue" points="267.279,-183.497 276.036,-177.534 265.471,-176.734 267.279,-183.497"/>
</g>
<!-- Node4 -->
<g id="node4" class="node"><title>Node4</title>
<g id="a_node4"><a xlink:href="interface_data_base.html#a580f93c56dbbed8b2fb1fc2e856efe68" target="_top" xlink:title="Controlla che quel nome utente sia nel database.">
<polygon fill="white" stroke="black" points="453.5,-266.5 453.5,-285.5 562.5,-285.5 562.5,-266.5 453.5,-266.5"/>
<text text-anchor="middle" x="508" y="-273.5" font-family="Helvetica,sans-Serif" font-size="10.00">DataBase.checkUser</text>
</a>
</g>
</g>
<!-- Node3&#45;&gt;Node4 -->
<g id="edge3" class="edge"><title>Node3&#45;&gt;Node4</title>
<path fill="none" stroke="midnightblue" d="M399.764,-139.215C404.575,-141.957 409.064,-145.19 413,-149 449.353,-184.191 413.13,-221.316 449,-257 450.465,-258.457 452.043,-259.803 453.709,-261.045"/>
<polygon fill="midnightblue" stroke="midnightblue" points="452.278,-264.269 462.648,-266.436 455.893,-258.275 452.278,-264.269"/>
</g>
<!-- Node5 -->
<g id="node5" class="node"><title>Node5</title>
<g id="a_node5"><a xlink:href="class_challenge.html#ae2de3ea233827168e5869b9ac429af6a" target="_top" xlink:title="Restituisce il tempo di creazione della sfida.">
<polygon fill="white" stroke="black" points="449,-152.5 449,-171.5 567,-171.5 567,-152.5 449,-152.5"/>
<text text-anchor="middle" x="508" y="-159.5" font-family="Helvetica,sans-Serif" font-size="10.00">Challenge.getStartTime</text>
</a>
</g>
</g>
<!-- Node3&#45;&gt;Node5 -->
<g id="edge4" class="edge"><title>Node3&#45;&gt;Node5</title>
<path fill="none" stroke="midnightblue" d="M399.35,-139.019C416.974,-142.781 435.619,-146.761 452.351,-150.333"/>
<polygon fill="midnightblue" stroke="midnightblue" points="451.985,-153.834 462.496,-152.499 453.447,-146.988 451.985,-153.834"/>
</g>
<!-- Node6 -->
<g id="node6" class="node"><title>Node6</title>
<g id="a_node6"><a xlink:href="interface_data_base.html#af660eaf16066006da658ac99fa3f6936" target="_top" xlink:title="Dato un nome utente ottiene l&#39;oggetto User corrispondente.">
<polygon fill="white" stroke="black" points="460,-228.5 460,-247.5 556,-247.5 556,-228.5 460,-228.5"/>
<text text-anchor="middle" x="508" y="-235.5" font-family="Helvetica,sans-Serif" font-size="10.00">DataBase.getUser</text>
</a>
</g>
</g>
<!-- Node3&#45;&gt;Node6 -->
<g id="edge5" class="edge"><title>Node3&#45;&gt;Node6</title>
<path fill="none" stroke="midnightblue" d="M397.484,-139.06C403.045,-141.832 408.316,-145.114 413,-149 439.925,-171.337 422.382,-196.298 449,-219 450.975,-220.685 453.104,-222.221 455.338,-223.622"/>
<polygon fill="midnightblue" stroke="midnightblue" points="453.899,-226.82 464.379,-228.38 457.16,-220.625 453.899,-226.82"/>
</g>
<!-- Node7 -->
<g id="node7" class="node"><title>Node7</title>
<g id="a_node7"><a xlink:href="class_user.html#acc6836fc440a040d322d2e1eb31d92fe" target="_top" xlink:title="Verifica se un nome utente e&#39; amico dell&#39;utente.">
<polygon fill="white" stroke="black" points="471,-114.5 471,-133.5 545,-133.5 545,-114.5 471,-114.5"/>
<text text-anchor="middle" x="508" y="-121.5" font-family="Helvetica,sans-Serif" font-size="10.00">User.isFriend</text>
</a>
</g>
</g>
<!-- Node3&#45;&gt;Node7 -->
<g id="edge6" class="edge"><title>Node3&#45;&gt;Node7</title>
<path fill="none" stroke="midnightblue" d="M411.747,-124C428.565,-124 445.683,-124 460.682,-124"/>
<polygon fill="midnightblue" stroke="midnightblue" points="460.697,-127.5 470.697,-124 460.697,-120.5 460.697,-127.5"/>
</g>
<!-- Node8 -->
<g id="node8" class="node"><title>Node8</title>
<g id="a_node8"><a xlink:href="class_challenge.html#a650e2bfde93fe29ad14a4f7fdcb3c4b9" target="_top" xlink:title="Aggiunge l&#39;utente sfidato alla sfida e la avvia.">
<polygon fill="white" stroke="black" points="453.5,-76.5 453.5,-95.5 562.5,-95.5 562.5,-76.5 453.5,-76.5"/>
<text text-anchor="middle" x="508" y="-83.5" font-family="Helvetica,sans-Serif" font-size="10.00">Challenge.setPlayer2</text>
</a>
</g>
</g>
<!-- Node3&#45;&gt;Node8 -->
<g id="edge7" class="edge"><title>Node3&#45;&gt;Node8</title>
<path fill="none" stroke="midnightblue" d="M399.35,-108.981C416.974,-105.219 435.619,-101.239 452.351,-97.6666"/>
<polygon fill="midnightblue" stroke="midnightblue" points="453.447,-101.012 462.496,-95.5009 451.985,-94.1659 453.447,-101.012"/>
</g>
<!-- Node9 -->
<g id="node9" class="node"><title>Node9</title>
<g id="a_node9"><a xlink:href="class_session.html#a80b5cf0f5ea47877e261766c51f1e351" target="_top" xlink:title="Restituisce la socket del client.">
<polygon fill="white" stroke="black" points="612.5,-152.5 612.5,-171.5 705.5,-171.5 705.5,-152.5 612.5,-152.5"/>
<text text-anchor="middle" x="659" y="-159.5" font-family="Helvetica,sans-Serif" font-size="10.00">Session.getClient</text>
</a>
</g>
</g>
<!-- Node8&#45;&gt;Node9 -->
<g id="edge8" class="edge"><title>Node8&#45;&gt;Node9</title>
<path fill="none" stroke="midnightblue" d="M547.353,-95.5664C554.171,-98.0905 561.002,-101.202 567,-105 586.655,-117.446 583.445,-130.396 603,-143 606.113,-145.006 609.462,-146.827 612.915,-148.475"/>
<polygon fill="midnightblue" stroke="midnightblue" points="611.64,-151.737 622.212,-152.442 614.387,-145.298 611.64,-151.737"/>
</g>
<!-- Node10 -->
<g id="node10" class="node"><title>Node10</title>
<g id="a_node10"><a xlink:href="class_player.html#a675262b26b676f6b3e9e4bde04156050" target="_top" xlink:title="Restituisce l&#39;indice della prossima domanda da sottoporre al giocatore.">
<polygon fill="white" stroke="black" points="618.5,-114.5 618.5,-133.5 699.5,-133.5 699.5,-114.5 618.5,-114.5"/>
<text text-anchor="middle" x="659" y="-121.5" font-family="Helvetica,sans-Serif" font-size="10.00">Player.getNext</text>
</a>
</g>
</g>
<!-- Node8&#45;&gt;Node10 -->
<g id="edge9" class="edge"><title>Node8&#45;&gt;Node10</title>
<path fill="none" stroke="midnightblue" d="M546.599,-95.589C566.084,-100.558 590.075,-106.677 610.796,-111.961"/>
<polygon fill="midnightblue" stroke="midnightblue" points="610.117,-115.4 620.671,-114.48 611.846,-108.617 610.117,-115.4"/>
</g>
<!-- Node12 -->
<g id="node12" class="node"><title>Node12</title>
<g id="a_node12"><a xlink:href="class_player.html#aee96b4ebaa44ec51fd653c4079723bb8" target="_top" xlink:title="Restituisce la sessione del giocatore.">
<polygon fill="white" stroke="black" points="611,-76.5 611,-95.5 707,-95.5 707,-76.5 611,-76.5"/>
<text text-anchor="middle" x="659" y="-83.5" font-family="Helvetica,sans-Serif" font-size="10.00">Player.getSession</text>
</a>
</g>
</g>
<!-- Node8&#45;&gt;Node12 -->
<g id="edge11" class="edge"><title>Node8&#45;&gt;Node12</title>
<path fill="none" stroke="midnightblue" d="M562.792,-86C575.036,-86 588.089,-86 600.481,-86"/>
<polygon fill="midnightblue" stroke="midnightblue" points="600.702,-89.5001 610.702,-86 600.702,-82.5001 600.702,-89.5001"/>
</g>
<!-- Node13 -->
<g id="node13" class="node"><title>Node13</title>
<g id="a_node13"><a xlink:href="class_session.html#a8ab972666e7c0d311d4731d9eee566d2" target="_top" xlink:title="Imposta la risposta da inviare al client.">
<polygon fill="white" stroke="black" points="603,-38.5 603,-57.5 715,-57.5 715,-38.5 603,-38.5"/>
<text text-anchor="middle" x="659" y="-45.5" font-family="Helvetica,sans-Serif" font-size="10.00">Session.setResponse</text>
</a>
</g>
</g>
<!-- Node8&#45;&gt;Node13 -->
<g id="edge12" class="edge"><title>Node8&#45;&gt;Node13</title>
<path fill="none" stroke="midnightblue" d="M546.599,-76.411C566.084,-71.4417 590.075,-65.3233 610.796,-60.0387"/>
<polygon fill="midnightblue" stroke="midnightblue" points="611.846,-63.3828 620.671,-57.5201 610.117,-56.5999 611.846,-63.3828"/>
</g>
<!-- Node14 -->
<g id="node14" class="node"><title>Node14</title>
<g id="a_node14"><a xlink:href="class_translator.html#ad52c8ccdf35d16a095786e5e052b333a" target="_top" xlink:title="Traduce una parola dall&#39;italiano all&#39;inglese.">
<polygon fill="white" stroke="black" points="609,-0.5 609,-19.5 709,-19.5 709,-0.5 609,-0.5"/>
<text text-anchor="middle" x="659" y="-7.5" font-family="Helvetica,sans-Serif" font-size="10.00">Translator.translate</text>
</a>
</g>
</g>
<!-- Node8&#45;&gt;Node14 -->
<g id="edge13" class="edge"><title>Node8&#45;&gt;Node14</title>
<path fill="none" stroke="midnightblue" d="M522.81,-76.3344C540.691,-64.128 573.111,-43.0295 603,-29 607.452,-26.9101 612.201,-24.9278 616.971,-23.088"/>
<polygon fill="midnightblue" stroke="midnightblue" points="618.521,-26.248 626.707,-19.5223 616.113,-19.6749 618.521,-26.248"/>
</g>
<!-- Node11 -->
<g id="node11" class="node"><title>Node11</title>
<g id="a_node11"><a xlink:href="class_word_quizzle_server_service.html#a445af71c2bed6349e5239893b2e0ca8c" target="_top" xlink:title="Restituisce il numero di parole per sfida.">
<polygon fill="white" stroke="black" points="751,-114.5 751,-133.5 906,-133.5 906,-114.5 751,-114.5"/>
<text text-anchor="middle" x="828.5" y="-121.5" font-family="Helvetica,sans-Serif" font-size="10.00">WordQuizzleServerService.getK</text>
</a>
</g>
</g>
<!-- Node10&#45;&gt;Node11 -->
<g id="edge10" class="edge"><title>Node10&#45;&gt;Node11</title>
<path fill="none" stroke="midnightblue" d="M699.695,-124C712.073,-124 726.245,-124 740.543,-124"/>
<polygon fill="midnightblue" stroke="midnightblue" points="740.952,-127.5 750.951,-124 740.951,-120.5 740.952,-127.5"/>
</g>
<!-- Node15&#45;&gt;Node4 -->
<g id="edge15" class="edge"><title>Node15&#45;&gt;Node4</title>
<path fill="none" stroke="midnightblue" d="M398.077,-382.939C403.446,-380.167 408.515,-376.885 413,-373 441.859,-348.002 420.485,-320.39 449,-295 450.904,-293.305 452.963,-291.76 455.13,-290.353"/>
<polygon fill="midnightblue" stroke="midnightblue" points="456.81,-293.424 463.931,-285.579 453.472,-287.271 456.81,-293.424"/>
</g>
<!-- Node16 -->
<g id="node16" class="node"><title>Node16</title>
<g id="a_node16"><a xlink:href="interface_data_base.html#a4b079bd92d1ca63624e4f01398eb29db" target="_top" xlink:title="Crea un link (amicizia) non orientato tra due utenti.">
<polygon fill="white" stroke="black" points="469.5,-418.5 469.5,-437.5 546.5,-437.5 546.5,-418.5 469.5,-418.5"/>
<text text-anchor="middle" x="508" y="-425.5" font-family="Helvetica,sans-Serif" font-size="10.00">DataBase.link</text>
</a>
</g>
</g>
<!-- Node15&#45;&gt;Node16 -->
<g id="edge16" class="edge"><title>Node15&#45;&gt;Node16</title>
<path fill="none" stroke="midnightblue" d="M413.048,-412.165C428.839,-414.827 444.838,-417.523 459.049,-419.918"/>
<polygon fill="midnightblue" stroke="midnightblue" points="458.61,-423.394 469.052,-421.604 459.773,-416.491 458.61,-423.394"/>
</g>
<!-- Node17&#45;&gt;Node4 -->
<g id="edge18" class="edge"><title>Node17&#45;&gt;Node4</title>
<path fill="none" stroke="midnightblue" d="M404.23,-295.63C418.584,-292.888 433.428,-290.053 447.219,-287.419"/>
<polygon fill="midnightblue" stroke="midnightblue" points="447.887,-290.855 457.053,-285.541 446.574,-283.979 447.887,-290.855"/>
</g>
<!-- Node17&#45;&gt;Node6 -->
<g id="edge20" class="edge"><title>Node17&#45;&gt;Node6</title>
<path fill="none" stroke="midnightblue" d="M392.447,-294.85C399.544,-292.288 406.537,-289.35 413,-286 431.241,-276.545 430.943,-266.802 449,-257 452.93,-254.867 457.141,-252.92 461.432,-251.157"/>
<polygon fill="midnightblue" stroke="midnightblue" points="462.762,-254.396 470.88,-247.589 460.289,-247.848 462.762,-254.396"/>
</g>
<!-- Node18 -->
<g id="node18" class="node"><title>Node18</title>
<g id="a_node18"><a xlink:href="class_user.html#acd2375afad399d1deb32cb9667b8a1cd" target="_top" xlink:title="Restituisce la lista di amici dell&#39;utente.">
<polygon fill="white" stroke="black" points="465,-304.5 465,-323.5 551,-323.5 551,-304.5 465,-304.5"/>
<text text-anchor="middle" x="508" y="-311.5" font-family="Helvetica,sans-Serif" font-size="10.00">User.getFriends</text>
</a>
</g>
</g>
<!-- Node17&#45;&gt;Node18 -->
<g id="edge19" class="edge"><title>Node17&#45;&gt;Node18</title>
<path fill="none" stroke="midnightblue" d="M404.23,-311.691C421.198,-312.072 438.85,-312.469 454.638,-312.823"/>
<polygon fill="midnightblue" stroke="midnightblue" points="454.642,-316.324 464.719,-313.05 454.8,-309.326 454.642,-316.324"/>
</g>
<!-- Node19&#45;&gt;Node4 -->
<g id="edge22" class="edge"><title>Node19&#45;&gt;Node4</title>
<path fill="none" stroke="midnightblue" d="M391.672,-344.38C399.13,-341.93 406.422,-338.856 413,-335 433.634,-322.904 428.958,-308.053 449,-295 452.113,-292.972 455.462,-291.144 458.922,-289.498"/>
<polygon fill="midnightblue" stroke="midnightblue" points="460.41,-292.669 468.261,-285.556 457.687,-286.22 460.41,-292.669"/>
</g>
<!-- Node19&#45;&gt;Node6 -->
<g id="edge24" class="edge"><title>Node19&#45;&gt;Node6</title>
<path fill="none" stroke="midnightblue" d="M397.143,-344.467C402.842,-341.965 408.235,-338.857 413,-335 442.678,-310.98 420.485,-282.39 449,-257 450.904,-255.305 452.963,-253.76 455.13,-252.353"/>
<polygon fill="midnightblue" stroke="midnightblue" points="456.81,-255.424 463.931,-247.579 453.472,-249.271 456.81,-255.424"/>
</g>
<!-- Node20 -->
<g id="node20" class="node"><title>Node20</title>
<g id="a_node20"><a xlink:href="class_user.html#a1612cd6eef2a6e09ab5e72033b2aad00" target="_top" xlink:title="Restituisce la password dell&#39;utente.">
<polygon fill="white" stroke="black" points="460,-380.5 460,-399.5 556,-399.5 556,-380.5 460,-380.5"/>
<text text-anchor="middle" x="508" y="-387.5" font-family="Helvetica,sans-Serif" font-size="10.00">User.getPassword</text>
</a>
</g>
</g>
<!-- Node19&#45;&gt;Node20 -->
<g id="edge23" class="edge"><title>Node19&#45;&gt;Node20</title>
<path fill="none" stroke="midnightblue" d="M376.233,-363.553C398.854,-368.128 426.129,-373.644 449.904,-378.452"/>
<polygon fill="midnightblue" stroke="midnightblue" points="449.36,-381.913 459.855,-380.465 450.747,-375.052 449.36,-381.913"/>
</g>
<!-- Node21 -->
<g id="node21" class="node"><title>Node21</title>
<g id="a_node21"><a xlink:href="class_session.html#aeb6b2a4acab3e9a3f866e9295999b1b6" target="_top" xlink:title="Imposta l&#39;indirizzo UDP del client a cui inviare le richieste di sfida.">
<polygon fill="white" stroke="black" points="465,-342.5 465,-361.5 551,-361.5 551,-342.5 465,-342.5"/>
<text text-anchor="middle" x="508" y="-349.5" font-family="Helvetica,sans-Serif" font-size="10.00">Session.setUdp</text>
</a>
</g>
</g>
<!-- Node19&#45;&gt;Node21 -->
<g id="edge25" class="edge"><title>Node19&#45;&gt;Node21</title>
<path fill="none" stroke="midnightblue" d="M405.521,-353.14C422.058,-352.954 439.181,-352.762 454.546,-352.589"/>
<polygon fill="midnightblue" stroke="midnightblue" points="454.913,-356.086 464.873,-352.473 454.834,-349.086 454.913,-356.086"/>
</g>
<!-- Node23&#45;&gt;Node4 -->
<g id="edge28" class="edge"><title>Node23&#45;&gt;Node4</title>
<path fill="none" stroke="midnightblue" d="M410.187,-267.842C421.304,-268.778 432.586,-269.729 443.33,-270.635"/>
<polygon fill="midnightblue" stroke="midnightblue" points="443.185,-274.135 453.443,-271.487 443.773,-267.159 443.185,-274.135"/>
</g>
<!-- Node23&#45;&gt;Node6 -->
<g id="edge31" class="edge"><title>Node23&#45;&gt;Node6</title>
<path fill="none" stroke="midnightblue" d="M410.187,-250.51C423.644,-248.771 437.341,-247.001 450.035,-245.361"/>
<polygon fill="midnightblue" stroke="midnightblue" points="450.507,-248.829 459.976,-244.076 449.61,-241.887 450.507,-248.829"/>
</g>
<!-- Node23&#45;&gt;Node18 -->
<g id="edge29" class="edge"><title>Node23&#45;&gt;Node18</title>
<path fill="none" stroke="midnightblue" d="M379.639,-276.069C390.637,-279.343 402.209,-282.787 413,-286 430.029,-291.07 448.792,-296.659 465.048,-301.501"/>
<polygon fill="midnightblue" stroke="midnightblue" points="464.224,-304.908 474.807,-304.408 466.222,-298.199 464.224,-304.908"/>
</g>
<!-- Node24 -->
<g id="node24" class="node"><title>Node24</title>
<g id="a_node24"><a xlink:href="class_user.html#a6c657437f72c2867ca353762cfbcf400" target="_top" xlink:title="Restituisce il punteggio dell&#39;utente.">
<polygon fill="white" stroke="black" points="468.5,-190.5 468.5,-209.5 547.5,-209.5 547.5,-190.5 468.5,-190.5"/>
<text text-anchor="middle" x="508" y="-197.5" font-family="Helvetica,sans-Serif" font-size="10.00">User.getScore</text>
</a>
</g>
</g>
<!-- Node23&#45;&gt;Node24 -->
<g id="edge30" class="edge"><title>Node23&#45;&gt;Node24</title>
<path fill="none" stroke="midnightblue" d="M386.856,-246C395.703,-243.268 404.66,-240.244 413,-237 429.672,-230.515 432.455,-225.803 449,-219 454.206,-216.859 459.749,-214.789 465.265,-212.852"/>
<polygon fill="midnightblue" stroke="midnightblue" points="466.739,-216.048 475.086,-209.522 464.492,-209.418 466.739,-216.048"/>
</g>
<!-- Node25&#45;&gt;Node4 -->
<g id="edge33" class="edge"><title>Node25&#45;&gt;Node4</title>
<path fill="none" stroke="midnightblue" d="M385.624,-227.009C394.894,-229.99 404.304,-233.342 413,-237 429.871,-244.097 432.227,-249.673 449,-257 453.976,-259.174 459.285,-261.239 464.593,-263.151"/>
<polygon fill="midnightblue" stroke="midnightblue" points="463.481,-266.47 474.075,-266.42 465.762,-259.852 463.481,-266.47"/>
</g>
<!-- Node25&#45;&gt;Node6 -->
<g id="edge35" class="edge"><title>Node25&#45;&gt;Node6</title>
<path fill="none" stroke="midnightblue" d="M410.187,-223.859C423.644,-225.824 437.341,-227.825 450.035,-229.679"/>
<polygon fill="midnightblue" stroke="midnightblue" points="449.575,-233.149 459.976,-231.131 450.587,-226.223 449.575,-233.149"/>
</g>
<!-- Node25&#45;&gt;Node24 -->
<g id="edge34" class="edge"><title>Node25&#45;&gt;Node24</title>
<path fill="none" stroke="midnightblue" d="M410.187,-206.527C426.419,-205.432 443,-204.315 457.749,-203.32"/>
<polygon fill="midnightblue" stroke="midnightblue" points="458.391,-206.785 468.133,-202.62 457.92,-199.801 458.391,-206.785"/>
</g>
<!-- Node26&#45;&gt;Node4 -->
<g id="edge37" class="edge"><title>Node26&#45;&gt;Node4</title>
<path fill="none" stroke="midnightblue" d="M394.432,-177.567C401.093,-180.256 407.442,-183.67 413,-188 440.287,-209.257 422.617,-234.631 449,-257 451.015,-258.709 453.189,-260.265 455.47,-261.682"/>
<polygon fill="midnightblue" stroke="midnightblue" points="454.211,-264.973 464.697,-266.487 457.444,-258.764 454.211,-264.973"/>
</g>
<!-- Node26&#45;&gt;Node5 -->
<g id="edge38" class="edge"><title>Node26&#45;&gt;Node5</title>
<path fill="none" stroke="midnightblue" d="M405.521,-165.421C416.518,-165.05 427.773,-164.671 438.599,-164.306"/>
<polygon fill="midnightblue" stroke="midnightblue" points="438.948,-167.796 448.824,-163.961 438.712,-160.8 438.948,-167.796"/>
</g>
<!-- Node26&#45;&gt;Node6 -->
<g id="edge39" class="edge"><title>Node26&#45;&gt;Node6</title>
<path fill="none" stroke="midnightblue" d="M385.457,-177.509C394.934,-180.203 404.456,-183.635 413,-188 431.803,-197.606 430.611,-208.623 449,-219 452.737,-221.109 456.744,-223.026 460.841,-224.759"/>
<polygon fill="midnightblue" stroke="midnightblue" points="459.891,-228.144 470.48,-228.474 462.408,-221.612 459.891,-228.144"/>
</g>
<!-- Node26&#45;&gt;Node7 -->
<g id="edge40" class="edge"><title>Node26&#45;&gt;Node7</title>
<path fill="none" stroke="midnightblue" d="M369.621,-158.469C383.403,-155.198 398.882,-151.483 413,-148 428.695,-144.128 445.834,-139.786 461.128,-135.871"/>
<polygon fill="midnightblue" stroke="midnightblue" points="462.062,-139.245 470.878,-133.369 460.322,-132.464 462.062,-139.245"/>
</g>
</g>
</svg>
