<?xml version="1.0" encoding="UTF-8" standalone="no"?>
<!DOCTYPE svg PUBLIC "-//W3C//DTD SVG 1.1//EN"
 "http://www.w3.org/Graphics/SVG/1.1/DTD/svg11.dtd">
<!-- Generated by graphviz version 2.38.0 (20140413.2041)
 -->
<!-- Title: DictionaryTxt Pages: 1 -->
<svg width="106pt" height="270pt"
 viewBox="0.00 0.00 106.00 270.00" xmlns="http://www.w3.org/2000/svg" xmlns:xlink="http://www.w3.org/1999/xlink">
<g id="graph0" class="graph" transform="scale(1 1) rotate(0) translate(4 266)">
<title>DictionaryTxt</title>
<polygon fill="white" stroke="none" points="-4,4 -4,-266 102,-266 102,4 -4,4"/>
<!-- Node1 -->
<g id="node1" class="node"><title>Node1</title>
<g id="a_node1"><a xlink:title="Rappresenta un dizionario memorizzato in un file di testo.">
<polygon fill="#bfbfbf" stroke="black" points="0,-0.5 0,-134.5 98,-134.5 98,-0.5 0,-0.5"/>
<text text-anchor="middle" x="49" y="-122.5" font-family="Helvetica,sans-Serif" font-size="10.00">DictionaryTxt</text>
<polyline fill="none" stroke="black" points="0,-115.5 98,-115.5 "/>
<text text-anchor="start" x="8" y="-103.5" font-family="Helvetica,sans-Serif" font-size="10.00">&#45; path</text>
<text text-anchor="start" x="8" y="-92.5" font-family="Helvetica,sans-Serif" font-size="10.00">&#45; defaultWord</text>
<text text-anchor="start" x="8" y="-81.5" font-family="Helvetica,sans-Serif" font-size="10.00">&#45; N</text>
<polyline fill="none" stroke="black" points="0,-74.5 98,-74.5 "/>
<text text-anchor="start" x="8" y="-62.5" font-family="Helvetica,sans-Serif" font-size="10.00">+ DictionaryTxt()</text>
<text text-anchor="start" x="8" y="-51.5" font-family="Helvetica,sans-Serif" font-size="10.00">+ getWord()</text>
<text text-anchor="start" x="8" y="-40.5" font-family="Helvetica,sans-Serif" font-size="10.00">+ getWord()</text>
<text text-anchor="start" x="8" y="-29.5" font-family="Helvetica,sans-Serif" font-size="10.00">+ getWords()</text>
<text text-anchor="start" x="8" y="-18.5" font-family="Helvetica,sans-Serif" font-size="10.00">+ getN()</text>
<text text-anchor="start" x="8" y="-7.5" font-family="Helvetica,sans-Serif" font-size="10.00">+ getDefaultWord()</text>
</a>
</g>
</g>
<!-- Node2 -->
<g id="node2" class="node"><title>Node2</title>
<g id="a_node2"><a xlink:href="interface_dictionary.html" target="_top" xlink:title="Interfaccia che definisce un dizionario.">
<polygon fill="white" stroke="black" points="12,-171.5 12,-261.5 86,-261.5 86,-171.5 12,-171.5"/>
<text text-anchor="middle" x="49" y="-249.5" font-family="Helvetica,sans-Serif" font-size="10.00">Dictionary</text>
<polyline fill="none" stroke="black" points="12,-242.5 86,-242.5 "/>
<text text-anchor="middle" x="49" y="-230.5" font-family="Helvetica,sans-Serif" font-size="10.00"> </text>
<polyline fill="none" stroke="black" points="12,-223.5 86,-223.5 "/>
<text text-anchor="start" x="20" y="-211.5" font-family="Helvetica,sans-Serif" font-size="10.00">+ getWord()</text>
<text text-anchor="start" x="20" y="-200.5" font-family="Helvetica,sans-Serif" font-size="10.00">+ getWord()</text>
<text text-anchor="start" x="20" y="-189.5" font-family="Helvetica,sans-Serif" font-size="10.00">+ getWords()</text>
<text text-anchor="start" x="20" y="-178.5" font-family="Helvetica,sans-Serif" font-size="10.00">+ getN()</text>
</a>
</g>
</g>
<!-- Node2&#45;&gt;Node1 -->
<g id="edge1" class="edge"><title>Node2&#45;&gt;Node1</title>
<path fill="none" stroke="midnightblue" d="M49,-161.375C49,-152.658 49,-143.55 49,-134.591"/>
<polygon fill="none" stroke="midnightblue" points="45.5001,-161.395 49,-171.395 52.5001,-161.395 45.5001,-161.395"/>
</g>
</g>
</svg>
