<?xml version="1.0" encoding="UTF-8" standalone="no"?>
<!DOCTYPE svg PUBLIC "-//W3C//DTD SVG 1.1//EN"
 "http://www.w3.org/Graphics/SVG/1.1/DTD/svg11.dtd">
<!-- Generated by graphviz version 2.38.0 (20140413.2041)
 -->
<!-- Title: Translator.translate Pages: 1 -->
<svg width="851pt" height="142pt"
 viewBox="0.00 0.00 851.00 142.00" xmlns="http://www.w3.org/2000/svg" xmlns:xlink="http://www.w3.org/1999/xlink">
<g id="graph0" class="graph" transform="scale(1 1) rotate(0) translate(4 138)">
<title>Translator.translate</title>
<polygon fill="white" stroke="none" points="-4,4 -4,-138 847,-138 847,4 -4,4"/>
<!-- Node1 -->
<g id="node1" class="node"><title>Node1</title>
<g id="a_node1"><a xlink:title="Traduce una parola dall&#39;italiano all&#39;inglese.">
<polygon fill="#bfbfbf" stroke="black" points="743,-57.5 743,-76.5 843,-76.5 843,-57.5 743,-57.5"/>
<text text-anchor="middle" x="793" y="-64.5" font-family="Helvetica,sans-Serif" font-size="10.00">Translator.translate</text>
</a>
</g>
</g>
<!-- Node2 -->
<g id="node2" class="node"><title>Node2</title>
<g id="a_node2"><a xlink:href="class_bot.html#acc83eda4c2ebd3c509c0e618ff69dba6" target="_top" xlink:title="Gestisce una sfida.">
<polygon fill="white" stroke="black" points="623,-114.5 623,-133.5 682,-133.5 682,-114.5 623,-114.5"/>
<text text-anchor="middle" x="652.5" y="-121.5" font-family="Helvetica,sans-Serif" font-size="10.00">Bot.game</text>
</a>
</g>
</g>
<!-- Node1&#45;&gt;Node2 -->
<g id="edge1" class="edge"><title>Node1&#45;&gt;Node2</title>
<path fill="none" stroke="midnightblue" d="M762.436,-80.9087C746.205,-88.3693 725.641,-97.5368 707,-105 698.856,-108.261 689.909,-111.55 681.7,-114.455"/>
<polygon fill="midnightblue" stroke="midnightblue" points="764.323,-83.8921 771.927,-76.5144 761.382,-77.5399 764.323,-83.8921"/>
</g>
<!-- Node5 -->
<g id="node5" class="node"><title>Node5</title>
<g id="a_node5"><a xlink:href="class_word_translator.html#a27c3e05df1dbcf411ecaeb82902584f9" target="_top" xlink:title="Traduce una lista di parole dall&#39;italiano all&#39;inglese.">
<polygon fill="white" stroke="black" points="599,-76.5 599,-95.5 706,-95.5 706,-76.5 599,-76.5"/>
<text text-anchor="middle" x="652.5" y="-83.5" font-family="Helvetica,sans-Serif" font-size="10.00">WordTranslator.main</text>
</a>
</g>
</g>
<!-- Node1&#45;&gt;Node5 -->
<g id="edge4" class="edge"><title>Node1&#45;&gt;Node5</title>
<path fill="none" stroke="midnightblue" d="M732.641,-75.1431C723.89,-76.3436 714.924,-77.5736 706.318,-78.7542"/>
<polygon fill="midnightblue" stroke="midnightblue" points="733.349,-78.5789 742.78,-73.7522 732.397,-71.6439 733.349,-78.5789"/>
</g>
<!-- Node6 -->
<g id="node6" class="node"><title>Node6</title>
<g id="a_node6"><a xlink:href="class_challenge.html#a650e2bfde93fe29ad14a4f7fdcb3c4b9" target="_top" xlink:title="Aggiunge l&#39;utente sfidato alla sfida e la avvia.">
<polygon fill="white" stroke="black" points="598,-38.5 598,-57.5 707,-57.5 707,-38.5 598,-38.5"/>
<text text-anchor="middle" x="652.5" y="-45.5" font-family="Helvetica,sans-Serif" font-size="10.00">Challenge.setPlayer2</text>
</a>
</g>
</g>
<!-- Node1&#45;&gt;Node6 -->
<g id="edge5" class="edge"><title>Node1&#45;&gt;Node6</title>
<path fill="none" stroke="midnightblue" d="M732.633,-58.8558C724.205,-57.6997 715.578,-56.5161 707.265,-55.3756"/>
<polygon fill="midnightblue" stroke="midnightblue" points="732.397,-62.3561 742.78,-60.2478 733.349,-55.4211 732.397,-62.3561"/>
</g>
<!-- Node12 -->
<g id="node12" class="node"><title>Node12</title>
<g id="a_node12"><a xlink:href="class_translator.html#afec450514da1655c2c6b97a93393d96b" target="_top" xlink:title="Traduce una lista di parole dall&#39;italiano all&#39;inglese.">
<polygon fill="white" stroke="black" points="602.5,-0.5 602.5,-19.5 702.5,-19.5 702.5,-0.5 602.5,-0.5"/>
<text text-anchor="middle" x="652.5" y="-7.5" font-family="Helvetica,sans-Serif" font-size="10.00">Translator.translate</text>
</a>
</g>
</g>
<!-- Node1&#45;&gt;Node12 -->
<g id="edge11" class="edge"><title>Node1&#45;&gt;Node12</title>
<path fill="none" stroke="midnightblue" d="M762.436,-53.0913C746.205,-45.6307 725.641,-36.4632 707,-29 698.856,-25.7394 689.909,-22.4496 681.7,-19.5448"/>
<polygon fill="midnightblue" stroke="midnightblue" points="761.382,-56.4601 771.927,-57.4856 764.323,-50.1079 761.382,-56.4601"/>
</g>
<!-- Node3 -->
<g id="node3" class="node"><title>Node3</title>
<g id="a_node3"><a xlink:href="class_bot.html#a39bedd8a99e6e57223c433c8197bcb49" target="_top" xlink:title="Avvia il bot.">
<polygon fill="white" stroke="black" points="454.5,-114.5 454.5,-133.5 502.5,-133.5 502.5,-114.5 454.5,-114.5"/>
<text text-anchor="middle" x="478.5" y="-121.5" font-family="Helvetica,sans-Serif" font-size="10.00">Bot.run</text>
</a>
</g>
</g>
<!-- Node2&#45;&gt;Node3 -->
<g id="edge2" class="edge"><title>Node2&#45;&gt;Node3</title>
<path fill="none" stroke="midnightblue" d="M612.687,-124C578.8,-124 530.755,-124 502.589,-124"/>
<polygon fill="midnightblue" stroke="midnightblue" points="612.711,-127.5 622.711,-124 612.711,-120.5 612.711,-127.5"/>
</g>
<!-- Node4 -->
<g id="node4" class="node"><title>Node4</title>
<g id="a_node4"><a xlink:href="class_bot.html#a698976f1ad72fc3c09eff6f887f11d45" target="_top" xlink:title="Esegue un bot.">
<polygon fill="white" stroke="black" points="285,-114.5 285,-133.5 341,-133.5 341,-114.5 285,-114.5"/>
<text text-anchor="middle" x="313" y="-121.5" font-family="Helvetica,sans-Serif" font-size="10.00">Bot.main</text>
</a>
</g>
</g>
<!-- Node3&#45;&gt;Node4 -->
<g id="edge3" class="edge"><title>Node3&#45;&gt;Node4</title>
<path fill="none" stroke="midnightblue" d="M444.293,-124C413.861,-124 369.358,-124 341.041,-124"/>
<polygon fill="midnightblue" stroke="midnightblue" points="444.421,-127.5 454.421,-124 444.421,-120.5 444.421,-127.5"/>
</g>
<!-- Node7 -->
<g id="node7" class="node"><title>Node7</title>
<g id="a_node7"><a xlink:href="class_word_quizzle_server_service.html#a9b03b4a431c18e8d8385217e3fbd9a0a" target="_top" xlink:title="Accetta una richiesta di sfida inviata da nickAmico.">
<polygon fill="white" stroke="black" points="395,-33 395,-63 562,-63 562,-33 395,-33"/>
<text text-anchor="start" x="403" y="-51" font-family="Helvetica,sans-Serif" font-size="10.00">WordQuizzleServerService.accetta</text>
<text text-anchor="middle" x="478.5" y="-40" font-family="Helvetica,sans-Serif" font-size="10.00">Sfida</text>
</a>
</g>
</g>
<!-- Node6&#45;&gt;Node7 -->
<g id="edge6" class="edge"><title>Node6&#45;&gt;Node7</title>
<path fill="none" stroke="midnightblue" d="M587.347,-48C579.152,-48 570.675,-48 562.239,-48"/>
<polygon fill="midnightblue" stroke="midnightblue" points="587.55,-51.5001 597.55,-48 587.55,-44.5001 587.55,-51.5001"/>
</g>
<!-- Node8 -->
<g id="node8" class="node"><title>Node8</title>
<g id="a_node8"><a xlink:href="class_session.html#a56e3ffab046de2082083cfc54b5d8e72" target="_top" xlink:title="Gestisce effettivamente la richiesta del client.">
<polygon fill="white" stroke="black" points="267,-38.5 267,-57.5 359,-57.5 359,-38.5 267,-38.5"/>
<text text-anchor="middle" x="313" y="-45.5" font-family="Helvetica,sans-Serif" font-size="10.00">Session.compute</text>
</a>
</g>
</g>
<!-- Node7&#45;&gt;Node8 -->
<g id="edge7" class="edge"><title>Node7&#45;&gt;Node8</title>
<path fill="none" stroke="midnightblue" d="M384.531,-48C375.837,-48 367.316,-48 359.371,-48"/>
<polygon fill="midnightblue" stroke="midnightblue" points="384.792,-51.5001 394.792,-48 384.792,-44.5001 384.792,-51.5001"/>
</g>
<!-- Node9 -->
<g id="node9" class="node"><title>Node9</title>
<g id="a_node9"><a xlink:href="class_session.html#a75364929cf1f8f9e75992a8a8c3b589f" target="_top" xlink:title="Riceve una stringa contenente uan richiesta da parte del client e la gestisce.">
<polygon fill="white" stroke="black" points="152,-38.5 152,-57.5 231,-57.5 231,-38.5 152,-38.5"/>
<text text-anchor="middle" x="191.5" y="-45.5" font-family="Helvetica,sans-Serif" font-size="10.00">Session.parse</text>
</a>
</g>
</g>
<!-- Node8&#45;&gt;Node9 -->
<g id="edge8" class="edge"><title>Node8&#45;&gt;Node9</title>
<path fill="none" stroke="midnightblue" d="M256.749,-48C248.081,-48 239.286,-48 231.1,-48"/>
<polygon fill="midnightblue" stroke="midnightblue" points="256.822,-51.5001 266.822,-48 256.822,-44.5001 256.822,-51.5001"/>
</g>
<!-- Node10 -->
<g id="node10" class="node"><title>Node10</title>
<g id="a_node10"><a xlink:href="class_word_quizzle_server.html#a1414f39eeaaf2dbe0885f4d77a12c466" target="_top" xlink:title="Gestisce le interazioni con i client.">
<polygon fill="white" stroke="black" points="0,-57.5 0,-76.5 116,-76.5 116,-57.5 0,-57.5"/>
<text text-anchor="middle" x="58" y="-64.5" font-family="Helvetica,sans-Serif" font-size="10.00">WordQuizzleServer.run</text>
</a>
</g>
</g>
<!-- Node9&#45;&gt;Node10 -->
<g id="edge9" class="edge"><title>Node9&#45;&gt;Node10</title>
<path fill="none" stroke="midnightblue" d="M141.621,-55.0623C133.428,-56.2461 124.86,-57.4841 116.475,-58.6957"/>
<polygon fill="midnightblue" stroke="midnightblue" points="142.36,-58.492 151.757,-53.5979 141.359,-51.5639 142.36,-58.492"/>
</g>
<!-- Node11 -->
<g id="node11" class="node"><title>Node11</title>
<g id="a_node11"><a xlink:href="class_challenge.html#adfd88e7904c2d0954ca82e07890c5ca4" target="_top" xlink:title="Gestisce la sfida.">
<polygon fill="white" stroke="black" points="20,-19.5 20,-38.5 96,-38.5 96,-19.5 20,-19.5"/>
<text text-anchor="middle" x="58" y="-26.5" font-family="Helvetica,sans-Serif" font-size="10.00">Challenge.run</text>
</a>
</g>
</g>
<!-- Node9&#45;&gt;Node11 -->
<g id="edge10" class="edge"><title>Node9&#45;&gt;Node11</title>
<path fill="none" stroke="midnightblue" d="M141.584,-40.9323C126.537,-38.7582 110.23,-36.402 96.1115,-34.3621"/>
<polygon fill="midnightblue" stroke="midnightblue" points="141.359,-44.4361 151.757,-42.4021 142.36,-37.508 141.359,-44.4361"/>
</g>
</g>
</svg>
