<?xml version="1.0" encoding="UTF-8" standalone="no"?>
<!DOCTYPE svg PUBLIC "-//W3C//DTD SVG 1.1//EN"
 "http://www.w3.org/Graphics/SVG/1.1/DTD/svg11.dtd">
<!-- Generated by graphviz version 2.38.0 (20140413.2041)
 -->
<!-- Title: Challenge.setPlayer2 Pages: 1 -->
<svg width="456pt" height="180pt"
 viewBox="0.00 0.00 456.00 180.00" xmlns="http://www.w3.org/2000/svg" xmlns:xlink="http://www.w3.org/1999/xlink">
<g id="graph0" class="graph" transform="scale(1 1) rotate(0) translate(4 176)">
<title>Challenge.setPlayer2</title>
<polygon fill="white" stroke="none" points="-4,4 -4,-176 452,-176 452,4 -4,4"/>
<!-- Node1 -->
<g id="node1" class="node"><title>Node1</title>
<g id="a_node1"><a xlink:title="Aggiunge l&#39;utente sfidato alla sfida e la avvia.">
<polygon fill="#bfbfbf" stroke="black" points="0,-76.5 0,-95.5 109,-95.5 109,-76.5 0,-76.5"/>
<text text-anchor="middle" x="54.5" y="-83.5" font-family="Helvetica,sans-Serif" font-size="10.00">Challenge.setPlayer2</text>
</a>
</g>
</g>
<!-- Node2 -->
<g id="node2" class="node"><title>Node2</title>
<g id="a_node2"><a xlink:href="class_session.html#a80b5cf0f5ea47877e261766c51f1e351" target="_top" xlink:title="Restituisce la socket del client.">
<polygon fill="white" stroke="black" points="154.5,-152.5 154.5,-171.5 247.5,-171.5 247.5,-152.5 154.5,-152.5"/>
<text text-anchor="middle" x="201" y="-159.5" font-family="Helvetica,sans-Serif" font-size="10.00">Session.getClient</text>
</a>
</g>
</g>
<!-- Node1&#45;&gt;Node2 -->
<g id="edge1" class="edge"><title>Node1&#45;&gt;Node2</title>
<path fill="none" stroke="midnightblue" d="M68.2808,-95.5079C85.1617,-107.738 116.135,-129.062 145,-143 149.375,-145.113 154.048,-147.102 158.751,-148.94"/>
<polygon fill="midnightblue" stroke="midnightblue" points="157.771,-152.309 168.365,-152.491 160.197,-145.743 157.771,-152.309"/>
</g>
<!-- Node3 -->
<g id="node3" class="node"><title>Node3</title>
<g id="a_node3"><a xlink:href="class_player.html#a675262b26b676f6b3e9e4bde04156050" target="_top" xlink:title="Restituisce l&#39;indice della prossima domanda da sottoporre al giocatore.">
<polygon fill="white" stroke="black" points="160.5,-114.5 160.5,-133.5 241.5,-133.5 241.5,-114.5 160.5,-114.5"/>
<text text-anchor="middle" x="201" y="-121.5" font-family="Helvetica,sans-Serif" font-size="10.00">Player.getNext</text>
</a>
</g>
</g>
<!-- Node1&#45;&gt;Node3 -->
<g id="edge2" class="edge"><title>Node1&#45;&gt;Node3</title>
<path fill="none" stroke="midnightblue" d="M91.9635,-95.589C110.774,-100.536 133.915,-106.621 153.947,-111.889"/>
<polygon fill="midnightblue" stroke="midnightblue" points="153.237,-115.322 163.799,-114.48 155.018,-108.552 153.237,-115.322"/>
</g>
<!-- Node5 -->
<g id="node5" class="node"><title>Node5</title>
<g id="a_node5"><a xlink:href="class_player.html#aee96b4ebaa44ec51fd653c4079723bb8" target="_top" xlink:title="Restituisce la sessione del giocatore.">
<polygon fill="white" stroke="black" points="153,-76.5 153,-95.5 249,-95.5 249,-76.5 153,-76.5"/>
<text text-anchor="middle" x="201" y="-83.5" font-family="Helvetica,sans-Serif" font-size="10.00">Player.getSession</text>
</a>
</g>
</g>
<!-- Node1&#45;&gt;Node5 -->
<g id="edge4" class="edge"><title>Node1&#45;&gt;Node5</title>
<path fill="none" stroke="midnightblue" d="M109.306,-86C120.13,-86 131.546,-86 142.49,-86"/>
<polygon fill="midnightblue" stroke="midnightblue" points="142.804,-89.5001 152.804,-86 142.804,-82.5001 142.804,-89.5001"/>
</g>
<!-- Node6 -->
<g id="node6" class="node"><title>Node6</title>
<g id="a_node6"><a xlink:href="class_session.html#a8ab972666e7c0d311d4731d9eee566d2" target="_top" xlink:title="Imposta la risposta da inviare al client.">
<polygon fill="white" stroke="black" points="145,-38.5 145,-57.5 257,-57.5 257,-38.5 145,-38.5"/>
<text text-anchor="middle" x="201" y="-45.5" font-family="Helvetica,sans-Serif" font-size="10.00">Session.setResponse</text>
</a>
</g>
</g>
<!-- Node1&#45;&gt;Node6 -->
<g id="edge5" class="edge"><title>Node1&#45;&gt;Node6</title>
<path fill="none" stroke="midnightblue" d="M91.9635,-76.411C110.774,-71.4642 133.915,-65.3789 153.947,-60.1108"/>
<polygon fill="midnightblue" stroke="midnightblue" points="155.018,-63.4483 163.799,-57.5201 153.237,-56.6785 155.018,-63.4483"/>
</g>
<!-- Node7 -->
<g id="node7" class="node"><title>Node7</title>
<g id="a_node7"><a xlink:href="class_translator.html#ad52c8ccdf35d16a095786e5e052b333a" target="_top" xlink:title="Traduce una parola dall&#39;italiano all&#39;inglese.">
<polygon fill="white" stroke="black" points="151,-0.5 151,-19.5 251,-19.5 251,-0.5 151,-0.5"/>
<text text-anchor="middle" x="201" y="-7.5" font-family="Helvetica,sans-Serif" font-size="10.00">Translator.translate</text>
</a>
</g>
</g>
<!-- Node1&#45;&gt;Node7 -->
<g id="edge6" class="edge"><title>Node1&#45;&gt;Node7</title>
<path fill="none" stroke="midnightblue" d="M68.2808,-76.4921C85.1617,-64.2617 116.135,-42.9382 145,-29 149.375,-26.8873 154.048,-24.8979 158.751,-23.0599"/>
<polygon fill="midnightblue" stroke="midnightblue" points="160.197,-26.2572 168.365,-19.509 157.771,-19.6908 160.197,-26.2572"/>
</g>
<!-- Node4 -->
<g id="node4" class="node"><title>Node4</title>
<g id="a_node4"><a xlink:href="class_word_quizzle_server_service.html#a445af71c2bed6349e5239893b2e0ca8c" target="_top" xlink:title="Restituisce il numero di parole per sfida.">
<polygon fill="white" stroke="black" points="293,-114.5 293,-133.5 448,-133.5 448,-114.5 293,-114.5"/>
<text text-anchor="middle" x="370.5" y="-121.5" font-family="Helvetica,sans-Serif" font-size="10.00">WordQuizzleServerService.getK</text>
</a>
</g>
</g>
<!-- Node3&#45;&gt;Node4 -->
<g id="edge3" class="edge"><title>Node3&#45;&gt;Node4</title>
<path fill="none" stroke="midnightblue" d="M241.695,-124C254.073,-124 268.245,-124 282.543,-124"/>
<polygon fill="midnightblue" stroke="midnightblue" points="282.952,-127.5 292.951,-124 282.951,-120.5 282.952,-127.5"/>
</g>
</g>
</svg>
