<?xml version="1.0" encoding="UTF-8" standalone="no"?>
<!DOCTYPE svg PUBLIC "-//W3C//DTD SVG 1.1//EN"
 "http://www.w3.org/Graphics/SVG/1.1/DTD/svg11.dtd">
<!-- Generated by graphviz version 2.38.0 (20140413.2041)
 -->
<!-- Title: WordQuizzle.Tester Pages: 1 -->
<svg width="111pt" height="215pt"
 viewBox="0.00 0.00 111.00 215.00" xmlns="http://www.w3.org/2000/svg" xmlns:xlink="http://www.w3.org/1999/xlink">
<g id="graph0" class="graph" transform="scale(1 1) rotate(0) translate(4 211)">
<title>WordQuizzle.Tester</title>
<polygon fill="white" stroke="none" points="-4,4 -4,-211 107,-211 107,4 -4,4"/>
<!-- Node1 -->
<g id="node1" class="node"><title>Node1</title>
<g id="a_node1"><a xlink:title="Classe che permette il testing delle funzionalita&#39; del server.">
<polygon fill="#bfbfbf" stroke="black" points="0,-0.5 0,-112.5 103,-112.5 103,-0.5 0,-0.5"/>
<text text-anchor="middle" x="51.5" y="-100.5" font-family="Helvetica,sans-Serif" font-size="10.00">WordQuizzle.Tester</text>
<polyline fill="none" stroke="black" points="0,-93.5 103,-93.5 "/>
<text text-anchor="start" x="8" y="-81.5" font-family="Helvetica,sans-Serif" font-size="10.00">&#45; user</text>
<text text-anchor="start" x="8" y="-70.5" font-family="Helvetica,sans-Serif" font-size="10.00">&#45; passw</text>
<text text-anchor="start" x="8" y="-59.5" font-family="Helvetica,sans-Serif" font-size="10.00">&#45; n</text>
<text text-anchor="start" x="8" y="-48.5" font-family="Helvetica,sans-Serif" font-size="10.00">&#45; id</text>
<text text-anchor="start" x="8" y="-37.5" font-family="Helvetica,sans-Serif" font-size="10.00">&#45; debug</text>
<polyline fill="none" stroke="black" points="0,-30.5 103,-30.5 "/>
<text text-anchor="start" x="8" y="-18.5" font-family="Helvetica,sans-Serif" font-size="10.00">+ Tester()</text>
<text text-anchor="start" x="8" y="-7.5" font-family="Helvetica,sans-Serif" font-size="10.00">+ run()</text>
</a>
</g>
</g>
<!-- Node2 -->
<g id="node2" class="node"><title>Node2</title>
<g id="a_node2"><a xlink:title=" ">
<polygon fill="white" stroke="#bfbfbf" points="23,-149.5 23,-206.5 80,-206.5 80,-149.5 23,-149.5"/>
<text text-anchor="middle" x="51.5" y="-194.5" font-family="Helvetica,sans-Serif" font-size="10.00">Runnable</text>
<polyline fill="none" stroke="#bfbfbf" points="23,-187.5 80,-187.5 "/>
<text text-anchor="middle" x="51.5" y="-175.5" font-family="Helvetica,sans-Serif" font-size="10.00"> </text>
<polyline fill="none" stroke="#bfbfbf" points="23,-168.5 80,-168.5 "/>
<text text-anchor="middle" x="51.5" y="-156.5" font-family="Helvetica,sans-Serif" font-size="10.00"> </text>
</a>
</g>
</g>
<!-- Node2&#45;&gt;Node1 -->
<g id="edge1" class="edge"><title>Node2&#45;&gt;Node1</title>
<path fill="none" stroke="midnightblue" d="M51.5,-139.108C51.5,-130.748 51.5,-121.725 51.5,-112.834"/>
<polygon fill="none" stroke="midnightblue" points="48.0001,-139.284 51.5,-149.284 55.0001,-139.284 48.0001,-139.284"/>
</g>
</g>
</svg>
