<?xml version="1.0" encoding="UTF-8" standalone="no"?>
<!DOCTYPE svg PUBLIC "-//W3C//DTD SVG 1.1//EN"
 "http://www.w3.org/Graphics/SVG/1.1/DTD/svg11.dtd">
<!-- Generated by graphviz version 2.38.0 (20140413.2041)
 -->
<!-- Title: WordQuizzle.DataBaseJSON.checkUser Pages: 1 -->
<svg width="423pt" height="116pt"
 viewBox="0.00 0.00 423.00 116.00" xmlns="http://www.w3.org/2000/svg" xmlns:xlink="http://www.w3.org/1999/xlink">
<g id="graph0" class="graph" transform="scale(1 1) rotate(0) translate(4 112)">
<title>WordQuizzle.DataBaseJSON.checkUser</title>
<polygon fill="white" stroke="none" points="-4,4 -4,-112 419,-112 419,4 -4,4"/>
<!-- Node1 -->
<g id="node1" class="node"><title>Node1</title>
<g id="a_node1"><a xlink:title="Controlla che quel nome utente sia nel database.">
<polygon fill="#bfbfbf" stroke="black" points="221,-44.5 221,-63.5 415,-63.5 415,-44.5 221,-44.5"/>
<text text-anchor="middle" x="318" y="-51.5" font-family="Helvetica,sans-Serif" font-size="10.00">WordQuizzle.DataBaseJSON.checkUser</text>
</a>
</g>
</g>
<!-- Node2 -->
<g id="node2" class="node"><title>Node2</title>
<g id="a_node2"><a xlink:href="class_word_quizzle_1_1_data_base_j_s_o_n.html#ae3657f1b399c6bb2292085f5b267a5c4" target="_top" xlink:title="Crea un link (amicizia) non orientato tra due utenti.">
<polygon fill="white" stroke="black" points="11.5,-88.5 11.5,-107.5 173.5,-107.5 173.5,-88.5 11.5,-88.5"/>
<text text-anchor="middle" x="92.5" y="-95.5" font-family="Helvetica,sans-Serif" font-size="10.00">WordQuizzle.DataBaseJSON.link</text>
</a>
</g>
</g>
<!-- Node1&#45;&gt;Node2 -->
<g id="edge1" class="edge"><title>Node1&#45;&gt;Node2</title>
<path fill="none" stroke="midnightblue" d="M258.543,-65.5083C222.243,-72.6546 176.146,-81.7296 141.902,-88.4713"/>
<polygon fill="midnightblue" stroke="midnightblue" points="259.368,-68.9131 268.504,-63.5473 258.016,-62.0449 259.368,-68.9131"/>
</g>
<!-- Node3 -->
<g id="node3" class="node"><title>Node3</title>
<g id="a_node3"><a xlink:href="class_word_quizzle_1_1_data_base_j_s_o_n.html#a502f41cf68fd6337a482e01d283e675d" target="_top" xlink:title="Modifica il punteggio (User.score) di un utente.">
<polygon fill="white" stroke="black" points="4.5,-39 4.5,-69 180.5,-69 180.5,-39 4.5,-39"/>
<text text-anchor="start" x="12.5" y="-57" font-family="Helvetica,sans-Serif" font-size="10.00">WordQuizzle.DataBaseJSON.modify</text>
<text text-anchor="middle" x="92.5" y="-46" font-family="Helvetica,sans-Serif" font-size="10.00">Score</text>
</a>
</g>
</g>
<!-- Node1&#45;&gt;Node3 -->
<g id="edge2" class="edge"><title>Node1&#45;&gt;Node3</title>
<path fill="none" stroke="midnightblue" d="M210.847,-54C200.742,-54 190.576,-54 180.681,-54"/>
<polygon fill="midnightblue" stroke="midnightblue" points="210.919,-57.5001 220.919,-54 210.919,-50.5001 210.919,-57.5001"/>
</g>
<!-- Node4 -->
<g id="node4" class="node"><title>Node4</title>
<g id="a_node4"><a xlink:href="class_word_quizzle_1_1_data_base_j_s_o_n.html#af4e5efb5f084f394fbca0ae77e7f5368" target="_top" xlink:title="Aggiunge un nuovo utente nel database.">
<polygon fill="white" stroke="black" points="0,-0.5 0,-19.5 185,-19.5 185,-0.5 0,-0.5"/>
<text text-anchor="middle" x="92.5" y="-7.5" font-family="Helvetica,sans-Serif" font-size="10.00">WordQuizzle.DataBaseJSON.newUser</text>
</a>
</g>
</g>
<!-- Node1&#45;&gt;Node4 -->
<g id="edge3" class="edge"><title>Node1&#45;&gt;Node4</title>
<path fill="none" stroke="midnightblue" d="M258.543,-42.4917C222.243,-35.3454 176.146,-26.2704 141.902,-19.5287"/>
<polygon fill="midnightblue" stroke="midnightblue" points="258.016,-45.9551 268.504,-44.4527 259.368,-39.0869 258.016,-45.9551"/>
</g>
</g>
</svg>
