<?xml version="1.0" encoding="UTF-8" standalone="no"?>
<!DOCTYPE svg PUBLIC "-//W3C//DTD SVG 1.1//EN"
 "http://www.w3.org/Graphics/SVG/1.1/DTD/svg11.dtd">
<!-- Generated by graphviz version 2.38.0 (20140413.2041)
 -->
<!-- Title: WordQuizzle.Bot.main Pages: 1 -->
<svg width="964pt" height="361pt"
 viewBox="0.00 0.00 964.00 361.00" xmlns="http://www.w3.org/2000/svg" xmlns:xlink="http://www.w3.org/1999/xlink">
<g id="graph0" class="graph" transform="scale(1 1) rotate(0) translate(4 357)">
<title>WordQuizzle.Bot.main</title>
<polygon fill="white" stroke="none" points="-4,4 -4,-357 960,-357 960,4 -4,4"/>
<!-- Node1 -->
<g id="node1" class="node"><title>Node1</title>
<g id="a_node1"><a xlink:title="Esegue un bot.">
<polygon fill="#bfbfbf" stroke="black" points="0,-164 0,-183 115,-183 115,-164 0,-164"/>
<text text-anchor="middle" x="57.5" y="-171" font-family="Helvetica,sans-Serif" font-size="10.00">WordQuizzle.Bot.main</text>
</a>
</g>
</g>
<!-- Node2 -->
<g id="node2" class="node"><title>Node2</title>
<g id="a_node2"><a xlink:href="class_word_quizzle_1_1_bot.html#a78910f89f5a7e3aa00c8e5d054671005" target="_top" xlink:title="Crea un bot.">
<polygon fill="white" stroke="black" points="151,-183 151,-202 260,-202 260,-183 151,-183"/>
<text text-anchor="middle" x="205.5" y="-190" font-family="Helvetica,sans-Serif" font-size="10.00">WordQuizzle.Bot.Bot</text>
</a>
</g>
</g>
<!-- Node1&#45;&gt;Node2 -->
<g id="edge1" class="edge"><title>Node1&#45;&gt;Node2</title>
<path fill="none" stroke="midnightblue" d="M115.365,-180.9C123.676,-181.982 132.281,-183.102 140.718,-184.2"/>
<polygon fill="midnightblue" stroke="midnightblue" points="140.528,-187.704 150.896,-185.524 141.431,-180.763 140.528,-187.704"/>
</g>
<!-- Node3 -->
<g id="node3" class="node"><title>Node3</title>
<g id="a_node3"><a xlink:href="class_word_quizzle_1_1_bot.html#aa088d2cccb4552d9277db7908b7cc706" target="_top" xlink:title="Avvia il bot.">
<polygon fill="white" stroke="black" points="152,-145 152,-164 259,-164 259,-145 152,-145"/>
<text text-anchor="middle" x="205.5" y="-152" font-family="Helvetica,sans-Serif" font-size="10.00">WordQuizzle.Bot.run</text>
</a>
</g>
</g>
<!-- Node1&#45;&gt;Node3 -->
<g id="edge2" class="edge"><title>Node1&#45;&gt;Node3</title>
<path fill="none" stroke="midnightblue" d="M115.365,-166.1C123.998,-164.976 132.947,-163.812 141.697,-162.673"/>
<polygon fill="midnightblue" stroke="midnightblue" points="142.381,-166.114 151.845,-161.352 141.477,-159.172 142.381,-166.114"/>
</g>
<!-- Node4 -->
<g id="node4" class="node"><title>Node4</title>
<g id="a_node4"><a xlink:href="class_word_quizzle_1_1_word_quizzle_client.html#a540dfbf20ba0d5a8118e6d9284b79bc0" target="_top" xlink:title="Accetta una richiesta di sfida inviata da nickAmico.">
<polygon fill="white" stroke="black" points="298.5,-309.5 298.5,-339.5 490.5,-339.5 490.5,-309.5 298.5,-309.5"/>
<text text-anchor="start" x="306.5" y="-327.5" font-family="Helvetica,sans-Serif" font-size="10.00">WordQuizzle.WordQuizzleClient.accetta</text>
<text text-anchor="middle" x="394.5" y="-316.5" font-family="Helvetica,sans-Serif" font-size="10.00">Sfida</text>
</a>
</g>
</g>
<!-- Node3&#45;&gt;Node4 -->
<g id="edge3" class="edge"><title>Node3&#45;&gt;Node4</title>
<path fill="none" stroke="midnightblue" d="M246.289,-164.028C251.338,-166.496 256.095,-169.599 260,-173.5 293.717,-207.178 264.589,-238.662 296,-274.5 307.318,-287.413 322.777,-297.436 338.049,-305.002"/>
<polygon fill="midnightblue" stroke="midnightblue" points="336.952,-308.352 347.495,-309.399 339.906,-302.006 336.952,-308.352"/>
</g>
<!-- Node6 -->
<g id="node6" class="node"><title>Node6</title>
<g id="a_node6"><a xlink:href="class_word_quizzle_1_1_word_quizzle_client.html#a808fea05e1dc44069f476eebd3a39ada" target="_top" xlink:title="Verifica se ci sono richieste di sfida per user.">
<polygon fill="white" stroke="black" points="296,-234.5 296,-264.5 493,-264.5 493,-234.5 296,-234.5"/>
<text text-anchor="start" x="304" y="-252.5" font-family="Helvetica,sans-Serif" font-size="10.00">WordQuizzle.WordQuizzleClient.controlla</text>
<text text-anchor="middle" x="394.5" y="-241.5" font-family="Helvetica,sans-Serif" font-size="10.00">Richieste</text>
</a>
</g>
</g>
<!-- Node3&#45;&gt;Node6 -->
<g id="edge5" class="edge"><title>Node3&#45;&gt;Node6</title>
<path fill="none" stroke="midnightblue" d="M236.305,-164.038C244.124,-166.823 252.472,-170.053 260,-173.5 295.79,-189.888 334.688,-212.642 361.212,-228.974"/>
<polygon fill="midnightblue" stroke="midnightblue" points="359.711,-232.162 370.053,-234.462 363.403,-226.214 359.711,-232.162"/>
</g>
<!-- Node8 -->
<g id="node8" class="node"><title>Node8</title>
<g id="a_node8"><a xlink:href="class_word_quizzle_1_1_bot.html#ac35a1d7ec89b1ef5fc25f161357f71c1" target="_top" xlink:title="Gestisce una sfida.">
<polygon fill="white" stroke="black" points="335.5,-145 335.5,-164 453.5,-164 453.5,-145 335.5,-145"/>
<text text-anchor="middle" x="394.5" y="-152" font-family="Helvetica,sans-Serif" font-size="10.00">WordQuizzle.Bot.game</text>
</a>
</g>
</g>
<!-- Node3&#45;&gt;Node8 -->
<g id="edge7" class="edge"><title>Node3&#45;&gt;Node8</title>
<path fill="none" stroke="midnightblue" d="M259.088,-154.5C279.604,-154.5 303.395,-154.5 325.207,-154.5"/>
<polygon fill="midnightblue" stroke="midnightblue" points="325.401,-158 335.401,-154.5 325.401,-151 325.401,-158"/>
</g>
<!-- Node14 -->
<g id="node14" class="node"><title>Node14</title>
<g id="a_node14"><a xlink:href="class_word_quizzle_1_1_word_quizzle_client.html#aa87c179f3a0a6ab57c2b74960c95a626" target="_top" xlink:title="Effettua il login.">
<polygon fill="white" stroke="black" points="304.5,-96 304.5,-115 484.5,-115 484.5,-96 304.5,-96"/>
<text text-anchor="middle" x="394.5" y="-103" font-family="Helvetica,sans-Serif" font-size="10.00">WordQuizzle.WordQuizzleClient.login</text>
</a>
</g>
</g>
<!-- Node3&#45;&gt;Node14 -->
<g id="edge13" class="edge"><title>Node3&#45;&gt;Node14</title>
<path fill="none" stroke="midnightblue" d="M242.999,-144.936C272.732,-137.145 314.899,-126.096 347.038,-117.674"/>
<polygon fill="midnightblue" stroke="midnightblue" points="348.306,-120.96 357.093,-115.04 346.532,-114.189 348.306,-120.96"/>
</g>
<!-- Node16 -->
<g id="node16" class="node"><title>Node16</title>
<g id="a_node16"><a xlink:href="class_word_quizzle_1_1_word_quizzle_client.html#a98206956fc50ef3951d27f2a89fb21fa" target="_top" xlink:title="Registra un nuovo utente.">
<polygon fill="white" stroke="black" points="298.5,-24.5 298.5,-54.5 490.5,-54.5 490.5,-24.5 298.5,-24.5"/>
<text text-anchor="start" x="306.5" y="-42.5" font-family="Helvetica,sans-Serif" font-size="10.00">WordQuizzle.WordQuizzleClient.registra</text>
<text text-anchor="middle" x="394.5" y="-31.5" font-family="Helvetica,sans-Serif" font-size="10.00">_utente</text>
</a>
</g>
</g>
<!-- Node3&#45;&gt;Node16 -->
<g id="edge15" class="edge"><title>Node3&#45;&gt;Node16</title>
<path fill="none" stroke="midnightblue" d="M217.56,-144.929C233.967,-131.01 266.045,-104.843 296,-86.5 312.631,-76.3157 331.802,-66.6645 348.719,-58.788"/>
<polygon fill="midnightblue" stroke="midnightblue" points="350.222,-61.9494 357.856,-54.6025 347.307,-55.5854 350.222,-61.9494"/>
</g>
<!-- Node5 -->
<g id="node5" class="node"><title>Node5</title>
<g id="a_node5"><a xlink:href="interface_word_quizzle_1_1_word_quizzle_service.html#a249b5976997c2e6d6d2ceb7e71cc7d75" target="_top" xlink:title="Accetta una richiesta di sfida inviata da nickAmico.">
<polygon fill="white" stroke="black" points="531,-322.5 531,-352.5 730,-352.5 730,-322.5 531,-322.5"/>
<text text-anchor="start" x="539" y="-340.5" font-family="Helvetica,sans-Serif" font-size="10.00">WordQuizzle.WordQuizzleService.accetta</text>
<text text-anchor="middle" x="630.5" y="-329.5" font-family="Helvetica,sans-Serif" font-size="10.00">Sfida</text>
</a>
</g>
</g>
<!-- Node4&#45;&gt;Node5 -->
<g id="edge4" class="edge"><title>Node4&#45;&gt;Node5</title>
<path fill="none" stroke="midnightblue" d="M490.677,-329.788C500.641,-330.341 510.824,-330.907 520.924,-331.468"/>
<polygon fill="midnightblue" stroke="midnightblue" points="520.805,-334.967 530.984,-332.027 521.193,-327.977 520.805,-334.967"/>
</g>
<!-- Node7 -->
<g id="node7" class="node"><title>Node7</title>
<g id="a_node7"><a xlink:href="interface_word_quizzle_1_1_word_quizzle_service.html#a12eccd4ef95e4ec5a7591b6038429eda" target="_top" xlink:title="Verifica se ci sono richieste di sfida per nickUtente.">
<polygon fill="white" stroke="black" points="529,-273.5 529,-303.5 732,-303.5 732,-273.5 529,-273.5"/>
<text text-anchor="start" x="537" y="-291.5" font-family="Helvetica,sans-Serif" font-size="10.00">WordQuizzle.WordQuizzleService.controlla</text>
<text text-anchor="middle" x="630.5" y="-280.5" font-family="Helvetica,sans-Serif" font-size="10.00">Richieste</text>
</a>
</g>
</g>
<!-- Node6&#45;&gt;Node7 -->
<g id="edge6" class="edge"><title>Node6&#45;&gt;Node7</title>
<path fill="none" stroke="midnightblue" d="M485.636,-264.523C499.967,-266.911 514.867,-269.394 529.41,-271.818"/>
<polygon fill="midnightblue" stroke="midnightblue" points="528.971,-275.293 539.411,-273.485 530.122,-268.389 528.971,-275.293"/>
</g>
<!-- Node9 -->
<g id="node9" class="node"><title>Node9</title>
<g id="a_node9"><a xlink:href="class_word_quizzle_1_1_word_quizzle_server_service.html#a970fe0e2dd7457bab2c64ae722a912fc" target="_top" xlink:title="Restituisce il numero di parole per sfida.">
<polygon fill="white" stroke="black" points="551,-224.5 551,-254.5 710,-254.5 710,-224.5 551,-224.5"/>
<text text-anchor="start" x="559" y="-242.5" font-family="Helvetica,sans-Serif" font-size="10.00">WordQuizzle.WordQuizzleServer</text>
<text text-anchor="middle" x="630.5" y="-231.5" font-family="Helvetica,sans-Serif" font-size="10.00">Service.getK</text>
</a>
</g>
</g>
<!-- Node8&#45;&gt;Node9 -->
<g id="edge8" class="edge"><title>Node8&#45;&gt;Node9</title>
<path fill="none" stroke="midnightblue" d="M413.609,-164.148C438.86,-177.279 486.353,-200.82 529,-215.5 535.382,-217.697 542.059,-219.766 548.806,-221.698"/>
<polygon fill="midnightblue" stroke="midnightblue" points="548.145,-225.147 558.716,-224.43 550.005,-218.398 548.145,-225.147"/>
</g>
<!-- Node10 -->
<g id="node10" class="node"><title>Node10</title>
<g id="a_node10"><a xlink:href="class_word_quizzle_1_1_word_quizzle_server_service.html#ac78bda2a578b3baa0933ca28e4b72e0c" target="_top" xlink:title="Restituisce la durata di una sfida, in millisecondi.">
<polygon fill="white" stroke="black" points="551,-175.5 551,-205.5 710,-205.5 710,-175.5 551,-175.5"/>
<text text-anchor="start" x="559" y="-193.5" font-family="Helvetica,sans-Serif" font-size="10.00">WordQuizzle.WordQuizzleServer</text>
<text text-anchor="middle" x="630.5" y="-182.5" font-family="Helvetica,sans-Serif" font-size="10.00">Service.getT2</text>
</a>
</g>
</g>
<!-- Node8&#45;&gt;Node10 -->
<g id="edge9" class="edge"><title>Node8&#45;&gt;Node10</title>
<path fill="none" stroke="midnightblue" d="M453.643,-163.445C479.918,-167.487 511.547,-172.353 540.693,-176.837"/>
<polygon fill="midnightblue" stroke="midnightblue" points="540.471,-180.344 550.887,-178.406 541.535,-173.426 540.471,-180.344"/>
</g>
<!-- Node11 -->
<g id="node11" class="node"><title>Node11</title>
<g id="a_node11"><a xlink:href="class_word_quizzle_1_1_word_quizzle_client.html#a828a5e7a358bd53296d88c97172db13b" target="_top" xlink:title="Invia la traduzione della parola precedentemente inviata dal server durante una sfida.">
<polygon fill="white" stroke="black" points="540,-126.5 540,-156.5 721,-156.5 721,-126.5 540,-126.5"/>
<text text-anchor="start" x="548" y="-144.5" font-family="Helvetica,sans-Serif" font-size="10.00">WordQuizzle.WordQuizzleClient.send</text>
<text text-anchor="middle" x="630.5" y="-133.5" font-family="Helvetica,sans-Serif" font-size="10.00">Translation</text>
</a>
</g>
</g>
<!-- Node8&#45;&gt;Node11 -->
<g id="edge10" class="edge"><title>Node8&#45;&gt;Node11</title>
<path fill="none" stroke="midnightblue" d="M453.643,-151.27C476.586,-149.995 503.612,-148.494 529.502,-147.055"/>
<polygon fill="midnightblue" stroke="midnightblue" points="529.95,-150.536 539.741,-146.487 529.562,-143.547 529.95,-150.536"/>
</g>
<!-- Node13 -->
<g id="node13" class="node"><title>Node13</title>
<g id="a_node13"><a xlink:href="class_word_quizzle_1_1_translator.html#a9fcad4b807785c63c72bc85f672fb635" target="_top" xlink:title="Traduce una parola dall&#39;italiano all&#39;inglese.">
<polygon fill="white" stroke="black" points="551,-88 551,-107 710,-107 710,-88 551,-88"/>
<text text-anchor="middle" x="630.5" y="-95" font-family="Helvetica,sans-Serif" font-size="10.00">WordQuizzle.Translator.translate</text>
</a>
</g>
</g>
<!-- Node8&#45;&gt;Node13 -->
<g id="edge12" class="edge"><title>Node8&#45;&gt;Node13</title>
<path fill="none" stroke="midnightblue" d="M426.047,-144.952C452.973,-136.742 493.353,-124.925 529,-116.5 540.408,-113.804 552.616,-111.235 564.452,-108.906"/>
<polygon fill="midnightblue" stroke="midnightblue" points="565.125,-112.341 574.281,-107.01 563.799,-105.468 565.125,-112.341"/>
</g>
<!-- Node12 -->
<g id="node12" class="node"><title>Node12</title>
<g id="a_node12"><a xlink:href="interface_word_quizzle_1_1_word_quizzle_service.html#a40fcaf644a7b5e4e1c1e592052f55e0b" target="_top" xlink:title="Invia la traduzione della parola precedentemente inviata dal server durante una sfida.">
<polygon fill="white" stroke="black" points="768,-126.5 768,-156.5 956,-156.5 956,-126.5 768,-126.5"/>
<text text-anchor="start" x="776" y="-144.5" font-family="Helvetica,sans-Serif" font-size="10.00">WordQuizzle.WordQuizzleService.send</text>
<text text-anchor="middle" x="862" y="-133.5" font-family="Helvetica,sans-Serif" font-size="10.00">Translation</text>
</a>
</g>
</g>
<!-- Node11&#45;&gt;Node12 -->
<g id="edge11" class="edge"><title>Node11&#45;&gt;Node12</title>
<path fill="none" stroke="midnightblue" d="M721.217,-141.5C733.199,-141.5 745.565,-141.5 757.755,-141.5"/>
<polygon fill="midnightblue" stroke="midnightblue" points="757.942,-145 767.942,-141.5 757.942,-138 757.942,-145"/>
</g>
<!-- Node15 -->
<g id="node15" class="node"><title>Node15</title>
<g id="a_node15"><a xlink:href="interface_word_quizzle_1_1_word_quizzle_service.html#abae2cda062f36f0e54c9d13589c53027" target="_top" xlink:title="Effettua il login.">
<polygon fill="white" stroke="black" points="537,-50 537,-69 724,-69 724,-50 537,-50"/>
<text text-anchor="middle" x="630.5" y="-57" font-family="Helvetica,sans-Serif" font-size="10.00">WordQuizzle.WordQuizzleService.login</text>
</a>
</g>
</g>
<!-- Node14&#45;&gt;Node15 -->
<g id="edge14" class="edge"><title>Node14&#45;&gt;Node15</title>
<path fill="none" stroke="midnightblue" d="M441.808,-95.9837C467.483,-90.7455 499.992,-84.1752 529,-78.5 541.651,-76.025 555.208,-73.4258 568.141,-70.972"/>
<polygon fill="midnightblue" stroke="midnightblue" points="569.174,-74.3386 578.349,-69.0403 567.873,-67.4606 569.174,-74.3386"/>
</g>
<!-- Node17 -->
<g id="node17" class="node"><title>Node17</title>
<g id="a_node17"><a xlink:href="interface_word_quizzle_1_1_word_quizzle_service.html#a4abc4590c1b6009ec9afb7ba1a1022b1" target="_top" xlink:title="Registra un utente.">
<polygon fill="white" stroke="black" points="531,-0.5 531,-30.5 730,-30.5 730,-0.5 531,-0.5"/>
<text text-anchor="start" x="539" y="-18.5" font-family="Helvetica,sans-Serif" font-size="10.00">WordQuizzle.WordQuizzleService.registra</text>
<text text-anchor="middle" x="630.5" y="-7.5" font-family="Helvetica,sans-Serif" font-size="10.00">_utente</text>
</a>
</g>
</g>
<!-- Node16&#45;&gt;Node17 -->
<g id="edge16" class="edge"><title>Node16&#45;&gt;Node17</title>
<path fill="none" stroke="midnightblue" d="M490.677,-29.7383C500.641,-28.7163 510.824,-27.6719 520.924,-26.636"/>
<polygon fill="midnightblue" stroke="midnightblue" points="521.393,-30.1064 530.984,-25.6043 520.679,-23.1429 521.393,-30.1064"/>
</g>
</g>
</svg>
