<?xml version="1.0" encoding="UTF-8" standalone="no"?>
<!DOCTYPE svg PUBLIC "-//W3C//DTD SVG 1.1//EN"
 "http://www.w3.org/Graphics/SVG/1.1/DTD/svg11.dtd">
<!-- Generated by graphviz version 2.38.0 (20140413.2041)
 -->
<!-- Title: WordQuizzle.WordQuizzleServerService.getT2 Pages: 1 -->
<svg width="711pt" height="180pt"
 viewBox="0.00 0.00 711.00 180.00" xmlns="http://www.w3.org/2000/svg" xmlns:xlink="http://www.w3.org/1999/xlink">
<g id="graph0" class="graph" transform="scale(1 1) rotate(0) translate(4 176)">
<title>WordQuizzle.WordQuizzleServerService.getT2</title>
<polygon fill="white" stroke="none" points="-4,4 -4,-176 707,-176 707,4 -4,4"/>
<!-- Node1 -->
<g id="node1" class="node"><title>Node1</title>
<g id="a_node1"><a xlink:title="Restituisce la durata di una sfida, in millisecondi.">
<polygon fill="#bfbfbf" stroke="black" points="544,-90 544,-120 703,-120 703,-90 544,-90"/>
<text text-anchor="start" x="552" y="-108" font-family="Helvetica,sans-Serif" font-size="10.00">WordQuizzle.WordQuizzleServer</text>
<text text-anchor="middle" x="623.5" y="-97" font-family="Helvetica,sans-Serif" font-size="10.00">Service.getT2</text>
</a>
</g>
</g>
<!-- Node2 -->
<g id="node2" class="node"><title>Node2</title>
<g id="a_node2"><a xlink:href="class_word_quizzle_1_1_bot.html#ac35a1d7ec89b1ef5fc25f161357f71c1" target="_top" xlink:title="Gestisce una sfida.">
<polygon fill="white" stroke="black" points="381.5,-152.5 381.5,-171.5 499.5,-171.5 499.5,-152.5 381.5,-152.5"/>
<text text-anchor="middle" x="440.5" y="-159.5" font-family="Helvetica,sans-Serif" font-size="10.00">WordQuizzle.Bot.game</text>
</a>
</g>
</g>
<!-- Node1&#45;&gt;Node2 -->
<g id="edge1" class="edge"><title>Node1&#45;&gt;Node2</title>
<path fill="none" stroke="midnightblue" d="M569.111,-123.236C549.901,-129.661 528.031,-136.818 508,-143 497.674,-146.187 486.39,-149.481 476.097,-152.414"/>
<polygon fill="midnightblue" stroke="midnightblue" points="570.232,-126.552 578.598,-120.051 568.004,-119.916 570.232,-126.552"/>
</g>
<!-- Node5 -->
<g id="node5" class="node"><title>Node5</title>
<g id="a_node5"><a xlink:href="class_word_quizzle_1_1_w_q_gui.html#a0e3cb31624c4fdda7b58977fe75de341" target="_top" xlink:title="Crea la finestra di gioco durante una sfida.">
<polygon fill="white" stroke="black" points="373,-114.5 373,-133.5 508,-133.5 508,-114.5 373,-114.5"/>
<text text-anchor="middle" x="440.5" y="-121.5" font-family="Helvetica,sans-Serif" font-size="10.00">WordQuizzle.WQGui.game</text>
</a>
</g>
</g>
<!-- Node1&#45;&gt;Node5 -->
<g id="edge4" class="edge"><title>Node1&#45;&gt;Node5</title>
<path fill="none" stroke="midnightblue" d="M533.791,-114.312C525.154,-115.219 516.496,-116.128 508.13,-117.006"/>
<polygon fill="midnightblue" stroke="midnightblue" points="534.321,-117.776 543.9,-113.251 533.59,-110.814 534.321,-117.776"/>
</g>
<!-- Node7 -->
<g id="node7" class="node"><title>Node7</title>
<g id="a_node7"><a xlink:href="class_word_quizzle_1_1_w_q_cli.html#ae5f342434ec80ce1ed3939fb446de436" target="_top" xlink:title="Gestisce una sfida.">
<polygon fill="white" stroke="black" points="375,-76.5 375,-95.5 506,-95.5 506,-76.5 375,-76.5"/>
<text text-anchor="middle" x="440.5" y="-83.5" font-family="Helvetica,sans-Serif" font-size="10.00">WordQuizzle.WQCli.game</text>
</a>
</g>
</g>
<!-- Node1&#45;&gt;Node7 -->
<g id="edge6" class="edge"><title>Node1&#45;&gt;Node7</title>
<path fill="none" stroke="midnightblue" d="M533.818,-95.6908C524.499,-94.7126 515.155,-93.7317 506.18,-92.7896"/>
<polygon fill="midnightblue" stroke="midnightblue" points="533.59,-99.186 543.9,-96.7492 534.321,-92.2243 533.59,-99.186"/>
</g>
<!-- Node11 -->
<g id="node11" class="node"><title>Node11</title>
<g id="a_node11"><a xlink:href="class_word_quizzle_1_1_challenge.html#a4587e95b2628810f0c66278e90a9934c" target="_top" xlink:title="Verifica se la sfida e&#39; terminata.">
<polygon fill="white" stroke="black" points="376,-11 376,-41 505,-41 505,-11 376,-11"/>
<text text-anchor="start" x="384" y="-29" font-family="Helvetica,sans-Serif" font-size="10.00">WordQuizzle.Challenge.is</text>
<text text-anchor="middle" x="440.5" y="-18" font-family="Helvetica,sans-Serif" font-size="10.00">Terminated</text>
</a>
</g>
</g>
<!-- Node1&#45;&gt;Node11 -->
<g id="edge11" class="edge"><title>Node1&#45;&gt;Node11</title>
<path fill="none" stroke="midnightblue" d="M578.617,-85.8464C547.133,-72.1052 505.297,-53.845 476.15,-41.1236"/>
<polygon fill="midnightblue" stroke="midnightblue" points="577.464,-89.1623 588.029,-89.9548 580.264,-82.7467 577.464,-89.1623"/>
</g>
<!-- Node3 -->
<g id="node3" class="node"><title>Node3</title>
<g id="a_node3"><a xlink:href="class_word_quizzle_1_1_bot.html#aa088d2cccb4552d9277db7908b7cc706" target="_top" xlink:title="Avvia il bot.">
<polygon fill="white" stroke="black" points="197,-152.5 197,-171.5 304,-171.5 304,-152.5 197,-152.5"/>
<text text-anchor="middle" x="250.5" y="-159.5" font-family="Helvetica,sans-Serif" font-size="10.00">WordQuizzle.Bot.run</text>
</a>
</g>
</g>
<!-- Node2&#45;&gt;Node3 -->
<g id="edge2" class="edge"><title>Node2&#45;&gt;Node3</title>
<path fill="none" stroke="midnightblue" d="M371.024,-162C349.025,-162 325.008,-162 304.312,-162"/>
<polygon fill="midnightblue" stroke="midnightblue" points="371.303,-165.5 381.303,-162 371.303,-158.5 371.303,-165.5"/>
</g>
<!-- Node4 -->
<g id="node4" class="node"><title>Node4</title>
<g id="a_node4"><a xlink:href="class_word_quizzle_1_1_bot.html#a1092df275f21d17d0b0a7edf7bbb59f2" target="_top" xlink:title="Esegue un bot.">
<polygon fill="white" stroke="black" points="6.5,-152.5 6.5,-171.5 121.5,-171.5 121.5,-152.5 6.5,-152.5"/>
<text text-anchor="middle" x="64" y="-159.5" font-family="Helvetica,sans-Serif" font-size="10.00">WordQuizzle.Bot.main</text>
</a>
</g>
</g>
<!-- Node3&#45;&gt;Node4 -->
<g id="edge3" class="edge"><title>Node3&#45;&gt;Node4</title>
<path fill="none" stroke="midnightblue" d="M186.521,-162C165.516,-162 142.251,-162 121.747,-162"/>
<polygon fill="midnightblue" stroke="midnightblue" points="186.63,-165.5 196.63,-162 186.63,-158.5 186.63,-165.5"/>
</g>
<!-- Node6 -->
<g id="node6" class="node"><title>Node6</title>
<g id="a_node6"><a xlink:href="class_word_quizzle_1_1_notifier.html#ad051f74dab1ae47c4453f9d094b6d0c4" target="_top" xlink:title="Attende l&#39;arrivo di una richiesta e se il client non e&#39; impegnato in una sfida gli notifica la richie...">
<polygon fill="white" stroke="black" points="189.5,-114.5 189.5,-133.5 311.5,-133.5 311.5,-114.5 189.5,-114.5"/>
<text text-anchor="middle" x="250.5" y="-121.5" font-family="Helvetica,sans-Serif" font-size="10.00">WordQuizzle.Notifier.run</text>
</a>
</g>
</g>
<!-- Node5&#45;&gt;Node6 -->
<g id="edge5" class="edge"><title>Node5&#45;&gt;Node6</title>
<path fill="none" stroke="midnightblue" d="M362.52,-124C345.571,-124 327.859,-124 311.687,-124"/>
<polygon fill="midnightblue" stroke="midnightblue" points="362.954,-127.5 372.954,-124 362.954,-120.5 362.954,-127.5"/>
</g>
<!-- Node8 -->
<g id="node8" class="node"><title>Node8</title>
<g id="a_node8"><a xlink:href="class_word_quizzle_1_1_w_q_cli.html#a7b07b55738bdd5da89a2ef645afdc020" target="_top" xlink:title="Gestisce una richiesta di sfida.">
<polygon fill="white" stroke="black" points="164,-76.5 164,-95.5 337,-95.5 337,-76.5 164,-76.5"/>
<text text-anchor="middle" x="250.5" y="-83.5" font-family="Helvetica,sans-Serif" font-size="10.00">WordQuizzle.WQCli.nuovaRichiesta</text>
</a>
</g>
</g>
<!-- Node7&#45;&gt;Node8 -->
<g id="edge7" class="edge"><title>Node7&#45;&gt;Node8</title>
<path fill="none" stroke="midnightblue" d="M364.726,-86C355.692,-86 346.41,-86 337.235,-86"/>
<polygon fill="midnightblue" stroke="midnightblue" points="364.801,-89.5001 374.801,-86 364.801,-82.5001 364.801,-89.5001"/>
</g>
<!-- Node10 -->
<g id="node10" class="node"><title>Node10</title>
<g id="a_node10"><a xlink:href="class_word_quizzle_1_1_w_q_cli.html#a318ef86f91a825da4ff4684bd3332a6b" target="_top" xlink:title="Gestisce le richieste dell&#39;utente.">
<polygon fill="white" stroke="black" points="185,-38.5 185,-57.5 316,-57.5 316,-38.5 185,-38.5"/>
<text text-anchor="middle" x="250.5" y="-45.5" font-family="Helvetica,sans-Serif" font-size="10.00">WordQuizzle.WQCli.parse</text>
</a>
</g>
</g>
<!-- Node7&#45;&gt;Node10 -->
<g id="edge9" class="edge"><title>Node7&#45;&gt;Node10</title>
<path fill="none" stroke="midnightblue" d="M382.063,-74.3905C355.326,-68.986 323.912,-62.6365 298.599,-57.5201"/>
<polygon fill="midnightblue" stroke="midnightblue" points="381.564,-77.8603 392.06,-76.411 382.951,-70.9991 381.564,-77.8603"/>
</g>
<!-- Node9 -->
<g id="node9" class="node"><title>Node9</title>
<g id="a_node9"><a xlink:href="class_word_quizzle_1_1_w_q_cli.html#a7c2d51051cc7f1b20c57c1424d3b7727" target="_top" xlink:title="Gestisce l&#39;interazione con l&#39;utente.">
<polygon fill="white" stroke="black" points="0,-57.5 0,-76.5 128,-76.5 128,-57.5 0,-57.5"/>
<text text-anchor="middle" x="64" y="-64.5" font-family="Helvetica,sans-Serif" font-size="10.00">WordQuizzle.WQCli.main</text>
</a>
</g>
</g>
<!-- Node8&#45;&gt;Node9 -->
<g id="edge8" class="edge"><title>Node8&#45;&gt;Node9</title>
<path fill="none" stroke="midnightblue" d="M153.631,-76.1273C145.028,-75.2414 136.467,-74.3598 128.248,-73.5134"/>
<polygon fill="midnightblue" stroke="midnightblue" points="153.426,-79.6246 163.732,-77.1675 154.143,-72.6614 153.426,-79.6246"/>
</g>
<!-- Node10&#45;&gt;Node9 -->
<g id="edge10" class="edge"><title>Node10&#45;&gt;Node9</title>
<path fill="none" stroke="midnightblue" d="M174.918,-55.6805C159.44,-57.2744 143.273,-58.9394 128.248,-60.4866"/>
<polygon fill="midnightblue" stroke="midnightblue" points="175.382,-59.1513 184.971,-54.6453 174.665,-52.1882 175.382,-59.1513"/>
</g>
<!-- Node12 -->
<g id="node12" class="node"><title>Node12</title>
<g id="a_node12"><a xlink:href="class_word_quizzle_1_1_challenge.html#aa7b93cfc7d1927c0b1c060cc387321b9" target="_top" xlink:title="Gestisce la sfida.">
<polygon fill="white" stroke="black" points="183,-0.5 183,-19.5 318,-19.5 318,-0.5 183,-0.5"/>
<text text-anchor="middle" x="250.5" y="-7.5" font-family="Helvetica,sans-Serif" font-size="10.00">WordQuizzle.Challenge.run</text>
</a>
</g>
</g>
<!-- Node11&#45;&gt;Node12 -->
<g id="edge12" class="edge"><title>Node11&#45;&gt;Node12</title>
<path fill="none" stroke="midnightblue" d="M365.709,-19.7199C350.073,-18.3892 333.653,-16.9918 318.295,-15.6846"/>
<polygon fill="midnightblue" stroke="midnightblue" points="365.591,-23.2224 375.852,-20.5831 366.185,-16.2476 365.591,-23.2224"/>
</g>
</g>
</svg>
