<?xml version="1.0" encoding="UTF-8" standalone="no"?>
<!DOCTYPE svg PUBLIC "-//W3C//DTD SVG 1.1//EN"
 "http://www.w3.org/Graphics/SVG/1.1/DTD/svg11.dtd">
<!-- Generated by graphviz version 2.38.0 (20140413.2041)
 -->
<!-- Title: WordQuizzle.WordQuizzleClient.aggiungi_amico Pages: 1 -->
<svg width="783pt" height="88pt"
 viewBox="0.00 0.00 783.00 88.00" xmlns="http://www.w3.org/2000/svg" xmlns:xlink="http://www.w3.org/1999/xlink">
<g id="graph0" class="graph" transform="scale(1 1) rotate(0) translate(4 84)">
<title>WordQuizzle.WordQuizzleClient.aggiungi_amico</title>
<polygon fill="white" stroke="none" points="-4,4 -4,-84 779,-84 779,4 -4,4"/>
<!-- Node1 -->
<g id="node1" class="node"><title>Node1</title>
<g id="a_node1"><a xlink:title=" ">
<polygon fill="#bfbfbf" stroke="black" points="0,-24.5 0,-54.5 196,-54.5 196,-24.5 0,-24.5"/>
<text text-anchor="start" x="8" y="-42.5" font-family="Helvetica,sans-Serif" font-size="10.00">WordQuizzle.WordQuizzleClient.aggiungi</text>
<text text-anchor="middle" x="98" y="-31.5" font-family="Helvetica,sans-Serif" font-size="10.00">_amico</text>
</a>
</g>
</g>
<!-- Node2 -->
<g id="node2" class="node"><title>Node2</title>
<g id="a_node2"><a xlink:href="class_word_quizzle_1_1_word_quizzle_client_service.html#adc41c272e3f60eaf3fb07f477887a7ff" target="_top" xlink:title=" ">
<polygon fill="white" stroke="black" points="232,-24.5 232,-54.5 389,-54.5 389,-24.5 232,-24.5"/>
<text text-anchor="start" x="240" y="-42.5" font-family="Helvetica,sans-Serif" font-size="10.00">WordQuizzle.WordQuizzleClient</text>
<text text-anchor="middle" x="310.5" y="-31.5" font-family="Helvetica,sans-Serif" font-size="10.00">Service.aggiungi_amico</text>
</a>
</g>
</g>
<!-- Node1&#45;&gt;Node2 -->
<g id="edge1" class="edge"><title>Node1&#45;&gt;Node2</title>
<path fill="none" stroke="midnightblue" d="M196.24,-39.5C204.741,-39.5 213.312,-39.5 221.729,-39.5"/>
<polygon fill="midnightblue" stroke="midnightblue" points="221.906,-43.0001 231.906,-39.5 221.906,-36.0001 221.906,-43.0001"/>
</g>
<!-- Node3 -->
<g id="node3" class="node"><title>Node3</title>
<g id="a_node3"><a xlink:href="class_word_quizzle_1_1_word_quizzle_client_service.html#a0ed33ad0199840ae1847c4ecbc992ce2" target="_top" xlink:title=" ">
<polygon fill="white" stroke="black" points="425,-24.5 425,-54.5 582,-54.5 582,-24.5 425,-24.5"/>
<text text-anchor="start" x="433" y="-42.5" font-family="Helvetica,sans-Serif" font-size="10.00">WordQuizzle.WordQuizzleClient</text>
<text text-anchor="middle" x="503.5" y="-31.5" font-family="Helvetica,sans-Serif" font-size="10.00">Service.send</text>
</a>
</g>
</g>
<!-- Node2&#45;&gt;Node3 -->
<g id="edge2" class="edge"><title>Node2&#45;&gt;Node3</title>
<path fill="none" stroke="midnightblue" d="M389.187,-39.5C397.65,-39.5 406.306,-39.5 414.876,-39.5"/>
<polygon fill="midnightblue" stroke="midnightblue" points="414.882,-43.0001 424.882,-39.5 414.882,-36.0001 414.882,-43.0001"/>
</g>
<!-- Node4 -->
<g id="node4" class="node"><title>Node4</title>
<g id="a_node4"><a xlink:href="class_word_quizzle_1_1_word_quizzle_client_service.html#a59c8bdbde7768c2b478d51f4f13f7afb" target="_top" xlink:title=" ">
<polygon fill="white" stroke="black" points="618,-49.5 618,-79.5 775,-79.5 775,-49.5 618,-49.5"/>
<text text-anchor="start" x="626" y="-67.5" font-family="Helvetica,sans-Serif" font-size="10.00">WordQuizzle.WordQuizzleClient</text>
<text text-anchor="middle" x="696.5" y="-56.5" font-family="Helvetica,sans-Serif" font-size="10.00">Service.read</text>
</a>
</g>
</g>
<!-- Node3&#45;&gt;Node4 -->
<g id="edge3" class="edge"><title>Node3&#45;&gt;Node4</title>
<path fill="none" stroke="midnightblue" d="M582.187,-49.6685C590.65,-50.7761 599.306,-51.9091 607.876,-53.0309"/>
<polygon fill="midnightblue" stroke="midnightblue" points="607.512,-56.513 617.882,-54.3406 608.421,-49.5722 607.512,-56.513"/>
</g>
<!-- Node5 -->
<g id="node5" class="node"><title>Node5</title>
<g id="a_node5"><a xlink:href="class_word_quizzle_1_1_word_quizzle_client_service.html#a25566e1d25884c6c0dbb5aab0c1b52fd" target="_top" xlink:title=" ">
<polygon fill="white" stroke="black" points="618,-0.5 618,-30.5 775,-30.5 775,-0.5 618,-0.5"/>
<text text-anchor="start" x="626" y="-18.5" font-family="Helvetica,sans-Serif" font-size="10.00">WordQuizzle.WordQuizzleClient</text>
<text text-anchor="middle" x="696.5" y="-7.5" font-family="Helvetica,sans-Serif" font-size="10.00">Service.write</text>
</a>
</g>
</g>
<!-- Node3&#45;&gt;Node5 -->
<g id="edge4" class="edge"><title>Node3&#45;&gt;Node5</title>
<path fill="none" stroke="midnightblue" d="M582.187,-29.7383C590.65,-28.6749 599.306,-27.5873 607.876,-26.5103"/>
<polygon fill="midnightblue" stroke="midnightblue" points="608.396,-29.9726 617.882,-25.2531 607.523,-23.0272 608.396,-29.9726"/>
</g>
</g>
</svg>
