<?xml version="1.0" encoding="UTF-8" standalone="no"?>
<!DOCTYPE svg PUBLIC "-//W3C//DTD SVG 1.1//EN"
 "http://www.w3.org/Graphics/SVG/1.1/DTD/svg11.dtd">
<!-- Generated by graphviz version 2.38.0 (20140413.2041)
 -->
<!-- Title: Challenge.end Pages: 1 -->
<svg width="429pt" height="370pt"
 viewBox="0.00 0.00 429.00 370.00" xmlns="http://www.w3.org/2000/svg" xmlns:xlink="http://www.w3.org/1999/xlink">
<g id="graph0" class="graph" transform="scale(1 1) rotate(0) translate(4 366)">
<title>Challenge.end</title>
<polygon fill="white" stroke="none" points="-4,4 -4,-366 425,-366 425,4 -4,4"/>
<!-- Node1 -->
<g id="node1" class="node"><title>Node1</title>
<g id="a_node1"><a xlink:title="Conclude la sfida.">
<polygon fill="#bfbfbf" stroke="black" points="0,-114.5 0,-133.5 78,-133.5 78,-114.5 0,-114.5"/>
<text text-anchor="middle" x="39" y="-121.5" font-family="Helvetica,sans-Serif" font-size="10.00">Challenge.end</text>
</a>
</g>
</g>
<!-- Node2 -->
<g id="node2" class="node"><title>Node2</title>
<g id="a_node2"><a xlink:href="class_challenge.html#aaecf42c7f107c92359e0d97dcae656ed" target="_top" xlink:title="Calcola le statistiche del giocatore al termine della sfida.">
<polygon fill="white" stroke="black" points="121.5,-285.5 121.5,-304.5 222.5,-304.5 222.5,-285.5 121.5,-285.5"/>
<text text-anchor="middle" x="172" y="-292.5" font-family="Helvetica,sans-Serif" font-size="10.00">Challenge.calculate</text>
</a>
</g>
</g>
<!-- Node1&#45;&gt;Node2 -->
<g id="edge1" class="edge"><title>Node1&#45;&gt;Node2</title>
<path fill="none" stroke="midnightblue" d="M47.4185,-133.684C68.6745,-161.43 130.03,-241.52 157.464,-277.331"/>
<polygon fill="midnightblue" stroke="midnightblue" points="154.803,-279.613 163.663,-285.423 160.36,-275.356 154.803,-279.613"/>
</g>
<!-- Node6 -->
<g id="node6" class="node"><title>Node6</title>
<g id="a_node6"><a xlink:href="class_challenge.html#acc51fa450378fcd049b7b6573fefa947" target="_top" xlink:title="Conclude la sfida inviando ad ogni giocatore un messaggio.">
<polygon fill="white" stroke="black" points="129,-190.5 129,-209.5 215,-209.5 215,-190.5 129,-190.5"/>
<text text-anchor="middle" x="172" y="-197.5" font-family="Helvetica,sans-Serif" font-size="10.00">Challenge.close</text>
</a>
</g>
</g>
<!-- Node1&#45;&gt;Node6 -->
<g id="edge5" class="edge"><title>Node1&#45;&gt;Node6</title>
<path fill="none" stroke="midnightblue" d="M52.0392,-133.681C66.2635,-144.823 90.9203,-163.225 114,-176 120.781,-179.754 128.271,-183.299 135.529,-186.454"/>
<polygon fill="midnightblue" stroke="midnightblue" points="134.62,-189.868 145.196,-190.499 137.322,-183.41 134.62,-189.868"/>
</g>
<!-- Node8 -->
<g id="node8" class="node"><title>Node8</title>
<g id="a_node8"><a xlink:href="class_player.html#aee96b4ebaa44ec51fd653c4079723bb8" target="_top" xlink:title="Restituisce la sessione del giocatore.">
<polygon fill="white" stroke="black" points="295.5,-152.5 295.5,-171.5 391.5,-171.5 391.5,-152.5 295.5,-152.5"/>
<text text-anchor="middle" x="343.5" y="-159.5" font-family="Helvetica,sans-Serif" font-size="10.00">Player.getSession</text>
</a>
</g>
</g>
<!-- Node1&#45;&gt;Node8 -->
<g id="edge9" class="edge"><title>Node1&#45;&gt;Node8</title>
<path fill="none" stroke="midnightblue" d="M72.1658,-133.516C85.0662,-137.001 100.136,-140.661 114,-143 171.84,-152.759 238.802,-157.578 285.22,-159.911"/>
<polygon fill="midnightblue" stroke="midnightblue" points="285.23,-163.416 295.386,-160.399 285.565,-156.424 285.23,-163.416"/>
</g>
<!-- Node10 -->
<g id="node10" class="node"><title>Node10</title>
<g id="a_node10"><a xlink:href="class_session.html#a87a68261df83e9c32888673cfe909e2b" target="_top" xlink:title="Restituisce il nome utente corrente della sessione.">
<polygon fill="white" stroke="black" points="127.5,-114.5 127.5,-133.5 216.5,-133.5 216.5,-114.5 127.5,-114.5"/>
<text text-anchor="middle" x="172" y="-121.5" font-family="Helvetica,sans-Serif" font-size="10.00">Session.getUser</text>
</a>
</g>
</g>
<!-- Node1&#45;&gt;Node10 -->
<g id="edge10" class="edge"><title>Node1&#45;&gt;Node10</title>
<path fill="none" stroke="midnightblue" d="M78.2428,-124C90.3992,-124 104.08,-124 117.126,-124"/>
<polygon fill="midnightblue" stroke="midnightblue" points="117.41,-127.5 127.41,-124 117.41,-120.5 117.41,-127.5"/>
</g>
<!-- Node11 -->
<g id="node11" class="node"><title>Node11</title>
<g id="a_node11"><a xlink:href="class_word_quizzle_server_service.html#a2630ba2c894c53eba3344fe02c4b818f" target="_top" xlink:title="Restituisce il numero di punti aggiuntivi dati al vincitore di una sfida.">
<polygon fill="white" stroke="black" points="267,-57.5 267,-76.5 420,-76.5 420,-57.5 267,-57.5"/>
<text text-anchor="middle" x="343.5" y="-64.5" font-family="Helvetica,sans-Serif" font-size="10.00">WordQuizzleServerService.getZ</text>
</a>
</g>
</g>
<!-- Node1&#45;&gt;Node11 -->
<g id="edge11" class="edge"><title>Node1&#45;&gt;Node11</title>
<path fill="none" stroke="midnightblue" d="M74.4894,-114.485C86.8917,-111.238 101.022,-107.74 114,-105 164.193,-94.4034 221.1,-84.932 265.568,-78.0954"/>
<polygon fill="midnightblue" stroke="midnightblue" points="266.366,-81.5143 275.723,-76.5465 265.31,-74.5943 266.366,-81.5143"/>
</g>
<!-- Node12 -->
<g id="node12" class="node"><title>Node12</title>
<g id="a_node12"><a xlink:href="interface_data_base.html#a3783e778051222f055d70e77ea648839" target="_top" xlink:title="Modifica il punteggio (User.score) di un utente.">
<polygon fill="white" stroke="black" points="114,-38.5 114,-57.5 230,-57.5 230,-38.5 114,-38.5"/>
<text text-anchor="middle" x="172" y="-45.5" font-family="Helvetica,sans-Serif" font-size="10.00">DataBase.modifyScore</text>
</a>
</g>
</g>
<!-- Node1&#45;&gt;Node12 -->
<g id="edge12" class="edge"><title>Node1&#45;&gt;Node12</title>
<path fill="none" stroke="midnightblue" d="M52.0392,-114.319C66.2635,-103.177 90.9203,-84.7747 114,-72 120.781,-68.2464 128.271,-64.7014 135.529,-61.5458"/>
<polygon fill="midnightblue" stroke="midnightblue" points="137.322,-64.5897 145.196,-57.501 134.62,-58.1321 137.322,-64.5897"/>
</g>
<!-- Node13 -->
<g id="node13" class="node"><title>Node13</title>
<g id="a_node13"><a xlink:href="class_challenge.html#a67e0299b129d8fca6f04ebc11f530864" target="_top" xlink:title="Genera la stringa contenente le statistiche di un utente.">
<polygon fill="white" stroke="black" points="129,-0.5 129,-19.5 215,-19.5 215,-0.5 129,-0.5"/>
<text text-anchor="middle" x="172" y="-7.5" font-family="Helvetica,sans-Serif" font-size="10.00">Challenge.result</text>
</a>
</g>
</g>
<!-- Node1&#45;&gt;Node13 -->
<g id="edge13" class="edge"><title>Node1&#45;&gt;Node13</title>
<path fill="none" stroke="midnightblue" d="M44.9322,-114.397C55.2,-95.3358 80.7115,-52.5339 114,-29 116.726,-27.0731 119.66,-25.331 122.71,-23.7577"/>
<polygon fill="midnightblue" stroke="midnightblue" points="124.423,-26.8245 132.105,-19.5279 121.55,-20.4415 124.423,-26.8245"/>
</g>
<!-- Node3 -->
<g id="node3" class="node"><title>Node3</title>
<g id="a_node3"><a xlink:href="class_player.html#a70d0d8d7afe9e8bbb1cf095ad482969e" target="_top" xlink:title="Restituisce la lista di risposte del giocatore.">
<polygon fill="white" stroke="black" points="294.5,-342.5 294.5,-361.5 392.5,-361.5 392.5,-342.5 294.5,-342.5"/>
<text text-anchor="middle" x="343.5" y="-349.5" font-family="Helvetica,sans-Serif" font-size="10.00">Player.getAnswers</text>
</a>
</g>
</g>
<!-- Node2&#45;&gt;Node3 -->
<g id="edge2" class="edge"><title>Node2&#45;&gt;Node3</title>
<path fill="none" stroke="midnightblue" d="M194.098,-304.644C212.738,-312.916 240.799,-324.769 266,-333 273.5,-335.45 281.502,-337.759 289.4,-339.868"/>
<polygon fill="midnightblue" stroke="midnightblue" points="288.745,-343.314 299.302,-342.428 290.496,-336.537 288.745,-343.314"/>
</g>
<!-- Node4 -->
<g id="node4" class="node"><title>Node4</title>
<g id="a_node4"><a xlink:href="class_word_quizzle_server_service.html#afda48ba7f7729d1479840b56505ab993" target="_top" xlink:title="Restituisce quanto vale una risposta corretta.">
<polygon fill="white" stroke="black" points="267,-304.5 267,-323.5 420,-323.5 420,-304.5 267,-304.5"/>
<text text-anchor="middle" x="343.5" y="-311.5" font-family="Helvetica,sans-Serif" font-size="10.00">WordQuizzleServerService.getX</text>
</a>
</g>
</g>
<!-- Node2&#45;&gt;Node4 -->
<g id="edge3" class="edge"><title>Node2&#45;&gt;Node4</title>
<path fill="none" stroke="midnightblue" d="M222.939,-300.598C233.588,-301.792 245.125,-303.085 256.689,-304.381"/>
<polygon fill="midnightblue" stroke="midnightblue" points="256.508,-307.883 266.836,-305.518 257.288,-300.926 256.508,-307.883"/>
</g>
<!-- Node5 -->
<g id="node5" class="node"><title>Node5</title>
<g id="a_node5"><a xlink:href="class_word_quizzle_server_service.html#af41b281a730f7289188fa385032d80ae" target="_top" xlink:title="Restituisce quanto vale una risposta errata.">
<polygon fill="white" stroke="black" points="266,-266.5 266,-285.5 421,-285.5 421,-266.5 266,-266.5"/>
<text text-anchor="middle" x="343.5" y="-273.5" font-family="Helvetica,sans-Serif" font-size="10.00">WordQuizzleServerService.getY</text>
</a>
</g>
</g>
<!-- Node2&#45;&gt;Node5 -->
<g id="edge4" class="edge"><title>Node2&#45;&gt;Node5</title>
<path fill="none" stroke="midnightblue" d="M222.939,-289.402C233.256,-288.246 244.407,-286.996 255.608,-285.74"/>
<polygon fill="midnightblue" stroke="midnightblue" points="256.338,-289.18 265.886,-284.588 255.558,-282.224 256.338,-289.18"/>
</g>
<!-- Node7 -->
<g id="node7" class="node"><title>Node7</title>
<g id="a_node7"><a xlink:href="class_session.html#a80b5cf0f5ea47877e261766c51f1e351" target="_top" xlink:title="Restituisce la socket del client.">
<polygon fill="white" stroke="black" points="297,-228.5 297,-247.5 390,-247.5 390,-228.5 297,-228.5"/>
<text text-anchor="middle" x="343.5" y="-235.5" font-family="Helvetica,sans-Serif" font-size="10.00">Session.getClient</text>
</a>
</g>
</g>
<!-- Node6&#45;&gt;Node7 -->
<g id="edge6" class="edge"><title>Node6&#45;&gt;Node7</title>
<path fill="none" stroke="midnightblue" d="M215.335,-209.491C237.986,-214.569 266.083,-220.868 290.101,-226.253"/>
<polygon fill="midnightblue" stroke="midnightblue" points="289.594,-229.726 300.117,-228.498 291.125,-222.895 289.594,-229.726"/>
</g>
<!-- Node6&#45;&gt;Node8 -->
<g id="edge7" class="edge"><title>Node6&#45;&gt;Node8</title>
<path fill="none" stroke="midnightblue" d="M215.335,-190.509C237.986,-185.431 266.083,-179.132 290.101,-173.747"/>
<polygon fill="midnightblue" stroke="midnightblue" points="291.125,-177.105 300.117,-171.502 289.594,-170.274 291.125,-177.105"/>
</g>
<!-- Node9 -->
<g id="node9" class="node"><title>Node9</title>
<g id="a_node9"><a xlink:href="class_session.html#a8ab972666e7c0d311d4731d9eee566d2" target="_top" xlink:title="Imposta la risposta da inviare al client.">
<polygon fill="white" stroke="black" points="287.5,-190.5 287.5,-209.5 399.5,-209.5 399.5,-190.5 287.5,-190.5"/>
<text text-anchor="middle" x="343.5" y="-197.5" font-family="Helvetica,sans-Serif" font-size="10.00">Session.setResponse</text>
</a>
</g>
</g>
<!-- Node6&#45;&gt;Node9 -->
<g id="edge8" class="edge"><title>Node6&#45;&gt;Node9</title>
<path fill="none" stroke="midnightblue" d="M215.335,-200C234.042,-200 256.464,-200 277.235,-200"/>
<polygon fill="midnightblue" stroke="midnightblue" points="277.276,-203.5 287.276,-200 277.276,-196.5 277.276,-203.5"/>
</g>
<!-- Node13&#45;&gt;Node11 -->
<g id="edge15" class="edge"><title>Node13&#45;&gt;Node11</title>
<path fill="none" stroke="midnightblue" d="M201.712,-19.546C210.766,-22.5626 220.803,-25.9139 230,-29 254.915,-37.3602 282.912,-46.8168 304.744,-54.205"/>
<polygon fill="midnightblue" stroke="midnightblue" points="303.714,-57.5512 314.308,-57.4426 305.958,-50.9208 303.714,-57.5512"/>
</g>
<!-- Node14 -->
<g id="node14" class="node"><title>Node14</title>
<g id="a_node14"><a xlink:href="class_word_quizzle_server_service.html#a445af71c2bed6349e5239893b2e0ca8c" target="_top" xlink:title="Restituisce il numero di parole per sfida.">
<polygon fill="white" stroke="black" points="266,-0.5 266,-19.5 421,-19.5 421,-0.5 266,-0.5"/>
<text text-anchor="middle" x="343.5" y="-7.5" font-family="Helvetica,sans-Serif" font-size="10.00">WordQuizzleServerService.getK</text>
</a>
</g>
</g>
<!-- Node13&#45;&gt;Node14 -->
<g id="edge14" class="edge"><title>Node13&#45;&gt;Node14</title>
<path fill="none" stroke="midnightblue" d="M215.335,-10C227.644,-10 241.561,-10 255.559,-10"/>
<polygon fill="midnightblue" stroke="midnightblue" points="255.743,-13.5001 265.743,-10 255.743,-6.5001 255.743,-13.5001"/>
</g>
</g>
</svg>
