<?xml version="1.0" encoding="UTF-8" standalone="no"?>
<!DOCTYPE svg PUBLIC "-//W3C//DTD SVG 1.1//EN"
 "http://www.w3.org/Graphics/SVG/1.1/DTD/svg11.dtd">
<!-- Generated by graphviz version 2.38.0 (20140413.2041)
 -->
<!-- Title: WordQuizzle.WQCli Pages: 1 -->
<svg width="381pt" height="975pt"
 viewBox="0.00 0.00 380.50 975.00" xmlns="http://www.w3.org/2000/svg" xmlns:xlink="http://www.w3.org/1999/xlink">
<g id="graph0" class="graph" transform="scale(1 1) rotate(0) translate(4 971)">
<title>WordQuizzle.WQCli</title>
<polygon fill="white" stroke="none" points="-4,4 -4,-971 376.5,-971 376.5,4 -4,4"/>
<!-- Node1 -->
<g id="node1" class="node"><title>Node1</title>
<g id="a_node1"><a xlink:title=" ">
<polygon fill="#bfbfbf" stroke="black" points="171,-0.5 171,-222.5 277,-222.5 277,-0.5 171,-0.5"/>
<text text-anchor="middle" x="224" y="-210.5" font-family="Helvetica,sans-Serif" font-size="10.00">WordQuizzle.WQCli</text>
<polyline fill="none" stroke="black" points="171,-203.5 277,-203.5 "/>
<text text-anchor="middle" x="224" y="-191.5" font-family="Helvetica,sans-Serif" font-size="10.00"> </text>
<polyline fill="none" stroke="black" points="171,-184.5 277,-184.5 "/>
<text text-anchor="start" x="179" y="-172.5" font-family="Helvetica,sans-Serif" font-size="10.00">+ WQCli()</text>
<text text-anchor="start" x="179" y="-161.5" font-family="Helvetica,sans-Serif" font-size="10.00">+ getService()</text>
<text text-anchor="start" x="179" y="-150.5" font-family="Helvetica,sans-Serif" font-size="10.00">+ game()</text>
<text text-anchor="start" x="179" y="-139.5" font-family="Helvetica,sans-Serif" font-size="10.00">+ main()</text>
<text text-anchor="start" x="179" y="-128.5" font-family="Helvetica,sans-Serif" font-size="10.00">&#45; nuovaRichiesta()</text>
<text text-anchor="start" x="179" y="-117.5" font-family="Helvetica,sans-Serif" font-size="10.00">&#45; parse()</text>
<text text-anchor="start" x="179" y="-106.5" font-family="Helvetica,sans-Serif" font-size="10.00">&#45; login()</text>
<text text-anchor="start" x="179" y="-95.5" font-family="Helvetica,sans-Serif" font-size="10.00">&#45; registra_utente()</text>
<text text-anchor="start" x="179" y="-84.5" font-family="Helvetica,sans-Serif" font-size="10.00">&#45; logout()</text>
<text text-anchor="start" x="179" y="-73.5" font-family="Helvetica,sans-Serif" font-size="10.00">&#45; aggiungi_amico()</text>
<text text-anchor="start" x="179" y="-62.5" font-family="Helvetica,sans-Serif" font-size="10.00">&#45; lista_amici()</text>
<text text-anchor="start" x="179" y="-51.5" font-family="Helvetica,sans-Serif" font-size="10.00">&#45; sfida()</text>
<text text-anchor="start" x="179" y="-40.5" font-family="Helvetica,sans-Serif" font-size="10.00">&#45; mostra_punteggio()</text>
<text text-anchor="start" x="179" y="-29.5" font-family="Helvetica,sans-Serif" font-size="10.00">&#45; mostra_classifica()</text>
<text text-anchor="start" x="179" y="-18.5" font-family="Helvetica,sans-Serif" font-size="10.00">&#45; quit()</text>
<text text-anchor="start" x="179" y="-7.5" font-family="Helvetica,sans-Serif" font-size="10.00">&#45; help()</text>
</a>
</g>
</g>
<!-- Node2 -->
<g id="node2" class="node"><title>Node2</title>
<g id="a_node2"><a xlink:href="class_word_quizzle_1_1_word_quizzle_client.html" target="_top" xlink:title=" ">
<polygon fill="white" stroke="black" points="145.5,-270.5 145.5,-470.5 302.5,-470.5 302.5,-270.5 145.5,-270.5"/>
<text text-anchor="middle" x="224" y="-458.5" font-family="Helvetica,sans-Serif" font-size="10.00">WordQuizzle.WordQuizzleClient</text>
<polyline fill="none" stroke="black" points="145.5,-451.5 302.5,-451.5 "/>
<text text-anchor="start" x="153.5" y="-439.5" font-family="Helvetica,sans-Serif" font-size="10.00">&#45; user</text>
<polyline fill="none" stroke="black" points="145.5,-432.5 302.5,-432.5 "/>
<text text-anchor="start" x="153.5" y="-420.5" font-family="Helvetica,sans-Serif" font-size="10.00">+ WordQuizzleClient()</text>
<text text-anchor="start" x="153.5" y="-409.5" font-family="Helvetica,sans-Serif" font-size="10.00">+ getUser()</text>
<text text-anchor="start" x="153.5" y="-398.5" font-family="Helvetica,sans-Serif" font-size="10.00">+ registra_utente()</text>
<text text-anchor="start" x="153.5" y="-387.5" font-family="Helvetica,sans-Serif" font-size="10.00">+ login()</text>
<text text-anchor="start" x="153.5" y="-376.5" font-family="Helvetica,sans-Serif" font-size="10.00">+ logout()</text>
<text text-anchor="start" x="153.5" y="-365.5" font-family="Helvetica,sans-Serif" font-size="10.00">+ aggiungi_amico()</text>
<text text-anchor="start" x="153.5" y="-354.5" font-family="Helvetica,sans-Serif" font-size="10.00">+ sfida()</text>
<text text-anchor="start" x="153.5" y="-343.5" font-family="Helvetica,sans-Serif" font-size="10.00">+ lista_amici()</text>
<text text-anchor="start" x="153.5" y="-332.5" font-family="Helvetica,sans-Serif" font-size="10.00">+ mostra_punteggio()</text>
<text text-anchor="start" x="153.5" y="-321.5" font-family="Helvetica,sans-Serif" font-size="10.00">+ mostra_classifica()</text>
<text text-anchor="start" x="153.5" y="-310.5" font-family="Helvetica,sans-Serif" font-size="10.00">+ controllaRichieste()</text>
<text text-anchor="start" x="153.5" y="-299.5" font-family="Helvetica,sans-Serif" font-size="10.00">+ controllaRichieste()</text>
<text text-anchor="start" x="153.5" y="-288.5" font-family="Helvetica,sans-Serif" font-size="10.00">+ accettaSfida()</text>
<text text-anchor="start" x="153.5" y="-277.5" font-family="Helvetica,sans-Serif" font-size="10.00">+ sendTranslation()</text>
</a>
</g>
</g>
<!-- Node2&#45;&gt;Node1 -->
<g id="edge1" class="edge"><title>Node2&#45;&gt;Node1</title>
<path fill="none" stroke="#404040" d="M224,-270.137C224,-258.605 224,-246.743 224,-234.949"/>
<polygon fill="none" stroke="#404040" points="224,-234.7 220,-228.7 224,-222.7 228,-228.7 224,-234.7"/>
<text text-anchor="middle" x="233.5" y="-244" font-family="Helvetica,sans-Serif" font-size="10.00"> &#45;wq</text>
</g>
<!-- Node3 -->
<g id="node3" class="node"><title>Node3</title>
<g id="a_node3"><a xlink:href="class_word_quizzle_1_1_word_quizzle_client_service.html" target="_top" xlink:title=" ">
<polygon fill="white" stroke="black" points="145.5,-518.5 145.5,-751.5 302.5,-751.5 302.5,-518.5 145.5,-518.5"/>
<text text-anchor="start" x="153.5" y="-739.5" font-family="Helvetica,sans-Serif" font-size="10.00">WordQuizzle.WordQuizzleClient</text>
<text text-anchor="middle" x="224" y="-728.5" font-family="Helvetica,sans-Serif" font-size="10.00">Service</text>
<polyline fill="none" stroke="black" points="145.5,-721.5 302.5,-721.5 "/>
<text text-anchor="middle" x="224" y="-709.5" font-family="Helvetica,sans-Serif" font-size="10.00"> </text>
<polyline fill="none" stroke="black" points="145.5,-702.5 302.5,-702.5 "/>
<text text-anchor="start" x="153.5" y="-690.5" font-family="Helvetica,sans-Serif" font-size="10.00">+ WordQuizzleClientService()</text>
<text text-anchor="start" x="153.5" y="-679.5" font-family="Helvetica,sans-Serif" font-size="10.00">+ registra_utente()</text>
<text text-anchor="start" x="153.5" y="-668.5" font-family="Helvetica,sans-Serif" font-size="10.00">+ login()</text>
<text text-anchor="start" x="153.5" y="-657.5" font-family="Helvetica,sans-Serif" font-size="10.00">+ login()</text>
<text text-anchor="start" x="153.5" y="-646.5" font-family="Helvetica,sans-Serif" font-size="10.00">+ logout()</text>
<text text-anchor="start" x="153.5" y="-635.5" font-family="Helvetica,sans-Serif" font-size="10.00">+ aggiungi_amico()</text>
<text text-anchor="start" x="153.5" y="-624.5" font-family="Helvetica,sans-Serif" font-size="10.00">+ sfida()</text>
<text text-anchor="start" x="153.5" y="-613.5" font-family="Helvetica,sans-Serif" font-size="10.00">+ lista_amici()</text>
<text text-anchor="start" x="153.5" y="-602.5" font-family="Helvetica,sans-Serif" font-size="10.00">+ mostra_punteggio()</text>
<text text-anchor="start" x="153.5" y="-591.5" font-family="Helvetica,sans-Serif" font-size="10.00">+ mostra_classifica()</text>
<text text-anchor="start" x="153.5" y="-580.5" font-family="Helvetica,sans-Serif" font-size="10.00">+ controllaRichieste()</text>
<text text-anchor="start" x="153.5" y="-569.5" font-family="Helvetica,sans-Serif" font-size="10.00">+ accettaSfida()</text>
<text text-anchor="start" x="153.5" y="-558.5" font-family="Helvetica,sans-Serif" font-size="10.00">+ sendTranslation()</text>
<text text-anchor="start" x="153.5" y="-547.5" font-family="Helvetica,sans-Serif" font-size="10.00">&#45; write()</text>
<text text-anchor="start" x="153.5" y="-536.5" font-family="Helvetica,sans-Serif" font-size="10.00">&#45; read()</text>
<text text-anchor="start" x="153.5" y="-525.5" font-family="Helvetica,sans-Serif" font-size="10.00">&#45; send()</text>
</a>
</g>
</g>
<!-- Node3&#45;&gt;Node2 -->
<g id="edge2" class="edge"><title>Node3&#45;&gt;Node2</title>
<path fill="none" stroke="#404040" d="M224,-518.482C224,-506.639 224,-494.624 224,-482.828"/>
<polygon fill="none" stroke="#404040" points="224,-482.632 220,-476.632 224,-470.632 228,-476.632 224,-482.632"/>
<text text-anchor="middle" x="242.5" y="-492" font-family="Helvetica,sans-Serif" font-size="10.00"> &#45;service</text>
</g>
<!-- Node4 -->
<g id="node4" class="node"><title>Node4</title>
<g id="a_node4"><a xlink:href="interface_word_quizzle_1_1_word_quizzle_service.html" target="_top" xlink:title=" ">
<polygon fill="white" stroke="black" points="0,-799.5 0,-966.5 164,-966.5 164,-799.5 0,-799.5"/>
<text text-anchor="middle" x="82" y="-954.5" font-family="Helvetica,sans-Serif" font-size="10.00">WordQuizzle.WordQuizzleService</text>
<polyline fill="none" stroke="black" points="0,-947.5 164,-947.5 "/>
<text text-anchor="middle" x="82" y="-935.5" font-family="Helvetica,sans-Serif" font-size="10.00"> </text>
<polyline fill="none" stroke="black" points="0,-928.5 164,-928.5 "/>
<text text-anchor="start" x="8" y="-916.5" font-family="Helvetica,sans-Serif" font-size="10.00">+ registra_utente()</text>
<text text-anchor="start" x="8" y="-905.5" font-family="Helvetica,sans-Serif" font-size="10.00">+ login()</text>
<text text-anchor="start" x="8" y="-894.5" font-family="Helvetica,sans-Serif" font-size="10.00">+ logout()</text>
<text text-anchor="start" x="8" y="-883.5" font-family="Helvetica,sans-Serif" font-size="10.00">+ aggiungi_amico()</text>
<text text-anchor="start" x="8" y="-872.5" font-family="Helvetica,sans-Serif" font-size="10.00">+ sfida()</text>
<text text-anchor="start" x="8" y="-861.5" font-family="Helvetica,sans-Serif" font-size="10.00">+ lista_amici()</text>
<text text-anchor="start" x="8" y="-850.5" font-family="Helvetica,sans-Serif" font-size="10.00">+ mostra_punteggio()</text>
<text text-anchor="start" x="8" y="-839.5" font-family="Helvetica,sans-Serif" font-size="10.00">+ mostra_classifica()</text>
<text text-anchor="start" x="8" y="-828.5" font-family="Helvetica,sans-Serif" font-size="10.00">+ accettaSfida()</text>
<text text-anchor="start" x="8" y="-817.5" font-family="Helvetica,sans-Serif" font-size="10.00">+ login()</text>
<text text-anchor="start" x="8" y="-806.5" font-family="Helvetica,sans-Serif" font-size="10.00">+ sendTranslation()</text>
</a>
</g>
</g>
<!-- Node4&#45;&gt;Node3 -->
<g id="edge3" class="edge"><title>Node4&#45;&gt;Node3</title>
<path fill="none" stroke="midnightblue" d="M134.718,-790.672C142.066,-777.941 149.696,-764.724 157.26,-751.62"/>
<polygon fill="none" stroke="midnightblue" points="131.647,-788.991 129.679,-799.401 137.71,-792.49 131.647,-788.991"/>
</g>
<!-- Node5 -->
<g id="node5" class="node"><title>Node5</title>
<g id="a_node5"><a xlink:title=" ">
<polygon fill="white" stroke="#bfbfbf" points="182.5,-854.5 182.5,-911.5 265.5,-911.5 265.5,-854.5 182.5,-854.5"/>
<text text-anchor="middle" x="224" y="-899.5" font-family="Helvetica,sans-Serif" font-size="10.00">SocketChannel</text>
<polyline fill="none" stroke="#bfbfbf" points="182.5,-892.5 265.5,-892.5 "/>
<text text-anchor="middle" x="224" y="-880.5" font-family="Helvetica,sans-Serif" font-size="10.00"> </text>
<polyline fill="none" stroke="#bfbfbf" points="182.5,-873.5 265.5,-873.5 "/>
<text text-anchor="middle" x="224" y="-861.5" font-family="Helvetica,sans-Serif" font-size="10.00"> </text>
</a>
</g>
</g>
<!-- Node5&#45;&gt;Node3 -->
<g id="edge4" class="edge"><title>Node5&#45;&gt;Node3</title>
<path fill="none" stroke="#404040" d="M224,-854.259C224,-831.61 224,-797.857 224,-763.627"/>
<polygon fill="none" stroke="#404040" points="224,-763.516 220,-757.516 224,-751.516 228,-757.516 224,-763.516"/>
<text text-anchor="middle" x="242" y="-773" font-family="Helvetica,sans-Serif" font-size="10.00"> &#45;socket</text>
</g>
<!-- Node6 -->
<g id="node6" class="node"><title>Node6</title>
<g id="a_node6"><a xlink:title=" ">
<polygon fill="white" stroke="#bfbfbf" points="283.5,-854.5 283.5,-911.5 372.5,-911.5 372.5,-854.5 283.5,-854.5"/>
<text text-anchor="middle" x="328" y="-899.5" font-family="Helvetica,sans-Serif" font-size="10.00">DatagramSocket</text>
<polyline fill="none" stroke="#bfbfbf" points="283.5,-892.5 372.5,-892.5 "/>
<text text-anchor="middle" x="328" y="-880.5" font-family="Helvetica,sans-Serif" font-size="10.00"> </text>
<polyline fill="none" stroke="#bfbfbf" points="283.5,-873.5 372.5,-873.5 "/>
<text text-anchor="middle" x="328" y="-861.5" font-family="Helvetica,sans-Serif" font-size="10.00"> </text>
</a>
</g>
</g>
<!-- Node6&#45;&gt;Node3 -->
<g id="edge5" class="edge"><title>Node6&#45;&gt;Node3</title>
<path fill="none" stroke="#404040" d="M316.272,-854.259C306.613,-831.412 292.178,-797.267 277.577,-762.73"/>
<polygon fill="none" stroke="#404040" points="277.509,-762.569 271.488,-758.6 272.836,-751.516 278.857,-755.485 277.509,-762.569"/>
<text text-anchor="middle" x="294" y="-773" font-family="Helvetica,sans-Serif" font-size="10.00"> &#45;udp</text>
</g>
</g>
</svg>
