<?xml version="1.0" encoding="UTF-8" standalone="no"?>
<!DOCTYPE svg PUBLIC "-//W3C//DTD SVG 1.1//EN"
 "http://www.w3.org/Graphics/SVG/1.1/DTD/svg11.dtd">
<!-- Generated by graphviz version 2.38.0 (20140413.2041)
 -->
<!-- Title: WordQuizzle.WQCli.main Pages: 1 -->
<svg width="1407pt" height="916pt"
 viewBox="0.00 0.00 1407.00 915.92" xmlns="http://www.w3.org/2000/svg" xmlns:xlink="http://www.w3.org/1999/xlink">
<g id="graph0" class="graph" transform="scale(1 1) rotate(0) translate(4 911.922)">
<title>WordQuizzle.WQCli.main</title>
<polygon fill="white" stroke="none" points="-4,4 -4,-911.922 1403,-911.922 1403,4 -4,4"/>
<!-- Node1 -->
<g id="node1" class="node"><title>Node1</title>
<g id="a_node1"><a xlink:title=" ">
<polygon fill="#bfbfbf" stroke="black" points="0,-425.922 0,-444.922 128,-444.922 128,-425.922 0,-425.922"/>
<text text-anchor="middle" x="64" y="-432.922" font-family="Helvetica,sans-Serif" font-size="10.00">WordQuizzle.WQCli.main</text>
</a>
</g>
</g>
<!-- Node2 -->
<g id="node2" class="node"><title>Node2</title>
<g id="a_node2"><a xlink:href="class_word_quizzle_1_1_word_quizzle_client.html#a808fea05e1dc44069f476eebd3a39ada" target="_top" xlink:title=" ">
<polygon fill="white" stroke="black" points="164,-608.422 164,-638.422 361,-638.422 361,-608.422 164,-608.422"/>
<text text-anchor="start" x="172" y="-626.422" font-family="Helvetica,sans-Serif" font-size="10.00">WordQuizzle.WordQuizzleClient.controlla</text>
<text text-anchor="middle" x="262.5" y="-615.422" font-family="Helvetica,sans-Serif" font-size="10.00">Richieste</text>
</a>
</g>
</g>
<!-- Node1&#45;&gt;Node2 -->
<g id="edge1" class="edge"><title>Node1&#45;&gt;Node2</title>
<path fill="none" stroke="midnightblue" d="M75.0146,-445.004C105.128,-473.814 195.414,-560.195 238.34,-601.264"/>
<polygon fill="midnightblue" stroke="midnightblue" points="236.134,-603.997 245.779,-608.381 240.973,-598.939 236.134,-603.997"/>
</g>
<!-- Node4 -->
<g id="node4" class="node"><title>Node4</title>
<g id="a_node4"><a xlink:href="class_word_quizzle_1_1_w_q_cli.html#a2d0870dea4cb42eac37f69476786059e" target="_top" xlink:title=" ">
<polygon fill="white" stroke="black" points="186.5,-482.922 186.5,-501.922 338.5,-501.922 338.5,-482.922 186.5,-482.922"/>
<text text-anchor="middle" x="262.5" y="-489.922" font-family="Helvetica,sans-Serif" font-size="10.00">WordQuizzle.WQCli.getService</text>
</a>
</g>
</g>
<!-- Node1&#45;&gt;Node4 -->
<g id="edge3" class="edge"><title>Node1&#45;&gt;Node4</title>
<path fill="none" stroke="midnightblue" d="M91.709,-444.974C111.529,-451.903 139.287,-461.274 164,-468.422 178.695,-472.673 194.771,-476.829 209.555,-480.456"/>
<polygon fill="midnightblue" stroke="midnightblue" points="209.008,-483.925 219.551,-482.878 210.657,-477.122 209.008,-483.925"/>
</g>
<!-- Node5 -->
<g id="node5" class="node"><title>Node5</title>
<g id="a_node5"><a xlink:href="class_word_quizzle_1_1_w_q_cli.html#af99dd07b4f0c4e029f872de8ea3ae9f3" target="_top" xlink:title=" ">
<polygon fill="white" stroke="black" points="432.5,-652.922 432.5,-671.922 557.5,-671.922 557.5,-652.922 432.5,-652.922"/>
<text text-anchor="middle" x="495" y="-659.922" font-family="Helvetica,sans-Serif" font-size="10.00">WordQuizzle.WQCli.help</text>
</a>
</g>
</g>
<!-- Node1&#45;&gt;Node5 -->
<g id="edge4" class="edge"><title>Node1&#45;&gt;Node5</title>
<path fill="none" stroke="midnightblue" d="M128.33,-435.371C204.938,-436.665 327.789,-443.524 361,-473.422 412.596,-519.872 351.25,-573.205 397,-625.422 406.462,-636.222 419.428,-643.884 432.802,-649.314"/>
<polygon fill="midnightblue" stroke="midnightblue" points="431.974,-652.738 442.567,-652.887 434.379,-646.164 431.974,-652.738"/>
</g>
<!-- Node15 -->
<g id="node15" class="node"><title>Node15</title>
<g id="a_node15"><a xlink:href="class_word_quizzle_1_1_w_q_cli.html#a7b07b55738bdd5da89a2ef645afdc020" target="_top" xlink:title=" ">
<polygon fill="white" stroke="black" points="176,-132.922 176,-151.922 349,-151.922 349,-132.922 176,-132.922"/>
<text text-anchor="middle" x="262.5" y="-139.922" font-family="Helvetica,sans-Serif" font-size="10.00">WordQuizzle.WQCli.nuovaRichiesta</text>
</a>
</g>
</g>
<!-- Node1&#45;&gt;Node15 -->
<g id="edge14" class="edge"><title>Node1&#45;&gt;Node15</title>
<path fill="none" stroke="midnightblue" d="M71.5379,-425.674C99.8031,-383.528 211.753,-216.6 249.214,-160.741"/>
<polygon fill="midnightblue" stroke="midnightblue" points="252.274,-162.462 254.938,-152.208 246.461,-158.563 252.274,-162.462"/>
</g>
<!-- Node27 -->
<g id="node27" class="node"><title>Node27</title>
<g id="a_node27"><a xlink:href="class_word_quizzle_1_1_w_q_cli.html#a318ef86f91a825da4ff4684bd3332a6b" target="_top" xlink:title=" ">
<polygon fill="white" stroke="black" points="197,-406.922 197,-425.922 328,-425.922 328,-406.922 197,-406.922"/>
<text text-anchor="middle" x="262.5" y="-413.922" font-family="Helvetica,sans-Serif" font-size="10.00">WordQuizzle.WQCli.parse</text>
</a>
</g>
</g>
<!-- Node1&#45;&gt;Node27 -->
<g id="edge27" class="edge"><title>Node1&#45;&gt;Node27</title>
<path fill="none" stroke="midnightblue" d="M128.255,-429.306C146.8,-427.513 167.259,-425.535 186.462,-423.678"/>
<polygon fill="midnightblue" stroke="midnightblue" points="187.059,-427.137 196.676,-422.69 186.385,-420.169 187.059,-427.137"/>
</g>
<!-- Node45 -->
<g id="node45" class="node"><title>Node45</title>
<g id="a_node45"><a xlink:href="class_word_quizzle_1_1_w_q_cli.html#abbfeca795402787c509e85596a212d64" target="_top" xlink:title=" ">
<polygon fill="white" stroke="black" points="194.5,-94.9225 194.5,-113.922 330.5,-113.922 330.5,-94.9225 194.5,-94.9225"/>
<text text-anchor="middle" x="262.5" y="-101.922" font-family="Helvetica,sans-Serif" font-size="10.00">WordQuizzle.WQCli.WQCli</text>
</a>
</g>
</g>
<!-- Node1&#45;&gt;Node45 -->
<g id="edge57" class="edge"><title>Node1&#45;&gt;Node45</title>
<path fill="none" stroke="midnightblue" d="M64.7972,-425.7C64.4671,-382.69 69.1854,-207.933 164,-123.422 170.086,-117.998 177.25,-113.928 184.886,-110.899"/>
<polygon fill="midnightblue" stroke="midnightblue" points="186.032,-114.206 194.392,-107.699 183.798,-107.572 186.032,-114.206"/>
</g>
<!-- Node3 -->
<g id="node3" class="node"><title>Node3</title>
<g id="a_node3"><a xlink:href="class_word_quizzle_1_1_word_quizzle_client_service.html#a25da445402c9c6b89f89d12ac350004c" target="_top" xlink:title=" ">
<polygon fill="white" stroke="black" points="416.5,-691.422 416.5,-721.422 573.5,-721.422 573.5,-691.422 416.5,-691.422"/>
<text text-anchor="start" x="424.5" y="-709.422" font-family="Helvetica,sans-Serif" font-size="10.00">WordQuizzle.WordQuizzleClient</text>
<text text-anchor="middle" x="495" y="-698.422" font-family="Helvetica,sans-Serif" font-size="10.00">Service.controllaRichieste</text>
</a>
</g>
</g>
<!-- Node2&#45;&gt;Node3 -->
<g id="edge2" class="edge"><title>Node2&#45;&gt;Node3</title>
<path fill="none" stroke="midnightblue" d="M294.24,-638.431C320.952,-651.069 360.914,-669.02 397,-681.422 404.343,-683.946 412.075,-686.35 419.838,-688.599"/>
<polygon fill="midnightblue" stroke="midnightblue" points="419.085,-692.023 429.659,-691.363 420.981,-685.285 419.085,-692.023"/>
</g>
<!-- Node6 -->
<g id="node6" class="node"><title>Node6</title>
<g id="a_node6"><a xlink:href="class_word_quizzle_1_1_w_q_cli.html#a423482396d62407941b62b92f4a25732" target="_top" xlink:title=" ">
<polygon fill="white" stroke="black" points="648,-603.422 648,-633.422 791,-633.422 791,-603.422 648,-603.422"/>
<text text-anchor="start" x="656" y="-621.422" font-family="Helvetica,sans-Serif" font-size="10.00">WordQuizzle.WQCli.aggiungi</text>
<text text-anchor="middle" x="719.5" y="-610.422" font-family="Helvetica,sans-Serif" font-size="10.00">_amico</text>
</a>
</g>
</g>
<!-- Node5&#45;&gt;Node6 -->
<g id="edge5" class="edge"><title>Node5&#45;&gt;Node6</title>
<path fill="none" stroke="midnightblue" d="M544.279,-652.875C571.612,-647.47 606.507,-640.569 637.878,-634.366"/>
<polygon fill="midnightblue" stroke="midnightblue" points="638.794,-637.752 647.925,-632.379 637.436,-630.885 638.794,-637.752"/>
</g>
<!-- Node7 -->
<g id="node7" class="node"><title>Node7</title>
<g id="a_node7"><a xlink:href="class_word_quizzle_1_1_w_q_cli.html#a0637563fc8b57e7e5d7bc623be3047e9" target="_top" xlink:title=" ">
<polygon fill="white" stroke="black" points="657,-740.422 657,-770.422 782,-770.422 782,-740.422 657,-740.422"/>
<text text-anchor="start" x="665" y="-758.422" font-family="Helvetica,sans-Serif" font-size="10.00">WordQuizzle.WQCli.lista</text>
<text text-anchor="middle" x="719.5" y="-747.422" font-family="Helvetica,sans-Serif" font-size="10.00">_amici</text>
</a>
</g>
</g>
<!-- Node5&#45;&gt;Node7 -->
<g id="edge6" class="edge"><title>Node5&#45;&gt;Node7</title>
<path fill="none" stroke="midnightblue" d="M557.587,-668.163C569.959,-671.183 582.401,-675.699 593,-682.422 615.518,-696.707 606.989,-715.369 629,-730.422 634.637,-734.277 640.856,-737.541 647.312,-740.304"/>
<polygon fill="midnightblue" stroke="midnightblue" points="646.309,-743.668 656.898,-744.003 648.829,-737.137 646.309,-743.668"/>
</g>
<!-- Node8 -->
<g id="node8" class="node"><title>Node8</title>
<g id="a_node8"><a xlink:href="class_word_quizzle_1_1_w_q_cli.html#a5be21ae4cfdcdae806ff4a935f0799fd" target="_top" xlink:title=" ">
<polygon fill="white" stroke="black" points="655.5,-564.922 655.5,-583.922 783.5,-583.922 783.5,-564.922 655.5,-564.922"/>
<text text-anchor="middle" x="719.5" y="-571.922" font-family="Helvetica,sans-Serif" font-size="10.00">WordQuizzle.WQCli.login</text>
</a>
</g>
</g>
<!-- Node5&#45;&gt;Node8 -->
<g id="edge7" class="edge"><title>Node5&#45;&gt;Node8</title>
<path fill="none" stroke="midnightblue" d="M511.387,-652.917C535.577,-638.356 584.359,-610.528 629,-594.422 637.469,-591.367 646.563,-588.686 655.593,-586.362"/>
<polygon fill="midnightblue" stroke="midnightblue" points="656.452,-589.756 665.334,-583.981 654.789,-582.956 656.452,-589.756"/>
</g>
<!-- Node9 -->
<g id="node9" class="node"><title>Node9</title>
<g id="a_node9"><a xlink:href="class_word_quizzle_1_1_w_q_cli.html#a09b72dba431b9d164cc07cdbd58053df" target="_top" xlink:title=" ">
<polygon fill="white" stroke="black" points="652.5,-701.922 652.5,-720.922 786.5,-720.922 786.5,-701.922 652.5,-701.922"/>
<text text-anchor="middle" x="719.5" y="-708.922" font-family="Helvetica,sans-Serif" font-size="10.00">WordQuizzle.WQCli.logout</text>
</a>
</g>
</g>
<!-- Node5&#45;&gt;Node9 -->
<g id="edge8" class="edge"><title>Node5&#45;&gt;Node9</title>
<path fill="none" stroke="midnightblue" d="M545.49,-671.955C560.772,-675.078 577.624,-678.706 593,-682.422 609.141,-686.324 612.87,-688.474 629,-692.422 639.289,-694.941 650.291,-697.437 660.936,-699.751"/>
<polygon fill="midnightblue" stroke="midnightblue" points="660.487,-703.234 670.998,-701.908 661.954,-696.389 660.487,-703.234"/>
</g>
<!-- Node10 -->
<g id="node10" class="node"><title>Node10</title>
<g id="a_node10"><a xlink:href="class_word_quizzle_1_1_w_q_cli.html#a147c086aad7a54c6162cea04f4a5cea8" target="_top" xlink:title=" ">
<polygon fill="white" stroke="black" points="651,-652.422 651,-682.422 788,-682.422 788,-652.422 651,-652.422"/>
<text text-anchor="start" x="659" y="-670.422" font-family="Helvetica,sans-Serif" font-size="10.00">WordQuizzle.WQCli.mostra</text>
<text text-anchor="middle" x="719.5" y="-659.422" font-family="Helvetica,sans-Serif" font-size="10.00">_classifica</text>
</a>
</g>
</g>
<!-- Node5&#45;&gt;Node10 -->
<g id="edge9" class="edge"><title>Node5&#45;&gt;Node10</title>
<path fill="none" stroke="midnightblue" d="M557.683,-663.809C583.342,-664.385 613.423,-665.061 640.583,-665.672"/>
<polygon fill="midnightblue" stroke="midnightblue" points="640.759,-669.176 650.835,-665.902 640.916,-662.178 640.759,-669.176"/>
</g>
<!-- Node11 -->
<g id="node11" class="node"><title>Node11</title>
<g id="a_node11"><a xlink:href="class_word_quizzle_1_1_w_q_cli.html#a10b2156f5c561a889f7feec6cb7bbacc" target="_top" xlink:title=" ">
<polygon fill="white" stroke="black" points="651,-877.422 651,-907.422 788,-907.422 788,-877.422 651,-877.422"/>
<text text-anchor="start" x="659" y="-895.422" font-family="Helvetica,sans-Serif" font-size="10.00">WordQuizzle.WQCli.mostra</text>
<text text-anchor="middle" x="719.5" y="-884.422" font-family="Helvetica,sans-Serif" font-size="10.00">_punteggio</text>
</a>
</g>
</g>
<!-- Node5&#45;&gt;Node11 -->
<g id="edge10" class="edge"><title>Node5&#45;&gt;Node11</title>
<path fill="none" stroke="midnightblue" d="M557.543,-664.092C570.718,-667.233 583.509,-672.825 593,-682.422 651.9,-741.982 572.191,-805.865 629,-867.422 632.761,-871.498 637.126,-874.93 641.864,-877.817"/>
<polygon fill="midnightblue" stroke="midnightblue" points="640.262,-880.929 650.747,-882.448 643.498,-874.722 640.262,-880.929"/>
</g>
<!-- Node12 -->
<g id="node12" class="node"><title>Node12</title>
<g id="a_node12"><a xlink:href="class_word_quizzle_1_1_w_q_cli.html#a07609480f2f51587119199d616ce5ee2" target="_top" xlink:title=" ">
<polygon fill="white" stroke="black" points="658,-838.922 658,-857.922 781,-857.922 781,-838.922 658,-838.922"/>
<text text-anchor="middle" x="719.5" y="-845.922" font-family="Helvetica,sans-Serif" font-size="10.00">WordQuizzle.WQCli.quit</text>
</a>
</g>
</g>
<!-- Node5&#45;&gt;Node12 -->
<g id="edge11" class="edge"><title>Node5&#45;&gt;Node12</title>
<path fill="none" stroke="midnightblue" d="M557.719,-664.545C570.73,-667.693 583.405,-673.175 593,-682.422 641.431,-729.101 580.706,-782.602 629,-829.422 634.41,-834.667 640.888,-838.621 647.853,-841.582"/>
<polygon fill="midnightblue" stroke="midnightblue" points="647.003,-844.993 657.598,-845.032 649.339,-838.395 647.003,-844.993"/>
</g>
<!-- Node13 -->
<g id="node13" class="node"><title>Node13</title>
<g id="a_node13"><a xlink:href="class_word_quizzle_1_1_w_q_cli.html#a65cec1c9b0f47f1996351f0fd40f9c4c" target="_top" xlink:title=" ">
<polygon fill="white" stroke="black" points="649.5,-789.422 649.5,-819.422 789.5,-819.422 789.5,-789.422 649.5,-789.422"/>
<text text-anchor="start" x="657.5" y="-807.422" font-family="Helvetica,sans-Serif" font-size="10.00">WordQuizzle.WQCli.registra</text>
<text text-anchor="middle" x="719.5" y="-796.422" font-family="Helvetica,sans-Serif" font-size="10.00">_utente</text>
</a>
</g>
</g>
<!-- Node5&#45;&gt;Node13 -->
<g id="edge12" class="edge"><title>Node5&#45;&gt;Node13</title>
<path fill="none" stroke="midnightblue" d="M557.744,-665.532C570.527,-668.667 583.099,-673.894 593,-682.422 628.157,-712.705 594.746,-749.122 629,-780.422 632.433,-783.559 636.232,-786.294 640.27,-788.677"/>
<polygon fill="midnightblue" stroke="midnightblue" points="638.945,-791.93 649.444,-793.352 642.123,-785.693 638.945,-791.93"/>
</g>
<!-- Node14 -->
<g id="node14" class="node"><title>Node14</title>
<g id="a_node14"><a xlink:href="class_word_quizzle_1_1_w_q_cli.html#abf6a8e25f47e24745e96260127cf9b71" target="_top" xlink:title=" ">
<polygon fill="white" stroke="black" points="655.5,-526.922 655.5,-545.922 783.5,-545.922 783.5,-526.922 655.5,-526.922"/>
<text text-anchor="middle" x="719.5" y="-533.922" font-family="Helvetica,sans-Serif" font-size="10.00">WordQuizzle.WQCli.sfida</text>
</a>
</g>
</g>
<!-- Node5&#45;&gt;Node14 -->
<g id="edge13" class="edge"><title>Node5&#45;&gt;Node14</title>
<path fill="none" stroke="midnightblue" d="M504.921,-652.633C524.91,-631.344 575.727,-580.72 629,-555.422 634.24,-552.934 639.805,-550.77 645.498,-548.886"/>
<polygon fill="midnightblue" stroke="midnightblue" points="646.596,-552.211 655.162,-545.976 644.577,-545.508 646.596,-552.211"/>
</g>
<!-- Node16 -->
<g id="node16" class="node"><title>Node16</title>
<g id="a_node16"><a xlink:href="class_word_quizzle_1_1_word_quizzle_client.html#a540dfbf20ba0d5a8118e6d9284b79bc0" target="_top" xlink:title=" ">
<polygon fill="white" stroke="black" points="399,-83.4225 399,-113.422 591,-113.422 591,-83.4225 399,-83.4225"/>
<text text-anchor="start" x="407" y="-101.422" font-family="Helvetica,sans-Serif" font-size="10.00">WordQuizzle.WordQuizzleClient.accetta</text>
<text text-anchor="middle" x="495" y="-90.4225" font-family="Helvetica,sans-Serif" font-size="10.00">Sfida</text>
</a>
</g>
</g>
<!-- Node15&#45;&gt;Node16 -->
<g id="edge15" class="edge"><title>Node15&#45;&gt;Node16</title>
<path fill="none" stroke="midnightblue" d="M313.515,-132.875C340.278,-127.766 374.038,-121.322 405.1,-115.393"/>
<polygon fill="midnightblue" stroke="midnightblue" points="405.912,-118.801 415.078,-113.488 404.599,-111.925 405.912,-118.801"/>
</g>
<!-- Node21 -->
<g id="node21" class="node"><title>Node21</title>
<g id="a_node21"><a xlink:href="class_word_quizzle_1_1_w_q_cli.html#ae5f342434ec80ce1ed3939fb446de436" target="_top" xlink:title=" ">
<polygon fill="white" stroke="black" points="429.5,-132.922 429.5,-151.922 560.5,-151.922 560.5,-132.922 429.5,-132.922"/>
<text text-anchor="middle" x="495" y="-139.922" font-family="Helvetica,sans-Serif" font-size="10.00">WordQuizzle.WQCli.game</text>
</a>
</g>
</g>
<!-- Node15&#45;&gt;Node21 -->
<g id="edge20" class="edge"><title>Node15&#45;&gt;Node21</title>
<path fill="none" stroke="midnightblue" d="M349.002,-142.422C372.001,-142.422 396.696,-142.422 419.071,-142.422"/>
<polygon fill="midnightblue" stroke="midnightblue" points="419.174,-145.923 429.174,-142.422 419.174,-138.923 419.174,-145.923"/>
</g>
<!-- Node26 -->
<g id="node26" class="node"><title>Node26</title>
<g id="a_node26"><a xlink:href="class_word_quizzle_1_1_word_quizzle_server_service.html#ace8277bd092a7ac14bcfe5927ecc8c33" target="_top" xlink:title=" ">
<polygon fill="white" stroke="black" points="415.5,-34.4225 415.5,-64.4225 574.5,-64.4225 574.5,-34.4225 415.5,-34.4225"/>
<text text-anchor="start" x="423.5" y="-52.4225" font-family="Helvetica,sans-Serif" font-size="10.00">WordQuizzle.WordQuizzleServer</text>
<text text-anchor="middle" x="495" y="-41.4225" font-family="Helvetica,sans-Serif" font-size="10.00">Service.getT1</text>
</a>
</g>
</g>
<!-- Node15&#45;&gt;Node26 -->
<g id="edge26" class="edge"><title>Node15&#45;&gt;Node26</title>
<path fill="none" stroke="midnightblue" d="M341.699,-132.797C348.498,-130.315 355.046,-127.236 361,-123.422 384.059,-108.655 374.318,-88.7632 397,-73.4225 399.89,-71.4681 402.924,-69.6726 406.062,-68.0232"/>
<polygon fill="midnightblue" stroke="midnightblue" points="407.588,-71.1734 415.148,-63.7508 404.609,-64.8388 407.588,-71.1734"/>
</g>
<!-- Node17 -->
<g id="node17" class="node"><title>Node17</title>
<g id="a_node17"><a xlink:href="class_word_quizzle_1_1_word_quizzle_client_service.html#a547ba20a2963597abe34d58e643ea2db" target="_top" xlink:title=" ">
<polygon fill="white" stroke="black" points="851,-9.42249 851,-39.4225 1008,-39.4225 1008,-9.42249 851,-9.42249"/>
<text text-anchor="start" x="859" y="-27.4225" font-family="Helvetica,sans-Serif" font-size="10.00">WordQuizzle.WordQuizzleClient</text>
<text text-anchor="middle" x="929.5" y="-16.4225" font-family="Helvetica,sans-Serif" font-size="10.00">Service.accettaSfida</text>
</a>
</g>
</g>
<!-- Node16&#45;&gt;Node17 -->
<g id="edge16" class="edge"><title>Node16&#45;&gt;Node17</title>
<path fill="none" stroke="midnightblue" d="M573.709,-83.4028C580.491,-80.6221 587.034,-77.327 593,-73.4225 614.723,-59.2062 605.719,-38.9102 629,-27.4225 698.936,7.08645 789.722,2.19119 852.924,-7.78269"/>
<polygon fill="midnightblue" stroke="midnightblue" points="852.386,-11.2412 862.824,-9.42179 853.53,-4.33521 852.386,-11.2412"/>
</g>
<!-- Node18 -->
<g id="node18" class="node"><title>Node18</title>
<g id="a_node18"><a xlink:href="class_word_quizzle_1_1_word_quizzle_client_service.html#a0ed33ad0199840ae1847c4ecbc992ce2" target="_top" xlink:title=" ">
<polygon fill="white" stroke="black" points="1049,-257.422 1049,-287.422 1206,-287.422 1206,-257.422 1049,-257.422"/>
<text text-anchor="start" x="1057" y="-275.422" font-family="Helvetica,sans-Serif" font-size="10.00">WordQuizzle.WordQuizzleClient</text>
<text text-anchor="middle" x="1127.5" y="-264.422" font-family="Helvetica,sans-Serif" font-size="10.00">Service.send</text>
</a>
</g>
</g>
<!-- Node17&#45;&gt;Node18 -->
<g id="edge17" class="edge"><title>Node17&#45;&gt;Node18</title>
<path fill="none" stroke="midnightblue" d="M968.363,-39.522C983.527,-46.8989 1000.36,-56.9137 1013,-69.4225 1066.71,-122.573 1102.55,-206.496 1117.94,-247.798"/>
<polygon fill="midnightblue" stroke="midnightblue" points="1114.7,-249.136 1121.41,-257.336 1121.28,-246.742 1114.7,-249.136"/>
</g>
<!-- Node19 -->
<g id="node19" class="node"><title>Node19</title>
<g id="a_node19"><a xlink:href="class_word_quizzle_1_1_word_quizzle_client_service.html#a59c8bdbde7768c2b478d51f4f13f7afb" target="_top" xlink:title=" ">
<polygon fill="white" stroke="black" points="1242,-282.422 1242,-312.422 1399,-312.422 1399,-282.422 1242,-282.422"/>
<text text-anchor="start" x="1250" y="-300.422" font-family="Helvetica,sans-Serif" font-size="10.00">WordQuizzle.WordQuizzleClient</text>
<text text-anchor="middle" x="1320.5" y="-289.422" font-family="Helvetica,sans-Serif" font-size="10.00">Service.read</text>
</a>
</g>
</g>
<!-- Node18&#45;&gt;Node19 -->
<g id="edge18" class="edge"><title>Node18&#45;&gt;Node19</title>
<path fill="none" stroke="midnightblue" d="M1206.19,-282.591C1214.65,-283.699 1223.31,-284.832 1231.88,-285.953"/>
<polygon fill="midnightblue" stroke="midnightblue" points="1231.51,-289.436 1241.88,-287.263 1232.42,-282.495 1231.51,-289.436"/>
</g>
<!-- Node20 -->
<g id="node20" class="node"><title>Node20</title>
<g id="a_node20"><a xlink:href="class_word_quizzle_1_1_word_quizzle_client_service.html#a25566e1d25884c6c0dbb5aab0c1b52fd" target="_top" xlink:title=" ">
<polygon fill="white" stroke="black" points="1242,-233.422 1242,-263.422 1399,-263.422 1399,-233.422 1242,-233.422"/>
<text text-anchor="start" x="1250" y="-251.422" font-family="Helvetica,sans-Serif" font-size="10.00">WordQuizzle.WordQuizzleClient</text>
<text text-anchor="middle" x="1320.5" y="-240.422" font-family="Helvetica,sans-Serif" font-size="10.00">Service.write</text>
</a>
</g>
</g>
<!-- Node18&#45;&gt;Node20 -->
<g id="edge19" class="edge"><title>Node18&#45;&gt;Node20</title>
<path fill="none" stroke="midnightblue" d="M1206.19,-262.661C1214.65,-261.597 1223.31,-260.51 1231.88,-259.433"/>
<polygon fill="midnightblue" stroke="midnightblue" points="1232.4,-262.895 1241.88,-258.176 1231.52,-255.95 1232.4,-262.895"/>
</g>
<!-- Node22 -->
<g id="node22" class="node"><title>Node22</title>
<g id="a_node22"><a xlink:href="class_word_quizzle_1_1_word_quizzle_server_service.html#a970fe0e2dd7457bab2c64ae722a912fc" target="_top" xlink:title=" ">
<polygon fill="white" stroke="black" points="640,-135.422 640,-165.422 799,-165.422 799,-135.422 640,-135.422"/>
<text text-anchor="start" x="648" y="-153.422" font-family="Helvetica,sans-Serif" font-size="10.00">WordQuizzle.WordQuizzleServer</text>
<text text-anchor="middle" x="719.5" y="-142.422" font-family="Helvetica,sans-Serif" font-size="10.00">Service.getK</text>
</a>
</g>
</g>
<!-- Node21&#45;&gt;Node22 -->
<g id="edge21" class="edge"><title>Node21&#45;&gt;Node22</title>
<path fill="none" stroke="midnightblue" d="M560.655,-144.747C582.226,-145.523 606.65,-146.401 629.728,-147.231"/>
<polygon fill="midnightblue" stroke="midnightblue" points="629.751,-150.734 639.871,-147.595 630.003,-143.738 629.751,-150.734"/>
</g>
<!-- Node23 -->
<g id="node23" class="node"><title>Node23</title>
<g id="a_node23"><a xlink:href="class_word_quizzle_1_1_word_quizzle_server_service.html#ac78bda2a578b3baa0933ca28e4b72e0c" target="_top" xlink:title=" ">
<polygon fill="white" stroke="black" points="640,-86.4225 640,-116.422 799,-116.422 799,-86.4225 640,-86.4225"/>
<text text-anchor="start" x="648" y="-104.422" font-family="Helvetica,sans-Serif" font-size="10.00">WordQuizzle.WordQuizzleServer</text>
<text text-anchor="middle" x="719.5" y="-93.4225" font-family="Helvetica,sans-Serif" font-size="10.00">Service.getT2</text>
</a>
</g>
</g>
<!-- Node21&#45;&gt;Node23 -->
<g id="edge22" class="edge"><title>Node21&#45;&gt;Node23</title>
<path fill="none" stroke="midnightblue" d="M547.605,-132.913C571.959,-128.426 601.726,-122.94 629.552,-117.813"/>
<polygon fill="midnightblue" stroke="midnightblue" points="630.502,-121.197 639.703,-115.942 629.234,-114.313 630.502,-121.197"/>
</g>
<!-- Node24 -->
<g id="node24" class="node"><title>Node24</title>
<g id="a_node24"><a xlink:href="class_word_quizzle_1_1_word_quizzle_client.html#a828a5e7a358bd53296d88c97172db13b" target="_top" xlink:title=" ">
<polygon fill="white" stroke="black" points="629,-37.4225 629,-67.4225 810,-67.4225 810,-37.4225 629,-37.4225"/>
<text text-anchor="start" x="637" y="-55.4225" font-family="Helvetica,sans-Serif" font-size="10.00">WordQuizzle.WordQuizzleClient.send</text>
<text text-anchor="middle" x="719.5" y="-44.4225" font-family="Helvetica,sans-Serif" font-size="10.00">Translation</text>
</a>
</g>
</g>
<!-- Node21&#45;&gt;Node24 -->
<g id="edge23" class="edge"><title>Node21&#45;&gt;Node24</title>
<path fill="none" stroke="midnightblue" d="M560.535,-135.742C571.899,-132.757 583.209,-128.493 593,-122.422 615.064,-108.742 607.347,-90.7446 629,-76.4225 631.453,-74.8001 634.012,-73.2869 636.649,-71.8758"/>
<polygon fill="midnightblue" stroke="midnightblue" points="638.368,-74.9335 645.878,-67.4603 635.347,-68.6189 638.368,-74.9335"/>
</g>
<!-- Node25 -->
<g id="node25" class="node"><title>Node25</title>
<g id="a_node25"><a xlink:href="class_word_quizzle_1_1_word_quizzle_client_service.html#a53ced7302f38c42dfed59b2a70674800" target="_top" xlink:title=" ">
<polygon fill="white" stroke="black" points="851,-79.4225 851,-109.422 1008,-109.422 1008,-79.4225 851,-79.4225"/>
<text text-anchor="start" x="859" y="-97.4225" font-family="Helvetica,sans-Serif" font-size="10.00">WordQuizzle.WordQuizzleClient</text>
<text text-anchor="middle" x="929.5" y="-86.4225" font-family="Helvetica,sans-Serif" font-size="10.00">Service.sendTranslation</text>
</a>
</g>
</g>
<!-- Node24&#45;&gt;Node25 -->
<g id="edge24" class="edge"><title>Node24&#45;&gt;Node25</title>
<path fill="none" stroke="midnightblue" d="M795.005,-67.4668C810.933,-70.6831 827.868,-74.1025 844.137,-77.3876"/>
<polygon fill="midnightblue" stroke="midnightblue" points="843.671,-80.864 854.166,-79.4127 845.056,-74.0025 843.671,-80.864"/>
</g>
<!-- Node25&#45;&gt;Node18 -->
<g id="edge25" class="edge"><title>Node25&#45;&gt;Node18</title>
<path fill="none" stroke="midnightblue" d="M956.525,-109.555C973.352,-119.862 995.328,-134.332 1013,-149.422 1049.89,-180.921 1086.93,-223.641 1108.24,-249.555"/>
<polygon fill="midnightblue" stroke="midnightblue" points="1105.55,-251.801 1114.58,-257.342 1110.98,-247.379 1105.55,-251.801"/>
</g>
<!-- Node27&#45;&gt;Node5 -->
<g id="edge33" class="edge"><title>Node27&#45;&gt;Node5</title>
<path fill="none" stroke="midnightblue" d="M328.083,-421.429C340.412,-425.17 352.197,-431.112 361,-440.422 420.648,-503.509 339.225,-567.616 397,-632.422 404.022,-640.3 413.065,-646.133 422.799,-650.448"/>
<polygon fill="midnightblue" stroke="midnightblue" points="421.712,-653.78 432.301,-654.137 424.245,-647.255 421.712,-653.78"/>
</g>
<!-- Node27&#45;&gt;Node6 -->
<g id="edge31" class="edge"><title>Node27&#45;&gt;Node6</title>
<path fill="none" stroke="midnightblue" d="M328.181,-421.977C340.356,-425.699 352.054,-431.495 361,-440.422 407.999,-487.328 346.855,-541.896 397,-585.422 462.325,-642.126 565.568,-642.502 637.367,-633.828"/>
<polygon fill="midnightblue" stroke="midnightblue" points="638.256,-637.243 647.724,-632.489 637.358,-630.301 638.256,-637.243"/>
</g>
<!-- Node27&#45;&gt;Node8 -->
<g id="edge40" class="edge"><title>Node27&#45;&gt;Node8</title>
<path fill="none" stroke="midnightblue" d="M328.157,-422.681C340.19,-426.367 351.839,-431.97 361,-440.422 398.186,-474.733 357.181,-517.207 397,-548.422 475.178,-609.709 599.385,-598.544 668.291,-585.909"/>
<polygon fill="midnightblue" stroke="midnightblue" points="669.29,-589.281 678.452,-583.961 667.972,-582.406 669.29,-589.281"/>
</g>
<!-- Node27&#45;&gt;Node14 -->
<g id="edge56" class="edge"><title>Node27&#45;&gt;Node14</title>
<path fill="none" stroke="midnightblue" d="M328.101,-423.472C340,-427.109 351.612,-432.492 361,-440.422 391.716,-466.371 363.836,-500.686 397,-523.422 435.866,-550.068 563.14,-547.239 645.414,-542.212"/>
<polygon fill="midnightblue" stroke="midnightblue" points="645.706,-545.701 655.464,-541.574 645.262,-538.715 645.706,-545.701"/>
</g>
<!-- Node27&#45;&gt;Node21 -->
<g id="edge32" class="edge"><title>Node27&#45;&gt;Node21</title>
<path fill="none" stroke="midnightblue" d="M265.395,-406.873C273.464,-368.877 308.684,-227.31 397,-161.422 403.772,-156.37 411.527,-152.559 419.636,-149.697"/>
<polygon fill="midnightblue" stroke="midnightblue" points="420.736,-153.021 429.281,-146.757 418.695,-146.325 420.736,-153.021"/>
</g>
<!-- Node28 -->
<g id="node28" class="node"><title>Node28</title>
<g id="a_node28"><a xlink:href="class_word_quizzle_1_1_word_quizzle_client.html#a91d982387c02c9ccae681f4a7d500a75" target="_top" xlink:title=" ">
<polygon fill="white" stroke="black" points="397,-171.422 397,-201.422 593,-201.422 593,-171.422 397,-171.422"/>
<text text-anchor="start" x="405" y="-189.422" font-family="Helvetica,sans-Serif" font-size="10.00">WordQuizzle.WordQuizzleClient.aggiungi</text>
<text text-anchor="middle" x="495" y="-178.422" font-family="Helvetica,sans-Serif" font-size="10.00">_amico</text>
</a>
</g>
</g>
<!-- Node27&#45;&gt;Node28 -->
<g id="edge28" class="edge"><title>Node27&#45;&gt;Node28</title>
<path fill="none" stroke="midnightblue" d="M266.802,-406.892C278.675,-374.09 322.491,-264.943 397,-211.422 399.684,-209.495 402.503,-207.716 405.424,-206.073"/>
<polygon fill="midnightblue" stroke="midnightblue" points="407.083,-209.157 414.454,-201.546 403.946,-202.899 407.083,-209.157"/>
</g>
<!-- Node30 -->
<g id="node30" class="node"><title>Node30</title>
<g id="a_node30"><a xlink:href="class_word_quizzle_1_1_word_quizzle_client.html#a601f27bc3078f4c7d43417481f4c1353" target="_top" xlink:title=" ">
<polygon fill="white" stroke="black" points="406,-483.422 406,-513.422 584,-513.422 584,-483.422 406,-483.422"/>
<text text-anchor="start" x="414" y="-501.422" font-family="Helvetica,sans-Serif" font-size="10.00">WordQuizzle.WordQuizzleClient.lista</text>
<text text-anchor="middle" x="495" y="-490.422" font-family="Helvetica,sans-Serif" font-size="10.00">_amici</text>
</a>
</g>
</g>
<!-- Node27&#45;&gt;Node30 -->
<g id="edge34" class="edge"><title>Node27&#45;&gt;Node30</title>
<path fill="none" stroke="midnightblue" d="M322.744,-425.988C335.807,-429.451 349.244,-434.127 361,-440.422 380.134,-450.669 377.922,-463.072 397,-473.422 401.22,-475.712 405.659,-477.799 410.219,-479.699"/>
<polygon fill="midnightblue" stroke="midnightblue" points="409.129,-483.03 419.719,-483.345 411.637,-476.495 409.129,-483.03"/>
</g>
<!-- Node32 -->
<g id="node32" class="node"><title>Node32</title>
<g id="a_node32"><a xlink:href="class_word_quizzle_1_1_word_quizzle_client.html#aa87c179f3a0a6ab57c2b74960c95a626" target="_top" xlink:title=" ">
<polygon fill="white" stroke="black" points="405,-444.922 405,-463.922 585,-463.922 585,-444.922 405,-444.922"/>
<text text-anchor="middle" x="495" y="-451.922" font-family="Helvetica,sans-Serif" font-size="10.00">WordQuizzle.WordQuizzleClient.login</text>
</a>
</g>
</g>
<!-- Node27&#45;&gt;Node32 -->
<g id="edge37" class="edge"><title>Node27&#45;&gt;Node32</title>
<path fill="none" stroke="midnightblue" d="M321.367,-425.962C353.152,-431.202 392.754,-437.731 426.008,-443.213"/>
<polygon fill="midnightblue" stroke="midnightblue" points="425.673,-446.705 436.109,-444.879 426.811,-439.799 425.673,-446.705"/>
</g>
<!-- Node34 -->
<g id="node34" class="node"><title>Node34</title>
<g id="a_node34"><a xlink:href="class_word_quizzle_1_1_word_quizzle_client.html#a50468f5e79e6bba9efc2e9fd19493345" target="_top" xlink:title=" ">
<polygon fill="white" stroke="black" points="402,-406.922 402,-425.922 588,-425.922 588,-406.922 402,-406.922"/>
<text text-anchor="middle" x="495" y="-413.922" font-family="Helvetica,sans-Serif" font-size="10.00">WordQuizzle.WordQuizzleClient.logout</text>
</a>
</g>
</g>
<!-- Node27&#45;&gt;Node34 -->
<g id="edge41" class="edge"><title>Node27&#45;&gt;Node34</title>
<path fill="none" stroke="midnightblue" d="M328.014,-416.422C347.789,-416.422 370.055,-416.422 391.703,-416.422"/>
<polygon fill="midnightblue" stroke="midnightblue" points="391.93,-419.923 401.93,-416.422 391.93,-412.923 391.93,-419.923"/>
</g>
<!-- Node36 -->
<g id="node36" class="node"><title>Node36</title>
<g id="a_node36"><a xlink:href="class_word_quizzle_1_1_word_quizzle_client.html#a155c2dca547e63f1ba07589525ccfd75" target="_top" xlink:title=" ">
<polygon fill="white" stroke="black" points="400,-357.422 400,-387.422 590,-387.422 590,-357.422 400,-357.422"/>
<text text-anchor="start" x="408" y="-375.422" font-family="Helvetica,sans-Serif" font-size="10.00">WordQuizzle.WordQuizzleClient.mostra</text>
<text text-anchor="middle" x="495" y="-364.422" font-family="Helvetica,sans-Serif" font-size="10.00">_classifica</text>
</a>
</g>
</g>
<!-- Node27&#45;&gt;Node36 -->
<g id="edge44" class="edge"><title>Node27&#45;&gt;Node36</title>
<path fill="none" stroke="midnightblue" d="M313.515,-406.875C340.278,-401.766 374.038,-395.322 405.1,-389.393"/>
<polygon fill="midnightblue" stroke="midnightblue" points="405.912,-392.801 415.078,-387.488 404.599,-385.925 405.912,-392.801"/>
</g>
<!-- Node38 -->
<g id="node38" class="node"><title>Node38</title>
<g id="a_node38"><a xlink:href="class_word_quizzle_1_1_word_quizzle_client.html#a22e0d1e5461e49703357d34b50cf70b8" target="_top" xlink:title=" ">
<polygon fill="white" stroke="black" points="400,-259.422 400,-289.422 590,-289.422 590,-259.422 400,-259.422"/>
<text text-anchor="start" x="408" y="-277.422" font-family="Helvetica,sans-Serif" font-size="10.00">WordQuizzle.WordQuizzleClient.mostra</text>
<text text-anchor="middle" x="495" y="-266.422" font-family="Helvetica,sans-Serif" font-size="10.00">_punteggio</text>
</a>
</g>
</g>
<!-- Node27&#45;&gt;Node38 -->
<g id="edge47" class="edge"><title>Node27&#45;&gt;Node38</title>
<path fill="none" stroke="midnightblue" d="M271.428,-406.762C290.537,-384.139 341.669,-327.454 397,-298.422 400.57,-296.549 404.292,-294.818 408.108,-293.219"/>
<polygon fill="midnightblue" stroke="midnightblue" points="409.678,-296.365 417.756,-289.51 407.166,-289.832 409.678,-296.365"/>
</g>
<!-- Node40 -->
<g id="node40" class="node"><title>Node40</title>
<g id="a_node40"><a xlink:href="class_word_quizzle_1_1_word_quizzle_client.html#a98206956fc50ef3951d27f2a89fb21fa" target="_top" xlink:title=" ">
<polygon fill="white" stroke="black" points="399,-308.422 399,-338.422 591,-338.422 591,-308.422 399,-308.422"/>
<text text-anchor="start" x="407" y="-326.422" font-family="Helvetica,sans-Serif" font-size="10.00">WordQuizzle.WordQuizzleClient.registra</text>
<text text-anchor="middle" x="495" y="-315.422" font-family="Helvetica,sans-Serif" font-size="10.00">_utente</text>
</a>
</g>
</g>
<!-- Node27&#45;&gt;Node40 -->
<g id="edge50" class="edge"><title>Node27&#45;&gt;Node40</title>
<path fill="none" stroke="midnightblue" d="M278.974,-406.891C303.296,-392.269 352.313,-364.232 397,-347.422 402.807,-345.238 408.885,-343.195 415.045,-341.298"/>
<polygon fill="midnightblue" stroke="midnightblue" points="416.161,-344.618 424.765,-338.435 414.183,-337.903 416.161,-344.618"/>
</g>
<!-- Node43 -->
<g id="node43" class="node"><title>Node43</title>
<g id="a_node43"><a xlink:href="class_word_quizzle_1_1_word_quizzle_client.html#a2f667c9d998bab28411f3fd0af90ec8c" target="_top" xlink:title=" ">
<polygon fill="white" stroke="black" points="405,-220.922 405,-239.922 585,-239.922 585,-220.922 405,-220.922"/>
<text text-anchor="middle" x="495" y="-227.922" font-family="Helvetica,sans-Serif" font-size="10.00">WordQuizzle.WordQuizzleClient.sfida</text>
</a>
</g>
</g>
<!-- Node27&#45;&gt;Node43 -->
<g id="edge53" class="edge"><title>Node27&#45;&gt;Node43</title>
<path fill="none" stroke="midnightblue" d="M268.216,-406.519C282.762,-377.144 330.024,-290.02 397,-249.422 400.451,-247.331 404.086,-245.463 407.843,-243.796"/>
<polygon fill="midnightblue" stroke="midnightblue" points="409.363,-246.959 417.396,-240.051 406.808,-240.442 409.363,-246.959"/>
</g>
<!-- Node29 -->
<g id="node29" class="node"><title>Node29</title>
<g id="a_node29"><a xlink:href="class_word_quizzle_1_1_word_quizzle_client_service.html#adc41c272e3f60eaf3fb07f477887a7ff" target="_top" xlink:title=" ">
<polygon fill="white" stroke="black" points="851,-159.422 851,-189.422 1008,-189.422 1008,-159.422 851,-159.422"/>
<text text-anchor="start" x="859" y="-177.422" font-family="Helvetica,sans-Serif" font-size="10.00">WordQuizzle.WordQuizzleClient</text>
<text text-anchor="middle" x="929.5" y="-166.422" font-family="Helvetica,sans-Serif" font-size="10.00">Service.aggiungi_amico</text>
</a>
</g>
</g>
<!-- Node28&#45;&gt;Node29 -->
<g id="edge29" class="edge"><title>Node28&#45;&gt;Node29</title>
<path fill="none" stroke="midnightblue" d="M593.061,-183.729C667.242,-181.671 768.635,-178.858 840.475,-176.865"/>
<polygon fill="midnightblue" stroke="midnightblue" points="840.954,-180.353 850.853,-176.577 840.76,-173.356 840.954,-180.353"/>
</g>
<!-- Node29&#45;&gt;Node18 -->
<g id="edge30" class="edge"><title>Node29&#45;&gt;Node18</title>
<path fill="none" stroke="midnightblue" d="M990.303,-189.539C998.069,-192.162 1005.82,-195.124 1013,-198.422 1044.14,-212.72 1076.59,-234.705 1098.78,-251.001"/>
<polygon fill="midnightblue" stroke="midnightblue" points="1096.93,-253.991 1107.04,-257.158 1101.11,-248.377 1096.93,-253.991"/>
</g>
<!-- Node31 -->
<g id="node31" class="node"><title>Node31</title>
<g id="a_node31"><a xlink:href="class_word_quizzle_1_1_word_quizzle_client_service.html#ab8db9cd5ff3f755cf306b508741ce7b1" target="_top" xlink:title=" ">
<polygon fill="white" stroke="black" points="851,-502.422 851,-532.422 1008,-532.422 1008,-502.422 851,-502.422"/>
<text text-anchor="start" x="859" y="-520.422" font-family="Helvetica,sans-Serif" font-size="10.00">WordQuizzle.WordQuizzleClient</text>
<text text-anchor="middle" x="929.5" y="-509.422" font-family="Helvetica,sans-Serif" font-size="10.00">Service.lista_amici</text>
</a>
</g>
</g>
<!-- Node30&#45;&gt;Node31 -->
<g id="edge35" class="edge"><title>Node30&#45;&gt;Node31</title>
<path fill="none" stroke="midnightblue" d="M584.044,-502.29C658.821,-505.575 765.608,-510.267 840.401,-513.552"/>
<polygon fill="midnightblue" stroke="midnightblue" points="840.592,-517.064 850.736,-514.006 840.899,-510.071 840.592,-517.064"/>
</g>
<!-- Node31&#45;&gt;Node18 -->
<g id="edge36" class="edge"><title>Node31&#45;&gt;Node18</title>
<path fill="none" stroke="midnightblue" d="M999.386,-502.284C1004.25,-499.77 1008.86,-496.84 1013,-493.422 1076.74,-440.842 1108.65,-343.193 1120.66,-297.376"/>
<polygon fill="midnightblue" stroke="midnightblue" points="1124.06,-298.211 1123.12,-287.658 1117.28,-296.498 1124.06,-298.211"/>
</g>
<!-- Node33 -->
<g id="node33" class="node"><title>Node33</title>
<g id="a_node33"><a xlink:href="class_word_quizzle_1_1_word_quizzle_client_service.html#aa02afd3fa03a290940b6c958e3c57199" target="_top" xlink:title=" ">
<polygon fill="white" stroke="black" points="851,-453.422 851,-483.422 1008,-483.422 1008,-453.422 851,-453.422"/>
<text text-anchor="start" x="859" y="-471.422" font-family="Helvetica,sans-Serif" font-size="10.00">WordQuizzle.WordQuizzleClient</text>
<text text-anchor="middle" x="929.5" y="-460.422" font-family="Helvetica,sans-Serif" font-size="10.00">Service.login</text>
</a>
</g>
</g>
<!-- Node32&#45;&gt;Node33 -->
<g id="edge38" class="edge"><title>Node32&#45;&gt;Node33</title>
<path fill="none" stroke="midnightblue" d="M585.09,-457.306C659.839,-459.726 766.026,-463.163 840.475,-465.573"/>
<polygon fill="midnightblue" stroke="midnightblue" points="840.655,-469.081 850.763,-465.906 840.881,-462.084 840.655,-469.081"/>
</g>
<!-- Node33&#45;&gt;Node18 -->
<g id="edge39" class="edge"><title>Node33&#45;&gt;Node18</title>
<path fill="none" stroke="midnightblue" d="M996.075,-453.278C1002.08,-450.519 1007.84,-447.263 1013,-443.422 1065.14,-404.643 1100.59,-334.344 1116.67,-297.107"/>
<polygon fill="midnightblue" stroke="midnightblue" points="1120.04,-298.11 1120.69,-287.534 1113.59,-295.399 1120.04,-298.11"/>
</g>
<!-- Node35 -->
<g id="node35" class="node"><title>Node35</title>
<g id="a_node35"><a xlink:href="class_word_quizzle_1_1_word_quizzle_client_service.html#a584e77014fba5e13b26af26c6e240bd6" target="_top" xlink:title=" ">
<polygon fill="white" stroke="black" points="851,-404.422 851,-434.422 1008,-434.422 1008,-404.422 851,-404.422"/>
<text text-anchor="start" x="859" y="-422.422" font-family="Helvetica,sans-Serif" font-size="10.00">WordQuizzle.WordQuizzleClient</text>
<text text-anchor="middle" x="929.5" y="-411.422" font-family="Helvetica,sans-Serif" font-size="10.00">Service.logout</text>
</a>
</g>
</g>
<!-- Node34&#45;&gt;Node35 -->
<g id="edge42" class="edge"><title>Node34&#45;&gt;Node35</title>
<path fill="none" stroke="midnightblue" d="M588.252,-417.062C662.888,-417.58 767.29,-418.304 840.707,-418.814"/>
<polygon fill="midnightblue" stroke="midnightblue" points="840.831,-422.314 850.855,-418.884 840.879,-415.315 840.831,-422.314"/>
</g>
<!-- Node35&#45;&gt;Node18 -->
<g id="edge43" class="edge"><title>Node35&#45;&gt;Node18</title>
<path fill="none" stroke="midnightblue" d="M993.316,-404.261C1000.2,-401.481 1006.91,-398.225 1013,-394.422 1054.64,-368.443 1090.93,-323.323 1110.68,-295.837"/>
<polygon fill="midnightblue" stroke="midnightblue" points="1113.6,-297.77 1116.5,-287.579 1107.88,-293.739 1113.6,-297.77"/>
</g>
<!-- Node37 -->
<g id="node37" class="node"><title>Node37</title>
<g id="a_node37"><a xlink:href="class_word_quizzle_1_1_word_quizzle_client_service.html#a972476e61ab3c927ba99af27bc7f58bb" target="_top" xlink:title=" ">
<polygon fill="white" stroke="black" points="851,-355.422 851,-385.422 1008,-385.422 1008,-355.422 851,-355.422"/>
<text text-anchor="start" x="859" y="-373.422" font-family="Helvetica,sans-Serif" font-size="10.00">WordQuizzle.WordQuizzleClient</text>
<text text-anchor="middle" x="929.5" y="-362.422" font-family="Helvetica,sans-Serif" font-size="10.00">Service.mostra_classifica</text>
</a>
</g>
</g>
<!-- Node36&#45;&gt;Node37 -->
<g id="edge45" class="edge"><title>Node36&#45;&gt;Node37</title>
<path fill="none" stroke="midnightblue" d="M590.113,-371.987C664.635,-371.643 767.952,-371.165 840.764,-370.828"/>
<polygon fill="midnightblue" stroke="midnightblue" points="840.846,-374.328 850.829,-370.782 840.813,-367.328 840.846,-374.328"/>
</g>
<!-- Node37&#45;&gt;Node18 -->
<g id="edge46" class="edge"><title>Node37&#45;&gt;Node18</title>
<path fill="none" stroke="midnightblue" d="M987.634,-355.375C996.282,-352.451 1004.98,-349.127 1013,-345.422 1043.79,-331.193 1076.06,-309.709 1098.28,-293.728"/>
<polygon fill="midnightblue" stroke="midnightblue" points="1100.55,-296.403 1106.57,-287.685 1096.43,-290.746 1100.55,-296.403"/>
</g>
<!-- Node39 -->
<g id="node39" class="node"><title>Node39</title>
<g id="a_node39"><a xlink:href="class_word_quizzle_1_1_word_quizzle_client_service.html#a50a062f91fbb470547bde8235f2930d1" target="_top" xlink:title=" ">
<polygon fill="white" stroke="black" points="851,-257.422 851,-287.422 1008,-287.422 1008,-257.422 851,-257.422"/>
<text text-anchor="start" x="859" y="-275.422" font-family="Helvetica,sans-Serif" font-size="10.00">WordQuizzle.WordQuizzleClient</text>
<text text-anchor="middle" x="929.5" y="-264.422" font-family="Helvetica,sans-Serif" font-size="10.00">Service.mostra_punteggio</text>
</a>
</g>
</g>
<!-- Node38&#45;&gt;Node39 -->
<g id="edge48" class="edge"><title>Node38&#45;&gt;Node39</title>
<path fill="none" stroke="midnightblue" d="M590.113,-273.987C664.635,-273.643 767.952,-273.165 840.764,-272.828"/>
<polygon fill="midnightblue" stroke="midnightblue" points="840.846,-276.328 850.829,-272.782 840.813,-269.328 840.846,-276.328"/>
</g>
<!-- Node39&#45;&gt;Node18 -->
<g id="edge49" class="edge"><title>Node39&#45;&gt;Node18</title>
<path fill="none" stroke="midnightblue" d="M1008.25,-272.422C1018.27,-272.422 1028.58,-272.422 1038.75,-272.422"/>
<polygon fill="midnightblue" stroke="midnightblue" points="1038.85,-275.923 1048.85,-272.422 1038.85,-268.923 1038.85,-275.923"/>
</g>
<!-- Node41 -->
<g id="node41" class="node"><title>Node41</title>
<g id="a_node41"><a xlink:href="class_word_quizzle_1_1_word_quizzle_client_service.html#a613b0b49460f9d115fc6ba4dae066d3a" target="_top" xlink:title=" ">
<polygon fill="white" stroke="black" points="641,-307.422 641,-337.422 798,-337.422 798,-307.422 641,-307.422"/>
<text text-anchor="start" x="649" y="-325.422" font-family="Helvetica,sans-Serif" font-size="10.00">WordQuizzle.WordQuizzleClient</text>
<text text-anchor="middle" x="719.5" y="-314.422" font-family="Helvetica,sans-Serif" font-size="10.00">Service.registra_utente</text>
</a>
</g>
</g>
<!-- Node40&#45;&gt;Node41 -->
<g id="edge51" class="edge"><title>Node40&#45;&gt;Node41</title>
<path fill="none" stroke="midnightblue" d="M591.005,-322.996C604.147,-322.936 617.597,-322.876 630.601,-322.818"/>
<polygon fill="midnightblue" stroke="midnightblue" points="630.937,-326.316 640.921,-322.771 630.905,-319.316 630.937,-326.316"/>
</g>
<!-- Node42 -->
<g id="node42" class="node"><title>Node42</title>
<g id="a_node42"><a xlink:href="interface_word_quizzle_1_1_user_registry.html#ac029b14906c71f2843e0da7f53dc3fb6" target="_top" xlink:title=" ">
<polygon fill="white" stroke="black" points="846,-306.422 846,-336.422 1013,-336.422 1013,-306.422 846,-306.422"/>
<text text-anchor="start" x="854" y="-324.422" font-family="Helvetica,sans-Serif" font-size="10.00">WordQuizzle.UserRegistry.registra</text>
<text text-anchor="middle" x="929.5" y="-313.422" font-family="Helvetica,sans-Serif" font-size="10.00">_utente</text>
</a>
</g>
</g>
<!-- Node41&#45;&gt;Node42 -->
<g id="edge52" class="edge"><title>Node41&#45;&gt;Node42</title>
<path fill="none" stroke="midnightblue" d="M798.247,-322.049C810.539,-321.99 823.354,-321.928 835.943,-321.867"/>
<polygon fill="midnightblue" stroke="midnightblue" points="835.993,-325.367 845.976,-321.819 835.959,-318.367 835.993,-325.367"/>
</g>
<!-- Node44 -->
<g id="node44" class="node"><title>Node44</title>
<g id="a_node44"><a xlink:href="class_word_quizzle_1_1_word_quizzle_client_service.html#a7eef869e03ee5f68139882d98de88c1f" target="_top" xlink:title=" ">
<polygon fill="white" stroke="black" points="851,-208.422 851,-238.422 1008,-238.422 1008,-208.422 851,-208.422"/>
<text text-anchor="start" x="859" y="-226.422" font-family="Helvetica,sans-Serif" font-size="10.00">WordQuizzle.WordQuizzleClient</text>
<text text-anchor="middle" x="929.5" y="-215.422" font-family="Helvetica,sans-Serif" font-size="10.00">Service.sfida</text>
</a>
</g>
</g>
<!-- Node43&#45;&gt;Node44 -->
<g id="edge54" class="edge"><title>Node43&#45;&gt;Node44</title>
<path fill="none" stroke="midnightblue" d="M585.09,-228.981C659.839,-227.771 766.026,-226.052 840.475,-224.847"/>
<polygon fill="midnightblue" stroke="midnightblue" points="840.821,-228.342 850.763,-224.681 840.707,-221.343 840.821,-228.342"/>
</g>
<!-- Node44&#45;&gt;Node18 -->
<g id="edge55" class="edge"><title>Node44&#45;&gt;Node18</title>
<path fill="none" stroke="midnightblue" d="M990.638,-238.457C1011.52,-243.678 1035.11,-249.576 1056.71,-254.975"/>
<polygon fill="midnightblue" stroke="midnightblue" points="1055.92,-258.386 1066.48,-257.416 1057.62,-251.595 1055.92,-258.386"/>
</g>
</g>
</svg>
