<?xml version="1.0" encoding="UTF-8" standalone="no"?>
<!DOCTYPE svg PUBLIC "-//W3C//DTD SVG 1.1//EN"
 "http://www.w3.org/Graphics/SVG/1.1/DTD/svg11.dtd">
<!-- Generated by graphviz version 2.38.0 (20140413.2041)
 -->
<!-- Title: WordQuizzle.WQCli.aggiungi_amico Pages: 1 -->
<svg width="643pt" height="66pt"
 viewBox="0.00 0.00 643.00 66.00" xmlns="http://www.w3.org/2000/svg" xmlns:xlink="http://www.w3.org/1999/xlink">
<g id="graph0" class="graph" transform="scale(1 1) rotate(0) translate(4 62)">
<title>WordQuizzle.WQCli.aggiungi_amico</title>
<polygon fill="white" stroke="none" points="-4,4 -4,-62 639,-62 639,4 -4,4"/>
<!-- Node1 -->
<g id="node1" class="node"><title>Node1</title>
<g id="a_node1"><a xlink:title=" ">
<polygon fill="#bfbfbf" stroke="black" points="492,-14 492,-44 635,-44 635,-14 492,-14"/>
<text text-anchor="start" x="500" y="-32" font-family="Helvetica,sans-Serif" font-size="10.00">WordQuizzle.WQCli.aggiungi</text>
<text text-anchor="middle" x="563.5" y="-21" font-family="Helvetica,sans-Serif" font-size="10.00">_amico</text>
</a>
</g>
</g>
<!-- Node2 -->
<g id="node2" class="node"><title>Node2</title>
<g id="a_node2"><a xlink:href="class_word_quizzle_1_1_w_q_cli.html#af99dd07b4f0c4e029f872de8ea3ae9f3" target="_top" xlink:title=" ">
<polygon fill="white" stroke="black" points="331,-38.5 331,-57.5 456,-57.5 456,-38.5 331,-38.5"/>
<text text-anchor="middle" x="393.5" y="-45.5" font-family="Helvetica,sans-Serif" font-size="10.00">WordQuizzle.WQCli.help</text>
</a>
</g>
</g>
<!-- Node1&#45;&gt;Node2 -->
<g id="edge1" class="edge"><title>Node1&#45;&gt;Node2</title>
<path fill="none" stroke="midnightblue" d="M481.689,-38.1394C473.091,-39.1118 464.448,-40.0892 456.122,-41.0309"/>
<polygon fill="midnightblue" stroke="midnightblue" points="482.196,-41.6043 491.74,-37.0026 481.41,-34.6487 482.196,-41.6043"/>
</g>
<!-- Node4 -->
<g id="node4" class="node"><title>Node4</title>
<g id="a_node4"><a xlink:href="class_word_quizzle_1_1_w_q_cli.html#a318ef86f91a825da4ff4684bd3332a6b" target="_top" xlink:title=" ">
<polygon fill="white" stroke="black" points="164,-0.5 164,-19.5 295,-19.5 295,-0.5 164,-0.5"/>
<text text-anchor="middle" x="229.5" y="-7.5" font-family="Helvetica,sans-Serif" font-size="10.00">WordQuizzle.WQCli.parse</text>
</a>
</g>
</g>
<!-- Node1&#45;&gt;Node4 -->
<g id="edge5" class="edge"><title>Node1&#45;&gt;Node4</title>
<path fill="none" stroke="midnightblue" d="M481.564,-24.3681C424.213,-21.086 348.3,-16.7416 295.019,-13.6924"/>
<polygon fill="midnightblue" stroke="midnightblue" points="481.501,-27.8702 491.685,-24.9473 481.901,-20.8816 481.501,-27.8702"/>
</g>
<!-- Node3 -->
<g id="node3" class="node"><title>Node3</title>
<g id="a_node3"><a xlink:href="class_word_quizzle_1_1_w_q_cli.html#a7c2d51051cc7f1b20c57c1424d3b7727" target="_top" xlink:title=" ">
<polygon fill="white" stroke="black" points="0,-19.5 0,-38.5 128,-38.5 128,-19.5 0,-19.5"/>
<text text-anchor="middle" x="64" y="-26.5" font-family="Helvetica,sans-Serif" font-size="10.00">WordQuizzle.WQCli.main</text>
</a>
</g>
</g>
<!-- Node2&#45;&gt;Node3 -->
<g id="edge2" class="edge"><title>Node2&#45;&gt;Node3</title>
<path fill="none" stroke="midnightblue" d="M320.798,-43.8402C263.312,-40.5051 183.41,-35.8696 128.277,-32.671"/>
<polygon fill="midnightblue" stroke="midnightblue" points="320.714,-47.3411 330.9,-44.4262 321.119,-40.3528 320.714,-47.3411"/>
</g>
<!-- Node2&#45;&gt;Node4 -->
<g id="edge3" class="edge"><title>Node2&#45;&gt;Node4</title>
<path fill="none" stroke="midnightblue" d="M341.785,-36.1039C319.014,-30.7626 292.513,-24.5463 271.085,-19.5201"/>
<polygon fill="midnightblue" stroke="midnightblue" points="341.085,-39.5347 351.621,-38.411 342.684,-32.7197 341.085,-39.5347"/>
</g>
<!-- Node4&#45;&gt;Node3 -->
<g id="edge4" class="edge"><title>Node4&#45;&gt;Node3</title>
<path fill="none" stroke="midnightblue" d="M153.844,-18.6756C145.234,-19.6762 136.518,-20.6891 128.082,-21.6694"/>
<polygon fill="midnightblue" stroke="midnightblue" points="154.351,-22.1403 163.88,-17.5093 153.543,-15.1871 154.351,-22.1403"/>
</g>
</g>
</svg>
