<?xml version="1.0" encoding="UTF-8" standalone="no"?>
<!DOCTYPE svg PUBLIC "-//W3C//DTD SVG 1.1//EN"
 "http://www.w3.org/Graphics/SVG/1.1/DTD/svg11.dtd">
<!-- Generated by graphviz version 2.38.0 (20140413.2041)
 -->
<!-- Title: WordQuizzle.WordTranslator.main Pages: 1 -->
<svg width="369pt" height="127pt"
 viewBox="0.00 0.00 369.00 126.50" xmlns="http://www.w3.org/2000/svg" xmlns:xlink="http://www.w3.org/1999/xlink">
<g id="graph0" class="graph" transform="scale(1 1) rotate(0) translate(4 122.5)">
<title>WordQuizzle.WordTranslator.main</title>
<polygon fill="white" stroke="none" points="-4,4 -4,-122.5 365,-122.5 365,4 -4,4"/>
<!-- Node1 -->
<g id="node1" class="node"><title>Node1</title>
<g id="a_node1"><a xlink:title="Traduce una lista di parole dall&#39;italiano all&#39;inglese.">
<polygon fill="#bfbfbf" stroke="black" points="0,-44.5 0,-63.5 166,-63.5 166,-44.5 0,-44.5"/>
<text text-anchor="middle" x="83" y="-51.5" font-family="Helvetica,sans-Serif" font-size="10.00">WordQuizzle.WordTranslator.main</text>
</a>
</g>
</g>
<!-- Node2 -->
<g id="node2" class="node"><title>Node2</title>
<g id="a_node2"><a xlink:href="class_word_quizzle_1_1_word_quizzle_server_service.html#a970fe0e2dd7457bab2c64ae722a912fc" target="_top" xlink:title="Restituisce il numero di parole per sfida.">
<polygon fill="white" stroke="black" points="202,-88 202,-118 361,-118 361,-88 202,-88"/>
<text text-anchor="start" x="210" y="-106" font-family="Helvetica,sans-Serif" font-size="10.00">WordQuizzle.WordQuizzleServer</text>
<text text-anchor="middle" x="281.5" y="-95" font-family="Helvetica,sans-Serif" font-size="10.00">Service.getK</text>
</a>
</g>
</g>
<!-- Node1&#45;&gt;Node2 -->
<g id="edge1" class="edge"><title>Node1&#45;&gt;Node2</title>
<path fill="none" stroke="midnightblue" d="M122.354,-63.564C147.34,-69.7947 180.683,-78.1094 210.311,-85.4974"/>
<polygon fill="midnightblue" stroke="midnightblue" points="209.649,-88.9394 220.199,-87.963 211.343,-82.1474 209.649,-88.9394"/>
</g>
<!-- Node3 -->
<g id="node3" class="node"><title>Node3</title>
<g id="a_node3"><a xlink:href="interface_word_quizzle_1_1_dictionary.html#a53e48ccbd3fbb5afda88fce5852086e8" target="_top" xlink:title="Restituisce una lista di k parole a caso dal dizionario senza ripetizioni.">
<polygon fill="white" stroke="black" points="213.5,-39 213.5,-69 349.5,-69 349.5,-39 213.5,-39"/>
<text text-anchor="start" x="221.5" y="-57" font-family="Helvetica,sans-Serif" font-size="10.00">WordQuizzle.Dictionary.get</text>
<text text-anchor="middle" x="281.5" y="-46" font-family="Helvetica,sans-Serif" font-size="10.00">Words</text>
</a>
</g>
</g>
<!-- Node1&#45;&gt;Node3 -->
<g id="edge2" class="edge"><title>Node1&#45;&gt;Node3</title>
<path fill="none" stroke="midnightblue" d="M166.195,-54C178.437,-54 191.021,-54 203.159,-54"/>
<polygon fill="midnightblue" stroke="midnightblue" points="203.232,-57.5001 213.232,-54 203.232,-50.5001 203.232,-57.5001"/>
</g>
<!-- Node4 -->
<g id="node4" class="node"><title>Node4</title>
<g id="a_node4"><a xlink:href="class_word_quizzle_1_1_translator.html#a9fcad4b807785c63c72bc85f672fb635" target="_top" xlink:title="Traduce una parola dall&#39;italiano all&#39;inglese.">
<polygon fill="white" stroke="black" points="202,-0.5 202,-19.5 361,-19.5 361,-0.5 202,-0.5"/>
<text text-anchor="middle" x="281.5" y="-7.5" font-family="Helvetica,sans-Serif" font-size="10.00">WordQuizzle.Translator.translate</text>
</a>
</g>
</g>
<!-- Node1&#45;&gt;Node4 -->
<g id="edge3" class="edge"><title>Node1&#45;&gt;Node4</title>
<path fill="none" stroke="midnightblue" d="M126.638,-44.4527C156.378,-37.7931 196.257,-28.8637 227.962,-21.7642"/>
<polygon fill="midnightblue" stroke="midnightblue" points="228.952,-25.1293 237.946,-19.5287 227.422,-18.2984 228.952,-25.1293"/>
</g>
</g>
</svg>
