<?xml version="1.0" encoding="UTF-8" standalone="no"?>
<!DOCTYPE svg PUBLIC "-//W3C//DTD SVG 1.1//EN"
 "http://www.w3.org/Graphics/SVG/1.1/DTD/svg11.dtd">
<!-- Generated by graphviz version 2.38.0 (20140413.2041)
 -->
<!-- Title: WordQuizzle.WordQuizzleServerService.getK Pages: 1 -->
<!--zoomable 336 -->
<svg id="main" version="1.1" xmlns="http://www.w3.org/2000/svg" xmlns:xlink="http://www.w3.org/1999/xlink" xml:space="preserve" onload="init(evt)">
<style type="text/css"><![CDATA[
.edge:hover path { stroke: red; }
.edge:hover polygon { stroke: red; fill: red; }
]]></style>
<script type="text/javascript"><![CDATA[
var edges = document.getElementsByTagName('g');
if (edges && edges.length) {
  for (var i=0;i<edges.length;i++) {
    if (edges[i].id.substr(0,4)=='edge') {
      edges[i].setAttribute('class','edge');
    }
  }
}
]]></script>
        <defs>
                <circle id="rim" cx="0" cy="0" r="7"/>
                <circle id="rim2" cx="0" cy="0" r="3.5"/>
                <g id="zoomPlus">
                        <use xlink:href="#rim" fill="#404040">
                                <set attributeName="fill" to="#808080" begin="zoomplus.mouseover" end="zoomplus.mouseout"/>
                        </use>
                        <path d="M-4,0h8M0,-4v8" fill="none" stroke="white" stroke-width="1.5" pointer-events="none"/>
                </g>
                <g id="zoomMin">
                        <use xlink:href="#rim" fill="#404040">
                                <set attributeName="fill" to="#808080" begin="zoomminus.mouseover" end="zoomminus.mouseout"/>
                        </use>
                        <path d="M-4,0h8" fill="none" stroke="white" stroke-width="1.5" pointer-events="none"/>
                </g>
                <g id="dirArrow">
                        <path fill="none" stroke="white" stroke-width="1.5" d="M0,-3.0v7 M-2.5,-0.5L0,-3.0L2.5,-0.5"/>
                </g>
               <g id="resetDef">
                       <use xlink:href="#rim2" fill="#404040">
                               <set attributeName="fill" to="#808080" begin="reset.mouseover" end="reset.mouseout"/>
                       </use>
               </g>
        </defs>

<script type="text/javascript">
var viewWidth = 1355;
var viewHeight = 336;
var sectionId = 'dynsection-5';
</script>
<script xlink:href="svgpan.js"/>
<svg id="graph" class="graph">
<g id="viewport">
<title>WordQuizzle.WordQuizzleServerService.getK</title>
<polygon fill="white" stroke="none" points="-4,4 -4,-331.94 1351,-331.94 1351,4 -4,4"/>
<!-- Node1 -->
<g id="node1" class="node"><title>Node1</title>
<g id="a_node1"><a xlink:title="Restituisce il numero di parole per sfida.">
<polygon fill="#bfbfbf" stroke="black" points="1188,-188.94 1188,-218.94 1347,-218.94 1347,-188.94 1188,-188.94"/>
<text text-anchor="start" x="1196" y="-206.94" font-family="Helvetica,sans-Serif" font-size="10.00">WordQuizzle.WordQuizzleServer</text>
<text text-anchor="middle" x="1267.5" y="-195.94" font-family="Helvetica,sans-Serif" font-size="10.00">Service.getK</text>
</a>
</g>
</g>
<!-- Node2 -->
<g id="node2" class="node"><title>Node2</title>
<g id="a_node2"><a xlink:href="class_word_quizzle_1_1_challenge.html#a148a02d33e785a577c9d0ff4c032de68" target="_top" xlink:title="Crea una nuova sfida.">
<polygon fill="white" stroke="black" points="988,-308.44 988,-327.44 1152,-327.44 1152,-308.44 988,-308.44"/>
<text text-anchor="middle" x="1070" y="-315.44" font-family="Helvetica,sans-Serif" font-size="10.00">WordQuizzle.Challenge.Challenge</text>
</a>
</g>
</g>
<!-- Node1&#45;&gt;Node2 -->
<g id="edge1" class="edge"><title>Node1&#45;&gt;Node2</title>
<path fill="none" stroke="midnightblue" d="M1245.93,-226.186C1224.53,-247.98 1189.03,-280.524 1152,-298.94 1144.24,-302.799 1135.67,-305.893 1127.09,-308.369"/>
<polygon fill="midnightblue" stroke="midnightblue" points="1248.47,-228.595 1252.89,-218.966 1243.43,-223.737 1248.47,-228.595"/>
</g>
<!-- Node3 -->
<g id="node3" class="node"><title>Node3</title>
<g id="a_node3"><a xlink:href="class_word_quizzle_1_1_bot.html#ac35a1d7ec89b1ef5fc25f161357f71c1" target="_top" xlink:title="Gestisce una sfida.">
<polygon fill="white" stroke="black" points="1011,-270.44 1011,-289.44 1129,-289.44 1129,-270.44 1011,-270.44"/>
<text text-anchor="middle" x="1070" y="-277.44" font-family="Helvetica,sans-Serif" font-size="10.00">WordQuizzle.Bot.game</text>
</a>
</g>
</g>
<!-- Node1&#45;&gt;Node3 -->
<g id="edge2" class="edge"><title>Node1&#45;&gt;Node3</title>
<path fill="none" stroke="midnightblue" d="M1231.4,-224.071C1209.21,-236.124 1179.6,-250.986 1152,-260.94 1141.81,-264.616 1130.64,-267.768 1119.93,-270.389"/>
<polygon fill="midnightblue" stroke="midnightblue" points="1233.36,-226.989 1240.43,-219.1 1229.98,-220.856 1233.36,-226.989"/>
</g>
<!-- Node6 -->
<g id="node6" class="node"><title>Node6</title>
<g id="a_node6"><a xlink:href="class_word_quizzle_1_1_w_q_gui.html#a0e3cb31624c4fdda7b58977fe75de341" target="_top" xlink:title="Crea la finestra di gioco durante una sfida.">
<polygon fill="white" stroke="black" points="1002.5,-232.44 1002.5,-251.44 1137.5,-251.44 1137.5,-232.44 1002.5,-232.44"/>
<text text-anchor="middle" x="1070" y="-239.44" font-family="Helvetica,sans-Serif" font-size="10.00">WordQuizzle.WQGui.game</text>
</a>
</g>
</g>
<!-- Node1&#45;&gt;Node6 -->
<g id="edge5" class="edge"><title>Node1&#45;&gt;Node6</title>
<path fill="none" stroke="midnightblue" d="M1179.29,-220.891C1158.91,-224.854 1137.9,-228.937 1119.88,-232.439"/>
<polygon fill="midnightblue" stroke="midnightblue" points="1180.08,-224.303 1189.23,-218.959 1178.75,-217.431 1180.08,-224.303"/>
</g>
<!-- Node8 -->
<g id="node8" class="node"><title>Node8</title>
<g id="a_node8"><a xlink:href="class_word_quizzle_1_1_w_q_cli.html#ae5f342434ec80ce1ed3939fb446de436" target="_top" xlink:title="Gestisce una sfida.">
<polygon fill="white" stroke="black" points="1004.5,-194.44 1004.5,-213.44 1135.5,-213.44 1135.5,-194.44 1004.5,-194.44"/>
<text text-anchor="middle" x="1070" y="-201.44" font-family="Helvetica,sans-Serif" font-size="10.00">WordQuizzle.WQCli.game</text>
</a>
</g>
</g>
<!-- Node1&#45;&gt;Node8 -->
<g id="edge7" class="edge"><title>Node1&#45;&gt;Node8</title>
<path fill="none" stroke="midnightblue" d="M1177.62,-203.94C1163.51,-203.94 1149.15,-203.94 1135.74,-203.94"/>
<polygon fill="midnightblue" stroke="midnightblue" points="1177.83,-207.44 1187.83,-203.94 1177.83,-200.44 1177.83,-207.44"/>
</g>
<!-- Node12 -->
<g id="node12" class="node"><title>Node12</title>
<g id="a_node12"><a xlink:href="class_word_quizzle_1_1_player.html#a5df71a0f2196e8ee3bfff3bc232f4669" target="_top" xlink:title="Restituisce l&#39;indice della prossima domanda da sottoporre al giocatore.">
<polygon fill="white" stroke="black" points="1000,-150.44 1000,-169.44 1140,-169.44 1140,-150.44 1000,-150.44"/>
<text text-anchor="middle" x="1070" y="-157.44" font-family="Helvetica,sans-Serif" font-size="10.00">WordQuizzle.Player.getNext</text>
</a>
</g>
</g>
<!-- Node1&#45;&gt;Node12 -->
<g id="edge12" class="edge"><title>Node1&#45;&gt;Node12</title>
<path fill="none" stroke="midnightblue" d="M1189.89,-186.699C1163.82,-180.831 1135.64,-174.489 1113.27,-169.453"/>
<polygon fill="midnightblue" stroke="midnightblue" points="1189.24,-190.14 1199.77,-188.921 1190.78,-183.311 1189.24,-190.14"/>
</g>
<!-- Node19 -->
<g id="node19" class="node"><title>Node19</title>
<g id="a_node19"><a xlink:href="class_word_quizzle_1_1_player.html#ad49b0929ec96521b65f67f861654bbe6" target="_top" xlink:title="Verifica se l&#39;utente ha terminato la sfida.">
<polygon fill="white" stroke="black" points="386,-24.4403 386,-43.4403 548,-43.4403 548,-24.4403 386,-24.4403"/>
<text text-anchor="middle" x="467" y="-31.4403" font-family="Helvetica,sans-Serif" font-size="10.00">WordQuizzle.Player.isTerminated</text>
</a>
</g>
</g>
<!-- Node1&#45;&gt;Node19 -->
<g id="edge20" class="edge"><title>Node1&#45;&gt;Node19</title>
<path fill="none" stroke="midnightblue" d="M1249.31,-180.613C1229.13,-155.214 1193.14,-115.713 1152,-96.9403 950.206,-4.86077 680.565,-13.3271 548.193,-24.8417"/>
<polygon fill="midnightblue" stroke="midnightblue" points="1246.64,-182.88 1255.53,-188.636 1252.17,-178.589 1246.64,-182.88"/>
</g>
<!-- Node21 -->
<g id="node21" class="node"><title>Node21</title>
<g id="a_node21"><a xlink:href="class_word_quizzle_1_1_challenge.html#a88b843bf595b590ca87dcc196861a364" target="_top" xlink:title="Genera la stringa contenente le statistiche di un utente.">
<polygon fill="white" stroke="black" points="590.5,-68.4403 590.5,-87.4403 736.5,-87.4403 736.5,-68.4403 590.5,-68.4403"/>
<text text-anchor="middle" x="663.5" y="-75.4403" font-family="Helvetica,sans-Serif" font-size="10.00">WordQuizzle.Challenge.result</text>
</a>
</g>
</g>
<!-- Node1&#45;&gt;Node21 -->
<g id="edge24" class="edge"><title>Node1&#45;&gt;Node21</title>
<path fill="none" stroke="midnightblue" d="M1235.13,-183.187C1212.8,-169.305 1181.62,-151.679 1152,-140.94 1011,-89.8218 833.832,-79.1986 736.614,-77.5616"/>
<polygon fill="midnightblue" stroke="midnightblue" points="1233.5,-186.3 1243.83,-188.683 1237.24,-180.382 1233.5,-186.3"/>
</g>
<!-- Node4 -->
<g id="node4" class="node"><title>Node4</title>
<g id="a_node4"><a xlink:href="class_word_quizzle_1_1_bot.html#aa088d2cccb4552d9277db7908b7cc706" target="_top" xlink:title="Avvia il bot.">
<polygon fill="white" stroke="black" points="812,-308.44 812,-327.44 919,-327.44 919,-308.44 812,-308.44"/>
<text text-anchor="middle" x="865.5" y="-315.44" font-family="Helvetica,sans-Serif" font-size="10.00">WordQuizzle.Bot.run</text>
</a>
</g>
</g>
<!-- Node3&#45;&gt;Node4 -->
<g id="edge3" class="edge"><title>Node3&#45;&gt;Node4</title>
<path fill="none" stroke="midnightblue" d="M1008.15,-291.358C979.179,-296.796 944.925,-303.224 917.359,-308.396"/>
<polygon fill="midnightblue" stroke="midnightblue" points="1008.98,-294.765 1018.16,-289.48 1007.69,-287.885 1008.98,-294.765"/>
</g>
<!-- Node5 -->
<g id="node5" class="node"><title>Node5</title>
<g id="a_node5"><a xlink:href="class_word_quizzle_1_1_bot.html#a1092df275f21d17d0b0a7edf7bbb59f2" target="_top" xlink:title="Esegue un bot.">
<polygon fill="white" stroke="black" points="606,-308.44 606,-327.44 721,-327.44 721,-308.44 606,-308.44"/>
<text text-anchor="middle" x="663.5" y="-315.44" font-family="Helvetica,sans-Serif" font-size="10.00">WordQuizzle.Bot.main</text>
</a>
</g>
</g>
<!-- Node4&#45;&gt;Node5 -->
<g id="edge4" class="edge"><title>Node4&#45;&gt;Node5</title>
<path fill="none" stroke="midnightblue" d="M801.902,-317.94C776.1,-317.94 746.416,-317.94 721.256,-317.94"/>
<polygon fill="midnightblue" stroke="midnightblue" points="801.952,-321.44 811.952,-317.94 801.952,-314.44 801.952,-321.44"/>
</g>
<!-- Node7 -->
<g id="node7" class="node"><title>Node7</title>
<g id="a_node7"><a xlink:href="class_word_quizzle_1_1_notifier.html#ad051f74dab1ae47c4453f9d094b6d0c4" target="_top" xlink:title="Attende l&#39;arrivo di una richiesta e se il client non e&#39; impegnato in una sfida gli notifica la richie...">
<polygon fill="white" stroke="black" points="804.5,-270.44 804.5,-289.44 926.5,-289.44 926.5,-270.44 804.5,-270.44"/>
<text text-anchor="middle" x="865.5" y="-277.44" font-family="Helvetica,sans-Serif" font-size="10.00">WordQuizzle.Notifier.run</text>
</a>
</g>
</g>
<!-- Node6&#45;&gt;Node7 -->
<g id="edge6" class="edge"><title>Node6&#45;&gt;Node7</title>
<path fill="none" stroke="midnightblue" d="M1008.15,-253.358C979.179,-258.796 944.925,-265.224 917.359,-270.396"/>
<polygon fill="midnightblue" stroke="midnightblue" points="1008.98,-256.765 1018.16,-251.48 1007.69,-249.885 1008.98,-256.765"/>
</g>
<!-- Node9 -->
<g id="node9" class="node"><title>Node9</title>
<g id="a_node9"><a xlink:href="class_word_quizzle_1_1_w_q_cli.html#a7b07b55738bdd5da89a2ef645afdc020" target="_top" xlink:title="Gestisce una richiesta di sfida.">
<polygon fill="white" stroke="black" points="779,-232.44 779,-251.44 952,-251.44 952,-232.44 779,-232.44"/>
<text text-anchor="middle" x="865.5" y="-239.44" font-family="Helvetica,sans-Serif" font-size="10.00">WordQuizzle.WQCli.nuovaRichiesta</text>
</a>
</g>
</g>
<!-- Node8&#45;&gt;Node9 -->
<g id="edge8" class="edge"><title>Node8&#45;&gt;Node9</title>
<path fill="none" stroke="midnightblue" d="M1008.15,-215.358C979.179,-220.796 944.925,-227.224 917.359,-232.396"/>
<polygon fill="midnightblue" stroke="midnightblue" points="1008.98,-218.765 1018.16,-213.48 1007.69,-211.885 1008.98,-218.765"/>
</g>
<!-- Node11 -->
<g id="node11" class="node"><title>Node11</title>
<g id="a_node11"><a xlink:href="class_word_quizzle_1_1_w_q_cli.html#a318ef86f91a825da4ff4684bd3332a6b" target="_top" xlink:title="Gestisce le richieste dell&#39;utente.">
<polygon fill="white" stroke="black" points="800,-194.44 800,-213.44 931,-213.44 931,-194.44 800,-194.44"/>
<text text-anchor="middle" x="865.5" y="-201.44" font-family="Helvetica,sans-Serif" font-size="10.00">WordQuizzle.WQCli.parse</text>
</a>
</g>
</g>
<!-- Node8&#45;&gt;Node11 -->
<g id="edge10" class="edge"><title>Node8&#45;&gt;Node11</title>
<path fill="none" stroke="midnightblue" d="M994.345,-203.94C973.626,-203.94 951.309,-203.94 931.21,-203.94"/>
<polygon fill="midnightblue" stroke="midnightblue" points="994.371,-207.44 1004.37,-203.94 994.371,-200.44 994.371,-207.44"/>
</g>
<!-- Node10 -->
<g id="node10" class="node"><title>Node10</title>
<g id="a_node10"><a xlink:href="class_word_quizzle_1_1_w_q_cli.html#a7c2d51051cc7f1b20c57c1424d3b7727" target="_top" xlink:title="Gestisce l&#39;interazione con l&#39;utente.">
<polygon fill="white" stroke="black" points="599.5,-213.44 599.5,-232.44 727.5,-232.44 727.5,-213.44 599.5,-213.44"/>
<text text-anchor="middle" x="663.5" y="-220.44" font-family="Helvetica,sans-Serif" font-size="10.00">WordQuizzle.WQCli.main</text>
</a>
</g>
</g>
<!-- Node9&#45;&gt;Node10 -->
<g id="edge9" class="edge"><title>Node9&#45;&gt;Node10</title>
<path fill="none" stroke="midnightblue" d="M768.698,-232.839C754.76,-231.515 740.713,-230.181 727.643,-228.939"/>
<polygon fill="midnightblue" stroke="midnightblue" points="768.525,-236.338 778.812,-233.8 769.188,-229.37 768.525,-236.338"/>
</g>
<!-- Node11&#45;&gt;Node10 -->
<g id="edge11" class="edge"><title>Node11&#45;&gt;Node10</title>
<path fill="none" stroke="midnightblue" d="M789.632,-211.053C769.201,-212.994 747.273,-215.077 727.571,-216.949"/>
<polygon fill="midnightblue" stroke="midnightblue" points="790.218,-214.513 799.842,-210.083 789.556,-207.544 790.218,-214.513"/>
</g>
<!-- Node13 -->
<g id="node13" class="node"><title>Node13</title>
<g id="a_node13"><a xlink:href="class_word_quizzle_1_1_challenge.html#aa7b93cfc7d1927c0b1c060cc387321b9" target="_top" xlink:title="Gestisce la sfida.">
<polygon fill="white" stroke="black" points="20.5,-68.4403 20.5,-87.4403 155.5,-87.4403 155.5,-68.4403 20.5,-68.4403"/>
<text text-anchor="middle" x="88" y="-75.4403" font-family="Helvetica,sans-Serif" font-size="10.00">WordQuizzle.Challenge.run</text>
</a>
</g>
</g>
<!-- Node12&#45;&gt;Node13 -->
<g id="edge13" class="edge"><title>Node12&#45;&gt;Node13</title>
<path fill="none" stroke="midnightblue" d="M1021.3,-148.116C1000.19,-143.306 974.984,-138.138 952,-134.94 825.165,-117.293 792.557,-115.94 664.5,-115.94 664.5,-115.94 664.5,-115.94 466,-115.94 352.689,-115.94 221.182,-98.7366 147.265,-87.4803"/>
<polygon fill="midnightblue" stroke="midnightblue" points="1020.78,-151.587 1031.31,-150.438 1022.36,-144.768 1020.78,-151.587"/>
</g>
<!-- Node14 -->
<g id="node14" class="node"><title>Node14</title>
<g id="a_node14"><a xlink:href="class_word_quizzle_1_1_challenge.html#ad9edc220ce2d24274149ab8c6a564a0a" target="_top" xlink:title="Aggiunge l&#39;utente sfidato alla sfida e la avvia.">
<polygon fill="white" stroke="black" points="798,-144.94 798,-174.94 933,-174.94 933,-144.94 798,-144.94"/>
<text text-anchor="start" x="806" y="-162.94" font-family="Helvetica,sans-Serif" font-size="10.00">WordQuizzle.Challenge.set</text>
<text text-anchor="middle" x="865.5" y="-151.94" font-family="Helvetica,sans-Serif" font-size="10.00">Player2</text>
</a>
</g>
</g>
<!-- Node12&#45;&gt;Node14 -->
<g id="edge14" class="edge"><title>Node12&#45;&gt;Node14</title>
<path fill="none" stroke="midnightblue" d="M989.639,-159.94C970.986,-159.94 951.293,-159.94 933.258,-159.94"/>
<polygon fill="midnightblue" stroke="midnightblue" points="989.877,-163.44 999.877,-159.94 989.877,-156.44 989.877,-163.44"/>
</g>
<!-- Node15 -->
<g id="node15" class="node"><title>Node15</title>
<g id="a_node15"><a xlink:href="class_word_quizzle_1_1_word_quizzle_server_service.html#aebc8c566d10a0d24752a33f146f03a2a" target="_top" xlink:title="Accetta una richiesta di sfida inviata da nickAmico.">
<polygon fill="white" stroke="black" points="584,-144.94 584,-174.94 743,-174.94 743,-144.94 584,-144.94"/>
<text text-anchor="start" x="592" y="-162.94" font-family="Helvetica,sans-Serif" font-size="10.00">WordQuizzle.WordQuizzleServer</text>
<text text-anchor="middle" x="663.5" y="-151.94" font-family="Helvetica,sans-Serif" font-size="10.00">Service.accettaSfida</text>
</a>
</g>
</g>
<!-- Node14&#45;&gt;Node15 -->
<g id="edge15" class="edge"><title>Node14&#45;&gt;Node15</title>
<path fill="none" stroke="midnightblue" d="M787.492,-159.94C773.002,-159.94 757.832,-159.94 743.29,-159.94"/>
<polygon fill="midnightblue" stroke="midnightblue" points="787.903,-163.44 797.903,-159.94 787.903,-156.44 787.903,-163.44"/>
</g>
<!-- Node16 -->
<g id="node16" class="node"><title>Node16</title>
<g id="a_node16"><a xlink:href="class_word_quizzle_1_1_session.html#a21992c338367b1a3c2e57fdb7cae3018" target="_top" xlink:title="Gestisce effettivamente la richiesta del client.">
<polygon fill="white" stroke="black" points="391,-148.44 391,-167.44 543,-167.44 543,-148.44 391,-148.44"/>
<text text-anchor="middle" x="467" y="-155.44" font-family="Helvetica,sans-Serif" font-size="10.00">WordQuizzle.Session.compute</text>
</a>
</g>
</g>
<!-- Node15&#45;&gt;Node16 -->
<g id="edge16" class="edge"><title>Node15&#45;&gt;Node16</title>
<path fill="none" stroke="midnightblue" d="M573.752,-159.028C563.495,-158.922 553.11,-158.816 543.06,-158.712"/>
<polygon fill="midnightblue" stroke="midnightblue" points="573.915,-162.53 583.95,-159.133 573.987,-155.53 573.915,-162.53"/>
</g>
<!-- Node17 -->
<g id="node17" class="node"><title>Node17</title>
<g id="a_node17"><a xlink:href="class_word_quizzle_1_1_session.html#a6793f02ea7cab6fffe0361893cf40178" target="_top" xlink:title="Riceve una stringa contenente uan richiesta da parte del client e la gestisce.">
<polygon fill="white" stroke="black" points="212,-145.44 212,-164.44 350,-164.44 350,-145.44 212,-145.44"/>
<text text-anchor="middle" x="281" y="-152.44" font-family="Helvetica,sans-Serif" font-size="10.00">WordQuizzle.Session.parse</text>
</a>
</g>
</g>
<!-- Node16&#45;&gt;Node17 -->
<g id="edge17" class="edge"><title>Node16&#45;&gt;Node17</title>
<path fill="none" stroke="midnightblue" d="M380.684,-156.549C370.416,-156.382 360.037,-156.213 350.061,-156.05"/>
<polygon fill="midnightblue" stroke="midnightblue" points="380.839,-160.052 390.895,-156.716 380.953,-153.053 380.839,-160.052"/>
</g>
<!-- Node17&#45;&gt;Node13 -->
<g id="edge19" class="edge"><title>Node17&#45;&gt;Node13</title>
<path fill="none" stroke="midnightblue" d="M243.582,-141.915C233.33,-138.149 222.195,-133.967 212,-129.94 176.205,-115.803 135.114,-98.1357 110.645,-87.4605"/>
<polygon fill="midnightblue" stroke="midnightblue" points="242.488,-145.241 253.082,-145.378 244.886,-138.665 242.488,-145.241"/>
</g>
<!-- Node18 -->
<g id="node18" class="node"><title>Node18</title>
<g id="a_node18"><a xlink:href="class_word_quizzle_1_1_word_quizzle_server.html#a4aa19bad373d06a790babba1e5b67644" target="_top" xlink:title="Gestisce le interazioni con i client.">
<polygon fill="white" stroke="black" points="0,-145.44 0,-164.44 176,-164.44 176,-145.44 0,-145.44"/>
<text text-anchor="middle" x="88" y="-152.44" font-family="Helvetica,sans-Serif" font-size="10.00">WordQuizzle.WordQuizzleServer.run</text>
</a>
</g>
</g>
<!-- Node17&#45;&gt;Node18 -->
<g id="edge18" class="edge"><title>Node17&#45;&gt;Node18</title>
<path fill="none" stroke="midnightblue" d="M201.692,-154.94C193.27,-154.94 184.665,-154.94 176.149,-154.94"/>
<polygon fill="midnightblue" stroke="midnightblue" points="201.854,-158.44 211.854,-154.94 201.853,-151.44 201.854,-158.44"/>
</g>
<!-- Node19&#45;&gt;Node13 -->
<g id="edge23" class="edge"><title>Node19&#45;&gt;Node13</title>
<path fill="none" stroke="midnightblue" d="M426.258,-21.5542C375.682,-7.70701 285.998,10.3978 212,-8.94034 167.464,-20.5789 122.006,-52.3355 100.998,-68.385"/>
<polygon fill="midnightblue" stroke="midnightblue" points="425.562,-24.9944 436.137,-24.3419 427.463,-18.2575 425.562,-24.9944"/>
</g>
<!-- Node20 -->
<g id="node20" class="node"><title>Node20</title>
<g id="a_node20"><a xlink:href="class_word_quizzle_1_1_challenge.html#a4587e95b2628810f0c66278e90a9934c" target="_top" xlink:title="Verifica se la sfida e&#39; terminata.">
<polygon fill="white" stroke="black" points="216.5,-18.9403 216.5,-48.9403 345.5,-48.9403 345.5,-18.9403 216.5,-18.9403"/>
<text text-anchor="start" x="224.5" y="-36.9403" font-family="Helvetica,sans-Serif" font-size="10.00">WordQuizzle.Challenge.is</text>
<text text-anchor="middle" x="281" y="-25.9403" font-family="Helvetica,sans-Serif" font-size="10.00">Terminated</text>
</a>
</g>
</g>
<!-- Node19&#45;&gt;Node20 -->
<g id="edge21" class="edge"><title>Node19&#45;&gt;Node20</title>
<path fill="none" stroke="midnightblue" d="M375.688,-33.9403C365.519,-33.9403 355.321,-33.9403 345.594,-33.9403"/>
<polygon fill="midnightblue" stroke="midnightblue" points="375.83,-37.4404 385.83,-33.9403 375.83,-30.4404 375.83,-37.4404"/>
</g>
<!-- Node20&#45;&gt;Node13 -->
<g id="edge22" class="edge"><title>Node20&#45;&gt;Node13</title>
<path fill="none" stroke="midnightblue" d="M206.628,-50.8427C180.796,-56.7935 152.679,-63.2709 130.413,-68.4002"/>
<polygon fill="midnightblue" stroke="midnightblue" points="207.441,-54.2473 216.4,-48.5917 205.869,-47.426 207.441,-54.2473"/>
</g>
<!-- Node22 -->
<g id="node22" class="node"><title>Node22</title>
<g id="a_node22"><a xlink:href="class_word_quizzle_1_1_challenge.html#a872c3c6f72016561647d84843cbbdc48" target="_top" xlink:title="Conclude la sfida.">
<polygon fill="white" stroke="black" points="398.5,-68.4403 398.5,-87.4403 535.5,-87.4403 535.5,-68.4403 398.5,-68.4403"/>
<text text-anchor="middle" x="467" y="-75.4403" font-family="Helvetica,sans-Serif" font-size="10.00">WordQuizzle.Challenge.end</text>
</a>
</g>
</g>
<!-- Node21&#45;&gt;Node22 -->
<g id="edge25" class="edge"><title>Node21&#45;&gt;Node22</title>
<path fill="none" stroke="midnightblue" d="M580.145,-77.9403C565.268,-77.9403 549.913,-77.9403 535.52,-77.9403"/>
<polygon fill="midnightblue" stroke="midnightblue" points="580.352,-81.4404 590.352,-77.9403 580.352,-74.4404 580.352,-81.4404"/>
</g>
<!-- Node22&#45;&gt;Node13 -->
<g id="edge26" class="edge"><title>Node22&#45;&gt;Node13</title>
<path fill="none" stroke="midnightblue" d="M387.848,-77.9403C319.259,-77.9403 220.585,-77.9403 155.657,-77.9403"/>
<polygon fill="midnightblue" stroke="midnightblue" points="388.165,-81.4404 398.165,-77.9403 388.165,-74.4404 388.165,-81.4404"/>
</g>
</g>
</svg>
        <g id="navigator" transform="translate(0 0)" fill="#404254">
                <rect fill="#f2f5e9" fill-opacity="0.5" stroke="#606060" stroke-width=".5" x="0" y="0" width="60" height="60"/>
                <use id="zoomplus" xlink:href="#zoomPlus" x="17" y="9" onmousedown="handleZoom(evt,'in')"/>
                <use id="zoomminus" xlink:href="#zoomMin" x="42" y="9" onmousedown="handleZoom(evt,'out')"/>
                <use id="reset" xlink:href="#resetDef" x="30" y="36" onmousedown="handleReset()"/>
                <g id="arrowUp" xlink:href="#dirArrow" transform="translate(30 24)" onmousedown="handlePan(0,-1)">
                  <use xlink:href="#rim" fill="#404040">
                        <set attributeName="fill" to="#808080" begin="arrowUp.mouseover" end="arrowUp.mouseout"/>
                  </use>
                  <path fill="none" stroke="white" stroke-width="1.5" d="M0,-3.0v7 M-2.5,-0.5L0,-3.0L2.5,-0.5"/>
                </g>
                <g id="arrowRight" xlink:href="#dirArrow" transform="rotate(90) translate(36 -43)" onmousedown="handlePan(1,0)">
                  <use xlink:href="#rim" fill="#404040">
                        <set attributeName="fill" to="#808080" begin="arrowRight.mouseover" end="arrowRight.mouseout"/>
                  </use>
                  <path fill="none" stroke="white" stroke-width="1.5" d="M0,-3.0v7 M-2.5,-0.5L0,-3.0L2.5,-0.5"/>
                </g>
                <g id="arrowDown" xlink:href="#dirArrow" transform="rotate(180) translate(-30 -48)" onmousedown="handlePan(0,1)">
                  <use xlink:href="#rim" fill="#404040">
                        <set attributeName="fill" to="#808080" begin="arrowDown.mouseover" end="arrowDown.mouseout"/>
                  </use>
                  <path fill="none" stroke="white" stroke-width="1.5" d="M0,-3.0v7 M-2.5,-0.5L0,-3.0L2.5,-0.5"/>
                </g>
                <g id="arrowLeft" xlink:href="#dirArrow" transform="rotate(270) translate(-36 17)" onmousedown="handlePan(-1,0)">
                  <use xlink:href="#rim" fill="#404040">
                        <set attributeName="fill" to="#808080" begin="arrowLeft.mouseover" end="arrowLeft.mouseout"/>
                  </use>
                  <path fill="none" stroke="white" stroke-width="1.5" d="M0,-3.0v7 M-2.5,-0.5L0,-3.0L2.5,-0.5"/>
                </g>
        </g>
        <svg viewBox="0 0 15 15" width="100%" height="30px" preserveAspectRatio="xMaxYMin meet">
         <g id="arrow_out" transform="scale(0.3 0.3)">
          <a xlink:href="class_word_quizzle_1_1_word_quizzle_server_service_a970fe0e2dd7457bab2c64ae722a912fc_icgraph_org.svg" target="_base">
           <rect id="button" ry="5" rx="5" y="6" x="6" height="38" width="38"
                fill="#f2f5e9" fill-opacity="0.5" stroke="#606060" stroke-width="1.0"/>
           <path id="arrow"
             d="M 11.500037,31.436501 C 11.940474,20.09759 22.043105,11.32322 32.158766,21.979434 L 37.068811,17.246167 C 37.068811,17.246167 37.088388,32 37.088388,32 L 22.160133,31.978069 C 22.160133,31.978069 26.997745,27.140456 26.997745,27.140456 C 18.528582,18.264221 13.291696,25.230495 11.500037,31.436501 z"
             style="fill:#404040;"/>
          </a>
         </g>
        </svg>
</svg>
