<?xml version="1.0" encoding="UTF-8" standalone="no"?>
<!DOCTYPE svg PUBLIC "-//W3C//DTD SVG 1.1//EN"
 "http://www.w3.org/Graphics/SVG/1.1/DTD/svg11.dtd">
<!-- Generated by graphviz version 2.38.0 (20140413.2041)
 -->
<!-- Title: Session.newBfs Pages: 1 -->
<svg width="246pt" height="66pt"
 viewBox="0.00 0.00 246.00 66.00" xmlns="http://www.w3.org/2000/svg" xmlns:xlink="http://www.w3.org/1999/xlink">
<g id="graph0" class="graph" transform="scale(1 1) rotate(0) translate(4 62)">
<title>Session.newBfs</title>
<polygon fill="white" stroke="none" points="-4,4 -4,-62 242,-62 242,4 -4,4"/>
<!-- Node1 -->
<g id="node1" class="node"><title>Node1</title>
<g id="a_node1"><a xlink:title="Crea un nuovo ByteBuffer Array.">
<polygon fill="#bfbfbf" stroke="black" points="152,-19.5 152,-38.5 238,-38.5 238,-19.5 152,-19.5"/>
<text text-anchor="middle" x="195" y="-26.5" font-family="Helvetica,sans-Serif" font-size="10.00">Session.newBfs</text>
</a>
</g>
</g>
<!-- Node2 -->
<g id="node2" class="node"><title>Node2</title>
<g id="a_node2"><a xlink:href="class_word_quizzle_server.html#a1414f39eeaaf2dbe0885f4d77a12c466" target="_top" xlink:title="Gestisce le interazioni con i client.">
<polygon fill="white" stroke="black" points="0,-38.5 0,-57.5 116,-57.5 116,-38.5 0,-38.5"/>
<text text-anchor="middle" x="58" y="-45.5" font-family="Helvetica,sans-Serif" font-size="10.00">WordQuizzleServer.run</text>
</a>
</g>
</g>
<!-- Node1&#45;&gt;Node2 -->
<g id="edge1" class="edge"><title>Node1&#45;&gt;Node2</title>
<path fill="none" stroke="midnightblue" d="M141.628,-36.3709C133.243,-37.551 124.53,-38.7773 116.043,-39.9718"/>
<polygon fill="midnightblue" stroke="midnightblue" points="142.241,-39.8192 151.656,-34.9596 141.265,-32.8875 142.241,-39.8192"/>
</g>
<!-- Node3 -->
<g id="node3" class="node"><title>Node3</title>
<g id="a_node3"><a xlink:href="class_challenge.html#adfd88e7904c2d0954ca82e07890c5ca4" target="_top" xlink:title="Gestisce la sfida.">
<polygon fill="white" stroke="black" points="20,-0.5 20,-19.5 96,-19.5 96,-0.5 20,-0.5"/>
<text text-anchor="middle" x="58" y="-7.5" font-family="Helvetica,sans-Serif" font-size="10.00">Challenge.run</text>
</a>
</g>
</g>
<!-- Node1&#45;&gt;Node3 -->
<g id="edge2" class="edge"><title>Node1&#45;&gt;Node3</title>
<path fill="none" stroke="midnightblue" d="M141.404,-21.5977C126.298,-19.4716 110.143,-17.1979 96.1754,-15.2321"/>
<polygon fill="midnightblue" stroke="midnightblue" points="141.265,-25.1125 151.656,-23.0404 142.241,-18.1808 141.265,-25.1125"/>
</g>
</g>
</svg>
