<?xml version="1.0" encoding="UTF-8" standalone="no"?>
<!DOCTYPE svg PUBLIC "-//W3C//DTD SVG 1.1//EN"
 "http://www.w3.org/Graphics/SVG/1.1/DTD/svg11.dtd">
<!-- Generated by graphviz version 2.38.0 (20140413.2041)
 -->
<!-- Title: Session.parse Pages: 1 -->
<svg width="566pt" height="302pt"
 viewBox="0.00 0.00 566.00 301.50" xmlns="http://www.w3.org/2000/svg" xmlns:xlink="http://www.w3.org/1999/xlink">
<g id="graph0" class="graph" transform="scale(1 1) rotate(0) translate(4 297.5)">
<title>Session.parse</title>
<polygon fill="white" stroke="none" points="-4,4 -4,-297.5 562,-297.5 562,4 -4,4"/>
<!-- Node1 -->
<g id="node1" class="node"><title>Node1</title>
<g id="a_node1"><a xlink:title=" ">
<polygon fill="#bfbfbf" stroke="black" points="0,-126.5 0,-145.5 79,-145.5 79,-126.5 0,-126.5"/>
<text text-anchor="middle" x="39.5" y="-133.5" font-family="Helvetica,sans-Serif" font-size="10.00">Session.parse</text>
</a>
</g>
</g>
<!-- Node2 -->
<g id="node2" class="node"><title>Node2</title>
<g id="a_node2"><a xlink:href="class_session.html#a56e3ffab046de2082083cfc54b5d8e72" target="_top" xlink:title=" ">
<polygon fill="white" stroke="black" points="115,-126.5 115,-145.5 207,-145.5 207,-126.5 115,-126.5"/>
<text text-anchor="middle" x="161" y="-133.5" font-family="Helvetica,sans-Serif" font-size="10.00">Session.compute</text>
</a>
</g>
</g>
<!-- Node1&#45;&gt;Node2 -->
<g id="edge1" class="edge"><title>Node1&#45;&gt;Node2</title>
<path fill="none" stroke="midnightblue" d="M79.2982,-136C87.3411,-136 95.9639,-136 104.472,-136"/>
<polygon fill="midnightblue" stroke="midnightblue" points="104.746,-139.5 114.746,-136 104.746,-132.5 104.746,-139.5"/>
</g>
<!-- Node3 -->
<g id="node3" class="node"><title>Node3</title>
<g id="a_node3"><a xlink:href="class_word_quizzle_server_service.html#ab25a00b519044ce4181c66fa3f412815" target="_top" xlink:title=" ">
<polygon fill="white" stroke="black" points="244.5,-263 244.5,-293 411.5,-293 411.5,-263 244.5,-263"/>
<text text-anchor="start" x="252.5" y="-281" font-family="Helvetica,sans-Serif" font-size="10.00">WordQuizzleServerService.accetta</text>
<text text-anchor="middle" x="328" y="-270" font-family="Helvetica,sans-Serif" font-size="10.00">Sfida</text>
</a>
</g>
</g>
<!-- Node2&#45;&gt;Node3 -->
<g id="edge2" class="edge"><title>Node2&#45;&gt;Node3</title>
<path fill="none" stroke="midnightblue" d="M165.853,-145.623C175.38,-168.162 202.259,-224.682 243,-254 245.101,-255.512 247.294,-256.928 249.559,-258.256"/>
<polygon fill="midnightblue" stroke="midnightblue" points="248.116,-261.45 258.604,-262.949 251.339,-255.236 248.116,-261.45"/>
</g>
<!-- Node4 -->
<g id="node4" class="node"><title>Node4</title>
<g id="a_node4"><a xlink:href="class_word_quizzle_server_service.html#a378a2523ed3c3c05001a6a3f5216ca82" target="_top" xlink:title=" ">
<polygon fill="white" stroke="black" points="243,-214 243,-244 413,-244 413,-214 243,-214"/>
<text text-anchor="start" x="251" y="-232" font-family="Helvetica,sans-Serif" font-size="10.00">WordQuizzleServerService.aggiungi</text>
<text text-anchor="middle" x="328" y="-221" font-family="Helvetica,sans-Serif" font-size="10.00">_amico</text>
</a>
</g>
</g>
<!-- Node2&#45;&gt;Node4 -->
<g id="edge3" class="edge"><title>Node2&#45;&gt;Node4</title>
<path fill="none" stroke="midnightblue" d="M170.963,-145.982C184.928,-160.944 213.366,-189.12 243,-205 246.436,-206.841 250.029,-208.555 253.713,-210.148"/>
<polygon fill="midnightblue" stroke="midnightblue" points="252.433,-213.405 263.018,-213.862 255.028,-206.904 252.433,-213.405"/>
</g>
<!-- Node7 -->
<g id="node7" class="node"><title>Node7</title>
<g id="a_node7"><a xlink:href="class_word_quizzle_server_service.html#a7d1e0c830ff9c94df196ed2d4e49e703" target="_top" xlink:title=" ">
<polygon fill="white" stroke="black" points="252,-165 252,-195 404,-195 404,-165 252,-165"/>
<text text-anchor="start" x="260" y="-183" font-family="Helvetica,sans-Serif" font-size="10.00">WordQuizzleServerService.lista</text>
<text text-anchor="middle" x="328" y="-172" font-family="Helvetica,sans-Serif" font-size="10.00">_amici</text>
</a>
</g>
</g>
<!-- Node2&#45;&gt;Node7 -->
<g id="edge6" class="edge"><title>Node2&#45;&gt;Node7</title>
<path fill="none" stroke="midnightblue" d="M197.803,-145.547C216.214,-150.457 239.251,-156.6 260.755,-162.335"/>
<polygon fill="midnightblue" stroke="midnightblue" points="259.941,-165.74 270.505,-164.935 261.744,-158.976 259.941,-165.74"/>
</g>
<!-- Node10 -->
<g id="node10" class="node"><title>Node10</title>
<g id="a_node10"><a xlink:href="class_word_quizzle_server_service.html#a75f5865caa37a7f0d2c2f5c95940c7d9" target="_top" xlink:title=" ">
<polygon fill="white" stroke="black" points="250.5,-126.5 250.5,-145.5 405.5,-145.5 405.5,-126.5 250.5,-126.5"/>
<text text-anchor="middle" x="328" y="-133.5" font-family="Helvetica,sans-Serif" font-size="10.00">WordQuizzleServerService.login</text>
</a>
</g>
</g>
<!-- Node2&#45;&gt;Node10 -->
<g id="edge10" class="edge"><title>Node2&#45;&gt;Node10</title>
<path fill="none" stroke="midnightblue" d="M207.087,-136C217.419,-136 228.744,-136 240.18,-136"/>
<polygon fill="midnightblue" stroke="midnightblue" points="240.236,-139.5 250.236,-136 240.236,-132.5 240.236,-139.5"/>
</g>
<!-- Node12 -->
<g id="node12" class="node"><title>Node12</title>
<g id="a_node12"><a xlink:href="class_word_quizzle_server_service.html#a277b16eeb84a3171777351f482157c0b" target="_top" xlink:title=" ">
<polygon fill="white" stroke="black" points="247.5,-0.5 247.5,-19.5 408.5,-19.5 408.5,-0.5 247.5,-0.5"/>
<text text-anchor="middle" x="328" y="-7.5" font-family="Helvetica,sans-Serif" font-size="10.00">WordQuizzleServerService.logout</text>
</a>
</g>
</g>
<!-- Node2&#45;&gt;Node12 -->
<g id="edge14" class="edge"><title>Node2&#45;&gt;Node12</title>
<path fill="none" stroke="midnightblue" d="M166.463,-126.185C176.702,-104.844 204.032,-54.1227 243,-29 246.204,-26.9341 249.604,-25.0912 253.128,-23.4475"/>
<polygon fill="midnightblue" stroke="midnightblue" points="254.76,-26.5619 262.698,-19.545 252.117,-20.0801 254.76,-26.5619"/>
</g>
<!-- Node13 -->
<g id="node13" class="node"><title>Node13</title>
<g id="a_node13"><a xlink:href="class_word_quizzle_server_service.html#a8002d35c102aec827bb58c4f1ca7b295" target="_top" xlink:title=" ">
<polygon fill="white" stroke="black" points="246,-77 246,-107 410,-107 410,-77 246,-77"/>
<text text-anchor="start" x="254" y="-95" font-family="Helvetica,sans-Serif" font-size="10.00">WordQuizzleServerService.mostra</text>
<text text-anchor="middle" x="328" y="-84" font-family="Helvetica,sans-Serif" font-size="10.00">_punteggio</text>
</a>
</g>
</g>
<!-- Node2&#45;&gt;Node13 -->
<g id="edge15" class="edge"><title>Node2&#45;&gt;Node13</title>
<path fill="none" stroke="midnightblue" d="M197.803,-126.453C216.214,-121.543 239.251,-115.4 260.755,-109.665"/>
<polygon fill="midnightblue" stroke="midnightblue" points="261.744,-113.024 270.505,-107.065 259.941,-106.26 261.744,-113.024"/>
</g>
<!-- Node15 -->
<g id="node15" class="node"><title>Node15</title>
<g id="a_node15"><a xlink:href="class_word_quizzle_server_service.html#afc47f0b66a46f079c4bed5e579e9a173" target="_top" xlink:title=" ">
<polygon fill="white" stroke="black" points="250.5,-38.5 250.5,-57.5 405.5,-57.5 405.5,-38.5 250.5,-38.5"/>
<text text-anchor="middle" x="328" y="-45.5" font-family="Helvetica,sans-Serif" font-size="10.00">WordQuizzleServerService.sfida</text>
</a>
</g>
</g>
<!-- Node2&#45;&gt;Node15 -->
<g id="edge19" class="edge"><title>Node2&#45;&gt;Node15</title>
<path fill="none" stroke="midnightblue" d="M170.404,-126.306C184.057,-111.202 212.603,-82.2119 243,-67 247.847,-64.5744 253.005,-62.4547 258.29,-60.603"/>
<polygon fill="midnightblue" stroke="midnightblue" points="259.428,-63.9141 267.899,-57.5511 257.309,-57.2425 259.428,-63.9141"/>
</g>
<!-- Node5 -->
<g id="node5" class="node"><title>Node5</title>
<g id="a_node5"><a xlink:href="interface_data_base.html#a580f93c56dbbed8b2fb1fc2e856efe68" target="_top" xlink:title="Controlla che quel nome utente sia nel database.">
<polygon fill="white" stroke="black" points="449,-123.5 449,-142.5 558,-142.5 558,-123.5 449,-123.5"/>
<text text-anchor="middle" x="503.5" y="-130.5" font-family="Helvetica,sans-Serif" font-size="10.00">DataBase.checkUser</text>
</a>
</g>
</g>
<!-- Node4&#45;&gt;Node5 -->
<g id="edge4" class="edge"><title>Node4&#45;&gt;Node5</title>
<path fill="none" stroke="midnightblue" d="M397.414,-213.974C402.925,-211.434 408.207,-208.467 413,-205 436.072,-188.311 426.464,-169.407 449,-152 451.418,-150.132 454.035,-148.438 456.767,-146.903"/>
<polygon fill="midnightblue" stroke="midnightblue" points="458.318,-150.041 465.784,-142.524 455.26,-143.745 458.318,-150.041"/>
</g>
<!-- Node6 -->
<g id="node6" class="node"><title>Node6</title>
<g id="a_node6"><a xlink:href="interface_data_base.html#a4b079bd92d1ca63624e4f01398eb29db" target="_top" xlink:title="Crea un link (amicizia) non orientato tra due utenti.">
<polygon fill="white" stroke="black" points="465,-237.5 465,-256.5 542,-256.5 542,-237.5 465,-237.5"/>
<text text-anchor="middle" x="503.5" y="-244.5" font-family="Helvetica,sans-Serif" font-size="10.00">DataBase.link</text>
</a>
</g>
</g>
<!-- Node4&#45;&gt;Node6 -->
<g id="edge5" class="edge"><title>Node4&#45;&gt;Node6</title>
<path fill="none" stroke="midnightblue" d="M413.209,-237.736C427.515,-239.221 441.914,-240.714 454.847,-242.056"/>
<polygon fill="midnightblue" stroke="midnightblue" points="454.567,-245.546 464.875,-243.097 455.289,-238.583 454.567,-245.546"/>
</g>
<!-- Node7&#45;&gt;Node5 -->
<g id="edge7" class="edge"><title>Node7&#45;&gt;Node5</title>
<path fill="none" stroke="midnightblue" d="M384.374,-165C407.938,-158.616 435.071,-151.266 457.387,-145.221"/>
<polygon fill="midnightblue" stroke="midnightblue" points="458.534,-148.536 467.27,-142.543 456.703,-141.78 458.534,-148.536"/>
</g>
<!-- Node8 -->
<g id="node8" class="node"><title>Node8</title>
<g id="a_node8"><a xlink:href="class_user.html#ac5a53986b756ba9b81c5eb3a5e76f070" target="_top" xlink:title="Restituisce la lista di amici dell&#39;utente.">
<polygon fill="white" stroke="black" points="460.5,-199.5 460.5,-218.5 546.5,-218.5 546.5,-199.5 460.5,-199.5"/>
<text text-anchor="middle" x="503.5" y="-206.5" font-family="Helvetica,sans-Serif" font-size="10.00">User.getFriends</text>
</a>
</g>
</g>
<!-- Node7&#45;&gt;Node8 -->
<g id="edge8" class="edge"><title>Node7&#45;&gt;Node8</title>
<path fill="none" stroke="midnightblue" d="M404.091,-192.551C419.567,-195.138 435.547,-197.809 450.013,-200.227"/>
<polygon fill="midnightblue" stroke="midnightblue" points="449.809,-203.741 460.25,-201.938 450.963,-196.837 449.809,-203.741"/>
</g>
<!-- Node9 -->
<g id="node9" class="node"><title>Node9</title>
<g id="a_node9"><a xlink:href="interface_data_base.html#af660eaf16066006da658ac99fa3f6936" target="_top" xlink:title="Dato un nome utente ottiene l&#39;oggetto User corrispondente.">
<polygon fill="white" stroke="black" points="455.5,-85.5 455.5,-104.5 551.5,-104.5 551.5,-85.5 455.5,-85.5"/>
<text text-anchor="middle" x="503.5" y="-92.5" font-family="Helvetica,sans-Serif" font-size="10.00">DataBase.getUser</text>
</a>
</g>
</g>
<!-- Node7&#45;&gt;Node9 -->
<g id="edge9" class="edge"><title>Node7&#45;&gt;Node9</title>
<path fill="none" stroke="midnightblue" d="M393.505,-164.932C400.336,-162.141 406.978,-158.858 413,-155 433.419,-141.919 428.928,-127.607 449,-114 451.861,-112.061 454.941,-110.296 458.128,-108.695"/>
<polygon fill="midnightblue" stroke="midnightblue" points="459.588,-111.876 467.295,-104.606 456.737,-105.483 459.588,-111.876"/>
</g>
<!-- Node10&#45;&gt;Node5 -->
<g id="edge11" class="edge"><title>Node10&#45;&gt;Node5</title>
<path fill="none" stroke="midnightblue" d="M405.605,-134.675C416.68,-134.484 427.98,-134.289 438.767,-134.102"/>
<polygon fill="midnightblue" stroke="midnightblue" points="438.991,-137.599 448.929,-133.926 438.87,-130.6 438.991,-137.599"/>
</g>
<!-- Node10&#45;&gt;Node9 -->
<g id="edge13" class="edge"><title>Node10&#45;&gt;Node9</title>
<path fill="none" stroke="midnightblue" d="M369.24,-126.491C394.006,-120.638 425.951,-113.089 452.356,-106.85"/>
<polygon fill="midnightblue" stroke="midnightblue" points="453.251,-110.235 462.178,-104.529 451.641,-103.422 453.251,-110.235"/>
</g>
<!-- Node11 -->
<g id="node11" class="node"><title>Node11</title>
<g id="a_node11"><a xlink:href="class_user.html#a1612cd6eef2a6e09ab5e72033b2aad00" target="_top" xlink:title="Restituisce la password dell&#39;utente.">
<polygon fill="white" stroke="black" points="455.5,-161.5 455.5,-180.5 551.5,-180.5 551.5,-161.5 455.5,-161.5"/>
<text text-anchor="middle" x="503.5" y="-168.5" font-family="Helvetica,sans-Serif" font-size="10.00">User.getPassword</text>
</a>
</g>
</g>
<!-- Node10&#45;&gt;Node11 -->
<g id="edge12" class="edge"><title>Node10&#45;&gt;Node11</title>
<path fill="none" stroke="midnightblue" d="M376.41,-145.564C397.726,-149.864 423.064,-154.975 445.414,-159.484"/>
<polygon fill="midnightblue" stroke="midnightblue" points="444.954,-162.962 455.448,-161.508 446.338,-156.1 444.954,-162.962"/>
</g>
<!-- Node13&#45;&gt;Node5 -->
<g id="edge16" class="edge"><title>Node13&#45;&gt;Node5</title>
<path fill="none" stroke="midnightblue" d="M392.62,-107.034C412.295,-111.683 433.682,-116.738 452.315,-121.141"/>
<polygon fill="midnightblue" stroke="midnightblue" points="451.531,-124.552 462.068,-123.446 453.141,-117.739 451.531,-124.552"/>
</g>
<!-- Node13&#45;&gt;Node9 -->
<g id="edge18" class="edge"><title>Node13&#45;&gt;Node9</title>
<path fill="none" stroke="midnightblue" d="M410.162,-93.4034C422.046,-93.6089 434.071,-93.8168 445.339,-94.0116"/>
<polygon fill="midnightblue" stroke="midnightblue" points="445.389,-97.5129 455.448,-94.1864 445.51,-90.514 445.389,-97.5129"/>
</g>
<!-- Node14 -->
<g id="node14" class="node"><title>Node14</title>
<g id="a_node14"><a xlink:href="class_user.html#a81a02d4809c6da6252e322ea4229a4bb" target="_top" xlink:title="Restituisce il punteggio dell&#39;utente.">
<polygon fill="white" stroke="black" points="464,-47.5 464,-66.5 543,-66.5 543,-47.5 464,-47.5"/>
<text text-anchor="middle" x="503.5" y="-54.5" font-family="Helvetica,sans-Serif" font-size="10.00">User.getScore</text>
</a>
</g>
</g>
<!-- Node13&#45;&gt;Node14 -->
<g id="edge17" class="edge"><title>Node13&#45;&gt;Node14</title>
<path fill="none" stroke="midnightblue" d="M403.587,-76.9537C420.614,-73.5189 438.279,-69.9553 453.887,-66.8067"/>
<polygon fill="midnightblue" stroke="midnightblue" points="454.709,-70.2114 463.82,-64.803 453.325,-63.3496 454.709,-70.2114"/>
</g>
<!-- Node15&#45;&gt;Node5 -->
<g id="edge20" class="edge"><title>Node15&#45;&gt;Node5</title>
<path fill="none" stroke="midnightblue" d="M393.28,-57.5789C400.227,-60.0406 406.957,-63.1283 413,-67 435.155,-81.1947 427.726,-98.5151 449,-114 451.63,-115.914 454.471,-117.651 457.424,-119.223"/>
<polygon fill="midnightblue" stroke="midnightblue" points="455.983,-122.413 466.526,-123.464 458.94,-116.068 455.983,-122.413"/>
</g>
<!-- Node15&#45;&gt;Node9 -->
<g id="edge21" class="edge"><title>Node15&#45;&gt;Node9</title>
<path fill="none" stroke="midnightblue" d="M374.503,-57.5884C387.029,-60.4188 400.583,-63.6592 413,-67 429.895,-71.5455 448.376,-77.2087 464.135,-82.2502"/>
<polygon fill="midnightblue" stroke="midnightblue" points="463.462,-85.7109 474.054,-85.4555 465.615,-79.05 463.462,-85.7109"/>
</g>
<!-- Node16 -->
<g id="node16" class="node"><title>Node16</title>
<g id="a_node16"><a xlink:href="class_user.html#a60ab059fe0b20cb98d3a2315e820b318" target="_top" xlink:title="Verifica se un nome utente e&#39; amico dell&#39;utente.">
<polygon fill="white" stroke="black" points="466.5,-9.5 466.5,-28.5 540.5,-28.5 540.5,-9.5 466.5,-9.5"/>
<text text-anchor="middle" x="503.5" y="-16.5" font-family="Helvetica,sans-Serif" font-size="10.00">User.isFriend</text>
</a>
</g>
</g>
<!-- Node15&#45;&gt;Node16 -->
<g id="edge22" class="edge"><title>Node15&#45;&gt;Node16</title>
<path fill="none" stroke="midnightblue" d="M386.291,-38.4239C409.042,-34.6212 434.861,-30.3057 456.374,-26.7098"/>
<polygon fill="midnightblue" stroke="midnightblue" points="456.956,-30.1612 466.242,-25.0605 455.802,-23.257 456.956,-30.1612"/>
</g>
</g>
</svg>
