<?xml version="1.0" encoding="UTF-8" standalone="no"?>
<!DOCTYPE svg PUBLIC "-//W3C//DTD SVG 1.1//EN"
 "http://www.w3.org/Graphics/SVG/1.1/DTD/svg11.dtd">
<!-- Generated by graphviz version 2.38.0 (20140413.2041)
 -->
<!-- Title: WordQuizzle.Translator.translate Pages: 1 -->
<!--zoomable 154 -->
<svg id="main" version="1.1" xmlns="http://www.w3.org/2000/svg" xmlns:xlink="http://www.w3.org/1999/xlink" xml:space="preserve" onload="init(evt)">
<style type="text/css"><![CDATA[
.edge:hover path { stroke: red; }
.edge:hover polygon { stroke: red; fill: red; }
]]></style>
<script type="text/javascript"><![CDATA[
var edges = document.getElementsByTagName('g');
if (edges && edges.length) {
  for (var i=0;i<edges.length;i++) {
    if (edges[i].id.substr(0,4)=='edge') {
      edges[i].setAttribute('class','edge');
    }
  }
}
]]></script>
        <defs>
                <circle id="rim" cx="0" cy="0" r="7"/>
                <circle id="rim2" cx="0" cy="0" r="3.5"/>
                <g id="zoomPlus">
                        <use xlink:href="#rim" fill="#404040">
                                <set attributeName="fill" to="#808080" begin="zoomplus.mouseover" end="zoomplus.mouseout"/>
                        </use>
                        <path d="M-4,0h8M0,-4v8" fill="none" stroke="white" stroke-width="1.5" pointer-events="none"/>
                </g>
                <g id="zoomMin">
                        <use xlink:href="#rim" fill="#404040">
                                <set attributeName="fill" to="#808080" begin="zoomminus.mouseover" end="zoomminus.mouseout"/>
                        </use>
                        <path d="M-4,0h8" fill="none" stroke="white" stroke-width="1.5" pointer-events="none"/>
                </g>
                <g id="dirArrow">
                        <path fill="none" stroke="white" stroke-width="1.5" d="M0,-3.0v7 M-2.5,-0.5L0,-3.0L2.5,-0.5"/>
                </g>
               <g id="resetDef">
                       <use xlink:href="#rim2" fill="#404040">
                               <set attributeName="fill" to="#808080" begin="reset.mouseover" end="reset.mouseout"/>
                       </use>
               </g>
        </defs>

<script type="text/javascript">
var viewWidth = 1138;
var viewHeight = 154;
var sectionId = 'dynsection-1';
</script>
<script xlink:href="svgpan.js"/>
<svg id="graph" class="graph">
<g id="viewport">
<title>WordQuizzle.Translator.translate</title>
<polygon fill="white" stroke="none" points="-4,4 -4,-150 1134,-150 1134,4 -4,4"/>
<!-- Node1 -->
<g id="node1" class="node"><title>Node1</title>
<g id="a_node1"><a xlink:title="Traduce una parola dall&#39;italiano all&#39;inglese.">
<polygon fill="#bfbfbf" stroke="black" points="971,-66.5 971,-85.5 1130,-85.5 1130,-66.5 971,-66.5"/>
<text text-anchor="middle" x="1050.5" y="-73.5" font-family="Helvetica,sans-Serif" font-size="10.00">WordQuizzle.Translator.translate</text>
</a>
</g>
</g>
<!-- Node2 -->
<g id="node2" class="node"><title>Node2</title>
<g id="a_node2"><a xlink:href="class_word_quizzle_1_1_bot.html#ac35a1d7ec89b1ef5fc25f161357f71c1" target="_top" xlink:title="Gestisce una sfida.">
<polygon fill="white" stroke="black" points="793,-126.5 793,-145.5 911,-145.5 911,-126.5 793,-126.5"/>
<text text-anchor="middle" x="852" y="-133.5" font-family="Helvetica,sans-Serif" font-size="10.00">WordQuizzle.Bot.game</text>
</a>
</g>
</g>
<!-- Node1&#45;&gt;Node2 -->
<g id="edge1" class="edge"><title>Node1&#45;&gt;Node2</title>
<path fill="none" stroke="midnightblue" d="M1015.72,-89.2654C993.095,-97.8576 962.529,-108.912 935,-117 923.223,-120.46 910.346,-123.695 898.359,-126.481"/>
<polygon fill="midnightblue" stroke="midnightblue" points="1017.12,-92.4771 1025.2,-85.6303 1014.61,-85.9407 1017.12,-92.4771"/>
</g>
<!-- Node5 -->
<g id="node5" class="node"><title>Node5</title>
<g id="a_node5"><a xlink:href="class_word_quizzle_1_1_word_translator.html#ab869f0c122cb4a4aef5a1e7df320da5c" target="_top" xlink:title="Traduce una lista di parole dall&#39;italiano all&#39;inglese.">
<polygon fill="white" stroke="black" points="769,-88.5 769,-107.5 935,-107.5 935,-88.5 769,-88.5"/>
<text text-anchor="middle" x="852" y="-95.5" font-family="Helvetica,sans-Serif" font-size="10.00">WordQuizzle.WordTranslator.main</text>
</a>
</g>
</g>
<!-- Node1&#45;&gt;Node5 -->
<g id="edge4" class="edge"><title>Node1&#45;&gt;Node5</title>
<path fill="none" stroke="midnightblue" d="M960.992,-85.9093C952.421,-86.8689 943.751,-87.8396 935.245,-88.7919"/>
<polygon fill="midnightblue" stroke="midnightblue" points="961.442,-89.3808 970.991,-84.7898 960.663,-82.4243 961.442,-89.3808"/>
</g>
<!-- Node6 -->
<g id="node6" class="node"><title>Node6</title>
<g id="a_node6"><a xlink:href="class_word_quizzle_1_1_challenge.html#ad9edc220ce2d24274149ab8c6a564a0a" target="_top" xlink:title="Aggiunge l&#39;utente sfidato alla sfida e la avvia.">
<polygon fill="white" stroke="black" points="784.5,-39 784.5,-69 919.5,-69 919.5,-39 784.5,-39"/>
<text text-anchor="start" x="792.5" y="-57" font-family="Helvetica,sans-Serif" font-size="10.00">WordQuizzle.Challenge.set</text>
<text text-anchor="middle" x="852" y="-46" font-family="Helvetica,sans-Serif" font-size="10.00">Player2</text>
</a>
</g>
</g>
<!-- Node1&#45;&gt;Node6 -->
<g id="edge5" class="edge"><title>Node1&#45;&gt;Node6</title>
<path fill="none" stroke="midnightblue" d="M960.954,-66.0864C947.084,-64.5335 932.953,-62.9515 919.683,-61.4658"/>
<polygon fill="midnightblue" stroke="midnightblue" points="960.663,-69.5757 970.991,-67.2102 961.442,-62.6192 960.663,-69.5757"/>
</g>
<!-- Node12 -->
<g id="node12" class="node"><title>Node12</title>
<g id="a_node12"><a xlink:href="class_word_quizzle_1_1_translator.html#aebc2b8b89e22283fa8bb1286c5f13f32" target="_top" xlink:title="Traduce una lista di parole dall&#39;italiano all&#39;inglese.">
<polygon fill="white" stroke="black" points="772.5,-0.5 772.5,-19.5 931.5,-19.5 931.5,-0.5 772.5,-0.5"/>
<text text-anchor="middle" x="852" y="-7.5" font-family="Helvetica,sans-Serif" font-size="10.00">WordQuizzle.Translator.translate</text>
</a>
</g>
</g>
<!-- Node1&#45;&gt;Node12 -->
<g id="edge11" class="edge"><title>Node1&#45;&gt;Node12</title>
<path fill="none" stroke="midnightblue" d="M1019.14,-62.4198C996.308,-52.5499 964.092,-39.3389 935,-30 922.862,-26.1034 909.503,-22.5454 897.156,-19.5459"/>
<polygon fill="midnightblue" stroke="midnightblue" points="1017.74,-65.6309 1028.31,-66.4241 1020.55,-59.2155 1017.74,-65.6309"/>
</g>
<!-- Node3 -->
<g id="node3" class="node"><title>Node3</title>
<g id="a_node3"><a xlink:href="class_word_quizzle_1_1_bot.html#aa088d2cccb4552d9277db7908b7cc706" target="_top" xlink:title="Avvia il bot.">
<polygon fill="white" stroke="black" points="600,-126.5 600,-145.5 707,-145.5 707,-126.5 600,-126.5"/>
<text text-anchor="middle" x="653.5" y="-133.5" font-family="Helvetica,sans-Serif" font-size="10.00">WordQuizzle.Bot.run</text>
</a>
</g>
</g>
<!-- Node2&#45;&gt;Node3 -->
<g id="edge2" class="edge"><title>Node2&#45;&gt;Node3</title>
<path fill="none" stroke="midnightblue" d="M782.776,-136C757.99,-136 730.384,-136 707.15,-136"/>
<polygon fill="midnightblue" stroke="midnightblue" points="782.841,-139.5 792.841,-136 782.841,-132.5 782.841,-139.5"/>
</g>
<!-- Node4 -->
<g id="node4" class="node"><title>Node4</title>
<g id="a_node4"><a xlink:href="class_word_quizzle_1_1_bot.html#a1092df275f21d17d0b0a7edf7bbb59f2" target="_top" xlink:title="Esegue un bot.">
<polygon fill="white" stroke="black" points="404.5,-126.5 404.5,-145.5 519.5,-145.5 519.5,-126.5 404.5,-126.5"/>
<text text-anchor="middle" x="462" y="-133.5" font-family="Helvetica,sans-Serif" font-size="10.00">WordQuizzle.Bot.main</text>
</a>
</g>
</g>
<!-- Node3&#45;&gt;Node4 -->
<g id="edge3" class="edge"><title>Node3&#45;&gt;Node4</title>
<path fill="none" stroke="midnightblue" d="M589.776,-136C567.129,-136 541.716,-136 519.622,-136"/>
<polygon fill="midnightblue" stroke="midnightblue" points="589.965,-139.5 599.965,-136 589.965,-132.5 589.965,-139.5"/>
</g>
<!-- Node7 -->
<g id="node7" class="node"><title>Node7</title>
<g id="a_node7"><a xlink:href="class_word_quizzle_1_1_word_quizzle_server_service.html#aebc8c566d10a0d24752a33f146f03a2a" target="_top" xlink:title="Accetta una richiesta di sfida inviata da nickAmico.">
<polygon fill="white" stroke="black" points="574,-39 574,-69 733,-69 733,-39 574,-39"/>
<text text-anchor="start" x="582" y="-57" font-family="Helvetica,sans-Serif" font-size="10.00">WordQuizzle.WordQuizzleServer</text>
<text text-anchor="middle" x="653.5" y="-46" font-family="Helvetica,sans-Serif" font-size="10.00">Service.accettaSfida</text>
</a>
</g>
</g>
<!-- Node6&#45;&gt;Node7 -->
<g id="edge6" class="edge"><title>Node6&#45;&gt;Node7</title>
<path fill="none" stroke="midnightblue" d="M774.285,-54C760.793,-54 746.731,-54 733.186,-54"/>
<polygon fill="midnightblue" stroke="midnightblue" points="774.474,-57.5001 784.474,-54 774.474,-50.5001 774.474,-57.5001"/>
</g>
<!-- Node8 -->
<g id="node8" class="node"><title>Node8</title>
<g id="a_node8"><a xlink:href="class_word_quizzle_1_1_session.html#a21992c338367b1a3c2e57fdb7cae3018" target="_top" xlink:title="Gestisce effettivamente la richiesta del client.">
<polygon fill="white" stroke="black" points="386,-44.5 386,-63.5 538,-63.5 538,-44.5 386,-44.5"/>
<text text-anchor="middle" x="462" y="-51.5" font-family="Helvetica,sans-Serif" font-size="10.00">WordQuizzle.Session.compute</text>
</a>
</g>
</g>
<!-- Node7&#45;&gt;Node8 -->
<g id="edge7" class="edge"><title>Node7&#45;&gt;Node8</title>
<path fill="none" stroke="midnightblue" d="M563.764,-54C555.191,-54 546.552,-54 538.129,-54"/>
<polygon fill="midnightblue" stroke="midnightblue" points="563.781,-57.5001 573.781,-54 563.781,-50.5001 563.781,-57.5001"/>
</g>
<!-- Node9 -->
<g id="node9" class="node"><title>Node9</title>
<g id="a_node9"><a xlink:href="class_word_quizzle_1_1_session.html#a6793f02ea7cab6fffe0361893cf40178" target="_top" xlink:title="Riceve una stringa contenente uan richiesta da parte del client e la gestisce.">
<polygon fill="white" stroke="black" points="212,-44.5 212,-63.5 350,-63.5 350,-44.5 212,-44.5"/>
<text text-anchor="middle" x="281" y="-51.5" font-family="Helvetica,sans-Serif" font-size="10.00">WordQuizzle.Session.parse</text>
</a>
</g>
</g>
<!-- Node8&#45;&gt;Node9 -->
<g id="edge8" class="edge"><title>Node8&#45;&gt;Node9</title>
<path fill="none" stroke="midnightblue" d="M375.793,-54C367.175,-54 358.505,-54 350.101,-54"/>
<polygon fill="midnightblue" stroke="midnightblue" points="375.866,-57.5001 385.866,-54 375.866,-50.5001 375.866,-57.5001"/>
</g>
<!-- Node10 -->
<g id="node10" class="node"><title>Node10</title>
<g id="a_node10"><a xlink:href="class_word_quizzle_1_1_word_quizzle_server.html#a4aa19bad373d06a790babba1e5b67644" target="_top" xlink:title="Gestisce le interazioni con i client.">
<polygon fill="white" stroke="black" points="0,-63.5 0,-82.5 176,-82.5 176,-63.5 0,-63.5"/>
<text text-anchor="middle" x="88" y="-70.5" font-family="Helvetica,sans-Serif" font-size="10.00">WordQuizzle.WordQuizzleServer.run</text>
</a>
</g>
</g>
<!-- Node9&#45;&gt;Node10 -->
<g id="edge9" class="edge"><title>Node9&#45;&gt;Node10</title>
<path fill="none" stroke="midnightblue" d="M201.692,-61.7898C193.27,-62.6275 184.665,-63.4836 176.149,-64.3308"/>
<polygon fill="midnightblue" stroke="midnightblue" points="202.249,-65.2517 211.854,-60.779 201.556,-58.2861 202.249,-65.2517"/>
</g>
<!-- Node11 -->
<g id="node11" class="node"><title>Node11</title>
<g id="a_node11"><a xlink:href="class_word_quizzle_1_1_challenge.html#aa7b93cfc7d1927c0b1c060cc387321b9" target="_top" xlink:title="Gestisce la sfida.">
<polygon fill="white" stroke="black" points="20.5,-25.5 20.5,-44.5 155.5,-44.5 155.5,-25.5 20.5,-25.5"/>
<text text-anchor="middle" x="88" y="-32.5" font-family="Helvetica,sans-Serif" font-size="10.00">WordQuizzle.Challenge.run</text>
</a>
</g>
</g>
<!-- Node9&#45;&gt;Node11 -->
<g id="edge10" class="edge"><title>Node9&#45;&gt;Node11</title>
<path fill="none" stroke="midnightblue" d="M201.853,-46.2263C186.473,-44.6963 170.471,-43.1045 155.517,-41.6169"/>
<polygon fill="midnightblue" stroke="midnightblue" points="201.556,-49.7139 211.854,-47.221 202.249,-42.7483 201.556,-49.7139"/>
</g>
</g>
</svg>
        <g id="navigator" transform="translate(0 0)" fill="#404254">
                <rect fill="#f2f5e9" fill-opacity="0.5" stroke="#606060" stroke-width=".5" x="0" y="0" width="60" height="60"/>
                <use id="zoomplus" xlink:href="#zoomPlus" x="17" y="9" onmousedown="handleZoom(evt,'in')"/>
                <use id="zoomminus" xlink:href="#zoomMin" x="42" y="9" onmousedown="handleZoom(evt,'out')"/>
                <use id="reset" xlink:href="#resetDef" x="30" y="36" onmousedown="handleReset()"/>
                <g id="arrowUp" xlink:href="#dirArrow" transform="translate(30 24)" onmousedown="handlePan(0,-1)">
                  <use xlink:href="#rim" fill="#404040">
                        <set attributeName="fill" to="#808080" begin="arrowUp.mouseover" end="arrowUp.mouseout"/>
                  </use>
                  <path fill="none" stroke="white" stroke-width="1.5" d="M0,-3.0v7 M-2.5,-0.5L0,-3.0L2.5,-0.5"/>
                </g>
                <g id="arrowRight" xlink:href="#dirArrow" transform="rotate(90) translate(36 -43)" onmousedown="handlePan(1,0)">
                  <use xlink:href="#rim" fill="#404040">
                        <set attributeName="fill" to="#808080" begin="arrowRight.mouseover" end="arrowRight.mouseout"/>
                  </use>
                  <path fill="none" stroke="white" stroke-width="1.5" d="M0,-3.0v7 M-2.5,-0.5L0,-3.0L2.5,-0.5"/>
                </g>
                <g id="arrowDown" xlink:href="#dirArrow" transform="rotate(180) translate(-30 -48)" onmousedown="handlePan(0,1)">
                  <use xlink:href="#rim" fill="#404040">
                        <set attributeName="fill" to="#808080" begin="arrowDown.mouseover" end="arrowDown.mouseout"/>
                  </use>
                  <path fill="none" stroke="white" stroke-width="1.5" d="M0,-3.0v7 M-2.5,-0.5L0,-3.0L2.5,-0.5"/>
                </g>
                <g id="arrowLeft" xlink:href="#dirArrow" transform="rotate(270) translate(-36 17)" onmousedown="handlePan(-1,0)">
                  <use xlink:href="#rim" fill="#404040">
                        <set attributeName="fill" to="#808080" begin="arrowLeft.mouseover" end="arrowLeft.mouseout"/>
                  </use>
                  <path fill="none" stroke="white" stroke-width="1.5" d="M0,-3.0v7 M-2.5,-0.5L0,-3.0L2.5,-0.5"/>
                </g>
        </g>
        <svg viewBox="0 0 15 15" width="100%" height="30px" preserveAspectRatio="xMaxYMin meet">
         <g id="arrow_out" transform="scale(0.3 0.3)">
          <a xlink:href="class_word_quizzle_1_1_translator_a9fcad4b807785c63c72bc85f672fb635_icgraph_org.svg" target="_base">
           <rect id="button" ry="5" rx="5" y="6" x="6" height="38" width="38"
                fill="#f2f5e9" fill-opacity="0.5" stroke="#606060" stroke-width="1.0"/>
           <path id="arrow"
             d="M 11.500037,31.436501 C 11.940474,20.09759 22.043105,11.32322 32.158766,21.979434 L 37.068811,17.246167 C 37.068811,17.246167 37.088388,32 37.088388,32 L 22.160133,31.978069 C 22.160133,31.978069 26.997745,27.140456 26.997745,27.140456 C 18.528582,18.264221 13.291696,25.230495 11.500037,31.436501 z"
             style="fill:#404040;"/>
          </a>
         </g>
        </svg>
</svg>
