<?xml version="1.0" encoding="UTF-8" standalone="no"?>
<!DOCTYPE svg PUBLIC "-//W3C//DTD SVG 1.1//EN"
 "http://www.w3.org/Graphics/SVG/1.1/DTD/svg11.dtd">
<!-- Generated by graphviz version 2.38.0 (20140413.2041)
 -->
<!-- Title: WordQuizzleClientService.send Pages: 1 -->
<svg width="733pt" height="351pt"
 viewBox="0.00 0.00 733.00 350.50" xmlns="http://www.w3.org/2000/svg" xmlns:xlink="http://www.w3.org/1999/xlink">
<g id="graph0" class="graph" transform="scale(1 1) rotate(0) translate(4 346.5)">
<title>WordQuizzleClientService.send</title>
<polygon fill="white" stroke="none" points="-4,4 -4,-346.5 729,-346.5 729,4 -4,4"/>
<!-- Node1 -->
<g id="node1" class="node"><title>Node1</title>
<g id="a_node1"><a xlink:title=" ">
<polygon fill="#bfbfbf" stroke="black" points="572,-156.5 572,-175.5 725,-175.5 725,-156.5 572,-156.5"/>
<text text-anchor="middle" x="648.5" y="-163.5" font-family="Helvetica,sans-Serif" font-size="10.00">WordQuizzleClientService.send</text>
</a>
</g>
</g>
<!-- Node2 -->
<g id="node2" class="node"><title>Node2</title>
<g id="a_node2"><a xlink:href="class_word_quizzle_client_service.html#a4c88f130316580205d2f4f808a78a66c" target="_top" xlink:title=" ">
<polygon fill="white" stroke="black" points="370,-312 370,-342 534,-342 534,-312 370,-312"/>
<text text-anchor="start" x="378" y="-330" font-family="Helvetica,sans-Serif" font-size="10.00">WordQuizzleClientService.accetta</text>
<text text-anchor="middle" x="452" y="-319" font-family="Helvetica,sans-Serif" font-size="10.00">Sfida</text>
</a>
</g>
</g>
<!-- Node1&#45;&gt;Node2 -->
<g id="edge1" class="edge"><title>Node1&#45;&gt;Node2</title>
<path fill="none" stroke="midnightblue" d="M637.392,-184.31C620.324,-213.541 583.008,-270.64 536,-302 530.241,-305.842 523.872,-309.11 517.298,-311.887"/>
<polygon fill="midnightblue" stroke="midnightblue" points="640.478,-185.964 642.389,-175.543 634.397,-182.498 640.478,-185.964"/>
</g>
<!-- Node6 -->
<g id="node6" class="node"><title>Node6</title>
<g id="a_node6"><a xlink:href="class_word_quizzle_client_service.html#af8aab1c9bac51180ba45a42d6347b1f7" target="_top" xlink:title=" ">
<polygon fill="white" stroke="black" points="368,-263 368,-293 536,-293 536,-263 368,-263"/>
<text text-anchor="start" x="376" y="-281" font-family="Helvetica,sans-Serif" font-size="10.00">WordQuizzleClientService.aggiungi</text>
<text text-anchor="middle" x="452" y="-270" font-family="Helvetica,sans-Serif" font-size="10.00">_amico</text>
</a>
</g>
</g>
<!-- Node1&#45;&gt;Node6 -->
<g id="edge5" class="edge"><title>Node1&#45;&gt;Node6</title>
<path fill="none" stroke="midnightblue" d="M630.572,-182.534C609.858,-201.933 572.961,-233.871 536,-253 528.783,-256.735 520.917,-260.007 512.998,-262.845"/>
<polygon fill="midnightblue" stroke="midnightblue" points="633.099,-184.961 637.928,-175.531 628.272,-179.891 633.099,-184.961"/>
</g>
<!-- Node8 -->
<g id="node8" class="node"><title>Node8</title>
<g id="a_node8"><a xlink:href="class_word_quizzle_client_service.html#af0e53b0b09cbf74b95782fa6f838a729" target="_top" xlink:title=" ">
<polygon fill="white" stroke="black" points="377,-214 377,-244 527,-244 527,-214 377,-214"/>
<text text-anchor="start" x="385" y="-232" font-family="Helvetica,sans-Serif" font-size="10.00">WordQuizzleClientService.lista</text>
<text text-anchor="middle" x="452" y="-221" font-family="Helvetica,sans-Serif" font-size="10.00">_amici</text>
</a>
</g>
</g>
<!-- Node1&#45;&gt;Node8 -->
<g id="edge7" class="edge"><title>Node1&#45;&gt;Node8</title>
<path fill="none" stroke="midnightblue" d="M610.618,-178.941C588.95,-186.451 560.992,-195.98 536,-204 525.683,-207.311 514.604,-210.737 504.007,-213.951"/>
<polygon fill="midnightblue" stroke="midnightblue" points="611.802,-182.235 620.098,-175.645 609.503,-175.623 611.802,-182.235"/>
</g>
<!-- Node10 -->
<g id="node10" class="node"><title>Node10</title>
<g id="a_node10"><a xlink:href="class_word_quizzle_client_service.html#a3b4cd4b9507349b2ebd0a219bbf660e8" target="_top" xlink:title=" ">
<polygon fill="white" stroke="black" points="376,-175.5 376,-194.5 528,-194.5 528,-175.5 376,-175.5"/>
<text text-anchor="middle" x="452" y="-182.5" font-family="Helvetica,sans-Serif" font-size="10.00">WordQuizzleClientService.login</text>
</a>
</g>
</g>
<!-- Node1&#45;&gt;Node10 -->
<g id="edge9" class="edge"><title>Node1&#45;&gt;Node10</title>
<path fill="none" stroke="midnightblue" d="M561.604,-174.391C550.482,-175.477 539.16,-176.583 528.229,-177.651"/>
<polygon fill="midnightblue" stroke="midnightblue" points="562.132,-177.856 571.744,-173.4 561.451,-170.889 562.132,-177.856"/>
</g>
<!-- Node12 -->
<g id="node12" class="node"><title>Node12</title>
<g id="a_node12"><a xlink:href="class_word_quizzle_client_service.html#a1c8306a88e1f8755e6b495d8c65658b4" target="_top" xlink:title=" ">
<polygon fill="white" stroke="black" points="373,-137.5 373,-156.5 531,-156.5 531,-137.5 373,-137.5"/>
<text text-anchor="middle" x="452" y="-144.5" font-family="Helvetica,sans-Serif" font-size="10.00">WordQuizzleClientService.logout</text>
</a>
</g>
</g>
<!-- Node1&#45;&gt;Node12 -->
<g id="edge12" class="edge"><title>Node1&#45;&gt;Node12</title>
<path fill="none" stroke="midnightblue" d="M561.655,-157.614C551.492,-156.621 541.162,-155.612 531.115,-154.631"/>
<polygon fill="midnightblue" stroke="midnightblue" points="561.451,-161.111 571.744,-158.6 562.132,-154.144 561.451,-161.111"/>
</g>
<!-- Node14 -->
<g id="node14" class="node"><title>Node14</title>
<g id="a_node14"><a xlink:href="class_word_quizzle_client_service.html#a4f7f08d10b089539f4173202836cee10" target="_top" xlink:title=" ">
<polygon fill="white" stroke="black" points="371,-88 371,-118 533,-118 533,-88 371,-88"/>
<text text-anchor="start" x="379" y="-106" font-family="Helvetica,sans-Serif" font-size="10.00">WordQuizzleClientService.mostra</text>
<text text-anchor="middle" x="452" y="-95" font-family="Helvetica,sans-Serif" font-size="10.00">_classifica</text>
</a>
</g>
</g>
<!-- Node1&#45;&gt;Node14 -->
<g id="edge15" class="edge"><title>Node1&#45;&gt;Node14</title>
<path fill="none" stroke="midnightblue" d="M610.618,-153.059C588.95,-145.549 560.992,-136.02 536,-128 525.683,-124.689 514.604,-121.263 504.007,-118.049"/>
<polygon fill="midnightblue" stroke="midnightblue" points="609.503,-156.377 620.098,-156.355 611.802,-149.765 609.503,-156.377"/>
</g>
<!-- Node16 -->
<g id="node16" class="node"><title>Node16</title>
<g id="a_node16"><a xlink:href="class_word_quizzle_client_service.html#a46c0f1bdaafdb2431ca47ae00a0b4ffe" target="_top" xlink:title=" ">
<polygon fill="white" stroke="black" points="371,-39 371,-69 533,-69 533,-39 371,-39"/>
<text text-anchor="start" x="379" y="-57" font-family="Helvetica,sans-Serif" font-size="10.00">WordQuizzleClientService.mostra</text>
<text text-anchor="middle" x="452" y="-46" font-family="Helvetica,sans-Serif" font-size="10.00">_punteggio</text>
</a>
</g>
</g>
<!-- Node1&#45;&gt;Node16 -->
<g id="edge17" class="edge"><title>Node1&#45;&gt;Node16</title>
<path fill="none" stroke="midnightblue" d="M630.646,-149.194C610.003,-129.492 573.175,-97.1094 536,-78 529.463,-74.6398 522.388,-71.6866 515.22,-69.1078"/>
<polygon fill="midnightblue" stroke="midnightblue" points="628.361,-151.854 637.974,-156.309 633.237,-146.832 628.361,-151.854"/>
</g>
<!-- Node18 -->
<g id="node18" class="node"><title>Node18</title>
<g id="a_node18"><a xlink:href="class_word_quizzle_client_service.html#a470ca573207d4e51fe7ec5d162333234" target="_top" xlink:title=" ">
<polygon fill="white" stroke="black" points="376,-0.5 376,-19.5 528,-19.5 528,-0.5 376,-0.5"/>
<text text-anchor="middle" x="452" y="-7.5" font-family="Helvetica,sans-Serif" font-size="10.00">WordQuizzleClientService.sfida</text>
</a>
</g>
</g>
<!-- Node1&#45;&gt;Node18 -->
<g id="edge19" class="edge"><title>Node1&#45;&gt;Node18</title>
<path fill="none" stroke="midnightblue" d="M637.666,-147.183C620.983,-117.213 584.197,-58.9726 536,-29 529.723,-25.0968 522.732,-21.9935 515.546,-19.5265"/>
<polygon fill="midnightblue" stroke="midnightblue" points="634.7,-149.055 642.541,-156.181 640.855,-145.721 634.7,-149.055"/>
</g>
<!-- Node3 -->
<g id="node3" class="node"><title>Node3</title>
<g id="a_node3"><a xlink:href="class_word_quizzle_client.html#a4add1e2c096474b518dea763af7a6573" target="_top" xlink:title=" ">
<polygon fill="white" stroke="black" points="197,-312 197,-342 330,-342 330,-312 197,-312"/>
<text text-anchor="start" x="205" y="-330" font-family="Helvetica,sans-Serif" font-size="10.00">WordQuizzleClient.accetta</text>
<text text-anchor="middle" x="263.5" y="-319" font-family="Helvetica,sans-Serif" font-size="10.00">Sfida</text>
</a>
</g>
</g>
<!-- Node2&#45;&gt;Node3 -->
<g id="edge2" class="edge"><title>Node2&#45;&gt;Node3</title>
<path fill="none" stroke="midnightblue" d="M359.445,-327C349.538,-327 339.606,-327 330.095,-327"/>
<polygon fill="midnightblue" stroke="midnightblue" points="359.741,-330.5 369.741,-327 359.741,-323.5 359.741,-330.5"/>
</g>
<!-- Node4 -->
<g id="node4" class="node"><title>Node4</title>
<g id="a_node4"><a xlink:href="class_client.html#a64336c3153afaaf5f45493e9ed206430" target="_top" xlink:title=" ">
<polygon fill="white" stroke="black" points="101,-156.5 101,-175.5 159,-175.5 159,-156.5 101,-156.5"/>
<text text-anchor="middle" x="130" y="-163.5" font-family="Helvetica,sans-Serif" font-size="10.00">Client.run</text>
</a>
</g>
</g>
<!-- Node3&#45;&gt;Node4 -->
<g id="edge3" class="edge"><title>Node3&#45;&gt;Node4</title>
<path fill="none" stroke="midnightblue" d="M200.461,-306.452C198.549,-305.062 196.72,-303.58 195,-302 155.598,-265.818 138.261,-200.374 132.917,-175.734"/>
<polygon fill="midnightblue" stroke="midnightblue" points="198.968,-309.647 209.303,-311.981 202.679,-303.711 198.968,-309.647"/>
</g>
<!-- Node5 -->
<g id="node5" class="node"><title>Node5</title>
<g id="a_node5"><a xlink:href="class_client.html#ac4219c51358857184ceeb023ada3d8ae" target="_top" xlink:title=" ">
<polygon fill="white" stroke="black" points="0,-156.5 0,-175.5 65,-175.5 65,-156.5 0,-156.5"/>
<text text-anchor="middle" x="32.5" y="-163.5" font-family="Helvetica,sans-Serif" font-size="10.00">Client.main</text>
</a>
</g>
</g>
<!-- Node4&#45;&gt;Node5 -->
<g id="edge4" class="edge"><title>Node4&#45;&gt;Node5</title>
<path fill="none" stroke="midnightblue" d="M90.7681,-166C82.2579,-166 73.3274,-166 65.1178,-166"/>
<polygon fill="midnightblue" stroke="midnightblue" points="90.8634,-169.5 100.863,-166 90.8633,-162.5 90.8634,-169.5"/>
</g>
<!-- Node7 -->
<g id="node7" class="node"><title>Node7</title>
<g id="a_node7"><a xlink:href="class_word_quizzle_client.html#a47e5d9e8bd41242505edcb76350df881" target="_top" xlink:title=" ">
<polygon fill="white" stroke="black" points="195,-263 195,-293 332,-293 332,-263 195,-263"/>
<text text-anchor="start" x="203" y="-281" font-family="Helvetica,sans-Serif" font-size="10.00">WordQuizzleClient.aggiungi</text>
<text text-anchor="middle" x="263.5" y="-270" font-family="Helvetica,sans-Serif" font-size="10.00">_amico</text>
</a>
</g>
</g>
<!-- Node6&#45;&gt;Node7 -->
<g id="edge6" class="edge"><title>Node6&#45;&gt;Node7</title>
<path fill="none" stroke="midnightblue" d="M357.724,-278C349.092,-278 340.46,-278 332.124,-278"/>
<polygon fill="midnightblue" stroke="midnightblue" points="357.841,-281.5 367.841,-278 357.841,-274.5 357.841,-281.5"/>
</g>
<!-- Node9 -->
<g id="node9" class="node"><title>Node9</title>
<g id="a_node9"><a xlink:href="class_word_quizzle_client.html#a5503bd747932abeb7a733b780d31dc19" target="_top" xlink:title=" ">
<polygon fill="white" stroke="black" points="204,-214 204,-244 323,-244 323,-214 204,-214"/>
<text text-anchor="start" x="212" y="-232" font-family="Helvetica,sans-Serif" font-size="10.00">WordQuizzleClient.lista</text>
<text text-anchor="middle" x="263.5" y="-221" font-family="Helvetica,sans-Serif" font-size="10.00">_amici</text>
</a>
</g>
</g>
<!-- Node8&#45;&gt;Node9 -->
<g id="edge8" class="edge"><title>Node8&#45;&gt;Node9</title>
<path fill="none" stroke="midnightblue" d="M366.672,-229C352.013,-229 337.058,-229 323.273,-229"/>
<polygon fill="midnightblue" stroke="midnightblue" points="366.754,-232.5 376.754,-229 366.754,-225.5 366.754,-232.5"/>
</g>
<!-- Node11 -->
<g id="node11" class="node"><title>Node11</title>
<g id="a_node11"><a xlink:href="class_word_quizzle_client.html#ab3dfa5eb3dd327ca00e89b9920125e0e" target="_top" xlink:title=" ">
<polygon fill="white" stroke="black" points="203,-175.5 203,-194.5 324,-194.5 324,-175.5 203,-175.5"/>
<text text-anchor="middle" x="263.5" y="-182.5" font-family="Helvetica,sans-Serif" font-size="10.00">WordQuizzleClient.login</text>
</a>
</g>
</g>
<!-- Node10&#45;&gt;Node11 -->
<g id="edge10" class="edge"><title>Node10&#45;&gt;Node11</title>
<path fill="none" stroke="midnightblue" d="M365.787,-185C351.746,-185 337.461,-185 324.216,-185"/>
<polygon fill="midnightblue" stroke="midnightblue" points="365.95,-188.5 375.949,-185 365.949,-181.5 365.95,-188.5"/>
</g>
<!-- Node11&#45;&gt;Node4 -->
<g id="edge11" class="edge"><title>Node11&#45;&gt;Node4</title>
<path fill="none" stroke="midnightblue" d="M192.887,-174.942C180.967,-173.22 169.216,-171.522 159.21,-170.076"/>
<polygon fill="midnightblue" stroke="midnightblue" points="192.508,-178.423 202.906,-176.389 193.509,-171.495 192.508,-178.423"/>
</g>
<!-- Node13 -->
<g id="node13" class="node"><title>Node13</title>
<g id="a_node13"><a xlink:href="class_word_quizzle_client.html#ab3b513d94019a6b4350aaa6c92c59136" target="_top" xlink:title=" ">
<polygon fill="white" stroke="black" points="200,-137.5 200,-156.5 327,-156.5 327,-137.5 200,-137.5"/>
<text text-anchor="middle" x="263.5" y="-144.5" font-family="Helvetica,sans-Serif" font-size="10.00">WordQuizzleClient.logout</text>
</a>
</g>
</g>
<!-- Node12&#45;&gt;Node13 -->
<g id="edge13" class="edge"><title>Node12&#45;&gt;Node13</title>
<path fill="none" stroke="midnightblue" d="M362.903,-147C350.844,-147 338.669,-147 327.19,-147"/>
<polygon fill="midnightblue" stroke="midnightblue" points="362.988,-150.5 372.988,-147 362.988,-143.5 362.988,-150.5"/>
</g>
<!-- Node13&#45;&gt;Node4 -->
<g id="edge14" class="edge"><title>Node13&#45;&gt;Node4</title>
<path fill="none" stroke="midnightblue" d="M189.787,-157.506C178.892,-159.08 168.254,-160.617 159.089,-161.942"/>
<polygon fill="midnightblue" stroke="midnightblue" points="190.434,-160.949 199.831,-156.055 189.433,-154.021 190.434,-160.949"/>
</g>
<!-- Node15 -->
<g id="node15" class="node"><title>Node15</title>
<g id="a_node15"><a xlink:href="class_word_quizzle_client.html#a01ec8b2d43325305d263b803834652cb" target="_top" xlink:title=" ">
<polygon fill="white" stroke="black" points="198,-88 198,-118 329,-118 329,-88 198,-88"/>
<text text-anchor="start" x="206" y="-106" font-family="Helvetica,sans-Serif" font-size="10.00">WordQuizzleClient.mostra</text>
<text text-anchor="middle" x="263.5" y="-95" font-family="Helvetica,sans-Serif" font-size="10.00">_classifica</text>
</a>
</g>
</g>
<!-- Node14&#45;&gt;Node15 -->
<g id="edge16" class="edge"><title>Node14&#45;&gt;Node15</title>
<path fill="none" stroke="midnightblue" d="M360.659,-103C350.021,-103 339.333,-103 329.148,-103"/>
<polygon fill="midnightblue" stroke="midnightblue" points="360.825,-106.5 370.825,-103 360.825,-99.5001 360.825,-106.5"/>
</g>
<!-- Node17 -->
<g id="node17" class="node"><title>Node17</title>
<g id="a_node17"><a xlink:href="class_word_quizzle_client.html#ad88c5209ea7c672da454a7523834fce7" target="_top" xlink:title=" ">
<polygon fill="white" stroke="black" points="198,-39 198,-69 329,-69 329,-39 198,-39"/>
<text text-anchor="start" x="206" y="-57" font-family="Helvetica,sans-Serif" font-size="10.00">WordQuizzleClient.mostra</text>
<text text-anchor="middle" x="263.5" y="-46" font-family="Helvetica,sans-Serif" font-size="10.00">_punteggio</text>
</a>
</g>
</g>
<!-- Node16&#45;&gt;Node17 -->
<g id="edge18" class="edge"><title>Node16&#45;&gt;Node17</title>
<path fill="none" stroke="midnightblue" d="M360.659,-54C350.021,-54 339.333,-54 329.148,-54"/>
<polygon fill="midnightblue" stroke="midnightblue" points="360.825,-57.5001 370.825,-54 360.825,-50.5001 360.825,-57.5001"/>
</g>
<!-- Node19 -->
<g id="node19" class="node"><title>Node19</title>
<g id="a_node19"><a xlink:href="class_word_quizzle_client.html#a2532bb6f1399cae0692189e7b1b4fb60" target="_top" xlink:title=" ">
<polygon fill="white" stroke="black" points="203,-0.5 203,-19.5 324,-19.5 324,-0.5 203,-0.5"/>
<text text-anchor="middle" x="263.5" y="-7.5" font-family="Helvetica,sans-Serif" font-size="10.00">WordQuizzleClient.sfida</text>
</a>
</g>
</g>
<!-- Node18&#45;&gt;Node19 -->
<g id="edge20" class="edge"><title>Node18&#45;&gt;Node19</title>
<path fill="none" stroke="midnightblue" d="M365.787,-10C351.746,-10 337.461,-10 324.216,-10"/>
<polygon fill="midnightblue" stroke="midnightblue" points="365.95,-13.5001 375.949,-10 365.949,-6.5001 365.95,-13.5001"/>
</g>
<!-- Node19&#45;&gt;Node4 -->
<g id="edge21" class="edge"><title>Node19&#45;&gt;Node4</title>
<path fill="none" stroke="midnightblue" d="M201.351,-24.3676C199.119,-25.7709 196.989,-27.3106 195,-29 153.78,-64.0071 137.457,-131.385 132.653,-156.369"/>
<polygon fill="midnightblue" stroke="midnightblue" points="203.176,-27.3623 210.391,-19.6039 199.912,-21.1696 203.176,-27.3623"/>
</g>
</g>
</svg>
