<?xml version="1.0" encoding="UTF-8" standalone="no"?>
<!DOCTYPE svg PUBLIC "-//W3C//DTD SVG 1.1//EN"
 "http://www.w3.org/Graphics/SVG/1.1/DTD/svg11.dtd">
<!-- Generated by graphviz version 2.38.0 (20140413.2041)
 -->
<!-- Title: Bot.main Pages: 1 -->
<svg width="740pt" height="328pt"
 viewBox="0.00 0.00 740.00 328.00" xmlns="http://www.w3.org/2000/svg" xmlns:xlink="http://www.w3.org/1999/xlink">
<g id="graph0" class="graph" transform="scale(1 1) rotate(0) translate(4 324)">
<title>Bot.main</title>
<polygon fill="white" stroke="none" points="-4,4 -4,-324 736,-324 736,4 -4,4"/>
<!-- Node1 -->
<g id="node1" class="node"><title>Node1</title>
<g id="a_node1"><a xlink:title="Esegue un bot.">
<polygon fill="#bfbfbf" stroke="black" points="0,-154 0,-173 56,-173 56,-154 0,-154"/>
<text text-anchor="middle" x="28" y="-161" font-family="Helvetica,sans-Serif" font-size="10.00">Bot.main</text>
</a>
</g>
</g>
<!-- Node2 -->
<g id="node2" class="node"><title>Node2</title>
<g id="a_node2"><a xlink:href="class_bot.html#a35d9bc048956f8b5f750911efeb32309" target="_top" xlink:title="Crea un bot.">
<polygon fill="white" stroke="black" points="92,-173 92,-192 142,-192 142,-173 92,-173"/>
<text text-anchor="middle" x="117" y="-180" font-family="Helvetica,sans-Serif" font-size="10.00">Bot.Bot</text>
</a>
</g>
</g>
<!-- Node1&#45;&gt;Node2 -->
<g id="edge1" class="edge"><title>Node1&#45;&gt;Node2</title>
<path fill="none" stroke="midnightblue" d="M56.0504,-169.408C64.2964,-171.208 73.4672,-173.211 82.106,-175.098"/>
<polygon fill="midnightblue" stroke="midnightblue" points="81.3989,-178.526 91.9155,-177.24 82.8925,-171.687 81.3989,-178.526"/>
</g>
<!-- Node3 -->
<g id="node3" class="node"><title>Node3</title>
<g id="a_node3"><a xlink:href="class_bot.html#a39bedd8a99e6e57223c433c8197bcb49" target="_top" xlink:title="Avvia il bot.">
<polygon fill="white" stroke="black" points="93,-135 93,-154 141,-154 141,-135 93,-135"/>
<text text-anchor="middle" x="117" y="-142" font-family="Helvetica,sans-Serif" font-size="10.00">Bot.run</text>
</a>
</g>
</g>
<!-- Node1&#45;&gt;Node3 -->
<g id="edge2" class="edge"><title>Node1&#45;&gt;Node3</title>
<path fill="none" stroke="midnightblue" d="M56.0504,-157.592C64.5115,-155.745 73.9463,-153.684 82.7809,-151.755"/>
<polygon fill="midnightblue" stroke="midnightblue" points="83.7591,-155.124 92.782,-149.571 82.2655,-148.285 83.7591,-155.124"/>
</g>
<!-- Node4 -->
<g id="node4" class="node"><title>Node4</title>
<g id="a_node4"><a xlink:href="class_word_quizzle_client.html#a7be01cd53d19ff448ee3fb95ace8d919" target="_top" xlink:title="Accetta una richiesta di sfida inviata da nickAmico.">
<polygon fill="white" stroke="black" points="180,-279.5 180,-309.5 313,-309.5 313,-279.5 180,-279.5"/>
<text text-anchor="start" x="188" y="-297.5" font-family="Helvetica,sans-Serif" font-size="10.00">WordQuizzleClient.accetta</text>
<text text-anchor="middle" x="246.5" y="-286.5" font-family="Helvetica,sans-Serif" font-size="10.00">Sfida</text>
</a>
</g>
</g>
<!-- Node3&#45;&gt;Node4 -->
<g id="edge3" class="edge"><title>Node3&#45;&gt;Node4</title>
<path fill="none" stroke="midnightblue" d="M132.811,-154.275C136.143,-156.972 139.445,-160.102 142,-163.5 167.396,-197.274 150.908,-219.07 178,-251.5 185.298,-260.236 194.837,-267.784 204.436,-274.01"/>
<polygon fill="midnightblue" stroke="midnightblue" points="202.845,-277.138 213.206,-279.352 206.486,-271.16 202.845,-277.138"/>
</g>
<!-- Node6 -->
<g id="node6" class="node"><title>Node6</title>
<g id="a_node6"><a xlink:href="class_word_quizzle_client.html#aff2ae6478070d04f0864cfffe73e6b27" target="_top" xlink:title="Verifica se ci sono richieste di sfida per user.">
<polygon fill="white" stroke="black" points="178,-211.5 178,-241.5 315,-241.5 315,-211.5 178,-211.5"/>
<text text-anchor="start" x="186" y="-229.5" font-family="Helvetica,sans-Serif" font-size="10.00">WordQuizzleClient.controlla</text>
<text text-anchor="middle" x="246.5" y="-218.5" font-family="Helvetica,sans-Serif" font-size="10.00">Richieste</text>
</a>
</g>
</g>
<!-- Node3&#45;&gt;Node6 -->
<g id="edge5" class="edge"><title>Node3&#45;&gt;Node6</title>
<path fill="none" stroke="midnightblue" d="M132.875,-154.067C152.502,-166.689 187.574,-189.245 213.381,-205.843"/>
<polygon fill="midnightblue" stroke="midnightblue" points="211.779,-208.974 222.083,-211.44 215.566,-203.087 211.779,-208.974"/>
</g>
<!-- Node8 -->
<g id="node8" class="node"><title>Node8</title>
<g id="a_node8"><a xlink:href="class_bot.html#acc83eda4c2ebd3c509c0e618ff69dba6" target="_top" xlink:title="Gestisce una sfida.">
<polygon fill="white" stroke="black" points="217,-135 217,-154 276,-154 276,-135 217,-135"/>
<text text-anchor="middle" x="246.5" y="-142" font-family="Helvetica,sans-Serif" font-size="10.00">Bot.game</text>
</a>
</g>
</g>
<!-- Node3&#45;&gt;Node8 -->
<g id="edge7" class="edge"><title>Node3&#45;&gt;Node8</title>
<path fill="none" stroke="midnightblue" d="M141.089,-144.5C159.344,-144.5 185.232,-144.5 206.663,-144.5"/>
<polygon fill="midnightblue" stroke="midnightblue" points="206.772,-148 216.772,-144.5 206.772,-141 206.772,-148"/>
</g>
<!-- Node14 -->
<g id="node14" class="node"><title>Node14</title>
<g id="a_node14"><a xlink:href="class_word_quizzle_client.html#ab3dfa5eb3dd327ca00e89b9920125e0e" target="_top" xlink:title="Effettua il login.">
<polygon fill="white" stroke="black" points="186,-88 186,-107 307,-107 307,-88 186,-88"/>
<text text-anchor="middle" x="246.5" y="-95" font-family="Helvetica,sans-Serif" font-size="10.00">WordQuizzleClient.login</text>
</a>
</g>
</g>
<!-- Node3&#45;&gt;Node14 -->
<g id="edge13" class="edge"><title>Node3&#45;&gt;Node14</title>
<path fill="none" stroke="midnightblue" d="M141.089,-135.989C160.256,-128.923 187.84,-118.755 209.842,-110.644"/>
<polygon fill="midnightblue" stroke="midnightblue" points="211.337,-113.824 219.509,-107.081 208.915,-107.256 211.337,-113.824"/>
</g>
<!-- Node16 -->
<g id="node16" class="node"><title>Node16</title>
<g id="a_node16"><a xlink:href="class_word_quizzle_client.html#a516539e0da1d5d54431a7e41cf9339f8" target="_top" xlink:title="Registra un nuovo utente.">
<polygon fill="white" stroke="black" points="180,-19.5 180,-49.5 313,-49.5 313,-19.5 180,-19.5"/>
<text text-anchor="start" x="188" y="-37.5" font-family="Helvetica,sans-Serif" font-size="10.00">WordQuizzleClient.registra</text>
<text text-anchor="middle" x="246.5" y="-26.5" font-family="Helvetica,sans-Serif" font-size="10.00">_utente</text>
</a>
</g>
</g>
<!-- Node3&#45;&gt;Node16 -->
<g id="edge15" class="edge"><title>Node3&#45;&gt;Node16</title>
<path fill="none" stroke="midnightblue" d="M125.471,-134.829C136.203,-121.297 157.013,-96.3694 178,-78.5 187.902,-70.069 199.514,-61.9587 210.289,-55.0481"/>
<polygon fill="midnightblue" stroke="midnightblue" points="212.464,-57.8154 219.086,-49.5446 208.752,-51.8809 212.464,-57.8154"/>
</g>
<!-- Node5 -->
<g id="node5" class="node"><title>Node5</title>
<g id="a_node5"><a xlink:href="interface_word_quizzle_service.html#ac0cddaf5d6b4f16f4802b52579fd97ae" target="_top" xlink:title="Accetta una richiesta di sfida inviata da nickAmico.">
<polygon fill="white" stroke="black" points="365.5,-289.5 365.5,-319.5 505.5,-319.5 505.5,-289.5 365.5,-289.5"/>
<text text-anchor="start" x="373.5" y="-307.5" font-family="Helvetica,sans-Serif" font-size="10.00">WordQuizzleService.accetta</text>
<text text-anchor="middle" x="435.5" y="-296.5" font-family="Helvetica,sans-Serif" font-size="10.00">Sfida</text>
</a>
</g>
</g>
<!-- Node4&#45;&gt;Node5 -->
<g id="edge4" class="edge"><title>Node4&#45;&gt;Node5</title>
<path fill="none" stroke="midnightblue" d="M313.166,-298.012C326.716,-298.736 341.123,-299.507 355.101,-300.254"/>
<polygon fill="midnightblue" stroke="midnightblue" points="355.011,-303.754 365.184,-300.793 355.385,-296.764 355.011,-303.754"/>
</g>
<!-- Node7 -->
<g id="node7" class="node"><title>Node7</title>
<g id="a_node7"><a xlink:href="interface_word_quizzle_service.html#af3a47eb252f1b6e8a80e90568c87b98a" target="_top" xlink:title="Verifica se ci sono richieste di sfida per nickUtente.">
<polygon fill="white" stroke="black" points="363.5,-240.5 363.5,-270.5 507.5,-270.5 507.5,-240.5 363.5,-240.5"/>
<text text-anchor="start" x="371.5" y="-258.5" font-family="Helvetica,sans-Serif" font-size="10.00">WordQuizzleService.controlla</text>
<text text-anchor="middle" x="435.5" y="-247.5" font-family="Helvetica,sans-Serif" font-size="10.00">Richieste</text>
</a>
</g>
</g>
<!-- Node6&#45;&gt;Node7 -->
<g id="edge6" class="edge"><title>Node6&#45;&gt;Node7</title>
<path fill="none" stroke="midnightblue" d="M315.011,-236.97C327.394,-238.89 340.437,-240.913 353.173,-242.888"/>
<polygon fill="midnightblue" stroke="midnightblue" points="352.885,-246.385 363.303,-244.459 353.958,-239.468 352.885,-246.385"/>
</g>
<!-- Node9 -->
<g id="node9" class="node"><title>Node9</title>
<g id="a_node9"><a xlink:href="class_word_quizzle_server_service.html#a445af71c2bed6349e5239893b2e0ca8c" target="_top" xlink:title="Restituisce il numero di parole per sfida.">
<polygon fill="white" stroke="black" points="358,-202 358,-221 513,-221 513,-202 358,-202"/>
<text text-anchor="middle" x="435.5" y="-209" font-family="Helvetica,sans-Serif" font-size="10.00">WordQuizzleServerService.getK</text>
</a>
</g>
</g>
<!-- Node8&#45;&gt;Node9 -->
<g id="edge8" class="edge"><title>Node8&#45;&gt;Node9</title>
<path fill="none" stroke="midnightblue" d="M265.344,-154.188C285.603,-164.848 319.884,-181.877 351,-192.5 358.602,-195.095 366.715,-197.441 374.784,-199.528"/>
<polygon fill="midnightblue" stroke="midnightblue" points="374.02,-202.945 384.568,-201.944 375.698,-196.149 374.02,-202.945"/>
</g>
<!-- Node10 -->
<g id="node10" class="node"><title>Node10</title>
<g id="a_node10"><a xlink:href="class_word_quizzle_server_service.html#a5779a8f11e9348825e19ef83b74b43bc" target="_top" xlink:title="Restituisce la durata di una sfida, in millisecondi.">
<polygon fill="white" stroke="black" points="356.5,-164 356.5,-183 514.5,-183 514.5,-164 356.5,-164"/>
<text text-anchor="middle" x="435.5" y="-171" font-family="Helvetica,sans-Serif" font-size="10.00">WordQuizzleServerService.getT2</text>
</a>
</g>
</g>
<!-- Node8&#45;&gt;Node10 -->
<g id="edge9" class="edge"><title>Node8&#45;&gt;Node10</title>
<path fill="none" stroke="midnightblue" d="M276.309,-148.968C299.412,-152.551 332.852,-157.736 363.041,-162.418"/>
<polygon fill="midnightblue" stroke="midnightblue" points="362.716,-165.91 373.135,-163.983 363.789,-158.992 362.716,-165.91"/>
</g>
<!-- Node11 -->
<g id="node11" class="node"><title>Node11</title>
<g id="a_node11"><a xlink:href="class_word_quizzle_client.html#a8af265290384d3ce6dcb44c6e08f3b4a" target="_top" xlink:title="Invia la traduzione della parola precedentemente inviata dal server durante una sfida.">
<polygon fill="white" stroke="black" points="351,-126 351,-145 520,-145 520,-126 351,-126"/>
<text text-anchor="middle" x="435.5" y="-133" font-family="Helvetica,sans-Serif" font-size="10.00">WordQuizzleClient.sendTranslation</text>
</a>
</g>
</g>
<!-- Node8&#45;&gt;Node11 -->
<g id="edge10" class="edge"><title>Node8&#45;&gt;Node11</title>
<path fill="none" stroke="midnightblue" d="M276.309,-143.113C293.79,-142.272 317.188,-141.146 340.618,-140.018"/>
<polygon fill="midnightblue" stroke="midnightblue" points="340.824,-143.513 350.644,-139.536 340.487,-136.521 340.824,-143.513"/>
</g>
<!-- Node13 -->
<g id="node13" class="node"><title>Node13</title>
<g id="a_node13"><a xlink:href="class_translator.html#ad52c8ccdf35d16a095786e5e052b333a" target="_top" xlink:title="Traduce una parola dall&#39;italiano all&#39;inglese.">
<polygon fill="white" stroke="black" points="385.5,-88 385.5,-107 485.5,-107 485.5,-88 385.5,-88"/>
<text text-anchor="middle" x="435.5" y="-95" font-family="Helvetica,sans-Serif" font-size="10.00">Translator.translate</text>
</a>
</g>
</g>
<!-- Node8&#45;&gt;Node13 -->
<g id="edge12" class="edge"><title>Node8&#45;&gt;Node13</title>
<path fill="none" stroke="midnightblue" d="M276.417,-136.341C297.128,-130.579 325.711,-122.795 351,-116.5 360.738,-114.076 371.146,-111.609 381.194,-109.291"/>
<polygon fill="midnightblue" stroke="midnightblue" points="382.115,-112.671 391.083,-107.029 380.554,-105.847 382.115,-112.671"/>
</g>
<!-- Node12 -->
<g id="node12" class="node"><title>Node12</title>
<g id="a_node12"><a xlink:href="interface_word_quizzle_service.html#a02c046b12dcaedd35e92fd7878595f57" target="_top" xlink:title="Invia la traduzione della parola precedentemente inviata dal server durante una sfida.">
<polygon fill="white" stroke="black" points="556,-126 556,-145 732,-145 732,-126 556,-126"/>
<text text-anchor="middle" x="644" y="-133" font-family="Helvetica,sans-Serif" font-size="10.00">WordQuizzleService.sendTranslation</text>
</a>
</g>
</g>
<!-- Node11&#45;&gt;Node12 -->
<g id="edge11" class="edge"><title>Node11&#45;&gt;Node12</title>
<path fill="none" stroke="midnightblue" d="M520.194,-135.5C528.631,-135.5 537.249,-135.5 545.812,-135.5"/>
<polygon fill="midnightblue" stroke="midnightblue" points="545.824,-139 555.823,-135.5 545.823,-132 545.824,-139"/>
</g>
<!-- Node15 -->
<g id="node15" class="node"><title>Node15</title>
<g id="a_node15"><a xlink:href="interface_word_quizzle_service.html#a7d076a6d78b7108aa0d793ea398492f4" target="_top" xlink:title="Effettua il login.">
<polygon fill="white" stroke="black" points="371.5,-50 371.5,-69 499.5,-69 499.5,-50 371.5,-50"/>
<text text-anchor="middle" x="435.5" y="-57" font-family="Helvetica,sans-Serif" font-size="10.00">WordQuizzleService.login</text>
</a>
</g>
</g>
<!-- Node14&#45;&gt;Node15 -->
<g id="edge14" class="edge"><title>Node14&#45;&gt;Node15</title>
<path fill="none" stroke="midnightblue" d="M294.688,-87.911C319.92,-82.7835 351.173,-76.4328 377.727,-71.0368"/>
<polygon fill="midnightblue" stroke="midnightblue" points="378.549,-74.4414 387.651,-69.0201 377.155,-67.5816 378.549,-74.4414"/>
</g>
<!-- Node17 -->
<g id="node17" class="node"><title>Node17</title>
<g id="a_node17"><a xlink:href="interface_word_quizzle_service.html#a11603d2e946c2df51d3fa9d1daa53791" target="_top" xlink:title="Registra un utente.">
<polygon fill="white" stroke="black" points="365.5,-0.5 365.5,-30.5 505.5,-30.5 505.5,-0.5 365.5,-0.5"/>
<text text-anchor="start" x="373.5" y="-18.5" font-family="Helvetica,sans-Serif" font-size="10.00">WordQuizzleService.registra</text>
<text text-anchor="middle" x="435.5" y="-7.5" font-family="Helvetica,sans-Serif" font-size="10.00">_utente</text>
</a>
</g>
</g>
<!-- Node16&#45;&gt;Node17 -->
<g id="edge16" class="edge"><title>Node16&#45;&gt;Node17</title>
<path fill="none" stroke="midnightblue" d="M313.166,-27.828C326.716,-26.4513 341.123,-24.9875 355.101,-23.5673"/>
<polygon fill="midnightblue" stroke="midnightblue" points="355.589,-27.0358 365.184,-22.5428 354.881,-20.0717 355.589,-27.0358"/>
</g>
</g>
</svg>
