<?xml version="1.0" encoding="UTF-8" standalone="no"?>
<!DOCTYPE svg PUBLIC "-//W3C//DTD SVG 1.1//EN"
 "http://www.w3.org/Graphics/SVG/1.1/DTD/svg11.dtd">
<!-- Generated by graphviz version 2.38.0 (20140413.2041)
 -->
<!-- Title: WordQuizzle.WordQuizzleClientService.write Pages: 1 -->
<svg width="1384pt" height="496pt"
 viewBox="0.00 0.00 1384.00 495.50" xmlns="http://www.w3.org/2000/svg" xmlns:xlink="http://www.w3.org/1999/xlink">
<g id="graph0" class="graph" transform="scale(1 1) rotate(0) translate(4 491.5)">
<title>WordQuizzle.WordQuizzleClientService.write</title>
<polygon fill="white" stroke="none" points="-4,4 -4,-491.5 1380,-491.5 1380,4 -4,4"/>
<!-- Node1 -->
<g id="node1" class="node"><title>Node1</title>
<g id="a_node1"><a xlink:title=" ">
<polygon fill="#bfbfbf" stroke="black" points="1219,-228 1219,-258 1376,-258 1376,-228 1219,-228"/>
<text text-anchor="start" x="1227" y="-246" font-family="Helvetica,sans-Serif" font-size="10.00">WordQuizzle.WordQuizzleClient</text>
<text text-anchor="middle" x="1297.5" y="-235" font-family="Helvetica,sans-Serif" font-size="10.00">Service.write</text>
</a>
</g>
</g>
<!-- Node2 -->
<g id="node2" class="node"><title>Node2</title>
<g id="a_node2"><a xlink:href="class_word_quizzle_1_1_word_quizzle_client_service.html#a0ed33ad0199840ae1847c4ecbc992ce2" target="_top" xlink:title=" ">
<polygon fill="white" stroke="black" points="1026,-228 1026,-258 1183,-258 1183,-228 1026,-228"/>
<text text-anchor="start" x="1034" y="-246" font-family="Helvetica,sans-Serif" font-size="10.00">WordQuizzle.WordQuizzleClient</text>
<text text-anchor="middle" x="1104.5" y="-235" font-family="Helvetica,sans-Serif" font-size="10.00">Service.send</text>
</a>
</g>
</g>
<!-- Node1&#45;&gt;Node2 -->
<g id="edge1" class="edge"><title>Node1&#45;&gt;Node2</title>
<path fill="none" stroke="midnightblue" d="M1208.81,-243C1200.24,-243 1191.58,-243 1183.12,-243"/>
<polygon fill="midnightblue" stroke="midnightblue" points="1208.81,-246.5 1218.81,-243 1208.81,-239.5 1208.81,-246.5"/>
</g>
<!-- Node3 -->
<g id="node3" class="node"><title>Node3</title>
<g id="a_node3"><a xlink:href="class_word_quizzle_1_1_word_quizzle_client_service.html#a547ba20a2963597abe34d58e643ea2db" target="_top" xlink:title=" ">
<polygon fill="white" stroke="black" points="833,-432 833,-462 990,-462 990,-432 833,-432"/>
<text text-anchor="start" x="841" y="-450" font-family="Helvetica,sans-Serif" font-size="10.00">WordQuizzle.WordQuizzleClient</text>
<text text-anchor="middle" x="911.5" y="-439" font-family="Helvetica,sans-Serif" font-size="10.00">Service.accettaSfida</text>
</a>
</g>
</g>
<!-- Node2&#45;&gt;Node3 -->
<g id="edge2" class="edge"><title>Node2&#45;&gt;Node3</title>
<path fill="none" stroke="midnightblue" d="M1092.75,-267.823C1075.79,-304.369 1039.58,-372.768 990,-414 981.23,-421.293 970.609,-427.206 960.08,-431.902"/>
<polygon fill="midnightblue" stroke="midnightblue" points="1096.07,-268.962 1097.02,-258.409 1089.7,-266.071 1096.07,-268.962"/>
</g>
<!-- Node8 -->
<g id="node8" class="node"><title>Node8</title>
<g id="a_node8"><a xlink:href="class_word_quizzle_1_1_word_quizzle_client_service.html#adc41c272e3f60eaf3fb07f477887a7ff" target="_top" xlink:title=" ">
<polygon fill="white" stroke="black" points="833,-130 833,-160 990,-160 990,-130 833,-130"/>
<text text-anchor="start" x="841" y="-148" font-family="Helvetica,sans-Serif" font-size="10.00">WordQuizzle.WordQuizzleClient</text>
<text text-anchor="middle" x="911.5" y="-137" font-family="Helvetica,sans-Serif" font-size="10.00">Service.aggiungi_amico</text>
</a>
</g>
</g>
<!-- Node2&#45;&gt;Node8 -->
<g id="edge7" class="edge"><title>Node2&#45;&gt;Node8</title>
<path fill="none" stroke="midnightblue" d="M1075.71,-221.727C1053.48,-205.513 1021.01,-183.565 990,-169 982.988,-165.707 975.411,-162.721 967.837,-160.063"/>
<polygon fill="midnightblue" stroke="midnightblue" points="1073.87,-224.72 1083.99,-227.85 1078.03,-219.091 1073.87,-224.72"/>
</g>
<!-- Node12 -->
<g id="node12" class="node"><title>Node12</title>
<g id="a_node12"><a xlink:href="class_word_quizzle_1_1_word_quizzle_client_service.html#ab8db9cd5ff3f755cf306b508741ce7b1" target="_top" xlink:title=" ">
<polygon fill="white" stroke="black" points="833,-81 833,-111 990,-111 990,-81 833,-81"/>
<text text-anchor="start" x="841" y="-99" font-family="Helvetica,sans-Serif" font-size="10.00">WordQuizzle.WordQuizzleClient</text>
<text text-anchor="middle" x="911.5" y="-88" font-family="Helvetica,sans-Serif" font-size="10.00">Service.lista_amici</text>
</a>
</g>
</g>
<!-- Node2&#45;&gt;Node12 -->
<g id="edge12" class="edge"><title>Node2&#45;&gt;Node12</title>
<path fill="none" stroke="midnightblue" d="M1087.7,-219.432C1067.96,-191.759 1031.69,-146.305 990,-120 984.64,-116.617 978.769,-113.682 972.733,-111.142"/>
<polygon fill="midnightblue" stroke="midnightblue" points="1084.91,-221.555 1093.51,-227.746 1090.65,-217.544 1084.91,-221.555"/>
</g>
<!-- Node14 -->
<g id="node14" class="node"><title>Node14</title>
<g id="a_node14"><a xlink:href="class_word_quizzle_1_1_word_quizzle_client_service.html#aa02afd3fa03a290940b6c958e3c57199" target="_top" xlink:title=" ">
<polygon fill="white" stroke="black" points="833,-326 833,-356 990,-356 990,-326 833,-326"/>
<text text-anchor="start" x="841" y="-344" font-family="Helvetica,sans-Serif" font-size="10.00">WordQuizzle.WordQuizzleClient</text>
<text text-anchor="middle" x="911.5" y="-333" font-family="Helvetica,sans-Serif" font-size="10.00">Service.login</text>
</a>
</g>
</g>
<!-- Node2&#45;&gt;Node14 -->
<g id="edge16" class="edge"><title>Node2&#45;&gt;Node14</title>
<path fill="none" stroke="midnightblue" d="M1075.21,-264.151C1052.95,-280.049 1020.66,-301.497 990,-316 982.332,-319.627 974.001,-322.927 965.739,-325.854"/>
<polygon fill="midnightblue" stroke="midnightblue" points="1077.47,-266.838 1083.52,-258.142 1073.36,-261.166 1077.47,-266.838"/>
</g>
<!-- Node17 -->
<g id="node17" class="node"><title>Node17</title>
<g id="a_node17"><a xlink:href="class_word_quizzle_1_1_word_quizzle_client_service.html#a584e77014fba5e13b26af26c6e240bd6" target="_top" xlink:title=" ">
<polygon fill="white" stroke="black" points="833,-32 833,-62 990,-62 990,-32 833,-32"/>
<text text-anchor="start" x="841" y="-50" font-family="Helvetica,sans-Serif" font-size="10.00">WordQuizzle.WordQuizzleClient</text>
<text text-anchor="middle" x="911.5" y="-39" font-family="Helvetica,sans-Serif" font-size="10.00">Service.logout</text>
</a>
</g>
</g>
<!-- Node2&#45;&gt;Node17 -->
<g id="edge20" class="edge"><title>Node2&#45;&gt;Node17</title>
<path fill="none" stroke="midnightblue" d="M1093.68,-218.211C1077.61,-180.808 1042.18,-110.166 990,-71 985.381,-67.5331 980.254,-64.5612 974.9,-62.0145"/>
<polygon fill="midnightblue" stroke="midnightblue" points="1090.61,-219.947 1097.7,-227.825 1097.07,-217.249 1090.61,-219.947"/>
</g>
<!-- Node21 -->
<g id="node21" class="node"><title>Node21</title>
<g id="a_node21"><a xlink:href="class_word_quizzle_1_1_word_quizzle_client_service.html#a972476e61ab3c927ba99af27bc7f58bb" target="_top" xlink:title=" ">
<polygon fill="white" stroke="black" points="833,-277 833,-307 990,-307 990,-277 833,-277"/>
<text text-anchor="start" x="841" y="-295" font-family="Helvetica,sans-Serif" font-size="10.00">WordQuizzle.WordQuizzleClient</text>
<text text-anchor="middle" x="911.5" y="-284" font-family="Helvetica,sans-Serif" font-size="10.00">Service.mostra_classifica</text>
</a>
</g>
</g>
<!-- Node2&#45;&gt;Node21 -->
<g id="edge26" class="edge"><title>Node2&#45;&gt;Node21</title>
<path fill="none" stroke="midnightblue" d="M1035.09,-260.55C1014.12,-265.931 991.243,-271.799 970.994,-276.994"/>
<polygon fill="midnightblue" stroke="midnightblue" points="1036.08,-263.91 1044.9,-258.035 1034.34,-257.129 1036.08,-263.91"/>
</g>
<!-- Node23 -->
<g id="node23" class="node"><title>Node23</title>
<g id="a_node23"><a xlink:href="class_word_quizzle_1_1_word_quizzle_client_service.html#a50a062f91fbb470547bde8235f2930d1" target="_top" xlink:title=" ">
<polygon fill="white" stroke="black" points="833,-228 833,-258 990,-258 990,-228 833,-228"/>
<text text-anchor="start" x="841" y="-246" font-family="Helvetica,sans-Serif" font-size="10.00">WordQuizzle.WordQuizzleClient</text>
<text text-anchor="middle" x="911.5" y="-235" font-family="Helvetica,sans-Serif" font-size="10.00">Service.mostra_punteggio</text>
</a>
</g>
</g>
<!-- Node2&#45;&gt;Node23 -->
<g id="edge30" class="edge"><title>Node2&#45;&gt;Node23</title>
<path fill="none" stroke="midnightblue" d="M1015.81,-243C1007.24,-243 998.58,-243 990.118,-243"/>
<polygon fill="midnightblue" stroke="midnightblue" points="1015.81,-246.5 1025.81,-243 1015.81,-239.5 1015.81,-246.5"/>
</g>
<!-- Node25 -->
<g id="node25" class="node"><title>Node25</title>
<g id="a_node25"><a xlink:href="class_word_quizzle_1_1_word_quizzle_client_service.html#a53ced7302f38c42dfed59b2a70674800" target="_top" xlink:title=" ">
<polygon fill="white" stroke="black" points="833,-375 833,-405 990,-405 990,-375 833,-375"/>
<text text-anchor="start" x="841" y="-393" font-family="Helvetica,sans-Serif" font-size="10.00">WordQuizzle.WordQuizzleClient</text>
<text text-anchor="middle" x="911.5" y="-382" font-family="Helvetica,sans-Serif" font-size="10.00">Service.sendTranslation</text>
</a>
</g>
</g>
<!-- Node2&#45;&gt;Node25 -->
<g id="edge34" class="edge"><title>Node2&#45;&gt;Node25</title>
<path fill="none" stroke="midnightblue" d="M1087.6,-266.288C1067.77,-293.651 1031.4,-338.651 990,-365 984.036,-368.795 977.446,-372.062 970.701,-374.861"/>
<polygon fill="midnightblue" stroke="midnightblue" points="1090.5,-268.248 1093.44,-258.07 1084.8,-264.193 1090.5,-268.248"/>
</g>
<!-- Node29 -->
<g id="node29" class="node"><title>Node29</title>
<g id="a_node29"><a xlink:href="class_word_quizzle_1_1_word_quizzle_client_service.html#a7eef869e03ee5f68139882d98de88c1f" target="_top" xlink:title=" ">
<polygon fill="white" stroke="black" points="833,-179 833,-209 990,-209 990,-179 833,-179"/>
<text text-anchor="start" x="841" y="-197" font-family="Helvetica,sans-Serif" font-size="10.00">WordQuizzle.WordQuizzleClient</text>
<text text-anchor="middle" x="911.5" y="-186" font-family="Helvetica,sans-Serif" font-size="10.00">Service.sfida</text>
</a>
</g>
</g>
<!-- Node2&#45;&gt;Node29 -->
<g id="edge41" class="edge"><title>Node2&#45;&gt;Node29</title>
<path fill="none" stroke="midnightblue" d="M1035.09,-225.45C1014.12,-220.069 991.243,-214.201 970.994,-209.006"/>
<polygon fill="midnightblue" stroke="midnightblue" points="1034.34,-228.871 1044.9,-227.965 1036.08,-222.09 1034.34,-228.871"/>
</g>
<!-- Node4 -->
<g id="node4" class="node"><title>Node4</title>
<g id="a_node4"><a xlink:href="class_word_quizzle_1_1_word_quizzle_client.html#a540dfbf20ba0d5a8118e6d9284b79bc0" target="_top" xlink:title=" ">
<polygon fill="white" stroke="black" points="373,-457 373,-487 565,-487 565,-457 373,-457"/>
<text text-anchor="start" x="381" y="-475" font-family="Helvetica,sans-Serif" font-size="10.00">WordQuizzle.WordQuizzleClient.accetta</text>
<text text-anchor="middle" x="469" y="-464" font-family="Helvetica,sans-Serif" font-size="10.00">Sfida</text>
</a>
</g>
</g>
<!-- Node3&#45;&gt;Node4 -->
<g id="edge3" class="edge"><title>Node3&#45;&gt;Node4</title>
<path fill="none" stroke="midnightblue" d="M822.484,-451.995C748.102,-456.217 641.77,-462.251 565.374,-466.587"/>
<polygon fill="midnightblue" stroke="midnightblue" points="822.976,-455.473 832.761,-451.412 822.579,-448.484 822.976,-455.473"/>
</g>
<!-- Node5 -->
<g id="node5" class="node"><title>Node5</title>
<g id="a_node5"><a xlink:href="class_word_quizzle_1_1_w_q_cli.html#a7b07b55738bdd5da89a2ef645afdc020" target="_top" xlink:title=" ">
<polygon fill="white" stroke="black" points="164,-380.5 164,-399.5 337,-399.5 337,-380.5 164,-380.5"/>
<text text-anchor="middle" x="250.5" y="-387.5" font-family="Helvetica,sans-Serif" font-size="10.00">WordQuizzle.WQCli.nuovaRichiesta</text>
</a>
</g>
</g>
<!-- Node4&#45;&gt;Node5 -->
<g id="edge4" class="edge"><title>Node4&#45;&gt;Node5</title>
<path fill="none" stroke="midnightblue" d="M394.442,-454.068C387.142,-451.863 379.889,-449.499 373,-447 362.788,-443.295 302.971,-414.737 271.245,-399.503"/>
<polygon fill="midnightblue" stroke="midnightblue" points="393.817,-457.531 404.397,-456.973 395.778,-450.812 393.817,-457.531"/>
</g>
<!-- Node7 -->
<g id="node7" class="node"><title>Node7</title>
<g id="a_node7"><a xlink:href="class_word_quizzle_1_1_notifier.html#ad051f74dab1ae47c4453f9d094b6d0c4" target="_top" xlink:title=" ">
<polygon fill="white" stroke="black" points="189.5,-440.5 189.5,-459.5 311.5,-459.5 311.5,-440.5 189.5,-440.5"/>
<text text-anchor="middle" x="250.5" y="-447.5" font-family="Helvetica,sans-Serif" font-size="10.00">WordQuizzle.Notifier.run</text>
</a>
</g>
</g>
<!-- Node4&#45;&gt;Node7 -->
<g id="edge6" class="edge"><title>Node4&#45;&gt;Node7</title>
<path fill="none" stroke="midnightblue" d="M362.468,-461.276C345.007,-459.502 327.451,-457.718 311.619,-456.109"/>
<polygon fill="midnightblue" stroke="midnightblue" points="362.422,-464.789 372.725,-462.318 363.13,-457.825 362.422,-464.789"/>
</g>
<!-- Node6 -->
<g id="node6" class="node"><title>Node6</title>
<g id="a_node6"><a xlink:href="class_word_quizzle_1_1_w_q_cli.html#a7c2d51051cc7f1b20c57c1424d3b7727" target="_top" xlink:title=" ">
<polygon fill="white" stroke="black" points="0,-304.5 0,-323.5 128,-323.5 128,-304.5 0,-304.5"/>
<text text-anchor="middle" x="64" y="-311.5" font-family="Helvetica,sans-Serif" font-size="10.00">WordQuizzle.WQCli.main</text>
</a>
</g>
</g>
<!-- Node5&#45;&gt;Node6 -->
<g id="edge5" class="edge"><title>Node5&#45;&gt;Node6</title>
<path fill="none" stroke="midnightblue" d="M216.796,-376.529C179.85,-361.309 120.652,-336.924 88.1773,-323.547"/>
<polygon fill="midnightblue" stroke="midnightblue" points="215.554,-379.802 226.133,-380.375 218.22,-373.33 215.554,-379.802"/>
</g>
<!-- Node9 -->
<g id="node9" class="node"><title>Node9</title>
<g id="a_node9"><a xlink:href="class_word_quizzle_1_1_word_quizzle_client.html#a91d982387c02c9ccae681f4a7d500a75" target="_top" xlink:title=" ">
<polygon fill="white" stroke="black" points="601,-130 601,-160 797,-160 797,-130 601,-130"/>
<text text-anchor="start" x="609" y="-148" font-family="Helvetica,sans-Serif" font-size="10.00">WordQuizzle.WordQuizzleClient.aggiungi</text>
<text text-anchor="middle" x="699" y="-137" font-family="Helvetica,sans-Serif" font-size="10.00">_amico</text>
</a>
</g>
</g>
<!-- Node8&#45;&gt;Node9 -->
<g id="edge8" class="edge"><title>Node8&#45;&gt;Node9</title>
<path fill="none" stroke="midnightblue" d="M822.556,-145C814.153,-145 805.599,-145 797.116,-145"/>
<polygon fill="midnightblue" stroke="midnightblue" points="822.716,-148.5 832.716,-145 822.716,-141.5 822.716,-148.5"/>
</g>
<!-- Node10 -->
<g id="node10" class="node"><title>Node10</title>
<g id="a_node10"><a xlink:href="class_word_quizzle_1_1_w_q_gui.html#a5c987293ccc62020ac32b8c4f8415adf" target="_top" xlink:title=" ">
<polygon fill="white" stroke="black" points="388.5,-152.5 388.5,-171.5 549.5,-171.5 549.5,-152.5 388.5,-152.5"/>
<text text-anchor="middle" x="469" y="-159.5" font-family="Helvetica,sans-Serif" font-size="10.00">WordQuizzle.WQGui.makeGame</text>
</a>
</g>
</g>
<!-- Node9&#45;&gt;Node10 -->
<g id="edge9" class="edge"><title>Node9&#45;&gt;Node10</title>
<path fill="none" stroke="midnightblue" d="M590.916,-152.984C577.049,-154.018 563.045,-155.062 549.729,-156.055"/>
<polygon fill="midnightblue" stroke="midnightblue" points="591.265,-156.468 600.977,-152.234 590.744,-149.488 591.265,-156.468"/>
</g>
<!-- Node11 -->
<g id="node11" class="node"><title>Node11</title>
<g id="a_node11"><a xlink:href="class_word_quizzle_1_1_w_q_cli.html#a318ef86f91a825da4ff4684bd3332a6b" target="_top" xlink:title=" ">
<polygon fill="white" stroke="black" points="185,-228.5 185,-247.5 316,-247.5 316,-228.5 185,-228.5"/>
<text text-anchor="middle" x="250.5" y="-235.5" font-family="Helvetica,sans-Serif" font-size="10.00">WordQuizzle.WQCli.parse</text>
</a>
</g>
</g>
<!-- Node9&#45;&gt;Node11 -->
<g id="edge10" class="edge"><title>Node9&#45;&gt;Node11</title>
<path fill="none" stroke="midnightblue" d="M607.402,-128.671C540.721,-120.38 448.86,-116.863 373,-143 322.875,-160.27 277.605,-207.655 259.665,-228.24"/>
<polygon fill="midnightblue" stroke="midnightblue" points="607.098,-132.161 617.466,-129.983 608.002,-125.22 607.098,-132.161"/>
</g>
<!-- Node11&#45;&gt;Node6 -->
<g id="edge11" class="edge"><title>Node11&#45;&gt;Node6</title>
<path fill="none" stroke="midnightblue" d="M216.796,-251.471C179.85,-266.691 120.652,-291.076 88.1773,-304.453"/>
<polygon fill="midnightblue" stroke="midnightblue" points="218.22,-254.67 226.133,-247.625 215.554,-248.198 218.22,-254.67"/>
</g>
<!-- Node13 -->
<g id="node13" class="node"><title>Node13</title>
<g id="a_node13"><a xlink:href="class_word_quizzle_1_1_word_quizzle_client.html#a601f27bc3078f4c7d43417481f4c1353" target="_top" xlink:title=" ">
<polygon fill="white" stroke="black" points="610,-81 610,-111 788,-111 788,-81 610,-81"/>
<text text-anchor="start" x="618" y="-99" font-family="Helvetica,sans-Serif" font-size="10.00">WordQuizzle.WordQuizzleClient.lista</text>
<text text-anchor="middle" x="699" y="-88" font-family="Helvetica,sans-Serif" font-size="10.00">_amici</text>
</a>
</g>
</g>
<!-- Node12&#45;&gt;Node13 -->
<g id="edge13" class="edge"><title>Node12&#45;&gt;Node13</title>
<path fill="none" stroke="midnightblue" d="M822.397,-96C811.06,-96 799.45,-96 788.113,-96"/>
<polygon fill="midnightblue" stroke="midnightblue" points="822.716,-99.5001 832.716,-96 822.716,-92.5001 822.716,-99.5001"/>
</g>
<!-- Node13&#45;&gt;Node10 -->
<g id="edge14" class="edge"><title>Node13&#45;&gt;Node10</title>
<path fill="none" stroke="midnightblue" d="M624.879,-113.529C616.801,-115.632 608.712,-117.812 601,-120 565.156,-130.168 524.352,-143.54 497.943,-152.435"/>
<polygon fill="midnightblue" stroke="midnightblue" points="625.887,-116.884 634.701,-111.005 624.145,-110.104 625.887,-116.884"/>
</g>
<!-- Node13&#45;&gt;Node11 -->
<g id="edge15" class="edge"><title>Node13&#45;&gt;Node11</title>
<path fill="none" stroke="midnightblue" d="M599.76,-85.7338C532.962,-82.7928 444.144,-86.9877 373,-119 318.072,-143.716 273.532,-204.607 257.704,-228.324"/>
<polygon fill="midnightblue" stroke="midnightblue" points="599.706,-89.2353 609.868,-86.2403 600.056,-82.2441 599.706,-89.2353"/>
</g>
<!-- Node15 -->
<g id="node15" class="node"><title>Node15</title>
<g id="a_node15"><a xlink:href="class_word_quizzle_1_1_word_quizzle_client.html#aa87c179f3a0a6ab57c2b74960c95a626" target="_top" xlink:title=" ">
<polygon fill="white" stroke="black" points="609,-331.5 609,-350.5 789,-350.5 789,-331.5 609,-331.5"/>
<text text-anchor="middle" x="699" y="-338.5" font-family="Helvetica,sans-Serif" font-size="10.00">WordQuizzle.WordQuizzleClient.login</text>
</a>
</g>
</g>
<!-- Node14&#45;&gt;Node15 -->
<g id="edge17" class="edge"><title>Node14&#45;&gt;Node15</title>
<path fill="none" stroke="midnightblue" d="M822.648,-341C811.59,-341 800.268,-341 789.189,-341"/>
<polygon fill="midnightblue" stroke="midnightblue" points="822.716,-344.5 832.716,-341 822.716,-337.5 822.716,-344.5"/>
</g>
<!-- Node15&#45;&gt;Node11 -->
<g id="edge19" class="edge"><title>Node15&#45;&gt;Node11</title>
<path fill="none" stroke="midnightblue" d="M627.744,-351.689C560.307,-359.11 456.64,-362.973 373,-333 323.091,-315.114 277.703,-268.066 259.698,-247.665"/>
<polygon fill="midnightblue" stroke="midnightblue" points="628.304,-355.148 637.836,-350.522 627.5,-348.194 628.304,-355.148"/>
</g>
<!-- Node16 -->
<g id="node16" class="node"><title>Node16</title>
<g id="a_node16"><a xlink:href="class_word_quizzle_1_1_w_q_gui.html#aad977af8a8393382e53bc94a76605a3b" target="_top" xlink:title=" ">
<polygon fill="white" stroke="black" points="390,-304.5 390,-323.5 548,-323.5 548,-304.5 390,-304.5"/>
<text text-anchor="middle" x="469" y="-311.5" font-family="Helvetica,sans-Serif" font-size="10.00">WordQuizzle.WQGui.makeLogin</text>
</a>
</g>
</g>
<!-- Node15&#45;&gt;Node16 -->
<g id="edge18" class="edge"><title>Node15&#45;&gt;Node16</title>
<path fill="none" stroke="midnightblue" d="M607.453,-330.277C587.825,-327.953 567.227,-325.514 548.126,-323.252"/>
<polygon fill="midnightblue" stroke="midnightblue" points="607.273,-333.78 617.616,-331.481 608.097,-326.829 607.273,-333.78"/>
</g>
<!-- Node18 -->
<g id="node18" class="node"><title>Node18</title>
<g id="a_node18"><a xlink:href="class_word_quizzle_1_1_word_quizzle_client.html#a50468f5e79e6bba9efc2e9fd19493345" target="_top" xlink:title=" ">
<polygon fill="white" stroke="black" points="606,-37.5 606,-56.5 792,-56.5 792,-37.5 606,-37.5"/>
<text text-anchor="middle" x="699" y="-44.5" font-family="Helvetica,sans-Serif" font-size="10.00">WordQuizzle.WordQuizzleClient.logout</text>
</a>
</g>
</g>
<!-- Node17&#45;&gt;Node18 -->
<g id="edge21" class="edge"><title>Node17&#45;&gt;Node18</title>
<path fill="none" stroke="midnightblue" d="M822.688,-47C812.571,-47 802.234,-47 792.064,-47"/>
<polygon fill="midnightblue" stroke="midnightblue" points="822.716,-50.5001 832.716,-47 822.716,-43.5001 822.716,-50.5001"/>
</g>
<!-- Node18&#45;&gt;Node10 -->
<g id="edge24" class="edge"><title>Node18&#45;&gt;Node10</title>
<path fill="none" stroke="midnightblue" d="M634.522,-59.1641C623.112,-62.339 611.513,-66.2438 601,-71 552.053,-93.1431 502.061,-133.985 480.717,-152.469"/>
<polygon fill="midnightblue" stroke="midnightblue" points="635.682,-62.4786 644.468,-56.559 633.908,-55.707 635.682,-62.4786"/>
</g>
<!-- Node18&#45;&gt;Node11 -->
<g id="edge25" class="edge"><title>Node18&#45;&gt;Node11</title>
<path fill="none" stroke="midnightblue" d="M595.524,-37.6679C528.243,-36.1791 440.53,-43.3849 373,-81 309.468,-116.388 268.125,-200.097 255.554,-228.432"/>
<polygon fill="midnightblue" stroke="midnightblue" points="595.622,-41.1721 605.719,-37.963 595.824,-34.1751 595.622,-41.1721"/>
</g>
<!-- Node19 -->
<g id="node19" class="node"><title>Node19</title>
<g id="a_node19"><a xlink:href="class_word_quizzle_1_1_w_q_gui.html#a0e08347bf2107460ca41d63036fdc6ad" target="_top" xlink:title=" ">
<polygon fill="white" stroke="black" points="401.5,-0.5 401.5,-19.5 536.5,-19.5 536.5,-0.5 401.5,-0.5"/>
<text text-anchor="middle" x="469" y="-7.5" font-family="Helvetica,sans-Serif" font-size="10.00">WordQuizzle.WQGui.make</text>
</a>
</g>
</g>
<!-- Node18&#45;&gt;Node19 -->
<g id="edge22" class="edge"><title>Node18&#45;&gt;Node19</title>
<path fill="none" stroke="midnightblue" d="M629.12,-35.822C597.152,-30.6343 559.54,-24.5307 528.913,-19.5604"/>
<polygon fill="midnightblue" stroke="midnightblue" points="628.853,-39.3245 639.284,-37.4716 629.974,-32.4148 628.853,-39.3245"/>
</g>
<!-- Node20 -->
<g id="node20" class="node"><title>Node20</title>
<g id="a_node20"><a xlink:href="class_word_quizzle_1_1_w_q_gui.html#ae0526e759d1f51457ce5e6144a51432f" target="_top" xlink:title=" ">
<polygon fill="white" stroke="black" points="184.5,-0.5 184.5,-19.5 316.5,-19.5 316.5,-0.5 184.5,-0.5"/>
<text text-anchor="middle" x="250.5" y="-7.5" font-family="Helvetica,sans-Serif" font-size="10.00">WordQuizzle.WQGui.main</text>
</a>
</g>
</g>
<!-- Node19&#45;&gt;Node20 -->
<g id="edge23" class="edge"><title>Node19&#45;&gt;Node20</title>
<path fill="none" stroke="midnightblue" d="M390.992,-10C366.628,-10 339.955,-10 316.518,-10"/>
<polygon fill="midnightblue" stroke="midnightblue" points="391.276,-13.5001 401.276,-10 391.276,-6.5001 391.276,-13.5001"/>
</g>
<!-- Node22 -->
<g id="node22" class="node"><title>Node22</title>
<g id="a_node22"><a xlink:href="class_word_quizzle_1_1_word_quizzle_client.html#a155c2dca547e63f1ba07589525ccfd75" target="_top" xlink:title=" ">
<polygon fill="white" stroke="black" points="604,-272 604,-302 794,-302 794,-272 604,-272"/>
<text text-anchor="start" x="612" y="-290" font-family="Helvetica,sans-Serif" font-size="10.00">WordQuizzle.WordQuizzleClient.mostra</text>
<text text-anchor="middle" x="699" y="-279" font-family="Helvetica,sans-Serif" font-size="10.00">_classifica</text>
</a>
</g>
</g>
<!-- Node21&#45;&gt;Node22 -->
<g id="edge27" class="edge"><title>Node21&#45;&gt;Node22</title>
<path fill="none" stroke="midnightblue" d="M822.626,-289.913C813.246,-289.69 803.676,-289.463 794.226,-289.238"/>
<polygon fill="midnightblue" stroke="midnightblue" points="822.635,-293.414 832.716,-290.152 822.802,-286.416 822.635,-293.414"/>
</g>
<!-- Node22&#45;&gt;Node10 -->
<g id="edge28" class="edge"><title>Node22&#45;&gt;Node10</title>
<path fill="none" stroke="midnightblue" d="M616.445,-268.576C611.132,-266.585 605.937,-264.398 601,-262 550.298,-237.375 500.054,-191.432 479.588,-171.563"/>
<polygon fill="midnightblue" stroke="midnightblue" points="615.511,-271.957 626.106,-271.952 617.821,-265.349 615.511,-271.957"/>
</g>
<!-- Node22&#45;&gt;Node11 -->
<g id="edge29" class="edge"><title>Node22&#45;&gt;Node11</title>
<path fill="none" stroke="midnightblue" d="M593.7,-275.967C529.944,-269.173 446.747,-260.22 373,-252 354.535,-249.942 334.499,-247.655 316.122,-245.537"/>
<polygon fill="midnightblue" stroke="midnightblue" points="593.447,-279.46 603.761,-277.038 594.188,-272.499 593.447,-279.46"/>
</g>
<!-- Node24 -->
<g id="node24" class="node"><title>Node24</title>
<g id="a_node24"><a xlink:href="class_word_quizzle_1_1_word_quizzle_client.html#a22e0d1e5461e49703357d34b50cf70b8" target="_top" xlink:title=" ">
<polygon fill="white" stroke="black" points="604,-223 604,-253 794,-253 794,-223 604,-223"/>
<text text-anchor="start" x="612" y="-241" font-family="Helvetica,sans-Serif" font-size="10.00">WordQuizzle.WordQuizzleClient.mostra</text>
<text text-anchor="middle" x="699" y="-230" font-family="Helvetica,sans-Serif" font-size="10.00">_punteggio</text>
</a>
</g>
</g>
<!-- Node23&#45;&gt;Node24 -->
<g id="edge31" class="edge"><title>Node23&#45;&gt;Node24</title>
<path fill="none" stroke="midnightblue" d="M822.626,-240.913C813.246,-240.69 803.676,-240.463 794.226,-240.238"/>
<polygon fill="midnightblue" stroke="midnightblue" points="822.635,-244.414 832.716,-241.152 822.802,-237.416 822.635,-244.414"/>
</g>
<!-- Node24&#45;&gt;Node10 -->
<g id="edge32" class="edge"><title>Node24&#45;&gt;Node10</title>
<path fill="none" stroke="midnightblue" d="M625.393,-220.296C617.125,-217.981 608.852,-215.53 601,-213 562.207,-200.499 518.279,-182.604 492.425,-171.673"/>
<polygon fill="midnightblue" stroke="midnightblue" points="624.501,-223.68 635.071,-222.946 626.35,-216.929 624.501,-223.68"/>
</g>
<!-- Node24&#45;&gt;Node11 -->
<g id="edge33" class="edge"><title>Node24&#45;&gt;Node11</title>
<path fill="none" stroke="midnightblue" d="M593.822,-238C508.008,-238 389.011,-238 316.297,-238"/>
<polygon fill="midnightblue" stroke="midnightblue" points="593.854,-241.5 603.854,-238 593.854,-234.5 593.854,-241.5"/>
</g>
<!-- Node26 -->
<g id="node26" class="node"><title>Node26</title>
<g id="a_node26"><a xlink:href="class_word_quizzle_1_1_word_quizzle_client.html#a828a5e7a358bd53296d88c97172db13b" target="_top" xlink:title=" ">
<polygon fill="white" stroke="black" points="608.5,-375 608.5,-405 789.5,-405 789.5,-375 608.5,-375"/>
<text text-anchor="start" x="616.5" y="-393" font-family="Helvetica,sans-Serif" font-size="10.00">WordQuizzle.WordQuizzleClient.send</text>
<text text-anchor="middle" x="699" y="-382" font-family="Helvetica,sans-Serif" font-size="10.00">Translation</text>
</a>
</g>
</g>
<!-- Node25&#45;&gt;Node26 -->
<g id="edge35" class="edge"><title>Node25&#45;&gt;Node26</title>
<path fill="none" stroke="midnightblue" d="M822.397,-390C811.537,-390 800.428,-390 789.548,-390"/>
<polygon fill="midnightblue" stroke="midnightblue" points="822.716,-393.5 832.716,-390 822.716,-386.5 822.716,-393.5"/>
</g>
<!-- Node27 -->
<g id="node27" class="node"><title>Node27</title>
<g id="a_node27"><a xlink:href="class_word_quizzle_1_1_w_q_cli.html#ae5f342434ec80ce1ed3939fb446de436" target="_top" xlink:title=" ">
<polygon fill="white" stroke="black" points="403.5,-380.5 403.5,-399.5 534.5,-399.5 534.5,-380.5 403.5,-380.5"/>
<text text-anchor="middle" x="469" y="-387.5" font-family="Helvetica,sans-Serif" font-size="10.00">WordQuizzle.WQCli.game</text>
</a>
</g>
</g>
<!-- Node26&#45;&gt;Node27 -->
<g id="edge36" class="edge"><title>Node26&#45;&gt;Node27</title>
<path fill="none" stroke="midnightblue" d="M598.071,-390C576.585,-390 554.423,-390 534.699,-390"/>
<polygon fill="midnightblue" stroke="midnightblue" points="598.216,-393.5 608.216,-390 598.216,-386.5 598.216,-393.5"/>
</g>
<!-- Node28 -->
<g id="node28" class="node"><title>Node28</title>
<g id="a_node28"><a xlink:href="class_word_quizzle_1_1_w_q_gui.html#a0e3cb31624c4fdda7b58977fe75de341" target="_top" xlink:title=" ">
<polygon fill="white" stroke="black" points="401.5,-418.5 401.5,-437.5 536.5,-437.5 536.5,-418.5 401.5,-418.5"/>
<text text-anchor="middle" x="469" y="-425.5" font-family="Helvetica,sans-Serif" font-size="10.00">WordQuizzle.WQGui.game</text>
</a>
</g>
</g>
<!-- Node26&#45;&gt;Node28 -->
<g id="edge39" class="edge"><title>Node26&#45;&gt;Node28</title>
<path fill="none" stroke="midnightblue" d="M598.228,-406.629C573.914,-410.681 548.724,-414.879 527.174,-418.471"/>
<polygon fill="midnightblue" stroke="midnightblue" points="598.927,-410.061 608.216,-404.964 597.776,-403.156 598.927,-410.061"/>
</g>
<!-- Node27&#45;&gt;Node5 -->
<g id="edge37" class="edge"><title>Node27&#45;&gt;Node5</title>
<path fill="none" stroke="midnightblue" d="M393.156,-390C375.07,-390 355.605,-390 337.07,-390"/>
<polygon fill="midnightblue" stroke="midnightblue" points="393.336,-393.5 403.336,-390 393.336,-386.5 393.336,-393.5"/>
</g>
<!-- Node27&#45;&gt;Node11 -->
<g id="edge38" class="edge"><title>Node27&#45;&gt;Node11</title>
<path fill="none" stroke="midnightblue" d="M398.878,-377.477C389.851,-374.437 380.979,-370.669 373,-366 319.053,-334.432 273.93,-271.894 257.825,-247.791"/>
<polygon fill="midnightblue" stroke="midnightblue" points="398.112,-380.903 408.699,-380.497 400.17,-374.212 398.112,-380.903"/>
</g>
<!-- Node28&#45;&gt;Node7 -->
<g id="edge40" class="edge"><title>Node28&#45;&gt;Node7</title>
<path fill="none" stroke="midnightblue" d="M391.058,-435.819C365.009,-438.466 336.313,-441.382 311.751,-443.877"/>
<polygon fill="midnightblue" stroke="midnightblue" points="391.681,-439.273 401.276,-434.78 390.974,-432.309 391.681,-439.273"/>
</g>
<!-- Node30 -->
<g id="node30" class="node"><title>Node30</title>
<g id="a_node30"><a xlink:href="class_word_quizzle_1_1_word_quizzle_client.html#a2f667c9d998bab28411f3fd0af90ec8c" target="_top" xlink:title=" ">
<polygon fill="white" stroke="black" points="609,-184.5 609,-203.5 789,-203.5 789,-184.5 609,-184.5"/>
<text text-anchor="middle" x="699" y="-191.5" font-family="Helvetica,sans-Serif" font-size="10.00">WordQuizzle.WordQuizzleClient.sfida</text>
</a>
</g>
</g>
<!-- Node29&#45;&gt;Node30 -->
<g id="edge42" class="edge"><title>Node29&#45;&gt;Node30</title>
<path fill="none" stroke="midnightblue" d="M822.648,-194C811.59,-194 800.268,-194 789.189,-194"/>
<polygon fill="midnightblue" stroke="midnightblue" points="822.716,-197.5 832.716,-194 822.716,-190.5 822.716,-197.5"/>
</g>
<!-- Node30&#45;&gt;Node10 -->
<g id="edge43" class="edge"><title>Node30&#45;&gt;Node10</title>
<path fill="none" stroke="midnightblue" d="M620.134,-183.071C593.43,-179.323 563.776,-175.161 537.923,-171.533"/>
<polygon fill="midnightblue" stroke="midnightblue" points="619.82,-186.562 630.21,-184.486 620.793,-179.63 619.82,-186.562"/>
</g>
<!-- Node30&#45;&gt;Node11 -->
<g id="edge44" class="edge"><title>Node30&#45;&gt;Node11</title>
<path fill="none" stroke="midnightblue" d="M598.921,-203.764C512.716,-212.259 390.289,-224.323 316.14,-231.63"/>
<polygon fill="midnightblue" stroke="midnightblue" points="599.376,-207.236 608.985,-202.772 598.69,-200.27 599.376,-207.236"/>
</g>
</g>
</svg>
