<?xml version="1.0" encoding="UTF-8" standalone="no"?>
<!DOCTYPE svg PUBLIC "-//W3C//DTD SVG 1.1//EN"
 "http://www.w3.org/Graphics/SVG/1.1/DTD/svg11.dtd">
<!-- Generated by graphviz version 2.38.0 (20140413.2041)
 -->
<!-- Title: Tester.run Pages: 1 -->
<svg width="421pt" height="361pt"
 viewBox="0.00 0.00 421.00 361.00" xmlns="http://www.w3.org/2000/svg" xmlns:xlink="http://www.w3.org/1999/xlink">
<g id="graph0" class="graph" transform="scale(1 1) rotate(0) translate(4 357)">
<title>Tester.run</title>
<polygon fill="white" stroke="none" points="-4,4 -4,-357 417,-357 417,4 -4,4"/>
<!-- Node1 -->
<g id="node1" class="node"><title>Node1</title>
<g id="a_node1"><a xlink:title="Esegue un test sul server.">
<polygon fill="#bfbfbf" stroke="black" points="0,-167 0,-186 60,-186 60,-167 0,-167"/>
<text text-anchor="middle" x="30" y="-174" font-family="Helvetica,sans-Serif" font-size="10.00">Tester.run</text>
</a>
</g>
</g>
<!-- Node2 -->
<g id="node2" class="node"><title>Node2</title>
<g id="a_node2"><a xlink:href="class_word_quizzle_client.html#a47e5d9e8bd41242505edcb76350df881" target="_top" xlink:title="Aggiunge un utente alla lista di amici di user.">
<polygon fill="white" stroke="black" points="96,-322.5 96,-352.5 233,-352.5 233,-322.5 96,-322.5"/>
<text text-anchor="start" x="104" y="-340.5" font-family="Helvetica,sans-Serif" font-size="10.00">WordQuizzleClient.aggiungi</text>
<text text-anchor="middle" x="164.5" y="-329.5" font-family="Helvetica,sans-Serif" font-size="10.00">_amico</text>
</a>
</g>
</g>
<!-- Node1&#45;&gt;Node2 -->
<g id="edge1" class="edge"><title>Node1&#45;&gt;Node2</title>
<path fill="none" stroke="midnightblue" d="M32.9937,-186.236C38.5315,-210.88 56.3772,-276.333 96,-312.5 97.7248,-314.074 99.5575,-315.552 101.473,-316.939"/>
<polygon fill="midnightblue" stroke="midnightblue" points="99.9878,-320.137 110.326,-322.455 103.69,-314.196 99.9878,-320.137"/>
</g>
<!-- Node4 -->
<g id="node4" class="node"><title>Node4</title>
<g id="a_node4"><a xlink:href="class_word_quizzle_client.html#aff2ae6478070d04f0864cfffe73e6b27" target="_top" xlink:title="Verifica se ci sono richieste di sfida per user.">
<polygon fill="white" stroke="black" points="96,-273.5 96,-303.5 233,-303.5 233,-273.5 96,-273.5"/>
<text text-anchor="start" x="104" y="-291.5" font-family="Helvetica,sans-Serif" font-size="10.00">WordQuizzleClient.controlla</text>
<text text-anchor="middle" x="164.5" y="-280.5" font-family="Helvetica,sans-Serif" font-size="10.00">Richieste</text>
</a>
</g>
</g>
<!-- Node1&#45;&gt;Node4 -->
<g id="edge3" class="edge"><title>Node1&#45;&gt;Node4</title>
<path fill="none" stroke="midnightblue" d="M35.7198,-186.03C44.9403,-203.725 67.0057,-241.826 96,-263.5 98.4726,-265.348 101.097,-267.073 103.82,-268.68"/>
<polygon fill="midnightblue" stroke="midnightblue" points="102.313,-271.843 112.79,-273.422 105.585,-265.654 102.313,-271.843"/>
</g>
<!-- Node6 -->
<g id="node6" class="node"><title>Node6</title>
<g id="a_node6"><a xlink:href="class_word_quizzle_client.html#a5503bd747932abeb7a733b780d31dc19" target="_top" xlink:title="Richiede la lista degli amici di user.">
<polygon fill="white" stroke="black" points="105,-224.5 105,-254.5 224,-254.5 224,-224.5 105,-224.5"/>
<text text-anchor="start" x="113" y="-242.5" font-family="Helvetica,sans-Serif" font-size="10.00">WordQuizzleClient.lista</text>
<text text-anchor="middle" x="164.5" y="-231.5" font-family="Helvetica,sans-Serif" font-size="10.00">_amici</text>
</a>
</g>
</g>
<!-- Node1&#45;&gt;Node6 -->
<g id="edge5" class="edge"><title>Node1&#45;&gt;Node6</title>
<path fill="none" stroke="midnightblue" d="M45.5739,-186.012C58.492,-194.2 78.0394,-206.003 96,-214.5 100.543,-216.649 105.325,-218.74 110.158,-220.738"/>
<polygon fill="midnightblue" stroke="midnightblue" points="108.882,-223.997 119.467,-224.457 111.479,-217.497 108.882,-223.997"/>
</g>
<!-- Node8 -->
<g id="node8" class="node"><title>Node8</title>
<g id="a_node8"><a xlink:href="class_word_quizzle_client.html#ab3dfa5eb3dd327ca00e89b9920125e0e" target="_top" xlink:title="Effettua il login.">
<polygon fill="white" stroke="black" points="104,-186 104,-205 225,-205 225,-186 104,-186"/>
<text text-anchor="middle" x="164.5" y="-193" font-family="Helvetica,sans-Serif" font-size="10.00">WordQuizzleClient.login</text>
</a>
</g>
</g>
<!-- Node1&#45;&gt;Node8 -->
<g id="edge7" class="edge"><title>Node1&#45;&gt;Node8</title>
<path fill="none" stroke="midnightblue" d="M60.0777,-180.67C70.1357,-182.112 81.8837,-183.797 93.7814,-185.503"/>
<polygon fill="midnightblue" stroke="midnightblue" points="93.3812,-188.981 103.777,-186.936 94.3749,-182.052 93.3812,-188.981"/>
</g>
<!-- Node10 -->
<g id="node10" class="node"><title>Node10</title>
<g id="a_node10"><a xlink:href="class_word_quizzle_client.html#ab3b513d94019a6b4350aaa6c92c59136" target="_top" xlink:title="Effettua il logout di user.">
<polygon fill="white" stroke="black" points="101,-148 101,-167 228,-167 228,-148 101,-148"/>
<text text-anchor="middle" x="164.5" y="-155" font-family="Helvetica,sans-Serif" font-size="10.00">WordQuizzleClient.logout</text>
</a>
</g>
</g>
<!-- Node1&#45;&gt;Node10 -->
<g id="edge9" class="edge"><title>Node1&#45;&gt;Node10</title>
<path fill="none" stroke="midnightblue" d="M60.0777,-172.33C69.2929,-171.009 79.9269,-169.484 90.7948,-167.926"/>
<polygon fill="midnightblue" stroke="midnightblue" points="91.4054,-171.374 100.807,-166.49 90.4118,-164.445 91.4054,-171.374"/>
</g>
<!-- Node12 -->
<g id="node12" class="node"><title>Node12</title>
<g id="a_node12"><a xlink:href="class_word_quizzle_client.html#a01ec8b2d43325305d263b803834652cb" target="_top" xlink:title="Richiede la classifica dell&#39;user e dei suoi amici.">
<polygon fill="white" stroke="black" points="99,-98.5 99,-128.5 230,-128.5 230,-98.5 99,-98.5"/>
<text text-anchor="start" x="107" y="-116.5" font-family="Helvetica,sans-Serif" font-size="10.00">WordQuizzleClient.mostra</text>
<text text-anchor="middle" x="164.5" y="-105.5" font-family="Helvetica,sans-Serif" font-size="10.00">_classifica</text>
</a>
</g>
</g>
<!-- Node1&#45;&gt;Node12 -->
<g id="edge11" class="edge"><title>Node1&#45;&gt;Node12</title>
<path fill="none" stroke="midnightblue" d="M45.5739,-166.988C58.492,-158.8 78.0394,-146.997 96,-138.5 100.543,-136.351 105.325,-134.26 110.158,-132.262"/>
<polygon fill="midnightblue" stroke="midnightblue" points="111.479,-135.503 119.467,-128.543 108.882,-129.003 111.479,-135.503"/>
</g>
<!-- Node14 -->
<g id="node14" class="node"><title>Node14</title>
<g id="a_node14"><a xlink:href="class_word_quizzle_client.html#ad88c5209ea7c672da454a7523834fce7" target="_top" xlink:title="Richiede il punteggio di user.">
<polygon fill="white" stroke="black" points="99,-49.5 99,-79.5 230,-79.5 230,-49.5 99,-49.5"/>
<text text-anchor="start" x="107" y="-67.5" font-family="Helvetica,sans-Serif" font-size="10.00">WordQuizzleClient.mostra</text>
<text text-anchor="middle" x="164.5" y="-56.5" font-family="Helvetica,sans-Serif" font-size="10.00">_punteggio</text>
</a>
</g>
</g>
<!-- Node1&#45;&gt;Node14 -->
<g id="edge13" class="edge"><title>Node1&#45;&gt;Node14</title>
<path fill="none" stroke="midnightblue" d="M35.6641,-166.823C44.7917,-148.862 66.7084,-110.223 96,-88.5 97.8669,-87.1155 99.8209,-85.8052 101.839,-84.5657"/>
<polygon fill="midnightblue" stroke="midnightblue" points="103.914,-87.4218 111.032,-79.5739 100.574,-81.2703 103.914,-87.4218"/>
</g>
<!-- Node16 -->
<g id="node16" class="node"><title>Node16</title>
<g id="a_node16"><a xlink:href="class_word_quizzle_client.html#a516539e0da1d5d54431a7e41cf9339f8" target="_top" xlink:title="Registra un nuovo utente.">
<polygon fill="white" stroke="black" points="98,-0.5 98,-30.5 231,-30.5 231,-0.5 98,-0.5"/>
<text text-anchor="start" x="106" y="-18.5" font-family="Helvetica,sans-Serif" font-size="10.00">WordQuizzleClient.registra</text>
<text text-anchor="middle" x="164.5" y="-7.5" font-family="Helvetica,sans-Serif" font-size="10.00">_utente</text>
</a>
</g>
</g>
<!-- Node1&#45;&gt;Node16 -->
<g id="edge15" class="edge"><title>Node1&#45;&gt;Node16</title>
<path fill="none" stroke="midnightblue" d="M32.9433,-166.662C38.3629,-141.766 55.954,-75.6786 96,-39.5 97.3007,-38.3249 98.6628,-37.2065 100.076,-36.142"/>
<polygon fill="midnightblue" stroke="midnightblue" points="102.138,-38.9769 108.646,-30.6169 98.3449,-33.0934 102.138,-38.9769"/>
</g>
<!-- Node3 -->
<g id="node3" class="node"><title>Node3</title>
<g id="a_node3"><a xlink:href="interface_word_quizzle_service.html#a9b0441e9bbdbda3213f217f4fe5a97f3" target="_top" xlink:title="Aggiunge un utente alla lista di amici di nickUtente.">
<polygon fill="white" stroke="black" points="269.5,-322.5 269.5,-352.5 412.5,-352.5 412.5,-322.5 269.5,-322.5"/>
<text text-anchor="start" x="277.5" y="-340.5" font-family="Helvetica,sans-Serif" font-size="10.00">WordQuizzleService.aggiungi</text>
<text text-anchor="middle" x="341" y="-329.5" font-family="Helvetica,sans-Serif" font-size="10.00">_amico</text>
</a>
</g>
</g>
<!-- Node2&#45;&gt;Node3 -->
<g id="edge2" class="edge"><title>Node2&#45;&gt;Node3</title>
<path fill="none" stroke="midnightblue" d="M233.466,-337.5C241.926,-337.5 250.641,-337.5 259.27,-337.5"/>
<polygon fill="midnightblue" stroke="midnightblue" points="259.341,-341 269.341,-337.5 259.341,-334 259.341,-341"/>
</g>
<!-- Node5 -->
<g id="node5" class="node"><title>Node5</title>
<g id="a_node5"><a xlink:href="interface_word_quizzle_service.html#af3a47eb252f1b6e8a80e90568c87b98a" target="_top" xlink:title="Verifica se ci sono richieste di sfida per nickUtente.">
<polygon fill="white" stroke="black" points="269,-273.5 269,-303.5 413,-303.5 413,-273.5 269,-273.5"/>
<text text-anchor="start" x="277" y="-291.5" font-family="Helvetica,sans-Serif" font-size="10.00">WordQuizzleService.controlla</text>
<text text-anchor="middle" x="341" y="-280.5" font-family="Helvetica,sans-Serif" font-size="10.00">Richieste</text>
</a>
</g>
</g>
<!-- Node4&#45;&gt;Node5 -->
<g id="edge4" class="edge"><title>Node4&#45;&gt;Node5</title>
<path fill="none" stroke="midnightblue" d="M233.466,-288.5C241.698,-288.5 250.171,-288.5 258.572,-288.5"/>
<polygon fill="midnightblue" stroke="midnightblue" points="258.763,-292 268.763,-288.5 258.763,-285 258.763,-292"/>
</g>
<!-- Node7 -->
<g id="node7" class="node"><title>Node7</title>
<g id="a_node7"><a xlink:href="interface_word_quizzle_service.html#a0a06ecea2f7c95d4871bbb64cf67430e" target="_top" xlink:title="Richiede la lista degli amici di nickUtente.">
<polygon fill="white" stroke="black" points="278.5,-224.5 278.5,-254.5 403.5,-254.5 403.5,-224.5 278.5,-224.5"/>
<text text-anchor="start" x="286.5" y="-242.5" font-family="Helvetica,sans-Serif" font-size="10.00">WordQuizzleService.lista</text>
<text text-anchor="middle" x="341" y="-231.5" font-family="Helvetica,sans-Serif" font-size="10.00">_amici</text>
</a>
</g>
</g>
<!-- Node6&#45;&gt;Node7 -->
<g id="edge6" class="edge"><title>Node6&#45;&gt;Node7</title>
<path fill="none" stroke="midnightblue" d="M224.091,-239.5C238.25,-239.5 253.542,-239.5 268.228,-239.5"/>
<polygon fill="midnightblue" stroke="midnightblue" points="268.278,-243 278.278,-239.5 268.278,-236 268.278,-243"/>
</g>
<!-- Node9 -->
<g id="node9" class="node"><title>Node9</title>
<g id="a_node9"><a xlink:href="interface_word_quizzle_service.html#a7d076a6d78b7108aa0d793ea398492f4" target="_top" xlink:title="Effettua il login.">
<polygon fill="white" stroke="black" points="277,-186 277,-205 405,-205 405,-186 277,-186"/>
<text text-anchor="middle" x="341" y="-193" font-family="Helvetica,sans-Serif" font-size="10.00">WordQuizzleService.login</text>
</a>
</g>
</g>
<!-- Node8&#45;&gt;Node9 -->
<g id="edge8" class="edge"><title>Node8&#45;&gt;Node9</title>
<path fill="none" stroke="midnightblue" d="M225.065,-195.5C238.492,-195.5 252.895,-195.5 266.808,-195.5"/>
<polygon fill="midnightblue" stroke="midnightblue" points="266.831,-199 276.831,-195.5 266.831,-192 266.831,-199"/>
</g>
<!-- Node11 -->
<g id="node11" class="node"><title>Node11</title>
<g id="a_node11"><a xlink:href="interface_word_quizzle_service.html#a4f3b6b3f8ee7f02e7560de7571de1e07" target="_top" xlink:title="Effettua il logout.">
<polygon fill="white" stroke="black" points="274,-148 274,-167 408,-167 408,-148 274,-148"/>
<text text-anchor="middle" x="341" y="-155" font-family="Helvetica,sans-Serif" font-size="10.00">WordQuizzleService.logout</text>
</a>
</g>
</g>
<!-- Node10&#45;&gt;Node11 -->
<g id="edge10" class="edge"><title>Node10&#45;&gt;Node11</title>
<path fill="none" stroke="midnightblue" d="M228.006,-157.5C239.503,-157.5 251.625,-157.5 263.478,-157.5"/>
<polygon fill="midnightblue" stroke="midnightblue" points="263.804,-161 273.804,-157.5 263.804,-154 263.804,-161"/>
</g>
<!-- Node13 -->
<g id="node13" class="node"><title>Node13</title>
<g id="a_node13"><a xlink:href="interface_word_quizzle_service.html#ae8ae423bdd8f6bc09ca0bb4fd6790967" target="_top" xlink:title="Richiede la classifica dell&#39;utente e dei suoi amici.">
<polygon fill="white" stroke="black" points="272.5,-98.5 272.5,-128.5 409.5,-128.5 409.5,-98.5 272.5,-98.5"/>
<text text-anchor="start" x="280.5" y="-116.5" font-family="Helvetica,sans-Serif" font-size="10.00">WordQuizzleService.mostra</text>
<text text-anchor="middle" x="341" y="-105.5" font-family="Helvetica,sans-Serif" font-size="10.00">_classifica</text>
</a>
</g>
</g>
<!-- Node12&#45;&gt;Node13 -->
<g id="edge12" class="edge"><title>Node12&#45;&gt;Node13</title>
<path fill="none" stroke="midnightblue" d="M230.477,-113.5C240.831,-113.5 251.634,-113.5 262.246,-113.5"/>
<polygon fill="midnightblue" stroke="midnightblue" points="262.343,-117 272.343,-113.5 262.343,-110 262.343,-117"/>
</g>
<!-- Node15 -->
<g id="node15" class="node"><title>Node15</title>
<g id="a_node15"><a xlink:href="interface_word_quizzle_service.html#a7209a6349c060cad27604f6782e1dcaa" target="_top" xlink:title="Richiede il punteggio di nickUtente.">
<polygon fill="white" stroke="black" points="272.5,-49.5 272.5,-79.5 409.5,-79.5 409.5,-49.5 272.5,-49.5"/>
<text text-anchor="start" x="280.5" y="-67.5" font-family="Helvetica,sans-Serif" font-size="10.00">WordQuizzleService.mostra</text>
<text text-anchor="middle" x="341" y="-56.5" font-family="Helvetica,sans-Serif" font-size="10.00">_punteggio</text>
</a>
</g>
</g>
<!-- Node14&#45;&gt;Node15 -->
<g id="edge14" class="edge"><title>Node14&#45;&gt;Node15</title>
<path fill="none" stroke="midnightblue" d="M230.477,-64.5C240.831,-64.5 251.634,-64.5 262.246,-64.5"/>
<polygon fill="midnightblue" stroke="midnightblue" points="262.343,-68.0001 272.343,-64.5 262.343,-61.0001 262.343,-68.0001"/>
</g>
<!-- Node17 -->
<g id="node17" class="node"><title>Node17</title>
<g id="a_node17"><a xlink:href="interface_word_quizzle_service.html#a11603d2e946c2df51d3fa9d1daa53791" target="_top" xlink:title="Registra un utente.">
<polygon fill="white" stroke="black" points="271,-0.5 271,-30.5 411,-30.5 411,-0.5 271,-0.5"/>
<text text-anchor="start" x="279" y="-18.5" font-family="Helvetica,sans-Serif" font-size="10.00">WordQuizzleService.registra</text>
<text text-anchor="middle" x="341" y="-7.5" font-family="Helvetica,sans-Serif" font-size="10.00">_utente</text>
</a>
</g>
</g>
<!-- Node16&#45;&gt;Node17 -->
<g id="edge16" class="edge"><title>Node16&#45;&gt;Node17</title>
<path fill="none" stroke="midnightblue" d="M231.471,-15.5C240.998,-15.5 250.885,-15.5 260.64,-15.5"/>
<polygon fill="midnightblue" stroke="midnightblue" points="260.737,-19.0001 270.737,-15.5 260.737,-12.0001 260.737,-19.0001"/>
</g>
</g>
</svg>
