<?xml version="1.0" encoding="UTF-8" standalone="no"?>
<!DOCTYPE svg PUBLIC "-//W3C//DTD SVG 1.1//EN"
 "http://www.w3.org/Graphics/SVG/1.1/DTD/svg11.dtd">
<!-- Generated by graphviz version 2.38.0 (20140413.2041)
 -->
<!-- Title: Notifier Pages: 1 -->
<svg width="346pt" height="744pt"
 viewBox="0.00 0.00 346.00 744.00" xmlns="http://www.w3.org/2000/svg" xmlns:xlink="http://www.w3.org/1999/xlink">
<g id="graph0" class="graph" transform="scale(1 1) rotate(0) translate(4 740)">
<title>Notifier</title>
<polygon fill="white" stroke="none" points="-4,4 -4,-740 342,-740 342,4 -4,4"/>
<!-- Node1 -->
<g id="node1" class="node"><title>Node1</title>
<g id="a_node1"><a xlink:title="Gestisce le richieste di sfida a livello di Gui.">
<polygon fill="#bfbfbf" stroke="black" points="113.5,-0.5 113.5,-68.5 175.5,-68.5 175.5,-0.5 113.5,-0.5"/>
<text text-anchor="middle" x="144.5" y="-56.5" font-family="Helvetica,sans-Serif" font-size="10.00">Notifier</text>
<polyline fill="none" stroke="black" points="113.5,-49.5 175.5,-49.5 "/>
<text text-anchor="middle" x="144.5" y="-37.5" font-family="Helvetica,sans-Serif" font-size="10.00"> </text>
<polyline fill="none" stroke="black" points="113.5,-30.5 175.5,-30.5 "/>
<text text-anchor="start" x="121.5" y="-18.5" font-family="Helvetica,sans-Serif" font-size="10.00">+ Notifier()</text>
<text text-anchor="start" x="121.5" y="-7.5" font-family="Helvetica,sans-Serif" font-size="10.00">+ run()</text>
</a>
</g>
</g>
<!-- Node2 -->
<g id="node2" class="node"><title>Node2</title>
<g id="a_node2"><a xlink:title=" ">
<polygon fill="white" stroke="#bfbfbf" points="0,-155 0,-212 57,-212 57,-155 0,-155"/>
<text text-anchor="middle" x="28.5" y="-200" font-family="Helvetica,sans-Serif" font-size="10.00">Runnable</text>
<polyline fill="none" stroke="#bfbfbf" points="0,-193 57,-193 "/>
<text text-anchor="middle" x="28.5" y="-181" font-family="Helvetica,sans-Serif" font-size="10.00"> </text>
<polyline fill="none" stroke="#bfbfbf" points="0,-174 57,-174 "/>
<text text-anchor="middle" x="28.5" y="-162" font-family="Helvetica,sans-Serif" font-size="10.00"> </text>
</a>
</g>
</g>
<!-- Node2&#45;&gt;Node1 -->
<g id="edge1" class="edge"><title>Node2&#45;&gt;Node1</title>
<path fill="none" stroke="midnightblue" d="M47.3264,-145.745C53.0097,-135.773 59.5894,-125.197 66.5,-116 80.4109,-97.4863 98.2433,-78.7901 113.345,-64.0815"/>
<polygon fill="none" stroke="midnightblue" points="44.1625,-144.234 42.3754,-154.677 50.2848,-147.628 44.1625,-144.234"/>
</g>
<!-- Node3 -->
<g id="node3" class="node"><title>Node3</title>
<g id="a_node3"><a xlink:title=" ">
<polygon fill="white" stroke="#bfbfbf" points="75.5,-155 75.5,-212 135.5,-212 135.5,-155 75.5,-155"/>
<text text-anchor="middle" x="105.5" y="-200" font-family="Helvetica,sans-Serif" font-size="10.00">JTextArea</text>
<polyline fill="none" stroke="#bfbfbf" points="75.5,-193 135.5,-193 "/>
<text text-anchor="middle" x="105.5" y="-181" font-family="Helvetica,sans-Serif" font-size="10.00"> </text>
<polyline fill="none" stroke="#bfbfbf" points="75.5,-174 135.5,-174 "/>
<text text-anchor="middle" x="105.5" y="-162" font-family="Helvetica,sans-Serif" font-size="10.00"> </text>
</a>
</g>
</g>
<!-- Node3&#45;&gt;Node1 -->
<g id="edge2" class="edge"><title>Node3&#45;&gt;Node1</title>
<path fill="none" stroke="#404040" d="M105.909,-154.75C106.862,-135.372 109.504,-109.118 116.5,-87 117.255,-84.6121 118.124,-82.2074 119.078,-79.8111"/>
<polygon fill="none" stroke="#404040" points="119.128,-79.6992 117.941,-72.5865 124.049,-68.7548 125.237,-75.8675 119.128,-79.6992"/>
<text text-anchor="middle" x="139.5" y="-90" font-family="Helvetica,sans-Serif" font-size="10.00"> &#45;message</text>
</g>
<!-- Node4 -->
<g id="node4" class="node"><title>Node4</title>
<g id="a_node4"><a xlink:href="class_word_quizzle_client.html" target="_top" xlink:title="Definisce un Client con memoria.">
<polygon fill="white" stroke="black" points="225,-320.5 225,-520.5 338,-520.5 338,-320.5 225,-320.5"/>
<text text-anchor="middle" x="281.5" y="-508.5" font-family="Helvetica,sans-Serif" font-size="10.00">WordQuizzleClient</text>
<polyline fill="none" stroke="black" points="225,-501.5 338,-501.5 "/>
<text text-anchor="start" x="233" y="-489.5" font-family="Helvetica,sans-Serif" font-size="10.00">&#45; user</text>
<polyline fill="none" stroke="black" points="225,-482.5 338,-482.5 "/>
<text text-anchor="start" x="233" y="-470.5" font-family="Helvetica,sans-Serif" font-size="10.00">+ WordQuizzleClient()</text>
<text text-anchor="start" x="233" y="-459.5" font-family="Helvetica,sans-Serif" font-size="10.00">+ getUser()</text>
<text text-anchor="start" x="233" y="-448.5" font-family="Helvetica,sans-Serif" font-size="10.00">+ registra_utente()</text>
<text text-anchor="start" x="233" y="-437.5" font-family="Helvetica,sans-Serif" font-size="10.00">+ login()</text>
<text text-anchor="start" x="233" y="-426.5" font-family="Helvetica,sans-Serif" font-size="10.00">+ logout()</text>
<text text-anchor="start" x="233" y="-415.5" font-family="Helvetica,sans-Serif" font-size="10.00">+ aggiungi_amico()</text>
<text text-anchor="start" x="233" y="-404.5" font-family="Helvetica,sans-Serif" font-size="10.00">+ sfida()</text>
<text text-anchor="start" x="233" y="-393.5" font-family="Helvetica,sans-Serif" font-size="10.00">+ lista_amici()</text>
<text text-anchor="start" x="233" y="-382.5" font-family="Helvetica,sans-Serif" font-size="10.00">+ mostra_punteggio()</text>
<text text-anchor="start" x="233" y="-371.5" font-family="Helvetica,sans-Serif" font-size="10.00">+ mostra_classifica()</text>
<text text-anchor="start" x="233" y="-360.5" font-family="Helvetica,sans-Serif" font-size="10.00">+ controllaRichieste()</text>
<text text-anchor="start" x="233" y="-349.5" font-family="Helvetica,sans-Serif" font-size="10.00">+ controllaRichieste()</text>
<text text-anchor="start" x="233" y="-338.5" font-family="Helvetica,sans-Serif" font-size="10.00">+ accettaSfida()</text>
<text text-anchor="start" x="233" y="-327.5" font-family="Helvetica,sans-Serif" font-size="10.00">+ sendTranslation()</text>
</a>
</g>
</g>
<!-- Node4&#45;&gt;Node1 -->
<g id="edge3" class="edge"><title>Node4&#45;&gt;Node1</title>
<path fill="none" stroke="#404040" d="M289.482,-320.168C289.899,-257.376 281.532,-176.883 244.5,-116 230.232,-92.5431 206.541,-73.021 185.798,-59.0784"/>
<polygon fill="none" stroke="#404040" points="185.681,-59.0027 178.47,-59.1113 175.597,-52.4974 182.807,-52.3888 185.681,-59.0027"/>
<text text-anchor="middle" x="295" y="-181" font-family="Helvetica,sans-Serif" font-size="10.00"> &#45;wq</text>
</g>
<!-- Node6 -->
<g id="node6" class="node"><title>Node6</title>
<g id="a_node6"><a xlink:href="class_w_q_gui.html" target="_top" xlink:title="Crea un client con interfaccia a grafica.">
<polygon fill="white" stroke="black" points="153.5,-116.5 153.5,-250.5 235.5,-250.5 235.5,-116.5 153.5,-116.5"/>
<text text-anchor="middle" x="194.5" y="-238.5" font-family="Helvetica,sans-Serif" font-size="10.00">WQGui</text>
<polyline fill="none" stroke="black" points="153.5,-231.5 235.5,-231.5 "/>
<text text-anchor="start" x="161.5" y="-219.5" font-family="Helvetica,sans-Serif" font-size="10.00">&#45; index</text>
<text text-anchor="start" x="161.5" y="-208.5" font-family="Helvetica,sans-Serif" font-size="10.00">&#45; challenge</text>
<polyline fill="none" stroke="black" points="153.5,-201.5 235.5,-201.5 "/>
<text text-anchor="start" x="161.5" y="-189.5" font-family="Helvetica,sans-Serif" font-size="10.00">+ WQGui()</text>
<text text-anchor="start" x="161.5" y="-178.5" font-family="Helvetica,sans-Serif" font-size="10.00">+ game()</text>
<text text-anchor="start" x="161.5" y="-167.5" font-family="Helvetica,sans-Serif" font-size="10.00">+ inChallenge()</text>
<text text-anchor="start" x="161.5" y="-156.5" font-family="Helvetica,sans-Serif" font-size="10.00">+ main()</text>
<text text-anchor="start" x="161.5" y="-145.5" font-family="Helvetica,sans-Serif" font-size="10.00">&#45; makeLogin()</text>
<text text-anchor="start" x="161.5" y="-134.5" font-family="Helvetica,sans-Serif" font-size="10.00">&#45; makeGame()</text>
<text text-anchor="start" x="161.5" y="-123.5" font-family="Helvetica,sans-Serif" font-size="10.00">&#45; make()</text>
</a>
</g>
</g>
<!-- Node4&#45;&gt;Node6 -->
<g id="edge7" class="edge"><title>Node4&#45;&gt;Node6</title>
<path fill="none" stroke="#404040" d="M258.912,-320.393C253.895,-303.018 248.078,-285.295 241.5,-269 240.504,-266.534 239.452,-264.049 238.354,-261.558"/>
<polygon fill="none" stroke="#404040" points="238.332,-261.512 232.177,-257.755 233.277,-250.628 239.432,-254.385 238.332,-261.512"/>
<text text-anchor="middle" x="262" y="-283" font-family="Helvetica,sans-Serif" font-size="10.00"> &#45;wq</text>
</g>
<!-- Node5 -->
<g id="node5" class="node"><title>Node5</title>
<g id="a_node5"><a xlink:href="interface_word_quizzle_service.html" target="_top" xlink:title="Interfaccia che definisce i servizi utilizzabili da un client.">
<polygon fill="white" stroke="black" points="227,-568.5 227,-735.5 336,-735.5 336,-568.5 227,-568.5"/>
<text text-anchor="middle" x="281.5" y="-723.5" font-family="Helvetica,sans-Serif" font-size="10.00">WordQuizzleService</text>
<polyline fill="none" stroke="black" points="227,-716.5 336,-716.5 "/>
<text text-anchor="middle" x="281.5" y="-704.5" font-family="Helvetica,sans-Serif" font-size="10.00"> </text>
<polyline fill="none" stroke="black" points="227,-697.5 336,-697.5 "/>
<text text-anchor="start" x="235" y="-685.5" font-family="Helvetica,sans-Serif" font-size="10.00">+ registra_utente()</text>
<text text-anchor="start" x="235" y="-674.5" font-family="Helvetica,sans-Serif" font-size="10.00">+ login()</text>
<text text-anchor="start" x="235" y="-663.5" font-family="Helvetica,sans-Serif" font-size="10.00">+ logout()</text>
<text text-anchor="start" x="235" y="-652.5" font-family="Helvetica,sans-Serif" font-size="10.00">+ aggiungi_amico()</text>
<text text-anchor="start" x="235" y="-641.5" font-family="Helvetica,sans-Serif" font-size="10.00">+ sfida()</text>
<text text-anchor="start" x="235" y="-630.5" font-family="Helvetica,sans-Serif" font-size="10.00">+ lista_amici()</text>
<text text-anchor="start" x="235" y="-619.5" font-family="Helvetica,sans-Serif" font-size="10.00">+ mostra_punteggio()</text>
<text text-anchor="start" x="235" y="-608.5" font-family="Helvetica,sans-Serif" font-size="10.00">+ mostra_classifica()</text>
<text text-anchor="start" x="235" y="-597.5" font-family="Helvetica,sans-Serif" font-size="10.00">+ accettaSfida()</text>
<text text-anchor="start" x="235" y="-586.5" font-family="Helvetica,sans-Serif" font-size="10.00">+ sendTranslation()</text>
<text text-anchor="start" x="235" y="-575.5" font-family="Helvetica,sans-Serif" font-size="10.00">+ controllaRichieste()</text>
</a>
</g>
</g>
<!-- Node5&#45;&gt;Node4 -->
<g id="edge4" class="edge"><title>Node5&#45;&gt;Node4</title>
<path fill="none" stroke="#404040" d="M281.5,-568.469C281.5,-556.807 281.5,-544.662 281.5,-532.572"/>
<polygon fill="none" stroke="#404040" points="281.5,-532.519 277.5,-526.519 281.5,-520.519 285.5,-526.519 281.5,-532.519"/>
<text text-anchor="middle" x="300" y="-542" font-family="Helvetica,sans-Serif" font-size="10.00"> &#45;service</text>
</g>
<!-- Node6&#45;&gt;Node1 -->
<g id="edge5" class="edge"><title>Node6&#45;&gt;Node1</title>
<path fill="none" stroke="#404040" d="M172.491,-116.447C169.164,-106.57 165.756,-96.5126 162.5,-87 161.741,-84.7822 160.96,-82.5118 160.169,-80.2198"/>
<polygon fill="none" stroke="#404040" points="160.114,-80.06 154.369,-75.7018 156.182,-68.7224 161.927,-73.0806 160.114,-80.06"/>
<text text-anchor="middle" x="176" y="-90" font-family="Helvetica,sans-Serif" font-size="10.00"> &#45;gui</text>
</g>
<!-- Node7 -->
<g id="node7" class="node"><title>Node7</title>
<g id="a_node7"><a xlink:title=" ">
<polygon fill="white" stroke="#bfbfbf" points="77,-392 77,-449 126,-449 126,-392 77,-392"/>
<text text-anchor="middle" x="101.5" y="-437" font-family="Helvetica,sans-Serif" font-size="10.00">JFrame</text>
<polyline fill="none" stroke="#bfbfbf" points="77,-430 126,-430 "/>
<text text-anchor="middle" x="101.5" y="-418" font-family="Helvetica,sans-Serif" font-size="10.00"> </text>
<polyline fill="none" stroke="#bfbfbf" points="77,-411 126,-411 "/>
<text text-anchor="middle" x="101.5" y="-399" font-family="Helvetica,sans-Serif" font-size="10.00"> </text>
</a>
</g>
</g>
<!-- Node7&#45;&gt;Node6 -->
<g id="edge6" class="edge"><title>Node7&#45;&gt;Node6</title>
<path fill="none" stroke="midnightblue" d="M113.46,-382.158C119.677,-363.378 127.611,-340.342 135.5,-320 144.36,-297.155 154.82,-272.498 164.454,-250.56"/>
<polygon fill="none" stroke="midnightblue" points="110.078,-381.238 110.285,-391.831 116.729,-383.422 110.078,-381.238"/>
</g>
<!-- Node8 -->
<g id="node8" class="node"><title>Node8</title>
<g id="a_node8"><a xlink:title=" ">
<polygon fill="white" stroke="#bfbfbf" points="144.5,-392 144.5,-449 190.5,-449 190.5,-392 144.5,-392"/>
<text text-anchor="middle" x="167.5" y="-437" font-family="Helvetica,sans-Serif" font-size="10.00">JPanel</text>
<polyline fill="none" stroke="#bfbfbf" points="144.5,-430 190.5,-430 "/>
<text text-anchor="middle" x="167.5" y="-418" font-family="Helvetica,sans-Serif" font-size="10.00"> </text>
<polyline fill="none" stroke="#bfbfbf" points="144.5,-411 190.5,-411 "/>
<text text-anchor="middle" x="167.5" y="-399" font-family="Helvetica,sans-Serif" font-size="10.00"> </text>
</a>
</g>
</g>
<!-- Node8&#45;&gt;Node6 -->
<g id="edge8" class="edge"><title>Node8&#45;&gt;Node6</title>
<path fill="none" stroke="#404040" d="M165.288,-391.846C163.417,-361.511 161.968,-311.483 168.5,-269 168.813,-266.966 169.164,-264.914 169.549,-262.85"/>
<polygon fill="none" stroke="#404040" points="169.582,-262.696 166.923,-255.993 172.087,-250.961 174.746,-257.664 169.582,-262.696"/>
<text text-anchor="middle" x="205" y="-294" font-family="Helvetica,sans-Serif" font-size="10.00"> &#45;challengePanel</text>
<text text-anchor="middle" x="205" y="-283" font-family="Helvetica,sans-Serif" font-size="10.00">&#45;loginPanel</text>
<text text-anchor="middle" x="205" y="-272" font-family="Helvetica,sans-Serif" font-size="10.00">&#45;gamePanel</text>
</g>
</g>
</svg>
