<?xml version="1.0" encoding="UTF-8" standalone="no"?>
<!DOCTYPE svg PUBLIC "-//W3C//DTD SVG 1.1//EN"
 "http://www.w3.org/Graphics/SVG/1.1/DTD/svg11.dtd">
<!-- Generated by graphviz version 2.38.0 (20140413.2041)
 -->
<!-- Title: WordQuizzle.Notifier Pages: 1 -->
<svg width="403pt" height="744pt"
 viewBox="0.00 0.00 402.50 744.00" xmlns="http://www.w3.org/2000/svg" xmlns:xlink="http://www.w3.org/1999/xlink">
<g id="graph0" class="graph" transform="scale(1 1) rotate(0) translate(4 740)">
<title>WordQuizzle.Notifier</title>
<polygon fill="white" stroke="none" points="-4,4 -4,-740 398.5,-740 398.5,4 -4,4"/>
<!-- Node1 -->
<g id="node1" class="node"><title>Node1</title>
<g id="a_node1"><a xlink:title="Gestisce le richieste di sfida a livello di Gui.">
<polygon fill="#bfbfbf" stroke="black" points="95.5,-0.5 95.5,-68.5 201.5,-68.5 201.5,-0.5 95.5,-0.5"/>
<text text-anchor="middle" x="148.5" y="-56.5" font-family="Helvetica,sans-Serif" font-size="10.00">WordQuizzle.Notifier</text>
<polyline fill="none" stroke="black" points="95.5,-49.5 201.5,-49.5 "/>
<text text-anchor="middle" x="148.5" y="-37.5" font-family="Helvetica,sans-Serif" font-size="10.00"> </text>
<polyline fill="none" stroke="black" points="95.5,-30.5 201.5,-30.5 "/>
<text text-anchor="start" x="103.5" y="-18.5" font-family="Helvetica,sans-Serif" font-size="10.00">+ Notifier()</text>
<text text-anchor="start" x="103.5" y="-7.5" font-family="Helvetica,sans-Serif" font-size="10.00">+ run()</text>
</a>
</g>
</g>
<!-- Node2 -->
<g id="node2" class="node"><title>Node2</title>
<g id="a_node2"><a xlink:title=" ">
<polygon fill="white" stroke="#bfbfbf" points="0,-155 0,-212 57,-212 57,-155 0,-155"/>
<text text-anchor="middle" x="28.5" y="-200" font-family="Helvetica,sans-Serif" font-size="10.00">Runnable</text>
<polyline fill="none" stroke="#bfbfbf" points="0,-193 57,-193 "/>
<text text-anchor="middle" x="28.5" y="-181" font-family="Helvetica,sans-Serif" font-size="10.00"> </text>
<polyline fill="none" stroke="#bfbfbf" points="0,-174 57,-174 "/>
<text text-anchor="middle" x="28.5" y="-162" font-family="Helvetica,sans-Serif" font-size="10.00"> </text>
</a>
</g>
</g>
<!-- Node2&#45;&gt;Node1 -->
<g id="edge1" class="edge"><title>Node2&#45;&gt;Node1</title>
<path fill="none" stroke="midnightblue" d="M47.0253,-145.895C52.7411,-135.844 59.4128,-125.191 66.5,-116 79.4133,-99.2541 95.6915,-82.5743 110.334,-68.777"/>
<polygon fill="none" stroke="midnightblue" points="43.8254,-144.45 42.0605,-154.897 49.9549,-147.831 43.8254,-144.45"/>
</g>
<!-- Node3 -->
<g id="node3" class="node"><title>Node3</title>
<g id="a_node3"><a xlink:title=" ">
<polygon fill="white" stroke="#bfbfbf" points="75.5,-155 75.5,-212 135.5,-212 135.5,-155 75.5,-155"/>
<text text-anchor="middle" x="105.5" y="-200" font-family="Helvetica,sans-Serif" font-size="10.00">JTextArea</text>
<polyline fill="none" stroke="#bfbfbf" points="75.5,-193 135.5,-193 "/>
<text text-anchor="middle" x="105.5" y="-181" font-family="Helvetica,sans-Serif" font-size="10.00"> </text>
<polyline fill="none" stroke="#bfbfbf" points="75.5,-174 135.5,-174 "/>
<text text-anchor="middle" x="105.5" y="-162" font-family="Helvetica,sans-Serif" font-size="10.00"> </text>
</a>
</g>
</g>
<!-- Node3&#45;&gt;Node1 -->
<g id="edge2" class="edge"><title>Node3&#45;&gt;Node1</title>
<path fill="none" stroke="#404040" d="M108.732,-154.844C111.468,-135.509 116.143,-109.268 123.5,-87 124.28,-84.6408 125.145,-82.2512 126.073,-79.8596"/>
<polygon fill="none" stroke="#404040" points="126.093,-79.8108 124.75,-72.7259 130.774,-68.7612 132.117,-75.8461 126.093,-79.8108"/>
<text text-anchor="middle" x="146.5" y="-90" font-family="Helvetica,sans-Serif" font-size="10.00"> &#45;message</text>
</g>
<!-- Node4 -->
<g id="node4" class="node"><title>Node4</title>
<g id="a_node4"><a xlink:href="class_word_quizzle_1_1_word_quizzle_client.html" target="_top" xlink:title="Definisce un Client con memoria.">
<polygon fill="white" stroke="black" points="234,-320.5 234,-520.5 391,-520.5 391,-320.5 234,-320.5"/>
<text text-anchor="middle" x="312.5" y="-508.5" font-family="Helvetica,sans-Serif" font-size="10.00">WordQuizzle.WordQuizzleClient</text>
<polyline fill="none" stroke="black" points="234,-501.5 391,-501.5 "/>
<text text-anchor="start" x="242" y="-489.5" font-family="Helvetica,sans-Serif" font-size="10.00">&#45; user</text>
<polyline fill="none" stroke="black" points="234,-482.5 391,-482.5 "/>
<text text-anchor="start" x="242" y="-470.5" font-family="Helvetica,sans-Serif" font-size="10.00">+ WordQuizzleClient()</text>
<text text-anchor="start" x="242" y="-459.5" font-family="Helvetica,sans-Serif" font-size="10.00">+ getUser()</text>
<text text-anchor="start" x="242" y="-448.5" font-family="Helvetica,sans-Serif" font-size="10.00">+ registra_utente()</text>
<text text-anchor="start" x="242" y="-437.5" font-family="Helvetica,sans-Serif" font-size="10.00">+ login()</text>
<text text-anchor="start" x="242" y="-426.5" font-family="Helvetica,sans-Serif" font-size="10.00">+ logout()</text>
<text text-anchor="start" x="242" y="-415.5" font-family="Helvetica,sans-Serif" font-size="10.00">+ aggiungi_amico()</text>
<text text-anchor="start" x="242" y="-404.5" font-family="Helvetica,sans-Serif" font-size="10.00">+ sfida()</text>
<text text-anchor="start" x="242" y="-393.5" font-family="Helvetica,sans-Serif" font-size="10.00">+ lista_amici()</text>
<text text-anchor="start" x="242" y="-382.5" font-family="Helvetica,sans-Serif" font-size="10.00">+ mostra_punteggio()</text>
<text text-anchor="start" x="242" y="-371.5" font-family="Helvetica,sans-Serif" font-size="10.00">+ mostra_classifica()</text>
<text text-anchor="start" x="242" y="-360.5" font-family="Helvetica,sans-Serif" font-size="10.00">+ controllaRichieste()</text>
<text text-anchor="start" x="242" y="-349.5" font-family="Helvetica,sans-Serif" font-size="10.00">+ controllaRichieste()</text>
<text text-anchor="start" x="242" y="-338.5" font-family="Helvetica,sans-Serif" font-size="10.00">+ accettaSfida()</text>
<text text-anchor="start" x="242" y="-327.5" font-family="Helvetica,sans-Serif" font-size="10.00">+ sendTranslation()</text>
</a>
</g>
</g>
<!-- Node4&#45;&gt;Node1 -->
<g id="edge3" class="edge"><title>Node4&#45;&gt;Node1</title>
<path fill="none" stroke="#404040" d="M319.641,-320.414C319.444,-257.142 309.92,-176.023 270.5,-116 256.254,-94.3088 233.921,-77.1016 212.236,-64.2574"/>
<polygon fill="none" stroke="#404040" points="212.132,-64.1987 204.941,-64.7341 201.681,-58.302 208.872,-57.7666 212.132,-64.1987"/>
<text text-anchor="middle" x="324" y="-181" font-family="Helvetica,sans-Serif" font-size="10.00"> &#45;wq</text>
</g>
<!-- Node6 -->
<g id="node6" class="node"><title>Node6</title>
<g id="a_node6"><a xlink:href="class_word_quizzle_1_1_w_q_gui.html" target="_top" xlink:title="Crea un client con interfaccia a grafica.">
<polygon fill="white" stroke="black" points="153.5,-116.5 153.5,-250.5 261.5,-250.5 261.5,-116.5 153.5,-116.5"/>
<text text-anchor="middle" x="207.5" y="-238.5" font-family="Helvetica,sans-Serif" font-size="10.00">WordQuizzle.WQGui</text>
<polyline fill="none" stroke="black" points="153.5,-231.5 261.5,-231.5 "/>
<text text-anchor="start" x="161.5" y="-219.5" font-family="Helvetica,sans-Serif" font-size="10.00">&#45; index</text>
<text text-anchor="start" x="161.5" y="-208.5" font-family="Helvetica,sans-Serif" font-size="10.00">&#45; challenge</text>
<polyline fill="none" stroke="black" points="153.5,-201.5 261.5,-201.5 "/>
<text text-anchor="start" x="161.5" y="-189.5" font-family="Helvetica,sans-Serif" font-size="10.00">+ WQGui()</text>
<text text-anchor="start" x="161.5" y="-178.5" font-family="Helvetica,sans-Serif" font-size="10.00">+ game()</text>
<text text-anchor="start" x="161.5" y="-167.5" font-family="Helvetica,sans-Serif" font-size="10.00">+ inChallenge()</text>
<text text-anchor="start" x="161.5" y="-156.5" font-family="Helvetica,sans-Serif" font-size="10.00">+ main()</text>
<text text-anchor="start" x="161.5" y="-145.5" font-family="Helvetica,sans-Serif" font-size="10.00">&#45; makeLogin()</text>
<text text-anchor="start" x="161.5" y="-134.5" font-family="Helvetica,sans-Serif" font-size="10.00">&#45; makeGame()</text>
<text text-anchor="start" x="161.5" y="-123.5" font-family="Helvetica,sans-Serif" font-size="10.00">&#45; make()</text>
</a>
</g>
</g>
<!-- Node4&#45;&gt;Node6 -->
<g id="edge7" class="edge"><title>Node4&#45;&gt;Node6</title>
<path fill="none" stroke="#404040" d="M282.657,-320.175C276.371,-302.824 269.262,-285.165 261.5,-269 260.26,-266.418 258.956,-263.819 257.602,-261.215"/>
<polygon fill="none" stroke="#404040" points="257.52,-261.062 251.139,-257.703 251.786,-250.521 258.167,-253.88 257.52,-261.062"/>
<text text-anchor="middle" x="284" y="-283" font-family="Helvetica,sans-Serif" font-size="10.00"> &#45;wq</text>
</g>
<!-- Node5 -->
<g id="node5" class="node"><title>Node5</title>
<g id="a_node5"><a xlink:href="interface_word_quizzle_1_1_word_quizzle_service.html" target="_top" xlink:title="Interfaccia che definisce i servizi utilizzabili da un client.">
<polygon fill="white" stroke="black" points="230.5,-568.5 230.5,-735.5 394.5,-735.5 394.5,-568.5 230.5,-568.5"/>
<text text-anchor="middle" x="312.5" y="-723.5" font-family="Helvetica,sans-Serif" font-size="10.00">WordQuizzle.WordQuizzleService</text>
<polyline fill="none" stroke="black" points="230.5,-716.5 394.5,-716.5 "/>
<text text-anchor="middle" x="312.5" y="-704.5" font-family="Helvetica,sans-Serif" font-size="10.00"> </text>
<polyline fill="none" stroke="black" points="230.5,-697.5 394.5,-697.5 "/>
<text text-anchor="start" x="238.5" y="-685.5" font-family="Helvetica,sans-Serif" font-size="10.00">+ registra_utente()</text>
<text text-anchor="start" x="238.5" y="-674.5" font-family="Helvetica,sans-Serif" font-size="10.00">+ login()</text>
<text text-anchor="start" x="238.5" y="-663.5" font-family="Helvetica,sans-Serif" font-size="10.00">+ logout()</text>
<text text-anchor="start" x="238.5" y="-652.5" font-family="Helvetica,sans-Serif" font-size="10.00">+ aggiungi_amico()</text>
<text text-anchor="start" x="238.5" y="-641.5" font-family="Helvetica,sans-Serif" font-size="10.00">+ sfida()</text>
<text text-anchor="start" x="238.5" y="-630.5" font-family="Helvetica,sans-Serif" font-size="10.00">+ lista_amici()</text>
<text text-anchor="start" x="238.5" y="-619.5" font-family="Helvetica,sans-Serif" font-size="10.00">+ mostra_punteggio()</text>
<text text-anchor="start" x="238.5" y="-608.5" font-family="Helvetica,sans-Serif" font-size="10.00">+ mostra_classifica()</text>
<text text-anchor="start" x="238.5" y="-597.5" font-family="Helvetica,sans-Serif" font-size="10.00">+ accettaSfida()</text>
<text text-anchor="start" x="238.5" y="-586.5" font-family="Helvetica,sans-Serif" font-size="10.00">+ sendTranslation()</text>
<text text-anchor="start" x="238.5" y="-575.5" font-family="Helvetica,sans-Serif" font-size="10.00">+ controllaRichieste()</text>
</a>
</g>
</g>
<!-- Node5&#45;&gt;Node4 -->
<g id="edge4" class="edge"><title>Node5&#45;&gt;Node4</title>
<path fill="none" stroke="#404040" d="M312.5,-568.469C312.5,-556.807 312.5,-544.662 312.5,-532.572"/>
<polygon fill="none" stroke="#404040" points="312.5,-532.519 308.5,-526.519 312.5,-520.519 316.5,-526.519 312.5,-532.519"/>
<text text-anchor="middle" x="331" y="-542" font-family="Helvetica,sans-Serif" font-size="10.00"> &#45;service</text>
</g>
<!-- Node6&#45;&gt;Node1 -->
<g id="edge5" class="edge"><title>Node6&#45;&gt;Node1</title>
<path fill="none" stroke="#404040" d="M181.305,-116.456C177.362,-106.577 173.334,-96.5172 169.5,-87 168.57,-84.6909 167.614,-82.3246 166.647,-79.9361"/>
<polygon fill="none" stroke="#404040" points="166.611,-79.8463 160.648,-75.7913 162.097,-68.7274 168.06,-72.7823 166.611,-79.8463"/>
<text text-anchor="middle" x="184" y="-90" font-family="Helvetica,sans-Serif" font-size="10.00"> &#45;gui</text>
</g>
<!-- Node7 -->
<g id="node7" class="node"><title>Node7</title>
<g id="a_node7"><a xlink:title=" ">
<polygon fill="white" stroke="#bfbfbf" points="97,-392 97,-449 146,-449 146,-392 97,-392"/>
<text text-anchor="middle" x="121.5" y="-437" font-family="Helvetica,sans-Serif" font-size="10.00">JFrame</text>
<polyline fill="none" stroke="#bfbfbf" points="97,-430 146,-430 "/>
<text text-anchor="middle" x="121.5" y="-418" font-family="Helvetica,sans-Serif" font-size="10.00"> </text>
<polyline fill="none" stroke="#bfbfbf" points="97,-411 146,-411 "/>
<text text-anchor="middle" x="121.5" y="-399" font-family="Helvetica,sans-Serif" font-size="10.00"> </text>
</a>
</g>
</g>
<!-- Node7&#45;&gt;Node6 -->
<g id="edge6" class="edge"><title>Node7&#45;&gt;Node6</title>
<path fill="none" stroke="midnightblue" d="M133.845,-382.303C140.159,-363.559 148.063,-340.512 155.5,-320 163.703,-297.378 173.022,-272.777 181.483,-250.823"/>
<polygon fill="none" stroke="midnightblue" points="130.471,-381.358 130.607,-391.952 137.107,-383.585 130.471,-381.358"/>
</g>
<!-- Node8 -->
<g id="node8" class="node"><title>Node8</title>
<g id="a_node8"><a xlink:title=" ">
<polygon fill="white" stroke="#bfbfbf" points="164.5,-392 164.5,-449 210.5,-449 210.5,-392 164.5,-392"/>
<text text-anchor="middle" x="187.5" y="-437" font-family="Helvetica,sans-Serif" font-size="10.00">JPanel</text>
<polyline fill="none" stroke="#bfbfbf" points="164.5,-430 210.5,-430 "/>
<text text-anchor="middle" x="187.5" y="-418" font-family="Helvetica,sans-Serif" font-size="10.00"> </text>
<polyline fill="none" stroke="#bfbfbf" points="164.5,-411 210.5,-411 "/>
<text text-anchor="middle" x="187.5" y="-399" font-family="Helvetica,sans-Serif" font-size="10.00"> </text>
</a>
</g>
</g>
<!-- Node8&#45;&gt;Node6 -->
<g id="edge8" class="edge"><title>Node8&#45;&gt;Node6</title>
<path fill="none" stroke="#404040" d="M185.92,-391.931C184.595,-361.669 183.615,-311.704 188.5,-269 188.735,-266.946 189,-264.869 189.29,-262.777"/>
<polygon fill="none" stroke="#404040" points="189.326,-262.545 186.316,-255.993 191.207,-250.693 194.217,-257.246 189.326,-262.545"/>
<text text-anchor="middle" x="225" y="-294" font-family="Helvetica,sans-Serif" font-size="10.00"> &#45;challengePanel</text>
<text text-anchor="middle" x="225" y="-283" font-family="Helvetica,sans-Serif" font-size="10.00">&#45;loginPanel</text>
<text text-anchor="middle" x="225" y="-272" font-family="Helvetica,sans-Serif" font-size="10.00">&#45;gamePanel</text>
</g>
</g>
</svg>
