<?xml version="1.0" encoding="UTF-8" standalone="no"?>
<!DOCTYPE svg PUBLIC "-//W3C//DTD SVG 1.1//EN"
 "http://www.w3.org/Graphics/SVG/1.1/DTD/svg11.dtd">
<!-- Generated by graphviz version 2.38.0 (20140413.2041)
 -->
<!-- Title: WordQuizzle.Session.setResponse Pages: 1 -->
<svg width="1119pt" height="154pt"
 viewBox="0.00 0.00 1119.00 153.50" xmlns="http://www.w3.org/2000/svg" xmlns:xlink="http://www.w3.org/1999/xlink">
<g id="graph0" class="graph" transform="scale(1 1) rotate(0) translate(4 149.5)">
<title>WordQuizzle.Session.setResponse</title>
<polygon fill="white" stroke="none" points="-4,4 -4,-149.5 1115,-149.5 1115,4 -4,4"/>
<!-- Node1 -->
<g id="node1" class="node"><title>Node1</title>
<g id="a_node1"><a xlink:title="Imposta la risposta da inviare al client.">
<polygon fill="#bfbfbf" stroke="black" points="940,-50 940,-69 1111,-69 1111,-50 940,-50"/>
<text text-anchor="middle" x="1025.5" y="-57" font-family="Helvetica,sans-Serif" font-size="10.00">WordQuizzle.Session.setResponse</text>
</a>
</g>
</g>
<!-- Node2 -->
<g id="node2" class="node"><title>Node2</title>
<g id="a_node2"><a xlink:href="class_word_quizzle_1_1_challenge.html#a7337a23fcf011c4ea66eb6801d283d49" target="_top" xlink:title="Conclude la sfida inviando ad ogni giocatore un messaggio.">
<polygon fill="white" stroke="black" points="389.5,-88 389.5,-107 534.5,-107 534.5,-88 389.5,-88"/>
<text text-anchor="middle" x="462" y="-95" font-family="Helvetica,sans-Serif" font-size="10.00">WordQuizzle.Challenge.close</text>
</a>
</g>
</g>
<!-- Node1&#45;&gt;Node2 -->
<g id="edge1" class="edge"><title>Node1&#45;&gt;Node2</title>
<path fill="none" stroke="midnightblue" d="M938.576,-70.1346C926.965,-71.3807 915.199,-72.5456 904,-73.5 773.931,-84.5847 621.82,-91.5405 534.511,-94.9567"/>
<polygon fill="midnightblue" stroke="midnightblue" points="939.162,-73.5913 948.721,-69.0218 938.399,-66.6331 939.162,-73.5913"/>
</g>
<!-- Node4 -->
<g id="node4" class="node"><title>Node4</title>
<g id="a_node4"><a xlink:href="class_word_quizzle_1_1_challenge.html#aa7b93cfc7d1927c0b1c060cc387321b9" target="_top" xlink:title="Gestisce la sfida.">
<polygon fill="white" stroke="black" points="20.5,-69 20.5,-88 155.5,-88 155.5,-69 20.5,-69"/>
<text text-anchor="middle" x="88" y="-76" font-family="Helvetica,sans-Serif" font-size="10.00">WordQuizzle.Challenge.run</text>
</a>
</g>
</g>
<!-- Node1&#45;&gt;Node4 -->
<g id="edge5" class="edge"><title>Node1&#45;&gt;Node4</title>
<path fill="none" stroke="midnightblue" d="M929.306,-59.5C854.576,-59.5 747.906,-59.5 654.5,-59.5 654.5,-59.5 654.5,-59.5 461,-59.5 354.137,-59.5 230.231,-67.4169 155.812,-73.0299"/>
<polygon fill="midnightblue" stroke="midnightblue" points="929.634,-63.0001 939.634,-59.5 929.634,-56.0001 929.634,-63.0001"/>
</g>
<!-- Node5 -->
<g id="node5" class="node"><title>Node5</title>
<g id="a_node5"><a xlink:href="class_word_quizzle_1_1_challenge.html#ad9edc220ce2d24274149ab8c6a564a0a" target="_top" xlink:title="Aggiunge l&#39;utente sfidato alla sfida e la avvia.">
<polygon fill="white" stroke="black" points="769,-0.5 769,-30.5 904,-30.5 904,-0.5 769,-0.5"/>
<text text-anchor="start" x="777" y="-18.5" font-family="Helvetica,sans-Serif" font-size="10.00">WordQuizzle.Challenge.set</text>
<text text-anchor="middle" x="836.5" y="-7.5" font-family="Helvetica,sans-Serif" font-size="10.00">Player2</text>
</a>
</g>
</g>
<!-- Node1&#45;&gt;Node5 -->
<g id="edge6" class="edge"><title>Node1&#45;&gt;Node5</title>
<path fill="none" stroke="midnightblue" d="M973.993,-47.616C951.684,-42.3669 925.202,-36.1358 901.528,-30.5654"/>
<polygon fill="midnightblue" stroke="midnightblue" points="973.388,-51.0691 983.924,-49.9527 974.991,-44.2552 973.388,-51.0691"/>
</g>
<!-- Node3 -->
<g id="node3" class="node"><title>Node3</title>
<g id="a_node3"><a xlink:href="class_word_quizzle_1_1_challenge.html#a872c3c6f72016561647d84843cbbdc48" target="_top" xlink:title="Conclude la sfida.">
<polygon fill="white" stroke="black" points="212.5,-126 212.5,-145 349.5,-145 349.5,-126 212.5,-126"/>
<text text-anchor="middle" x="281" y="-133" font-family="Helvetica,sans-Serif" font-size="10.00">WordQuizzle.Challenge.end</text>
</a>
</g>
</g>
<!-- Node2&#45;&gt;Node3 -->
<g id="edge2" class="edge"><title>Node2&#45;&gt;Node3</title>
<path fill="none" stroke="midnightblue" d="M405.976,-109.181C380.592,-114.57 350.839,-120.886 326.844,-125.98"/>
<polygon fill="midnightblue" stroke="midnightblue" points="406.776,-112.589 415.831,-107.089 405.322,-105.742 406.776,-112.589"/>
</g>
<!-- Node2&#45;&gt;Node4 -->
<g id="edge4" class="edge"><title>Node2&#45;&gt;Node4</title>
<path fill="none" stroke="midnightblue" d="M379.151,-93.3195C311.99,-89.8893 218.096,-85.0936 155.506,-81.8968"/>
<polygon fill="midnightblue" stroke="midnightblue" points="379.109,-96.8219 389.275,-93.8366 379.466,-89.831 379.109,-96.8219"/>
</g>
<!-- Node3&#45;&gt;Node4 -->
<g id="edge3" class="edge"><title>Node3&#45;&gt;Node4</title>
<path fill="none" stroke="midnightblue" d="M238.047,-122.98C202.809,-112.464 153.201,-97.6595 121.073,-88.0716"/>
<polygon fill="midnightblue" stroke="midnightblue" points="237.448,-126.454 248.031,-125.959 239.449,-119.746 237.448,-126.454"/>
</g>
<!-- Node6 -->
<g id="node6" class="node"><title>Node6</title>
<g id="a_node6"><a xlink:href="class_word_quizzle_1_1_word_quizzle_server_service.html#aebc8c566d10a0d24752a33f146f03a2a" target="_top" xlink:title="Accetta una richiesta di sfida inviata da nickAmico.">
<polygon fill="white" stroke="black" points="574,-0.5 574,-30.5 733,-30.5 733,-0.5 574,-0.5"/>
<text text-anchor="start" x="582" y="-18.5" font-family="Helvetica,sans-Serif" font-size="10.00">WordQuizzle.WordQuizzleServer</text>
<text text-anchor="middle" x="653.5" y="-7.5" font-family="Helvetica,sans-Serif" font-size="10.00">Service.accettaSfida</text>
</a>
</g>
</g>
<!-- Node5&#45;&gt;Node6 -->
<g id="edge7" class="edge"><title>Node5&#45;&gt;Node6</title>
<path fill="none" stroke="midnightblue" d="M758.7,-15.5C750.278,-15.5 741.693,-15.5 733.247,-15.5"/>
<polygon fill="midnightblue" stroke="midnightblue" points="758.873,-19.0001 768.873,-15.5 758.873,-12.0001 758.873,-19.0001"/>
</g>
<!-- Node7 -->
<g id="node7" class="node"><title>Node7</title>
<g id="a_node7"><a xlink:href="class_word_quizzle_1_1_session.html#a21992c338367b1a3c2e57fdb7cae3018" target="_top" xlink:title="Gestisce effettivamente la richiesta del client.">
<polygon fill="white" stroke="black" points="386,-9 386,-28 538,-28 538,-9 386,-9"/>
<text text-anchor="middle" x="462" y="-16" font-family="Helvetica,sans-Serif" font-size="10.00">WordQuizzle.Session.compute</text>
</a>
</g>
</g>
<!-- Node6&#45;&gt;Node7 -->
<g id="edge8" class="edge"><title>Node6&#45;&gt;Node7</title>
<path fill="none" stroke="midnightblue" d="M563.764,-16.9048C555.191,-17.0405 546.552,-17.1773 538.129,-17.3106"/>
<polygon fill="midnightblue" stroke="midnightblue" points="563.838,-20.4042 573.781,-16.7462 563.727,-13.405 563.838,-20.4042"/>
</g>
<!-- Node8 -->
<g id="node8" class="node"><title>Node8</title>
<g id="a_node8"><a xlink:href="class_word_quizzle_1_1_session.html#a6793f02ea7cab6fffe0361893cf40178" target="_top" xlink:title="Riceve una stringa contenente uan richiesta da parte del client e la gestisce.">
<polygon fill="white" stroke="black" points="212,-10 212,-29 350,-29 350,-10 212,-10"/>
<text text-anchor="middle" x="281" y="-17" font-family="Helvetica,sans-Serif" font-size="10.00">WordQuizzle.Session.parse</text>
</a>
</g>
</g>
<!-- Node7&#45;&gt;Node8 -->
<g id="edge9" class="edge"><title>Node7&#45;&gt;Node8</title>
<path fill="none" stroke="midnightblue" d="M375.793,-18.976C367.175,-19.0242 358.505,-19.0726 350.101,-19.1195"/>
<polygon fill="midnightblue" stroke="midnightblue" points="375.886,-22.4757 385.866,-18.9197 375.846,-15.4758 375.886,-22.4757"/>
</g>
<!-- Node8&#45;&gt;Node4 -->
<g id="edge11" class="edge"><title>Node8&#45;&gt;Node4</title>
<path fill="none" stroke="midnightblue" d="M239.236,-32.092C203.462,-43.1426 152.218,-58.972 119.783,-68.9912"/>
<polygon fill="midnightblue" stroke="midnightblue" points="240.366,-35.4062 248.887,-29.1107 238.3,-28.7181 240.366,-35.4062"/>
</g>
<!-- Node9 -->
<g id="node9" class="node"><title>Node9</title>
<g id="a_node9"><a xlink:href="class_word_quizzle_1_1_word_quizzle_server.html#a4aa19bad373d06a790babba1e5b67644" target="_top" xlink:title="Gestisce le interazioni con i client.">
<polygon fill="white" stroke="black" points="0,-10 0,-29 176,-29 176,-10 0,-10"/>
<text text-anchor="middle" x="88" y="-17" font-family="Helvetica,sans-Serif" font-size="10.00">WordQuizzle.WordQuizzleServer.run</text>
</a>
</g>
</g>
<!-- Node8&#45;&gt;Node9 -->
<g id="edge10" class="edge"><title>Node8&#45;&gt;Node9</title>
<path fill="none" stroke="midnightblue" d="M201.692,-19.5C193.27,-19.5 184.665,-19.5 176.149,-19.5"/>
<polygon fill="midnightblue" stroke="midnightblue" points="201.854,-23.0001 211.854,-19.5 201.853,-16.0001 201.854,-23.0001"/>
</g>
</g>
</svg>
