<?xml version="1.0" encoding="UTF-8" standalone="no"?>
<!DOCTYPE svg PUBLIC "-//W3C//DTD SVG 1.1//EN"
 "http://www.w3.org/Graphics/SVG/1.1/DTD/svg11.dtd">
<!-- Generated by graphviz version 2.38.0 (20140413.2041)
 -->
<!-- Title: WordQuizzleClientService.sfida Pages: 1 -->
<svg width="537pt" height="66pt"
 viewBox="0.00 0.00 537.00 66.00" xmlns="http://www.w3.org/2000/svg" xmlns:xlink="http://www.w3.org/1999/xlink">
<g id="graph0" class="graph" transform="scale(1 1) rotate(0) translate(4 62)">
<title>WordQuizzleClientService.sfida</title>
<polygon fill="white" stroke="none" points="-4,4 -4,-62 533,-62 533,4 -4,4"/>
<!-- Node1 -->
<g id="node1" class="node"><title>Node1</title>
<g id="a_node1"><a xlink:title="Invia una richiesta di sfida ad un amico di nickUtente.">
<polygon fill="#bfbfbf" stroke="black" points="0,-19.5 0,-38.5 152,-38.5 152,-19.5 0,-19.5"/>
<text text-anchor="middle" x="76" y="-26.5" font-family="Helvetica,sans-Serif" font-size="10.00">WordQuizzleClientService.sfida</text>
</a>
</g>
</g>
<!-- Node2 -->
<g id="node2" class="node"><title>Node2</title>
<g id="a_node2"><a xlink:href="class_word_quizzle_client_service.html#a6132feed91596156595e4f36713acade" target="_top" xlink:title="Invia un messaggio al server e attende una sua risposta.">
<polygon fill="white" stroke="black" points="188,-19.5 188,-38.5 341,-38.5 341,-19.5 188,-19.5"/>
<text text-anchor="middle" x="264.5" y="-26.5" font-family="Helvetica,sans-Serif" font-size="10.00">WordQuizzleClientService.send</text>
</a>
</g>
</g>
<!-- Node1&#45;&gt;Node2 -->
<g id="edge1" class="edge"><title>Node1&#45;&gt;Node2</title>
<path fill="none" stroke="midnightblue" d="M152.051,-29C160.562,-29 169.285,-29 177.919,-29"/>
<polygon fill="midnightblue" stroke="midnightblue" points="177.996,-32.5001 187.996,-29 177.996,-25.5001 177.996,-32.5001"/>
</g>
<!-- Node3 -->
<g id="node3" class="node"><title>Node3</title>
<g id="a_node3"><a xlink:href="class_word_quizzle_client_service.html#a8aac188f30cdc3eefce8a82af8e17b64" target="_top" xlink:title="Ottiene un messaggio inviato dal server.">
<polygon fill="white" stroke="black" points="377.5,-38.5 377.5,-57.5 528.5,-57.5 528.5,-38.5 377.5,-38.5"/>
<text text-anchor="middle" x="453" y="-45.5" font-family="Helvetica,sans-Serif" font-size="10.00">WordQuizzleClientService.read</text>
</a>
</g>
</g>
<!-- Node2&#45;&gt;Node3 -->
<g id="edge2" class="edge"><title>Node2&#45;&gt;Node3</title>
<path fill="none" stroke="midnightblue" d="M341.088,-36.7006C349.651,-37.5731 358.421,-38.4665 367.094,-39.3501"/>
<polygon fill="midnightblue" stroke="midnightblue" points="366.909,-42.8493 377.213,-40.3809 367.619,-35.8853 366.909,-42.8493"/>
</g>
<!-- Node4 -->
<g id="node4" class="node"><title>Node4</title>
<g id="a_node4"><a xlink:href="class_word_quizzle_client_service.html#a7d2afa64e76c96cabcbcf48219517937" target="_top" xlink:title="Invia al server un messaggio.">
<polygon fill="white" stroke="black" points="377,-0.5 377,-19.5 529,-19.5 529,-0.5 377,-0.5"/>
<text text-anchor="middle" x="453" y="-7.5" font-family="Helvetica,sans-Serif" font-size="10.00">WordQuizzleClientService.write</text>
</a>
</g>
</g>
<!-- Node2&#45;&gt;Node4 -->
<g id="edge3" class="edge"><title>Node2&#45;&gt;Node4</title>
<path fill="none" stroke="midnightblue" d="M341.088,-21.2994C349.579,-20.4343 358.273,-19.5486 366.874,-18.6724"/>
<polygon fill="midnightblue" stroke="midnightblue" points="367.316,-22.1455 376.91,-17.6499 366.607,-15.1815 367.316,-22.1455"/>
</g>
</g>
</svg>
