<?xml version="1.0" encoding="UTF-8" standalone="no"?>
<!DOCTYPE svg PUBLIC "-//W3C//DTD SVG 1.1//EN"
 "http://www.w3.org/Graphics/SVG/1.1/DTD/svg11.dtd">
<!-- Generated by graphviz version 2.38.0 (20140413.2041)
 -->
<!-- Title: WordQuizzleClient.accettaSfida Pages: 1 -->
<svg width="395pt" height="104pt"
 viewBox="0.00 0.00 395.00 104.00" xmlns="http://www.w3.org/2000/svg" xmlns:xlink="http://www.w3.org/1999/xlink">
<g id="graph0" class="graph" transform="scale(1 1) rotate(0) translate(4 100)">
<title>WordQuizzleClient.accettaSfida</title>
<polygon fill="white" stroke="none" points="-4,4 -4,-100 391,-100 391,4 -4,4"/>
<!-- Node1 -->
<g id="node1" class="node"><title>Node1</title>
<g id="a_node1"><a xlink:title="Accetta una richiesta di sfida inviata da nickAmico.">
<polygon fill="#bfbfbf" stroke="black" points="254,-33 254,-63 387,-63 387,-33 254,-33"/>
<text text-anchor="start" x="262" y="-51" font-family="Helvetica,sans-Serif" font-size="10.00">WordQuizzleClient.accetta</text>
<text text-anchor="middle" x="320.5" y="-40" font-family="Helvetica,sans-Serif" font-size="10.00">Sfida</text>
</a>
</g>
</g>
<!-- Node2 -->
<g id="node2" class="node"><title>Node2</title>
<g id="a_node2"><a xlink:href="class_w_q_cli.html#ac8782ba29a63a974f4e17365f8817edd" target="_top" xlink:title="Gestisce una richiesta di sfida.">
<polygon fill="white" stroke="black" points="105,-76.5 105,-95.5 218,-95.5 218,-76.5 105,-76.5"/>
<text text-anchor="middle" x="161.5" y="-83.5" font-family="Helvetica,sans-Serif" font-size="10.00">WQCli.nuovaRichiesta</text>
</a>
</g>
</g>
<!-- Node1&#45;&gt;Node2 -->
<g id="edge1" class="edge"><title>Node1&#45;&gt;Node2</title>
<path fill="none" stroke="midnightblue" d="M247.722,-65.3729C231.988,-69.1812 215.891,-73.0773 201.985,-76.4432"/>
<polygon fill="midnightblue" stroke="midnightblue" points="248.553,-68.7729 257.449,-63.0186 246.907,-61.9694 248.553,-68.7729"/>
</g>
<!-- Node4 -->
<g id="node4" class="node"><title>Node4</title>
<g id="a_node4"><a xlink:href="class_bot.html#a39bedd8a99e6e57223c433c8197bcb49" target="_top" xlink:title="Avvia il bot.">
<polygon fill="white" stroke="black" points="137.5,-38.5 137.5,-57.5 185.5,-57.5 185.5,-38.5 137.5,-38.5"/>
<text text-anchor="middle" x="161.5" y="-45.5" font-family="Helvetica,sans-Serif" font-size="10.00">Bot.run</text>
</a>
</g>
</g>
<!-- Node1&#45;&gt;Node4 -->
<g id="edge3" class="edge"><title>Node1&#45;&gt;Node4</title>
<path fill="none" stroke="midnightblue" d="M243.546,-48C222.507,-48 201.224,-48 185.75,-48"/>
<polygon fill="midnightblue" stroke="midnightblue" points="243.828,-51.5001 253.828,-48 243.828,-44.5001 243.828,-51.5001"/>
</g>
<!-- Node6 -->
<g id="node6" class="node"><title>Node6</title>
<g id="a_node6"><a xlink:href="class_notifier.html#a1e6abba853ca6fe241ce37a988ee818f" target="_top" xlink:title="Attende l&#39;arrivo di una richiesta e se il client non e&#39; impegnato in una sfida gli notifica la richie...">
<polygon fill="white" stroke="black" points="130,-0.5 130,-19.5 193,-19.5 193,-0.5 130,-0.5"/>
<text text-anchor="middle" x="161.5" y="-7.5" font-family="Helvetica,sans-Serif" font-size="10.00">Notifier.run</text>
</a>
</g>
</g>
<!-- Node1&#45;&gt;Node6 -->
<g id="edge5" class="edge"><title>Node1&#45;&gt;Node6</title>
<path fill="none" stroke="midnightblue" d="M247.506,-30.5747C228.354,-25.9391 208.681,-21.1777 193.091,-17.4043"/>
<polygon fill="midnightblue" stroke="midnightblue" points="246.907,-34.0306 257.449,-32.9814 248.553,-27.2271 246.907,-34.0306"/>
</g>
<!-- Node3 -->
<g id="node3" class="node"><title>Node3</title>
<g id="a_node3"><a xlink:href="class_w_q_cli.html#a13932f1ea4f257ce081aa524f090b6ee" target="_top" xlink:title="Gestisce l&#39;interazione con l&#39;utente.">
<polygon fill="white" stroke="black" points="0,-76.5 0,-95.5 69,-95.5 69,-76.5 0,-76.5"/>
<text text-anchor="middle" x="34.5" y="-83.5" font-family="Helvetica,sans-Serif" font-size="10.00">WQCli.main</text>
</a>
</g>
</g>
<!-- Node2&#45;&gt;Node3 -->
<g id="edge2" class="edge"><title>Node2&#45;&gt;Node3</title>
<path fill="none" stroke="midnightblue" d="M94.8478,-86C85.9022,-86 77.0429,-86 69.0054,-86"/>
<polygon fill="midnightblue" stroke="midnightblue" points="94.9453,-89.5001 104.945,-86 94.9452,-82.5001 94.9453,-89.5001"/>
</g>
<!-- Node5 -->
<g id="node5" class="node"><title>Node5</title>
<g id="a_node5"><a xlink:href="class_bot.html#a698976f1ad72fc3c09eff6f887f11d45" target="_top" xlink:title="Esegue un bot.">
<polygon fill="white" stroke="black" points="6.5,-38.5 6.5,-57.5 62.5,-57.5 62.5,-38.5 6.5,-38.5"/>
<text text-anchor="middle" x="34.5" y="-45.5" font-family="Helvetica,sans-Serif" font-size="10.00">Bot.main</text>
</a>
</g>
</g>
<!-- Node4&#45;&gt;Node5 -->
<g id="edge4" class="edge"><title>Node4&#45;&gt;Node5</title>
<path fill="none" stroke="midnightblue" d="M127.243,-48C107.006,-48 81.488,-48 62.5053,-48"/>
<polygon fill="midnightblue" stroke="midnightblue" points="127.281,-51.5001 137.281,-48 127.281,-44.5001 127.281,-51.5001"/>
</g>
</g>
</svg>
