<?xml version="1.0" encoding="UTF-8" standalone="no"?>
<!DOCTYPE svg PUBLIC "-//W3C//DTD SVG 1.1//EN"
 "http://www.w3.org/Graphics/SVG/1.1/DTD/svg11.dtd">
<!-- Generated by graphviz version 2.38.0 (20140413.2041)
 -->
<!-- Title: WordQuizzle.WordQuizzleClientService.send Pages: 1 -->
<!--zoomable 382 -->
<svg id="main" version="1.1" xmlns="http://www.w3.org/2000/svg" xmlns:xlink="http://www.w3.org/1999/xlink" xml:space="preserve" onload="init(evt)">
<style type="text/css"><![CDATA[
.edge:hover path { stroke: red; }
.edge:hover polygon { stroke: red; fill: red; }
]]></style>
<script type="text/javascript"><![CDATA[
var edges = document.getElementsByTagName('g');
if (edges && edges.length) {
  for (var i=0;i<edges.length;i++) {
    if (edges[i].id.substr(0,4)=='edge') {
      edges[i].setAttribute('class','edge');
    }
  }
}
]]></script>
        <defs>
                <circle id="rim" cx="0" cy="0" r="7"/>
                <circle id="rim2" cx="0" cy="0" r="3.5"/>
                <g id="zoomPlus">
                        <use xlink:href="#rim" fill="#404040">
                                <set attributeName="fill" to="#808080" begin="zoomplus.mouseover" end="zoomplus.mouseout"/>
                        </use>
                        <path d="M-4,0h8M0,-4v8" fill="none" stroke="white" stroke-width="1.5" pointer-events="none"/>
                </g>
                <g id="zoomMin">
                        <use xlink:href="#rim" fill="#404040">
                                <set attributeName="fill" to="#808080" begin="zoomminus.mouseover" end="zoomminus.mouseout"/>
                        </use>
                        <path d="M-4,0h8" fill="none" stroke="white" stroke-width="1.5" pointer-events="none"/>
                </g>
                <g id="dirArrow">
                        <path fill="none" stroke="white" stroke-width="1.5" d="M0,-3.0v7 M-2.5,-0.5L0,-3.0L2.5,-0.5"/>
                </g>
               <g id="resetDef">
                       <use xlink:href="#rim2" fill="#404040">
                               <set attributeName="fill" to="#808080" begin="reset.mouseover" end="reset.mouseout"/>
                       </use>
               </g>
        </defs>

<script type="text/javascript">
var viewWidth = 921;
var viewHeight = 382;
var sectionId = 'dynsection-20';
</script>
<script xlink:href="svgpan.js"/>
<svg id="graph" class="graph">
<g id="viewport">
<title>WordQuizzle.WordQuizzleClientService.send</title>
<polygon fill="white" stroke="none" points="-4,4 -4,-378 917,-378 917,4 -4,4"/>
<!-- Node1 -->
<g id="node1" class="node"><title>Node1</title>
<g id="a_node1"><a xlink:title=" ">
<polygon fill="#bfbfbf" stroke="black" points="756,-171.5 756,-201.5 913,-201.5 913,-171.5 756,-171.5"/>
<text text-anchor="start" x="764" y="-189.5" font-family="Helvetica,sans-Serif" font-size="10.00">WordQuizzle.WordQuizzleClient</text>
<text text-anchor="middle" x="834.5" y="-178.5" font-family="Helvetica,sans-Serif" font-size="10.00">Service.send</text>
</a>
</g>
</g>
<!-- Node2 -->
<g id="node2" class="node"><title>Node2</title>
<g id="a_node2"><a xlink:href="class_word_quizzle_1_1_word_quizzle_client_service.html#ab0c5778cdd7d53946f7554d64ba63c57" target="_top" xlink:title=" ">
<polygon fill="white" stroke="black" points="563,-343.5 563,-373.5 720,-373.5 720,-343.5 563,-343.5"/>
<text text-anchor="start" x="571" y="-361.5" font-family="Helvetica,sans-Serif" font-size="10.00">WordQuizzle.WordQuizzleClient</text>
<text text-anchor="middle" x="641.5" y="-350.5" font-family="Helvetica,sans-Serif" font-size="10.00">Service.accettaSfida</text>
</a>
</g>
</g>
<!-- Node1&#45;&gt;Node2 -->
<g id="edge1" class="edge"><title>Node1&#45;&gt;Node2</title>
<path fill="none" stroke="midnightblue" d="M821.326,-210.458C803.48,-243.215 767.155,-301.651 720,-334.5 715.03,-337.962 709.544,-340.938 703.854,-343.494"/>
<polygon fill="midnightblue" stroke="midnightblue" points="824.454,-212.029 826.063,-201.557 818.275,-208.74 824.454,-212.029"/>
</g>
<!-- Node6 -->
<g id="node6" class="node"><title>Node6</title>
<g id="a_node6"><a xlink:href="class_word_quizzle_1_1_word_quizzle_client_service.html#adc41c272e3f60eaf3fb07f477887a7ff" target="_top" xlink:title=" ">
<polygon fill="white" stroke="black" points="563,-294.5 563,-324.5 720,-324.5 720,-294.5 563,-294.5"/>
<text text-anchor="start" x="571" y="-312.5" font-family="Helvetica,sans-Serif" font-size="10.00">WordQuizzle.WordQuizzleClient</text>
<text text-anchor="middle" x="641.5" y="-301.5" font-family="Helvetica,sans-Serif" font-size="10.00">Service.aggiungi_amico</text>
</a>
</g>
</g>
<!-- Node1&#45;&gt;Node6 -->
<g id="edge5" class="edge"><title>Node1&#45;&gt;Node6</title>
<path fill="none" stroke="midnightblue" d="M812.954,-208.846C791.622,-230.859 756.337,-264.072 720,-284.5 713.345,-288.241 706.05,-291.516 698.68,-294.356"/>
<polygon fill="midnightblue" stroke="midnightblue" points="815.528,-211.219 819.897,-201.567 810.463,-206.388 815.528,-211.219"/>
</g>
<!-- Node8 -->
<g id="node8" class="node"><title>Node8</title>
<g id="a_node8"><a xlink:href="class_word_quizzle_1_1_word_quizzle_client_service.html#ab8db9cd5ff3f755cf306b508741ce7b1" target="_top" xlink:title=" ">
<polygon fill="white" stroke="black" points="563,-245.5 563,-275.5 720,-275.5 720,-245.5 563,-245.5"/>
<text text-anchor="start" x="571" y="-263.5" font-family="Helvetica,sans-Serif" font-size="10.00">WordQuizzle.WordQuizzleClient</text>
<text text-anchor="middle" x="641.5" y="-252.5" font-family="Helvetica,sans-Serif" font-size="10.00">Service.lista_amici</text>
</a>
</g>
</g>
<!-- Node1&#45;&gt;Node8 -->
<g id="edge8" class="edge"><title>Node1&#45;&gt;Node8</title>
<path fill="none" stroke="midnightblue" d="M791.209,-205.9C770.025,-215.324 743.866,-226.522 720,-235.5 710.87,-238.935 701.031,-242.334 691.529,-245.467"/>
<polygon fill="midnightblue" stroke="midnightblue" points="792.87,-208.991 800.566,-201.709 790.009,-202.603 792.87,-208.991"/>
</g>
<!-- Node10 -->
<g id="node10" class="node"><title>Node10</title>
<g id="a_node10"><a xlink:href="class_word_quizzle_1_1_word_quizzle_client_service.html#aa02afd3fa03a290940b6c958e3c57199" target="_top" xlink:title=" ">
<polygon fill="white" stroke="black" points="563,-196.5 563,-226.5 720,-226.5 720,-196.5 563,-196.5"/>
<text text-anchor="start" x="571" y="-214.5" font-family="Helvetica,sans-Serif" font-size="10.00">WordQuizzle.WordQuizzleClient</text>
<text text-anchor="middle" x="641.5" y="-203.5" font-family="Helvetica,sans-Serif" font-size="10.00">Service.login</text>
</a>
</g>
</g>
<!-- Node1&#45;&gt;Node10 -->
<g id="edge11" class="edge"><title>Node1&#45;&gt;Node10</title>
<path fill="none" stroke="midnightblue" d="M745.807,-197.978C737.235,-199.1 728.58,-200.233 720.118,-201.341"/>
<polygon fill="midnightblue" stroke="midnightblue" points="746.352,-201.437 755.813,-196.668 745.443,-194.496 746.352,-201.437"/>
</g>
<!-- Node12 -->
<g id="node12" class="node"><title>Node12</title>
<g id="a_node12"><a xlink:href="class_word_quizzle_1_1_word_quizzle_client_service.html#a584e77014fba5e13b26af26c6e240bd6" target="_top" xlink:title=" ">
<polygon fill="white" stroke="black" points="563,-147.5 563,-177.5 720,-177.5 720,-147.5 563,-147.5"/>
<text text-anchor="start" x="571" y="-165.5" font-family="Helvetica,sans-Serif" font-size="10.00">WordQuizzle.WordQuizzleClient</text>
<text text-anchor="middle" x="641.5" y="-154.5" font-family="Helvetica,sans-Serif" font-size="10.00">Service.logout</text>
</a>
</g>
</g>
<!-- Node1&#45;&gt;Node12 -->
<g id="edge14" class="edge"><title>Node1&#45;&gt;Node12</title>
<path fill="none" stroke="midnightblue" d="M745.807,-175.481C737.235,-174.404 728.58,-173.316 720.118,-172.253"/>
<polygon fill="midnightblue" stroke="midnightblue" points="745.455,-178.964 755.813,-176.738 746.327,-172.019 745.455,-178.964"/>
</g>
<!-- Node14 -->
<g id="node14" class="node"><title>Node14</title>
<g id="a_node14"><a xlink:href="class_word_quizzle_1_1_word_quizzle_client_service.html#a972476e61ab3c927ba99af27bc7f58bb" target="_top" xlink:title=" ">
<polygon fill="white" stroke="black" points="563,-98.5 563,-128.5 720,-128.5 720,-98.5 563,-98.5"/>
<text text-anchor="start" x="571" y="-116.5" font-family="Helvetica,sans-Serif" font-size="10.00">WordQuizzle.WordQuizzleClient</text>
<text text-anchor="middle" x="641.5" y="-105.5" font-family="Helvetica,sans-Serif" font-size="10.00">Service.mostra_classifica</text>
</a>
</g>
</g>
<!-- Node1&#45;&gt;Node14 -->
<g id="edge17" class="edge"><title>Node1&#45;&gt;Node14</title>
<path fill="none" stroke="midnightblue" d="M791.717,-167.186C770.463,-157.689 744.093,-146.402 720,-137.5 711.676,-134.424 702.756,-131.409 694.036,-128.611"/>
<polygon fill="midnightblue" stroke="midnightblue" points="790.54,-170.494 801.095,-171.408 793.414,-164.111 790.54,-170.494"/>
</g>
<!-- Node16 -->
<g id="node16" class="node"><title>Node16</title>
<g id="a_node16"><a xlink:href="class_word_quizzle_1_1_word_quizzle_client_service.html#a50a062f91fbb470547bde8235f2930d1" target="_top" xlink:title=" ">
<polygon fill="white" stroke="black" points="563,-49.5 563,-79.5 720,-79.5 720,-49.5 563,-49.5"/>
<text text-anchor="start" x="571" y="-67.5" font-family="Helvetica,sans-Serif" font-size="10.00">WordQuizzle.WordQuizzleClient</text>
<text text-anchor="middle" x="641.5" y="-56.5" font-family="Helvetica,sans-Serif" font-size="10.00">Service.mostra_punteggio</text>
</a>
</g>
</g>
<!-- Node1&#45;&gt;Node16 -->
<g id="edge20" class="edge"><title>Node1&#45;&gt;Node16</title>
<path fill="none" stroke="midnightblue" d="M813.005,-164.064C791.711,-141.981 756.456,-108.714 720,-88.5 713.964,-85.1532 707.399,-82.2083 700.73,-79.634"/>
<polygon fill="midnightblue" stroke="midnightblue" points="810.512,-166.522 819.933,-171.369 815.591,-161.705 810.512,-166.522"/>
</g>
<!-- Node18 -->
<g id="node18" class="node"><title>Node18</title>
<g id="a_node18"><a xlink:href="class_word_quizzle_1_1_word_quizzle_client_service.html#a7eef869e03ee5f68139882d98de88c1f" target="_top" xlink:title=" ">
<polygon fill="white" stroke="black" points="563,-0.5 563,-30.5 720,-30.5 720,-0.5 563,-0.5"/>
<text text-anchor="start" x="571" y="-18.5" font-family="Helvetica,sans-Serif" font-size="10.00">WordQuizzle.WordQuizzleClient</text>
<text text-anchor="middle" x="641.5" y="-7.5" font-family="Helvetica,sans-Serif" font-size="10.00">Service.sfida</text>
</a>
</g>
</g>
<!-- Node1&#45;&gt;Node18 -->
<g id="edge23" class="edge"><title>Node1&#45;&gt;Node18</title>
<path fill="none" stroke="midnightblue" d="M821.008,-162.203C803.016,-129.577 766.767,-71.9646 720,-39.5 715.025,-36.0462 709.534,-33.0756 703.842,-30.5232"/>
<polygon fill="midnightblue" stroke="midnightblue" points="817.969,-163.943 825.794,-171.086 824.132,-160.623 817.969,-163.943"/>
</g>
<!-- Node3 -->
<g id="node3" class="node"><title>Node3</title>
<g id="a_node3"><a xlink:href="class_word_quizzle_1_1_word_quizzle_client.html#a566a113b03f71cf566566086294aa195" target="_top" xlink:title=" ">
<polygon fill="white" stroke="black" points="333,-342.5 333,-372.5 525,-372.5 525,-342.5 333,-342.5"/>
<text text-anchor="start" x="341" y="-360.5" font-family="Helvetica,sans-Serif" font-size="10.00">WordQuizzle.WordQuizzleClient.accetta</text>
<text text-anchor="middle" x="429" y="-349.5" font-family="Helvetica,sans-Serif" font-size="10.00">Sfida</text>
</a>
</g>
</g>
<!-- Node2&#45;&gt;Node3 -->
<g id="edge2" class="edge"><title>Node2&#45;&gt;Node3</title>
<path fill="none" stroke="midnightblue" d="M552.62,-358.083C543.6,-358.04 534.405,-357.996 525.309,-357.953"/>
<polygon fill="midnightblue" stroke="midnightblue" points="552.699,-361.583 562.716,-358.13 552.732,-354.583 552.699,-361.583"/>
</g>
<!-- Node4 -->
<g id="node4" class="node"><title>Node4</title>
<g id="a_node4"><a xlink:href="class_word_quizzle_1_1_w_q_cli.html#a318ef86f91a825da4ff4684bd3332a6b" target="_top" xlink:title=" ">
<polygon fill="white" stroke="black" points="164,-175 164,-194 295,-194 295,-175 164,-175"/>
<text text-anchor="middle" x="229.5" y="-182" font-family="Helvetica,sans-Serif" font-size="10.00">WordQuizzle.WQCli.parse</text>
</a>
</g>
</g>
<!-- Node3&#45;&gt;Node4 -->
<g id="edge3" class="edge"><title>Node3&#45;&gt;Node4</title>
<path fill="none" stroke="midnightblue" d="M339.986,-338.065C336.869,-336.363 333.86,-334.513 331,-332.5 278.17,-295.32 244.843,-220.854 234.203,-194.237"/>
<polygon fill="midnightblue" stroke="midnightblue" points="338.502,-341.235 349.024,-342.478 341.573,-334.945 338.502,-341.235"/>
</g>
<!-- Node5 -->
<g id="node5" class="node"><title>Node5</title>
<g id="a_node5"><a xlink:href="class_word_quizzle_1_1_w_q_cli.html#a7c2d51051cc7f1b20c57c1424d3b7727" target="_top" xlink:title=" ">
<polygon fill="white" stroke="black" points="0,-175 0,-194 128,-194 128,-175 0,-175"/>
<text text-anchor="middle" x="64" y="-182" font-family="Helvetica,sans-Serif" font-size="10.00">WordQuizzle.WQCli.main</text>
</a>
</g>
</g>
<!-- Node4&#45;&gt;Node5 -->
<g id="edge4" class="edge"><title>Node4&#45;&gt;Node5</title>
<path fill="none" stroke="midnightblue" d="M153.844,-184.5C145.234,-184.5 136.518,-184.5 128.082,-184.5"/>
<polygon fill="midnightblue" stroke="midnightblue" points="153.881,-188 163.88,-184.5 153.88,-181 153.881,-188"/>
</g>
<!-- Node7 -->
<g id="node7" class="node"><title>Node7</title>
<g id="a_node7"><a xlink:href="class_word_quizzle_1_1_word_quizzle_client.html#a91d982387c02c9ccae681f4a7d500a75" target="_top" xlink:title=" ">
<polygon fill="white" stroke="black" points="331,-292.5 331,-322.5 527,-322.5 527,-292.5 331,-292.5"/>
<text text-anchor="start" x="339" y="-310.5" font-family="Helvetica,sans-Serif" font-size="10.00">WordQuizzle.WordQuizzleClient.aggiungi</text>
<text text-anchor="middle" x="429" y="-299.5" font-family="Helvetica,sans-Serif" font-size="10.00">_amico</text>
</a>
</g>
</g>
<!-- Node6&#45;&gt;Node7 -->
<g id="edge6" class="edge"><title>Node6&#45;&gt;Node7</title>
<path fill="none" stroke="midnightblue" d="M552.556,-308.664C544.153,-308.585 535.599,-308.503 527.116,-308.423"/>
<polygon fill="midnightblue" stroke="midnightblue" points="552.683,-312.166 562.716,-308.761 552.749,-305.166 552.683,-312.166"/>
</g>
<!-- Node7&#45;&gt;Node4 -->
<g id="edge7" class="edge"><title>Node7&#45;&gt;Node4</title>
<path fill="none" stroke="midnightblue" d="M350.823,-288.95C343.938,-286.193 337.225,-283.057 331,-279.5 290.35,-256.272 253.316,-213.31 237.975,-194.155"/>
<polygon fill="midnightblue" stroke="midnightblue" points="349.696,-292.265 360.289,-292.48 352.142,-285.707 349.696,-292.265"/>
</g>
<!-- Node9 -->
<g id="node9" class="node"><title>Node9</title>
<g id="a_node9"><a xlink:href="class_word_quizzle_1_1_word_quizzle_client.html#a601f27bc3078f4c7d43417481f4c1353" target="_top" xlink:title=" ">
<polygon fill="white" stroke="black" points="340,-240.5 340,-270.5 518,-270.5 518,-240.5 340,-240.5"/>
<text text-anchor="start" x="348" y="-258.5" font-family="Helvetica,sans-Serif" font-size="10.00">WordQuizzle.WordQuizzleClient.lista</text>
<text text-anchor="middle" x="429" y="-247.5" font-family="Helvetica,sans-Serif" font-size="10.00">_amici</text>
</a>
</g>
</g>
<!-- Node8&#45;&gt;Node9 -->
<g id="edge9" class="edge"><title>Node8&#45;&gt;Node9</title>
<path fill="none" stroke="midnightblue" d="M552.397,-258.407C541.06,-258.138 529.45,-257.862 518.113,-257.593"/>
<polygon fill="midnightblue" stroke="midnightblue" points="552.635,-261.914 562.716,-258.652 552.802,-254.916 552.635,-261.914"/>
</g>
<!-- Node9&#45;&gt;Node4 -->
<g id="edge10" class="edge"><title>Node9&#45;&gt;Node4</title>
<path fill="none" stroke="midnightblue" d="M366.544,-237.382C354.688,-233.637 342.41,-229.583 331,-225.5 303.5,-215.659 272.458,-202.705 252.245,-194.014"/>
<polygon fill="midnightblue" stroke="midnightblue" points="365.787,-240.813 376.375,-240.45 367.872,-234.13 365.787,-240.813"/>
</g>
<!-- Node11 -->
<g id="node11" class="node"><title>Node11</title>
<g id="a_node11"><a xlink:href="class_word_quizzle_1_1_word_quizzle_client.html#aa87c179f3a0a6ab57c2b74960c95a626" target="_top" xlink:title=" ">
<polygon fill="white" stroke="black" points="339,-197 339,-216 519,-216 519,-197 339,-197"/>
<text text-anchor="middle" x="429" y="-204" font-family="Helvetica,sans-Serif" font-size="10.00">WordQuizzle.WordQuizzleClient.login</text>
</a>
</g>
</g>
<!-- Node10&#45;&gt;Node11 -->
<g id="edge12" class="edge"><title>Node10&#45;&gt;Node11</title>
<path fill="none" stroke="midnightblue" d="M552.648,-209.413C541.59,-209.151 530.268,-208.882 519.189,-208.618"/>
<polygon fill="midnightblue" stroke="midnightblue" points="552.635,-212.914 562.716,-209.652 552.802,-205.916 552.635,-212.914"/>
</g>
<!-- Node11&#45;&gt;Node4 -->
<g id="edge13" class="edge"><title>Node11&#45;&gt;Node4</title>
<path fill="none" stroke="midnightblue" d="M332.448,-195.856C319.849,-194.453 307.18,-193.042 295.263,-191.714"/>
<polygon fill="midnightblue" stroke="midnightblue" points="332.196,-199.35 342.522,-196.978 332.971,-192.393 332.196,-199.35"/>
</g>
<!-- Node13 -->
<g id="node13" class="node"><title>Node13</title>
<g id="a_node13"><a xlink:href="class_word_quizzle_1_1_word_quizzle_client.html#a50468f5e79e6bba9efc2e9fd19493345" target="_top" xlink:title=" ">
<polygon fill="white" stroke="black" points="336,-154 336,-173 522,-173 522,-154 336,-154"/>
<text text-anchor="middle" x="429" y="-161" font-family="Helvetica,sans-Serif" font-size="10.00">WordQuizzle.WordQuizzleClient.logout</text>
</a>
</g>
</g>
<!-- Node12&#45;&gt;Node13 -->
<g id="edge15" class="edge"><title>Node12&#45;&gt;Node13</title>
<path fill="none" stroke="midnightblue" d="M552.688,-162.917C542.571,-162.965 532.234,-163.014 522.064,-163.063"/>
<polygon fill="midnightblue" stroke="midnightblue" points="552.732,-166.417 562.716,-162.87 552.699,-159.417 552.732,-166.417"/>
</g>
<!-- Node13&#45;&gt;Node4 -->
<g id="edge16" class="edge"><title>Node13&#45;&gt;Node4</title>
<path fill="none" stroke="midnightblue" d="M328.549,-174.075C317.217,-175.279 305.897,-176.483 295.186,-177.622"/>
<polygon fill="midnightblue" stroke="midnightblue" points="328.922,-177.555 338.496,-173.017 328.182,-170.594 328.922,-177.555"/>
</g>
<!-- Node15 -->
<g id="node15" class="node"><title>Node15</title>
<g id="a_node15"><a xlink:href="class_word_quizzle_1_1_word_quizzle_client.html#a155c2dca547e63f1ba07589525ccfd75" target="_top" xlink:title=" ">
<polygon fill="white" stroke="black" points="334,-102.5 334,-132.5 524,-132.5 524,-102.5 334,-102.5"/>
<text text-anchor="start" x="342" y="-120.5" font-family="Helvetica,sans-Serif" font-size="10.00">WordQuizzle.WordQuizzleClient.mostra</text>
<text text-anchor="middle" x="429" y="-109.5" font-family="Helvetica,sans-Serif" font-size="10.00">_classifica</text>
</a>
</g>
</g>
<!-- Node14&#45;&gt;Node15 -->
<g id="edge18" class="edge"><title>Node14&#45;&gt;Node15</title>
<path fill="none" stroke="midnightblue" d="M552.626,-115.17C543.246,-115.348 533.676,-115.53 524.226,-115.709"/>
<polygon fill="midnightblue" stroke="midnightblue" points="552.784,-118.668 562.716,-114.978 552.651,-111.669 552.784,-118.668"/>
</g>
<!-- Node15&#45;&gt;Node4 -->
<g id="edge19" class="edge"><title>Node15&#45;&gt;Node4</title>
<path fill="none" stroke="midnightblue" d="M360.206,-135.368C350.356,-138.254 340.38,-141.338 331,-144.5 303.595,-153.738 272.793,-166.337 252.598,-174.91"/>
<polygon fill="midnightblue" stroke="midnightblue" points="361.345,-138.682 369.986,-132.552 359.408,-131.955 361.345,-138.682"/>
</g>
<!-- Node17 -->
<g id="node17" class="node"><title>Node17</title>
<g id="a_node17"><a xlink:href="class_word_quizzle_1_1_word_quizzle_client.html#a22e0d1e5461e49703357d34b50cf70b8" target="_top" xlink:title=" ">
<polygon fill="white" stroke="black" points="334,-51.5 334,-81.5 524,-81.5 524,-51.5 334,-51.5"/>
<text text-anchor="start" x="342" y="-69.5" font-family="Helvetica,sans-Serif" font-size="10.00">WordQuizzle.WordQuizzleClient.mostra</text>
<text text-anchor="middle" x="429" y="-58.5" font-family="Helvetica,sans-Serif" font-size="10.00">_punteggio</text>
</a>
</g>
</g>
<!-- Node16&#45;&gt;Node17 -->
<g id="edge21" class="edge"><title>Node16&#45;&gt;Node17</title>
<path fill="none" stroke="midnightblue" d="M552.626,-65.3349C543.246,-65.424 533.676,-65.515 524.226,-65.6047"/>
<polygon fill="midnightblue" stroke="midnightblue" points="552.749,-68.834 562.716,-65.239 552.683,-61.8343 552.749,-68.834"/>
</g>
<!-- Node17&#45;&gt;Node4 -->
<g id="edge22" class="edge"><title>Node17&#45;&gt;Node4</title>
<path fill="none" stroke="midnightblue" d="M346.9,-85.0196C341.398,-87.2497 336.044,-89.7343 331,-92.5 290.763,-114.564 253.795,-156.021 238.249,-174.808"/>
<polygon fill="midnightblue" stroke="midnightblue" points="348.137,-88.2936 356.269,-81.502 345.677,-81.7403 348.137,-88.2936"/>
</g>
<!-- Node19 -->
<g id="node19" class="node"><title>Node19</title>
<g id="a_node19"><a xlink:href="class_word_quizzle_1_1_word_quizzle_client.html#a2f667c9d998bab28411f3fd0af90ec8c" target="_top" xlink:title=" ">
<polygon fill="white" stroke="black" points="339,-11 339,-30 519,-30 519,-11 339,-11"/>
<text text-anchor="middle" x="429" y="-18" font-family="Helvetica,sans-Serif" font-size="10.00">WordQuizzle.WordQuizzleClient.sfida</text>
</a>
</g>
</g>
<!-- Node18&#45;&gt;Node19 -->
<g id="edge24" class="edge"><title>Node18&#45;&gt;Node19</title>
<path fill="none" stroke="midnightblue" d="M552.648,-17.5867C541.59,-17.8494 530.268,-18.1183 519.189,-18.3815"/>
<polygon fill="midnightblue" stroke="midnightblue" points="552.802,-21.0842 562.716,-17.3476 552.635,-14.0862 552.802,-21.0842"/>
</g>
<!-- Node19&#45;&gt;Node4 -->
<g id="edge25" class="edge"><title>Node19&#45;&gt;Node4</title>
<path fill="none" stroke="midnightblue" d="M345.51,-33.6891C340.421,-35.9096 335.532,-38.4938 331,-41.5 278.404,-76.3896 244.931,-148.986 234.227,-174.983"/>
<polygon fill="midnightblue" stroke="midnightblue" points="346.79,-36.9467 354.852,-30.0725 344.263,-30.4188 346.79,-36.9467"/>
</g>
</g>
</svg>
        <g id="navigator" transform="translate(0 0)" fill="#404254">
                <rect fill="#f2f5e9" fill-opacity="0.5" stroke="#606060" stroke-width=".5" x="0" y="0" width="60" height="60"/>
                <use id="zoomplus" xlink:href="#zoomPlus" x="17" y="9" onmousedown="handleZoom(evt,'in')"/>
                <use id="zoomminus" xlink:href="#zoomMin" x="42" y="9" onmousedown="handleZoom(evt,'out')"/>
                <use id="reset" xlink:href="#resetDef" x="30" y="36" onmousedown="handleReset()"/>
                <g id="arrowUp" xlink:href="#dirArrow" transform="translate(30 24)" onmousedown="handlePan(0,-1)">
                  <use xlink:href="#rim" fill="#404040">
                        <set attributeName="fill" to="#808080" begin="arrowUp.mouseover" end="arrowUp.mouseout"/>
                  </use>
                  <path fill="none" stroke="white" stroke-width="1.5" d="M0,-3.0v7 M-2.5,-0.5L0,-3.0L2.5,-0.5"/>
                </g>
                <g id="arrowRight" xlink:href="#dirArrow" transform="rotate(90) translate(36 -43)" onmousedown="handlePan(1,0)">
                  <use xlink:href="#rim" fill="#404040">
                        <set attributeName="fill" to="#808080" begin="arrowRight.mouseover" end="arrowRight.mouseout"/>
                  </use>
                  <path fill="none" stroke="white" stroke-width="1.5" d="M0,-3.0v7 M-2.5,-0.5L0,-3.0L2.5,-0.5"/>
                </g>
                <g id="arrowDown" xlink:href="#dirArrow" transform="rotate(180) translate(-30 -48)" onmousedown="handlePan(0,1)">
                  <use xlink:href="#rim" fill="#404040">
                        <set attributeName="fill" to="#808080" begin="arrowDown.mouseover" end="arrowDown.mouseout"/>
                  </use>
                  <path fill="none" stroke="white" stroke-width="1.5" d="M0,-3.0v7 M-2.5,-0.5L0,-3.0L2.5,-0.5"/>
                </g>
                <g id="arrowLeft" xlink:href="#dirArrow" transform="rotate(270) translate(-36 17)" onmousedown="handlePan(-1,0)">
                  <use xlink:href="#rim" fill="#404040">
                        <set attributeName="fill" to="#808080" begin="arrowLeft.mouseover" end="arrowLeft.mouseout"/>
                  </use>
                  <path fill="none" stroke="white" stroke-width="1.5" d="M0,-3.0v7 M-2.5,-0.5L0,-3.0L2.5,-0.5"/>
                </g>
        </g>
        <svg viewBox="0 0 15 15" width="100%" height="30px" preserveAspectRatio="xMaxYMin meet">
         <g id="arrow_out" transform="scale(0.3 0.3)">
          <a xlink:href="class_word_quizzle_1_1_word_quizzle_client_service_a0ed33ad0199840ae1847c4ecbc992ce2_icgraph_org.svg" target="_base">
           <rect id="button" ry="5" rx="5" y="6" x="6" height="38" width="38"
                fill="#f2f5e9" fill-opacity="0.5" stroke="#606060" stroke-width="1.0"/>
           <path id="arrow"
             d="M 11.500037,31.436501 C 11.940474,20.09759 22.043105,11.32322 32.158766,21.979434 L 37.068811,17.246167 C 37.068811,17.246167 37.088388,32 37.088388,32 L 22.160133,31.978069 C 22.160133,31.978069 26.997745,27.140456 26.997745,27.140456 C 18.528582,18.264221 13.291696,25.230495 11.500037,31.436501 z"
             style="fill:#404040;"/>
          </a>
         </g>
        </svg>
</svg>
