<?xml version="1.0" encoding="UTF-8" standalone="no"?>
<!DOCTYPE svg PUBLIC "-//W3C//DTD SVG 1.1//EN"
 "http://www.w3.org/Graphics/SVG/1.1/DTD/svg11.dtd">
<!-- Generated by graphviz version 2.38.0 (20140413.2041)
 -->
<!-- Title: Bot.run Pages: 1 -->
<svg width="646pt" height="328pt"
 viewBox="0.00 0.00 646.00 328.00" xmlns="http://www.w3.org/2000/svg" xmlns:xlink="http://www.w3.org/1999/xlink">
<g id="graph0" class="graph" transform="scale(1 1) rotate(0) translate(4 324)">
<title>Bot.run</title>
<polygon fill="white" stroke="none" points="-4,4 -4,-324 642,-324 642,4 -4,4"/>
<!-- Node1 -->
<g id="node1" class="node"><title>Node1</title>
<g id="a_node1"><a xlink:title="Avvia il bot.">
<polygon fill="#bfbfbf" stroke="black" points="0,-135 0,-154 48,-154 48,-135 0,-135"/>
<text text-anchor="middle" x="24" y="-142" font-family="Helvetica,sans-Serif" font-size="10.00">Bot.run</text>
</a>
</g>
</g>
<!-- Node2 -->
<g id="node2" class="node"><title>Node2</title>
<g id="a_node2"><a xlink:href="class_word_quizzle_client.html#a7be01cd53d19ff448ee3fb95ace8d919" target="_top" xlink:title="Accetta una richiesta di sfida inviata da nickAmico.">
<polygon fill="white" stroke="black" points="86,-279.5 86,-309.5 219,-309.5 219,-279.5 86,-279.5"/>
<text text-anchor="start" x="94" y="-297.5" font-family="Helvetica,sans-Serif" font-size="10.00">WordQuizzleClient.accetta</text>
<text text-anchor="middle" x="152.5" y="-286.5" font-family="Helvetica,sans-Serif" font-size="10.00">Sfida</text>
</a>
</g>
</g>
<!-- Node1&#45;&gt;Node2 -->
<g id="edge1" class="edge"><title>Node1&#45;&gt;Node2</title>
<path fill="none" stroke="midnightblue" d="M28.3996,-154.075C35.8785,-174.092 55.3997,-221.03 84,-251.5 92.0902,-260.119 102.258,-267.759 112.23,-274.118"/>
<polygon fill="midnightblue" stroke="midnightblue" points="110.519,-277.174 120.884,-279.369 114.15,-271.189 110.519,-277.174"/>
</g>
<!-- Node4 -->
<g id="node4" class="node"><title>Node4</title>
<g id="a_node4"><a xlink:href="class_word_quizzle_client.html#aff2ae6478070d04f0864cfffe73e6b27" target="_top" xlink:title="Verifica se ci sono richieste di sfida per user.">
<polygon fill="white" stroke="black" points="84,-211.5 84,-241.5 221,-241.5 221,-211.5 84,-211.5"/>
<text text-anchor="start" x="92" y="-229.5" font-family="Helvetica,sans-Serif" font-size="10.00">WordQuizzleClient.controlla</text>
<text text-anchor="middle" x="152.5" y="-218.5" font-family="Helvetica,sans-Serif" font-size="10.00">Richieste</text>
</a>
</g>
</g>
<!-- Node1&#45;&gt;Node4 -->
<g id="edge3" class="edge"><title>Node1&#45;&gt;Node4</title>
<path fill="none" stroke="midnightblue" d="M40.008,-154.228C59.4445,-166.828 93.8449,-189.127 119.31,-205.634"/>
<polygon fill="midnightblue" stroke="midnightblue" points="117.611,-208.703 127.906,-211.206 121.418,-202.829 117.611,-208.703"/>
</g>
<!-- Node6 -->
<g id="node6" class="node"><title>Node6</title>
<g id="a_node6"><a xlink:href="class_bot.html#acc83eda4c2ebd3c509c0e618ff69dba6" target="_top" xlink:title="Gestisce una sfida.">
<polygon fill="white" stroke="black" points="123,-135 123,-154 182,-154 182,-135 123,-135"/>
<text text-anchor="middle" x="152.5" y="-142" font-family="Helvetica,sans-Serif" font-size="10.00">Bot.game</text>
</a>
</g>
</g>
<!-- Node1&#45;&gt;Node6 -->
<g id="edge5" class="edge"><title>Node1&#45;&gt;Node6</title>
<path fill="none" stroke="midnightblue" d="M48.202,-144.5C66.1414,-144.5 91.3823,-144.5 112.423,-144.5"/>
<polygon fill="midnightblue" stroke="midnightblue" points="112.672,-148 122.672,-144.5 112.672,-141 112.672,-148"/>
</g>
<!-- Node12 -->
<g id="node12" class="node"><title>Node12</title>
<g id="a_node12"><a xlink:href="class_word_quizzle_client.html#ab3dfa5eb3dd327ca00e89b9920125e0e" target="_top" xlink:title="Effettua il login.">
<polygon fill="white" stroke="black" points="92,-88 92,-107 213,-107 213,-88 92,-88"/>
<text text-anchor="middle" x="152.5" y="-95" font-family="Helvetica,sans-Serif" font-size="10.00">WordQuizzleClient.login</text>
</a>
</g>
</g>
<!-- Node1&#45;&gt;Node12 -->
<g id="edge11" class="edge"><title>Node1&#45;&gt;Node12</title>
<path fill="none" stroke="midnightblue" d="M48.202,-135.879C67.2531,-128.801 94.5387,-118.663 116.283,-110.585"/>
<polygon fill="midnightblue" stroke="midnightblue" points="117.679,-113.8 125.834,-107.036 115.241,-107.238 117.679,-113.8"/>
</g>
<!-- Node14 -->
<g id="node14" class="node"><title>Node14</title>
<g id="a_node14"><a xlink:href="class_word_quizzle_client.html#a516539e0da1d5d54431a7e41cf9339f8" target="_top" xlink:title="Registra un nuovo utente.">
<polygon fill="white" stroke="black" points="86,-19.5 86,-49.5 219,-49.5 219,-19.5 86,-19.5"/>
<text text-anchor="start" x="94" y="-37.5" font-family="Helvetica,sans-Serif" font-size="10.00">WordQuizzleClient.registra</text>
<text text-anchor="middle" x="152.5" y="-26.5" font-family="Helvetica,sans-Serif" font-size="10.00">_utente</text>
</a>
</g>
</g>
<!-- Node1&#45;&gt;Node14 -->
<g id="edge13" class="edge"><title>Node1&#45;&gt;Node14</title>
<path fill="none" stroke="midnightblue" d="M32.3135,-134.816C42.828,-121.269 63.2445,-96.3222 84,-78.5 93.7838,-70.0989 105.274,-62.0426 115.974,-55.1722"/>
<polygon fill="midnightblue" stroke="midnightblue" points="118.1,-57.9704 124.72,-49.6985 114.387,-52.0366 118.1,-57.9704"/>
</g>
<!-- Node3 -->
<g id="node3" class="node"><title>Node3</title>
<g id="a_node3"><a xlink:href="interface_word_quizzle_service.html#ac0cddaf5d6b4f16f4802b52579fd97ae" target="_top" xlink:title="Accetta una richiesta di sfida inviata da nickAmico.">
<polygon fill="white" stroke="black" points="271.5,-289.5 271.5,-319.5 411.5,-319.5 411.5,-289.5 271.5,-289.5"/>
<text text-anchor="start" x="279.5" y="-307.5" font-family="Helvetica,sans-Serif" font-size="10.00">WordQuizzleService.accetta</text>
<text text-anchor="middle" x="341.5" y="-296.5" font-family="Helvetica,sans-Serif" font-size="10.00">Sfida</text>
</a>
</g>
</g>
<!-- Node2&#45;&gt;Node3 -->
<g id="edge2" class="edge"><title>Node2&#45;&gt;Node3</title>
<path fill="none" stroke="midnightblue" d="M219.166,-298.012C232.716,-298.736 247.123,-299.507 261.101,-300.254"/>
<polygon fill="midnightblue" stroke="midnightblue" points="261.011,-303.754 271.184,-300.793 261.385,-296.764 261.011,-303.754"/>
</g>
<!-- Node5 -->
<g id="node5" class="node"><title>Node5</title>
<g id="a_node5"><a xlink:href="interface_word_quizzle_service.html#af3a47eb252f1b6e8a80e90568c87b98a" target="_top" xlink:title="Verifica se ci sono richieste di sfida per nickUtente.">
<polygon fill="white" stroke="black" points="269.5,-240.5 269.5,-270.5 413.5,-270.5 413.5,-240.5 269.5,-240.5"/>
<text text-anchor="start" x="277.5" y="-258.5" font-family="Helvetica,sans-Serif" font-size="10.00">WordQuizzleService.controlla</text>
<text text-anchor="middle" x="341.5" y="-247.5" font-family="Helvetica,sans-Serif" font-size="10.00">Richieste</text>
</a>
</g>
</g>
<!-- Node4&#45;&gt;Node5 -->
<g id="edge4" class="edge"><title>Node4&#45;&gt;Node5</title>
<path fill="none" stroke="midnightblue" d="M221.011,-236.97C233.394,-238.89 246.437,-240.913 259.173,-242.888"/>
<polygon fill="midnightblue" stroke="midnightblue" points="258.885,-246.385 269.303,-244.459 259.958,-239.468 258.885,-246.385"/>
</g>
<!-- Node7 -->
<g id="node7" class="node"><title>Node7</title>
<g id="a_node7"><a xlink:href="class_word_quizzle_server_service.html#a445af71c2bed6349e5239893b2e0ca8c" target="_top" xlink:title="Restituisce il numero di parole per sfida.">
<polygon fill="white" stroke="black" points="264,-202 264,-221 419,-221 419,-202 264,-202"/>
<text text-anchor="middle" x="341.5" y="-209" font-family="Helvetica,sans-Serif" font-size="10.00">WordQuizzleServerService.getK</text>
</a>
</g>
</g>
<!-- Node6&#45;&gt;Node7 -->
<g id="edge6" class="edge"><title>Node6&#45;&gt;Node7</title>
<path fill="none" stroke="midnightblue" d="M171.344,-154.188C191.603,-164.848 225.884,-181.877 257,-192.5 264.602,-195.095 272.715,-197.441 280.784,-199.528"/>
<polygon fill="midnightblue" stroke="midnightblue" points="280.02,-202.945 290.568,-201.944 281.698,-196.149 280.02,-202.945"/>
</g>
<!-- Node8 -->
<g id="node8" class="node"><title>Node8</title>
<g id="a_node8"><a xlink:href="class_word_quizzle_server_service.html#a5779a8f11e9348825e19ef83b74b43bc" target="_top" xlink:title="Restituisce la durata di una sfida, in millisecondi.">
<polygon fill="white" stroke="black" points="262.5,-164 262.5,-183 420.5,-183 420.5,-164 262.5,-164"/>
<text text-anchor="middle" x="341.5" y="-171" font-family="Helvetica,sans-Serif" font-size="10.00">WordQuizzleServerService.getT2</text>
</a>
</g>
</g>
<!-- Node6&#45;&gt;Node8 -->
<g id="edge7" class="edge"><title>Node6&#45;&gt;Node8</title>
<path fill="none" stroke="midnightblue" d="M182.309,-148.968C205.412,-152.551 238.852,-157.736 269.041,-162.418"/>
<polygon fill="midnightblue" stroke="midnightblue" points="268.716,-165.91 279.135,-163.983 269.789,-158.992 268.716,-165.91"/>
</g>
<!-- Node9 -->
<g id="node9" class="node"><title>Node9</title>
<g id="a_node9"><a xlink:href="class_word_quizzle_client.html#a8af265290384d3ce6dcb44c6e08f3b4a" target="_top" xlink:title="Invia la traduzione della parola precedentemente inviata dal server durante una sfida.">
<polygon fill="white" stroke="black" points="257,-126 257,-145 426,-145 426,-126 257,-126"/>
<text text-anchor="middle" x="341.5" y="-133" font-family="Helvetica,sans-Serif" font-size="10.00">WordQuizzleClient.sendTranslation</text>
</a>
</g>
</g>
<!-- Node6&#45;&gt;Node9 -->
<g id="edge8" class="edge"><title>Node6&#45;&gt;Node9</title>
<path fill="none" stroke="midnightblue" d="M182.309,-143.113C199.79,-142.272 223.188,-141.146 246.618,-140.018"/>
<polygon fill="midnightblue" stroke="midnightblue" points="246.824,-143.513 256.644,-139.536 246.487,-136.521 246.824,-143.513"/>
</g>
<!-- Node11 -->
<g id="node11" class="node"><title>Node11</title>
<g id="a_node11"><a xlink:href="class_translator.html#ad52c8ccdf35d16a095786e5e052b333a" target="_top" xlink:title="Traduce una parola dall&#39;italiano all&#39;inglese.">
<polygon fill="white" stroke="black" points="291.5,-88 291.5,-107 391.5,-107 391.5,-88 291.5,-88"/>
<text text-anchor="middle" x="341.5" y="-95" font-family="Helvetica,sans-Serif" font-size="10.00">Translator.translate</text>
</a>
</g>
</g>
<!-- Node6&#45;&gt;Node11 -->
<g id="edge10" class="edge"><title>Node6&#45;&gt;Node11</title>
<path fill="none" stroke="midnightblue" d="M182.417,-136.341C203.128,-130.579 231.711,-122.795 257,-116.5 266.738,-114.076 277.146,-111.609 287.194,-109.291"/>
<polygon fill="midnightblue" stroke="midnightblue" points="288.115,-112.671 297.083,-107.029 286.554,-105.847 288.115,-112.671"/>
</g>
<!-- Node10 -->
<g id="node10" class="node"><title>Node10</title>
<g id="a_node10"><a xlink:href="interface_word_quizzle_service.html#a02c046b12dcaedd35e92fd7878595f57" target="_top" xlink:title="Invia la traduzione della parola precedentemente inviata dal server durante una sfida.">
<polygon fill="white" stroke="black" points="462,-126 462,-145 638,-145 638,-126 462,-126"/>
<text text-anchor="middle" x="550" y="-133" font-family="Helvetica,sans-Serif" font-size="10.00">WordQuizzleService.sendTranslation</text>
</a>
</g>
</g>
<!-- Node9&#45;&gt;Node10 -->
<g id="edge9" class="edge"><title>Node9&#45;&gt;Node10</title>
<path fill="none" stroke="midnightblue" d="M426.194,-135.5C434.631,-135.5 443.249,-135.5 451.812,-135.5"/>
<polygon fill="midnightblue" stroke="midnightblue" points="451.824,-139 461.823,-135.5 451.823,-132 451.824,-139"/>
</g>
<!-- Node13 -->
<g id="node13" class="node"><title>Node13</title>
<g id="a_node13"><a xlink:href="interface_word_quizzle_service.html#a7d076a6d78b7108aa0d793ea398492f4" target="_top" xlink:title="Effettua il login.">
<polygon fill="white" stroke="black" points="277.5,-50 277.5,-69 405.5,-69 405.5,-50 277.5,-50"/>
<text text-anchor="middle" x="341.5" y="-57" font-family="Helvetica,sans-Serif" font-size="10.00">WordQuizzleService.login</text>
</a>
</g>
</g>
<!-- Node12&#45;&gt;Node13 -->
<g id="edge12" class="edge"><title>Node12&#45;&gt;Node13</title>
<path fill="none" stroke="midnightblue" d="M200.688,-87.911C225.92,-82.7835 257.173,-76.4328 283.727,-71.0368"/>
<polygon fill="midnightblue" stroke="midnightblue" points="284.549,-74.4414 293.651,-69.0201 283.155,-67.5816 284.549,-74.4414"/>
</g>
<!-- Node15 -->
<g id="node15" class="node"><title>Node15</title>
<g id="a_node15"><a xlink:href="interface_word_quizzle_service.html#a11603d2e946c2df51d3fa9d1daa53791" target="_top" xlink:title="Registra un utente.">
<polygon fill="white" stroke="black" points="271.5,-0.5 271.5,-30.5 411.5,-30.5 411.5,-0.5 271.5,-0.5"/>
<text text-anchor="start" x="279.5" y="-18.5" font-family="Helvetica,sans-Serif" font-size="10.00">WordQuizzleService.registra</text>
<text text-anchor="middle" x="341.5" y="-7.5" font-family="Helvetica,sans-Serif" font-size="10.00">_utente</text>
</a>
</g>
</g>
<!-- Node14&#45;&gt;Node15 -->
<g id="edge14" class="edge"><title>Node14&#45;&gt;Node15</title>
<path fill="none" stroke="midnightblue" d="M219.166,-27.828C232.716,-26.4513 247.123,-24.9875 261.101,-23.5673"/>
<polygon fill="midnightblue" stroke="midnightblue" points="261.589,-27.0358 271.184,-22.5428 260.881,-20.0717 261.589,-27.0358"/>
</g>
</g>
</svg>
