<?xml version="1.0" encoding="UTF-8" standalone="no"?>
<!DOCTYPE svg PUBLIC "-//W3C//DTD SVG 1.1//EN"
 "http://www.w3.org/Graphics/SVG/1.1/DTD/svg11.dtd">
<!-- Generated by graphviz version 2.38.0 (20140413.2041)
 -->
<!-- Title: WordQuizzle.Bot.run Pages: 1 -->
<svg width="811pt" height="312pt"
 viewBox="0.00 0.00 811.00 312.00" xmlns="http://www.w3.org/2000/svg" xmlns:xlink="http://www.w3.org/1999/xlink">
<g id="graph0" class="graph" transform="scale(1 1) rotate(0) translate(4 308)">
<title>WordQuizzle.Bot.run</title>
<polygon fill="white" stroke="none" points="-4,4 -4,-308 807,-308 807,4 -4,4"/>
<!-- Node1 -->
<g id="node1" class="node"><title>Node1</title>
<g id="a_node1"><a xlink:title="Avvia il bot.">
<polygon fill="#bfbfbf" stroke="black" points="0,-132 0,-151 107,-151 107,-132 0,-132"/>
<text text-anchor="middle" x="53.5" y="-139" font-family="Helvetica,sans-Serif" font-size="10.00">WordQuizzle.Bot.run</text>
</a>
</g>
</g>
<!-- Node2 -->
<g id="node2" class="node"><title>Node2</title>
<g id="a_node2"><a xlink:href="class_word_quizzle_1_1_word_quizzle_client.html#a540dfbf20ba0d5a8118e6d9284b79bc0" target="_top" xlink:title="Accetta una richiesta di sfida inviata da nickAmico.">
<polygon fill="white" stroke="black" points="145.5,-259.5 145.5,-289.5 337.5,-289.5 337.5,-259.5 145.5,-259.5"/>
<text text-anchor="start" x="153.5" y="-277.5" font-family="Helvetica,sans-Serif" font-size="10.00">WordQuizzle.WordQuizzleClient.accetta</text>
<text text-anchor="middle" x="241.5" y="-266.5" font-family="Helvetica,sans-Serif" font-size="10.00">Sfida</text>
</a>
</g>
</g>
<!-- Node1&#45;&gt;Node2 -->
<g id="edge1" class="edge"><title>Node1&#45;&gt;Node2</title>
<path fill="none" stroke="midnightblue" d="M60.9418,-151.038C74.198,-170.003 106.378,-212.747 143,-237.5 153.593,-244.66 165.762,-250.685 177.83,-255.657"/>
<polygon fill="midnightblue" stroke="midnightblue" points="176.867,-259.039 187.455,-259.42 179.416,-252.519 176.867,-259.039"/>
</g>
<!-- Node4 -->
<g id="node4" class="node"><title>Node4</title>
<g id="a_node4"><a xlink:href="class_word_quizzle_1_1_word_quizzle_client.html#a808fea05e1dc44069f476eebd3a39ada" target="_top" xlink:title="Verifica se ci sono richieste di sfida per user.">
<polygon fill="white" stroke="black" points="143,-197.5 143,-227.5 340,-227.5 340,-197.5 143,-197.5"/>
<text text-anchor="start" x="151" y="-215.5" font-family="Helvetica,sans-Serif" font-size="10.00">WordQuizzle.WordQuizzleClient.controlla</text>
<text text-anchor="middle" x="241.5" y="-204.5" font-family="Helvetica,sans-Serif" font-size="10.00">Richieste</text>
</a>
</g>
</g>
<!-- Node1&#45;&gt;Node4 -->
<g id="edge3" class="edge"><title>Node1&#45;&gt;Node4</title>
<path fill="none" stroke="midnightblue" d="M79.5848,-151.075C108.167,-161.986 155.567,-180.079 191.539,-193.811"/>
<polygon fill="midnightblue" stroke="midnightblue" points="190.296,-197.082 200.887,-197.379 192.793,-190.543 190.296,-197.082"/>
</g>
<!-- Node6 -->
<g id="node6" class="node"><title>Node6</title>
<g id="a_node6"><a xlink:href="class_word_quizzle_1_1_bot.html#ac35a1d7ec89b1ef5fc25f161357f71c1" target="_top" xlink:title="Gestisce una sfida.">
<polygon fill="white" stroke="black" points="182.5,-132 182.5,-151 300.5,-151 300.5,-132 182.5,-132"/>
<text text-anchor="middle" x="241.5" y="-139" font-family="Helvetica,sans-Serif" font-size="10.00">WordQuizzle.Bot.game</text>
</a>
</g>
</g>
<!-- Node1&#45;&gt;Node6 -->
<g id="edge5" class="edge"><title>Node1&#45;&gt;Node6</title>
<path fill="none" stroke="midnightblue" d="M107.303,-141.5C127.515,-141.5 150.865,-141.5 172.314,-141.5"/>
<polygon fill="midnightblue" stroke="midnightblue" points="172.342,-145 182.342,-141.5 172.342,-138 172.342,-145"/>
</g>
<!-- Node11 -->
<g id="node11" class="node"><title>Node11</title>
<g id="a_node11"><a xlink:href="class_word_quizzle_1_1_word_quizzle_client.html#aa87c179f3a0a6ab57c2b74960c95a626" target="_top" xlink:title="Effettua il login.">
<polygon fill="white" stroke="black" points="151.5,-83 151.5,-102 331.5,-102 331.5,-83 151.5,-83"/>
<text text-anchor="middle" x="241.5" y="-90" font-family="Helvetica,sans-Serif" font-size="10.00">WordQuizzle.WordQuizzleClient.login</text>
</a>
</g>
</g>
<!-- Node1&#45;&gt;Node11 -->
<g id="edge10" class="edge"><title>Node1&#45;&gt;Node11</title>
<path fill="none" stroke="midnightblue" d="M90.8042,-131.936C120.377,-124.145 162.319,-113.096 194.287,-104.674"/>
<polygon fill="midnightblue" stroke="midnightblue" points="195.509,-107.972 204.287,-102.04 193.726,-101.203 195.509,-107.972"/>
</g>
<!-- Node13 -->
<g id="node13" class="node"><title>Node13</title>
<g id="a_node13"><a xlink:href="class_word_quizzle_1_1_word_quizzle_client.html#a98206956fc50ef3951d27f2a89fb21fa" target="_top" xlink:title="Registra un nuovo utente.">
<polygon fill="white" stroke="black" points="145.5,-11.5 145.5,-41.5 337.5,-41.5 337.5,-11.5 145.5,-11.5"/>
<text text-anchor="start" x="153.5" y="-29.5" font-family="Helvetica,sans-Serif" font-size="10.00">WordQuizzle.WordQuizzleClient.registra</text>
<text text-anchor="middle" x="241.5" y="-18.5" font-family="Helvetica,sans-Serif" font-size="10.00">_utente</text>
</a>
</g>
</g>
<!-- Node1&#45;&gt;Node13 -->
<g id="edge12" class="edge"><title>Node1&#45;&gt;Node13</title>
<path fill="none" stroke="midnightblue" d="M65.4173,-131.916C81.616,-117.98 113.306,-91.7944 143,-73.5 159.604,-63.2707 178.769,-53.611 195.69,-45.7402"/>
<polygon fill="midnightblue" stroke="midnightblue" points="197.192,-48.9021 204.829,-41.5593 194.28,-42.5366 197.192,-48.9021"/>
</g>
<!-- Node3 -->
<g id="node3" class="node"><title>Node3</title>
<g id="a_node3"><a xlink:href="interface_word_quizzle_1_1_word_quizzle_service.html#a249b5976997c2e6d6d2ceb7e71cc7d75" target="_top" xlink:title="Accetta una richiesta di sfida inviata da nickAmico.">
<polygon fill="white" stroke="black" points="378,-273.5 378,-303.5 577,-303.5 577,-273.5 378,-273.5"/>
<text text-anchor="start" x="386" y="-291.5" font-family="Helvetica,sans-Serif" font-size="10.00">WordQuizzle.WordQuizzleService.accetta</text>
<text text-anchor="middle" x="477.5" y="-280.5" font-family="Helvetica,sans-Serif" font-size="10.00">Sfida</text>
</a>
</g>
</g>
<!-- Node2&#45;&gt;Node3 -->
<g id="edge2" class="edge"><title>Node2&#45;&gt;Node3</title>
<path fill="none" stroke="midnightblue" d="M337.677,-280.194C347.641,-280.79 357.824,-281.4 367.924,-282.004"/>
<polygon fill="midnightblue" stroke="midnightblue" points="367.792,-285.502 377.984,-282.606 368.21,-278.515 367.792,-285.502"/>
</g>
<!-- Node5 -->
<g id="node5" class="node"><title>Node5</title>
<g id="a_node5"><a xlink:href="interface_word_quizzle_1_1_word_quizzle_service.html#a12eccd4ef95e4ec5a7591b6038429eda" target="_top" xlink:title="Verifica se ci sono richieste di sfida per nickUtente.">
<polygon fill="white" stroke="black" points="376,-224.5 376,-254.5 579,-254.5 579,-224.5 376,-224.5"/>
<text text-anchor="start" x="384" y="-242.5" font-family="Helvetica,sans-Serif" font-size="10.00">WordQuizzle.WordQuizzleService.controlla</text>
<text text-anchor="middle" x="477.5" y="-231.5" font-family="Helvetica,sans-Serif" font-size="10.00">Richieste</text>
</a>
</g>
</g>
<!-- Node4&#45;&gt;Node5 -->
<g id="edge4" class="edge"><title>Node4&#45;&gt;Node5</title>
<path fill="none" stroke="midnightblue" d="M340.043,-223.755C348.515,-224.733 357.128,-225.726 365.696,-226.715"/>
<polygon fill="midnightblue" stroke="midnightblue" points="365.388,-230.202 375.723,-227.872 366.19,-223.249 365.388,-230.202"/>
</g>
<!-- Node7 -->
<g id="node7" class="node"><title>Node7</title>
<g id="a_node7"><a xlink:href="class_word_quizzle_1_1_word_quizzle_server_service.html#a970fe0e2dd7457bab2c64ae722a912fc" target="_top" xlink:title="Restituisce il numero di parole per sfida.">
<polygon fill="white" stroke="black" points="398,-175.5 398,-205.5 557,-205.5 557,-175.5 398,-175.5"/>
<text text-anchor="start" x="406" y="-193.5" font-family="Helvetica,sans-Serif" font-size="10.00">WordQuizzle.WordQuizzleServer</text>
<text text-anchor="middle" x="477.5" y="-182.5" font-family="Helvetica,sans-Serif" font-size="10.00">Service.getK</text>
</a>
</g>
</g>
<!-- Node6&#45;&gt;Node7 -->
<g id="edge6" class="edge"><title>Node6&#45;&gt;Node7</title>
<path fill="none" stroke="midnightblue" d="M287.895,-151.006C318.145,-157.34 358.771,-165.847 394.57,-173.344"/>
<polygon fill="midnightblue" stroke="midnightblue" points="394.022,-176.805 404.527,-175.429 395.457,-169.953 394.022,-176.805"/>
</g>
<!-- Node8 -->
<g id="node8" class="node"><title>Node8</title>
<g id="a_node8"><a xlink:href="class_word_quizzle_1_1_word_quizzle_client.html#a828a5e7a358bd53296d88c97172db13b" target="_top" xlink:title="Invia la traduzione della parola precedentemente inviata dal server durante una sfida.">
<polygon fill="white" stroke="black" points="387,-126.5 387,-156.5 568,-156.5 568,-126.5 387,-126.5"/>
<text text-anchor="start" x="395" y="-144.5" font-family="Helvetica,sans-Serif" font-size="10.00">WordQuizzle.WordQuizzleClient.send</text>
<text text-anchor="middle" x="477.5" y="-133.5" font-family="Helvetica,sans-Serif" font-size="10.00">Translation</text>
</a>
</g>
</g>
<!-- Node6&#45;&gt;Node8 -->
<g id="edge7" class="edge"><title>Node6&#45;&gt;Node8</title>
<path fill="none" stroke="midnightblue" d="M300.643,-141.5C323.586,-141.5 350.612,-141.5 376.502,-141.5"/>
<polygon fill="midnightblue" stroke="midnightblue" points="376.741,-145 386.741,-141.5 376.74,-138 376.741,-145"/>
</g>
<!-- Node10 -->
<g id="node10" class="node"><title>Node10</title>
<g id="a_node10"><a xlink:href="class_word_quizzle_1_1_translator.html#a9fcad4b807785c63c72bc85f672fb635" target="_top" xlink:title="Traduce una parola dall&#39;italiano all&#39;inglese.">
<polygon fill="white" stroke="black" points="398,-88 398,-107 557,-107 557,-88 398,-88"/>
<text text-anchor="middle" x="477.5" y="-95" font-family="Helvetica,sans-Serif" font-size="10.00">WordQuizzle.Translator.translate</text>
</a>
</g>
</g>
<!-- Node6&#45;&gt;Node10 -->
<g id="edge9" class="edge"><title>Node6&#45;&gt;Node10</title>
<path fill="none" stroke="midnightblue" d="M293.275,-131.953C329.304,-125.178 377.828,-116.054 415.888,-108.897"/>
<polygon fill="midnightblue" stroke="midnightblue" points="416.644,-112.316 425.825,-107.029 415.35,-105.437 416.644,-112.316"/>
</g>
<!-- Node9 -->
<g id="node9" class="node"><title>Node9</title>
<g id="a_node9"><a xlink:href="interface_word_quizzle_1_1_word_quizzle_service.html#a40fcaf644a7b5e4e1c1e592052f55e0b" target="_top" xlink:title="Invia la traduzione della parola precedentemente inviata dal server durante una sfida.">
<polygon fill="white" stroke="black" points="615,-126.5 615,-156.5 803,-156.5 803,-126.5 615,-126.5"/>
<text text-anchor="start" x="623" y="-144.5" font-family="Helvetica,sans-Serif" font-size="10.00">WordQuizzle.WordQuizzleService.send</text>
<text text-anchor="middle" x="709" y="-133.5" font-family="Helvetica,sans-Serif" font-size="10.00">Translation</text>
</a>
</g>
</g>
<!-- Node8&#45;&gt;Node9 -->
<g id="edge8" class="edge"><title>Node8&#45;&gt;Node9</title>
<path fill="none" stroke="midnightblue" d="M568.217,-141.5C580.199,-141.5 592.565,-141.5 604.755,-141.5"/>
<polygon fill="midnightblue" stroke="midnightblue" points="604.942,-145 614.942,-141.5 604.942,-138 604.942,-145"/>
</g>
<!-- Node12 -->
<g id="node12" class="node"><title>Node12</title>
<g id="a_node12"><a xlink:href="interface_word_quizzle_1_1_word_quizzle_service.html#abae2cda062f36f0e54c9d13589c53027" target="_top" xlink:title="Effettua il login.">
<polygon fill="white" stroke="black" points="384,-50 384,-69 571,-69 571,-50 384,-50"/>
<text text-anchor="middle" x="477.5" y="-57" font-family="Helvetica,sans-Serif" font-size="10.00">WordQuizzle.WordQuizzleService.login</text>
</a>
</g>
</g>
<!-- Node11&#45;&gt;Node12 -->
<g id="edge11" class="edge"><title>Node11&#45;&gt;Node12</title>
<path fill="none" stroke="midnightblue" d="M309.869,-82.9993C337.647,-79.0818 370.007,-74.5182 398.782,-70.4603"/>
<polygon fill="midnightblue" stroke="midnightblue" points="399.383,-73.9101 408.797,-69.0479 398.406,-66.9787 399.383,-73.9101"/>
</g>
<!-- Node14 -->
<g id="node14" class="node"><title>Node14</title>
<g id="a_node14"><a xlink:href="interface_word_quizzle_1_1_word_quizzle_service.html#a4abc4590c1b6009ec9afb7ba1a1022b1" target="_top" xlink:title="Registra un utente.">
<polygon fill="white" stroke="black" points="378,-0.5 378,-30.5 577,-30.5 577,-0.5 378,-0.5"/>
<text text-anchor="start" x="386" y="-18.5" font-family="Helvetica,sans-Serif" font-size="10.00">WordQuizzle.WordQuizzleService.registra</text>
<text text-anchor="middle" x="477.5" y="-7.5" font-family="Helvetica,sans-Serif" font-size="10.00">_utente</text>
</a>
</g>
</g>
<!-- Node13&#45;&gt;Node14 -->
<g id="edge13" class="edge"><title>Node13&#45;&gt;Node14</title>
<path fill="none" stroke="midnightblue" d="M337.677,-22.0259C347.641,-21.5575 357.824,-21.0788 367.924,-20.604"/>
<polygon fill="midnightblue" stroke="midnightblue" points="368.159,-24.0969 377.984,-20.1311 367.83,-17.1046 368.159,-24.0969"/>
</g>
</g>
</svg>
