<?xml version="1.0" encoding="UTF-8" standalone="no"?>
<!DOCTYPE svg PUBLIC "-//W3C//DTD SVG 1.1//EN"
 "http://www.w3.org/Graphics/SVG/1.1/DTD/svg11.dtd">
<!-- Generated by graphviz version 2.38.0 (20140413.2041)
 -->
<!-- Title: WQCli.nuovaRichiesta Pages: 1 -->
<svg width="732pt" height="154pt"
 viewBox="0.00 0.00 732.00 153.50" xmlns="http://www.w3.org/2000/svg" xmlns:xlink="http://www.w3.org/1999/xlink">
<g id="graph0" class="graph" transform="scale(1 1) rotate(0) translate(4 149.5)">
<title>WQCli.nuovaRichiesta</title>
<polygon fill="white" stroke="none" points="-4,4 -4,-149.5 728,-149.5 728,4 -4,4"/>
<!-- Node1 -->
<g id="node1" class="node"><title>Node1</title>
<g id="a_node1"><a xlink:title="Gestisce una richiesta di sfida.">
<polygon fill="#bfbfbf" stroke="black" points="0,-47.5 0,-66.5 113,-66.5 113,-47.5 0,-47.5"/>
<text text-anchor="middle" x="56.5" y="-54.5" font-family="Helvetica,sans-Serif" font-size="10.00">WQCli.nuovaRichiesta</text>
</a>
</g>
</g>
<!-- Node2 -->
<g id="node2" class="node"><title>Node2</title>
<g id="a_node2"><a xlink:href="class_word_quizzle_client.html#a7be01cd53d19ff448ee3fb95ace8d919" target="_top" xlink:title="Accetta una richiesta di sfida inviata da nickAmico.">
<polygon fill="white" stroke="black" points="161.5,-105 161.5,-135 294.5,-135 294.5,-105 161.5,-105"/>
<text text-anchor="start" x="169.5" y="-123" font-family="Helvetica,sans-Serif" font-size="10.00">WordQuizzleClient.accetta</text>
<text text-anchor="middle" x="228" y="-112" font-family="Helvetica,sans-Serif" font-size="10.00">Sfida</text>
</a>
</g>
</g>
<!-- Node1&#45;&gt;Node2 -->
<g id="edge1" class="edge"><title>Node1&#45;&gt;Node2</title>
<path fill="none" stroke="midnightblue" d="M83.2434,-66.5683C107.979,-75.7622 146.029,-89.9046 176.77,-101.33"/>
<polygon fill="midnightblue" stroke="midnightblue" points="175.875,-104.732 186.468,-104.935 178.314,-98.1702 175.875,-104.732"/>
</g>
<!-- Node4 -->
<g id="node4" class="node"><title>Node4</title>
<g id="a_node4"><a xlink:href="class_w_q_cli.html#a53002705ea7cea7d4ad300f9d9d5a120" target="_top" xlink:title="Gestisce una sfida.">
<polygon fill="white" stroke="black" points="192,-47.5 192,-66.5 264,-66.5 264,-47.5 192,-47.5"/>
<text text-anchor="middle" x="228" y="-54.5" font-family="Helvetica,sans-Serif" font-size="10.00">WQCli.game</text>
</a>
</g>
</g>
<!-- Node1&#45;&gt;Node4 -->
<g id="edge3" class="edge"><title>Node1&#45;&gt;Node4</title>
<path fill="none" stroke="midnightblue" d="M113.001,-57C135.32,-57 160.725,-57 181.878,-57"/>
<polygon fill="midnightblue" stroke="midnightblue" points="181.889,-60.5001 191.889,-57 181.889,-53.5001 181.889,-60.5001"/>
</g>
<!-- Node9 -->
<g id="node9" class="node"><title>Node9</title>
<g id="a_node9"><a xlink:href="class_word_quizzle_server_service.html#a67b0475525fabf1a456511c53fd74d95" target="_top" xlink:title="Restituisce il tempo di attesa per l&#39;accettazione di una richiesta, in millisecondi.">
<polygon fill="white" stroke="black" points="149,-9.5 149,-28.5 307,-28.5 307,-9.5 149,-9.5"/>
<text text-anchor="middle" x="228" y="-16.5" font-family="Helvetica,sans-Serif" font-size="10.00">WordQuizzleServerService.getT1</text>
</a>
</g>
</g>
<!-- Node1&#45;&gt;Node9 -->
<g id="edge8" class="edge"><title>Node1&#45;&gt;Node9</title>
<path fill="none" stroke="midnightblue" d="M100.272,-47.411C122.841,-42.3513 150.723,-36.1004 174.583,-30.7512"/>
<polygon fill="midnightblue" stroke="midnightblue" points="175.543,-34.1229 184.536,-28.5201 174.012,-27.2925 175.543,-34.1229"/>
</g>
<!-- Node3 -->
<g id="node3" class="node"><title>Node3</title>
<g id="a_node3"><a xlink:href="interface_word_quizzle_service.html#ac0cddaf5d6b4f16f4802b52579fd97ae" target="_top" xlink:title="Accetta una richiesta di sfida inviata da nickAmico.">
<polygon fill="white" stroke="black" points="357.5,-115 357.5,-145 497.5,-145 497.5,-115 357.5,-115"/>
<text text-anchor="start" x="365.5" y="-133" font-family="Helvetica,sans-Serif" font-size="10.00">WordQuizzleService.accetta</text>
<text text-anchor="middle" x="427.5" y="-122" font-family="Helvetica,sans-Serif" font-size="10.00">Sfida</text>
</a>
</g>
</g>
<!-- Node2&#45;&gt;Node3 -->
<g id="edge2" class="edge"><title>Node2&#45;&gt;Node3</title>
<path fill="none" stroke="midnightblue" d="M294.765,-123.33C311.555,-124.18 329.783,-125.103 347.175,-125.984"/>
<polygon fill="midnightblue" stroke="midnightblue" points="347.136,-129.486 357.301,-126.496 347.49,-122.495 347.136,-129.486"/>
</g>
<!-- Node5 -->
<g id="node5" class="node"><title>Node5</title>
<g id="a_node5"><a xlink:href="class_word_quizzle_server_service.html#a445af71c2bed6349e5239893b2e0ca8c" target="_top" xlink:title="Restituisce il numero di parole per sfida.">
<polygon fill="white" stroke="black" points="350,-76.5 350,-95.5 505,-95.5 505,-76.5 350,-76.5"/>
<text text-anchor="middle" x="427.5" y="-83.5" font-family="Helvetica,sans-Serif" font-size="10.00">WordQuizzleServerService.getK</text>
</a>
</g>
</g>
<!-- Node4&#45;&gt;Node5 -->
<g id="edge4" class="edge"><title>Node4&#45;&gt;Node5</title>
<path fill="none" stroke="midnightblue" d="M264.309,-62.1846C288.532,-65.7415 321.588,-70.5952 351.539,-74.993"/>
<polygon fill="midnightblue" stroke="midnightblue" points="351.157,-78.4745 361.56,-76.4645 352.174,-71.5487 351.157,-78.4745"/>
</g>
<!-- Node6 -->
<g id="node6" class="node"><title>Node6</title>
<g id="a_node6"><a xlink:href="class_word_quizzle_server_service.html#a5779a8f11e9348825e19ef83b74b43bc" target="_top" xlink:title="Restituisce la durata di una sfida, in millisecondi.">
<polygon fill="white" stroke="black" points="348.5,-38.5 348.5,-57.5 506.5,-57.5 506.5,-38.5 348.5,-38.5"/>
<text text-anchor="middle" x="427.5" y="-45.5" font-family="Helvetica,sans-Serif" font-size="10.00">WordQuizzleServerService.getT2</text>
</a>
</g>
</g>
<!-- Node4&#45;&gt;Node6 -->
<g id="edge5" class="edge"><title>Node4&#45;&gt;Node6</title>
<path fill="none" stroke="midnightblue" d="M264.309,-55.391C284.879,-54.4536 311.817,-53.2261 337.815,-52.0413"/>
<polygon fill="midnightblue" stroke="midnightblue" points="338.271,-55.5243 348.101,-51.5726 337.952,-48.5315 338.271,-55.5243"/>
</g>
<!-- Node7 -->
<g id="node7" class="node"><title>Node7</title>
<g id="a_node7"><a xlink:href="class_word_quizzle_client.html#a8af265290384d3ce6dcb44c6e08f3b4a" target="_top" xlink:title="Invia la traduzione della parola precedentemente inviata dal server durante una sfida.">
<polygon fill="white" stroke="black" points="343,-0.5 343,-19.5 512,-19.5 512,-0.5 343,-0.5"/>
<text text-anchor="middle" x="427.5" y="-7.5" font-family="Helvetica,sans-Serif" font-size="10.00">WordQuizzleClient.sendTranslation</text>
</a>
</g>
</g>
<!-- Node4&#45;&gt;Node7 -->
<g id="edge6" class="edge"><title>Node4&#45;&gt;Node7</title>
<path fill="none" stroke="midnightblue" d="M264.345,-48.4381C277.714,-45.1872 293.062,-41.4397 307,-38 323.012,-34.0484 326.958,-32.8298 343,-29 352.869,-26.6437 363.411,-24.1934 373.566,-21.8666"/>
<polygon fill="midnightblue" stroke="midnightblue" points="374.58,-25.2252 383.551,-19.5891 373.024,-18.4004 374.58,-25.2252"/>
</g>
<!-- Node8 -->
<g id="node8" class="node"><title>Node8</title>
<g id="a_node8"><a xlink:href="interface_word_quizzle_service.html#a02c046b12dcaedd35e92fd7878595f57" target="_top" xlink:title="Invia la traduzione della parola precedentemente inviata dal server durante una sfida.">
<polygon fill="white" stroke="black" points="548,-0.5 548,-19.5 724,-19.5 724,-0.5 548,-0.5"/>
<text text-anchor="middle" x="636" y="-7.5" font-family="Helvetica,sans-Serif" font-size="10.00">WordQuizzleService.sendTranslation</text>
</a>
</g>
</g>
<!-- Node7&#45;&gt;Node8 -->
<g id="edge7" class="edge"><title>Node7&#45;&gt;Node8</title>
<path fill="none" stroke="midnightblue" d="M512.194,-10C520.631,-10 529.249,-10 537.812,-10"/>
<polygon fill="midnightblue" stroke="midnightblue" points="537.824,-13.5001 547.823,-10 537.823,-6.5001 537.824,-13.5001"/>
</g>
</g>
</svg>
