<?xml version="1.0" encoding="UTF-8" standalone="no"?>
<!DOCTYPE svg PUBLIC "-//W3C//DTD SVG 1.1//EN"
 "http://www.w3.org/Graphics/SVG/1.1/DTD/svg11.dtd">
<!-- Generated by graphviz version 2.38.0 (20140413.2041)
 -->
<!-- Title: WordQuizzle.WQCli.main Pages: 1 -->
<!--zoomable 946 -->
<svg id="main" version="1.1" xmlns="http://www.w3.org/2000/svg" xmlns:xlink="http://www.w3.org/1999/xlink" xml:space="preserve" onload="init(evt)">
<style type="text/css"><![CDATA[
.edge:hover path { stroke: red; }
.edge:hover polygon { stroke: red; fill: red; }
]]></style>
<script type="text/javascript"><![CDATA[
var edges = document.getElementsByTagName('g');
if (edges && edges.length) {
  for (var i=0;i<edges.length;i++) {
    if (edges[i].id.substr(0,4)=='edge') {
      edges[i].setAttribute('class','edge');
    }
  }
}
]]></script>
        <defs>
                <circle id="rim" cx="0" cy="0" r="7"/>
                <circle id="rim2" cx="0" cy="0" r="3.5"/>
                <g id="zoomPlus">
                        <use xlink:href="#rim" fill="#404040">
                                <set attributeName="fill" to="#808080" begin="zoomplus.mouseover" end="zoomplus.mouseout"/>
                        </use>
                        <path d="M-4,0h8M0,-4v8" fill="none" stroke="white" stroke-width="1.5" pointer-events="none"/>
                </g>
                <g id="zoomMin">
                        <use xlink:href="#rim" fill="#404040">
                                <set attributeName="fill" to="#808080" begin="zoomminus.mouseover" end="zoomminus.mouseout"/>
                        </use>
                        <path d="M-4,0h8" fill="none" stroke="white" stroke-width="1.5" pointer-events="none"/>
                </g>
                <g id="dirArrow">
                        <path fill="none" stroke="white" stroke-width="1.5" d="M0,-3.0v7 M-2.5,-0.5L0,-3.0L2.5,-0.5"/>
                </g>
               <g id="resetDef">
                       <use xlink:href="#rim2" fill="#404040">
                               <set attributeName="fill" to="#808080" begin="reset.mouseover" end="reset.mouseout"/>
                       </use>
               </g>
        </defs>

<script type="text/javascript">
var viewWidth = 1071;
var viewHeight = 946;
var sectionId = 'dynsection-11';
</script>
<script xlink:href="svgpan.js"/>
<svg id="graph" class="graph">
<g id="viewport">
<title>WordQuizzle.WQCli.main</title>
<polygon fill="white" stroke="none" points="-4,4 -4,-942 1067,-942 1067,4 -4,4"/>
<!-- Node1 -->
<g id="node1" class="node"><title>Node1</title>
<g id="a_node1"><a xlink:title="Gestisce l&#39;interazione con l&#39;utente.">
<polygon fill="#bfbfbf" stroke="black" points="0,-653 0,-672 128,-672 128,-653 0,-653"/>
<text text-anchor="middle" x="64" y="-660" font-family="Helvetica,sans-Serif" font-size="10.00">WordQuizzle.WQCli.main</text>
</a>
</g>
</g>
<!-- Node2 -->
<g id="node2" class="node"><title>Node2</title>
<g id="a_node2"><a xlink:href="class_word_quizzle_1_1_word_quizzle_client.html#a808fea05e1dc44069f476eebd3a39ada" target="_top" xlink:title="Verifica se ci sono richieste di sfida per user.">
<polygon fill="white" stroke="black" points="164,-825.5 164,-855.5 361,-855.5 361,-825.5 164,-825.5"/>
<text text-anchor="start" x="172" y="-843.5" font-family="Helvetica,sans-Serif" font-size="10.00">WordQuizzle.WordQuizzleClient.controlla</text>
<text text-anchor="middle" x="262.5" y="-832.5" font-family="Helvetica,sans-Serif" font-size="10.00">Richieste</text>
</a>
</g>
</g>
<!-- Node1&#45;&gt;Node2 -->
<g id="edge1" class="edge"><title>Node1&#45;&gt;Node2</title>
<path fill="none" stroke="midnightblue" d="M70.9264,-672.158C84.9131,-694.362 121.978,-749.864 164,-785.5 180.283,-799.308 200.544,-811.393 218.372,-820.691"/>
<polygon fill="midnightblue" stroke="midnightblue" points="216.938,-823.888 227.439,-825.294 220.106,-817.647 216.938,-823.888"/>
</g>
<!-- Node4 -->
<g id="node4" class="node"><title>Node4</title>
<g id="a_node4"><a xlink:href="class_word_quizzle_1_1_w_q_cli.html#a2d0870dea4cb42eac37f69476786059e" target="_top" xlink:title="Restituisce il client che gestisce le richieste.">
<polygon fill="white" stroke="black" points="186.5,-757 186.5,-776 338.5,-776 338.5,-757 186.5,-757"/>
<text text-anchor="middle" x="262.5" y="-764" font-family="Helvetica,sans-Serif" font-size="10.00">WordQuizzle.WQCli.getService</text>
</a>
</g>
</g>
<!-- Node1&#45;&gt;Node4 -->
<g id="edge3" class="edge"><title>Node1&#45;&gt;Node4</title>
<path fill="none" stroke="midnightblue" d="M73.1288,-672.227C88.7393,-690.209 124.854,-728.544 164,-747.5 169.044,-749.943 174.38,-752.071 179.85,-753.927"/>
<polygon fill="midnightblue" stroke="midnightblue" points="179.223,-757.395 189.81,-756.979 181.274,-750.702 179.223,-757.395"/>
</g>
<!-- Node5 -->
<g id="node5" class="node"><title>Node5</title>
<g id="a_node5"><a xlink:href="class_word_quizzle_1_1_w_q_cli.html#af99dd07b4f0c4e029f872de8ea3ae9f3" target="_top" xlink:title="Restistuisce una stringa contenente informazioni riguardo i comandi da utilizzare.">
<polygon fill="white" stroke="black" points="436,-541 436,-560 561,-560 561,-541 436,-541"/>
<text text-anchor="middle" x="498.5" y="-548" font-family="Helvetica,sans-Serif" font-size="10.00">WordQuizzle.WQCli.help</text>
</a>
</g>
</g>
<!-- Node1&#45;&gt;Node5 -->
<g id="edge4" class="edge"><title>Node1&#45;&gt;Node5</title>
<path fill="none" stroke="midnightblue" d="M101.875,-652.951C180.474,-632.597 364.367,-584.976 450.909,-562.565"/>
<polygon fill="midnightblue" stroke="midnightblue" points="451.915,-565.92 460.719,-560.025 450.161,-559.144 451.915,-565.92"/>
</g>
<!-- Node15 -->
<g id="node15" class="node"><title>Node15</title>
<g id="a_node15"><a xlink:href="class_word_quizzle_1_1_w_q_cli.html#a7b07b55738bdd5da89a2ef645afdc020" target="_top" xlink:title="Gestisce una richiesta di sfida.">
<polygon fill="white" stroke="black" points="176,-719 176,-738 349,-738 349,-719 176,-719"/>
<text text-anchor="middle" x="262.5" y="-726" font-family="Helvetica,sans-Serif" font-size="10.00">WordQuizzle.WQCli.nuovaRichiesta</text>
</a>
</g>
</g>
<!-- Node1&#45;&gt;Node15 -->
<g id="edge14" class="edge"><title>Node1&#45;&gt;Node15</title>
<path fill="none" stroke="midnightblue" d="M93.5728,-672.097C127.869,-683.616 185.504,-702.975 223.521,-715.744"/>
<polygon fill="midnightblue" stroke="midnightblue" points="222.618,-719.132 233.212,-718.999 224.846,-712.497 222.618,-719.132"/>
</g>
<!-- Node24 -->
<g id="node24" class="node"><title>Node24</title>
<g id="a_node24"><a xlink:href="class_word_quizzle_1_1_w_q_cli.html#a318ef86f91a825da4ff4684bd3332a6b" target="_top" xlink:title="Gestisce le richieste dell&#39;utente.">
<polygon fill="white" stroke="black" points="197,-323 197,-342 328,-342 328,-323 197,-323"/>
<text text-anchor="middle" x="262.5" y="-330" font-family="Helvetica,sans-Serif" font-size="10.00">WordQuizzle.WQCli.parse</text>
</a>
</g>
</g>
<!-- Node1&#45;&gt;Node24 -->
<g id="edge23" class="edge"><title>Node1&#45;&gt;Node24</title>
<path fill="none" stroke="midnightblue" d="M70.6689,-652.98C97.7309,-607.532 213.968,-412.325 250.48,-351.006"/>
<polygon fill="midnightblue" stroke="midnightblue" points="253.699,-352.442 255.808,-342.059 247.685,-348.86 253.699,-352.442"/>
</g>
<!-- Node41 -->
<g id="node41" class="node"><title>Node41</title>
<g id="a_node41"><a xlink:href="class_word_quizzle_1_1_w_q_cli.html#abbfeca795402787c509e85596a212d64" target="_top" xlink:title="Crea un client con interfaccia a linea di comando.">
<polygon fill="white" stroke="black" points="194.5,-285 194.5,-304 330.5,-304 330.5,-285 194.5,-285"/>
<text text-anchor="middle" x="262.5" y="-292" font-family="Helvetica,sans-Serif" font-size="10.00">WordQuizzle.WQCli.WQCli</text>
</a>
</g>
</g>
<!-- Node1&#45;&gt;Node41 -->
<g id="edge45" class="edge"><title>Node1&#45;&gt;Node41</title>
<path fill="none" stroke="midnightblue" d="M66.348,-652.969C73.7467,-602.01 111.029,-362.201 164,-313.5 170.047,-307.94 177.219,-303.792 184.889,-300.722"/>
<polygon fill="midnightblue" stroke="midnightblue" points="186.096,-304.008 194.448,-297.489 183.854,-297.377 186.096,-304.008"/>
</g>
<!-- Node3 -->
<g id="node3" class="node"><title>Node3</title>
<g id="a_node3"><a xlink:href="interface_word_quizzle_1_1_word_quizzle_service.html#a12eccd4ef95e4ec5a7591b6038429eda" target="_top" xlink:title="Verifica se ci sono richieste di sfida per nickUtente.">
<polygon fill="white" stroke="black" points="397,-855.5 397,-885.5 600,-885.5 600,-855.5 397,-855.5"/>
<text text-anchor="start" x="405" y="-873.5" font-family="Helvetica,sans-Serif" font-size="10.00">WordQuizzle.WordQuizzleService.controlla</text>
<text text-anchor="middle" x="498.5" y="-862.5" font-family="Helvetica,sans-Serif" font-size="10.00">Richieste</text>
</a>
</g>
</g>
<!-- Node2&#45;&gt;Node3 -->
<g id="edge2" class="edge"><title>Node2&#45;&gt;Node3</title>
<path fill="none" stroke="midnightblue" d="M361.043,-853.005C369.515,-854.092 378.128,-855.196 386.696,-856.294"/>
<polygon fill="midnightblue" stroke="midnightblue" points="386.359,-859.78 396.723,-857.58 387.249,-852.837 386.359,-859.78"/>
</g>
<!-- Node6 -->
<g id="node6" class="node"><title>Node6</title>
<g id="a_node6"><a xlink:href="class_word_quizzle_1_1_w_q_cli.html#a423482396d62407941b62b92f4a25732" target="_top" xlink:title="Restistuisce una stringa contenente informazioni riguardo l&#39;aggiunta di un amico.">
<polygon fill="white" stroke="black" points="666,-437.5 666,-467.5 809,-467.5 809,-437.5 666,-437.5"/>
<text text-anchor="start" x="674" y="-455.5" font-family="Helvetica,sans-Serif" font-size="10.00">WordQuizzle.WQCli.aggiungi</text>
<text text-anchor="middle" x="737.5" y="-444.5" font-family="Helvetica,sans-Serif" font-size="10.00">_amico</text>
</a>
</g>
</g>
<!-- Node5&#45;&gt;Node6 -->
<g id="edge5" class="edge"><title>Node5&#45;&gt;Node6</title>
<path fill="none" stroke="midnightblue" d="M514.033,-540.948C538.335,-525.367 589.175,-494.425 636,-476.5 642.36,-474.066 649.043,-471.825 655.814,-469.775"/>
<polygon fill="midnightblue" stroke="midnightblue" points="657.13,-473.039 665.77,-466.907 655.192,-466.312 657.13,-473.039"/>
</g>
<!-- Node7 -->
<g id="node7" class="node"><title>Node7</title>
<g id="a_node7"><a xlink:href="class_word_quizzle_1_1_w_q_cli.html#a0637563fc8b57e7e5d7bc623be3047e9" target="_top" xlink:title="Restistuisce una stringa contenente informazioni riguardo la visualizzazione della lista amici.">
<polygon fill="white" stroke="black" points="675,-486.5 675,-516.5 800,-516.5 800,-486.5 675,-486.5"/>
<text text-anchor="start" x="683" y="-504.5" font-family="Helvetica,sans-Serif" font-size="10.00">WordQuizzle.WQCli.lista</text>
<text text-anchor="middle" x="737.5" y="-493.5" font-family="Helvetica,sans-Serif" font-size="10.00">_amici</text>
</a>
</g>
</g>
<!-- Node5&#45;&gt;Node7 -->
<g id="edge6" class="edge"><title>Node5&#45;&gt;Node7</title>
<path fill="none" stroke="midnightblue" d="M545.477,-540.994C579.335,-533.994 626.027,-524.34 664.773,-516.33"/>
<polygon fill="midnightblue" stroke="midnightblue" points="665.87,-519.677 674.955,-514.225 664.453,-512.822 665.87,-519.677"/>
</g>
<!-- Node8 -->
<g id="node8" class="node"><title>Node8</title>
<g id="a_node8"><a xlink:href="class_word_quizzle_1_1_w_q_cli.html#a5be21ae4cfdcdae806ff4a935f0799fd" target="_top" xlink:title="Restistuisce una stringa contenente informazioni riguardo il login.">
<polygon fill="white" stroke="black" points="673.5,-399 673.5,-418 801.5,-418 801.5,-399 673.5,-399"/>
<text text-anchor="middle" x="737.5" y="-406" font-family="Helvetica,sans-Serif" font-size="10.00">WordQuizzle.WQCli.login</text>
</a>
</g>
</g>
<!-- Node5&#45;&gt;Node8 -->
<g id="edge7" class="edge"><title>Node5&#45;&gt;Node8</title>
<path fill="none" stroke="midnightblue" d="M506.891,-540.914C525.634,-517.346 577.693,-456.398 636,-427.5 644.561,-423.257 653.963,-419.958 663.475,-417.394"/>
<polygon fill="midnightblue" stroke="midnightblue" points="664.507,-420.745 673.396,-414.98 662.852,-413.944 664.507,-420.745"/>
</g>
<!-- Node9 -->
<g id="node9" class="node"><title>Node9</title>
<g id="a_node9"><a xlink:href="class_word_quizzle_1_1_w_q_cli.html#a09b72dba431b9d164cc07cdbd58053df" target="_top" xlink:title="Restistuisce una stringa contenente informazioni riguardo il logout.">
<polygon fill="white" stroke="black" points="670.5,-722 670.5,-741 804.5,-741 804.5,-722 670.5,-722"/>
<text text-anchor="middle" x="737.5" y="-729" font-family="Helvetica,sans-Serif" font-size="10.00">WordQuizzle.WQCli.logout</text>
</a>
</g>
</g>
<!-- Node5&#45;&gt;Node9 -->
<g id="edge8" class="edge"><title>Node5&#45;&gt;Node9</title>
<path fill="none" stroke="midnightblue" d="M504.493,-560.04C519.844,-588.338 569.365,-672.278 636,-711.5 643.575,-715.959 651.969,-719.441 660.584,-722.158"/>
<polygon fill="midnightblue" stroke="midnightblue" points="659.799,-725.573 670.373,-724.912 661.695,-718.835 659.799,-725.573"/>
</g>
<!-- Node10 -->
<g id="node10" class="node"><title>Node10</title>
<g id="a_node10"><a xlink:href="class_word_quizzle_1_1_w_q_cli.html#a147c086aad7a54c6162cea04f4a5cea8" target="_top" xlink:title="Restistuisce una stringa contenente informazioni riguardo la visualizzazione della classifica.">
<polygon fill="white" stroke="black" points="669,-672.5 669,-702.5 806,-702.5 806,-672.5 669,-672.5"/>
<text text-anchor="start" x="677" y="-690.5" font-family="Helvetica,sans-Serif" font-size="10.00">WordQuizzle.WQCli.mostra</text>
<text text-anchor="middle" x="737.5" y="-679.5" font-family="Helvetica,sans-Serif" font-size="10.00">_classifica</text>
</a>
</g>
</g>
<!-- Node5&#45;&gt;Node10 -->
<g id="edge9" class="edge"><title>Node5&#45;&gt;Node10</title>
<path fill="none" stroke="midnightblue" d="M508.373,-560.283C528.718,-582.102 581.214,-634.982 636,-662.5 643.253,-666.143 651.074,-669.279 659.036,-671.973"/>
<polygon fill="midnightblue" stroke="midnightblue" points="658.2,-675.379 668.789,-675.044 660.302,-668.702 658.2,-675.379"/>
</g>
<!-- Node11 -->
<g id="node11" class="node"><title>Node11</title>
<g id="a_node11"><a xlink:href="class_word_quizzle_1_1_w_q_cli.html#a10b2156f5c561a889f7feec6cb7bbacc" target="_top" xlink:title="Restistuisce una stringa contenente informazioni riguardo la visualizzazione del proprio punteggio.">
<polygon fill="white" stroke="black" points="669,-623.5 669,-653.5 806,-653.5 806,-623.5 669,-623.5"/>
<text text-anchor="start" x="677" y="-641.5" font-family="Helvetica,sans-Serif" font-size="10.00">WordQuizzle.WQCli.mostra</text>
<text text-anchor="middle" x="737.5" y="-630.5" font-family="Helvetica,sans-Serif" font-size="10.00">_punteggio</text>
</a>
</g>
</g>
<!-- Node5&#45;&gt;Node11 -->
<g id="edge10" class="edge"><title>Node5&#45;&gt;Node11</title>
<path fill="none" stroke="midnightblue" d="M517.588,-560.19C543.3,-573.651 592.172,-598.09 636,-613.5 643.476,-616.129 651.358,-618.593 659.283,-620.873"/>
<polygon fill="midnightblue" stroke="midnightblue" points="658.375,-624.253 668.947,-623.559 660.25,-617.509 658.375,-624.253"/>
</g>
<!-- Node12 -->
<g id="node12" class="node"><title>Node12</title>
<g id="a_node12"><a xlink:href="class_word_quizzle_1_1_w_q_cli.html#a07609480f2f51587119199d616ce5ee2" target="_top" xlink:title="Restistuisce una stringa contenente informazioni riguardo l&#39;uscita dal gioco.">
<polygon fill="white" stroke="black" points="676,-585 676,-604 799,-604 799,-585 676,-585"/>
<text text-anchor="middle" x="737.5" y="-592" font-family="Helvetica,sans-Serif" font-size="10.00">WordQuizzle.WQCli.quit</text>
</a>
</g>
</g>
<!-- Node5&#45;&gt;Node12 -->
<g id="edge11" class="edge"><title>Node5&#45;&gt;Node12</title>
<path fill="none" stroke="midnightblue" d="M550.925,-560.047C587.417,-566.822 636.563,-575.946 675.111,-583.103"/>
<polygon fill="midnightblue" stroke="midnightblue" points="674.704,-586.587 685.175,-584.971 675.982,-579.705 674.704,-586.587"/>
</g>
<!-- Node13 -->
<g id="node13" class="node"><title>Node13</title>
<g id="a_node13"><a xlink:href="class_word_quizzle_1_1_w_q_cli.html#a65cec1c9b0f47f1996351f0fd40f9c4c" target="_top" xlink:title="Restistuisce una stringa contenente informazioni riguardo la registrazione di un utente.">
<polygon fill="white" stroke="black" points="667.5,-535.5 667.5,-565.5 807.5,-565.5 807.5,-535.5 667.5,-535.5"/>
<text text-anchor="start" x="675.5" y="-553.5" font-family="Helvetica,sans-Serif" font-size="10.00">WordQuizzle.WQCli.registra</text>
<text text-anchor="middle" x="737.5" y="-542.5" font-family="Helvetica,sans-Serif" font-size="10.00">_utente</text>
</a>
</g>
</g>
<!-- Node5&#45;&gt;Node13 -->
<g id="edge12" class="edge"><title>Node5&#45;&gt;Node13</title>
<path fill="none" stroke="midnightblue" d="M561.15,-550.5C590.481,-550.5 625.902,-550.5 657.207,-550.5"/>
<polygon fill="midnightblue" stroke="midnightblue" points="657.214,-554 667.214,-550.5 657.214,-547 657.214,-554"/>
</g>
<!-- Node14 -->
<g id="node14" class="node"><title>Node14</title>
<g id="a_node14"><a xlink:href="class_word_quizzle_1_1_w_q_cli.html#abf6a8e25f47e24745e96260127cf9b71" target="_top" xlink:title="Restistuisce una stringa contenente informazioni riguardo l&#39;invio di una sfida.">
<polygon fill="white" stroke="black" points="673.5,-361 673.5,-380 801.5,-380 801.5,-361 673.5,-361"/>
<text text-anchor="middle" x="737.5" y="-368" font-family="Helvetica,sans-Serif" font-size="10.00">WordQuizzle.WQCli.sfida</text>
</a>
</g>
</g>
<!-- Node5&#45;&gt;Node14 -->
<g id="edge13" class="edge"><title>Node5&#45;&gt;Node14</title>
<path fill="none" stroke="midnightblue" d="M504.476,-540.931C519.778,-512.55 569.178,-428.402 636,-389.5 644.371,-384.626 653.738,-380.967 663.297,-378.226"/>
<polygon fill="midnightblue" stroke="midnightblue" points="664.461,-381.542 673.293,-375.689 662.739,-374.757 664.461,-381.542"/>
</g>
<!-- Node16 -->
<g id="node16" class="node"><title>Node16</title>
<g id="a_node16"><a xlink:href="class_word_quizzle_1_1_word_quizzle_client.html#a540dfbf20ba0d5a8118e6d9284b79bc0" target="_top" xlink:title="Accetta una richiesta di sfida inviata da nickAmico.">
<polygon fill="white" stroke="black" points="402.5,-806.5 402.5,-836.5 594.5,-836.5 594.5,-806.5 402.5,-806.5"/>
<text text-anchor="start" x="410.5" y="-824.5" font-family="Helvetica,sans-Serif" font-size="10.00">WordQuizzle.WordQuizzleClient.accetta</text>
<text text-anchor="middle" x="498.5" y="-813.5" font-family="Helvetica,sans-Serif" font-size="10.00">Sfida</text>
</a>
</g>
</g>
<!-- Node15&#45;&gt;Node16 -->
<g id="edge15" class="edge"><title>Node15&#45;&gt;Node16</title>
<path fill="none" stroke="midnightblue" d="M341.162,-738.006C348.147,-740.507 354.882,-743.623 361,-747.5 383.826,-761.965 374.552,-781.454 397,-796.5 400.094,-798.574 403.346,-800.476 406.71,-802.22"/>
<polygon fill="midnightblue" stroke="midnightblue" points="405.3,-805.425 415.842,-806.479 408.259,-799.081 405.3,-805.425"/>
</g>
<!-- Node18 -->
<g id="node18" class="node"><title>Node18</title>
<g id="a_node18"><a xlink:href="class_word_quizzle_1_1_w_q_cli.html#ae5f342434ec80ce1ed3939fb446de436" target="_top" xlink:title="Gestisce una sfida.">
<polygon fill="white" stroke="black" points="433,-719 433,-738 564,-738 564,-719 433,-719"/>
<text text-anchor="middle" x="498.5" y="-726" font-family="Helvetica,sans-Serif" font-size="10.00">WordQuizzle.WQCli.game</text>
</a>
</g>
</g>
<!-- Node15&#45;&gt;Node18 -->
<g id="edge17" class="edge"><title>Node15&#45;&gt;Node18</title>
<path fill="none" stroke="midnightblue" d="M349.304,-728.5C373.392,-728.5 399.383,-728.5 422.771,-728.5"/>
<polygon fill="midnightblue" stroke="midnightblue" points="422.968,-732 432.968,-728.5 422.968,-725 422.968,-732"/>
</g>
<!-- Node23 -->
<g id="node23" class="node"><title>Node23</title>
<g id="a_node23"><a xlink:href="class_word_quizzle_1_1_word_quizzle_server_service.html#ace8277bd092a7ac14bcfe5927ecc8c33" target="_top" xlink:title=" ">
<polygon fill="white" stroke="black" points="419,-757.5 419,-787.5 578,-787.5 578,-757.5 419,-757.5"/>
<text text-anchor="start" x="427" y="-775.5" font-family="Helvetica,sans-Serif" font-size="10.00">WordQuizzle.WordQuizzleServer</text>
<text text-anchor="middle" x="498.5" y="-764.5" font-family="Helvetica,sans-Serif" font-size="10.00">Service.getT1</text>
</a>
</g>
</g>
<!-- Node15&#45;&gt;Node23 -->
<g id="edge22" class="edge"><title>Node15&#45;&gt;Node23</title>
<path fill="none" stroke="midnightblue" d="M314.275,-738.047C341.807,-743.224 376.636,-749.773 408.516,-755.768"/>
<polygon fill="midnightblue" stroke="midnightblue" points="408.275,-759.284 418.75,-757.692 409.569,-752.404 408.275,-759.284"/>
</g>
<!-- Node17 -->
<g id="node17" class="node"><title>Node17</title>
<g id="a_node17"><a xlink:href="interface_word_quizzle_1_1_word_quizzle_service.html#a249b5976997c2e6d6d2ceb7e71cc7d75" target="_top" xlink:title="Accetta una richiesta di sfida inviata da nickAmico.">
<polygon fill="white" stroke="black" points="638,-907.5 638,-937.5 837,-937.5 837,-907.5 638,-907.5"/>
<text text-anchor="start" x="646" y="-925.5" font-family="Helvetica,sans-Serif" font-size="10.00">WordQuizzle.WordQuizzleService.accetta</text>
<text text-anchor="middle" x="737.5" y="-914.5" font-family="Helvetica,sans-Serif" font-size="10.00">Sfida</text>
</a>
</g>
</g>
<!-- Node16&#45;&gt;Node17 -->
<g id="edge16" class="edge"><title>Node16&#45;&gt;Node17</title>
<path fill="none" stroke="midnightblue" d="M581.785,-836.563C588.212,-839.335 594.379,-842.617 600,-846.5 623.127,-862.477 612.798,-882.632 636,-898.5 638.281,-900.06 640.652,-901.519 643.093,-902.884"/>
<polygon fill="midnightblue" stroke="midnightblue" points="641.694,-906.097 652.205,-907.425 644.816,-899.832 641.694,-906.097"/>
</g>
<!-- Node19 -->
<g id="node19" class="node"><title>Node19</title>
<g id="a_node19"><a xlink:href="class_word_quizzle_1_1_word_quizzle_server_service.html#a970fe0e2dd7457bab2c64ae722a912fc" target="_top" xlink:title=" ">
<polygon fill="white" stroke="black" points="658,-760.5 658,-790.5 817,-790.5 817,-760.5 658,-760.5"/>
<text text-anchor="start" x="666" y="-778.5" font-family="Helvetica,sans-Serif" font-size="10.00">WordQuizzle.WordQuizzleServer</text>
<text text-anchor="middle" x="737.5" y="-767.5" font-family="Helvetica,sans-Serif" font-size="10.00">Service.getK</text>
</a>
</g>
</g>
<!-- Node18&#45;&gt;Node19 -->
<g id="edge18" class="edge"><title>Node18&#45;&gt;Node19</title>
<path fill="none" stroke="midnightblue" d="M550.656,-738.013C566.484,-740.999 583.972,-744.341 600,-747.5 617.623,-750.973 636.506,-754.787 654.436,-758.452"/>
<polygon fill="midnightblue" stroke="midnightblue" points="653.786,-761.891 664.285,-760.469 655.19,-755.034 653.786,-761.891"/>
</g>
<!-- Node20 -->
<g id="node20" class="node"><title>Node20</title>
<g id="a_node20"><a xlink:href="class_word_quizzle_1_1_word_quizzle_server_service.html#ac78bda2a578b3baa0933ca28e4b72e0c" target="_top" xlink:title=" ">
<polygon fill="white" stroke="black" points="658,-858.5 658,-888.5 817,-888.5 817,-858.5 658,-858.5"/>
<text text-anchor="start" x="666" y="-876.5" font-family="Helvetica,sans-Serif" font-size="10.00">WordQuizzle.WordQuizzleServer</text>
<text text-anchor="middle" x="737.5" y="-865.5" font-family="Helvetica,sans-Serif" font-size="10.00">Service.getT2</text>
</a>
</g>
</g>
<!-- Node18&#45;&gt;Node20 -->
<g id="edge19" class="edge"><title>Node18&#45;&gt;Node20</title>
<path fill="none" stroke="midnightblue" d="M564.019,-730.557C577.082,-733.606 589.893,-738.827 600,-747.5 636.483,-778.806 600.272,-817.335 636,-849.5 639.9,-853.011 644.22,-856.032 648.814,-858.631"/>
<polygon fill="midnightblue" stroke="midnightblue" points="647.43,-861.851 657.948,-863.124 650.52,-855.57 647.43,-861.851"/>
</g>
<!-- Node21 -->
<g id="node21" class="node"><title>Node21</title>
<g id="a_node21"><a xlink:href="class_word_quizzle_1_1_word_quizzle_client.html#a828a5e7a358bd53296d88c97172db13b" target="_top" xlink:title="Invia la traduzione della parola precedentemente inviata dal server durante una sfida.">
<polygon fill="white" stroke="black" points="647,-809.5 647,-839.5 828,-839.5 828,-809.5 647,-809.5"/>
<text text-anchor="start" x="655" y="-827.5" font-family="Helvetica,sans-Serif" font-size="10.00">WordQuizzle.WordQuizzleClient.send</text>
<text text-anchor="middle" x="737.5" y="-816.5" font-family="Helvetica,sans-Serif" font-size="10.00">Translation</text>
</a>
</g>
</g>
<!-- Node18&#45;&gt;Node21 -->
<g id="edge20" class="edge"><title>Node18&#45;&gt;Node21</title>
<path fill="none" stroke="midnightblue" d="M564.006,-733.043C576.638,-735.986 589.278,-740.536 600,-747.5 623.573,-762.811 612.873,-783.523 636,-799.5 638.899,-801.502 641.942,-803.345 645.092,-805.04"/>
<polygon fill="midnightblue" stroke="midnightblue" points="643.687,-808.248 654.215,-809.437 646.726,-801.942 643.687,-808.248"/>
</g>
<!-- Node22 -->
<g id="node22" class="node"><title>Node22</title>
<g id="a_node22"><a xlink:href="interface_word_quizzle_1_1_word_quizzle_service.html#a40fcaf644a7b5e4e1c1e592052f55e0b" target="_top" xlink:title="Invia la traduzione della parola precedentemente inviata dal server durante una sfida.">
<polygon fill="white" stroke="black" points="875,-809.5 875,-839.5 1063,-839.5 1063,-809.5 875,-809.5"/>
<text text-anchor="start" x="883" y="-827.5" font-family="Helvetica,sans-Serif" font-size="10.00">WordQuizzle.WordQuizzleService.send</text>
<text text-anchor="middle" x="969" y="-816.5" font-family="Helvetica,sans-Serif" font-size="10.00">Translation</text>
</a>
</g>
</g>
<!-- Node21&#45;&gt;Node22 -->
<g id="edge21" class="edge"><title>Node21&#45;&gt;Node22</title>
<path fill="none" stroke="midnightblue" d="M828.217,-824.5C840.199,-824.5 852.565,-824.5 864.755,-824.5"/>
<polygon fill="midnightblue" stroke="midnightblue" points="864.942,-828 874.942,-824.5 864.942,-821 864.942,-828"/>
</g>
<!-- Node24&#45;&gt;Node5 -->
<g id="edge28" class="edge"><title>Node24&#45;&gt;Node5</title>
<path fill="none" stroke="midnightblue" d="M273.015,-342.244C294.627,-364.286 349.249,-419.483 397,-463.5 424.59,-488.932 457.675,-517.155 478.145,-534.364"/>
<polygon fill="midnightblue" stroke="midnightblue" points="475.928,-537.072 485.84,-540.813 480.425,-531.707 475.928,-537.072"/>
</g>
<!-- Node24&#45;&gt;Node6 -->
<g id="edge26" class="edge"><title>Node24&#45;&gt;Node6</title>
<path fill="none" stroke="midnightblue" d="M278.43,-342.13C302.409,-357.119 351.445,-385.83 397,-400.5 482.88,-428.156 585.842,-441.286 655.692,-447.399"/>
<polygon fill="midnightblue" stroke="midnightblue" points="655.492,-450.895 665.752,-448.251 656.083,-443.92 655.492,-450.895"/>
</g>
<!-- Node24&#45;&gt;Node8 -->
<g id="edge33" class="edge"><title>Node24&#45;&gt;Node8</title>
<path fill="none" stroke="midnightblue" d="M289.979,-342.024C316.653,-351.239 359.166,-364.894 397,-372.5 487.645,-390.722 593.879,-400.104 663.047,-404.653"/>
<polygon fill="midnightblue" stroke="midnightblue" points="663.195,-408.17 673.399,-405.316 663.643,-401.184 663.195,-408.17"/>
</g>
<!-- Node24&#45;&gt;Node14 -->
<g id="edge44" class="edge"><title>Node24&#45;&gt;Node14</title>
<path fill="none" stroke="midnightblue" d="M322.516,-342.006C345.684,-345.448 372.538,-349.079 397,-351.5 488.5,-360.555 594.332,-365.625 663.187,-368.207"/>
<polygon fill="midnightblue" stroke="midnightblue" points="663.37,-371.716 673.491,-368.585 663.626,-364.72 663.37,-371.716"/>
</g>
<!-- Node24&#45;&gt;Node18 -->
<g id="edge27" class="edge"><title>Node24&#45;&gt;Node18</title>
<path fill="none" stroke="midnightblue" d="M268.67,-342.082C286.163,-374.413 344.944,-482.327 397,-569.5 427.971,-621.364 466.657,-681.293 485.738,-710.553"/>
<polygon fill="midnightblue" stroke="midnightblue" points="482.81,-712.47 491.21,-718.926 488.669,-708.641 482.81,-712.47"/>
</g>
<!-- Node25 -->
<g id="node25" class="node"><title>Node25</title>
<g id="a_node25"><a xlink:href="class_word_quizzle_1_1_word_quizzle_client.html#a91d982387c02c9ccae681f4a7d500a75" target="_top" xlink:title="Aggiunge un utente alla lista di amici di user.">
<polygon fill="white" stroke="black" points="400.5,-273.5 400.5,-303.5 596.5,-303.5 596.5,-273.5 400.5,-273.5"/>
<text text-anchor="start" x="408.5" y="-291.5" font-family="Helvetica,sans-Serif" font-size="10.00">WordQuizzle.WordQuizzleClient.aggiungi</text>
<text text-anchor="middle" x="498.5" y="-280.5" font-family="Helvetica,sans-Serif" font-size="10.00">_amico</text>
</a>
</g>
</g>
<!-- Node24&#45;&gt;Node25 -->
<g id="edge24" class="edge"><title>Node24&#45;&gt;Node25</title>
<path fill="none" stroke="midnightblue" d="M314.275,-322.953C341.443,-317.844 375.716,-311.399 407.25,-305.47"/>
<polygon fill="midnightblue" stroke="midnightblue" points="408.199,-308.853 417.38,-303.565 406.905,-301.974 408.199,-308.853"/>
</g>
<!-- Node27 -->
<g id="node27" class="node"><title>Node27</title>
<g id="a_node27"><a xlink:href="class_word_quizzle_1_1_word_quizzle_client.html#a601f27bc3078f4c7d43417481f4c1353" target="_top" xlink:title="Richiede la lista degli amici di user.">
<polygon fill="white" stroke="black" points="409.5,-224.5 409.5,-254.5 587.5,-254.5 587.5,-224.5 409.5,-224.5"/>
<text text-anchor="start" x="417.5" y="-242.5" font-family="Helvetica,sans-Serif" font-size="10.00">WordQuizzle.WordQuizzleClient.lista</text>
<text text-anchor="middle" x="498.5" y="-231.5" font-family="Helvetica,sans-Serif" font-size="10.00">_amici</text>
</a>
</g>
</g>
<!-- Node24&#45;&gt;Node27 -->
<g id="edge29" class="edge"><title>Node24&#45;&gt;Node27</title>
<path fill="none" stroke="midnightblue" d="M328.039,-327.042C339.616,-324.13 351.125,-319.824 361,-313.5 384.059,-298.732 374.255,-278.748 397,-263.5 399.41,-261.885 401.916,-260.377 404.497,-258.971"/>
<polygon fill="midnightblue" stroke="midnightblue" points="406.073,-262.097 413.529,-254.57 403.006,-255.804 406.073,-262.097"/>
</g>
<!-- Node29 -->
<g id="node29" class="node"><title>Node29</title>
<g id="a_node29"><a xlink:href="class_word_quizzle_1_1_word_quizzle_client.html#aa87c179f3a0a6ab57c2b74960c95a626" target="_top" xlink:title="Effettua il login.">
<polygon fill="white" stroke="black" points="408.5,-186 408.5,-205 588.5,-205 588.5,-186 408.5,-186"/>
<text text-anchor="middle" x="498.5" y="-193" font-family="Helvetica,sans-Serif" font-size="10.00">WordQuizzle.WordQuizzleClient.login</text>
</a>
</g>
</g>
<!-- Node24&#45;&gt;Node29 -->
<g id="edge31" class="edge"><title>Node24&#45;&gt;Node29</title>
<path fill="none" stroke="midnightblue" d="M328.079,-329.538C340.048,-326.46 351.692,-321.456 361,-313.5 396.59,-283.08 361.325,-244.82 397,-214.5 398.759,-213.005 400.598,-211.613 402.506,-210.317"/>
<polygon fill="midnightblue" stroke="midnightblue" points="404.373,-213.28 411.263,-205.231 400.858,-207.227 404.373,-213.28"/>
</g>
<!-- Node31 -->
<g id="node31" class="node"><title>Node31</title>
<g id="a_node31"><a xlink:href="class_word_quizzle_1_1_word_quizzle_client.html#a50468f5e79e6bba9efc2e9fd19493345" target="_top" xlink:title="Effettua il logout di user.">
<polygon fill="white" stroke="black" points="405.5,-148 405.5,-167 591.5,-167 591.5,-148 405.5,-148"/>
<text text-anchor="middle" x="498.5" y="-155" font-family="Helvetica,sans-Serif" font-size="10.00">WordQuizzle.WordQuizzleClient.logout</text>
</a>
</g>
</g>
<!-- Node24&#45;&gt;Node31 -->
<g id="edge34" class="edge"><title>Node24&#45;&gt;Node31</title>
<path fill="none" stroke="midnightblue" d="M328.162,-330.325C340.266,-327.211 351.941,-321.992 361,-313.5 406.929,-270.442 350.95,-219.429 397,-176.5 398.51,-175.092 400.09,-173.773 401.731,-172.538"/>
<polygon fill="midnightblue" stroke="midnightblue" points="403.832,-175.35 410.395,-167.033 400.078,-169.442 403.832,-175.35"/>
</g>
<!-- Node33 -->
<g id="node33" class="node"><title>Node33</title>
<g id="a_node33"><a xlink:href="class_word_quizzle_1_1_word_quizzle_client.html#a155c2dca547e63f1ba07589525ccfd75" target="_top" xlink:title="Richiede la classifica dell&#39;user e dei suoi amici.">
<polygon fill="white" stroke="black" points="403.5,-98.5 403.5,-128.5 593.5,-128.5 593.5,-98.5 403.5,-98.5"/>
<text text-anchor="start" x="411.5" y="-116.5" font-family="Helvetica,sans-Serif" font-size="10.00">WordQuizzle.WordQuizzleClient.mostra</text>
<text text-anchor="middle" x="498.5" y="-105.5" font-family="Helvetica,sans-Serif" font-size="10.00">_classifica</text>
</a>
</g>
</g>
<!-- Node24&#45;&gt;Node33 -->
<g id="edge36" class="edge"><title>Node24&#45;&gt;Node33</title>
<path fill="none" stroke="midnightblue" d="M328.02,-330.829C340.279,-327.705 352.052,-322.355 361,-313.5 417.441,-257.645 342.012,-195.786 397,-138.5 398.241,-137.207 399.538,-135.977 400.885,-134.806"/>
<polygon fill="midnightblue" stroke="midnightblue" points="403.133,-137.496 409.094,-128.737 398.972,-131.868 403.133,-137.496"/>
</g>
<!-- Node35 -->
<g id="node35" class="node"><title>Node35</title>
<g id="a_node35"><a xlink:href="class_word_quizzle_1_1_word_quizzle_client.html#a22e0d1e5461e49703357d34b50cf70b8" target="_top" xlink:title="Richiede il punteggio di user.">
<polygon fill="white" stroke="black" points="403.5,-49.5 403.5,-79.5 593.5,-79.5 593.5,-49.5 403.5,-49.5"/>
<text text-anchor="start" x="411.5" y="-67.5" font-family="Helvetica,sans-Serif" font-size="10.00">WordQuizzle.WordQuizzleClient.mostra</text>
<text text-anchor="middle" x="498.5" y="-56.5" font-family="Helvetica,sans-Serif" font-size="10.00">_punteggio</text>
</a>
</g>
</g>
<!-- Node24&#45;&gt;Node35 -->
<g id="edge38" class="edge"><title>Node24&#45;&gt;Node35</title>
<path fill="none" stroke="midnightblue" d="M328.071,-331.193C340.402,-328.059 352.19,-322.613 361,-313.5 431.39,-240.69 328.153,-162.771 397,-88.5 397.793,-87.6449 398.61,-86.8177 399.45,-86.0176"/>
<polygon fill="midnightblue" stroke="midnightblue" points="401.949,-88.5009 407.577,-79.5247 397.58,-83.0318 401.949,-88.5009"/>
</g>
<!-- Node37 -->
<g id="node37" class="node"><title>Node37</title>
<g id="a_node37"><a xlink:href="class_word_quizzle_1_1_word_quizzle_client.html#a98206956fc50ef3951d27f2a89fb21fa" target="_top" xlink:title="Registra un nuovo utente.">
<polygon fill="white" stroke="black" points="402.5,-0.5 402.5,-30.5 594.5,-30.5 594.5,-0.5 402.5,-0.5"/>
<text text-anchor="start" x="410.5" y="-18.5" font-family="Helvetica,sans-Serif" font-size="10.00">WordQuizzle.WordQuizzleClient.registra</text>
<text text-anchor="middle" x="498.5" y="-7.5" font-family="Helvetica,sans-Serif" font-size="10.00">_utente</text>
</a>
</g>
</g>
<!-- Node24&#45;&gt;Node37 -->
<g id="edge40" class="edge"><title>Node24&#45;&gt;Node37</title>
<path fill="none" stroke="midnightblue" d="M328.016,-331.444C340.425,-328.309 352.259,-322.798 361,-313.5 445.124,-224.007 314.771,-130.738 397,-39.5 397.657,-38.7713 398.331,-38.0627 399.023,-37.3738"/>
<polygon fill="midnightblue" stroke="midnightblue" points="401.572,-39.8062 407.022,-30.7207 397.096,-34.4243 401.572,-39.8062"/>
</g>
<!-- Node39 -->
<g id="node39" class="node"><title>Node39</title>
<g id="a_node39"><a xlink:href="class_word_quizzle_1_1_word_quizzle_client.html#a2f667c9d998bab28411f3fd0af90ec8c" target="_top" xlink:title="Invia una richiesta di sfida ad un amico.">
<polygon fill="white" stroke="black" points="408.5,-323 408.5,-342 588.5,-342 588.5,-323 408.5,-323"/>
<text text-anchor="middle" x="498.5" y="-330" font-family="Helvetica,sans-Serif" font-size="10.00">WordQuizzle.WordQuizzleClient.sfida</text>
</a>
</g>
</g>
<!-- Node24&#45;&gt;Node39 -->
<g id="edge42" class="edge"><title>Node24&#45;&gt;Node39</title>
<path fill="none" stroke="midnightblue" d="M328.061,-332.5C349.722,-332.5 374.408,-332.5 398.106,-332.5"/>
<polygon fill="midnightblue" stroke="midnightblue" points="398.191,-336 408.191,-332.5 398.191,-329 398.191,-336"/>
</g>
<!-- Node26 -->
<g id="node26" class="node"><title>Node26</title>
<g id="a_node26"><a xlink:href="interface_word_quizzle_1_1_word_quizzle_service.html#a92f4e390ec5be3e56f73d2c98787a302" target="_top" xlink:title="Aggiunge un utente alla lista di amici di nickUtente.">
<polygon fill="white" stroke="black" points="636,-273.5 636,-303.5 839,-303.5 839,-273.5 636,-273.5"/>
<text text-anchor="start" x="644" y="-291.5" font-family="Helvetica,sans-Serif" font-size="10.00">WordQuizzle.WordQuizzleService.aggiungi</text>
<text text-anchor="middle" x="737.5" y="-280.5" font-family="Helvetica,sans-Serif" font-size="10.00">_amico</text>
</a>
</g>
</g>
<!-- Node25&#45;&gt;Node26 -->
<g id="edge25" class="edge"><title>Node25&#45;&gt;Node26</title>
<path fill="none" stroke="midnightblue" d="M596.581,-288.5C606.163,-288.5 615.939,-288.5 625.646,-288.5"/>
<polygon fill="midnightblue" stroke="midnightblue" points="625.726,-292 635.726,-288.5 625.726,-285 625.726,-292"/>
</g>
<!-- Node28 -->
<g id="node28" class="node"><title>Node28</title>
<g id="a_node28"><a xlink:href="interface_word_quizzle_1_1_word_quizzle_service.html#a840ff7492e52f3917106fdea99c6e0f5" target="_top" xlink:title="Richiede la lista degli amici di nickUtente.">
<polygon fill="white" stroke="black" points="645,-224.5 645,-254.5 830,-254.5 830,-224.5 645,-224.5"/>
<text text-anchor="start" x="653" y="-242.5" font-family="Helvetica,sans-Serif" font-size="10.00">WordQuizzle.WordQuizzleService.lista</text>
<text text-anchor="middle" x="737.5" y="-231.5" font-family="Helvetica,sans-Serif" font-size="10.00">_amici</text>
</a>
</g>
</g>
<!-- Node27&#45;&gt;Node28 -->
<g id="edge30" class="edge"><title>Node27&#45;&gt;Node28</title>
<path fill="none" stroke="midnightblue" d="M587.75,-239.5C602.972,-239.5 618.908,-239.5 634.458,-239.5"/>
<polygon fill="midnightblue" stroke="midnightblue" points="634.61,-243 644.61,-239.5 634.61,-236 634.61,-243"/>
</g>
<!-- Node30 -->
<g id="node30" class="node"><title>Node30</title>
<g id="a_node30"><a xlink:href="interface_word_quizzle_1_1_word_quizzle_service.html#abae2cda062f36f0e54c9d13589c53027" target="_top" xlink:title="Effettua il login.">
<polygon fill="white" stroke="black" points="644,-186 644,-205 831,-205 831,-186 644,-186"/>
<text text-anchor="middle" x="737.5" y="-193" font-family="Helvetica,sans-Serif" font-size="10.00">WordQuizzle.WordQuizzleService.login</text>
</a>
</g>
</g>
<!-- Node29&#45;&gt;Node30 -->
<g id="edge32" class="edge"><title>Node29&#45;&gt;Node30</title>
<path fill="none" stroke="midnightblue" d="M588.762,-195.5C603.368,-195.5 618.606,-195.5 633.511,-195.5"/>
<polygon fill="midnightblue" stroke="midnightblue" points="633.764,-199 643.764,-195.5 633.764,-192 633.764,-199"/>
</g>
<!-- Node32 -->
<g id="node32" class="node"><title>Node32</title>
<g id="a_node32"><a xlink:href="interface_word_quizzle_1_1_word_quizzle_service.html#afad4dcc98ed2305c17a64146548c1100" target="_top" xlink:title="Effettua il logout.">
<polygon fill="white" stroke="black" points="641,-148 641,-167 834,-167 834,-148 641,-148"/>
<text text-anchor="middle" x="737.5" y="-155" font-family="Helvetica,sans-Serif" font-size="10.00">WordQuizzle.WordQuizzleService.logout</text>
</a>
</g>
</g>
<!-- Node31&#45;&gt;Node32 -->
<g id="edge35" class="edge"><title>Node31&#45;&gt;Node32</title>
<path fill="none" stroke="midnightblue" d="M591.809,-157.5C604.526,-157.5 617.667,-157.5 630.604,-157.5"/>
<polygon fill="midnightblue" stroke="midnightblue" points="630.925,-161 640.925,-157.5 630.925,-154 630.925,-161"/>
</g>
<!-- Node34 -->
<g id="node34" class="node"><title>Node34</title>
<g id="a_node34"><a xlink:href="interface_word_quizzle_1_1_word_quizzle_service.html#a51f8d07d06959a1719fd7e7f4bee1e75" target="_top" xlink:title="Richiede la classifica dell&#39;utente e dei suoi amici.">
<polygon fill="white" stroke="black" points="639,-98.5 639,-128.5 836,-128.5 836,-98.5 639,-98.5"/>
<text text-anchor="start" x="647" y="-116.5" font-family="Helvetica,sans-Serif" font-size="10.00">WordQuizzle.WordQuizzleService.mostra</text>
<text text-anchor="middle" x="737.5" y="-105.5" font-family="Helvetica,sans-Serif" font-size="10.00">_classifica</text>
</a>
</g>
</g>
<!-- Node33&#45;&gt;Node34 -->
<g id="edge37" class="edge"><title>Node33&#45;&gt;Node34</title>
<path fill="none" stroke="midnightblue" d="M593.509,-113.5C605.004,-113.5 616.82,-113.5 628.5,-113.5"/>
<polygon fill="midnightblue" stroke="midnightblue" points="628.717,-117 638.717,-113.5 628.717,-110 628.717,-117"/>
</g>
<!-- Node36 -->
<g id="node36" class="node"><title>Node36</title>
<g id="a_node36"><a xlink:href="interface_word_quizzle_1_1_word_quizzle_service.html#aa52c8d6d7cb293c01798f169eb4d51d3" target="_top" xlink:title="Richiede il punteggio di nickUtente.">
<polygon fill="white" stroke="black" points="639,-49.5 639,-79.5 836,-79.5 836,-49.5 639,-49.5"/>
<text text-anchor="start" x="647" y="-67.5" font-family="Helvetica,sans-Serif" font-size="10.00">WordQuizzle.WordQuizzleService.mostra</text>
<text text-anchor="middle" x="737.5" y="-56.5" font-family="Helvetica,sans-Serif" font-size="10.00">_punteggio</text>
</a>
</g>
</g>
<!-- Node35&#45;&gt;Node36 -->
<g id="edge39" class="edge"><title>Node35&#45;&gt;Node36</title>
<path fill="none" stroke="midnightblue" d="M593.509,-64.5C605.004,-64.5 616.82,-64.5 628.5,-64.5"/>
<polygon fill="midnightblue" stroke="midnightblue" points="628.717,-68.0001 638.717,-64.5 628.717,-61.0001 628.717,-68.0001"/>
</g>
<!-- Node38 -->
<g id="node38" class="node"><title>Node38</title>
<g id="a_node38"><a xlink:href="interface_word_quizzle_1_1_word_quizzle_service.html#a4abc4590c1b6009ec9afb7ba1a1022b1" target="_top" xlink:title="Registra un utente.">
<polygon fill="white" stroke="black" points="638,-0.5 638,-30.5 837,-30.5 837,-0.5 638,-0.5"/>
<text text-anchor="start" x="646" y="-18.5" font-family="Helvetica,sans-Serif" font-size="10.00">WordQuizzle.WordQuizzleService.registra</text>
<text text-anchor="middle" x="737.5" y="-7.5" font-family="Helvetica,sans-Serif" font-size="10.00">_utente</text>
</a>
</g>
</g>
<!-- Node37&#45;&gt;Node38 -->
<g id="edge41" class="edge"><title>Node37&#45;&gt;Node38</title>
<path fill="none" stroke="midnightblue" d="M594.531,-15.5C605.476,-15.5 616.698,-15.5 627.805,-15.5"/>
<polygon fill="midnightblue" stroke="midnightblue" points="627.961,-19.0001 637.961,-15.5 627.961,-12.0001 627.961,-19.0001"/>
</g>
<!-- Node40 -->
<g id="node40" class="node"><title>Node40</title>
<g id="a_node40"><a xlink:href="interface_word_quizzle_1_1_word_quizzle_service.html#a03b9a7a322f06b3c95a028faf5eb32d4" target="_top" xlink:title="Invia una richiesta di sfida ad un amico di nickUtente.">
<polygon fill="white" stroke="black" points="644,-323 644,-342 831,-342 831,-323 644,-323"/>
<text text-anchor="middle" x="737.5" y="-330" font-family="Helvetica,sans-Serif" font-size="10.00">WordQuizzle.WordQuizzleService.sfida</text>
</a>
</g>
</g>
<!-- Node39&#45;&gt;Node40 -->
<g id="edge43" class="edge"><title>Node39&#45;&gt;Node40</title>
<path fill="none" stroke="midnightblue" d="M588.762,-332.5C603.368,-332.5 618.606,-332.5 633.511,-332.5"/>
<polygon fill="midnightblue" stroke="midnightblue" points="633.764,-336 643.764,-332.5 633.764,-329 633.764,-336"/>
</g>
</g>
</svg>
        <g id="navigator" transform="translate(0 0)" fill="#404254">
                <rect fill="#f2f5e9" fill-opacity="0.5" stroke="#606060" stroke-width=".5" x="0" y="0" width="60" height="60"/>
                <use id="zoomplus" xlink:href="#zoomPlus" x="17" y="9" onmousedown="handleZoom(evt,'in')"/>
                <use id="zoomminus" xlink:href="#zoomMin" x="42" y="9" onmousedown="handleZoom(evt,'out')"/>
                <use id="reset" xlink:href="#resetDef" x="30" y="36" onmousedown="handleReset()"/>
                <g id="arrowUp" xlink:href="#dirArrow" transform="translate(30 24)" onmousedown="handlePan(0,-1)">
                  <use xlink:href="#rim" fill="#404040">
                        <set attributeName="fill" to="#808080" begin="arrowUp.mouseover" end="arrowUp.mouseout"/>
                  </use>
                  <path fill="none" stroke="white" stroke-width="1.5" d="M0,-3.0v7 M-2.5,-0.5L0,-3.0L2.5,-0.5"/>
                </g>
                <g id="arrowRight" xlink:href="#dirArrow" transform="rotate(90) translate(36 -43)" onmousedown="handlePan(1,0)">
                  <use xlink:href="#rim" fill="#404040">
                        <set attributeName="fill" to="#808080" begin="arrowRight.mouseover" end="arrowRight.mouseout"/>
                  </use>
                  <path fill="none" stroke="white" stroke-width="1.5" d="M0,-3.0v7 M-2.5,-0.5L0,-3.0L2.5,-0.5"/>
                </g>
                <g id="arrowDown" xlink:href="#dirArrow" transform="rotate(180) translate(-30 -48)" onmousedown="handlePan(0,1)">
                  <use xlink:href="#rim" fill="#404040">
                        <set attributeName="fill" to="#808080" begin="arrowDown.mouseover" end="arrowDown.mouseout"/>
                  </use>
                  <path fill="none" stroke="white" stroke-width="1.5" d="M0,-3.0v7 M-2.5,-0.5L0,-3.0L2.5,-0.5"/>
                </g>
                <g id="arrowLeft" xlink:href="#dirArrow" transform="rotate(270) translate(-36 17)" onmousedown="handlePan(-1,0)">
                  <use xlink:href="#rim" fill="#404040">
                        <set attributeName="fill" to="#808080" begin="arrowLeft.mouseover" end="arrowLeft.mouseout"/>
                  </use>
                  <path fill="none" stroke="white" stroke-width="1.5" d="M0,-3.0v7 M-2.5,-0.5L0,-3.0L2.5,-0.5"/>
                </g>
        </g>
        <svg viewBox="0 0 15 15" width="100%" height="30px" preserveAspectRatio="xMaxYMin meet">
         <g id="arrow_out" transform="scale(0.3 0.3)">
          <a xlink:href="class_word_quizzle_1_1_w_q_cli_a7c2d51051cc7f1b20c57c1424d3b7727_cgraph_org.svg" target="_base">
           <rect id="button" ry="5" rx="5" y="6" x="6" height="38" width="38"
                fill="#f2f5e9" fill-opacity="0.5" stroke="#606060" stroke-width="1.0"/>
           <path id="arrow"
             d="M 11.500037,31.436501 C 11.940474,20.09759 22.043105,11.32322 32.158766,21.979434 L 37.068811,17.246167 C 37.068811,17.246167 37.088388,32 37.088388,32 L 22.160133,31.978069 C 22.160133,31.978069 26.997745,27.140456 26.997745,27.140456 C 18.528582,18.264221 13.291696,25.230495 11.500037,31.436501 z"
             style="fill:#404040;"/>
          </a>
         </g>
        </svg>
</svg>
