<?xml version="1.0" encoding="UTF-8" standalone="no"?>
<!DOCTYPE svg PUBLIC "-//W3C//DTD SVG 1.1//EN"
 "http://www.w3.org/Graphics/SVG/1.1/DTD/svg11.dtd">
<!-- Generated by graphviz version 2.38.0 (20140413.2041)
 -->
<!-- Title: User.getScore Pages: 1 -->
<svg width="682pt" height="88pt"
 viewBox="0.00 0.00 682.00 88.00" xmlns="http://www.w3.org/2000/svg" xmlns:xlink="http://www.w3.org/1999/xlink">
<g id="graph0" class="graph" transform="scale(1 1) rotate(0) translate(4 84)">
<title>User.getScore</title>
<polygon fill="white" stroke="none" points="-4,4 -4,-84 678,-84 678,4 -4,4"/>
<!-- Node1 -->
<g id="node1" class="node"><title>Node1</title>
<g id="a_node1"><a xlink:title="Restituisce il punteggio dell&#39;utente.">
<polygon fill="#bfbfbf" stroke="black" points="595,-30 595,-49 674,-49 674,-30 595,-30"/>
<text text-anchor="middle" x="634.5" y="-37" font-family="Helvetica,sans-Serif" font-size="10.00">User.getScore</text>
</a>
</g>
</g>
<!-- Node2 -->
<g id="node2" class="node"><title>Node2</title>
<g id="a_node2"><a xlink:href="class_word_quizzle_server_service.html#ad8f2f775c4d322ac50c25dbc2b673505" target="_top" xlink:title=" ">
<polygon fill="white" stroke="black" points="395,-49.5 395,-79.5 559,-79.5 559,-49.5 395,-49.5"/>
<text text-anchor="start" x="403" y="-67.5" font-family="Helvetica,sans-Serif" font-size="10.00">WordQuizzleServerService.mostra</text>
<text text-anchor="middle" x="477" y="-56.5" font-family="Helvetica,sans-Serif" font-size="10.00">_classifica</text>
</a>
</g>
</g>
<!-- Node1&#45;&gt;Node2 -->
<g id="edge1" class="edge"><title>Node1&#45;&gt;Node2</title>
<path fill="none" stroke="midnightblue" d="M584.638,-47.3556C576.49,-48.6656 567.849,-50.0549 559.151,-51.4533"/>
<polygon fill="midnightblue" stroke="midnightblue" points="585.344,-50.7871 594.662,-45.7441 584.233,-43.8759 585.344,-50.7871"/>
</g>
<!-- Node3 -->
<g id="node3" class="node"><title>Node3</title>
<g id="a_node3"><a xlink:href="class_word_quizzle_server_service.html#a8002d35c102aec827bb58c4f1ca7b295" target="_top" xlink:title=" ">
<polygon fill="white" stroke="black" points="395,-0.5 395,-30.5 559,-30.5 559,-0.5 395,-0.5"/>
<text text-anchor="start" x="403" y="-18.5" font-family="Helvetica,sans-Serif" font-size="10.00">WordQuizzleServerService.mostra</text>
<text text-anchor="middle" x="477" y="-7.5" font-family="Helvetica,sans-Serif" font-size="10.00">_punteggio</text>
</a>
</g>
</g>
<!-- Node1&#45;&gt;Node3 -->
<g id="edge2" class="edge"><title>Node1&#45;&gt;Node3</title>
<path fill="none" stroke="midnightblue" d="M584.638,-31.9586C576.49,-30.701 567.849,-29.3673 559.151,-28.0249"/>
<polygon fill="midnightblue" stroke="midnightblue" points="584.245,-35.4393 594.662,-33.5057 585.313,-28.5212 584.245,-35.4393"/>
</g>
<!-- Node4 -->
<g id="node4" class="node"><title>Node4</title>
<g id="a_node4"><a xlink:href="class_session.html#a56e3ffab046de2082083cfc54b5d8e72" target="_top" xlink:title=" ">
<polygon fill="white" stroke="black" points="267,-6 267,-25 359,-25 359,-6 267,-6"/>
<text text-anchor="middle" x="313" y="-13" font-family="Helvetica,sans-Serif" font-size="10.00">Session.compute</text>
</a>
</g>
</g>
<!-- Node3&#45;&gt;Node4 -->
<g id="edge3" class="edge"><title>Node3&#45;&gt;Node4</title>
<path fill="none" stroke="midnightblue" d="M384.315,-15.5C375.661,-15.5 367.174,-15.5 359.256,-15.5"/>
<polygon fill="midnightblue" stroke="midnightblue" points="384.525,-19.0001 394.525,-15.5 384.525,-12.0001 384.525,-19.0001"/>
</g>
<!-- Node5 -->
<g id="node5" class="node"><title>Node5</title>
<g id="a_node5"><a xlink:href="class_session.html#a75364929cf1f8f9e75992a8a8c3b589f" target="_top" xlink:title=" ">
<polygon fill="white" stroke="black" points="152,-6 152,-25 231,-25 231,-6 152,-6"/>
<text text-anchor="middle" x="191.5" y="-13" font-family="Helvetica,sans-Serif" font-size="10.00">Session.parse</text>
</a>
</g>
</g>
<!-- Node4&#45;&gt;Node5 -->
<g id="edge4" class="edge"><title>Node4&#45;&gt;Node5</title>
<path fill="none" stroke="midnightblue" d="M256.749,-15.5C248.081,-15.5 239.286,-15.5 231.1,-15.5"/>
<polygon fill="midnightblue" stroke="midnightblue" points="256.822,-19.0001 266.822,-15.5 256.822,-12.0001 256.822,-19.0001"/>
</g>
<!-- Node6 -->
<g id="node6" class="node"><title>Node6</title>
<g id="a_node6"><a xlink:href="class_word_quizzle_server.html#a1414f39eeaaf2dbe0885f4d77a12c466" target="_top" xlink:title=" ">
<polygon fill="white" stroke="black" points="0,-6 0,-25 116,-25 116,-6 0,-6"/>
<text text-anchor="middle" x="58" y="-13" font-family="Helvetica,sans-Serif" font-size="10.00">WordQuizzleServer.run</text>
</a>
</g>
</g>
<!-- Node5&#45;&gt;Node6 -->
<g id="edge5" class="edge"><title>Node5&#45;&gt;Node6</title>
<path fill="none" stroke="midnightblue" d="M141.621,-15.5C133.428,-15.5 124.86,-15.5 116.475,-15.5"/>
<polygon fill="midnightblue" stroke="midnightblue" points="141.757,-19.0001 151.757,-15.5 141.757,-12.0001 141.757,-19.0001"/>
</g>
</g>
</svg>
