<?xml version="1.0" encoding="UTF-8" standalone="no"?>
<!DOCTYPE svg PUBLIC "-//W3C//DTD SVG 1.1//EN"
 "http://www.w3.org/Graphics/SVG/1.1/DTD/svg11.dtd">
<!-- Generated by graphviz version 2.38.0 (20140413.2041)
 -->
<!-- Title: WordQuizzleClientService.mostra_classifica Pages: 1 -->
<svg width="547pt" height="66pt"
 viewBox="0.00 0.00 547.00 66.00" xmlns="http://www.w3.org/2000/svg" xmlns:xlink="http://www.w3.org/1999/xlink">
<g id="graph0" class="graph" transform="scale(1 1) rotate(0) translate(4 62)">
<title>WordQuizzleClientService.mostra_classifica</title>
<polygon fill="white" stroke="none" points="-4,4 -4,-62 543,-62 543,4 -4,4"/>
<!-- Node1 -->
<g id="node1" class="node"><title>Node1</title>
<g id="a_node1"><a xlink:title="Richiede la classifica dell&#39;utente e dei suoi amici.">
<polygon fill="#bfbfbf" stroke="black" points="0,-14 0,-44 162,-44 162,-14 0,-14"/>
<text text-anchor="start" x="8" y="-32" font-family="Helvetica,sans-Serif" font-size="10.00">WordQuizzleClientService.mostra</text>
<text text-anchor="middle" x="81" y="-21" font-family="Helvetica,sans-Serif" font-size="10.00">_classifica</text>
</a>
</g>
</g>
<!-- Node2 -->
<g id="node2" class="node"><title>Node2</title>
<g id="a_node2"><a xlink:href="class_word_quizzle_client_service.html#a6132feed91596156595e4f36713acade" target="_top" xlink:title="Invia un messaggio al server e attende una sua risposta.">
<polygon fill="white" stroke="black" points="198,-19.5 198,-38.5 351,-38.5 351,-19.5 198,-19.5"/>
<text text-anchor="middle" x="274.5" y="-26.5" font-family="Helvetica,sans-Serif" font-size="10.00">WordQuizzleClientService.send</text>
</a>
</g>
</g>
<!-- Node1&#45;&gt;Node2 -->
<g id="edge1" class="edge"><title>Node1&#45;&gt;Node2</title>
<path fill="none" stroke="midnightblue" d="M162.104,-29C170.483,-29 179.027,-29 187.469,-29"/>
<polygon fill="midnightblue" stroke="midnightblue" points="187.698,-32.5001 197.698,-29 187.698,-25.5001 187.698,-32.5001"/>
</g>
<!-- Node3 -->
<g id="node3" class="node"><title>Node3</title>
<g id="a_node3"><a xlink:href="class_word_quizzle_client_service.html#a8aac188f30cdc3eefce8a82af8e17b64" target="_top" xlink:title="Ottiene un messaggio inviato dal server.">
<polygon fill="white" stroke="black" points="387.5,-38.5 387.5,-57.5 538.5,-57.5 538.5,-38.5 387.5,-38.5"/>
<text text-anchor="middle" x="463" y="-45.5" font-family="Helvetica,sans-Serif" font-size="10.00">WordQuizzleClientService.read</text>
</a>
</g>
</g>
<!-- Node2&#45;&gt;Node3 -->
<g id="edge2" class="edge"><title>Node2&#45;&gt;Node3</title>
<path fill="none" stroke="midnightblue" d="M351.088,-36.7006C359.651,-37.5731 368.421,-38.4665 377.094,-39.3501"/>
<polygon fill="midnightblue" stroke="midnightblue" points="376.909,-42.8493 387.213,-40.3809 377.619,-35.8853 376.909,-42.8493"/>
</g>
<!-- Node4 -->
<g id="node4" class="node"><title>Node4</title>
<g id="a_node4"><a xlink:href="class_word_quizzle_client_service.html#a7d2afa64e76c96cabcbcf48219517937" target="_top" xlink:title="Invia al server un messaggio.">
<polygon fill="white" stroke="black" points="387,-0.5 387,-19.5 539,-19.5 539,-0.5 387,-0.5"/>
<text text-anchor="middle" x="463" y="-7.5" font-family="Helvetica,sans-Serif" font-size="10.00">WordQuizzleClientService.write</text>
</a>
</g>
</g>
<!-- Node2&#45;&gt;Node4 -->
<g id="edge3" class="edge"><title>Node2&#45;&gt;Node4</title>
<path fill="none" stroke="midnightblue" d="M351.088,-21.2994C359.579,-20.4343 368.273,-19.5486 376.874,-18.6724"/>
<polygon fill="midnightblue" stroke="midnightblue" points="377.316,-22.1455 386.91,-17.6499 376.607,-15.1815 377.316,-22.1455"/>
</g>
</g>
</svg>
