<?xml version="1.0" encoding="UTF-8" standalone="no"?>
<!DOCTYPE svg PUBLIC "-//W3C//DTD SVG 1.1//EN"
 "http://www.w3.org/Graphics/SVG/1.1/DTD/svg11.dtd">
<!-- Generated by graphviz version 2.38.0 (20140413.2041)
 -->
<!-- Title: WordQuizzle.Translator.translate Pages: 1 -->
<svg width="1131pt" height="116pt"
 viewBox="0.00 0.00 1131.00 116.00" xmlns="http://www.w3.org/2000/svg" xmlns:xlink="http://www.w3.org/1999/xlink">
<g id="graph0" class="graph" transform="scale(1 1) rotate(0) translate(4 112)">
<title>WordQuizzle.Translator.translate</title>
<polygon fill="white" stroke="none" points="-4,4 -4,-112 1127,-112 1127,4 -4,4"/>
<!-- Node1 -->
<g id="node1" class="node"><title>Node1</title>
<g id="a_node1"><a xlink:title="Traduce una parola dall&#39;italiano all&#39;inglese.">
<polygon fill="#bfbfbf" stroke="black" points="964,-44.5 964,-63.5 1123,-63.5 1123,-44.5 964,-44.5"/>
<text text-anchor="middle" x="1043.5" y="-51.5" font-family="Helvetica,sans-Serif" font-size="10.00">WordQuizzle.Translator.translate</text>
</a>
</g>
</g>
<!-- Node2 -->
<g id="node2" class="node"><title>Node2</title>
<g id="a_node2"><a xlink:href="class_word_quizzle_1_1_bot.html#ac35a1d7ec89b1ef5fc25f161357f71c1" target="_top" xlink:title="Gestisce una sfida.">
<polygon fill="white" stroke="black" points="789.5,-88.5 789.5,-107.5 907.5,-107.5 907.5,-88.5 789.5,-88.5"/>
<text text-anchor="middle" x="848.5" y="-95.5" font-family="Helvetica,sans-Serif" font-size="10.00">WordQuizzle.Bot.game</text>
</a>
</g>
</g>
<!-- Node1&#45;&gt;Node2 -->
<g id="edge1" class="edge"><title>Node1&#45;&gt;Node2</title>
<path fill="none" stroke="midnightblue" d="M990.811,-65.7841C959.655,-72.8869 920.489,-81.816 891.296,-88.4713"/>
<polygon fill="midnightblue" stroke="midnightblue" points="991.65,-69.1826 1000.62,-63.5473 990.094,-62.3577 991.65,-69.1826"/>
</g>
<!-- Node5 -->
<g id="node5" class="node"><title>Node5</title>
<g id="a_node5"><a xlink:href="class_word_quizzle_1_1_challenge.html#ad9edc220ce2d24274149ab8c6a564a0a" target="_top" xlink:title="Aggiunge l&#39;utente sfidato alla sfida e la avvia.">
<polygon fill="white" stroke="black" points="781,-39 781,-69 916,-69 916,-39 781,-39"/>
<text text-anchor="start" x="789" y="-57" font-family="Helvetica,sans-Serif" font-size="10.00">WordQuizzle.Challenge.set</text>
<text text-anchor="middle" x="848.5" y="-46" font-family="Helvetica,sans-Serif" font-size="10.00">Player2</text>
</a>
</g>
</g>
<!-- Node1&#45;&gt;Node5 -->
<g id="edge4" class="edge"><title>Node1&#45;&gt;Node5</title>
<path fill="none" stroke="midnightblue" d="M953.888,-54C941.211,-54 928.35,-54 916.19,-54"/>
<polygon fill="midnightblue" stroke="midnightblue" points="954,-57.5001 964,-54 953.999,-50.5001 954,-57.5001"/>
</g>
<!-- Node11 -->
<g id="node11" class="node"><title>Node11</title>
<g id="a_node11"><a xlink:href="class_word_quizzle_1_1_translator.html#aebc2b8b89e22283fa8bb1286c5f13f32" target="_top" xlink:title="Traduce una lista di parole dall&#39;italiano all&#39;inglese.">
<polygon fill="white" stroke="black" points="769,-0.5 769,-19.5 928,-19.5 928,-0.5 769,-0.5"/>
<text text-anchor="middle" x="848.5" y="-7.5" font-family="Helvetica,sans-Serif" font-size="10.00">WordQuizzle.Translator.translate</text>
</a>
</g>
</g>
<!-- Node1&#45;&gt;Node11 -->
<g id="edge10" class="edge"><title>Node1&#45;&gt;Node11</title>
<path fill="none" stroke="midnightblue" d="M990.811,-42.2159C959.655,-35.1131 920.489,-26.184 891.296,-19.5287"/>
<polygon fill="midnightblue" stroke="midnightblue" points="990.094,-45.6423 1000.62,-44.4527 991.65,-38.8174 990.094,-45.6423"/>
</g>
<!-- Node3 -->
<g id="node3" class="node"><title>Node3</title>
<g id="a_node3"><a xlink:href="class_word_quizzle_1_1_bot.html#aa088d2cccb4552d9277db7908b7cc706" target="_top" xlink:title="Avvia il bot.">
<polygon fill="white" stroke="black" points="600,-88.5 600,-107.5 707,-107.5 707,-88.5 600,-88.5"/>
<text text-anchor="middle" x="653.5" y="-95.5" font-family="Helvetica,sans-Serif" font-size="10.00">WordQuizzle.Bot.run</text>
</a>
</g>
</g>
<!-- Node2&#45;&gt;Node3 -->
<g id="edge2" class="edge"><title>Node2&#45;&gt;Node3</title>
<path fill="none" stroke="midnightblue" d="M779.043,-98C755.46,-98 729.429,-98 707.289,-98"/>
<polygon fill="midnightblue" stroke="midnightblue" points="779.332,-101.5 789.332,-98 779.332,-94.5001 779.332,-101.5"/>
</g>
<!-- Node4 -->
<g id="node4" class="node"><title>Node4</title>
<g id="a_node4"><a xlink:href="class_word_quizzle_1_1_bot.html#a1092df275f21d17d0b0a7edf7bbb59f2" target="_top" xlink:title="Esegue un bot.">
<polygon fill="white" stroke="black" points="404.5,-88.5 404.5,-107.5 519.5,-107.5 519.5,-88.5 404.5,-88.5"/>
<text text-anchor="middle" x="462" y="-95.5" font-family="Helvetica,sans-Serif" font-size="10.00">WordQuizzle.Bot.main</text>
</a>
</g>
</g>
<!-- Node3&#45;&gt;Node4 -->
<g id="edge3" class="edge"><title>Node3&#45;&gt;Node4</title>
<path fill="none" stroke="midnightblue" d="M589.776,-98C567.129,-98 541.716,-98 519.622,-98"/>
<polygon fill="midnightblue" stroke="midnightblue" points="589.965,-101.5 599.965,-98 589.965,-94.5001 589.965,-101.5"/>
</g>
<!-- Node6 -->
<g id="node6" class="node"><title>Node6</title>
<g id="a_node6"><a xlink:href="class_word_quizzle_1_1_word_quizzle_server_service.html#aebc8c566d10a0d24752a33f146f03a2a" target="_top" xlink:title="Accetta una richiesta di sfida inviata da nickAmico.">
<polygon fill="white" stroke="black" points="574,-39 574,-69 733,-69 733,-39 574,-39"/>
<text text-anchor="start" x="582" y="-57" font-family="Helvetica,sans-Serif" font-size="10.00">WordQuizzle.WordQuizzleServer</text>
<text text-anchor="middle" x="653.5" y="-46" font-family="Helvetica,sans-Serif" font-size="10.00">Service.accettaSfida</text>
</a>
</g>
</g>
<!-- Node5&#45;&gt;Node6 -->
<g id="edge5" class="edge"><title>Node5&#45;&gt;Node6</title>
<path fill="none" stroke="midnightblue" d="M770.586,-54C758.269,-54 745.506,-54 733.149,-54"/>
<polygon fill="midnightblue" stroke="midnightblue" points="770.81,-57.5001 780.81,-54 770.81,-50.5001 770.81,-57.5001"/>
</g>
<!-- Node7 -->
<g id="node7" class="node"><title>Node7</title>
<g id="a_node7"><a xlink:href="class_word_quizzle_1_1_session.html#a21992c338367b1a3c2e57fdb7cae3018" target="_top" xlink:title="Gestisce effettivamente la richiesta del client.">
<polygon fill="white" stroke="black" points="386,-44.5 386,-63.5 538,-63.5 538,-44.5 386,-44.5"/>
<text text-anchor="middle" x="462" y="-51.5" font-family="Helvetica,sans-Serif" font-size="10.00">WordQuizzle.Session.compute</text>
</a>
</g>
</g>
<!-- Node6&#45;&gt;Node7 -->
<g id="edge6" class="edge"><title>Node6&#45;&gt;Node7</title>
<path fill="none" stroke="midnightblue" d="M563.764,-54C555.191,-54 546.552,-54 538.129,-54"/>
<polygon fill="midnightblue" stroke="midnightblue" points="563.781,-57.5001 573.781,-54 563.781,-50.5001 563.781,-57.5001"/>
</g>
<!-- Node8 -->
<g id="node8" class="node"><title>Node8</title>
<g id="a_node8"><a xlink:href="class_word_quizzle_1_1_session.html#a6793f02ea7cab6fffe0361893cf40178" target="_top" xlink:title="Riceve una stringa contenente uan richiesta da parte del client e la gestisce.">
<polygon fill="white" stroke="black" points="212,-44.5 212,-63.5 350,-63.5 350,-44.5 212,-44.5"/>
<text text-anchor="middle" x="281" y="-51.5" font-family="Helvetica,sans-Serif" font-size="10.00">WordQuizzle.Session.parse</text>
</a>
</g>
</g>
<!-- Node7&#45;&gt;Node8 -->
<g id="edge7" class="edge"><title>Node7&#45;&gt;Node8</title>
<path fill="none" stroke="midnightblue" d="M375.793,-54C367.175,-54 358.505,-54 350.101,-54"/>
<polygon fill="midnightblue" stroke="midnightblue" points="375.866,-57.5001 385.866,-54 375.866,-50.5001 375.866,-57.5001"/>
</g>
<!-- Node9 -->
<g id="node9" class="node"><title>Node9</title>
<g id="a_node9"><a xlink:href="class_word_quizzle_1_1_word_quizzle_server.html#a4aa19bad373d06a790babba1e5b67644" target="_top" xlink:title="Gestisce le interazioni con i client.">
<polygon fill="white" stroke="black" points="0,-63.5 0,-82.5 176,-82.5 176,-63.5 0,-63.5"/>
<text text-anchor="middle" x="88" y="-70.5" font-family="Helvetica,sans-Serif" font-size="10.00">WordQuizzle.WordQuizzleServer.run</text>
</a>
</g>
</g>
<!-- Node8&#45;&gt;Node9 -->
<g id="edge8" class="edge"><title>Node8&#45;&gt;Node9</title>
<path fill="none" stroke="midnightblue" d="M201.692,-61.7898C193.27,-62.6275 184.665,-63.4836 176.149,-64.3308"/>
<polygon fill="midnightblue" stroke="midnightblue" points="202.249,-65.2517 211.854,-60.779 201.556,-58.2861 202.249,-65.2517"/>
</g>
<!-- Node10 -->
<g id="node10" class="node"><title>Node10</title>
<g id="a_node10"><a xlink:href="class_word_quizzle_1_1_challenge.html#aa7b93cfc7d1927c0b1c060cc387321b9" target="_top" xlink:title="Gestisce la sfida.">
<polygon fill="white" stroke="black" points="20.5,-25.5 20.5,-44.5 155.5,-44.5 155.5,-25.5 20.5,-25.5"/>
<text text-anchor="middle" x="88" y="-32.5" font-family="Helvetica,sans-Serif" font-size="10.00">WordQuizzle.Challenge.run</text>
</a>
</g>
</g>
<!-- Node8&#45;&gt;Node10 -->
<g id="edge9" class="edge"><title>Node8&#45;&gt;Node10</title>
<path fill="none" stroke="midnightblue" d="M201.853,-46.2263C186.473,-44.6963 170.471,-43.1045 155.517,-41.6169"/>
<polygon fill="midnightblue" stroke="midnightblue" points="201.556,-49.7139 211.854,-47.221 202.249,-42.7483 201.556,-49.7139"/>
</g>
</g>
</svg>
