<?xml version="1.0" encoding="UTF-8" standalone="no"?>
<!DOCTYPE svg PUBLIC "-//W3C//DTD SVG 1.1//EN"
 "http://www.w3.org/Graphics/SVG/1.1/DTD/svg11.dtd">
<!-- Generated by graphviz version 2.38.0 (20140413.2041)
 -->
<!-- Title: Challenge.calculate Pages: 1 -->
<svg width="335pt" height="28pt"
 viewBox="0.00 0.00 335.00 28.00" xmlns="http://www.w3.org/2000/svg" xmlns:xlink="http://www.w3.org/1999/xlink">
<g id="graph0" class="graph" transform="scale(1 1) rotate(0) translate(4 24)">
<title>Challenge.calculate</title>
<polygon fill="white" stroke="none" points="-4,4 -4,-24 331,-24 331,4 -4,4"/>
<!-- Node1 -->
<g id="node1" class="node"><title>Node1</title>
<g id="a_node1"><a xlink:title="Calcola le statistiche del giocatore al termine della sfida.">
<polygon fill="#bfbfbf" stroke="black" points="226,-0.5 226,-19.5 327,-19.5 327,-0.5 226,-0.5"/>
<text text-anchor="middle" x="276.5" y="-7.5" font-family="Helvetica,sans-Serif" font-size="10.00">Challenge.calculate</text>
</a>
</g>
</g>
<!-- Node2 -->
<g id="node2" class="node"><title>Node2</title>
<g id="a_node2"><a xlink:href="class_challenge.html#ae1d74e295523725569c9e06b887e9a9e" target="_top" xlink:title="Conclude la sfida.">
<polygon fill="white" stroke="black" points="112,-0.5 112,-19.5 190,-19.5 190,-0.5 112,-0.5"/>
<text text-anchor="middle" x="151" y="-7.5" font-family="Helvetica,sans-Serif" font-size="10.00">Challenge.end</text>
</a>
</g>
</g>
<!-- Node1&#45;&gt;Node2 -->
<g id="edge1" class="edge"><title>Node1&#45;&gt;Node2</title>
<path fill="none" stroke="midnightblue" d="M215.792,-10C207.056,-10 198.267,-10 190.122,-10"/>
<polygon fill="midnightblue" stroke="midnightblue" points="215.979,-13.5001 225.979,-10 215.979,-6.5001 215.979,-13.5001"/>
</g>
<!-- Node3 -->
<g id="node3" class="node"><title>Node3</title>
<g id="a_node3"><a xlink:href="class_challenge.html#adfd88e7904c2d0954ca82e07890c5ca4" target="_top" xlink:title="Gestisce la sfida.">
<polygon fill="white" stroke="black" points="0,-0.5 0,-19.5 76,-19.5 76,-0.5 0,-0.5"/>
<text text-anchor="middle" x="38" y="-7.5" font-family="Helvetica,sans-Serif" font-size="10.00">Challenge.run</text>
</a>
</g>
</g>
<!-- Node2&#45;&gt;Node3 -->
<g id="edge2" class="edge"><title>Node2&#45;&gt;Node3</title>
<path fill="none" stroke="midnightblue" d="M101.571,-10C93.0478,-10 84.2984,-10 76.1447,-10"/>
<polygon fill="midnightblue" stroke="midnightblue" points="101.8,-13.5001 111.8,-10 101.8,-6.5001 101.8,-13.5001"/>
</g>
</g>
</svg>
