<?xml version="1.0" encoding="UTF-8" standalone="no"?>
<!DOCTYPE svg PUBLIC "-//W3C//DTD SVG 1.1//EN"
 "http://www.w3.org/Graphics/SVG/1.1/DTD/svg11.dtd">
<!-- Generated by graphviz version 2.38.0 (20140413.2041)
 -->
<!-- Title: WordQuizzle.WQCli.game Pages: 1 -->
<svg width="580pt" height="137pt"
 viewBox="0.00 0.00 580.00 137.00" xmlns="http://www.w3.org/2000/svg" xmlns:xlink="http://www.w3.org/1999/xlink">
<g id="graph0" class="graph" transform="scale(1 1) rotate(0) translate(4 133)">
<title>WordQuizzle.WQCli.game</title>
<polygon fill="white" stroke="none" points="-4,4 -4,-133 576,-133 576,4 -4,4"/>
<!-- Node1 -->
<g id="node1" class="node"><title>Node1</title>
<g id="a_node1"><a xlink:title="Gestisce una sfida.">
<polygon fill="#bfbfbf" stroke="black" points="0,-55 0,-74 131,-74 131,-55 0,-55"/>
<text text-anchor="middle" x="65.5" y="-62" font-family="Helvetica,sans-Serif" font-size="10.00">WordQuizzle.WQCli.game</text>
</a>
</g>
</g>
<!-- Node2 -->
<g id="node2" class="node"><title>Node2</title>
<g id="a_node2"><a xlink:href="class_word_quizzle_1_1_word_quizzle_server_service.html#a970fe0e2dd7457bab2c64ae722a912fc" target="_top" xlink:title=" ">
<polygon fill="white" stroke="black" points="178,-98.5 178,-128.5 337,-128.5 337,-98.5 178,-98.5"/>
<text text-anchor="start" x="186" y="-116.5" font-family="Helvetica,sans-Serif" font-size="10.00">WordQuizzle.WordQuizzleServer</text>
<text text-anchor="middle" x="257.5" y="-105.5" font-family="Helvetica,sans-Serif" font-size="10.00">Service.getK</text>
</a>
</g>
</g>
<!-- Node1&#45;&gt;Node2 -->
<g id="edge1" class="edge"><title>Node1&#45;&gt;Node2</title>
<path fill="none" stroke="midnightblue" d="M103.585,-74.064C127.64,-80.2676 159.705,-88.5371 188.259,-95.901"/>
<polygon fill="midnightblue" stroke="midnightblue" points="187.636,-99.3548 198.193,-98.463 189.384,-92.5766 187.636,-99.3548"/>
</g>
<!-- Node3 -->
<g id="node3" class="node"><title>Node3</title>
<g id="a_node3"><a xlink:href="class_word_quizzle_1_1_word_quizzle_server_service.html#ac78bda2a578b3baa0933ca28e4b72e0c" target="_top" xlink:title=" ">
<polygon fill="white" stroke="black" points="178,-49.5 178,-79.5 337,-79.5 337,-49.5 178,-49.5"/>
<text text-anchor="start" x="186" y="-67.5" font-family="Helvetica,sans-Serif" font-size="10.00">WordQuizzle.WordQuizzleServer</text>
<text text-anchor="middle" x="257.5" y="-56.5" font-family="Helvetica,sans-Serif" font-size="10.00">Service.getT2</text>
</a>
</g>
</g>
<!-- Node1&#45;&gt;Node3 -->
<g id="edge2" class="edge"><title>Node1&#45;&gt;Node3</title>
<path fill="none" stroke="midnightblue" d="M131.09,-64.5C142.857,-64.5 155.32,-64.5 167.643,-64.5"/>
<polygon fill="midnightblue" stroke="midnightblue" points="167.945,-68.0001 177.945,-64.5 167.945,-61.0001 167.945,-68.0001"/>
</g>
<!-- Node4 -->
<g id="node4" class="node"><title>Node4</title>
<g id="a_node4"><a xlink:href="class_word_quizzle_1_1_word_quizzle_client.html#a828a5e7a358bd53296d88c97172db13b" target="_top" xlink:title="Invia la traduzione della parola precedentemente inviata dal server durante una sfida.">
<polygon fill="white" stroke="black" points="167,-0.5 167,-30.5 348,-30.5 348,-0.5 167,-0.5"/>
<text text-anchor="start" x="175" y="-18.5" font-family="Helvetica,sans-Serif" font-size="10.00">WordQuizzle.WordQuizzleClient.send</text>
<text text-anchor="middle" x="257.5" y="-7.5" font-family="Helvetica,sans-Serif" font-size="10.00">Translation</text>
</a>
</g>
</g>
<!-- Node1&#45;&gt;Node4 -->
<g id="edge3" class="edge"><title>Node1&#45;&gt;Node4</title>
<path fill="none" stroke="midnightblue" d="M103.585,-54.936C127.64,-48.7324 159.705,-40.4629 188.259,-33.099"/>
<polygon fill="midnightblue" stroke="midnightblue" points="189.384,-36.4234 198.193,-30.537 187.636,-29.6452 189.384,-36.4234"/>
</g>
<!-- Node5 -->
<g id="node5" class="node"><title>Node5</title>
<g id="a_node5"><a xlink:href="interface_word_quizzle_1_1_word_quizzle_service.html#a40fcaf644a7b5e4e1c1e592052f55e0b" target="_top" xlink:title="Invia la traduzione della parola precedentemente inviata dal server durante una sfida.">
<polygon fill="white" stroke="black" points="384,-0.5 384,-30.5 572,-30.5 572,-0.5 384,-0.5"/>
<text text-anchor="start" x="392" y="-18.5" font-family="Helvetica,sans-Serif" font-size="10.00">WordQuizzle.WordQuizzleService.send</text>
<text text-anchor="middle" x="478" y="-7.5" font-family="Helvetica,sans-Serif" font-size="10.00">Translation</text>
</a>
</g>
</g>
<!-- Node4&#45;&gt;Node5 -->
<g id="edge4" class="edge"><title>Node4&#45;&gt;Node5</title>
<path fill="none" stroke="midnightblue" d="M348.003,-15.5C356.474,-15.5 365.108,-15.5 373.694,-15.5"/>
<polygon fill="midnightblue" stroke="midnightblue" points="373.737,-19.0001 383.737,-15.5 373.737,-12.0001 373.737,-19.0001"/>
</g>
</g>
</svg>
