<?xml version="1.0" encoding="UTF-8" standalone="no"?>
<!DOCTYPE svg PUBLIC "-//W3C//DTD SVG 1.1//EN"
 "http://www.w3.org/Graphics/SVG/1.1/DTD/svg11.dtd">
<!-- Generated by graphviz version 2.38.0 (20140413.2041)
 -->
<!-- Title: WordQuizzle.WQCli.registra_utente Pages: 1 -->
<svg width="640pt" height="53pt"
 viewBox="0.00 0.00 640.00 52.50" xmlns="http://www.w3.org/2000/svg" xmlns:xlink="http://www.w3.org/1999/xlink">
<g id="graph0" class="graph" transform="scale(1 1) rotate(0) translate(4 48.5)">
<title>WordQuizzle.WQCli.registra_utente</title>
<polygon fill="white" stroke="none" points="-4,4 -4,-48.5 636,-48.5 636,4 -4,4"/>
<!-- Node1 -->
<g id="node1" class="node"><title>Node1</title>
<g id="a_node1"><a xlink:title="Restistuisce una stringa contenente informazioni riguardo la registrazione di un utente.">
<polygon fill="#bfbfbf" stroke="black" points="492,-14 492,-44 632,-44 632,-14 492,-14"/>
<text text-anchor="start" x="500" y="-32" font-family="Helvetica,sans-Serif" font-size="10.00">WordQuizzle.WQCli.registra</text>
<text text-anchor="middle" x="562" y="-21" font-family="Helvetica,sans-Serif" font-size="10.00">_utente</text>
</a>
</g>
</g>
<!-- Node2 -->
<g id="node2" class="node"><title>Node2</title>
<g id="a_node2"><a xlink:href="class_word_quizzle_1_1_w_q_cli.html#af99dd07b4f0c4e029f872de8ea3ae9f3" target="_top" xlink:title="Restistuisce una stringa contenente informazioni riguardo i comandi da utilizzare.">
<polygon fill="white" stroke="black" points="331,-19.5 331,-38.5 456,-38.5 456,-19.5 331,-19.5"/>
<text text-anchor="middle" x="393.5" y="-26.5" font-family="Helvetica,sans-Serif" font-size="10.00">WordQuizzle.WQCli.help</text>
</a>
</g>
</g>
<!-- Node1&#45;&gt;Node2 -->
<g id="edge1" class="edge"><title>Node1&#45;&gt;Node2</title>
<path fill="none" stroke="midnightblue" d="M481.738,-29C473.095,-29 464.394,-29 456.01,-29"/>
<polygon fill="midnightblue" stroke="midnightblue" points="481.836,-32.5001 491.835,-29 481.835,-25.5001 481.836,-32.5001"/>
</g>
<!-- Node3 -->
<g id="node3" class="node"><title>Node3</title>
<g id="a_node3"><a xlink:href="class_word_quizzle_1_1_w_q_cli.html#a7c2d51051cc7f1b20c57c1424d3b7727" target="_top" xlink:title="Gestisce l&#39;interazione con l&#39;utente.">
<polygon fill="white" stroke="black" points="0,-19.5 0,-38.5 128,-38.5 128,-19.5 0,-19.5"/>
<text text-anchor="middle" x="64" y="-26.5" font-family="Helvetica,sans-Serif" font-size="10.00">WordQuizzle.WQCli.main</text>
</a>
</g>
</g>
<!-- Node2&#45;&gt;Node3 -->
<g id="edge2" class="edge"><title>Node2&#45;&gt;Node3</title>
<path fill="none" stroke="midnightblue" d="M320.798,-29C263.312,-29 183.41,-29 128.277,-29"/>
<polygon fill="midnightblue" stroke="midnightblue" points="320.9,-32.5001 330.9,-29 320.9,-25.5001 320.9,-32.5001"/>
</g>
<!-- Node4 -->
<g id="node4" class="node"><title>Node4</title>
<g id="a_node4"><a xlink:href="class_word_quizzle_1_1_w_q_cli.html#a318ef86f91a825da4ff4684bd3332a6b" target="_top" xlink:title="Gestisce le richieste dell&#39;utente.">
<polygon fill="white" stroke="black" points="164,-0.5 164,-19.5 295,-19.5 295,-0.5 164,-0.5"/>
<text text-anchor="middle" x="229.5" y="-7.5" font-family="Helvetica,sans-Serif" font-size="10.00">WordQuizzle.WQCli.parse</text>
</a>
</g>
</g>
<!-- Node2&#45;&gt;Node4 -->
<g id="edge3" class="edge"><title>Node2&#45;&gt;Node4</title>
<path fill="none" stroke="midnightblue" d="M320.596,-20.5668C312.162,-19.5777 303.595,-18.5729 295.267,-17.5961"/>
<polygon fill="midnightblue" stroke="midnightblue" points="320.453,-24.0739 330.793,-21.7627 321.268,-17.1216 320.453,-24.0739"/>
</g>
<!-- Node4&#45;&gt;Node3 -->
<g id="edge4" class="edge"><title>Node4&#45;&gt;Node3</title>
<path fill="none" stroke="midnightblue" d="M153.844,-18.6756C145.234,-19.6762 136.518,-20.6891 128.082,-21.6694"/>
<polygon fill="midnightblue" stroke="midnightblue" points="154.351,-22.1403 163.88,-17.5093 153.543,-15.1871 154.351,-22.1403"/>
</g>
</g>
</svg>
