<?xml version="1.0" encoding="UTF-8" standalone="no"?>
<!DOCTYPE svg PUBLIC "-//W3C//DTD SVG 1.1//EN"
 "http://www.w3.org/Graphics/SVG/1.1/DTD/svg11.dtd">
<!-- Generated by graphviz version 2.38.0 (20140413.2041)
 -->
<!-- Title: WordQuizzle.WQCli.parse Pages: 1 -->
<!--zoomable 832 -->
<svg id="main" version="1.1" xmlns="http://www.w3.org/2000/svg" xmlns:xlink="http://www.w3.org/1999/xlink" xml:space="preserve" onload="init(evt)">
<style type="text/css"><![CDATA[
.edge:hover path { stroke: red; }
.edge:hover polygon { stroke: red; fill: red; }
]]></style>
<script type="text/javascript"><![CDATA[
var edges = document.getElementsByTagName('g');
if (edges && edges.length) {
  for (var i=0;i<edges.length;i++) {
    if (edges[i].id.substr(0,4)=='edge') {
      edges[i].setAttribute('class','edge');
    }
  }
}
]]></script>
        <defs>
                <circle id="rim" cx="0" cy="0" r="7"/>
                <circle id="rim2" cx="0" cy="0" r="3.5"/>
                <g id="zoomPlus">
                        <use xlink:href="#rim" fill="#404040">
                                <set attributeName="fill" to="#808080" begin="zoomplus.mouseover" end="zoomplus.mouseout"/>
                        </use>
                        <path d="M-4,0h8M0,-4v8" fill="none" stroke="white" stroke-width="1.5" pointer-events="none"/>
                </g>
                <g id="zoomMin">
                        <use xlink:href="#rim" fill="#404040">
                                <set attributeName="fill" to="#808080" begin="zoomminus.mouseover" end="zoomminus.mouseout"/>
                        </use>
                        <path d="M-4,0h8" fill="none" stroke="white" stroke-width="1.5" pointer-events="none"/>
                </g>
                <g id="dirArrow">
                        <path fill="none" stroke="white" stroke-width="1.5" d="M0,-3.0v7 M-2.5,-0.5L0,-3.0L2.5,-0.5"/>
                </g>
               <g id="resetDef">
                       <use xlink:href="#rim2" fill="#404040">
                               <set attributeName="fill" to="#808080" begin="reset.mouseover" end="reset.mouseout"/>
                       </use>
               </g>
        </defs>

<script type="text/javascript">
var viewWidth = 767;
var viewHeight = 832;
var sectionId = 'dynsection-11';
</script>
<script xlink:href="svgpan.js"/>
<svg id="graph" class="graph">
<g id="viewport">
<title>WordQuizzle.WQCli.parse</title>
<polygon fill="white" stroke="none" points="-4,4 -4,-828 763,-828 763,4 -4,4"/>
<!-- Node1 -->
<g id="node1" class="node"><title>Node1</title>
<g id="a_node1"><a xlink:title=" ">
<polygon fill="#bfbfbf" stroke="black" points="0,-505 0,-524 131,-524 131,-505 0,-505"/>
<text text-anchor="middle" x="65.5" y="-512" font-family="Helvetica,sans-Serif" font-size="10.00">WordQuizzle.WQCli.parse</text>
</a>
</g>
</g>
<!-- Node2 -->
<g id="node2" class="node"><title>Node2</title>
<g id="a_node2"><a xlink:href="class_word_quizzle_1_1_word_quizzle_client.html#a566a113b03f71cf566566086294aa195" target="_top" xlink:title=" ">
<polygon fill="white" stroke="black" points="169,-499.5 169,-529.5 361,-529.5 361,-499.5 169,-499.5"/>
<text text-anchor="start" x="177" y="-517.5" font-family="Helvetica,sans-Serif" font-size="10.00">WordQuizzle.WordQuizzleClient.accetta</text>
<text text-anchor="middle" x="265" y="-506.5" font-family="Helvetica,sans-Serif" font-size="10.00">Sfida</text>
</a>
</g>
</g>
<!-- Node1&#45;&gt;Node2 -->
<g id="edge1" class="edge"><title>Node1&#45;&gt;Node2</title>
<path fill="none" stroke="midnightblue" d="M131.169,-514.5C140.009,-514.5 149.264,-514.5 158.599,-514.5"/>
<polygon fill="midnightblue" stroke="midnightblue" points="158.744,-518 168.744,-514.5 158.744,-511 158.744,-518"/>
</g>
<!-- Node5 -->
<g id="node5" class="node"><title>Node5</title>
<g id="a_node5"><a xlink:href="class_word_quizzle_1_1_word_quizzle_client.html#a91d982387c02c9ccae681f4a7d500a75" target="_top" xlink:title=" ">
<polygon fill="white" stroke="black" points="167,-450.5 167,-480.5 363,-480.5 363,-450.5 167,-450.5"/>
<text text-anchor="start" x="175" y="-468.5" font-family="Helvetica,sans-Serif" font-size="10.00">WordQuizzle.WordQuizzleClient.aggiungi</text>
<text text-anchor="middle" x="265" y="-457.5" font-family="Helvetica,sans-Serif" font-size="10.00">_amico</text>
</a>
</g>
</g>
<!-- Node1&#45;&gt;Node5 -->
<g id="edge4" class="edge"><title>Node1&#45;&gt;Node5</title>
<path fill="none" stroke="midnightblue" d="M104.676,-504.992C123.447,-500.319 146.408,-494.609 167,-489.5 175.502,-487.391 184.425,-485.18 193.27,-482.989"/>
<polygon fill="midnightblue" stroke="midnightblue" points="194.332,-486.332 203.198,-480.531 192.65,-479.537 194.332,-486.332"/>
</g>
<!-- Node7 -->
<g id="node7" class="node"><title>Node7</title>
<g id="a_node7"><a xlink:href="class_word_quizzle_1_1_w_q_cli.html#a423482396d62407941b62b92f4a25732" target="_top" xlink:title=" ">
<polygon fill="white" stroke="black" points="406,-401.5 406,-431.5 549,-431.5 549,-401.5 406,-401.5"/>
<text text-anchor="start" x="414" y="-419.5" font-family="Helvetica,sans-Serif" font-size="10.00">WordQuizzle.WQCli.aggiungi</text>
<text text-anchor="middle" x="477.5" y="-408.5" font-family="Helvetica,sans-Serif" font-size="10.00">_amico</text>
</a>
</g>
</g>
<!-- Node1&#45;&gt;Node7 -->
<g id="edge7" class="edge"><title>Node1&#45;&gt;Node7</title>
<path fill="none" stroke="midnightblue" d="M75.6611,-504.88C92.1303,-488.306 128.617,-454.774 167,-440.5 241.081,-412.95 331.856,-409.089 395.886,-410.817"/>
<polygon fill="midnightblue" stroke="midnightblue" points="395.819,-414.316 405.926,-411.139 396.044,-407.32 395.819,-414.316"/>
</g>
<!-- Node8 -->
<g id="node8" class="node"><title>Node8</title>
<g id="a_node8"><a xlink:href="class_word_quizzle_1_1_w_q_cli.html#af99dd07b4f0c4e029f872de8ea3ae9f3" target="_top" xlink:title=" ">
<polygon fill="white" stroke="black" points="202.5,-253 202.5,-272 327.5,-272 327.5,-253 202.5,-253"/>
<text text-anchor="middle" x="265" y="-260" font-family="Helvetica,sans-Serif" font-size="10.00">WordQuizzle.WQCli.help</text>
</a>
</g>
</g>
<!-- Node1&#45;&gt;Node8 -->
<g id="edge8" class="edge"><title>Node1&#45;&gt;Node8</title>
<path fill="none" stroke="midnightblue" d="M72.0383,-504.824C86.3631,-480.108 126.363,-413.042 167,-362.5 192.287,-331.049 225.817,-298.116 246.103,-278.992"/>
<polygon fill="midnightblue" stroke="midnightblue" points="248.516,-281.528 253.431,-272.143 243.736,-276.414 248.516,-281.528"/>
</g>
<!-- Node10 -->
<g id="node10" class="node"><title>Node10</title>
<g id="a_node10"><a xlink:href="class_word_quizzle_1_1_w_q_cli.html#a5be21ae4cfdcdae806ff4a935f0799fd" target="_top" xlink:title=" ">
<polygon fill="white" stroke="black" points="413.5,-363 413.5,-382 541.5,-382 541.5,-363 413.5,-363"/>
<text text-anchor="middle" x="477.5" y="-370" font-family="Helvetica,sans-Serif" font-size="10.00">WordQuizzle.WQCli.login</text>
</a>
</g>
</g>
<!-- Node1&#45;&gt;Node10 -->
<g id="edge24" class="edge"><title>Node1&#45;&gt;Node10</title>
<path fill="none" stroke="midnightblue" d="M72.0527,-504.886C85.2766,-483.006 120.994,-429.603 167,-406.5 241.169,-369.254 337.699,-364.455 403.09,-366.58"/>
<polygon fill="midnightblue" stroke="midnightblue" points="403.181,-370.086 413.309,-366.977 403.453,-363.091 403.181,-370.086"/>
</g>
<!-- Node16 -->
<g id="node16" class="node"><title>Node16</title>
<g id="a_node16"><a xlink:href="class_word_quizzle_1_1_w_q_cli.html#abf6a8e25f47e24745e96260127cf9b71" target="_top" xlink:title=" ">
<polygon fill="white" stroke="black" points="413.5,-50 413.5,-69 541.5,-69 541.5,-50 413.5,-50"/>
<text text-anchor="middle" x="477.5" y="-57" font-family="Helvetica,sans-Serif" font-size="10.00">WordQuizzle.WQCli.sfida</text>
</a>
</g>
</g>
<!-- Node1&#45;&gt;Node16 -->
<g id="edge40" class="edge"><title>Node1&#45;&gt;Node16</title>
<path fill="none" stroke="midnightblue" d="M67.9607,-504.876C74.011,-467.662 100.004,-330.926 167,-243.5 243.962,-143.068 283.953,-131.167 399,-78.5 404.326,-76.0619 410.006,-73.9109 415.779,-72.0186"/>
<polygon fill="midnightblue" stroke="midnightblue" points="416.974,-75.3141 425.536,-69.0733 414.951,-68.6127 416.974,-75.3141"/>
</g>
<!-- Node17 -->
<g id="node17" class="node"><title>Node17</title>
<g id="a_node17"><a xlink:href="class_word_quizzle_1_1_word_quizzle_client.html#a601f27bc3078f4c7d43417481f4c1353" target="_top" xlink:title=" ">
<polygon fill="white" stroke="black" points="176,-786.5 176,-816.5 354,-816.5 354,-786.5 176,-786.5"/>
<text text-anchor="start" x="184" y="-804.5" font-family="Helvetica,sans-Serif" font-size="10.00">WordQuizzle.WordQuizzleClient.lista</text>
<text text-anchor="middle" x="265" y="-793.5" font-family="Helvetica,sans-Serif" font-size="10.00">_amici</text>
</a>
</g>
</g>
<!-- Node1&#45;&gt;Node17 -->
<g id="edge18" class="edge"><title>Node1&#45;&gt;Node17</title>
<path fill="none" stroke="midnightblue" d="M67.3564,-524.002C71.2226,-561.235 90.3579,-698.667 167,-770.5 171.656,-774.864 176.927,-778.613 182.548,-781.835"/>
<polygon fill="midnightblue" stroke="midnightblue" points="181.132,-785.042 191.629,-786.475 184.317,-778.808 181.132,-785.042"/>
</g>
<!-- Node19 -->
<g id="node19" class="node"><title>Node19</title>
<g id="a_node19"><a xlink:href="class_word_quizzle_1_1_word_quizzle_client.html#aa87c179f3a0a6ab57c2b74960c95a626" target="_top" xlink:title=" ">
<polygon fill="white" stroke="black" points="175,-742 175,-761 355,-761 355,-742 175,-742"/>
<text text-anchor="middle" x="265" y="-749" font-family="Helvetica,sans-Serif" font-size="10.00">WordQuizzle.WordQuizzleClient.login</text>
</a>
</g>
</g>
<!-- Node1&#45;&gt;Node19 -->
<g id="edge21" class="edge"><title>Node1&#45;&gt;Node19</title>
<path fill="none" stroke="midnightblue" d="M68.1601,-524.238C74.4011,-557.766 99.635,-669.437 167,-725.5 173.288,-730.733 180.53,-734.921 188.164,-738.272"/>
<polygon fill="midnightblue" stroke="midnightblue" points="187.045,-741.592 197.634,-741.957 189.584,-735.069 187.045,-741.592"/>
</g>
<!-- Node21 -->
<g id="node21" class="node"><title>Node21</title>
<g id="a_node21"><a xlink:href="class_word_quizzle_1_1_word_quizzle_client.html#a50468f5e79e6bba9efc2e9fd19493345" target="_top" xlink:title=" ">
<polygon fill="white" stroke="black" points="172,-697 172,-716 358,-716 358,-697 172,-697"/>
<text text-anchor="middle" x="265" y="-704" font-family="Helvetica,sans-Serif" font-size="10.00">WordQuizzle.WordQuizzleClient.logout</text>
</a>
</g>
</g>
<!-- Node1&#45;&gt;Node21 -->
<g id="edge25" class="edge"><title>Node1&#45;&gt;Node21</title>
<path fill="none" stroke="midnightblue" d="M69.1809,-524.045C77.8884,-553.196 108.267,-641.68 167,-684.5 171.535,-687.806 176.482,-690.627 181.663,-693.034"/>
<polygon fill="midnightblue" stroke="midnightblue" points="180.622,-696.389 191.203,-696.932 183.27,-689.909 180.622,-696.389"/>
</g>
<!-- Node23 -->
<g id="node23" class="node"><title>Node23</title>
<g id="a_node23"><a xlink:href="class_word_quizzle_1_1_word_quizzle_client.html#a155c2dca547e63f1ba07589525ccfd75" target="_top" xlink:title=" ">
<polygon fill="white" stroke="black" points="170,-644.5 170,-674.5 360,-674.5 360,-644.5 170,-644.5"/>
<text text-anchor="start" x="178" y="-662.5" font-family="Helvetica,sans-Serif" font-size="10.00">WordQuizzle.WordQuizzleClient.mostra</text>
<text text-anchor="middle" x="265" y="-651.5" font-family="Helvetica,sans-Serif" font-size="10.00">_classifica</text>
</a>
</g>
</g>
<!-- Node1&#45;&gt;Node23 -->
<g id="edge28" class="edge"><title>Node1&#45;&gt;Node23</title>
<path fill="none" stroke="midnightblue" d="M71.873,-524.243C84.972,-547.057 120.885,-604.222 167,-633.5 171.064,-636.08 175.379,-638.406 179.845,-640.503"/>
<polygon fill="midnightblue" stroke="midnightblue" points="178.618,-643.785 189.189,-644.492 181.367,-637.347 178.618,-643.785"/>
</g>
<!-- Node25 -->
<g id="node25" class="node"><title>Node25</title>
<g id="a_node25"><a xlink:href="class_word_quizzle_1_1_word_quizzle_client.html#a22e0d1e5461e49703357d34b50cf70b8" target="_top" xlink:title=" ">
<polygon fill="white" stroke="black" points="170,-593.5 170,-623.5 360,-623.5 360,-593.5 170,-593.5"/>
<text text-anchor="start" x="178" y="-611.5" font-family="Helvetica,sans-Serif" font-size="10.00">WordQuizzle.WordQuizzleClient.mostra</text>
<text text-anchor="middle" x="265" y="-600.5" font-family="Helvetica,sans-Serif" font-size="10.00">_punteggio</text>
</a>
</g>
</g>
<!-- Node1&#45;&gt;Node25 -->
<g id="edge31" class="edge"><title>Node1&#45;&gt;Node25</title>
<path fill="none" stroke="midnightblue" d="M78.8339,-524.142C97.1496,-538.061 133.038,-563.83 167,-579.5 175.647,-583.49 184.979,-587.09 194.318,-590.286"/>
<polygon fill="midnightblue" stroke="midnightblue" points="193.432,-593.679 204.025,-593.471 195.614,-587.028 193.432,-593.679"/>
</g>
<!-- Node27 -->
<g id="node27" class="node"><title>Node27</title>
<g id="a_node27"><a xlink:href="class_word_quizzle_1_1_word_quizzle_client.html#a98206956fc50ef3951d27f2a89fb21fa" target="_top" xlink:title=" ">
<polygon fill="white" stroke="black" points="169,-36.5 169,-66.5 361,-66.5 361,-36.5 169,-36.5"/>
<text text-anchor="start" x="177" y="-54.5" font-family="Helvetica,sans-Serif" font-size="10.00">WordQuizzle.WordQuizzleClient.registra</text>
<text text-anchor="middle" x="265" y="-43.5" font-family="Helvetica,sans-Serif" font-size="10.00">_utente</text>
</a>
</g>
</g>
<!-- Node1&#45;&gt;Node27 -->
<g id="edge34" class="edge"><title>Node1&#45;&gt;Node27</title>
<path fill="none" stroke="midnightblue" d="M66.5212,-504.845C67.0809,-457.759 74.867,-249.143 167,-117.5 180.611,-98.0515 201.933,-82.6323 221.124,-71.6044"/>
<polygon fill="midnightblue" stroke="midnightblue" points="222.968,-74.5844 230.042,-66.6968 219.593,-68.4516 222.968,-74.5844"/>
</g>
<!-- Node30 -->
<g id="node30" class="node"><title>Node30</title>
<g id="a_node30"><a xlink:href="class_word_quizzle_1_1_word_quizzle_client.html#a2f667c9d998bab28411f3fd0af90ec8c" target="_top" xlink:title=" ">
<polygon fill="white" stroke="black" points="175,-551 175,-570 355,-570 355,-551 175,-551"/>
<text text-anchor="middle" x="265" y="-558" font-family="Helvetica,sans-Serif" font-size="10.00">WordQuizzle.WordQuizzleClient.sfida</text>
</a>
</g>
</g>
<!-- Node1&#45;&gt;Node30 -->
<g id="edge37" class="edge"><title>Node1&#45;&gt;Node30</title>
<path fill="none" stroke="midnightblue" d="M103.662,-524.032C122.589,-528.814 145.985,-534.613 167,-539.5 180.374,-542.61 194.82,-545.819 208.376,-548.764"/>
<polygon fill="midnightblue" stroke="midnightblue" points="208.022,-552.268 218.536,-550.958 209.5,-545.426 208.022,-552.268"/>
</g>
<!-- Node3 -->
<g id="node3" class="node"><title>Node3</title>
<g id="a_node3"><a xlink:href="class_word_quizzle_1_1_word_quizzle_client_service.html#ab0c5778cdd7d53946f7554d64ba63c57" target="_top" xlink:title=" ">
<polygon fill="white" stroke="black" points="399,-499.5 399,-529.5 556,-529.5 556,-499.5 399,-499.5"/>
<text text-anchor="start" x="407" y="-517.5" font-family="Helvetica,sans-Serif" font-size="10.00">WordQuizzle.WordQuizzleClient</text>
<text text-anchor="middle" x="477.5" y="-506.5" font-family="Helvetica,sans-Serif" font-size="10.00">Service.accettaSfida</text>
</a>
</g>
</g>
<!-- Node2&#45;&gt;Node3 -->
<g id="edge2" class="edge"><title>Node2&#45;&gt;Node3</title>
<path fill="none" stroke="midnightblue" d="M361.089,-514.5C370.271,-514.5 379.558,-514.5 388.666,-514.5"/>
<polygon fill="midnightblue" stroke="midnightblue" points="388.858,-518 398.858,-514.5 388.858,-511 388.858,-518"/>
</g>
<!-- Node4 -->
<g id="node4" class="node"><title>Node4</title>
<g id="a_node4"><a xlink:href="class_word_quizzle_1_1_word_quizzle_client_service.html#a0ed33ad0199840ae1847c4ecbc992ce2" target="_top" xlink:title=" ">
<polygon fill="white" stroke="black" points="597,-621.5 597,-651.5 754,-651.5 754,-621.5 597,-621.5"/>
<text text-anchor="start" x="605" y="-639.5" font-family="Helvetica,sans-Serif" font-size="10.00">WordQuizzle.WordQuizzleClient</text>
<text text-anchor="middle" x="675.5" y="-628.5" font-family="Helvetica,sans-Serif" font-size="10.00">Service.send</text>
</a>
</g>
</g>
<!-- Node3&#45;&gt;Node4 -->
<g id="edge3" class="edge"><title>Node3&#45;&gt;Node4</title>
<path fill="none" stroke="midnightblue" d="M534.179,-529.652C541.701,-532.503 549.172,-535.779 556,-539.5 593.171,-559.758 629.945,-592.341 652.437,-614.081"/>
<polygon fill="midnightblue" stroke="midnightblue" points="650.185,-616.774 659.774,-621.28 655.087,-611.778 650.185,-616.774"/>
</g>
<!-- Node6 -->
<g id="node6" class="node"><title>Node6</title>
<g id="a_node6"><a xlink:href="class_word_quizzle_1_1_word_quizzle_client_service.html#adc41c272e3f60eaf3fb07f477887a7ff" target="_top" xlink:title=" ">
<polygon fill="white" stroke="black" points="399,-450.5 399,-480.5 556,-480.5 556,-450.5 399,-450.5"/>
<text text-anchor="start" x="407" y="-468.5" font-family="Helvetica,sans-Serif" font-size="10.00">WordQuizzle.WordQuizzleClient</text>
<text text-anchor="middle" x="477.5" y="-457.5" font-family="Helvetica,sans-Serif" font-size="10.00">Service.aggiungi_amico</text>
</a>
</g>
</g>
<!-- Node5&#45;&gt;Node6 -->
<g id="edge5" class="edge"><title>Node5&#45;&gt;Node6</title>
<path fill="none" stroke="midnightblue" d="M363.24,-465.5C371.741,-465.5 380.312,-465.5 388.729,-465.5"/>
<polygon fill="midnightblue" stroke="midnightblue" points="388.906,-469 398.906,-465.5 388.906,-462 388.906,-469"/>
</g>
<!-- Node6&#45;&gt;Node4 -->
<g id="edge6" class="edge"><title>Node6&#45;&gt;Node4</title>
<path fill="none" stroke="midnightblue" d="M539.767,-480.632C545.474,-483.163 550.989,-486.099 556,-489.5 603.891,-522.006 642.092,-579.603 661.187,-612.215"/>
<polygon fill="midnightblue" stroke="midnightblue" points="658.266,-614.157 666.274,-621.094 664.339,-610.677 658.266,-614.157"/>
</g>
<!-- Node8&#45;&gt;Node7 -->
<g id="edge9" class="edge"><title>Node8&#45;&gt;Node7</title>
<path fill="none" stroke="midnightblue" d="M273.271,-272.122C291.693,-295.853 342.753,-357.701 399,-391.5 402.446,-393.571 406.083,-395.49 409.825,-397.266"/>
<polygon fill="midnightblue" stroke="midnightblue" points="408.732,-400.607 419.298,-401.389 411.526,-394.189 408.732,-400.607"/>
</g>
<!-- Node9 -->
<g id="node9" class="node"><title>Node9</title>
<g id="a_node9"><a xlink:href="class_word_quizzle_1_1_w_q_cli.html#a0637563fc8b57e7e5d7bc623be3047e9" target="_top" xlink:title=" ">
<polygon fill="white" stroke="black" points="415,-313.5 415,-343.5 540,-343.5 540,-313.5 415,-313.5"/>
<text text-anchor="start" x="423" y="-331.5" font-family="Helvetica,sans-Serif" font-size="10.00">WordQuizzle.WQCli.lista</text>
<text text-anchor="middle" x="477.5" y="-320.5" font-family="Helvetica,sans-Serif" font-size="10.00">_amici</text>
</a>
</g>
</g>
<!-- Node8&#45;&gt;Node9 -->
<g id="edge10" class="edge"><title>Node8&#45;&gt;Node9</title>
<path fill="none" stroke="midnightblue" d="M296.609,-272.097C328.459,-282.083 379.1,-297.961 418.548,-310.33"/>
<polygon fill="midnightblue" stroke="midnightblue" points="417.728,-313.741 428.317,-313.393 419.823,-307.061 417.728,-313.741"/>
</g>
<!-- Node8&#45;&gt;Node10 -->
<g id="edge11" class="edge"><title>Node8&#45;&gt;Node10</title>
<path fill="none" stroke="midnightblue" d="M277.288,-272.149C299.264,-290.457 349.95,-330.376 399,-352.5 405.298,-355.341 412.072,-357.832 418.901,-360.003"/>
<polygon fill="midnightblue" stroke="midnightblue" points="418.314,-363.479 428.896,-362.958 420.299,-356.767 418.314,-363.479"/>
</g>
<!-- Node11 -->
<g id="node11" class="node"><title>Node11</title>
<g id="a_node11"><a xlink:href="class_word_quizzle_1_1_w_q_cli.html#a09b72dba431b9d164cc07cdbd58053df" target="_top" xlink:title=" ">
<polygon fill="white" stroke="black" points="410.5,-275 410.5,-294 544.5,-294 544.5,-275 410.5,-275"/>
<text text-anchor="middle" x="477.5" y="-282" font-family="Helvetica,sans-Serif" font-size="10.00">WordQuizzle.WQCli.logout</text>
</a>
</g>
</g>
<!-- Node8&#45;&gt;Node11 -->
<g id="edge12" class="edge"><title>Node8&#45;&gt;Node11</title>
<path fill="none" stroke="midnightblue" d="M327.735,-268.952C350.451,-271.326 376.449,-274.043 400.29,-276.535"/>
<polygon fill="midnightblue" stroke="midnightblue" points="400.051,-280.029 410.36,-277.588 400.778,-273.067 400.051,-280.029"/>
</g>
<!-- Node12 -->
<g id="node12" class="node"><title>Node12</title>
<g id="a_node12"><a xlink:href="class_word_quizzle_1_1_w_q_cli.html#a147c086aad7a54c6162cea04f4a5cea8" target="_top" xlink:title=" ">
<polygon fill="white" stroke="black" points="409,-225.5 409,-255.5 546,-255.5 546,-225.5 409,-225.5"/>
<text text-anchor="start" x="417" y="-243.5" font-family="Helvetica,sans-Serif" font-size="10.00">WordQuizzle.WQCli.mostra</text>
<text text-anchor="middle" x="477.5" y="-232.5" font-family="Helvetica,sans-Serif" font-size="10.00">_classifica</text>
</a>
</g>
</g>
<!-- Node8&#45;&gt;Node12 -->
<g id="edge13" class="edge"><title>Node8&#45;&gt;Node12</title>
<path fill="none" stroke="midnightblue" d="M327.735,-256.048C349.926,-253.729 375.251,-251.082 398.637,-248.638"/>
<polygon fill="midnightblue" stroke="midnightblue" points="399.293,-252.088 408.875,-247.568 398.565,-245.126 399.293,-252.088"/>
</g>
<!-- Node13 -->
<g id="node13" class="node"><title>Node13</title>
<g id="a_node13"><a xlink:href="class_word_quizzle_1_1_w_q_cli.html#a10b2156f5c561a889f7feec6cb7bbacc" target="_top" xlink:title=" ">
<polygon fill="white" stroke="black" points="409,-176.5 409,-206.5 546,-206.5 546,-176.5 409,-176.5"/>
<text text-anchor="start" x="417" y="-194.5" font-family="Helvetica,sans-Serif" font-size="10.00">WordQuizzle.WQCli.mostra</text>
<text text-anchor="middle" x="477.5" y="-183.5" font-family="Helvetica,sans-Serif" font-size="10.00">_punteggio</text>
</a>
</g>
</g>
<!-- Node8&#45;&gt;Node13 -->
<g id="edge14" class="edge"><title>Node8&#45;&gt;Node13</title>
<path fill="none" stroke="midnightblue" d="M292.391,-252.829C319.151,-243.104 361.806,-227.826 399,-215.5 404.879,-213.552 411.024,-211.565 417.172,-209.61"/>
<polygon fill="midnightblue" stroke="midnightblue" points="418.311,-212.921 426.795,-206.575 416.205,-206.245 418.311,-212.921"/>
</g>
<!-- Node14 -->
<g id="node14" class="node"><title>Node14</title>
<g id="a_node14"><a xlink:href="class_word_quizzle_1_1_w_q_cli.html#a07609480f2f51587119199d616ce5ee2" target="_top" xlink:title=" ">
<polygon fill="white" stroke="black" points="416,-138 416,-157 539,-157 539,-138 416,-138"/>
<text text-anchor="middle" x="477.5" y="-145" font-family="Helvetica,sans-Serif" font-size="10.00">WordQuizzle.WQCli.quit</text>
</a>
</g>
</g>
<!-- Node8&#45;&gt;Node14 -->
<g id="edge15" class="edge"><title>Node8&#45;&gt;Node14</title>
<path fill="none" stroke="midnightblue" d="M276.469,-252.713C297.808,-233.3 348.59,-189.791 399,-166.5 404.317,-164.043 409.992,-161.88 415.762,-159.98"/>
<polygon fill="midnightblue" stroke="midnightblue" points="416.958,-163.274 425.514,-157.025 414.928,-156.575 416.958,-163.274"/>
</g>
<!-- Node15 -->
<g id="node15" class="node"><title>Node15</title>
<g id="a_node15"><a xlink:href="class_word_quizzle_1_1_w_q_cli.html#a65cec1c9b0f47f1996351f0fd40f9c4c" target="_top" xlink:title=" ">
<polygon fill="white" stroke="black" points="407.5,-88.5 407.5,-118.5 547.5,-118.5 547.5,-88.5 407.5,-88.5"/>
<text text-anchor="start" x="415.5" y="-106.5" font-family="Helvetica,sans-Serif" font-size="10.00">WordQuizzle.WQCli.registra</text>
<text text-anchor="middle" x="477.5" y="-95.5" font-family="Helvetica,sans-Serif" font-size="10.00">_utente</text>
</a>
</g>
</g>
<!-- Node8&#45;&gt;Node15 -->
<g id="edge16" class="edge"><title>Node8&#45;&gt;Node15</title>
<path fill="none" stroke="midnightblue" d="M272.914,-252.85C290.898,-228.435 341.736,-163.655 399,-128.5 402.36,-126.437 405.908,-124.527 409.563,-122.761"/>
<polygon fill="midnightblue" stroke="midnightblue" points="411.095,-125.91 418.823,-118.662 408.262,-119.509 411.095,-125.91"/>
</g>
<!-- Node8&#45;&gt;Node16 -->
<g id="edge17" class="edge"><title>Node8&#45;&gt;Node16</title>
<path fill="none" stroke="midnightblue" d="M275.282,-252.708C293.446,-233.257 334.409,-187.959 363,-145.5 381.881,-117.46 372.276,-99.2013 399,-78.5 401.44,-76.6097 404.043,-74.9046 406.761,-73.3666"/>
<polygon fill="midnightblue" stroke="midnightblue" points="408.302,-76.5093 415.778,-69.002 405.252,-70.2087 408.302,-76.5093"/>
</g>
<!-- Node18 -->
<g id="node18" class="node"><title>Node18</title>
<g id="a_node18"><a xlink:href="class_word_quizzle_1_1_word_quizzle_client_service.html#ab8db9cd5ff3f755cf306b508741ce7b1" target="_top" xlink:title=" ">
<polygon fill="white" stroke="black" points="399,-793.5 399,-823.5 556,-823.5 556,-793.5 399,-793.5"/>
<text text-anchor="start" x="407" y="-811.5" font-family="Helvetica,sans-Serif" font-size="10.00">WordQuizzle.WordQuizzleClient</text>
<text text-anchor="middle" x="477.5" y="-800.5" font-family="Helvetica,sans-Serif" font-size="10.00">Service.lista_amici</text>
</a>
</g>
</g>
<!-- Node17&#45;&gt;Node18 -->
<g id="edge19" class="edge"><title>Node17&#45;&gt;Node18</title>
<path fill="none" stroke="midnightblue" d="M354.051,-804.428C365.553,-804.811 377.337,-805.202 388.833,-805.585"/>
<polygon fill="midnightblue" stroke="midnightblue" points="388.736,-809.083 398.846,-805.918 388.968,-802.087 388.736,-809.083"/>
</g>
<!-- Node18&#45;&gt;Node4 -->
<g id="edge20" class="edge"><title>Node18&#45;&gt;Node4</title>
<path fill="none" stroke="midnightblue" d="M539.779,-793.385C545.484,-790.851 550.994,-787.91 556,-784.5 604.282,-751.612 642.574,-693.19 661.521,-660.447"/>
<polygon fill="midnightblue" stroke="midnightblue" points="664.677,-661.976 666.558,-651.55 658.585,-658.528 664.677,-661.976"/>
</g>
<!-- Node20 -->
<g id="node20" class="node"><title>Node20</title>
<g id="a_node20"><a xlink:href="class_word_quizzle_1_1_word_quizzle_client_service.html#aa02afd3fa03a290940b6c958e3c57199" target="_top" xlink:title=" ">
<polygon fill="white" stroke="black" points="399,-744.5 399,-774.5 556,-774.5 556,-744.5 399,-744.5"/>
<text text-anchor="start" x="407" y="-762.5" font-family="Helvetica,sans-Serif" font-size="10.00">WordQuizzle.WordQuizzleClient</text>
<text text-anchor="middle" x="477.5" y="-751.5" font-family="Helvetica,sans-Serif" font-size="10.00">Service.login</text>
</a>
</g>
</g>
<!-- Node19&#45;&gt;Node20 -->
<g id="edge22" class="edge"><title>Node19&#45;&gt;Node20</title>
<path fill="none" stroke="midnightblue" d="M355.271,-754.893C366.338,-755.313 377.646,-755.743 388.691,-756.163"/>
<polygon fill="midnightblue" stroke="midnightblue" points="388.62,-759.663 398.746,-756.545 388.886,-752.668 388.62,-759.663"/>
</g>
<!-- Node20&#45;&gt;Node4 -->
<g id="edge23" class="edge"><title>Node20&#45;&gt;Node4</title>
<path fill="none" stroke="midnightblue" d="M536.268,-744.426C543.087,-741.831 549.813,-738.865 556,-735.5 593.708,-714.991 630.605,-681.407 652.953,-659.128"/>
<polygon fill="midnightblue" stroke="midnightblue" points="655.693,-661.334 660.228,-651.759 650.712,-656.416 655.693,-661.334"/>
</g>
<!-- Node22 -->
<g id="node22" class="node"><title>Node22</title>
<g id="a_node22"><a xlink:href="class_word_quizzle_1_1_word_quizzle_client_service.html#a584e77014fba5e13b26af26c6e240bd6" target="_top" xlink:title=" ">
<polygon fill="white" stroke="black" points="399,-695.5 399,-725.5 556,-725.5 556,-695.5 399,-695.5"/>
<text text-anchor="start" x="407" y="-713.5" font-family="Helvetica,sans-Serif" font-size="10.00">WordQuizzle.WordQuizzleClient</text>
<text text-anchor="middle" x="477.5" y="-702.5" font-family="Helvetica,sans-Serif" font-size="10.00">Service.logout</text>
</a>
</g>
</g>
<!-- Node21&#45;&gt;Node22 -->
<g id="edge26" class="edge"><title>Node21&#45;&gt;Node22</title>
<path fill="none" stroke="midnightblue" d="M358.022,-708.249C368.228,-708.443 378.602,-708.64 388.753,-708.833"/>
<polygon fill="midnightblue" stroke="midnightblue" points="388.75,-712.333 398.814,-709.024 388.883,-705.334 388.75,-712.333"/>
</g>
<!-- Node22&#45;&gt;Node4 -->
<g id="edge27" class="edge"><title>Node22&#45;&gt;Node4</title>
<path fill="none" stroke="midnightblue" d="M529.6,-695.463C538.453,-692.634 547.531,-689.589 556,-686.5 581.605,-677.159 609.733,-665.359 632.157,-655.568"/>
<polygon fill="midnightblue" stroke="midnightblue" points="633.648,-658.736 641.394,-651.508 630.831,-652.328 633.648,-658.736"/>
</g>
<!-- Node24 -->
<g id="node24" class="node"><title>Node24</title>
<g id="a_node24"><a xlink:href="class_word_quizzle_1_1_word_quizzle_client_service.html#a972476e61ab3c927ba99af27bc7f58bb" target="_top" xlink:title=" ">
<polygon fill="white" stroke="black" points="399,-646.5 399,-676.5 556,-676.5 556,-646.5 399,-646.5"/>
<text text-anchor="start" x="407" y="-664.5" font-family="Helvetica,sans-Serif" font-size="10.00">WordQuizzle.WordQuizzleClient</text>
<text text-anchor="middle" x="477.5" y="-653.5" font-family="Helvetica,sans-Serif" font-size="10.00">Service.mostra_classifica</text>
</a>
</g>
</g>
<!-- Node23&#45;&gt;Node24 -->
<g id="edge29" class="edge"><title>Node23&#45;&gt;Node24</title>
<path fill="none" stroke="midnightblue" d="M360.168,-660.395C369.654,-660.485 379.261,-660.576 388.677,-660.666"/>
<polygon fill="midnightblue" stroke="midnightblue" points="388.772,-664.167 398.804,-660.762 388.838,-657.167 388.772,-664.167"/>
</g>
<!-- Node24&#45;&gt;Node4 -->
<g id="edge30" class="edge"><title>Node24&#45;&gt;Node4</title>
<path fill="none" stroke="midnightblue" d="M556.246,-651.583C566.266,-650.305 576.581,-648.99 586.748,-647.693"/>
<polygon fill="midnightblue" stroke="midnightblue" points="587.371,-651.142 596.848,-646.405 586.486,-644.198 587.371,-651.142"/>
</g>
<!-- Node26 -->
<g id="node26" class="node"><title>Node26</title>
<g id="a_node26"><a xlink:href="class_word_quizzle_1_1_word_quizzle_client_service.html#a50a062f91fbb470547bde8235f2930d1" target="_top" xlink:title=" ">
<polygon fill="white" stroke="black" points="399,-597.5 399,-627.5 556,-627.5 556,-597.5 399,-597.5"/>
<text text-anchor="start" x="407" y="-615.5" font-family="Helvetica,sans-Serif" font-size="10.00">WordQuizzle.WordQuizzleClient</text>
<text text-anchor="middle" x="477.5" y="-604.5" font-family="Helvetica,sans-Serif" font-size="10.00">Service.mostra_punteggio</text>
</a>
</g>
</g>
<!-- Node25&#45;&gt;Node26 -->
<g id="edge32" class="edge"><title>Node25&#45;&gt;Node26</title>
<path fill="none" stroke="midnightblue" d="M360.168,-610.289C369.654,-610.47 379.261,-610.652 388.677,-610.831"/>
<polygon fill="midnightblue" stroke="midnightblue" points="388.74,-614.333 398.804,-611.024 388.873,-607.334 388.74,-614.333"/>
</g>
<!-- Node26&#45;&gt;Node4 -->
<g id="edge33" class="edge"><title>Node26&#45;&gt;Node4</title>
<path fill="none" stroke="midnightblue" d="M556.246,-622.02C566.266,-623.247 576.581,-624.51 586.748,-625.755"/>
<polygon fill="midnightblue" stroke="midnightblue" points="586.497,-629.25 596.848,-626.992 587.348,-622.302 586.497,-629.25"/>
</g>
<!-- Node28 -->
<g id="node28" class="node"><title>Node28</title>
<g id="a_node28"><a xlink:href="class_word_quizzle_1_1_word_quizzle_client_service.html#a613b0b49460f9d115fc6ba4dae066d3a" target="_top" xlink:title=" ">
<polygon fill="white" stroke="black" points="399,-0.5 399,-30.5 556,-30.5 556,-0.5 399,-0.5"/>
<text text-anchor="start" x="407" y="-18.5" font-family="Helvetica,sans-Serif" font-size="10.00">WordQuizzle.WordQuizzleClient</text>
<text text-anchor="middle" x="477.5" y="-7.5" font-family="Helvetica,sans-Serif" font-size="10.00">Service.registra_utente</text>
</a>
</g>
</g>
<!-- Node27&#45;&gt;Node28 -->
<g id="edge35" class="edge"><title>Node27&#45;&gt;Node28</title>
<path fill="none" stroke="midnightblue" d="M353.747,-36.4934C365.351,-34.5088 377.248,-32.4743 388.851,-30.4899"/>
<polygon fill="midnightblue" stroke="midnightblue" points="389.69,-33.8973 398.957,-28.7616 388.51,-26.9975 389.69,-33.8973"/>
</g>
<!-- Node29 -->
<g id="node29" class="node"><title>Node29</title>
<g id="a_node29"><a xlink:href="interface_word_quizzle_1_1_user_registry.html#ac029b14906c71f2843e0da7f53dc3fb6" target="_top" xlink:title=" ">
<polygon fill="white" stroke="black" points="592,-0.5 592,-30.5 759,-30.5 759,-0.5 592,-0.5"/>
<text text-anchor="start" x="600" y="-18.5" font-family="Helvetica,sans-Serif" font-size="10.00">WordQuizzle.UserRegistry.registra</text>
<text text-anchor="middle" x="675.5" y="-7.5" font-family="Helvetica,sans-Serif" font-size="10.00">_utente</text>
</a>
</g>
</g>
<!-- Node28&#45;&gt;Node29 -->
<g id="edge36" class="edge"><title>Node28&#45;&gt;Node29</title>
<path fill="none" stroke="midnightblue" d="M556.246,-15.5C564.528,-15.5 573.012,-15.5 581.447,-15.5"/>
<polygon fill="midnightblue" stroke="midnightblue" points="581.695,-19.0001 591.695,-15.5 581.695,-12.0001 581.695,-19.0001"/>
</g>
<!-- Node31 -->
<g id="node31" class="node"><title>Node31</title>
<g id="a_node31"><a xlink:href="class_word_quizzle_1_1_word_quizzle_client_service.html#a7eef869e03ee5f68139882d98de88c1f" target="_top" xlink:title=" ">
<polygon fill="white" stroke="black" points="399,-548.5 399,-578.5 556,-578.5 556,-548.5 399,-548.5"/>
<text text-anchor="start" x="407" y="-566.5" font-family="Helvetica,sans-Serif" font-size="10.00">WordQuizzle.WordQuizzleClient</text>
<text text-anchor="middle" x="477.5" y="-555.5" font-family="Helvetica,sans-Serif" font-size="10.00">Service.sfida</text>
</a>
</g>
</g>
<!-- Node30&#45;&gt;Node31 -->
<g id="edge38" class="edge"><title>Node30&#45;&gt;Node31</title>
<path fill="none" stroke="midnightblue" d="M355.271,-561.772C366.338,-561.93 377.646,-562.091 388.691,-562.249"/>
<polygon fill="midnightblue" stroke="midnightblue" points="388.697,-565.749 398.746,-562.392 388.797,-558.75 388.697,-565.749"/>
</g>
<!-- Node31&#45;&gt;Node4 -->
<g id="edge39" class="edge"><title>Node31&#45;&gt;Node4</title>
<path fill="none" stroke="midnightblue" d="M527.055,-578.563C536.689,-581.721 546.698,-585.121 556,-588.5 580.625,-597.446 607.733,-608.346 629.8,-617.497"/>
<polygon fill="midnightblue" stroke="midnightblue" points="628.665,-620.816 639.241,-621.433 631.358,-614.355 628.665,-620.816"/>
</g>
</g>
</svg>
        <g id="navigator" transform="translate(0 0)" fill="#404254">
                <rect fill="#f2f5e9" fill-opacity="0.5" stroke="#606060" stroke-width=".5" x="0" y="0" width="60" height="60"/>
                <use id="zoomplus" xlink:href="#zoomPlus" x="17" y="9" onmousedown="handleZoom(evt,'in')"/>
                <use id="zoomminus" xlink:href="#zoomMin" x="42" y="9" onmousedown="handleZoom(evt,'out')"/>
                <use id="reset" xlink:href="#resetDef" x="30" y="36" onmousedown="handleReset()"/>
                <g id="arrowUp" xlink:href="#dirArrow" transform="translate(30 24)" onmousedown="handlePan(0,-1)">
                  <use xlink:href="#rim" fill="#404040">
                        <set attributeName="fill" to="#808080" begin="arrowUp.mouseover" end="arrowUp.mouseout"/>
                  </use>
                  <path fill="none" stroke="white" stroke-width="1.5" d="M0,-3.0v7 M-2.5,-0.5L0,-3.0L2.5,-0.5"/>
                </g>
                <g id="arrowRight" xlink:href="#dirArrow" transform="rotate(90) translate(36 -43)" onmousedown="handlePan(1,0)">
                  <use xlink:href="#rim" fill="#404040">
                        <set attributeName="fill" to="#808080" begin="arrowRight.mouseover" end="arrowRight.mouseout"/>
                  </use>
                  <path fill="none" stroke="white" stroke-width="1.5" d="M0,-3.0v7 M-2.5,-0.5L0,-3.0L2.5,-0.5"/>
                </g>
                <g id="arrowDown" xlink:href="#dirArrow" transform="rotate(180) translate(-30 -48)" onmousedown="handlePan(0,1)">
                  <use xlink:href="#rim" fill="#404040">
                        <set attributeName="fill" to="#808080" begin="arrowDown.mouseover" end="arrowDown.mouseout"/>
                  </use>
                  <path fill="none" stroke="white" stroke-width="1.5" d="M0,-3.0v7 M-2.5,-0.5L0,-3.0L2.5,-0.5"/>
                </g>
                <g id="arrowLeft" xlink:href="#dirArrow" transform="rotate(270) translate(-36 17)" onmousedown="handlePan(-1,0)">
                  <use xlink:href="#rim" fill="#404040">
                        <set attributeName="fill" to="#808080" begin="arrowLeft.mouseover" end="arrowLeft.mouseout"/>
                  </use>
                  <path fill="none" stroke="white" stroke-width="1.5" d="M0,-3.0v7 M-2.5,-0.5L0,-3.0L2.5,-0.5"/>
                </g>
        </g>
        <svg viewBox="0 0 15 15" width="100%" height="30px" preserveAspectRatio="xMaxYMin meet">
         <g id="arrow_out" transform="scale(0.3 0.3)">
          <a xlink:href="class_word_quizzle_1_1_w_q_cli_a318ef86f91a825da4ff4684bd3332a6b_cgraph_org.svg" target="_base">
           <rect id="button" ry="5" rx="5" y="6" x="6" height="38" width="38"
                fill="#f2f5e9" fill-opacity="0.5" stroke="#606060" stroke-width="1.0"/>
           <path id="arrow"
             d="M 11.500037,31.436501 C 11.940474,20.09759 22.043105,11.32322 32.158766,21.979434 L 37.068811,17.246167 C 37.068811,17.246167 37.088388,32 37.088388,32 L 22.160133,31.978069 C 22.160133,31.978069 26.997745,27.140456 26.997745,27.140456 C 18.528582,18.264221 13.291696,25.230495 11.500037,31.436501 z"
             style="fill:#404040;"/>
          </a>
         </g>
        </svg>
</svg>
