<?xml version="1.0" encoding="UTF-8" standalone="no"?>
<!DOCTYPE svg PUBLIC "-//W3C//DTD SVG 1.1//EN"
 "http://www.w3.org/Graphics/SVG/1.1/DTD/svg11.dtd">
<!-- Generated by graphviz version 2.38.0 (20140413.2041)
 -->
<!-- Title: WordQuizzleServerService.login Pages: 1 -->
<svg width="308pt" height="142pt"
 viewBox="0.00 0.00 308.00 142.00" xmlns="http://www.w3.org/2000/svg" xmlns:xlink="http://www.w3.org/1999/xlink">
<g id="graph0" class="graph" transform="scale(1 1) rotate(0) translate(4 138)">
<title>WordQuizzleServerService.login</title>
<polygon fill="white" stroke="none" points="-4,4 -4,-138 304,-138 304,4 -4,4"/>
<!-- Node1 -->
<g id="node1" class="node"><title>Node1</title>
<g id="a_node1"><a xlink:title="Effettua il login specificando l&#39;indirizzo per la connessione UDP.">
<polygon fill="#bfbfbf" stroke="black" points="0,-57.5 0,-76.5 155,-76.5 155,-57.5 0,-57.5"/>
<text text-anchor="middle" x="77.5" y="-64.5" font-family="Helvetica,sans-Serif" font-size="10.00">WordQuizzleServerService.login</text>
</a>
</g>
</g>
<!-- Node2 -->
<g id="node2" class="node"><title>Node2</title>
<g id="a_node2"><a xlink:href="interface_data_base.html#a580f93c56dbbed8b2fb1fc2e856efe68" target="_top" xlink:title="Controlla che quel nome utente sia nel database.">
<polygon fill="white" stroke="black" points="191,-114.5 191,-133.5 300,-133.5 300,-114.5 191,-114.5"/>
<text text-anchor="middle" x="245.5" y="-121.5" font-family="Helvetica,sans-Serif" font-size="10.00">DataBase.checkUser</text>
</a>
</g>
</g>
<!-- Node1&#45;&gt;Node2 -->
<g id="edge1" class="edge"><title>Node1&#45;&gt;Node2</title>
<path fill="none" stroke="midnightblue" d="M106.285,-76.5405C133.935,-86.0349 176.547,-100.667 207.146,-111.174"/>
<polygon fill="midnightblue" stroke="midnightblue" points="206.03,-114.491 216.625,-114.428 208.303,-107.87 206.03,-114.491"/>
</g>
<!-- Node3 -->
<g id="node3" class="node"><title>Node3</title>
<g id="a_node3"><a xlink:href="class_user.html#a1612cd6eef2a6e09ab5e72033b2aad00" target="_top" xlink:title="Restituisce la password dell&#39;utente.">
<polygon fill="white" stroke="black" points="197.5,-76.5 197.5,-95.5 293.5,-95.5 293.5,-76.5 197.5,-76.5"/>
<text text-anchor="middle" x="245.5" y="-83.5" font-family="Helvetica,sans-Serif" font-size="10.00">User.getPassword</text>
</a>
</g>
</g>
<!-- Node1&#45;&gt;Node3 -->
<g id="edge2" class="edge"><title>Node1&#45;&gt;Node3</title>
<path fill="none" stroke="midnightblue" d="M155.183,-75.777C165.887,-77.0021 176.732,-78.2434 187,-79.4187"/>
<polygon fill="midnightblue" stroke="midnightblue" points="186.716,-82.9089 197.049,-80.5689 187.512,-75.9543 186.716,-82.9089"/>
</g>
<!-- Node4 -->
<g id="node4" class="node"><title>Node4</title>
<g id="a_node4"><a xlink:href="interface_data_base.html#af660eaf16066006da658ac99fa3f6936" target="_top" xlink:title="Dato un nome utente ottiene l&#39;oggetto User corrispondente.">
<polygon fill="white" stroke="black" points="197.5,-38.5 197.5,-57.5 293.5,-57.5 293.5,-38.5 197.5,-38.5"/>
<text text-anchor="middle" x="245.5" y="-45.5" font-family="Helvetica,sans-Serif" font-size="10.00">DataBase.getUser</text>
</a>
</g>
</g>
<!-- Node1&#45;&gt;Node4 -->
<g id="edge3" class="edge"><title>Node1&#45;&gt;Node4</title>
<path fill="none" stroke="midnightblue" d="M155.183,-58.223C165.887,-56.9979 176.732,-55.7566 187,-54.5813"/>
<polygon fill="midnightblue" stroke="midnightblue" points="187.512,-58.0457 197.049,-53.4311 186.716,-51.0911 187.512,-58.0457"/>
</g>
<!-- Node5 -->
<g id="node5" class="node"><title>Node5</title>
<g id="a_node5"><a xlink:href="class_session.html#aeb6b2a4acab3e9a3f866e9295999b1b6" target="_top" xlink:title="Imposta l&#39;indirizzo UDP del client a cui inviare le richieste di sfida.">
<polygon fill="white" stroke="black" points="202.5,-0.5 202.5,-19.5 288.5,-19.5 288.5,-0.5 202.5,-0.5"/>
<text text-anchor="middle" x="245.5" y="-7.5" font-family="Helvetica,sans-Serif" font-size="10.00">Session.setUdp</text>
</a>
</g>
</g>
<!-- Node1&#45;&gt;Node5 -->
<g id="edge4" class="edge"><title>Node1&#45;&gt;Node5</title>
<path fill="none" stroke="midnightblue" d="M106.285,-57.4595C133.935,-47.9651 176.547,-33.3332 207.146,-22.8263"/>
<polygon fill="midnightblue" stroke="midnightblue" points="208.303,-26.1296 216.625,-19.5716 206.03,-19.509 208.303,-26.1296"/>
</g>
</g>
</svg>
