<?xml version="1.0" encoding="UTF-8" standalone="no"?>
<!DOCTYPE svg PUBLIC "-//W3C//DTD SVG 1.1//EN"
 "http://www.w3.org/Graphics/SVG/1.1/DTD/svg11.dtd">
<!-- Generated by graphviz version 2.38.0 (20140413.2041)
 -->
<!-- Title: WordQuizzleServerService.mostra_classifica Pages: 1 -->
<svg width="317pt" height="142pt"
 viewBox="0.00 0.00 317.00 142.00" xmlns="http://www.w3.org/2000/svg" xmlns:xlink="http://www.w3.org/1999/xlink">
<g id="graph0" class="graph" transform="scale(1 1) rotate(0) translate(4 138)">
<title>WordQuizzleServerService.mostra_classifica</title>
<polygon fill="white" stroke="none" points="-4,4 -4,-138 313,-138 313,4 -4,4"/>
<!-- Node1 -->
<g id="node1" class="node"><title>Node1</title>
<g id="a_node1"><a xlink:title="Restituisce la classifica dell&#39;utente e dei suoi amici.">
<polygon fill="#bfbfbf" stroke="black" points="0,-52 0,-82 164,-82 164,-52 0,-52"/>
<text text-anchor="start" x="8" y="-70" font-family="Helvetica,sans-Serif" font-size="10.00">WordQuizzleServerService.mostra</text>
<text text-anchor="middle" x="82" y="-59" font-family="Helvetica,sans-Serif" font-size="10.00">_classifica</text>
</a>
</g>
</g>
<!-- Node2 -->
<g id="node2" class="node"><title>Node2</title>
<g id="a_node2"><a xlink:href="interface_data_base.html#a580f93c56dbbed8b2fb1fc2e856efe68" target="_top" xlink:title="Controlla che quel nome utente sia nel database.">
<polygon fill="white" stroke="black" points="200,-114.5 200,-133.5 309,-133.5 309,-114.5 200,-114.5"/>
<text text-anchor="middle" x="254.5" y="-121.5" font-family="Helvetica,sans-Serif" font-size="10.00">DataBase.checkUser</text>
</a>
</g>
</g>
<!-- Node1&#45;&gt;Node2 -->
<g id="edge1" class="edge"><title>Node1&#45;&gt;Node2</title>
<path fill="none" stroke="midnightblue" d="M128.243,-82.1253C155.329,-91.1805 189.384,-102.565 215.145,-111.178"/>
<polygon fill="midnightblue" stroke="midnightblue" points="214.336,-114.597 224.93,-114.449 216.556,-107.959 214.336,-114.597"/>
</g>
<!-- Node3 -->
<g id="node3" class="node"><title>Node3</title>
<g id="a_node3"><a xlink:href="class_user.html#acd2375afad399d1deb32cb9667b8a1cd" target="_top" xlink:title="Restituisce la lista di amici dell&#39;utente.">
<polygon fill="white" stroke="black" points="211.5,-76.5 211.5,-95.5 297.5,-95.5 297.5,-76.5 211.5,-76.5"/>
<text text-anchor="middle" x="254.5" y="-83.5" font-family="Helvetica,sans-Serif" font-size="10.00">User.getFriends</text>
</a>
</g>
</g>
<!-- Node1&#45;&gt;Node3 -->
<g id="edge2" class="edge"><title>Node1&#45;&gt;Node3</title>
<path fill="none" stroke="midnightblue" d="M164.255,-76.0548C176.859,-77.4594 189.58,-78.877 201.312,-80.1844"/>
<polygon fill="midnightblue" stroke="midnightblue" points="201.014,-83.6727 211.34,-81.3018 201.789,-76.7158 201.014,-83.6727"/>
</g>
<!-- Node4 -->
<g id="node4" class="node"><title>Node4</title>
<g id="a_node4"><a xlink:href="class_user.html#a6c657437f72c2867ca353762cfbcf400" target="_top" xlink:title="Restituisce il punteggio dell&#39;utente.">
<polygon fill="white" stroke="black" points="215,-38.5 215,-57.5 294,-57.5 294,-38.5 215,-38.5"/>
<text text-anchor="middle" x="254.5" y="-45.5" font-family="Helvetica,sans-Serif" font-size="10.00">User.getScore</text>
</a>
</g>
</g>
<!-- Node1&#45;&gt;Node4 -->
<g id="edge3" class="edge"><title>Node1&#45;&gt;Node4</title>
<path fill="none" stroke="midnightblue" d="M164.255,-57.9452C178.059,-56.4069 192.002,-54.8531 204.634,-53.4455"/>
<polygon fill="midnightblue" stroke="midnightblue" points="205.353,-56.8871 214.904,-52.301 204.578,-49.9301 205.353,-56.8871"/>
</g>
<!-- Node5 -->
<g id="node5" class="node"><title>Node5</title>
<g id="a_node5"><a xlink:href="interface_data_base.html#af660eaf16066006da658ac99fa3f6936" target="_top" xlink:title="Dato un nome utente ottiene l&#39;oggetto User corrispondente.">
<polygon fill="white" stroke="black" points="206.5,-0.5 206.5,-19.5 302.5,-19.5 302.5,-0.5 206.5,-0.5"/>
<text text-anchor="middle" x="254.5" y="-7.5" font-family="Helvetica,sans-Serif" font-size="10.00">DataBase.getUser</text>
</a>
</g>
</g>
<!-- Node1&#45;&gt;Node5 -->
<g id="edge4" class="edge"><title>Node1&#45;&gt;Node5</title>
<path fill="none" stroke="midnightblue" d="M128.243,-51.8747C155.329,-42.8195 189.384,-31.4346 215.145,-22.8224"/>
<polygon fill="midnightblue" stroke="midnightblue" points="216.556,-26.0414 224.93,-19.5513 214.336,-19.4026 216.556,-26.0414"/>
</g>
</g>
</svg>
