<?xml version="1.0" encoding="UTF-8" standalone="no"?>
<!DOCTYPE svg PUBLIC "-//W3C//DTD SVG 1.1//EN"
 "http://www.w3.org/Graphics/SVG/1.1/DTD/svg11.dtd">
<!-- Generated by graphviz version 2.38.0 (20140413.2041)
 -->
<!-- Title: WordQuizzle.DataBaseJSON Pages: 1 -->
<svg width="451pt" height="430pt"
 viewBox="0.00 0.00 450.50 430.00" xmlns="http://www.w3.org/2000/svg" xmlns:xlink="http://www.w3.org/1999/xlink">
<g id="graph0" class="graph" transform="scale(1 1) rotate(0) translate(4 426)">
<title>WordQuizzle.DataBaseJSON</title>
<polygon fill="white" stroke="none" points="-4,4 -4,-426 446.5,-426 446.5,4 -4,4"/>
<!-- Node1 -->
<g id="node1" class="node"><title>Node1</title>
<g id="a_node1"><a xlink:title="Database che gestisce gli utenti tramite un file JSON.">
<polygon fill="#bfbfbf" stroke="black" points="237.5,-0.5 237.5,-145.5 381.5,-145.5 381.5,-0.5 237.5,-0.5"/>
<text text-anchor="middle" x="309.5" y="-133.5" font-family="Helvetica,sans-Serif" font-size="10.00">WordQuizzle.DataBaseJSON</text>
<polyline fill="none" stroke="black" points="237.5,-126.5 381.5,-126.5 "/>
<text text-anchor="start" x="245.5" y="-114.5" font-family="Helvetica,sans-Serif" font-size="10.00">&#45; path</text>
<polyline fill="none" stroke="black" points="237.5,-107.5 381.5,-107.5 "/>
<text text-anchor="start" x="245.5" y="-95.5" font-family="Helvetica,sans-Serif" font-size="10.00">+ DataBaseJSON()</text>
<text text-anchor="start" x="245.5" y="-84.5" font-family="Helvetica,sans-Serif" font-size="10.00">+ checkUser()</text>
<text text-anchor="start" x="245.5" y="-73.5" font-family="Helvetica,sans-Serif" font-size="10.00">+ getUser()</text>
<text text-anchor="start" x="245.5" y="-62.5" font-family="Helvetica,sans-Serif" font-size="10.00">+ newUser()</text>
<text text-anchor="start" x="245.5" y="-51.5" font-family="Helvetica,sans-Serif" font-size="10.00">+ modifyScore()</text>
<text text-anchor="start" x="245.5" y="-40.5" font-family="Helvetica,sans-Serif" font-size="10.00">+ link()</text>
<text text-anchor="start" x="245.5" y="-29.5" font-family="Helvetica,sans-Serif" font-size="10.00">+ toString()</text>
<text text-anchor="start" x="245.5" y="-18.5" font-family="Helvetica,sans-Serif" font-size="10.00">&#45; writeJSON()</text>
<text text-anchor="start" x="245.5" y="-7.5" font-family="Helvetica,sans-Serif" font-size="10.00">&#45; readJSON()</text>
</a>
</g>
</g>
<!-- Node2 -->
<g id="node2" class="node"><title>Node2</title>
<g id="a_node2"><a xlink:href="interface_word_quizzle_1_1_data_base.html" target="_top" xlink:title="Database che gestisce gli utenti.">
<polygon fill="white" stroke="black" points="0,-204.5 0,-305.5 119,-305.5 119,-204.5 0,-204.5"/>
<text text-anchor="middle" x="59.5" y="-293.5" font-family="Helvetica,sans-Serif" font-size="10.00">WordQuizzle.DataBase</text>
<polyline fill="none" stroke="black" points="0,-286.5 119,-286.5 "/>
<text text-anchor="middle" x="59.5" y="-274.5" font-family="Helvetica,sans-Serif" font-size="10.00"> </text>
<polyline fill="none" stroke="black" points="0,-267.5 119,-267.5 "/>
<text text-anchor="start" x="8" y="-255.5" font-family="Helvetica,sans-Serif" font-size="10.00">+ checkUser()</text>
<text text-anchor="start" x="8" y="-244.5" font-family="Helvetica,sans-Serif" font-size="10.00">+ getUser()</text>
<text text-anchor="start" x="8" y="-233.5" font-family="Helvetica,sans-Serif" font-size="10.00">+ newUser()</text>
<text text-anchor="start" x="8" y="-222.5" font-family="Helvetica,sans-Serif" font-size="10.00">+ modifyScore()</text>
<text text-anchor="start" x="8" y="-211.5" font-family="Helvetica,sans-Serif" font-size="10.00">+ link()</text>
</a>
</g>
</g>
<!-- Node2&#45;&gt;Node1 -->
<g id="edge1" class="edge"><title>Node2&#45;&gt;Node1</title>
<path fill="none" stroke="midnightblue" d="M127.244,-204.186C127.329,-204.124 127.415,-204.062 127.5,-204 163.5,-177.909 203.705,-149.152 237.153,-125.332"/>
<polygon fill="none" stroke="midnightblue" points="125.202,-201.343 119.17,-210.053 129.317,-207.006 125.202,-201.343"/>
</g>
<!-- Node3 -->
<g id="node3" class="node"><title>Node3</title>
<g id="a_node3"><a xlink:title=" ">
<polygon fill="white" stroke="#bfbfbf" points="137,-221 137,-289 272,-289 272,-221 137,-221"/>
<text text-anchor="start" x="145" y="-277" font-family="Helvetica,sans-Serif" font-size="10.00">Map&lt; String, WordQuizzle.</text>
<text text-anchor="middle" x="204.5" y="-266" font-family="Helvetica,sans-Serif" font-size="10.00">User &gt;</text>
<polyline fill="none" stroke="#bfbfbf" points="137,-259 272,-259 "/>
<text text-anchor="middle" x="204.5" y="-247" font-family="Helvetica,sans-Serif" font-size="10.00"> </text>
<polyline fill="none" stroke="#bfbfbf" points="137,-240 272,-240 "/>
<text text-anchor="middle" x="204.5" y="-228" font-family="Helvetica,sans-Serif" font-size="10.00"> </text>
</a>
</g>
</g>
<!-- Node3&#45;&gt;Node1 -->
<g id="edge2" class="edge"><title>Node3&#45;&gt;Node1</title>
<path fill="none" stroke="#404040" d="M223.759,-220.985C234.438,-202.678 248.234,-179.028 261.625,-156.071"/>
<polygon fill="none" stroke="#404040" points="261.691,-155.959 261.259,-148.76 267.737,-145.593 268.169,-152.791 261.691,-155.959"/>
<text text-anchor="middle" x="273" y="-172.5" font-family="Helvetica,sans-Serif" font-size="10.00"> &#45;users</text>
</g>
<!-- Node4 -->
<g id="node4" class="node"><title>Node4</title>
<g id="a_node4"><a xlink:title=" ">
<polygon fill="white" stroke="#bfbfbf" points="187,-364.5 187,-421.5 222,-421.5 222,-364.5 187,-364.5"/>
<text text-anchor="middle" x="204.5" y="-409.5" font-family="Helvetica,sans-Serif" font-size="10.00">Map</text>
<polyline fill="none" stroke="#bfbfbf" points="187,-402.5 222,-402.5 "/>
<text text-anchor="middle" x="204.5" y="-390.5" font-family="Helvetica,sans-Serif" font-size="10.00"> </text>
<polyline fill="none" stroke="#bfbfbf" points="187,-383.5 222,-383.5 "/>
<text text-anchor="middle" x="204.5" y="-371.5" font-family="Helvetica,sans-Serif" font-size="10.00"> </text>
</a>
</g>
</g>
<!-- Node4&#45;&gt;Node3 -->
<g id="edge3" class="edge"><title>Node4&#45;&gt;Node3</title>
<path fill="none" stroke="orange" d="M204.5,-354.28C204.5,-333.88 204.5,-308.913 204.5,-289.248"/>
<polygon fill="orange" stroke="orange" points="201,-354.478 204.5,-364.478 208,-354.478 201,-354.478"/>
<text text-anchor="start" x="204.5" y="-338" font-family="Helvetica,sans-Serif" font-size="10.00"> &lt; String, WordQuizzle</text>
<text text-anchor="middle" x="254.5" y="-327" font-family="Helvetica,sans-Serif" font-size="10.00">::User &gt;</text>
</g>
<!-- Node5 -->
<g id="node5" class="node"><title>Node5</title>
<g id="a_node5"><a xlink:title=" ">
<polygon fill="white" stroke="#bfbfbf" points="290.5,-226.5 290.5,-283.5 328.5,-283.5 328.5,-226.5 290.5,-226.5"/>
<text text-anchor="middle" x="309.5" y="-271.5" font-family="Helvetica,sans-Serif" font-size="10.00">Type</text>
<polyline fill="none" stroke="#bfbfbf" points="290.5,-264.5 328.5,-264.5 "/>
<text text-anchor="middle" x="309.5" y="-252.5" font-family="Helvetica,sans-Serif" font-size="10.00"> </text>
<polyline fill="none" stroke="#bfbfbf" points="290.5,-245.5 328.5,-245.5 "/>
<text text-anchor="middle" x="309.5" y="-233.5" font-family="Helvetica,sans-Serif" font-size="10.00"> </text>
</a>
</g>
</g>
<!-- Node5&#45;&gt;Node1 -->
<g id="edge4" class="edge"><title>Node5&#45;&gt;Node1</title>
<path fill="none" stroke="#404040" d="M309.5,-226.269C309.5,-207.794 309.5,-182.453 309.5,-157.743"/>
<polygon fill="none" stroke="#404040" points="309.5,-157.696 305.5,-151.696 309.5,-145.696 313.5,-151.696 309.5,-157.696"/>
<text text-anchor="middle" x="322" y="-172.5" font-family="Helvetica,sans-Serif" font-size="10.00"> &#45;type</text>
</g>
<!-- Node6 -->
<g id="node6" class="node"><title>Node6</title>
<g id="a_node6"><a xlink:title=" ">
<polygon fill="white" stroke="#bfbfbf" points="346.5,-226.5 346.5,-283.5 386.5,-283.5 386.5,-226.5 346.5,-226.5"/>
<text text-anchor="middle" x="366.5" y="-271.5" font-family="Helvetica,sans-Serif" font-size="10.00">Gson</text>
<polyline fill="none" stroke="#bfbfbf" points="346.5,-264.5 386.5,-264.5 "/>
<text text-anchor="middle" x="366.5" y="-252.5" font-family="Helvetica,sans-Serif" font-size="10.00"> </text>
<polyline fill="none" stroke="#bfbfbf" points="346.5,-245.5 386.5,-245.5 "/>
<text text-anchor="middle" x="366.5" y="-233.5" font-family="Helvetica,sans-Serif" font-size="10.00"> </text>
</a>
</g>
</g>
<!-- Node6&#45;&gt;Node1 -->
<g id="edge5" class="edge"><title>Node6&#45;&gt;Node1</title>
<path fill="none" stroke="#404040" d="M357.994,-226.405C352.481,-208.583 345.12,-184.904 338.5,-164 337.794,-161.77 337.076,-159.509 336.351,-157.228"/>
<polygon fill="none" stroke="#404040" points="336.321,-157.135 330.688,-152.633 332.676,-145.702 338.31,-150.203 336.321,-157.135"/>
<text text-anchor="middle" x="359.5" y="-172.5" font-family="Helvetica,sans-Serif" font-size="10.00"> &#45;gson</text>
</g>
<!-- Node7 -->
<g id="node7" class="node"><title>Node7</title>
<g id="a_node7"><a xlink:title=" ">
<polygon fill="white" stroke="#bfbfbf" points="404.5,-226.5 404.5,-283.5 442.5,-283.5 442.5,-226.5 404.5,-226.5"/>
<text text-anchor="middle" x="423.5" y="-271.5" font-family="Helvetica,sans-Serif" font-size="10.00">Lock</text>
<polyline fill="none" stroke="#bfbfbf" points="404.5,-264.5 442.5,-264.5 "/>
<text text-anchor="middle" x="423.5" y="-252.5" font-family="Helvetica,sans-Serif" font-size="10.00"> </text>
<polyline fill="none" stroke="#bfbfbf" points="404.5,-245.5 442.5,-245.5 "/>
<text text-anchor="middle" x="423.5" y="-233.5" font-family="Helvetica,sans-Serif" font-size="10.00"> </text>
</a>
</g>
</g>
<!-- Node7&#45;&gt;Node1 -->
<g id="edge6" class="edge"><title>Node7&#45;&gt;Node1</title>
<path fill="none" stroke="#404040" d="M410.815,-226.141C402.183,-208.004 390.079,-184.074 377.5,-164 375.78,-161.255 373.999,-158.49 372.171,-155.717"/>
<polygon fill="none" stroke="#404040" points="372.1,-155.613 365.425,-152.885 365.376,-145.674 372.051,-148.402 372.1,-155.613"/>
<text text-anchor="middle" x="403" y="-178" font-family="Helvetica,sans-Serif" font-size="10.00"> &#45;read</text>
<text text-anchor="middle" x="403" y="-167" font-family="Helvetica,sans-Serif" font-size="10.00">&#45;write</text>
</g>
</g>
</svg>
