<?xml version="1.0" encoding="UTF-8" standalone="no"?>
<!DOCTYPE svg PUBLIC "-//W3C//DTD SVG 1.1//EN"
 "http://www.w3.org/Graphics/SVG/1.1/DTD/svg11.dtd">
<!-- Generated by graphviz version 2.38.0 (20140413.2041)
 -->
<!-- Title: WordQuizzle.WQGui.main Pages: 1 -->
<svg width="1112pt" height="88pt"
 viewBox="0.00 0.00 1112.00 88.00" xmlns="http://www.w3.org/2000/svg" xmlns:xlink="http://www.w3.org/1999/xlink">
<g id="graph0" class="graph" transform="scale(1 1) rotate(0) translate(4 84)">
<title>WordQuizzle.WQGui.main</title>
<polygon fill="white" stroke="none" points="-4,4 -4,-84 1108,-84 1108,4 -4,4"/>
<!-- Node1 -->
<g id="node1" class="node"><title>Node1</title>
<g id="a_node1"><a xlink:title=" ">
<polygon fill="#bfbfbf" stroke="black" points="0,-30 0,-49 132,-49 132,-30 0,-30"/>
<text text-anchor="middle" x="66" y="-37" font-family="Helvetica,sans-Serif" font-size="10.00">WordQuizzle.WQGui.main</text>
</a>
</g>
</g>
<!-- Node2 -->
<g id="node2" class="node"><title>Node2</title>
<g id="a_node2"><a xlink:href="class_word_quizzle_1_1_w_q_gui.html#a0e08347bf2107460ca41d63036fdc6ad" target="_top" xlink:title=" ">
<polygon fill="white" stroke="black" points="168,-30 168,-49 303,-49 303,-30 168,-30"/>
<text text-anchor="middle" x="235.5" y="-37" font-family="Helvetica,sans-Serif" font-size="10.00">WordQuizzle.WQGui.make</text>
</a>
</g>
</g>
<!-- Node1&#45;&gt;Node2 -->
<g id="edge1" class="edge"><title>Node1&#45;&gt;Node2</title>
<path fill="none" stroke="midnightblue" d="M132.239,-39.5C140.533,-39.5 149.082,-39.5 157.538,-39.5"/>
<polygon fill="midnightblue" stroke="midnightblue" points="157.783,-43.0001 167.783,-39.5 157.783,-36.0001 157.783,-43.0001"/>
</g>
<!-- Node3 -->
<g id="node3" class="node"><title>Node3</title>
<g id="a_node3"><a xlink:href="class_word_quizzle_1_1_word_quizzle_client.html#a50468f5e79e6bba9efc2e9fd19493345" target="_top" xlink:title=" ">
<polygon fill="white" stroke="black" points="339,-30 339,-49 525,-49 525,-30 339,-30"/>
<text text-anchor="middle" x="432" y="-37" font-family="Helvetica,sans-Serif" font-size="10.00">WordQuizzle.WordQuizzleClient.logout</text>
</a>
</g>
</g>
<!-- Node2&#45;&gt;Node3 -->
<g id="edge2" class="edge"><title>Node2&#45;&gt;Node3</title>
<path fill="none" stroke="midnightblue" d="M303.164,-39.5C311.463,-39.5 320.093,-39.5 328.776,-39.5"/>
<polygon fill="midnightblue" stroke="midnightblue" points="328.977,-43.0001 338.977,-39.5 328.977,-36.0001 328.977,-43.0001"/>
</g>
<!-- Node4 -->
<g id="node4" class="node"><title>Node4</title>
<g id="a_node4"><a xlink:href="class_word_quizzle_1_1_word_quizzle_client_service.html#a584e77014fba5e13b26af26c6e240bd6" target="_top" xlink:title=" ">
<polygon fill="white" stroke="black" points="561,-24.5 561,-54.5 718,-54.5 718,-24.5 561,-24.5"/>
<text text-anchor="start" x="569" y="-42.5" font-family="Helvetica,sans-Serif" font-size="10.00">WordQuizzle.WordQuizzleClient</text>
<text text-anchor="middle" x="639.5" y="-31.5" font-family="Helvetica,sans-Serif" font-size="10.00">Service.logout</text>
</a>
</g>
</g>
<!-- Node3&#45;&gt;Node4 -->
<g id="edge3" class="edge"><title>Node3&#45;&gt;Node4</title>
<path fill="none" stroke="midnightblue" d="M525.231,-39.5C533.651,-39.5 542.166,-39.5 550.547,-39.5"/>
<polygon fill="midnightblue" stroke="midnightblue" points="550.689,-43.0001 560.689,-39.5 550.688,-36.0001 550.689,-43.0001"/>
</g>
<!-- Node5 -->
<g id="node5" class="node"><title>Node5</title>
<g id="a_node5"><a xlink:href="class_word_quizzle_1_1_word_quizzle_client_service.html#a0ed33ad0199840ae1847c4ecbc992ce2" target="_top" xlink:title=" ">
<polygon fill="white" stroke="black" points="754,-24.5 754,-54.5 911,-54.5 911,-24.5 754,-24.5"/>
<text text-anchor="start" x="762" y="-42.5" font-family="Helvetica,sans-Serif" font-size="10.00">WordQuizzle.WordQuizzleClient</text>
<text text-anchor="middle" x="832.5" y="-31.5" font-family="Helvetica,sans-Serif" font-size="10.00">Service.send</text>
</a>
</g>
</g>
<!-- Node4&#45;&gt;Node5 -->
<g id="edge4" class="edge"><title>Node4&#45;&gt;Node5</title>
<path fill="none" stroke="midnightblue" d="M718.187,-39.5C726.65,-39.5 735.306,-39.5 743.876,-39.5"/>
<polygon fill="midnightblue" stroke="midnightblue" points="743.882,-43.0001 753.882,-39.5 743.882,-36.0001 743.882,-43.0001"/>
</g>
<!-- Node6 -->
<g id="node6" class="node"><title>Node6</title>
<g id="a_node6"><a xlink:href="class_word_quizzle_1_1_word_quizzle_client_service.html#a59c8bdbde7768c2b478d51f4f13f7afb" target="_top" xlink:title=" ">
<polygon fill="white" stroke="black" points="947,-49.5 947,-79.5 1104,-79.5 1104,-49.5 947,-49.5"/>
<text text-anchor="start" x="955" y="-67.5" font-family="Helvetica,sans-Serif" font-size="10.00">WordQuizzle.WordQuizzleClient</text>
<text text-anchor="middle" x="1025.5" y="-56.5" font-family="Helvetica,sans-Serif" font-size="10.00">Service.read</text>
</a>
</g>
</g>
<!-- Node5&#45;&gt;Node6 -->
<g id="edge5" class="edge"><title>Node5&#45;&gt;Node6</title>
<path fill="none" stroke="midnightblue" d="M911.187,-49.6685C919.65,-50.7761 928.306,-51.9091 936.876,-53.0309"/>
<polygon fill="midnightblue" stroke="midnightblue" points="936.512,-56.513 946.882,-54.3406 937.421,-49.5722 936.512,-56.513"/>
</g>
<!-- Node7 -->
<g id="node7" class="node"><title>Node7</title>
<g id="a_node7"><a xlink:href="class_word_quizzle_1_1_word_quizzle_client_service.html#a25566e1d25884c6c0dbb5aab0c1b52fd" target="_top" xlink:title=" ">
<polygon fill="white" stroke="black" points="947,-0.5 947,-30.5 1104,-30.5 1104,-0.5 947,-0.5"/>
<text text-anchor="start" x="955" y="-18.5" font-family="Helvetica,sans-Serif" font-size="10.00">WordQuizzle.WordQuizzleClient</text>
<text text-anchor="middle" x="1025.5" y="-7.5" font-family="Helvetica,sans-Serif" font-size="10.00">Service.write</text>
</a>
</g>
</g>
<!-- Node5&#45;&gt;Node7 -->
<g id="edge6" class="edge"><title>Node5&#45;&gt;Node7</title>
<path fill="none" stroke="midnightblue" d="M911.187,-29.7383C919.65,-28.6749 928.306,-27.5873 936.876,-26.5103"/>
<polygon fill="midnightblue" stroke="midnightblue" points="937.396,-29.9726 946.882,-25.2531 936.523,-23.0272 937.396,-29.9726"/>
</g>
</g>
</svg>
