<?xml version="1.0" encoding="UTF-8" standalone="no"?>
<!DOCTYPE svg PUBLIC "-//W3C//DTD SVG 1.1//EN"
 "http://www.w3.org/Graphics/SVG/1.1/DTD/svg11.dtd">
<!-- Generated by graphviz version 2.38.0 (20140413.2041)
 -->
<!-- Title: WordQuizzle.WordQuizzleClient.accettaSfida Pages: 1 -->
<svg width="573pt" height="66pt"
 viewBox="0.00 0.00 573.00 66.00" xmlns="http://www.w3.org/2000/svg" xmlns:xlink="http://www.w3.org/1999/xlink">
<g id="graph0" class="graph" transform="scale(1 1) rotate(0) translate(4 62)">
<title>WordQuizzle.WordQuizzleClient.accettaSfida</title>
<polygon fill="white" stroke="none" points="-4,4 -4,-62 569,-62 569,4 -4,4"/>
<!-- Node1 -->
<g id="node1" class="node"><title>Node1</title>
<g id="a_node1"><a xlink:title=" ">
<polygon fill="#bfbfbf" stroke="black" points="373,-14 373,-44 565,-44 565,-14 373,-14"/>
<text text-anchor="start" x="381" y="-32" font-family="Helvetica,sans-Serif" font-size="10.00">WordQuizzle.WordQuizzleClient.accetta</text>
<text text-anchor="middle" x="469" y="-21" font-family="Helvetica,sans-Serif" font-size="10.00">Sfida</text>
</a>
</g>
</g>
<!-- Node2 -->
<g id="node2" class="node"><title>Node2</title>
<g id="a_node2"><a xlink:href="class_word_quizzle_1_1_w_q_cli.html#a7b07b55738bdd5da89a2ef645afdc020" target="_top" xlink:title=" ">
<polygon fill="white" stroke="black" points="164,-38.5 164,-57.5 337,-57.5 337,-38.5 164,-38.5"/>
<text text-anchor="middle" x="250.5" y="-45.5" font-family="Helvetica,sans-Serif" font-size="10.00">WordQuizzle.WQCli.nuovaRichiesta</text>
</a>
</g>
</g>
<!-- Node1&#45;&gt;Node2 -->
<g id="edge1" class="edge"><title>Node1&#45;&gt;Node2</title>
<path fill="none" stroke="midnightblue" d="M362.733,-38.2382C354.201,-38.987 345.645,-39.7379 337.275,-40.4724"/>
<polygon fill="midnightblue" stroke="midnightblue" points="363.069,-41.7223 372.725,-37.3613 362.457,-34.7491 363.069,-41.7223"/>
</g>
<!-- Node4 -->
<g id="node4" class="node"><title>Node4</title>
<g id="a_node4"><a xlink:href="class_word_quizzle_1_1_notifier.html#ad051f74dab1ae47c4453f9d094b6d0c4" target="_top" xlink:title=" ">
<polygon fill="white" stroke="black" points="189.5,-0.5 189.5,-19.5 311.5,-19.5 311.5,-0.5 189.5,-0.5"/>
<text text-anchor="middle" x="250.5" y="-7.5" font-family="Helvetica,sans-Serif" font-size="10.00">WordQuizzle.Notifier.run</text>
</a>
</g>
</g>
<!-- Node1&#45;&gt;Node4 -->
<g id="edge3" class="edge"><title>Node1&#45;&gt;Node4</title>
<path fill="none" stroke="midnightblue" d="M362.468,-19.7386C345.007,-18.2061 327.451,-16.6654 311.619,-15.276"/>
<polygon fill="midnightblue" stroke="midnightblue" points="362.457,-23.2509 372.725,-20.6387 363.069,-16.2777 362.457,-23.2509"/>
</g>
<!-- Node3 -->
<g id="node3" class="node"><title>Node3</title>
<g id="a_node3"><a xlink:href="class_word_quizzle_1_1_w_q_cli.html#a7c2d51051cc7f1b20c57c1424d3b7727" target="_top" xlink:title=" ">
<polygon fill="white" stroke="black" points="0,-38.5 0,-57.5 128,-57.5 128,-38.5 0,-38.5"/>
<text text-anchor="middle" x="64" y="-45.5" font-family="Helvetica,sans-Serif" font-size="10.00">WordQuizzle.WQCli.main</text>
</a>
</g>
</g>
<!-- Node2&#45;&gt;Node3 -->
<g id="edge2" class="edge"><title>Node2&#45;&gt;Node3</title>
<path fill="none" stroke="midnightblue" d="M153.631,-48C145.028,-48 136.467,-48 128.248,-48"/>
<polygon fill="midnightblue" stroke="midnightblue" points="153.732,-51.5001 163.732,-48 153.732,-44.5001 153.732,-51.5001"/>
</g>
</g>
</svg>
