<?xml version="1.0" encoding="UTF-8" standalone="no"?>
<!DOCTYPE svg PUBLIC "-//W3C//DTD SVG 1.1//EN"
 "http://www.w3.org/Graphics/SVG/1.1/DTD/svg11.dtd">
<!-- Generated by graphviz version 2.38.0 (20140413.2041)
 -->
<!-- Title: DataBaseJSON.newUser Pages: 1 -->
<svg width="303pt" height="66pt"
 viewBox="0.00 0.00 303.00 66.00" xmlns="http://www.w3.org/2000/svg" xmlns:xlink="http://www.w3.org/1999/xlink">
<g id="graph0" class="graph" transform="scale(1 1) rotate(0) translate(4 62)">
<title>DataBaseJSON.newUser</title>
<polygon fill="white" stroke="none" points="-4,4 -4,-62 299,-62 299,4 -4,4"/>
<!-- Node1 -->
<g id="node1" class="node"><title>Node1</title>
<g id="a_node1"><a xlink:title="Aggiunge un nuovo utente nel database.">
<polygon fill="#bfbfbf" stroke="black" points="0,-19.5 0,-38.5 125,-38.5 125,-19.5 0,-19.5"/>
<text text-anchor="middle" x="62.5" y="-26.5" font-family="Helvetica,sans-Serif" font-size="10.00">DataBaseJSON.newUser</text>
</a>
</g>
</g>
<!-- Node2 -->
<g id="node2" class="node"><title>Node2</title>
<g id="a_node2"><a xlink:href="class_data_base_j_s_o_n.html#a0e2fb15fe514e5455e92b9617782bd7a" target="_top" xlink:title="Controlla che quel nome utente sia nel database.">
<polygon fill="white" stroke="black" points="161,-38.5 161,-57.5 295,-57.5 295,-38.5 161,-38.5"/>
<text text-anchor="middle" x="228" y="-45.5" font-family="Helvetica,sans-Serif" font-size="10.00">DataBaseJSON.checkUser</text>
</a>
</g>
</g>
<!-- Node1&#45;&gt;Node2 -->
<g id="edge1" class="edge"><title>Node1&#45;&gt;Node2</title>
<path fill="none" stroke="midnightblue" d="M125.312,-36.1831C133.632,-37.1499 142.245,-38.1508 150.777,-39.1423"/>
<polygon fill="midnightblue" stroke="midnightblue" points="150.397,-42.6216 160.734,-40.2994 151.205,-35.6684 150.397,-42.6216"/>
</g>
<!-- Node3 -->
<g id="node3" class="node"><title>Node3</title>
<g id="a_node3"><a xlink:href="class_data_base_j_s_o_n.html#a11523157e04fff10c538e226ed705a2e" target="_top" xlink:title="Fa il commit del database nel file json.">
<polygon fill="white" stroke="black" points="161,-0.5 161,-19.5 295,-19.5 295,-0.5 161,-0.5"/>
<text text-anchor="middle" x="228" y="-7.5" font-family="Helvetica,sans-Serif" font-size="10.00">DataBaseJSON.writeJSON</text>
</a>
</g>
</g>
<!-- Node1&#45;&gt;Node3 -->
<g id="edge2" class="edge"><title>Node1&#45;&gt;Node3</title>
<path fill="none" stroke="midnightblue" d="M125.312,-21.8169C133.632,-20.8501 142.245,-19.8492 150.777,-18.8577"/>
<polygon fill="midnightblue" stroke="midnightblue" points="151.205,-22.3316 160.734,-17.7006 150.397,-15.3784 151.205,-22.3316"/>
</g>
</g>
</svg>
