<?xml version="1.0" encoding="UTF-8" standalone="no"?>
<!DOCTYPE svg PUBLIC "-//W3C//DTD SVG 1.1//EN"
 "http://www.w3.org/Graphics/SVG/1.1/DTD/svg11.dtd">
<!-- Generated by graphviz version 2.38.0 (20140413.2041)
 -->
<!-- Title: WordQuizzleClient.lista_amici Pages: 1 -->
<svg width="502pt" height="39pt"
 viewBox="0.00 0.00 502.00 39.00" xmlns="http://www.w3.org/2000/svg" xmlns:xlink="http://www.w3.org/1999/xlink">
<g id="graph0" class="graph" transform="scale(1 1) rotate(0) translate(4 35)">
<title>WordQuizzleClient.lista_amici</title>
<polygon fill="white" stroke="none" points="-4,4 -4,-35 498,-35 498,4 -4,4"/>
<!-- Node1 -->
<g id="node1" class="node"><title>Node1</title>
<g id="a_node1"><a xlink:title=" ">
<polygon fill="#bfbfbf" stroke="black" points="0,-0.5 0,-30.5 119,-30.5 119,-0.5 0,-0.5"/>
<text text-anchor="start" x="8" y="-18.5" font-family="Helvetica,sans-Serif" font-size="10.00">WordQuizzleClient.lista</text>
<text text-anchor="middle" x="59.5" y="-7.5" font-family="Helvetica,sans-Serif" font-size="10.00">_amici</text>
</a>
</g>
</g>
<!-- Node2 -->
<g id="node2" class="node"><title>Node2</title>
<g id="a_node2"><a xlink:href="class_word_quizzle_client_service.html#af0e53b0b09cbf74b95782fa6f838a729" target="_top" xlink:title=" ">
<polygon fill="white" stroke="black" points="155,-0.5 155,-30.5 305,-30.5 305,-0.5 155,-0.5"/>
<text text-anchor="start" x="163" y="-18.5" font-family="Helvetica,sans-Serif" font-size="10.00">WordQuizzleClientService.lista</text>
<text text-anchor="middle" x="230" y="-7.5" font-family="Helvetica,sans-Serif" font-size="10.00">_amici</text>
</a>
</g>
</g>
<!-- Node1&#45;&gt;Node2 -->
<g id="edge1" class="edge"><title>Node1&#45;&gt;Node2</title>
<path fill="none" stroke="midnightblue" d="M119.433,-15.5C127.687,-15.5 136.298,-15.5 144.907,-15.5"/>
<polygon fill="midnightblue" stroke="midnightblue" points="144.99,-19.0001 154.99,-15.5 144.99,-12.0001 144.99,-19.0001"/>
</g>
<!-- Node3 -->
<g id="node3" class="node"><title>Node3</title>
<g id="a_node3"><a xlink:href="class_word_quizzle_client_service.html#a6132feed91596156595e4f36713acade" target="_top" xlink:title=" ">
<polygon fill="white" stroke="black" points="341,-6 341,-25 494,-25 494,-6 341,-6"/>
<text text-anchor="middle" x="417.5" y="-13" font-family="Helvetica,sans-Serif" font-size="10.00">WordQuizzleClientService.send</text>
</a>
</g>
</g>
<!-- Node2&#45;&gt;Node3 -->
<g id="edge2" class="edge"><title>Node2&#45;&gt;Node3</title>
<path fill="none" stroke="midnightblue" d="M305.114,-15.5C313.601,-15.5 322.304,-15.5 330.925,-15.5"/>
<polygon fill="midnightblue" stroke="midnightblue" points="330.988,-19.0001 340.988,-15.5 330.988,-12.0001 330.988,-19.0001"/>
</g>
</g>
</svg>
