<?xml version="1.0" encoding="UTF-8" standalone="no"?>
<!DOCTYPE svg PUBLIC "-//W3C//DTD SVG 1.1//EN"
 "http://www.w3.org/Graphics/SVG/1.1/DTD/svg11.dtd">
<!-- Generated by graphviz version 2.38.0 (20140413.2041)
 -->
<!-- Title: WordQuizzle.WordQuizzleServer Pages: 1 -->
<svg width="717pt" height="766pt"
 viewBox="0.00 0.00 717.00 766.00" xmlns="http://www.w3.org/2000/svg" xmlns:xlink="http://www.w3.org/1999/xlink">
<g id="graph0" class="graph" transform="scale(1 1) rotate(0) translate(4 762)">
<title>WordQuizzle.WordQuizzleServer</title>
<polygon fill="white" stroke="none" points="-4,4 -4,-762 713,-762 713,4 -4,4"/>
<!-- Node1 -->
<g id="node1" class="node"><title>Node1</title>
<g id="a_node1"><a xlink:title=" ">
<polygon fill="#bfbfbf" stroke="black" points="169.5,-0.5 169.5,-79.5 328.5,-79.5 328.5,-0.5 169.5,-0.5"/>
<text text-anchor="middle" x="249" y="-67.5" font-family="Helvetica,sans-Serif" font-size="10.00">WordQuizzle.WordQuizzleServer</text>
<polyline fill="none" stroke="black" points="169.5,-60.5 328.5,-60.5 "/>
<text text-anchor="middle" x="249" y="-48.5" font-family="Helvetica,sans-Serif" font-size="10.00"> </text>
<polyline fill="none" stroke="black" points="169.5,-41.5 328.5,-41.5 "/>
<text text-anchor="start" x="177.5" y="-29.5" font-family="Helvetica,sans-Serif" font-size="10.00">+ WordQuizzleServer()</text>
<text text-anchor="start" x="177.5" y="-18.5" font-family="Helvetica,sans-Serif" font-size="10.00">+ run()</text>
<text text-anchor="start" x="177.5" y="-7.5" font-family="Helvetica,sans-Serif" font-size="10.00">+ main()</text>
</a>
</g>
</g>
<!-- Node2 -->
<g id="node2" class="node"><title>Node2</title>
<g id="a_node2"><a xlink:title=" ">
<polygon fill="white" stroke="#bfbfbf" points="94,-270.5 94,-327.5 204,-327.5 204,-270.5 94,-270.5"/>
<text text-anchor="middle" x="149" y="-315.5" font-family="Helvetica,sans-Serif" font-size="10.00">ServerSocketChannel</text>
<polyline fill="none" stroke="#bfbfbf" points="94,-308.5 204,-308.5 "/>
<text text-anchor="middle" x="149" y="-296.5" font-family="Helvetica,sans-Serif" font-size="10.00"> </text>
<polyline fill="none" stroke="#bfbfbf" points="94,-289.5 204,-289.5 "/>
<text text-anchor="middle" x="149" y="-277.5" font-family="Helvetica,sans-Serif" font-size="10.00"> </text>
</a>
</g>
</g>
<!-- Node2&#45;&gt;Node1 -->
<g id="edge1" class="edge"><title>Node2&#45;&gt;Node1</title>
<path fill="none" stroke="#404040" d="M155.481,-270.324C165.227,-230.942 185.488,-156.973 213,-98 214.211,-95.4046 215.519,-92.7847 216.895,-90.1685"/>
<polygon fill="none" stroke="#404040" points="217,-89.9813 216.437,-82.7921 222.857,-79.5079 223.419,-86.697 217,-89.9813"/>
<text text-anchor="middle" x="229" y="-101" font-family="Helvetica,sans-Serif" font-size="10.00"> &#45;server</text>
</g>
<!-- Node3 -->
<g id="node3" class="node"><title>Node3</title>
<g id="a_node3"><a xlink:title=" ">
<polygon fill="white" stroke="#bfbfbf" points="222.5,-270.5 222.5,-327.5 275.5,-327.5 275.5,-270.5 222.5,-270.5"/>
<text text-anchor="middle" x="249" y="-315.5" font-family="Helvetica,sans-Serif" font-size="10.00">Selector</text>
<polyline fill="none" stroke="#bfbfbf" points="222.5,-308.5 275.5,-308.5 "/>
<text text-anchor="middle" x="249" y="-296.5" font-family="Helvetica,sans-Serif" font-size="10.00"> </text>
<polyline fill="none" stroke="#bfbfbf" points="222.5,-289.5 275.5,-289.5 "/>
<text text-anchor="middle" x="249" y="-277.5" font-family="Helvetica,sans-Serif" font-size="10.00"> </text>
</a>
</g>
</g>
<!-- Node3&#45;&gt;Node1 -->
<g id="edge2" class="edge"><title>Node3&#45;&gt;Node1</title>
<path fill="none" stroke="#404040" d="M249,-270.496C249,-227.939 249,-145.456 249,-91.8395"/>
<polygon fill="none" stroke="#404040" points="249,-91.5363 245,-85.5363 249,-79.5363 253,-85.5363 249,-91.5363"/>
<text text-anchor="middle" x="269.5" y="-101" font-family="Helvetica,sans-Serif" font-size="10.00"> &#45;selector</text>
</g>
<!-- Node4 -->
<g id="node4" class="node"><title>Node4</title>
<g id="a_node4"><a xlink:href="class_word_quizzle_1_1_word_quizzle_server_service.html" target="_top" xlink:title=" ">
<polygon fill="white" stroke="black" points="293.5,-127.5 293.5,-470.5 452.5,-470.5 452.5,-127.5 293.5,-127.5"/>
<text text-anchor="start" x="301.5" y="-458.5" font-family="Helvetica,sans-Serif" font-size="10.00">WordQuizzle.WordQuizzleServer</text>
<text text-anchor="middle" x="373" y="-447.5" font-family="Helvetica,sans-Serif" font-size="10.00">Service</text>
<polyline fill="none" stroke="black" points="293.5,-440.5 452.5,-440.5 "/>
<text text-anchor="start" x="301.5" y="-428.5" font-family="Helvetica,sans-Serif" font-size="10.00">&#45; K</text>
<text text-anchor="start" x="301.5" y="-417.5" font-family="Helvetica,sans-Serif" font-size="10.00">&#45; T1</text>
<text text-anchor="start" x="301.5" y="-406.5" font-family="Helvetica,sans-Serif" font-size="10.00">&#45; T2</text>
<text text-anchor="start" x="301.5" y="-395.5" font-family="Helvetica,sans-Serif" font-size="10.00">&#45; X</text>
<text text-anchor="start" x="301.5" y="-384.5" font-family="Helvetica,sans-Serif" font-size="10.00">&#45; Y</text>
<text text-anchor="start" x="301.5" y="-373.5" font-family="Helvetica,sans-Serif" font-size="10.00">&#45; Z</text>
<polyline fill="none" stroke="black" points="293.5,-366.5 452.5,-366.5 "/>
<text text-anchor="start" x="301.5" y="-354.5" font-family="Helvetica,sans-Serif" font-size="10.00">+ WordQuizzleServerService()</text>
<text text-anchor="start" x="301.5" y="-343.5" font-family="Helvetica,sans-Serif" font-size="10.00">+ login()</text>
<text text-anchor="start" x="301.5" y="-332.5" font-family="Helvetica,sans-Serif" font-size="10.00">+ logout()</text>
<text text-anchor="start" x="301.5" y="-321.5" font-family="Helvetica,sans-Serif" font-size="10.00">+ aggiungi_amico()</text>
<text text-anchor="start" x="301.5" y="-310.5" font-family="Helvetica,sans-Serif" font-size="10.00">+ lista_amici()</text>
<text text-anchor="start" x="301.5" y="-299.5" font-family="Helvetica,sans-Serif" font-size="10.00">+ mostra_punteggio()</text>
<text text-anchor="start" x="301.5" y="-288.5" font-family="Helvetica,sans-Serif" font-size="10.00">+ mostra_classifica()</text>
<text text-anchor="start" x="301.5" y="-277.5" font-family="Helvetica,sans-Serif" font-size="10.00">+ sfida()</text>
<text text-anchor="start" x="301.5" y="-266.5" font-family="Helvetica,sans-Serif" font-size="10.00">+ accettaSfida()</text>
<text text-anchor="start" x="301.5" y="-255.5" font-family="Helvetica,sans-Serif" font-size="10.00">+ getK()</text>
<text text-anchor="start" x="301.5" y="-244.5" font-family="Helvetica,sans-Serif" font-size="10.00">+ getZ()</text>
<text text-anchor="start" x="301.5" y="-233.5" font-family="Helvetica,sans-Serif" font-size="10.00">+ getY()</text>
<text text-anchor="start" x="301.5" y="-222.5" font-family="Helvetica,sans-Serif" font-size="10.00">+ getX()</text>
<text text-anchor="start" x="301.5" y="-211.5" font-family="Helvetica,sans-Serif" font-size="10.00">+ getT1()</text>
<text text-anchor="start" x="301.5" y="-200.5" font-family="Helvetica,sans-Serif" font-size="10.00">+ getT2()</text>
<text text-anchor="start" x="301.5" y="-189.5" font-family="Helvetica,sans-Serif" font-size="10.00">+ setK()</text>
<text text-anchor="start" x="301.5" y="-178.5" font-family="Helvetica,sans-Serif" font-size="10.00">+ setZ()</text>
<text text-anchor="start" x="301.5" y="-167.5" font-family="Helvetica,sans-Serif" font-size="10.00">+ setY()</text>
<text text-anchor="start" x="301.5" y="-156.5" font-family="Helvetica,sans-Serif" font-size="10.00">+ setX()</text>
<text text-anchor="start" x="301.5" y="-145.5" font-family="Helvetica,sans-Serif" font-size="10.00">+ setT2()</text>
<text text-anchor="start" x="301.5" y="-134.5" font-family="Helvetica,sans-Serif" font-size="10.00">+ setT1()</text>
</a>
</g>
</g>
<!-- Node4&#45;&gt;Node1 -->
<g id="edge3" class="edge"><title>Node4&#45;&gt;Node1</title>
<path fill="none" stroke="#404040" d="M309.55,-127.252C304.591,-117.207 299.401,-107.383 294,-98 292.404,-95.2272 290.682,-92.444 288.876,-89.6798"/>
<polygon fill="none" stroke="#404040" points="288.868,-89.669 282.163,-87.0157 282.033,-79.8058 288.739,-82.4591 288.868,-89.669"/>
<text text-anchor="middle" x="309.5" y="-101" font-family="Helvetica,sans-Serif" font-size="10.00"> &#45;wq</text>
</g>
<!-- Node5 -->
<g id="node5" class="node"><title>Node5</title>
<g id="a_node5"><a xlink:href="interface_word_quizzle_1_1_word_quizzle_service.html" target="_top" xlink:title=" ">
<polygon fill="white" stroke="black" points="0,-518.5 0,-652.5 164,-652.5 164,-518.5 0,-518.5"/>
<text text-anchor="middle" x="82" y="-640.5" font-family="Helvetica,sans-Serif" font-size="10.00">WordQuizzle.WordQuizzleService</text>
<polyline fill="none" stroke="black" points="0,-633.5 164,-633.5 "/>
<text text-anchor="middle" x="82" y="-621.5" font-family="Helvetica,sans-Serif" font-size="10.00"> </text>
<polyline fill="none" stroke="black" points="0,-614.5 164,-614.5 "/>
<text text-anchor="start" x="8" y="-602.5" font-family="Helvetica,sans-Serif" font-size="10.00">+ login()</text>
<text text-anchor="start" x="8" y="-591.5" font-family="Helvetica,sans-Serif" font-size="10.00">+ logout()</text>
<text text-anchor="start" x="8" y="-580.5" font-family="Helvetica,sans-Serif" font-size="10.00">+ aggiungi_amico()</text>
<text text-anchor="start" x="8" y="-569.5" font-family="Helvetica,sans-Serif" font-size="10.00">+ sfida()</text>
<text text-anchor="start" x="8" y="-558.5" font-family="Helvetica,sans-Serif" font-size="10.00">+ lista_amici()</text>
<text text-anchor="start" x="8" y="-547.5" font-family="Helvetica,sans-Serif" font-size="10.00">+ mostra_punteggio()</text>
<text text-anchor="start" x="8" y="-536.5" font-family="Helvetica,sans-Serif" font-size="10.00">+ mostra_classifica()</text>
<text text-anchor="start" x="8" y="-525.5" font-family="Helvetica,sans-Serif" font-size="10.00">+ accettaSfida()</text>
</a>
</g>
</g>
<!-- Node5&#45;&gt;Node4 -->
<g id="edge4" class="edge"><title>Node5&#45;&gt;Node4</title>
<path fill="none" stroke="midnightblue" d="M172.721,-518.159C172.814,-518.106 172.907,-518.053 173,-518 219.603,-491.576 244.645,-507.35 284,-471 287.196,-468.048 290.297,-464.955 293.304,-461.742"/>
<polygon fill="none" stroke="midnightblue" points="170.861,-515.192 164.026,-523.288 174.417,-521.221 170.861,-515.192"/>
</g>
<!-- Node6 -->
<g id="node6" class="node"><title>Node6</title>
<g id="a_node6"><a xlink:title=" ">
<polygon fill="white" stroke="#bfbfbf" points="182.5,-557 182.5,-614 271.5,-614 271.5,-557 182.5,-557"/>
<text text-anchor="middle" x="227" y="-602" font-family="Helvetica,sans-Serif" font-size="10.00">DatagramSocket</text>
<polyline fill="none" stroke="#bfbfbf" points="182.5,-595 271.5,-595 "/>
<text text-anchor="middle" x="227" y="-583" font-family="Helvetica,sans-Serif" font-size="10.00"> </text>
<polyline fill="none" stroke="#bfbfbf" points="182.5,-576 271.5,-576 "/>
<text text-anchor="middle" x="227" y="-564" font-family="Helvetica,sans-Serif" font-size="10.00"> </text>
</a>
</g>
</g>
<!-- Node6&#45;&gt;Node4 -->
<g id="edge5" class="edge"><title>Node6&#45;&gt;Node4</title>
<path fill="none" stroke="#404040" d="M241.132,-556.962C252.546,-534.72 269.646,-501.398 287.782,-466.059"/>
<polygon fill="none" stroke="#404040" points="287.959,-465.713 287.14,-458.548 293.438,-455.037 294.257,-462.201 287.959,-465.713"/>
<text text-anchor="middle" x="293" y="-492" font-family="Helvetica,sans-Serif" font-size="10.00"> &#45;socket</text>
</g>
<!-- Node7 -->
<g id="node7" class="node"><title>Node7</title>
<g id="a_node7"><a xlink:title=" ">
<polygon fill="white" stroke="#bfbfbf" points="289.5,-557 289.5,-614 456.5,-614 456.5,-557 289.5,-557"/>
<text text-anchor="middle" x="373" y="-602" font-family="Helvetica,sans-Serif" font-size="10.00">Map&lt; String, InetSocketAddress &gt;</text>
<polyline fill="none" stroke="#bfbfbf" points="289.5,-595 456.5,-595 "/>
<text text-anchor="middle" x="373" y="-583" font-family="Helvetica,sans-Serif" font-size="10.00"> </text>
<polyline fill="none" stroke="#bfbfbf" points="289.5,-576 456.5,-576 "/>
<text text-anchor="middle" x="373" y="-564" font-family="Helvetica,sans-Serif" font-size="10.00"> </text>
</a>
</g>
</g>
<!-- Node7&#45;&gt;Node4 -->
<g id="edge6" class="edge"><title>Node7&#45;&gt;Node4</title>
<path fill="none" stroke="#404040" d="M373,-556.962C373,-538.271 373,-511.757 373,-482.795"/>
<polygon fill="none" stroke="#404040" points="373,-482.699 369,-476.699 373,-470.699 377,-476.699 373,-482.699"/>
<text text-anchor="middle" x="388.5" y="-492" font-family="Helvetica,sans-Serif" font-size="10.00"> &#45;users</text>
</g>
<!-- Node8 -->
<g id="node8" class="node"><title>Node8</title>
<g id="a_node8"><a xlink:title=" ">
<polygon fill="white" stroke="#bfbfbf" points="355.5,-700.5 355.5,-757.5 390.5,-757.5 390.5,-700.5 355.5,-700.5"/>
<text text-anchor="middle" x="373" y="-745.5" font-family="Helvetica,sans-Serif" font-size="10.00">Map</text>
<polyline fill="none" stroke="#bfbfbf" points="355.5,-738.5 390.5,-738.5 "/>
<text text-anchor="middle" x="373" y="-726.5" font-family="Helvetica,sans-Serif" font-size="10.00"> </text>
<polyline fill="none" stroke="#bfbfbf" points="355.5,-719.5 390.5,-719.5 "/>
<text text-anchor="middle" x="373" y="-707.5" font-family="Helvetica,sans-Serif" font-size="10.00"> </text>
</a>
</g>
</g>
<!-- Node8&#45;&gt;Node7 -->
<g id="edge7" class="edge"><title>Node8&#45;&gt;Node7</title>
<path fill="none" stroke="orange" d="M373,-690.213C373,-666.234 373,-635.749 373,-614.049"/>
<polygon fill="orange" stroke="orange" points="369.5,-690.381 373,-700.381 376.5,-690.382 369.5,-690.381"/>
<text text-anchor="middle" x="441" y="-674" font-family="Helvetica,sans-Serif" font-size="10.00"> &lt; String, InetSocketAddress &gt;</text>
</g>
<!-- Node9 -->
<g id="node9" class="node"><title>Node9</title>
<g id="a_node9"><a xlink:href="interface_word_quizzle_1_1_data_base.html" target="_top" xlink:title="Database che gestisce gli utenti.">
<polygon fill="white" stroke="black" points="474.5,-535 474.5,-636 593.5,-636 593.5,-535 474.5,-535"/>
<text text-anchor="middle" x="534" y="-624" font-family="Helvetica,sans-Serif" font-size="10.00">WordQuizzle.DataBase</text>
<polyline fill="none" stroke="black" points="474.5,-617 593.5,-617 "/>
<text text-anchor="middle" x="534" y="-605" font-family="Helvetica,sans-Serif" font-size="10.00"> </text>
<polyline fill="none" stroke="black" points="474.5,-598 593.5,-598 "/>
<text text-anchor="start" x="482.5" y="-586" font-family="Helvetica,sans-Serif" font-size="10.00">+ checkUser()</text>
<text text-anchor="start" x="482.5" y="-575" font-family="Helvetica,sans-Serif" font-size="10.00">+ getUser()</text>
<text text-anchor="start" x="482.5" y="-564" font-family="Helvetica,sans-Serif" font-size="10.00">+ newUser()</text>
<text text-anchor="start" x="482.5" y="-553" font-family="Helvetica,sans-Serif" font-size="10.00">+ modifyScore()</text>
<text text-anchor="start" x="482.5" y="-542" font-family="Helvetica,sans-Serif" font-size="10.00">+ link()</text>
</a>
</g>
</g>
<!-- Node9&#45;&gt;Node4 -->
<g id="edge8" class="edge"><title>Node9&#45;&gt;Node4</title>
<path fill="none" stroke="#404040" d="M505.956,-534.944C492.578,-511.304 475.776,-481.614 458.662,-451.372"/>
<polygon fill="none" stroke="#404040" points="458.511,-451.105 452.075,-447.853 452.601,-440.661 459.037,-443.913 458.511,-451.105"/>
<text text-anchor="middle" x="489.5" y="-492" font-family="Helvetica,sans-Serif" font-size="10.00"> &#45;db</text>
</g>
<!-- Node10 -->
<g id="node10" class="node"><title>Node10</title>
<g id="a_node10"><a xlink:title=" ">
<polygon fill="white" stroke="#bfbfbf" points="612,-557 612,-614 704,-614 704,-557 612,-557"/>
<text text-anchor="middle" x="658" y="-602" font-family="Helvetica,sans-Serif" font-size="10.00">Vector&lt; Integer &gt;</text>
<polyline fill="none" stroke="#bfbfbf" points="612,-595 704,-595 "/>
<text text-anchor="middle" x="658" y="-583" font-family="Helvetica,sans-Serif" font-size="10.00"> </text>
<polyline fill="none" stroke="#bfbfbf" points="612,-576 704,-576 "/>
<text text-anchor="middle" x="658" y="-564" font-family="Helvetica,sans-Serif" font-size="10.00"> </text>
</a>
</g>
</g>
<!-- Node10&#45;&gt;Node4 -->
<g id="edge9" class="edge"><title>Node10&#45;&gt;Node4</title>
<path fill="none" stroke="#404040" d="M636.246,-556.685C626.417,-544.52 614.458,-530.259 603,-518 558.278,-470.148 505.412,-419.658 461.647,-379.332"/>
<polygon fill="none" stroke="#404040" points="461.574,-379.265 454.449,-378.151 452.737,-371.146 459.862,-372.26 461.574,-379.265"/>
<text text-anchor="middle" x="611.5" y="-492" font-family="Helvetica,sans-Serif" font-size="10.00"> &#45;challenges</text>
</g>
<!-- Node11 -->
<g id="node11" class="node"><title>Node11</title>
<g id="a_node11"><a xlink:title=" ">
<polygon fill="white" stroke="#bfbfbf" points="635.5,-700.5 635.5,-757.5 680.5,-757.5 680.5,-700.5 635.5,-700.5"/>
<text text-anchor="middle" x="658" y="-745.5" font-family="Helvetica,sans-Serif" font-size="10.00">Vector</text>
<polyline fill="none" stroke="#bfbfbf" points="635.5,-738.5 680.5,-738.5 "/>
<text text-anchor="middle" x="658" y="-726.5" font-family="Helvetica,sans-Serif" font-size="10.00"> </text>
<polyline fill="none" stroke="#bfbfbf" points="635.5,-719.5 680.5,-719.5 "/>
<text text-anchor="middle" x="658" y="-707.5" font-family="Helvetica,sans-Serif" font-size="10.00"> </text>
</a>
</g>
</g>
<!-- Node11&#45;&gt;Node10 -->
<g id="edge10" class="edge"><title>Node11&#45;&gt;Node10</title>
<path fill="none" stroke="orange" d="M658,-690.213C658,-666.234 658,-635.749 658,-614.049"/>
<polygon fill="orange" stroke="orange" points="654.5,-690.381 658,-700.381 661.5,-690.382 654.5,-690.381"/>
<text text-anchor="middle" x="683.5" y="-674" font-family="Helvetica,sans-Serif" font-size="10.00"> &lt; Integer &gt;</text>
</g>
</g>
</svg>
