<?xml version="1.0" encoding="UTF-8" standalone="no"?>
<!DOCTYPE svg PUBLIC "-//W3C//DTD SVG 1.1//EN"
 "http://www.w3.org/Graphics/SVG/1.1/DTD/svg11.dtd">
<!-- Generated by graphviz version 2.38.0 (20140413.2041)
 -->
<!-- Title: WordQuizzle.WQCli.game Pages: 1 -->
<svg width="512pt" height="66pt"
 viewBox="0.00 0.00 512.00 66.00" xmlns="http://www.w3.org/2000/svg" xmlns:xlink="http://www.w3.org/1999/xlink">
<g id="graph0" class="graph" transform="scale(1 1) rotate(0) translate(4 62)">
<title>WordQuizzle.WQCli.game</title>
<polygon fill="white" stroke="none" points="-4,4 -4,-62 508,-62 508,4 -4,4"/>
<!-- Node1 -->
<g id="node1" class="node"><title>Node1</title>
<g id="a_node1"><a xlink:title="Gestisce una sfida.">
<polygon fill="#bfbfbf" stroke="black" points="373,-19.5 373,-38.5 504,-38.5 504,-19.5 373,-19.5"/>
<text text-anchor="middle" x="438.5" y="-26.5" font-family="Helvetica,sans-Serif" font-size="10.00">WordQuizzle.WQCli.game</text>
</a>
</g>
</g>
<!-- Node2 -->
<g id="node2" class="node"><title>Node2</title>
<g id="a_node2"><a xlink:href="class_word_quizzle_1_1_w_q_cli.html#a7b07b55738bdd5da89a2ef645afdc020" target="_top" xlink:title="Gestisce una richiesta di sfida.">
<polygon fill="white" stroke="black" points="164,-38.5 164,-57.5 337,-57.5 337,-38.5 164,-38.5"/>
<text text-anchor="middle" x="250.5" y="-45.5" font-family="Helvetica,sans-Serif" font-size="10.00">WordQuizzle.WQCli.nuovaRichiesta</text>
</a>
</g>
</g>
<!-- Node1&#45;&gt;Node2 -->
<g id="edge1" class="edge"><title>Node1&#45;&gt;Node2</title>
<path fill="none" stroke="midnightblue" d="M362.817,-36.6289C354.393,-37.4894 345.761,-38.3712 337.212,-39.2445"/>
<polygon fill="midnightblue" stroke="midnightblue" points="363.376,-40.0901 372.968,-35.592 362.664,-33.1264 363.376,-40.0901"/>
</g>
<!-- Node4 -->
<g id="node4" class="node"><title>Node4</title>
<g id="a_node4"><a xlink:href="class_word_quizzle_1_1_w_q_cli.html#a318ef86f91a825da4ff4684bd3332a6b" target="_top" xlink:title="Gestisce le richieste dell&#39;utente.">
<polygon fill="white" stroke="black" points="185,-0.5 185,-19.5 316,-19.5 316,-0.5 185,-0.5"/>
<text text-anchor="middle" x="250.5" y="-7.5" font-family="Helvetica,sans-Serif" font-size="10.00">WordQuizzle.WQCli.parse</text>
</a>
</g>
</g>
<!-- Node1&#45;&gt;Node4 -->
<g id="edge3" class="edge"><title>Node1&#45;&gt;Node4</title>
<path fill="none" stroke="midnightblue" d="M362.93,-21.3827C347.471,-19.8035 331.305,-18.1521 316.233,-16.6125"/>
<polygon fill="midnightblue" stroke="midnightblue" points="362.664,-24.8736 372.968,-22.408 363.376,-17.9099 362.664,-24.8736"/>
</g>
<!-- Node3 -->
<g id="node3" class="node"><title>Node3</title>
<g id="a_node3"><a xlink:href="class_word_quizzle_1_1_w_q_cli.html#a7c2d51051cc7f1b20c57c1424d3b7727" target="_top" xlink:title="Gestisce l&#39;interazione con l&#39;utente.">
<polygon fill="white" stroke="black" points="0,-19.5 0,-38.5 128,-38.5 128,-19.5 0,-19.5"/>
<text text-anchor="middle" x="64" y="-26.5" font-family="Helvetica,sans-Serif" font-size="10.00">WordQuizzle.WQCli.main</text>
</a>
</g>
</g>
<!-- Node2&#45;&gt;Node3 -->
<g id="edge2" class="edge"><title>Node2&#45;&gt;Node3</title>
<path fill="none" stroke="midnightblue" d="M153.631,-38.1273C145.028,-37.2414 136.467,-36.3598 128.248,-35.5134"/>
<polygon fill="midnightblue" stroke="midnightblue" points="153.426,-41.6246 163.732,-39.1675 154.143,-34.6614 153.426,-41.6246"/>
</g>
<!-- Node4&#45;&gt;Node3 -->
<g id="edge4" class="edge"><title>Node4&#45;&gt;Node3</title>
<path fill="none" stroke="midnightblue" d="M174.918,-17.6805C159.44,-19.2744 143.273,-20.9394 128.248,-22.4866"/>
<polygon fill="midnightblue" stroke="midnightblue" points="175.382,-21.1513 184.971,-16.6453 174.665,-14.1882 175.382,-21.1513"/>
</g>
</g>
</svg>
