<?xml version="1.0" encoding="UTF-8" standalone="no"?>
<!DOCTYPE svg PUBLIC "-//W3C//DTD SVG 1.1//EN"
 "http://www.w3.org/Graphics/SVG/1.1/DTD/svg11.dtd">
<!-- Generated by graphviz version 2.38.0 (20140413.2041)
 -->
<!-- Title: Challenge.Challenge Pages: 1 -->
<svg width="304pt" height="66pt"
 viewBox="0.00 0.00 304.00 66.00" xmlns="http://www.w3.org/2000/svg" xmlns:xlink="http://www.w3.org/1999/xlink">
<g id="graph0" class="graph" transform="scale(1 1) rotate(0) translate(4 62)">
<title>Challenge.Challenge</title>
<polygon fill="white" stroke="none" points="-4,4 -4,-62 300,-62 300,4 -4,4"/>
<!-- Node1 -->
<g id="node1" class="node"><title>Node1</title>
<g id="a_node1"><a xlink:title="Crea una nuova sfida.">
<polygon fill="#bfbfbf" stroke="black" points="0,-19.5 0,-38.5 105,-38.5 105,-19.5 0,-19.5"/>
<text text-anchor="middle" x="52.5" y="-26.5" font-family="Helvetica,sans-Serif" font-size="10.00">Challenge.Challenge</text>
</a>
</g>
</g>
<!-- Node2 -->
<g id="node2" class="node"><title>Node2</title>
<g id="a_node2"><a xlink:href="class_word_quizzle_server_service.html#a445af71c2bed6349e5239893b2e0ca8c" target="_top" xlink:title="Restituisce il numero di parole per sfida.">
<polygon fill="white" stroke="black" points="141,-38.5 141,-57.5 296,-57.5 296,-38.5 141,-38.5"/>
<text text-anchor="middle" x="218.5" y="-45.5" font-family="Helvetica,sans-Serif" font-size="10.00">WordQuizzleServerService.getK</text>
</a>
</g>
</g>
<!-- Node1&#45;&gt;Node2 -->
<g id="edge1" class="edge"><title>Node1&#45;&gt;Node2</title>
<path fill="none" stroke="midnightblue" d="M105.391,-35.0117C113.484,-35.9494 122.033,-36.9398 130.653,-37.9384"/>
<polygon fill="midnightblue" stroke="midnightblue" points="130.446,-41.4377 140.782,-39.1119 131.251,-34.4843 130.446,-41.4377"/>
</g>
<!-- Node3 -->
<g id="node3" class="node"><title>Node3</title>
<g id="a_node3"><a xlink:href="class_dictionary_txt.html#aa27ccdbfd57dd84c8f59bcf19c296da9" target="_top" xlink:title="Restituisce una lista di k parole a caso dal dizionario.">
<polygon fill="white" stroke="black" points="159,-0.5 159,-19.5 278,-19.5 278,-0.5 159,-0.5"/>
<text text-anchor="middle" x="218.5" y="-7.5" font-family="Helvetica,sans-Serif" font-size="10.00">DictionaryTxt.getWords</text>
</a>
</g>
</g>
<!-- Node1&#45;&gt;Node3 -->
<g id="edge2" class="edge"><title>Node1&#45;&gt;Node3</title>
<path fill="none" stroke="midnightblue" d="M105.391,-22.9883C119.191,-21.3894 134.313,-19.6375 148.859,-17.9523"/>
<polygon fill="midnightblue" stroke="midnightblue" points="149.283,-21.4267 158.813,-16.7991 148.477,-14.4732 149.283,-21.4267"/>
</g>
</g>
</svg>
