<?xml version="1.0" encoding="UTF-8" standalone="no"?>
<!DOCTYPE svg PUBLIC "-//W3C//DTD SVG 1.1//EN"
 "http://www.w3.org/Graphics/SVG/1.1/DTD/svg11.dtd">
<!-- Generated by graphviz version 2.38.0 (20140413.2041)
 -->
<!-- Title: Challenge.close Pages: 1 -->
<svg width="242pt" height="104pt"
 viewBox="0.00 0.00 242.00 104.00" xmlns="http://www.w3.org/2000/svg" xmlns:xlink="http://www.w3.org/1999/xlink">
<g id="graph0" class="graph" transform="scale(1 1) rotate(0) translate(4 100)">
<title>Challenge.close</title>
<polygon fill="white" stroke="none" points="-4,4 -4,-100 238,-100 238,4 -4,4"/>
<!-- Node1 -->
<g id="node1" class="node"><title>Node1</title>
<g id="a_node1"><a xlink:title="Conclude la sfida inviando ad ogni giocatore un messaggio.">
<polygon fill="#bfbfbf" stroke="black" points="0,-38.5 0,-57.5 86,-57.5 86,-38.5 0,-38.5"/>
<text text-anchor="middle" x="43" y="-45.5" font-family="Helvetica,sans-Serif" font-size="10.00">Challenge.close</text>
</a>
</g>
</g>
<!-- Node2 -->
<g id="node2" class="node"><title>Node2</title>
<g id="a_node2"><a xlink:href="class_session.html#a80b5cf0f5ea47877e261766c51f1e351" target="_top" xlink:title="Restituisce la socket del client.">
<polygon fill="white" stroke="black" points="131.5,-76.5 131.5,-95.5 224.5,-95.5 224.5,-76.5 131.5,-76.5"/>
<text text-anchor="middle" x="178" y="-83.5" font-family="Helvetica,sans-Serif" font-size="10.00">Session.getClient</text>
</a>
</g>
</g>
<!-- Node1&#45;&gt;Node2 -->
<g id="edge1" class="edge"><title>Node1&#45;&gt;Node2</title>
<path fill="none" stroke="midnightblue" d="M77.5615,-57.589C94.573,-62.4494 115.432,-68.4091 133.645,-73.6127"/>
<polygon fill="midnightblue" stroke="midnightblue" points="132.872,-77.0321 143.449,-76.4141 134.796,-70.3014 132.872,-77.0321"/>
</g>
<!-- Node3 -->
<g id="node3" class="node"><title>Node3</title>
<g id="a_node3"><a xlink:href="class_player.html#aee96b4ebaa44ec51fd653c4079723bb8" target="_top" xlink:title="Restituisce la sessione del giocatore.">
<polygon fill="white" stroke="black" points="130,-38.5 130,-57.5 226,-57.5 226,-38.5 130,-38.5"/>
<text text-anchor="middle" x="178" y="-45.5" font-family="Helvetica,sans-Serif" font-size="10.00">Player.getSession</text>
</a>
</g>
</g>
<!-- Node1&#45;&gt;Node3 -->
<g id="edge2" class="edge"><title>Node1&#45;&gt;Node3</title>
<path fill="none" stroke="midnightblue" d="M86.082,-48C96.6865,-48 108.253,-48 119.473,-48"/>
<polygon fill="midnightblue" stroke="midnightblue" points="119.641,-51.5001 129.641,-48 119.641,-44.5001 119.641,-51.5001"/>
</g>
<!-- Node4 -->
<g id="node4" class="node"><title>Node4</title>
<g id="a_node4"><a xlink:href="class_session.html#a8ab972666e7c0d311d4731d9eee566d2" target="_top" xlink:title="Imposta la risposta da inviare al client.">
<polygon fill="white" stroke="black" points="122,-0.5 122,-19.5 234,-19.5 234,-0.5 122,-0.5"/>
<text text-anchor="middle" x="178" y="-7.5" font-family="Helvetica,sans-Serif" font-size="10.00">Session.setResponse</text>
</a>
</g>
</g>
<!-- Node1&#45;&gt;Node4 -->
<g id="edge3" class="edge"><title>Node1&#45;&gt;Node4</title>
<path fill="none" stroke="midnightblue" d="M77.5615,-38.411C94.573,-33.5506 115.432,-27.5909 133.645,-22.3873"/>
<polygon fill="midnightblue" stroke="midnightblue" points="134.796,-25.6986 143.449,-19.5859 132.872,-18.9679 134.796,-25.6986"/>
</g>
</g>
</svg>
