<?xml version="1.0" encoding="UTF-8" standalone="no"?>
<!DOCTYPE svg PUBLIC "-//W3C//DTD SVG 1.1//EN"
 "http://www.w3.org/Graphics/SVG/1.1/DTD/svg11.dtd">
<!-- Generated by graphviz version 2.38.0 (20140413.2041)
 -->
<!-- Title: WordQuizzle.WordQuizzleClientService.write Pages: 1 -->
<!--zoomable 431 -->
<svg id="main" version="1.1" xmlns="http://www.w3.org/2000/svg" xmlns:xlink="http://www.w3.org/1999/xlink" xml:space="preserve" onload="init(evt)">
<style type="text/css"><![CDATA[
.edge:hover path { stroke: red; }
.edge:hover polygon { stroke: red; fill: red; }
]]></style>
<script type="text/javascript"><![CDATA[
var edges = document.getElementsByTagName('g');
if (edges && edges.length) {
  for (var i=0;i<edges.length;i++) {
    if (edges[i].id.substr(0,4)=='edge') {
      edges[i].setAttribute('class','edge');
    }
  }
}
]]></script>
        <defs>
                <circle id="rim" cx="0" cy="0" r="7"/>
                <circle id="rim2" cx="0" cy="0" r="3.5"/>
                <g id="zoomPlus">
                        <use xlink:href="#rim" fill="#404040">
                                <set attributeName="fill" to="#808080" begin="zoomplus.mouseover" end="zoomplus.mouseout"/>
                        </use>
                        <path d="M-4,0h8M0,-4v8" fill="none" stroke="white" stroke-width="1.5" pointer-events="none"/>
                </g>
                <g id="zoomMin">
                        <use xlink:href="#rim" fill="#404040">
                                <set attributeName="fill" to="#808080" begin="zoomminus.mouseover" end="zoomminus.mouseout"/>
                        </use>
                        <path d="M-4,0h8" fill="none" stroke="white" stroke-width="1.5" pointer-events="none"/>
                </g>
                <g id="dirArrow">
                        <path fill="none" stroke="white" stroke-width="1.5" d="M0,-3.0v7 M-2.5,-0.5L0,-3.0L2.5,-0.5"/>
                </g>
               <g id="resetDef">
                       <use xlink:href="#rim2" fill="#404040">
                               <set attributeName="fill" to="#808080" begin="reset.mouseover" end="reset.mouseout"/>
                       </use>
               </g>
        </defs>

<script type="text/javascript">
var viewWidth = 551;
var viewHeight = 431;
var sectionId = 'dynsection-16';
</script>
<script xlink:href="svgpan.js"/>
<svg id="graph" class="graph">
<g id="viewport">
<title>WordQuizzle.WordQuizzleClientService.write</title>
<polygon fill="white" stroke="none" points="-4,4 -4,-427 547,-427 547,4 -4,4"/>
<!-- Node1 -->
<g id="node1" class="node"><title>Node1</title>
<g id="a_node1"><a xlink:title="Invia al server un messaggio.">
<polygon fill="#bfbfbf" stroke="black" points="386,-196.5 386,-226.5 543,-226.5 543,-196.5 386,-196.5"/>
<text text-anchor="start" x="394" y="-214.5" font-family="Helvetica,sans-Serif" font-size="10.00">WordQuizzle.WordQuizzleClient</text>
<text text-anchor="middle" x="464.5" y="-203.5" font-family="Helvetica,sans-Serif" font-size="10.00">Service.write</text>
</a>
</g>
</g>
<!-- Node2 -->
<g id="node2" class="node"><title>Node2</title>
<g id="a_node2"><a xlink:href="class_word_quizzle_1_1_word_quizzle_client_service.html#a0ed33ad0199840ae1847c4ecbc992ce2" target="_top" xlink:title="Invia un messaggio al server e attende una sua risposta.">
<polygon fill="white" stroke="black" points="193,-196.5 193,-226.5 350,-226.5 350,-196.5 193,-196.5"/>
<text text-anchor="start" x="201" y="-214.5" font-family="Helvetica,sans-Serif" font-size="10.00">WordQuizzle.WordQuizzleClient</text>
<text text-anchor="middle" x="271.5" y="-203.5" font-family="Helvetica,sans-Serif" font-size="10.00">Service.send</text>
</a>
</g>
</g>
<!-- Node1&#45;&gt;Node2 -->
<g id="edge1" class="edge"><title>Node1&#45;&gt;Node2</title>
<path fill="none" stroke="midnightblue" d="M375.807,-211.5C367.235,-211.5 358.58,-211.5 350.118,-211.5"/>
<polygon fill="midnightblue" stroke="midnightblue" points="375.813,-215 385.813,-211.5 375.813,-208 375.813,-215"/>
</g>
<!-- Node3 -->
<g id="node3" class="node"><title>Node3</title>
<g id="a_node3"><a xlink:href="class_word_quizzle_1_1_word_quizzle_client_service.html#a547ba20a2963597abe34d58e643ea2db" target="_top" xlink:title="Accetta una richiesta di sfida inviata da nickAmico.">
<polygon fill="white" stroke="black" points="0,-392.5 0,-422.5 157,-422.5 157,-392.5 0,-392.5"/>
<text text-anchor="start" x="8" y="-410.5" font-family="Helvetica,sans-Serif" font-size="10.00">WordQuizzle.WordQuizzleClient</text>
<text text-anchor="middle" x="78.5" y="-399.5" font-family="Helvetica,sans-Serif" font-size="10.00">Service.accettaSfida</text>
</a>
</g>
</g>
<!-- Node2&#45;&gt;Node3 -->
<g id="edge2" class="edge"><title>Node2&#45;&gt;Node3</title>
<path fill="none" stroke="midnightblue" d="M260.679,-236.289C244.611,-273.692 209.177,-344.334 157,-383.5 152.381,-386.967 147.254,-389.939 141.9,-392.486"/>
<polygon fill="midnightblue" stroke="midnightblue" points="264.071,-237.251 264.696,-226.675 257.612,-234.553 264.071,-237.251"/>
</g>
<!-- Node4 -->
<g id="node4" class="node"><title>Node4</title>
<g id="a_node4"><a xlink:href="class_word_quizzle_1_1_word_quizzle_client_service.html#adc41c272e3f60eaf3fb07f477887a7ff" target="_top" xlink:title="Aggiunge un utente alla lista di amici di nickUtente.">
<polygon fill="white" stroke="black" points="0,-343.5 0,-373.5 157,-373.5 157,-343.5 0,-343.5"/>
<text text-anchor="start" x="8" y="-361.5" font-family="Helvetica,sans-Serif" font-size="10.00">WordQuizzle.WordQuizzleClient</text>
<text text-anchor="middle" x="78.5" y="-350.5" font-family="Helvetica,sans-Serif" font-size="10.00">Service.aggiungi_amico</text>
</a>
</g>
</g>
<!-- Node2&#45;&gt;Node4 -->
<g id="edge3" class="edge"><title>Node2&#45;&gt;Node4</title>
<path fill="none" stroke="midnightblue" d="M254.697,-235.068C234.964,-262.741 198.686,-308.195 157,-334.5 151.64,-337.883 145.769,-340.818 139.733,-343.358"/>
<polygon fill="midnightblue" stroke="midnightblue" points="257.648,-236.956 260.508,-226.754 251.91,-232.945 257.648,-236.956"/>
</g>
<!-- Node5 -->
<g id="node5" class="node"><title>Node5</title>
<g id="a_node5"><a xlink:href="class_word_quizzle_1_1_word_quizzle_client_service.html#ab8db9cd5ff3f755cf306b508741ce7b1" target="_top" xlink:title="Richiede la lista degli amici di nickUtente.">
<polygon fill="white" stroke="black" points="0,-294.5 0,-324.5 157,-324.5 157,-294.5 0,-294.5"/>
<text text-anchor="start" x="8" y="-312.5" font-family="Helvetica,sans-Serif" font-size="10.00">WordQuizzle.WordQuizzleClient</text>
<text text-anchor="middle" x="78.5" y="-301.5" font-family="Helvetica,sans-Serif" font-size="10.00">Service.lista_amici</text>
</a>
</g>
</g>
<!-- Node2&#45;&gt;Node5 -->
<g id="edge4" class="edge"><title>Node2&#45;&gt;Node5</title>
<path fill="none" stroke="midnightblue" d="M242.707,-232.773C220.482,-248.987 188.015,-270.935 157,-285.5 149.988,-288.793 142.411,-291.779 134.837,-294.437"/>
<polygon fill="midnightblue" stroke="midnightblue" points="245.028,-235.409 250.989,-226.65 240.867,-229.78 245.028,-235.409"/>
</g>
<!-- Node6 -->
<g id="node6" class="node"><title>Node6</title>
<g id="a_node6"><a xlink:href="class_word_quizzle_1_1_word_quizzle_client_service.html#aa02afd3fa03a290940b6c958e3c57199" target="_top" xlink:title="Effettua il login specificando l&#39;indirizzo per la connessione UDP.">
<polygon fill="white" stroke="black" points="0,-245.5 0,-275.5 157,-275.5 157,-245.5 0,-245.5"/>
<text text-anchor="start" x="8" y="-263.5" font-family="Helvetica,sans-Serif" font-size="10.00">WordQuizzle.WordQuizzleClient</text>
<text text-anchor="middle" x="78.5" y="-252.5" font-family="Helvetica,sans-Serif" font-size="10.00">Service.login</text>
</a>
</g>
</g>
<!-- Node2&#45;&gt;Node6 -->
<g id="edge5" class="edge"><title>Node2&#45;&gt;Node6</title>
<path fill="none" stroke="midnightblue" d="M202.092,-229.05C181.117,-234.431 158.243,-240.299 137.994,-245.494"/>
<polygon fill="midnightblue" stroke="midnightblue" points="203.079,-232.41 211.896,-226.535 201.34,-225.629 203.079,-232.41"/>
</g>
<!-- Node7 -->
<g id="node7" class="node"><title>Node7</title>
<g id="a_node7"><a xlink:href="class_word_quizzle_1_1_word_quizzle_client_service.html#a584e77014fba5e13b26af26c6e240bd6" target="_top" xlink:title="Effettua il logout.">
<polygon fill="white" stroke="black" points="0,-196.5 0,-226.5 157,-226.5 157,-196.5 0,-196.5"/>
<text text-anchor="start" x="8" y="-214.5" font-family="Helvetica,sans-Serif" font-size="10.00">WordQuizzle.WordQuizzleClient</text>
<text text-anchor="middle" x="78.5" y="-203.5" font-family="Helvetica,sans-Serif" font-size="10.00">Service.logout</text>
</a>
</g>
</g>
<!-- Node2&#45;&gt;Node7 -->
<g id="edge6" class="edge"><title>Node2&#45;&gt;Node7</title>
<path fill="none" stroke="midnightblue" d="M182.807,-211.5C174.235,-211.5 165.58,-211.5 157.118,-211.5"/>
<polygon fill="midnightblue" stroke="midnightblue" points="182.813,-215 192.813,-211.5 182.813,-208 182.813,-215"/>
</g>
<!-- Node8 -->
<g id="node8" class="node"><title>Node8</title>
<g id="a_node8"><a xlink:href="class_word_quizzle_1_1_word_quizzle_client_service.html#a972476e61ab3c927ba99af27bc7f58bb" target="_top" xlink:title="Richiede la classifica dell&#39;utente e dei suoi amici.">
<polygon fill="white" stroke="black" points="0,-147.5 0,-177.5 157,-177.5 157,-147.5 0,-147.5"/>
<text text-anchor="start" x="8" y="-165.5" font-family="Helvetica,sans-Serif" font-size="10.00">WordQuizzle.WordQuizzleClient</text>
<text text-anchor="middle" x="78.5" y="-154.5" font-family="Helvetica,sans-Serif" font-size="10.00">Service.mostra_classifica</text>
</a>
</g>
</g>
<!-- Node2&#45;&gt;Node8 -->
<g id="edge7" class="edge"><title>Node2&#45;&gt;Node8</title>
<path fill="none" stroke="midnightblue" d="M202.092,-193.95C181.117,-188.569 158.243,-182.701 137.994,-177.506"/>
<polygon fill="midnightblue" stroke="midnightblue" points="201.34,-197.371 211.896,-196.465 203.079,-190.59 201.34,-197.371"/>
</g>
<!-- Node9 -->
<g id="node9" class="node"><title>Node9</title>
<g id="a_node9"><a xlink:href="class_word_quizzle_1_1_word_quizzle_client_service.html#a50a062f91fbb470547bde8235f2930d1" target="_top" xlink:title="Richiede il punteggio di nickUtente.">
<polygon fill="white" stroke="black" points="0,-98.5 0,-128.5 157,-128.5 157,-98.5 0,-98.5"/>
<text text-anchor="start" x="8" y="-116.5" font-family="Helvetica,sans-Serif" font-size="10.00">WordQuizzle.WordQuizzleClient</text>
<text text-anchor="middle" x="78.5" y="-105.5" font-family="Helvetica,sans-Serif" font-size="10.00">Service.mostra_punteggio</text>
</a>
</g>
</g>
<!-- Node2&#45;&gt;Node9 -->
<g id="edge8" class="edge"><title>Node2&#45;&gt;Node9</title>
<path fill="none" stroke="midnightblue" d="M242.209,-190.349C219.946,-174.451 187.663,-153.003 157,-138.5 149.332,-134.873 141.001,-131.573 132.739,-128.646"/>
<polygon fill="midnightblue" stroke="midnightblue" points="240.364,-193.334 250.518,-196.358 244.466,-187.662 240.364,-193.334"/>
</g>
<!-- Node10 -->
<g id="node10" class="node"><title>Node10</title>
<g id="a_node10"><a xlink:href="class_word_quizzle_1_1_word_quizzle_client_service.html#a53ced7302f38c42dfed59b2a70674800" target="_top" xlink:title="Invia la traduzione della parola precedentemente inviata dal server durante una sfida.">
<polygon fill="white" stroke="black" points="0,-49.5 0,-79.5 157,-79.5 157,-49.5 0,-49.5"/>
<text text-anchor="start" x="8" y="-67.5" font-family="Helvetica,sans-Serif" font-size="10.00">WordQuizzle.WordQuizzleClient</text>
<text text-anchor="middle" x="78.5" y="-56.5" font-family="Helvetica,sans-Serif" font-size="10.00">Service.sendTranslation</text>
</a>
</g>
</g>
<!-- Node2&#45;&gt;Node10 -->
<g id="edge9" class="edge"><title>Node2&#45;&gt;Node10</title>
<path fill="none" stroke="midnightblue" d="M254.6,-188.212C234.773,-160.849 198.402,-115.849 157,-89.5 151.036,-85.7048 144.446,-82.4384 137.701,-79.639"/>
<polygon fill="midnightblue" stroke="midnightblue" points="251.796,-190.307 260.442,-196.43 257.501,-186.252 251.796,-190.307"/>
</g>
<!-- Node11 -->
<g id="node11" class="node"><title>Node11</title>
<g id="a_node11"><a xlink:href="class_word_quizzle_1_1_word_quizzle_client_service.html#a7eef869e03ee5f68139882d98de88c1f" target="_top" xlink:title="Invia una richiesta di sfida ad un amico di nickUtente.">
<polygon fill="white" stroke="black" points="0,-0.5 0,-30.5 157,-30.5 157,-0.5 0,-0.5"/>
<text text-anchor="start" x="8" y="-18.5" font-family="Helvetica,sans-Serif" font-size="10.00">WordQuizzle.WordQuizzleClient</text>
<text text-anchor="middle" x="78.5" y="-7.5" font-family="Helvetica,sans-Serif" font-size="10.00">Service.sfida</text>
</a>
</g>
</g>
<!-- Node2&#45;&gt;Node11 -->
<g id="edge10" class="edge"><title>Node2&#45;&gt;Node11</title>
<path fill="none" stroke="midnightblue" d="M260.583,-186.93C244.387,-149.845 208.788,-79.7418 157,-40.5 151.929,-36.6578 146.247,-33.3939 140.324,-30.6237"/>
<polygon fill="midnightblue" stroke="midnightblue" points="257.501,-188.628 264.634,-196.462 263.944,-185.89 257.501,-188.628"/>
</g>
</g>
</svg>
        <g id="navigator" transform="translate(0 0)" fill="#404254">
                <rect fill="#f2f5e9" fill-opacity="0.5" stroke="#606060" stroke-width=".5" x="0" y="0" width="60" height="60"/>
                <use id="zoomplus" xlink:href="#zoomPlus" x="17" y="9" onmousedown="handleZoom(evt,'in')"/>
                <use id="zoomminus" xlink:href="#zoomMin" x="42" y="9" onmousedown="handleZoom(evt,'out')"/>
                <use id="reset" xlink:href="#resetDef" x="30" y="36" onmousedown="handleReset()"/>
                <g id="arrowUp" xlink:href="#dirArrow" transform="translate(30 24)" onmousedown="handlePan(0,-1)">
                  <use xlink:href="#rim" fill="#404040">
                        <set attributeName="fill" to="#808080" begin="arrowUp.mouseover" end="arrowUp.mouseout"/>
                  </use>
                  <path fill="none" stroke="white" stroke-width="1.5" d="M0,-3.0v7 M-2.5,-0.5L0,-3.0L2.5,-0.5"/>
                </g>
                <g id="arrowRight" xlink:href="#dirArrow" transform="rotate(90) translate(36 -43)" onmousedown="handlePan(1,0)">
                  <use xlink:href="#rim" fill="#404040">
                        <set attributeName="fill" to="#808080" begin="arrowRight.mouseover" end="arrowRight.mouseout"/>
                  </use>
                  <path fill="none" stroke="white" stroke-width="1.5" d="M0,-3.0v7 M-2.5,-0.5L0,-3.0L2.5,-0.5"/>
                </g>
                <g id="arrowDown" xlink:href="#dirArrow" transform="rotate(180) translate(-30 -48)" onmousedown="handlePan(0,1)">
                  <use xlink:href="#rim" fill="#404040">
                        <set attributeName="fill" to="#808080" begin="arrowDown.mouseover" end="arrowDown.mouseout"/>
                  </use>
                  <path fill="none" stroke="white" stroke-width="1.5" d="M0,-3.0v7 M-2.5,-0.5L0,-3.0L2.5,-0.5"/>
                </g>
                <g id="arrowLeft" xlink:href="#dirArrow" transform="rotate(270) translate(-36 17)" onmousedown="handlePan(-1,0)">
                  <use xlink:href="#rim" fill="#404040">
                        <set attributeName="fill" to="#808080" begin="arrowLeft.mouseover" end="arrowLeft.mouseout"/>
                  </use>
                  <path fill="none" stroke="white" stroke-width="1.5" d="M0,-3.0v7 M-2.5,-0.5L0,-3.0L2.5,-0.5"/>
                </g>
        </g>
        <svg viewBox="0 0 15 15" width="100%" height="30px" preserveAspectRatio="xMaxYMin meet">
         <g id="arrow_out" transform="scale(0.3 0.3)">
          <a xlink:href="class_word_quizzle_1_1_word_quizzle_client_service_a25566e1d25884c6c0dbb5aab0c1b52fd_icgraph_org.svg" target="_base">
           <rect id="button" ry="5" rx="5" y="6" x="6" height="38" width="38"
                fill="#f2f5e9" fill-opacity="0.5" stroke="#606060" stroke-width="1.0"/>
           <path id="arrow"
             d="M 11.500037,31.436501 C 11.940474,20.09759 22.043105,11.32322 32.158766,21.979434 L 37.068811,17.246167 C 37.068811,17.246167 37.088388,32 37.088388,32 L 22.160133,31.978069 C 22.160133,31.978069 26.997745,27.140456 26.997745,27.140456 C 18.528582,18.264221 13.291696,25.230495 11.500037,31.436501 z"
             style="fill:#404040;"/>
          </a>
         </g>
        </svg>
</svg>
