<?xml version="1.0" encoding="UTF-8" standalone="no"?>
<!DOCTYPE svg PUBLIC "-//W3C//DTD SVG 1.1//EN"
 "http://www.w3.org/Graphics/SVG/1.1/DTD/svg11.dtd">
<!-- Generated by graphviz version 2.38.0 (20140413.2041)
 -->
<!-- Title: Session.compute Pages: 1 -->
<svg width="799pt" height="446pt"
 viewBox="0.00 0.00 799.00 446.00" xmlns="http://www.w3.org/2000/svg" xmlns:xlink="http://www.w3.org/1999/xlink">
<g id="graph0" class="graph" transform="scale(1 1) rotate(0) translate(4 442)">
<title>Session.compute</title>
<polygon fill="white" stroke="none" points="-4,4 -4,-442 795,-442 795,4 -4,4"/>
<!-- Node1 -->
<g id="node1" class="node"><title>Node1</title>
<g id="a_node1"><a xlink:title="Gestisce effettivamente la richiesta del client.">
<polygon fill="#bfbfbf" stroke="black" points="0,-226.5 0,-245.5 92,-245.5 92,-226.5 0,-226.5"/>
<text text-anchor="middle" x="46" y="-233.5" font-family="Helvetica,sans-Serif" font-size="10.00">Session.compute</text>
</a>
</g>
</g>
<!-- Node2 -->
<g id="node2" class="node"><title>Node2</title>
<g id="a_node2"><a xlink:href="class_word_quizzle_server_service.html#a9b03b4a431c18e8d8385217e3fbd9a0a" target="_top" xlink:title="Accetta una richiesta di sfida inviata da nickAmico.">
<polygon fill="white" stroke="black" points="129.5,-109 129.5,-139 296.5,-139 296.5,-109 129.5,-109"/>
<text text-anchor="start" x="137.5" y="-127" font-family="Helvetica,sans-Serif" font-size="10.00">WordQuizzleServerService.accetta</text>
<text text-anchor="middle" x="213" y="-116" font-family="Helvetica,sans-Serif" font-size="10.00">Sfida</text>
</a>
</g>
</g>
<!-- Node1&#45;&gt;Node2 -->
<g id="edge1" class="edge"><title>Node1&#45;&gt;Node2</title>
<path fill="none" stroke="midnightblue" d="M53.3428,-226.322C65.6015,-208.38 94.328,-169.885 128,-149 131.394,-146.895 134.975,-144.958 138.67,-143.178"/>
<polygon fill="midnightblue" stroke="midnightblue" points="140.291,-146.289 148.044,-139.069 137.48,-139.879 140.291,-146.289"/>
</g>
<!-- Node14 -->
<g id="node14" class="node"><title>Node14</title>
<g id="a_node14"><a xlink:href="class_word_quizzle_server_service.html#a378a2523ed3c3c05001a6a3f5216ca82" target="_top" xlink:title="Aggiunge un utente alla lista di amici di nickUtente.">
<polygon fill="white" stroke="black" points="128,-383 128,-413 298,-413 298,-383 128,-383"/>
<text text-anchor="start" x="136" y="-401" font-family="Helvetica,sans-Serif" font-size="10.00">WordQuizzleServerService.aggiungi</text>
<text text-anchor="middle" x="213" y="-390" font-family="Helvetica,sans-Serif" font-size="10.00">_amico</text>
</a>
</g>
</g>
<!-- Node1&#45;&gt;Node14 -->
<g id="edge13" class="edge"><title>Node1&#45;&gt;Node14</title>
<path fill="none" stroke="midnightblue" d="M49.929,-245.627C58.0276,-270.604 83.1408,-337.964 128,-373 130.305,-374.8 132.737,-376.471 135.264,-378.021"/>
<polygon fill="midnightblue" stroke="midnightblue" points="133.716,-381.163 144.177,-382.844 137.048,-375.007 133.716,-381.163"/>
</g>
<!-- Node16 -->
<g id="node16" class="node"><title>Node16</title>
<g id="a_node16"><a xlink:href="class_word_quizzle_server_service.html#a7d1e0c830ff9c94df196ed2d4e49e703" target="_top" xlink:title="Restituisce la lista degli amici di nickUtente.">
<polygon fill="white" stroke="black" points="137,-295 137,-325 289,-325 289,-295 137,-295"/>
<text text-anchor="start" x="145" y="-313" font-family="Helvetica,sans-Serif" font-size="10.00">WordQuizzleServerService.lista</text>
<text text-anchor="middle" x="213" y="-302" font-family="Helvetica,sans-Serif" font-size="10.00">_amici</text>
</a>
</g>
</g>
<!-- Node1&#45;&gt;Node16 -->
<g id="edge16" class="edge"><title>Node1&#45;&gt;Node16</title>
<path fill="none" stroke="midnightblue" d="M60.1297,-245.689C75.6541,-256.759 102.601,-274.789 128,-286 132.449,-287.964 137.101,-289.812 141.835,-291.543"/>
<polygon fill="midnightblue" stroke="midnightblue" points="141.036,-294.97 151.631,-294.93 143.324,-288.354 141.036,-294.97"/>
</g>
<!-- Node18 -->
<g id="node18" class="node"><title>Node18</title>
<g id="a_node18"><a xlink:href="class_word_quizzle_server_service.html#afa50bcf7855d98e8198b2021a91326dd" target="_top" xlink:title="Effettua il login specificando l&#39;indirizzo per la connessione UDP.">
<polygon fill="white" stroke="black" points="135.5,-344.5 135.5,-363.5 290.5,-363.5 290.5,-344.5 135.5,-344.5"/>
<text text-anchor="middle" x="213" y="-351.5" font-family="Helvetica,sans-Serif" font-size="10.00">WordQuizzleServerService.login</text>
</a>
</g>
</g>
<!-- Node1&#45;&gt;Node18 -->
<g id="edge20" class="edge"><title>Node1&#45;&gt;Node18</title>
<path fill="none" stroke="midnightblue" d="M51.9946,-245.686C62.8819,-265.77 90.7896,-311.993 128,-335 131.408,-337.107 135.023,-338.981 138.764,-340.648"/>
<polygon fill="midnightblue" stroke="midnightblue" points="137.69,-343.986 148.277,-344.379 140.245,-337.469 137.69,-343.986"/>
</g>
<!-- Node21 -->
<g id="node21" class="node"><title>Node21</title>
<g id="a_node21"><a xlink:href="class_word_quizzle_server_service.html#a277b16eeb84a3171777351f482157c0b" target="_top" xlink:title="Effettua il logout.">
<polygon fill="white" stroke="black" points="132.5,-70.5 132.5,-89.5 293.5,-89.5 293.5,-70.5 132.5,-70.5"/>
<text text-anchor="middle" x="213" y="-77.5" font-family="Helvetica,sans-Serif" font-size="10.00">WordQuizzleServerService.logout</text>
</a>
</g>
</g>
<!-- Node1&#45;&gt;Node21 -->
<g id="edge25" class="edge"><title>Node1&#45;&gt;Node21</title>
<path fill="none" stroke="midnightblue" d="M49.7979,-226.199C57.5802,-200.803 81.9954,-132.518 128,-99 130.659,-97.063 133.481,-95.3186 136.418,-93.7481"/>
<polygon fill="midnightblue" stroke="midnightblue" points="137.92,-96.9098 145.531,-89.5389 134.985,-90.5549 137.92,-96.9098"/>
</g>
<!-- Node22 -->
<g id="node22" class="node"><title>Node22</title>
<g id="a_node22"><a xlink:href="class_word_quizzle_server_service.html#ad8f2f775c4d322ac50c25dbc2b673505" target="_top" xlink:title="Restituisce la classifica dell&#39;utente e dei suoi amici.">
<polygon fill="white" stroke="black" points="131,-246 131,-276 295,-276 295,-246 131,-246"/>
<text text-anchor="start" x="139" y="-264" font-family="Helvetica,sans-Serif" font-size="10.00">WordQuizzleServerService.mostra</text>
<text text-anchor="middle" x="213" y="-253" font-family="Helvetica,sans-Serif" font-size="10.00">_classifica</text>
</a>
</g>
</g>
<!-- Node1&#45;&gt;Node22 -->
<g id="edge26" class="edge"><title>Node1&#45;&gt;Node22</title>
<path fill="none" stroke="midnightblue" d="M92.087,-242.831C101.104,-244.198 110.877,-245.678 120.821,-247.185"/>
<polygon fill="midnightblue" stroke="midnightblue" points="120.388,-250.659 130.799,-248.697 121.436,-243.738 120.388,-250.659"/>
</g>
<!-- Node24 -->
<g id="node24" class="node"><title>Node24</title>
<g id="a_node24"><a xlink:href="class_word_quizzle_server_service.html#a8002d35c102aec827bb58c4f1ca7b295" target="_top" xlink:title="Restituisce il punteggio di nickUtente.">
<polygon fill="white" stroke="black" points="131,-197 131,-227 295,-227 295,-197 131,-197"/>
<text text-anchor="start" x="139" y="-215" font-family="Helvetica,sans-Serif" font-size="10.00">WordQuizzleServerService.mostra</text>
<text text-anchor="middle" x="213" y="-204" font-family="Helvetica,sans-Serif" font-size="10.00">_punteggio</text>
</a>
</g>
</g>
<!-- Node1&#45;&gt;Node24 -->
<g id="edge31" class="edge"><title>Node1&#45;&gt;Node24</title>
<path fill="none" stroke="midnightblue" d="M92.087,-229.442C101.104,-228.13 110.877,-226.709 120.821,-225.262"/>
<polygon fill="midnightblue" stroke="midnightblue" points="121.407,-228.714 130.799,-223.811 120.399,-221.787 121.407,-228.714"/>
</g>
<!-- Node25 -->
<g id="node25" class="node"><title>Node25</title>
<g id="a_node25"><a xlink:href="class_word_quizzle_server_service.html#afc47f0b66a46f079c4bed5e579e9a173" target="_top" xlink:title="Invia una richiesta di sfida ad un amico di nickUtente.">
<polygon fill="white" stroke="black" points="135.5,-158.5 135.5,-177.5 290.5,-177.5 290.5,-158.5 135.5,-158.5"/>
<text text-anchor="middle" x="213" y="-165.5" font-family="Helvetica,sans-Serif" font-size="10.00">WordQuizzleServerService.sfida</text>
</a>
</g>
</g>
<!-- Node1&#45;&gt;Node25 -->
<g id="edge35" class="edge"><title>Node1&#45;&gt;Node25</title>
<path fill="none" stroke="midnightblue" d="M60.387,-226.341C75.9343,-215.543 102.693,-198.236 128,-188 135.41,-185.003 143.377,-182.387 151.348,-180.123"/>
<polygon fill="midnightblue" stroke="midnightblue" points="152.279,-183.497 161.036,-177.534 150.471,-176.734 152.279,-183.497"/>
</g>
<!-- Node3 -->
<g id="node3" class="node"><title>Node3</title>
<g id="a_node3"><a xlink:href="interface_data_base.html#a580f93c56dbbed8b2fb1fc2e856efe68" target="_top" xlink:title="Controlla che quel nome utente sia nel database.">
<polygon fill="white" stroke="black" points="338.5,-266.5 338.5,-285.5 447.5,-285.5 447.5,-266.5 338.5,-266.5"/>
<text text-anchor="middle" x="393" y="-273.5" font-family="Helvetica,sans-Serif" font-size="10.00">DataBase.checkUser</text>
</a>
</g>
</g>
<!-- Node2&#45;&gt;Node3 -->
<g id="edge2" class="edge"><title>Node2&#45;&gt;Node3</title>
<path fill="none" stroke="midnightblue" d="M284.764,-139.215C289.575,-141.957 294.064,-145.19 298,-149 334.353,-184.191 298.13,-221.316 334,-257 335.465,-258.457 337.043,-259.803 338.709,-261.045"/>
<polygon fill="midnightblue" stroke="midnightblue" points="337.278,-264.269 347.648,-266.436 340.893,-258.275 337.278,-264.269"/>
</g>
<!-- Node4 -->
<g id="node4" class="node"><title>Node4</title>
<g id="a_node4"><a xlink:href="class_challenge.html#ae2de3ea233827168e5869b9ac429af6a" target="_top" xlink:title="Restituisce il tempo di creazione della sfida.">
<polygon fill="white" stroke="black" points="334,-152.5 334,-171.5 452,-171.5 452,-152.5 334,-152.5"/>
<text text-anchor="middle" x="393" y="-159.5" font-family="Helvetica,sans-Serif" font-size="10.00">Challenge.getStartTime</text>
</a>
</g>
</g>
<!-- Node2&#45;&gt;Node4 -->
<g id="edge3" class="edge"><title>Node2&#45;&gt;Node4</title>
<path fill="none" stroke="midnightblue" d="M284.35,-139.019C301.974,-142.781 320.619,-146.761 337.351,-150.333"/>
<polygon fill="midnightblue" stroke="midnightblue" points="336.985,-153.834 347.496,-152.499 338.447,-146.988 336.985,-153.834"/>
</g>
<!-- Node5 -->
<g id="node5" class="node"><title>Node5</title>
<g id="a_node5"><a xlink:href="interface_data_base.html#af660eaf16066006da658ac99fa3f6936" target="_top" xlink:title="Dato un nome utente ottiene l&#39;oggetto User corrispondente.">
<polygon fill="white" stroke="black" points="345,-228.5 345,-247.5 441,-247.5 441,-228.5 345,-228.5"/>
<text text-anchor="middle" x="393" y="-235.5" font-family="Helvetica,sans-Serif" font-size="10.00">DataBase.getUser</text>
</a>
</g>
</g>
<!-- Node2&#45;&gt;Node5 -->
<g id="edge4" class="edge"><title>Node2&#45;&gt;Node5</title>
<path fill="none" stroke="midnightblue" d="M282.484,-139.06C288.045,-141.832 293.316,-145.114 298,-149 324.925,-171.337 307.382,-196.298 334,-219 335.975,-220.685 338.104,-222.221 340.338,-223.622"/>
<polygon fill="midnightblue" stroke="midnightblue" points="338.899,-226.82 349.379,-228.38 342.16,-220.625 338.899,-226.82"/>
</g>
<!-- Node6 -->
<g id="node6" class="node"><title>Node6</title>
<g id="a_node6"><a xlink:href="class_user.html#acc6836fc440a040d322d2e1eb31d92fe" target="_top" xlink:title="Verifica se un nome utente e&#39; amico dell&#39;utente.">
<polygon fill="white" stroke="black" points="356,-114.5 356,-133.5 430,-133.5 430,-114.5 356,-114.5"/>
<text text-anchor="middle" x="393" y="-121.5" font-family="Helvetica,sans-Serif" font-size="10.00">User.isFriend</text>
</a>
</g>
</g>
<!-- Node2&#45;&gt;Node6 -->
<g id="edge5" class="edge"><title>Node2&#45;&gt;Node6</title>
<path fill="none" stroke="midnightblue" d="M296.747,-124C313.565,-124 330.683,-124 345.682,-124"/>
<polygon fill="midnightblue" stroke="midnightblue" points="345.697,-127.5 355.697,-124 345.697,-120.5 345.697,-127.5"/>
</g>
<!-- Node7 -->
<g id="node7" class="node"><title>Node7</title>
<g id="a_node7"><a xlink:href="class_challenge.html#a650e2bfde93fe29ad14a4f7fdcb3c4b9" target="_top" xlink:title="Aggiunge l&#39;utente sfidato alla sfida e la avvia.">
<polygon fill="white" stroke="black" points="338.5,-76.5 338.5,-95.5 447.5,-95.5 447.5,-76.5 338.5,-76.5"/>
<text text-anchor="middle" x="393" y="-83.5" font-family="Helvetica,sans-Serif" font-size="10.00">Challenge.setPlayer2</text>
</a>
</g>
</g>
<!-- Node2&#45;&gt;Node7 -->
<g id="edge6" class="edge"><title>Node2&#45;&gt;Node7</title>
<path fill="none" stroke="midnightblue" d="M284.35,-108.981C301.974,-105.219 320.619,-101.239 337.351,-97.6666"/>
<polygon fill="midnightblue" stroke="midnightblue" points="338.447,-101.012 347.496,-95.5009 336.985,-94.1659 338.447,-101.012"/>
</g>
<!-- Node8 -->
<g id="node8" class="node"><title>Node8</title>
<g id="a_node8"><a xlink:href="class_session.html#a80b5cf0f5ea47877e261766c51f1e351" target="_top" xlink:title="Restituisce la socket del client.">
<polygon fill="white" stroke="black" points="497.5,-152.5 497.5,-171.5 590.5,-171.5 590.5,-152.5 497.5,-152.5"/>
<text text-anchor="middle" x="544" y="-159.5" font-family="Helvetica,sans-Serif" font-size="10.00">Session.getClient</text>
</a>
</g>
</g>
<!-- Node7&#45;&gt;Node8 -->
<g id="edge7" class="edge"><title>Node7&#45;&gt;Node8</title>
<path fill="none" stroke="midnightblue" d="M432.353,-95.5664C439.171,-98.0905 446.002,-101.202 452,-105 471.655,-117.446 468.445,-130.396 488,-143 491.113,-145.006 494.462,-146.827 497.915,-148.475"/>
<polygon fill="midnightblue" stroke="midnightblue" points="496.64,-151.737 507.212,-152.442 499.387,-145.298 496.64,-151.737"/>
</g>
<!-- Node9 -->
<g id="node9" class="node"><title>Node9</title>
<g id="a_node9"><a xlink:href="class_player.html#a675262b26b676f6b3e9e4bde04156050" target="_top" xlink:title="Restituisce l&#39;indice della prossima domanda da sottoporre al giocatore.">
<polygon fill="white" stroke="black" points="503.5,-114.5 503.5,-133.5 584.5,-133.5 584.5,-114.5 503.5,-114.5"/>
<text text-anchor="middle" x="544" y="-121.5" font-family="Helvetica,sans-Serif" font-size="10.00">Player.getNext</text>
</a>
</g>
</g>
<!-- Node7&#45;&gt;Node9 -->
<g id="edge8" class="edge"><title>Node7&#45;&gt;Node9</title>
<path fill="none" stroke="midnightblue" d="M431.599,-95.589C451.084,-100.558 475.075,-106.677 495.796,-111.961"/>
<polygon fill="midnightblue" stroke="midnightblue" points="495.117,-115.4 505.671,-114.48 496.846,-108.617 495.117,-115.4"/>
</g>
<!-- Node11 -->
<g id="node11" class="node"><title>Node11</title>
<g id="a_node11"><a xlink:href="class_player.html#aee96b4ebaa44ec51fd653c4079723bb8" target="_top" xlink:title="Restituisce la sessione del giocatore.">
<polygon fill="white" stroke="black" points="496,-76.5 496,-95.5 592,-95.5 592,-76.5 496,-76.5"/>
<text text-anchor="middle" x="544" y="-83.5" font-family="Helvetica,sans-Serif" font-size="10.00">Player.getSession</text>
</a>
</g>
</g>
<!-- Node7&#45;&gt;Node11 -->
<g id="edge10" class="edge"><title>Node7&#45;&gt;Node11</title>
<path fill="none" stroke="midnightblue" d="M447.792,-86C460.036,-86 473.089,-86 485.481,-86"/>
<polygon fill="midnightblue" stroke="midnightblue" points="485.702,-89.5001 495.702,-86 485.702,-82.5001 485.702,-89.5001"/>
</g>
<!-- Node12 -->
<g id="node12" class="node"><title>Node12</title>
<g id="a_node12"><a xlink:href="class_session.html#a8ab972666e7c0d311d4731d9eee566d2" target="_top" xlink:title="Imposta la risposta da inviare al client.">
<polygon fill="white" stroke="black" points="488,-38.5 488,-57.5 600,-57.5 600,-38.5 488,-38.5"/>
<text text-anchor="middle" x="544" y="-45.5" font-family="Helvetica,sans-Serif" font-size="10.00">Session.setResponse</text>
</a>
</g>
</g>
<!-- Node7&#45;&gt;Node12 -->
<g id="edge11" class="edge"><title>Node7&#45;&gt;Node12</title>
<path fill="none" stroke="midnightblue" d="M431.599,-76.411C451.084,-71.4417 475.075,-65.3233 495.796,-60.0387"/>
<polygon fill="midnightblue" stroke="midnightblue" points="496.846,-63.3828 505.671,-57.5201 495.117,-56.5999 496.846,-63.3828"/>
</g>
<!-- Node13 -->
<g id="node13" class="node"><title>Node13</title>
<g id="a_node13"><a xlink:href="class_translator.html#ad52c8ccdf35d16a095786e5e052b333a" target="_top" xlink:title="Traduce una parola dall&#39;italiano all&#39;inglese.">
<polygon fill="white" stroke="black" points="494,-0.5 494,-19.5 594,-19.5 594,-0.5 494,-0.5"/>
<text text-anchor="middle" x="544" y="-7.5" font-family="Helvetica,sans-Serif" font-size="10.00">Translator.translate</text>
</a>
</g>
</g>
<!-- Node7&#45;&gt;Node13 -->
<g id="edge12" class="edge"><title>Node7&#45;&gt;Node13</title>
<path fill="none" stroke="midnightblue" d="M407.81,-76.3344C425.691,-64.128 458.111,-43.0295 488,-29 492.452,-26.9101 497.201,-24.9278 501.971,-23.088"/>
<polygon fill="midnightblue" stroke="midnightblue" points="503.521,-26.248 511.707,-19.5223 501.113,-19.6749 503.521,-26.248"/>
</g>
<!-- Node10 -->
<g id="node10" class="node"><title>Node10</title>
<g id="a_node10"><a xlink:href="class_word_quizzle_server_service.html#a445af71c2bed6349e5239893b2e0ca8c" target="_top" xlink:title="Restituisce il numero di parole per sfida.">
<polygon fill="white" stroke="black" points="636,-114.5 636,-133.5 791,-133.5 791,-114.5 636,-114.5"/>
<text text-anchor="middle" x="713.5" y="-121.5" font-family="Helvetica,sans-Serif" font-size="10.00">WordQuizzleServerService.getK</text>
</a>
</g>
</g>
<!-- Node9&#45;&gt;Node10 -->
<g id="edge9" class="edge"><title>Node9&#45;&gt;Node10</title>
<path fill="none" stroke="midnightblue" d="M584.695,-124C597.073,-124 611.245,-124 625.543,-124"/>
<polygon fill="midnightblue" stroke="midnightblue" points="625.952,-127.5 635.951,-124 625.951,-120.5 625.952,-127.5"/>
</g>
<!-- Node14&#45;&gt;Node3 -->
<g id="edge14" class="edge"><title>Node14&#45;&gt;Node3</title>
<path fill="none" stroke="midnightblue" d="M283.077,-382.939C288.446,-380.167 293.515,-376.885 298,-373 326.859,-348.002 305.485,-320.39 334,-295 335.904,-293.305 337.963,-291.76 340.13,-290.353"/>
<polygon fill="midnightblue" stroke="midnightblue" points="341.81,-293.424 348.931,-285.579 338.472,-287.271 341.81,-293.424"/>
</g>
<!-- Node15 -->
<g id="node15" class="node"><title>Node15</title>
<g id="a_node15"><a xlink:href="interface_data_base.html#a4b079bd92d1ca63624e4f01398eb29db" target="_top" xlink:title="Crea un link (amicizia) non orientato tra due utenti.">
<polygon fill="white" stroke="black" points="354.5,-418.5 354.5,-437.5 431.5,-437.5 431.5,-418.5 354.5,-418.5"/>
<text text-anchor="middle" x="393" y="-425.5" font-family="Helvetica,sans-Serif" font-size="10.00">DataBase.link</text>
</a>
</g>
</g>
<!-- Node14&#45;&gt;Node15 -->
<g id="edge15" class="edge"><title>Node14&#45;&gt;Node15</title>
<path fill="none" stroke="midnightblue" d="M298.048,-412.165C313.839,-414.827 329.838,-417.523 344.049,-419.918"/>
<polygon fill="midnightblue" stroke="midnightblue" points="343.61,-423.394 354.052,-421.604 344.773,-416.491 343.61,-423.394"/>
</g>
<!-- Node16&#45;&gt;Node3 -->
<g id="edge17" class="edge"><title>Node16&#45;&gt;Node3</title>
<path fill="none" stroke="midnightblue" d="M289.23,-295.63C303.584,-292.888 318.428,-290.053 332.219,-287.419"/>
<polygon fill="midnightblue" stroke="midnightblue" points="332.887,-290.855 342.053,-285.541 331.574,-283.979 332.887,-290.855"/>
</g>
<!-- Node16&#45;&gt;Node5 -->
<g id="edge19" class="edge"><title>Node16&#45;&gt;Node5</title>
<path fill="none" stroke="midnightblue" d="M277.447,-294.85C284.544,-292.288 291.537,-289.35 298,-286 316.241,-276.545 315.943,-266.802 334,-257 337.93,-254.867 342.141,-252.92 346.432,-251.157"/>
<polygon fill="midnightblue" stroke="midnightblue" points="347.762,-254.396 355.88,-247.589 345.289,-247.848 347.762,-254.396"/>
</g>
<!-- Node17 -->
<g id="node17" class="node"><title>Node17</title>
<g id="a_node17"><a xlink:href="class_user.html#acd2375afad399d1deb32cb9667b8a1cd" target="_top" xlink:title="Restituisce la lista di amici dell&#39;utente.">
<polygon fill="white" stroke="black" points="350,-304.5 350,-323.5 436,-323.5 436,-304.5 350,-304.5"/>
<text text-anchor="middle" x="393" y="-311.5" font-family="Helvetica,sans-Serif" font-size="10.00">User.getFriends</text>
</a>
</g>
</g>
<!-- Node16&#45;&gt;Node17 -->
<g id="edge18" class="edge"><title>Node16&#45;&gt;Node17</title>
<path fill="none" stroke="midnightblue" d="M289.23,-311.691C306.198,-312.072 323.85,-312.469 339.638,-312.823"/>
<polygon fill="midnightblue" stroke="midnightblue" points="339.642,-316.324 349.719,-313.05 339.8,-309.326 339.642,-316.324"/>
</g>
<!-- Node18&#45;&gt;Node3 -->
<g id="edge21" class="edge"><title>Node18&#45;&gt;Node3</title>
<path fill="none" stroke="midnightblue" d="M276.672,-344.38C284.13,-341.93 291.422,-338.856 298,-335 318.634,-322.904 313.958,-308.053 334,-295 337.113,-292.972 340.462,-291.144 343.922,-289.498"/>
<polygon fill="midnightblue" stroke="midnightblue" points="345.41,-292.669 353.261,-285.556 342.687,-286.22 345.41,-292.669"/>
</g>
<!-- Node18&#45;&gt;Node5 -->
<g id="edge23" class="edge"><title>Node18&#45;&gt;Node5</title>
<path fill="none" stroke="midnightblue" d="M282.143,-344.467C287.842,-341.965 293.235,-338.857 298,-335 327.678,-310.98 305.485,-282.39 334,-257 335.904,-255.305 337.963,-253.76 340.13,-252.353"/>
<polygon fill="midnightblue" stroke="midnightblue" points="341.81,-255.424 348.931,-247.579 338.472,-249.271 341.81,-255.424"/>
</g>
<!-- Node19 -->
<g id="node19" class="node"><title>Node19</title>
<g id="a_node19"><a xlink:href="class_user.html#a1612cd6eef2a6e09ab5e72033b2aad00" target="_top" xlink:title="Restituisce la password dell&#39;utente.">
<polygon fill="white" stroke="black" points="345,-380.5 345,-399.5 441,-399.5 441,-380.5 345,-380.5"/>
<text text-anchor="middle" x="393" y="-387.5" font-family="Helvetica,sans-Serif" font-size="10.00">User.getPassword</text>
</a>
</g>
</g>
<!-- Node18&#45;&gt;Node19 -->
<g id="edge22" class="edge"><title>Node18&#45;&gt;Node19</title>
<path fill="none" stroke="midnightblue" d="M261.233,-363.553C283.854,-368.128 311.129,-373.644 334.904,-378.452"/>
<polygon fill="midnightblue" stroke="midnightblue" points="334.36,-381.913 344.855,-380.465 335.747,-375.052 334.36,-381.913"/>
</g>
<!-- Node20 -->
<g id="node20" class="node"><title>Node20</title>
<g id="a_node20"><a xlink:href="class_session.html#aeb6b2a4acab3e9a3f866e9295999b1b6" target="_top" xlink:title="Imposta l&#39;indirizzo UDP del client a cui inviare le richieste di sfida.">
<polygon fill="white" stroke="black" points="350,-342.5 350,-361.5 436,-361.5 436,-342.5 350,-342.5"/>
<text text-anchor="middle" x="393" y="-349.5" font-family="Helvetica,sans-Serif" font-size="10.00">Session.setUdp</text>
</a>
</g>
</g>
<!-- Node18&#45;&gt;Node20 -->
<g id="edge24" class="edge"><title>Node18&#45;&gt;Node20</title>
<path fill="none" stroke="midnightblue" d="M290.521,-353.14C307.058,-352.954 324.181,-352.762 339.546,-352.589"/>
<polygon fill="midnightblue" stroke="midnightblue" points="339.913,-356.086 349.873,-352.473 339.834,-349.086 339.913,-356.086"/>
</g>
<!-- Node22&#45;&gt;Node3 -->
<g id="edge27" class="edge"><title>Node22&#45;&gt;Node3</title>
<path fill="none" stroke="midnightblue" d="M295.187,-267.842C306.304,-268.778 317.586,-269.729 328.33,-270.635"/>
<polygon fill="midnightblue" stroke="midnightblue" points="328.185,-274.135 338.443,-271.487 328.773,-267.159 328.185,-274.135"/>
</g>
<!-- Node22&#45;&gt;Node5 -->
<g id="edge30" class="edge"><title>Node22&#45;&gt;Node5</title>
<path fill="none" stroke="midnightblue" d="M295.187,-250.51C308.644,-248.771 322.341,-247.001 335.035,-245.361"/>
<polygon fill="midnightblue" stroke="midnightblue" points="335.507,-248.829 344.976,-244.076 334.61,-241.887 335.507,-248.829"/>
</g>
<!-- Node22&#45;&gt;Node17 -->
<g id="edge28" class="edge"><title>Node22&#45;&gt;Node17</title>
<path fill="none" stroke="midnightblue" d="M264.639,-276.069C275.637,-279.343 287.209,-282.787 298,-286 315.029,-291.07 333.792,-296.659 350.048,-301.501"/>
<polygon fill="midnightblue" stroke="midnightblue" points="349.224,-304.908 359.807,-304.408 351.222,-298.199 349.224,-304.908"/>
</g>
<!-- Node23 -->
<g id="node23" class="node"><title>Node23</title>
<g id="a_node23"><a xlink:href="class_user.html#a6c657437f72c2867ca353762cfbcf400" target="_top" xlink:title="Restituisce il punteggio dell&#39;utente.">
<polygon fill="white" stroke="black" points="353.5,-190.5 353.5,-209.5 432.5,-209.5 432.5,-190.5 353.5,-190.5"/>
<text text-anchor="middle" x="393" y="-197.5" font-family="Helvetica,sans-Serif" font-size="10.00">User.getScore</text>
</a>
</g>
</g>
<!-- Node22&#45;&gt;Node23 -->
<g id="edge29" class="edge"><title>Node22&#45;&gt;Node23</title>
<path fill="none" stroke="midnightblue" d="M271.856,-246C280.703,-243.268 289.66,-240.244 298,-237 314.672,-230.515 317.455,-225.803 334,-219 339.206,-216.859 344.749,-214.789 350.265,-212.852"/>
<polygon fill="midnightblue" stroke="midnightblue" points="351.739,-216.048 360.086,-209.522 349.492,-209.418 351.739,-216.048"/>
</g>
<!-- Node24&#45;&gt;Node3 -->
<g id="edge32" class="edge"><title>Node24&#45;&gt;Node3</title>
<path fill="none" stroke="midnightblue" d="M270.624,-227.009C279.894,-229.99 289.304,-233.342 298,-237 314.871,-244.097 317.227,-249.673 334,-257 338.976,-259.174 344.285,-261.239 349.593,-263.151"/>
<polygon fill="midnightblue" stroke="midnightblue" points="348.481,-266.47 359.075,-266.42 350.762,-259.852 348.481,-266.47"/>
</g>
<!-- Node24&#45;&gt;Node5 -->
<g id="edge34" class="edge"><title>Node24&#45;&gt;Node5</title>
<path fill="none" stroke="midnightblue" d="M295.187,-223.859C308.644,-225.824 322.341,-227.825 335.035,-229.679"/>
<polygon fill="midnightblue" stroke="midnightblue" points="334.575,-233.149 344.976,-231.131 335.587,-226.223 334.575,-233.149"/>
</g>
<!-- Node24&#45;&gt;Node23 -->
<g id="edge33" class="edge"><title>Node24&#45;&gt;Node23</title>
<path fill="none" stroke="midnightblue" d="M295.187,-206.527C311.419,-205.432 328,-204.315 342.749,-203.32"/>
<polygon fill="midnightblue" stroke="midnightblue" points="343.391,-206.785 353.133,-202.62 342.92,-199.801 343.391,-206.785"/>
</g>
<!-- Node25&#45;&gt;Node3 -->
<g id="edge36" class="edge"><title>Node25&#45;&gt;Node3</title>
<path fill="none" stroke="midnightblue" d="M279.432,-177.567C286.093,-180.256 292.442,-183.67 298,-188 325.287,-209.257 307.617,-234.631 334,-257 336.015,-258.709 338.189,-260.265 340.47,-261.682"/>
<polygon fill="midnightblue" stroke="midnightblue" points="339.211,-264.973 349.697,-266.487 342.444,-258.764 339.211,-264.973"/>
</g>
<!-- Node25&#45;&gt;Node4 -->
<g id="edge37" class="edge"><title>Node25&#45;&gt;Node4</title>
<path fill="none" stroke="midnightblue" d="M290.521,-165.421C301.518,-165.05 312.773,-164.671 323.599,-164.306"/>
<polygon fill="midnightblue" stroke="midnightblue" points="323.948,-167.796 333.824,-163.961 323.712,-160.8 323.948,-167.796"/>
</g>
<!-- Node25&#45;&gt;Node5 -->
<g id="edge38" class="edge"><title>Node25&#45;&gt;Node5</title>
<path fill="none" stroke="midnightblue" d="M270.457,-177.509C279.934,-180.203 289.456,-183.635 298,-188 316.803,-197.606 315.611,-208.623 334,-219 337.737,-221.109 341.744,-223.026 345.841,-224.759"/>
<polygon fill="midnightblue" stroke="midnightblue" points="344.891,-228.144 355.48,-228.474 347.408,-221.612 344.891,-228.144"/>
</g>
<!-- Node25&#45;&gt;Node6 -->
<g id="edge39" class="edge"><title>Node25&#45;&gt;Node6</title>
<path fill="none" stroke="midnightblue" d="M254.621,-158.469C268.403,-155.198 283.882,-151.483 298,-148 313.695,-144.128 330.834,-139.786 346.128,-135.871"/>
<polygon fill="midnightblue" stroke="midnightblue" points="347.062,-139.245 355.878,-133.369 345.322,-132.464 347.062,-139.245"/>
</g>
</g>
</svg>
