<?xml version="1.0" encoding="UTF-8" standalone="no"?>
<!DOCTYPE svg PUBLIC "-//W3C//DTD SVG 1.1//EN"
 "http://www.w3.org/Graphics/SVG/1.1/DTD/svg11.dtd">
<!-- Generated by graphviz version 2.38.0 (20140413.2041)
 -->
<!-- Title: WordQuizzle.Bot.game Pages: 1 -->
<svg width="567pt" height="176pt"
 viewBox="0.00 0.00 567.00 175.50" xmlns="http://www.w3.org/2000/svg" xmlns:xlink="http://www.w3.org/1999/xlink">
<g id="graph0" class="graph" transform="scale(1 1) rotate(0) translate(4 171.5)">
<title>WordQuizzle.Bot.game</title>
<polygon fill="white" stroke="none" points="-4,4 -4,-171.5 563,-171.5 563,4 -4,4"/>
<!-- Node1 -->
<g id="node1" class="node"><title>Node1</title>
<g id="a_node1"><a xlink:title="Gestisce una sfida.">
<polygon fill="#bfbfbf" stroke="black" points="0,-68.5 0,-87.5 118,-87.5 118,-68.5 0,-68.5"/>
<text text-anchor="middle" x="59" y="-75.5" font-family="Helvetica,sans-Serif" font-size="10.00">WordQuizzle.Bot.game</text>
</a>
</g>
</g>
<!-- Node2 -->
<g id="node2" class="node"><title>Node2</title>
<g id="a_node2"><a xlink:href="class_word_quizzle_1_1_word_quizzle_server_service.html#a970fe0e2dd7457bab2c64ae722a912fc" target="_top" xlink:title="Restituisce il numero di parole per sfida.">
<polygon fill="white" stroke="black" points="165,-137 165,-167 324,-167 324,-137 165,-137"/>
<text text-anchor="start" x="173" y="-155" font-family="Helvetica,sans-Serif" font-size="10.00">WordQuizzle.WordQuizzleServer</text>
<text text-anchor="middle" x="244.5" y="-144" font-family="Helvetica,sans-Serif" font-size="10.00">Service.getK</text>
</a>
</g>
</g>
<!-- Node1&#45;&gt;Node2 -->
<g id="edge1" class="edge"><title>Node1&#45;&gt;Node2</title>
<path fill="none" stroke="midnightblue" d="M75.4442,-87.6263C93.6549,-98.6386 125.109,-116.614 154,-128 159.369,-130.116 164.991,-132.11 170.69,-133.976"/>
<polygon fill="midnightblue" stroke="midnightblue" points="169.732,-137.343 180.321,-136.991 171.824,-130.663 169.732,-137.343"/>
</g>
<!-- Node3 -->
<g id="node3" class="node"><title>Node3</title>
<g id="a_node3"><a xlink:href="class_word_quizzle_1_1_word_quizzle_server_service.html#ac78bda2a578b3baa0933ca28e4b72e0c" target="_top" xlink:title="Restituisce la durata di una sfida, in millisecondi.">
<polygon fill="white" stroke="black" points="165,-88 165,-118 324,-118 324,-88 165,-88"/>
<text text-anchor="start" x="173" y="-106" font-family="Helvetica,sans-Serif" font-size="10.00">WordQuizzle.WordQuizzleServer</text>
<text text-anchor="middle" x="244.5" y="-95" font-family="Helvetica,sans-Serif" font-size="10.00">Service.getT2</text>
</a>
</g>
</g>
<!-- Node1&#45;&gt;Node3 -->
<g id="edge2" class="edge"><title>Node1&#45;&gt;Node3</title>
<path fill="none" stroke="midnightblue" d="M118.061,-85.9102C129.743,-87.5017 142.271,-89.2085 154.726,-90.9054"/>
<polygon fill="midnightblue" stroke="midnightblue" points="154.3,-94.3797 164.681,-92.2617 155.245,-87.4438 154.3,-94.3797"/>
</g>
<!-- Node4 -->
<g id="node4" class="node"><title>Node4</title>
<g id="a_node4"><a xlink:href="class_word_quizzle_1_1_word_quizzle_client.html#a828a5e7a358bd53296d88c97172db13b" target="_top" xlink:title="Invia la traduzione della parola precedentemente inviata dal server durante una sfida.">
<polygon fill="white" stroke="black" points="154,-39 154,-69 335,-69 335,-39 154,-39"/>
<text text-anchor="start" x="162" y="-57" font-family="Helvetica,sans-Serif" font-size="10.00">WordQuizzle.WordQuizzleClient.send</text>
<text text-anchor="middle" x="244.5" y="-46" font-family="Helvetica,sans-Serif" font-size="10.00">Translation</text>
</a>
</g>
</g>
<!-- Node1&#45;&gt;Node4 -->
<g id="edge3" class="edge"><title>Node1&#45;&gt;Node4</title>
<path fill="none" stroke="midnightblue" d="M118.061,-70.4063C126.376,-69.3187 135.12,-68.175 143.962,-67.0186"/>
<polygon fill="midnightblue" stroke="midnightblue" points="144.506,-70.4774 153.967,-65.71 143.598,-63.5365 144.506,-70.4774"/>
</g>
<!-- Node6 -->
<g id="node6" class="node"><title>Node6</title>
<g id="a_node6"><a xlink:href="class_word_quizzle_1_1_translator.html#a9fcad4b807785c63c72bc85f672fb635" target="_top" xlink:title="Traduce una parola dall&#39;italiano all&#39;inglese.">
<polygon fill="white" stroke="black" points="165,-0.5 165,-19.5 324,-19.5 324,-0.5 165,-0.5"/>
<text text-anchor="middle" x="244.5" y="-7.5" font-family="Helvetica,sans-Serif" font-size="10.00">WordQuizzle.Translator.translate</text>
</a>
</g>
</g>
<!-- Node1&#45;&gt;Node6 -->
<g id="edge5" class="edge"><title>Node1&#45;&gt;Node6</title>
<path fill="none" stroke="midnightblue" d="M75.746,-68.3922C93.9816,-57.6422 125.212,-40.3776 154,-30 162.47,-26.9468 171.564,-24.2667 180.595,-21.9437"/>
<polygon fill="midnightblue" stroke="midnightblue" points="181.453,-25.337 190.336,-19.5624 179.791,-18.5372 181.453,-25.337"/>
</g>
<!-- Node5 -->
<g id="node5" class="node"><title>Node5</title>
<g id="a_node5"><a xlink:href="interface_word_quizzle_1_1_word_quizzle_service.html#a40fcaf644a7b5e4e1c1e592052f55e0b" target="_top" xlink:title="Invia la traduzione della parola precedentemente inviata dal server durante una sfida.">
<polygon fill="white" stroke="black" points="371,-39 371,-69 559,-69 559,-39 371,-39"/>
<text text-anchor="start" x="379" y="-57" font-family="Helvetica,sans-Serif" font-size="10.00">WordQuizzle.WordQuizzleService.send</text>
<text text-anchor="middle" x="465" y="-46" font-family="Helvetica,sans-Serif" font-size="10.00">Translation</text>
</a>
</g>
</g>
<!-- Node4&#45;&gt;Node5 -->
<g id="edge4" class="edge"><title>Node4&#45;&gt;Node5</title>
<path fill="none" stroke="midnightblue" d="M335.003,-54C343.474,-54 352.108,-54 360.694,-54"/>
<polygon fill="midnightblue" stroke="midnightblue" points="360.737,-57.5001 370.737,-54 360.737,-50.5001 360.737,-57.5001"/>
</g>
</g>
</svg>
