<?xml version="1.0" encoding="UTF-8" standalone="no"?>
<!DOCTYPE svg PUBLIC "-//W3C//DTD SVG 1.1//EN"
 "http://www.w3.org/Graphics/SVG/1.1/DTD/svg11.dtd">
<!-- Generated by graphviz version 2.38.0 (20140413.2041)
 -->
<!-- Title: UserRegistryService Pages: 1 -->
<svg width="127pt" height="265pt"
 viewBox="0.00 0.00 127.00 265.00" xmlns="http://www.w3.org/2000/svg" xmlns:xlink="http://www.w3.org/1999/xlink">
<g id="graph0" class="graph" transform="scale(1 1) rotate(0) translate(4 261)">
<title>UserRegistryService</title>
<polygon fill="white" stroke="none" points="-4,4 -4,-261 123,-261 123,4 -4,4"/>
<!-- Node1 -->
<g id="node1" class="node"><title>Node1</title>
<g id="a_node1"><a xlink:title=" ">
<polygon fill="#bfbfbf" stroke="black" points="0,-0.5 0,-68.5 119,-68.5 119,-0.5 0,-0.5"/>
<text text-anchor="middle" x="59.5" y="-56.5" font-family="Helvetica,sans-Serif" font-size="10.00">UserRegistryService</text>
<polyline fill="none" stroke="black" points="0,-49.5 119,-49.5 "/>
<text text-anchor="start" x="8" y="-37.5" font-family="Helvetica,sans-Serif" font-size="10.00">&#45; db</text>
<polyline fill="none" stroke="black" points="0,-30.5 119,-30.5 "/>
<text text-anchor="start" x="8" y="-18.5" font-family="Helvetica,sans-Serif" font-size="10.00">+ UserRegistryService()</text>
<text text-anchor="start" x="8" y="-7.5" font-family="Helvetica,sans-Serif" font-size="10.00">+ registra_utente()</text>
</a>
</g>
</g>
<!-- Node2 -->
<g id="node2" class="node"><title>Node2</title>
<g id="a_node2"><a xlink:href="interface_user_registry.html" target="_top" xlink:title=" ">
<polygon fill="white" stroke="black" points="11.5,-105.5 11.5,-162.5 107.5,-162.5 107.5,-105.5 11.5,-105.5"/>
<text text-anchor="middle" x="59.5" y="-150.5" font-family="Helvetica,sans-Serif" font-size="10.00">UserRegistry</text>
<polyline fill="none" stroke="black" points="11.5,-143.5 107.5,-143.5 "/>
<text text-anchor="middle" x="59.5" y="-131.5" font-family="Helvetica,sans-Serif" font-size="10.00"> </text>
<polyline fill="none" stroke="black" points="11.5,-124.5 107.5,-124.5 "/>
<text text-anchor="start" x="19.5" y="-112.5" font-family="Helvetica,sans-Serif" font-size="10.00">+ registra_utente()</text>
</a>
</g>
</g>
<!-- Node2&#45;&gt;Node1 -->
<g id="edge1" class="edge"><title>Node2&#45;&gt;Node1</title>
<path fill="none" stroke="midnightblue" d="M59.5,-95.0631C59.5,-86.3933 59.5,-77.2431 59.5,-68.7855"/>
<polygon fill="none" stroke="midnightblue" points="56.0001,-95.3212 59.5,-105.321 63.0001,-95.3212 56.0001,-95.3212"/>
</g>
<!-- Node3 -->
<g id="node3" class="node"><title>Node3</title>
<g id="a_node3"><a xlink:title=" ">
<polygon fill="white" stroke="#bfbfbf" points="34.5,-199.5 34.5,-256.5 84.5,-256.5 84.5,-199.5 34.5,-199.5"/>
<text text-anchor="middle" x="59.5" y="-244.5" font-family="Helvetica,sans-Serif" font-size="10.00">Remote</text>
<polyline fill="none" stroke="#bfbfbf" points="34.5,-237.5 84.5,-237.5 "/>
<text text-anchor="middle" x="59.5" y="-225.5" font-family="Helvetica,sans-Serif" font-size="10.00"> </text>
<polyline fill="none" stroke="#bfbfbf" points="34.5,-218.5 84.5,-218.5 "/>
<text text-anchor="middle" x="59.5" y="-206.5" font-family="Helvetica,sans-Serif" font-size="10.00"> </text>
</a>
</g>
</g>
<!-- Node3&#45;&gt;Node2 -->
<g id="edge2" class="edge"><title>Node3&#45;&gt;Node2</title>
<path fill="none" stroke="midnightblue" d="M59.5,-189.209C59.5,-180.293 59.5,-170.951 59.5,-162.584"/>
<polygon fill="none" stroke="midnightblue" points="56.0001,-189.397 59.5,-199.397 63.0001,-189.397 56.0001,-189.397"/>
</g>
</g>
</svg>
