<?xml version="1.0" encoding="UTF-8" standalone="no"?>
<!DOCTYPE svg PUBLIC "-//W3C//DTD SVG 1.1//EN"
 "http://www.w3.org/Graphics/SVG/1.1/DTD/svg11.dtd">
<!-- Generated by graphviz version 2.38.0 (20140413.2041)
 -->
<!-- Title: WordQuizzle.Session.parse Pages: 1 -->
<svg width="358pt" height="66pt"
 viewBox="0.00 0.00 358.00 66.00" xmlns="http://www.w3.org/2000/svg" xmlns:xlink="http://www.w3.org/1999/xlink">
<g id="graph0" class="graph" transform="scale(1 1) rotate(0) translate(4 62)">
<title>WordQuizzle.Session.parse</title>
<polygon fill="white" stroke="none" points="-4,4 -4,-62 354,-62 354,4 -4,4"/>
<!-- Node1 -->
<g id="node1" class="node"><title>Node1</title>
<g id="a_node1"><a xlink:title=" ">
<polygon fill="#bfbfbf" stroke="black" points="212,-19.5 212,-38.5 350,-38.5 350,-19.5 212,-19.5"/>
<text text-anchor="middle" x="281" y="-26.5" font-family="Helvetica,sans-Serif" font-size="10.00">WordQuizzle.Session.parse</text>
</a>
</g>
</g>
<!-- Node2 -->
<g id="node2" class="node"><title>Node2</title>
<g id="a_node2"><a xlink:href="class_word_quizzle_1_1_word_quizzle_server.html#a4aa19bad373d06a790babba1e5b67644" target="_top" xlink:title=" ">
<polygon fill="white" stroke="black" points="0,-38.5 0,-57.5 176,-57.5 176,-38.5 0,-38.5"/>
<text text-anchor="middle" x="88" y="-45.5" font-family="Helvetica,sans-Serif" font-size="10.00">WordQuizzle.WordQuizzleServer.run</text>
</a>
</g>
</g>
<!-- Node1&#45;&gt;Node2 -->
<g id="edge1" class="edge"><title>Node1&#45;&gt;Node2</title>
<path fill="none" stroke="midnightblue" d="M201.692,-36.7898C193.27,-37.6275 184.665,-38.4836 176.149,-39.3308"/>
<polygon fill="midnightblue" stroke="midnightblue" points="202.249,-40.2517 211.854,-35.779 201.556,-33.2861 202.249,-40.2517"/>
</g>
<!-- Node3 -->
<g id="node3" class="node"><title>Node3</title>
<g id="a_node3"><a xlink:href="class_word_quizzle_1_1_challenge.html#aa7b93cfc7d1927c0b1c060cc387321b9" target="_top" xlink:title=" ">
<polygon fill="white" stroke="black" points="20.5,-0.5 20.5,-19.5 155.5,-19.5 155.5,-0.5 20.5,-0.5"/>
<text text-anchor="middle" x="88" y="-7.5" font-family="Helvetica,sans-Serif" font-size="10.00">WordQuizzle.Challenge.run</text>
</a>
</g>
</g>
<!-- Node1&#45;&gt;Node3 -->
<g id="edge2" class="edge"><title>Node1&#45;&gt;Node3</title>
<path fill="none" stroke="midnightblue" d="M201.853,-21.2263C186.473,-19.6963 170.471,-18.1045 155.517,-16.6169"/>
<polygon fill="midnightblue" stroke="midnightblue" points="201.556,-24.7139 211.854,-22.221 202.249,-17.7483 201.556,-24.7139"/>
</g>
</g>
</svg>
