<?xml version="1.0" encoding="UTF-8" standalone="no"?>
<!DOCTYPE svg PUBLIC "-//W3C//DTD SVG 1.1//EN"
 "http://www.w3.org/Graphics/SVG/1.1/DTD/svg11.dtd">
<!-- Generated by graphviz version 2.38.0 (20140413.2041)
 -->
<!-- Title: WQGui.main Pages: 1 -->
<svg width="526pt" height="28pt"
 viewBox="0.00 0.00 526.00 28.00" xmlns="http://www.w3.org/2000/svg" xmlns:xlink="http://www.w3.org/1999/xlink">
<g id="graph0" class="graph" transform="scale(1 1) rotate(0) translate(4 24)">
<title>WQGui.main</title>
<polygon fill="white" stroke="none" points="-4,4 -4,-24 522,-24 522,4 -4,4"/>
<!-- Node1 -->
<g id="node1" class="node"><title>Node1</title>
<g id="a_node1"><a xlink:title="Avvia l&#39;interfaccia.">
<polygon fill="#bfbfbf" stroke="black" points="0,-0.5 0,-19.5 73,-19.5 73,-0.5 0,-0.5"/>
<text text-anchor="middle" x="36.5" y="-7.5" font-family="Helvetica,sans-Serif" font-size="10.00">WQGui.main</text>
</a>
</g>
</g>
<!-- Node2 -->
<g id="node2" class="node"><title>Node2</title>
<g id="a_node2"><a xlink:href="class_w_q_gui.html#a77582f823f634cefe33729509fd9e28f" target="_top" xlink:title="Crea l&#39;interfaccia per la prima volta.">
<polygon fill="white" stroke="black" points="109,-0.5 109,-19.5 185,-19.5 185,-0.5 109,-0.5"/>
<text text-anchor="middle" x="147" y="-7.5" font-family="Helvetica,sans-Serif" font-size="10.00">WQGui.make</text>
</a>
</g>
</g>
<!-- Node1&#45;&gt;Node2 -->
<g id="edge1" class="edge"><title>Node1&#45;&gt;Node2</title>
<path fill="none" stroke="midnightblue" d="M73.027,-10C81.2893,-10 90.212,-10 98.8869,-10"/>
<polygon fill="midnightblue" stroke="midnightblue" points="98.9024,-13.5001 108.902,-10 98.9023,-6.5001 98.9024,-13.5001"/>
</g>
<!-- Node3 -->
<g id="node3" class="node"><title>Node3</title>
<g id="a_node3"><a xlink:href="class_word_quizzle_client.html#ab3b513d94019a6b4350aaa6c92c59136" target="_top" xlink:title="Effettua il logout di user.">
<polygon fill="white" stroke="black" points="221,-0.5 221,-19.5 348,-19.5 348,-0.5 221,-0.5"/>
<text text-anchor="middle" x="284.5" y="-7.5" font-family="Helvetica,sans-Serif" font-size="10.00">WordQuizzleClient.logout</text>
</a>
</g>
</g>
<!-- Node2&#45;&gt;Node3 -->
<g id="edge2" class="edge"><title>Node2&#45;&gt;Node3</title>
<path fill="none" stroke="midnightblue" d="M185.026,-10C193.11,-10 201.935,-10 210.874,-10"/>
<polygon fill="midnightblue" stroke="midnightblue" points="210.98,-13.5001 220.98,-10 210.98,-6.5001 210.98,-13.5001"/>
</g>
<!-- Node4 -->
<g id="node4" class="node"><title>Node4</title>
<g id="a_node4"><a xlink:href="interface_word_quizzle_service.html#a4f3b6b3f8ee7f02e7560de7571de1e07" target="_top" xlink:title="Effettua il logout.">
<polygon fill="white" stroke="black" points="384,-0.5 384,-19.5 518,-19.5 518,-0.5 384,-0.5"/>
<text text-anchor="middle" x="451" y="-7.5" font-family="Helvetica,sans-Serif" font-size="10.00">WordQuizzleService.logout</text>
</a>
</g>
</g>
<!-- Node3&#45;&gt;Node4 -->
<g id="edge3" class="edge"><title>Node3&#45;&gt;Node4</title>
<path fill="none" stroke="midnightblue" d="M348.16,-10C356.578,-10 365.287,-10 373.906,-10"/>
<polygon fill="midnightblue" stroke="midnightblue" points="373.959,-13.5001 383.959,-10 373.959,-6.5001 373.959,-13.5001"/>
</g>
</g>
</svg>
