<?xml version="1.0" encoding="UTF-8" standalone="no"?>
<!DOCTYPE svg PUBLIC "-//W3C//DTD SVG 1.1//EN"
 "http://www.w3.org/Graphics/SVG/1.1/DTD/svg11.dtd">
<!-- Generated by graphviz version 2.38.0 (20140413.2041)
 -->
<!-- Title: WordQuizzle.WordQuizzleServerService.aggiungi_amico Pages: 1 -->
<svg width="371pt" height="66pt"
 viewBox="0.00 0.00 371.00 66.00" xmlns="http://www.w3.org/2000/svg" xmlns:xlink="http://www.w3.org/1999/xlink">
<g id="graph0" class="graph" transform="scale(1 1) rotate(0) translate(4 62)">
<title>WordQuizzle.WordQuizzleServerService.aggiungi_amico</title>
<polygon fill="white" stroke="none" points="-4,4 -4,-62 367,-62 367,4 -4,4"/>
<!-- Node1 -->
<g id="node1" class="node"><title>Node1</title>
<g id="a_node1"><a xlink:title="Aggiunge un utente alla lista di amici di nickUtente.">
<polygon fill="#bfbfbf" stroke="black" points="0,-14 0,-44 159,-44 159,-14 0,-14"/>
<text text-anchor="start" x="8" y="-32" font-family="Helvetica,sans-Serif" font-size="10.00">WordQuizzle.WordQuizzleServer</text>
<text text-anchor="middle" x="79.5" y="-21" font-family="Helvetica,sans-Serif" font-size="10.00">Service.aggiungi_amico</text>
</a>
</g>
</g>
<!-- Node2 -->
<g id="node2" class="node"><title>Node2</title>
<g id="a_node2"><a xlink:href="interface_word_quizzle_1_1_data_base.html#a256d6e7e3541d11a9ff219431066a7d5" target="_top" xlink:title="Controlla che quel nome utente sia nel database.">
<polygon fill="white" stroke="black" points="195,-38.5 195,-57.5 363,-57.5 363,-38.5 195,-38.5"/>
<text text-anchor="middle" x="279" y="-45.5" font-family="Helvetica,sans-Serif" font-size="10.00">WordQuizzle.DataBase.checkUser</text>
</a>
</g>
</g>
<!-- Node1&#45;&gt;Node2 -->
<g id="edge1" class="edge"><title>Node1&#45;&gt;Node2</title>
<path fill="none" stroke="midnightblue" d="M159.125,-36.5639C167.552,-37.3746 176.184,-38.205 184.76,-39.0301"/>
<polygon fill="midnightblue" stroke="midnightblue" points="184.497,-42.5209 194.787,-39.9947 185.168,-35.5531 184.497,-42.5209"/>
</g>
<!-- Node3 -->
<g id="node3" class="node"><title>Node3</title>
<g id="a_node3"><a xlink:href="interface_word_quizzle_1_1_data_base.html#a2128ed726158cf0961972a99ac83b9a8" target="_top" xlink:title="Crea un link (amicizia) non orientato tra due utenti.">
<polygon fill="white" stroke="black" points="210.5,-0.5 210.5,-19.5 347.5,-19.5 347.5,-0.5 210.5,-0.5"/>
<text text-anchor="middle" x="279" y="-7.5" font-family="Helvetica,sans-Serif" font-size="10.00">WordQuizzle.DataBase.link</text>
</a>
</g>
</g>
<!-- Node1&#45;&gt;Node3 -->
<g id="edge2" class="edge"><title>Node1&#45;&gt;Node3</title>
<path fill="none" stroke="midnightblue" d="M159.125,-21.4361C172.669,-20.1331 186.74,-18.7795 200.26,-17.4788"/>
<polygon fill="midnightblue" stroke="midnightblue" points="200.855,-20.9378 210.474,-16.4962 200.185,-13.9699 200.855,-20.9378"/>
</g>
</g>
</svg>
