<?xml version="1.0" encoding="UTF-8" standalone="no"?>
<!DOCTYPE svg PUBLIC "-//W3C//DTD SVG 1.1//EN"
 "http://www.w3.org/Graphics/SVG/1.1/DTD/svg11.dtd">
<!-- Generated by graphviz version 2.38.0 (20140413.2041)
 -->
<!-- Title: WordQuizzle.WQCli.main Pages: 1 -->
<svg width="936pt" height="831pt"
 viewBox="0.00 0.00 936.00 831.00" xmlns="http://www.w3.org/2000/svg" xmlns:xlink="http://www.w3.org/1999/xlink">
<g id="graph0" class="graph" transform="scale(1 1) rotate(0) translate(4 827)">
<title>WordQuizzle.WQCli.main</title>
<polygon fill="white" stroke="none" points="-4,4 -4,-827 932,-827 932,4 -4,4"/>
<!-- Node1 -->
<g id="node1" class="node"><title>Node1</title>
<g id="a_node1"><a xlink:title=" ">
<polygon fill="#bfbfbf" stroke="black" points="0,-324 0,-343 128,-343 128,-324 0,-324"/>
<text text-anchor="middle" x="64" y="-331" font-family="Helvetica,sans-Serif" font-size="10.00">WordQuizzle.WQCli.main</text>
</a>
</g>
</g>
<!-- Node2 -->
<g id="node2" class="node"><title>Node2</title>
<g id="a_node2"><a xlink:href="class_word_quizzle_1_1_w_q_cli.html#af99dd07b4f0c4e029f872de8ea3ae9f3" target="_top" xlink:title=" ">
<polygon fill="white" stroke="black" points="371.5,-573 371.5,-592 496.5,-592 496.5,-573 371.5,-573"/>
<text text-anchor="middle" x="434" y="-580" font-family="Helvetica,sans-Serif" font-size="10.00">WordQuizzle.WQCli.help</text>
</a>
</g>
</g>
<!-- Node1&#45;&gt;Node2 -->
<g id="edge1" class="edge"><title>Node1&#45;&gt;Node2</title>
<path fill="none" stroke="midnightblue" d="M76.3916,-343.006C112.762,-373.112 229.934,-468.211 336,-533.5 357.442,-546.699 382.889,-559.452 402.338,-568.638"/>
<polygon fill="midnightblue" stroke="midnightblue" points="401.092,-571.919 411.634,-572.973 404.05,-565.575 401.092,-571.919"/>
</g>
<!-- Node12 -->
<g id="node12" class="node"><title>Node12</title>
<g id="a_node12"><a xlink:href="class_word_quizzle_1_1_w_q_cli.html#a318ef86f91a825da4ff4684bd3332a6b" target="_top" xlink:title=" ">
<polygon fill="white" stroke="black" points="166.5,-324 166.5,-343 297.5,-343 297.5,-324 166.5,-324"/>
<text text-anchor="middle" x="232" y="-331" font-family="Helvetica,sans-Serif" font-size="10.00">WordQuizzle.WQCli.parse</text>
</a>
</g>
</g>
<!-- Node1&#45;&gt;Node12 -->
<g id="edge11" class="edge"><title>Node1&#45;&gt;Node12</title>
<path fill="none" stroke="midnightblue" d="M128.231,-333.5C137.382,-333.5 146.873,-333.5 156.224,-333.5"/>
<polygon fill="midnightblue" stroke="midnightblue" points="156.293,-337 166.293,-333.5 156.293,-330 156.293,-337"/>
</g>
<!-- Node33 -->
<g id="node33" class="node"><title>Node33</title>
<g id="a_node33"><a xlink:href="class_word_quizzle_1_1_w_q_cli.html#abbfeca795402787c509e85596a212d64" target="_top" xlink:title=" ">
<polygon fill="white" stroke="black" points="164,-286 164,-305 300,-305 300,-286 164,-286"/>
<text text-anchor="middle" x="232" y="-293" font-family="Helvetica,sans-Serif" font-size="10.00">WordQuizzle.WQCli.WQCli</text>
</a>
</g>
</g>
<!-- Node1&#45;&gt;Node33 -->
<g id="edge43" class="edge"><title>Node1&#45;&gt;Node33</title>
<path fill="none" stroke="midnightblue" d="M106.889,-323.911C128.893,-318.874 156.055,-312.656 179.352,-307.323"/>
<polygon fill="midnightblue" stroke="midnightblue" points="180.446,-310.663 189.412,-305.02 178.884,-303.84 180.446,-310.663"/>
</g>
<!-- Node3 -->
<g id="node3" class="node"><title>Node3</title>
<g id="a_node3"><a xlink:href="class_word_quizzle_1_1_w_q_cli.html#a423482396d62407941b62b92f4a25732" target="_top" xlink:title=" ">
<polygon fill="white" stroke="black" points="575,-518.5 575,-548.5 718,-548.5 718,-518.5 575,-518.5"/>
<text text-anchor="start" x="583" y="-536.5" font-family="Helvetica,sans-Serif" font-size="10.00">WordQuizzle.WQCli.aggiungi</text>
<text text-anchor="middle" x="646.5" y="-525.5" font-family="Helvetica,sans-Serif" font-size="10.00">_amico</text>
</a>
</g>
</g>
<!-- Node2&#45;&gt;Node3 -->
<g id="edge2" class="edge"><title>Node2&#45;&gt;Node3</title>
<path fill="none" stroke="midnightblue" d="M475.836,-572.994C502.816,-566.714 538.97,-558.298 570.972,-550.849"/>
<polygon fill="midnightblue" stroke="midnightblue" points="571.809,-554.247 580.755,-548.571 570.222,-547.43 571.809,-554.247"/>
</g>
<!-- Node4 -->
<g id="node4" class="node"><title>Node4</title>
<g id="a_node4"><a xlink:href="class_word_quizzle_1_1_w_q_cli.html#a0637563fc8b57e7e5d7bc623be3047e9" target="_top" xlink:title=" ">
<polygon fill="white" stroke="black" points="584,-792.5 584,-822.5 709,-822.5 709,-792.5 584,-792.5"/>
<text text-anchor="start" x="592" y="-810.5" font-family="Helvetica,sans-Serif" font-size="10.00">WordQuizzle.WQCli.lista</text>
<text text-anchor="middle" x="646.5" y="-799.5" font-family="Helvetica,sans-Serif" font-size="10.00">_amici</text>
</a>
</g>
</g>
<!-- Node2&#45;&gt;Node4 -->
<g id="edge3" class="edge"><title>Node2&#45;&gt;Node4</title>
<path fill="none" stroke="midnightblue" d="M438.641,-592.083C451.294,-624.099 496.52,-728.387 568,-782.5 570.457,-784.36 573.057,-786.084 575.759,-787.683"/>
<polygon fill="midnightblue" stroke="midnightblue" points="574.199,-790.817 584.68,-792.372 577.456,-784.621 574.199,-790.817"/>
</g>
<!-- Node5 -->
<g id="node5" class="node"><title>Node5</title>
<g id="a_node5"><a xlink:href="class_word_quizzle_1_1_w_q_cli.html#a5be21ae4cfdcdae806ff4a935f0799fd" target="_top" xlink:title=" ">
<polygon fill="white" stroke="black" points="582.5,-480 582.5,-499 710.5,-499 710.5,-480 582.5,-480"/>
<text text-anchor="middle" x="646.5" y="-487" font-family="Helvetica,sans-Serif" font-size="10.00">WordQuizzle.WQCli.login</text>
</a>
</g>
</g>
<!-- Node2&#45;&gt;Node5 -->
<g id="edge4" class="edge"><title>Node2&#45;&gt;Node5</title>
<path fill="none" stroke="midnightblue" d="M449.133,-572.956C472.771,-557.386 522.251,-526.459 568,-508.5 574.325,-506.017 581.071,-503.788 587.844,-501.807"/>
<polygon fill="midnightblue" stroke="midnightblue" points="589.031,-505.111 597.743,-499.081 587.172,-498.362 589.031,-505.111"/>
</g>
<!-- Node6 -->
<g id="node6" class="node"><title>Node6</title>
<g id="a_node6"><a xlink:href="class_word_quizzle_1_1_w_q_cli.html#a09b72dba431b9d164cc07cdbd58053df" target="_top" xlink:title=" ">
<polygon fill="white" stroke="black" points="579.5,-754 579.5,-773 713.5,-773 713.5,-754 579.5,-754"/>
<text text-anchor="middle" x="646.5" y="-761" font-family="Helvetica,sans-Serif" font-size="10.00">WordQuizzle.WQCli.logout</text>
</a>
</g>
</g>
<!-- Node2&#45;&gt;Node6 -->
<g id="edge5" class="edge"><title>Node2&#45;&gt;Node6</title>
<path fill="none" stroke="midnightblue" d="M440.117,-592.269C455.415,-620.478 503.756,-702.642 568,-743.5 572.038,-746.068 576.392,-748.307 580.904,-750.259"/>
<polygon fill="midnightblue" stroke="midnightblue" points="579.746,-753.564 590.336,-753.876 582.253,-747.028 579.746,-753.564"/>
</g>
<!-- Node7 -->
<g id="node7" class="node"><title>Node7</title>
<g id="a_node7"><a xlink:href="class_word_quizzle_1_1_w_q_cli.html#a147c086aad7a54c6162cea04f4a5cea8" target="_top" xlink:title=" ">
<polygon fill="white" stroke="black" points="578,-704.5 578,-734.5 715,-734.5 715,-704.5 578,-704.5"/>
<text text-anchor="start" x="586" y="-722.5" font-family="Helvetica,sans-Serif" font-size="10.00">WordQuizzle.WQCli.mostra</text>
<text text-anchor="middle" x="646.5" y="-711.5" font-family="Helvetica,sans-Serif" font-size="10.00">_classifica</text>
</a>
</g>
</g>
<!-- Node2&#45;&gt;Node7 -->
<g id="edge6" class="edge"><title>Node2&#45;&gt;Node7</title>
<path fill="none" stroke="midnightblue" d="M443.727,-592.033C463.719,-613.339 515.191,-665.24 568,-694.5 571.932,-696.679 576.083,-698.702 580.338,-700.574"/>
<polygon fill="midnightblue" stroke="midnightblue" points="579.193,-703.888 589.773,-704.436 581.844,-697.409 579.193,-703.888"/>
</g>
<!-- Node8 -->
<g id="node8" class="node"><title>Node8</title>
<g id="a_node8"><a xlink:href="class_word_quizzle_1_1_w_q_cli.html#a10b2156f5c561a889f7feec6cb7bbacc" target="_top" xlink:title=" ">
<polygon fill="white" stroke="black" points="578,-655.5 578,-685.5 715,-685.5 715,-655.5 578,-655.5"/>
<text text-anchor="start" x="586" y="-673.5" font-family="Helvetica,sans-Serif" font-size="10.00">WordQuizzle.WQCli.mostra</text>
<text text-anchor="middle" x="646.5" y="-662.5" font-family="Helvetica,sans-Serif" font-size="10.00">_punteggio</text>
</a>
</g>
</g>
<!-- Node2&#45;&gt;Node8 -->
<g id="edge7" class="edge"><title>Node2&#45;&gt;Node8</title>
<path fill="none" stroke="midnightblue" d="M453.168,-592.037C478.471,-605.103 525.956,-628.843 568,-645.5 573.779,-647.79 579.859,-650.03 585.966,-652.171"/>
<polygon fill="midnightblue" stroke="midnightblue" points="584.952,-655.523 595.547,-655.446 587.216,-648.899 584.952,-655.523"/>
</g>
<!-- Node9 -->
<g id="node9" class="node"><title>Node9</title>
<g id="a_node9"><a xlink:href="class_word_quizzle_1_1_w_q_cli.html#a07609480f2f51587119199d616ce5ee2" target="_top" xlink:title=" ">
<polygon fill="white" stroke="black" points="585,-617 585,-636 708,-636 708,-617 585,-617"/>
<text text-anchor="middle" x="646.5" y="-624" font-family="Helvetica,sans-Serif" font-size="10.00">WordQuizzle.WQCli.quit</text>
</a>
</g>
</g>
<!-- Node2&#45;&gt;Node9 -->
<g id="edge8" class="edge"><title>Node2&#45;&gt;Node9</title>
<path fill="none" stroke="midnightblue" d="M480.675,-592.047C512.811,-598.765 555.995,-607.791 590.099,-614.92"/>
<polygon fill="midnightblue" stroke="midnightblue" points="589.409,-618.351 599.914,-616.971 590.841,-611.499 589.409,-618.351"/>
</g>
<!-- Node10 -->
<g id="node10" class="node"><title>Node10</title>
<g id="a_node10"><a xlink:href="class_word_quizzle_1_1_w_q_cli.html#a65cec1c9b0f47f1996351f0fd40f9c4c" target="_top" xlink:title=" ">
<polygon fill="white" stroke="black" points="576.5,-567.5 576.5,-597.5 716.5,-597.5 716.5,-567.5 576.5,-567.5"/>
<text text-anchor="start" x="584.5" y="-585.5" font-family="Helvetica,sans-Serif" font-size="10.00">WordQuizzle.WQCli.registra</text>
<text text-anchor="middle" x="646.5" y="-574.5" font-family="Helvetica,sans-Serif" font-size="10.00">_utente</text>
</a>
</g>
</g>
<!-- Node2&#45;&gt;Node10 -->
<g id="edge9" class="edge"><title>Node2&#45;&gt;Node10</title>
<path fill="none" stroke="midnightblue" d="M496.735,-582.5C518.504,-582.5 543.287,-582.5 566.298,-582.5"/>
<polygon fill="midnightblue" stroke="midnightblue" points="566.382,-586 576.382,-582.5 566.382,-579 566.382,-586"/>
</g>
<!-- Node11 -->
<g id="node11" class="node"><title>Node11</title>
<g id="a_node11"><a xlink:href="class_word_quizzle_1_1_w_q_cli.html#abf6a8e25f47e24745e96260127cf9b71" target="_top" xlink:title=" ">
<polygon fill="white" stroke="black" points="582.5,-442 582.5,-461 710.5,-461 710.5,-442 582.5,-442"/>
<text text-anchor="middle" x="646.5" y="-449" font-family="Helvetica,sans-Serif" font-size="10.00">WordQuizzle.WQCli.sfida</text>
</a>
</g>
</g>
<!-- Node2&#45;&gt;Node11 -->
<g id="edge10" class="edge"><title>Node2&#45;&gt;Node11</title>
<path fill="none" stroke="midnightblue" d="M443.582,-572.693C463.276,-550.825 514.177,-497.851 568,-470.5 572.591,-468.167 577.482,-466.111 582.491,-464.301"/>
<polygon fill="midnightblue" stroke="midnightblue" points="583.804,-467.554 592.217,-461.114 581.625,-460.902 583.804,-467.554"/>
</g>
<!-- Node12&#45;&gt;Node2 -->
<g id="edge19" class="edge"><title>Node12&#45;&gt;Node2</title>
<path fill="none" stroke="midnightblue" d="M237.616,-343.197C257.103,-384.104 331.833,-540.657 336,-544.5 348.331,-555.873 364.459,-563.994 380.015,-569.725"/>
<polygon fill="midnightblue" stroke="midnightblue" points="378.993,-573.074 389.588,-572.993 381.255,-566.45 378.993,-573.074"/>
</g>
<!-- Node12&#45;&gt;Node3 -->
<g id="edge18" class="edge"><title>Node12&#45;&gt;Node3</title>
<path fill="none" stroke="midnightblue" d="M235.917,-343.276C245.125,-372.246 276.543,-457.948 336,-495.5 404.352,-538.67 498.277,-544.405 564.68,-541.69"/>
<polygon fill="midnightblue" stroke="midnightblue" points="564.862,-545.186 574.682,-541.209 564.525,-538.194 564.862,-545.186"/>
</g>
<!-- Node12&#45;&gt;Node5 -->
<g id="edge26" class="edge"><title>Node12&#45;&gt;Node5</title>
<path fill="none" stroke="midnightblue" d="M237.325,-343.066C249.072,-367.78 284.203,-433.758 336,-461.5 409.248,-500.731 506.38,-502.893 572.148,-498.389"/>
<polygon fill="midnightblue" stroke="midnightblue" points="572.717,-501.856 582.426,-497.613 572.191,-494.876 572.717,-501.856"/>
</g>
<!-- Node12&#45;&gt;Node11 -->
<g id="edge42" class="edge"><title>Node12&#45;&gt;Node11</title>
<path fill="none" stroke="midnightblue" d="M239.571,-343.294C254.098,-363.997 291.228,-411.906 336,-431.5 411.502,-464.543 507.359,-465.223 572.241,-460.427"/>
<polygon fill="midnightblue" stroke="midnightblue" points="572.692,-463.902 582.38,-459.615 572.132,-456.925 572.692,-463.902"/>
</g>
<!-- Node13 -->
<g id="node13" class="node"><title>Node13</title>
<g id="a_node13"><a xlink:href="class_word_quizzle_1_1_word_quizzle_client.html#a566a113b03f71cf566566086294aa195" target="_top" xlink:title=" ">
<polygon fill="white" stroke="black" points="338,-343.5 338,-373.5 530,-373.5 530,-343.5 338,-343.5"/>
<text text-anchor="start" x="346" y="-361.5" font-family="Helvetica,sans-Serif" font-size="10.00">WordQuizzle.WordQuizzleClient.accetta</text>
<text text-anchor="middle" x="434" y="-350.5" font-family="Helvetica,sans-Serif" font-size="10.00">Sfida</text>
</a>
</g>
</g>
<!-- Node12&#45;&gt;Node13 -->
<g id="edge12" class="edge"><title>Node12&#45;&gt;Node13</title>
<path fill="none" stroke="midnightblue" d="M297.658,-341.582C307.245,-342.781 317.329,-344.041 327.489,-345.311"/>
<polygon fill="midnightblue" stroke="midnightblue" points="327.302,-348.815 337.659,-346.582 328.17,-341.869 327.302,-348.815"/>
</g>
<!-- Node16 -->
<g id="node16" class="node"><title>Node16</title>
<g id="a_node16"><a xlink:href="class_word_quizzle_1_1_word_quizzle_client.html#a91d982387c02c9ccae681f4a7d500a75" target="_top" xlink:title=" ">
<polygon fill="white" stroke="black" points="336,-245.5 336,-275.5 532,-275.5 532,-245.5 336,-245.5"/>
<text text-anchor="start" x="344" y="-263.5" font-family="Helvetica,sans-Serif" font-size="10.00">WordQuizzle.WordQuizzleClient.aggiungi</text>
<text text-anchor="middle" x="434" y="-252.5" font-family="Helvetica,sans-Serif" font-size="10.00">_amico</text>
</a>
</g>
</g>
<!-- Node12&#45;&gt;Node16 -->
<g id="edge15" class="edge"><title>Node12&#45;&gt;Node16</title>
<path fill="none" stroke="midnightblue" d="M276.919,-323.905C284.832,-321.383 292.836,-318.28 300,-314.5 318.42,-304.78 317.418,-293.907 336,-284.5 339.831,-282.561 343.827,-280.772 347.922,-279.123"/>
<polygon fill="midnightblue" stroke="midnightblue" points="349.465,-282.284 357.622,-275.523 347.029,-275.721 349.465,-282.284"/>
</g>
<!-- Node18 -->
<g id="node18" class="node"><title>Node18</title>
<g id="a_node18"><a xlink:href="class_word_quizzle_1_1_word_quizzle_client.html#a601f27bc3078f4c7d43417481f4c1353" target="_top" xlink:title=" ">
<polygon fill="white" stroke="black" points="345,-294.5 345,-324.5 523,-324.5 523,-294.5 345,-294.5"/>
<text text-anchor="start" x="353" y="-312.5" font-family="Helvetica,sans-Serif" font-size="10.00">WordQuizzle.WordQuizzleClient.lista</text>
<text text-anchor="middle" x="434" y="-301.5" font-family="Helvetica,sans-Serif" font-size="10.00">_amici</text>
</a>
</g>
</g>
<!-- Node12&#45;&gt;Node18 -->
<g id="edge20" class="edge"><title>Node12&#45;&gt;Node18</title>
<path fill="none" stroke="midnightblue" d="M297.658,-325.741C309.545,-324.315 322.197,-322.796 334.81,-321.283"/>
<polygon fill="midnightblue" stroke="midnightblue" points="335.39,-324.738 344.902,-320.072 334.556,-317.788 335.39,-324.738"/>
</g>
<!-- Node20 -->
<g id="node20" class="node"><title>Node20</title>
<g id="a_node20"><a xlink:href="class_word_quizzle_1_1_word_quizzle_client.html#aa87c179f3a0a6ab57c2b74960c95a626" target="_top" xlink:title=" ">
<polygon fill="white" stroke="black" points="344,-206 344,-225 524,-225 524,-206 344,-206"/>
<text text-anchor="middle" x="434" y="-213" font-family="Helvetica,sans-Serif" font-size="10.00">WordQuizzle.WordQuizzleClient.login</text>
</a>
</g>
</g>
<!-- Node12&#45;&gt;Node20 -->
<g id="edge23" class="edge"><title>Node12&#45;&gt;Node20</title>
<path fill="none" stroke="midnightblue" d="M284.761,-323.894C290.278,-321.44 295.506,-318.361 300,-314.5 329.267,-289.356 305.835,-259.56 336,-235.5 338.772,-233.289 341.728,-231.304 344.819,-229.523"/>
<polygon fill="midnightblue" stroke="midnightblue" points="346.456,-232.618 353.848,-225.028 343.336,-226.352 346.456,-232.618"/>
</g>
<!-- Node22 -->
<g id="node22" class="node"><title>Node22</title>
<g id="a_node22"><a xlink:href="class_word_quizzle_1_1_word_quizzle_client.html#a50468f5e79e6bba9efc2e9fd19493345" target="_top" xlink:title=" ">
<polygon fill="white" stroke="black" points="341,-113 341,-132 527,-132 527,-113 341,-113"/>
<text text-anchor="middle" x="434" y="-120" font-family="Helvetica,sans-Serif" font-size="10.00">WordQuizzle.WordQuizzleClient.logout</text>
</a>
</g>
</g>
<!-- Node12&#45;&gt;Node22 -->
<g id="edge27" class="edge"><title>Node12&#45;&gt;Node22</title>
<path fill="none" stroke="midnightblue" d="M287.27,-323.987C292.005,-321.499 296.368,-318.387 300,-314.5 352.733,-258.074 281.783,-199.501 336,-144.5 338.705,-141.756 341.675,-139.323 344.844,-137.168"/>
<polygon fill="midnightblue" stroke="midnightblue" points="346.735,-140.118 353.649,-132.09 343.238,-134.054 346.735,-140.118"/>
</g>
<!-- Node24 -->
<g id="node24" class="node"><title>Node24</title>
<g id="a_node24"><a xlink:href="class_word_quizzle_1_1_word_quizzle_client.html#a155c2dca547e63f1ba07589525ccfd75" target="_top" xlink:title=" ">
<polygon fill="white" stroke="black" points="339,-154.5 339,-184.5 529,-184.5 529,-154.5 339,-154.5"/>
<text text-anchor="start" x="347" y="-172.5" font-family="Helvetica,sans-Serif" font-size="10.00">WordQuizzle.WordQuizzleClient.mostra</text>
<text text-anchor="middle" x="434" y="-161.5" font-family="Helvetica,sans-Serif" font-size="10.00">_classifica</text>
</a>
</g>
</g>
<!-- Node12&#45;&gt;Node24 -->
<g id="edge30" class="edge"><title>Node12&#45;&gt;Node24</title>
<path fill="none" stroke="midnightblue" d="M286.27,-323.98C291.321,-321.501 296.029,-318.394 300,-314.5 339.153,-276.114 296.754,-234.791 336,-196.5 338.44,-194.12 341.071,-191.945 343.85,-189.959"/>
<polygon fill="midnightblue" stroke="midnightblue" points="345.927,-192.789 352.586,-184.549 342.242,-186.838 345.927,-192.789"/>
</g>
<!-- Node26 -->
<g id="node26" class="node"><title>Node26</title>
<g id="a_node26"><a xlink:href="class_word_quizzle_1_1_word_quizzle_client.html#a22e0d1e5461e49703357d34b50cf70b8" target="_top" xlink:title=" ">
<polygon fill="white" stroke="black" points="339,-57.5 339,-87.5 529,-87.5 529,-57.5 339,-57.5"/>
<text text-anchor="start" x="347" y="-75.5" font-family="Helvetica,sans-Serif" font-size="10.00">WordQuizzle.WordQuizzleClient.mostra</text>
<text text-anchor="middle" x="434" y="-64.5" font-family="Helvetica,sans-Serif" font-size="10.00">_punteggio</text>
</a>
</g>
</g>
<!-- Node12&#45;&gt;Node26 -->
<g id="edge33" class="edge"><title>Node12&#45;&gt;Node26</title>
<path fill="none" stroke="midnightblue" d="M287.75,-323.962C292.329,-321.473 296.526,-318.368 300,-314.5 363.564,-243.719 273.613,-175.32 336,-103.5 339.462,-99.5147 343.436,-96.0373 347.755,-93.0036"/>
<polygon fill="midnightblue" stroke="midnightblue" points="349.732,-95.8974 356.444,-87.6996 346.085,-89.9227 349.732,-95.8974"/>
</g>
<!-- Node28 -->
<g id="node28" class="node"><title>Node28</title>
<g id="a_node28"><a xlink:href="class_word_quizzle_1_1_word_quizzle_client.html#a98206956fc50ef3951d27f2a89fb21fa" target="_top" xlink:title=" ">
<polygon fill="white" stroke="black" points="338,-392.5 338,-422.5 530,-422.5 530,-392.5 338,-392.5"/>
<text text-anchor="start" x="346" y="-410.5" font-family="Helvetica,sans-Serif" font-size="10.00">WordQuizzle.WordQuizzleClient.registra</text>
<text text-anchor="middle" x="434" y="-399.5" font-family="Helvetica,sans-Serif" font-size="10.00">_utente</text>
</a>
</g>
</g>
<!-- Node12&#45;&gt;Node28 -->
<g id="edge36" class="edge"><title>Node12&#45;&gt;Node28</title>
<path fill="none" stroke="midnightblue" d="M250.42,-343.058C270.554,-353.804 304.914,-371.218 336,-382.5 342.912,-385.008 350.187,-387.37 357.516,-389.565"/>
<polygon fill="midnightblue" stroke="midnightblue" points="356.936,-393.041 367.515,-392.454 358.879,-386.316 356.936,-393.041"/>
</g>
<!-- Node31 -->
<g id="node31" class="node"><title>Node31</title>
<g id="a_node31"><a xlink:href="class_word_quizzle_1_1_word_quizzle_client.html#a2f667c9d998bab28411f3fd0af90ec8c" target="_top" xlink:title=" ">
<polygon fill="white" stroke="black" points="344,-7 344,-26 524,-26 524,-7 344,-7"/>
<text text-anchor="middle" x="434" y="-14" font-family="Helvetica,sans-Serif" font-size="10.00">WordQuizzle.WordQuizzleClient.sfida</text>
</a>
</g>
</g>
<!-- Node12&#45;&gt;Node31 -->
<g id="edge39" class="edge"><title>Node12&#45;&gt;Node31</title>
<path fill="none" stroke="midnightblue" d="M288.208,-323.91C292.635,-321.426 296.674,-318.337 300,-314.5 378.436,-224.026 259.068,-139.256 336,-47.5 342.238,-40.0594 350.265,-34.3846 359.025,-30.0603"/>
<polygon fill="midnightblue" stroke="midnightblue" points="360.58,-33.2013 368.375,-26.0255 357.806,-26.7741 360.58,-33.2013"/>
</g>
<!-- Node14 -->
<g id="node14" class="node"><title>Node14</title>
<g id="a_node14"><a xlink:href="class_word_quizzle_1_1_word_quizzle_client_service.html#ab0c5778cdd7d53946f7554d64ba63c57" target="_top" xlink:title=" ">
<polygon fill="white" stroke="black" points="568,-343.5 568,-373.5 725,-373.5 725,-343.5 568,-343.5"/>
<text text-anchor="start" x="576" y="-361.5" font-family="Helvetica,sans-Serif" font-size="10.00">WordQuizzle.WordQuizzleClient</text>
<text text-anchor="middle" x="646.5" y="-350.5" font-family="Helvetica,sans-Serif" font-size="10.00">Service.accettaSfida</text>
</a>
</g>
</g>
<!-- Node13&#45;&gt;Node14 -->
<g id="edge13" class="edge"><title>Node13&#45;&gt;Node14</title>
<path fill="none" stroke="midnightblue" d="M530.089,-358.5C539.271,-358.5 548.558,-358.5 557.666,-358.5"/>
<polygon fill="midnightblue" stroke="midnightblue" points="557.858,-362 567.858,-358.5 557.858,-355 557.858,-362"/>
</g>
<!-- Node15 -->
<g id="node15" class="node"><title>Node15</title>
<g id="a_node15"><a xlink:href="class_word_quizzle_1_1_word_quizzle_client_service.html#a0ed33ad0199840ae1847c4ecbc992ce2" target="_top" xlink:title=" ">
<polygon fill="white" stroke="black" points="766,-171.5 766,-201.5 923,-201.5 923,-171.5 766,-171.5"/>
<text text-anchor="start" x="774" y="-189.5" font-family="Helvetica,sans-Serif" font-size="10.00">WordQuizzle.WordQuizzleClient</text>
<text text-anchor="middle" x="844.5" y="-178.5" font-family="Helvetica,sans-Serif" font-size="10.00">Service.send</text>
</a>
</g>
</g>
<!-- Node14&#45;&gt;Node15 -->
<g id="edge14" class="edge"><title>Node14&#45;&gt;Node15</title>
<path fill="none" stroke="midnightblue" d="M706.772,-343.42C713.188,-340.625 719.408,-337.344 725,-333.5 772.699,-300.714 810.973,-243.223 830.131,-210.704"/>
<polygon fill="midnightblue" stroke="midnightblue" points="833.273,-212.263 835.237,-201.852 827.209,-208.766 833.273,-212.263"/>
</g>
<!-- Node17 -->
<g id="node17" class="node"><title>Node17</title>
<g id="a_node17"><a xlink:href="class_word_quizzle_1_1_word_quizzle_client_service.html#adc41c272e3f60eaf3fb07f477887a7ff" target="_top" xlink:title=" ">
<polygon fill="white" stroke="black" points="568,-245.5 568,-275.5 725,-275.5 725,-245.5 568,-245.5"/>
<text text-anchor="start" x="576" y="-263.5" font-family="Helvetica,sans-Serif" font-size="10.00">WordQuizzle.WordQuizzleClient</text>
<text text-anchor="middle" x="646.5" y="-252.5" font-family="Helvetica,sans-Serif" font-size="10.00">Service.aggiungi_amico</text>
</a>
</g>
</g>
<!-- Node16&#45;&gt;Node17 -->
<g id="edge16" class="edge"><title>Node16&#45;&gt;Node17</title>
<path fill="none" stroke="midnightblue" d="M532.24,-260.5C540.741,-260.5 549.312,-260.5 557.729,-260.5"/>
<polygon fill="midnightblue" stroke="midnightblue" points="557.906,-264 567.906,-260.5 557.906,-257 557.906,-264"/>
</g>
<!-- Node17&#45;&gt;Node15 -->
<g id="edge17" class="edge"><title>Node17&#45;&gt;Node15</title>
<path fill="none" stroke="midnightblue" d="M696.074,-245.49C705.707,-242.328 715.711,-238.913 725,-235.5 749.938,-226.338 777.377,-215.07 799.566,-205.65"/>
<polygon fill="midnightblue" stroke="midnightblue" points="801.224,-208.748 809.047,-201.602 798.476,-202.31 801.224,-208.748"/>
</g>
<!-- Node19 -->
<g id="node19" class="node"><title>Node19</title>
<g id="a_node19"><a xlink:href="class_word_quizzle_1_1_word_quizzle_client_service.html#ab8db9cd5ff3f755cf306b508741ce7b1" target="_top" xlink:title=" ">
<polygon fill="white" stroke="black" points="568,-294.5 568,-324.5 725,-324.5 725,-294.5 568,-294.5"/>
<text text-anchor="start" x="576" y="-312.5" font-family="Helvetica,sans-Serif" font-size="10.00">WordQuizzle.WordQuizzleClient</text>
<text text-anchor="middle" x="646.5" y="-301.5" font-family="Helvetica,sans-Serif" font-size="10.00">Service.lista_amici</text>
</a>
</g>
</g>
<!-- Node18&#45;&gt;Node19 -->
<g id="edge21" class="edge"><title>Node18&#45;&gt;Node19</title>
<path fill="none" stroke="midnightblue" d="M523.051,-309.5C534.553,-309.5 546.337,-309.5 557.833,-309.5"/>
<polygon fill="midnightblue" stroke="midnightblue" points="557.846,-313 567.846,-309.5 557.846,-306 557.846,-313"/>
</g>
<!-- Node19&#45;&gt;Node15 -->
<g id="edge22" class="edge"><title>Node19&#45;&gt;Node15</title>
<path fill="none" stroke="midnightblue" d="M703.196,-294.379C710.716,-291.524 718.182,-288.238 725,-284.5 762.483,-263.949 799.436,-230.767 821.858,-208.795"/>
<polygon fill="midnightblue" stroke="midnightblue" points="824.54,-211.064 829.16,-201.529 819.602,-206.101 824.54,-211.064"/>
</g>
<!-- Node21 -->
<g id="node21" class="node"><title>Node21</title>
<g id="a_node21"><a xlink:href="class_word_quizzle_1_1_word_quizzle_client_service.html#aa02afd3fa03a290940b6c958e3c57199" target="_top" xlink:title=" ">
<polygon fill="white" stroke="black" points="568,-196.5 568,-226.5 725,-226.5 725,-196.5 568,-196.5"/>
<text text-anchor="start" x="576" y="-214.5" font-family="Helvetica,sans-Serif" font-size="10.00">WordQuizzle.WordQuizzleClient</text>
<text text-anchor="middle" x="646.5" y="-203.5" font-family="Helvetica,sans-Serif" font-size="10.00">Service.login</text>
</a>
</g>
</g>
<!-- Node20&#45;&gt;Node21 -->
<g id="edge24" class="edge"><title>Node20&#45;&gt;Node21</title>
<path fill="none" stroke="midnightblue" d="M524.271,-213.804C535.338,-213.593 546.646,-213.378 557.691,-213.169"/>
<polygon fill="midnightblue" stroke="midnightblue" points="557.814,-216.667 567.746,-212.978 557.681,-209.668 557.814,-216.667"/>
</g>
<!-- Node21&#45;&gt;Node15 -->
<g id="edge25" class="edge"><title>Node21&#45;&gt;Node15</title>
<path fill="none" stroke="midnightblue" d="M725.246,-201.583C735.266,-200.305 745.581,-198.99 755.748,-197.693"/>
<polygon fill="midnightblue" stroke="midnightblue" points="756.371,-201.142 765.848,-196.405 755.486,-194.198 756.371,-201.142"/>
</g>
<!-- Node23 -->
<g id="node23" class="node"><title>Node23</title>
<g id="a_node23"><a xlink:href="class_word_quizzle_1_1_word_quizzle_client_service.html#a584e77014fba5e13b26af26c6e240bd6" target="_top" xlink:title=" ">
<polygon fill="white" stroke="black" points="568,-98.5 568,-128.5 725,-128.5 725,-98.5 568,-98.5"/>
<text text-anchor="start" x="576" y="-116.5" font-family="Helvetica,sans-Serif" font-size="10.00">WordQuizzle.WordQuizzleClient</text>
<text text-anchor="middle" x="646.5" y="-105.5" font-family="Helvetica,sans-Serif" font-size="10.00">Service.logout</text>
</a>
</g>
</g>
<!-- Node22&#45;&gt;Node23 -->
<g id="edge28" class="edge"><title>Node22&#45;&gt;Node23</title>
<path fill="none" stroke="midnightblue" d="M527.022,-118.566C537.228,-118.129 547.602,-117.686 557.753,-117.252"/>
<polygon fill="midnightblue" stroke="midnightblue" points="557.973,-120.746 567.814,-116.821 557.674,-113.752 557.973,-120.746"/>
</g>
<!-- Node23&#45;&gt;Node15 -->
<g id="edge29" class="edge"><title>Node23&#45;&gt;Node15</title>
<path fill="none" stroke="midnightblue" d="M698.581,-128.588C707.437,-131.412 716.52,-134.441 725,-137.5 750.195,-146.589 777.882,-157.957 800.153,-167.455"/>
<polygon fill="midnightblue" stroke="midnightblue" points="798.773,-170.672 809.343,-171.399 801.534,-164.239 798.773,-170.672"/>
</g>
<!-- Node25 -->
<g id="node25" class="node"><title>Node25</title>
<g id="a_node25"><a xlink:href="class_word_quizzle_1_1_word_quizzle_client_service.html#a972476e61ab3c927ba99af27bc7f58bb" target="_top" xlink:title=" ">
<polygon fill="white" stroke="black" points="568,-147.5 568,-177.5 725,-177.5 725,-147.5 568,-147.5"/>
<text text-anchor="start" x="576" y="-165.5" font-family="Helvetica,sans-Serif" font-size="10.00">WordQuizzle.WordQuizzleClient</text>
<text text-anchor="middle" x="646.5" y="-154.5" font-family="Helvetica,sans-Serif" font-size="10.00">Service.mostra_classifica</text>
</a>
</g>
</g>
<!-- Node24&#45;&gt;Node25 -->
<g id="edge31" class="edge"><title>Node24&#45;&gt;Node25</title>
<path fill="none" stroke="midnightblue" d="M529.168,-166.369C538.654,-166.053 548.261,-165.734 557.677,-165.42"/>
<polygon fill="midnightblue" stroke="midnightblue" points="557.926,-168.914 567.804,-165.084 557.694,-161.918 557.926,-168.914"/>
</g>
<!-- Node25&#45;&gt;Node15 -->
<g id="edge32" class="edge"><title>Node25&#45;&gt;Node15</title>
<path fill="none" stroke="midnightblue" d="M725.246,-172.02C735.266,-173.247 745.581,-174.51 755.748,-175.755"/>
<polygon fill="midnightblue" stroke="midnightblue" points="755.497,-179.25 765.848,-176.992 756.348,-172.302 755.497,-179.25"/>
</g>
<!-- Node27 -->
<g id="node27" class="node"><title>Node27</title>
<g id="a_node27"><a xlink:href="class_word_quizzle_1_1_word_quizzle_client_service.html#a50a062f91fbb470547bde8235f2930d1" target="_top" xlink:title=" ">
<polygon fill="white" stroke="black" points="568,-49.5 568,-79.5 725,-79.5 725,-49.5 568,-49.5"/>
<text text-anchor="start" x="576" y="-67.5" font-family="Helvetica,sans-Serif" font-size="10.00">WordQuizzle.WordQuizzleClient</text>
<text text-anchor="middle" x="646.5" y="-56.5" font-family="Helvetica,sans-Serif" font-size="10.00">Service.mostra_punteggio</text>
</a>
</g>
</g>
<!-- Node26&#45;&gt;Node27 -->
<g id="edge34" class="edge"><title>Node26&#45;&gt;Node27</title>
<path fill="none" stroke="midnightblue" d="M529.168,-68.9212C538.654,-68.5607 548.261,-68.1955 557.677,-67.8377"/>
<polygon fill="midnightblue" stroke="midnightblue" points="557.945,-71.3301 567.804,-67.4528 557.679,-64.3352 557.945,-71.3301"/>
</g>
<!-- Node27&#45;&gt;Node15 -->
<g id="edge35" class="edge"><title>Node27&#45;&gt;Node15</title>
<path fill="none" stroke="midnightblue" d="M705.251,-79.6044C712.073,-82.1939 718.805,-85.1505 725,-88.5 762.603,-108.831 799.526,-142.068 821.908,-164.113"/>
<polygon fill="midnightblue" stroke="midnightblue" points="819.651,-166.806 829.196,-171.404 824.602,-161.857 819.651,-166.806"/>
</g>
<!-- Node29 -->
<g id="node29" class="node"><title>Node29</title>
<g id="a_node29"><a xlink:href="class_word_quizzle_1_1_word_quizzle_client_service.html#a613b0b49460f9d115fc6ba4dae066d3a" target="_top" xlink:title=" ">
<polygon fill="white" stroke="black" points="568,-392.5 568,-422.5 725,-422.5 725,-392.5 568,-392.5"/>
<text text-anchor="start" x="576" y="-410.5" font-family="Helvetica,sans-Serif" font-size="10.00">WordQuizzle.WordQuizzleClient</text>
<text text-anchor="middle" x="646.5" y="-399.5" font-family="Helvetica,sans-Serif" font-size="10.00">Service.registra_utente</text>
</a>
</g>
</g>
<!-- Node28&#45;&gt;Node29 -->
<g id="edge37" class="edge"><title>Node28&#45;&gt;Node29</title>
<path fill="none" stroke="midnightblue" d="M530.089,-407.5C539.271,-407.5 548.558,-407.5 557.666,-407.5"/>
<polygon fill="midnightblue" stroke="midnightblue" points="557.858,-411 567.858,-407.5 557.858,-404 557.858,-411"/>
</g>
<!-- Node30 -->
<g id="node30" class="node"><title>Node30</title>
<g id="a_node30"><a xlink:href="interface_word_quizzle_1_1_user_registry.html#ac029b14906c71f2843e0da7f53dc3fb6" target="_top" xlink:title=" ">
<polygon fill="white" stroke="black" points="761,-392.5 761,-422.5 928,-422.5 928,-392.5 761,-392.5"/>
<text text-anchor="start" x="769" y="-410.5" font-family="Helvetica,sans-Serif" font-size="10.00">WordQuizzle.UserRegistry.registra</text>
<text text-anchor="middle" x="844.5" y="-399.5" font-family="Helvetica,sans-Serif" font-size="10.00">_utente</text>
</a>
</g>
</g>
<!-- Node29&#45;&gt;Node30 -->
<g id="edge38" class="edge"><title>Node29&#45;&gt;Node30</title>
<path fill="none" stroke="midnightblue" d="M725.246,-407.5C733.528,-407.5 742.012,-407.5 750.447,-407.5"/>
<polygon fill="midnightblue" stroke="midnightblue" points="750.695,-411 760.695,-407.5 750.695,-404 750.695,-411"/>
</g>
<!-- Node32 -->
<g id="node32" class="node"><title>Node32</title>
<g id="a_node32"><a xlink:href="class_word_quizzle_1_1_word_quizzle_client_service.html#a7eef869e03ee5f68139882d98de88c1f" target="_top" xlink:title=" ">
<polygon fill="white" stroke="black" points="568,-0.5 568,-30.5 725,-30.5 725,-0.5 568,-0.5"/>
<text text-anchor="start" x="576" y="-18.5" font-family="Helvetica,sans-Serif" font-size="10.00">WordQuizzle.WordQuizzleClient</text>
<text text-anchor="middle" x="646.5" y="-7.5" font-family="Helvetica,sans-Serif" font-size="10.00">Service.sfida</text>
</a>
</g>
</g>
<!-- Node31&#45;&gt;Node32 -->
<g id="edge40" class="edge"><title>Node31&#45;&gt;Node32</title>
<path fill="none" stroke="midnightblue" d="M524.271,-16.0759C535.338,-16.0233 546.646,-15.9696 557.691,-15.9171"/>
<polygon fill="midnightblue" stroke="midnightblue" points="557.763,-19.4169 567.746,-15.8694 557.729,-12.417 557.763,-19.4169"/>
</g>
<!-- Node32&#45;&gt;Node15 -->
<g id="edge41" class="edge"><title>Node32&#45;&gt;Node15</title>
<path fill="none" stroke="midnightblue" d="M708.767,-30.6319C714.474,-33.1627 719.989,-36.0986 725,-39.5 772.891,-72.0059 811.092,-129.603 830.187,-162.215"/>
<polygon fill="midnightblue" stroke="midnightblue" points="827.266,-164.157 835.274,-171.094 833.339,-160.677 827.266,-164.157"/>
</g>
</g>
</svg>
