<?xml version="1.0" encoding="UTF-8" standalone="no"?>
<!DOCTYPE svg PUBLIC "-//W3C//DTD SVG 1.1//EN"
 "http://www.w3.org/Graphics/SVG/1.1/DTD/svg11.dtd">
<!-- Generated by graphviz version 2.38.0 (20140413.2041)
 -->
<!-- Title: WordQuizzleServerService.getT2 Pages: 1 -->
<!--zoomable 180 -->
<svg id="main" version="1.1" xmlns="http://www.w3.org/2000/svg" xmlns:xlink="http://www.w3.org/1999/xlink" xml:space="preserve" onload="init(evt)">
<style type="text/css"><![CDATA[
.edge:hover path { stroke: red; }
.edge:hover polygon { stroke: red; fill: red; }
]]></style>
<script type="text/javascript"><![CDATA[
var edges = document.getElementsByTagName('g');
if (edges && edges.length) {
  for (var i=0;i<edges.length;i++) {
    if (edges[i].id.substr(0,4)=='edge') {
      edges[i].setAttribute('class','edge');
    }
  }
}
]]></script>
        <defs>
                <circle id="rim" cx="0" cy="0" r="7"/>
                <circle id="rim2" cx="0" cy="0" r="3.5"/>
                <g id="zoomPlus">
                        <use xlink:href="#rim" fill="#404040">
                                <set attributeName="fill" to="#808080" begin="zoomplus.mouseover" end="zoomplus.mouseout"/>
                        </use>
                        <path d="M-4,0h8M0,-4v8" fill="none" stroke="white" stroke-width="1.5" pointer-events="none"/>
                </g>
                <g id="zoomMin">
                        <use xlink:href="#rim" fill="#404040">
                                <set attributeName="fill" to="#808080" begin="zoomminus.mouseover" end="zoomminus.mouseout"/>
                        </use>
                        <path d="M-4,0h8" fill="none" stroke="white" stroke-width="1.5" pointer-events="none"/>
                </g>
                <g id="dirArrow">
                        <path fill="none" stroke="white" stroke-width="1.5" d="M0,-3.0v7 M-2.5,-0.5L0,-3.0L2.5,-0.5"/>
                </g>
               <g id="resetDef">
                       <use xlink:href="#rim2" fill="#404040">
                               <set attributeName="fill" to="#808080" begin="reset.mouseover" end="reset.mouseout"/>
                       </use>
               </g>
        </defs>

<script type="text/javascript">
var viewWidth = 574;
var viewHeight = 180;
var sectionId = 'dynsection-7';
</script>
<script xlink:href="svgpan.js"/>
<svg id="graph" class="graph">
<g id="viewport">
<title>WordQuizzleServerService.getT2</title>
<polygon fill="white" stroke="none" points="-4,4 -4,-176 570,-176 570,4 -4,4"/>
<!-- Node1 -->
<g id="node1" class="node"><title>Node1</title>
<g id="a_node1"><a xlink:title="Restituisce la durata di una sfida, in millisecondi.">
<polygon fill="#bfbfbf" stroke="black" points="408,-95.5 408,-114.5 566,-114.5 566,-95.5 408,-95.5"/>
<text text-anchor="middle" x="487" y="-102.5" font-family="Helvetica,sans-Serif" font-size="10.00">WordQuizzleServerService.getT2</text>
</a>
</g>
</g>
<!-- Node2 -->
<g id="node2" class="node"><title>Node2</title>
<g id="a_node2"><a xlink:href="class_bot.html#acc83eda4c2ebd3c509c0e618ff69dba6" target="_top" xlink:title="Gestisce una sfida.">
<polygon fill="white" stroke="black" points="283.5,-152.5 283.5,-171.5 342.5,-171.5 342.5,-152.5 283.5,-152.5"/>
<text text-anchor="middle" x="313" y="-159.5" font-family="Helvetica,sans-Serif" font-size="10.00">Bot.game</text>
</a>
</g>
</g>
<!-- Node1&#45;&gt;Node2 -->
<g id="edge1" class="edge"><title>Node1&#45;&gt;Node2</title>
<path fill="none" stroke="midnightblue" d="M447.744,-117.807C425.622,-125.199 397.251,-134.655 372,-143 362.442,-146.158 351.991,-149.589 342.625,-152.655"/>
<polygon fill="midnightblue" stroke="midnightblue" points="449.061,-121.057 457.435,-114.567 446.841,-114.418 449.061,-121.057"/>
</g>
<!-- Node5 -->
<g id="node5" class="node"><title>Node5</title>
<g id="a_node5"><a xlink:href="class_w_q_gui.html#aaa68ff750c4447d05588889a52259e37" target="_top" xlink:title="Crea la finestra di gioco durante una sfida.">
<polygon fill="white" stroke="black" points="275,-114.5 275,-133.5 351,-133.5 351,-114.5 275,-114.5"/>
<text text-anchor="middle" x="313" y="-121.5" font-family="Helvetica,sans-Serif" font-size="10.00">WQGui.game</text>
</a>
</g>
</g>
<!-- Node1&#45;&gt;Node5 -->
<g id="edge4" class="edge"><title>Node1&#45;&gt;Node5</title>
<path fill="none" stroke="midnightblue" d="M397.615,-114.763C381.246,-116.572 364.992,-118.367 351.228,-119.888"/>
<polygon fill="midnightblue" stroke="midnightblue" points="398.246,-118.215 407.801,-113.638 397.477,-111.257 398.246,-118.215"/>
</g>
<!-- Node7 -->
<g id="node7" class="node"><title>Node7</title>
<g id="a_node7"><a xlink:href="class_w_q_cli.html#a53002705ea7cea7d4ad300f9d9d5a120" target="_top" xlink:title="Gestisce una sfida.">
<polygon fill="white" stroke="black" points="277,-76.5 277,-95.5 349,-95.5 349,-76.5 277,-76.5"/>
<text text-anchor="middle" x="313" y="-83.5" font-family="Helvetica,sans-Serif" font-size="10.00">WQCli.game</text>
</a>
</g>
</g>
<!-- Node1&#45;&gt;Node7 -->
<g id="edge6" class="edge"><title>Node1&#45;&gt;Node7</title>
<path fill="none" stroke="midnightblue" d="M397.64,-95.2393C380.372,-93.3318 363.231,-91.4383 349.004,-89.8668"/>
<polygon fill="midnightblue" stroke="midnightblue" points="397.477,-98.7425 407.801,-96.3617 398.246,-91.7848 397.477,-98.7425"/>
</g>
<!-- Node11 -->
<g id="node11" class="node"><title>Node11</title>
<g id="a_node11"><a xlink:href="class_challenge.html#ae140d268abab98e4b7abbf302596efa8" target="_top" xlink:title="Verifica se la sfida e&#39; terminata.">
<polygon fill="white" stroke="black" points="254,-19.5 254,-38.5 372,-38.5 372,-19.5 254,-19.5"/>
<text text-anchor="middle" x="313" y="-26.5" font-family="Helvetica,sans-Serif" font-size="10.00">Challenge.isTerminated</text>
</a>
</g>
</g>
<!-- Node1&#45;&gt;Node11 -->
<g id="edge11" class="edge"><title>Node1&#45;&gt;Node11</title>
<path fill="none" stroke="midnightblue" d="M454.628,-91.138C420.131,-75.8952 365.624,-51.8104 335.607,-38.5473"/>
<polygon fill="midnightblue" stroke="midnightblue" points="453.655,-94.5343 464.216,-95.3745 456.484,-88.1314 453.655,-94.5343"/>
</g>
<!-- Node3 -->
<g id="node3" class="node"><title>Node3</title>
<g id="a_node3"><a xlink:href="class_bot.html#a39bedd8a99e6e57223c433c8197bcb49" target="_top" xlink:title="Avvia il bot.">
<polygon fill="white" stroke="black" points="137.5,-152.5 137.5,-171.5 185.5,-171.5 185.5,-152.5 137.5,-152.5"/>
<text text-anchor="middle" x="161.5" y="-159.5" font-family="Helvetica,sans-Serif" font-size="10.00">Bot.run</text>
</a>
</g>
</g>
<!-- Node2&#45;&gt;Node3 -->
<g id="edge2" class="edge"><title>Node2&#45;&gt;Node3</title>
<path fill="none" stroke="midnightblue" d="M273.035,-162C245.368,-162 209.14,-162 185.839,-162"/>
<polygon fill="midnightblue" stroke="midnightblue" points="273.175,-165.5 283.175,-162 273.175,-158.5 273.175,-165.5"/>
</g>
<!-- Node4 -->
<g id="node4" class="node"><title>Node4</title>
<g id="a_node4"><a xlink:href="class_bot.html#a698976f1ad72fc3c09eff6f887f11d45" target="_top" xlink:title="Esegue un bot.">
<polygon fill="white" stroke="black" points="6.5,-152.5 6.5,-171.5 62.5,-171.5 62.5,-152.5 6.5,-152.5"/>
<text text-anchor="middle" x="34.5" y="-159.5" font-family="Helvetica,sans-Serif" font-size="10.00">Bot.main</text>
</a>
</g>
</g>
<!-- Node3&#45;&gt;Node4 -->
<g id="edge3" class="edge"><title>Node3&#45;&gt;Node4</title>
<path fill="none" stroke="midnightblue" d="M127.243,-162C107.006,-162 81.488,-162 62.5053,-162"/>
<polygon fill="midnightblue" stroke="midnightblue" points="127.281,-165.5 137.281,-162 127.281,-158.5 127.281,-165.5"/>
</g>
<!-- Node6 -->
<g id="node6" class="node"><title>Node6</title>
<g id="a_node6"><a xlink:href="class_notifier.html#a1e6abba853ca6fe241ce37a988ee818f" target="_top" xlink:title="Attende l&#39;arrivo di una richiesta e se il client non e&#39; impegnato in una sfida gli notifica la richie...">
<polygon fill="white" stroke="black" points="130,-114.5 130,-133.5 193,-133.5 193,-114.5 130,-114.5"/>
<text text-anchor="middle" x="161.5" y="-121.5" font-family="Helvetica,sans-Serif" font-size="10.00">Notifier.run</text>
</a>
</g>
</g>
<!-- Node5&#45;&gt;Node6 -->
<g id="edge5" class="edge"><title>Node5&#45;&gt;Node6</title>
<path fill="none" stroke="midnightblue" d="M264.619,-124C241.312,-124 213.886,-124 193.328,-124"/>
<polygon fill="midnightblue" stroke="midnightblue" points="264.661,-127.5 274.66,-124 264.66,-120.5 264.661,-127.5"/>
</g>
<!-- Node8 -->
<g id="node8" class="node"><title>Node8</title>
<g id="a_node8"><a xlink:href="class_w_q_cli.html#ac8782ba29a63a974f4e17365f8817edd" target="_top" xlink:title="Gestisce una richiesta di sfida.">
<polygon fill="white" stroke="black" points="105,-76.5 105,-95.5 218,-95.5 218,-76.5 105,-76.5"/>
<text text-anchor="middle" x="161.5" y="-83.5" font-family="Helvetica,sans-Serif" font-size="10.00">WQCli.nuovaRichiesta</text>
</a>
</g>
</g>
<!-- Node7&#45;&gt;Node8 -->
<g id="edge7" class="edge"><title>Node7&#45;&gt;Node8</title>
<path fill="none" stroke="midnightblue" d="M266.701,-86C251.389,-86 234.114,-86 218.098,-86"/>
<polygon fill="midnightblue" stroke="midnightblue" points="266.949,-89.5001 276.949,-86 266.949,-82.5001 266.949,-89.5001"/>
</g>
<!-- Node10 -->
<g id="node10" class="node"><title>Node10</title>
<g id="a_node10"><a xlink:href="class_w_q_cli.html#a69d5ad39deabe879509740cc27efb3f3" target="_top" xlink:title="Gestisce le richieste dell&#39;utente.">
<polygon fill="white" stroke="black" points="125.5,-38.5 125.5,-57.5 197.5,-57.5 197.5,-38.5 125.5,-38.5"/>
<text text-anchor="middle" x="161.5" y="-45.5" font-family="Helvetica,sans-Serif" font-size="10.00">WQCli.parse</text>
</a>
</g>
</g>
<!-- Node7&#45;&gt;Node10 -->
<g id="edge9" class="edge"><title>Node7&#45;&gt;Node10</title>
<path fill="none" stroke="midnightblue" d="M267.056,-74.576C244.8,-68.919 218.329,-62.1905 197.59,-56.9193"/>
<polygon fill="midnightblue" stroke="midnightblue" points="266.395,-78.0193 276.949,-77.0907 268.119,-71.235 266.395,-78.0193"/>
</g>
<!-- Node9 -->
<g id="node9" class="node"><title>Node9</title>
<g id="a_node9"><a xlink:href="class_w_q_cli.html#a13932f1ea4f257ce081aa524f090b6ee" target="_top" xlink:title="Gestisce l&#39;interazione con l&#39;utente.">
<polygon fill="white" stroke="black" points="0,-57.5 0,-76.5 69,-76.5 69,-57.5 0,-57.5"/>
<text text-anchor="middle" x="34.5" y="-64.5" font-family="Helvetica,sans-Serif" font-size="10.00">WQCli.main</text>
</a>
</g>
</g>
<!-- Node8&#45;&gt;Node9 -->
<g id="edge8" class="edge"><title>Node8&#45;&gt;Node9</title>
<path fill="none" stroke="midnightblue" d="M94.8478,-76.0209C85.9022,-74.6611 77.0429,-73.3145 69.0054,-72.0928"/>
<polygon fill="midnightblue" stroke="midnightblue" points="94.5328,-79.5131 104.945,-77.5557 95.5848,-72.5926 94.5328,-79.5131"/>
</g>
<!-- Node10&#45;&gt;Node9 -->
<g id="edge10" class="edge"><title>Node10&#45;&gt;Node9</title>
<path fill="none" stroke="midnightblue" d="M115.105,-54.9C99.9014,-57.211 83.2347,-59.7443 69.0979,-61.8931"/>
<polygon fill="midnightblue" stroke="midnightblue" points="115.987,-58.3062 125.348,-53.3431 114.935,-51.3857 115.987,-58.3062"/>
</g>
<!-- Node12 -->
<g id="node12" class="node"><title>Node12</title>
<g id="a_node12"><a xlink:href="class_challenge.html#adfd88e7904c2d0954ca82e07890c5ca4" target="_top" xlink:title="Gestisce la sfida.">
<polygon fill="white" stroke="black" points="123.5,-0.5 123.5,-19.5 199.5,-19.5 199.5,-0.5 123.5,-0.5"/>
<text text-anchor="middle" x="161.5" y="-7.5" font-family="Helvetica,sans-Serif" font-size="10.00">Challenge.run</text>
</a>
</g>
</g>
<!-- Node11&#45;&gt;Node12 -->
<g id="edge12" class="edge"><title>Node11&#45;&gt;Node12</title>
<path fill="none" stroke="midnightblue" d="M243.419,-20.284C228.343,-18.368 212.93,-16.4092 199.656,-14.7222"/>
<polygon fill="midnightblue" stroke="midnightblue" points="243.41,-23.8109 253.771,-21.5997 244.292,-16.8668 243.41,-23.8109"/>
</g>
</g>
</svg>
        <g id="navigator" transform="translate(0 0)" fill="#404254">
                <rect fill="#f2f5e9" fill-opacity="0.5" stroke="#606060" stroke-width=".5" x="0" y="0" width="60" height="60"/>
                <use id="zoomplus" xlink:href="#zoomPlus" x="17" y="9" onmousedown="handleZoom(evt,'in')"/>
                <use id="zoomminus" xlink:href="#zoomMin" x="42" y="9" onmousedown="handleZoom(evt,'out')"/>
                <use id="reset" xlink:href="#resetDef" x="30" y="36" onmousedown="handleReset()"/>
                <g id="arrowUp" xlink:href="#dirArrow" transform="translate(30 24)" onmousedown="handlePan(0,-1)">
                  <use xlink:href="#rim" fill="#404040">
                        <set attributeName="fill" to="#808080" begin="arrowUp.mouseover" end="arrowUp.mouseout"/>
                  </use>
                  <path fill="none" stroke="white" stroke-width="1.5" d="M0,-3.0v7 M-2.5,-0.5L0,-3.0L2.5,-0.5"/>
                </g>
                <g id="arrowRight" xlink:href="#dirArrow" transform="rotate(90) translate(36 -43)" onmousedown="handlePan(1,0)">
                  <use xlink:href="#rim" fill="#404040">
                        <set attributeName="fill" to="#808080" begin="arrowRight.mouseover" end="arrowRight.mouseout"/>
                  </use>
                  <path fill="none" stroke="white" stroke-width="1.5" d="M0,-3.0v7 M-2.5,-0.5L0,-3.0L2.5,-0.5"/>
                </g>
                <g id="arrowDown" xlink:href="#dirArrow" transform="rotate(180) translate(-30 -48)" onmousedown="handlePan(0,1)">
                  <use xlink:href="#rim" fill="#404040">
                        <set attributeName="fill" to="#808080" begin="arrowDown.mouseover" end="arrowDown.mouseout"/>
                  </use>
                  <path fill="none" stroke="white" stroke-width="1.5" d="M0,-3.0v7 M-2.5,-0.5L0,-3.0L2.5,-0.5"/>
                </g>
                <g id="arrowLeft" xlink:href="#dirArrow" transform="rotate(270) translate(-36 17)" onmousedown="handlePan(-1,0)">
                  <use xlink:href="#rim" fill="#404040">
                        <set attributeName="fill" to="#808080" begin="arrowLeft.mouseover" end="arrowLeft.mouseout"/>
                  </use>
                  <path fill="none" stroke="white" stroke-width="1.5" d="M0,-3.0v7 M-2.5,-0.5L0,-3.0L2.5,-0.5"/>
                </g>
        </g>
        <svg viewBox="0 0 15 15" width="100%" height="30px" preserveAspectRatio="xMaxYMin meet">
         <g id="arrow_out" transform="scale(0.3 0.3)">
          <a xlink:href="class_word_quizzle_server_service_a5779a8f11e9348825e19ef83b74b43bc_icgraph_org.svg" target="_base">
           <rect id="button" ry="5" rx="5" y="6" x="6" height="38" width="38"
                fill="#f2f5e9" fill-opacity="0.5" stroke="#606060" stroke-width="1.0"/>
           <path id="arrow"
             d="M 11.500037,31.436501 C 11.940474,20.09759 22.043105,11.32322 32.158766,21.979434 L 37.068811,17.246167 C 37.068811,17.246167 37.088388,32 37.088388,32 L 22.160133,31.978069 C 22.160133,31.978069 26.997745,27.140456 26.997745,27.140456 C 18.528582,18.264221 13.291696,25.230495 11.500037,31.436501 z"
             style="fill:#404040;"/>
          </a>
         </g>
        </svg>
</svg>
