<?xml version="1.0" encoding="UTF-8" standalone="no"?>
<!DOCTYPE svg PUBLIC "-//W3C//DTD SVG 1.1//EN"
 "http://www.w3.org/Graphics/SVG/1.1/DTD/svg11.dtd">
<!-- Generated by graphviz version 2.38.0 (20140413.2041)
 -->
<!-- Title: WordQuizzle.Session Pages: 1 -->
<svg width="662pt" height="865pt"
 viewBox="0.00 0.00 661.50 865.00" xmlns="http://www.w3.org/2000/svg" xmlns:xlink="http://www.w3.org/1999/xlink">
<g id="graph0" class="graph" transform="scale(1 1) rotate(0) translate(4 861)">
<title>WordQuizzle.Session</title>
<polygon fill="white" stroke="none" points="-4,4 -4,-861 657.5,-861 657.5,4 -4,4"/>
<!-- Node1 -->
<g id="node1" class="node"><title>Node1</title>
<g id="a_node1"><a xlink:title=" ">
<polygon fill="#bfbfbf" stroke="black" points="120.5,-0.5 120.5,-200.5 231.5,-200.5 231.5,-0.5 120.5,-0.5"/>
<text text-anchor="middle" x="176" y="-188.5" font-family="Helvetica,sans-Serif" font-size="10.00">WordQuizzle.Session</text>
<polyline fill="none" stroke="black" points="120.5,-181.5 231.5,-181.5 "/>
<text text-anchor="start" x="128.5" y="-169.5" font-family="Helvetica,sans-Serif" font-size="10.00">&#45; user</text>
<text text-anchor="start" x="128.5" y="-158.5" font-family="Helvetica,sans-Serif" font-size="10.00">&#45; response</text>
<text text-anchor="start" x="128.5" y="-147.5" font-family="Helvetica,sans-Serif" font-size="10.00">&#45; end</text>
<polyline fill="none" stroke="black" points="120.5,-140.5 231.5,-140.5 "/>
<text text-anchor="start" x="128.5" y="-128.5" font-family="Helvetica,sans-Serif" font-size="10.00">+ Session()</text>
<text text-anchor="start" x="128.5" y="-117.5" font-family="Helvetica,sans-Serif" font-size="10.00">+ getClient()</text>
<text text-anchor="start" x="128.5" y="-106.5" font-family="Helvetica,sans-Serif" font-size="10.00">+ getBfs()</text>
<text text-anchor="start" x="128.5" y="-95.5" font-family="Helvetica,sans-Serif" font-size="10.00">+ setUdp()</text>
<text text-anchor="start" x="128.5" y="-84.5" font-family="Helvetica,sans-Serif" font-size="10.00">+ getUdp()</text>
<text text-anchor="start" x="128.5" y="-73.5" font-family="Helvetica,sans-Serif" font-size="10.00">+ newBfs()</text>
<text text-anchor="start" x="128.5" y="-62.5" font-family="Helvetica,sans-Serif" font-size="10.00">+ getUser()</text>
<text text-anchor="start" x="128.5" y="-51.5" font-family="Helvetica,sans-Serif" font-size="10.00">+ getResponse()</text>
<text text-anchor="start" x="128.5" y="-40.5" font-family="Helvetica,sans-Serif" font-size="10.00">+ setResponse()</text>
<text text-anchor="start" x="128.5" y="-29.5" font-family="Helvetica,sans-Serif" font-size="10.00">+ isTerminated()</text>
<text text-anchor="start" x="128.5" y="-18.5" font-family="Helvetica,sans-Serif" font-size="10.00">+ parse()</text>
<text text-anchor="start" x="128.5" y="-7.5" font-family="Helvetica,sans-Serif" font-size="10.00">&#45; compute()</text>
</a>
</g>
</g>
<!-- Node2 -->
<g id="node2" class="node"><title>Node2</title>
<g id="a_node2"><a xlink:title=" ">
<polygon fill="white" stroke="#bfbfbf" points="0,-391.5 0,-448.5 62,-448.5 62,-391.5 0,-391.5"/>
<text text-anchor="middle" x="31" y="-436.5" font-family="Helvetica,sans-Serif" font-size="10.00">ByteBuffer</text>
<polyline fill="none" stroke="#bfbfbf" points="0,-429.5 62,-429.5 "/>
<text text-anchor="middle" x="31" y="-417.5" font-family="Helvetica,sans-Serif" font-size="10.00"> </text>
<polyline fill="none" stroke="#bfbfbf" points="0,-410.5 62,-410.5 "/>
<text text-anchor="middle" x="31" y="-398.5" font-family="Helvetica,sans-Serif" font-size="10.00"> </text>
</a>
</g>
</g>
<!-- Node2&#45;&gt;Node1 -->
<g id="edge1" class="edge"><title>Node2&#45;&gt;Node1</title>
<path fill="none" stroke="#404040" d="M34.097,-391.275C38.7278,-356.533 49.3382,-295.758 71,-248 82.097,-223.534 97.5599,-199.002 113.212,-177.199"/>
<polygon fill="none" stroke="#404040" points="113.311,-177.065 113.63,-169.861 120.402,-167.384 120.084,-174.588 113.311,-177.065"/>
<text text-anchor="middle" x="94.5" y="-222" font-family="Helvetica,sans-Serif" font-size="10.00"> &#45;bfs</text>
</g>
<!-- Node3 -->
<g id="node3" class="node"><title>Node3</title>
<g id="a_node3"><a xlink:title=" ">
<polygon fill="white" stroke="#bfbfbf" points="80.5,-391.5 80.5,-448.5 163.5,-448.5 163.5,-391.5 80.5,-391.5"/>
<text text-anchor="middle" x="122" y="-436.5" font-family="Helvetica,sans-Serif" font-size="10.00">SocketChannel</text>
<polyline fill="none" stroke="#bfbfbf" points="80.5,-429.5 163.5,-429.5 "/>
<text text-anchor="middle" x="122" y="-417.5" font-family="Helvetica,sans-Serif" font-size="10.00"> </text>
<polyline fill="none" stroke="#bfbfbf" points="80.5,-410.5 163.5,-410.5 "/>
<text text-anchor="middle" x="122" y="-398.5" font-family="Helvetica,sans-Serif" font-size="10.00"> </text>
</a>
</g>
</g>
<!-- Node3&#45;&gt;Node1 -->
<g id="edge2" class="edge"><title>Node3&#45;&gt;Node1</title>
<path fill="none" stroke="#404040" d="M126.698,-391.379C133.423,-351.835 146.184,-276.81 157.037,-212.994"/>
<polygon fill="none" stroke="#404040" points="157.098,-212.638 154.16,-206.052 159.11,-200.808 162.047,-207.393 157.098,-212.638"/>
<text text-anchor="middle" x="171" y="-222" font-family="Helvetica,sans-Serif" font-size="10.00"> &#45;client</text>
</g>
<!-- Node4 -->
<g id="node4" class="node"><title>Node4</title>
<g id="a_node4"><a xlink:title=" ">
<polygon fill="white" stroke="#bfbfbf" points="181.5,-391.5 181.5,-448.5 280.5,-448.5 280.5,-391.5 181.5,-391.5"/>
<text text-anchor="middle" x="231" y="-436.5" font-family="Helvetica,sans-Serif" font-size="10.00">InetSocketAddress</text>
<polyline fill="none" stroke="#bfbfbf" points="181.5,-429.5 280.5,-429.5 "/>
<text text-anchor="middle" x="231" y="-417.5" font-family="Helvetica,sans-Serif" font-size="10.00"> </text>
<polyline fill="none" stroke="#bfbfbf" points="181.5,-410.5 280.5,-410.5 "/>
<text text-anchor="middle" x="231" y="-398.5" font-family="Helvetica,sans-Serif" font-size="10.00"> </text>
</a>
</g>
</g>
<!-- Node4&#45;&gt;Node1 -->
<g id="edge3" class="edge"><title>Node4&#45;&gt;Node1</title>
<path fill="none" stroke="#404040" d="M226.215,-391.379C219.365,-351.835 206.369,-276.81 195.314,-212.994"/>
<polygon fill="none" stroke="#404040" points="195.251,-212.631 190.286,-207.402 193.203,-200.808 198.168,-206.037 195.251,-212.631"/>
<text text-anchor="middle" x="208" y="-222" font-family="Helvetica,sans-Serif" font-size="10.00"> &#45;udp</text>
</g>
<!-- Node5 -->
<g id="node5" class="node"><title>Node5</title>
<g id="a_node5"><a xlink:href="class_word_quizzle_1_1_word_quizzle_server_service.html" target="_top" xlink:title=" ">
<polygon fill="white" stroke="black" points="298.5,-248.5 298.5,-591.5 457.5,-591.5 457.5,-248.5 298.5,-248.5"/>
<text text-anchor="start" x="306.5" y="-579.5" font-family="Helvetica,sans-Serif" font-size="10.00">WordQuizzle.WordQuizzleServer</text>
<text text-anchor="middle" x="378" y="-568.5" font-family="Helvetica,sans-Serif" font-size="10.00">Service</text>
<polyline fill="none" stroke="black" points="298.5,-561.5 457.5,-561.5 "/>
<text text-anchor="start" x="306.5" y="-549.5" font-family="Helvetica,sans-Serif" font-size="10.00">&#45; K</text>
<text text-anchor="start" x="306.5" y="-538.5" font-family="Helvetica,sans-Serif" font-size="10.00">&#45; T1</text>
<text text-anchor="start" x="306.5" y="-527.5" font-family="Helvetica,sans-Serif" font-size="10.00">&#45; T2</text>
<text text-anchor="start" x="306.5" y="-516.5" font-family="Helvetica,sans-Serif" font-size="10.00">&#45; X</text>
<text text-anchor="start" x="306.5" y="-505.5" font-family="Helvetica,sans-Serif" font-size="10.00">&#45; Y</text>
<text text-anchor="start" x="306.5" y="-494.5" font-family="Helvetica,sans-Serif" font-size="10.00">&#45; Z</text>
<polyline fill="none" stroke="black" points="298.5,-487.5 457.5,-487.5 "/>
<text text-anchor="start" x="306.5" y="-475.5" font-family="Helvetica,sans-Serif" font-size="10.00">+ WordQuizzleServerService()</text>
<text text-anchor="start" x="306.5" y="-464.5" font-family="Helvetica,sans-Serif" font-size="10.00">+ login()</text>
<text text-anchor="start" x="306.5" y="-453.5" font-family="Helvetica,sans-Serif" font-size="10.00">+ logout()</text>
<text text-anchor="start" x="306.5" y="-442.5" font-family="Helvetica,sans-Serif" font-size="10.00">+ aggiungi_amico()</text>
<text text-anchor="start" x="306.5" y="-431.5" font-family="Helvetica,sans-Serif" font-size="10.00">+ lista_amici()</text>
<text text-anchor="start" x="306.5" y="-420.5" font-family="Helvetica,sans-Serif" font-size="10.00">+ mostra_punteggio()</text>
<text text-anchor="start" x="306.5" y="-409.5" font-family="Helvetica,sans-Serif" font-size="10.00">+ mostra_classifica()</text>
<text text-anchor="start" x="306.5" y="-398.5" font-family="Helvetica,sans-Serif" font-size="10.00">+ sfida()</text>
<text text-anchor="start" x="306.5" y="-387.5" font-family="Helvetica,sans-Serif" font-size="10.00">+ accettaSfida()</text>
<text text-anchor="start" x="306.5" y="-376.5" font-family="Helvetica,sans-Serif" font-size="10.00">+ getK()</text>
<text text-anchor="start" x="306.5" y="-365.5" font-family="Helvetica,sans-Serif" font-size="10.00">+ getZ()</text>
<text text-anchor="start" x="306.5" y="-354.5" font-family="Helvetica,sans-Serif" font-size="10.00">+ getY()</text>
<text text-anchor="start" x="306.5" y="-343.5" font-family="Helvetica,sans-Serif" font-size="10.00">+ getX()</text>
<text text-anchor="start" x="306.5" y="-332.5" font-family="Helvetica,sans-Serif" font-size="10.00">+ getT1()</text>
<text text-anchor="start" x="306.5" y="-321.5" font-family="Helvetica,sans-Serif" font-size="10.00">+ getT2()</text>
<text text-anchor="start" x="306.5" y="-310.5" font-family="Helvetica,sans-Serif" font-size="10.00">+ setK()</text>
<text text-anchor="start" x="306.5" y="-299.5" font-family="Helvetica,sans-Serif" font-size="10.00">+ setZ()</text>
<text text-anchor="start" x="306.5" y="-288.5" font-family="Helvetica,sans-Serif" font-size="10.00">+ setY()</text>
<text text-anchor="start" x="306.5" y="-277.5" font-family="Helvetica,sans-Serif" font-size="10.00">+ setX()</text>
<text text-anchor="start" x="306.5" y="-266.5" font-family="Helvetica,sans-Serif" font-size="10.00">+ setT2()</text>
<text text-anchor="start" x="306.5" y="-255.5" font-family="Helvetica,sans-Serif" font-size="10.00">+ setT1()</text>
</a>
</g>
</g>
<!-- Node5&#45;&gt;Node1 -->
<g id="edge4" class="edge"><title>Node5&#45;&gt;Node1</title>
<path fill="none" stroke="#404040" d="M298.401,-263.14C295.291,-257.996 292.153,-252.936 289,-248 274.013,-224.538 256.221,-200.17 239.241,-178.198"/>
<polygon fill="none" stroke="#404040" points="239.146,-178.076 232.303,-175.804 231.768,-168.612 238.612,-170.885 239.146,-178.076"/>
<text text-anchor="middle" x="285.5" y="-222" font-family="Helvetica,sans-Serif" font-size="10.00"> &#45;wq</text>
</g>
<!-- Node6 -->
<g id="node6" class="node"><title>Node6</title>
<g id="a_node6"><a xlink:title=" ">
<polygon fill="white" stroke="#bfbfbf" points="50.5,-661.5 50.5,-718.5 139.5,-718.5 139.5,-661.5 50.5,-661.5"/>
<text text-anchor="middle" x="95" y="-706.5" font-family="Helvetica,sans-Serif" font-size="10.00">DatagramSocket</text>
<polyline fill="none" stroke="#bfbfbf" points="50.5,-699.5 139.5,-699.5 "/>
<text text-anchor="middle" x="95" y="-687.5" font-family="Helvetica,sans-Serif" font-size="10.00"> </text>
<polyline fill="none" stroke="#bfbfbf" points="50.5,-680.5 139.5,-680.5 "/>
<text text-anchor="middle" x="95" y="-668.5" font-family="Helvetica,sans-Serif" font-size="10.00"> </text>
</a>
</g>
</g>
<!-- Node6&#45;&gt;Node5 -->
<g id="edge5" class="edge"><title>Node6&#45;&gt;Node5</title>
<path fill="none" stroke="#404040" d="M119.845,-661.389C128.176,-653.334 137.925,-645.074 148,-639 182.184,-618.391 195.109,-622.552 233,-610 257.817,-601.779 269.021,-608.861 289,-592 289.1,-591.916 289.2,-591.831 289.299,-591.747"/>
<polygon fill="none" stroke="#404040" points="289.452,-591.607 291.168,-584.603 298.293,-583.494 296.577,-590.497 289.452,-591.607"/>
<text text-anchor="middle" x="251" y="-613" font-family="Helvetica,sans-Serif" font-size="10.00"> &#45;socket</text>
</g>
<!-- Node7 -->
<g id="node7" class="node"><title>Node7</title>
<g id="a_node7"><a xlink:title=" ">
<polygon fill="white" stroke="#bfbfbf" points="157.5,-656 157.5,-724 292.5,-724 292.5,-656 157.5,-656"/>
<text text-anchor="start" x="165.5" y="-712" font-family="Helvetica,sans-Serif" font-size="10.00">Map&lt; String, WordQuizzle.</text>
<text text-anchor="middle" x="225" y="-701" font-family="Helvetica,sans-Serif" font-size="10.00">Session &gt;</text>
<polyline fill="none" stroke="#bfbfbf" points="157.5,-694 292.5,-694 "/>
<text text-anchor="middle" x="225" y="-682" font-family="Helvetica,sans-Serif" font-size="10.00"> </text>
<polyline fill="none" stroke="#bfbfbf" points="157.5,-675 292.5,-675 "/>
<text text-anchor="middle" x="225" y="-663" font-family="Helvetica,sans-Serif" font-size="10.00"> </text>
</a>
</g>
</g>
<!-- Node7&#45;&gt;Node5 -->
<g id="edge6" class="edge"><title>Node7&#45;&gt;Node5</title>
<path fill="none" stroke="#404040" d="M248.083,-655.873C260.658,-637.376 276.217,-613.74 289,-592 290.128,-590.082 291.257,-588.148 292.387,-586.201"/>
<polygon fill="none" stroke="#404040" points="292.458,-586.077 291.975,-578.882 298.431,-575.669 298.914,-582.864 292.458,-586.077"/>
<text text-anchor="middle" x="293.5" y="-613" font-family="Helvetica,sans-Serif" font-size="10.00"> &#45;users</text>
</g>
<!-- Node8 -->
<g id="node8" class="node"><title>Node8</title>
<g id="a_node8"><a xlink:title=" ">
<polygon fill="white" stroke="#bfbfbf" points="287.5,-799.5 287.5,-856.5 322.5,-856.5 322.5,-799.5 287.5,-799.5"/>
<text text-anchor="middle" x="305" y="-844.5" font-family="Helvetica,sans-Serif" font-size="10.00">Map</text>
<polyline fill="none" stroke="#bfbfbf" points="287.5,-837.5 322.5,-837.5 "/>
<text text-anchor="middle" x="305" y="-825.5" font-family="Helvetica,sans-Serif" font-size="10.00"> </text>
<polyline fill="none" stroke="#bfbfbf" points="287.5,-818.5 322.5,-818.5 "/>
<text text-anchor="middle" x="305" y="-806.5" font-family="Helvetica,sans-Serif" font-size="10.00"> </text>
</a>
</g>
</g>
<!-- Node8&#45;&gt;Node7 -->
<g id="edge7" class="edge"><title>Node8&#45;&gt;Node7</title>
<path fill="none" stroke="orange" d="M278.343,-814.565C264.72,-806.827 249.129,-795.56 240,-781 229.482,-764.224 225.659,-742.373 224.501,-724.403"/>
<polygon fill="orange" stroke="orange" points="276.884,-817.753 287.357,-819.356 280.169,-811.572 276.884,-817.753"/>
<text text-anchor="start" x="240" y="-773" font-family="Helvetica,sans-Serif" font-size="10.00"> &lt; String, WordQuizzle</text>
<text text-anchor="middle" x="290" y="-762" font-family="Helvetica,sans-Serif" font-size="10.00">::Session &gt;</text>
</g>
<!-- Node11 -->
<g id="node11" class="node"><title>Node11</title>
<g id="a_node11"><a xlink:title=" ">
<polygon fill="white" stroke="#bfbfbf" points="310.5,-656 310.5,-724 445.5,-724 445.5,-656 310.5,-656"/>
<text text-anchor="start" x="318.5" y="-712" font-family="Helvetica,sans-Serif" font-size="10.00">Map&lt; String, WordQuizzle.</text>
<text text-anchor="middle" x="378" y="-701" font-family="Helvetica,sans-Serif" font-size="10.00">Challenge &gt;</text>
<polyline fill="none" stroke="#bfbfbf" points="310.5,-694 445.5,-694 "/>
<text text-anchor="middle" x="378" y="-682" font-family="Helvetica,sans-Serif" font-size="10.00"> </text>
<polyline fill="none" stroke="#bfbfbf" points="310.5,-675 445.5,-675 "/>
<text text-anchor="middle" x="378" y="-663" font-family="Helvetica,sans-Serif" font-size="10.00"> </text>
</a>
</g>
</g>
<!-- Node8&#45;&gt;Node11 -->
<g id="edge11" class="edge"><title>Node8&#45;&gt;Node11</title>
<path fill="none" stroke="orange" d="M329.467,-801.255C334.705,-794.938 339.891,-787.978 344,-781 354.425,-763.297 362.681,-741.829 368.446,-724.301"/>
<polygon fill="orange" stroke="orange" points="326.78,-799.012 322.884,-808.864 332.073,-803.592 326.78,-799.012"/>
<text text-anchor="start" x="355" y="-773" font-family="Helvetica,sans-Serif" font-size="10.00"> &lt; String, WordQuizzle</text>
<text text-anchor="middle" x="405" y="-762" font-family="Helvetica,sans-Serif" font-size="10.00">::Challenge &gt;</text>
</g>
<!-- Node9 -->
<g id="node9" class="node"><title>Node9</title>
<g id="a_node9"><a xlink:title=" ">
<polygon fill="white" stroke="#bfbfbf" points="463.5,-661.5 463.5,-718.5 516.5,-718.5 516.5,-661.5 463.5,-661.5"/>
<text text-anchor="middle" x="490" y="-706.5" font-family="Helvetica,sans-Serif" font-size="10.00">Selector</text>
<polyline fill="none" stroke="#bfbfbf" points="463.5,-699.5 516.5,-699.5 "/>
<text text-anchor="middle" x="490" y="-687.5" font-family="Helvetica,sans-Serif" font-size="10.00"> </text>
<polyline fill="none" stroke="#bfbfbf" points="463.5,-680.5 516.5,-680.5 "/>
<text text-anchor="middle" x="490" y="-668.5" font-family="Helvetica,sans-Serif" font-size="10.00"> </text>
</a>
</g>
</g>
<!-- Node9&#45;&gt;Node5 -->
<g id="edge8" class="edge"><title>Node9&#45;&gt;Node5</title>
<path fill="none" stroke="#404040" d="M478.436,-661.329C472.024,-645.985 463.442,-625.451 453.986,-602.823"/>
<polygon fill="none" stroke="#404040" points="453.906,-602.632 447.902,-598.639 449.279,-591.56 455.283,-595.554 453.906,-602.632"/>
<text text-anchor="middle" x="479.5" y="-613" font-family="Helvetica,sans-Serif" font-size="10.00"> &#45;selector</text>
</g>
<!-- Node10 -->
<g id="node10" class="node"><title>Node10</title>
<g id="a_node10"><a xlink:href="interface_word_quizzle_1_1_data_base.html" target="_top" xlink:title="Database che gestisce gli utenti.">
<polygon fill="white" stroke="black" points="534.5,-639.5 534.5,-740.5 653.5,-740.5 653.5,-639.5 534.5,-639.5"/>
<text text-anchor="middle" x="594" y="-728.5" font-family="Helvetica,sans-Serif" font-size="10.00">WordQuizzle.DataBase</text>
<polyline fill="none" stroke="black" points="534.5,-721.5 653.5,-721.5 "/>
<text text-anchor="middle" x="594" y="-709.5" font-family="Helvetica,sans-Serif" font-size="10.00"> </text>
<polyline fill="none" stroke="black" points="534.5,-702.5 653.5,-702.5 "/>
<text text-anchor="start" x="542.5" y="-690.5" font-family="Helvetica,sans-Serif" font-size="10.00">+ checkUser()</text>
<text text-anchor="start" x="542.5" y="-679.5" font-family="Helvetica,sans-Serif" font-size="10.00">+ getUser()</text>
<text text-anchor="start" x="542.5" y="-668.5" font-family="Helvetica,sans-Serif" font-size="10.00">+ newUser()</text>
<text text-anchor="start" x="542.5" y="-657.5" font-family="Helvetica,sans-Serif" font-size="10.00">+ modifyScore()</text>
<text text-anchor="start" x="542.5" y="-646.5" font-family="Helvetica,sans-Serif" font-size="10.00">+ link()</text>
</a>
</g>
</g>
<!-- Node10&#45;&gt;Node5 -->
<g id="edge9" class="edge"><title>Node10&#45;&gt;Node5</title>
<path fill="none" stroke="#404040" d="M553.878,-639.219C528.966,-608.309 495.95,-567.345 465.257,-529.263"/>
<polygon fill="none" stroke="#404040" points="465.04,-528.994 458.16,-526.833 457.51,-519.651 464.389,-521.812 465.04,-528.994"/>
<text text-anchor="middle" x="544.5" y="-613" font-family="Helvetica,sans-Serif" font-size="10.00"> &#45;db</text>
</g>
<!-- Node11&#45;&gt;Node5 -->
<g id="edge10" class="edge"><title>Node11&#45;&gt;Node5</title>
<path fill="none" stroke="#404040" d="M378,-655.869C378,-641.479 378,-623.404 378,-603.704"/>
<polygon fill="none" stroke="#404040" points="378,-603.591 374,-597.591 378,-591.591 382,-597.591 378,-603.591"/>
<text text-anchor="middle" x="404.5" y="-613" font-family="Helvetica,sans-Serif" font-size="10.00"> &#45;challenges</text>
</g>
</g>
</svg>
