<?xml version="1.0" encoding="UTF-8" standalone="no"?>
<!DOCTYPE svg PUBLIC "-//W3C//DTD SVG 1.1//EN"
 "http://www.w3.org/Graphics/SVG/1.1/DTD/svg11.dtd">
<!-- Generated by graphviz version 2.38.0 (20140413.2041)
 -->
<!-- Title: WordQuizzle.DataBaseJSON Pages: 1 -->
<svg width="420pt" height="419pt"
 viewBox="0.00 0.00 419.50 419.00" xmlns="http://www.w3.org/2000/svg" xmlns:xlink="http://www.w3.org/1999/xlink">
<g id="graph0" class="graph" transform="scale(1 1) rotate(0) translate(4 415)">
<title>WordQuizzle.DataBaseJSON</title>
<polygon fill="white" stroke="none" points="-4,4 -4,-415 415.5,-415 415.5,4 -4,4"/>
<!-- Node1 -->
<g id="node1" class="node"><title>Node1</title>
<g id="a_node1"><a xlink:title="Database che gestisce gli utenti tramite un file JSON.">
<polygon fill="#bfbfbf" stroke="black" points="112.5,-0.5 112.5,-145.5 256.5,-145.5 256.5,-0.5 112.5,-0.5"/>
<text text-anchor="middle" x="184.5" y="-133.5" font-family="Helvetica,sans-Serif" font-size="10.00">WordQuizzle.DataBaseJSON</text>
<polyline fill="none" stroke="black" points="112.5,-126.5 256.5,-126.5 "/>
<text text-anchor="start" x="120.5" y="-114.5" font-family="Helvetica,sans-Serif" font-size="10.00">&#45; path</text>
<polyline fill="none" stroke="black" points="112.5,-107.5 256.5,-107.5 "/>
<text text-anchor="start" x="120.5" y="-95.5" font-family="Helvetica,sans-Serif" font-size="10.00">+ DataBaseJSON()</text>
<text text-anchor="start" x="120.5" y="-84.5" font-family="Helvetica,sans-Serif" font-size="10.00">+ checkUser()</text>
<text text-anchor="start" x="120.5" y="-73.5" font-family="Helvetica,sans-Serif" font-size="10.00">+ getUser()</text>
<text text-anchor="start" x="120.5" y="-62.5" font-family="Helvetica,sans-Serif" font-size="10.00">+ newUser()</text>
<text text-anchor="start" x="120.5" y="-51.5" font-family="Helvetica,sans-Serif" font-size="10.00">+ modifyScore()</text>
<text text-anchor="start" x="120.5" y="-40.5" font-family="Helvetica,sans-Serif" font-size="10.00">+ link()</text>
<text text-anchor="start" x="120.5" y="-29.5" font-family="Helvetica,sans-Serif" font-size="10.00">+ toString()</text>
<text text-anchor="start" x="120.5" y="-18.5" font-family="Helvetica,sans-Serif" font-size="10.00">&#45; writeJSON()</text>
<text text-anchor="start" x="120.5" y="-7.5" font-family="Helvetica,sans-Serif" font-size="10.00">&#45; readJSON()</text>
</a>
</g>
</g>
<!-- Node2 -->
<g id="node2" class="node"><title>Node2</title>
<g id="a_node2"><a xlink:href="interface_word_quizzle_1_1_data_base.html" target="_top" xlink:title="Database che gestisce gli utenti.">
<polygon fill="white" stroke="black" points="0,-193.5 0,-294.5 119,-294.5 119,-193.5 0,-193.5"/>
<text text-anchor="middle" x="59.5" y="-282.5" font-family="Helvetica,sans-Serif" font-size="10.00">WordQuizzle.DataBase</text>
<polyline fill="none" stroke="black" points="0,-275.5 119,-275.5 "/>
<text text-anchor="middle" x="59.5" y="-263.5" font-family="Helvetica,sans-Serif" font-size="10.00"> </text>
<polyline fill="none" stroke="black" points="0,-256.5 119,-256.5 "/>
<text text-anchor="start" x="8" y="-244.5" font-family="Helvetica,sans-Serif" font-size="10.00">+ checkUser()</text>
<text text-anchor="start" x="8" y="-233.5" font-family="Helvetica,sans-Serif" font-size="10.00">+ getUser()</text>
<text text-anchor="start" x="8" y="-222.5" font-family="Helvetica,sans-Serif" font-size="10.00">+ newUser()</text>
<text text-anchor="start" x="8" y="-211.5" font-family="Helvetica,sans-Serif" font-size="10.00">+ modifyScore()</text>
<text text-anchor="start" x="8" y="-200.5" font-family="Helvetica,sans-Serif" font-size="10.00">+ link()</text>
</a>
</g>
</g>
<!-- Node2&#45;&gt;Node1 -->
<g id="edge1" class="edge"><title>Node2&#45;&gt;Node1</title>
<path fill="none" stroke="midnightblue" d="M102.382,-185.023C111.754,-172.352 121.781,-158.796 131.494,-145.664"/>
<polygon fill="none" stroke="midnightblue" points="99.4607,-183.087 96.328,-193.208 105.089,-187.25 99.4607,-183.087"/>
</g>
<!-- Node3 -->
<g id="node3" class="node"><title>Node3</title>
<g id="a_node3"><a xlink:title=" ">
<polygon fill="white" stroke="#bfbfbf" points="137.5,-215.5 137.5,-272.5 175.5,-272.5 175.5,-215.5 137.5,-215.5"/>
<text text-anchor="middle" x="156.5" y="-260.5" font-family="Helvetica,sans-Serif" font-size="10.00">Type</text>
<polyline fill="none" stroke="#bfbfbf" points="137.5,-253.5 175.5,-253.5 "/>
<text text-anchor="middle" x="156.5" y="-241.5" font-family="Helvetica,sans-Serif" font-size="10.00"> </text>
<polyline fill="none" stroke="#bfbfbf" points="137.5,-234.5 175.5,-234.5 "/>
<text text-anchor="middle" x="156.5" y="-222.5" font-family="Helvetica,sans-Serif" font-size="10.00"> </text>
</a>
</g>
</g>
<!-- Node3&#45;&gt;Node1 -->
<g id="edge2" class="edge"><title>Node3&#45;&gt;Node1</title>
<path fill="none" stroke="#404040" d="M159.534,-215.144C161.308,-199.983 163.741,-180.919 166.5,-164 166.85,-161.852 167.214,-159.678 167.59,-157.485"/>
<polygon fill="none" stroke="#404040" points="167.595,-157.454 164.705,-150.847 169.692,-145.639 172.582,-152.245 167.595,-157.454"/>
<text text-anchor="middle" x="179" y="-167" font-family="Helvetica,sans-Serif" font-size="10.00"> &#45;type</text>
</g>
<!-- Node4 -->
<g id="node4" class="node"><title>Node4</title>
<g id="a_node4"><a xlink:title=" ">
<polygon fill="white" stroke="#bfbfbf" points="193.5,-215.5 193.5,-272.5 233.5,-272.5 233.5,-215.5 193.5,-215.5"/>
<text text-anchor="middle" x="213.5" y="-260.5" font-family="Helvetica,sans-Serif" font-size="10.00">Gson</text>
<polyline fill="none" stroke="#bfbfbf" points="193.5,-253.5 233.5,-253.5 "/>
<text text-anchor="middle" x="213.5" y="-241.5" font-family="Helvetica,sans-Serif" font-size="10.00"> </text>
<polyline fill="none" stroke="#bfbfbf" points="193.5,-234.5 233.5,-234.5 "/>
<text text-anchor="middle" x="213.5" y="-222.5" font-family="Helvetica,sans-Serif" font-size="10.00"> </text>
</a>
</g>
</g>
<!-- Node4&#45;&gt;Node1 -->
<g id="edge3" class="edge"><title>Node4&#45;&gt;Node1</title>
<path fill="none" stroke="#404040" d="M208.776,-215.471C206.04,-199.525 202.434,-178.512 198.841,-157.576"/>
<polygon fill="none" stroke="#404040" points="198.823,-157.469 193.866,-152.232 196.794,-145.642 201.751,-150.879 198.823,-157.469"/>
<text text-anchor="middle" x="215.5" y="-167" font-family="Helvetica,sans-Serif" font-size="10.00"> &#45;gson</text>
</g>
<!-- Node5 -->
<g id="node5" class="node"><title>Node5</title>
<g id="a_node5"><a xlink:title=" ">
<polygon fill="white" stroke="#bfbfbf" points="251.5,-210 251.5,-278 371.5,-278 371.5,-210 251.5,-210"/>
<text text-anchor="start" x="259.5" y="-266" font-family="Helvetica,sans-Serif" font-size="10.00">ConcurrentMap&lt; String,</text>
<text text-anchor="middle" x="311.5" y="-255" font-family="Helvetica,sans-Serif" font-size="10.00"> WordQuizzle.User &gt;</text>
<polyline fill="none" stroke="#bfbfbf" points="251.5,-248 371.5,-248 "/>
<text text-anchor="middle" x="311.5" y="-236" font-family="Helvetica,sans-Serif" font-size="10.00"> </text>
<polyline fill="none" stroke="#bfbfbf" points="251.5,-229 371.5,-229 "/>
<text text-anchor="middle" x="311.5" y="-217" font-family="Helvetica,sans-Serif" font-size="10.00"> </text>
</a>
</g>
</g>
<!-- Node5&#45;&gt;Node1 -->
<g id="edge4" class="edge"><title>Node5&#45;&gt;Node1</title>
<path fill="none" stroke="#404040" d="M286.409,-209.611C274.659,-193.976 260.099,-174.6 245.697,-155.436"/>
<polygon fill="none" stroke="#404040" points="245.635,-155.352 238.832,-152.959 238.426,-145.759 245.228,-148.153 245.635,-155.352"/>
<text text-anchor="middle" x="274" y="-167" font-family="Helvetica,sans-Serif" font-size="10.00"> &#45;users</text>
</g>
<!-- Node6 -->
<g id="node6" class="node"><title>Node6</title>
<g id="a_node6"><a xlink:title=" ">
<polygon fill="white" stroke="#bfbfbf" points="270,-353.5 270,-410.5 353,-410.5 353,-353.5 270,-353.5"/>
<text text-anchor="middle" x="311.5" y="-398.5" font-family="Helvetica,sans-Serif" font-size="10.00">ConcurrentMap</text>
<polyline fill="none" stroke="#bfbfbf" points="270,-391.5 353,-391.5 "/>
<text text-anchor="middle" x="311.5" y="-379.5" font-family="Helvetica,sans-Serif" font-size="10.00"> </text>
<polyline fill="none" stroke="#bfbfbf" points="270,-372.5 353,-372.5 "/>
<text text-anchor="middle" x="311.5" y="-360.5" font-family="Helvetica,sans-Serif" font-size="10.00"> </text>
</a>
</g>
</g>
<!-- Node6&#45;&gt;Node5 -->
<g id="edge5" class="edge"><title>Node6&#45;&gt;Node5</title>
<path fill="none" stroke="orange" d="M311.5,-343.28C311.5,-322.88 311.5,-297.913 311.5,-278.248"/>
<polygon fill="orange" stroke="orange" points="308,-343.478 311.5,-353.478 315,-343.478 308,-343.478"/>
<text text-anchor="start" x="311.5" y="-327" font-family="Helvetica,sans-Serif" font-size="10.00"> &lt; String, WordQuizzle</text>
<text text-anchor="middle" x="361.5" y="-316" font-family="Helvetica,sans-Serif" font-size="10.00">::User &gt;</text>
</g>
</g>
</svg>
