<?xml version="1.0" encoding="UTF-8" standalone="no"?>
<!DOCTYPE svg PUBLIC "-//W3C//DTD SVG 1.1//EN"
 "http://www.w3.org/Graphics/SVG/1.1/DTD/svg11.dtd">
<!-- Generated by graphviz version 2.38.0 (20140413.2041)
 -->
<!-- Title: DictionaryTxt Pages: 1 -->
<svg width="138pt" height="270pt"
 viewBox="0.00 0.00 137.50 270.00" xmlns="http://www.w3.org/2000/svg" xmlns:xlink="http://www.w3.org/1999/xlink">
<g id="graph0" class="graph" transform="scale(1 1) rotate(0) translate(4 266)">
<title>DictionaryTxt</title>
<polygon fill="white" stroke="none" points="-4,4 -4,-266 133.5,-266 133.5,4 -4,4"/>
<!-- Node1 -->
<g id="node1" class="node"><title>Node1</title>
<g id="a_node1"><a xlink:title="Rappresenta un dizionario memorizzato in un file di testo.">
<polygon fill="#bfbfbf" stroke="black" points="25,-0.5 25,-123.5 123,-123.5 123,-0.5 25,-0.5"/>
<text text-anchor="middle" x="74" y="-111.5" font-family="Helvetica,sans-Serif" font-size="10.00">DictionaryTxt</text>
<polyline fill="none" stroke="black" points="25,-104.5 123,-104.5 "/>
<text text-anchor="start" x="33" y="-92.5" font-family="Helvetica,sans-Serif" font-size="10.00">&#45; defaultWord</text>
<text text-anchor="start" x="33" y="-81.5" font-family="Helvetica,sans-Serif" font-size="10.00">&#45; N</text>
<polyline fill="none" stroke="black" points="25,-74.5 123,-74.5 "/>
<text text-anchor="start" x="33" y="-62.5" font-family="Helvetica,sans-Serif" font-size="10.00">+ DictionaryTxt()</text>
<text text-anchor="start" x="33" y="-51.5" font-family="Helvetica,sans-Serif" font-size="10.00">+ getWord()</text>
<text text-anchor="start" x="33" y="-40.5" font-family="Helvetica,sans-Serif" font-size="10.00">+ getWord()</text>
<text text-anchor="start" x="33" y="-29.5" font-family="Helvetica,sans-Serif" font-size="10.00">+ getWords()</text>
<text text-anchor="start" x="33" y="-18.5" font-family="Helvetica,sans-Serif" font-size="10.00">+ getN()</text>
<text text-anchor="start" x="33" y="-7.5" font-family="Helvetica,sans-Serif" font-size="10.00">+ getDefaultWord()</text>
</a>
</g>
</g>
<!-- Node2 -->
<g id="node2" class="node"><title>Node2</title>
<g id="a_node2"><a xlink:href="interface_dictionary.html" target="_top" xlink:title="Interfaccia che definisce un dizionario.">
<polygon fill="white" stroke="black" points="0,-171.5 0,-261.5 74,-261.5 74,-171.5 0,-171.5"/>
<text text-anchor="middle" x="37" y="-249.5" font-family="Helvetica,sans-Serif" font-size="10.00">Dictionary</text>
<polyline fill="none" stroke="black" points="0,-242.5 74,-242.5 "/>
<text text-anchor="middle" x="37" y="-230.5" font-family="Helvetica,sans-Serif" font-size="10.00"> </text>
<polyline fill="none" stroke="black" points="0,-223.5 74,-223.5 "/>
<text text-anchor="start" x="8" y="-211.5" font-family="Helvetica,sans-Serif" font-size="10.00">+ getWord()</text>
<text text-anchor="start" x="8" y="-200.5" font-family="Helvetica,sans-Serif" font-size="10.00">+ getWord()</text>
<text text-anchor="start" x="8" y="-189.5" font-family="Helvetica,sans-Serif" font-size="10.00">+ getWords()</text>
<text text-anchor="start" x="8" y="-178.5" font-family="Helvetica,sans-Serif" font-size="10.00">+ getN()</text>
</a>
</g>
</g>
<!-- Node2&#45;&gt;Node1 -->
<g id="edge1" class="edge"><title>Node2&#45;&gt;Node1</title>
<path fill="none" stroke="midnightblue" d="M50.131,-161.379C53.0877,-149.192 56.2448,-136.18 59.2624,-123.743"/>
<polygon fill="none" stroke="midnightblue" points="46.6585,-160.847 47.7019,-171.391 53.4612,-162.498 46.6585,-160.847"/>
</g>
<!-- Node3 -->
<g id="node3" class="node"><title>Node3</title>
<g id="a_node3"><a xlink:title=" ">
<polygon fill="white" stroke="#bfbfbf" points="92.5,-188 92.5,-245 129.5,-245 129.5,-188 92.5,-188"/>
<text text-anchor="middle" x="111" y="-233" font-family="Helvetica,sans-Serif" font-size="10.00">Path</text>
<polyline fill="none" stroke="#bfbfbf" points="92.5,-226 129.5,-226 "/>
<text text-anchor="middle" x="111" y="-214" font-family="Helvetica,sans-Serif" font-size="10.00"> </text>
<polyline fill="none" stroke="#bfbfbf" points="92.5,-207 129.5,-207 "/>
<text text-anchor="middle" x="111" y="-195" font-family="Helvetica,sans-Serif" font-size="10.00"> </text>
</a>
</g>
</g>
<!-- Node3&#45;&gt;Node1 -->
<g id="edge2" class="edge"><title>Node3&#45;&gt;Node1</title>
<path fill="none" stroke="#404040" d="M104.3,-187.883C100.712,-173.098 96.109,-154.125 91.5795,-135.456"/>
<polygon fill="none" stroke="#404040" points="91.5315,-135.258 86.2296,-130.37 88.7021,-123.596 94.004,-128.484 91.5315,-135.258"/>
<text text-anchor="middle" x="108.5" y="-145" font-family="Helvetica,sans-Serif" font-size="10.00"> &#45;path</text>
</g>
</g>
</svg>
