<?xml version="1.0" encoding="UTF-8" standalone="no"?>
<!DOCTYPE svg PUBLIC "-//W3C//DTD SVG 1.1//EN"
 "http://www.w3.org/Graphics/SVG/1.1/DTD/svg11.dtd">
<!-- Generated by graphviz version 2.38.0 (20140413.2041)
 -->
<!-- Title: WordQuizzle.WordQuizzleServerService.getK Pages: 1 -->
<svg width="1357pt" height="384pt"
 viewBox="0.00 0.00 1357.00 384.14" xmlns="http://www.w3.org/2000/svg" xmlns:xlink="http://www.w3.org/1999/xlink">
<g id="graph0" class="graph" transform="scale(1 1) rotate(0) translate(4 380.135)">
<title>WordQuizzle.WordQuizzleServerService.getK</title>
<polygon fill="white" stroke="none" points="-4,4 -4,-380.135 1353,-380.135 1353,4 -4,4"/>
<!-- Node1 -->
<g id="node1" class="node"><title>Node1</title>
<g id="a_node1"><a xlink:title="Restituisce il numero di parole per sfida.">
<polygon fill="#bfbfbf" stroke="black" points="1190,-213.135 1190,-243.135 1349,-243.135 1349,-213.135 1190,-213.135"/>
<text text-anchor="start" x="1198" y="-231.135" font-family="Helvetica,sans-Serif" font-size="10.00">WordQuizzle.WordQuizzleServer</text>
<text text-anchor="middle" x="1269.5" y="-220.135" font-family="Helvetica,sans-Serif" font-size="10.00">Service.getK</text>
</a>
</g>
</g>
<!-- Node2 -->
<g id="node2" class="node"><title>Node2</title>
<g id="a_node2"><a xlink:href="class_word_quizzle_1_1_challenge.html#a148a02d33e785a577c9d0ff4c032de68" target="_top" xlink:title="Crea una nuova sfida.">
<polygon fill="white" stroke="black" points="989,-353.635 989,-372.635 1153,-372.635 1153,-353.635 989,-353.635"/>
<text text-anchor="middle" x="1071" y="-360.635" font-family="Helvetica,sans-Serif" font-size="10.00">WordQuizzle.Challenge.Challenge</text>
</a>
</g>
</g>
<!-- Node1&#45;&gt;Node2 -->
<g id="edge1" class="edge"><title>Node1&#45;&gt;Node2</title>
<path fill="none" stroke="midnightblue" d="M1251.92,-251.605C1231.84,-278.225 1195.5,-320.935 1154,-344.135 1147.11,-347.986 1139.48,-351.058 1131.73,-353.508"/>
<polygon fill="midnightblue" stroke="midnightblue" points="1254.97,-253.37 1258.1,-243.246 1249.34,-249.212 1254.97,-253.37"/>
</g>
<!-- Node3 -->
<g id="node3" class="node"><title>Node3</title>
<g id="a_node3"><a xlink:href="class_word_quizzle_1_1_bot.html#ac35a1d7ec89b1ef5fc25f161357f71c1" target="_top" xlink:title="Gestisce una sfida.">
<polygon fill="white" stroke="black" points="1012,-315.635 1012,-334.635 1130,-334.635 1130,-315.635 1012,-315.635"/>
<text text-anchor="middle" x="1071" y="-322.635" font-family="Helvetica,sans-Serif" font-size="10.00">WordQuizzle.Bot.game</text>
</a>
</g>
</g>
<!-- Node1&#45;&gt;Node3 -->
<g id="edge2" class="edge"><title>Node1&#45;&gt;Node3</title>
<path fill="none" stroke="midnightblue" d="M1242.8,-249.785C1220.61,-267.415 1187.02,-291.673 1154,-306.135 1145.3,-309.946 1135.73,-313.047 1126.3,-315.552"/>
<polygon fill="midnightblue" stroke="midnightblue" points="1245.14,-252.394 1250.72,-243.387 1240.74,-246.949 1245.14,-252.394"/>
</g>
<!-- Node6 -->
<g id="node6" class="node"><title>Node6</title>
<g id="a_node6"><a xlink:href="class_word_quizzle_1_1_w_q_gui.html#a0e3cb31624c4fdda7b58977fe75de341" target="_top" xlink:title="Crea la finestra di gioco durante una sfida.">
<polygon fill="white" stroke="black" points="1003.5,-277.635 1003.5,-296.635 1138.5,-296.635 1138.5,-277.635 1003.5,-277.635"/>
<text text-anchor="middle" x="1071" y="-284.635" font-family="Helvetica,sans-Serif" font-size="10.00">WordQuizzle.WQGui.game</text>
</a>
</g>
</g>
<!-- Node1&#45;&gt;Node6 -->
<g id="edge5" class="edge"><title>Node1&#45;&gt;Node6</title>
<path fill="none" stroke="midnightblue" d="M1219.28,-246.645C1199.19,-253.853 1175.64,-261.868 1154,-268.135 1142.21,-271.55 1129.33,-274.769 1117.34,-277.554"/>
<polygon fill="midnightblue" stroke="midnightblue" points="1220.62,-249.879 1228.83,-243.183 1218.24,-243.298 1220.62,-249.879"/>
</g>
<!-- Node8 -->
<g id="node8" class="node"><title>Node8</title>
<g id="a_node8"><a xlink:href="class_word_quizzle_1_1_w_q_cli.html#ae5f342434ec80ce1ed3939fb446de436" target="_top" xlink:title="Gestisce una sfida.">
<polygon fill="white" stroke="black" points="1005.5,-239.635 1005.5,-258.635 1136.5,-258.635 1136.5,-239.635 1005.5,-239.635"/>
<text text-anchor="middle" x="1071" y="-246.635" font-family="Helvetica,sans-Serif" font-size="10.00">WordQuizzle.WQCli.game</text>
</a>
</g>
</g>
<!-- Node1&#45;&gt;Node8 -->
<g id="edge7" class="edge"><title>Node1&#45;&gt;Node8</title>
<path fill="none" stroke="midnightblue" d="M1179.93,-237.601C1165.31,-239.163 1150.4,-240.757 1136.51,-242.241"/>
<polygon fill="midnightblue" stroke="midnightblue" points="1180.42,-241.068 1189.99,-236.526 1179.68,-234.108 1180.42,-241.068"/>
</g>
<!-- Node12 -->
<g id="node12" class="node"><title>Node12</title>
<g id="a_node12"><a xlink:href="class_word_quizzle_1_1_player.html#a5df71a0f2196e8ee3bfff3bc232f4669" target="_top" xlink:title="Restituisce l&#39;indice della prossima domanda da sottoporre al giocatore.">
<polygon fill="white" stroke="black" points="1001,-198.635 1001,-217.635 1141,-217.635 1141,-198.635 1001,-198.635"/>
<text text-anchor="middle" x="1071" y="-205.635" font-family="Helvetica,sans-Serif" font-size="10.00">WordQuizzle.Player.getNext</text>
</a>
</g>
</g>
<!-- Node1&#45;&gt;Node12 -->
<g id="edge12" class="edge"><title>Node1&#45;&gt;Node12</title>
<path fill="none" stroke="midnightblue" d="M1179.69,-219.096C1166.78,-217.782 1153.64,-216.444 1141.18,-215.177"/>
<polygon fill="midnightblue" stroke="midnightblue" points="1179.69,-222.614 1189.99,-220.144 1180.4,-215.65 1179.69,-222.614"/>
</g>
<!-- Node19 -->
<g id="node19" class="node"><title>Node19</title>
<g id="a_node19"><a xlink:href="class_word_quizzle_1_1_player.html#ad49b0929ec96521b65f67f861654bbe6" target="_top" xlink:title="Verifica se l&#39;utente ha terminato la sfida.">
<polygon fill="white" stroke="black" points="386,-40.6352 386,-59.6352 548,-59.6352 548,-40.6352 386,-40.6352"/>
<text text-anchor="middle" x="467" y="-47.6352" font-family="Helvetica,sans-Serif" font-size="10.00">WordQuizzle.Player.isTerminated</text>
</a>
</g>
</g>
<!-- Node1&#45;&gt;Node19 -->
<g id="edge20" class="edge"><title>Node1&#45;&gt;Node19</title>
<path fill="none" stroke="midnightblue" d="M1259.13,-203.441C1243.64,-166.521 1208.81,-98.175 1154,-69.1352 932.384,48.2735 611.404,-14.5538 504.306,-40.5958"/>
<polygon fill="midnightblue" stroke="midnightblue" points="1255.99,-205.009 1262.99,-212.962 1262.48,-202.379 1255.99,-205.009"/>
</g>
<!-- Node21 -->
<g id="node21" class="node"><title>Node21</title>
<g id="a_node21"><a xlink:href="class_word_quizzle_1_1_word_translator.html#ab869f0c122cb4a4aef5a1e7df320da5c" target="_top" xlink:title="Traduce una lista di parole dall&#39;italiano all&#39;inglese.">
<polygon fill="white" stroke="black" points="988,-78.6352 988,-97.6352 1154,-97.6352 1154,-78.6352 988,-78.6352"/>
<text text-anchor="middle" x="1071" y="-85.6352" font-family="Helvetica,sans-Serif" font-size="10.00">WordQuizzle.WordTranslator.main</text>
</a>
</g>
</g>
<!-- Node1&#45;&gt;Node21 -->
<g id="edge24" class="edge"><title>Node1&#45;&gt;Node21</title>
<path fill="none" stroke="midnightblue" d="M1251.36,-204.659C1230.98,-178.4 1194.6,-136.379 1154,-112.135 1143.56,-105.899 1131.39,-101.196 1119.68,-97.6828"/>
<polygon fill="midnightblue" stroke="midnightblue" points="1248.79,-207.072 1257.64,-212.912 1254.37,-202.834 1248.79,-207.072"/>
</g>
<!-- Node22 -->
<g id="node22" class="node"><title>Node22</title>
<g id="a_node22"><a xlink:href="class_word_quizzle_1_1_challenge.html#a88b843bf595b590ca87dcc196861a364" target="_top" xlink:title="Genera la stringa contenente le statistiche di un utente.">
<polygon fill="white" stroke="black" points="590.5,-116.635 590.5,-135.635 736.5,-135.635 736.5,-116.635 590.5,-116.635"/>
<text text-anchor="middle" x="663.5" y="-123.635" font-family="Helvetica,sans-Serif" font-size="10.00">WordQuizzle.Challenge.result</text>
</a>
</g>
</g>
<!-- Node1&#45;&gt;Node22 -->
<g id="edge25" class="edge"><title>Node1&#45;&gt;Node22</title>
<path fill="none" stroke="midnightblue" d="M1219.11,-209.652C1199.09,-202.597 1175.63,-194.877 1154,-189.135 1065.63,-165.673 1042.58,-162.623 952,-150.135 878.938,-140.062 794.807,-133.637 736.513,-129.995"/>
<polygon fill="midnightblue" stroke="midnightblue" points="1218.05,-212.988 1228.64,-213.051 1220.4,-206.395 1218.05,-212.988"/>
</g>
<!-- Node4 -->
<g id="node4" class="node"><title>Node4</title>
<g id="a_node4"><a xlink:href="class_word_quizzle_1_1_bot.html#aa088d2cccb4552d9277db7908b7cc706" target="_top" xlink:title="Avvia il bot.">
<polygon fill="white" stroke="black" points="812,-356.635 812,-375.635 919,-375.635 919,-356.635 812,-356.635"/>
<text text-anchor="middle" x="865.5" y="-363.635" font-family="Helvetica,sans-Serif" font-size="10.00">WordQuizzle.Bot.run</text>
</a>
</g>
</g>
<!-- Node3&#45;&gt;Node4 -->
<g id="edge3" class="edge"><title>Node3&#45;&gt;Node4</title>
<path fill="none" stroke="midnightblue" d="M1012.92,-336.636C981.655,-342.934 943.373,-350.647 913.795,-356.607"/>
<polygon fill="midnightblue" stroke="midnightblue" points="1013.69,-340.051 1022.8,-334.645 1012.31,-333.189 1013.69,-340.051"/>
</g>
<!-- Node5 -->
<g id="node5" class="node"><title>Node5</title>
<g id="a_node5"><a xlink:href="class_word_quizzle_1_1_bot.html#a1092df275f21d17d0b0a7edf7bbb59f2" target="_top" xlink:title="Esegue un bot.">
<polygon fill="white" stroke="black" points="606,-356.635 606,-375.635 721,-375.635 721,-356.635 606,-356.635"/>
<text text-anchor="middle" x="663.5" y="-363.635" font-family="Helvetica,sans-Serif" font-size="10.00">WordQuizzle.Bot.main</text>
</a>
</g>
</g>
<!-- Node4&#45;&gt;Node5 -->
<g id="edge4" class="edge"><title>Node4&#45;&gt;Node5</title>
<path fill="none" stroke="midnightblue" d="M801.902,-366.135C776.1,-366.135 746.416,-366.135 721.256,-366.135"/>
<polygon fill="midnightblue" stroke="midnightblue" points="801.952,-369.635 811.952,-366.135 801.952,-362.635 801.952,-369.635"/>
</g>
<!-- Node7 -->
<g id="node7" class="node"><title>Node7</title>
<g id="a_node7"><a xlink:href="class_word_quizzle_1_1_notifier.html#ad051f74dab1ae47c4453f9d094b6d0c4" target="_top" xlink:title="Attende l&#39;arrivo di una richiesta e se il client non e&#39; impegnato in una sfida gli notifica la richie...">
<polygon fill="white" stroke="black" points="804.5,-318.635 804.5,-337.635 926.5,-337.635 926.5,-318.635 804.5,-318.635"/>
<text text-anchor="middle" x="865.5" y="-325.635" font-family="Helvetica,sans-Serif" font-size="10.00">WordQuizzle.Notifier.run</text>
</a>
</g>
</g>
<!-- Node6&#45;&gt;Node7 -->
<g id="edge6" class="edge"><title>Node6&#45;&gt;Node7</title>
<path fill="none" stroke="midnightblue" d="M1012.92,-298.636C981.655,-304.934 943.373,-312.647 913.795,-318.607"/>
<polygon fill="midnightblue" stroke="midnightblue" points="1013.69,-302.051 1022.8,-296.645 1012.31,-295.189 1013.69,-302.051"/>
</g>
<!-- Node9 -->
<g id="node9" class="node"><title>Node9</title>
<g id="a_node9"><a xlink:href="class_word_quizzle_1_1_w_q_cli.html#a7b07b55738bdd5da89a2ef645afdc020" target="_top" xlink:title="Gestisce una richiesta di sfida.">
<polygon fill="white" stroke="black" points="779,-280.635 779,-299.635 952,-299.635 952,-280.635 779,-280.635"/>
<text text-anchor="middle" x="865.5" y="-287.635" font-family="Helvetica,sans-Serif" font-size="10.00">WordQuizzle.WQCli.nuovaRichiesta</text>
</a>
</g>
</g>
<!-- Node8&#45;&gt;Node9 -->
<g id="edge8" class="edge"><title>Node8&#45;&gt;Node9</title>
<path fill="none" stroke="midnightblue" d="M1012.92,-260.636C981.655,-266.934 943.373,-274.647 913.795,-280.607"/>
<polygon fill="midnightblue" stroke="midnightblue" points="1013.69,-264.051 1022.8,-258.645 1012.31,-257.189 1013.69,-264.051"/>
</g>
<!-- Node11 -->
<g id="node11" class="node"><title>Node11</title>
<g id="a_node11"><a xlink:href="class_word_quizzle_1_1_w_q_cli.html#a318ef86f91a825da4ff4684bd3332a6b" target="_top" xlink:title="Gestisce le richieste dell&#39;utente.">
<polygon fill="white" stroke="black" points="800,-242.635 800,-261.635 931,-261.635 931,-242.635 800,-242.635"/>
<text text-anchor="middle" x="865.5" y="-249.635" font-family="Helvetica,sans-Serif" font-size="10.00">WordQuizzle.WQCli.parse</text>
</a>
</g>
</g>
<!-- Node8&#45;&gt;Node11 -->
<g id="edge10" class="edge"><title>Node8&#45;&gt;Node11</title>
<path fill="none" stroke="midnightblue" d="M995.148,-250.239C974.097,-250.549 951.391,-250.884 931,-251.184"/>
<polygon fill="midnightblue" stroke="midnightblue" points="995.384,-253.736 1005.33,-250.089 995.281,-246.736 995.384,-253.736"/>
</g>
<!-- Node10 -->
<g id="node10" class="node"><title>Node10</title>
<g id="a_node10"><a xlink:href="class_word_quizzle_1_1_w_q_cli.html#a7c2d51051cc7f1b20c57c1424d3b7727" target="_top" xlink:title="Gestisce l&#39;interazione con l&#39;utente.">
<polygon fill="white" stroke="black" points="599.5,-261.635 599.5,-280.635 727.5,-280.635 727.5,-261.635 599.5,-261.635"/>
<text text-anchor="middle" x="663.5" y="-268.635" font-family="Helvetica,sans-Serif" font-size="10.00">WordQuizzle.WQCli.main</text>
</a>
</g>
</g>
<!-- Node9&#45;&gt;Node10 -->
<g id="edge9" class="edge"><title>Node9&#45;&gt;Node10</title>
<path fill="none" stroke="midnightblue" d="M768.698,-281.034C754.76,-279.71 740.713,-278.375 727.643,-277.134"/>
<polygon fill="midnightblue" stroke="midnightblue" points="768.525,-284.533 778.812,-281.995 769.188,-277.565 768.525,-284.533"/>
</g>
<!-- Node11&#45;&gt;Node10 -->
<g id="edge11" class="edge"><title>Node11&#45;&gt;Node10</title>
<path fill="none" stroke="midnightblue" d="M789.632,-259.248C769.201,-261.189 747.273,-263.272 727.571,-265.144"/>
<polygon fill="midnightblue" stroke="midnightblue" points="790.218,-262.708 799.842,-258.278 789.556,-255.739 790.218,-262.708"/>
</g>
<!-- Node13 -->
<g id="node13" class="node"><title>Node13</title>
<g id="a_node13"><a xlink:href="class_word_quizzle_1_1_challenge.html#aa7b93cfc7d1927c0b1c060cc387321b9" target="_top" xlink:title="Gestisce la sfida.">
<polygon fill="white" stroke="black" points="20.5,-116.635 20.5,-135.635 155.5,-135.635 155.5,-116.635 20.5,-116.635"/>
<text text-anchor="middle" x="88" y="-123.635" font-family="Helvetica,sans-Serif" font-size="10.00">WordQuizzle.Challenge.run</text>
</a>
</g>
</g>
<!-- Node12&#45;&gt;Node13 -->
<g id="edge13" class="edge"><title>Node12&#45;&gt;Node13</title>
<path fill="none" stroke="midnightblue" d="M1021.93,-196.326C1000.63,-191.515 975.19,-186.341 952,-183.135 825.15,-165.598 792.557,-164.135 664.5,-164.135 664.5,-164.135 664.5,-164.135 466,-164.135 352.689,-164.135 221.182,-146.932 147.265,-135.675"/>
<polygon fill="midnightblue" stroke="midnightblue" points="1021.18,-199.746 1031.71,-198.575 1022.75,-192.924 1021.18,-199.746"/>
</g>
<!-- Node14 -->
<g id="node14" class="node"><title>Node14</title>
<g id="a_node14"><a xlink:href="class_word_quizzle_1_1_challenge.html#ad9edc220ce2d24274149ab8c6a564a0a" target="_top" xlink:title="Aggiunge l&#39;utente sfidato alla sfida e la avvia.">
<polygon fill="white" stroke="black" points="798,-193.135 798,-223.135 933,-223.135 933,-193.135 798,-193.135"/>
<text text-anchor="start" x="806" y="-211.135" font-family="Helvetica,sans-Serif" font-size="10.00">WordQuizzle.Challenge.set</text>
<text text-anchor="middle" x="865.5" y="-200.135" font-family="Helvetica,sans-Serif" font-size="10.00">Player2</text>
</a>
</g>
</g>
<!-- Node12&#45;&gt;Node14 -->
<g id="edge14" class="edge"><title>Node12&#45;&gt;Node14</title>
<path fill="none" stroke="midnightblue" d="M990.675,-208.135C971.628,-208.135 951.479,-208.135 933.08,-208.135"/>
<polygon fill="midnightblue" stroke="midnightblue" points="990.82,-211.635 1000.82,-208.135 990.82,-204.635 990.82,-211.635"/>
</g>
<!-- Node15 -->
<g id="node15" class="node"><title>Node15</title>
<g id="a_node15"><a xlink:href="class_word_quizzle_1_1_word_quizzle_server_service.html#aebc8c566d10a0d24752a33f146f03a2a" target="_top" xlink:title="Accetta una richiesta di sfida inviata da nickAmico.">
<polygon fill="white" stroke="black" points="584,-193.135 584,-223.135 743,-223.135 743,-193.135 584,-193.135"/>
<text text-anchor="start" x="592" y="-211.135" font-family="Helvetica,sans-Serif" font-size="10.00">WordQuizzle.WordQuizzleServer</text>
<text text-anchor="middle" x="663.5" y="-200.135" font-family="Helvetica,sans-Serif" font-size="10.00">Service.accettaSfida</text>
</a>
</g>
</g>
<!-- Node14&#45;&gt;Node15 -->
<g id="edge15" class="edge"><title>Node14&#45;&gt;Node15</title>
<path fill="none" stroke="midnightblue" d="M787.492,-208.135C773.002,-208.135 757.832,-208.135 743.29,-208.135"/>
<polygon fill="midnightblue" stroke="midnightblue" points="787.903,-211.635 797.903,-208.135 787.903,-204.635 787.903,-211.635"/>
</g>
<!-- Node16 -->
<g id="node16" class="node"><title>Node16</title>
<g id="a_node16"><a xlink:href="class_word_quizzle_1_1_session.html#a21992c338367b1a3c2e57fdb7cae3018" target="_top" xlink:title="Gestisce effettivamente la richiesta del client.">
<polygon fill="white" stroke="black" points="391,-196.635 391,-215.635 543,-215.635 543,-196.635 391,-196.635"/>
<text text-anchor="middle" x="467" y="-203.635" font-family="Helvetica,sans-Serif" font-size="10.00">WordQuizzle.Session.compute</text>
</a>
</g>
</g>
<!-- Node15&#45;&gt;Node16 -->
<g id="edge16" class="edge"><title>Node15&#45;&gt;Node16</title>
<path fill="none" stroke="midnightblue" d="M573.752,-207.223C563.495,-207.117 553.11,-207.01 543.06,-206.907"/>
<polygon fill="midnightblue" stroke="midnightblue" points="573.915,-210.724 583.95,-207.328 573.987,-203.725 573.915,-210.724"/>
</g>
<!-- Node17 -->
<g id="node17" class="node"><title>Node17</title>
<g id="a_node17"><a xlink:href="class_word_quizzle_1_1_session.html#a6793f02ea7cab6fffe0361893cf40178" target="_top" xlink:title="Riceve una stringa contenente uan richiesta da parte del client e la gestisce.">
<polygon fill="white" stroke="black" points="212,-193.635 212,-212.635 350,-212.635 350,-193.635 212,-193.635"/>
<text text-anchor="middle" x="281" y="-200.635" font-family="Helvetica,sans-Serif" font-size="10.00">WordQuizzle.Session.parse</text>
</a>
</g>
</g>
<!-- Node16&#45;&gt;Node17 -->
<g id="edge17" class="edge"><title>Node16&#45;&gt;Node17</title>
<path fill="none" stroke="midnightblue" d="M380.684,-204.744C370.416,-204.577 360.037,-204.408 350.061,-204.245"/>
<polygon fill="midnightblue" stroke="midnightblue" points="380.839,-208.247 390.895,-204.911 380.953,-201.248 380.839,-208.247"/>
</g>
<!-- Node17&#45;&gt;Node13 -->
<g id="edge19" class="edge"><title>Node17&#45;&gt;Node13</title>
<path fill="none" stroke="midnightblue" d="M243.582,-190.109C233.33,-186.344 222.195,-182.162 212,-178.135 176.205,-163.998 135.114,-146.331 110.645,-135.655"/>
<polygon fill="midnightblue" stroke="midnightblue" points="242.488,-193.436 253.082,-193.573 244.886,-186.859 242.488,-193.436"/>
</g>
<!-- Node18 -->
<g id="node18" class="node"><title>Node18</title>
<g id="a_node18"><a xlink:href="class_word_quizzle_1_1_word_quizzle_server.html#a4aa19bad373d06a790babba1e5b67644" target="_top" xlink:title="Gestisce le interazioni con i client.">
<polygon fill="white" stroke="black" points="0,-193.635 0,-212.635 176,-212.635 176,-193.635 0,-193.635"/>
<text text-anchor="middle" x="88" y="-200.635" font-family="Helvetica,sans-Serif" font-size="10.00">WordQuizzle.WordQuizzleServer.run</text>
</a>
</g>
</g>
<!-- Node17&#45;&gt;Node18 -->
<g id="edge18" class="edge"><title>Node17&#45;&gt;Node18</title>
<path fill="none" stroke="midnightblue" d="M201.692,-203.135C193.27,-203.135 184.665,-203.135 176.149,-203.135"/>
<polygon fill="midnightblue" stroke="midnightblue" points="201.854,-206.635 211.854,-203.135 201.853,-199.635 201.854,-206.635"/>
</g>
<!-- Node19&#45;&gt;Node13 -->
<g id="edge23" class="edge"><title>Node19&#45;&gt;Node13</title>
<path fill="none" stroke="midnightblue" d="M375.891,-42.215C326.623,-40.4574 265.01,-42.4991 212,-57.1352 167.865,-69.321 122.578,-100.521 101.371,-116.455"/>
<polygon fill="midnightblue" stroke="midnightblue" points="375.754,-45.7122 385.891,-42.6294 376.044,-38.7182 375.754,-45.7122"/>
</g>
<!-- Node20 -->
<g id="node20" class="node"><title>Node20</title>
<g id="a_node20"><a xlink:href="class_word_quizzle_1_1_challenge.html#a4587e95b2628810f0c66278e90a9934c" target="_top" xlink:title="Verifica se la sfida e&#39; terminata.">
<polygon fill="white" stroke="black" points="216.5,-67.1352 216.5,-97.1352 345.5,-97.1352 345.5,-67.1352 216.5,-67.1352"/>
<text text-anchor="start" x="224.5" y="-85.1352" font-family="Helvetica,sans-Serif" font-size="10.00">WordQuizzle.Challenge.is</text>
<text text-anchor="middle" x="281" y="-74.1352" font-family="Helvetica,sans-Serif" font-size="10.00">Terminated</text>
</a>
</g>
</g>
<!-- Node19&#45;&gt;Node20 -->
<g id="edge21" class="edge"><title>Node19&#45;&gt;Node20</title>
<path fill="none" stroke="midnightblue" d="M401.408,-61.3686C383.292,-64.5193 363.615,-67.9414 345.559,-71.0815"/>
<polygon fill="midnightblue" stroke="midnightblue" points="402.04,-64.8114 411.292,-59.6496 400.84,-57.9149 402.04,-64.8114"/>
</g>
<!-- Node20&#45;&gt;Node13 -->
<g id="edge22" class="edge"><title>Node20&#45;&gt;Node13</title>
<path fill="none" stroke="midnightblue" d="M206.628,-99.0376C180.796,-104.988 152.679,-111.466 130.413,-116.595"/>
<polygon fill="midnightblue" stroke="midnightblue" points="207.441,-102.442 216.4,-96.7866 205.869,-95.6209 207.441,-102.442"/>
</g>
<!-- Node23 -->
<g id="node23" class="node"><title>Node23</title>
<g id="a_node23"><a xlink:href="class_word_quizzle_1_1_challenge.html#a872c3c6f72016561647d84843cbbdc48" target="_top" xlink:title="Conclude la sfida.">
<polygon fill="white" stroke="black" points="398.5,-116.635 398.5,-135.635 535.5,-135.635 535.5,-116.635 398.5,-116.635"/>
<text text-anchor="middle" x="467" y="-123.635" font-family="Helvetica,sans-Serif" font-size="10.00">WordQuizzle.Challenge.end</text>
</a>
</g>
</g>
<!-- Node22&#45;&gt;Node23 -->
<g id="edge26" class="edge"><title>Node22&#45;&gt;Node23</title>
<path fill="none" stroke="midnightblue" d="M580.145,-126.135C565.268,-126.135 549.913,-126.135 535.52,-126.135"/>
<polygon fill="midnightblue" stroke="midnightblue" points="580.352,-129.635 590.352,-126.135 580.352,-122.635 580.352,-129.635"/>
</g>
<!-- Node23&#45;&gt;Node13 -->
<g id="edge27" class="edge"><title>Node23&#45;&gt;Node13</title>
<path fill="none" stroke="midnightblue" d="M387.848,-126.135C319.259,-126.135 220.585,-126.135 155.657,-126.135"/>
<polygon fill="midnightblue" stroke="midnightblue" points="388.165,-129.635 398.165,-126.135 388.165,-122.635 388.165,-129.635"/>
</g>
</g>
</svg>
