<?xml version="1.0" encoding="UTF-8" standalone="no"?>
<!DOCTYPE svg PUBLIC "-//W3C//DTD SVG 1.1//EN"
 "http://www.w3.org/Graphics/SVG/1.1/DTD/svg11.dtd">
<!-- Generated by graphviz version 2.38.0 (20140413.2041)
 -->
<!-- Title: WordQuizzle.DataBaseJSON.modifyScore Pages: 1 -->
<svg width="414pt" height="66pt"
 viewBox="0.00 0.00 414.00 66.00" xmlns="http://www.w3.org/2000/svg" xmlns:xlink="http://www.w3.org/1999/xlink">
<g id="graph0" class="graph" transform="scale(1 1) rotate(0) translate(4 62)">
<title>WordQuizzle.DataBaseJSON.modifyScore</title>
<polygon fill="white" stroke="none" points="-4,4 -4,-62 410,-62 410,4 -4,4"/>
<!-- Node1 -->
<g id="node1" class="node"><title>Node1</title>
<g id="a_node1"><a xlink:title="Modifica il punteggio (User.score) di un utente.">
<polygon fill="#bfbfbf" stroke="black" points="0,-14 0,-44 176,-44 176,-14 0,-14"/>
<text text-anchor="start" x="8" y="-32" font-family="Helvetica,sans-Serif" font-size="10.00">WordQuizzle.DataBaseJSON.modify</text>
<text text-anchor="middle" x="88" y="-21" font-family="Helvetica,sans-Serif" font-size="10.00">Score</text>
</a>
</g>
</g>
<!-- Node2 -->
<g id="node2" class="node"><title>Node2</title>
<g id="a_node2"><a xlink:href="class_word_quizzle_1_1_data_base_j_s_o_n.html#a8cf7829d68264a1874636d2b3cb66a5c" target="_top" xlink:title="Controlla che quel nome utente sia nel database.">
<polygon fill="white" stroke="black" points="212,-38.5 212,-57.5 406,-57.5 406,-38.5 212,-38.5"/>
<text text-anchor="middle" x="309" y="-45.5" font-family="Helvetica,sans-Serif" font-size="10.00">WordQuizzle.DataBaseJSON.checkUser</text>
</a>
</g>
</g>
<!-- Node1&#45;&gt;Node2 -->
<g id="edge1" class="edge"><title>Node1&#45;&gt;Node2</title>
<path fill="none" stroke="midnightblue" d="M176.184,-36.5639C184.586,-37.2928 193.171,-38.0376 201.729,-38.7802"/>
<polygon fill="midnightblue" stroke="midnightblue" points="201.487,-42.2722 211.752,-39.6497 202.092,-35.2984 201.487,-42.2722"/>
</g>
<!-- Node3 -->
<g id="node3" class="node"><title>Node3</title>
<g id="a_node3"><a xlink:href="class_word_quizzle_1_1_data_base_j_s_o_n.html#a5ae7156660a70a1a8103da3539a93914" target="_top" xlink:title="Fa il commit del database nel file json.">
<polygon fill="white" stroke="black" points="212.5,-0.5 212.5,-19.5 405.5,-19.5 405.5,-0.5 212.5,-0.5"/>
<text text-anchor="middle" x="309" y="-7.5" font-family="Helvetica,sans-Serif" font-size="10.00">WordQuizzle.DataBaseJSON.writeJSON</text>
</a>
</g>
</g>
<!-- Node1&#45;&gt;Node3 -->
<g id="edge2" class="edge"><title>Node1&#45;&gt;Node3</title>
<path fill="none" stroke="midnightblue" d="M176.184,-21.4361C184.757,-20.6923 193.521,-19.932 202.253,-19.1744"/>
<polygon fill="midnightblue" stroke="midnightblue" points="202.816,-22.6388 212.476,-18.2875 202.211,-15.665 202.816,-22.6388"/>
</g>
</g>
</svg>
