<?xml version="1.0" encoding="UTF-8" standalone="no"?>
<!DOCTYPE svg PUBLIC "-//W3C//DTD SVG 1.1//EN"
 "http://www.w3.org/Graphics/SVG/1.1/DTD/svg11.dtd">
<!-- Generated by graphviz version 2.38.0 (20140413.2041)
 -->
<!-- Title: WordQuizzle.WordQuizzleServerService.sfida Pages: 1 -->
<svg width="371pt" height="154pt"
 viewBox="0.00 0.00 371.00 154.00" xmlns="http://www.w3.org/2000/svg" xmlns:xlink="http://www.w3.org/1999/xlink">
<g id="graph0" class="graph" transform="scale(1 1) rotate(0) translate(4 150)">
<title>WordQuizzle.WordQuizzleServerService.sfida</title>
<polygon fill="white" stroke="none" points="-4,4 -4,-150 367,-150 367,4 -4,4"/>
<!-- Node1 -->
<g id="node1" class="node"><title>Node1</title>
<g id="a_node1"><a xlink:title="Invia una richiesta di sfida ad un amico di nickUtente.">
<polygon fill="#bfbfbf" stroke="black" points="0,-55 0,-85 159,-85 159,-55 0,-55"/>
<text text-anchor="start" x="8" y="-73" font-family="Helvetica,sans-Serif" font-size="10.00">WordQuizzle.WordQuizzleServer</text>
<text text-anchor="middle" x="79.5" y="-62" font-family="Helvetica,sans-Serif" font-size="10.00">Service.sfida</text>
</a>
</g>
</g>
<!-- Node2 -->
<g id="node2" class="node"><title>Node2</title>
<g id="a_node2"><a xlink:href="interface_word_quizzle_1_1_data_base.html#a256d6e7e3541d11a9ff219431066a7d5" target="_top" xlink:title="Controlla che quel nome utente sia nel database.">
<polygon fill="white" stroke="black" points="195,-126.5 195,-145.5 363,-145.5 363,-126.5 195,-126.5"/>
<text text-anchor="middle" x="279" y="-133.5" font-family="Helvetica,sans-Serif" font-size="10.00">WordQuizzle.DataBase.checkUser</text>
</a>
</g>
</g>
<!-- Node1&#45;&gt;Node2 -->
<g id="edge1" class="edge"><title>Node1&#45;&gt;Node2</title>
<path fill="none" stroke="midnightblue" d="M113.039,-85.0349C135.671,-95.074 166.735,-108.031 195,-117 203.102,-119.571 211.751,-121.945 220.294,-124.082"/>
<polygon fill="midnightblue" stroke="midnightblue" points="219.692,-127.537 230.234,-126.479 221.333,-120.732 219.692,-127.537"/>
</g>
<!-- Node3 -->
<g id="node3" class="node"><title>Node3</title>
<g id="a_node3"><a xlink:href="class_word_quizzle_1_1_challenge.html#a5c11b31b9fe597b760b5b4817d1c0dc0" target="_top" xlink:title="Restituisce il tempo di creazione della sfida.">
<polygon fill="white" stroke="black" points="211.5,-77 211.5,-107 346.5,-107 346.5,-77 211.5,-77"/>
<text text-anchor="start" x="219.5" y="-95" font-family="Helvetica,sans-Serif" font-size="10.00">WordQuizzle.Challenge.get</text>
<text text-anchor="middle" x="279" y="-84" font-family="Helvetica,sans-Serif" font-size="10.00">StartTime</text>
</a>
</g>
</g>
<!-- Node1&#45;&gt;Node3 -->
<g id="edge2" class="edge"><title>Node1&#45;&gt;Node3</title>
<path fill="none" stroke="midnightblue" d="M159.125,-78.7582C173.061,-80.3106 187.556,-81.9252 201.434,-83.4712"/>
<polygon fill="midnightblue" stroke="midnightblue" points="201.088,-86.9542 211.414,-84.5828 201.863,-79.9972 201.088,-86.9542"/>
</g>
<!-- Node4 -->
<g id="node4" class="node"><title>Node4</title>
<g id="a_node4"><a xlink:href="interface_word_quizzle_1_1_data_base.html#a987acacce768d19e4551b5b3a508ccf3" target="_top" xlink:title="Dato un nome utente ottiene l&#39;oggetto User corrispondente.">
<polygon fill="white" stroke="black" points="201.5,-38.5 201.5,-57.5 356.5,-57.5 356.5,-38.5 201.5,-38.5"/>
<text text-anchor="middle" x="279" y="-45.5" font-family="Helvetica,sans-Serif" font-size="10.00">WordQuizzle.DataBase.getUser</text>
</a>
</g>
</g>
<!-- Node1&#45;&gt;Node4 -->
<g id="edge3" class="edge"><title>Node1&#45;&gt;Node4</title>
<path fill="none" stroke="midnightblue" d="M159.125,-61.2418C169.641,-60.0704 180.475,-58.8636 191.122,-57.6776"/>
<polygon fill="midnightblue" stroke="midnightblue" points="191.705,-61.1344 201.256,-56.5487 190.93,-54.1774 191.705,-61.1344"/>
</g>
<!-- Node5 -->
<g id="node5" class="node"><title>Node5</title>
<g id="a_node5"><a xlink:href="class_word_quizzle_1_1_user.html#a9a59479dd5044067d85bc43b92673acf" target="_top" xlink:title="Verifica se un nome utente e&#39; amico dell&#39;utente.">
<polygon fill="white" stroke="black" points="212,-0.5 212,-19.5 346,-19.5 346,-0.5 212,-0.5"/>
<text text-anchor="middle" x="279" y="-7.5" font-family="Helvetica,sans-Serif" font-size="10.00">WordQuizzle.User.isFriend</text>
</a>
</g>
</g>
<!-- Node1&#45;&gt;Node5 -->
<g id="edge4" class="edge"><title>Node1&#45;&gt;Node5</title>
<path fill="none" stroke="midnightblue" d="M118.815,-54.9921C140.882,-46.6743 169.262,-36.5251 195,-29 203.556,-26.4984 212.687,-24.121 221.647,-21.9482"/>
<polygon fill="midnightblue" stroke="midnightblue" points="222.723,-25.2905 231.651,-19.5862 221.114,-18.4778 222.723,-25.2905"/>
</g>
</g>
</svg>
