<?xml version="1.0" encoding="UTF-8" standalone="no"?>
<!DOCTYPE svg PUBLIC "-//W3C//DTD SVG 1.1//EN"
 "http://www.w3.org/Graphics/SVG/1.1/DTD/svg11.dtd">
<!-- Generated by graphviz version 2.38.0 (20140413.2041)
 -->
<!-- Title: WordQuizzleServerService.getZ Pages: 1 -->
<svg width="509pt" height="47pt"
 viewBox="0.00 0.00 509.00 47.00" xmlns="http://www.w3.org/2000/svg" xmlns:xlink="http://www.w3.org/1999/xlink">
<g id="graph0" class="graph" transform="scale(1 1) rotate(0) translate(4 43)">
<title>WordQuizzleServerService.getZ</title>
<polygon fill="white" stroke="none" points="-4,4 -4,-43 505,-43 505,4 -4,4"/>
<!-- Node1 -->
<g id="node1" class="node"><title>Node1</title>
<g id="a_node1"><a xlink:title="Restituisce il numero di punti aggiuntivi dati al vincitore di una sfida.">
<polygon fill="#bfbfbf" stroke="black" points="348,-19.5 348,-38.5 501,-38.5 501,-19.5 348,-19.5"/>
<text text-anchor="middle" x="424.5" y="-26.5" font-family="Helvetica,sans-Serif" font-size="10.00">WordQuizzleServerService.getZ</text>
</a>
</g>
</g>
<!-- Node2 -->
<g id="node2" class="node"><title>Node2</title>
<g id="a_node2"><a xlink:href="class_challenge.html#ae1d74e295523725569c9e06b887e9a9e" target="_top" xlink:title="Conclude la sfida.">
<polygon fill="white" stroke="black" points="112,-19.5 112,-38.5 190,-38.5 190,-19.5 112,-19.5"/>
<text text-anchor="middle" x="151" y="-26.5" font-family="Helvetica,sans-Serif" font-size="10.00">Challenge.end</text>
</a>
</g>
</g>
<!-- Node1&#45;&gt;Node2 -->
<g id="edge1" class="edge"><title>Node1&#45;&gt;Node2</title>
<path fill="none" stroke="midnightblue" d="M337.783,-29C288.203,-29 228.271,-29 190.142,-29"/>
<polygon fill="midnightblue" stroke="midnightblue" points="337.872,-32.5001 347.872,-29 337.872,-25.5001 337.872,-32.5001"/>
</g>
<!-- Node4 -->
<g id="node4" class="node"><title>Node4</title>
<g id="a_node4"><a xlink:href="class_challenge.html#a67e0299b129d8fca6f04ebc11f530864" target="_top" xlink:title="Genera la stringa contenente le statistiche di un utente.">
<polygon fill="white" stroke="black" points="226,-0.5 226,-19.5 312,-19.5 312,-0.5 226,-0.5"/>
<text text-anchor="middle" x="269" y="-7.5" font-family="Helvetica,sans-Serif" font-size="10.00">Challenge.result</text>
</a>
</g>
</g>
<!-- Node1&#45;&gt;Node4 -->
<g id="edge3" class="edge"><title>Node1&#45;&gt;Node4</title>
<path fill="none" stroke="midnightblue" d="M337.63,-18.3712C328.796,-17.2776 320.124,-16.2043 312.094,-15.2103"/>
<polygon fill="midnightblue" stroke="midnightblue" points="337.295,-21.8563 347.649,-19.6113 338.155,-14.9093 337.295,-21.8563"/>
</g>
<!-- Node3 -->
<g id="node3" class="node"><title>Node3</title>
<g id="a_node3"><a xlink:href="class_challenge.html#adfd88e7904c2d0954ca82e07890c5ca4" target="_top" xlink:title="Gestisce la sfida.">
<polygon fill="white" stroke="black" points="0,-19.5 0,-38.5 76,-38.5 76,-19.5 0,-19.5"/>
<text text-anchor="middle" x="38" y="-26.5" font-family="Helvetica,sans-Serif" font-size="10.00">Challenge.run</text>
</a>
</g>
</g>
<!-- Node2&#45;&gt;Node3 -->
<g id="edge2" class="edge"><title>Node2&#45;&gt;Node3</title>
<path fill="none" stroke="midnightblue" d="M101.571,-29C93.0478,-29 84.2984,-29 76.1447,-29"/>
<polygon fill="midnightblue" stroke="midnightblue" points="101.8,-32.5001 111.8,-29 101.8,-25.5001 101.8,-32.5001"/>
</g>
<!-- Node4&#45;&gt;Node2 -->
<g id="edge4" class="edge"><title>Node4&#45;&gt;Node2</title>
<path fill="none" stroke="midnightblue" d="M215.782,-18.5529C207.148,-19.9672 198.34,-21.4098 190.136,-22.7536"/>
<polygon fill="midnightblue" stroke="midnightblue" points="216.49,-21.9836 225.793,-16.9132 215.359,-15.0757 216.49,-21.9836"/>
</g>
</g>
</svg>
