<?xml version="1.0" encoding="UTF-8" standalone="no"?>
<!DOCTYPE svg PUBLIC "-//W3C//DTD SVG 1.1//EN"
 "http://www.w3.org/Graphics/SVG/1.1/DTD/svg11.dtd">
<!-- Generated by graphviz version 2.38.0 (20140413.2041)
 -->
<!-- Title: DataBaseJSON.modifyScore Pages: 1 -->
<svg width="320pt" height="66pt"
 viewBox="0.00 0.00 320.00 66.00" xmlns="http://www.w3.org/2000/svg" xmlns:xlink="http://www.w3.org/1999/xlink">
<g id="graph0" class="graph" transform="scale(1 1) rotate(0) translate(4 62)">
<title>DataBaseJSON.modifyScore</title>
<polygon fill="white" stroke="none" points="-4,4 -4,-62 316,-62 316,4 -4,4"/>
<!-- Node1 -->
<g id="node1" class="node"><title>Node1</title>
<g id="a_node1"><a xlink:title="Modifica il punteggio (User.score) di un utente.">
<polygon fill="#bfbfbf" stroke="black" points="0,-19.5 0,-38.5 142,-38.5 142,-19.5 0,-19.5"/>
<text text-anchor="middle" x="71" y="-26.5" font-family="Helvetica,sans-Serif" font-size="10.00">DataBaseJSON.modifyScore</text>
</a>
</g>
</g>
<!-- Node2 -->
<g id="node2" class="node"><title>Node2</title>
<g id="a_node2"><a xlink:href="class_data_base_j_s_o_n.html#a0e2fb15fe514e5455e92b9617782bd7a" target="_top" xlink:title="Controlla che quel nome utente sia nel database.">
<polygon fill="white" stroke="black" points="178,-38.5 178,-57.5 312,-57.5 312,-38.5 178,-38.5"/>
<text text-anchor="middle" x="245" y="-45.5" font-family="Helvetica,sans-Serif" font-size="10.00">DataBaseJSON.checkUser</text>
</a>
</g>
</g>
<!-- Node1&#45;&gt;Node2 -->
<g id="edge1" class="edge"><title>Node1&#45;&gt;Node2</title>
<path fill="none" stroke="midnightblue" d="M142.455,-36.7828C150.766,-37.7009 159.277,-38.641 167.663,-39.5675"/>
<polygon fill="midnightblue" stroke="midnightblue" points="167.486,-43.0691 177.81,-40.6883 168.255,-36.1114 167.486,-43.0691"/>
</g>
<!-- Node3 -->
<g id="node3" class="node"><title>Node3</title>
<g id="a_node3"><a xlink:href="class_data_base_j_s_o_n.html#a11523157e04fff10c538e226ed705a2e" target="_top" xlink:title="Fa il commit del database nel file json.">
<polygon fill="white" stroke="black" points="178,-0.5 178,-19.5 312,-19.5 312,-0.5 178,-0.5"/>
<text text-anchor="middle" x="245" y="-7.5" font-family="Helvetica,sans-Serif" font-size="10.00">DataBaseJSON.writeJSON</text>
</a>
</g>
</g>
<!-- Node1&#45;&gt;Node3 -->
<g id="edge2" class="edge"><title>Node1&#45;&gt;Node3</title>
<path fill="none" stroke="midnightblue" d="M142.455,-21.2172C150.766,-20.2991 159.277,-19.359 167.663,-18.4325"/>
<polygon fill="midnightblue" stroke="midnightblue" points="168.255,-21.8886 177.81,-17.3117 167.486,-14.9309 168.255,-21.8886"/>
</g>
</g>
</svg>
