<?xml version="1.0" encoding="UTF-8" standalone="no"?>
<!DOCTYPE svg PUBLIC "-//W3C//DTD SVG 1.1//EN"
 "http://www.w3.org/Graphics/SVG/1.1/DTD/svg11.dtd">
<!-- Generated by graphviz version 2.38.0 (20140413.2041)
 -->
<!-- Title: WordQuizzle.WordQuizzleServer Pages: 1 -->
<svg width="731pt" height="678pt"
 viewBox="0.00 0.00 730.50 678.00" xmlns="http://www.w3.org/2000/svg" xmlns:xlink="http://www.w3.org/1999/xlink">
<g id="graph0" class="graph" transform="scale(1 1) rotate(0) translate(4 674)">
<title>WordQuizzle.WordQuizzleServer</title>
<polygon fill="white" stroke="none" points="-4,4 -4,-674 726.5,-674 726.5,4 -4,4"/>
<!-- Node1 -->
<g id="node1" class="node"><title>Node1</title>
<g id="a_node1"><a xlink:title="Il server che gestisce le interazioni con i client.">
<polygon fill="#bfbfbf" stroke="black" points="66.5,-0.5 66.5,-79.5 225.5,-79.5 225.5,-0.5 66.5,-0.5"/>
<text text-anchor="middle" x="146" y="-67.5" font-family="Helvetica,sans-Serif" font-size="10.00">WordQuizzle.WordQuizzleServer</text>
<polyline fill="none" stroke="black" points="66.5,-60.5 225.5,-60.5 "/>
<text text-anchor="middle" x="146" y="-48.5" font-family="Helvetica,sans-Serif" font-size="10.00"> </text>
<polyline fill="none" stroke="black" points="66.5,-41.5 225.5,-41.5 "/>
<text text-anchor="start" x="74.5" y="-29.5" font-family="Helvetica,sans-Serif" font-size="10.00">+ WordQuizzleServer()</text>
<text text-anchor="start" x="74.5" y="-18.5" font-family="Helvetica,sans-Serif" font-size="10.00">+ run()</text>
<text text-anchor="start" x="74.5" y="-7.5" font-family="Helvetica,sans-Serif" font-size="10.00">+ main()</text>
</a>
</g>
</g>
<!-- Node2 -->
<g id="node2" class="node"><title>Node2</title>
<g id="a_node2"><a xlink:title=" ">
<polygon fill="white" stroke="#bfbfbf" points="0,-237.5 0,-294.5 110,-294.5 110,-237.5 0,-237.5"/>
<text text-anchor="middle" x="55" y="-282.5" font-family="Helvetica,sans-Serif" font-size="10.00">ServerSocketChannel</text>
<polyline fill="none" stroke="#bfbfbf" points="0,-275.5 110,-275.5 "/>
<text text-anchor="middle" x="55" y="-263.5" font-family="Helvetica,sans-Serif" font-size="10.00"> </text>
<polyline fill="none" stroke="#bfbfbf" points="0,-256.5 110,-256.5 "/>
<text text-anchor="middle" x="55" y="-244.5" font-family="Helvetica,sans-Serif" font-size="10.00"> </text>
</a>
</g>
</g>
<!-- Node2&#45;&gt;Node1 -->
<g id="edge1" class="edge"><title>Node2&#45;&gt;Node1</title>
<path fill="none" stroke="#404040" d="M58.8323,-237.425C64.3744,-203.241 76.627,-143.887 100,-98 101.389,-95.2735 102.923,-92.5559 104.563,-89.8697"/>
<polygon fill="none" stroke="#404040" points="104.676,-89.6994 104.673,-82.4882 111.328,-79.7118 111.331,-86.9229 104.676,-89.6994"/>
<text text-anchor="middle" x="116" y="-101" font-family="Helvetica,sans-Serif" font-size="10.00"> &#45;server</text>
</g>
<!-- Node3 -->
<g id="node3" class="node"><title>Node3</title>
<g id="a_node3"><a xlink:title=" ">
<polygon fill="white" stroke="#bfbfbf" points="119.5,-474.5 119.5,-531.5 172.5,-531.5 172.5,-474.5 119.5,-474.5"/>
<text text-anchor="middle" x="146" y="-519.5" font-family="Helvetica,sans-Serif" font-size="10.00">Selector</text>
<polyline fill="none" stroke="#bfbfbf" points="119.5,-512.5 172.5,-512.5 "/>
<text text-anchor="middle" x="146" y="-500.5" font-family="Helvetica,sans-Serif" font-size="10.00"> </text>
<polyline fill="none" stroke="#bfbfbf" points="119.5,-493.5 172.5,-493.5 "/>
<text text-anchor="middle" x="146" y="-481.5" font-family="Helvetica,sans-Serif" font-size="10.00"> </text>
</a>
</g>
</g>
<!-- Node3&#45;&gt;Node1 -->
<g id="edge2" class="edge"><title>Node3&#45;&gt;Node1</title>
<path fill="none" stroke="#404040" d="M146,-474.201C146,-398.672 146,-188.845 146,-91.6348"/>
<polygon fill="none" stroke="#404040" points="146,-91.5217 142,-85.5217 146,-79.5217 150,-85.5217 146,-91.5217"/>
<text text-anchor="middle" x="166.5" y="-263.5" font-family="Helvetica,sans-Serif" font-size="10.00"> &#45;selector</text>
</g>
<!-- Node4 -->
<g id="node4" class="node"><title>Node4</title>
<g id="a_node4"><a xlink:href="class_word_quizzle_1_1_word_quizzle_server_service.html" target="_top" xlink:title="Implementa la Business Logic.">
<polygon fill="white" stroke="black" points="229.5,-127.5 229.5,-404.5 388.5,-404.5 388.5,-127.5 229.5,-127.5"/>
<text text-anchor="start" x="237.5" y="-392.5" font-family="Helvetica,sans-Serif" font-size="10.00">WordQuizzle.WordQuizzleServer</text>
<text text-anchor="middle" x="309" y="-381.5" font-family="Helvetica,sans-Serif" font-size="10.00">Service</text>
<polyline fill="none" stroke="black" points="229.5,-374.5 388.5,-374.5 "/>
<text text-anchor="start" x="237.5" y="-362.5" font-family="Helvetica,sans-Serif" font-size="10.00">&#45; K</text>
<text text-anchor="start" x="237.5" y="-351.5" font-family="Helvetica,sans-Serif" font-size="10.00">&#45; T1</text>
<text text-anchor="start" x="237.5" y="-340.5" font-family="Helvetica,sans-Serif" font-size="10.00">&#45; T2</text>
<text text-anchor="start" x="237.5" y="-329.5" font-family="Helvetica,sans-Serif" font-size="10.00">&#45; X</text>
<text text-anchor="start" x="237.5" y="-318.5" font-family="Helvetica,sans-Serif" font-size="10.00">&#45; Y</text>
<text text-anchor="start" x="237.5" y="-307.5" font-family="Helvetica,sans-Serif" font-size="10.00">&#45; Z</text>
<polyline fill="none" stroke="black" points="229.5,-300.5 388.5,-300.5 "/>
<text text-anchor="start" x="237.5" y="-288.5" font-family="Helvetica,sans-Serif" font-size="10.00">+ WordQuizzleServerService()</text>
<text text-anchor="start" x="237.5" y="-277.5" font-family="Helvetica,sans-Serif" font-size="10.00">+ login()</text>
<text text-anchor="start" x="237.5" y="-266.5" font-family="Helvetica,sans-Serif" font-size="10.00">+ logout()</text>
<text text-anchor="start" x="237.5" y="-255.5" font-family="Helvetica,sans-Serif" font-size="10.00">+ aggiungi_amico()</text>
<text text-anchor="start" x="237.5" y="-244.5" font-family="Helvetica,sans-Serif" font-size="10.00">+ lista_amici()</text>
<text text-anchor="start" x="237.5" y="-233.5" font-family="Helvetica,sans-Serif" font-size="10.00">+ mostra_punteggio()</text>
<text text-anchor="start" x="237.5" y="-222.5" font-family="Helvetica,sans-Serif" font-size="10.00">+ mostra_classifica()</text>
<text text-anchor="start" x="237.5" y="-211.5" font-family="Helvetica,sans-Serif" font-size="10.00">+ sfida()</text>
<text text-anchor="start" x="237.5" y="-200.5" font-family="Helvetica,sans-Serif" font-size="10.00">+ accettaSfida()</text>
<text text-anchor="start" x="237.5" y="-189.5" font-family="Helvetica,sans-Serif" font-size="10.00">+ getK()</text>
<text text-anchor="start" x="237.5" y="-178.5" font-family="Helvetica,sans-Serif" font-size="10.00">+ getZ()</text>
<text text-anchor="start" x="237.5" y="-167.5" font-family="Helvetica,sans-Serif" font-size="10.00">+ getY()</text>
<text text-anchor="start" x="237.5" y="-156.5" font-family="Helvetica,sans-Serif" font-size="10.00">+ getX()</text>
<text text-anchor="start" x="237.5" y="-145.5" font-family="Helvetica,sans-Serif" font-size="10.00">+ getT1()</text>
<text text-anchor="start" x="237.5" y="-134.5" font-family="Helvetica,sans-Serif" font-size="10.00">+ getT2()</text>
</a>
</g>
</g>
<!-- Node3&#45;&gt;Node4 -->
<g id="edge7" class="edge"><title>Node3&#45;&gt;Node4</title>
<path fill="none" stroke="#404040" d="M165.338,-474.12C179.872,-453.166 200.9,-422.85 222.403,-391.849"/>
<polygon fill="none" stroke="#404040" points="222.554,-391.631 222.687,-384.421 229.393,-381.771 229.26,-388.98 222.554,-391.631"/>
<text text-anchor="middle" x="219.5" y="-426" font-family="Helvetica,sans-Serif" font-size="10.00"> &#45;selector</text>
</g>
<!-- Node4&#45;&gt;Node1 -->
<g id="edge3" class="edge"><title>Node4&#45;&gt;Node1</title>
<path fill="none" stroke="#404040" d="M229.41,-155.625C212.481,-132.36 195.442,-108.944 181.217,-89.3957"/>
<polygon fill="none" stroke="#404040" points="181.11,-89.2498 174.346,-86.7518 174.05,-79.5468 180.814,-82.0447 181.11,-89.2498"/>
<text text-anchor="middle" x="204.5" y="-101" font-family="Helvetica,sans-Serif" font-size="10.00"> &#45;wq</text>
</g>
<!-- Node5 -->
<g id="node5" class="node"><title>Node5</title>
<g id="a_node5"><a xlink:title=" ">
<polygon fill="white" stroke="#bfbfbf" points="190.5,-474.5 190.5,-531.5 279.5,-531.5 279.5,-474.5 190.5,-474.5"/>
<text text-anchor="middle" x="235" y="-519.5" font-family="Helvetica,sans-Serif" font-size="10.00">DatagramSocket</text>
<polyline fill="none" stroke="#bfbfbf" points="190.5,-512.5 279.5,-512.5 "/>
<text text-anchor="middle" x="235" y="-500.5" font-family="Helvetica,sans-Serif" font-size="10.00"> </text>
<polyline fill="none" stroke="#bfbfbf" points="190.5,-493.5 279.5,-493.5 "/>
<text text-anchor="middle" x="235" y="-481.5" font-family="Helvetica,sans-Serif" font-size="10.00"> </text>
</a>
</g>
</g>
<!-- Node5&#45;&gt;Node4 -->
<g id="edge4" class="edge"><title>Node5&#45;&gt;Node4</title>
<path fill="none" stroke="#404040" d="M243.779,-474.12C248.621,-458.745 255.049,-438.33 261.985,-416.303"/>
<polygon fill="none" stroke="#404040" points="262.049,-416.101 260.036,-409.177 265.653,-404.655 267.666,-411.58 262.049,-416.101"/>
<text text-anchor="middle" x="277" y="-426" font-family="Helvetica,sans-Serif" font-size="10.00"> &#45;socket</text>
</g>
<!-- Node6 -->
<g id="node6" class="node"><title>Node6</title>
<g id="a_node6"><a xlink:title=" ">
<polygon fill="white" stroke="#bfbfbf" points="297.5,-469 297.5,-537 432.5,-537 432.5,-469 297.5,-469"/>
<text text-anchor="start" x="305.5" y="-525" font-family="Helvetica,sans-Serif" font-size="10.00">Map&lt; String, WordQuizzle.</text>
<text text-anchor="middle" x="365" y="-514" font-family="Helvetica,sans-Serif" font-size="10.00">Session &gt;</text>
<polyline fill="none" stroke="#bfbfbf" points="297.5,-507 432.5,-507 "/>
<text text-anchor="middle" x="365" y="-495" font-family="Helvetica,sans-Serif" font-size="10.00"> </text>
<polyline fill="none" stroke="#bfbfbf" points="297.5,-488 432.5,-488 "/>
<text text-anchor="middle" x="365" y="-476" font-family="Helvetica,sans-Serif" font-size="10.00"> </text>
</a>
</g>
</g>
<!-- Node6&#45;&gt;Node4 -->
<g id="edge5" class="edge"><title>Node6&#45;&gt;Node4</title>
<path fill="none" stroke="#404040" d="M357.095,-468.829C353.605,-454.181 349.233,-435.837 344.558,-416.218"/>
<polygon fill="none" stroke="#404040" points="344.557,-416.211 339.275,-411.302 341.775,-404.538 347.057,-409.447 344.557,-416.211"/>
<text text-anchor="middle" x="364.5" y="-426" font-family="Helvetica,sans-Serif" font-size="10.00"> &#45;users</text>
</g>
<!-- Node7 -->
<g id="node7" class="node"><title>Node7</title>
<g id="a_node7"><a xlink:title=" ">
<polygon fill="white" stroke="#bfbfbf" points="427.5,-612.5 427.5,-669.5 462.5,-669.5 462.5,-612.5 427.5,-612.5"/>
<text text-anchor="middle" x="445" y="-657.5" font-family="Helvetica,sans-Serif" font-size="10.00">Map</text>
<polyline fill="none" stroke="#bfbfbf" points="427.5,-650.5 462.5,-650.5 "/>
<text text-anchor="middle" x="445" y="-638.5" font-family="Helvetica,sans-Serif" font-size="10.00"> </text>
<polyline fill="none" stroke="#bfbfbf" points="427.5,-631.5 462.5,-631.5 "/>
<text text-anchor="middle" x="445" y="-619.5" font-family="Helvetica,sans-Serif" font-size="10.00"> </text>
</a>
</g>
</g>
<!-- Node7&#45;&gt;Node6 -->
<g id="edge6" class="edge"><title>Node7&#45;&gt;Node6</title>
<path fill="none" stroke="orange" d="M418.343,-627.565C404.72,-619.827 389.129,-608.56 380,-594 369.482,-577.224 365.659,-555.373 364.501,-537.403"/>
<polygon fill="orange" stroke="orange" points="416.884,-630.753 427.357,-632.356 420.169,-624.572 416.884,-630.753"/>
<text text-anchor="start" x="380" y="-586" font-family="Helvetica,sans-Serif" font-size="10.00"> &lt; String, WordQuizzle</text>
<text text-anchor="middle" x="430" y="-575" font-family="Helvetica,sans-Serif" font-size="10.00">::Session &gt;</text>
</g>
<!-- Node9 -->
<g id="node9" class="node"><title>Node9</title>
<g id="a_node9"><a xlink:title=" ">
<polygon fill="white" stroke="#bfbfbf" points="450.5,-469 450.5,-537 585.5,-537 585.5,-469 450.5,-469"/>
<text text-anchor="start" x="458.5" y="-525" font-family="Helvetica,sans-Serif" font-size="10.00">Map&lt; String, WordQuizzle.</text>
<text text-anchor="middle" x="518" y="-514" font-family="Helvetica,sans-Serif" font-size="10.00">Challenge &gt;</text>
<polyline fill="none" stroke="#bfbfbf" points="450.5,-507 585.5,-507 "/>
<text text-anchor="middle" x="518" y="-495" font-family="Helvetica,sans-Serif" font-size="10.00"> </text>
<polyline fill="none" stroke="#bfbfbf" points="450.5,-488 585.5,-488 "/>
<text text-anchor="middle" x="518" y="-476" font-family="Helvetica,sans-Serif" font-size="10.00"> </text>
</a>
</g>
</g>
<!-- Node7&#45;&gt;Node9 -->
<g id="edge10" class="edge"><title>Node7&#45;&gt;Node9</title>
<path fill="none" stroke="orange" d="M469.467,-614.255C474.705,-607.938 479.891,-600.978 484,-594 494.425,-576.297 502.681,-554.829 508.446,-537.301"/>
<polygon fill="orange" stroke="orange" points="466.78,-612.012 462.884,-621.864 472.073,-616.592 466.78,-612.012"/>
<text text-anchor="start" x="495" y="-586" font-family="Helvetica,sans-Serif" font-size="10.00"> &lt; String, WordQuizzle</text>
<text text-anchor="middle" x="545" y="-575" font-family="Helvetica,sans-Serif" font-size="10.00">::Challenge &gt;</text>
</g>
<!-- Node8 -->
<g id="node8" class="node"><title>Node8</title>
<g id="a_node8"><a xlink:href="interface_word_quizzle_1_1_data_base.html" target="_top" xlink:title="Database che gestisce gli utenti.">
<polygon fill="white" stroke="black" points="603.5,-452.5 603.5,-553.5 722.5,-553.5 722.5,-452.5 603.5,-452.5"/>
<text text-anchor="middle" x="663" y="-541.5" font-family="Helvetica,sans-Serif" font-size="10.00">WordQuizzle.DataBase</text>
<polyline fill="none" stroke="black" points="603.5,-534.5 722.5,-534.5 "/>
<text text-anchor="middle" x="663" y="-522.5" font-family="Helvetica,sans-Serif" font-size="10.00"> </text>
<polyline fill="none" stroke="black" points="603.5,-515.5 722.5,-515.5 "/>
<text text-anchor="start" x="611.5" y="-503.5" font-family="Helvetica,sans-Serif" font-size="10.00">+ checkUser()</text>
<text text-anchor="start" x="611.5" y="-492.5" font-family="Helvetica,sans-Serif" font-size="10.00">+ getUser()</text>
<text text-anchor="start" x="611.5" y="-481.5" font-family="Helvetica,sans-Serif" font-size="10.00">+ newUser()</text>
<text text-anchor="start" x="611.5" y="-470.5" font-family="Helvetica,sans-Serif" font-size="10.00">+ modifyScore()</text>
<text text-anchor="start" x="611.5" y="-459.5" font-family="Helvetica,sans-Serif" font-size="10.00">+ link()</text>
</a>
</g>
</g>
<!-- Node8&#45;&gt;Node4 -->
<g id="edge8" class="edge"><title>Node8&#45;&gt;Node4</title>
<path fill="none" stroke="#404040" d="M603.441,-457.896C600.598,-455.888 597.774,-453.914 595,-452 530.397,-407.414 455.897,-359.327 399.132,-323.356"/>
<polygon fill="none" stroke="#404040" points="398.886,-323.201 391.677,-323.373 388.745,-316.784 395.955,-316.612 398.886,-323.201"/>
<text text-anchor="middle" x="572.5" y="-426" font-family="Helvetica,sans-Serif" font-size="10.00"> &#45;db</text>
</g>
<!-- Node9&#45;&gt;Node4 -->
<g id="edge9" class="edge"><title>Node9&#45;&gt;Node4</title>
<path fill="none" stroke="#404040" d="M488.499,-468.829C464.589,-441.944 429.607,-402.611 396.863,-365.793"/>
<polygon fill="none" stroke="#404040" points="396.569,-365.463 389.593,-363.638 388.594,-356.496 395.571,-358.321 396.569,-365.463"/>
<text text-anchor="middle" x="483.5" y="-426" font-family="Helvetica,sans-Serif" font-size="10.00"> &#45;challenges</text>
</g>
</g>
</svg>
