<?xml version="1.0" encoding="UTF-8" standalone="no"?>
<!DOCTYPE svg PUBLIC "-//W3C//DTD SVG 1.1//EN"
 "http://www.w3.org/Graphics/SVG/1.1/DTD/svg11.dtd">
<!-- Generated by graphviz version 2.38.0 (20140413.2041)
 -->
<!-- Title: WordQuizzle.DictionaryTxt Pages: 1 -->
<svg width="182pt" height="270pt"
 viewBox="0.00 0.00 182.00 270.00" xmlns="http://www.w3.org/2000/svg" xmlns:xlink="http://www.w3.org/1999/xlink">
<g id="graph0" class="graph" transform="scale(1 1) rotate(0) translate(4 266)">
<title>WordQuizzle.DictionaryTxt</title>
<polygon fill="white" stroke="none" points="-4,4 -4,-266 178,-266 178,4 -4,4"/>
<!-- Node1 -->
<g id="node1" class="node"><title>Node1</title>
<g id="a_node1"><a xlink:title="Rappresenta un dizionario memorizzato in un file di testo.">
<polygon fill="#bfbfbf" stroke="black" points="41,-0.5 41,-123.5 174,-123.5 174,-0.5 41,-0.5"/>
<text text-anchor="middle" x="107.5" y="-111.5" font-family="Helvetica,sans-Serif" font-size="10.00">WordQuizzle.DictionaryTxt</text>
<polyline fill="none" stroke="black" points="41,-104.5 174,-104.5 "/>
<text text-anchor="start" x="49" y="-92.5" font-family="Helvetica,sans-Serif" font-size="10.00">&#45; defaultWord</text>
<text text-anchor="start" x="49" y="-81.5" font-family="Helvetica,sans-Serif" font-size="10.00">&#45; N</text>
<polyline fill="none" stroke="black" points="41,-74.5 174,-74.5 "/>
<text text-anchor="start" x="49" y="-62.5" font-family="Helvetica,sans-Serif" font-size="10.00">+ DictionaryTxt()</text>
<text text-anchor="start" x="49" y="-51.5" font-family="Helvetica,sans-Serif" font-size="10.00">+ getWord()</text>
<text text-anchor="start" x="49" y="-40.5" font-family="Helvetica,sans-Serif" font-size="10.00">+ getWord()</text>
<text text-anchor="start" x="49" y="-29.5" font-family="Helvetica,sans-Serif" font-size="10.00">+ getWords()</text>
<text text-anchor="start" x="49" y="-18.5" font-family="Helvetica,sans-Serif" font-size="10.00">+ getN()</text>
<text text-anchor="start" x="49" y="-7.5" font-family="Helvetica,sans-Serif" font-size="10.00">+ getDefaultWord()</text>
</a>
</g>
</g>
<!-- Node2 -->
<g id="node2" class="node"><title>Node2</title>
<g id="a_node2"><a xlink:href="interface_word_quizzle_1_1_dictionary.html" target="_top" xlink:title="Interfaccia che definisce un dizionario.">
<polygon fill="white" stroke="black" points="0,-171.5 0,-261.5 119,-261.5 119,-171.5 0,-171.5"/>
<text text-anchor="middle" x="59.5" y="-249.5" font-family="Helvetica,sans-Serif" font-size="10.00">WordQuizzle.Dictionary</text>
<polyline fill="none" stroke="black" points="0,-242.5 119,-242.5 "/>
<text text-anchor="middle" x="59.5" y="-230.5" font-family="Helvetica,sans-Serif" font-size="10.00"> </text>
<polyline fill="none" stroke="black" points="0,-223.5 119,-223.5 "/>
<text text-anchor="start" x="8" y="-211.5" font-family="Helvetica,sans-Serif" font-size="10.00">+ getWord()</text>
<text text-anchor="start" x="8" y="-200.5" font-family="Helvetica,sans-Serif" font-size="10.00">+ getWord()</text>
<text text-anchor="start" x="8" y="-189.5" font-family="Helvetica,sans-Serif" font-size="10.00">+ getWords()</text>
<text text-anchor="start" x="8" y="-178.5" font-family="Helvetica,sans-Serif" font-size="10.00">+ getN()</text>
</a>
</g>
</g>
<!-- Node2&#45;&gt;Node1 -->
<g id="edge1" class="edge"><title>Node2&#45;&gt;Node1</title>
<path fill="none" stroke="midnightblue" d="M76.4198,-161.744C80.2887,-149.453 84.4271,-136.305 88.381,-123.743"/>
<polygon fill="none" stroke="midnightblue" points="73.0475,-160.801 73.3836,-171.391 79.7245,-162.903 73.0475,-160.801"/>
</g>
<!-- Node3 -->
<g id="node3" class="node"><title>Node3</title>
<g id="a_node3"><a xlink:title=" ">
<polygon fill="white" stroke="#bfbfbf" points="137,-188 137,-245 174,-245 174,-188 137,-188"/>
<text text-anchor="middle" x="155.5" y="-233" font-family="Helvetica,sans-Serif" font-size="10.00">Path</text>
<polyline fill="none" stroke="#bfbfbf" points="137,-226 174,-226 "/>
<text text-anchor="middle" x="155.5" y="-214" font-family="Helvetica,sans-Serif" font-size="10.00"> </text>
<polyline fill="none" stroke="#bfbfbf" points="137,-207 174,-207 "/>
<text text-anchor="middle" x="155.5" y="-195" font-family="Helvetica,sans-Serif" font-size="10.00"> </text>
</a>
</g>
</g>
<!-- Node3&#45;&gt;Node1 -->
<g id="edge2" class="edge"><title>Node3&#45;&gt;Node1</title>
<path fill="none" stroke="#404040" d="M146.808,-187.883C142.132,-173.028 136.125,-153.945 130.222,-135.19"/>
<polygon fill="none" stroke="#404040" points="130.176,-135.043 124.559,-130.521 126.573,-123.596 132.19,-128.119 130.176,-135.043"/>
<text text-anchor="middle" x="148" y="-145" font-family="Helvetica,sans-Serif" font-size="10.00"> &#45;path</text>
</g>
</g>
</svg>
