<?xml version="1.0" encoding="UTF-8" standalone="no"?>
<!DOCTYPE svg PUBLIC "-//W3C//DTD SVG 1.1//EN"
 "http://www.w3.org/Graphics/SVG/1.1/DTD/svg11.dtd">
<!-- Generated by graphviz version 2.38.0 (20140413.2041)
 -->
<!-- Title: WordQuizzleServer Pages: 1 -->
<!--zoomable 656 -->
<svg id="main" version="1.1" xmlns="http://www.w3.org/2000/svg" xmlns:xlink="http://www.w3.org/1999/xlink" xml:space="preserve" onload="init(evt)">
<style type="text/css"><![CDATA[
.edge:hover path { stroke: red; }
.edge:hover polygon { stroke: red; fill: red; }
]]></style>
<script type="text/javascript"><![CDATA[
var edges = document.getElementsByTagName('g');
if (edges && edges.length) {
  for (var i=0;i<edges.length;i++) {
    if (edges[i].id.substr(0,4)=='edge') {
      edges[i].setAttribute('class','edge');
    }
  }
}
]]></script>
        <defs>
                <circle id="rim" cx="0" cy="0" r="7"/>
                <circle id="rim2" cx="0" cy="0" r="3.5"/>
                <g id="zoomPlus">
                        <use xlink:href="#rim" fill="#404040">
                                <set attributeName="fill" to="#808080" begin="zoomplus.mouseover" end="zoomplus.mouseout"/>
                        </use>
                        <path d="M-4,0h8M0,-4v8" fill="none" stroke="white" stroke-width="1.5" pointer-events="none"/>
                </g>
                <g id="zoomMin">
                        <use xlink:href="#rim" fill="#404040">
                                <set attributeName="fill" to="#808080" begin="zoomminus.mouseover" end="zoomminus.mouseout"/>
                        </use>
                        <path d="M-4,0h8" fill="none" stroke="white" stroke-width="1.5" pointer-events="none"/>
                </g>
                <g id="dirArrow">
                        <path fill="none" stroke="white" stroke-width="1.5" d="M0,-3.0v7 M-2.5,-0.5L0,-3.0L2.5,-0.5"/>
                </g>
               <g id="resetDef">
                       <use xlink:href="#rim2" fill="#404040">
                               <set attributeName="fill" to="#808080" begin="reset.mouseover" end="reset.mouseout"/>
                       </use>
               </g>
        </defs>

<script type="text/javascript">
var viewWidth = 700;
var viewHeight = 656;
var sectionId = 'dynsection-1';
</script>
<script xlink:href="svgpan.js"/>
<svg id="graph" class="graph">
<g id="viewport">
<title>WordQuizzleServer</title>
<polygon fill="white" stroke="none" points="-4,4 -4,-652 695.5,-652 695.5,4 -4,4"/>
<!-- Node1 -->
<g id="node1" class="node"><title>Node1</title>
<g id="a_node1"><a xlink:title="Il server che gestisce le interazioni con i client.">
<polygon fill="#bfbfbf" stroke="black" points="437,-0.5 437,-79.5 552,-79.5 552,-0.5 437,-0.5"/>
<text text-anchor="middle" x="494.5" y="-67.5" font-family="Helvetica,sans-Serif" font-size="10.00">WordQuizzleServer</text>
<polyline fill="none" stroke="black" points="437,-60.5 552,-60.5 "/>
<text text-anchor="middle" x="494.5" y="-48.5" font-family="Helvetica,sans-Serif" font-size="10.00"> </text>
<polyline fill="none" stroke="black" points="437,-41.5 552,-41.5 "/>
<text text-anchor="start" x="445" y="-29.5" font-family="Helvetica,sans-Serif" font-size="10.00">+ WordQuizzleServer()</text>
<text text-anchor="start" x="445" y="-18.5" font-family="Helvetica,sans-Serif" font-size="10.00">+ run()</text>
<text text-anchor="start" x="445" y="-7.5" font-family="Helvetica,sans-Serif" font-size="10.00">+ main()</text>
</a>
</g>
</g>
<!-- Node2 -->
<g id="node2" class="node"><title>Node2</title>
<g id="a_node2"><a xlink:title=" ">
<polygon fill="white" stroke="#bfbfbf" points="265,-232 265,-289 322,-289 322,-232 265,-232"/>
<text text-anchor="middle" x="293.5" y="-277" font-family="Helvetica,sans-Serif" font-size="10.00">Runnable</text>
<polyline fill="none" stroke="#bfbfbf" points="265,-270 322,-270 "/>
<text text-anchor="middle" x="293.5" y="-258" font-family="Helvetica,sans-Serif" font-size="10.00"> </text>
<polyline fill="none" stroke="#bfbfbf" points="265,-251 322,-251 "/>
<text text-anchor="middle" x="293.5" y="-239" font-family="Helvetica,sans-Serif" font-size="10.00"> </text>
</a>
</g>
</g>
<!-- Node2&#45;&gt;Node1 -->
<g id="edge1" class="edge"><title>Node2&#45;&gt;Node1</title>
<path fill="none" stroke="midnightblue" d="M296.346,-221.926C300.255,-193.194 309.526,-154.046 331.5,-127 358.435,-93.8483 401.605,-71.8855 436.752,-58.4573"/>
<polygon fill="none" stroke="midnightblue" points="292.854,-221.652 295.135,-231.998 299.804,-222.488 292.854,-221.652"/>
</g>
<!-- Node3 -->
<g id="node3" class="node"><title>Node3</title>
<g id="a_node3"><a xlink:href="class_word_quizzle_server_service.html" target="_top" xlink:title="Implementa la Business Logic.">
<polygon fill="white" stroke="black" points="340.5,-127.5 340.5,-393.5 486.5,-393.5 486.5,-127.5 340.5,-127.5"/>
<text text-anchor="middle" x="413.5" y="-381.5" font-family="Helvetica,sans-Serif" font-size="10.00">WordQuizzleServerService</text>
<polyline fill="none" stroke="black" points="340.5,-374.5 486.5,-374.5 "/>
<text text-anchor="start" x="348.5" y="-362.5" font-family="Helvetica,sans-Serif" font-size="10.00">&#45; K</text>
<text text-anchor="start" x="348.5" y="-351.5" font-family="Helvetica,sans-Serif" font-size="10.00">&#45; T1</text>
<text text-anchor="start" x="348.5" y="-340.5" font-family="Helvetica,sans-Serif" font-size="10.00">&#45; T2</text>
<text text-anchor="start" x="348.5" y="-329.5" font-family="Helvetica,sans-Serif" font-size="10.00">&#45; X</text>
<text text-anchor="start" x="348.5" y="-318.5" font-family="Helvetica,sans-Serif" font-size="10.00">&#45; Y</text>
<text text-anchor="start" x="348.5" y="-307.5" font-family="Helvetica,sans-Serif" font-size="10.00">&#45; Z</text>
<polyline fill="none" stroke="black" points="340.5,-300.5 486.5,-300.5 "/>
<text text-anchor="start" x="348.5" y="-288.5" font-family="Helvetica,sans-Serif" font-size="10.00">+ WordQuizzleServerService()</text>
<text text-anchor="start" x="348.5" y="-277.5" font-family="Helvetica,sans-Serif" font-size="10.00">+ login()</text>
<text text-anchor="start" x="348.5" y="-266.5" font-family="Helvetica,sans-Serif" font-size="10.00">+ logout()</text>
<text text-anchor="start" x="348.5" y="-255.5" font-family="Helvetica,sans-Serif" font-size="10.00">+ aggiungi_amico()</text>
<text text-anchor="start" x="348.5" y="-244.5" font-family="Helvetica,sans-Serif" font-size="10.00">+ lista_amici()</text>
<text text-anchor="start" x="348.5" y="-233.5" font-family="Helvetica,sans-Serif" font-size="10.00">+ mostra_punteggio()</text>
<text text-anchor="start" x="348.5" y="-222.5" font-family="Helvetica,sans-Serif" font-size="10.00">+ mostra_classifica()</text>
<text text-anchor="start" x="348.5" y="-211.5" font-family="Helvetica,sans-Serif" font-size="10.00">+ sfida()</text>
<text text-anchor="start" x="348.5" y="-200.5" font-family="Helvetica,sans-Serif" font-size="10.00">+ accettaSfida()</text>
<text text-anchor="start" x="348.5" y="-189.5" font-family="Helvetica,sans-Serif" font-size="10.00">+ getK()</text>
<text text-anchor="start" x="348.5" y="-178.5" font-family="Helvetica,sans-Serif" font-size="10.00">+ getZ()</text>
<text text-anchor="start" x="348.5" y="-167.5" font-family="Helvetica,sans-Serif" font-size="10.00">+ getY()</text>
<text text-anchor="start" x="348.5" y="-156.5" font-family="Helvetica,sans-Serif" font-size="10.00">+ getX()</text>
<text text-anchor="start" x="348.5" y="-145.5" font-family="Helvetica,sans-Serif" font-size="10.00">+ getT1()</text>
<text text-anchor="start" x="348.5" y="-134.5" font-family="Helvetica,sans-Serif" font-size="10.00">+ getT2()</text>
</a>
</g>
</g>
<!-- Node3&#45;&gt;Node1 -->
<g id="edge2" class="edge"><title>Node3&#45;&gt;Node1</title>
<path fill="none" stroke="#404040" d="M462.487,-127.357C467.184,-114.685 471.722,-102.443 475.833,-91.3555"/>
<polygon fill="none" stroke="#404040" points="475.941,-91.0634 474.276,-84.0471 480.112,-79.8116 481.777,-86.8279 475.941,-91.0634"/>
<text text-anchor="middle" x="483" y="-101" font-family="Helvetica,sans-Serif" font-size="10.00"> &#45;wq</text>
</g>
<!-- Node4 -->
<g id="node4" class="node"><title>Node4</title>
<g id="a_node4"><a xlink:title=" ">
<polygon fill="white" stroke="#bfbfbf" points="0,-463.5 0,-520.5 89,-520.5 89,-463.5 0,-463.5"/>
<text text-anchor="middle" x="44.5" y="-508.5" font-family="Helvetica,sans-Serif" font-size="10.00">DatagramSocket</text>
<polyline fill="none" stroke="#bfbfbf" points="0,-501.5 89,-501.5 "/>
<text text-anchor="middle" x="44.5" y="-489.5" font-family="Helvetica,sans-Serif" font-size="10.00"> </text>
<polyline fill="none" stroke="#bfbfbf" points="0,-482.5 89,-482.5 "/>
<text text-anchor="middle" x="44.5" y="-470.5" font-family="Helvetica,sans-Serif" font-size="10.00"> </text>
</a>
</g>
</g>
<!-- Node4&#45;&gt;Node3 -->
<g id="edge3" class="edge"><title>Node4&#45;&gt;Node3</title>
<path fill="none" stroke="#404040" d="M68.6598,-463.449C77.3018,-455.101 87.6164,-446.656 98.5,-441 152.954,-412.701 173.325,-424.044 233.5,-412 276.494,-403.395 294.245,-418.661 330.5,-394 330.605,-393.928 330.71,-393.857 330.815,-393.785"/>
<polygon fill="none" stroke="#404040" points="330.717,-393.859 333.075,-387.045 340.272,-386.6 337.914,-393.415 330.717,-393.859"/>
<text text-anchor="middle" x="251.5" y="-415" font-family="Helvetica,sans-Serif" font-size="10.00"> &#45;socket</text>
</g>
<!-- Node5 -->
<g id="node5" class="node"><title>Node5</title>
<g id="a_node5"><a xlink:title=" ">
<polygon fill="white" stroke="#bfbfbf" points="107.5,-463.5 107.5,-520.5 235.5,-520.5 235.5,-463.5 107.5,-463.5"/>
<text text-anchor="middle" x="171.5" y="-508.5" font-family="Helvetica,sans-Serif" font-size="10.00">Map&lt; String, Challenge &gt;</text>
<polyline fill="none" stroke="#bfbfbf" points="107.5,-501.5 235.5,-501.5 "/>
<text text-anchor="middle" x="171.5" y="-489.5" font-family="Helvetica,sans-Serif" font-size="10.00"> </text>
<polyline fill="none" stroke="#bfbfbf" points="107.5,-482.5 235.5,-482.5 "/>
<text text-anchor="middle" x="171.5" y="-470.5" font-family="Helvetica,sans-Serif" font-size="10.00"> </text>
</a>
</g>
</g>
<!-- Node5&#45;&gt;Node3 -->
<g id="edge4" class="edge"><title>Node5&#45;&gt;Node3</title>
<path fill="none" stroke="#404040" d="M208.6,-463.451C231.28,-447.305 261.268,-427.17 289.5,-412 307.03,-402.58 315.439,-407.009 330.5,-394 330.818,-393.726 331.135,-393.45 331.451,-393.172"/>
<polygon fill="none" stroke="#404040" points="331.664,-392.971 333.281,-385.943 340.39,-384.732 338.773,-391.76 331.664,-392.971"/>
<text text-anchor="middle" x="316" y="-415" font-family="Helvetica,sans-Serif" font-size="10.00"> &#45;challenges</text>
</g>
<!-- Node6 -->
<g id="node6" class="node"><title>Node6</title>
<g id="a_node6"><a xlink:title=" ">
<polygon fill="white" stroke="#bfbfbf" points="227,-590.5 227,-647.5 262,-647.5 262,-590.5 227,-590.5"/>
<text text-anchor="middle" x="244.5" y="-635.5" font-family="Helvetica,sans-Serif" font-size="10.00">Map</text>
<polyline fill="none" stroke="#bfbfbf" points="227,-628.5 262,-628.5 "/>
<text text-anchor="middle" x="244.5" y="-616.5" font-family="Helvetica,sans-Serif" font-size="10.00"> </text>
<polyline fill="none" stroke="#bfbfbf" points="227,-609.5 262,-609.5 "/>
<text text-anchor="middle" x="244.5" y="-597.5" font-family="Helvetica,sans-Serif" font-size="10.00"> </text>
</a>
</g>
</g>
<!-- Node6&#45;&gt;Node5 -->
<g id="edge5" class="edge"><title>Node6&#45;&gt;Node5</title>
<path fill="none" stroke="orange" d="M218.023,-604.849C205.198,-597.08 190.809,-586.007 182.5,-572 173.386,-556.636 170.664,-536.697 170.207,-520.694"/>
<polygon fill="orange" stroke="orange" points="216.55,-608.037 226.977,-609.917 219.998,-601.945 216.55,-608.037"/>
<text text-anchor="middle" x="230.5" y="-564" font-family="Helvetica,sans-Serif" font-size="10.00"> &lt; String, Challenge &gt;</text>
</g>
<!-- Node7 -->
<g id="node7" class="node"><title>Node7</title>
<g id="a_node7"><a xlink:title=" ">
<polygon fill="white" stroke="#bfbfbf" points="253.5,-463.5 253.5,-520.5 373.5,-520.5 373.5,-463.5 253.5,-463.5"/>
<text text-anchor="middle" x="313.5" y="-508.5" font-family="Helvetica,sans-Serif" font-size="10.00">Map&lt; String, Session &gt;</text>
<polyline fill="none" stroke="#bfbfbf" points="253.5,-501.5 373.5,-501.5 "/>
<text text-anchor="middle" x="313.5" y="-489.5" font-family="Helvetica,sans-Serif" font-size="10.00"> </text>
<polyline fill="none" stroke="#bfbfbf" points="253.5,-482.5 373.5,-482.5 "/>
<text text-anchor="middle" x="313.5" y="-470.5" font-family="Helvetica,sans-Serif" font-size="10.00"> </text>
</a>
</g>
</g>
<!-- Node6&#45;&gt;Node7 -->
<g id="edge7" class="edge"><title>Node6&#45;&gt;Node7</title>
<path fill="none" stroke="orange" d="M268.863,-591.386C273.762,-585.28 278.597,-578.628 282.5,-572 291.995,-555.876 299.698,-536.308 305.051,-520.681"/>
<polygon fill="orange" stroke="orange" points="265.958,-589.404 262.225,-599.319 271.326,-593.896 265.958,-589.404"/>
<text text-anchor="middle" x="332.5" y="-564" font-family="Helvetica,sans-Serif" font-size="10.00"> &lt; String, Session &gt;</text>
</g>
<!-- Node7&#45;&gt;Node3 -->
<g id="edge6" class="edge"><title>Node7&#45;&gt;Node3</title>
<path fill="none" stroke="#404040" d="M325.562,-463.317C332.348,-447.744 341.395,-426.981 351.108,-404.69"/>
<polygon fill="none" stroke="#404040" points="351.129,-404.641 349.859,-397.543 355.923,-393.64 357.193,-400.739 351.129,-404.641"/>
<text text-anchor="middle" x="362" y="-415" font-family="Helvetica,sans-Serif" font-size="10.00"> &#45;users</text>
</g>
<!-- Node8 -->
<g id="node8" class="node"><title>Node8</title>
<g id="a_node8"><a xlink:href="interface_data_base.html" target="_top" xlink:title="Database che gestisce gli utenti.">
<polygon fill="white" stroke="black" points="391.5,-441.5 391.5,-542.5 477.5,-542.5 477.5,-441.5 391.5,-441.5"/>
<text text-anchor="middle" x="434.5" y="-530.5" font-family="Helvetica,sans-Serif" font-size="10.00">DataBase</text>
<polyline fill="none" stroke="black" points="391.5,-523.5 477.5,-523.5 "/>
<text text-anchor="middle" x="434.5" y="-511.5" font-family="Helvetica,sans-Serif" font-size="10.00"> </text>
<polyline fill="none" stroke="black" points="391.5,-504.5 477.5,-504.5 "/>
<text text-anchor="start" x="399.5" y="-492.5" font-family="Helvetica,sans-Serif" font-size="10.00">+ checkUser()</text>
<text text-anchor="start" x="399.5" y="-481.5" font-family="Helvetica,sans-Serif" font-size="10.00">+ getUser()</text>
<text text-anchor="start" x="399.5" y="-470.5" font-family="Helvetica,sans-Serif" font-size="10.00">+ newUser()</text>
<text text-anchor="start" x="399.5" y="-459.5" font-family="Helvetica,sans-Serif" font-size="10.00">+ modifyScore()</text>
<text text-anchor="start" x="399.5" y="-448.5" font-family="Helvetica,sans-Serif" font-size="10.00">+ link()</text>
</a>
</g>
</g>
<!-- Node8&#45;&gt;Node3 -->
<g id="edge8" class="edge"><title>Node8&#45;&gt;Node3</title>
<path fill="none" stroke="#404040" d="M429.285,-441.244C428.668,-435.101 428.06,-428.907 427.5,-423 426.964,-417.344 426.425,-411.576 425.888,-405.748"/>
<polygon fill="none" stroke="#404040" points="425.88,-405.67 421.35,-400.059 424.787,-393.719 429.317,-399.33 425.88,-405.67"/>
<text text-anchor="middle" x="436" y="-415" font-family="Helvetica,sans-Serif" font-size="10.00"> &#45;db</text>
</g>
<!-- Node9 -->
<g id="node9" class="node"><title>Node9</title>
<g id="a_node9"><a xlink:title=" ">
<polygon fill="white" stroke="#bfbfbf" points="496,-463.5 496,-520.5 549,-520.5 549,-463.5 496,-463.5"/>
<text text-anchor="middle" x="522.5" y="-508.5" font-family="Helvetica,sans-Serif" font-size="10.00">Selector</text>
<polyline fill="none" stroke="#bfbfbf" points="496,-501.5 549,-501.5 "/>
<text text-anchor="middle" x="522.5" y="-489.5" font-family="Helvetica,sans-Serif" font-size="10.00"> </text>
<polyline fill="none" stroke="#bfbfbf" points="496,-482.5 549,-482.5 "/>
<text text-anchor="middle" x="522.5" y="-470.5" font-family="Helvetica,sans-Serif" font-size="10.00"> </text>
</a>
</g>
</g>
<!-- Node9&#45;&gt;Node1 -->
<g id="edge11" class="edge"><title>Node9&#45;&gt;Node1</title>
<path fill="none" stroke="#404040" d="M520.77,-463.19C516.171,-389.285 503.594,-187.155 497.668,-91.9172"/>
<polygon fill="none" stroke="#404040" points="497.657,-91.7338 493.292,-85.9938 496.912,-79.757 501.276,-85.497 497.657,-91.7338"/>
<text text-anchor="middle" x="537" y="-258" font-family="Helvetica,sans-Serif" font-size="10.00"> &#45;selector</text>
</g>
<!-- Node9&#45;&gt;Node3 -->
<g id="edge9" class="edge"><title>Node9&#45;&gt;Node3</title>
<path fill="none" stroke="#404040" d="M503.967,-463.3C498.602,-455.842 492.553,-447.927 486.5,-441 478.845,-432.241 473.753,-432.809 467.5,-423 463.733,-417.091 460.201,-410.892 456.892,-404.507"/>
<polygon fill="none" stroke="#404040" points="456.826,-404.373 450.589,-400.753 451.532,-393.604 457.769,-397.224 456.826,-404.373"/>
<text text-anchor="middle" x="488" y="-415" font-family="Helvetica,sans-Serif" font-size="10.00"> &#45;selector</text>
</g>
<!-- Node10 -->
<g id="node10" class="node"><title>Node10</title>
<g id="a_node10"><a xlink:title=" ">
<polygon fill="white" stroke="#bfbfbf" points="581.5,-232 581.5,-289 691.5,-289 691.5,-232 581.5,-232"/>
<text text-anchor="middle" x="636.5" y="-277" font-family="Helvetica,sans-Serif" font-size="10.00">ServerSocketChannel</text>
<polyline fill="none" stroke="#bfbfbf" points="581.5,-270 691.5,-270 "/>
<text text-anchor="middle" x="636.5" y="-258" font-family="Helvetica,sans-Serif" font-size="10.00"> </text>
<polyline fill="none" stroke="#bfbfbf" points="581.5,-251 691.5,-251 "/>
<text text-anchor="middle" x="636.5" y="-239" font-family="Helvetica,sans-Serif" font-size="10.00"> </text>
</a>
</g>
</g>
<!-- Node10&#45;&gt;Node1 -->
<g id="edge10" class="edge"><title>Node10&#45;&gt;Node1</title>
<path fill="none" stroke="#404040" d="M624.318,-231.845C611.687,-204.315 590.583,-161.329 567.5,-127 558.877,-114.176 548.635,-101.087 538.59,-89.1152"/>
<polygon fill="none" stroke="#404040" points="538.408,-88.902 531.469,-86.9395 530.612,-79.7795 537.551,-81.742 538.408,-88.902"/>
<text text-anchor="middle" x="569.5" y="-101" font-family="Helvetica,sans-Serif" font-size="10.00"> &#45;server</text>
</g>
</g>
</svg>
        <g id="navigator" transform="translate(0 0)" fill="#404254">
                <rect fill="#f2f5e9" fill-opacity="0.5" stroke="#606060" stroke-width=".5" x="0" y="0" width="60" height="60"/>
                <use id="zoomplus" xlink:href="#zoomPlus" x="17" y="9" onmousedown="handleZoom(evt,'in')"/>
                <use id="zoomminus" xlink:href="#zoomMin" x="42" y="9" onmousedown="handleZoom(evt,'out')"/>
                <use id="reset" xlink:href="#resetDef" x="30" y="36" onmousedown="handleReset()"/>
                <g id="arrowUp" xlink:href="#dirArrow" transform="translate(30 24)" onmousedown="handlePan(0,-1)">
                  <use xlink:href="#rim" fill="#404040">
                        <set attributeName="fill" to="#808080" begin="arrowUp.mouseover" end="arrowUp.mouseout"/>
                  </use>
                  <path fill="none" stroke="white" stroke-width="1.5" d="M0,-3.0v7 M-2.5,-0.5L0,-3.0L2.5,-0.5"/>
                </g>
                <g id="arrowRight" xlink:href="#dirArrow" transform="rotate(90) translate(36 -43)" onmousedown="handlePan(1,0)">
                  <use xlink:href="#rim" fill="#404040">
                        <set attributeName="fill" to="#808080" begin="arrowRight.mouseover" end="arrowRight.mouseout"/>
                  </use>
                  <path fill="none" stroke="white" stroke-width="1.5" d="M0,-3.0v7 M-2.5,-0.5L0,-3.0L2.5,-0.5"/>
                </g>
                <g id="arrowDown" xlink:href="#dirArrow" transform="rotate(180) translate(-30 -48)" onmousedown="handlePan(0,1)">
                  <use xlink:href="#rim" fill="#404040">
                        <set attributeName="fill" to="#808080" begin="arrowDown.mouseover" end="arrowDown.mouseout"/>
                  </use>
                  <path fill="none" stroke="white" stroke-width="1.5" d="M0,-3.0v7 M-2.5,-0.5L0,-3.0L2.5,-0.5"/>
                </g>
                <g id="arrowLeft" xlink:href="#dirArrow" transform="rotate(270) translate(-36 17)" onmousedown="handlePan(-1,0)">
                  <use xlink:href="#rim" fill="#404040">
                        <set attributeName="fill" to="#808080" begin="arrowLeft.mouseover" end="arrowLeft.mouseout"/>
                  </use>
                  <path fill="none" stroke="white" stroke-width="1.5" d="M0,-3.0v7 M-2.5,-0.5L0,-3.0L2.5,-0.5"/>
                </g>
        </g>
        <svg viewBox="0 0 15 15" width="100%" height="30px" preserveAspectRatio="xMaxYMin meet">
         <g id="arrow_out" transform="scale(0.3 0.3)">
          <a xlink:href="class_word_quizzle_server__coll__graph_org.svg" target="_base">
           <rect id="button" ry="5" rx="5" y="6" x="6" height="38" width="38"
                fill="#f2f5e9" fill-opacity="0.5" stroke="#606060" stroke-width="1.0"/>
           <path id="arrow"
             d="M 11.500037,31.436501 C 11.940474,20.09759 22.043105,11.32322 32.158766,21.979434 L 37.068811,17.246167 C 37.068811,17.246167 37.088388,32 37.088388,32 L 22.160133,31.978069 C 22.160133,31.978069 26.997745,27.140456 26.997745,27.140456 C 18.528582,18.264221 13.291696,25.230495 11.500037,31.436501 z"
             style="fill:#404040;"/>
          </a>
         </g>
        </svg>
</svg>
