<?xml version="1.0" encoding="UTF-8" standalone="no"?>
<!DOCTYPE svg PUBLIC "-//W3C//DTD SVG 1.1//EN"
 "http://www.w3.org/Graphics/SVG/1.1/DTD/svg11.dtd">
<!-- Generated by graphviz version 2.38.0 (20140413.2041)
 -->
<!-- Title: WordQuizzle.Notifier.run Pages: 1 -->
<svg width="826pt" height="235pt"
 viewBox="0.00 0.00 826.00 235.00" xmlns="http://www.w3.org/2000/svg" xmlns:xlink="http://www.w3.org/1999/xlink">
<g id="graph0" class="graph" transform="scale(1 1) rotate(0) translate(4 231)">
<title>WordQuizzle.Notifier.run</title>
<polygon fill="white" stroke="none" points="-4,4 -4,-231 822,-231 822,4 -4,4"/>
<!-- Node1 -->
<g id="node1" class="node"><title>Node1</title>
<g id="a_node1"><a xlink:title="Attende l&#39;arrivo di una richiesta e se il client non e&#39; impegnato in una sfida gli notifica la richie...">
<polygon fill="#bfbfbf" stroke="black" points="0,-104 0,-123 122,-123 122,-104 0,-104"/>
<text text-anchor="middle" x="61" y="-111" font-family="Helvetica,sans-Serif" font-size="10.00">WordQuizzle.Notifier.run</text>
</a>
</g>
</g>
<!-- Node2 -->
<g id="node2" class="node"><title>Node2</title>
<g id="a_node2"><a xlink:href="class_word_quizzle_1_1_word_quizzle_client.html#a540dfbf20ba0d5a8118e6d9284b79bc0" target="_top" xlink:title="Accetta una richiesta di sfida inviata da nickAmico.">
<polygon fill="white" stroke="black" points="160.5,-194.5 160.5,-224.5 352.5,-224.5 352.5,-194.5 160.5,-194.5"/>
<text text-anchor="start" x="168.5" y="-212.5" font-family="Helvetica,sans-Serif" font-size="10.00">WordQuizzle.WordQuizzleClient.accetta</text>
<text text-anchor="middle" x="256.5" y="-201.5" font-family="Helvetica,sans-Serif" font-size="10.00">Sfida</text>
</a>
</g>
</g>
<!-- Node1&#45;&gt;Node2 -->
<g id="edge1" class="edge"><title>Node1&#45;&gt;Node2</title>
<path fill="none" stroke="midnightblue" d="M72.3816,-123.117C89.1395,-138.142 123.748,-167.152 158,-183.5 163.949,-186.339 170.255,-188.905 176.685,-191.218"/>
<polygon fill="midnightblue" stroke="midnightblue" points="175.573,-194.536 186.167,-194.426 177.816,-187.905 175.573,-194.536"/>
</g>
<!-- Node4 -->
<g id="node4" class="node"><title>Node4</title>
<g id="a_node4"><a xlink:href="class_word_quizzle_1_1_word_quizzle_client.html#a808fea05e1dc44069f476eebd3a39ada" target="_top" xlink:title="Verifica se ci sono richieste di sfida per user.">
<polygon fill="white" stroke="black" points="158,-143.5 158,-173.5 355,-173.5 355,-143.5 158,-143.5"/>
<text text-anchor="start" x="166" y="-161.5" font-family="Helvetica,sans-Serif" font-size="10.00">WordQuizzle.WordQuizzleClient.controlla</text>
<text text-anchor="middle" x="256.5" y="-150.5" font-family="Helvetica,sans-Serif" font-size="10.00">Richieste</text>
</a>
</g>
</g>
<!-- Node1&#45;&gt;Node4 -->
<g id="edge3" class="edge"><title>Node1&#45;&gt;Node4</title>
<path fill="none" stroke="midnightblue" d="M103.036,-123.043C125.662,-128.305 154.453,-135.001 180.909,-141.153"/>
<polygon fill="midnightblue" stroke="midnightblue" points="180.383,-144.624 190.916,-143.48 181.969,-137.806 180.383,-144.624"/>
</g>
<!-- Node6 -->
<g id="node6" class="node"><title>Node6</title>
<g id="a_node6"><a xlink:href="class_word_quizzle_1_1_w_q_gui.html#a0e3cb31624c4fdda7b58977fe75de341" target="_top" xlink:title="Crea la finestra di gioco durante una sfida.">
<polygon fill="white" stroke="black" points="189,-104 189,-123 324,-123 324,-104 189,-104"/>
<text text-anchor="middle" x="256.5" y="-111" font-family="Helvetica,sans-Serif" font-size="10.00">WordQuizzle.WQGui.game</text>
</a>
</g>
</g>
<!-- Node1&#45;&gt;Node6 -->
<g id="edge5" class="edge"><title>Node1&#45;&gt;Node6</title>
<path fill="none" stroke="midnightblue" d="M122.164,-113.5C140.126,-113.5 160.06,-113.5 178.924,-113.5"/>
<polygon fill="midnightblue" stroke="midnightblue" points="178.974,-117 188.974,-113.5 178.974,-110 178.974,-117"/>
</g>
<!-- Node11 -->
<g id="node11" class="node"><title>Node11</title>
<g id="a_node11"><a xlink:href="class_word_quizzle_1_1_word_quizzle_server_service.html#ace8277bd092a7ac14bcfe5927ecc8c33" target="_top" xlink:title="Restituisce il tempo di attesa per l&#39;accettazione di una richiesta, in millisecondi.">
<polygon fill="white" stroke="black" points="177,-54.5 177,-84.5 336,-84.5 336,-54.5 177,-54.5"/>
<text text-anchor="start" x="185" y="-72.5" font-family="Helvetica,sans-Serif" font-size="10.00">WordQuizzle.WordQuizzleServer</text>
<text text-anchor="middle" x="256.5" y="-61.5" font-family="Helvetica,sans-Serif" font-size="10.00">Service.getT1</text>
</a>
</g>
</g>
<!-- Node1&#45;&gt;Node11 -->
<g id="edge10" class="edge"><title>Node1&#45;&gt;Node11</title>
<path fill="none" stroke="midnightblue" d="M103.987,-103.953C125.967,-98.9545 153.57,-92.6778 179.174,-86.8558"/>
<polygon fill="midnightblue" stroke="midnightblue" points="180.272,-90.1956 189.247,-84.5654 178.719,-83.3699 180.272,-90.1956"/>
</g>
<!-- Node12 -->
<g id="node12" class="node"><title>Node12</title>
<g id="a_node12"><a xlink:href="class_word_quizzle_1_1_w_q_gui.html#accbd25f5fe94e769f5d3d49eb2d968c8" target="_top" xlink:title="Verifica se l&#39;utente e&#39; impegnato in una sfida.">
<polygon fill="white" stroke="black" points="176,-16 176,-35 337,-35 337,-16 176,-16"/>
<text text-anchor="middle" x="256.5" y="-23" font-family="Helvetica,sans-Serif" font-size="10.00">WordQuizzle.WQGui.inChallenge</text>
</a>
</g>
</g>
<!-- Node1&#45;&gt;Node12 -->
<g id="edge11" class="edge"><title>Node1&#45;&gt;Node12</title>
<path fill="none" stroke="midnightblue" d="M72.3284,-103.938C89.0134,-89.0417 123.524,-60.4562 158,-45.5 165.078,-42.4296 172.652,-39.8218 180.335,-37.6087"/>
<polygon fill="midnightblue" stroke="midnightblue" points="181.332,-40.9654 190.096,-35.0114 179.532,-34.2008 181.332,-40.9654"/>
</g>
<!-- Node3 -->
<g id="node3" class="node"><title>Node3</title>
<g id="a_node3"><a xlink:href="interface_word_quizzle_1_1_word_quizzle_service.html#a249b5976997c2e6d6d2ceb7e71cc7d75" target="_top" xlink:title="Accetta una richiesta di sfida inviata da nickAmico.">
<polygon fill="white" stroke="black" points="393,-196.5 393,-226.5 592,-226.5 592,-196.5 393,-196.5"/>
<text text-anchor="start" x="401" y="-214.5" font-family="Helvetica,sans-Serif" font-size="10.00">WordQuizzle.WordQuizzleService.accetta</text>
<text text-anchor="middle" x="492.5" y="-203.5" font-family="Helvetica,sans-Serif" font-size="10.00">Sfida</text>
</a>
</g>
</g>
<!-- Node2&#45;&gt;Node3 -->
<g id="edge2" class="edge"><title>Node2&#45;&gt;Node3</title>
<path fill="none" stroke="midnightblue" d="M352.677,-210.313C362.641,-210.399 372.824,-210.486 382.924,-210.572"/>
<polygon fill="midnightblue" stroke="midnightblue" points="382.954,-214.072 392.984,-210.658 383.014,-207.073 382.954,-214.072"/>
</g>
<!-- Node5 -->
<g id="node5" class="node"><title>Node5</title>
<g id="a_node5"><a xlink:href="interface_word_quizzle_1_1_word_quizzle_service.html#a12eccd4ef95e4ec5a7591b6038429eda" target="_top" xlink:title="Verifica se ci sono richieste di sfida per nickUtente.">
<polygon fill="white" stroke="black" points="391,-147.5 391,-177.5 594,-177.5 594,-147.5 391,-147.5"/>
<text text-anchor="start" x="399" y="-165.5" font-family="Helvetica,sans-Serif" font-size="10.00">WordQuizzle.WordQuizzleService.controlla</text>
<text text-anchor="middle" x="492.5" y="-154.5" font-family="Helvetica,sans-Serif" font-size="10.00">Richieste</text>
</a>
</g>
</g>
<!-- Node4&#45;&gt;Node5 -->
<g id="edge4" class="edge"><title>Node4&#45;&gt;Node5</title>
<path fill="none" stroke="midnightblue" d="M355.043,-160.167C363.515,-160.312 372.128,-160.459 380.696,-160.606"/>
<polygon fill="midnightblue" stroke="midnightblue" points="380.665,-164.106 390.723,-160.777 380.784,-157.107 380.665,-164.106"/>
</g>
<!-- Node7 -->
<g id="node7" class="node"><title>Node7</title>
<g id="a_node7"><a xlink:href="class_word_quizzle_1_1_word_quizzle_server_service.html#a970fe0e2dd7457bab2c64ae722a912fc" target="_top" xlink:title="Restituisce il numero di parole per sfida.">
<polygon fill="white" stroke="black" points="413,-98.5 413,-128.5 572,-128.5 572,-98.5 413,-98.5"/>
<text text-anchor="start" x="421" y="-116.5" font-family="Helvetica,sans-Serif" font-size="10.00">WordQuizzle.WordQuizzleServer</text>
<text text-anchor="middle" x="492.5" y="-105.5" font-family="Helvetica,sans-Serif" font-size="10.00">Service.getK</text>
</a>
</g>
</g>
<!-- Node6&#45;&gt;Node7 -->
<g id="edge6" class="edge"><title>Node6&#45;&gt;Node7</title>
<path fill="none" stroke="midnightblue" d="M324.242,-113.5C348.57,-113.5 376.478,-113.5 402.436,-113.5"/>
<polygon fill="midnightblue" stroke="midnightblue" points="402.658,-117 412.658,-113.5 402.658,-110 402.658,-117"/>
</g>
<!-- Node8 -->
<g id="node8" class="node"><title>Node8</title>
<g id="a_node8"><a xlink:href="class_word_quizzle_1_1_word_quizzle_server_service.html#ac78bda2a578b3baa0933ca28e4b72e0c" target="_top" xlink:title="Restituisce la durata di una sfida, in millisecondi.">
<polygon fill="white" stroke="black" points="413,-49.5 413,-79.5 572,-79.5 572,-49.5 413,-49.5"/>
<text text-anchor="start" x="421" y="-67.5" font-family="Helvetica,sans-Serif" font-size="10.00">WordQuizzle.WordQuizzleServer</text>
<text text-anchor="middle" x="492.5" y="-56.5" font-family="Helvetica,sans-Serif" font-size="10.00">Service.getT2</text>
</a>
</g>
</g>
<!-- Node6&#45;&gt;Node8 -->
<g id="edge7" class="edge"><title>Node6&#45;&gt;Node8</title>
<path fill="none" stroke="midnightblue" d="M307.648,-103.965C322.871,-101.007 339.633,-97.6854 355,-94.5 374.321,-90.4948 395.142,-86.0068 414.56,-81.7469"/>
<polygon fill="midnightblue" stroke="midnightblue" points="415.556,-85.1114 424.57,-79.5438 414.052,-78.275 415.556,-85.1114"/>
</g>
<!-- Node9 -->
<g id="node9" class="node"><title>Node9</title>
<g id="a_node9"><a xlink:href="class_word_quizzle_1_1_word_quizzle_client.html#a828a5e7a358bd53296d88c97172db13b" target="_top" xlink:title="Invia la traduzione della parola precedentemente inviata dal server durante una sfida.">
<polygon fill="white" stroke="black" points="402,-0.5 402,-30.5 583,-30.5 583,-0.5 402,-0.5"/>
<text text-anchor="start" x="410" y="-18.5" font-family="Helvetica,sans-Serif" font-size="10.00">WordQuizzle.WordQuizzleClient.send</text>
<text text-anchor="middle" x="492.5" y="-7.5" font-family="Helvetica,sans-Serif" font-size="10.00">Translation</text>
</a>
</g>
</g>
<!-- Node6&#45;&gt;Node9 -->
<g id="edge8" class="edge"><title>Node6&#45;&gt;Node9</title>
<path fill="none" stroke="midnightblue" d="M324.01,-107.863C334.961,-104.932 345.743,-100.667 355,-94.5 379.006,-78.509 367.412,-57.102 391,-40.5 393.757,-38.5596 396.649,-36.7694 399.642,-35.1177"/>
<polygon fill="midnightblue" stroke="midnightblue" points="401.461,-38.1232 408.887,-30.5667 398.37,-31.8428 401.461,-38.1232"/>
</g>
<!-- Node10 -->
<g id="node10" class="node"><title>Node10</title>
<g id="a_node10"><a xlink:href="interface_word_quizzle_1_1_word_quizzle_service.html#a40fcaf644a7b5e4e1c1e592052f55e0b" target="_top" xlink:title="Invia la traduzione della parola precedentemente inviata dal server durante una sfida.">
<polygon fill="white" stroke="black" points="630,-0.5 630,-30.5 818,-30.5 818,-0.5 630,-0.5"/>
<text text-anchor="start" x="638" y="-18.5" font-family="Helvetica,sans-Serif" font-size="10.00">WordQuizzle.WordQuizzleService.send</text>
<text text-anchor="middle" x="724" y="-7.5" font-family="Helvetica,sans-Serif" font-size="10.00">Translation</text>
</a>
</g>
</g>
<!-- Node9&#45;&gt;Node10 -->
<g id="edge9" class="edge"><title>Node9&#45;&gt;Node10</title>
<path fill="none" stroke="midnightblue" d="M583.217,-15.5C595.199,-15.5 607.565,-15.5 619.755,-15.5"/>
<polygon fill="midnightblue" stroke="midnightblue" points="619.942,-19.0001 629.942,-15.5 619.942,-12.0001 619.942,-19.0001"/>
</g>
</g>
</svg>
