<?xml version="1.0" encoding="UTF-8" standalone="no"?>
<!DOCTYPE svg PUBLIC "-//W3C//DTD SVG 1.1//EN"
 "http://www.w3.org/Graphics/SVG/1.1/DTD/svg11.dtd">
<!-- Generated by graphviz version 2.38.0 (20140413.2041)
 -->
<!-- Title: WordQuizzle.WordQuizzleServer Pages: 1 -->
<!--zoomable 678 -->
<svg id="main" version="1.1" xmlns="http://www.w3.org/2000/svg" xmlns:xlink="http://www.w3.org/1999/xlink" xml:space="preserve" onload="init(evt)">
<style type="text/css"><![CDATA[
.edge:hover path { stroke: red; }
.edge:hover polygon { stroke: red; fill: red; }
]]></style>
<script type="text/javascript"><![CDATA[
var edges = document.getElementsByTagName('g');
if (edges && edges.length) {
  for (var i=0;i<edges.length;i++) {
    if (edges[i].id.substr(0,4)=='edge') {
      edges[i].setAttribute('class','edge');
    }
  }
}
]]></script>
        <defs>
                <circle id="rim" cx="0" cy="0" r="7"/>
                <circle id="rim2" cx="0" cy="0" r="3.5"/>
                <g id="zoomPlus">
                        <use xlink:href="#rim" fill="#404040">
                                <set attributeName="fill" to="#808080" begin="zoomplus.mouseover" end="zoomplus.mouseout"/>
                        </use>
                        <path d="M-4,0h8M0,-4v8" fill="none" stroke="white" stroke-width="1.5" pointer-events="none"/>
                </g>
                <g id="zoomMin">
                        <use xlink:href="#rim" fill="#404040">
                                <set attributeName="fill" to="#808080" begin="zoomminus.mouseover" end="zoomminus.mouseout"/>
                        </use>
                        <path d="M-4,0h8" fill="none" stroke="white" stroke-width="1.5" pointer-events="none"/>
                </g>
                <g id="dirArrow">
                        <path fill="none" stroke="white" stroke-width="1.5" d="M0,-3.0v7 M-2.5,-0.5L0,-3.0L2.5,-0.5"/>
                </g>
               <g id="resetDef">
                       <use xlink:href="#rim2" fill="#404040">
                               <set attributeName="fill" to="#808080" begin="reset.mouseover" end="reset.mouseout"/>
                       </use>
               </g>
        </defs>

<script type="text/javascript">
var viewWidth = 806;
var viewHeight = 678;
var sectionId = 'dynsection-1';
</script>
<script xlink:href="svgpan.js"/>
<svg id="graph" class="graph">
<g id="viewport">
<title>WordQuizzle.WordQuizzleServer</title>
<polygon fill="white" stroke="none" points="-4,4 -4,-674 802,-674 802,4 -4,4"/>
<!-- Node1 -->
<g id="node1" class="node"><title>Node1</title>
<g id="a_node1"><a xlink:title="Il server che gestisce le interazioni con i client.">
<polygon fill="#bfbfbf" stroke="black" points="96,-0.5 96,-79.5 255,-79.5 255,-0.5 96,-0.5"/>
<text text-anchor="middle" x="175.5" y="-67.5" font-family="Helvetica,sans-Serif" font-size="10.00">WordQuizzle.WordQuizzleServer</text>
<polyline fill="none" stroke="black" points="96,-60.5 255,-60.5 "/>
<text text-anchor="middle" x="175.5" y="-48.5" font-family="Helvetica,sans-Serif" font-size="10.00"> </text>
<polyline fill="none" stroke="black" points="96,-41.5 255,-41.5 "/>
<text text-anchor="start" x="104" y="-29.5" font-family="Helvetica,sans-Serif" font-size="10.00">+ WordQuizzleServer()</text>
<text text-anchor="start" x="104" y="-18.5" font-family="Helvetica,sans-Serif" font-size="10.00">+ run()</text>
<text text-anchor="start" x="104" y="-7.5" font-family="Helvetica,sans-Serif" font-size="10.00">+ main()</text>
</a>
</g>
</g>
<!-- Node2 -->
<g id="node2" class="node"><title>Node2</title>
<g id="a_node2"><a xlink:title=" ">
<polygon fill="white" stroke="#bfbfbf" points="0,-237.5 0,-294.5 57,-294.5 57,-237.5 0,-237.5"/>
<text text-anchor="middle" x="28.5" y="-282.5" font-family="Helvetica,sans-Serif" font-size="10.00">Runnable</text>
<polyline fill="none" stroke="#bfbfbf" points="0,-275.5 57,-275.5 "/>
<text text-anchor="middle" x="28.5" y="-263.5" font-family="Helvetica,sans-Serif" font-size="10.00"> </text>
<polyline fill="none" stroke="#bfbfbf" points="0,-256.5 57,-256.5 "/>
<text text-anchor="middle" x="28.5" y="-244.5" font-family="Helvetica,sans-Serif" font-size="10.00"> </text>
</a>
</g>
</g>
<!-- Node2&#45;&gt;Node1 -->
<g id="edge1" class="edge"><title>Node2&#45;&gt;Node1</title>
<path fill="none" stroke="midnightblue" d="M32.4033,-227.242C36.8955,-197.902 46.4342,-157.246 66.5,-127 78.5597,-108.822 95.7149,-92.7488 112.856,-79.5639"/>
<polygon fill="none" stroke="midnightblue" points="28.8876,-227.111 30.9665,-237.5 35.8199,-228.082 28.8876,-227.111"/>
</g>
<!-- Node3 -->
<g id="node3" class="node"><title>Node3</title>
<g id="a_node3"><a xlink:title=" ">
<polygon fill="white" stroke="#bfbfbf" points="75.5,-237.5 75.5,-294.5 185.5,-294.5 185.5,-237.5 75.5,-237.5"/>
<text text-anchor="middle" x="130.5" y="-282.5" font-family="Helvetica,sans-Serif" font-size="10.00">ServerSocketChannel</text>
<polyline fill="none" stroke="#bfbfbf" points="75.5,-275.5 185.5,-275.5 "/>
<text text-anchor="middle" x="130.5" y="-263.5" font-family="Helvetica,sans-Serif" font-size="10.00"> </text>
<polyline fill="none" stroke="#bfbfbf" points="75.5,-256.5 185.5,-256.5 "/>
<text text-anchor="middle" x="130.5" y="-244.5" font-family="Helvetica,sans-Serif" font-size="10.00"> </text>
</a>
</g>
</g>
<!-- Node3&#45;&gt;Node1 -->
<g id="edge2" class="edge"><title>Node3&#45;&gt;Node1</title>
<path fill="none" stroke="#404040" d="M136.108,-237.083C143.403,-200.772 156.28,-136.673 165.32,-91.672"/>
<polygon fill="none" stroke="#404040" points="165.339,-91.5769 162.6,-84.9066 167.703,-79.812 170.443,-86.4823 165.339,-91.5769"/>
<text text-anchor="middle" x="179.5" y="-101" font-family="Helvetica,sans-Serif" font-size="10.00"> &#45;server</text>
</g>
<!-- Node4 -->
<g id="node4" class="node"><title>Node4</title>
<g id="a_node4"><a xlink:title=" ">
<polygon fill="white" stroke="#bfbfbf" points="195,-474.5 195,-531.5 248,-531.5 248,-474.5 195,-474.5"/>
<text text-anchor="middle" x="221.5" y="-519.5" font-family="Helvetica,sans-Serif" font-size="10.00">Selector</text>
<polyline fill="none" stroke="#bfbfbf" points="195,-512.5 248,-512.5 "/>
<text text-anchor="middle" x="221.5" y="-500.5" font-family="Helvetica,sans-Serif" font-size="10.00"> </text>
<polyline fill="none" stroke="#bfbfbf" points="195,-493.5 248,-493.5 "/>
<text text-anchor="middle" x="221.5" y="-481.5" font-family="Helvetica,sans-Serif" font-size="10.00"> </text>
</a>
</g>
</g>
<!-- Node4&#45;&gt;Node1 -->
<g id="edge3" class="edge"><title>Node4&#45;&gt;Node1</title>
<path fill="none" stroke="#404040" d="M223.229,-474.113C226.638,-407.87 231.359,-236.268 199.5,-98 198.976,-95.7243 198.367,-93.4238 197.693,-91.1192"/>
<polygon fill="none" stroke="#404040" points="197.665,-91.036 191.966,-86.6173 193.853,-79.6574 199.552,-84.0761 197.665,-91.036"/>
<text text-anchor="middle" x="247" y="-263.5" font-family="Helvetica,sans-Serif" font-size="10.00"> &#45;selector</text>
</g>
<!-- Node5 -->
<g id="node5" class="node"><title>Node5</title>
<g id="a_node5"><a xlink:href="class_word_quizzle_1_1_word_quizzle_server_service.html" target="_top" xlink:title="Implementa la Business Logic.">
<polygon fill="white" stroke="black" points="305,-127.5 305,-404.5 464,-404.5 464,-127.5 305,-127.5"/>
<text text-anchor="start" x="313" y="-392.5" font-family="Helvetica,sans-Serif" font-size="10.00">WordQuizzle.WordQuizzleServer</text>
<text text-anchor="middle" x="384.5" y="-381.5" font-family="Helvetica,sans-Serif" font-size="10.00">Service</text>
<polyline fill="none" stroke="black" points="305,-374.5 464,-374.5 "/>
<text text-anchor="start" x="313" y="-362.5" font-family="Helvetica,sans-Serif" font-size="10.00">&#45; K</text>
<text text-anchor="start" x="313" y="-351.5" font-family="Helvetica,sans-Serif" font-size="10.00">&#45; T1</text>
<text text-anchor="start" x="313" y="-340.5" font-family="Helvetica,sans-Serif" font-size="10.00">&#45; T2</text>
<text text-anchor="start" x="313" y="-329.5" font-family="Helvetica,sans-Serif" font-size="10.00">&#45; X</text>
<text text-anchor="start" x="313" y="-318.5" font-family="Helvetica,sans-Serif" font-size="10.00">&#45; Y</text>
<text text-anchor="start" x="313" y="-307.5" font-family="Helvetica,sans-Serif" font-size="10.00">&#45; Z</text>
<polyline fill="none" stroke="black" points="305,-300.5 464,-300.5 "/>
<text text-anchor="start" x="313" y="-288.5" font-family="Helvetica,sans-Serif" font-size="10.00">+ WordQuizzleServerService()</text>
<text text-anchor="start" x="313" y="-277.5" font-family="Helvetica,sans-Serif" font-size="10.00">+ login()</text>
<text text-anchor="start" x="313" y="-266.5" font-family="Helvetica,sans-Serif" font-size="10.00">+ logout()</text>
<text text-anchor="start" x="313" y="-255.5" font-family="Helvetica,sans-Serif" font-size="10.00">+ aggiungi_amico()</text>
<text text-anchor="start" x="313" y="-244.5" font-family="Helvetica,sans-Serif" font-size="10.00">+ lista_amici()</text>
<text text-anchor="start" x="313" y="-233.5" font-family="Helvetica,sans-Serif" font-size="10.00">+ mostra_punteggio()</text>
<text text-anchor="start" x="313" y="-222.5" font-family="Helvetica,sans-Serif" font-size="10.00">+ mostra_classifica()</text>
<text text-anchor="start" x="313" y="-211.5" font-family="Helvetica,sans-Serif" font-size="10.00">+ sfida()</text>
<text text-anchor="start" x="313" y="-200.5" font-family="Helvetica,sans-Serif" font-size="10.00">+ accettaSfida()</text>
<text text-anchor="start" x="313" y="-189.5" font-family="Helvetica,sans-Serif" font-size="10.00">+ getK()</text>
<text text-anchor="start" x="313" y="-178.5" font-family="Helvetica,sans-Serif" font-size="10.00">+ getZ()</text>
<text text-anchor="start" x="313" y="-167.5" font-family="Helvetica,sans-Serif" font-size="10.00">+ getY()</text>
<text text-anchor="start" x="313" y="-156.5" font-family="Helvetica,sans-Serif" font-size="10.00">+ getX()</text>
<text text-anchor="start" x="313" y="-145.5" font-family="Helvetica,sans-Serif" font-size="10.00">+ getT1()</text>
<text text-anchor="start" x="313" y="-134.5" font-family="Helvetica,sans-Serif" font-size="10.00">+ getT2()</text>
</a>
</g>
</g>
<!-- Node4&#45;&gt;Node5 -->
<g id="edge8" class="edge"><title>Node4&#45;&gt;Node5</title>
<path fill="none" stroke="#404040" d="M240.838,-474.12C255.372,-453.166 276.4,-422.85 297.903,-391.849"/>
<polygon fill="none" stroke="#404040" points="298.054,-391.631 298.187,-384.421 304.893,-381.771 304.76,-388.98 298.054,-391.631"/>
<text text-anchor="middle" x="295" y="-426" font-family="Helvetica,sans-Serif" font-size="10.00"> &#45;selector</text>
</g>
<!-- Node5&#45;&gt;Node1 -->
<g id="edge4" class="edge"><title>Node5&#45;&gt;Node1</title>
<path fill="none" stroke="#404040" d="M304.867,-169.18C292.275,-154.82 279.211,-140.36 266.5,-127 254.204,-114.077 240.44,-100.602 227.413,-88.2565"/>
<polygon fill="none" stroke="#404040" points="227.281,-88.1321 220.17,-86.9355 218.539,-79.9111 225.65,-81.1078 227.281,-88.1321"/>
<text text-anchor="middle" x="257" y="-101" font-family="Helvetica,sans-Serif" font-size="10.00"> &#45;wq</text>
</g>
<!-- Node6 -->
<g id="node6" class="node"><title>Node6</title>
<g id="a_node6"><a xlink:title=" ">
<polygon fill="white" stroke="#bfbfbf" points="266,-474.5 266,-531.5 355,-531.5 355,-474.5 266,-474.5"/>
<text text-anchor="middle" x="310.5" y="-519.5" font-family="Helvetica,sans-Serif" font-size="10.00">DatagramSocket</text>
<polyline fill="none" stroke="#bfbfbf" points="266,-512.5 355,-512.5 "/>
<text text-anchor="middle" x="310.5" y="-500.5" font-family="Helvetica,sans-Serif" font-size="10.00"> </text>
<polyline fill="none" stroke="#bfbfbf" points="266,-493.5 355,-493.5 "/>
<text text-anchor="middle" x="310.5" y="-481.5" font-family="Helvetica,sans-Serif" font-size="10.00"> </text>
</a>
</g>
</g>
<!-- Node6&#45;&gt;Node5 -->
<g id="edge5" class="edge"><title>Node6&#45;&gt;Node5</title>
<path fill="none" stroke="#404040" d="M319.279,-474.12C324.121,-458.745 330.549,-438.33 337.485,-416.303"/>
<polygon fill="none" stroke="#404040" points="337.549,-416.101 335.536,-409.177 341.153,-404.655 343.166,-411.58 337.549,-416.101"/>
<text text-anchor="middle" x="352.5" y="-426" font-family="Helvetica,sans-Serif" font-size="10.00"> &#45;socket</text>
</g>
<!-- Node7 -->
<g id="node7" class="node"><title>Node7</title>
<g id="a_node7"><a xlink:title=" ">
<polygon fill="white" stroke="#bfbfbf" points="373,-469 373,-537 508,-537 508,-469 373,-469"/>
<text text-anchor="start" x="381" y="-525" font-family="Helvetica,sans-Serif" font-size="10.00">Map&lt; String, WordQuizzle.</text>
<text text-anchor="middle" x="440.5" y="-514" font-family="Helvetica,sans-Serif" font-size="10.00">Session &gt;</text>
<polyline fill="none" stroke="#bfbfbf" points="373,-507 508,-507 "/>
<text text-anchor="middle" x="440.5" y="-495" font-family="Helvetica,sans-Serif" font-size="10.00"> </text>
<polyline fill="none" stroke="#bfbfbf" points="373,-488 508,-488 "/>
<text text-anchor="middle" x="440.5" y="-476" font-family="Helvetica,sans-Serif" font-size="10.00"> </text>
</a>
</g>
</g>
<!-- Node7&#45;&gt;Node5 -->
<g id="edge6" class="edge"><title>Node7&#45;&gt;Node5</title>
<path fill="none" stroke="#404040" d="M432.595,-468.829C429.105,-454.181 424.733,-435.837 420.058,-416.218"/>
<polygon fill="none" stroke="#404040" points="420.057,-416.211 414.775,-411.302 417.275,-404.538 422.557,-409.447 420.057,-416.211"/>
<text text-anchor="middle" x="440" y="-426" font-family="Helvetica,sans-Serif" font-size="10.00"> &#45;users</text>
</g>
<!-- Node8 -->
<g id="node8" class="node"><title>Node8</title>
<g id="a_node8"><a xlink:title=" ">
<polygon fill="white" stroke="#bfbfbf" points="503,-612.5 503,-669.5 538,-669.5 538,-612.5 503,-612.5"/>
<text text-anchor="middle" x="520.5" y="-657.5" font-family="Helvetica,sans-Serif" font-size="10.00">Map</text>
<polyline fill="none" stroke="#bfbfbf" points="503,-650.5 538,-650.5 "/>
<text text-anchor="middle" x="520.5" y="-638.5" font-family="Helvetica,sans-Serif" font-size="10.00"> </text>
<polyline fill="none" stroke="#bfbfbf" points="503,-631.5 538,-631.5 "/>
<text text-anchor="middle" x="520.5" y="-619.5" font-family="Helvetica,sans-Serif" font-size="10.00"> </text>
</a>
</g>
</g>
<!-- Node8&#45;&gt;Node7 -->
<g id="edge7" class="edge"><title>Node8&#45;&gt;Node7</title>
<path fill="none" stroke="orange" d="M493.843,-627.565C480.22,-619.827 464.629,-608.56 455.5,-594 444.982,-577.224 441.159,-555.373 440.001,-537.403"/>
<polygon fill="orange" stroke="orange" points="492.384,-630.753 502.857,-632.356 495.669,-624.572 492.384,-630.753"/>
<text text-anchor="start" x="455.5" y="-586" font-family="Helvetica,sans-Serif" font-size="10.00"> &lt; String, WordQuizzle</text>
<text text-anchor="middle" x="505.5" y="-575" font-family="Helvetica,sans-Serif" font-size="10.00">::Session &gt;</text>
</g>
<!-- Node10 -->
<g id="node10" class="node"><title>Node10</title>
<g id="a_node10"><a xlink:title=" ">
<polygon fill="white" stroke="#bfbfbf" points="526,-469 526,-537 661,-537 661,-469 526,-469"/>
<text text-anchor="start" x="534" y="-525" font-family="Helvetica,sans-Serif" font-size="10.00">Map&lt; String, WordQuizzle.</text>
<text text-anchor="middle" x="593.5" y="-514" font-family="Helvetica,sans-Serif" font-size="10.00">Challenge &gt;</text>
<polyline fill="none" stroke="#bfbfbf" points="526,-507 661,-507 "/>
<text text-anchor="middle" x="593.5" y="-495" font-family="Helvetica,sans-Serif" font-size="10.00"> </text>
<polyline fill="none" stroke="#bfbfbf" points="526,-488 661,-488 "/>
<text text-anchor="middle" x="593.5" y="-476" font-family="Helvetica,sans-Serif" font-size="10.00"> </text>
</a>
</g>
</g>
<!-- Node8&#45;&gt;Node10 -->
<g id="edge11" class="edge"><title>Node8&#45;&gt;Node10</title>
<path fill="none" stroke="orange" d="M544.967,-614.255C550.205,-607.938 555.391,-600.978 559.5,-594 569.925,-576.297 578.181,-554.829 583.946,-537.301"/>
<polygon fill="orange" stroke="orange" points="542.28,-612.012 538.384,-621.864 547.573,-616.592 542.28,-612.012"/>
<text text-anchor="start" x="569.5" y="-586" font-family="Helvetica,sans-Serif" font-size="10.00"> &lt; String, WordQuizzle</text>
<text text-anchor="middle" x="619.5" y="-575" font-family="Helvetica,sans-Serif" font-size="10.00">::Challenge &gt;</text>
</g>
<!-- Node9 -->
<g id="node9" class="node"><title>Node9</title>
<g id="a_node9"><a xlink:href="interface_word_quizzle_1_1_data_base.html" target="_top" xlink:title="Database che gestisce gli utenti.">
<polygon fill="white" stroke="black" points="679,-452.5 679,-553.5 798,-553.5 798,-452.5 679,-452.5"/>
<text text-anchor="middle" x="738.5" y="-541.5" font-family="Helvetica,sans-Serif" font-size="10.00">WordQuizzle.DataBase</text>
<polyline fill="none" stroke="black" points="679,-534.5 798,-534.5 "/>
<text text-anchor="middle" x="738.5" y="-522.5" font-family="Helvetica,sans-Serif" font-size="10.00"> </text>
<polyline fill="none" stroke="black" points="679,-515.5 798,-515.5 "/>
<text text-anchor="start" x="687" y="-503.5" font-family="Helvetica,sans-Serif" font-size="10.00">+ checkUser()</text>
<text text-anchor="start" x="687" y="-492.5" font-family="Helvetica,sans-Serif" font-size="10.00">+ getUser()</text>
<text text-anchor="start" x="687" y="-481.5" font-family="Helvetica,sans-Serif" font-size="10.00">+ newUser()</text>
<text text-anchor="start" x="687" y="-470.5" font-family="Helvetica,sans-Serif" font-size="10.00">+ modifyScore()</text>
<text text-anchor="start" x="687" y="-459.5" font-family="Helvetica,sans-Serif" font-size="10.00">+ link()</text>
</a>
</g>
</g>
<!-- Node9&#45;&gt;Node5 -->
<g id="edge9" class="edge"><title>Node9&#45;&gt;Node5</title>
<path fill="none" stroke="#404040" d="M678.941,-457.896C676.098,-455.888 673.274,-453.914 670.5,-452 605.897,-407.414 531.397,-359.327 474.632,-323.356"/>
<polygon fill="none" stroke="#404040" points="474.386,-323.201 467.177,-323.373 464.245,-316.784 471.455,-316.612 474.386,-323.201"/>
<text text-anchor="middle" x="648" y="-426" font-family="Helvetica,sans-Serif" font-size="10.00"> &#45;db</text>
</g>
<!-- Node10&#45;&gt;Node5 -->
<g id="edge10" class="edge"><title>Node10&#45;&gt;Node5</title>
<path fill="none" stroke="#404040" d="M563.999,-468.829C540.089,-441.944 505.107,-402.611 472.363,-365.793"/>
<polygon fill="none" stroke="#404040" points="472.069,-365.463 465.093,-363.638 464.094,-356.496 471.071,-358.321 472.069,-365.463"/>
<text text-anchor="middle" x="558" y="-426" font-family="Helvetica,sans-Serif" font-size="10.00"> &#45;challenges</text>
</g>
</g>
</svg>
        <g id="navigator" transform="translate(0 0)" fill="#404254">
                <rect fill="#f2f5e9" fill-opacity="0.5" stroke="#606060" stroke-width=".5" x="0" y="0" width="60" height="60"/>
                <use id="zoomplus" xlink:href="#zoomPlus" x="17" y="9" onmousedown="handleZoom(evt,'in')"/>
                <use id="zoomminus" xlink:href="#zoomMin" x="42" y="9" onmousedown="handleZoom(evt,'out')"/>
                <use id="reset" xlink:href="#resetDef" x="30" y="36" onmousedown="handleReset()"/>
                <g id="arrowUp" xlink:href="#dirArrow" transform="translate(30 24)" onmousedown="handlePan(0,-1)">
                  <use xlink:href="#rim" fill="#404040">
                        <set attributeName="fill" to="#808080" begin="arrowUp.mouseover" end="arrowUp.mouseout"/>
                  </use>
                  <path fill="none" stroke="white" stroke-width="1.5" d="M0,-3.0v7 M-2.5,-0.5L0,-3.0L2.5,-0.5"/>
                </g>
                <g id="arrowRight" xlink:href="#dirArrow" transform="rotate(90) translate(36 -43)" onmousedown="handlePan(1,0)">
                  <use xlink:href="#rim" fill="#404040">
                        <set attributeName="fill" to="#808080" begin="arrowRight.mouseover" end="arrowRight.mouseout"/>
                  </use>
                  <path fill="none" stroke="white" stroke-width="1.5" d="M0,-3.0v7 M-2.5,-0.5L0,-3.0L2.5,-0.5"/>
                </g>
                <g id="arrowDown" xlink:href="#dirArrow" transform="rotate(180) translate(-30 -48)" onmousedown="handlePan(0,1)">
                  <use xlink:href="#rim" fill="#404040">
                        <set attributeName="fill" to="#808080" begin="arrowDown.mouseover" end="arrowDown.mouseout"/>
                  </use>
                  <path fill="none" stroke="white" stroke-width="1.5" d="M0,-3.0v7 M-2.5,-0.5L0,-3.0L2.5,-0.5"/>
                </g>
                <g id="arrowLeft" xlink:href="#dirArrow" transform="rotate(270) translate(-36 17)" onmousedown="handlePan(-1,0)">
                  <use xlink:href="#rim" fill="#404040">
                        <set attributeName="fill" to="#808080" begin="arrowLeft.mouseover" end="arrowLeft.mouseout"/>
                  </use>
                  <path fill="none" stroke="white" stroke-width="1.5" d="M0,-3.0v7 M-2.5,-0.5L0,-3.0L2.5,-0.5"/>
                </g>
        </g>
        <svg viewBox="0 0 15 15" width="100%" height="30px" preserveAspectRatio="xMaxYMin meet">
         <g id="arrow_out" transform="scale(0.3 0.3)">
          <a xlink:href="class_word_quizzle_1_1_word_quizzle_server__coll__graph_org.svg" target="_base">
           <rect id="button" ry="5" rx="5" y="6" x="6" height="38" width="38"
                fill="#f2f5e9" fill-opacity="0.5" stroke="#606060" stroke-width="1.0"/>
           <path id="arrow"
             d="M 11.500037,31.436501 C 11.940474,20.09759 22.043105,11.32322 32.158766,21.979434 L 37.068811,17.246167 C 37.068811,17.246167 37.088388,32 37.088388,32 L 22.160133,31.978069 C 22.160133,31.978069 26.997745,27.140456 26.997745,27.140456 C 18.528582,18.264221 13.291696,25.230495 11.500037,31.436501 z"
             style="fill:#404040;"/>
          </a>
         </g>
        </svg>
</svg>
