<?xml version="1.0" encoding="UTF-8" standalone="no"?>
<!DOCTYPE svg PUBLIC "-//W3C//DTD SVG 1.1//EN"
 "http://www.w3.org/Graphics/SVG/1.1/DTD/svg11.dtd">
<!-- Generated by graphviz version 2.38.0 (20140413.2041)
 -->
<!-- Title: WordQuizzleServer Pages: 1 -->
<svg width="721pt" height="623pt"
 viewBox="0.00 0.00 720.50 623.00" xmlns="http://www.w3.org/2000/svg" xmlns:xlink="http://www.w3.org/1999/xlink">
<g id="graph0" class="graph" transform="scale(1 1) rotate(0) translate(4 619)">
<title>WordQuizzleServer</title>
<polygon fill="white" stroke="none" points="-4,4 -4,-619 716.5,-619 716.5,4 -4,4"/>
<!-- Node1 -->
<g id="node1" class="node"><title>Node1</title>
<g id="a_node1"><a xlink:title=" ">
<polygon fill="#bfbfbf" stroke="black" points="501,-0.5 501,-79.5 616,-79.5 616,-0.5 501,-0.5"/>
<text text-anchor="middle" x="558.5" y="-67.5" font-family="Helvetica,sans-Serif" font-size="10.00">WordQuizzleServer</text>
<polyline fill="none" stroke="black" points="501,-60.5 616,-60.5 "/>
<text text-anchor="middle" x="558.5" y="-48.5" font-family="Helvetica,sans-Serif" font-size="10.00"> </text>
<polyline fill="none" stroke="black" points="501,-41.5 616,-41.5 "/>
<text text-anchor="start" x="509" y="-29.5" font-family="Helvetica,sans-Serif" font-size="10.00">+ WordQuizzleServer()</text>
<text text-anchor="start" x="509" y="-18.5" font-family="Helvetica,sans-Serif" font-size="10.00">+ run()</text>
<text text-anchor="start" x="509" y="-7.5" font-family="Helvetica,sans-Serif" font-size="10.00">+ main()</text>
</a>
</g>
</g>
<!-- Node2 -->
<g id="node2" class="node"><title>Node2</title>
<g id="a_node2"><a xlink:href="class_word_quizzle_server_service.html" target="_top" xlink:title=" ">
<polygon fill="white" stroke="black" points="339.5,-127.5 339.5,-327.5 485.5,-327.5 485.5,-127.5 339.5,-127.5"/>
<text text-anchor="middle" x="412.5" y="-315.5" font-family="Helvetica,sans-Serif" font-size="10.00">WordQuizzleServerService</text>
<polyline fill="none" stroke="black" points="339.5,-308.5 485.5,-308.5 "/>
<text text-anchor="start" x="347.5" y="-296.5" font-family="Helvetica,sans-Serif" font-size="10.00">&#45; K</text>
<text text-anchor="start" x="347.5" y="-285.5" font-family="Helvetica,sans-Serif" font-size="10.00">&#45; T1</text>
<text text-anchor="start" x="347.5" y="-274.5" font-family="Helvetica,sans-Serif" font-size="10.00">&#45; T2</text>
<text text-anchor="start" x="347.5" y="-263.5" font-family="Helvetica,sans-Serif" font-size="10.00">&#45; X</text>
<text text-anchor="start" x="347.5" y="-252.5" font-family="Helvetica,sans-Serif" font-size="10.00">&#45; Y</text>
<text text-anchor="start" x="347.5" y="-241.5" font-family="Helvetica,sans-Serif" font-size="10.00">&#45; Z</text>
<polyline fill="none" stroke="black" points="339.5,-234.5 485.5,-234.5 "/>
<text text-anchor="start" x="347.5" y="-222.5" font-family="Helvetica,sans-Serif" font-size="10.00">+ WordQuizzleServerService()</text>
<text text-anchor="start" x="347.5" y="-211.5" font-family="Helvetica,sans-Serif" font-size="10.00">+ login()</text>
<text text-anchor="start" x="347.5" y="-200.5" font-family="Helvetica,sans-Serif" font-size="10.00">+ logout()</text>
<text text-anchor="start" x="347.5" y="-189.5" font-family="Helvetica,sans-Serif" font-size="10.00">+ aggiungi_amico()</text>
<text text-anchor="start" x="347.5" y="-178.5" font-family="Helvetica,sans-Serif" font-size="10.00">+ lista_amici()</text>
<text text-anchor="start" x="347.5" y="-167.5" font-family="Helvetica,sans-Serif" font-size="10.00">+ mostra_punteggio()</text>
<text text-anchor="start" x="347.5" y="-156.5" font-family="Helvetica,sans-Serif" font-size="10.00">+ mostra_classifica()</text>
<text text-anchor="start" x="347.5" y="-145.5" font-family="Helvetica,sans-Serif" font-size="10.00">+ sfida()</text>
<text text-anchor="start" x="347.5" y="-134.5" font-family="Helvetica,sans-Serif" font-size="10.00">+ accettaSfida()</text>
</a>
</g>
</g>
<!-- Node2&#45;&gt;Node1 -->
<g id="edge1" class="edge"><title>Node2&#45;&gt;Node1</title>
<path fill="none" stroke="#404040" d="M485.714,-133.478C497.737,-118.202 509.752,-102.936 520.456,-89.3373"/>
<polygon fill="none" stroke="#404040" points="520.577,-89.1833 521.144,-81.9946 527.998,-79.7536 527.431,-86.9424 520.577,-89.1833"/>
<text text-anchor="middle" x="521" y="-101" font-family="Helvetica,sans-Serif" font-size="10.00"> &#45;wq</text>
</g>
<!-- Node3 -->
<g id="node3" class="node"><title>Node3</title>
<g id="a_node3"><a xlink:href="interface_word_quizzle_service.html" target="_top" xlink:title=" ">
<polygon fill="white" stroke="black" points="0,-375.5 0,-509.5 109,-509.5 109,-375.5 0,-375.5"/>
<text text-anchor="middle" x="54.5" y="-497.5" font-family="Helvetica,sans-Serif" font-size="10.00">WordQuizzleService</text>
<polyline fill="none" stroke="black" points="0,-490.5 109,-490.5 "/>
<text text-anchor="middle" x="54.5" y="-478.5" font-family="Helvetica,sans-Serif" font-size="10.00"> </text>
<polyline fill="none" stroke="black" points="0,-471.5 109,-471.5 "/>
<text text-anchor="start" x="8" y="-459.5" font-family="Helvetica,sans-Serif" font-size="10.00">+ login()</text>
<text text-anchor="start" x="8" y="-448.5" font-family="Helvetica,sans-Serif" font-size="10.00">+ logout()</text>
<text text-anchor="start" x="8" y="-437.5" font-family="Helvetica,sans-Serif" font-size="10.00">+ aggiungi_amico()</text>
<text text-anchor="start" x="8" y="-426.5" font-family="Helvetica,sans-Serif" font-size="10.00">+ sfida()</text>
<text text-anchor="start" x="8" y="-415.5" font-family="Helvetica,sans-Serif" font-size="10.00">+ lista_amici()</text>
<text text-anchor="start" x="8" y="-404.5" font-family="Helvetica,sans-Serif" font-size="10.00">+ mostra_punteggio()</text>
<text text-anchor="start" x="8" y="-393.5" font-family="Helvetica,sans-Serif" font-size="10.00">+ mostra_classifica()</text>
<text text-anchor="start" x="8" y="-382.5" font-family="Helvetica,sans-Serif" font-size="10.00">+ accettaSfida()</text>
</a>
</g>
</g>
<!-- Node3&#45;&gt;Node2 -->
<g id="edge2" class="edge"><title>Node3&#45;&gt;Node2</title>
<path fill="none" stroke="midnightblue" d="M116.973,-375.392C117.148,-375.261 117.324,-375.13 117.5,-375 186.929,-323.665 277.089,-281.92 339.368,-256.311"/>
<polygon fill="none" stroke="midnightblue" points="114.798,-372.65 109.133,-381.603 119.144,-378.136 114.798,-372.65"/>
</g>
<!-- Node4 -->
<g id="node4" class="node"><title>Node4</title>
<g id="a_node4"><a xlink:title=" ">
<polygon fill="white" stroke="#bfbfbf" points="127,-414 127,-471 216,-471 216,-414 127,-414"/>
<text text-anchor="middle" x="171.5" y="-459" font-family="Helvetica,sans-Serif" font-size="10.00">DatagramSocket</text>
<polyline fill="none" stroke="#bfbfbf" points="127,-452 216,-452 "/>
<text text-anchor="middle" x="171.5" y="-440" font-family="Helvetica,sans-Serif" font-size="10.00"> </text>
<polyline fill="none" stroke="#bfbfbf" points="127,-433 216,-433 "/>
<text text-anchor="middle" x="171.5" y="-421" font-family="Helvetica,sans-Serif" font-size="10.00"> </text>
</a>
</g>
</g>
<!-- Node4&#45;&gt;Node2 -->
<g id="edge3" class="edge"><title>Node4&#45;&gt;Node2</title>
<path fill="none" stroke="#404040" d="M191.286,-413.741C200.716,-401.317 212.534,-386.835 224.5,-375 256.497,-343.351 295.24,-312.151 329.222,-286.731"/>
<polygon fill="none" stroke="#404040" points="329.497,-286.527 331.933,-279.74 339.135,-279.377 336.699,-286.165 329.497,-286.527"/>
<text text-anchor="middle" x="271.5" y="-349" font-family="Helvetica,sans-Serif" font-size="10.00"> &#45;socket</text>
</g>
<!-- Node5 -->
<g id="node5" class="node"><title>Node5</title>
<g id="a_node5"><a xlink:title=" ">
<polygon fill="white" stroke="#bfbfbf" points="234,-414 234,-471 401,-471 401,-414 234,-414"/>
<text text-anchor="middle" x="317.5" y="-459" font-family="Helvetica,sans-Serif" font-size="10.00">Map&lt; String, InetSocketAddress &gt;</text>
<polyline fill="none" stroke="#bfbfbf" points="234,-452 401,-452 "/>
<text text-anchor="middle" x="317.5" y="-440" font-family="Helvetica,sans-Serif" font-size="10.00"> </text>
<polyline fill="none" stroke="#bfbfbf" points="234,-433 401,-433 "/>
<text text-anchor="middle" x="317.5" y="-421" font-family="Helvetica,sans-Serif" font-size="10.00"> </text>
</a>
</g>
</g>
<!-- Node5&#45;&gt;Node2 -->
<g id="edge4" class="edge"><title>Node5&#45;&gt;Node2</title>
<path fill="none" stroke="#404040" d="M329.92,-413.654C338.622,-394.142 350.874,-366.671 363.283,-338.85"/>
<polygon fill="none" stroke="#404040" points="363.337,-338.73 362.127,-331.621 368.225,-327.77 369.434,-334.879 363.337,-338.73"/>
<text text-anchor="middle" x="375" y="-349" font-family="Helvetica,sans-Serif" font-size="10.00"> &#45;users</text>
</g>
<!-- Node6 -->
<g id="node6" class="node"><title>Node6</title>
<g id="a_node6"><a xlink:title=" ">
<polygon fill="white" stroke="#bfbfbf" points="300,-557.5 300,-614.5 335,-614.5 335,-557.5 300,-557.5"/>
<text text-anchor="middle" x="317.5" y="-602.5" font-family="Helvetica,sans-Serif" font-size="10.00">Map</text>
<polyline fill="none" stroke="#bfbfbf" points="300,-595.5 335,-595.5 "/>
<text text-anchor="middle" x="317.5" y="-583.5" font-family="Helvetica,sans-Serif" font-size="10.00"> </text>
<polyline fill="none" stroke="#bfbfbf" points="300,-576.5 335,-576.5 "/>
<text text-anchor="middle" x="317.5" y="-564.5" font-family="Helvetica,sans-Serif" font-size="10.00"> </text>
</a>
</g>
</g>
<!-- Node6&#45;&gt;Node5 -->
<g id="edge5" class="edge"><title>Node6&#45;&gt;Node5</title>
<path fill="none" stroke="orange" d="M317.5,-547.213C317.5,-523.234 317.5,-492.749 317.5,-471.049"/>
<polygon fill="orange" stroke="orange" points="314,-547.381 317.5,-557.381 321,-547.382 314,-547.381"/>
<text text-anchor="middle" x="385.5" y="-531" font-family="Helvetica,sans-Serif" font-size="10.00"> &lt; String, InetSocketAddress &gt;</text>
</g>
<!-- Node7 -->
<g id="node7" class="node"><title>Node7</title>
<g id="a_node7"><a xlink:href="interface_data_base.html" target="_top" xlink:title="Database che gestisce gli utenti.">
<polygon fill="white" stroke="black" points="419.5,-392 419.5,-493 505.5,-493 505.5,-392 419.5,-392"/>
<text text-anchor="middle" x="462.5" y="-481" font-family="Helvetica,sans-Serif" font-size="10.00">DataBase</text>
<polyline fill="none" stroke="black" points="419.5,-474 505.5,-474 "/>
<text text-anchor="middle" x="462.5" y="-462" font-family="Helvetica,sans-Serif" font-size="10.00"> </text>
<polyline fill="none" stroke="black" points="419.5,-455 505.5,-455 "/>
<text text-anchor="start" x="427.5" y="-443" font-family="Helvetica,sans-Serif" font-size="10.00">+ checkUser()</text>
<text text-anchor="start" x="427.5" y="-432" font-family="Helvetica,sans-Serif" font-size="10.00">+ getUser()</text>
<text text-anchor="start" x="427.5" y="-421" font-family="Helvetica,sans-Serif" font-size="10.00">+ newUser()</text>
<text text-anchor="start" x="427.5" y="-410" font-family="Helvetica,sans-Serif" font-size="10.00">+ modifyScore()</text>
<text text-anchor="start" x="427.5" y="-399" font-family="Helvetica,sans-Serif" font-size="10.00">+ link()</text>
</a>
</g>
</g>
<!-- Node7&#45;&gt;Node2 -->
<g id="edge6" class="edge"><title>Node7&#45;&gt;Node2</title>
<path fill="none" stroke="#404040" d="M450.84,-391.83C447.13,-376.024 442.865,-357.856 438.559,-339.509"/>
<polygon fill="none" stroke="#404040" points="438.545,-339.45 433.279,-334.523 435.802,-327.768 441.068,-332.695 438.545,-339.45"/>
<text text-anchor="middle" x="451" y="-349" font-family="Helvetica,sans-Serif" font-size="10.00"> &#45;db</text>
</g>
<!-- Node8 -->
<g id="node8" class="node"><title>Node8</title>
<g id="a_node8"><a xlink:href="interface_dictionary.html" target="_top" xlink:title="Interfaccia che definisce un dizionario.">
<polygon fill="white" stroke="black" points="523.5,-397.5 523.5,-487.5 597.5,-487.5 597.5,-397.5 523.5,-397.5"/>
<text text-anchor="middle" x="560.5" y="-475.5" font-family="Helvetica,sans-Serif" font-size="10.00">Dictionary</text>
<polyline fill="none" stroke="black" points="523.5,-468.5 597.5,-468.5 "/>
<text text-anchor="middle" x="560.5" y="-456.5" font-family="Helvetica,sans-Serif" font-size="10.00"> </text>
<polyline fill="none" stroke="black" points="523.5,-449.5 597.5,-449.5 "/>
<text text-anchor="start" x="531.5" y="-437.5" font-family="Helvetica,sans-Serif" font-size="10.00">+ getWord()</text>
<text text-anchor="start" x="531.5" y="-426.5" font-family="Helvetica,sans-Serif" font-size="10.00">+ getWord()</text>
<text text-anchor="start" x="531.5" y="-415.5" font-family="Helvetica,sans-Serif" font-size="10.00">+ getWords()</text>
<text text-anchor="start" x="531.5" y="-404.5" font-family="Helvetica,sans-Serif" font-size="10.00">+ getN()</text>
</a>
</g>
</g>
<!-- Node8&#45;&gt;Node2 -->
<g id="edge7" class="edge"><title>Node8&#45;&gt;Node2</title>
<path fill="none" stroke="#404040" d="M530.084,-397.489C524.889,-389.983 519.542,-382.266 514.5,-375 506.135,-362.946 497.375,-350.34 488.652,-337.798"/>
<polygon fill="none" stroke="#404040" points="488.526,-337.616 481.816,-334.975 481.674,-327.765 488.384,-330.407 488.526,-337.616"/>
<text text-anchor="middle" x="512.5" y="-349" font-family="Helvetica,sans-Serif" font-size="10.00"> &#45;dict</text>
</g>
<!-- Node9 -->
<g id="node9" class="node"><title>Node9</title>
<g id="a_node9"><a xlink:title=" ">
<polygon fill="white" stroke="#bfbfbf" points="615.5,-414 615.5,-471 707.5,-471 707.5,-414 615.5,-414"/>
<text text-anchor="middle" x="661.5" y="-459" font-family="Helvetica,sans-Serif" font-size="10.00">Vector&lt; Integer &gt;</text>
<polyline fill="none" stroke="#bfbfbf" points="615.5,-452 707.5,-452 "/>
<text text-anchor="middle" x="661.5" y="-440" font-family="Helvetica,sans-Serif" font-size="10.00"> </text>
<polyline fill="none" stroke="#bfbfbf" points="615.5,-433 707.5,-433 "/>
<text text-anchor="middle" x="661.5" y="-421" font-family="Helvetica,sans-Serif" font-size="10.00"> </text>
</a>
</g>
</g>
<!-- Node9&#45;&gt;Node2 -->
<g id="edge8" class="edge"><title>Node9&#45;&gt;Node2</title>
<path fill="none" stroke="#404040" d="M643.404,-413.879C633.707,-400.743 620.816,-385.626 606.5,-375 566.032,-344.961 541.262,-358.123 495.774,-328.116"/>
<polygon fill="none" stroke="#404040" points="495.541,-327.951 488.332,-327.755 485.74,-321.026 492.948,-321.221 495.541,-327.951"/>
<text text-anchor="middle" x="598" y="-349" font-family="Helvetica,sans-Serif" font-size="10.00"> &#45;challenges</text>
</g>
<!-- Node10 -->
<g id="node10" class="node"><title>Node10</title>
<g id="a_node10"><a xlink:title=" ">
<polygon fill="white" stroke="#bfbfbf" points="639,-557.5 639,-614.5 684,-614.5 684,-557.5 639,-557.5"/>
<text text-anchor="middle" x="661.5" y="-602.5" font-family="Helvetica,sans-Serif" font-size="10.00">Vector</text>
<polyline fill="none" stroke="#bfbfbf" points="639,-595.5 684,-595.5 "/>
<text text-anchor="middle" x="661.5" y="-583.5" font-family="Helvetica,sans-Serif" font-size="10.00"> </text>
<polyline fill="none" stroke="#bfbfbf" points="639,-576.5 684,-576.5 "/>
<text text-anchor="middle" x="661.5" y="-564.5" font-family="Helvetica,sans-Serif" font-size="10.00"> </text>
</a>
</g>
</g>
<!-- Node10&#45;&gt;Node9 -->
<g id="edge9" class="edge"><title>Node10&#45;&gt;Node9</title>
<path fill="none" stroke="orange" d="M661.5,-547.213C661.5,-523.234 661.5,-492.749 661.5,-471.049"/>
<polygon fill="orange" stroke="orange" points="658,-547.381 661.5,-557.381 665,-547.382 658,-547.381"/>
<text text-anchor="middle" x="687" y="-531" font-family="Helvetica,sans-Serif" font-size="10.00"> &lt; Integer &gt;</text>
</g>
<!-- Node11 -->
<g id="node11" class="node"><title>Node11</title>
<g id="a_node11"><a xlink:title=" ">
<polygon fill="white" stroke="#bfbfbf" points="503.5,-199 503.5,-256 613.5,-256 613.5,-199 503.5,-199"/>
<text text-anchor="middle" x="558.5" y="-244" font-family="Helvetica,sans-Serif" font-size="10.00">ServerSocketChannel</text>
<polyline fill="none" stroke="#bfbfbf" points="503.5,-237 613.5,-237 "/>
<text text-anchor="middle" x="558.5" y="-225" font-family="Helvetica,sans-Serif" font-size="10.00"> </text>
<polyline fill="none" stroke="#bfbfbf" points="503.5,-218 613.5,-218 "/>
<text text-anchor="middle" x="558.5" y="-206" font-family="Helvetica,sans-Serif" font-size="10.00"> </text>
</a>
</g>
</g>
<!-- Node11&#45;&gt;Node1 -->
<g id="edge10" class="edge"><title>Node11&#45;&gt;Node1</title>
<path fill="none" stroke="#404040" d="M558.5,-198.729C558.5,-170.554 558.5,-126.302 558.5,-91.8321"/>
<polygon fill="none" stroke="#404040" points="558.5,-91.6232 554.5,-85.6232 558.5,-79.6232 562.5,-85.6232 558.5,-91.6232"/>
<text text-anchor="middle" x="574.5" y="-101" font-family="Helvetica,sans-Serif" font-size="10.00"> &#45;server</text>
</g>
<!-- Node12 -->
<g id="node12" class="node"><title>Node12</title>
<g id="a_node12"><a xlink:title=" ">
<polygon fill="white" stroke="#bfbfbf" points="632,-199 632,-256 685,-256 685,-199 632,-199"/>
<text text-anchor="middle" x="658.5" y="-244" font-family="Helvetica,sans-Serif" font-size="10.00">Selector</text>
<polyline fill="none" stroke="#bfbfbf" points="632,-237 685,-237 "/>
<text text-anchor="middle" x="658.5" y="-225" font-family="Helvetica,sans-Serif" font-size="10.00"> </text>
<polyline fill="none" stroke="#bfbfbf" points="632,-218 685,-218 "/>
<text text-anchor="middle" x="658.5" y="-206" font-family="Helvetica,sans-Serif" font-size="10.00"> </text>
</a>
</g>
</g>
<!-- Node12&#45;&gt;Node1 -->
<g id="edge11" class="edge"><title>Node12&#45;&gt;Node1</title>
<path fill="none" stroke="#404040" d="M650.923,-198.978C644.718,-178.471 634.943,-150.135 622.5,-127 615.613,-114.195 606.969,-101.196 598.281,-89.3138"/>
<polygon fill="none" stroke="#404040" points="598.214,-89.2233 591.413,-86.8246 591.012,-79.6247 597.812,-82.0234 598.214,-89.2233"/>
<text text-anchor="middle" x="631" y="-101" font-family="Helvetica,sans-Serif" font-size="10.00"> &#45;selector</text>
</g>
</g>
</svg>
