<?xml version="1.0" encoding="UTF-8" standalone="no"?>
<!DOCTYPE svg PUBLIC "-//W3C//DTD SVG 1.1//EN"
 "http://www.w3.org/Graphics/SVG/1.1/DTD/svg11.dtd">
<!-- Generated by graphviz version 2.38.0 (20140413.2041)
 -->
<!-- Title: DataBaseJSON.writeJSON Pages: 1 -->
<svg width="320pt" height="104pt"
 viewBox="0.00 0.00 320.00 104.00" xmlns="http://www.w3.org/2000/svg" xmlns:xlink="http://www.w3.org/1999/xlink">
<g id="graph0" class="graph" transform="scale(1 1) rotate(0) translate(4 100)">
<title>DataBaseJSON.writeJSON</title>
<polygon fill="white" stroke="none" points="-4,4 -4,-100 316,-100 316,4 -4,4"/>
<!-- Node1 -->
<g id="node1" class="node"><title>Node1</title>
<g id="a_node1"><a xlink:title="Fa il commit del database nel file json.">
<polygon fill="#bfbfbf" stroke="black" points="178,-38.5 178,-57.5 312,-57.5 312,-38.5 178,-38.5"/>
<text text-anchor="middle" x="245" y="-45.5" font-family="Helvetica,sans-Serif" font-size="10.00">DataBaseJSON.writeJSON</text>
</a>
</g>
</g>
<!-- Node2 -->
<g id="node2" class="node"><title>Node2</title>
<g id="a_node2"><a xlink:href="class_data_base_j_s_o_n.html#ae9669b5063abf1a0a2e7a5b7481358b9" target="_top" xlink:title="Crea un link (amicizia) non orientato tra due utenti.">
<polygon fill="white" stroke="black" points="19.5,-76.5 19.5,-95.5 122.5,-95.5 122.5,-76.5 19.5,-76.5"/>
<text text-anchor="middle" x="71" y="-83.5" font-family="Helvetica,sans-Serif" font-size="10.00">DataBaseJSON.link</text>
</a>
</g>
</g>
<!-- Node1&#45;&gt;Node2 -->
<g id="edge1" class="edge"><title>Node1&#45;&gt;Node2</title>
<path fill="none" stroke="midnightblue" d="M190.804,-59.7526C166.483,-65.1258 138.045,-71.4086 115.091,-76.4799"/>
<polygon fill="midnightblue" stroke="midnightblue" points="191.588,-63.164 200.597,-57.589 190.078,-56.3288 191.588,-63.164"/>
</g>
<!-- Node3 -->
<g id="node3" class="node"><title>Node3</title>
<g id="a_node3"><a xlink:href="class_data_base_j_s_o_n.html#aa7678d4bad3a666732723f0844253b50" target="_top" xlink:title="Modifica il punteggio (User.score) di un utente.">
<polygon fill="white" stroke="black" points="0,-38.5 0,-57.5 142,-57.5 142,-38.5 0,-38.5"/>
<text text-anchor="middle" x="71" y="-45.5" font-family="Helvetica,sans-Serif" font-size="10.00">DataBaseJSON.modifyScore</text>
</a>
</g>
</g>
<!-- Node1&#45;&gt;Node3 -->
<g id="edge2" class="edge"><title>Node1&#45;&gt;Node3</title>
<path fill="none" stroke="midnightblue" d="M167.976,-48C159.374,-48 150.636,-48 142.114,-48"/>
<polygon fill="midnightblue" stroke="midnightblue" points="167.992,-51.5001 177.992,-48 167.992,-44.5001 167.992,-51.5001"/>
</g>
<!-- Node4 -->
<g id="node4" class="node"><title>Node4</title>
<g id="a_node4"><a xlink:href="class_data_base_j_s_o_n.html#a64a57f48b018b652282cdc153a4605b1" target="_top" xlink:title="Aggiunge un nuovo utente nel database.">
<polygon fill="white" stroke="black" points="8.5,-0.5 8.5,-19.5 133.5,-19.5 133.5,-0.5 8.5,-0.5"/>
<text text-anchor="middle" x="71" y="-7.5" font-family="Helvetica,sans-Serif" font-size="10.00">DataBaseJSON.newUser</text>
</a>
</g>
</g>
<!-- Node1&#45;&gt;Node4 -->
<g id="edge3" class="edge"><title>Node1&#45;&gt;Node4</title>
<path fill="none" stroke="midnightblue" d="M190.804,-36.2474C166.483,-30.8742 138.045,-24.5914 115.091,-19.5201"/>
<polygon fill="midnightblue" stroke="midnightblue" points="190.078,-39.6712 200.597,-38.411 191.588,-32.836 190.078,-39.6712"/>
</g>
</g>
</svg>
