<?xml version="1.0" encoding="UTF-8" standalone="no"?>
<!DOCTYPE svg PUBLIC "-//W3C//DTD SVG 1.1//EN"
 "http://www.w3.org/Graphics/SVG/1.1/DTD/svg11.dtd">
<!-- Generated by graphviz version 2.38.0 (20140413.2041)
 -->
<!-- Title: WordQuizzle.WordQuizzleServerService Pages: 1 -->
<svg width="717pt" height="507pt"
 viewBox="0.00 0.00 717.00 507.00" xmlns="http://www.w3.org/2000/svg" xmlns:xlink="http://www.w3.org/1999/xlink">
<g id="graph0" class="graph" transform="scale(1 1) rotate(0) translate(4 503)">
<title>WordQuizzle.WordQuizzleServerService</title>
<polygon fill="white" stroke="none" points="-4,4 -4,-503 713,-503 713,4 -4,4"/>
<!-- Node1 -->
<g id="node1" class="node"><title>Node1</title>
<g id="a_node1"><a xlink:title=" ">
<polygon fill="#bfbfbf" stroke="black" points="293.5,-0.5 293.5,-211.5 452.5,-211.5 452.5,-0.5 293.5,-0.5"/>
<text text-anchor="start" x="301.5" y="-199.5" font-family="Helvetica,sans-Serif" font-size="10.00">WordQuizzle.WordQuizzleServer</text>
<text text-anchor="middle" x="373" y="-188.5" font-family="Helvetica,sans-Serif" font-size="10.00">Service</text>
<polyline fill="none" stroke="black" points="293.5,-181.5 452.5,-181.5 "/>
<text text-anchor="start" x="301.5" y="-169.5" font-family="Helvetica,sans-Serif" font-size="10.00">&#45; K</text>
<text text-anchor="start" x="301.5" y="-158.5" font-family="Helvetica,sans-Serif" font-size="10.00">&#45; T1</text>
<text text-anchor="start" x="301.5" y="-147.5" font-family="Helvetica,sans-Serif" font-size="10.00">&#45; T2</text>
<text text-anchor="start" x="301.5" y="-136.5" font-family="Helvetica,sans-Serif" font-size="10.00">&#45; X</text>
<text text-anchor="start" x="301.5" y="-125.5" font-family="Helvetica,sans-Serif" font-size="10.00">&#45; Y</text>
<text text-anchor="start" x="301.5" y="-114.5" font-family="Helvetica,sans-Serif" font-size="10.00">&#45; Z</text>
<polyline fill="none" stroke="black" points="293.5,-107.5 452.5,-107.5 "/>
<text text-anchor="start" x="301.5" y="-95.5" font-family="Helvetica,sans-Serif" font-size="10.00">+ WordQuizzleServerService()</text>
<text text-anchor="start" x="301.5" y="-84.5" font-family="Helvetica,sans-Serif" font-size="10.00">+ login()</text>
<text text-anchor="start" x="301.5" y="-73.5" font-family="Helvetica,sans-Serif" font-size="10.00">+ logout()</text>
<text text-anchor="start" x="301.5" y="-62.5" font-family="Helvetica,sans-Serif" font-size="10.00">+ aggiungi_amico()</text>
<text text-anchor="start" x="301.5" y="-51.5" font-family="Helvetica,sans-Serif" font-size="10.00">+ lista_amici()</text>
<text text-anchor="start" x="301.5" y="-40.5" font-family="Helvetica,sans-Serif" font-size="10.00">+ mostra_punteggio()</text>
<text text-anchor="start" x="301.5" y="-29.5" font-family="Helvetica,sans-Serif" font-size="10.00">+ mostra_classifica()</text>
<text text-anchor="start" x="301.5" y="-18.5" font-family="Helvetica,sans-Serif" font-size="10.00">+ sfida()</text>
<text text-anchor="start" x="301.5" y="-7.5" font-family="Helvetica,sans-Serif" font-size="10.00">+ accettaSfida()</text>
</a>
</g>
</g>
<!-- Node2 -->
<g id="node2" class="node"><title>Node2</title>
<g id="a_node2"><a xlink:href="interface_word_quizzle_1_1_word_quizzle_service.html" target="_top" xlink:title=" ">
<polygon fill="white" stroke="black" points="0,-259.5 0,-393.5 164,-393.5 164,-259.5 0,-259.5"/>
<text text-anchor="middle" x="82" y="-381.5" font-family="Helvetica,sans-Serif" font-size="10.00">WordQuizzle.WordQuizzleService</text>
<polyline fill="none" stroke="black" points="0,-374.5 164,-374.5 "/>
<text text-anchor="middle" x="82" y="-362.5" font-family="Helvetica,sans-Serif" font-size="10.00"> </text>
<polyline fill="none" stroke="black" points="0,-355.5 164,-355.5 "/>
<text text-anchor="start" x="8" y="-343.5" font-family="Helvetica,sans-Serif" font-size="10.00">+ login()</text>
<text text-anchor="start" x="8" y="-332.5" font-family="Helvetica,sans-Serif" font-size="10.00">+ logout()</text>
<text text-anchor="start" x="8" y="-321.5" font-family="Helvetica,sans-Serif" font-size="10.00">+ aggiungi_amico()</text>
<text text-anchor="start" x="8" y="-310.5" font-family="Helvetica,sans-Serif" font-size="10.00">+ sfida()</text>
<text text-anchor="start" x="8" y="-299.5" font-family="Helvetica,sans-Serif" font-size="10.00">+ lista_amici()</text>
<text text-anchor="start" x="8" y="-288.5" font-family="Helvetica,sans-Serif" font-size="10.00">+ mostra_punteggio()</text>
<text text-anchor="start" x="8" y="-277.5" font-family="Helvetica,sans-Serif" font-size="10.00">+ mostra_classifica()</text>
<text text-anchor="start" x="8" y="-266.5" font-family="Helvetica,sans-Serif" font-size="10.00">+ accettaSfida()</text>
</a>
</g>
</g>
<!-- Node2&#45;&gt;Node1 -->
<g id="edge1" class="edge"><title>Node2&#45;&gt;Node1</title>
<path fill="none" stroke="midnightblue" d="M172.394,-257.627C211.148,-228.528 256.023,-194.834 293.49,-166.701"/>
<polygon fill="none" stroke="midnightblue" points="170.117,-254.96 164.222,-263.763 174.32,-260.557 170.117,-254.96"/>
</g>
<!-- Node3 -->
<g id="node3" class="node"><title>Node3</title>
<g id="a_node3"><a xlink:title=" ">
<polygon fill="white" stroke="#bfbfbf" points="182.5,-298 182.5,-355 271.5,-355 271.5,-298 182.5,-298"/>
<text text-anchor="middle" x="227" y="-343" font-family="Helvetica,sans-Serif" font-size="10.00">DatagramSocket</text>
<polyline fill="none" stroke="#bfbfbf" points="182.5,-336 271.5,-336 "/>
<text text-anchor="middle" x="227" y="-324" font-family="Helvetica,sans-Serif" font-size="10.00"> </text>
<polyline fill="none" stroke="#bfbfbf" points="182.5,-317 271.5,-317 "/>
<text text-anchor="middle" x="227" y="-305" font-family="Helvetica,sans-Serif" font-size="10.00"> </text>
</a>
</g>
</g>
<!-- Node3&#45;&gt;Node1 -->
<g id="edge2" class="edge"><title>Node3&#45;&gt;Node1</title>
<path fill="none" stroke="#404040" d="M245.491,-297.827C258.67,-278.104 277.355,-250.14 296.369,-221.684"/>
<polygon fill="none" stroke="#404040" points="296.433,-221.588 296.441,-214.377 303.1,-211.61 303.093,-218.821 296.433,-221.588"/>
<text text-anchor="middle" x="305" y="-233" font-family="Helvetica,sans-Serif" font-size="10.00"> &#45;socket</text>
</g>
<!-- Node4 -->
<g id="node4" class="node"><title>Node4</title>
<g id="a_node4"><a xlink:title=" ">
<polygon fill="white" stroke="#bfbfbf" points="289.5,-298 289.5,-355 456.5,-355 456.5,-298 289.5,-298"/>
<text text-anchor="middle" x="373" y="-343" font-family="Helvetica,sans-Serif" font-size="10.00">Map&lt; String, InetSocketAddress &gt;</text>
<polyline fill="none" stroke="#bfbfbf" points="289.5,-336 456.5,-336 "/>
<text text-anchor="middle" x="373" y="-324" font-family="Helvetica,sans-Serif" font-size="10.00"> </text>
<polyline fill="none" stroke="#bfbfbf" points="289.5,-317 456.5,-317 "/>
<text text-anchor="middle" x="373" y="-305" font-family="Helvetica,sans-Serif" font-size="10.00"> </text>
</a>
</g>
</g>
<!-- Node4&#45;&gt;Node1 -->
<g id="edge3" class="edge"><title>Node4&#45;&gt;Node1</title>
<path fill="none" stroke="#404040" d="M373,-297.827C373,-278.621 373,-251.6 373,-223.919"/>
<polygon fill="none" stroke="#404040" points="373,-223.61 369,-217.61 373,-211.61 377,-217.61 373,-223.61"/>
<text text-anchor="middle" x="388.5" y="-233" font-family="Helvetica,sans-Serif" font-size="10.00"> &#45;users</text>
</g>
<!-- Node5 -->
<g id="node5" class="node"><title>Node5</title>
<g id="a_node5"><a xlink:title=" ">
<polygon fill="white" stroke="#bfbfbf" points="355.5,-441.5 355.5,-498.5 390.5,-498.5 390.5,-441.5 355.5,-441.5"/>
<text text-anchor="middle" x="373" y="-486.5" font-family="Helvetica,sans-Serif" font-size="10.00">Map</text>
<polyline fill="none" stroke="#bfbfbf" points="355.5,-479.5 390.5,-479.5 "/>
<text text-anchor="middle" x="373" y="-467.5" font-family="Helvetica,sans-Serif" font-size="10.00"> </text>
<polyline fill="none" stroke="#bfbfbf" points="355.5,-460.5 390.5,-460.5 "/>
<text text-anchor="middle" x="373" y="-448.5" font-family="Helvetica,sans-Serif" font-size="10.00"> </text>
</a>
</g>
</g>
<!-- Node5&#45;&gt;Node4 -->
<g id="edge4" class="edge"><title>Node5&#45;&gt;Node4</title>
<path fill="none" stroke="orange" d="M373,-431.213C373,-407.234 373,-376.749 373,-355.049"/>
<polygon fill="orange" stroke="orange" points="369.5,-431.381 373,-441.381 376.5,-431.382 369.5,-431.381"/>
<text text-anchor="middle" x="441" y="-415" font-family="Helvetica,sans-Serif" font-size="10.00"> &lt; String, InetSocketAddress &gt;</text>
</g>
<!-- Node6 -->
<g id="node6" class="node"><title>Node6</title>
<g id="a_node6"><a xlink:href="interface_word_quizzle_1_1_data_base.html" target="_top" xlink:title="Database che gestisce gli utenti.">
<polygon fill="white" stroke="black" points="474.5,-276 474.5,-377 593.5,-377 593.5,-276 474.5,-276"/>
<text text-anchor="middle" x="534" y="-365" font-family="Helvetica,sans-Serif" font-size="10.00">WordQuizzle.DataBase</text>
<polyline fill="none" stroke="black" points="474.5,-358 593.5,-358 "/>
<text text-anchor="middle" x="534" y="-346" font-family="Helvetica,sans-Serif" font-size="10.00"> </text>
<polyline fill="none" stroke="black" points="474.5,-339 593.5,-339 "/>
<text text-anchor="start" x="482.5" y="-327" font-family="Helvetica,sans-Serif" font-size="10.00">+ checkUser()</text>
<text text-anchor="start" x="482.5" y="-316" font-family="Helvetica,sans-Serif" font-size="10.00">+ getUser()</text>
<text text-anchor="start" x="482.5" y="-305" font-family="Helvetica,sans-Serif" font-size="10.00">+ newUser()</text>
<text text-anchor="start" x="482.5" y="-294" font-family="Helvetica,sans-Serif" font-size="10.00">+ modifyScore()</text>
<text text-anchor="start" x="482.5" y="-283" font-family="Helvetica,sans-Serif" font-size="10.00">+ link()</text>
</a>
</g>
</g>
<!-- Node6&#45;&gt;Node1 -->
<g id="edge5" class="edge"><title>Node6&#45;&gt;Node1</title>
<path fill="none" stroke="#404040" d="M497.467,-275.919C485.403,-259.547 471.438,-240.595 457.317,-221.431"/>
<polygon fill="none" stroke="#404040" points="457.273,-221.371 450.494,-218.913 450.155,-211.71 456.934,-214.168 457.273,-221.371"/>
<text text-anchor="middle" x="476.5" y="-233" font-family="Helvetica,sans-Serif" font-size="10.00"> &#45;db</text>
</g>
<!-- Node7 -->
<g id="node7" class="node"><title>Node7</title>
<g id="a_node7"><a xlink:title=" ">
<polygon fill="white" stroke="#bfbfbf" points="612,-298 612,-355 704,-355 704,-298 612,-298"/>
<text text-anchor="middle" x="658" y="-343" font-family="Helvetica,sans-Serif" font-size="10.00">Vector&lt; Integer &gt;</text>
<polyline fill="none" stroke="#bfbfbf" points="612,-336 704,-336 "/>
<text text-anchor="middle" x="658" y="-324" font-family="Helvetica,sans-Serif" font-size="10.00"> </text>
<polyline fill="none" stroke="#bfbfbf" points="612,-317 704,-317 "/>
<text text-anchor="middle" x="658" y="-305" font-family="Helvetica,sans-Serif" font-size="10.00"> </text>
</a>
</g>
</g>
<!-- Node7&#45;&gt;Node1 -->
<g id="edge6" class="edge"><title>Node7&#45;&gt;Node1</title>
<path fill="none" stroke="#404040" d="M637.537,-297.718C627.568,-285.148 614.952,-270.555 602,-259 559.558,-221.137 506.994,-185.58 462.935,-158.391"/>
<polygon fill="none" stroke="#404040" points="462.749,-158.277 455.543,-158.559 452.512,-152.016 459.717,-151.734 462.749,-158.277"/>
<text text-anchor="middle" x="606.5" y="-233" font-family="Helvetica,sans-Serif" font-size="10.00"> &#45;challenges</text>
</g>
<!-- Node8 -->
<g id="node8" class="node"><title>Node8</title>
<g id="a_node8"><a xlink:title=" ">
<polygon fill="white" stroke="#bfbfbf" points="635.5,-441.5 635.5,-498.5 680.5,-498.5 680.5,-441.5 635.5,-441.5"/>
<text text-anchor="middle" x="658" y="-486.5" font-family="Helvetica,sans-Serif" font-size="10.00">Vector</text>
<polyline fill="none" stroke="#bfbfbf" points="635.5,-479.5 680.5,-479.5 "/>
<text text-anchor="middle" x="658" y="-467.5" font-family="Helvetica,sans-Serif" font-size="10.00"> </text>
<polyline fill="none" stroke="#bfbfbf" points="635.5,-460.5 680.5,-460.5 "/>
<text text-anchor="middle" x="658" y="-448.5" font-family="Helvetica,sans-Serif" font-size="10.00"> </text>
</a>
</g>
</g>
<!-- Node8&#45;&gt;Node7 -->
<g id="edge7" class="edge"><title>Node8&#45;&gt;Node7</title>
<path fill="none" stroke="orange" d="M658,-431.213C658,-407.234 658,-376.749 658,-355.049"/>
<polygon fill="orange" stroke="orange" points="654.5,-431.381 658,-441.381 661.5,-431.382 654.5,-431.381"/>
<text text-anchor="middle" x="683.5" y="-415" font-family="Helvetica,sans-Serif" font-size="10.00"> &lt; Integer &gt;</text>
</g>
</g>
</svg>
