<?xml version="1.0" encoding="UTF-8" standalone="no"?>
<!DOCTYPE svg PUBLIC "-//W3C//DTD SVG 1.1//EN"
 "http://www.w3.org/Graphics/SVG/1.1/DTD/svg11.dtd">
<!-- Generated by graphviz version 2.38.0 (20140413.2041)
 -->
<!-- Title: WQGui.makeLogin Pages: 1 -->
<svg width="453pt" height="116pt"
 viewBox="0.00 0.00 453.00 115.50" xmlns="http://www.w3.org/2000/svg" xmlns:xlink="http://www.w3.org/1999/xlink">
<g id="graph0" class="graph" transform="scale(1 1) rotate(0) translate(4 111.5)">
<title>WQGui.makeLogin</title>
<polygon fill="white" stroke="none" points="-4,4 -4,-111.5 449,-111.5 449,4 -4,4"/>
<!-- Node1 -->
<g id="node1" class="node"><title>Node1</title>
<g id="a_node1"><a xlink:title="Crea la finestra di login e registrazione.">
<polygon fill="#bfbfbf" stroke="black" points="0,-50 0,-69 99,-69 99,-50 0,-50"/>
<text text-anchor="middle" x="49.5" y="-57" font-family="Helvetica,sans-Serif" font-size="10.00">WQGui.makeLogin</text>
</a>
</g>
</g>
<!-- Node2 -->
<g id="node2" class="node"><title>Node2</title>
<g id="a_node2"><a xlink:href="class_word_quizzle_client.html#a90fec95de2354aa8baf1f248b578cdd0" target="_top" xlink:title="Restituisce il nome utente corrente.">
<polygon fill="white" stroke="black" points="135,-88 135,-107 269,-107 269,-88 135,-88"/>
<text text-anchor="middle" x="202" y="-95" font-family="Helvetica,sans-Serif" font-size="10.00">WordQuizzleClient.getUser</text>
</a>
</g>
</g>
<!-- Node1&#45;&gt;Node2 -->
<g id="edge1" class="edge"><title>Node1&#45;&gt;Node2</title>
<path fill="none" stroke="midnightblue" d="M88.4775,-69.089C108.159,-74.0583 132.391,-80.1767 153.321,-85.4613"/>
<polygon fill="midnightblue" stroke="midnightblue" points="152.743,-88.9253 163.296,-87.9799 154.457,-82.1383 152.743,-88.9253"/>
</g>
<!-- Node3 -->
<g id="node3" class="node"><title>Node3</title>
<g id="a_node3"><a xlink:href="class_word_quizzle_client.html#ab3dfa5eb3dd327ca00e89b9920125e0e" target="_top" xlink:title="Effettua il login.">
<polygon fill="white" stroke="black" points="141.5,-50 141.5,-69 262.5,-69 262.5,-50 141.5,-50"/>
<text text-anchor="middle" x="202" y="-57" font-family="Helvetica,sans-Serif" font-size="10.00">WordQuizzleClient.login</text>
</a>
</g>
</g>
<!-- Node1&#45;&gt;Node3 -->
<g id="edge2" class="edge"><title>Node1&#45;&gt;Node3</title>
<path fill="none" stroke="midnightblue" d="M99.363,-59.5C109.51,-59.5 120.389,-59.5 131.123,-59.5"/>
<polygon fill="midnightblue" stroke="midnightblue" points="131.339,-63.0001 141.339,-59.5 131.339,-56.0001 131.339,-63.0001"/>
</g>
<!-- Node5 -->
<g id="node5" class="node"><title>Node5</title>
<g id="a_node5"><a xlink:href="class_word_quizzle_client.html#a516539e0da1d5d54431a7e41cf9339f8" target="_top" xlink:title="Registra un nuovo utente.">
<polygon fill="white" stroke="black" points="135.5,-0.5 135.5,-30.5 268.5,-30.5 268.5,-0.5 135.5,-0.5"/>
<text text-anchor="start" x="143.5" y="-18.5" font-family="Helvetica,sans-Serif" font-size="10.00">WordQuizzleClient.registra</text>
<text text-anchor="middle" x="202" y="-7.5" font-family="Helvetica,sans-Serif" font-size="10.00">_utente</text>
</a>
</g>
</g>
<!-- Node1&#45;&gt;Node5 -->
<g id="edge4" class="edge"><title>Node1&#45;&gt;Node5</title>
<path fill="none" stroke="midnightblue" d="M83.1563,-49.9527C99.7226,-45.1094 120.396,-39.0654 139.781,-33.398"/>
<polygon fill="midnightblue" stroke="midnightblue" points="140.854,-36.7309 149.47,-30.5654 138.889,-30.0122 140.854,-36.7309"/>
</g>
<!-- Node4 -->
<g id="node4" class="node"><title>Node4</title>
<g id="a_node4"><a xlink:href="interface_word_quizzle_service.html#a7d076a6d78b7108aa0d793ea398492f4" target="_top" xlink:title="Effettua il login.">
<polygon fill="white" stroke="black" points="311,-50 311,-69 439,-69 439,-50 311,-50"/>
<text text-anchor="middle" x="375" y="-57" font-family="Helvetica,sans-Serif" font-size="10.00">WordQuizzleService.login</text>
</a>
</g>
</g>
<!-- Node3&#45;&gt;Node4 -->
<g id="edge3" class="edge"><title>Node3&#45;&gt;Node4</title>
<path fill="none" stroke="midnightblue" d="M262.808,-59.5C275.043,-59.5 288.052,-59.5 300.698,-59.5"/>
<polygon fill="midnightblue" stroke="midnightblue" points="300.74,-63.0001 310.74,-59.5 300.74,-56.0001 300.74,-63.0001"/>
</g>
<!-- Node6 -->
<g id="node6" class="node"><title>Node6</title>
<g id="a_node6"><a xlink:href="interface_word_quizzle_service.html#a11603d2e946c2df51d3fa9d1daa53791" target="_top" xlink:title="Registra un utente.">
<polygon fill="white" stroke="black" points="305,-0.5 305,-30.5 445,-30.5 445,-0.5 305,-0.5"/>
<text text-anchor="start" x="313" y="-18.5" font-family="Helvetica,sans-Serif" font-size="10.00">WordQuizzleService.registra</text>
<text text-anchor="middle" x="375" y="-7.5" font-family="Helvetica,sans-Serif" font-size="10.00">_utente</text>
</a>
</g>
</g>
<!-- Node5&#45;&gt;Node6 -->
<g id="edge5" class="edge"><title>Node5&#45;&gt;Node6</title>
<path fill="none" stroke="midnightblue" d="M268.624,-15.5C277.154,-15.5 285.963,-15.5 294.685,-15.5"/>
<polygon fill="midnightblue" stroke="midnightblue" points="294.864,-19.0001 304.864,-15.5 294.864,-12.0001 294.864,-19.0001"/>
</g>
</g>
</svg>
