<?xml version="1.0" encoding="UTF-8" standalone="no"?>
<!DOCTYPE svg PUBLIC "-//W3C//DTD SVG 1.1//EN"
 "http://www.w3.org/Graphics/SVG/1.1/DTD/svg11.dtd">
<!-- Generated by graphviz version 2.38.0 (20140413.2041)
 -->
<!-- Title: WordQuizzle.Bot.main Pages: 1 -->
<svg width="964pt" height="312pt"
 viewBox="0.00 0.00 964.00 312.00" xmlns="http://www.w3.org/2000/svg" xmlns:xlink="http://www.w3.org/1999/xlink">
<g id="graph0" class="graph" transform="scale(1 1) rotate(0) translate(4 308)">
<title>WordQuizzle.Bot.main</title>
<polygon fill="white" stroke="none" points="-4,4 -4,-308 960,-308 960,4 -4,4"/>
<!-- Node1 -->
<g id="node1" class="node"><title>Node1</title>
<g id="a_node1"><a xlink:title="Esegue un bot.">
<polygon fill="#bfbfbf" stroke="black" points="0,-151 0,-170 115,-170 115,-151 0,-151"/>
<text text-anchor="middle" x="57.5" y="-158" font-family="Helvetica,sans-Serif" font-size="10.00">WordQuizzle.Bot.main</text>
</a>
</g>
</g>
<!-- Node2 -->
<g id="node2" class="node"><title>Node2</title>
<g id="a_node2"><a xlink:href="class_word_quizzle_1_1_bot.html#a78910f89f5a7e3aa00c8e5d054671005" target="_top" xlink:title="Crea un bot.">
<polygon fill="white" stroke="black" points="151,-170 151,-189 260,-189 260,-170 151,-170"/>
<text text-anchor="middle" x="205.5" y="-177" font-family="Helvetica,sans-Serif" font-size="10.00">WordQuizzle.Bot.Bot</text>
</a>
</g>
</g>
<!-- Node1&#45;&gt;Node2 -->
<g id="edge1" class="edge"><title>Node1&#45;&gt;Node2</title>
<path fill="none" stroke="midnightblue" d="M115.365,-167.9C123.676,-168.982 132.281,-170.102 140.718,-171.2"/>
<polygon fill="midnightblue" stroke="midnightblue" points="140.528,-174.704 150.896,-172.524 141.431,-167.763 140.528,-174.704"/>
</g>
<!-- Node3 -->
<g id="node3" class="node"><title>Node3</title>
<g id="a_node3"><a xlink:href="class_word_quizzle_1_1_bot.html#aa088d2cccb4552d9277db7908b7cc706" target="_top" xlink:title="Avvia il bot.">
<polygon fill="white" stroke="black" points="152,-132 152,-151 259,-151 259,-132 152,-132"/>
<text text-anchor="middle" x="205.5" y="-139" font-family="Helvetica,sans-Serif" font-size="10.00">WordQuizzle.Bot.run</text>
</a>
</g>
</g>
<!-- Node1&#45;&gt;Node3 -->
<g id="edge2" class="edge"><title>Node1&#45;&gt;Node3</title>
<path fill="none" stroke="midnightblue" d="M115.365,-153.1C123.998,-151.976 132.947,-150.812 141.697,-149.673"/>
<polygon fill="midnightblue" stroke="midnightblue" points="142.381,-153.114 151.845,-148.352 141.477,-146.172 142.381,-153.114"/>
</g>
<!-- Node4 -->
<g id="node4" class="node"><title>Node4</title>
<g id="a_node4"><a xlink:href="class_word_quizzle_1_1_word_quizzle_client.html#a540dfbf20ba0d5a8118e6d9284b79bc0" target="_top" xlink:title="Accetta una richiesta di sfida inviata da nickAmico.">
<polygon fill="white" stroke="black" points="298.5,-259.5 298.5,-289.5 490.5,-289.5 490.5,-259.5 298.5,-259.5"/>
<text text-anchor="start" x="306.5" y="-277.5" font-family="Helvetica,sans-Serif" font-size="10.00">WordQuizzle.WordQuizzleClient.accetta</text>
<text text-anchor="middle" x="394.5" y="-266.5" font-family="Helvetica,sans-Serif" font-size="10.00">Sfida</text>
</a>
</g>
</g>
<!-- Node3&#45;&gt;Node4 -->
<g id="edge3" class="edge"><title>Node3&#45;&gt;Node4</title>
<path fill="none" stroke="midnightblue" d="M245.411,-151.118C250.708,-153.579 255.768,-156.656 260,-160.5 287.965,-185.899 268.309,-211.802 296,-237.5 303.744,-244.686 313.023,-250.519 322.735,-255.242"/>
<polygon fill="midnightblue" stroke="midnightblue" points="321.585,-258.561 332.144,-259.437 324.436,-252.168 321.585,-258.561"/>
</g>
<!-- Node6 -->
<g id="node6" class="node"><title>Node6</title>
<g id="a_node6"><a xlink:href="class_word_quizzle_1_1_word_quizzle_client.html#a808fea05e1dc44069f476eebd3a39ada" target="_top" xlink:title="Verifica se ci sono richieste di sfida per user.">
<polygon fill="white" stroke="black" points="296,-197.5 296,-227.5 493,-227.5 493,-197.5 296,-197.5"/>
<text text-anchor="start" x="304" y="-215.5" font-family="Helvetica,sans-Serif" font-size="10.00">WordQuizzle.WordQuizzleClient.controlla</text>
<text text-anchor="middle" x="394.5" y="-204.5" font-family="Helvetica,sans-Serif" font-size="10.00">Richieste</text>
</a>
</g>
</g>
<!-- Node3&#45;&gt;Node6 -->
<g id="edge5" class="edge"><title>Node3&#45;&gt;Node6</title>
<path fill="none" stroke="midnightblue" d="M233.774,-151.007C242.202,-153.993 251.502,-157.337 260,-160.5 288.731,-171.195 320.743,-183.645 346.215,-193.681"/>
<polygon fill="midnightblue" stroke="midnightblue" points="345.051,-196.985 355.637,-197.401 347.621,-190.474 345.051,-196.985"/>
</g>
<!-- Node8 -->
<g id="node8" class="node"><title>Node8</title>
<g id="a_node8"><a xlink:href="class_word_quizzle_1_1_bot.html#ac35a1d7ec89b1ef5fc25f161357f71c1" target="_top" xlink:title="Gestisce una sfida.">
<polygon fill="white" stroke="black" points="335.5,-132 335.5,-151 453.5,-151 453.5,-132 335.5,-132"/>
<text text-anchor="middle" x="394.5" y="-139" font-family="Helvetica,sans-Serif" font-size="10.00">WordQuizzle.Bot.game</text>
</a>
</g>
</g>
<!-- Node3&#45;&gt;Node8 -->
<g id="edge7" class="edge"><title>Node3&#45;&gt;Node8</title>
<path fill="none" stroke="midnightblue" d="M259.088,-141.5C279.604,-141.5 303.395,-141.5 325.207,-141.5"/>
<polygon fill="midnightblue" stroke="midnightblue" points="325.401,-145 335.401,-141.5 325.401,-138 325.401,-145"/>
</g>
<!-- Node13 -->
<g id="node13" class="node"><title>Node13</title>
<g id="a_node13"><a xlink:href="class_word_quizzle_1_1_word_quizzle_client.html#aa87c179f3a0a6ab57c2b74960c95a626" target="_top" xlink:title="Effettua il login.">
<polygon fill="white" stroke="black" points="304.5,-83 304.5,-102 484.5,-102 484.5,-83 304.5,-83"/>
<text text-anchor="middle" x="394.5" y="-90" font-family="Helvetica,sans-Serif" font-size="10.00">WordQuizzle.WordQuizzleClient.login</text>
</a>
</g>
</g>
<!-- Node3&#45;&gt;Node13 -->
<g id="edge12" class="edge"><title>Node3&#45;&gt;Node13</title>
<path fill="none" stroke="midnightblue" d="M242.999,-131.936C272.732,-124.145 314.899,-113.096 347.038,-104.674"/>
<polygon fill="midnightblue" stroke="midnightblue" points="348.306,-107.96 357.093,-102.04 346.532,-101.189 348.306,-107.96"/>
</g>
<!-- Node15 -->
<g id="node15" class="node"><title>Node15</title>
<g id="a_node15"><a xlink:href="class_word_quizzle_1_1_word_quizzle_client.html#a98206956fc50ef3951d27f2a89fb21fa" target="_top" xlink:title="Registra un nuovo utente.">
<polygon fill="white" stroke="black" points="298.5,-11.5 298.5,-41.5 490.5,-41.5 490.5,-11.5 298.5,-11.5"/>
<text text-anchor="start" x="306.5" y="-29.5" font-family="Helvetica,sans-Serif" font-size="10.00">WordQuizzle.WordQuizzleClient.registra</text>
<text text-anchor="middle" x="394.5" y="-18.5" font-family="Helvetica,sans-Serif" font-size="10.00">_utente</text>
</a>
</g>
</g>
<!-- Node3&#45;&gt;Node15 -->
<g id="edge14" class="edge"><title>Node3&#45;&gt;Node15</title>
<path fill="none" stroke="midnightblue" d="M217.56,-131.929C233.967,-118.01 266.045,-91.8435 296,-73.5 312.631,-63.3157 331.802,-53.6645 348.719,-45.788"/>
<polygon fill="midnightblue" stroke="midnightblue" points="350.222,-48.9494 357.856,-41.6025 347.307,-42.5854 350.222,-48.9494"/>
</g>
<!-- Node5 -->
<g id="node5" class="node"><title>Node5</title>
<g id="a_node5"><a xlink:href="interface_word_quizzle_1_1_word_quizzle_service.html#a249b5976997c2e6d6d2ceb7e71cc7d75" target="_top" xlink:title="Accetta una richiesta di sfida inviata da nickAmico.">
<polygon fill="white" stroke="black" points="531,-273.5 531,-303.5 730,-303.5 730,-273.5 531,-273.5"/>
<text text-anchor="start" x="539" y="-291.5" font-family="Helvetica,sans-Serif" font-size="10.00">WordQuizzle.WordQuizzleService.accetta</text>
<text text-anchor="middle" x="630.5" y="-280.5" font-family="Helvetica,sans-Serif" font-size="10.00">Sfida</text>
</a>
</g>
</g>
<!-- Node4&#45;&gt;Node5 -->
<g id="edge4" class="edge"><title>Node4&#45;&gt;Node5</title>
<path fill="none" stroke="midnightblue" d="M490.677,-280.194C500.641,-280.79 510.824,-281.4 520.924,-282.004"/>
<polygon fill="midnightblue" stroke="midnightblue" points="520.792,-285.502 530.984,-282.606 521.21,-278.515 520.792,-285.502"/>
</g>
<!-- Node7 -->
<g id="node7" class="node"><title>Node7</title>
<g id="a_node7"><a xlink:href="interface_word_quizzle_1_1_word_quizzle_service.html#a12eccd4ef95e4ec5a7591b6038429eda" target="_top" xlink:title="Verifica se ci sono richieste di sfida per nickUtente.">
<polygon fill="white" stroke="black" points="529,-224.5 529,-254.5 732,-254.5 732,-224.5 529,-224.5"/>
<text text-anchor="start" x="537" y="-242.5" font-family="Helvetica,sans-Serif" font-size="10.00">WordQuizzle.WordQuizzleService.controlla</text>
<text text-anchor="middle" x="630.5" y="-231.5" font-family="Helvetica,sans-Serif" font-size="10.00">Richieste</text>
</a>
</g>
</g>
<!-- Node6&#45;&gt;Node7 -->
<g id="edge6" class="edge"><title>Node6&#45;&gt;Node7</title>
<path fill="none" stroke="midnightblue" d="M493.043,-223.755C501.515,-224.733 510.128,-225.726 518.696,-226.715"/>
<polygon fill="midnightblue" stroke="midnightblue" points="518.388,-230.202 528.723,-227.872 519.19,-223.249 518.388,-230.202"/>
</g>
<!-- Node9 -->
<g id="node9" class="node"><title>Node9</title>
<g id="a_node9"><a xlink:href="class_word_quizzle_1_1_word_quizzle_server_service.html#a970fe0e2dd7457bab2c64ae722a912fc" target="_top" xlink:title="Restituisce il numero di parole per sfida.">
<polygon fill="white" stroke="black" points="551,-175.5 551,-205.5 710,-205.5 710,-175.5 551,-175.5"/>
<text text-anchor="start" x="559" y="-193.5" font-family="Helvetica,sans-Serif" font-size="10.00">WordQuizzle.WordQuizzleServer</text>
<text text-anchor="middle" x="630.5" y="-182.5" font-family="Helvetica,sans-Serif" font-size="10.00">Service.getK</text>
</a>
</g>
</g>
<!-- Node8&#45;&gt;Node9 -->
<g id="edge8" class="edge"><title>Node8&#45;&gt;Node9</title>
<path fill="none" stroke="midnightblue" d="M440.895,-151.006C471.145,-157.34 511.771,-165.847 547.57,-173.344"/>
<polygon fill="midnightblue" stroke="midnightblue" points="547.022,-176.805 557.527,-175.429 548.457,-169.953 547.022,-176.805"/>
</g>
<!-- Node10 -->
<g id="node10" class="node"><title>Node10</title>
<g id="a_node10"><a xlink:href="class_word_quizzle_1_1_word_quizzle_client.html#a828a5e7a358bd53296d88c97172db13b" target="_top" xlink:title="Invia la traduzione della parola precedentemente inviata dal server durante una sfida.">
<polygon fill="white" stroke="black" points="540,-126.5 540,-156.5 721,-156.5 721,-126.5 540,-126.5"/>
<text text-anchor="start" x="548" y="-144.5" font-family="Helvetica,sans-Serif" font-size="10.00">WordQuizzle.WordQuizzleClient.send</text>
<text text-anchor="middle" x="630.5" y="-133.5" font-family="Helvetica,sans-Serif" font-size="10.00">Translation</text>
</a>
</g>
</g>
<!-- Node8&#45;&gt;Node10 -->
<g id="edge9" class="edge"><title>Node8&#45;&gt;Node10</title>
<path fill="none" stroke="midnightblue" d="M453.643,-141.5C476.586,-141.5 503.612,-141.5 529.502,-141.5"/>
<polygon fill="midnightblue" stroke="midnightblue" points="529.741,-145 539.741,-141.5 529.74,-138 529.741,-145"/>
</g>
<!-- Node12 -->
<g id="node12" class="node"><title>Node12</title>
<g id="a_node12"><a xlink:href="class_word_quizzle_1_1_translator.html#a9fcad4b807785c63c72bc85f672fb635" target="_top" xlink:title="Traduce una parola dall&#39;italiano all&#39;inglese.">
<polygon fill="white" stroke="black" points="551,-88 551,-107 710,-107 710,-88 551,-88"/>
<text text-anchor="middle" x="630.5" y="-95" font-family="Helvetica,sans-Serif" font-size="10.00">WordQuizzle.Translator.translate</text>
</a>
</g>
</g>
<!-- Node8&#45;&gt;Node12 -->
<g id="edge11" class="edge"><title>Node8&#45;&gt;Node12</title>
<path fill="none" stroke="midnightblue" d="M446.275,-131.953C482.304,-125.178 530.828,-116.054 568.888,-108.897"/>
<polygon fill="midnightblue" stroke="midnightblue" points="569.644,-112.316 578.825,-107.029 568.35,-105.437 569.644,-112.316"/>
</g>
<!-- Node11 -->
<g id="node11" class="node"><title>Node11</title>
<g id="a_node11"><a xlink:href="interface_word_quizzle_1_1_word_quizzle_service.html#a40fcaf644a7b5e4e1c1e592052f55e0b" target="_top" xlink:title="Invia la traduzione della parola precedentemente inviata dal server durante una sfida.">
<polygon fill="white" stroke="black" points="768,-126.5 768,-156.5 956,-156.5 956,-126.5 768,-126.5"/>
<text text-anchor="start" x="776" y="-144.5" font-family="Helvetica,sans-Serif" font-size="10.00">WordQuizzle.WordQuizzleService.send</text>
<text text-anchor="middle" x="862" y="-133.5" font-family="Helvetica,sans-Serif" font-size="10.00">Translation</text>
</a>
</g>
</g>
<!-- Node10&#45;&gt;Node11 -->
<g id="edge10" class="edge"><title>Node10&#45;&gt;Node11</title>
<path fill="none" stroke="midnightblue" d="M721.217,-141.5C733.199,-141.5 745.565,-141.5 757.755,-141.5"/>
<polygon fill="midnightblue" stroke="midnightblue" points="757.942,-145 767.942,-141.5 757.942,-138 757.942,-145"/>
</g>
<!-- Node14 -->
<g id="node14" class="node"><title>Node14</title>
<g id="a_node14"><a xlink:href="interface_word_quizzle_1_1_word_quizzle_service.html#abae2cda062f36f0e54c9d13589c53027" target="_top" xlink:title="Effettua il login.">
<polygon fill="white" stroke="black" points="537,-50 537,-69 724,-69 724,-50 537,-50"/>
<text text-anchor="middle" x="630.5" y="-57" font-family="Helvetica,sans-Serif" font-size="10.00">WordQuizzle.WordQuizzleService.login</text>
</a>
</g>
</g>
<!-- Node13&#45;&gt;Node14 -->
<g id="edge13" class="edge"><title>Node13&#45;&gt;Node14</title>
<path fill="none" stroke="midnightblue" d="M462.869,-82.9993C490.647,-79.0818 523.007,-74.5182 551.782,-70.4603"/>
<polygon fill="midnightblue" stroke="midnightblue" points="552.383,-73.9101 561.797,-69.0479 551.406,-66.9787 552.383,-73.9101"/>
</g>
<!-- Node16 -->
<g id="node16" class="node"><title>Node16</title>
<g id="a_node16"><a xlink:href="interface_word_quizzle_1_1_word_quizzle_service.html#a4abc4590c1b6009ec9afb7ba1a1022b1" target="_top" xlink:title="Registra un utente.">
<polygon fill="white" stroke="black" points="531,-0.5 531,-30.5 730,-30.5 730,-0.5 531,-0.5"/>
<text text-anchor="start" x="539" y="-18.5" font-family="Helvetica,sans-Serif" font-size="10.00">WordQuizzle.WordQuizzleService.registra</text>
<text text-anchor="middle" x="630.5" y="-7.5" font-family="Helvetica,sans-Serif" font-size="10.00">_utente</text>
</a>
</g>
</g>
<!-- Node15&#45;&gt;Node16 -->
<g id="edge15" class="edge"><title>Node15&#45;&gt;Node16</title>
<path fill="none" stroke="midnightblue" d="M490.677,-22.0259C500.641,-21.5575 510.824,-21.0788 520.924,-20.604"/>
<polygon fill="midnightblue" stroke="midnightblue" points="521.159,-24.0969 530.984,-20.1311 520.83,-17.1046 521.159,-24.0969"/>
</g>
</g>
</svg>
