<?xml version="1.0" encoding="UTF-8" standalone="no"?>
<!DOCTYPE svg PUBLIC "-//W3C//DTD SVG 1.1//EN"
 "http://www.w3.org/Graphics/SVG/1.1/DTD/svg11.dtd">
<!-- Generated by graphviz version 2.38.0 (20140413.2041)
 -->
<!-- Title: Grafico della gerarchia delle classi Pages: 1 -->
<svg width="307pt" height="28pt"
 viewBox="0.00 0.00 307.00 28.00" xmlns="http://www.w3.org/2000/svg" xmlns:xlink="http://www.w3.org/1999/xlink">
<g id="graph0" class="graph" transform="scale(1 1) rotate(0) translate(4 24)">
<title>Grafico della gerarchia delle classi</title>
<polygon fill="white" stroke="none" points="-4,4 -4,-24 303,-24 303,4 -4,4"/>
<!-- Node22 -->
<g id="node1" class="node"><title>Node22</title>
<g id="a_node1"><a xlink:title=" ">
<polygon fill="white" stroke="#bfbfbf" points="0,-0.5 0,-19.5 50,-19.5 50,-0.5 0,-0.5"/>
<text text-anchor="middle" x="25" y="-7.5" font-family="Helvetica,sans-Serif" font-size="10.00">Remote</text>
</a>
</g>
</g>
<!-- Node0 -->
<g id="node2" class="node"><title>Node0</title>
<g id="a_node2"><a xlink:href="interface_user_registry.html" target="_top" xlink:title="Interfaccia RMI per la registrazione di un utente.">
<polygon fill="white" stroke="black" points="86,-0.5 86,-19.5 159,-19.5 159,-0.5 86,-0.5"/>
<text text-anchor="middle" x="122.5" y="-7.5" font-family="Helvetica,sans-Serif" font-size="10.00">UserRegistry</text>
</a>
</g>
</g>
<!-- Node22&#45;&gt;Node0 -->
<g id="edge1" class="edge"><title>Node22&#45;&gt;Node0</title>
<path fill="none" stroke="midnightblue" d="M60.2335,-10C68.5537,-10 77.4706,-10 85.8545,-10"/>
<polygon fill="midnightblue" stroke="midnightblue" points="60.0987,-6.5001 50.0987,-10 60.0986,-13.5001 60.0987,-6.5001"/>
</g>
<!-- Node1 -->
<g id="node3" class="node"><title>Node1</title>
<g id="a_node3"><a xlink:href="class_user_registry_service.html" target="_top" xlink:title="Classe che si occupa della registrazione degli utenti.">
<polygon fill="white" stroke="black" points="195,-0.5 195,-19.5 299,-19.5 299,-0.5 195,-0.5"/>
<text text-anchor="middle" x="247" y="-7.5" font-family="Helvetica,sans-Serif" font-size="10.00">UserRegistryService</text>
</a>
</g>
</g>
<!-- Node0&#45;&gt;Node1 -->
<g id="edge2" class="edge"><title>Node0&#45;&gt;Node1</title>
<path fill="none" stroke="midnightblue" d="M169.512,-10C177.813,-10 186.512,-10 194.946,-10"/>
<polygon fill="midnightblue" stroke="midnightblue" points="169.261,-6.5001 159.261,-10 169.261,-13.5001 169.261,-6.5001"/>
</g>
</g>
</svg>
