<?xml version="1.0" encoding="UTF-8" standalone="no"?>
<!DOCTYPE svg PUBLIC "-//W3C//DTD SVG 1.1//EN"
 "http://www.w3.org/Graphics/SVG/1.1/DTD/svg11.dtd">
<!-- Generated by graphviz version 2.38.0 (20140413.2041)
 -->
<!-- Title: Grafico della gerarchia delle classi Pages: 1 -->
<svg width="260pt" height="180pt"
 viewBox="0.00 0.00 260.00 180.00" xmlns="http://www.w3.org/2000/svg" xmlns:xlink="http://www.w3.org/1999/xlink">
<g id="graph0" class="graph" transform="scale(1 1) rotate(0) translate(4 176)">
<title>Grafico della gerarchia delle classi</title>
<polygon fill="white" stroke="none" points="-4,4 -4,-176 256,-176 256,4 -4,4"/>
<!-- Node11 -->
<g id="node1" class="node"><title>Node11</title>
<g id="a_node1"><a xlink:title=" ">
<polygon fill="white" stroke="#bfbfbf" points="0,-76.5 0,-95.5 57,-95.5 57,-76.5 0,-76.5"/>
<text text-anchor="middle" x="28.5" y="-83.5" font-family="Helvetica,sans-Serif" font-size="10.00">Runnable</text>
</a>
</g>
</g>
<!-- Node0 -->
<g id="node2" class="node"><title>Node0</title>
<g id="a_node2"><a xlink:href="class_word_quizzle_1_1_bot.html" target="_top" xlink:title="Implementa un bot automatico per giocare in singolo e/o per testing.">
<polygon fill="white" stroke="black" points="127,-152.5 127,-171.5 218,-171.5 218,-152.5 127,-152.5"/>
<text text-anchor="middle" x="172.5" y="-159.5" font-family="Helvetica,sans-Serif" font-size="10.00">WordQuizzle.Bot</text>
</a>
</g>
</g>
<!-- Node11&#45;&gt;Node0 -->
<g id="edge1" class="edge"><title>Node11&#45;&gt;Node0</title>
<path fill="none" stroke="midnightblue" d="M44.3952,-103.379C56.2981,-116.184 74.0734,-133.038 93,-143 103.423,-148.486 115.458,-152.417 126.924,-155.224"/>
<polygon fill="midnightblue" stroke="midnightblue" points="46.753,-100.766 37.4683,-95.6625 41.5439,-105.442 46.753,-100.766"/>
</g>
<!-- Node13 -->
<g id="node3" class="node"><title>Node13</title>
<g id="a_node3"><a xlink:href="class_word_quizzle_1_1_challenge.html" target="_top" xlink:title="Implementa la sfida tra due utenti.">
<polygon fill="white" stroke="black" points="113,-114.5 113,-133.5 232,-133.5 232,-114.5 113,-114.5"/>
<text text-anchor="middle" x="172.5" y="-121.5" font-family="Helvetica,sans-Serif" font-size="10.00">WordQuizzle.Challenge</text>
</a>
</g>
</g>
<!-- Node11&#45;&gt;Node13 -->
<g id="edge2" class="edge"><title>Node11&#45;&gt;Node13</title>
<path fill="none" stroke="midnightblue" d="M66.9491,-97.5659C75.487,-100.102 84.5369,-102.711 93,-105 105.047,-108.258 118.205,-111.547 130.246,-114.452"/>
<polygon fill="midnightblue" stroke="midnightblue" points="67.8115,-94.1705 57.2273,-94.6456 65.7976,-100.875 67.8115,-94.1705"/>
</g>
<!-- Node14 -->
<g id="node4" class="node"><title>Node14</title>
<g id="a_node4"><a xlink:href="class_word_quizzle_1_1_notifier.html" target="_top" xlink:title="Gestisce le richieste di sfida a livello di Gui.">
<polygon fill="white" stroke="black" points="119.5,-76.5 119.5,-95.5 225.5,-95.5 225.5,-76.5 119.5,-76.5"/>
<text text-anchor="middle" x="172.5" y="-83.5" font-family="Helvetica,sans-Serif" font-size="10.00">WordQuizzle.Notifier</text>
</a>
</g>
</g>
<!-- Node11&#45;&gt;Node14 -->
<g id="edge3" class="edge"><title>Node11&#45;&gt;Node14</title>
<path fill="none" stroke="midnightblue" d="M67.2577,-86C83.2469,-86 102.141,-86 119.422,-86"/>
<polygon fill="midnightblue" stroke="midnightblue" points="67.2162,-82.5001 57.2161,-86 67.2161,-89.5001 67.2162,-82.5001"/>
</g>
<!-- Node15 -->
<g id="node5" class="node"><title>Node15</title>
<g id="a_node5"><a xlink:href="class_word_quizzle_1_1_tester.html" target="_top" xlink:title="Classe che permette il testing delle funzionalita&#39; del server.">
<polygon fill="white" stroke="black" points="121,-38.5 121,-57.5 224,-57.5 224,-38.5 121,-38.5"/>
<text text-anchor="middle" x="172.5" y="-45.5" font-family="Helvetica,sans-Serif" font-size="10.00">WordQuizzle.Tester</text>
</a>
</g>
</g>
<!-- Node11&#45;&gt;Node15 -->
<g id="edge4" class="edge"><title>Node11&#45;&gt;Node15</title>
<path fill="none" stroke="midnightblue" d="M66.9491,-74.4341C75.487,-71.8978 84.5369,-69.2886 93,-67 105.047,-63.7423 118.205,-60.4533 130.246,-57.5485"/>
<polygon fill="midnightblue" stroke="midnightblue" points="65.7976,-71.1254 57.2273,-77.3544 67.8115,-77.8295 65.7976,-71.1254"/>
</g>
<!-- Node16 -->
<g id="node6" class="node"><title>Node16</title>
<g id="a_node6"><a xlink:href="class_word_quizzle_1_1_word_quizzle_server.html" target="_top" xlink:title="Il server che gestisce le interazioni con i client.">
<polygon fill="white" stroke="black" points="93,-0.5 93,-19.5 252,-19.5 252,-0.5 93,-0.5"/>
<text text-anchor="middle" x="172.5" y="-7.5" font-family="Helvetica,sans-Serif" font-size="10.00">WordQuizzle.WordQuizzleServer</text>
</a>
</g>
</g>
<!-- Node11&#45;&gt;Node16 -->
<g id="edge5" class="edge"><title>Node11&#45;&gt;Node16</title>
<path fill="none" stroke="midnightblue" d="M44.3952,-68.6211C56.2981,-55.8165 74.0734,-38.9617 93,-29 100.321,-25.1468 108.437,-22.0605 116.593,-19.5922"/>
<polygon fill="midnightblue" stroke="midnightblue" points="41.5439,-66.5579 37.4683,-76.3375 46.753,-71.2341 41.5439,-66.5579"/>
</g>
</g>
</svg>
