<?xml version="1.0" encoding="UTF-8" standalone="no"?>
<!DOCTYPE svg PUBLIC "-//W3C//DTD SVG 1.1//EN"
 "http://www.w3.org/Graphics/SVG/1.1/DTD/svg11.dtd">
<!-- Generated by graphviz version 2.38.0 (20140413.2041)
 -->
<!-- Title: Grafico della gerarchia delle classi Pages: 1 -->
<svg width="394pt" height="39pt"
 viewBox="0.00 0.00 394.00 39.00" xmlns="http://www.w3.org/2000/svg" xmlns:xlink="http://www.w3.org/1999/xlink">
<g id="graph0" class="graph" transform="scale(1 1) rotate(0) translate(4 35)">
<title>Grafico della gerarchia delle classi</title>
<polygon fill="white" stroke="none" points="-4,4 -4,-35 390,-35 390,4 -4,4"/>
<!-- Node18 -->
<g id="node1" class="node"><title>Node18</title>
<g id="a_node1"><a xlink:title=" ">
<polygon fill="white" stroke="#bfbfbf" points="0,-6 0,-25 50,-25 50,-6 0,-6"/>
<text text-anchor="middle" x="25" y="-13" font-family="Helvetica,sans-Serif" font-size="10.00">Remote</text>
</a>
</g>
</g>
<!-- Node0 -->
<g id="node2" class="node"><title>Node0</title>
<g id="a_node2"><a xlink:href="interface_word_quizzle_1_1_user_registry.html" target="_top" xlink:title="Interfaccia RMI per la registrazione di un utente.">
<polygon fill="white" stroke="black" points="86,-6 86,-25 218,-25 218,-6 86,-6"/>
<text text-anchor="middle" x="152" y="-13" font-family="Helvetica,sans-Serif" font-size="10.00">WordQuizzle.UserRegistry</text>
</a>
</g>
</g>
<!-- Node18&#45;&gt;Node0 -->
<g id="edge1" class="edge"><title>Node18&#45;&gt;Node0</title>
<path fill="none" stroke="midnightblue" d="M60.1479,-15.5C68.1843,-15.5 77.0143,-15.5 85.9143,-15.5"/>
<polygon fill="midnightblue" stroke="midnightblue" points="60.1013,-12.0001 50.1013,-15.5 60.1012,-19.0001 60.1013,-12.0001"/>
</g>
<!-- Node1 -->
<g id="node3" class="node"><title>Node1</title>
<g id="a_node3"><a xlink:href="class_word_quizzle_1_1_user_registry_service.html" target="_top" xlink:title="Classe che si occupa della registrazione degli utenti.">
<polygon fill="white" stroke="black" points="254,-0.5 254,-30.5 386,-30.5 386,-0.5 254,-0.5"/>
<text text-anchor="start" x="262" y="-18.5" font-family="Helvetica,sans-Serif" font-size="10.00">WordQuizzle.UserRegistry</text>
<text text-anchor="middle" x="320" y="-7.5" font-family="Helvetica,sans-Serif" font-size="10.00">Service</text>
</a>
</g>
</g>
<!-- Node0&#45;&gt;Node1 -->
<g id="edge2" class="edge"><title>Node0&#45;&gt;Node1</title>
<path fill="none" stroke="midnightblue" d="M228.393,-15.5C236.869,-15.5 245.452,-15.5 253.784,-15.5"/>
<polygon fill="midnightblue" stroke="midnightblue" points="228.131,-12.0001 218.131,-15.5 228.131,-19.0001 228.131,-12.0001"/>
</g>
</g>
</svg>
