<?xml version="1.0" encoding="UTF-8" standalone="no"?>
<!DOCTYPE svg PUBLIC "-//W3C//DTD SVG 1.1//EN"
 "http://www.w3.org/Graphics/SVG/1.1/DTD/svg11.dtd">
<!-- Generated by graphviz version 2.38.0 (20140413.2041)
 -->
<!-- Title: Grafico della gerarchia delle classi Pages: 1 -->
<svg width="220pt" height="66pt"
 viewBox="0.00 0.00 220.00 66.00" xmlns="http://www.w3.org/2000/svg" xmlns:xlink="http://www.w3.org/1999/xlink">
<g id="graph0" class="graph" transform="scale(1 1) rotate(0) translate(4 62)">
<title>Grafico della gerarchia delle classi</title>
<polygon fill="white" stroke="none" points="-4,4 -4,-62 216,-62 216,4 -4,4"/>
<!-- Node11 -->
<g id="node1" class="node"><title>Node11</title>
<g id="a_node1"><a xlink:title=" ">
<polygon fill="white" stroke="#bfbfbf" points="0,-19.5 0,-38.5 57,-38.5 57,-19.5 0,-19.5"/>
<text text-anchor="middle" x="28.5" y="-26.5" font-family="Helvetica,sans-Serif" font-size="10.00">Runnable</text>
</a>
</g>
</g>
<!-- Node0 -->
<g id="node2" class="node"><title>Node0</title>
<g id="a_node2"><a xlink:href="class_word_quizzle_1_1_challenge.html" target="_top" xlink:title=" ">
<polygon fill="white" stroke="black" points="93,-38.5 93,-57.5 212,-57.5 212,-38.5 93,-38.5"/>
<text text-anchor="middle" x="152.5" y="-45.5" font-family="Helvetica,sans-Serif" font-size="10.00">WordQuizzle.Challenge</text>
</a>
</g>
</g>
<!-- Node11&#45;&gt;Node0 -->
<g id="edge1" class="edge"><title>Node11&#45;&gt;Node0</title>
<path fill="none" stroke="midnightblue" d="M67.2992,-34.8868C75.3126,-36.1348 83.9537,-37.4805 92.5409,-38.8178"/>
<polygon fill="midnightblue" stroke="midnightblue" points="67.6032,-31.392 57.1837,-33.3114 66.526,-38.3086 67.6032,-31.392"/>
</g>
<!-- Node13 -->
<g id="node3" class="node"><title>Node13</title>
<g id="a_node3"><a xlink:href="class_word_quizzle_1_1_notifier.html" target="_top" xlink:title=" ">
<polygon fill="white" stroke="black" points="99.5,-0.5 99.5,-19.5 205.5,-19.5 205.5,-0.5 99.5,-0.5"/>
<text text-anchor="middle" x="152.5" y="-7.5" font-family="Helvetica,sans-Serif" font-size="10.00">WordQuizzle.Notifier</text>
</a>
</g>
</g>
<!-- Node11&#45;&gt;Node13 -->
<g id="edge2" class="edge"><title>Node11&#45;&gt;Node13</title>
<path fill="none" stroke="midnightblue" d="M67.3424,-23.1065C77.4956,-21.5253 88.6539,-19.7875 99.432,-18.1089"/>
<polygon fill="midnightblue" stroke="midnightblue" points="66.526,-19.6914 57.1837,-24.6886 67.6032,-26.608 66.526,-19.6914"/>
</g>
</g>
</svg>
