<?xml version="1.0" encoding="UTF-8" standalone="no"?>
<!DOCTYPE svg PUBLIC "-//W3C//DTD SVG 1.1//EN"
 "http://www.w3.org/Graphics/SVG/1.1/DTD/svg11.dtd">
<!-- Generated by graphviz version 2.38.0 (20140413.2041)
 -->
<!-- Title: Grafico della gerarchia delle classi Pages: 1 -->
<svg width="201pt" height="180pt"
 viewBox="0.00 0.00 201.00 180.00" xmlns="http://www.w3.org/2000/svg" xmlns:xlink="http://www.w3.org/1999/xlink">
<g id="graph0" class="graph" transform="scale(1 1) rotate(0) translate(4 176)">
<title>Grafico della gerarchia delle classi</title>
<polygon fill="white" stroke="none" points="-4,4 -4,-176 197,-176 197,4 -4,4"/>
<!-- Node11 -->
<g id="node1" class="node"><title>Node11</title>
<g id="a_node1"><a xlink:title=" ">
<polygon fill="white" stroke="#bfbfbf" points="0,-76.5 0,-95.5 57,-95.5 57,-76.5 0,-76.5"/>
<text text-anchor="middle" x="28.5" y="-83.5" font-family="Helvetica,sans-Serif" font-size="10.00">Runnable</text>
</a>
</g>
</g>
<!-- Node0 -->
<g id="node2" class="node"><title>Node0</title>
<g id="a_node2"><a xlink:href="class_bot.html" target="_top" xlink:title="Implementa un bot automatico per giocare in singolo e/o per testing.">
<polygon fill="white" stroke="black" points="127,-152.5 127,-171.5 159,-171.5 159,-152.5 127,-152.5"/>
<text text-anchor="middle" x="143" y="-159.5" font-family="Helvetica,sans-Serif" font-size="10.00">Bot</text>
</a>
</g>
</g>
<!-- Node11&#45;&gt;Node0 -->
<g id="edge1" class="edge"><title>Node11&#45;&gt;Node0</title>
<path fill="none" stroke="midnightblue" d="M45.2101,-103.103C57.3152,-115.489 74.9811,-131.935 93,-143 103.574,-149.493 116.742,-154.45 126.764,-157.67"/>
<polygon fill="midnightblue" stroke="midnightblue" points="47.541,-100.475 38.1105,-95.6463 42.4715,-105.302 47.541,-100.475"/>
</g>
<!-- Node13 -->
<g id="node3" class="node"><title>Node13</title>
<g id="a_node3"><a xlink:href="class_challenge.html" target="_top" xlink:title="Implementa la sfida tra due utenti.">
<polygon fill="white" stroke="black" points="113.5,-114.5 113.5,-133.5 172.5,-133.5 172.5,-114.5 113.5,-114.5"/>
<text text-anchor="middle" x="143" y="-121.5" font-family="Helvetica,sans-Serif" font-size="10.00">Challenge</text>
</a>
</g>
</g>
<!-- Node11&#45;&gt;Node13 -->
<g id="edge2" class="edge"><title>Node11&#45;&gt;Node13</title>
<path fill="none" stroke="midnightblue" d="M66.6953,-98.5638C81.968,-103.723 99.3659,-109.599 113.589,-114.403"/>
<polygon fill="midnightblue" stroke="midnightblue" points="67.6148,-95.1801 57.0206,-95.2958 65.3747,-101.812 67.6148,-95.1801"/>
</g>
<!-- Node14 -->
<g id="node4" class="node"><title>Node14</title>
<g id="a_node4"><a xlink:href="class_notifier.html" target="_top" xlink:title="Gestisce le richieste di sfida a livello di Gui.">
<polygon fill="white" stroke="black" points="119.5,-76.5 119.5,-95.5 166.5,-95.5 166.5,-76.5 119.5,-76.5"/>
<text text-anchor="middle" x="143" y="-83.5" font-family="Helvetica,sans-Serif" font-size="10.00">Notifier</text>
</a>
</g>
</g>
<!-- Node11&#45;&gt;Node14 -->
<g id="edge3" class="edge"><title>Node11&#45;&gt;Node14</title>
<path fill="none" stroke="midnightblue" d="M67.3511,-86C84.5884,-86 104.416,-86 119.303,-86"/>
<polygon fill="midnightblue" stroke="midnightblue" points="67.0206,-82.5001 57.0206,-86 67.0206,-89.5001 67.0206,-82.5001"/>
</g>
<!-- Node15 -->
<g id="node5" class="node"><title>Node15</title>
<g id="a_node5"><a xlink:href="class_tester.html" target="_top" xlink:title="Classe che permette il testing delle funzionalita&#39; del server.">
<polygon fill="white" stroke="black" points="121,-38.5 121,-57.5 165,-57.5 165,-38.5 121,-38.5"/>
<text text-anchor="middle" x="143" y="-45.5" font-family="Helvetica,sans-Serif" font-size="10.00">Tester</text>
</a>
</g>
</g>
<!-- Node11&#45;&gt;Node15 -->
<g id="edge4" class="edge"><title>Node11&#45;&gt;Node15</title>
<path fill="none" stroke="midnightblue" d="M66.6424,-73.4541C84.6069,-67.3861 105.522,-60.3214 120.754,-55.1765"/>
<polygon fill="midnightblue" stroke="midnightblue" points="65.3747,-70.188 57.0206,-76.7042 67.6148,-76.8199 65.3747,-70.188"/>
</g>
<!-- Node16 -->
<g id="node6" class="node"><title>Node16</title>
<g id="a_node6"><a xlink:href="class_word_quizzle_server.html" target="_top" xlink:title="Il server che gestisce le interazioni con i client.">
<polygon fill="white" stroke="black" points="93,-0.5 93,-19.5 193,-19.5 193,-0.5 93,-0.5"/>
<text text-anchor="middle" x="143" y="-7.5" font-family="Helvetica,sans-Serif" font-size="10.00">WordQuizzleServer</text>
</a>
</g>
</g>
<!-- Node11&#45;&gt;Node16 -->
<g id="edge5" class="edge"><title>Node11&#45;&gt;Node16</title>
<path fill="none" stroke="midnightblue" d="M45.2101,-68.8975C57.3152,-56.5108 74.9811,-40.065 93,-29 98.9091,-25.3713 105.628,-22.2226 112.156,-19.5887"/>
<polygon fill="midnightblue" stroke="midnightblue" points="42.4715,-66.698 38.1105,-76.3537 47.541,-71.525 42.4715,-66.698"/>
</g>
</g>
</svg>
