<?xml version="1.0" encoding="UTF-8" standalone="no"?>
<!DOCTYPE svg PUBLIC "-//W3C//DTD SVG 1.1//EN"
 "http://www.w3.org/Graphics/SVG/1.1/DTD/svg11.dtd">
<!-- Generated by graphviz version 2.38.0 (20140413.2041)
 -->
<!-- Title: Grafico della gerarchia delle classi Pages: 1 -->
<svg width="220pt" height="104pt"
 viewBox="0.00 0.00 220.00 104.00" xmlns="http://www.w3.org/2000/svg" xmlns:xlink="http://www.w3.org/1999/xlink">
<g id="graph0" class="graph" transform="scale(1 1) rotate(0) translate(4 100)">
<title>Grafico della gerarchia delle classi</title>
<polygon fill="white" stroke="none" points="-4,4 -4,-100 216,-100 216,4 -4,4"/>
<!-- Node11 -->
<g id="node1" class="node"><title>Node11</title>
<g id="a_node1"><a xlink:title=" ">
<polygon fill="white" stroke="#bfbfbf" points="0,-38.5 0,-57.5 57,-57.5 57,-38.5 0,-38.5"/>
<text text-anchor="middle" x="28.5" y="-45.5" font-family="Helvetica,sans-Serif" font-size="10.00">Runnable</text>
</a>
</g>
</g>
<!-- Node0 -->
<g id="node2" class="node"><title>Node0</title>
<g id="a_node2"><a xlink:href="class_word_quizzle_1_1_bot.html" target="_top" xlink:title="Implementa un bot automatico per giocare in singolo e/o per testing.">
<polygon fill="white" stroke="black" points="107,-76.5 107,-95.5 198,-95.5 198,-76.5 107,-76.5"/>
<text text-anchor="middle" x="152.5" y="-83.5" font-family="Helvetica,sans-Serif" font-size="10.00">WordQuizzle.Bot</text>
</a>
</g>
</g>
<!-- Node11&#45;&gt;Node0 -->
<g id="edge1" class="edge"><title>Node11&#45;&gt;Node0</title>
<path fill="none" stroke="midnightblue" d="M66.9754,-59.6727C84.2799,-65.0626 104.567,-71.3815 120.928,-76.4777"/>
<polygon fill="midnightblue" stroke="midnightblue" points="67.7721,-56.255 57.1837,-56.6228 65.6904,-62.9383 67.7721,-56.255"/>
</g>
<!-- Node13 -->
<g id="node3" class="node"><title>Node13</title>
<g id="a_node3"><a xlink:href="class_word_quizzle_1_1_challenge.html" target="_top" xlink:title="Implementa la sfida tra due utenti.">
<polygon fill="white" stroke="black" points="93,-38.5 93,-57.5 212,-57.5 212,-38.5 93,-38.5"/>
<text text-anchor="middle" x="152.5" y="-45.5" font-family="Helvetica,sans-Serif" font-size="10.00">WordQuizzle.Challenge</text>
</a>
</g>
</g>
<!-- Node11&#45;&gt;Node13 -->
<g id="edge2" class="edge"><title>Node11&#45;&gt;Node13</title>
<path fill="none" stroke="midnightblue" d="M67.2992,-48C75.3126,-48 83.9537,-48 92.5409,-48"/>
<polygon fill="midnightblue" stroke="midnightblue" points="67.1837,-44.5001 57.1837,-48 67.1837,-51.5001 67.1837,-44.5001"/>
</g>
<!-- Node14 -->
<g id="node4" class="node"><title>Node14</title>
<g id="a_node4"><a xlink:href="class_word_quizzle_1_1_notifier.html" target="_top" xlink:title="Gestisce le richieste di sfida a livello di Gui.">
<polygon fill="white" stroke="black" points="99.5,-0.5 99.5,-19.5 205.5,-19.5 205.5,-0.5 99.5,-0.5"/>
<text text-anchor="middle" x="152.5" y="-7.5" font-family="Helvetica,sans-Serif" font-size="10.00">WordQuizzle.Notifier</text>
</a>
</g>
</g>
<!-- Node11&#45;&gt;Node14 -->
<g id="edge3" class="edge"><title>Node11&#45;&gt;Node14</title>
<path fill="none" stroke="midnightblue" d="M66.9754,-36.3273C84.2799,-30.9374 104.567,-24.6185 120.928,-19.5223"/>
<polygon fill="midnightblue" stroke="midnightblue" points="65.6904,-33.0617 57.1837,-39.3772 67.7721,-39.745 65.6904,-33.0617"/>
</g>
</g>
</svg>
