<?xml version="1.0" encoding="UTF-8" standalone="no"?>
<!DOCTYPE svg PUBLIC "-//W3C//DTD SVG 1.1//EN"
 "http://www.w3.org/Graphics/SVG/1.1/DTD/svg11.dtd">
<!-- Generated by graphviz version 2.38.0 (20140413.2041)
 -->
<!-- Title: WordQuizzle.DataBase.checkUser Pages: 1 -->
<svg width="945pt" height="284pt"
 viewBox="0.00 0.00 945.00 284.00" xmlns="http://www.w3.org/2000/svg" xmlns:xlink="http://www.w3.org/1999/xlink">
<g id="graph0" class="graph" transform="scale(1 1) rotate(0) translate(4 280)">
<title>WordQuizzle.DataBase.checkUser</title>
<polygon fill="white" stroke="none" points="-4,4 -4,-280 941,-280 941,4 -4,4"/>
<!-- Node1 -->
<g id="node1" class="node"><title>Node1</title>
<g id="a_node1"><a xlink:title="Controlla che quel nome utente sia nel database.">
<polygon fill="#bfbfbf" stroke="black" points="769,-128 769,-147 937,-147 937,-128 769,-128"/>
<text text-anchor="middle" x="853" y="-135" font-family="Helvetica,sans-Serif" font-size="10.00">WordQuizzle.DataBase.checkUser</text>
</a>
</g>
</g>
<!-- Node2 -->
<g id="node2" class="node"><title>Node2</title>
<g id="a_node2"><a xlink:href="class_word_quizzle_1_1_word_quizzle_server_service.html#a1f28542d2118fba0a19061d5acf603ec" target="_top" xlink:title=" ">
<polygon fill="white" stroke="black" points="574,-245.5 574,-275.5 733,-275.5 733,-245.5 574,-245.5"/>
<text text-anchor="start" x="582" y="-263.5" font-family="Helvetica,sans-Serif" font-size="10.00">WordQuizzle.WordQuizzleServer</text>
<text text-anchor="middle" x="653.5" y="-252.5" font-family="Helvetica,sans-Serif" font-size="10.00">Service.aggiungi_amico</text>
</a>
</g>
</g>
<!-- Node1&#45;&gt;Node2 -->
<g id="edge1" class="edge"><title>Node1&#45;&gt;Node2</title>
<path fill="none" stroke="midnightblue" d="M836.065,-154.412C814.591,-176.282 774.275,-214.202 733,-236.5 726.731,-239.887 719.916,-242.866 713.008,-245.468"/>
<polygon fill="midnightblue" stroke="midnightblue" points="838.66,-156.764 843.091,-147.14 833.625,-151.9 838.66,-156.764"/>
</g>
<!-- Node6 -->
<g id="node6" class="node"><title>Node6</title>
<g id="a_node6"><a xlink:href="class_word_quizzle_1_1_word_quizzle_server_service.html#a198417a123b189dd75e88d3e969cd11d" target="_top" xlink:title=" ">
<polygon fill="white" stroke="black" points="574,-196.5 574,-226.5 733,-226.5 733,-196.5 574,-196.5"/>
<text text-anchor="start" x="582" y="-214.5" font-family="Helvetica,sans-Serif" font-size="10.00">WordQuizzle.WordQuizzleServer</text>
<text text-anchor="middle" x="653.5" y="-203.5" font-family="Helvetica,sans-Serif" font-size="10.00">Service.lista_amici</text>
</a>
</g>
</g>
<!-- Node1&#45;&gt;Node6 -->
<g id="edge5" class="edge"><title>Node1&#45;&gt;Node6</title>
<path fill="none" stroke="midnightblue" d="M821.959,-151.116C798.096,-161.689 763.743,-176.374 733,-187.5 724.424,-190.604 715.229,-193.656 706.262,-196.488"/>
<polygon fill="midnightblue" stroke="midnightblue" points="823.48,-154.27 831.188,-147 820.629,-147.877 823.48,-154.27"/>
</g>
<!-- Node7 -->
<g id="node7" class="node"><title>Node7</title>
<g id="a_node7"><a xlink:href="class_word_quizzle_1_1_word_quizzle_server_service.html#a5158b145fd600da151cb8206e41b4f1a" target="_top" xlink:title=" ">
<polygon fill="white" stroke="black" points="574,-147.5 574,-177.5 733,-177.5 733,-147.5 574,-147.5"/>
<text text-anchor="start" x="582" y="-165.5" font-family="Helvetica,sans-Serif" font-size="10.00">WordQuizzle.WordQuizzleServer</text>
<text text-anchor="middle" x="653.5" y="-154.5" font-family="Helvetica,sans-Serif" font-size="10.00">Service.login</text>
</a>
</g>
</g>
<!-- Node1&#45;&gt;Node7 -->
<g id="edge7" class="edge"><title>Node1&#45;&gt;Node7</title>
<path fill="none" stroke="midnightblue" d="M766.631,-148.306C755.502,-149.715 744.142,-151.153 733.13,-152.547"/>
<polygon fill="midnightblue" stroke="midnightblue" points="767.289,-151.751 776.77,-147.023 766.41,-144.806 767.289,-151.751"/>
</g>
<!-- Node8 -->
<g id="node8" class="node"><title>Node8</title>
<g id="a_node8"><a xlink:href="class_word_quizzle_1_1_word_quizzle_server_service.html#ad212848f8436aaf885c017463458d2f4" target="_top" xlink:title=" ">
<polygon fill="white" stroke="black" points="574,-98.5 574,-128.5 733,-128.5 733,-98.5 574,-98.5"/>
<text text-anchor="start" x="582" y="-116.5" font-family="Helvetica,sans-Serif" font-size="10.00">WordQuizzle.WordQuizzleServer</text>
<text text-anchor="middle" x="653.5" y="-105.5" font-family="Helvetica,sans-Serif" font-size="10.00">Service.mostra_classifica</text>
</a>
</g>
</g>
<!-- Node1&#45;&gt;Node8 -->
<g id="edge9" class="edge"><title>Node1&#45;&gt;Node8</title>
<path fill="none" stroke="midnightblue" d="M763.562,-126.753C753.399,-125.518 743.09,-124.265 733.069,-123.048"/>
<polygon fill="midnightblue" stroke="midnightblue" points="763.31,-130.248 773.659,-127.98 764.154,-123.299 763.31,-130.248"/>
</g>
<!-- Node9 -->
<g id="node9" class="node"><title>Node9</title>
<g id="a_node9"><a xlink:href="class_word_quizzle_1_1_word_quizzle_server_service.html#a45a270251f3ca3e1595ceddf56fbe041" target="_top" xlink:title=" ">
<polygon fill="white" stroke="black" points="574,-49.5 574,-79.5 733,-79.5 733,-49.5 574,-49.5"/>
<text text-anchor="start" x="582" y="-67.5" font-family="Helvetica,sans-Serif" font-size="10.00">WordQuizzle.WordQuizzleServer</text>
<text text-anchor="middle" x="653.5" y="-56.5" font-family="Helvetica,sans-Serif" font-size="10.00">Service.mostra_punteggio</text>
</a>
</g>
</g>
<!-- Node1&#45;&gt;Node9 -->
<g id="edge11" class="edge"><title>Node1&#45;&gt;Node9</title>
<path fill="none" stroke="midnightblue" d="M820.56,-124.067C796.712,-114.061 763.025,-100.319 733,-89.5 723.581,-86.1059 713.443,-82.6987 703.685,-79.5394"/>
<polygon fill="midnightblue" stroke="midnightblue" points="819.247,-127.312 829.821,-127.972 821.967,-120.862 819.247,-127.312"/>
</g>
<!-- Node10 -->
<g id="node10" class="node"><title>Node10</title>
<g id="a_node10"><a xlink:href="class_word_quizzle_1_1_word_quizzle_server_service.html#aee4ec771e269748e727002f9fa02e8a0" target="_top" xlink:title=" ">
<polygon fill="white" stroke="black" points="574,-0.5 574,-30.5 733,-30.5 733,-0.5 574,-0.5"/>
<text text-anchor="start" x="582" y="-18.5" font-family="Helvetica,sans-Serif" font-size="10.00">WordQuizzle.WordQuizzleServer</text>
<text text-anchor="middle" x="653.5" y="-7.5" font-family="Helvetica,sans-Serif" font-size="10.00">Service.sfida</text>
</a>
</g>
</g>
<!-- Node1&#45;&gt;Node10 -->
<g id="edge13" class="edge"><title>Node1&#45;&gt;Node10</title>
<path fill="none" stroke="midnightblue" d="M835.625,-120.693C813.952,-99.3149 773.709,-62.5342 733,-40.5 726.082,-36.7555 718.513,-33.466 710.892,-30.6088"/>
<polygon fill="midnightblue" stroke="midnightblue" points="833.194,-123.212 842.736,-127.816 838.148,-118.266 833.194,-123.212"/>
</g>
<!-- Node3 -->
<g id="node3" class="node"><title>Node3</title>
<g id="a_node3"><a xlink:href="class_word_quizzle_1_1_session.html#a21992c338367b1a3c2e57fdb7cae3018" target="_top" xlink:title=" ">
<polygon fill="white" stroke="black" points="386,-128 386,-147 538,-147 538,-128 386,-128"/>
<text text-anchor="middle" x="462" y="-135" font-family="Helvetica,sans-Serif" font-size="10.00">WordQuizzle.Session.compute</text>
</a>
</g>
</g>
<!-- Node2&#45;&gt;Node3 -->
<g id="edge2" class="edge"><title>Node2&#45;&gt;Node3</title>
<path fill="none" stroke="midnightblue" d="M583.584,-241.364C580.287,-239.849 577.074,-238.23 574,-236.5 529.892,-211.682 488.258,-166.835 471.165,-147.176"/>
<polygon fill="midnightblue" stroke="midnightblue" points="582.477,-244.695 593.051,-245.358 585.198,-238.246 582.477,-244.695"/>
</g>
<!-- Node4 -->
<g id="node4" class="node"><title>Node4</title>
<g id="a_node4"><a xlink:href="class_word_quizzle_1_1_session.html#a6793f02ea7cab6fffe0361893cf40178" target="_top" xlink:title=" ">
<polygon fill="white" stroke="black" points="212,-128 212,-147 350,-147 350,-128 212,-128"/>
<text text-anchor="middle" x="281" y="-135" font-family="Helvetica,sans-Serif" font-size="10.00">WordQuizzle.Session.parse</text>
</a>
</g>
</g>
<!-- Node3&#45;&gt;Node4 -->
<g id="edge3" class="edge"><title>Node3&#45;&gt;Node4</title>
<path fill="none" stroke="midnightblue" d="M375.793,-137.5C367.175,-137.5 358.505,-137.5 350.101,-137.5"/>
<polygon fill="midnightblue" stroke="midnightblue" points="375.866,-141 385.866,-137.5 375.866,-134 375.866,-141"/>
</g>
<!-- Node5 -->
<g id="node5" class="node"><title>Node5</title>
<g id="a_node5"><a xlink:href="class_word_quizzle_1_1_word_quizzle_server.html#a4aa19bad373d06a790babba1e5b67644" target="_top" xlink:title=" ">
<polygon fill="white" stroke="black" points="0,-128 0,-147 176,-147 176,-128 0,-128"/>
<text text-anchor="middle" x="88" y="-135" font-family="Helvetica,sans-Serif" font-size="10.00">WordQuizzle.WordQuizzleServer.run</text>
</a>
</g>
</g>
<!-- Node4&#45;&gt;Node5 -->
<g id="edge4" class="edge"><title>Node4&#45;&gt;Node5</title>
<path fill="none" stroke="midnightblue" d="M201.692,-137.5C193.27,-137.5 184.665,-137.5 176.149,-137.5"/>
<polygon fill="midnightblue" stroke="midnightblue" points="201.854,-141 211.854,-137.5 201.853,-134 201.854,-141"/>
</g>
<!-- Node6&#45;&gt;Node3 -->
<g id="edge6" class="edge"><title>Node6&#45;&gt;Node3</title>
<path fill="none" stroke="midnightblue" d="M590.018,-193.186C584.571,-191.351 579.168,-189.445 574,-187.5 541.163,-175.141 504.239,-157.787 482.336,-147.112"/>
<polygon fill="midnightblue" stroke="midnightblue" points="589.237,-196.613 599.83,-196.403 591.418,-189.962 589.237,-196.613"/>
</g>
<!-- Node7&#45;&gt;Node3 -->
<g id="edge8" class="edge"><title>Node7&#45;&gt;Node3</title>
<path fill="none" stroke="midnightblue" d="M563.808,-150.799C554.192,-149.531 544.493,-148.251 535.108,-147.013"/>
<polygon fill="midnightblue" stroke="midnightblue" points="563.409,-154.277 573.781,-152.115 564.325,-147.337 563.409,-154.277"/>
</g>
<!-- Node8&#45;&gt;Node3 -->
<g id="edge10" class="edge"><title>Node8&#45;&gt;Node3</title>
<path fill="none" stroke="midnightblue" d="M563.764,-124.738C555.191,-125.824 546.552,-126.918 538.129,-127.985"/>
<polygon fill="midnightblue" stroke="midnightblue" points="564.3,-128.198 573.781,-123.47 563.421,-121.254 564.3,-128.198"/>
</g>
<!-- Node9&#45;&gt;Node3 -->
<g id="edge12" class="edge"><title>Node9&#45;&gt;Node3</title>
<path fill="none" stroke="midnightblue" d="M592.55,-82.9088C586.256,-85.0448 579.977,-87.2621 574,-89.5 541.95,-101.499 505.713,-117.678 483.614,-127.849"/>
<polygon fill="midnightblue" stroke="midnightblue" points="594.027,-86.1061 602.411,-79.628 591.817,-79.4641 594.027,-86.1061"/>
</g>
<!-- Node10&#45;&gt;Node3 -->
<g id="edge14" class="edge"><title>Node10&#45;&gt;Node3</title>
<path fill="none" stroke="midnightblue" d="M586.214,-34.4043C581.998,-36.278 577.89,-38.3075 574,-40.5 530.525,-65.004 488.878,-108.459 471.498,-127.776"/>
<polygon fill="midnightblue" stroke="midnightblue" points="587.66,-37.5942 595.573,-30.5485 584.993,-31.122 587.66,-37.5942"/>
</g>
</g>
</svg>
