<?xml version="1.0" encoding="UTF-8" standalone="no"?>
<!DOCTYPE svg PUBLIC "-//W3C//DTD SVG 1.1//EN"
 "http://www.w3.org/Graphics/SVG/1.1/DTD/svg11.dtd">
<!-- Generated by graphviz version 2.38.0 (20140413.2041)
 -->
<!-- Title: WordQuizzleService.login Pages: 1 -->
<!--zoomable 142 -->
<svg id="main" version="1.1" xmlns="http://www.w3.org/2000/svg" xmlns:xlink="http://www.w3.org/1999/xlink" xml:space="preserve" onload="init(evt)">
<style type="text/css"><![CDATA[
.edge:hover path { stroke: red; }
.edge:hover polygon { stroke: red; fill: red; }
]]></style>
<script type="text/javascript"><![CDATA[
var edges = document.getElementsByTagName('g');
if (edges && edges.length) {
  for (var i=0;i<edges.length;i++) {
    if (edges[i].id.substr(0,4)=='edge') {
      edges[i].setAttribute('class','edge');
    }
  }
}
]]></script>
        <defs>
                <circle id="rim" cx="0" cy="0" r="7"/>
                <circle id="rim2" cx="0" cy="0" r="3.5"/>
                <g id="zoomPlus">
                        <use xlink:href="#rim" fill="#404040">
                                <set attributeName="fill" to="#808080" begin="zoomplus.mouseover" end="zoomplus.mouseout"/>
                        </use>
                        <path d="M-4,0h8M0,-4v8" fill="none" stroke="white" stroke-width="1.5" pointer-events="none"/>
                </g>
                <g id="zoomMin">
                        <use xlink:href="#rim" fill="#404040">
                                <set attributeName="fill" to="#808080" begin="zoomminus.mouseover" end="zoomminus.mouseout"/>
                        </use>
                        <path d="M-4,0h8" fill="none" stroke="white" stroke-width="1.5" pointer-events="none"/>
                </g>
                <g id="dirArrow">
                        <path fill="none" stroke="white" stroke-width="1.5" d="M0,-3.0v7 M-2.5,-0.5L0,-3.0L2.5,-0.5"/>
                </g>
               <g id="resetDef">
                       <use xlink:href="#rim2" fill="#404040">
                               <set attributeName="fill" to="#808080" begin="reset.mouseover" end="reset.mouseout"/>
                       </use>
               </g>
        </defs>

<script type="text/javascript">
var viewWidth = 533;
var viewHeight = 142;
var sectionId = 'dynsection-6';
</script>
<script xlink:href="svgpan.js"/>
<svg id="graph" class="graph">
<g id="viewport">
<title>WordQuizzleService.login</title>
<polygon fill="white" stroke="none" points="-4,4 -4,-138 529,-138 529,4 -4,4"/>
<!-- Node1 -->
<g id="node1" class="node"><title>Node1</title>
<g id="a_node1"><a xlink:title="Effettua il login.">
<polygon fill="#bfbfbf" stroke="black" points="397,-57.5 397,-76.5 525,-76.5 525,-57.5 397,-57.5"/>
<text text-anchor="middle" x="461" y="-64.5" font-family="Helvetica,sans-Serif" font-size="10.00">WordQuizzleService.login</text>
</a>
</g>
</g>
<!-- Node2 -->
<g id="node2" class="node"><title>Node2</title>
<g id="a_node2"><a xlink:href="class_word_quizzle_client.html#ab3dfa5eb3dd327ca00e89b9920125e0e" target="_top" xlink:title="Effettua il login.">
<polygon fill="white" stroke="black" points="240,-57.5 240,-76.5 361,-76.5 361,-57.5 240,-57.5"/>
<text text-anchor="middle" x="300.5" y="-64.5" font-family="Helvetica,sans-Serif" font-size="10.00">WordQuizzleClient.login</text>
</a>
</g>
</g>
<!-- Node1&#45;&gt;Node2 -->
<g id="edge1" class="edge"><title>Node1&#45;&gt;Node2</title>
<path fill="none" stroke="midnightblue" d="M386.828,-67C378.188,-67 369.451,-67 361.031,-67"/>
<polygon fill="midnightblue" stroke="midnightblue" points="386.901,-70.5001 396.901,-67 386.901,-63.5001 386.901,-70.5001"/>
</g>
<!-- Node3 -->
<g id="node3" class="node"><title>Node3</title>
<g id="a_node3"><a xlink:href="class_w_q_gui.html#a7899aa3dee6ed38cba2a6a3f683b4186" target="_top" xlink:title="Crea la finestra di login e registrazione.">
<polygon fill="white" stroke="black" points="105,-114.5 105,-133.5 204,-133.5 204,-114.5 105,-114.5"/>
<text text-anchor="middle" x="154.5" y="-121.5" font-family="Helvetica,sans-Serif" font-size="10.00">WQGui.makeLogin</text>
</a>
</g>
</g>
<!-- Node2&#45;&gt;Node3 -->
<g id="edge2" class="edge"><title>Node2&#45;&gt;Node3</title>
<path fill="none" stroke="midnightblue" d="M266.195,-80.3024C247.855,-87.6152 224.681,-96.8345 204,-105 196.262,-108.055 187.821,-111.368 180.183,-114.36"/>
<polygon fill="midnightblue" stroke="midnightblue" points="267.582,-83.5177 275.573,-76.5615 264.988,-77.0159 267.582,-83.5177"/>
</g>
<!-- Node4 -->
<g id="node4" class="node"><title>Node4</title>
<g id="a_node4"><a xlink:href="class_w_q_cli.html#a69d5ad39deabe879509740cc27efb3f3" target="_top" xlink:title="Gestisce le richieste dell&#39;utente.">
<polygon fill="white" stroke="black" points="118.5,-76.5 118.5,-95.5 190.5,-95.5 190.5,-76.5 118.5,-76.5"/>
<text text-anchor="middle" x="154.5" y="-83.5" font-family="Helvetica,sans-Serif" font-size="10.00">WQCli.parse</text>
</a>
</g>
</g>
<!-- Node2&#45;&gt;Node4 -->
<g id="edge3" class="edge"><title>Node2&#45;&gt;Node4</title>
<path fill="none" stroke="midnightblue" d="M229.431,-76.2452C215.962,-78.0224 202.402,-79.8115 190.64,-81.3635"/>
<polygon fill="midnightblue" stroke="midnightblue" points="230.226,-79.6708 239.682,-74.8926 229.31,-72.7309 230.226,-79.6708"/>
</g>
<!-- Node6 -->
<g id="node6" class="node"><title>Node6</title>
<g id="a_node6"><a xlink:href="class_bot.html#a39bedd8a99e6e57223c433c8197bcb49" target="_top" xlink:title="Avvia il bot.">
<polygon fill="white" stroke="black" points="130.5,-38.5 130.5,-57.5 178.5,-57.5 178.5,-38.5 130.5,-38.5"/>
<text text-anchor="middle" x="154.5" y="-45.5" font-family="Helvetica,sans-Serif" font-size="10.00">Bot.run</text>
</a>
</g>
</g>
<!-- Node2&#45;&gt;Node6 -->
<g id="edge5" class="edge"><title>Node2&#45;&gt;Node6</title>
<path fill="none" stroke="midnightblue" d="M229.534,-57.7683C211.179,-55.3465 192.648,-52.9015 178.717,-51.0634"/>
<polygon fill="midnightblue" stroke="midnightblue" points="229.31,-61.2691 239.682,-59.1074 230.226,-54.3292 229.31,-61.2691"/>
</g>
<!-- Node8 -->
<g id="node8" class="node"><title>Node8</title>
<g id="a_node8"><a xlink:href="class_tester.html#a17bc4081690cf0fa7a13873d06501f6a" target="_top" xlink:title="Esegue un test sul server.">
<polygon fill="white" stroke="black" points="124.5,-0.5 124.5,-19.5 184.5,-19.5 184.5,-0.5 124.5,-0.5"/>
<text text-anchor="middle" x="154.5" y="-7.5" font-family="Helvetica,sans-Serif" font-size="10.00">Tester.run</text>
</a>
</g>
</g>
<!-- Node2&#45;&gt;Node8 -->
<g id="edge7" class="edge"><title>Node2&#45;&gt;Node8</title>
<path fill="none" stroke="midnightblue" d="M266.195,-53.6976C247.855,-46.3848 224.681,-37.1655 204,-29 196.262,-25.9447 187.821,-22.6315 180.183,-19.6404"/>
<polygon fill="midnightblue" stroke="midnightblue" points="264.988,-56.9841 275.573,-57.4385 267.582,-50.4823 264.988,-56.9841"/>
</g>
<!-- Node5 -->
<g id="node5" class="node"><title>Node5</title>
<g id="a_node5"><a xlink:href="class_w_q_cli.html#a13932f1ea4f257ce081aa524f090b6ee" target="_top" xlink:title="Gestisce l&#39;interazione con l&#39;utente.">
<polygon fill="white" stroke="black" points="0,-76.5 0,-95.5 69,-95.5 69,-76.5 0,-76.5"/>
<text text-anchor="middle" x="34.5" y="-83.5" font-family="Helvetica,sans-Serif" font-size="10.00">WQCli.main</text>
</a>
</g>
</g>
<!-- Node4&#45;&gt;Node5 -->
<g id="edge4" class="edge"><title>Node4&#45;&gt;Node5</title>
<path fill="none" stroke="midnightblue" d="M108.22,-86C95.1901,-86 81.2145,-86 69.0317,-86"/>
<polygon fill="midnightblue" stroke="midnightblue" points="108.416,-89.5001 118.416,-86 108.416,-82.5001 108.416,-89.5001"/>
</g>
<!-- Node7 -->
<g id="node7" class="node"><title>Node7</title>
<g id="a_node7"><a xlink:href="class_bot.html#a698976f1ad72fc3c09eff6f887f11d45" target="_top" xlink:title="Esegue un bot.">
<polygon fill="white" stroke="black" points="6.5,-38.5 6.5,-57.5 62.5,-57.5 62.5,-38.5 6.5,-38.5"/>
<text text-anchor="middle" x="34.5" y="-45.5" font-family="Helvetica,sans-Serif" font-size="10.00">Bot.main</text>
</a>
</g>
</g>
<!-- Node6&#45;&gt;Node7 -->
<g id="edge6" class="edge"><title>Node6&#45;&gt;Node7</title>
<path fill="none" stroke="midnightblue" d="M120.284,-48C102.066,-48 79.7665,-48 62.6098,-48"/>
<polygon fill="midnightblue" stroke="midnightblue" points="120.468,-51.5001 130.468,-48 120.468,-44.5001 120.468,-51.5001"/>
</g>
</g>
</svg>
        <g id="navigator" transform="translate(0 0)" fill="#404254">
                <rect fill="#f2f5e9" fill-opacity="0.5" stroke="#606060" stroke-width=".5" x="0" y="0" width="60" height="60"/>
                <use id="zoomplus" xlink:href="#zoomPlus" x="17" y="9" onmousedown="handleZoom(evt,'in')"/>
                <use id="zoomminus" xlink:href="#zoomMin" x="42" y="9" onmousedown="handleZoom(evt,'out')"/>
                <use id="reset" xlink:href="#resetDef" x="30" y="36" onmousedown="handleReset()"/>
                <g id="arrowUp" xlink:href="#dirArrow" transform="translate(30 24)" onmousedown="handlePan(0,-1)">
                  <use xlink:href="#rim" fill="#404040">
                        <set attributeName="fill" to="#808080" begin="arrowUp.mouseover" end="arrowUp.mouseout"/>
                  </use>
                  <path fill="none" stroke="white" stroke-width="1.5" d="M0,-3.0v7 M-2.5,-0.5L0,-3.0L2.5,-0.5"/>
                </g>
                <g id="arrowRight" xlink:href="#dirArrow" transform="rotate(90) translate(36 -43)" onmousedown="handlePan(1,0)">
                  <use xlink:href="#rim" fill="#404040">
                        <set attributeName="fill" to="#808080" begin="arrowRight.mouseover" end="arrowRight.mouseout"/>
                  </use>
                  <path fill="none" stroke="white" stroke-width="1.5" d="M0,-3.0v7 M-2.5,-0.5L0,-3.0L2.5,-0.5"/>
                </g>
                <g id="arrowDown" xlink:href="#dirArrow" transform="rotate(180) translate(-30 -48)" onmousedown="handlePan(0,1)">
                  <use xlink:href="#rim" fill="#404040">
                        <set attributeName="fill" to="#808080" begin="arrowDown.mouseover" end="arrowDown.mouseout"/>
                  </use>
                  <path fill="none" stroke="white" stroke-width="1.5" d="M0,-3.0v7 M-2.5,-0.5L0,-3.0L2.5,-0.5"/>
                </g>
                <g id="arrowLeft" xlink:href="#dirArrow" transform="rotate(270) translate(-36 17)" onmousedown="handlePan(-1,0)">
                  <use xlink:href="#rim" fill="#404040">
                        <set attributeName="fill" to="#808080" begin="arrowLeft.mouseover" end="arrowLeft.mouseout"/>
                  </use>
                  <path fill="none" stroke="white" stroke-width="1.5" d="M0,-3.0v7 M-2.5,-0.5L0,-3.0L2.5,-0.5"/>
                </g>
        </g>
        <svg viewBox="0 0 15 15" width="100%" height="30px" preserveAspectRatio="xMaxYMin meet">
         <g id="arrow_out" transform="scale(0.3 0.3)">
          <a xlink:href="interface_word_quizzle_service_a7d076a6d78b7108aa0d793ea398492f4_icgraph_org.svg" target="_base">
           <rect id="button" ry="5" rx="5" y="6" x="6" height="38" width="38"
                fill="#f2f5e9" fill-opacity="0.5" stroke="#606060" stroke-width="1.0"/>
           <path id="arrow"
             d="M 11.500037,31.436501 C 11.940474,20.09759 22.043105,11.32322 32.158766,21.979434 L 37.068811,17.246167 C 37.068811,17.246167 37.088388,32 37.088388,32 L 22.160133,31.978069 C 22.160133,31.978069 26.997745,27.140456 26.997745,27.140456 C 18.528582,18.264221 13.291696,25.230495 11.500037,31.436501 z"
             style="fill:#404040;"/>
          </a>
         </g>
        </svg>
</svg>
