<?xml version="1.0" encoding="UTF-8" standalone="no"?>
<!DOCTYPE svg PUBLIC "-//W3C//DTD SVG 1.1//EN"
 "http://www.w3.org/Graphics/SVG/1.1/DTD/svg11.dtd">
<!-- Generated by graphviz version 2.38.0 (20140413.2041)
 -->
<!-- Title: DataBase.checkUser Pages: 1 -->
<svg width="718pt" height="313pt"
 viewBox="0.00 0.00 718.00 312.50" xmlns="http://www.w3.org/2000/svg" xmlns:xlink="http://www.w3.org/1999/xlink">
<g id="graph0" class="graph" transform="scale(1 1) rotate(0) translate(4 308.5)">
<title>DataBase.checkUser</title>
<polygon fill="white" stroke="none" points="-4,4 -4,-308.5 714,-308.5 714,4 -4,4"/>
<!-- Node1 -->
<g id="node1" class="node"><title>Node1</title>
<g id="a_node1"><a xlink:title="Controlla che quel nome utente sia nel database.">
<polygon fill="#bfbfbf" stroke="black" points="601,-137.5 601,-156.5 710,-156.5 710,-137.5 601,-137.5"/>
<text text-anchor="middle" x="655.5" y="-144.5" font-family="Helvetica,sans-Serif" font-size="10.00">DataBase.checkUser</text>
</a>
</g>
</g>
<!-- Node2 -->
<g id="node2" class="node"><title>Node2</title>
<g id="a_node2"><a xlink:href="class_word_quizzle_server_service.html#a9b03b4a431c18e8d8385217e3fbd9a0a" target="_top" xlink:title="Accetta una richiesta di sfida inviata da nickAmico.">
<polygon fill="white" stroke="black" points="396.5,-274 396.5,-304 563.5,-304 563.5,-274 396.5,-274"/>
<text text-anchor="start" x="404.5" y="-292" font-family="Helvetica,sans-Serif" font-size="10.00">WordQuizzleServerService.accetta</text>
<text text-anchor="middle" x="480" y="-281" font-family="Helvetica,sans-Serif" font-size="10.00">Sfida</text>
</a>
</g>
</g>
<!-- Node1&#45;&gt;Node2 -->
<g id="edge1" class="edge"><title>Node1&#45;&gt;Node2</title>
<path fill="none" stroke="midnightblue" d="M645.233,-165.845C631.392,-192.029 602.841,-239.106 565,-265 559.993,-268.426 554.5,-271.367 548.795,-273.892"/>
<polygon fill="midnightblue" stroke="midnightblue" points="648.514,-167.117 649.955,-156.621 642.283,-163.928 648.514,-167.117"/>
</g>
<!-- Node7 -->
<g id="node7" class="node"><title>Node7</title>
<g id="a_node7"><a xlink:href="class_word_quizzle_server_service.html#a378a2523ed3c3c05001a6a3f5216ca82" target="_top" xlink:title="Aggiunge un utente alla lista di amici di nickUtente.">
<polygon fill="white" stroke="black" points="395,-225 395,-255 565,-255 565,-225 395,-225"/>
<text text-anchor="start" x="403" y="-243" font-family="Helvetica,sans-Serif" font-size="10.00">WordQuizzleServerService.aggiungi</text>
<text text-anchor="middle" x="480" y="-232" font-family="Helvetica,sans-Serif" font-size="10.00">_amico</text>
</a>
</g>
</g>
<!-- Node1&#45;&gt;Node7 -->
<g id="edge6" class="edge"><title>Node1&#45;&gt;Node7</title>
<path fill="none" stroke="midnightblue" d="M637.121,-163.669C620.022,-179.234 592.544,-202.094 565,-216 558.366,-219.349 551.194,-222.296 543.933,-224.871"/>
<polygon fill="midnightblue" stroke="midnightblue" points="639.694,-166.056 644.636,-156.685 634.928,-160.928 639.694,-166.056"/>
</g>
<!-- Node8 -->
<g id="node8" class="node"><title>Node8</title>
<g id="a_node8"><a xlink:href="class_word_quizzle_server_service.html#a7d1e0c830ff9c94df196ed2d4e49e703" target="_top" xlink:title="Restituisce la lista degli amici di nickUtente.">
<polygon fill="white" stroke="black" points="404,-176 404,-206 556,-206 556,-176 404,-176"/>
<text text-anchor="start" x="412" y="-194" font-family="Helvetica,sans-Serif" font-size="10.00">WordQuizzleServerService.lista</text>
<text text-anchor="middle" x="480" y="-183" font-family="Helvetica,sans-Serif" font-size="10.00">_amici</text>
</a>
</g>
</g>
<!-- Node1&#45;&gt;Node8 -->
<g id="edge8" class="edge"><title>Node1&#45;&gt;Node8</title>
<path fill="none" stroke="midnightblue" d="M607.079,-159.026C586.499,-164.245 562.173,-170.414 540.405,-175.935"/>
<polygon fill="midnightblue" stroke="midnightblue" points="608.02,-162.398 616.853,-156.547 606.3,-155.613 608.02,-162.398"/>
</g>
<!-- Node9 -->
<g id="node9" class="node"><title>Node9</title>
<g id="a_node9"><a xlink:href="class_word_quizzle_server_service.html#afa50bcf7855d98e8198b2021a91326dd" target="_top" xlink:title="Effettua il login specificando l&#39;indirizzo per la connessione UDP.">
<polygon fill="white" stroke="black" points="402.5,-137.5 402.5,-156.5 557.5,-156.5 557.5,-137.5 402.5,-137.5"/>
<text text-anchor="middle" x="480" y="-144.5" font-family="Helvetica,sans-Serif" font-size="10.00">WordQuizzleServerService.login</text>
</a>
</g>
</g>
<!-- Node1&#45;&gt;Node9 -->
<g id="edge10" class="edge"><title>Node1&#45;&gt;Node9</title>
<path fill="none" stroke="midnightblue" d="M590.453,-147C579.734,-147 568.518,-147 557.524,-147"/>
<polygon fill="midnightblue" stroke="midnightblue" points="590.555,-150.5 600.555,-147 590.555,-143.5 590.555,-150.5"/>
</g>
<!-- Node10 -->
<g id="node10" class="node"><title>Node10</title>
<g id="a_node10"><a xlink:href="class_word_quizzle_server_service.html#ad8f2f775c4d322ac50c25dbc2b673505" target="_top" xlink:title="Restituisce la classifica dell&#39;utente e dei suoi amici.">
<polygon fill="white" stroke="black" points="398,-88 398,-118 562,-118 562,-88 398,-88"/>
<text text-anchor="start" x="406" y="-106" font-family="Helvetica,sans-Serif" font-size="10.00">WordQuizzleServerService.mostra</text>
<text text-anchor="middle" x="480" y="-95" font-family="Helvetica,sans-Serif" font-size="10.00">_classifica</text>
</a>
</g>
</g>
<!-- Node1&#45;&gt;Node10 -->
<g id="edge12" class="edge"><title>Node1&#45;&gt;Node10</title>
<path fill="none" stroke="midnightblue" d="M607.079,-134.974C586.499,-129.755 562.173,-123.586 540.405,-118.065"/>
<polygon fill="midnightblue" stroke="midnightblue" points="606.3,-138.387 616.853,-137.453 608.02,-131.602 606.3,-138.387"/>
</g>
<!-- Node11 -->
<g id="node11" class="node"><title>Node11</title>
<g id="a_node11"><a xlink:href="class_word_quizzle_server_service.html#a8002d35c102aec827bb58c4f1ca7b295" target="_top" xlink:title="Restituisce il punteggio di nickUtente.">
<polygon fill="white" stroke="black" points="398,-39 398,-69 562,-69 562,-39 398,-39"/>
<text text-anchor="start" x="406" y="-57" font-family="Helvetica,sans-Serif" font-size="10.00">WordQuizzleServerService.mostra</text>
<text text-anchor="middle" x="480" y="-46" font-family="Helvetica,sans-Serif" font-size="10.00">_punteggio</text>
</a>
</g>
</g>
<!-- Node1&#45;&gt;Node11 -->
<g id="edge14" class="edge"><title>Node1&#45;&gt;Node11</title>
<path fill="none" stroke="midnightblue" d="M636.761,-130.402C619.586,-115.127 592.219,-92.8092 565,-79 557.537,-75.2137 549.403,-71.9004 541.232,-69.0316"/>
<polygon fill="midnightblue" stroke="midnightblue" points="634.57,-133.14 644.328,-137.267 639.273,-127.956 634.57,-133.14"/>
</g>
<!-- Node12 -->
<g id="node12" class="node"><title>Node12</title>
<g id="a_node12"><a xlink:href="class_word_quizzle_server_service.html#afc47f0b66a46f079c4bed5e579e9a173" target="_top" xlink:title="Invia una richiesta di sfida ad un amico di nickUtente.">
<polygon fill="white" stroke="black" points="402.5,-0.5 402.5,-19.5 557.5,-19.5 557.5,-0.5 402.5,-0.5"/>
<text text-anchor="middle" x="480" y="-7.5" font-family="Helvetica,sans-Serif" font-size="10.00">WordQuizzleServerService.sfida</text>
</a>
</g>
</g>
<!-- Node1&#45;&gt;Node12 -->
<g id="edge16" class="edge"><title>Node1&#45;&gt;Node12</title>
<path fill="none" stroke="midnightblue" d="M645.347,-128.082C631.642,-101.841 603.253,-54.8314 565,-30 558.336,-25.674 550.831,-22.282 543.118,-19.6227"/>
<polygon fill="midnightblue" stroke="midnightblue" points="642.386,-129.984 650.017,-137.333 648.635,-126.829 642.386,-129.984"/>
</g>
<!-- Node3 -->
<g id="node3" class="node"><title>Node3</title>
<g id="a_node3"><a xlink:href="class_session.html#a56e3ffab046de2082083cfc54b5d8e72" target="_top" xlink:title="Gestisce effettivamente la richiesta del client.">
<polygon fill="white" stroke="black" points="267,-137.5 267,-156.5 359,-156.5 359,-137.5 267,-137.5"/>
<text text-anchor="middle" x="313" y="-144.5" font-family="Helvetica,sans-Serif" font-size="10.00">Session.compute</text>
</a>
</g>
</g>
<!-- Node2&#45;&gt;Node3 -->
<g id="edge2" class="edge"><title>Node2&#45;&gt;Node3</title>
<path fill="none" stroke="midnightblue" d="M401.559,-269.256C399.294,-267.928 397.101,-266.512 395,-265 354.259,-235.682 327.38,-179.162 317.853,-156.623"/>
<polygon fill="midnightblue" stroke="midnightblue" points="400.116,-272.45 410.604,-273.949 403.339,-266.236 400.116,-272.45"/>
</g>
<!-- Node4 -->
<g id="node4" class="node"><title>Node4</title>
<g id="a_node4"><a xlink:href="class_session.html#a75364929cf1f8f9e75992a8a8c3b589f" target="_top" xlink:title="Riceve una stringa contenente uan richiesta da parte del client e la gestisce.">
<polygon fill="white" stroke="black" points="152,-137.5 152,-156.5 231,-156.5 231,-137.5 152,-137.5"/>
<text text-anchor="middle" x="191.5" y="-144.5" font-family="Helvetica,sans-Serif" font-size="10.00">Session.parse</text>
</a>
</g>
</g>
<!-- Node3&#45;&gt;Node4 -->
<g id="edge3" class="edge"><title>Node3&#45;&gt;Node4</title>
<path fill="none" stroke="midnightblue" d="M256.749,-147C248.081,-147 239.286,-147 231.1,-147"/>
<polygon fill="midnightblue" stroke="midnightblue" points="256.822,-150.5 266.822,-147 256.822,-143.5 256.822,-150.5"/>
</g>
<!-- Node5 -->
<g id="node5" class="node"><title>Node5</title>
<g id="a_node5"><a xlink:href="class_word_quizzle_server.html#a1414f39eeaaf2dbe0885f4d77a12c466" target="_top" xlink:title="Gestisce le interazioni con i client.">
<polygon fill="white" stroke="black" points="0,-156.5 0,-175.5 116,-175.5 116,-156.5 0,-156.5"/>
<text text-anchor="middle" x="58" y="-163.5" font-family="Helvetica,sans-Serif" font-size="10.00">WordQuizzleServer.run</text>
</a>
</g>
</g>
<!-- Node4&#45;&gt;Node5 -->
<g id="edge4" class="edge"><title>Node4&#45;&gt;Node5</title>
<path fill="none" stroke="midnightblue" d="M141.621,-154.062C133.428,-155.246 124.86,-156.484 116.475,-157.696"/>
<polygon fill="midnightblue" stroke="midnightblue" points="142.36,-157.492 151.757,-152.598 141.359,-150.564 142.36,-157.492"/>
</g>
<!-- Node6 -->
<g id="node6" class="node"><title>Node6</title>
<g id="a_node6"><a xlink:href="class_challenge.html#adfd88e7904c2d0954ca82e07890c5ca4" target="_top" xlink:title="Gestisce la sfida.">
<polygon fill="white" stroke="black" points="20,-118.5 20,-137.5 96,-137.5 96,-118.5 20,-118.5"/>
<text text-anchor="middle" x="58" y="-125.5" font-family="Helvetica,sans-Serif" font-size="10.00">Challenge.run</text>
</a>
</g>
</g>
<!-- Node4&#45;&gt;Node6 -->
<g id="edge5" class="edge"><title>Node4&#45;&gt;Node6</title>
<path fill="none" stroke="midnightblue" d="M141.584,-139.932C126.537,-137.758 110.23,-135.402 96.1115,-133.362"/>
<polygon fill="midnightblue" stroke="midnightblue" points="141.359,-143.436 151.757,-141.402 142.36,-136.508 141.359,-143.436"/>
</g>
<!-- Node7&#45;&gt;Node3 -->
<g id="edge7" class="edge"><title>Node7&#45;&gt;Node3</title>
<path fill="none" stroke="midnightblue" d="M405.713,-221.148C402.029,-219.555 398.436,-217.841 395,-216 365.366,-200.12 336.928,-171.944 322.963,-156.982"/>
<polygon fill="midnightblue" stroke="midnightblue" points="404.433,-224.405 415.018,-224.862 407.028,-217.904 404.433,-224.405"/>
</g>
<!-- Node8&#45;&gt;Node3 -->
<g id="edge9" class="edge"><title>Node8&#45;&gt;Node3</title>
<path fill="none" stroke="midnightblue" d="M412.927,-173.381C391.42,-167.645 368.36,-161.496 349.919,-156.578"/>
<polygon fill="midnightblue" stroke="midnightblue" points="412.114,-176.786 422.678,-175.981 413.917,-170.022 412.114,-176.786"/>
</g>
<!-- Node9&#45;&gt;Node3 -->
<g id="edge11" class="edge"><title>Node9&#45;&gt;Node3</title>
<path fill="none" stroke="midnightblue" d="M392.213,-147C380.746,-147 369.389,-147 359.032,-147"/>
<polygon fill="midnightblue" stroke="midnightblue" points="392.297,-150.5 402.297,-147 392.296,-143.5 392.297,-150.5"/>
</g>
<!-- Node10&#45;&gt;Node3 -->
<g id="edge13" class="edge"><title>Node10&#45;&gt;Node3</title>
<path fill="none" stroke="midnightblue" d="M412.927,-120.619C391.42,-126.355 368.36,-132.504 349.919,-137.422"/>
<polygon fill="midnightblue" stroke="midnightblue" points="413.917,-123.978 422.678,-118.019 412.114,-117.214 413.917,-123.978"/>
</g>
<!-- Node11&#45;&gt;Node3 -->
<g id="edge15" class="edge"><title>Node11&#45;&gt;Node3</title>
<path fill="none" stroke="midnightblue" d="M408.226,-72.722C403.665,-74.6411 399.216,-76.7305 395,-79 365.575,-94.8394 337.049,-122.527 323.016,-137.21"/>
<polygon fill="midnightblue" stroke="midnightblue" points="409.665,-75.9175 417.705,-69.0185 407.117,-69.3974 409.665,-75.9175"/>
</g>
<!-- Node12&#45;&gt;Node3 -->
<g id="edge17" class="edge"><title>Node12&#45;&gt;Node3</title>
<path fill="none" stroke="midnightblue" d="M406.326,-23.5634C402.36,-25.4397 398.551,-27.5735 395,-30 353.798,-58.1576 327.186,-114.725 317.792,-137.337"/>
<polygon fill="midnightblue" stroke="midnightblue" points="407.914,-26.6942 415.816,-19.6364 405.238,-20.2261 407.914,-26.6942"/>
</g>
</g>
</svg>
