<?xml version="1.0" encoding="UTF-8" standalone="no"?>
<!DOCTYPE svg PUBLIC "-//W3C//DTD SVG 1.1//EN"
 "http://www.w3.org/Graphics/SVG/1.1/DTD/svg11.dtd">
<!-- Generated by graphviz version 2.38.0 (20140413.2041)
 -->
<!-- Title: DataBase.getUser Pages: 1 -->
<svg width="699pt" height="215pt"
 viewBox="0.00 0.00 699.00 214.50" xmlns="http://www.w3.org/2000/svg" xmlns:xlink="http://www.w3.org/1999/xlink">
<g id="graph0" class="graph" transform="scale(1 1) rotate(0) translate(4 210.5)">
<title>DataBase.getUser</title>
<polygon fill="white" stroke="none" points="-4,4 -4,-210.5 695,-210.5 695,4 -4,4"/>
<!-- Node1 -->
<g id="node1" class="node"><title>Node1</title>
<g id="a_node1"><a xlink:title="Dato un nome utente ottiene l&#39;oggetto User corrispondente.">
<polygon fill="#bfbfbf" stroke="black" points="595,-93.5 595,-112.5 691,-112.5 691,-93.5 595,-93.5"/>
<text text-anchor="middle" x="643" y="-100.5" font-family="Helvetica,sans-Serif" font-size="10.00">DataBase.getUser</text>
</a>
</g>
</g>
<!-- Node2 -->
<g id="node2" class="node"><title>Node2</title>
<g id="a_node2"><a xlink:href="class_word_quizzle_server_service.html#a7d1e0c830ff9c94df196ed2d4e49e703" target="_top" xlink:title=" ">
<polygon fill="white" stroke="black" points="401,-176 401,-206 553,-206 553,-176 401,-176"/>
<text text-anchor="start" x="409" y="-194" font-family="Helvetica,sans-Serif" font-size="10.00">WordQuizzleServerService.lista</text>
<text text-anchor="middle" x="477" y="-183" font-family="Helvetica,sans-Serif" font-size="10.00">_amici</text>
</a>
</g>
</g>
<!-- Node1&#45;&gt;Node2 -->
<g id="edge1" class="edge"><title>Node1&#45;&gt;Node2</title>
<path fill="none" stroke="midnightblue" d="M624.013,-119.644C607.999,-133.696 583.394,-153.476 559,-166 551.668,-169.764 543.668,-173.078 535.643,-175.958"/>
<polygon fill="midnightblue" stroke="midnightblue" points="626.444,-122.165 631.558,-112.886 621.774,-116.951 626.444,-122.165"/>
</g>
<!-- Node6 -->
<g id="node6" class="node"><title>Node6</title>
<g id="a_node6"><a xlink:href="class_word_quizzle_server_service.html#a75f5865caa37a7f0d2c2f5c95940c7d9" target="_top" xlink:title=" ">
<polygon fill="white" stroke="black" points="399.5,-137.5 399.5,-156.5 554.5,-156.5 554.5,-137.5 399.5,-137.5"/>
<text text-anchor="middle" x="477" y="-144.5" font-family="Helvetica,sans-Serif" font-size="10.00">WordQuizzleServerService.login</text>
</a>
</g>
</g>
<!-- Node1&#45;&gt;Node6 -->
<g id="edge5" class="edge"><title>Node1&#45;&gt;Node6</title>
<path fill="none" stroke="midnightblue" d="M602.192,-115.538C588.549,-119.689 573.155,-124.212 559,-128 546.721,-131.286 533.313,-134.558 521.002,-137.437"/>
<polygon fill="midnightblue" stroke="midnightblue" points="603.242,-118.877 611.774,-112.597 601.188,-112.185 603.242,-118.877"/>
</g>
<!-- Node7 -->
<g id="node7" class="node"><title>Node7</title>
<g id="a_node7"><a xlink:href="class_word_quizzle_server_service.html#ad8f2f775c4d322ac50c25dbc2b673505" target="_top" xlink:title=" ">
<polygon fill="white" stroke="black" points="395,-88 395,-118 559,-118 559,-88 395,-88"/>
<text text-anchor="start" x="403" y="-106" font-family="Helvetica,sans-Serif" font-size="10.00">WordQuizzleServerService.mostra</text>
<text text-anchor="middle" x="477" y="-95" font-family="Helvetica,sans-Serif" font-size="10.00">_classifica</text>
</a>
</g>
</g>
<!-- Node1&#45;&gt;Node7 -->
<g id="edge7" class="edge"><title>Node1&#45;&gt;Node7</title>
<path fill="none" stroke="midnightblue" d="M584.374,-103C576.155,-103 567.577,-103 559.013,-103"/>
<polygon fill="midnightblue" stroke="midnightblue" points="584.564,-106.5 594.564,-103 584.564,-99.5001 584.564,-106.5"/>
</g>
<!-- Node8 -->
<g id="node8" class="node"><title>Node8</title>
<g id="a_node8"><a xlink:href="class_word_quizzle_server_service.html#a8002d35c102aec827bb58c4f1ca7b295" target="_top" xlink:title=" ">
<polygon fill="white" stroke="black" points="395,-39 395,-69 559,-69 559,-39 395,-39"/>
<text text-anchor="start" x="403" y="-57" font-family="Helvetica,sans-Serif" font-size="10.00">WordQuizzleServerService.mostra</text>
<text text-anchor="middle" x="477" y="-46" font-family="Helvetica,sans-Serif" font-size="10.00">_punteggio</text>
</a>
</g>
</g>
<!-- Node1&#45;&gt;Node8 -->
<g id="edge8" class="edge"><title>Node1&#45;&gt;Node8</title>
<path fill="none" stroke="midnightblue" d="M600.317,-90.5459C578.411,-84.0008 551.394,-75.9287 528.328,-69.037"/>
<polygon fill="midnightblue" stroke="midnightblue" points="599.406,-93.9267 609.99,-93.436 601.41,-87.2196 599.406,-93.9267"/>
</g>
<!-- Node9 -->
<g id="node9" class="node"><title>Node9</title>
<g id="a_node9"><a xlink:href="class_word_quizzle_server_service.html#afc47f0b66a46f079c4bed5e579e9a173" target="_top" xlink:title=" ">
<polygon fill="white" stroke="black" points="399.5,-0.5 399.5,-19.5 554.5,-19.5 554.5,-0.5 399.5,-0.5"/>
<text text-anchor="middle" x="477" y="-7.5" font-family="Helvetica,sans-Serif" font-size="10.00">WordQuizzleServerService.sfida</text>
</a>
</g>
</g>
<!-- Node1&#45;&gt;Node9 -->
<g id="edge10" class="edge"><title>Node1&#45;&gt;Node9</title>
<path fill="none" stroke="midnightblue" d="M627.172,-85.8548C611.779,-69.1361 586.183,-44.2117 559,-30 550.656,-25.6379 541.328,-22.2015 532.052,-19.502"/>
<polygon fill="midnightblue" stroke="midnightblue" points="624.588,-88.215 633.872,-93.32 629.798,-83.5398 624.588,-88.215"/>
</g>
<!-- Node3 -->
<g id="node3" class="node"><title>Node3</title>
<g id="a_node3"><a xlink:href="class_session.html#a56e3ffab046de2082083cfc54b5d8e72" target="_top" xlink:title=" ">
<polygon fill="white" stroke="black" points="267,-90.5 267,-109.5 359,-109.5 359,-90.5 267,-90.5"/>
<text text-anchor="middle" x="313" y="-97.5" font-family="Helvetica,sans-Serif" font-size="10.00">Session.compute</text>
</a>
</g>
</g>
<!-- Node2&#45;&gt;Node3 -->
<g id="edge2" class="edge"><title>Node2&#45;&gt;Node3</title>
<path fill="none" stroke="midnightblue" d="M408.043,-172.191C403.549,-170.289 399.16,-168.227 395,-166 366.214,-150.589 337.863,-124.22 323.567,-109.922"/>
<polygon fill="midnightblue" stroke="midnightblue" points="406.792,-175.46 417.379,-175.874 409.361,-168.948 406.792,-175.46"/>
</g>
<!-- Node4 -->
<g id="node4" class="node"><title>Node4</title>
<g id="a_node4"><a xlink:href="class_session.html#a75364929cf1f8f9e75992a8a8c3b589f" target="_top" xlink:title=" ">
<polygon fill="white" stroke="black" points="152,-90.5 152,-109.5 231,-109.5 231,-90.5 152,-90.5"/>
<text text-anchor="middle" x="191.5" y="-97.5" font-family="Helvetica,sans-Serif" font-size="10.00">Session.parse</text>
</a>
</g>
</g>
<!-- Node3&#45;&gt;Node4 -->
<g id="edge3" class="edge"><title>Node3&#45;&gt;Node4</title>
<path fill="none" stroke="midnightblue" d="M256.749,-100C248.081,-100 239.286,-100 231.1,-100"/>
<polygon fill="midnightblue" stroke="midnightblue" points="256.822,-103.5 266.822,-100 256.822,-96.5001 256.822,-103.5"/>
</g>
<!-- Node5 -->
<g id="node5" class="node"><title>Node5</title>
<g id="a_node5"><a xlink:href="class_word_quizzle_server.html#a1414f39eeaaf2dbe0885f4d77a12c466" target="_top" xlink:title=" ">
<polygon fill="white" stroke="black" points="0,-90.5 0,-109.5 116,-109.5 116,-90.5 0,-90.5"/>
<text text-anchor="middle" x="58" y="-97.5" font-family="Helvetica,sans-Serif" font-size="10.00">WordQuizzleServer.run</text>
</a>
</g>
</g>
<!-- Node4&#45;&gt;Node5 -->
<g id="edge4" class="edge"><title>Node4&#45;&gt;Node5</title>
<path fill="none" stroke="midnightblue" d="M141.621,-100C133.428,-100 124.86,-100 116.475,-100"/>
<polygon fill="midnightblue" stroke="midnightblue" points="141.757,-103.5 151.757,-100 141.757,-96.5001 141.757,-103.5"/>
</g>
<!-- Node6&#45;&gt;Node3 -->
<g id="edge6" class="edge"><title>Node6&#45;&gt;Node3</title>
<path fill="none" stroke="midnightblue" d="M421.668,-135.065C412.718,-132.868 403.569,-130.479 395,-128 376.133,-122.542 355.188,-115.268 339.323,-109.502"/>
<polygon fill="midnightblue" stroke="midnightblue" points="421.106,-138.53 431.646,-137.46 422.739,-131.723 421.106,-138.53"/>
</g>
<!-- Node8&#45;&gt;Node3 -->
<g id="edge9" class="edge"><title>Node8&#45;&gt;Node3</title>
<path fill="none" stroke="midnightblue" d="M413.217,-71.8272C390.943,-78.152 366.73,-85.0272 347.8,-90.4024"/>
<polygon fill="midnightblue" stroke="midnightblue" points="414.291,-75.1606 422.955,-69.0621 412.379,-68.4268 414.291,-75.1606"/>
</g>
<!-- Node9&#45;&gt;Node3 -->
<g id="edge11" class="edge"><title>Node9&#45;&gt;Node3</title>
<path fill="none" stroke="midnightblue" d="M412.432,-22.6045C406.396,-24.7132 400.488,-27.1612 395,-30 364.625,-45.7125 336.069,-75.0004 322.409,-90.2319"/>
<polygon fill="midnightblue" stroke="midnightblue" points="413.514,-25.9332 421.979,-19.5627 411.389,-19.2635 413.514,-25.9332"/>
</g>
</g>
</svg>
