<?xml version="1.0" encoding="UTF-8" standalone="no"?>
<!DOCTYPE svg PUBLIC "-//W3C//DTD SVG 1.1//EN"
 "http://www.w3.org/Graphics/SVG/1.1/DTD/svg11.dtd">
<!-- Generated by graphviz version 2.38.0 (20140413.2041)
 -->
<!-- Title: WordQuizzle.WordQuizzleService.controllaRichieste Pages: 1 -->
<svg width="759pt" height="142pt"
 viewBox="0.00 0.00 759.00 142.00" xmlns="http://www.w3.org/2000/svg" xmlns:xlink="http://www.w3.org/1999/xlink">
<g id="graph0" class="graph" transform="scale(1 1) rotate(0) translate(4 138)">
<title>WordQuizzle.WordQuizzleService.controllaRichieste</title>
<polygon fill="white" stroke="none" points="-4,4 -4,-138 755,-138 755,4 -4,4"/>
<!-- Node1 -->
<g id="node1" class="node"><title>Node1</title>
<g id="a_node1"><a xlink:title="Verifica se ci sono richieste di sfida per nickUtente.">
<polygon fill="#bfbfbf" stroke="black" points="548,-52 548,-82 751,-82 751,-52 548,-52"/>
<text text-anchor="start" x="556" y="-70" font-family="Helvetica,sans-Serif" font-size="10.00">WordQuizzle.WordQuizzleService.controlla</text>
<text text-anchor="middle" x="649.5" y="-59" font-family="Helvetica,sans-Serif" font-size="10.00">Richieste</text>
</a>
</g>
</g>
<!-- Node2 -->
<g id="node2" class="node"><title>Node2</title>
<g id="a_node2"><a xlink:href="class_word_quizzle_1_1_word_quizzle_client.html#a808fea05e1dc44069f476eebd3a39ada" target="_top" xlink:title="Verifica se ci sono richieste di sfida per user.">
<polygon fill="white" stroke="black" points="315,-52 315,-82 512,-82 512,-52 315,-52"/>
<text text-anchor="start" x="323" y="-70" font-family="Helvetica,sans-Serif" font-size="10.00">WordQuizzle.WordQuizzleClient.controlla</text>
<text text-anchor="middle" x="413.5" y="-59" font-family="Helvetica,sans-Serif" font-size="10.00">Richieste</text>
</a>
</g>
</g>
<!-- Node1&#45;&gt;Node2 -->
<g id="edge1" class="edge"><title>Node1&#45;&gt;Node2</title>
<path fill="none" stroke="midnightblue" d="M537.828,-67C529.216,-67 520.559,-67 512.043,-67"/>
<polygon fill="midnightblue" stroke="midnightblue" points="537.905,-70.5001 547.905,-67 537.905,-63.5001 537.905,-70.5001"/>
</g>
<!-- Node3 -->
<g id="node3" class="node"><title>Node3</title>
<g id="a_node3"><a xlink:href="class_word_quizzle_1_1_w_q_cli.html#a7c2d51051cc7f1b20c57c1424d3b7727" target="_top" xlink:title="Gestisce l&#39;interazione con l&#39;utente.">
<polygon fill="white" stroke="black" points="151,-114.5 151,-133.5 279,-133.5 279,-114.5 151,-114.5"/>
<text text-anchor="middle" x="215" y="-121.5" font-family="Helvetica,sans-Serif" font-size="10.00">WordQuizzle.WQCli.main</text>
</a>
</g>
</g>
<!-- Node2&#45;&gt;Node3 -->
<g id="edge2" class="edge"><title>Node2&#45;&gt;Node3</title>
<path fill="none" stroke="midnightblue" d="M350.85,-84.8831C317.153,-94.6578 276.754,-106.377 249.014,-114.423"/>
<polygon fill="midnightblue" stroke="midnightblue" points="351.986,-88.1981 360.615,-82.0506 350.036,-81.4752 351.986,-88.1981"/>
</g>
<!-- Node4 -->
<g id="node4" class="node"><title>Node4</title>
<g id="a_node4"><a xlink:href="class_word_quizzle_1_1_bot.html#aa088d2cccb4552d9277db7908b7cc706" target="_top" xlink:title="Avvia il bot.">
<polygon fill="white" stroke="black" points="161.5,-76.5 161.5,-95.5 268.5,-95.5 268.5,-76.5 161.5,-76.5"/>
<text text-anchor="middle" x="215" y="-83.5" font-family="Helvetica,sans-Serif" font-size="10.00">WordQuizzle.Bot.run</text>
</a>
</g>
</g>
<!-- Node2&#45;&gt;Node4 -->
<g id="edge3" class="edge"><title>Node2&#45;&gt;Node4</title>
<path fill="none" stroke="midnightblue" d="M304.781,-77.4155C292.293,-78.6231 280.01,-79.8108 268.75,-80.8995"/>
<polygon fill="midnightblue" stroke="midnightblue" points="305.209,-80.8906 314.826,-76.4443 304.535,-73.9231 305.209,-80.8906"/>
</g>
<!-- Node6 -->
<g id="node6" class="node"><title>Node6</title>
<g id="a_node6"><a xlink:href="class_word_quizzle_1_1_tester.html#a374746c9801c5a79f264bac163f0a3ea" target="_top" xlink:title="Esegue un test sul server.">
<polygon fill="white" stroke="black" points="155.5,-38.5 155.5,-57.5 274.5,-57.5 274.5,-38.5 155.5,-38.5"/>
<text text-anchor="middle" x="215" y="-45.5" font-family="Helvetica,sans-Serif" font-size="10.00">WordQuizzle.Tester.run</text>
</a>
</g>
</g>
<!-- Node2&#45;&gt;Node6 -->
<g id="edge5" class="edge"><title>Node2&#45;&gt;Node6</title>
<path fill="none" stroke="midnightblue" d="M304.831,-56.5892C294.435,-55.5841 284.182,-54.5927 274.542,-53.6605"/>
<polygon fill="midnightblue" stroke="midnightblue" points="304.535,-60.0769 314.826,-57.5557 305.209,-53.1094 304.535,-60.0769"/>
</g>
<!-- Node7 -->
<g id="node7" class="node"><title>Node7</title>
<g id="a_node7"><a xlink:href="class_word_quizzle_1_1_notifier.html#ad051f74dab1ae47c4453f9d094b6d0c4" target="_top" xlink:title="Attende l&#39;arrivo di una richiesta e se il client non e&#39; impegnato in una sfida gli notifica la richie...">
<polygon fill="white" stroke="black" points="154,-0.5 154,-19.5 276,-19.5 276,-0.5 154,-0.5"/>
<text text-anchor="middle" x="215" y="-7.5" font-family="Helvetica,sans-Serif" font-size="10.00">WordQuizzle.Notifier.run</text>
</a>
</g>
</g>
<!-- Node2&#45;&gt;Node7 -->
<g id="edge6" class="edge"><title>Node2&#45;&gt;Node7</title>
<path fill="none" stroke="midnightblue" d="M350.85,-49.1169C317.153,-39.3422 276.754,-27.6234 249.014,-19.5765"/>
<polygon fill="midnightblue" stroke="midnightblue" points="350.036,-52.5248 360.615,-51.9494 351.986,-45.8019 350.036,-52.5248"/>
</g>
<!-- Node5 -->
<g id="node5" class="node"><title>Node5</title>
<g id="a_node5"><a xlink:href="class_word_quizzle_1_1_bot.html#a1092df275f21d17d0b0a7edf7bbb59f2" target="_top" xlink:title="Esegue un bot.">
<polygon fill="white" stroke="black" points="0,-76.5 0,-95.5 115,-95.5 115,-76.5 0,-76.5"/>
<text text-anchor="middle" x="57.5" y="-83.5" font-family="Helvetica,sans-Serif" font-size="10.00">WordQuizzle.Bot.main</text>
</a>
</g>
</g>
<!-- Node4&#45;&gt;Node5 -->
<g id="edge4" class="edge"><title>Node4&#45;&gt;Node5</title>
<path fill="none" stroke="midnightblue" d="M151.051,-86C139.153,-86 126.774,-86 115.086,-86"/>
<polygon fill="midnightblue" stroke="midnightblue" points="151.355,-89.5001 161.355,-86 151.355,-82.5001 151.355,-89.5001"/>
</g>
</g>
</svg>
