<?xml version="1.0" encoding="UTF-8" standalone="no"?>
<!DOCTYPE svg PUBLIC "-//W3C//DTD SVG 1.1//EN"
 "http://www.w3.org/Graphics/SVG/1.1/DTD/svg11.dtd">
<!-- Generated by graphviz version 2.38.0 (20140413.2041)
 -->
<!-- Title: DataBase.checkUser Pages: 1 -->
<svg width="718pt" height="264pt"
 viewBox="0.00 0.00 718.00 263.50" xmlns="http://www.w3.org/2000/svg" xmlns:xlink="http://www.w3.org/1999/xlink">
<g id="graph0" class="graph" transform="scale(1 1) rotate(0) translate(4 259.5)">
<title>DataBase.checkUser</title>
<polygon fill="white" stroke="none" points="-4,4 -4,-259.5 714,-259.5 714,4 -4,4"/>
<!-- Node1 -->
<g id="node1" class="node"><title>Node1</title>
<g id="a_node1"><a xlink:title="Controlla che quel nome utente sia nel database.">
<polygon fill="#bfbfbf" stroke="black" points="601,-115.5 601,-134.5 710,-134.5 710,-115.5 601,-115.5"/>
<text text-anchor="middle" x="655.5" y="-122.5" font-family="Helvetica,sans-Serif" font-size="10.00">DataBase.checkUser</text>
</a>
</g>
</g>
<!-- Node2 -->
<g id="node2" class="node"><title>Node2</title>
<g id="a_node2"><a xlink:href="class_word_quizzle_server_service.html#a378a2523ed3c3c05001a6a3f5216ca82" target="_top" xlink:title=" ">
<polygon fill="white" stroke="black" points="395,-225 395,-255 565,-255 565,-225 395,-225"/>
<text text-anchor="start" x="403" y="-243" font-family="Helvetica,sans-Serif" font-size="10.00">WordQuizzleServerService.aggiungi</text>
<text text-anchor="middle" x="480" y="-232" font-family="Helvetica,sans-Serif" font-size="10.00">_amico</text>
</a>
</g>
</g>
<!-- Node1&#45;&gt;Node2 -->
<g id="edge1" class="edge"><title>Node1&#45;&gt;Node2</title>
<path fill="none" stroke="midnightblue" d="M641.669,-142.763C625.886,-163.345 597.196,-196.875 565,-216 559.262,-219.408 553.016,-222.354 546.604,-224.895"/>
<polygon fill="midnightblue" stroke="midnightblue" points="644.614,-144.669 647.798,-134.564 639.007,-140.478 644.614,-144.669"/>
</g>
<!-- Node6 -->
<g id="node6" class="node"><title>Node6</title>
<g id="a_node6"><a xlink:href="class_word_quizzle_server_service.html#a7d1e0c830ff9c94df196ed2d4e49e703" target="_top" xlink:title=" ">
<polygon fill="white" stroke="black" points="404,-176 404,-206 556,-206 556,-176 404,-176"/>
<text text-anchor="start" x="412" y="-194" font-family="Helvetica,sans-Serif" font-size="10.00">WordQuizzleServerService.lista</text>
<text text-anchor="middle" x="480" y="-183" font-family="Helvetica,sans-Serif" font-size="10.00">_amici</text>
</a>
</g>
</g>
<!-- Node1&#45;&gt;Node6 -->
<g id="edge5" class="edge"><title>Node1&#45;&gt;Node6</title>
<path fill="none" stroke="midnightblue" d="M626.562,-139.026C609.122,-147.473 586.059,-158.087 565,-166 555.599,-169.532 545.463,-172.905 535.594,-175.965"/>
<polygon fill="midnightblue" stroke="midnightblue" points="628.183,-142.13 635.624,-134.588 625.104,-135.843 628.183,-142.13"/>
</g>
<!-- Node7 -->
<g id="node7" class="node"><title>Node7</title>
<g id="a_node7"><a xlink:href="class_word_quizzle_server_service.html#a75f5865caa37a7f0d2c2f5c95940c7d9" target="_top" xlink:title=" ">
<polygon fill="white" stroke="black" points="402.5,-137.5 402.5,-156.5 557.5,-156.5 557.5,-137.5 402.5,-137.5"/>
<text text-anchor="middle" x="480" y="-144.5" font-family="Helvetica,sans-Serif" font-size="10.00">WordQuizzleServerService.login</text>
</a>
</g>
</g>
<!-- Node1&#45;&gt;Node7 -->
<g id="edge7" class="edge"><title>Node1&#45;&gt;Node7</title>
<path fill="none" stroke="midnightblue" d="M590.422,-133.125C579.196,-134.549 567.426,-136.041 555.937,-137.498"/>
<polygon fill="midnightblue" stroke="midnightblue" points="591.074,-136.571 600.555,-131.84 590.194,-129.626 591.074,-136.571"/>
</g>
<!-- Node8 -->
<g id="node8" class="node"><title>Node8</title>
<g id="a_node8"><a xlink:href="class_word_quizzle_server_service.html#ad8f2f775c4d322ac50c25dbc2b673505" target="_top" xlink:title=" ">
<polygon fill="white" stroke="black" points="398,-88 398,-118 562,-118 562,-88 398,-88"/>
<text text-anchor="start" x="406" y="-106" font-family="Helvetica,sans-Serif" font-size="10.00">WordQuizzleServerService.mostra</text>
<text text-anchor="middle" x="480" y="-95" font-family="Helvetica,sans-Serif" font-size="10.00">_classifica</text>
</a>
</g>
</g>
<!-- Node1&#45;&gt;Node8 -->
<g id="edge9" class="edge"><title>Node1&#45;&gt;Node8</title>
<path fill="none" stroke="midnightblue" d="M590.398,-116.872C581.245,-115.711 571.73,-114.505 562.301,-113.309"/>
<polygon fill="midnightblue" stroke="midnightblue" points="590.194,-120.374 600.555,-118.16 591.074,-113.429 590.194,-120.374"/>
</g>
<!-- Node9 -->
<g id="node9" class="node"><title>Node9</title>
<g id="a_node9"><a xlink:href="class_word_quizzle_server_service.html#a8002d35c102aec827bb58c4f1ca7b295" target="_top" xlink:title=" ">
<polygon fill="white" stroke="black" points="398,-39 398,-69 562,-69 562,-39 398,-39"/>
<text text-anchor="start" x="406" y="-57" font-family="Helvetica,sans-Serif" font-size="10.00">WordQuizzleServerService.mostra</text>
<text text-anchor="middle" x="480" y="-46" font-family="Helvetica,sans-Serif" font-size="10.00">_punteggio</text>
</a>
</g>
</g>
<!-- Node1&#45;&gt;Node9 -->
<g id="edge10" class="edge"><title>Node1&#45;&gt;Node9</title>
<path fill="none" stroke="midnightblue" d="M629.063,-110.319C611.466,-100.567 587.295,-87.9571 565,-79 556.105,-75.4265 546.501,-72.0978 537.076,-69.1098"/>
<polygon fill="midnightblue" stroke="midnightblue" points="627.676,-113.554 638.109,-115.402 631.105,-107.452 627.676,-113.554"/>
</g>
<!-- Node10 -->
<g id="node10" class="node"><title>Node10</title>
<g id="a_node10"><a xlink:href="class_word_quizzle_server_service.html#afc47f0b66a46f079c4bed5e579e9a173" target="_top" xlink:title=" ">
<polygon fill="white" stroke="black" points="402.5,-0.5 402.5,-19.5 557.5,-19.5 557.5,-0.5 402.5,-0.5"/>
<text text-anchor="middle" x="480" y="-7.5" font-family="Helvetica,sans-Serif" font-size="10.00">WordQuizzleServerService.sfida</text>
</a>
</g>
</g>
<!-- Node1&#45;&gt;Node10 -->
<g id="edge12" class="edge"><title>Node1&#45;&gt;Node10</title>
<path fill="none" stroke="midnightblue" d="M642.678,-107.142C627.373,-85.4822 598.638,-49.4599 565,-30 557.474,-25.646 549.046,-22.2384 540.512,-19.5717"/>
<polygon fill="midnightblue" stroke="midnightblue" points="639.843,-109.196 648.391,-115.456 645.612,-105.232 639.843,-109.196"/>
</g>
<!-- Node3 -->
<g id="node3" class="node"><title>Node3</title>
<g id="a_node3"><a xlink:href="class_session.html#a56e3ffab046de2082083cfc54b5d8e72" target="_top" xlink:title=" ">
<polygon fill="white" stroke="black" points="267,-137.5 267,-156.5 359,-156.5 359,-137.5 267,-137.5"/>
<text text-anchor="middle" x="313" y="-144.5" font-family="Helvetica,sans-Serif" font-size="10.00">Session.compute</text>
</a>
</g>
</g>
<!-- Node2&#45;&gt;Node3 -->
<g id="edge2" class="edge"><title>Node2&#45;&gt;Node3</title>
<path fill="none" stroke="midnightblue" d="M405.713,-221.148C402.029,-219.555 398.436,-217.841 395,-216 365.366,-200.12 336.928,-171.944 322.963,-156.982"/>
<polygon fill="midnightblue" stroke="midnightblue" points="404.433,-224.405 415.018,-224.862 407.028,-217.904 404.433,-224.405"/>
</g>
<!-- Node4 -->
<g id="node4" class="node"><title>Node4</title>
<g id="a_node4"><a xlink:href="class_session.html#a75364929cf1f8f9e75992a8a8c3b589f" target="_top" xlink:title=" ">
<polygon fill="white" stroke="black" points="152,-137.5 152,-156.5 231,-156.5 231,-137.5 152,-137.5"/>
<text text-anchor="middle" x="191.5" y="-144.5" font-family="Helvetica,sans-Serif" font-size="10.00">Session.parse</text>
</a>
</g>
</g>
<!-- Node3&#45;&gt;Node4 -->
<g id="edge3" class="edge"><title>Node3&#45;&gt;Node4</title>
<path fill="none" stroke="midnightblue" d="M256.749,-147C248.081,-147 239.286,-147 231.1,-147"/>
<polygon fill="midnightblue" stroke="midnightblue" points="256.822,-150.5 266.822,-147 256.822,-143.5 256.822,-150.5"/>
</g>
<!-- Node5 -->
<g id="node5" class="node"><title>Node5</title>
<g id="a_node5"><a xlink:href="class_word_quizzle_server.html#a1414f39eeaaf2dbe0885f4d77a12c466" target="_top" xlink:title=" ">
<polygon fill="white" stroke="black" points="0,-137.5 0,-156.5 116,-156.5 116,-137.5 0,-137.5"/>
<text text-anchor="middle" x="58" y="-144.5" font-family="Helvetica,sans-Serif" font-size="10.00">WordQuizzleServer.run</text>
</a>
</g>
</g>
<!-- Node4&#45;&gt;Node5 -->
<g id="edge4" class="edge"><title>Node4&#45;&gt;Node5</title>
<path fill="none" stroke="midnightblue" d="M141.621,-147C133.428,-147 124.86,-147 116.475,-147"/>
<polygon fill="midnightblue" stroke="midnightblue" points="141.757,-150.5 151.757,-147 141.757,-143.5 141.757,-150.5"/>
</g>
<!-- Node6&#45;&gt;Node3 -->
<g id="edge6" class="edge"><title>Node6&#45;&gt;Node3</title>
<path fill="none" stroke="midnightblue" d="M412.927,-173.381C391.42,-167.645 368.36,-161.496 349.919,-156.578"/>
<polygon fill="midnightblue" stroke="midnightblue" points="412.114,-176.786 422.678,-175.981 413.917,-170.022 412.114,-176.786"/>
</g>
<!-- Node7&#45;&gt;Node3 -->
<g id="edge8" class="edge"><title>Node7&#45;&gt;Node3</title>
<path fill="none" stroke="midnightblue" d="M392.213,-147C380.746,-147 369.389,-147 359.032,-147"/>
<polygon fill="midnightblue" stroke="midnightblue" points="392.297,-150.5 402.297,-147 392.296,-143.5 392.297,-150.5"/>
</g>
<!-- Node9&#45;&gt;Node3 -->
<g id="edge11" class="edge"><title>Node9&#45;&gt;Node3</title>
<path fill="none" stroke="midnightblue" d="M408.226,-72.722C403.665,-74.6411 399.216,-76.7305 395,-79 365.575,-94.8394 337.049,-122.527 323.016,-137.21"/>
<polygon fill="midnightblue" stroke="midnightblue" points="409.665,-75.9175 417.705,-69.0185 407.117,-69.3974 409.665,-75.9175"/>
</g>
<!-- Node10&#45;&gt;Node3 -->
<g id="edge13" class="edge"><title>Node10&#45;&gt;Node3</title>
<path fill="none" stroke="midnightblue" d="M406.326,-23.5634C402.36,-25.4397 398.551,-27.5735 395,-30 353.798,-58.1576 327.186,-114.725 317.792,-137.337"/>
<polygon fill="midnightblue" stroke="midnightblue" points="407.914,-26.6942 415.816,-19.6364 405.238,-20.2261 407.914,-26.6942"/>
</g>
</g>
</svg>
