<?xml version="1.0" encoding="UTF-8" standalone="no"?>
<!DOCTYPE svg PUBLIC "-//W3C//DTD SVG 1.1//EN"
 "http://www.w3.org/Graphics/SVG/1.1/DTD/svg11.dtd">
<!-- Generated by graphviz version 2.38.0 (20140413.2041)
 -->
<!-- Title: WordQuizzleService.lista_amici Pages: 1 -->
<svg width="531pt" height="104pt"
 viewBox="0.00 0.00 531.00 104.00" xmlns="http://www.w3.org/2000/svg" xmlns:xlink="http://www.w3.org/1999/xlink">
<g id="graph0" class="graph" transform="scale(1 1) rotate(0) translate(4 100)">
<title>WordQuizzleService.lista_amici</title>
<polygon fill="white" stroke="none" points="-4,4 -4,-100 527,-100 527,4 -4,4"/>
<!-- Node1 -->
<g id="node1" class="node"><title>Node1</title>
<g id="a_node1"><a xlink:title="Richiede la lista degli amici di nickUtente.">
<polygon fill="#bfbfbf" stroke="black" points="398,-33 398,-63 523,-63 523,-33 398,-33"/>
<text text-anchor="start" x="406" y="-51" font-family="Helvetica,sans-Serif" font-size="10.00">WordQuizzleService.lista</text>
<text text-anchor="middle" x="460.5" y="-40" font-family="Helvetica,sans-Serif" font-size="10.00">_amici</text>
</a>
</g>
</g>
<!-- Node2 -->
<g id="node2" class="node"><title>Node2</title>
<g id="a_node2"><a xlink:href="class_word_quizzle_client.html#a5503bd747932abeb7a733b780d31dc19" target="_top" xlink:title="Richiede la lista degli amici di user.">
<polygon fill="white" stroke="black" points="243,-33 243,-63 362,-63 362,-33 243,-33"/>
<text text-anchor="start" x="251" y="-51" font-family="Helvetica,sans-Serif" font-size="10.00">WordQuizzleClient.lista</text>
<text text-anchor="middle" x="302.5" y="-40" font-family="Helvetica,sans-Serif" font-size="10.00">_amici</text>
</a>
</g>
</g>
<!-- Node1&#45;&gt;Node2 -->
<g id="edge1" class="edge"><title>Node1&#45;&gt;Node2</title>
<path fill="none" stroke="midnightblue" d="M387.83,-48C379.238,-48 370.542,-48 362.164,-48"/>
<polygon fill="midnightblue" stroke="midnightblue" points="387.845,-51.5001 397.845,-48 387.845,-44.5001 387.845,-51.5001"/>
</g>
<!-- Node3 -->
<g id="node3" class="node"><title>Node3</title>
<g id="a_node3"><a xlink:href="class_w_q_gui.html#a7627c0d130d7b9a1084bf3c7afb0a055" target="_top" xlink:title="Crea il pannello principale.">
<polygon fill="white" stroke="black" points="105,-76.5 105,-95.5 207,-95.5 207,-76.5 105,-76.5"/>
<text text-anchor="middle" x="156" y="-83.5" font-family="Helvetica,sans-Serif" font-size="10.00">WQGui.makeGame</text>
</a>
</g>
</g>
<!-- Node2&#45;&gt;Node3 -->
<g id="edge2" class="edge"><title>Node2&#45;&gt;Node3</title>
<path fill="none" stroke="midnightblue" d="M234.617,-65.5886C220.397,-69.328 205.899,-73.1408 193.341,-76.4432"/>
<polygon fill="midnightblue" stroke="midnightblue" points="235.609,-68.9469 244.39,-63.0186 233.828,-62.1771 235.609,-68.9469"/>
</g>
<!-- Node4 -->
<g id="node4" class="node"><title>Node4</title>
<g id="a_node4"><a xlink:href="class_w_q_cli.html#a69d5ad39deabe879509740cc27efb3f3" target="_top" xlink:title="Gestisce le richieste dell&#39;utente.">
<polygon fill="white" stroke="black" points="120,-38.5 120,-57.5 192,-57.5 192,-38.5 120,-38.5"/>
<text text-anchor="middle" x="156" y="-45.5" font-family="Helvetica,sans-Serif" font-size="10.00">WQCli.parse</text>
</a>
</g>
</g>
<!-- Node2&#45;&gt;Node4 -->
<g id="edge3" class="edge"><title>Node2&#45;&gt;Node4</title>
<path fill="none" stroke="midnightblue" d="M232.564,-48C218.525,-48 204.319,-48 192.072,-48"/>
<polygon fill="midnightblue" stroke="midnightblue" points="232.726,-51.5001 242.726,-48 232.726,-44.5001 232.726,-51.5001"/>
</g>
<!-- Node6 -->
<g id="node6" class="node"><title>Node6</title>
<g id="a_node6"><a xlink:href="class_tester.html#a17bc4081690cf0fa7a13873d06501f6a" target="_top" xlink:title="Esegue un test sul server.">
<polygon fill="white" stroke="black" points="126,-0.5 126,-19.5 186,-19.5 186,-0.5 126,-0.5"/>
<text text-anchor="middle" x="156" y="-7.5" font-family="Helvetica,sans-Serif" font-size="10.00">Tester.run</text>
</a>
</g>
</g>
<!-- Node2&#45;&gt;Node6 -->
<g id="edge5" class="edge"><title>Node2&#45;&gt;Node6</title>
<path fill="none" stroke="midnightblue" d="M234.504,-30.3817C217.591,-25.9339 200.291,-21.3846 186.34,-17.7156"/>
<polygon fill="midnightblue" stroke="midnightblue" points="233.828,-33.8229 244.39,-32.9814 235.609,-27.0531 233.828,-33.8229"/>
</g>
<!-- Node5 -->
<g id="node5" class="node"><title>Node5</title>
<g id="a_node5"><a xlink:href="class_w_q_cli.html#a13932f1ea4f257ce081aa524f090b6ee" target="_top" xlink:title="Gestisce l&#39;interazione con l&#39;utente.">
<polygon fill="white" stroke="black" points="0,-38.5 0,-57.5 69,-57.5 69,-38.5 0,-38.5"/>
<text text-anchor="middle" x="34.5" y="-45.5" font-family="Helvetica,sans-Serif" font-size="10.00">WQCli.main</text>
</a>
</g>
</g>
<!-- Node4&#45;&gt;Node5 -->
<g id="edge4" class="edge"><title>Node4&#45;&gt;Node5</title>
<path fill="none" stroke="midnightblue" d="M109.758,-48C96.305,-48 81.808,-48 69.2249,-48"/>
<polygon fill="midnightblue" stroke="midnightblue" points="109.792,-51.5001 119.792,-48 109.792,-44.5001 109.792,-51.5001"/>
</g>
</g>
</svg>
