<?xml version="1.0" encoding="UTF-8" standalone="no"?>
<!DOCTYPE svg PUBLIC "-//W3C//DTD SVG 1.1//EN"
 "http://www.w3.org/Graphics/SVG/1.1/DTD/svg11.dtd">
<!-- Generated by graphviz version 2.38.0 (20140413.2041)
 -->
<!-- Title: WordQuizzle.DataBase.getUser Pages: 1 -->
<svg width="932pt" height="284pt"
 viewBox="0.00 0.00 932.00 284.00" xmlns="http://www.w3.org/2000/svg" xmlns:xlink="http://www.w3.org/1999/xlink">
<g id="graph0" class="graph" transform="scale(1 1) rotate(0) translate(4 280)">
<title>WordQuizzle.DataBase.getUser</title>
<polygon fill="white" stroke="none" points="-4,4 -4,-280 928,-280 928,4 -4,4"/>
<!-- Node1 -->
<g id="node1" class="node"><title>Node1</title>
<g id="a_node1"><a xlink:title="Dato un nome utente ottiene l&#39;oggetto User corrispondente.">
<polygon fill="#bfbfbf" stroke="black" points="769,-128 769,-147 924,-147 924,-128 769,-128"/>
<text text-anchor="middle" x="846.5" y="-135" font-family="Helvetica,sans-Serif" font-size="10.00">WordQuizzle.DataBase.getUser</text>
</a>
</g>
</g>
<!-- Node2 -->
<g id="node2" class="node"><title>Node2</title>
<g id="a_node2"><a xlink:href="class_word_quizzle_1_1_word_quizzle_server_service.html#aebc8c566d10a0d24752a33f146f03a2a" target="_top" xlink:title=" ">
<polygon fill="white" stroke="black" points="574,-245.5 574,-275.5 733,-275.5 733,-245.5 574,-245.5"/>
<text text-anchor="start" x="582" y="-263.5" font-family="Helvetica,sans-Serif" font-size="10.00">WordQuizzle.WordQuizzleServer</text>
<text text-anchor="middle" x="653.5" y="-252.5" font-family="Helvetica,sans-Serif" font-size="10.00">Service.accettaSfida</text>
</a>
</g>
</g>
<!-- Node1&#45;&gt;Node2 -->
<g id="edge1" class="edge"><title>Node1&#45;&gt;Node2</title>
<path fill="none" stroke="midnightblue" d="M830.363,-154.75C810.206,-176.716 772.481,-214.459 733,-236.5 726.903,-239.904 720.264,-242.884 713.514,-245.478"/>
<polygon fill="midnightblue" stroke="midnightblue" points="833.1,-156.941 837.195,-147.169 827.9,-152.254 833.1,-156.941"/>
</g>
<!-- Node7 -->
<g id="node7" class="node"><title>Node7</title>
<g id="a_node7"><a xlink:href="class_word_quizzle_1_1_word_quizzle_server_service.html#a198417a123b189dd75e88d3e969cd11d" target="_top" xlink:title=" ">
<polygon fill="white" stroke="black" points="574,-196.5 574,-226.5 733,-226.5 733,-196.5 574,-196.5"/>
<text text-anchor="start" x="582" y="-214.5" font-family="Helvetica,sans-Serif" font-size="10.00">WordQuizzle.WordQuizzleServer</text>
<text text-anchor="middle" x="653.5" y="-203.5" font-family="Helvetica,sans-Serif" font-size="10.00">Service.lista_amici</text>
</a>
</g>
</g>
<!-- Node1&#45;&gt;Node7 -->
<g id="edge6" class="edge"><title>Node1&#45;&gt;Node7</title>
<path fill="none" stroke="midnightblue" d="M816.579,-151.52C794.091,-162.136 761.953,-176.686 733,-187.5 724.723,-190.592 715.85,-193.593 707.157,-196.368"/>
<polygon fill="midnightblue" stroke="midnightblue" points="818.361,-154.549 825.887,-147.091 815.353,-148.228 818.361,-154.549"/>
</g>
<!-- Node8 -->
<g id="node8" class="node"><title>Node8</title>
<g id="a_node8"><a xlink:href="class_word_quizzle_1_1_word_quizzle_server_service.html#a4f338d0b1c7bbf662fc0e40844cf5c33" target="_top" xlink:title=" ">
<polygon fill="white" stroke="black" points="574,-147.5 574,-177.5 733,-177.5 733,-147.5 574,-147.5"/>
<text text-anchor="start" x="582" y="-165.5" font-family="Helvetica,sans-Serif" font-size="10.00">WordQuizzle.WordQuizzleServer</text>
<text text-anchor="middle" x="653.5" y="-154.5" font-family="Helvetica,sans-Serif" font-size="10.00">Service.login</text>
</a>
</g>
</g>
<!-- Node1&#45;&gt;Node8 -->
<g id="edge8" class="edge"><title>Node1&#45;&gt;Node8</title>
<path fill="none" stroke="midnightblue" d="M762.616,-148.349C752.816,-149.631 742.835,-150.938 733.097,-152.212"/>
<polygon fill="midnightblue" stroke="midnightblue" points="763.285,-151.791 772.746,-147.023 762.377,-144.85 763.285,-151.791"/>
</g>
<!-- Node9 -->
<g id="node9" class="node"><title>Node9</title>
<g id="a_node9"><a xlink:href="class_word_quizzle_1_1_word_quizzle_server_service.html#ad212848f8436aaf885c017463458d2f4" target="_top" xlink:title=" ">
<polygon fill="white" stroke="black" points="574,-98.5 574,-128.5 733,-128.5 733,-98.5 574,-98.5"/>
<text text-anchor="start" x="582" y="-116.5" font-family="Helvetica,sans-Serif" font-size="10.00">WordQuizzle.WordQuizzleServer</text>
<text text-anchor="middle" x="653.5" y="-105.5" font-family="Helvetica,sans-Serif" font-size="10.00">Service.mostra_classifica</text>
</a>
</g>
</g>
<!-- Node1&#45;&gt;Node9 -->
<g id="edge10" class="edge"><title>Node1&#45;&gt;Node9</title>
<path fill="none" stroke="midnightblue" d="M759.546,-126.7C750.808,-125.602 741.962,-124.49 733.304,-123.402"/>
<polygon fill="midnightblue" stroke="midnightblue" points="759.379,-130.206 769.737,-127.98 760.252,-123.261 759.379,-130.206"/>
</g>
<!-- Node10 -->
<g id="node10" class="node"><title>Node10</title>
<g id="a_node10"><a xlink:href="class_word_quizzle_1_1_word_quizzle_server_service.html#a45a270251f3ca3e1595ceddf56fbe041" target="_top" xlink:title=" ">
<polygon fill="white" stroke="black" points="574,-49.5 574,-79.5 733,-79.5 733,-49.5 574,-49.5"/>
<text text-anchor="start" x="582" y="-67.5" font-family="Helvetica,sans-Serif" font-size="10.00">WordQuizzle.WordQuizzleServer</text>
<text text-anchor="middle" x="653.5" y="-56.5" font-family="Helvetica,sans-Serif" font-size="10.00">Service.mostra_punteggio</text>
</a>
</g>
</g>
<!-- Node1&#45;&gt;Node10 -->
<g id="edge12" class="edge"><title>Node1&#45;&gt;Node10</title>
<path fill="none" stroke="midnightblue" d="M815.251,-123.668C792.782,-113.621 761.262,-100.003 733,-89.5 723.749,-86.0622 713.782,-82.6615 704.157,-79.5275"/>
<polygon fill="midnightblue" stroke="midnightblue" points="814.036,-126.959 824.592,-127.872 816.909,-120.576 814.036,-126.959"/>
</g>
<!-- Node11 -->
<g id="node11" class="node"><title>Node11</title>
<g id="a_node11"><a xlink:href="class_word_quizzle_1_1_word_quizzle_server_service.html#aee4ec771e269748e727002f9fa02e8a0" target="_top" xlink:title=" ">
<polygon fill="white" stroke="black" points="574,-0.5 574,-30.5 733,-30.5 733,-0.5 574,-0.5"/>
<text text-anchor="start" x="582" y="-18.5" font-family="Helvetica,sans-Serif" font-size="10.00">WordQuizzle.WordQuizzleServer</text>
<text text-anchor="middle" x="653.5" y="-7.5" font-family="Helvetica,sans-Serif" font-size="10.00">Service.sfida</text>
</a>
</g>
</g>
<!-- Node1&#45;&gt;Node11 -->
<g id="edge14" class="edge"><title>Node1&#45;&gt;Node11</title>
<path fill="none" stroke="midnightblue" d="M829.939,-120.357C809.587,-98.8811 771.919,-62.2659 733,-40.5 726.259,-36.73 718.869,-33.4381 711.404,-30.5903"/>
<polygon fill="midnightblue" stroke="midnightblue" points="827.48,-122.852 836.858,-127.783 832.602,-118.081 827.48,-122.852"/>
</g>
<!-- Node3 -->
<g id="node3" class="node"><title>Node3</title>
<g id="a_node3"><a xlink:href="class_word_quizzle_1_1_session.html#a21992c338367b1a3c2e57fdb7cae3018" target="_top" xlink:title="Gestisce effettivamente la richiesta del client.">
<polygon fill="white" stroke="black" points="386,-128 386,-147 538,-147 538,-128 386,-128"/>
<text text-anchor="middle" x="462" y="-135" font-family="Helvetica,sans-Serif" font-size="10.00">WordQuizzle.Session.compute</text>
</a>
</g>
</g>
<!-- Node2&#45;&gt;Node3 -->
<g id="edge2" class="edge"><title>Node2&#45;&gt;Node3</title>
<path fill="none" stroke="midnightblue" d="M583.584,-241.364C580.287,-239.849 577.074,-238.23 574,-236.5 529.892,-211.682 488.258,-166.835 471.165,-147.176"/>
<polygon fill="midnightblue" stroke="midnightblue" points="582.477,-244.695 593.051,-245.358 585.198,-238.246 582.477,-244.695"/>
</g>
<!-- Node4 -->
<g id="node4" class="node"><title>Node4</title>
<g id="a_node4"><a xlink:href="class_word_quizzle_1_1_session.html#a6793f02ea7cab6fffe0361893cf40178" target="_top" xlink:title="Riceve una stringa contenente uan richiesta da parte del client e la gestisce.">
<polygon fill="white" stroke="black" points="212,-128 212,-147 350,-147 350,-128 212,-128"/>
<text text-anchor="middle" x="281" y="-135" font-family="Helvetica,sans-Serif" font-size="10.00">WordQuizzle.Session.parse</text>
</a>
</g>
</g>
<!-- Node3&#45;&gt;Node4 -->
<g id="edge3" class="edge"><title>Node3&#45;&gt;Node4</title>
<path fill="none" stroke="midnightblue" d="M375.793,-137.5C367.175,-137.5 358.505,-137.5 350.101,-137.5"/>
<polygon fill="midnightblue" stroke="midnightblue" points="375.866,-141 385.866,-137.5 375.866,-134 375.866,-141"/>
</g>
<!-- Node5 -->
<g id="node5" class="node"><title>Node5</title>
<g id="a_node5"><a xlink:href="class_word_quizzle_1_1_word_quizzle_server.html#a4aa19bad373d06a790babba1e5b67644" target="_top" xlink:title="Gestisce le interazioni con i client.">
<polygon fill="white" stroke="black" points="0,-147 0,-166 176,-166 176,-147 0,-147"/>
<text text-anchor="middle" x="88" y="-154" font-family="Helvetica,sans-Serif" font-size="10.00">WordQuizzle.WordQuizzleServer.run</text>
</a>
</g>
</g>
<!-- Node4&#45;&gt;Node5 -->
<g id="edge4" class="edge"><title>Node4&#45;&gt;Node5</title>
<path fill="none" stroke="midnightblue" d="M201.692,-145.29C193.27,-146.128 184.665,-146.984 176.149,-147.831"/>
<polygon fill="midnightblue" stroke="midnightblue" points="202.249,-148.752 211.854,-144.279 201.556,-141.786 202.249,-148.752"/>
</g>
<!-- Node6 -->
<g id="node6" class="node"><title>Node6</title>
<g id="a_node6"><a xlink:href="class_word_quizzle_1_1_challenge.html#aa7b93cfc7d1927c0b1c060cc387321b9" target="_top" xlink:title="Gestisce la sfida.">
<polygon fill="white" stroke="black" points="20.5,-109 20.5,-128 155.5,-128 155.5,-109 20.5,-109"/>
<text text-anchor="middle" x="88" y="-116" font-family="Helvetica,sans-Serif" font-size="10.00">WordQuizzle.Challenge.run</text>
</a>
</g>
</g>
<!-- Node4&#45;&gt;Node6 -->
<g id="edge5" class="edge"><title>Node4&#45;&gt;Node6</title>
<path fill="none" stroke="midnightblue" d="M201.853,-129.726C186.473,-128.196 170.471,-126.604 155.517,-125.117"/>
<polygon fill="midnightblue" stroke="midnightblue" points="201.556,-133.214 211.854,-130.721 202.249,-126.248 201.556,-133.214"/>
</g>
<!-- Node7&#45;&gt;Node3 -->
<g id="edge7" class="edge"><title>Node7&#45;&gt;Node3</title>
<path fill="none" stroke="midnightblue" d="M590.018,-193.186C584.571,-191.351 579.168,-189.445 574,-187.5 541.163,-175.141 504.239,-157.787 482.336,-147.112"/>
<polygon fill="midnightblue" stroke="midnightblue" points="589.237,-196.613 599.83,-196.403 591.418,-189.962 589.237,-196.613"/>
</g>
<!-- Node8&#45;&gt;Node3 -->
<g id="edge9" class="edge"><title>Node8&#45;&gt;Node3</title>
<path fill="none" stroke="midnightblue" d="M563.808,-150.799C554.192,-149.531 544.493,-148.251 535.108,-147.013"/>
<polygon fill="midnightblue" stroke="midnightblue" points="563.409,-154.277 573.781,-152.115 564.325,-147.337 563.409,-154.277"/>
</g>
<!-- Node9&#45;&gt;Node3 -->
<g id="edge11" class="edge"><title>Node9&#45;&gt;Node3</title>
<path fill="none" stroke="midnightblue" d="M563.764,-124.738C555.191,-125.824 546.552,-126.918 538.129,-127.985"/>
<polygon fill="midnightblue" stroke="midnightblue" points="564.3,-128.198 573.781,-123.47 563.421,-121.254 564.3,-128.198"/>
</g>
<!-- Node10&#45;&gt;Node3 -->
<g id="edge13" class="edge"><title>Node10&#45;&gt;Node3</title>
<path fill="none" stroke="midnightblue" d="M592.55,-82.9088C586.256,-85.0448 579.977,-87.2621 574,-89.5 541.95,-101.499 505.713,-117.678 483.614,-127.849"/>
<polygon fill="midnightblue" stroke="midnightblue" points="594.027,-86.1061 602.411,-79.628 591.817,-79.4641 594.027,-86.1061"/>
</g>
<!-- Node11&#45;&gt;Node3 -->
<g id="edge15" class="edge"><title>Node11&#45;&gt;Node3</title>
<path fill="none" stroke="midnightblue" d="M586.214,-34.4043C581.998,-36.278 577.89,-38.3075 574,-40.5 530.525,-65.004 488.878,-108.459 471.498,-127.776"/>
<polygon fill="midnightblue" stroke="midnightblue" points="587.66,-37.5942 595.573,-30.5485 584.993,-31.122 587.66,-37.5942"/>
</g>
</g>
</svg>
