<?xml version="1.0" encoding="UTF-8" standalone="no"?>
<!DOCTYPE svg PUBLIC "-//W3C//DTD SVG 1.1//EN"
 "http://www.w3.org/Graphics/SVG/1.1/DTD/svg11.dtd">
<!-- Generated by graphviz version 2.38.0 (20140413.2041)
 -->
<!-- Title: WordQuizzle.DataBase Pages: 1 -->
<svg width="152pt" height="325pt"
 viewBox="0.00 0.00 152.00 325.00" xmlns="http://www.w3.org/2000/svg" xmlns:xlink="http://www.w3.org/1999/xlink">
<g id="graph0" class="graph" transform="scale(1 1) rotate(0) translate(4 321)">
<title>WordQuizzle.DataBase</title>
<polygon fill="white" stroke="none" points="-4,4 -4,-321 148,-321 148,4 -4,4"/>
<!-- Node1 -->
<g id="node1" class="node"><title>Node1</title>
<g id="a_node1"><a xlink:title="Database che gestisce gli utenti.">
<polygon fill="#bfbfbf" stroke="black" points="12.5,-215.5 12.5,-316.5 131.5,-316.5 131.5,-215.5 12.5,-215.5"/>
<text text-anchor="middle" x="72" y="-304.5" font-family="Helvetica,sans-Serif" font-size="10.00">WordQuizzle.DataBase</text>
<polyline fill="none" stroke="black" points="12.5,-297.5 131.5,-297.5 "/>
<text text-anchor="middle" x="72" y="-285.5" font-family="Helvetica,sans-Serif" font-size="10.00"> </text>
<polyline fill="none" stroke="black" points="12.5,-278.5 131.5,-278.5 "/>
<text text-anchor="start" x="20.5" y="-266.5" font-family="Helvetica,sans-Serif" font-size="10.00">+ checkUser()</text>
<text text-anchor="start" x="20.5" y="-255.5" font-family="Helvetica,sans-Serif" font-size="10.00">+ getUser()</text>
<text text-anchor="start" x="20.5" y="-244.5" font-family="Helvetica,sans-Serif" font-size="10.00">+ newUser()</text>
<text text-anchor="start" x="20.5" y="-233.5" font-family="Helvetica,sans-Serif" font-size="10.00">+ modifyScore()</text>
<text text-anchor="start" x="20.5" y="-222.5" font-family="Helvetica,sans-Serif" font-size="10.00">+ link()</text>
</a>
</g>
</g>
<!-- Node2 -->
<g id="node2" class="node"><title>Node2</title>
<g id="a_node2"><a xlink:href="class_word_quizzle_1_1_data_base_j_s_o_n.html" target="_top" xlink:title="Database che gestisce gli utenti tramite un file JSON.">
<polygon fill="white" stroke="black" points="0,-0.5 0,-178.5 144,-178.5 144,-0.5 0,-0.5"/>
<text text-anchor="middle" x="72" y="-166.5" font-family="Helvetica,sans-Serif" font-size="10.00">WordQuizzle.DataBaseJSON</text>
<polyline fill="none" stroke="black" points="0,-159.5 144,-159.5 "/>
<text text-anchor="start" x="8" y="-147.5" font-family="Helvetica,sans-Serif" font-size="10.00">&#45; users</text>
<text text-anchor="start" x="8" y="-136.5" font-family="Helvetica,sans-Serif" font-size="10.00">&#45; path</text>
<text text-anchor="start" x="8" y="-125.5" font-family="Helvetica,sans-Serif" font-size="10.00">&#45; gson</text>
<text text-anchor="start" x="8" y="-114.5" font-family="Helvetica,sans-Serif" font-size="10.00">&#45; type</text>
<polyline fill="none" stroke="black" points="0,-107.5 144,-107.5 "/>
<text text-anchor="start" x="8" y="-95.5" font-family="Helvetica,sans-Serif" font-size="10.00">+ DataBaseJSON()</text>
<text text-anchor="start" x="8" y="-84.5" font-family="Helvetica,sans-Serif" font-size="10.00">+ checkUser()</text>
<text text-anchor="start" x="8" y="-73.5" font-family="Helvetica,sans-Serif" font-size="10.00">+ getUser()</text>
<text text-anchor="start" x="8" y="-62.5" font-family="Helvetica,sans-Serif" font-size="10.00">+ newUser()</text>
<text text-anchor="start" x="8" y="-51.5" font-family="Helvetica,sans-Serif" font-size="10.00">+ modifyScore()</text>
<text text-anchor="start" x="8" y="-40.5" font-family="Helvetica,sans-Serif" font-size="10.00">+ link()</text>
<text text-anchor="start" x="8" y="-29.5" font-family="Helvetica,sans-Serif" font-size="10.00">+ toString()</text>
<text text-anchor="start" x="8" y="-18.5" font-family="Helvetica,sans-Serif" font-size="10.00">&#45; writeJSON()</text>
<text text-anchor="start" x="8" y="-7.5" font-family="Helvetica,sans-Serif" font-size="10.00">&#45; readJSON()</text>
</a>
</g>
</g>
<!-- Node1&#45;&gt;Node2 -->
<g id="edge1" class="edge"><title>Node1&#45;&gt;Node2</title>
<path fill="none" stroke="midnightblue" d="M72,-205.256C72,-196.708 72,-187.767 72,-178.812"/>
<polygon fill="none" stroke="midnightblue" points="68.5001,-205.462 72,-215.462 75.5001,-205.462 68.5001,-205.462"/>
</g>
</g>
</svg>
