<?xml version="1.0" encoding="UTF-8" standalone="no"?>
<!DOCTYPE svg PUBLIC "-//W3C//DTD SVG 1.1//EN"
 "http://www.w3.org/Graphics/SVG/1.1/DTD/svg11.dtd">
<!-- Generated by graphviz version 2.38.0 (20140413.2041)
 -->
<!-- Title: DataBase.getUser Pages: 1 -->
<svg width="702pt" height="264pt"
 viewBox="0.00 0.00 702.00 263.50" xmlns="http://www.w3.org/2000/svg" xmlns:xlink="http://www.w3.org/1999/xlink">
<g id="graph0" class="graph" transform="scale(1 1) rotate(0) translate(4 259.5)">
<title>DataBase.getUser</title>
<polygon fill="white" stroke="none" points="-4,4 -4,-259.5 698,-259.5 698,4 -4,4"/>
<!-- Node1 -->
<g id="node1" class="node"><title>Node1</title>
<g id="a_node1"><a xlink:title="Dato un nome utente ottiene l&#39;oggetto User corrispondente.">
<polygon fill="#bfbfbf" stroke="black" points="598,-115.5 598,-134.5 694,-134.5 694,-115.5 598,-115.5"/>
<text text-anchor="middle" x="646" y="-122.5" font-family="Helvetica,sans-Serif" font-size="10.00">DataBase.getUser</text>
</a>
</g>
</g>
<!-- Node2 -->
<g id="node2" class="node"><title>Node2</title>
<g id="a_node2"><a xlink:href="class_word_quizzle_server_service.html#a9b03b4a431c18e8d8385217e3fbd9a0a" target="_top" xlink:title="Accetta una richiesta di sfida inviata da nickAmico.">
<polygon fill="white" stroke="black" points="395,-225 395,-255 562,-255 562,-225 395,-225"/>
<text text-anchor="start" x="403" y="-243" font-family="Helvetica,sans-Serif" font-size="10.00">WordQuizzleServerService.accetta</text>
<text text-anchor="middle" x="478.5" y="-232" font-family="Helvetica,sans-Serif" font-size="10.00">Sfida</text>
</a>
</g>
</g>
<!-- Node1&#45;&gt;Node2 -->
<g id="edge1" class="edge"><title>Node1&#45;&gt;Node2</title>
<path fill="none" stroke="midnightblue" d="M633.188,-143.046C618.78,-163.656 592.532,-196.976 562,-216 556.556,-219.392 550.613,-222.322 544.493,-224.848"/>
<polygon fill="midnightblue" stroke="midnightblue" points="636.224,-144.806 638.948,-134.567 630.434,-140.872 636.224,-144.806"/>
</g>
<!-- Node7 -->
<g id="node7" class="node"><title>Node7</title>
<g id="a_node7"><a xlink:href="class_word_quizzle_server_service.html#a7d1e0c830ff9c94df196ed2d4e49e703" target="_top" xlink:title="Restituisce la lista degli amici di nickUtente.">
<polygon fill="white" stroke="black" points="402.5,-176 402.5,-206 554.5,-206 554.5,-176 402.5,-176"/>
<text text-anchor="start" x="410.5" y="-194" font-family="Helvetica,sans-Serif" font-size="10.00">WordQuizzleServerService.lista</text>
<text text-anchor="middle" x="478.5" y="-183" font-family="Helvetica,sans-Serif" font-size="10.00">_amici</text>
</a>
</g>
</g>
<!-- Node1&#45;&gt;Node7 -->
<g id="edge6" class="edge"><title>Node1&#45;&gt;Node7</title>
<path fill="none" stroke="midnightblue" d="M618.744,-139.357C602.662,-147.799 581.491,-158.294 562,-166 552.954,-169.577 543.182,-172.949 533.638,-175.99"/>
<polygon fill="midnightblue" stroke="midnightblue" points="620.388,-142.447 627.573,-134.661 617.101,-136.267 620.388,-142.447"/>
</g>
<!-- Node8 -->
<g id="node8" class="node"><title>Node8</title>
<g id="a_node8"><a xlink:href="class_word_quizzle_server_service.html#afa50bcf7855d98e8198b2021a91326dd" target="_top" xlink:title="Effettua il login specificando l&#39;indirizzo per la connessione UDP.">
<polygon fill="white" stroke="black" points="401,-137.5 401,-156.5 556,-156.5 556,-137.5 401,-137.5"/>
<text text-anchor="middle" x="478.5" y="-144.5" font-family="Helvetica,sans-Serif" font-size="10.00">WordQuizzleServerService.login</text>
</a>
</g>
</g>
<!-- Node1&#45;&gt;Node8 -->
<g id="edge8" class="edge"><title>Node1&#45;&gt;Node8</title>
<path fill="none" stroke="midnightblue" d="M587.458,-132.649C575.696,-134.213 563.183,-135.876 551,-137.495"/>
<polygon fill="midnightblue" stroke="midnightblue" points="588.123,-136.092 597.574,-131.304 587.2,-129.153 588.123,-136.092"/>
</g>
<!-- Node9 -->
<g id="node9" class="node"><title>Node9</title>
<g id="a_node9"><a xlink:href="class_word_quizzle_server_service.html#ad8f2f775c4d322ac50c25dbc2b673505" target="_top" xlink:title="Restituisce la classifica dell&#39;utente e dei suoi amici.">
<polygon fill="white" stroke="black" points="396.5,-88 396.5,-118 560.5,-118 560.5,-88 396.5,-88"/>
<text text-anchor="start" x="404.5" y="-106" font-family="Helvetica,sans-Serif" font-size="10.00">WordQuizzleServerService.mostra</text>
<text text-anchor="middle" x="478.5" y="-95" font-family="Helvetica,sans-Serif" font-size="10.00">_classifica</text>
</a>
</g>
</g>
<!-- Node1&#45;&gt;Node9 -->
<g id="edge10" class="edge"><title>Node1&#45;&gt;Node9</title>
<path fill="none" stroke="midnightblue" d="M587.58,-117.367C578.883,-116.211 569.772,-115 560.687,-113.792"/>
<polygon fill="midnightblue" stroke="midnightblue" points="587.2,-120.847 597.574,-118.696 588.123,-113.908 587.2,-120.847"/>
</g>
<!-- Node10 -->
<g id="node10" class="node"><title>Node10</title>
<g id="a_node10"><a xlink:href="class_word_quizzle_server_service.html#a8002d35c102aec827bb58c4f1ca7b295" target="_top" xlink:title="Restituisce il punteggio di nickUtente.">
<polygon fill="white" stroke="black" points="396.5,-39 396.5,-69 560.5,-69 560.5,-39 396.5,-39"/>
<text text-anchor="start" x="404.5" y="-57" font-family="Helvetica,sans-Serif" font-size="10.00">WordQuizzleServerService.mostra</text>
<text text-anchor="middle" x="478.5" y="-46" font-family="Helvetica,sans-Serif" font-size="10.00">_punteggio</text>
</a>
</g>
</g>
<!-- Node1&#45;&gt;Node10 -->
<g id="edge12" class="edge"><title>Node1&#45;&gt;Node10</title>
<path fill="none" stroke="midnightblue" d="M621.08,-109.962C604.855,-100.212 582.675,-87.7449 562,-79 553.454,-75.3853 544.209,-72.0551 535.104,-69.0836"/>
<polygon fill="midnightblue" stroke="midnightblue" points="619.53,-113.117 629.889,-115.34 623.178,-107.142 619.53,-113.117"/>
</g>
<!-- Node11 -->
<g id="node11" class="node"><title>Node11</title>
<g id="a_node11"><a xlink:href="class_word_quizzle_server_service.html#afc47f0b66a46f079c4bed5e579e9a173" target="_top" xlink:title="Invia una richiesta di sfida ad un amico di nickUtente.">
<polygon fill="white" stroke="black" points="401,-0.5 401,-19.5 556,-19.5 556,-0.5 401,-0.5"/>
<text text-anchor="middle" x="478.5" y="-7.5" font-family="Helvetica,sans-Serif" font-size="10.00">WordQuizzleServerService.sfida</text>
</a>
</g>
</g>
<!-- Node1&#45;&gt;Node11 -->
<g id="edge14" class="edge"><title>Node1&#45;&gt;Node11</title>
<path fill="none" stroke="midnightblue" d="M634.151,-106.858C620.215,-85.1747 593.97,-49.3939 562,-30 554.818,-25.643 546.744,-22.2348 538.531,-19.5687"/>
<polygon fill="midnightblue" stroke="midnightblue" points="631.25,-108.821 639.507,-115.46 637.192,-105.121 631.25,-108.821"/>
</g>
<!-- Node3 -->
<g id="node3" class="node"><title>Node3</title>
<g id="a_node3"><a xlink:href="class_session.html#a56e3ffab046de2082083cfc54b5d8e72" target="_top" xlink:title="Gestisce effettivamente la richiesta del client.">
<polygon fill="white" stroke="black" points="267,-115.5 267,-134.5 359,-134.5 359,-115.5 267,-115.5"/>
<text text-anchor="middle" x="313" y="-122.5" font-family="Helvetica,sans-Serif" font-size="10.00">Session.compute</text>
</a>
</g>
</g>
<!-- Node2&#45;&gt;Node3 -->
<g id="edge2" class="edge"><title>Node2&#45;&gt;Node3</title>
<path fill="none" stroke="midnightblue" d="M403.2,-220.651C400.372,-219.207 397.627,-217.659 395,-216 360.307,-194.09 331.679,-153.128 319.847,-134.572"/>
<polygon fill="midnightblue" stroke="midnightblue" points="401.917,-223.913 412.464,-224.917 404.845,-217.555 401.917,-223.913"/>
</g>
<!-- Node4 -->
<g id="node4" class="node"><title>Node4</title>
<g id="a_node4"><a xlink:href="class_session.html#a75364929cf1f8f9e75992a8a8c3b589f" target="_top" xlink:title="Riceve una stringa contenente uan richiesta da parte del client e la gestisce.">
<polygon fill="white" stroke="black" points="152,-115.5 152,-134.5 231,-134.5 231,-115.5 152,-115.5"/>
<text text-anchor="middle" x="191.5" y="-122.5" font-family="Helvetica,sans-Serif" font-size="10.00">Session.parse</text>
</a>
</g>
</g>
<!-- Node3&#45;&gt;Node4 -->
<g id="edge3" class="edge"><title>Node3&#45;&gt;Node4</title>
<path fill="none" stroke="midnightblue" d="M256.749,-125C248.081,-125 239.286,-125 231.1,-125"/>
<polygon fill="midnightblue" stroke="midnightblue" points="256.822,-128.5 266.822,-125 256.822,-121.5 256.822,-128.5"/>
</g>
<!-- Node5 -->
<g id="node5" class="node"><title>Node5</title>
<g id="a_node5"><a xlink:href="class_word_quizzle_server.html#a1414f39eeaaf2dbe0885f4d77a12c466" target="_top" xlink:title="Gestisce le interazioni con i client.">
<polygon fill="white" stroke="black" points="0,-134.5 0,-153.5 116,-153.5 116,-134.5 0,-134.5"/>
<text text-anchor="middle" x="58" y="-141.5" font-family="Helvetica,sans-Serif" font-size="10.00">WordQuizzleServer.run</text>
</a>
</g>
</g>
<!-- Node4&#45;&gt;Node5 -->
<g id="edge4" class="edge"><title>Node4&#45;&gt;Node5</title>
<path fill="none" stroke="midnightblue" d="M141.621,-132.062C133.428,-133.246 124.86,-134.484 116.475,-135.696"/>
<polygon fill="midnightblue" stroke="midnightblue" points="142.36,-135.492 151.757,-130.598 141.359,-128.564 142.36,-135.492"/>
</g>
<!-- Node6 -->
<g id="node6" class="node"><title>Node6</title>
<g id="a_node6"><a xlink:href="class_challenge.html#adfd88e7904c2d0954ca82e07890c5ca4" target="_top" xlink:title="Gestisce la sfida.">
<polygon fill="white" stroke="black" points="20,-96.5 20,-115.5 96,-115.5 96,-96.5 20,-96.5"/>
<text text-anchor="middle" x="58" y="-103.5" font-family="Helvetica,sans-Serif" font-size="10.00">Challenge.run</text>
</a>
</g>
</g>
<!-- Node4&#45;&gt;Node6 -->
<g id="edge5" class="edge"><title>Node4&#45;&gt;Node6</title>
<path fill="none" stroke="midnightblue" d="M141.584,-117.932C126.537,-115.758 110.23,-113.402 96.1115,-111.362"/>
<polygon fill="midnightblue" stroke="midnightblue" points="141.359,-121.436 151.757,-119.402 142.36,-114.508 141.359,-121.436"/>
</g>
<!-- Node7&#45;&gt;Node3 -->
<g id="edge7" class="edge"><title>Node7&#45;&gt;Node3</title>
<path fill="none" stroke="midnightblue" d="M413.164,-172.703C406.974,-170.585 400.834,-168.34 395,-166 372.033,-156.789 346.771,-143.455 330.667,-134.52"/>
<polygon fill="midnightblue" stroke="midnightblue" points="412.299,-176.103 422.893,-175.923 414.499,-169.458 412.299,-176.103"/>
</g>
<!-- Node8&#45;&gt;Node3 -->
<g id="edge9" class="edge"><title>Node8&#45;&gt;Node3</title>
<path fill="none" stroke="midnightblue" d="M396.526,-136.104C383.757,-134.386 370.963,-132.665 359.389,-131.107"/>
<polygon fill="midnightblue" stroke="midnightblue" points="396.36,-139.614 406.737,-137.478 397.294,-132.676 396.36,-139.614"/>
</g>
<!-- Node9&#45;&gt;Node3 -->
<g id="edge11" class="edge"><title>Node9&#45;&gt;Node3</title>
<path fill="none" stroke="midnightblue" d="M386.158,-115.291C376.916,-116.534 367.839,-117.756 359.41,-118.89"/>
<polygon fill="midnightblue" stroke="midnightblue" points="386.785,-118.738 396.229,-113.936 385.852,-111.8 386.785,-118.738"/>
</g>
<!-- Node10&#45;&gt;Node3 -->
<g id="edge13" class="edge"><title>Node10&#45;&gt;Node3</title>
<path fill="none" stroke="midnightblue" d="M412.039,-72.3618C406.216,-74.4373 400.463,-76.6559 395,-79 370.627,-89.4589 344.24,-105.396 328.421,-115.5"/>
<polygon fill="midnightblue" stroke="midnightblue" points="413.531,-75.5507 421.864,-69.007 411.269,-68.9262 413.531,-75.5507"/>
</g>
<!-- Node11&#45;&gt;Node3 -->
<g id="edge15" class="edge"><title>Node11&#45;&gt;Node3</title>
<path fill="none" stroke="midnightblue" d="M408.295,-23.2455C403.656,-25.1958 399.174,-27.4332 395,-30 358.812,-52.2519 330.556,-96.1178 319.299,-115.458"/>
<polygon fill="midnightblue" stroke="midnightblue" points="409.841,-26.4043 417.989,-19.6319 407.396,-19.8452 409.841,-26.4043"/>
</g>
</g>
</svg>
