<?xml version="1.0" encoding="UTF-8" standalone="no"?>
<!DOCTYPE svg PUBLIC "-//W3C//DTD SVG 1.1//EN"
 "http://www.w3.org/Graphics/SVG/1.1/DTD/svg11.dtd">
<!-- Generated by graphviz version 2.38.0 (20140413.2041)
 -->
<!-- Title: WordQuizzle.WordQuizzleService.login Pages: 1 -->
<svg width="769pt" height="142pt"
 viewBox="0.00 0.00 769.00 142.00" xmlns="http://www.w3.org/2000/svg" xmlns:xlink="http://www.w3.org/1999/xlink">
<g id="graph0" class="graph" transform="scale(1 1) rotate(0) translate(4 138)">
<title>WordQuizzle.WordQuizzleService.login</title>
<polygon fill="white" stroke="none" points="-4,4 -4,-138 765,-138 765,4 -4,4"/>
<!-- Node1 -->
<g id="node1" class="node"><title>Node1</title>
<g id="a_node1"><a xlink:title="Effettua il login.">
<polygon fill="#bfbfbf" stroke="black" points="574,-57.5 574,-76.5 761,-76.5 761,-57.5 574,-57.5"/>
<text text-anchor="middle" x="667.5" y="-64.5" font-family="Helvetica,sans-Serif" font-size="10.00">WordQuizzle.WordQuizzleService.login</text>
</a>
</g>
</g>
<!-- Node2 -->
<g id="node2" class="node"><title>Node2</title>
<g id="a_node2"><a xlink:href="class_word_quizzle_1_1_word_quizzle_client.html#aa87c179f3a0a6ab57c2b74960c95a626" target="_top" xlink:title="Effettua il login.">
<polygon fill="white" stroke="black" points="358,-57.5 358,-76.5 538,-76.5 538,-57.5 358,-57.5"/>
<text text-anchor="middle" x="448" y="-64.5" font-family="Helvetica,sans-Serif" font-size="10.00">WordQuizzle.WordQuizzleClient.login</text>
</a>
</g>
</g>
<!-- Node1&#45;&gt;Node2 -->
<g id="edge1" class="edge"><title>Node1&#45;&gt;Node2</title>
<path fill="none" stroke="midnightblue" d="M563.847,-67C555.214,-67 546.529,-67 538.012,-67"/>
<polygon fill="midnightblue" stroke="midnightblue" points="563.945,-70.5001 573.945,-67 563.945,-63.5001 563.945,-70.5001"/>
</g>
<!-- Node3 -->
<g id="node3" class="node"><title>Node3</title>
<g id="a_node3"><a xlink:href="class_word_quizzle_1_1_w_q_gui.html#aad977af8a8393382e53bc94a76605a3b" target="_top" xlink:title="Crea la finestra di login e registrazione.">
<polygon fill="white" stroke="black" points="164,-114.5 164,-133.5 322,-133.5 322,-114.5 164,-114.5"/>
<text text-anchor="middle" x="243" y="-121.5" font-family="Helvetica,sans-Serif" font-size="10.00">WordQuizzle.WQGui.makeLogin</text>
</a>
</g>
</g>
<!-- Node2&#45;&gt;Node3 -->
<g id="edge2" class="edge"><title>Node2&#45;&gt;Node3</title>
<path fill="none" stroke="midnightblue" d="M407.664,-79.5777C383.13,-87.2681 350.843,-97.1096 322,-105 310.035,-108.273 296.962,-111.567 284.998,-114.471"/>
<polygon fill="midnightblue" stroke="midnightblue" points="408.847,-82.8746 417.334,-76.5322 406.744,-76.1979 408.847,-82.8746"/>
</g>
<!-- Node4 -->
<g id="node4" class="node"><title>Node4</title>
<g id="a_node4"><a xlink:href="class_word_quizzle_1_1_w_q_cli.html#a318ef86f91a825da4ff4684bd3332a6b" target="_top" xlink:title="Gestisce le richieste dell&#39;utente.">
<polygon fill="white" stroke="black" points="177.5,-76.5 177.5,-95.5 308.5,-95.5 308.5,-76.5 177.5,-76.5"/>
<text text-anchor="middle" x="243" y="-83.5" font-family="Helvetica,sans-Serif" font-size="10.00">WordQuizzle.WQCli.parse</text>
</a>
</g>
</g>
<!-- Node2&#45;&gt;Node4 -->
<g id="edge3" class="edge"><title>Node2&#45;&gt;Node4</title>
<path fill="none" stroke="midnightblue" d="M347.793,-76.2853C334.464,-77.533 321.081,-78.7855 308.566,-79.9569"/>
<polygon fill="midnightblue" stroke="midnightblue" points="348.331,-79.7504 357.961,-75.3337 347.679,-72.7809 348.331,-79.7504"/>
</g>
<!-- Node6 -->
<g id="node6" class="node"><title>Node6</title>
<g id="a_node6"><a xlink:href="class_word_quizzle_1_1_bot.html#aa088d2cccb4552d9277db7908b7cc706" target="_top" xlink:title="Avvia il bot.">
<polygon fill="white" stroke="black" points="189.5,-38.5 189.5,-57.5 296.5,-57.5 296.5,-38.5 189.5,-38.5"/>
<text text-anchor="middle" x="243" y="-45.5" font-family="Helvetica,sans-Serif" font-size="10.00">WordQuizzle.Bot.run</text>
</a>
</g>
</g>
<!-- Node2&#45;&gt;Node6 -->
<g id="edge5" class="edge"><title>Node2&#45;&gt;Node6</title>
<path fill="none" stroke="midnightblue" d="M347.643,-57.7005C330.074,-56.0561 312.419,-54.4037 296.785,-52.9405"/>
<polygon fill="midnightblue" stroke="midnightblue" points="347.679,-61.2191 357.961,-58.6663 348.331,-54.2496 347.679,-61.2191"/>
</g>
<!-- Node8 -->
<g id="node8" class="node"><title>Node8</title>
<g id="a_node8"><a xlink:href="class_word_quizzle_1_1_tester.html#a374746c9801c5a79f264bac163f0a3ea" target="_top" xlink:title="Esegue un test sul server.">
<polygon fill="white" stroke="black" points="183.5,-0.5 183.5,-19.5 302.5,-19.5 302.5,-0.5 183.5,-0.5"/>
<text text-anchor="middle" x="243" y="-7.5" font-family="Helvetica,sans-Serif" font-size="10.00">WordQuizzle.Tester.run</text>
</a>
</g>
</g>
<!-- Node2&#45;&gt;Node8 -->
<g id="edge7" class="edge"><title>Node2&#45;&gt;Node8</title>
<path fill="none" stroke="midnightblue" d="M407.664,-54.4223C383.13,-46.7319 350.843,-36.8904 322,-29 310.035,-25.7269 296.962,-22.4331 284.998,-19.5288"/>
<polygon fill="midnightblue" stroke="midnightblue" points="406.744,-57.8021 417.334,-57.4678 408.847,-51.1254 406.744,-57.8021"/>
</g>
<!-- Node5 -->
<g id="node5" class="node"><title>Node5</title>
<g id="a_node5"><a xlink:href="class_word_quizzle_1_1_w_q_cli.html#a7c2d51051cc7f1b20c57c1424d3b7727" target="_top" xlink:title="Gestisce l&#39;interazione con l&#39;utente.">
<polygon fill="white" stroke="black" points="0,-76.5 0,-95.5 128,-95.5 128,-76.5 0,-76.5"/>
<text text-anchor="middle" x="64" y="-83.5" font-family="Helvetica,sans-Serif" font-size="10.00">WordQuizzle.WQCli.main</text>
</a>
</g>
</g>
<!-- Node4&#45;&gt;Node5 -->
<g id="edge4" class="edge"><title>Node4&#45;&gt;Node5</title>
<path fill="none" stroke="midnightblue" d="M167.095,-86C154.179,-86 140.867,-86 128.295,-86"/>
<polygon fill="midnightblue" stroke="midnightblue" points="167.348,-89.5001 177.348,-86 167.348,-82.5001 167.348,-89.5001"/>
</g>
<!-- Node7 -->
<g id="node7" class="node"><title>Node7</title>
<g id="a_node7"><a xlink:href="class_word_quizzle_1_1_bot.html#a1092df275f21d17d0b0a7edf7bbb59f2" target="_top" xlink:title="Esegue un bot.">
<polygon fill="white" stroke="black" points="6.5,-38.5 6.5,-57.5 121.5,-57.5 121.5,-38.5 6.5,-38.5"/>
<text text-anchor="middle" x="64" y="-45.5" font-family="Helvetica,sans-Serif" font-size="10.00">WordQuizzle.Bot.main</text>
</a>
</g>
</g>
<!-- Node6&#45;&gt;Node7 -->
<g id="edge6" class="edge"><title>Node6&#45;&gt;Node7</title>
<path fill="none" stroke="midnightblue" d="M179.17,-48C160.449,-48 140.051,-48 121.743,-48"/>
<polygon fill="midnightblue" stroke="midnightblue" points="179.373,-51.5001 189.373,-48 179.373,-44.5001 179.373,-51.5001"/>
</g>
</g>
</svg>
