<?xml version="1.0" encoding="UTF-8" standalone="no"?>
<!DOCTYPE svg PUBLIC "-//W3C//DTD SVG 1.1//EN"
 "http://www.w3.org/Graphics/SVG/1.1/DTD/svg11.dtd">
<!-- Generated by graphviz version 2.38.0 (20140413.2041)
 -->
<!-- Title: WordQuizzleService.logout Pages: 1 -->
<svg width="552pt" height="142pt"
 viewBox="0.00 0.00 552.00 142.00" xmlns="http://www.w3.org/2000/svg" xmlns:xlink="http://www.w3.org/1999/xlink">
<g id="graph0" class="graph" transform="scale(1 1) rotate(0) translate(4 138)">
<title>WordQuizzleService.logout</title>
<polygon fill="white" stroke="none" points="-4,4 -4,-138 548,-138 548,4 -4,4"/>
<!-- Node1 -->
<g id="node1" class="node"><title>Node1</title>
<g id="a_node1"><a xlink:title="Effettua il logout.">
<polygon fill="#bfbfbf" stroke="black" points="410,-57.5 410,-76.5 544,-76.5 544,-57.5 410,-57.5"/>
<text text-anchor="middle" x="477" y="-64.5" font-family="Helvetica,sans-Serif" font-size="10.00">WordQuizzleService.logout</text>
</a>
</g>
</g>
<!-- Node2 -->
<g id="node2" class="node"><title>Node2</title>
<g id="a_node2"><a xlink:href="class_word_quizzle_client.html#ab3b513d94019a6b4350aaa6c92c59136" target="_top" xlink:title="Effettua il logout di user.">
<polygon fill="white" stroke="black" points="247,-57.5 247,-76.5 374,-76.5 374,-57.5 247,-57.5"/>
<text text-anchor="middle" x="310.5" y="-64.5" font-family="Helvetica,sans-Serif" font-size="10.00">WordQuizzleClient.logout</text>
</a>
</g>
</g>
<!-- Node1&#45;&gt;Node2 -->
<g id="edge1" class="edge"><title>Node1&#45;&gt;Node2</title>
<path fill="none" stroke="midnightblue" d="M399.349,-67C390.921,-67 382.415,-67 374.186,-67"/>
<polygon fill="midnightblue" stroke="midnightblue" points="399.566,-70.5001 409.566,-67 399.566,-63.5001 399.566,-70.5001"/>
</g>
<!-- Node3 -->
<g id="node3" class="node"><title>Node3</title>
<g id="a_node3"><a xlink:href="class_w_q_gui.html#a77582f823f634cefe33729509fd9e28f" target="_top" xlink:title="Crea l&#39;interfaccia per la prima volta.">
<polygon fill="white" stroke="black" points="122,-114.5 122,-133.5 198,-133.5 198,-114.5 122,-114.5"/>
<text text-anchor="middle" x="160" y="-121.5" font-family="Helvetica,sans-Serif" font-size="10.00">WQGui.make</text>
</a>
</g>
</g>
<!-- Node2&#45;&gt;Node3 -->
<g id="edge2" class="edge"><title>Node2&#45;&gt;Node3</title>
<path fill="none" stroke="midnightblue" d="M275.409,-80.2005C256.451,-87.5289 232.427,-96.7957 211,-105 202.935,-108.088 194.131,-111.44 186.189,-114.456"/>
<polygon fill="midnightblue" stroke="midnightblue" points="276.756,-83.4322 284.82,-76.5607 274.231,-76.9035 276.756,-83.4322"/>
</g>
<!-- Node5 -->
<g id="node5" class="node"><title>Node5</title>
<g id="a_node5"><a xlink:href="class_w_q_gui.html#a7627c0d130d7b9a1084bf3c7afb0a055" target="_top" xlink:title="Crea il pannello principale.">
<polygon fill="white" stroke="black" points="109,-76.5 109,-95.5 211,-95.5 211,-76.5 109,-76.5"/>
<text text-anchor="middle" x="160" y="-83.5" font-family="Helvetica,sans-Serif" font-size="10.00">WQGui.makeGame</text>
</a>
</g>
</g>
<!-- Node2&#45;&gt;Node5 -->
<g id="edge4" class="edge"><title>Node2&#45;&gt;Node5</title>
<path fill="none" stroke="midnightblue" d="M236.852,-76.2951C228.211,-77.4006 219.542,-78.5097 211.313,-79.5627"/>
<polygon fill="midnightblue" stroke="midnightblue" points="237.478,-79.7435 246.953,-75.0026 236.59,-72.8001 237.478,-79.7435"/>
</g>
<!-- Node6 -->
<g id="node6" class="node"><title>Node6</title>
<g id="a_node6"><a xlink:href="class_w_q_cli.html#a69d5ad39deabe879509740cc27efb3f3" target="_top" xlink:title="Gestisce le richieste dell&#39;utente.">
<polygon fill="white" stroke="black" points="124,-38.5 124,-57.5 196,-57.5 196,-38.5 124,-38.5"/>
<text text-anchor="middle" x="160" y="-45.5" font-family="Helvetica,sans-Serif" font-size="10.00">WQCli.parse</text>
</a>
</g>
</g>
<!-- Node2&#45;&gt;Node6 -->
<g id="edge5" class="edge"><title>Node2&#45;&gt;Node6</title>
<path fill="none" stroke="midnightblue" d="M236.758,-57.6929C222.699,-55.8941 208.568,-54.0861 196.382,-52.527"/>
<polygon fill="midnightblue" stroke="midnightblue" points="236.59,-61.1999 246.953,-58.9974 237.478,-54.2565 236.59,-61.1999"/>
</g>
<!-- Node8 -->
<g id="node8" class="node"><title>Node8</title>
<g id="a_node8"><a xlink:href="class_tester.html#a17bc4081690cf0fa7a13873d06501f6a" target="_top" xlink:title="Esegue un test sul server.">
<polygon fill="white" stroke="black" points="130,-0.5 130,-19.5 190,-19.5 190,-0.5 130,-0.5"/>
<text text-anchor="middle" x="160" y="-7.5" font-family="Helvetica,sans-Serif" font-size="10.00">Tester.run</text>
</a>
</g>
</g>
<!-- Node2&#45;&gt;Node8 -->
<g id="edge7" class="edge"><title>Node2&#45;&gt;Node8</title>
<path fill="none" stroke="midnightblue" d="M275.409,-53.7995C256.451,-46.4711 232.427,-37.2043 211,-29 202.935,-25.9119 194.131,-22.56 186.189,-19.5436"/>
<polygon fill="midnightblue" stroke="midnightblue" points="274.231,-57.0965 284.82,-57.4393 276.756,-50.5678 274.231,-57.0965"/>
</g>
<!-- Node4 -->
<g id="node4" class="node"><title>Node4</title>
<g id="a_node4"><a xlink:href="class_w_q_gui.html#a48d7f8d46048dc649c0e097d26d7d808" target="_top" xlink:title="Avvia l&#39;interfaccia.">
<polygon fill="white" stroke="black" points="0,-114.5 0,-133.5 73,-133.5 73,-114.5 0,-114.5"/>
<text text-anchor="middle" x="36.5" y="-121.5" font-family="Helvetica,sans-Serif" font-size="10.00">WQGui.main</text>
</a>
</g>
</g>
<!-- Node3&#45;&gt;Node4 -->
<g id="edge3" class="edge"><title>Node3&#45;&gt;Node4</title>
<path fill="none" stroke="midnightblue" d="M111.805,-124C98.9473,-124 85.2364,-124 73.1382,-124"/>
<polygon fill="midnightblue" stroke="midnightblue" points="111.886,-127.5 121.886,-124 111.886,-120.5 111.886,-127.5"/>
</g>
<!-- Node7 -->
<g id="node7" class="node"><title>Node7</title>
<g id="a_node7"><a xlink:href="class_w_q_cli.html#a13932f1ea4f257ce081aa524f090b6ee" target="_top" xlink:title="Gestisce l&#39;interazione con l&#39;utente.">
<polygon fill="white" stroke="black" points="2,-38.5 2,-57.5 71,-57.5 71,-38.5 2,-38.5"/>
<text text-anchor="middle" x="36.5" y="-45.5" font-family="Helvetica,sans-Serif" font-size="10.00">WQCli.main</text>
</a>
</g>
</g>
<!-- Node6&#45;&gt;Node7 -->
<g id="edge6" class="edge"><title>Node6&#45;&gt;Node7</title>
<path fill="none" stroke="midnightblue" d="M113.448,-48C99.4734,-48 84.3524,-48 71.3092,-48"/>
<polygon fill="midnightblue" stroke="midnightblue" points="113.857,-51.5001 123.857,-48 113.857,-44.5001 113.857,-51.5001"/>
</g>
</g>
</svg>
