<?xml version="1.0" encoding="UTF-8" standalone="no"?>
<!DOCTYPE svg PUBLIC "-//W3C//DTD SVG 1.1//EN"
 "http://www.w3.org/Graphics/SVG/1.1/DTD/svg11.dtd">
<!-- Generated by graphviz version 2.38.0 (20140413.2041)
 -->
<!-- Title: WordQuizzle.UserRegistry.registra_utente Pages: 1 -->
<svg width="954pt" height="66pt"
 viewBox="0.00 0.00 954.00 66.00" xmlns="http://www.w3.org/2000/svg" xmlns:xlink="http://www.w3.org/1999/xlink">
<g id="graph0" class="graph" transform="scale(1 1) rotate(0) translate(4 62)">
<title>WordQuizzle.UserRegistry.registra_utente</title>
<polygon fill="white" stroke="none" points="-4,4 -4,-62 950,-62 950,4 -4,4"/>
<!-- Node1 -->
<g id="node1" class="node"><title>Node1</title>
<g id="a_node1"><a xlink:title=" ">
<polygon fill="#bfbfbf" stroke="black" points="779,-14 779,-44 946,-44 946,-14 779,-14"/>
<text text-anchor="start" x="787" y="-32" font-family="Helvetica,sans-Serif" font-size="10.00">WordQuizzle.UserRegistry.registra</text>
<text text-anchor="middle" x="862.5" y="-21" font-family="Helvetica,sans-Serif" font-size="10.00">_utente</text>
</a>
</g>
</g>
<!-- Node2 -->
<g id="node2" class="node"><title>Node2</title>
<g id="a_node2"><a xlink:href="class_word_quizzle_1_1_word_quizzle_client_service.html#a613b0b49460f9d115fc6ba4dae066d3a" target="_top" xlink:title=" ">
<polygon fill="white" stroke="black" points="586,-14 586,-44 743,-44 743,-14 586,-14"/>
<text text-anchor="start" x="594" y="-32" font-family="Helvetica,sans-Serif" font-size="10.00">WordQuizzle.WordQuizzleClient</text>
<text text-anchor="middle" x="664.5" y="-21" font-family="Helvetica,sans-Serif" font-size="10.00">Service.registra_utente</text>
</a>
</g>
</g>
<!-- Node1&#45;&gt;Node2 -->
<g id="edge1" class="edge"><title>Node1&#45;&gt;Node2</title>
<path fill="none" stroke="midnightblue" d="M768.914,-29C760.333,-29 751.697,-29 743.269,-29"/>
<polygon fill="midnightblue" stroke="midnightblue" points="768.946,-32.5001 778.946,-29 768.946,-25.5001 768.946,-32.5001"/>
</g>
<!-- Node3 -->
<g id="node3" class="node"><title>Node3</title>
<g id="a_node3"><a xlink:href="class_word_quizzle_1_1_word_quizzle_client.html#a98206956fc50ef3951d27f2a89fb21fa" target="_top" xlink:title=" ">
<polygon fill="white" stroke="black" points="358,-14 358,-44 550,-44 550,-14 358,-14"/>
<text text-anchor="start" x="366" y="-32" font-family="Helvetica,sans-Serif" font-size="10.00">WordQuizzle.WordQuizzleClient.registra</text>
<text text-anchor="middle" x="454" y="-21" font-family="Helvetica,sans-Serif" font-size="10.00">_utente</text>
</a>
</g>
</g>
<!-- Node2&#45;&gt;Node3 -->
<g id="edge2" class="edge"><title>Node2&#45;&gt;Node3</title>
<path fill="none" stroke="midnightblue" d="M575.719,-29C567.332,-29 558.799,-29 550.345,-29"/>
<polygon fill="midnightblue" stroke="midnightblue" points="575.862,-32.5001 585.862,-29 575.862,-25.5001 575.862,-32.5001"/>
</g>
<!-- Node4 -->
<g id="node4" class="node"><title>Node4</title>
<g id="a_node4"><a xlink:href="class_word_quizzle_1_1_w_q_gui.html#aad977af8a8393382e53bc94a76605a3b" target="_top" xlink:title=" ">
<polygon fill="white" stroke="black" points="164,-38.5 164,-57.5 322,-57.5 322,-38.5 164,-38.5"/>
<text text-anchor="middle" x="243" y="-45.5" font-family="Helvetica,sans-Serif" font-size="10.00">WordQuizzle.WQGui.makeLogin</text>
</a>
</g>
</g>
<!-- Node3&#45;&gt;Node4 -->
<g id="edge3" class="edge"><title>Node3&#45;&gt;Node4</title>
<path fill="none" stroke="midnightblue" d="M347.854,-38.5587C339.22,-39.3437 330.591,-40.1281 322.204,-40.8905"/>
<polygon fill="midnightblue" stroke="midnightblue" points="348.337,-42.0293 357.979,-37.6383 347.703,-35.0581 348.337,-42.0293"/>
</g>
<!-- Node5 -->
<g id="node5" class="node"><title>Node5</title>
<g id="a_node5"><a xlink:href="class_word_quizzle_1_1_w_q_cli.html#a318ef86f91a825da4ff4684bd3332a6b" target="_top" xlink:title=" ">
<polygon fill="white" stroke="black" points="177.5,-0.5 177.5,-19.5 308.5,-19.5 308.5,-0.5 177.5,-0.5"/>
<text text-anchor="middle" x="243" y="-7.5" font-family="Helvetica,sans-Serif" font-size="10.00">WordQuizzle.WQCli.parse</text>
</a>
</g>
</g>
<!-- Node3&#45;&gt;Node5 -->
<g id="edge4" class="edge"><title>Node3&#45;&gt;Node5</title>
<path fill="none" stroke="midnightblue" d="M347.768,-19.4335C334.4,-18.2182 321.049,-17.0044 308.588,-15.8716"/>
<polygon fill="midnightblue" stroke="midnightblue" points="347.703,-22.9419 357.979,-20.3617 348.337,-15.9707 347.703,-22.9419"/>
</g>
<!-- Node6 -->
<g id="node6" class="node"><title>Node6</title>
<g id="a_node6"><a xlink:href="class_word_quizzle_1_1_w_q_cli.html#a7c2d51051cc7f1b20c57c1424d3b7727" target="_top" xlink:title=" ">
<polygon fill="white" stroke="black" points="0,-0.5 0,-19.5 128,-19.5 128,-0.5 0,-0.5"/>
<text text-anchor="middle" x="64" y="-7.5" font-family="Helvetica,sans-Serif" font-size="10.00">WordQuizzle.WQCli.main</text>
</a>
</g>
</g>
<!-- Node5&#45;&gt;Node6 -->
<g id="edge5" class="edge"><title>Node5&#45;&gt;Node6</title>
<path fill="none" stroke="midnightblue" d="M167.095,-10C154.179,-10 140.867,-10 128.295,-10"/>
<polygon fill="midnightblue" stroke="midnightblue" points="167.348,-13.5001 177.348,-10 167.348,-6.5001 167.348,-13.5001"/>
</g>
</g>
</svg>
