<?xml version="1.0" encoding="UTF-8" standalone="no"?>
<!DOCTYPE svg PUBLIC "-//W3C//DTD SVG 1.1//EN"
 "http://www.w3.org/Graphics/SVG/1.1/DTD/svg11.dtd">
<!-- Generated by graphviz version 2.38.0 (20140413.2041)
 -->
<!-- Title: WordQuizzle.WordQuizzleService.login Pages: 1 -->
<svg width="769pt" height="104pt"
 viewBox="0.00 0.00 769.00 104.00" xmlns="http://www.w3.org/2000/svg" xmlns:xlink="http://www.w3.org/1999/xlink">
<g id="graph0" class="graph" transform="scale(1 1) rotate(0) translate(4 100)">
<title>WordQuizzle.WordQuizzleService.login</title>
<polygon fill="white" stroke="none" points="-4,4 -4,-100 765,-100 765,4 -4,4"/>
<!-- Node1 -->
<g id="node1" class="node"><title>Node1</title>
<g id="a_node1"><a xlink:title="Effettua il login.">
<polygon fill="#bfbfbf" stroke="black" points="574,-38.5 574,-57.5 761,-57.5 761,-38.5 574,-38.5"/>
<text text-anchor="middle" x="667.5" y="-45.5" font-family="Helvetica,sans-Serif" font-size="10.00">WordQuizzle.WordQuizzleService.login</text>
</a>
</g>
</g>
<!-- Node2 -->
<g id="node2" class="node"><title>Node2</title>
<g id="a_node2"><a xlink:href="class_word_quizzle_1_1_word_quizzle_client.html#aa87c179f3a0a6ab57c2b74960c95a626" target="_top" xlink:title="Effettua il login.">
<polygon fill="white" stroke="black" points="358,-38.5 358,-57.5 538,-57.5 538,-38.5 358,-38.5"/>
<text text-anchor="middle" x="448" y="-45.5" font-family="Helvetica,sans-Serif" font-size="10.00">WordQuizzle.WordQuizzleClient.login</text>
</a>
</g>
</g>
<!-- Node1&#45;&gt;Node2 -->
<g id="edge1" class="edge"><title>Node1&#45;&gt;Node2</title>
<path fill="none" stroke="midnightblue" d="M563.847,-48C555.214,-48 546.529,-48 538.012,-48"/>
<polygon fill="midnightblue" stroke="midnightblue" points="563.945,-51.5001 573.945,-48 563.945,-44.5001 563.945,-51.5001"/>
</g>
<!-- Node3 -->
<g id="node3" class="node"><title>Node3</title>
<g id="a_node3"><a xlink:href="class_word_quizzle_1_1_w_q_gui.html#aad977af8a8393382e53bc94a76605a3b" target="_top" xlink:title="Crea la finestra di login e registrazione.">
<polygon fill="white" stroke="black" points="164,-76.5 164,-95.5 322,-95.5 322,-76.5 164,-76.5"/>
<text text-anchor="middle" x="243" y="-83.5" font-family="Helvetica,sans-Serif" font-size="10.00">WordQuizzle.WQGui.makeLogin</text>
</a>
</g>
</g>
<!-- Node2&#45;&gt;Node3 -->
<g id="edge2" class="edge"><title>Node2&#45;&gt;Node3</title>
<path fill="none" stroke="midnightblue" d="M386.003,-59.4181C356.958,-64.8552 322.618,-71.2832 294.984,-76.4561"/>
<polygon fill="midnightblue" stroke="midnightblue" points="386.851,-62.8202 396.037,-57.54 385.563,-55.9398 386.851,-62.8202"/>
</g>
<!-- Node4 -->
<g id="node4" class="node"><title>Node4</title>
<g id="a_node4"><a xlink:href="class_word_quizzle_1_1_w_q_cli.html#a318ef86f91a825da4ff4684bd3332a6b" target="_top" xlink:title="Gestisce le richieste dell&#39;utente.">
<polygon fill="white" stroke="black" points="177.5,-38.5 177.5,-57.5 308.5,-57.5 308.5,-38.5 177.5,-38.5"/>
<text text-anchor="middle" x="243" y="-45.5" font-family="Helvetica,sans-Serif" font-size="10.00">WordQuizzle.WQCli.parse</text>
</a>
</g>
</g>
<!-- Node2&#45;&gt;Node4 -->
<g id="edge3" class="edge"><title>Node2&#45;&gt;Node4</title>
<path fill="none" stroke="midnightblue" d="M347.793,-48C334.464,-48 321.081,-48 308.566,-48"/>
<polygon fill="midnightblue" stroke="midnightblue" points="347.961,-51.5001 357.961,-48 347.961,-44.5001 347.961,-51.5001"/>
</g>
<!-- Node6 -->
<g id="node6" class="node"><title>Node6</title>
<g id="a_node6"><a xlink:href="class_word_quizzle_1_1_bot.html#aa088d2cccb4552d9277db7908b7cc706" target="_top" xlink:title="Avvia il bot.">
<polygon fill="white" stroke="black" points="189.5,-0.5 189.5,-19.5 296.5,-19.5 296.5,-0.5 189.5,-0.5"/>
<text text-anchor="middle" x="243" y="-7.5" font-family="Helvetica,sans-Serif" font-size="10.00">WordQuizzle.Bot.run</text>
</a>
</g>
</g>
<!-- Node2&#45;&gt;Node6 -->
<g id="edge5" class="edge"><title>Node2&#45;&gt;Node6</title>
<path fill="none" stroke="midnightblue" d="M386.003,-36.5819C356.958,-31.1448 322.618,-24.7168 294.984,-19.5439"/>
<polygon fill="midnightblue" stroke="midnightblue" points="385.563,-40.0602 396.037,-38.46 386.851,-33.1798 385.563,-40.0602"/>
</g>
<!-- Node5 -->
<g id="node5" class="node"><title>Node5</title>
<g id="a_node5"><a xlink:href="class_word_quizzle_1_1_w_q_cli.html#a7c2d51051cc7f1b20c57c1424d3b7727" target="_top" xlink:title="Gestisce l&#39;interazione con l&#39;utente.">
<polygon fill="white" stroke="black" points="0,-38.5 0,-57.5 128,-57.5 128,-38.5 0,-38.5"/>
<text text-anchor="middle" x="64" y="-45.5" font-family="Helvetica,sans-Serif" font-size="10.00">WordQuizzle.WQCli.main</text>
</a>
</g>
</g>
<!-- Node4&#45;&gt;Node5 -->
<g id="edge4" class="edge"><title>Node4&#45;&gt;Node5</title>
<path fill="none" stroke="midnightblue" d="M167.095,-48C154.179,-48 140.867,-48 128.295,-48"/>
<polygon fill="midnightblue" stroke="midnightblue" points="167.348,-51.5001 177.348,-48 167.348,-44.5001 167.348,-51.5001"/>
</g>
<!-- Node7 -->
<g id="node7" class="node"><title>Node7</title>
<g id="a_node7"><a xlink:href="class_word_quizzle_1_1_bot.html#a1092df275f21d17d0b0a7edf7bbb59f2" target="_top" xlink:title="Esegue un bot.">
<polygon fill="white" stroke="black" points="6.5,-0.5 6.5,-19.5 121.5,-19.5 121.5,-0.5 6.5,-0.5"/>
<text text-anchor="middle" x="64" y="-7.5" font-family="Helvetica,sans-Serif" font-size="10.00">WordQuizzle.Bot.main</text>
</a>
</g>
</g>
<!-- Node6&#45;&gt;Node7 -->
<g id="edge6" class="edge"><title>Node6&#45;&gt;Node7</title>
<path fill="none" stroke="midnightblue" d="M179.17,-10C160.449,-10 140.051,-10 121.743,-10"/>
<polygon fill="midnightblue" stroke="midnightblue" points="179.373,-13.5001 189.373,-10 179.373,-6.5001 179.373,-13.5001"/>
</g>
</g>
</svg>
