<?xml version="1.0" encoding="UTF-8" standalone="no"?>
<!DOCTYPE svg PUBLIC "-//W3C//DTD SVG 1.1//EN"
 "http://www.w3.org/Graphics/SVG/1.1/DTD/svg11.dtd">
<!-- Generated by graphviz version 2.38.0 (20140413.2041)
 -->
<!-- Title: WordQuizzleService.controllaRichieste Pages: 1 -->
<svg width="522pt" height="142pt"
 viewBox="0.00 0.00 522.00 142.00" xmlns="http://www.w3.org/2000/svg" xmlns:xlink="http://www.w3.org/1999/xlink">
<g id="graph0" class="graph" transform="scale(1 1) rotate(0) translate(4 138)">
<title>WordQuizzleService.controllaRichieste</title>
<polygon fill="white" stroke="none" points="-4,4 -4,-138 518,-138 518,4 -4,4"/>
<!-- Node1 -->
<g id="node1" class="node"><title>Node1</title>
<g id="a_node1"><a xlink:title="Verifica se ci sono richieste di sfida per nickUtente.">
<polygon fill="#bfbfbf" stroke="black" points="370,-52 370,-82 514,-82 514,-52 370,-52"/>
<text text-anchor="start" x="378" y="-70" font-family="Helvetica,sans-Serif" font-size="10.00">WordQuizzleService.controlla</text>
<text text-anchor="middle" x="442" y="-59" font-family="Helvetica,sans-Serif" font-size="10.00">Richieste</text>
</a>
</g>
</g>
<!-- Node2 -->
<g id="node2" class="node"><title>Node2</title>
<g id="a_node2"><a xlink:href="class_word_quizzle_client.html#aff2ae6478070d04f0864cfffe73e6b27" target="_top" xlink:title="Verifica se ci sono richieste di sfida per user.">
<polygon fill="white" stroke="black" points="197,-52 197,-82 334,-82 334,-52 197,-52"/>
<text text-anchor="start" x="205" y="-70" font-family="Helvetica,sans-Serif" font-size="10.00">WordQuizzleClient.controlla</text>
<text text-anchor="middle" x="265.5" y="-59" font-family="Helvetica,sans-Serif" font-size="10.00">Richieste</text>
</a>
</g>
</g>
<!-- Node1&#45;&gt;Node2 -->
<g id="edge1" class="edge"><title>Node1&#45;&gt;Node2</title>
<path fill="none" stroke="midnightblue" d="M359.757,-67C351.178,-67 342.522,-67 334.121,-67"/>
<polygon fill="midnightblue" stroke="midnightblue" points="359.773,-70.5001 369.772,-67 359.772,-63.5001 359.773,-70.5001"/>
</g>
<!-- Node3 -->
<g id="node3" class="node"><title>Node3</title>
<g id="a_node3"><a xlink:href="class_w_q_cli.html#a13932f1ea4f257ce081aa524f090b6ee" target="_top" xlink:title="Gestisce l&#39;interazione con l&#39;utente.">
<polygon fill="white" stroke="black" points="92,-114.5 92,-133.5 161,-133.5 161,-114.5 92,-114.5"/>
<text text-anchor="middle" x="126.5" y="-121.5" font-family="Helvetica,sans-Serif" font-size="10.00">WQCli.main</text>
</a>
</g>
</g>
<!-- Node2&#45;&gt;Node3 -->
<g id="edge2" class="edge"><title>Node2&#45;&gt;Node3</title>
<path fill="none" stroke="midnightblue" d="M218.631,-86.0843C195.808,-95.5798 169.21,-106.646 150.661,-114.363"/>
<polygon fill="midnightblue" stroke="midnightblue" points="220.258,-89.1982 228.146,-82.1253 217.569,-82.7353 220.258,-89.1982"/>
</g>
<!-- Node4 -->
<g id="node4" class="node"><title>Node4</title>
<g id="a_node4"><a xlink:href="class_bot.html#a39bedd8a99e6e57223c433c8197bcb49" target="_top" xlink:title="Avvia il bot.">
<polygon fill="white" stroke="black" points="102.5,-76.5 102.5,-95.5 150.5,-95.5 150.5,-76.5 102.5,-76.5"/>
<text text-anchor="middle" x="126.5" y="-83.5" font-family="Helvetica,sans-Serif" font-size="10.00">Bot.run</text>
</a>
</g>
</g>
<!-- Node2&#45;&gt;Node4 -->
<g id="edge3" class="edge"><title>Node2&#45;&gt;Node4</title>
<path fill="none" stroke="midnightblue" d="M186.722,-77.7867C173.614,-79.6046 160.969,-81.3584 150.752,-82.7752"/>
<polygon fill="midnightblue" stroke="midnightblue" points="187.378,-81.2293 196.803,-76.3887 186.417,-74.2957 187.378,-81.2293"/>
</g>
<!-- Node6 -->
<g id="node6" class="node"><title>Node6</title>
<g id="a_node6"><a xlink:href="class_tester.html#a17bc4081690cf0fa7a13873d06501f6a" target="_top" xlink:title="Esegue un test sul server.">
<polygon fill="white" stroke="black" points="96.5,-38.5 96.5,-57.5 156.5,-57.5 156.5,-38.5 96.5,-38.5"/>
<text text-anchor="middle" x="126.5" y="-45.5" font-family="Helvetica,sans-Serif" font-size="10.00">Tester.run</text>
</a>
</g>
</g>
<!-- Node2&#45;&gt;Node6 -->
<g id="edge5" class="edge"><title>Node2&#45;&gt;Node6</title>
<path fill="none" stroke="midnightblue" d="M186.872,-56.2341C176.119,-54.7428 165.671,-53.2938 156.614,-52.0378"/>
<polygon fill="midnightblue" stroke="midnightblue" points="186.417,-59.7043 196.803,-57.6113 187.378,-52.7707 186.417,-59.7043"/>
</g>
<!-- Node7 -->
<g id="node7" class="node"><title>Node7</title>
<g id="a_node7"><a xlink:href="class_notifier.html#a1e6abba853ca6fe241ce37a988ee818f" target="_top" xlink:title="Attende l&#39;arrivo di una richiesta e se il client non e&#39; impegnato in una sfida gli notifica la richie...">
<polygon fill="white" stroke="black" points="95,-0.5 95,-19.5 158,-19.5 158,-0.5 95,-0.5"/>
<text text-anchor="middle" x="126.5" y="-7.5" font-family="Helvetica,sans-Serif" font-size="10.00">Notifier.run</text>
</a>
</g>
</g>
<!-- Node2&#45;&gt;Node7 -->
<g id="edge6" class="edge"><title>Node2&#45;&gt;Node7</title>
<path fill="none" stroke="midnightblue" d="M218.631,-47.9157C195.808,-38.4202 169.21,-27.3537 150.661,-19.6365"/>
<polygon fill="midnightblue" stroke="midnightblue" points="217.569,-51.2647 228.146,-51.8747 220.258,-44.8018 217.569,-51.2647"/>
</g>
<!-- Node5 -->
<g id="node5" class="node"><title>Node5</title>
<g id="a_node5"><a xlink:href="class_bot.html#a698976f1ad72fc3c09eff6f887f11d45" target="_top" xlink:title="Esegue un bot.">
<polygon fill="white" stroke="black" points="0,-76.5 0,-95.5 56,-95.5 56,-76.5 0,-76.5"/>
<text text-anchor="middle" x="28" y="-83.5" font-family="Helvetica,sans-Serif" font-size="10.00">Bot.main</text>
</a>
</g>
</g>
<!-- Node4&#45;&gt;Node5 -->
<g id="edge4" class="edge"><title>Node4&#45;&gt;Node5</title>
<path fill="none" stroke="midnightblue" d="M91.8826,-86C80.232,-86 67.3242,-86 56.25,-86"/>
<polygon fill="midnightblue" stroke="midnightblue" points="92.1401,-89.5001 102.14,-86 92.14,-82.5001 92.1401,-89.5001"/>
</g>
</g>
</svg>
