<?xml version="1.0" encoding="UTF-8" standalone="no"?>
<!DOCTYPE svg PUBLIC "-//W3C//DTD SVG 1.1//EN"
 "http://www.w3.org/Graphics/SVG/1.1/DTD/svg11.dtd">
<!-- Generated by graphviz version 2.38.0 (20140413.2041)
 -->
<!-- Title: WordQuizzle.DataBase.checkUser Pages: 1 -->
<svg width="945pt" height="333pt"
 viewBox="0.00 0.00 945.00 333.00" xmlns="http://www.w3.org/2000/svg" xmlns:xlink="http://www.w3.org/1999/xlink">
<g id="graph0" class="graph" transform="scale(1 1) rotate(0) translate(4 329)">
<title>WordQuizzle.DataBase.checkUser</title>
<polygon fill="white" stroke="none" points="-4,4 -4,-329 941,-329 941,4 -4,4"/>
<!-- Node1 -->
<g id="node1" class="node"><title>Node1</title>
<g id="a_node1"><a xlink:title="Controlla che quel nome utente sia nel database.">
<polygon fill="#bfbfbf" stroke="black" points="769,-153 769,-172 937,-172 937,-153 769,-153"/>
<text text-anchor="middle" x="853" y="-160" font-family="Helvetica,sans-Serif" font-size="10.00">WordQuizzle.DataBase.checkUser</text>
</a>
</g>
</g>
<!-- Node2 -->
<g id="node2" class="node"><title>Node2</title>
<g id="a_node2"><a xlink:href="class_word_quizzle_1_1_word_quizzle_server_service.html#aebc8c566d10a0d24752a33f146f03a2a" target="_top" xlink:title=" ">
<polygon fill="white" stroke="black" points="574,-294.5 574,-324.5 733,-324.5 733,-294.5 574,-294.5"/>
<text text-anchor="start" x="582" y="-312.5" font-family="Helvetica,sans-Serif" font-size="10.00">WordQuizzle.WordQuizzleServer</text>
<text text-anchor="middle" x="653.5" y="-301.5" font-family="Helvetica,sans-Serif" font-size="10.00">Service.accettaSfida</text>
</a>
</g>
</g>
<!-- Node1&#45;&gt;Node2 -->
<g id="edge1" class="edge"><title>Node1&#45;&gt;Node2</title>
<path fill="none" stroke="midnightblue" d="M839.346,-180.494C819.627,-207.236 779.017,-257.33 733,-285.5 727.409,-288.923 721.293,-291.89 715.02,-294.456"/>
<polygon fill="midnightblue" stroke="midnightblue" points="842.404,-182.239 845.425,-172.084 836.731,-178.138 842.404,-182.239"/>
</g>
<!-- Node7 -->
<g id="node7" class="node"><title>Node7</title>
<g id="a_node7"><a xlink:href="class_word_quizzle_1_1_word_quizzle_server_service.html#a1f28542d2118fba0a19061d5acf603ec" target="_top" xlink:title=" ">
<polygon fill="white" stroke="black" points="574,-245.5 574,-275.5 733,-275.5 733,-245.5 574,-245.5"/>
<text text-anchor="start" x="582" y="-263.5" font-family="Helvetica,sans-Serif" font-size="10.00">WordQuizzle.WordQuizzleServer</text>
<text text-anchor="middle" x="653.5" y="-252.5" font-family="Helvetica,sans-Serif" font-size="10.00">Service.aggiungi_amico</text>
</a>
</g>
</g>
<!-- Node1&#45;&gt;Node7 -->
<g id="edge6" class="edge"><title>Node1&#45;&gt;Node7</title>
<path fill="none" stroke="midnightblue" d="M830.726,-178.111C807.626,-194.48 769.174,-220.062 733,-236.5 725.734,-239.802 717.891,-242.807 710.07,-245.488"/>
<polygon fill="midnightblue" stroke="midnightblue" points="832.988,-180.796 839.072,-172.122 828.907,-175.108 832.988,-180.796"/>
</g>
<!-- Node8 -->
<g id="node8" class="node"><title>Node8</title>
<g id="a_node8"><a xlink:href="class_word_quizzle_1_1_word_quizzle_server_service.html#a198417a123b189dd75e88d3e969cd11d" target="_top" xlink:title=" ">
<polygon fill="white" stroke="black" points="574,-196.5 574,-226.5 733,-226.5 733,-196.5 574,-196.5"/>
<text text-anchor="start" x="582" y="-214.5" font-family="Helvetica,sans-Serif" font-size="10.00">WordQuizzle.WordQuizzleServer</text>
<text text-anchor="middle" x="653.5" y="-203.5" font-family="Helvetica,sans-Serif" font-size="10.00">Service.lista_amici</text>
</a>
</g>
</g>
<!-- Node1&#45;&gt;Node8 -->
<g id="edge8" class="edge"><title>Node1&#45;&gt;Node8</title>
<path fill="none" stroke="midnightblue" d="M803.575,-174.514C776.889,-181.135 743.512,-189.416 715.108,-196.463"/>
<polygon fill="midnightblue" stroke="midnightblue" points="804.588,-177.869 813.451,-172.064 802.903,-171.075 804.588,-177.869"/>
</g>
<!-- Node9 -->
<g id="node9" class="node"><title>Node9</title>
<g id="a_node9"><a xlink:href="class_word_quizzle_1_1_word_quizzle_server_service.html#a4f338d0b1c7bbf662fc0e40844cf5c33" target="_top" xlink:title=" ">
<polygon fill="white" stroke="black" points="574,-147.5 574,-177.5 733,-177.5 733,-147.5 574,-147.5"/>
<text text-anchor="start" x="582" y="-165.5" font-family="Helvetica,sans-Serif" font-size="10.00">WordQuizzle.WordQuizzleServer</text>
<text text-anchor="middle" x="653.5" y="-154.5" font-family="Helvetica,sans-Serif" font-size="10.00">Service.login</text>
</a>
</g>
</g>
<!-- Node1&#45;&gt;Node9 -->
<g id="edge10" class="edge"><title>Node1&#45;&gt;Node9</title>
<path fill="none" stroke="midnightblue" d="M758.796,-162.5C750.226,-162.5 741.6,-162.5 733.178,-162.5"/>
<polygon fill="midnightblue" stroke="midnightblue" points="758.815,-166 768.815,-162.5 758.815,-159 758.815,-166"/>
</g>
<!-- Node10 -->
<g id="node10" class="node"><title>Node10</title>
<g id="a_node10"><a xlink:href="class_word_quizzle_1_1_word_quizzle_server_service.html#ad212848f8436aaf885c017463458d2f4" target="_top" xlink:title=" ">
<polygon fill="white" stroke="black" points="574,-98.5 574,-128.5 733,-128.5 733,-98.5 574,-98.5"/>
<text text-anchor="start" x="582" y="-116.5" font-family="Helvetica,sans-Serif" font-size="10.00">WordQuizzle.WordQuizzleServer</text>
<text text-anchor="middle" x="653.5" y="-105.5" font-family="Helvetica,sans-Serif" font-size="10.00">Service.mostra_classifica</text>
</a>
</g>
</g>
<!-- Node1&#45;&gt;Node10 -->
<g id="edge12" class="edge"><title>Node1&#45;&gt;Node10</title>
<path fill="none" stroke="midnightblue" d="M803.575,-150.486C776.889,-143.865 743.512,-135.584 715.108,-128.537"/>
<polygon fill="midnightblue" stroke="midnightblue" points="802.903,-153.925 813.451,-152.936 804.588,-147.131 802.903,-153.925"/>
</g>
<!-- Node11 -->
<g id="node11" class="node"><title>Node11</title>
<g id="a_node11"><a xlink:href="class_word_quizzle_1_1_word_quizzle_server_service.html#a45a270251f3ca3e1595ceddf56fbe041" target="_top" xlink:title=" ">
<polygon fill="white" stroke="black" points="574,-49.5 574,-79.5 733,-79.5 733,-49.5 574,-49.5"/>
<text text-anchor="start" x="582" y="-67.5" font-family="Helvetica,sans-Serif" font-size="10.00">WordQuizzle.WordQuizzleServer</text>
<text text-anchor="middle" x="653.5" y="-56.5" font-family="Helvetica,sans-Serif" font-size="10.00">Service.mostra_punteggio</text>
</a>
</g>
</g>
<!-- Node1&#45;&gt;Node11 -->
<g id="edge14" class="edge"><title>Node1&#45;&gt;Node11</title>
<path fill="none" stroke="midnightblue" d="M830.278,-146.941C807.078,-130.869 768.798,-105.887 733,-89.5 725.067,-85.8686 716.457,-82.5483 707.944,-79.5971"/>
<polygon fill="midnightblue" stroke="midnightblue" points="828.481,-149.956 838.678,-152.83 832.499,-144.224 828.481,-149.956"/>
</g>
<!-- Node12 -->
<g id="node12" class="node"><title>Node12</title>
<g id="a_node12"><a xlink:href="class_word_quizzle_1_1_word_quizzle_server_service.html#aee4ec771e269748e727002f9fa02e8a0" target="_top" xlink:title=" ">
<polygon fill="white" stroke="black" points="574,-0.5 574,-30.5 733,-30.5 733,-0.5 574,-0.5"/>
<text text-anchor="start" x="582" y="-18.5" font-family="Helvetica,sans-Serif" font-size="10.00">WordQuizzle.WordQuizzleServer</text>
<text text-anchor="middle" x="653.5" y="-7.5" font-family="Helvetica,sans-Serif" font-size="10.00">Service.sfida</text>
</a>
</g>
</g>
<!-- Node1&#45;&gt;Node12 -->
<g id="edge16" class="edge"><title>Node1&#45;&gt;Node12</title>
<path fill="none" stroke="midnightblue" d="M838.976,-144.331C819.051,-117.805 778.493,-68.5851 733,-40.5 726.793,-36.6681 719.944,-33.3708 712.954,-30.5471"/>
<polygon fill="midnightblue" stroke="midnightblue" points="836.389,-146.72 845.138,-152.696 842.025,-142.569 836.389,-146.72"/>
</g>
<!-- Node3 -->
<g id="node3" class="node"><title>Node3</title>
<g id="a_node3"><a xlink:href="class_word_quizzle_1_1_session.html#a21992c338367b1a3c2e57fdb7cae3018" target="_top" xlink:title="Gestisce effettivamente la richiesta del client.">
<polygon fill="white" stroke="black" points="386,-153 386,-172 538,-172 538,-153 386,-153"/>
<text text-anchor="middle" x="462" y="-160" font-family="Helvetica,sans-Serif" font-size="10.00">WordQuizzle.Session.compute</text>
</a>
</g>
</g>
<!-- Node2&#45;&gt;Node3 -->
<g id="edge2" class="edge"><title>Node2&#45;&gt;Node3</title>
<path fill="none" stroke="midnightblue" d="M582.191,-290.179C579.364,-288.725 576.621,-287.168 574,-285.5 524.736,-254.154 483.805,-195.179 468.968,-172.102"/>
<polygon fill="midnightblue" stroke="midnightblue" points="580.907,-293.442 591.451,-294.48 583.856,-287.093 580.907,-293.442"/>
</g>
<!-- Node4 -->
<g id="node4" class="node"><title>Node4</title>
<g id="a_node4"><a xlink:href="class_word_quizzle_1_1_session.html#a6793f02ea7cab6fffe0361893cf40178" target="_top" xlink:title="Riceve una stringa contenente uan richiesta da parte del client e la gestisce.">
<polygon fill="white" stroke="black" points="212,-153 212,-172 350,-172 350,-153 212,-153"/>
<text text-anchor="middle" x="281" y="-160" font-family="Helvetica,sans-Serif" font-size="10.00">WordQuizzle.Session.parse</text>
</a>
</g>
</g>
<!-- Node3&#45;&gt;Node4 -->
<g id="edge3" class="edge"><title>Node3&#45;&gt;Node4</title>
<path fill="none" stroke="midnightblue" d="M375.793,-162.5C367.175,-162.5 358.505,-162.5 350.101,-162.5"/>
<polygon fill="midnightblue" stroke="midnightblue" points="375.866,-166 385.866,-162.5 375.866,-159 375.866,-166"/>
</g>
<!-- Node5 -->
<g id="node5" class="node"><title>Node5</title>
<g id="a_node5"><a xlink:href="class_word_quizzle_1_1_word_quizzle_server.html#a4aa19bad373d06a790babba1e5b67644" target="_top" xlink:title="Gestisce le interazioni con i client.">
<polygon fill="white" stroke="black" points="0,-172 0,-191 176,-191 176,-172 0,-172"/>
<text text-anchor="middle" x="88" y="-179" font-family="Helvetica,sans-Serif" font-size="10.00">WordQuizzle.WordQuizzleServer.run</text>
</a>
</g>
</g>
<!-- Node4&#45;&gt;Node5 -->
<g id="edge4" class="edge"><title>Node4&#45;&gt;Node5</title>
<path fill="none" stroke="midnightblue" d="M201.692,-170.29C193.27,-171.128 184.665,-171.984 176.149,-172.831"/>
<polygon fill="midnightblue" stroke="midnightblue" points="202.249,-173.752 211.854,-169.279 201.556,-166.786 202.249,-173.752"/>
</g>
<!-- Node6 -->
<g id="node6" class="node"><title>Node6</title>
<g id="a_node6"><a xlink:href="class_word_quizzle_1_1_challenge.html#aa7b93cfc7d1927c0b1c060cc387321b9" target="_top" xlink:title="Gestisce la sfida.">
<polygon fill="white" stroke="black" points="20.5,-134 20.5,-153 155.5,-153 155.5,-134 20.5,-134"/>
<text text-anchor="middle" x="88" y="-141" font-family="Helvetica,sans-Serif" font-size="10.00">WordQuizzle.Challenge.run</text>
</a>
</g>
</g>
<!-- Node4&#45;&gt;Node6 -->
<g id="edge5" class="edge"><title>Node4&#45;&gt;Node6</title>
<path fill="none" stroke="midnightblue" d="M201.853,-154.726C186.473,-153.196 170.471,-151.604 155.517,-150.117"/>
<polygon fill="midnightblue" stroke="midnightblue" points="201.556,-158.214 211.854,-155.721 202.249,-151.248 201.556,-158.214"/>
</g>
<!-- Node7&#45;&gt;Node3 -->
<g id="edge7" class="edge"><title>Node7&#45;&gt;Node3</title>
<path fill="none" stroke="midnightblue" d="M586.517,-241.889C582.228,-240.201 578.021,-238.404 574,-236.5 535.277,-218.158 494.553,-187.681 474.943,-172.186"/>
<polygon fill="midnightblue" stroke="midnightblue" points="585.403,-245.208 595.996,-245.406 587.838,-238.646 585.403,-245.208"/>
</g>
<!-- Node8&#45;&gt;Node3 -->
<g id="edge9" class="edge"><title>Node8&#45;&gt;Node3</title>
<path fill="none" stroke="midnightblue" d="M584.429,-193.899C555.898,-186.521 523.852,-178.235 499.848,-172.028"/>
<polygon fill="midnightblue" stroke="midnightblue" points="583.798,-197.35 594.356,-196.465 585.551,-190.573 583.798,-197.35"/>
</g>
<!-- Node9&#45;&gt;Node3 -->
<g id="edge11" class="edge"><title>Node9&#45;&gt;Node3</title>
<path fill="none" stroke="midnightblue" d="M563.764,-162.5C555.191,-162.5 546.552,-162.5 538.129,-162.5"/>
<polygon fill="midnightblue" stroke="midnightblue" points="563.781,-166 573.781,-162.5 563.781,-159 563.781,-166"/>
</g>
<!-- Node10&#45;&gt;Node3 -->
<g id="edge13" class="edge"><title>Node10&#45;&gt;Node3</title>
<path fill="none" stroke="midnightblue" d="M584.429,-131.101C555.898,-138.479 523.852,-146.765 499.848,-152.972"/>
<polygon fill="midnightblue" stroke="midnightblue" points="585.551,-134.427 594.356,-128.535 583.798,-127.65 585.551,-134.427"/>
</g>
<!-- Node11&#45;&gt;Node3 -->
<g id="edge15" class="edge"><title>Node11&#45;&gt;Node3</title>
<path fill="none" stroke="midnightblue" d="M589.14,-83.0017C583.948,-85.0221 578.841,-87.1911 574,-89.5 535.694,-107.769 495.11,-137.488 475.312,-152.76"/>
<polygon fill="midnightblue" stroke="midnightblue" points="590.371,-86.2782 598.537,-79.5273 587.943,-79.7127 590.371,-86.2782"/>
</g>
<!-- Node12&#45;&gt;Node3 -->
<g id="edge17" class="edge"><title>Node12&#45;&gt;Node3</title>
<path fill="none" stroke="midnightblue" d="M584.374,-34.6507C580.776,-36.4421 577.292,-38.3881 574,-40.5 525.316,-71.7358 484.35,-129.637 469.235,-152.675"/>
<polygon fill="midnightblue" stroke="midnightblue" points="585.844,-37.8269 593.506,-30.5096 582.953,-31.4516 585.844,-37.8269"/>
</g>
</g>
</svg>
