<?xml version="1.0" encoding="UTF-8" standalone="no"?>
<!DOCTYPE svg PUBLIC "-//W3C//DTD SVG 1.1//EN"
 "http://www.w3.org/Graphics/SVG/1.1/DTD/svg11.dtd">
<!-- Generated by graphviz version 2.38.0 (20140413.2041)
 -->
<!-- Title: UserRegistry Pages: 1 -->
<svg width="104pt" height="160pt"
 viewBox="0.00 0.00 104.00 160.00" xmlns="http://www.w3.org/2000/svg" xmlns:xlink="http://www.w3.org/1999/xlink">
<g id="graph0" class="graph" transform="scale(1 1) rotate(0) translate(4 156)">
<title>UserRegistry</title>
<polygon fill="white" stroke="none" points="-4,4 -4,-156 100,-156 100,4 -4,4"/>
<!-- Node1 -->
<g id="node1" class="node"><title>Node1</title>
<g id="a_node1"><a xlink:title="Interfaccia RMI per la registrazione di un utente.">
<polygon fill="#bfbfbf" stroke="black" points="0,-0.5 0,-57.5 96,-57.5 96,-0.5 0,-0.5"/>
<text text-anchor="middle" x="48" y="-45.5" font-family="Helvetica,sans-Serif" font-size="10.00">UserRegistry</text>
<polyline fill="none" stroke="black" points="0,-38.5 96,-38.5 "/>
<text text-anchor="middle" x="48" y="-26.5" font-family="Helvetica,sans-Serif" font-size="10.00"> </text>
<polyline fill="none" stroke="black" points="0,-19.5 96,-19.5 "/>
<text text-anchor="start" x="8" y="-7.5" font-family="Helvetica,sans-Serif" font-size="10.00">+ registra_utente()</text>
</a>
</g>
</g>
<!-- Node2 -->
<g id="node2" class="node"><title>Node2</title>
<g id="a_node2"><a xlink:title=" ">
<polygon fill="white" stroke="#bfbfbf" points="23,-94.5 23,-151.5 73,-151.5 73,-94.5 23,-94.5"/>
<text text-anchor="middle" x="48" y="-139.5" font-family="Helvetica,sans-Serif" font-size="10.00">Remote</text>
<polyline fill="none" stroke="#bfbfbf" points="23,-132.5 73,-132.5 "/>
<text text-anchor="middle" x="48" y="-120.5" font-family="Helvetica,sans-Serif" font-size="10.00"> </text>
<polyline fill="none" stroke="#bfbfbf" points="23,-113.5 73,-113.5 "/>
<text text-anchor="middle" x="48" y="-101.5" font-family="Helvetica,sans-Serif" font-size="10.00"> </text>
</a>
</g>
</g>
<!-- Node2&#45;&gt;Node1 -->
<g id="edge1" class="edge"><title>Node2&#45;&gt;Node1</title>
<path fill="none" stroke="midnightblue" d="M48,-84.2092C48,-75.2929 48,-65.9513 48,-57.5836"/>
<polygon fill="none" stroke="midnightblue" points="44.5001,-84.3969 48,-94.397 51.5001,-84.397 44.5001,-84.3969"/>
</g>
</g>
</svg>
