<?xml version="1.0" encoding="UTF-8" standalone="no"?>
<!DOCTYPE svg PUBLIC "-//W3C//DTD SVG 1.1//EN"
 "http://www.w3.org/Graphics/SVG/1.1/DTD/svg11.dtd">
<!-- Generated by graphviz version 2.38.0 (20140413.2041)
 -->
<!-- Title: WordQuizzle.Dictionary Pages: 1 -->
<svg width="141pt" height="270pt"
 viewBox="0.00 0.00 141.00 270.00" xmlns="http://www.w3.org/2000/svg" xmlns:xlink="http://www.w3.org/1999/xlink">
<g id="graph0" class="graph" transform="scale(1 1) rotate(0) translate(4 266)">
<title>WordQuizzle.Dictionary</title>
<polygon fill="white" stroke="none" points="-4,4 -4,-266 137,-266 137,4 -4,4"/>
<!-- Node1 -->
<g id="node1" class="node"><title>Node1</title>
<g id="a_node1"><a xlink:title="Interfaccia che definisce un dizionario.">
<polygon fill="#bfbfbf" stroke="black" points="7,-171.5 7,-261.5 126,-261.5 126,-171.5 7,-171.5"/>
<text text-anchor="middle" x="66.5" y="-249.5" font-family="Helvetica,sans-Serif" font-size="10.00">WordQuizzle.Dictionary</text>
<polyline fill="none" stroke="black" points="7,-242.5 126,-242.5 "/>
<text text-anchor="middle" x="66.5" y="-230.5" font-family="Helvetica,sans-Serif" font-size="10.00"> </text>
<polyline fill="none" stroke="black" points="7,-223.5 126,-223.5 "/>
<text text-anchor="start" x="15" y="-211.5" font-family="Helvetica,sans-Serif" font-size="10.00">+ getWord()</text>
<text text-anchor="start" x="15" y="-200.5" font-family="Helvetica,sans-Serif" font-size="10.00">+ getWord()</text>
<text text-anchor="start" x="15" y="-189.5" font-family="Helvetica,sans-Serif" font-size="10.00">+ getWords()</text>
<text text-anchor="start" x="15" y="-178.5" font-family="Helvetica,sans-Serif" font-size="10.00">+ getN()</text>
</a>
</g>
</g>
<!-- Node2 -->
<g id="node2" class="node"><title>Node2</title>
<g id="a_node2"><a xlink:href="class_word_quizzle_1_1_dictionary_txt.html" target="_top" xlink:title="Rappresenta un dizionario memorizzato in un file di testo.">
<polygon fill="white" stroke="black" points="0,-0.5 0,-134.5 133,-134.5 133,-0.5 0,-0.5"/>
<text text-anchor="middle" x="66.5" y="-122.5" font-family="Helvetica,sans-Serif" font-size="10.00">WordQuizzle.DictionaryTxt</text>
<polyline fill="none" stroke="black" points="0,-115.5 133,-115.5 "/>
<text text-anchor="start" x="8" y="-103.5" font-family="Helvetica,sans-Serif" font-size="10.00">&#45; path</text>
<text text-anchor="start" x="8" y="-92.5" font-family="Helvetica,sans-Serif" font-size="10.00">&#45; defaultWord</text>
<text text-anchor="start" x="8" y="-81.5" font-family="Helvetica,sans-Serif" font-size="10.00">&#45; N</text>
<polyline fill="none" stroke="black" points="0,-74.5 133,-74.5 "/>
<text text-anchor="start" x="8" y="-62.5" font-family="Helvetica,sans-Serif" font-size="10.00">+ DictionaryTxt()</text>
<text text-anchor="start" x="8" y="-51.5" font-family="Helvetica,sans-Serif" font-size="10.00">+ getWord()</text>
<text text-anchor="start" x="8" y="-40.5" font-family="Helvetica,sans-Serif" font-size="10.00">+ getWord()</text>
<text text-anchor="start" x="8" y="-29.5" font-family="Helvetica,sans-Serif" font-size="10.00">+ getWords()</text>
<text text-anchor="start" x="8" y="-18.5" font-family="Helvetica,sans-Serif" font-size="10.00">+ getN()</text>
<text text-anchor="start" x="8" y="-7.5" font-family="Helvetica,sans-Serif" font-size="10.00">+ getDefaultWord()</text>
</a>
</g>
</g>
<!-- Node1&#45;&gt;Node2 -->
<g id="edge1" class="edge"><title>Node1&#45;&gt;Node2</title>
<path fill="none" stroke="midnightblue" d="M66.5,-161.375C66.5,-152.658 66.5,-143.55 66.5,-134.591"/>
<polygon fill="none" stroke="midnightblue" points="63.0001,-161.395 66.5,-171.395 70.0001,-161.395 63.0001,-161.395"/>
</g>
</g>
</svg>
