<?xml version="1.0" encoding="UTF-8" standalone="no"?>
<!DOCTYPE svg PUBLIC "-//W3C//DTD SVG 1.1//EN"
 "http://www.w3.org/Graphics/SVG/1.1/DTD/svg11.dtd">
<!-- Generated by graphviz version 2.38.0 (20140413.2041)
 -->
<!-- Title: WordQuizzle.DataBase.getUser Pages: 1 -->
<svg width="932pt" height="235pt"
 viewBox="0.00 0.00 932.00 235.00" xmlns="http://www.w3.org/2000/svg" xmlns:xlink="http://www.w3.org/1999/xlink">
<g id="graph0" class="graph" transform="scale(1 1) rotate(0) translate(4 231)">
<title>WordQuizzle.DataBase.getUser</title>
<polygon fill="white" stroke="none" points="-4,4 -4,-231 928,-231 928,4 -4,4"/>
<!-- Node1 -->
<g id="node1" class="node"><title>Node1</title>
<g id="a_node1"><a xlink:title="Dato un nome utente ottiene l&#39;oggetto User corrispondente.">
<polygon fill="#bfbfbf" stroke="black" points="769,-104 769,-123 924,-123 924,-104 769,-104"/>
<text text-anchor="middle" x="846.5" y="-111" font-family="Helvetica,sans-Serif" font-size="10.00">WordQuizzle.DataBase.getUser</text>
</a>
</g>
</g>
<!-- Node2 -->
<g id="node2" class="node"><title>Node2</title>
<g id="a_node2"><a xlink:href="class_word_quizzle_1_1_word_quizzle_server_service.html#a198417a123b189dd75e88d3e969cd11d" target="_top" xlink:title=" ">
<polygon fill="white" stroke="black" points="574,-196.5 574,-226.5 733,-226.5 733,-196.5 574,-196.5"/>
<text text-anchor="start" x="582" y="-214.5" font-family="Helvetica,sans-Serif" font-size="10.00">WordQuizzle.WordQuizzleServer</text>
<text text-anchor="middle" x="653.5" y="-203.5" font-family="Helvetica,sans-Serif" font-size="10.00">Service.lista_amici</text>
</a>
</g>
</g>
<!-- Node1&#45;&gt;Node2 -->
<g id="edge1" class="edge"><title>Node1&#45;&gt;Node2</title>
<path fill="none" stroke="midnightblue" d="M825.24,-129.408C803.488,-145.852 767.403,-171.335 733,-187.5 726.035,-190.773 718.515,-193.733 710.985,-196.366"/>
<polygon fill="midnightblue" stroke="midnightblue" points="827.565,-132.036 833.372,-123.175 823.306,-126.48 827.565,-132.036"/>
</g>
<!-- Node6 -->
<g id="node6" class="node"><title>Node6</title>
<g id="a_node6"><a xlink:href="class_word_quizzle_1_1_word_quizzle_server_service.html#a5158b145fd600da151cb8206e41b4f1a" target="_top" xlink:title=" ">
<polygon fill="white" stroke="black" points="574,-147.5 574,-177.5 733,-177.5 733,-147.5 574,-147.5"/>
<text text-anchor="start" x="582" y="-165.5" font-family="Helvetica,sans-Serif" font-size="10.00">WordQuizzle.WordQuizzleServer</text>
<text text-anchor="middle" x="653.5" y="-154.5" font-family="Helvetica,sans-Serif" font-size="10.00">Service.login</text>
</a>
</g>
</g>
<!-- Node1&#45;&gt;Node6 -->
<g id="edge5" class="edge"><title>Node1&#45;&gt;Node6</title>
<path fill="none" stroke="midnightblue" d="M798.328,-125.602C772.577,-132.208 740.461,-140.447 713.113,-147.463"/>
<polygon fill="midnightblue" stroke="midnightblue" points="799.403,-128.939 808.22,-123.064 797.664,-122.159 799.403,-128.939"/>
</g>
<!-- Node7 -->
<g id="node7" class="node"><title>Node7</title>
<g id="a_node7"><a xlink:href="class_word_quizzle_1_1_word_quizzle_server_service.html#ad212848f8436aaf885c017463458d2f4" target="_top" xlink:title=" ">
<polygon fill="white" stroke="black" points="574,-98.5 574,-128.5 733,-128.5 733,-98.5 574,-98.5"/>
<text text-anchor="start" x="582" y="-116.5" font-family="Helvetica,sans-Serif" font-size="10.00">WordQuizzle.WordQuizzleServer</text>
<text text-anchor="middle" x="653.5" y="-105.5" font-family="Helvetica,sans-Serif" font-size="10.00">Service.mostra_classifica</text>
</a>
</g>
</g>
<!-- Node1&#45;&gt;Node7 -->
<g id="edge7" class="edge"><title>Node1&#45;&gt;Node7</title>
<path fill="none" stroke="midnightblue" d="M758.662,-113.5C750.206,-113.5 741.658,-113.5 733.288,-113.5"/>
<polygon fill="midnightblue" stroke="midnightblue" points="758.914,-117 768.914,-113.5 758.913,-110 758.914,-117"/>
</g>
<!-- Node8 -->
<g id="node8" class="node"><title>Node8</title>
<g id="a_node8"><a xlink:href="class_word_quizzle_1_1_word_quizzle_server_service.html#a45a270251f3ca3e1595ceddf56fbe041" target="_top" xlink:title=" ">
<polygon fill="white" stroke="black" points="574,-49.5 574,-79.5 733,-79.5 733,-49.5 574,-49.5"/>
<text text-anchor="start" x="582" y="-67.5" font-family="Helvetica,sans-Serif" font-size="10.00">WordQuizzle.WordQuizzleServer</text>
<text text-anchor="middle" x="653.5" y="-56.5" font-family="Helvetica,sans-Serif" font-size="10.00">Service.mostra_punteggio</text>
</a>
</g>
</g>
<!-- Node1&#45;&gt;Node8 -->
<g id="edge9" class="edge"><title>Node1&#45;&gt;Node8</title>
<path fill="none" stroke="midnightblue" d="M798.328,-101.398C772.577,-94.792 740.461,-86.5529 713.113,-79.537"/>
<polygon fill="midnightblue" stroke="midnightblue" points="797.664,-104.841 808.22,-103.936 799.403,-98.0607 797.664,-104.841"/>
</g>
<!-- Node9 -->
<g id="node9" class="node"><title>Node9</title>
<g id="a_node9"><a xlink:href="class_word_quizzle_1_1_word_quizzle_server_service.html#aee4ec771e269748e727002f9fa02e8a0" target="_top" xlink:title=" ">
<polygon fill="white" stroke="black" points="574,-0.5 574,-30.5 733,-30.5 733,-0.5 574,-0.5"/>
<text text-anchor="start" x="582" y="-18.5" font-family="Helvetica,sans-Serif" font-size="10.00">WordQuizzle.WordQuizzleServer</text>
<text text-anchor="middle" x="653.5" y="-7.5" font-family="Helvetica,sans-Serif" font-size="10.00">Service.sfida</text>
</a>
</g>
</g>
<!-- Node1&#45;&gt;Node9 -->
<g id="edge11" class="edge"><title>Node1&#45;&gt;Node9</title>
<path fill="none" stroke="midnightblue" d="M824.812,-97.642C802.964,-81.4936 767.035,-56.6043 733,-40.5 725.243,-36.8295 716.81,-33.5063 708.444,-30.5692"/>
<polygon fill="midnightblue" stroke="midnightblue" points="822.896,-100.58 832.998,-103.773 827.092,-94.9771 822.896,-100.58"/>
</g>
<!-- Node3 -->
<g id="node3" class="node"><title>Node3</title>
<g id="a_node3"><a xlink:href="class_word_quizzle_1_1_session.html#a21992c338367b1a3c2e57fdb7cae3018" target="_top" xlink:title=" ">
<polygon fill="white" stroke="black" points="386,-104 386,-123 538,-123 538,-104 386,-104"/>
<text text-anchor="middle" x="462" y="-111" font-family="Helvetica,sans-Serif" font-size="10.00">WordQuizzle.Session.compute</text>
</a>
</g>
</g>
<!-- Node2&#45;&gt;Node3 -->
<g id="edge2" class="edge"><title>Node2&#45;&gt;Node3</title>
<path fill="none" stroke="midnightblue" d="M586.517,-192.889C582.228,-191.201 578.021,-189.404 574,-187.5 535.277,-169.158 494.553,-138.681 474.943,-123.186"/>
<polygon fill="midnightblue" stroke="midnightblue" points="585.403,-196.208 595.996,-196.406 587.838,-189.646 585.403,-196.208"/>
</g>
<!-- Node4 -->
<g id="node4" class="node"><title>Node4</title>
<g id="a_node4"><a xlink:href="class_word_quizzle_1_1_session.html#a6793f02ea7cab6fffe0361893cf40178" target="_top" xlink:title=" ">
<polygon fill="white" stroke="black" points="212,-104 212,-123 350,-123 350,-104 212,-104"/>
<text text-anchor="middle" x="281" y="-111" font-family="Helvetica,sans-Serif" font-size="10.00">WordQuizzle.Session.parse</text>
</a>
</g>
</g>
<!-- Node3&#45;&gt;Node4 -->
<g id="edge3" class="edge"><title>Node3&#45;&gt;Node4</title>
<path fill="none" stroke="midnightblue" d="M375.793,-113.5C367.175,-113.5 358.505,-113.5 350.101,-113.5"/>
<polygon fill="midnightblue" stroke="midnightblue" points="375.866,-117 385.866,-113.5 375.866,-110 375.866,-117"/>
</g>
<!-- Node5 -->
<g id="node5" class="node"><title>Node5</title>
<g id="a_node5"><a xlink:href="class_word_quizzle_1_1_word_quizzle_server.html#a4aa19bad373d06a790babba1e5b67644" target="_top" xlink:title=" ">
<polygon fill="white" stroke="black" points="0,-104 0,-123 176,-123 176,-104 0,-104"/>
<text text-anchor="middle" x="88" y="-111" font-family="Helvetica,sans-Serif" font-size="10.00">WordQuizzle.WordQuizzleServer.run</text>
</a>
</g>
</g>
<!-- Node4&#45;&gt;Node5 -->
<g id="edge4" class="edge"><title>Node4&#45;&gt;Node5</title>
<path fill="none" stroke="midnightblue" d="M201.692,-113.5C193.27,-113.5 184.665,-113.5 176.149,-113.5"/>
<polygon fill="midnightblue" stroke="midnightblue" points="201.854,-117 211.854,-113.5 201.853,-110 201.854,-117"/>
</g>
<!-- Node6&#45;&gt;Node3 -->
<g id="edge6" class="edge"><title>Node6&#45;&gt;Node3</title>
<path fill="none" stroke="midnightblue" d="M584.429,-144.899C555.898,-137.521 523.852,-129.235 499.848,-123.028"/>
<polygon fill="midnightblue" stroke="midnightblue" points="583.798,-148.35 594.356,-147.465 585.551,-141.573 583.798,-148.35"/>
</g>
<!-- Node7&#45;&gt;Node3 -->
<g id="edge8" class="edge"><title>Node7&#45;&gt;Node3</title>
<path fill="none" stroke="midnightblue" d="M563.764,-113.5C555.191,-113.5 546.552,-113.5 538.129,-113.5"/>
<polygon fill="midnightblue" stroke="midnightblue" points="563.781,-117 573.781,-113.5 563.781,-110 563.781,-117"/>
</g>
<!-- Node8&#45;&gt;Node3 -->
<g id="edge10" class="edge"><title>Node8&#45;&gt;Node3</title>
<path fill="none" stroke="midnightblue" d="M584.429,-82.1014C555.898,-89.4789 523.852,-97.7652 499.848,-103.972"/>
<polygon fill="midnightblue" stroke="midnightblue" points="585.551,-85.4267 594.356,-79.5346 583.798,-78.6496 585.551,-85.4267"/>
</g>
<!-- Node9&#45;&gt;Node3 -->
<g id="edge12" class="edge"><title>Node9&#45;&gt;Node3</title>
<path fill="none" stroke="midnightblue" d="M589.14,-34.0017C583.948,-36.0221 578.841,-38.1911 574,-40.5 535.694,-58.7694 495.11,-88.4884 475.312,-103.76"/>
<polygon fill="midnightblue" stroke="midnightblue" points="590.371,-37.2782 598.537,-30.5273 587.943,-30.7127 590.371,-37.2782"/>
</g>
</g>
</svg>
