<?xml version="1.0" encoding="UTF-8" standalone="no"?>
<!DOCTYPE svg PUBLIC "-//W3C//DTD SVG 1.1//EN"
 "http://www.w3.org/Graphics/SVG/1.1/DTD/svg11.dtd">
<!-- Generated by graphviz version 2.38.0 (20140413.2041)
 -->
<!-- Title: UserRegistry.registra_utente Pages: 1 -->
<svg width="680pt" height="39pt"
 viewBox="0.00 0.00 680.00 39.00" xmlns="http://www.w3.org/2000/svg" xmlns:xlink="http://www.w3.org/1999/xlink">
<g id="graph0" class="graph" transform="scale(1 1) rotate(0) translate(4 35)">
<title>UserRegistry.registra_utente</title>
<polygon fill="white" stroke="none" points="-4,4 -4,-35 676,-35 676,4 -4,4"/>
<!-- Node1 -->
<g id="node1" class="node"><title>Node1</title>
<g id="a_node1"><a xlink:title=" ">
<polygon fill="#bfbfbf" stroke="black" points="564,-0.5 564,-30.5 672,-30.5 672,-0.5 564,-0.5"/>
<text text-anchor="start" x="572" y="-18.5" font-family="Helvetica,sans-Serif" font-size="10.00">UserRegistry.registra</text>
<text text-anchor="middle" x="618" y="-7.5" font-family="Helvetica,sans-Serif" font-size="10.00">_utente</text>
</a>
</g>
</g>
<!-- Node2 -->
<g id="node2" class="node"><title>Node2</title>
<g id="a_node2"><a xlink:href="class_word_quizzle_client_service.html#aec5784511e9d3e5e63e500e20a00f57f" target="_top" xlink:title=" ">
<polygon fill="white" stroke="black" points="364,-0.5 364,-30.5 528,-30.5 528,-0.5 364,-0.5"/>
<text text-anchor="start" x="372" y="-18.5" font-family="Helvetica,sans-Serif" font-size="10.00">WordQuizzleClientService.registra</text>
<text text-anchor="middle" x="446" y="-7.5" font-family="Helvetica,sans-Serif" font-size="10.00">_utente</text>
</a>
</g>
</g>
<!-- Node1&#45;&gt;Node2 -->
<g id="edge1" class="edge"><title>Node1&#45;&gt;Node2</title>
<path fill="none" stroke="midnightblue" d="M553.413,-15.5C545.167,-15.5 536.635,-15.5 528.153,-15.5"/>
<polygon fill="midnightblue" stroke="midnightblue" points="553.677,-19.0001 563.677,-15.5 553.677,-12.0001 553.677,-19.0001"/>
</g>
<!-- Node3 -->
<g id="node3" class="node"><title>Node3</title>
<g id="a_node3"><a xlink:href="class_word_quizzle_client.html#a516539e0da1d5d54431a7e41cf9339f8" target="_top" xlink:title=" ">
<polygon fill="white" stroke="black" points="195,-0.5 195,-30.5 328,-30.5 328,-0.5 195,-0.5"/>
<text text-anchor="start" x="203" y="-18.5" font-family="Helvetica,sans-Serif" font-size="10.00">WordQuizzleClient.registra</text>
<text text-anchor="middle" x="261.5" y="-7.5" font-family="Helvetica,sans-Serif" font-size="10.00">_utente</text>
</a>
</g>
</g>
<!-- Node2&#45;&gt;Node3 -->
<g id="edge2" class="edge"><title>Node2&#45;&gt;Node3</title>
<path fill="none" stroke="midnightblue" d="M353.732,-15.5C345.063,-15.5 336.394,-15.5 328.038,-15.5"/>
<polygon fill="midnightblue" stroke="midnightblue" points="353.89,-19.0001 363.89,-15.5 353.89,-12.0001 353.89,-19.0001"/>
</g>
<!-- Node4 -->
<g id="node4" class="node"><title>Node4</title>
<g id="a_node4"><a xlink:href="class_client.html#a64336c3153afaaf5f45493e9ed206430" target="_top" xlink:title=" ">
<polygon fill="white" stroke="black" points="101,-6 101,-25 159,-25 159,-6 101,-6"/>
<text text-anchor="middle" x="130" y="-13" font-family="Helvetica,sans-Serif" font-size="10.00">Client.run</text>
</a>
</g>
</g>
<!-- Node3&#45;&gt;Node4 -->
<g id="edge3" class="edge"><title>Node3&#45;&gt;Node4</title>
<path fill="none" stroke="midnightblue" d="M184.938,-15.5C175.747,-15.5 166.856,-15.5 159.032,-15.5"/>
<polygon fill="midnightblue" stroke="midnightblue" points="184.991,-19.0001 194.991,-15.5 184.991,-12.0001 184.991,-19.0001"/>
</g>
<!-- Node5 -->
<g id="node5" class="node"><title>Node5</title>
<g id="a_node5"><a xlink:href="class_client.html#ac4219c51358857184ceeb023ada3d8ae" target="_top" xlink:title=" ">
<polygon fill="white" stroke="black" points="0,-6 0,-25 65,-25 65,-6 0,-6"/>
<text text-anchor="middle" x="32.5" y="-13" font-family="Helvetica,sans-Serif" font-size="10.00">Client.main</text>
</a>
</g>
</g>
<!-- Node4&#45;&gt;Node5 -->
<g id="edge4" class="edge"><title>Node4&#45;&gt;Node5</title>
<path fill="none" stroke="midnightblue" d="M90.7681,-15.5C82.2579,-15.5 73.3274,-15.5 65.1178,-15.5"/>
<polygon fill="midnightblue" stroke="midnightblue" points="90.8634,-19.0001 100.863,-15.5 90.8633,-12.0001 90.8634,-19.0001"/>
</g>
</g>
</svg>
