<?xml version="1.0" encoding="UTF-8" standalone="no"?>
<!DOCTYPE svg PUBLIC "-//W3C//DTD SVG 1.1//EN"
 "http://www.w3.org/Graphics/SVG/1.1/DTD/svg11.dtd">
<!-- Generated by graphviz version 2.38.0 (20140413.2041)
 -->
<!-- Title: WordQuizzle.WordQuizzleService.logout Pages: 1 -->
<svg width="788pt" height="142pt"
 viewBox="0.00 0.00 788.00 142.00" xmlns="http://www.w3.org/2000/svg" xmlns:xlink="http://www.w3.org/1999/xlink">
<g id="graph0" class="graph" transform="scale(1 1) rotate(0) translate(4 138)">
<title>WordQuizzle.WordQuizzleService.logout</title>
<polygon fill="white" stroke="none" points="-4,4 -4,-138 784,-138 784,4 -4,4"/>
<!-- Node1 -->
<g id="node1" class="node"><title>Node1</title>
<g id="a_node1"><a xlink:title="Effettua il logout.">
<polygon fill="#bfbfbf" stroke="black" points="587,-57.5 587,-76.5 780,-76.5 780,-57.5 587,-57.5"/>
<text text-anchor="middle" x="683.5" y="-64.5" font-family="Helvetica,sans-Serif" font-size="10.00">WordQuizzle.WordQuizzleService.logout</text>
</a>
</g>
</g>
<!-- Node2 -->
<g id="node2" class="node"><title>Node2</title>
<g id="a_node2"><a xlink:href="class_word_quizzle_1_1_word_quizzle_client.html#a50468f5e79e6bba9efc2e9fd19493345" target="_top" xlink:title="Effettua il logout di user.">
<polygon fill="white" stroke="black" points="365,-57.5 365,-76.5 551,-76.5 551,-57.5 365,-57.5"/>
<text text-anchor="middle" x="458" y="-64.5" font-family="Helvetica,sans-Serif" font-size="10.00">WordQuizzle.WordQuizzleClient.logout</text>
</a>
</g>
</g>
<!-- Node1&#45;&gt;Node2 -->
<g id="edge1" class="edge"><title>Node1&#45;&gt;Node2</title>
<path fill="none" stroke="midnightblue" d="M576.701,-67C568.117,-67 559.486,-67 551.012,-67"/>
<polygon fill="midnightblue" stroke="midnightblue" points="576.743,-70.5001 586.743,-67 576.743,-63.5001 576.743,-70.5001"/>
</g>
<!-- Node3 -->
<g id="node3" class="node"><title>Node3</title>
<g id="a_node3"><a xlink:href="class_word_quizzle_1_1_w_q_gui.html#a0e08347bf2107460ca41d63036fdc6ad" target="_top" xlink:title="Crea l&#39;interfaccia per la prima volta.">
<polygon fill="white" stroke="black" points="181,-114.5 181,-133.5 316,-133.5 316,-114.5 181,-114.5"/>
<text text-anchor="middle" x="248.5" y="-121.5" font-family="Helvetica,sans-Serif" font-size="10.00">WordQuizzle.WQGui.make</text>
</a>
</g>
</g>
<!-- Node2&#45;&gt;Node3 -->
<g id="edge2" class="edge"><title>Node2&#45;&gt;Node3</title>
<path fill="none" stroke="midnightblue" d="M417.044,-79.4661C391.877,-87.1679 358.652,-97.0614 329,-105 316.8,-108.266 303.474,-111.558 291.279,-114.462"/>
<polygon fill="midnightblue" stroke="midnightblue" points="418.083,-82.8084 426.613,-76.5246 416.026,-76.1174 418.083,-82.8084"/>
</g>
<!-- Node5 -->
<g id="node5" class="node"><title>Node5</title>
<g id="a_node5"><a xlink:href="class_word_quizzle_1_1_w_q_gui.html#a5c987293ccc62020ac32b8c4f8415adf" target="_top" xlink:title="Crea il pannello principale.">
<polygon fill="white" stroke="black" points="168,-76.5 168,-95.5 329,-95.5 329,-76.5 168,-76.5"/>
<text text-anchor="middle" x="248.5" y="-83.5" font-family="Helvetica,sans-Serif" font-size="10.00">WordQuizzle.WQGui.makeGame</text>
</a>
</g>
</g>
<!-- Node2&#45;&gt;Node5 -->
<g id="edge4" class="edge"><title>Node2&#45;&gt;Node5</title>
<path fill="none" stroke="midnightblue" d="M354.699,-76.3673C346.094,-77.1552 337.477,-77.9443 329.083,-78.7129"/>
<polygon fill="midnightblue" stroke="midnightblue" points="355.14,-79.8417 364.779,-75.4443 354.502,-72.8708 355.14,-79.8417"/>
</g>
<!-- Node6 -->
<g id="node6" class="node"><title>Node6</title>
<g id="a_node6"><a xlink:href="class_word_quizzle_1_1_w_q_cli.html#a318ef86f91a825da4ff4684bd3332a6b" target="_top" xlink:title="Gestisce le richieste dell&#39;utente.">
<polygon fill="white" stroke="black" points="183,-38.5 183,-57.5 314,-57.5 314,-38.5 183,-38.5"/>
<text text-anchor="middle" x="248.5" y="-45.5" font-family="Helvetica,sans-Serif" font-size="10.00">WordQuizzle.WQCli.parse</text>
</a>
</g>
</g>
<!-- Node2&#45;&gt;Node6 -->
<g id="edge5" class="edge"><title>Node2&#45;&gt;Node6</title>
<path fill="none" stroke="midnightblue" d="M354.724,-57.635C340.888,-56.368 327.016,-55.0979 314.094,-53.9147"/>
<polygon fill="midnightblue" stroke="midnightblue" points="354.502,-61.1292 364.779,-58.5557 355.14,-54.1583 354.502,-61.1292"/>
</g>
<!-- Node8 -->
<g id="node8" class="node"><title>Node8</title>
<g id="a_node8"><a xlink:href="class_word_quizzle_1_1_tester.html#a374746c9801c5a79f264bac163f0a3ea" target="_top" xlink:title="Esegue un test sul server.">
<polygon fill="white" stroke="black" points="189,-0.5 189,-19.5 308,-19.5 308,-0.5 189,-0.5"/>
<text text-anchor="middle" x="248.5" y="-7.5" font-family="Helvetica,sans-Serif" font-size="10.00">WordQuizzle.Tester.run</text>
</a>
</g>
</g>
<!-- Node2&#45;&gt;Node8 -->
<g id="edge7" class="edge"><title>Node2&#45;&gt;Node8</title>
<path fill="none" stroke="midnightblue" d="M417.044,-54.5339C391.877,-46.8321 358.652,-36.9386 329,-29 316.8,-25.7337 303.474,-22.4421 291.279,-19.5375"/>
<polygon fill="midnightblue" stroke="midnightblue" points="416.026,-57.8826 426.613,-57.4754 418.083,-51.1916 416.026,-57.8826"/>
</g>
<!-- Node4 -->
<g id="node4" class="node"><title>Node4</title>
<g id="a_node4"><a xlink:href="class_word_quizzle_1_1_w_q_gui.html#ae0526e759d1f51457ce5e6144a51432f" target="_top" xlink:title="Avvia l&#39;interfaccia.">
<polygon fill="white" stroke="black" points="0,-114.5 0,-133.5 132,-133.5 132,-114.5 0,-114.5"/>
<text text-anchor="middle" x="66" y="-121.5" font-family="Helvetica,sans-Serif" font-size="10.00">WordQuizzle.WQGui.main</text>
</a>
</g>
</g>
<!-- Node3&#45;&gt;Node4 -->
<g id="edge3" class="edge"><title>Node3&#45;&gt;Node4</title>
<path fill="none" stroke="midnightblue" d="M170.641,-124C157.849,-124 144.69,-124 132.222,-124"/>
<polygon fill="midnightblue" stroke="midnightblue" points="170.801,-127.5 180.801,-124 170.801,-120.5 170.801,-127.5"/>
</g>
<!-- Node7 -->
<g id="node7" class="node"><title>Node7</title>
<g id="a_node7"><a xlink:href="class_word_quizzle_1_1_w_q_cli.html#a7c2d51051cc7f1b20c57c1424d3b7727" target="_top" xlink:title="Gestisce l&#39;interazione con l&#39;utente.">
<polygon fill="white" stroke="black" points="2,-38.5 2,-57.5 130,-57.5 130,-38.5 2,-38.5"/>
<text text-anchor="middle" x="66" y="-45.5" font-family="Helvetica,sans-Serif" font-size="10.00">WordQuizzle.WQCli.main</text>
</a>
</g>
</g>
<!-- Node6&#45;&gt;Node7 -->
<g id="edge6" class="edge"><title>Node6&#45;&gt;Node7</title>
<path fill="none" stroke="midnightblue" d="M172.696,-48C158.604,-48 143.994,-48 130.296,-48"/>
<polygon fill="midnightblue" stroke="midnightblue" points="172.845,-51.5001 182.845,-48 172.845,-44.5001 172.845,-51.5001"/>
</g>
</g>
</svg>
